<?xml version="1.0" encoding="UTF-8"?>
<svg width="654px" height="769px" viewBox="0 0 654 769" version="1.1" xmlns="http://www.w3.org/2000/svg" xmlns:xlink="http://www.w3.org/1999/xlink">
    <!-- Generator: Sketch 50.2 (55047) - http://www.bohemiancoding.com/sketch -->
    <title>Group 19</title>
    <desc>Created with Sketch.</desc>
    <defs>
        <polygon id="path-1" points="0.000161483368 0.437 224.076926 0.437 224.076926 214.999681 0.000161483368 214.999681"></polygon>
        <linearGradient x1="31.4296206%" y1="-39.2040706%" x2="50%" y2="100%" id="linearGradient-3">
            <stop stop-color="#529CFB" offset="0%"></stop>
            <stop stop-color="#8380E5" offset="100%"></stop>
        </linearGradient>
        <linearGradient x1="96.1475817%" y1="-445.563594%" x2="50%" y2="100%" id="linearGradient-4">
            <stop stop-color="#529CFB" offset="0%"></stop>
            <stop stop-color="#8380E5" offset="100%"></stop>
        </linearGradient>
        <polygon id="path-5" points="0 0.705 72.2939627 0.705 72.2939627 73 0 73"></polygon>
        <path d="M34.17,0.837 L53.234,19.901 C52.76,28.464 49.246,36.886 42.712,43.419 C36.178,49.953 27.764,53.46 19.208,53.941 L0.137,34.87 L34.17,0.837 Z" id="path-7"></path>
        <path d="M7.136,7.84 C-2.261,17.237 -2.261,32.472 7.136,41.87 C16.533,51.266 31.769,51.266 41.166,41.87 C50.564,32.472 50.564,17.237 41.166,7.84 C36.467,3.141 30.309,0.791 24.151,0.791 C17.993,0.791 11.834,3.141 7.136,7.84" id="path-9"></path>
        <polygon id="path-11" points="0 0.705 72.2939627 0.705 72.2939627 73 0 73"></polygon>
        <path d="M34.17,0.837 L53.234,19.901 C52.76,28.464 49.246,36.886 42.712,43.419 C36.178,49.953 27.764,53.46 19.208,53.941 L0.137,34.87 L34.17,0.837 Z" id="path-13"></path>
        <path d="M7.136,7.84 C-2.261,17.237 -2.261,32.472 7.136,41.87 C16.533,51.266 31.769,51.266 41.166,41.87 C50.564,32.472 50.564,17.237 41.166,7.84 C36.467,3.141 30.309,0.791 24.151,0.791 C17.993,0.791 11.834,3.141 7.136,7.84" id="path-15"></path>
        <polygon id="path-17" points="0 0.705 72.2939627 0.705 72.2939627 73 0 73"></polygon>
        <path d="M7.136,7.84 C-2.261,17.237 -2.261,32.472 7.136,41.87 C16.533,51.266 31.769,51.266 41.166,41.87 C50.564,32.472 50.564,17.237 41.166,7.84 C36.467,3.141 30.309,0.791 24.151,0.791 C17.993,0.791 11.834,3.141 7.136,7.84" id="path-19"></path>
        <polygon id="path-21" points="0 0.705 72.2939627 0.705 72.2939627 73 0 73"></polygon>
        <path d="M7.136,7.84 C-2.261,17.237 -2.261,32.472 7.136,41.87 C16.533,51.266 31.769,51.266 41.166,41.87 C50.564,32.472 50.564,17.237 41.166,7.84 C36.467,3.141 30.309,0.791 24.151,0.791 C17.993,0.791 11.834,3.141 7.136,7.84" id="path-23"></path>
    </defs>
    <g id="Page-1" stroke="none" stroke-width="1" fill="none" fill-rule="evenodd">
        <g id="TopMonks-desktop" transform="translate(-398.000000, -1851.000000)">
            <g id="Group-19" transform="translate(398.000000, 1705.000000)">
                <g id="Page-1" transform="translate(213.000000, 0.000000)">
                    <path d="M73.3255449,888.111 L73.3255449,870.111 L112.488545,870.111 C135.355545,870.111 154.262545,851.891 154.635545,829.496 C154.822545,818.315 150.613545,807.773 142.783545,799.811 C134.950545,791.846 124.486545,787.461 113.317545,787.461 L74.1535449,787.461 C41.5275449,787.461 14.5465449,761.3 14.0085449,729.146 C13.7405449,713.101 19.7845449,697.97 31.0255449,686.54 C42.2695449,675.107 57.2915449,668.81 73.3255449,668.81 L112.488545,668.81 C135.355545,668.81 154.262545,650.591 154.635545,628.194 C154.822545,617.014 150.613545,606.471 142.783545,598.509 C134.951545,590.546 124.486545,586.159 113.317545,586.159 L74.1535449,586.159 C41.5275449,586.159 14.5465449,559.999 14.0085449,527.844 C13.7405449,511.8 19.7845449,496.669 31.0255449,485.238 C42.2695449,473.805 57.2925449,467.508 73.3255449,467.508 L112.488545,467.508 C135.355545,467.508 154.262545,449.289 154.635545,426.893 C154.822545,415.713 150.613545,405.17 142.783545,397.208 C134.950545,389.244 124.486545,384.857 113.317545,384.857 L74.1535449,384.857 C41.5275449,384.857 14.5465449,358.698 14.0085449,326.543 C13.7405449,310.499 19.7845449,295.367 31.0255449,283.937 C42.2695449,272.504 57.2925449,266.207 73.3255449,266.207 L93.3215449,266.207 C99.3845449,266.207 104.317545,261.275 104.317545,255.211 L104.317545,194 C104.317545,189.029437 108.346982,185 113.317545,185 L113.317545,185 C118.288108,185 122.317545,189.029437 122.317545,194 L122.317545,255.211 C122.317545,271.2 109.309545,284.207 93.3215449,284.207 L73.3255449,284.207 C62.1565449,284.207 51.6925449,288.593 43.8595449,296.558 C36.0285449,304.52 31.8195449,315.062 32.0065449,326.242 C32.3805449,348.638 51.2875449,366.858 74.1535449,366.858 L113.317545,366.858 C129.350545,366.858 144.373545,373.154 155.616545,384.587 C166.858545,396.018 172.901545,411.149 172.633545,427.193 C172.097545,459.348 145.116545,485.508 112.488545,485.508 L73.3255449,485.508 C62.1565449,485.508 51.6925449,489.895 43.8595449,497.86 C36.0285449,505.821 31.8195449,516.364 32.0065449,527.544 C32.3805449,549.939 51.2875449,568.159 74.1535449,568.159 L113.317545,568.159 C129.351545,568.159 144.373545,574.456 155.617545,585.888 C166.858545,597.319 172.901545,612.45 172.633545,628.495 C172.097545,660.65 145.116545,686.81 112.488545,686.81 L73.3255449,686.81 C62.1565449,686.81 51.6925449,691.196 43.8595449,699.161 C36.0285449,707.123 31.8195449,717.666 32.0065449,728.845 C32.3805449,751.241 51.2875449,769.461 74.1535449,769.461 L113.317545,769.461 C129.350545,769.461 144.373545,775.756 155.616545,787.19 C166.858545,798.621 172.901545,813.752 172.633545,829.797 C172.097545,861.951 145.116545,888.111 112.488545,888.111 L73.3255449,888.111 Z" id="Fill-1" fill="#FFFFFF"></path>
                    <g id="Group-3">
                        <g transform="translate(0.000000, 0.563000)">
                            <mask id="mask-2" fill="white">
                                <use xlink:href="#path-1"></use>
                            </mask>
                            <g id="Clip-2"></g>
                            <path d="M113.055794,162.249169 L113.110718,162.775491 C122.33123,161.923576 131.569128,161.217072 140.763166,160.136768 C143.76976,159.783516 146.742372,158.657772 149.578663,157.509505 C151.544862,156.713305 151.456352,155.307804 149.647812,154.18127 C149.039301,153.802334 148.381004,153.430115 147.694652,153.262182 C144.573073,152.499569 141.466509,151.566256 138.294352,151.136743 C121.451656,148.8572 104.578929,148.822428 87.7453205,151.164007 C84.0120702,151.683612 80.3732574,152.955161 76.7387912,154.040601 C76.0753569,154.23896 75.233716,155.205464 75.2214668,155.83136 C75.2100078,156.447773 76.0259648,157.344733 76.6941408,157.656101 C78.2893071,158.399748 79.9741695,159.031176 81.6878768,159.425128 C92.0116101,161.797528 102.52659,162.123515 113.055794,162.249169 M110.920476,146.32714 C124.701654,146.570149 136.205265,147.058538 147.431491,149.989266 C150.012523,150.663369 152.499117,151.780815 154.93711,152.8951 C156.606957,153.658504 157.492458,155.088108 157.277109,157.065767 C157.177929,157.976557 157.200452,158.91145 157.270786,159.827772 C157.558051,163.572876 156.164404,166.509926 153.483798,169.143512 C144.514592,177.953477 135.739004,186.961405 126.745301,195.746082 C123.760834,198.661399 122.229285,201.820911 122.43199,206.053614 C122.671442,211.04498 122.416975,216.058077 122.521291,221.058926 C122.566731,223.24245 121.770531,224.900444 120.159164,226.219409 C116.538528,229.184119 112.364305,230.910866 107.702879,231.097766 C104.591178,231.222629 103.490723,230.326854 103.547622,227.107676 C103.677622,219.737194 103.515221,212.36197 103.621513,204.991092 C103.67051,201.593708 102.487076,198.919819 100.097685,196.55295 C90.9317019,187.473107 81.8858402,178.271562 72.6795532,169.233208 C69.9475789,166.551021 68.6693121,163.581174 68.7740232,159.754276 C68.9356341,153.831179 69.302716,153.112426 74.9432906,151.098414 C81.3757189,148.801881 88.0930407,147.868963 94.8403929,147.273492 C100.931818,146.736107 107.053669,146.544861 110.920476,146.32714" id="Fill-1" fill="#FFFFFF" mask="url(#mask-2)"></path>
                        </g>
                    </g>
                </g>
                <g id="Group-4" transform="translate(289.000000, 839.000000)">
                    <path d="M61.7119,10.5907 C69.2919,18.1707 72.8059,28.2757 72.2339,38.1957 C71.7599,46.7597 68.2459,55.1807 61.7119,61.7147 C55.1779,68.2487 46.7639,71.7557 38.2079,72.2367 C28.2799,72.8017 18.1679,69.2947 10.5879,61.7147 C-3.5331,47.5937 -3.5261,24.7047 10.5879,10.5907 C24.7089,-3.5303 47.5909,-3.5303 61.7119,10.5907" id="Fill-5" stroke="#FFFFFF" stroke-width="6" fill="url(#linearGradient-3)"></path>
                    <text id="Finish-product" font-family="Lato-Black, Lato" font-size="13" font-weight="700" line-spacing="15" fill="#FFFFFF">
                        <tspan x="18.13225" y="32">Finish</tspan>
                        <tspan x="12.5" y="47">product</tspan>
                    </text>
                </g>
                <g id="Page-1" transform="translate(253.000000, 289.000000)">
                    <g id="Group-11" transform="translate(0.000000, 0.295200)">
                        <rect id="Rectangle-3" fill="url(#linearGradient-4)" x="65" y="36" width="297" height="4"></rect>
                        <g id="Group-7">
                            <mask id="mask-6" fill="white">
                                <use xlink:href="#path-5"></use>
                            </mask>
                            <g id="Clip-6"></g>
                            <path d="M61.7119,11.2955 C69.2919,18.8755 72.8059,28.9805 72.2339,38.9005 C71.7599,47.4645 68.2459,55.8855 61.7119,62.4195 C55.1779,68.9535 46.7639,72.4605 38.2079,72.9415 C28.2799,73.5065 18.1679,69.9995 10.5879,62.4195 C-3.5331,48.2985 -3.5261,25.4095 10.5879,11.2955 C24.7089,-2.8255 47.5909,-2.8255 61.7119,11.2955" id="Fill-5" fill="url(#linearGradient-3)" mask="url(#mask-6)"></path>
                        </g>
                        <g id="Group-10" transform="translate(19.000000, 19.000000)">
                            <mask id="mask-8" fill="white">
                                <use xlink:href="#path-7"></use>
                            </mask>
                            <g id="Clip-9"></g>
                            <path d="M34.17,0.837 L53.234,19.901 C52.76,28.464 49.246,36.886 42.712,43.419 C36.178,49.953 27.764,53.46 19.208,53.941 L0.137,34.87 L34.17,0.837 Z" id="Fill-8" mask="url(#mask-8)"></path>
                        </g>
                    </g>
                    <g id="Group-14" transform="translate(12.000000, 12.295200)">
                        <mask id="mask-10" fill="white">
                            <use xlink:href="#path-9"></use>
                        </mask>
                        <g id="Clip-13"></g>
                        <path d="M7.136,7.84 C-2.261,17.237 -2.261,32.472 7.136,41.87 C16.533,51.266 31.769,51.266 41.166,41.87 C50.564,32.472 50.564,17.237 41.166,7.84 C36.467,3.141 30.309,0.791 24.151,0.791 C17.993,0.791 11.834,3.141 7.136,7.84" id="Fill-12" fill="#FFFFFF" mask="url(#mask-10)"></path>
                        <text id="01" mask="url(#mask-10)" font-family="Lato-Black, Lato" font-size="20" font-weight="700" fill="#529CFB">
                            <tspan x="13" y="32">01</tspan>
                        </text>
                        <text id="01-copy" mask="url(#mask-10)" font-family="Avenir-Black, Avenir" font-size="18" font-weight="700" fill="#9B9B9B">
                            <tspan x="94" y="128">01</tspan>
                        </text>
                    </g>
                </g>
                <g id="Page-1-Copy-3" transform="translate(253.000000, 489.000000)">
                    <g id="Group-11" transform="translate(0.000000, 0.295200)">
                        <rect id="Rectangle-3" fill="url(#linearGradient-4)" x="65" y="36" width="336" height="4"></rect>
                        <g id="Group-7">
                            <mask id="mask-12" fill="white">
                                <use xlink:href="#path-11"></use>
                            </mask>
                            <g id="Clip-6"></g>
                            <path d="M61.7119,11.2955 C69.2919,18.8755 72.8059,28.9805 72.2339,38.9005 C71.7599,47.4645 68.2459,55.8855 61.7119,62.4195 C55.1779,68.9535 46.7639,72.4605 38.2079,72.9415 C28.2799,73.5065 18.1679,69.9995 10.5879,62.4195 C-3.5331,48.2985 -3.5261,25.4095 10.5879,11.2955 C24.7089,-2.8255 47.5909,-2.8255 61.7119,11.2955" id="Fill-5" fill="url(#linearGradient-3)" mask="url(#mask-12)"></path>
                        </g>
                        <g id="Group-10" transform="translate(19.000000, 19.000000)">
                            <mask id="mask-14" fill="white">
                                <use xlink:href="#path-13"></use>
                            </mask>
                            <g id="Clip-9"></g>
                            <path d="M34.17,0.837 L53.234,19.901 C52.76,28.464 49.246,36.886 42.712,43.419 C36.178,49.953 27.764,53.46 19.208,53.941 L0.137,34.87 L34.17,0.837 Z" id="Fill-8" mask="url(#mask-14)"></path>
                        </g>
                    </g>
                    <g id="Group-14" transform="translate(12.000000, 12.295200)">
                        <mask id="mask-16" fill="white">
                            <use xlink:href="#path-15"></use>
                        </mask>
                        <g id="Clip-13"></g>
                        <path d="M7.136,7.84 C-2.261,17.237 -2.261,32.472 7.136,41.87 C16.533,51.266 31.769,51.266 41.166,41.87 C50.564,32.472 50.564,17.237 41.166,7.84 C36.467,3.141 30.309,0.791 24.151,0.791 C17.993,0.791 11.834,3.141 7.136,7.84" id="Fill-12" fill="#FFFFFF" mask="url(#mask-16)"></path>
                        <text id="03" mask="url(#mask-16)" font-family="Lato-Black, Lato" font-size="20" font-weight="700" fill="#529CFB">
                            <tspan x="13" y="32">03</tspan>
                        </text>
                        <text id="01-copy" mask="url(#mask-16)" font-family="Avenir-Black, Avenir" font-size="18" font-weight="700" fill="#9B9B9B">
                            <tspan x="94" y="128">01</tspan>
                        </text>
                    </g>
                </g>
                <g id="Page-1-Copy-2" transform="translate(180.000000, 478.000000) scale(-1, 1) translate(-180.000000, -478.000000) translate(0.000000, 389.000000)">
                    <g id="Group-11" transform="translate(0.000000, 0.295200)">
                        <rect id="Rectangle-3" fill="url(#linearGradient-4)" transform="translate(211.500000, 38.000000) scale(1, -1) translate(-211.500000, -38.000000) " x="63" y="36" width="297" height="4"></rect>
                        <g id="Group-7">
                            <mask id="mask-18" fill="white">
                                <use xlink:href="#path-17"></use>
                            </mask>
                            <g id="Clip-6"></g>
                            <path d="M61.7119,11.2955 C69.2919,18.8755 72.8059,28.9805 72.2339,38.9005 C71.7599,47.4645 68.2459,55.8855 61.7119,62.4195 C55.1779,68.9535 46.7639,72.4605 38.2079,72.9415 C28.2799,73.5065 18.1679,69.9995 10.5879,62.4195 C-3.5331,48.2985 -3.5261,25.4095 10.5879,11.2955 C24.7089,-2.8255 47.5909,-2.8255 61.7119,11.2955" id="Fill-5" fill="url(#linearGradient-3)" mask="url(#mask-18)"></path>
                        </g>
                    </g>
                    <g id="Group-14" transform="translate(12.000000, 12.295200)">
                        <mask id="mask-20" fill="white">
                            <use xlink:href="#path-19"></use>
                        </mask>
                        <g id="Clip-13"></g>
                        <path d="M7.136,7.84 C-2.261,17.237 -2.261,32.472 7.136,41.87 C16.533,51.266 31.769,51.266 41.166,41.87 C50.564,32.472 50.564,17.237 41.166,7.84 C36.467,3.141 30.309,0.791 24.151,0.791 C17.993,0.791 11.834,3.141 7.136,7.84" id="Fill-12" fill="#FFFFFF" mask="url(#mask-20)"></path>
                        <text id="02" mask="url(#mask-20)" transform="translate(25.000000, 23.000000) scale(-1, 1) translate(-25.000000, -23.000000) " font-family="Lato-Black, Lato" font-size="20" font-weight="700" fill="#529CFB">
                            <tspan x="13" y="31">02</tspan>
                        </text>
                    </g>
                </g>
                <g id="Page-1-Copy-4" transform="translate(182.000000, 679.000000) scale(-1, 1) translate(-182.000000, -679.000000) translate(2.000000, 590.000000)">
                    <g id="Group-11" transform="translate(0.000000, 0.295200)">
                        <rect id="Rectangle-3" fill="url(#linearGradient-4)" transform="translate(211.500000, 38.000000) scale(1, -1) translate(-211.500000, -38.000000) " x="63" y="36" width="297" height="4"></rect>
                        <g id="Group-7">
                            <mask id="mask-22" fill="white">
                                <use xlink:href="#path-21"></use>
                            </mask>
                            <g id="Clip-6"></g>
                            <path d="M61.7119,11.2955 C69.2919,18.8755 72.8059,28.9805 72.2339,38.9005 C71.7599,47.4645 68.2459,55.8855 61.7119,62.4195 C55.1779,68.9535 46.7639,72.4605 38.2079,72.9415 C28.2799,73.5065 18.1679,69.9995 10.5879,62.4195 C-3.5331,48.2985 -3.5261,25.4095 10.5879,11.2955 C24.7089,-2.8255 47.5909,-2.8255 61.7119,11.2955" id="Fill-5" fill="url(#linearGradient-3)" mask="url(#mask-22)"></path>
                        </g>
                    </g>
                    <g id="Group-14" transform="translate(12.000000, 12.295200)">
                        <mask id="mask-24" fill="white">
                            <use xlink:href="#path-23"></use>
                        </mask>
                        <g id="Clip-13"></g>
                        <path d="M7.136,7.84 C-2.261,17.237 -2.261,32.472 7.136,41.87 C16.533,51.266 31.769,51.266 41.166,41.87 C50.564,32.472 50.564,17.237 41.166,7.84 C36.467,3.141 30.309,0.791 24.151,0.791 C17.993,0.791 11.834,3.141 7.136,7.84" id="Fill-12" fill="#FFFFFF" mask="url(#mask-24)"></path>
                        <text id="04" mask="url(#mask-24)" transform="translate(24.000000, 24.000000) scale(-1, 1) translate(-24.000000, -24.000000) " font-family="Lato-Black, Lato" font-size="20" font-weight="700" fill="#529CFB">
                            <tspan x="12" y="32">04</tspan>
                        </text>
                    </g>
                </g>
            </g>
        </g>
    </g>
</svg>