<?xml version="1.0" encoding="UTF-8"?>
<svg width="134px" height="135px" viewBox="0 0 134 135" version="1.1" xmlns="http://www.w3.org/2000/svg" xmlns:xlink="http://www.w3.org/1999/xlink">
    <g id="Page-1" stroke="none" stroke-width="1" fill="none" fill-rule="evenodd">
        <g id="about-us---vsichni-2-copy-9" transform="translate(-384.000000, -2024.000000)">
            <rect fill="#FFFFFF" x="0" y="0" width="1440" height="3862"></rect>
            <g id="Group-11" transform="translate(385.000000, 2014.000000)" fill-rule="nonzero" stroke="#E0E2E5" stroke-width="2">
                <path d="M114.918782,102.686358 L89.9744348,102.686358 C88.4091245,102.686358 84.7696704,102.246519 84.7696704,98.180162 C84.7696704,95.1012873 87.2750292,92.5959285 90.3539039,92.5959285 C90.9547301,92.5959285 91.5555562,92.6951079 92.1376964,92.890592 C92.7169618,93.0875135 93.3580347,93.0242687 93.8941786,92.7195434 C94.4274477,92.4133808 94.8069169,91.8959229 94.934844,91.2936594 C95.8490197,86.974323 99.7242046,83.8393904 104.149907,83.8393904 C109.346047,83.8393904 113.574828,88.0652968 113.574828,93.2614369 C113.574828,93.6092836 113.553268,93.9499434 113.517333,94.286291 C113.390843,95.4419471 114.20584,96.488362 115.355746,96.6536611 C116.836251,96.863519 117.954535,98.1528517 117.954535,99.6506049 C117.953098,101.325156 116.591896,102.686358 114.918782,102.686358 Z M114.829664,69.2657628 C117.484511,66.8725199 119.166249,63.4228004 119.166249,59.5663014 C119.166249,52.3434511 113.31035,46.4861149 106.086062,46.4861149 L13.0801865,46.4861149 C5.85733628,46.4861149 0,52.3420138 0,59.5663014 C0,66.790589 5.8558989,72.6464879 13.0801865,72.6464879 L82.6035341,72.6464879 C79.4226052,75.1920935 76.762009,78.3586485 74.8229791,81.9736671 L13.0801865,81.9736671 C5.85733628,81.9736671 0,87.8281286 0,95.0524163 C0,102.276704 5.8558989,108.132603 13.0801865,108.132603 L57.4292058,108.132603 L57.4292058,130.412041 C57.4292058,130.539968 57.4464544,130.663583 57.4665778,130.785761 C55.4599909,131.454144 53.8918059,133.023767 53.2234228,135.028916 C53.1012452,135.007355 52.9776302,134.991544 52.8497031,134.991544 L25.6745376,134.991544 C24.4843843,134.991544 23.5184629,135.957466 23.5184629,137.147619 C23.5184629,138.337772 24.4843843,139.303693 25.6745376,139.303693 L52.8497031,139.303693 C52.9776302,139.303693 53.1012452,139.286445 53.2234228,139.266322 C54.1146003,141.939854 56.6098974,143.883196 59.5852805,143.883196 C62.5577888,143.883196 65.053086,141.939854 65.9442635,139.266322 C66.0664411,139.287882 66.190056,139.303693 66.3179831,139.303693 L93.4931487,139.303693 C94.6833019,139.303693 95.6492234,138.337772 95.6492234,137.147619 C95.6492234,135.957466 94.6833019,134.991544 93.4931487,134.991544 L66.3165457,134.991544 C66.1886186,134.991544 66.0650037,135.008793 65.9428261,135.028916 C65.274443,133.023767 63.706258,131.454144 61.7025459,130.785761 C61.7241066,130.663583 61.7399178,130.539968 61.7399178,130.412041 L61.7399178,108.132603 L73.7722521,108.132603 C78.4149996,118.77355 89.0271993,126.237881 101.359947,126.237881 C117.953098,126.237881 131.453,112.736541 131.453,96.1419527 C131.454437,84.3913455 124.671426,74.2204225 114.829664,69.2657628 Z M13.1304949,65.6493068 C9.65202776,65.6493068 6.83331943,62.8305985 6.83331943,59.3521313 C6.83331943,55.8736641 9.65202776,53.0549558 13.1304949,53.0549558 C16.6089621,53.0549558 19.4276705,55.8736641 19.4276705,59.3521313 C19.4276705,62.8305985 16.6089621,65.6493068 13.1304949,65.6493068 Z M13.1304949,101.133984 C9.65202776,101.133984 6.83331943,98.315276 6.83331943,94.8368088 C6.83331943,91.3583416 9.65202776,88.5396333 13.1304949,88.5396333 C16.6089621,88.5396333 19.4276705,91.3583416 19.4276705,94.8368088 C19.4276705,98.315276 16.6089621,101.133984 13.1304949,101.133984 Z M101.361384,121.922857 C87.1442274,121.922857 75.5776053,110.356235 75.5776053,96.1390779 C75.5776053,81.9219213 87.1442274,70.3567366 101.361384,70.3567366 C115.577103,70.3567366 127.142288,81.9233587 127.142288,96.1405153 C127.142288,110.357672 115.577103,121.922857 101.361384,121.922857 Z M13.0801865,37.1589357 L106.086062,37.1589357 C113.308913,37.1589357 119.166249,31.3044742 119.166249,24.0801865 C119.166249,16.8558989 113.31035,11 106.086062,11 L13.0801865,11 C5.85733628,11 0,16.8544615 0,24.0801865 C0,31.3030368 5.85733628,37.1589357 13.0801865,37.1589357 Z M13.1304949,17.5674035 C16.6089621,17.5674035 19.4276705,20.3889866 19.4276705,23.8660164 C19.4276705,27.3430463 16.6089621,30.1646294 13.1304949,30.1646294 C9.65202776,30.1646294 6.83331943,27.3430463 6.83331943,23.8660164 C6.83331943,20.3889866 9.65202776,17.5674035 13.1304949,17.5674035 Z" id="Shape"></path>
            </g>
        </g>
    </g>
</svg>
