<?xml version="1.0" encoding="UTF-8"?>
<svg width="117px" height="117px" viewBox="0 0 117 117" version="1.1" xmlns="http://www.w3.org/2000/svg" xmlns:xlink="http://www.w3.org/1999/xlink">
    <g id="Page-1" stroke="none" stroke-width="1" fill="none" fill-rule="evenodd">
        <g id="about-us---vsichni-2-copy-8" transform="translate(-422.000000, -1596.000000)">
            <rect fill="#FFFFFF" x="0" y="0" width="1440" height="3862"></rect>
            <g id="Group-9" transform="translate(422.000000, 1596.000000)" fill="#E0E2E5" fill-rule="nonzero">
                <path d="M61.3870317,31.4966344 C54.8098498,38.0738164 54.8098498,49.0357863 61.3870317,55.6129683 C67.9642137,62.1901502 78.9261836,62.1901502 85.5033656,55.6129683 C92.0805476,49.0357863 92.0805476,38.0738164 85.5033656,31.4966344 C78.6825843,24.9194524 67.9642137,24.9194524 61.3870317,31.4966344 Z M113.517289,2.02111519 C114.004487,2.26471452 114.735285,2.99551251 114.978885,3.48271118 C115.466083,4.94430717 125.697255,35.8814224 95.0037396,70.2289282 L95.9781369,81.1908982 C96.2217362,81.9216962 95.7345376,82.8960935 95.2473389,83.3832922 L60.6562337,114.320407 C59.9254357,114.807606 58.9510384,115.051205 57.9766411,114.564007 C57.2458431,114.076808 56.5150451,113.102411 56.7586444,112.128013 C57.0022437,109.448421 57.4894424,101.653242 55.7842471,97.5120534 L49.2070651,90.9348715 L46.5274725,98.4864508 C46.0402738,100.191646 43.8478798,100.678845 42.6298831,99.4608481 L17.0519533,73.8829182 C15.8339566,72.6649215 16.3211553,70.7161269 18.0263506,69.9853289 L25.5779299,67.3057362 L19.0007479,60.7285543 C14.8595593,59.0233589 7.06438063,59.5105576 4.38478798,59.7541569 C2.19239399,59.9977563 0.730797997,57.3181636 2.19239399,55.6129683 L32.8859099,21.0218631 C33.3731085,20.5346644 34.3475058,20.2910651 35.0783038,20.2910651 L46.7710718,21.9962604 C81.1185776,-8.69725543 112.055693,1.53391652 113.517289,2.02111519 Z M9.74397329,54.6385709 C12.9107646,54.3949716 16.5647546,54.6385709 19.7315459,55.8565676 C26.7959265,44.407399 34.3475058,34.4198264 42.3862838,26.3810484 L35.8091018,25.4066511 L9.74397329,54.6385709 Z M43.6042805,93.6144641 L46.0402738,87.7680801 L29.4755192,71.2033255 L23.3855359,73.3957195 L43.6042805,93.6144641 Z M62.3614291,107.256027 L91.5933489,81.1908982 L90.6189516,74.6137162 C82.5801736,82.6524942 72.592601,90.2040735 61.1434324,97.2684541 C62.1178297,100.435245 62.3614291,104.089235 62.3614291,107.256027 Z M81.8493756,52.2025776 C77.2209883,56.8309649 69.4258097,56.8309649 64.7974224,52.2025776 C60.1690351,47.5741903 60.1690351,39.7790117 64.7974224,35.1506244 C69.4258097,30.5222371 77.2209883,30.5222371 81.8493756,35.1506244 C86.7213623,39.7790117 86.7213623,47.5741903 81.8493756,52.2025776 Z M90.6189516,67.7929349 C117.171279,38.8046144 112.055693,12.0086878 110.594097,6.40590317 C104.747713,4.70070784 78.438985,-0.414878136 49.2070651,26.3810484 C39.9502905,34.907025 31.4243139,45.6253957 23.6291352,58.5361603 L50.4250618,85.3320868 L58.4638397,93.3708648 C71.6182037,85.5756861 82.3365743,76.8061102 90.6189516,67.7929349 Z M0.730797997,95.8068581 C-0.243599332,94.8324608 -0.243599332,93.1272654 0.730797997,92.3964674 L13.6415626,79.4857028 C14.6159599,78.5113055 16.0775559,78.5113055 17.0519533,79.4857028 C18.0263506,80.4601002 18.0263506,81.9216962 17.0519533,82.8960935 L4.14118865,95.8068581 C3.16679132,96.7812554 1.70519533,96.7812554 0.730797997,95.8068581 Z M23.8727346,89.7168748 C24.8471319,88.7424775 26.3087279,88.7424775 27.2831252,89.7168748 C28.2575225,90.6912721 28.2575225,92.1528681 27.2831252,93.1272654 L7.06438063,113.34601 C6.08998331,114.320407 4.62838731,114.320407 3.65398998,113.34601 C2.67959265,112.371613 2.67959265,110.910017 3.65398998,109.935619 L23.8727346,89.7168748 Z M34.1039065,99.9480467 C35.0783038,98.9736494 36.5398998,98.9736494 37.5142972,99.9480467 C38.4886945,100.922444 38.4886945,102.38404 37.5142972,103.358437 L24.6035326,116.269202 C23.6291352,117.243599 22.1675392,117.243599 21.1931419,116.269202 C20.2187446,115.294805 20.2187446,113.833209 21.1931419,112.858811 L34.1039065,99.9480467 Z" id="Combined-Shape"></path>
            </g>
        </g>
    </g>
</svg>
