<?xml version="1.0" encoding="UTF-8"?>
<svg width="135px" height="117px" viewBox="0 0 135 117" version="1.1" xmlns="http://www.w3.org/2000/svg" xmlns:xlink="http://www.w3.org/1999/xlink">
    <g id="Page-1" stroke="none" stroke-width="1" fill="none" fill-rule="evenodd">
        <path d="M124.054054,0 C118.051991,0 113.108108,4.95417832 113.108108,10.9687414 C113.108108,13.3980252 113.917471,15.6546792 115.274493,17.4814317 L94.0097128,47.9311332 C93.1131103,47.6898209 92.1841662,47.5311397 91.2162162,47.5311397 C86.4907401,47.5311397 82.4147434,50.6022045 80.8973818,54.8436157 L54.1026182,54.8436157 C52.5852547,50.6022045 48.5092581,47.5311397 43.7837838,47.5311397 C37.7817203,47.5311397 32.8378378,52.4853546 32.8378378,58.4998629 C32.8378378,60.9292563 33.6471975,63.185892 35.004223,65.0125531 L13.7394426,95.4623278 C12.8428419,95.2210155 11.9138959,95.0625171 10.9459459,95.0625171 C4.94388243,95.0625171 0,100.016732 0,106.031259 C0,112.045785 4.94388243,117 10.9459459,117 C16.9480076,117 21.8918919,112.045785 21.8918919,106.031259 C21.8918919,103.601865 21.0825304,101.345229 19.7255068,99.5185683 L40.9902872,69.0687937 C41.886886,69.310106 42.815832,69.4686043 43.7837838,69.4686043 C48.5092581,69.4686043 52.5852547,66.3977223 54.1026182,62.15611 L80.8973818,62.15611 C82.4147434,66.3977223 86.4907401,69.4686043 91.2162162,69.4686043 C97.2182779,69.4686043 102.162162,64.5145723 102.162162,58.4998629 C102.162162,56.0706523 101.352799,53.8140348 99.995777,51.9871909 L121.260557,21.5375808 C122.15716,21.778948 123.086104,21.9374829 124.054054,21.9374829 C130.056118,21.9374829 135,16.9833045 135,10.9687414 C135,4.95417832 130.056118,0 124.054054,0 Z M124.054054,7.31249429 C126.112366,7.31249429 127.702703,8.90614273 127.702703,10.9687414 C127.702703,13.0313401 126.112366,14.6249886 124.054054,14.6249886 C121.995744,14.6249886 120.405405,13.0313401 120.405405,10.9687414 C120.405405,8.90614273 121.995744,7.31249429 124.054054,7.31249429 Z M43.7837838,54.8436157 C45.8420941,54.8436157 47.4324324,56.4373739 47.4324324,58.4998629 C47.4324324,60.5625347 45.8420941,62.15611 43.7837838,62.15611 C41.7254716,62.15611 40.1351351,60.5625347 40.1351351,58.4998629 C40.1351351,56.4373739 41.7254716,54.8436157 43.7837838,54.8436157 Z M91.2162162,54.8436157 C93.2745266,54.8436157 94.8648649,56.4373739 94.8648649,58.4998629 C94.8648649,60.5625347 93.2745266,62.15611 91.2162162,62.15611 C89.1579041,62.15611 87.5675676,60.5625347 87.5675676,58.4998629 C87.5675676,56.4373739 89.1579041,54.8436157 91.2162162,54.8436157 Z M10.9459459,102.375011 C13.0042563,102.375011 14.5945946,103.968587 14.5945946,106.031259 C14.5945946,108.093748 13.0042563,109.687506 10.9459459,109.687506 C8.88763378,109.687506 7.2972973,108.093748 7.2972973,106.031259 C7.2972973,103.968587 8.88763378,102.375011 10.9459459,102.375011 Z" id="Shape" fill="#E0E2E5" fill-rule="nonzero"></path>
    </g>
</svg>
