<?xml version="1.0" encoding="UTF-8"?>
<svg width="117px" height="117px" viewBox="0 0 117 117" version="1.1" xmlns="http://www.w3.org/2000/svg" xmlns:xlink="http://www.w3.org/1999/xlink">
    <g id="Page-1" stroke="none" stroke-width="1" fill="none" fill-rule="evenodd">
        <path d="M58.500002,0 C26.215261,0 0,26.2154502 0,58.5000303 C0,90.784348 26.215261,117 58.500002,117 C90.7847411,117 117,90.784348 117,58.5000303 C117,26.2154502 90.7847411,0 58.5,0 L58.500002,0 Z M58.500003,4 C88.6233647,4 113,28.3766253 113,58.5000303 C113,88.622971 88.6233647,113 58.500001,113 C28.3766393,113 4,88.622971 4,58.5000303 C4,28.3766253 28.3766393,4 58.500001,4 L58.500003,4 Z M58.0190632,24 C56.9039326,24 56,24.8990401 56,26.0081308 L56,58.1382835 C56,58.6927284 56.202615,59.2180554 56.5678615,59.5817279 L76.5692063,79.4120193 C77.3576505,80.1959936 78.6200677,80.1959936 79.4085139,79.4120193 C80.197162,78.6276434 80.197162,77.3721601 79.4085139,76.587985 L60.0381264,57.2597263 L60.0381264,26.0081308 C60.0381264,24.8990401 59.1341918,24 58.0190632,24 Z" id="Shape" fill="#E0E2E5" fill-rule="nonzero"></path>
    </g>
</svg>
