<?xml version="1.0" encoding="UTF-8"?>
<svg width="123px" height="117px" viewBox="0 0 123 117" version="1.1" xmlns="http://www.w3.org/2000/svg" xmlns:xlink="http://www.w3.org/1999/xlink">
    <g id="Page-1" stroke="none" stroke-width="1" fill="none" fill-rule="evenodd">
        <path d="M0,45.5252918 L123,45.5252918 L123,0 L0,0 L0,45.5252918 Z M50.7944444,7.96692607 L76.3055556,22.7626459 L50.7944444,37.5583658 L50.7944444,7.96692607 Z M0,80.807393 L31.6611111,80.807393 L31.6611111,85.1322957 L0,85.1322957 L0,80.807393 Z M0,96.7412451 L40.3166667,96.7412451 L40.3166667,101.066148 L0,101.066148 L0,96.7412451 Z M0,64.8735409 L51.0222222,64.8735409 L51.0222222,69.1984436 L0,69.1984436 L0,64.8735409 Z M0,112.675097 L51.0222222,112.675097 L51.0222222,117 L0,117 L0,112.675097 Z M71.9777778,80.807393 L103.638889,80.807393 L103.638889,85.1322957 L71.9777778,85.1322957 L71.9777778,80.807393 Z M71.9777778,96.7412451 L112.294444,96.7412451 L112.294444,101.066148 L71.9777778,101.066148 L71.9777778,96.7412451 Z M71.9777778,64.8735409 L123,64.8735409 L123,69.1984436 L71.9777778,69.1984436 L71.9777778,64.8735409 Z M71.9777778,112.675097 L123,112.675097 L123,117 L71.9777778,117 L71.9777778,112.675097 Z" id="Combined-Shape" fill="#E0E2E5" fill-rule="nonzero"></path>
    </g>
</svg>
