<?xml version="1.0" encoding="UTF-8"?>
<svg width="129px" height="141px" viewBox="0 0 129 141" version="1.1" xmlns="http://www.w3.org/2000/svg" xmlns:xlink="http://www.w3.org/1999/xlink">
    <g id="Page-1" stroke="none" stroke-width="1" fill="none" fill-rule="evenodd">
        <g id="about-us---vsichni-2-copy-9" transform="translate(-385.000000, -2019.000000)">
            <rect fill="#FFFFFF" x="0" y="0" width="1440" height="3862"></rect>
            <g id="Group-11" transform="translate(386.000000, 2014.000000)" fill-rule="nonzero" stroke="#E0E2E5" stroke-width="2">
                <path d="M23.9137959,68.2680447 L95.2243043,68.2680447 C104.488207,68.2680447 112.028593,60.7276586 112.028593,51.4637557 C112.028593,43.9233696 107.073482,37.4601815 99.9639756,35.3057855 C99.1022172,30.9969935 96.7323815,27.1190806 93.2853479,24.3183658 C90.0537539,21.7330906 86.175841,20.4404529 82.5133678,20.4404529 C82.5133678,20.4404529 82.5133678,20.4404529 82.5133678,20.4404529 C78.8508945,11.3919896 70.2333104,5.79055997 60.5385283,6.00599957 C50.8437462,6.22143917 42.8724809,11.8228688 39.6408869,20.6558925 C34.9012156,19.7941341 29.9461048,20.6558925 26.0681919,23.4566074 C21.7593999,26.2573222 18.958685,30.5661143 18.0969266,35.5212251 C11.6337385,37.8910607 7.10950688,44.3542488 7.10950688,51.2483161 C7.10950688,60.7276586 14.649893,68.2680447 23.9137959,68.2680447 Z M46.9658334,24.9646846 C48.6893502,18.7169361 54.5062194,14.1927045 61.1848471,14.1927045 C62.2620451,14.1927045 63.3392431,15.0544629 63.3392431,16.3471005 C63.3392431,17.6397381 62.2620451,18.5014965 61.1848471,18.5014965 C56.4451759,18.5014965 52.567263,21.517651 51.2746254,26.0418826 C51.0591858,27.1190806 49.9819878,27.7653994 48.6893502,27.5499598 C47.181273,27.3345202 46.5349542,26.0418826 46.9658334,24.9646846 Z M119.999859,85.0723337 C123.662332,85.0723337 126.678486,87.8730485 126.463047,91.5355218 L126.463047,107.478052 C126.463047,111.140526 123.662332,113.94124 119.999859,113.94124 L111.382275,113.94124 L111.382275,117.172834 L115.691067,117.172834 C116.983704,117.172834 117.845463,118.250032 117.845463,119.327231 C117.845463,120.619868 116.983704,121.481627 115.691067,121.481627 L102.76469,121.481627 C101.687492,121.481627 100.610294,120.619868 100.610294,119.327231 C100.610294,118.250032 101.687492,117.172834 102.76469,117.172834 L107.073482,117.172834 L107.073482,113.94124 L98.4558984,113.94124 C95.0088647,113.94124 91.9927103,111.140526 91.9927103,107.478052 L91.9927103,101.014864 L84.2368846,101.014864 C76.4810589,101.014864 70.2333104,94.7671158 70.2333104,87.0112901 L70.2333104,72.5768368 L74.5421025,72.5768368 L74.5421025,87.0112901 C74.5421025,92.3972802 78.8508945,96.7060722 84.2368846,96.7060722 L91.9927103,96.7060722 L91.9927103,91.5355218 C91.9927103,88.0884881 94.7934251,85.0723337 98.4558984,85.0723337 L119.999859,85.0723337 Z M80.789851,133.546244 L83.8060054,140.871191 C84.021445,141.732949 84.021445,142.379268 83.5905658,143.025587 C83.3751262,143.671906 82.5133678,144.102785 81.867049,144.102785 L41.7952829,144.102785 C41.1489641,144.102785 40.5026453,143.671906 40.0717661,143.025587 C39.6408869,142.379268 39.6408869,141.51751 39.8563265,140.871191 L43.0879205,133.546244 L80.789851,133.546244 Z M59.8922095,72.5768368 L64.4164412,72.5768368 L64.4164412,105.969975 L77.1273777,105.969975 C78.4200153,105.969975 79.2817737,106.831734 79.2817737,108.124371 L79.2817737,129.237452 L45.0268769,129.237452 L45.0268769,108.124371 C45.0268769,106.831734 45.8886353,105.969975 47.181273,105.969975 L59.8922095,105.969975 L59.8922095,72.5768368 Z M53.2135818,84.8568941 C53.2135818,92.6127198 46.9658334,98.8604683 39.4254473,98.8604683 L27.1453899,98.8604683 L27.1453899,124.282341 C27.1453899,127.298496 24.7755543,129.668331 21.7593999,129.668331 L5.38599006,129.668331 C2.36983563,129.668331 0,127.298496 0,124.282341 L0,83.5642565 C0,80.5481021 2.36983563,78.1782664 5.38599006,78.1782664 L21.5439603,78.1782664 C24.5601147,78.1782664 26.9299503,80.5481021 26.9299503,83.5642565 L26.9299503,94.5516762 L39.2100077,94.5516762 C44.5959977,94.5516762 48.9047898,90.2428842 48.9047898,84.8568941 L48.9047898,72.5768368 L53.2135818,72.5768368 L53.2135818,84.8568941 Z M17.6660474,121.697066 C18.958685,121.697066 19.8204434,120.619868 20.035883,119.54267 C20.035883,118.250032 19.1741246,117.388274 17.881487,117.388274 L9.47934251,117.388274 C8.1867049,117.388274 7.32494649,118.250032 7.32494649,119.54267 C7.32494649,120.619868 8.1867049,121.697066 9.47934251,121.697066 L17.6660474,121.697066 Z M17.6660474,110.494207 C18.958685,110.494207 19.8204434,109.417009 20.035883,108.339811 C20.035883,107.262613 19.1741246,106.185415 17.881487,106.185415 L9.47934251,106.185415 C8.1867049,106.185415 7.32494649,107.262613 7.32494649,108.339811 C7.32494649,109.632448 8.1867049,110.494207 9.47934251,110.494207 L17.6660474,110.494207 Z M17.6660474,99.2913475 C18.958685,99.2913475 19.8204434,98.2141495 20.035883,97.1369514 C20.035883,95.8443138 19.1741246,94.9825554 17.881487,94.9825554 L9.47934251,94.9825554 C8.1867049,94.9825554 7.32494649,95.8443138 7.32494649,97.1369514 C7.32494649,98.2141495 8.1867049,99.2913475 9.47934251,99.2913475 L17.6660474,99.2913475 Z" id="Combined-Shape"></path>
            </g>
        </g>
    </g>
</svg>
