<?xml version="1.0" encoding="UTF-8"?>
<svg width="123px" height="117px" viewBox="0 0 123 117" version="1.1" xmlns="http://www.w3.org/2000/svg" xmlns:xlink="http://www.w3.org/1999/xlink">
    <g id="Page-1" stroke="none" stroke-width="1" fill="none" fill-rule="evenodd">
        <g id="about-us---vsichni-2-copy-7" transform="translate(-416.000000, -2031.000000)">
            <rect fill="#FFFFFF" x="0" y="0" width="1440" height="3862"></rect>
            <g id="Group-11" transform="translate(416.000000, 2014.000000)" fill="#E0E2E5" fill-rule="nonzero">
                <path d="M0,62.5252918 L0,17 L123,17 L123,62.5252918 L0,62.5252918 Z M0,97.807393 L31.6611111,97.807393 L31.6611111,102.132296 L0,102.132296 L0,97.807393 Z M0,113.741245 L40.3166667,113.741245 L40.3166667,118.066148 L0,118.066148 L0,113.741245 Z M0,81.8735409 L51.0222222,81.8735409 L51.0222222,86.1984436 L0,86.1984436 L0,81.8735409 Z M0,129.675097 L51.0222222,129.675097 L51.0222222,134 L0,134 L0,129.675097 Z M71.9777778,97.807393 L103.638889,97.807393 L103.638889,102.132296 L71.9777778,102.132296 L71.9777778,97.807393 Z M71.9777778,113.741245 L112.294444,113.741245 L112.294444,118.066148 L71.9777778,118.066148 L71.9777778,113.741245 Z M71.9777778,81.8735409 L123,81.8735409 L123,86.1984436 L71.9777778,86.1984436 L71.9777778,81.8735409 Z M71.9777778,129.675097 L123,129.675097 L123,134 L71.9777778,134 L71.9777778,129.675097 Z" id="Combined-Shape"></path>
            </g>
        </g>
    </g>
</svg>
