<svg xmlns="http://www.w3.org/2000/svg" xmlns:xlink="http://www.w3.org/1999/xlink" viewBox="0 0 100 50">
  <defs>
    <path id="a" d="M1.3 7.5h97.3v34.7H1.3z"/>
  </defs>
  <clipPath id="b">
    <use xlink:href="#a" overflow="visible"/>
  </clipPath>
  <g clip-path="url(#b)">
    <path d="M54.7 23.8l10.8-6.2c1-.6.4-1.1-.3-1.1v-.3h7.6v.3c-1.3.3-2.5.7-3.6 1.4l-9.7 5.5L70.9 32c.8.6 1.6 1.3 2.5 1.3v.3h-7.6l-11.1-8.7v6.7c-.1.9.5 1.7 1.4 1.8h.4v.3h-8.3v-.3c.9.1 1.7-.5 1.8-1.4V18.3c.1-.9-.6-1.7-1.5-1.8h-.3v-.3h8.3v.3c-.9-.1-1.7.5-1.8 1.4V23.8zM98.6 28.7c0 3-2.8 4.9-9.5 5H76v-.3c.9.1 1.7-.5 1.8-1.4V18.3c.1-.9-.6-1.7-1.5-1.8H76v-.3h13.9c5.7 0 7.8 1.8 7.8 4 0 2.9-3.1 3.9-6 4.1 2.9.2 6.9 1.1 6.9 4.4zm-6.2-7.8c0-2.4-2.8-2.7-5.7-2.7-1.4 0-2.9.1-4.3.3v5.1s1.7.1 2.9.1c5.7-.2 7.1-.9 7.1-2.8zm-4.5 10.7c2.4 0 5.5-.4 5.5-3.1 0-3.6-6.2-3.2-10.9-3v4.6c0 .6.8 1.3 1.7 1.3 1.1.2 3.7.3 3.7.2z"/>
    <path d="M1.3 7.5h35v17.8h-35V7.5z" fill="#333"/>
    <path d="M8.8 25.3H1.3v17.4h35V25.3h-7.5V27h-20v-1.7z"/>
  </g>
</svg>
