<svg xmlns="http://www.w3.org/2000/svg" viewBox="0 0 100 50">
  <path d="M78.4 22.7c-2.3 0-2.9 0-3.7.3-.8.3-1.3.7-1.5 1.5-.4 1.2-.3 3.6.1 4.5.3.6.9 1 1.9 1.2.8.1 6.9.1 7.5 0 1.1-.3 1.7-.9 1.9-1.9.1-.5.1-.5-2-.5h-1.8l-.1.2c-.1.3-.3.6-.6.7-.2.1-.4.1-1.3.1-1.2 0-1.3 0-1.6-.4-.2-.2-.2-1.1-.1-1.2.1-.1.5-.1 3.7-.1l3.7-.1c.1-.1.1-2.2-.1-2.6-.2-.7-.8-1.1-1.5-1.4-.5-.2-2.1-.3-4.5-.3zm.6 1.5c.4 0 .9 0 1 .1.6.3.9.8.6 1.1-.1.1-.3.1-1.7.1-1.1 0-1.6 0-1.6-.1 0 0-.1-.2-.1-.3 0-.3.3-.6.7-.8.2 0 .7-.1 1.1-.1zm-30.8 5.9c-1.1-.1-1.4-.1-1.9-.3-.5-.2-1-.6-1.2-1.2-.2-.4-.3-1.1-.2-1.5v-.3h4.5v.4c.1.6.3.9.8 1.1.1 0 .7.1 1.6 0 1.3 0 1.3 0 1.6-.2.3-.2.5-.6.5-1.1 0-.5-.1-.7-.3-.9-.3-.3-.6-.3-3.4-.4l-3.1-.2c-.6-.1-1.3-.5-1.6-.8-.3-.4-.4-.8-.4-2s.1-1.4.4-1.8c.4-.5 1-.9 2-1 .3 0 2.2-.1 4.4-.1l4.4.1c.8.2 1.3.5 1.6.9.2.4.4 1.9.2 2-.1.1-.4.1-2.1.1-1.6 0-2 0-2.1-.1 0 0-.1-.3-.1-.5 0-.7-.3-.9-1.1-1-.6-.1-2.2 0-2.6.1-.7.2-.8.4-.7 1.2 0 .6.1.7.5 1 .2.2.4.2 3.6.3l2.7.2c1.1.2 1.8.8 2.1 1.5.1.4.2 1.6.2 2.1-.1 1.5-.8 2.2-2.1 2.4-1.8 0-6.1.1-8.2 0zm12 0V20H64c.1.1.1.4.1 1.6v1.5h.1c.1 0 .3 0 .6-.1.9-.3 3.5-.3 4.6 0 .9.2 1.6.7 1.7 1.3.1.4.1 5.6 0 5.7-.1.1-.5.1-1.8.1s-1.8 0-1.8-.1c-.1-.1-.1-.7-.1-2.4v-2.3l-.2-.2c-.6-.6-2.4-.5-3.1.1l-.1.1v4.8c-.1.1-3.7.1-3.8 0zm26.3-.1c-.1-.2-.1-9.8 0-10 .1-.1.2-.1 1.9-.1h1.9V30h-1.9c-1.7.1-1.8.1-1.9 0zm6 .1V20h1.9l1.9.1c.1.1.1 10 0 10.1-.1 0-3.7 0-3.8-.1zM35.3 14.8c-.5-.6-1.5-1.7-2.2-2.3-2.7-2.3-5.9-3.7-9.4-4.1-2.4-.3-4.9-.1-7.2.5-2.7.8-5 2-7 3.9-.7.6-1.4 1.4-2.1 2.4-3.1 4.3-4.3 8.8-3.7 14 .1.6.1.7.2.8l2.9 2c2.3 1.7 2.8 2 2.8 2.1l.2.9.1 1.3.2 2.1.1 1.3c.1.5.1 1 .1 1s1 .1 4.6.1h4.6l.3.2c.4.4.9.6 1.3.7.7.1 1.4-.1 2.1-.7l.3-.2h9.1l.4-3.3.4-3.4 4.3-3.2c1.3-.9 1.5-1.1 1.5-1.2 0-.1 0-.3.1-.6.5-5.4-.8-10.1-4-14.3zm1.1 11.9c0 .8-.2 1.6-.3 1.7l-5.5 4.1-.1.5-.4 3.5-.1.9v.4l-3.4.1h-3.4l-.3.3c-.2.2-.4.4-.6.5-.2.1-.3.1-.6.2-.5 0-1-.2-1.4-.7l-.3-.4h-6.9v-.1l-.1-1.1-.2-1.5-.1-1-.1-1v-.4l-1.2-.9C7.7 29 7 28.4 6.9 28.4c-.1-.1-.1-.2-.2-.5-.1-.6-.1-1.9 0-2.6.1-.7.4-1.7.5-1.8l4.6 4.6c4.2 4.3 4.6 4.7 4.7 4.6.1 0 .1-.1.1-.1l-1.5-1.9-7.5-9.2v-.3c.1-.6.4-1.4.8-2.1.4-.6 1.2-1.6 1.3-1.5l7 12c.6 1 1.1 1.8 1.1 1.9.1.2.3.1.2 0 0-.1-.1-.4-.3-.8l-7-14.6.2-.2c.4-.6 1.1-1.2 1.7-1.7.6-.4 1.8-.9 1.8-.8l2.8 9.6c1.5 5.5 2.2 7.8 2.3 7.9.1.1.2.1.2-.1l-1.1-5.6-2.5-12.7.2-.1c.4-.3.8-.5 1.2-.6.8-.3 1.7-.4 2.6-.3h.3v.3l.2 4.2.1 1.4.1 1.5.1 3.3.3 7.4c.1 1.3.1 1.4.1 1.4.1 0 .2-.1.2-1.7l.1-2.8.5-13.6c0-.8.1-1.5.1-1.5h1.6c1.2.1 2 .4 2.6.9l.1.1-2.9 15.4-.2.9-.3 1.4c-.1.5-.1.6 0 .6s.1-.1.3-.7l4-14.3c.6-2.2.7-2.4.7-2.5 0 0 1 .4 1.4.7.5.3 1.2.8 1.5 1.2.3.3.6.8.6.9l-1.4 3.1-4.9 10.6c-.7 1.5-.8 1.7-.6 1.8h.1l.8-1.4 6.5-11.5.7-1.2s.8.8 1.1 1.2c.3.5.7 1 .8 1.4.1.3.3 1 .3 1.1l-4 5.8-3.4 4.3c-.9 1.1-1 1.3-1 1.4l1-.9 4.5-4.6 3.6-3.6c.1 0 .3.7.5 1.2.2.6.2 1.2.2 2z"/>
</svg>
