<svg xmlns="http://www.w3.org/2000/svg" viewBox="0 0 100 50">
  <path d="M29.8 22.1v7.6h-2.2v-7.6h-2.1v-1.9h6.3v1.9h-2zM40.6 21.4c.9.9 1.5 2.1 1.5 3.6 0 1.3-.5 2.6-1.5 3.6-.9.9-2.1 1.4-3.7 1.4-1.8 0-3-.7-3.7-1.4-.9-.9-1.5-2.1-1.5-3.5s.6-2.7 1.5-3.6c.6-.6 1.8-1.4 3.7-1.4 1.5-.1 2.8.4 3.7 1.3zm-5.8 1.5c-.4.4-.8 1.1-.8 2.1 0 .9.3 1.6.9 2.1.6.6 1.3.8 2 .8 1 0 1.7-.4 2.1-.8.4-.4.8-1 .8-2.1 0-1-.4-1.7-.8-2.1-.5-.5-1.2-.8-2.1-.8-.8 0-1.5.3-2.1.8zM46.5 20.3c.8 0 1.7.1 2.5.8.8.7.9 1.7.9 2.3 0 1.2-.5 1.9-.8 2.2-.8.8-1.8.8-2.4.8h-1.3v3.3h-2.2v-9.5h3.3zm-1.1 4.3h.8c.3 0 .8 0 1.2-.4.2-.2.4-.5.4-.9s-.1-.7-.4-.9c-.3-.3-.8-.4-1.2-.4h-.7l-.1 2.6zM49.9 29.8l1.5-9.5h1.8l2.4 5.7 2.4-5.7h1.8l1.5 9.5h-2.2l-.8-5.7-2.3 5.7h-.8l-2.4-5.7-.8 5.7h-2.1zM70.7 21.4c.9.9 1.5 2.1 1.5 3.6 0 1.3-.5 2.6-1.5 3.6-.9.8-2.1 1.4-3.7 1.4-1.8 0-3-.7-3.7-1.4-.9-.9-1.5-2.1-1.5-3.5s.6-2.7 1.5-3.6c.6-.6 1.8-1.4 3.7-1.4 1.5-.1 2.7.4 3.7 1.3zm-5.8 1.5c-.4.4-.8 1.1-.8 2.1 0 .9.3 1.6.9 2.1.6.6 1.3.8 2 .8 1 0 1.7-.4 2.1-.8.4-.4.8-1 .8-2.1 0-1-.4-1.7-.8-2.1-.5-.5-1.2-.8-2.1-.8-.8 0-1.6.3-2.1.8zM73.2 29.8v-9.5h1.9l5.2 6.1v-6.1h2.2v9.5h-1.9l-5.2-6.1v6.1h-2.2zM86.3 24.2l3.2-4h2.7l-3.8 4.5 4.1 5h-2.8l-3.4-4.2v4.2h-2.2v-9.5h2.2v4z"/>
  <path d="M97.8 22.6c-.7-.6-1.3-.7-1.6-.7-.3 0-.7 0-.9.3-.1.1-.2.4-.2.6 0 .2.1.4.2.5.2.2.6.3 1.2.5l.7.3c.4.2.9.4 1.3.7.6.5.7 1.2.7 1.8 0 1-.3 1.8-.8 2.3-.8.9-2.1 1-2.7 1-.7 0-1.3-.1-1.9-.4-.5-.2-1-.7-1.4-1l1.1-1.6c.2.2.6.6.9.7.4.2.8.3 1.2.3.3 0 .7-.1 1-.3.2-.2.3-.4.3-.8 0-.3-.1-.5-.3-.7-.3-.2-.8-.4-1.1-.5l-.8-.3c-.4-.2-1-.4-1.3-.8-.5-.5-.6-1.2-.6-1.7 0-.8.3-1.6.8-2.1.7-.7 1.5-.9 2.3-.9.7 0 1.7.1 2.8.9l-.9 1.9z"/>
  <g>
    <path d="M14.7 27.7c.5.1 1 .6 1.3.8.1 0 .2 0 .2-.1h.1v-.1c-.1-1.4-.5-2.6-1-3.3-.2-.2-.5-.4-.8-.6h-.1v.1c-.1.5-.6 1.9-1.9 3.3-1.6 1.7-3.8 3-6.5 3.7h-.1v.1c.2.4.5.7.8 1 .5-.1 3.2-.9 5.5-2.7-.1-.3-.1-.6 0-.9.3-.8 1.4-1.4 2.1-1.3h.4z"/>
    <path d="M9.7 35.1c.7 0 1.2.2 1.7.4.6.2 1.4.5 2.6.5 1 0 2-.3 2.8-.8.7-.5 1.2-1.2 1.5-1.9.5-1.3.3-2.5-.6-3.3-1.3-1.2-2.1-.9-3.2.6-.9 1.2-1.7 2.1-3.3 2.3 1.1-.5 1.6-.8 2.1-1.5-.2-.3-.4-.6-.6-1.1v-.1l-.1.1c-1.3 1.1-3 2.1-5 2.8h-.1V33c.4.2.8.5 1.3.7-2.1 0-3-1.5-3.7-2.8l-.3-.4c-.4-.7-1.1-1.2-1.7-1.3-.5-.1-1 .1-1.4.5-.9.8-1.1 2.3-.6 3.6.3.8.8 1.4 1.5 1.9.8.5 1.7.8 2.7.8 1.2 0 1.9-.3 2.6-.5.5-.2.9-.4 1.6-.4h.2zM14.3 19.2c-.4-.3-.5.2-.5.4.2-1.5-.2-3.1-1.1-4.2-.7-.9-1.8-1.4-3-1.4s-2.3.5-3.1 1.4c-.9 1.1-1.3 2.6-1.1 4.1 0-.2-.1-.6-.5-.3-.4.4-.6.8-.6 1.3.1.4.4.8.7.9.4.2.4-.2.4-.4.1.5.3 1.7 1.1 2.7.8 1 1.8 1.5 2.9 1.5 1.2 0 2.2-.5 2.9-1.5.8-1 1-2.1 1.1-2.7 0 .2.1.5.4.4.4-.1.7-.5.7-.9.4-.4.2-.9-.3-1.3zm-5.9-4c.1-.1.2-.1.3-.1.1 0 .2 0 .3.1s.1.2.1.3c0 .2-.1.4-.3.4-.2 0-.4-.1-.4-.3v-.4zm.8 1.5c0 .2-.1.4-.3.4-.2 0-.4-.1-.4-.3 0-.2.1-.4.3-.4.3 0 .4.1.4.3zm-.5 4.5c-.2.1-.5.2-.8.2-.5 0-1.1-.3-1.2-.7.8.3 1.6.3 2.3 0 0 .2-.1.4-.3.5zm.3-2.8c-.1 0-.2 0-.3-.1-.1-.1-.1-.2-.1-.3 0-.1 0-.2.1-.3s.2-.1.3-.1c.1 0 .2 0 .2.1.1.1.1.2.1.3.1.2-.1.4-.3.4zm1.4-3.2c.1-.1.2-.1.2-.1.1 0 .2.1.3.1.1.1.1.2.1.3 0 .2-.2.4-.4.3-.1 0-.2-.1-.3-.1s-.1-.2-.1-.3c.1-.1.1-.2.2-.2zm-.2 1.5c0-.2.2-.4.4-.3.2 0 .4.2.3.4 0 .1-.1.2-.1.3-.1.1-.2.1-.3.1-.2-.1-.4-.3-.3-.5zM10 18c0-.1.1-.2.1-.3.1-.1.2-.1.2-.1.1 0 .2.1.3.1.1.1.1.2.1.3 0 .2-.2.4-.4.3-.1 0-.2-.1-.3-.1.1 0 0-.1 0-.2zm1.5 3.4c-.3 0-.6-.1-.8-.2-.2-.1-.3-.3-.3-.5.7.3 1.5.3 2.3 0-.1.5-.7.7-1.2.7z"/>
    <path d="M13.3 24c-1 1.4-2.2 2.1-3.6 2.1s-2.6-.7-3.6-2c-.2 0-1.2.3-2 1.1-.5.7-.9 1.9-1 3.3v.1h.1c.1 0 .2 0 .2.1.3-.2 1-.8 1.5-.8.2 0 .4 0 .6.1h.1v-.1c0-.2.2-.5.6-1-.1.5-.1 1-.1 1.2.5.3.8.6.9 1 .2.5 0 1-.2 1.5 4.8-1.4 6.5-3.9 7.3-6.3-.4-.2-.7-.3-.8-.3z"/>
    <path d="M5 28.2c-.4 0-.8.3-1 .6v.1h.1c.4.2.8.6 1.1 1 .3.4.5.7.6 1v.1l.1-.1c.7-.8.7-1.4.6-1.6-.3-.7-1.1-1.1-1.5-1.1zM15.4 28.7c-.2-.2-.6-.5-1-.6-.5 0-1.2.5-1.4 1-.1.4.1.9.5 1.5v.1-.1c.1-.2.2-.3.4-.5.1-.1.2-.3.3-.5.4-.2.8-.5 1.2-.9z"/>
  </g>
</svg>
