<svg xmlns="http://www.w3.org/2000/svg" xmlns:xlink="http://www.w3.org/1999/xlink" viewBox="0 0 100 50">
  <g>
    <path d="M80.6 7.9c.7 0 1.4.3 1.8.8.5.5.8 1.2.8 1.9 0 .8-.2 1.4-.8 1.9-.5.5-1.2.8-1.9.8-.8 0-1.4-.2-1.9-.8-.5-.5-.8-1.2-.8-1.9 0-.8.2-1.4.8-1.9.7-.5 1.3-.8 2-.8zm8.9 10.8V17c0-1.5-1.3-2.8-2.8-2.8H74.6c-1.5 0-2.8 1.3-2.8 2.8v6.2h13.4v.9H71.8v1.7c0 1.5 1.3 2.8 2.8 2.8h12.1c1.5 0 2.8-1.3 2.8-2.8v-6.2H76.1v-.9h13.4zM15.9 14.1c3 0 4 .5 4 1.8v1.4h-4c-2 0-2.5.8-2.5 4.2 0 3.3.5 4.2 2.5 4.2h4v1.4c0 1.2-1 1.8-4 1.8-4 0-6.2-2.2-6.2-7.4s2.1-7.4 6.2-7.4zm-.6-.7c-.3 0-.5-.1-.7-.4l-1.8-2.4c-.1-.1-.1-.2-.1-.3h1.4c.3 0 .4.1.7.3l1 .9.9-.8c.3-.3.5-.3.7-.3h1.5c0 .1 0 .2-.1.3L17 13c-.2.3-.4.4-.7.4h-1zm5.7 2.1c0-.8.4-1.3 1.2-1.3h8V16c0 .8-.5 1.3-1.3 1.3h-4.3v2.6h4.8v2.9h-4.8v2.8h5.7v1.8c0 .8-.5 1.3-1.3 1.3h-6.8c-.8 0-1.2-.5-1.2-1.3V15.5zm15.4-1.4c3 0 4.6.3 4.6 1.8v1.5h-4.1c-1.1 0-1.5.3-1.5.9 0 1.8 6.3 1.4 6.3 6.3 0 2.3-1.3 4.4-5.5 4.4-2.7 0-4.8-.5-4.8-1.8v-1.5h4.9c1 0 1.5-.3 1.5-1 0-1.9-6.3-1.5-6.3-6.6 0-2.2 1.5-4 4.9-4zm10.5 6.8l3.6-6c.3-.6.5-.7 1-.7H55c0 .2-.1.4-.2.6l-4.1 6.4 4.4 6.9c.1.2.2.4.2.6h-3.4c-.7 0-.9-.1-1.3-.7l-3.8-6v6.6h-3.6V15.5c0-.8.4-1.3 1.2-1.3h2.4l.1 6.7zm16.5-6.7c.6 0 .9.1 1.1.6l3.4 13.4c.1.2.1.4.1.5h-3c-.6 0-.8-.1-.9-.5l-.7-2.9H60l-.7 2.9c-.1.5-.3.5-.9.5h-2.9c0-.2 0-.3.1-.5L59 14.8c.2-.5.5-.6 1.1-.6h3.3zm-2.9 8.4h2.2l-1.1-4.7h-.1l-1 4.7zm2.3-9.5c-.3.3-.5.3-.7.3h-1.4c0-.1 0-.2.1-.3l1.8-2.4c.2-.3.4-.4.7-.4h1.4c.2 0 .2.1.2.2s-.1.2-.2.4l-1.9 2.2zM11.7 33.5c1 0 1.7 0 1.7.5v.3h-1.7c-.5 0-.8.2-.8.6 0 1.2 2.8.8 2.8 2.8 0 .9-.6 1.6-2.2 1.6-.9 0-1.8 0-1.8-.5v-.3h1.9c.7 0 1-.2 1-.8 0-1.1-2.8-.8-2.8-2.8-.1-.9.6-1.4 1.9-1.4zm3.8 7.4h-1v-7.4h.5c.4 0 .5.2.5.5v.2c.3-.4.8-.7 1.5-.7 1.3 0 2 1.1 2 2.9 0 1.8-.6 2.9-2 2.9-.6 0-1.2-.3-1.5-.7v2.3zm1.1-6.6c-.5 0-.8.2-1.2.5v3.1c.3.3.7.5 1.2.5.9 0 1.2-.7 1.2-2.1.1-1.2-.3-2-1.2-2zm3 2.1c0-1.6.5-2.9 2.3-2.9s2.3 1.3 2.3 2.9c0 1.6-.5 2.9-2.3 2.9s-2.3-1.3-2.3-2.9zm3.6 0c0-1.4-.3-2.1-1.2-2.1-1 0-1.2.8-1.2 2.1 0 1.4.3 2.1 1.2 2.1.9 0 1.2-.7 1.2-2.1zm3.1-3.4c-.2 0-.2 0-.3-.2l-.9-1.1c-.1 0-.1-.1-.1-.1h.5c.2 0 .2 0 .4.2l.6.5.6-.5c.2-.2.2-.2.4-.2h.5c0 .1 0 .1-.1.2l-.9 1.1c-.2.2-.2.2-.3.2l-.4-.1zm-1.1 6.2v-5.7h.5c.3 0 .5.3.5.7.5-.6 1-.8 1.5-.8.2 0 .4.1.4.3v.7h-.3c-.8 0-1.2.2-1.6.5v4.2l-1 .1zm4.4-6.3h-1v-.6c0-.3.2-.5.5-.5h.5v1.1zm-1 .7h.5c.4 0 .5.2.5.5v5.1h-1v-5.6zm3.5 0h1.2v.8h-1.2v3.5c0 .5.1.7.4.7h.8v.2c0 .5-.4.5-1 .5-1.2 0-1.3-.6-1.3-1.5v-3.5h-.7v-.5l.7-.2.4-.9c.1-.2.2-.3.4-.3h.2l.1 1.2zm5.7 4.9v.2c0 .5-.6.5-1.8.5-1.8 0-2.3-1.3-2.3-2.9 0-1.6.6-2.9 2.3-2.9 1.4 0 2.1.8 2.1 2.1 0 .2 0 .5-.1 1.1h-3.3c0 1.3.5 1.8 1.4 1.8h1.7zm-.7-2.6v-.5c0-.5-.2-1.2-1.1-1.2-.8 0-1.2.5-1.2 1.7h2.3zm3 3.3h-1v-7c0-.3.2-.5.5-.5h.5v7.5zm1.2 0v-5.7h.5c.4 0 .5.2.5.5v.2c.5-.5 1.1-.7 1.6-.7 1.1 0 1.6.7 1.6 1.8v4h-1v-3.9c0-.7-.4-.9-1-.9-.5 0-.8.2-1.2.5v4.5h-1.1v-.3zm9 0c-.4 0-.5-.2-.5-.5v-.2c-.5.5-1.1.7-1.6.7-1 0-1.7-.6-1.7-1.6 0-1.5 1.5-1.8 3.2-1.8v-.5c0-.8-.5-1-1.2-1h-1.6V34c0-.5.6-.5 1.8-.5 1.3 0 2.1.5 2.1 1.8v4h-.5v-.1zm-.5-2.7c-1.5 0-2.1.4-2.1 1.1 0 .6.5.8 1 .8s.8-.2 1.2-.5v-1.4z"/>
  </g>
</svg>
