<svg xmlns="http://www.w3.org/2000/svg" viewBox="0 0 100 50">
  <path d="M50.2 22.6c4.1 0 7.5-3.4 7.5-7.5s-3.4-7.5-7.5-7.5-7.5 3.4-7.5 7.5c0 4.2 3.3 7.5 7.5 7.5z"/>
  <path d="M55.7 21.2c-1.4 1.5-3.9 3.1-7.2 3.1-2.5 0-4.6-1-6-2.1-8.1.9-14.2 2.1-14.2 2.1v3.3h43.2v-6.8s-7.4 0-15.8.4zM37.3 41.8c-.8.2-1.9.4-2.9.4-3.6 0-6.4-1.9-6.4-5.9 0-3.7 3-5.6 6.4-5.6 1.1 0 1.8.1 2.9.4V34c-.7-.2-1.4-.4-2.1-.4-1.8 0-3.1 1-3.1 2.8 0 1.9 1.2 2.9 2.9 2.9.7 0 1.5-.2 2.2-.4v2.9h.1zM47 34c-.9-.3-2-.6-3.2-.6-.6 0-1.8 0-1.8.7 0 1.5 5.6.1 5.6 4.3 0 3-2.9 3.7-5.2 3.7-1.6 0-2.9-.2-4.4-.5v-2.9c1.1.5 2.4.7 3.7.7 1 0 1.8-.2 1.8-.8 0-1.5-5.6-.1-5.6-4.5 0-3.1 3.1-3.6 5.5-3.6 1.2 0 2.4.1 3.5.4V34h.1zM54.3 42.2c-3.7 0-5.9-2-5.9-5.7s2.2-5.7 5.9-5.7 6 2 6 5.7c0 3.8-2.2 5.7-6 5.7zm0-2.7c1.6 0 1.7-1.9 1.7-3.1 0-1-.1-3.1-1.7-3.1-1.5 0-1.7 2-1.7 3.1.1 1.3.3 3.1 1.7 3.1zM61.4 30.9h6.8c1.9 0 3.7.6 3.7 2.7 0 1.5-.8 2.3-2.2 2.7 1.5.2 2.4 1.4 2.4 2.5 0 2.8-2.2 3.1-4.4 3.1h-6.2v-11h-.1zm3.8 8.8h1.1c.7 0 1.6-.3 1.6-1.2 0-1-.8-1.1-1.5-1.1h-1.1v2.3h-.1zm0-4.5h1c.7 0 1.5-.2 1.5-1.1 0-.8-.7-1.1-1.4-1.1h-1.1v2.2z"/>
  <path d="M30 29.9s1.3 1.1 3.2 1.1c1.8 0 3.2-.9 3.9-1.7l-.3-.2s-.9 1-2.7 1c-1.9 0-3-1.3-3-1.3L30 29.9z"/>
</svg>
