<?xml version="1.0" standalone="no"?>
<!DOCTYPE svg PUBLIC "-//W3C//DTD SVG 20010904//EN"
 "http://www.w3.org/TR/2001/REC-SVG-20010904/DTD/svg10.dtd">
<svg version="1.0" xmlns="http://www.w3.org/2000/svg"
 width="192.000000pt" height="192.000000pt" viewBox="0 0 192.000000 192.000000"
 preserveAspectRatio="xMidYMid meet">
<metadata>
Created by potrace 1.11, written by Peter Selinger 2001-2013
</metadata>
<g transform="translate(0.000000,192.000000) scale(0.100000,-0.100000)"
fill="#000000" stroke="none">
<path d="M58 1638 c-3 -12 -3 -53 1 -126 1 -18 6 -23 24 -20 19 3 22 10 25 54
l3 50 849 0 850 0 0 -636 0 -637 -192 0 c-106 -1 -201 -2 -210 -2 -12 -1 -18
-9 -18 -26 l0 -25 237 2 238 3 0 685 -1 685 -901 3 c-716 2 -902 0 -905 -10z"/>
<path d="M58 1426 c-2 -6 -4 -267 -3 -581 l0 -570 123 -3 122 -3 2 387 3 386
170 -298 c94 -163 172 -302 174 -308 2 -6 7 -13 10 -16 3 -3 11 -13 16 -24 19
-34 25 -29 83 74 148 261 331 568 334 558 2 -7 3 -181 3 -385 l-1 -373 118 0
c65 0 119 3 119 8 6 34 2 1152 -3 1154 -32 6 -237 3 -250 -4 -10 -5 -26 -25
-36 -46 -43 -85 -340 -577 -348 -576 -8 1 -137 212 -165 269 -5 11 -22 40 -38
65 -16 25 -30 51 -30 58 -1 6 -5 12 -11 12 -5 0 -10 5 -10 10 0 11 -105 189
-121 205 -14 14 -257 15 -261 1z"/>
</g>
</svg>
