<?xml version="1.0" encoding="UTF-8"?>
<svg width="142px" height="18px" viewBox="0 0 142 18" version="1.1" xmlns="http://www.w3.org/2000/svg" xmlns:xlink="http://www.w3.org/1999/xlink">
    <!-- Generator: Sketch 49.1 (51147) - http://www.bohemiancoding.com/sketch -->
    <title>logo</title>
    <desc>Created with Sketch.</desc>
    <defs></defs>
    <g id="Page-1" stroke="none" stroke-width="1" fill="none" fill-rule="evenodd">
        <g id="Desktop-HD" transform="translate(-250.000000, -19.000000)" fill="#7645C1" fill-rule="nonzero">
            <g id="header" transform="translate(-427.000000, -259.000000)">
                <g id="logo" transform="translate(650.000000, 153.000000)">
                    <g transform="translate(27.000000, 125.000000)" id="Shape">
                        <path d="M89.2826563,4.6410552 C89.22135,4.58173822 89.22135,4.52242125 89.1600437,4.47051889 C89.0987374,4.41861654 89.0987374,4.35188494 89.0374311,4.29998259 C89.0141312,4.24646893 88.9701268,4.20389249 88.9148185,4.18134864 L88.7922059,4.06271468 C88.7486977,4.03894894 88.7244449,3.99201733 88.7308996,3.94408073 C88.6863866,3.93854051 88.6455034,3.91744366 88.6159503,3.88476376 C87.917934,3.21515234 87.106705,2.66596924 86.2173416,2.26096155 C85.7466358,2.07899117 85.2656287,1.923033 84.7766437,1.79384037 C84.2756682,1.67164854 83.7606177,1.61184802 83.2439863,1.61588944 C83.2101278,1.61588944 83.18268,1.64244655 83.18268,1.67520642 C82.9472996,1.73161274 82.7041779,1.75163254 82.4623311,1.73452339 L82.2247692,1.73452339 C81.3717646,1.80181168 80.5383751,2.01784231 79.7648541,2.37218088 C79.7035478,2.43149785 79.5809352,2.49081483 79.5272922,2.54271718 C79.4736492,2.59461954 79.3433733,2.66135114 79.2897303,2.72066811 C78.9965144,2.93877911 78.7151516,3.17141454 78.4467688,3.41764257 C78.1751241,3.66188768 77.9334191,3.93555592 77.7264198,4.23325099 C77.7877261,4.23325099 77.7877261,4.17393401 77.7877261,4.23325099 C77.7838551,4.27896208 77.7618925,4.32146194 77.7264198,4.35188494 C77.6728284,4.42149697 77.6314072,4.49914652 77.6038072,4.58173822 C77.542501,4.6410552 77.4811947,4.75968915 77.4198884,4.8115915 L77.542501,4.63364057 L77.6574503,4.46310427 L77.7187566,4.40378729 L77.7800628,4.34447032 L77.9026754,4.17393401 L77.9639817,4.11461704 C78.1902547,3.88787222 78.430832,3.67491163 78.6843307,3.47695955 C79.7726338,2.64566546 81.0830369,2.13131172 82.4623311,1.99403516 C83.8184585,1.84965936 85.1894577,2.07031705 86.4242503,2.63169265 C86.4710859,2.6368106 86.5145298,2.6578277 86.5468629,2.69100962 L86.4855566,2.69100962 C86.0940049,2.53015137 85.6921229,2.39393303 85.2824206,2.28320542 C84.8860374,2.19895866 84.4839869,2.14197075 84.0792846,2.11266911 C83.232015,2.07911965 82.3839435,2.15643616 81.5580632,2.34252239 C81.0503413,2.46362766 80.5645709,2.65863084 80.1173653,2.9208629 C79.6498058,3.14450507 79.2227909,3.43997619 78.852923,3.79578829 C78.4818137,4.13578777 78.1408762,4.5053464 77.8337059,4.90056696 C77.7856768,5.00429543 77.7238473,5.10150816 77.649787,5.18973722 C77.5884807,5.2490542 77.5884807,5.30837117 77.5271744,5.36768815 L77.4658681,5.54563907 L77.4045618,5.60495605 L77.3432555,5.66427303 L77.2819492,5.84222395 L77.2206429,6.01276026 L77.1593366,6.07207723 L77.0980303,6.19071118 C77.0980303,6.25002816 77.036724,6.30934514 77.036724,6.36866211 C77.036724,6.42797909 76.9754177,6.48729606 76.9754177,6.53919842 L76.9141114,6.65783237 L76.9141114,6.77646632 C76.9141114,6.83578329 76.8528051,6.89510027 76.8528051,6.95441725 C76.778716,7.19534589 76.7374959,7.44461179 76.7301926,7.69587944 L76.7301926,9.17880383 C76.8989455,10.1600931 77.3324821,11.0808782 77.9869716,11.8480677 C78.4529879,12.3696095 78.9981931,12.8196214 79.6039251,13.1826997 C80.1964871,13.5251796 80.8481075,13.7612942 81.5274101,13.8796741 C82.2011927,13.9865244 82.8866429,14.0064705 83.5658443,13.9389911 C84.2417171,13.8412568 84.8935256,13.6251747 85.4893293,13.3013336 C85.9108101,13.0714804 86.3322909,12.7748955 86.6924653,12.6043592 C86.757483,12.5425494 86.840291,12.5011967 86.9300272,12.4857252 C86.9913335,12.4264082 87.0526398,12.4264082 87.1139461,12.3670913 C87.1956016,12.2973478 87.3093749,12.274767 87.4128143,12.3077743 C87.4741206,12.3077743 87.5354269,12.3670913 87.4741206,12.4857252 C87.4468217,12.560474 87.4263086,12.6373828 87.4128143,12.7155785 C87.3384611,12.8036062 87.2766067,12.900858 87.2288954,13.0047488 L87.4128143,12.8267978 L87.4741206,12.7674809 C87.5289216,12.7480815 87.5731931,12.7079238 87.5967332,12.6562615 L87.7729888,12.4783106 C87.9975583,12.2314153 88.2381623,11.9986187 88.4933377,11.7813361 L88.6159503,11.6627022 L88.7385629,11.5440682 L89.0374311,11.254898 C89.1162671,11.1385117 89.1954547,11.0223488 89.274993,10.9064107 C89.4589119,10.6765575 89.6351675,10.4392896 89.75778,10.2687533 L89.8190863,10.3873872 L89.8803926,10.3280702 C89.9491164,10.1400214 90.050159,9.96454784 90.1792608,9.8090467 L90.2405671,9.86836367 C90.3379809,10.0294429 90.3981158,10.2090533 90.4168227,10.3948018 C90.478129,10.3948018 90.478129,10.4541188 90.478129,10.5134358 C90.502263,10.4266362 90.5723373,10.3588357 90.6620479,10.3354849 C90.7233542,10.3354849 90.7846605,10.3354849 90.7846605,10.4541188 C90.8459668,10.3354849 90.8459668,10.3354849 90.8459668,10.5134358 C90.853487,10.5763533 90.8309118,10.6391508 90.7846605,10.6839721 C90.8388683,10.6372856 90.8808847,10.578847 90.9072731,10.5134358 C90.944345,10.4418991 90.9652441,10.363543 90.9685794,10.2835825 C91.0097558,10.1717411 91.0305008,10.0538193 91.0298856,9.93509527 C91.0234309,9.88715868 91.0476837,9.84022706 91.0911919,9.81646132 C91.0811884,9.75108419 91.1039536,9.68500475 91.1524982,9.63851039 C91.196029,9.54808676 91.217027,9.44904299 91.2138045,9.34934014 C91.2197137,9.30420408 91.2413365,9.26236173 91.2751108,9.23070618 C91.4513664,8.94153593 91.4513664,8.94153593 91.5126727,9.0008529 L91.5126727,8.5930487 C91.573979,8.5930487 91.573979,8.5930487 91.573979,8.53373172 C91.6148207,8.58453288 91.6364557,8.64733186 91.6352853,8.71168265 L91.6352853,9.06016988 L91.5126727,9.40865711 L91.5126727,9.46797409 L91.4513664,9.52729106 L91.5126727,9.46797409 L91.4513664,9.64592501 L91.5126727,9.46797409 C91.4695233,9.59979429 91.4488176,9.73752676 91.4513664,9.87577829 C91.4601579,9.94104755 91.4375682,10.0066175 91.3900601,10.0537292 C91.3900601,10.1130462 91.3287538,10.2316801 91.3287538,10.2835825 L91.3287538,10.4022165 C91.2760508,10.554277 91.2375796,10.710613 91.2138045,10.8693376 C91.2138045,10.9286546 91.1524982,10.9879716 91.1524982,11.0472886 C91.1613354,11.0955867 91.1364286,11.1437839 91.0911919,11.1659225 C91.0911919,11.2252395 91.0298856,11.2252395 91.0298856,11.2845565 C91.0298856,11.3438734 90.9685794,11.3438734 90.9685794,11.4031904 C90.9704302,11.4838109 90.9492136,11.5633575 90.9072731,11.6330437 C90.8536816,11.7026557 90.8122604,11.7803053 90.7846605,11.862897 L90.7846605,11.922214 C90.7846605,11.9815309 90.7233542,12.0408479 90.7233542,12.0927503 L90.7233542,12.0556771 C90.6884395,12.1543321 90.6474964,12.2508924 90.6007416,12.3448474 C90.5727676,12.4272879 90.5313764,12.5048812 90.478129,12.5747007 C90.4728394,12.6200166 90.4511175,12.6620508 90.4168227,12.6933346 C90.4168227,12.7526516 90.3555164,12.8119686 90.3555164,12.8712856 C90.2980993,13.0000471 90.2176826,13.118013 90.1179545,13.2197728 C90.1179545,13.1870129 90.1454023,13.1604558 90.1792608,13.1604558 C90.2405671,13.1011388 90.2405671,13.1604558 90.2405671,13.1604558 C90.5307801,12.7351187 90.7869691,12.2889419 91.0068958,11.8258239 C91.2454333,11.3536778 91.425491,10.8559207 91.5433259,10.3428995 C91.5562426,10.2645863 91.5767691,10.1876274 91.6046322,10.1130462 C91.6105413,10.0679101 91.6321641,10.0260678 91.6659384,9.99441225 C91.7272447,9.99441225 91.7272447,10.1130462 91.6659384,10.2835825 C91.6038157,10.8603256 91.4620595,11.4264074 91.2444577,11.9667017 C91.0253648,12.5548371 90.742817,13.1189929 90.4014961,13.6498209 C90.0349312,14.1835878 89.6138924,14.6803885 89.1447171,15.1327453 C88.1950373,15.9146363 87.1211368,16.543076 85.9644531,16.9938154 L86.0257594,16.9938154 C85.8418405,17.0531323 85.7268912,17.1124493 85.5429723,17.1717663 L85.481666,17.1717663 C85.6042786,17.1717663 85.7192279,17.1124493 85.8418405,17.1124493 C85.9206101,17.0721264 85.9998015,17.0325797 86.0794024,16.9938154 C86.73798,16.7199335 87.3801515,16.4105043 88.0028874,16.0669876 C88.5931499,15.7066581 89.1360942,15.27843 89.6198409,14.7916726 C90.1289648,14.2914619 90.5906173,13.7480105 90.9992325,13.1678704 C91.1218451,12.9899195 91.1831514,12.8787002 91.1831514,12.9380172 L91.0605388,13.2865044 C90.7553119,13.8162311 90.3931297,14.3132947 89.9800154,14.7694288 C89.5652273,15.2378886 89.1031387,15.6651121 88.6006237,16.0447438 C88.125544,16.4059387 87.6117055,16.7166668 87.0679664,16.9715715 C86.5731157,17.1880212 86.0604487,17.3641124 85.535309,17.4980097 L84.8762664,17.6759606 C84.7536538,17.6759606 84.6923475,17.7352776 84.5773982,17.7352776 C84.4739675,17.7270677 84.3702674,17.7476492 84.27853,17.7945945 L84.5773982,17.7945945 C84.4934765,17.7868581 84.4094088,17.807849 84.3398363,17.8539115 L83.7420999,17.8539115 C83.8034062,17.8539115 83.8034062,17.9132285 83.8647125,17.9132285 C83.0285588,18.0289238 82.1796449,18.0289238 81.3434912,17.9132285 C80.5373905,17.8133074 79.7532847,17.5879621 79.0215153,17.2459125 C78.960209,17.2459125 78.8989027,17.1865955 78.8375964,17.1865955 C78.5387282,17.0753762 78.23986,16.9567423 77.8796856,16.8381083 C77.6957667,16.7787913 77.5808174,16.667572 77.3968985,16.608255 C77.3318808,16.5464453 77.2490729,16.5050926 77.1593366,16.4896211 C77.0980303,16.4303041 76.9754177,16.3784017 76.9217747,16.3190848 C77.0446879,16.362032 77.1496677,16.4427698 77.2206429,16.5489381 L77.5808174,16.7194744 C77.0614482,16.4716631 76.5772318,16.1601577 76.1401195,15.7926466 C76.0788132,15.7333296 75.9638639,15.6814273 75.9025576,15.6221103 C75.8097831,15.5598753 75.7293179,15.4820211 75.6649957,15.392257 C75.4941182,15.2648851 75.3508901,15.1061474 75.2435149,14.9251358 C74.9843915,14.6304612 74.7438399,14.3209586 74.523166,13.9983081 C74.1750422,13.5081303 73.9302549,12.9563337 73.802817,12.3745059 C73.500762,11.7043723 73.2796192,11.0027595 73.1437744,10.2835825 C73.0113636,9.54950499 72.9702002,8.80273594 73.0211618,8.05919592 C73.0218635,7.68443357 73.0812908,7.31194049 73.1974174,6.95441725 C73.2764848,6.58123693 73.3762518,6.21244409 73.4962855,5.84963857 C73.6106548,5.49181242 73.7515129,5.14242125 73.9177663,4.80417688 L74.0403789,4.5743236 L74.1016852,4.45568965 L74.1629915,4.3370557 L74.2856041,4.10720242 L74.4235432,3.899593 C74.4692787,3.7962967 74.5543446,3.71399113 74.6611051,3.66973972 L74.6611051,3.7290567 C74.6426287,3.80026336 74.5993198,3.8631187 74.5384925,3.90700762 C73.9365374,4.81339687 73.5106312,5.8184847 73.2817135,6.8728564 C73.0616913,7.90572958 73.0409067,8.96905751 73.2204072,10.0092415 C73.1693678,9.56617465 73.148887,9.12031042 73.1591009,8.67460954 C73.1609425,8.22393802 73.2227572,7.77537199 73.3430198,7.33997759 C73.3992579,6.9003624 73.5205581,6.47085953 73.7031943,6.06466261 L73.7645006,5.88671168 C73.7645006,5.82739471 73.8258069,5.76807773 73.8258069,5.71617538 C73.8535828,5.61616631 73.8921094,5.51924741 73.9407562,5.42700512 C74.0283782,5.22863463 74.128179,5.03550995 74.2396244,4.84866461 L74.3009307,4.67071368 C74.3009307,4.61139671 74.362237,4.55207973 74.362237,4.49276276 L74.4235432,4.32222645 L74.4848495,4.26290948 L74.5461558,4.2035925 C74.6074621,4.08495855 74.6611051,4.02564157 74.7224114,3.91442225 C74.7829537,3.80497622 74.8634334,3.70701297 74.9599733,3.62525199 C75.6765015,2.70633928 76.5753253,1.93499047 77.6038072,1.35637767 C78.6469975,0.771804473 79.7841846,0.360763441 80.9679901,0.140379672 C81.9812774,-0.0242027178 83.0140265,-0.0441874685 84.0333048,0.0810626963 C84.2708667,0.140379672 84.5160919,0.140379672 84.7536538,0.199696648 C84.8762664,0.259013623 84.9912157,0.259013623 85.1138283,0.318330599 C85.2364409,0.377647574 85.3513902,0.377647574 85.4740027,0.43696455 C85.9644045,0.605118085 86.4453043,0.798166084 86.9147007,1.01530506 C87.5700665,1.3488257 88.1932771,1.73841068 88.7768793,2.17940071 C89.3176479,2.64392449 89.8294341,3.13910389 90.3095367,3.6623251 C90.727176,4.22887979 91.0889368,4.83210934 91.3900601,5.46407823 C91.5126727,5.81256546 91.627622,6.10173572 91.7502346,6.45022295 C91.7502346,6.50953993 91.8115409,6.62817388 91.8115409,6.68007623 C91.8115409,6.73197859 91.8728472,6.85802716 91.8728472,6.90992951 C91.8728472,6.96183187 91.9341535,7.08046582 91.9341535,7.19909977 L91.9341535,7.42895305 C91.9256683,7.52902756 91.9469401,7.62936268 91.9954598,7.71812331 L91.9954598,7.94797659 C92.0102685,8.04832787 91.9885986,8.15054051 91.9341535,8.23714684 C91.9008609,8.20515194 91.879326,8.16347969 91.8728472,8.11851289 C91.8816387,8.05324363 91.859049,7.98767365 91.8115409,7.94056197 L91.8115409,7.71070868 C91.5736919,6.25992709 90.9768859,4.88628038 90.0719748,3.70681283 C89.9996796,3.64084589 89.9400092,3.56303027 89.8957192,3.47695955 L89.7118003,3.24710627 L89.596851,3.12847232 L89.4742384,3.00983837 L89.2903196,2.83188744 C89.0226577,2.57091241 88.7412988,2.32343137 88.447358,2.09042525 C87.8425818,1.64876106 87.1989569,1.25923846 86.523873,0.926329599 C86.4625667,0.926329599 86.4625667,0.867012623 86.4012604,0.867012623 L86.2786479,0.807695648 L86.041086,0.689061696 L85.8035241,0.570427745 C85.7422178,0.51111077 85.6196052,0.51111077 85.5659622,0.451793794 L85.267094,0.392476818 C85.1444814,0.392476818 85.0831751,0.333159843 84.9682258,0.333159843 C84.8532765,0.333159843 84.6080513,0.273842867 84.4241325,0.214525891 C84.2402136,0.155208916 84.2402136,0.155208916 84.1252643,0.155208916 C84.010315,0.155208916 83.9413454,0.0958919402 83.8263961,0.0958919402 L83.5275279,0.0365749646 L81.4737671,0.0365749646 L81.1748989,0.0958919402 C81.0714423,0.0872591127 80.9676198,0.107864963 80.8760307,0.155208916 L80.5541726,0.192282026 C80.4315601,0.192282026 80.3702538,0.251599001 80.2553045,0.251599001 C80.081597,0.318833066 79.8979336,0.358878973 79.7112111,0.370232952 C79.5885985,0.370232952 79.5272922,0.429549928 79.4123429,0.429549928 C79.2973936,0.429549928 79.2360873,0.488866904 79.1134747,0.548183879 C78.9246644,0.600764902 78.7441798,0.678100219 78.5770447,0.77803716 C78.2168702,0.955988087 77.8566957,1.12652439 77.5578275,1.30447532 C76.9982064,1.62835875 76.4832247,2.01950159 76.0251702,2.46857096 C76.0178116,2.53138129 75.9969271,2.59200174 75.9638639,2.64652189 C76.2317522,2.39976301 76.5131447,2.16710311 76.8068254,1.94954743 C76.9438226,1.81998456 77.1086666,1.72124961 77.2896125,1.66037717 C77.3543408,1.59818174 77.4372808,1.55676307 77.5271744,1.54174322 C77.59247,1.48030601 77.6751528,1.43901574 77.7647363,1.42310927 C78.6472499,0.887376523 79.6238949,0.51291337 80.6461321,0.318330599 C82.4650487,-0.0179082869 84.3476334,0.226692741 86.0104328,1.01530506 L86.9147007,1.54174322 C86.9716835,1.61353704 87.0587696,1.65702622 87.1522625,1.66037717 C87.2203334,1.7304444 87.3007819,1.78819521 87.3898244,1.83091348 C87.512437,1.94954743 87.6886926,2.0088644 87.8113052,2.12008373 C87.9339178,2.23130306 87.9952241,2.23871768 88.0488671,2.29803466 L88.286429,2.46857096 C88.4703479,2.58720492 88.5852972,2.75774122 88.7692161,2.87637517 C89.0825597,3.17789014 89.364874,3.50815762 89.6121776,3.86251989 C90.1470585,4.55310228 90.5707872,5.31806348 90.8689566,6.13139421 C90.8689566,6.19071118 90.9302629,6.24261354 90.9302629,6.30193051 L90.8689566,6.24261354 C90.4418368,5.11085232 89.7674621,4.0815336 88.8918286,3.2248624 C88.9586837,3.30891307 89.0010245,3.40876997 89.0144412,3.51403266 C88.8718389,3.47714479 88.7454541,3.39648957 88.6542668,3.28417938 L88.9531349,3.57334964 C89.0180862,3.67992799 89.0980391,3.77725001 89.1906968,3.86251989 C89.3133094,3.98115384 89.3746157,4.09237317 89.3133094,4.09237317 C89.2175251,4.03370018 89.1363882,3.95519608 89.0757475,3.86251989 C88.4059788,2.99968535 87.5708135,2.26965762 86.6158325,1.71227953 C86.0222712,1.40554348 85.3984264,1.1571477 84.7536538,0.970817331 C84.1108792,0.789588542 83.4459441,0.692336638 82.7765258,0.681647074 C82.8928853,0.73101347 83.0133789,0.770701545 83.1367003,0.800281026 C83.3206192,0.800281026 83.5581811,0.859598001 83.7344367,0.859598001 C84.2001139,0.927549205 84.6608441,1.02413488 85.1138283,1.14876826 C85.5728585,1.27404277 86.0152118,1.45071696 86.4319136,1.67520642 C86.8544199,1.88814026 87.2569824,2.13622934 87.6350496,2.41666861 C88.7522668,3.27244074 89.6209611,4.3939673 90.156271,5.67168765 C90.5127364,6.53994803 90.6947984,7.46601642 90.692701,8.40026853 C90.674623,7.27543176 90.4135917,6.16668802 89.9263724,5.14524949 C89.9263724,5.08593251 89.8650661,5.02661554 89.8650661,4.97471318 C89.3772842,4.06132486 88.70496,3.25197171 87.8879381,2.59461954 C87.0750546,1.93382906 86.1384672,1.43038673 85.1291548,1.11169515 C86.0462727,1.40492639 86.9005934,1.85716903 87.6503762,2.4463271 C88.4126667,3.03617108 89.0457371,3.76717155 89.5125549,4.59656746 C89.5738612,4.65588444 89.6351675,4.77451839 89.6964737,4.82642075 C89.7679196,4.91501945 89.8271672,5.01222289 89.8727293,5.115591 C89.8786385,5.16072705 89.9002613,5.20256941 89.9340356,5.23422495 C89.9001771,5.23422495 89.8727293,5.20766784 89.8727293,5.17490798 C89.8727293,5.115591 89.8114231,5.05627403 89.8114231,5.00437167 C89.861728,5.1447073 89.9232191,5.28105182 89.9953419,5.41217588 L89.9953419,5.58271218 C89.9206966,5.54032645 89.859679,5.47872187 89.8190863,5.40476126 C89.75778,5.34544428 89.75778,5.28612731 89.6964737,5.22681033 C89.6351675,5.16749336 89.6351675,5.16749336 89.6351675,5.10817638 C89.6351675,5.0488594 89.5738612,5.0488594 89.5738612,4.98954243 C89.1279548,4.14233683 88.516358,3.38690985 87.7729888,2.76515584 L87.5354269,2.58720492 C87.4741206,2.52788794 87.351508,2.46857096 87.297865,2.40925399 C88.4791909,3.31379545 89.3740453,4.52131527 89.8803926,5.89412631 C89.9174646,5.96566303 89.9383637,6.04401912 89.9416989,6.12397959 C89.8921547,6.07070749 89.8508543,6.01076712 89.8190863,5.94602866 C89.8022131,5.8594958 89.7595993,5.77961068 89.6964737,5.71617538 C89.6427633,5.64663533 89.6013315,5.56896595 89.5738612,5.4863221 L89.4512486,5.25646882 L89.3899423,5.13783487 L89.328636,5.01920092 L89.2060234,4.78934764 L89.0834108,4.61139671 L88.9837881,4.56690898 L88.9224818,4.44827503 L88.7998692,4.27773872 L88.6772566,4.09978779 L88.6159503,3.98115384 L88.554644,3.86251989 L88.3783884,3.68456896 L88.1944695,3.51403266 L88.1331633,3.45471568 L88.071857,3.39539871 L87.8956014,3.21744778 L87.7116825,3.03949686 L87.5890699,2.98017988 C87.5277636,2.98017988 87.5277636,2.9208629 87.4664573,2.9208629 L87.2825384,2.74291198 L87.0986195,2.62427803 L86.976007,2.56496105 C86.9147007,2.56496105 86.9147007,2.50564407 86.8533944,2.50564407 L86.6848021,2.41666861 C86.4171656,2.23941967 86.1352758,2.0832124 85.8418405,1.94954743 C85.2530532,1.67121098 84.6258804,1.47642868 83.9796618,1.37120692 C83.1350319,1.28339629 82.2809579,1.34367789 81.4584405,1.54915784 C81.5621936,1.56478455 81.6682927,1.54372685 81.7573087,1.48984087 L83.4355685,1.48984087 C83.519542,1.48145253 83.6038385,1.50250057 83.6731304,1.54915784 C84.3142494,1.6152618 84.9417534,1.77266905 85.535309,2.01627903 C85.8334075,2.11621776 86.1167792,2.2533061 86.3782706,2.42408323 C86.5008832,2.48340021 86.6771388,2.60203416 86.7997514,2.65393651 C86.8441826,2.71372997 86.9095363,2.75588535 86.9836702,2.77257046 C87.0275939,2.83287024 87.0931673,2.87516732 87.1675891,2.89120442 C87.2124985,2.95051639 87.2776495,2.99254097 87.351508,3.00983837 L87.5277636,3.15813081 L87.8879381,3.50661804 L88.071857,3.68456896 L88.1331633,3.80320292 C88.1331633,3.86251989 88.1944695,3.86251989 88.1944695,3.92183687 L88.3783884,4.09978779 L88.554644,4.27773872 C88.5901167,4.30816172 88.6120793,4.35066158 88.6159503,4.39637267 C88.5820918,4.39637267 88.554644,4.36981556 88.554644,4.3370557 L88.3783884,4.16651939 L88.1944695,3.98856846 C88.0769952,3.88789511 87.9761975,3.77036267 87.8956014,3.64008123 C87.6700776,3.43089323 87.4293443,3.23761765 87.1752524,3.06174072 C86.6694396,2.69760246 86.1247989,2.38689033 85.5506356,2.13491298 C84.5997252,1.74850815 83.5779844,1.55179961 82.5466272,1.55657246 C83.5365215,1.56892437 84.5147341,1.7652667 85.428023,2.13491298 C86.3520966,2.51135315 87.1886115,3.06354082 87.8879381,3.75871518 C87.9497368,3.80170466 87.993306,3.86493774 88.0105507,3.93666611 L88.071857,3.93666611 C88.2677906,4.11612731 88.4496568,4.30944076 88.6159503,4.51500662 C88.8446058,4.48961641 89.0759903,4.52821578 89.2826563,4.62622595 C89.3439626,4.68554293 89.2826563,4.68554293 89.2826563,4.62622595 L89.2826563,4.6410552 Z"></path>
                        <polygon points="14 0 14 2.7560166 8.66456693 2.7560166 8.66456693 18 5.3648294 18 5.3648294 2.7186722 0 2.7186722 0 0"></polygon>
                        <path d="M31.9995491,9.00136466 C32.010651,10.2266988 31.7887909,11.4431295 31.3455874,12.5869546 C30.9351969,13.651358 30.312962,14.6229284 29.5159643,15.4437661 C28.7123582,16.2589647 27.7464367,16.8993 26.679681,17.3240144 C24.3146781,18.2253285 21.6967999,18.2253285 19.331797,17.3240144 C18.2631171,16.8988664 17.2948772,16.2586528 16.4881658,15.4437661 C15.6874131,14.6244596 15.062496,13.6526042 14.6511948,12.5869546 C13.7829351,10.2741211 13.7829351,7.72860828 14.6511948,5.41577475 C15.0626786,4.35021639 15.6875735,3.37839541 16.4881658,2.55896328 C17.2947407,1.74391297 18.2630173,1.10367502 19.331797,0.67871491 C20.4998856,0.216376795 21.7481606,-0.0139033084 23.005739,0.000950963019 C24.2635658,-0.0167802356 25.5124036,0.213603696 26.679681,0.67871491 C28.8348438,1.53667597 30.5277485,3.25275266 31.3455874,5.40848697 C31.7895305,6.55464268 32.0114001,7.77359866 31.9995491,9.00136466 Z M28.6121746,9.00136466 C28.6243803,8.11898287 28.4928758,7.24043353 28.2227367,6.39962564 C27.9921444,5.67987974 27.6144419,5.01500321 27.1132062,4.44649943 C26.6274043,3.90834587 26.024291,3.48712723 25.349714,3.21486387 C23.8416836,2.64893073 22.1771423,2.64893073 20.6691119,3.21486387 C19.9925105,3.48728982 19.3870365,3.9084026 18.8982718,4.44649943 C18.3922895,5.01407258 18.0095968,5.67892741 17.7740455,6.39962564 C17.25101,8.09284676 17.25101,9.90259479 17.7740455,11.5958159 C18.008565,12.314786 18.3914298,12.9774579 18.8982718,13.5416543 C19.388481,14.0763507 19.9937071,14.4948003 20.6691119,14.7660021 C22.1771423,15.3319352 23.8416836,15.3319352 25.349714,14.7660021 C26.0230838,14.4949521 26.6259459,14.0764003 27.1132062,13.5416543 C27.615308,12.9765206 27.9931812,12.3138256 28.2227367,11.5958159 C28.4947107,10.7577663 28.6286914,9.88171075 28.6195224,9.00136466 L28.6121746,9.00136466 Z"></path>
                        <path d="M39.3993117,11.6521032 L39.3993117,18 L36,18 L36,0.0018455057 L41.9318367,0.0018455057 C43.0003841,-0.0182150887 44.065648,0.125371712 45.0899556,0.427527998 C45.8987299,0.667886189 46.6482233,1.07225585 47.2908404,1.61495811 C47.8603727,2.11077604 48.3000506,2.73605252 48.5721774,3.4371779 C49.1426075,4.95969944 49.1426075,6.63450434 48.5721774,8.15702588 C48.2850445,8.87469022 47.8334893,9.5164064 47.253154,10.0315225 C46.6061267,10.5685296 45.8543515,10.9676615 45.0447319,11.2040164 C44.0422029,11.5118582 42.9962671,11.6581054 41.9469112,11.637167 L39.406849,11.637167 L39.3993117,11.6521032 Z M39.3993117,9.03079521 L41.939374,9.03079521 C42.4886092,9.04068349 43.0358442,8.96250386 43.5598884,8.79928368 C43.9862004,8.66702264 44.3775213,8.4425473 44.7055545,8.14208965 C45.0105592,7.8505099 45.2428153,7.49253773 45.3839094,7.09655371 C45.5397161,6.65511343 45.6162462,6.19003578 45.6100277,5.72242075 C45.6161182,5.2767325 45.5394718,4.83373143 45.3839094,4.41550082 C45.2405838,4.03359831 45.0081404,3.69069165 44.7055545,3.41477356 C44.374641,3.12505771 43.9835356,2.9109038 43.5598884,2.78745199 C43.0340787,2.63354962 42.4875464,2.56050776 41.939374,2.57087669 L39.3993117,2.57087669 L39.3993117,9.04573144 L39.3993117,9.03079521 Z"></path>
                        <path d="M60.7303456,11.3452739 L61.0949487,12.211658 C61.2114192,11.9129048 61.3329535,11.6166413 61.4595518,11.3228674 C61.5861501,11.0290935 61.7203443,10.7502572 61.8621344,10.4863586 L67.270414,0.500534987 C67.3276501,0.392193945 67.3991612,0.291744305 67.4830991,0.201781849 C67.5503216,0.129504763 67.6334639,0.0733006555 67.7261679,0.0374676239 C67.8251841,0.0111701026 67.9274508,-0.00139938292 68.0300038,0.00012348177 L68.4249905,0.00012348177 L71,0 L71,18 L67.9616407,18 L67.9616407,6.34862765 C67.9616407,6.13452123 67.9616407,5.88556029 67.9616407,5.6017448 C67.9616407,5.31792932 67.9818964,5.05652033 68.0224079,4.81751782 L62.4774022,15.0423439 C62.3637052,15.263117 62.1935558,15.4510111 61.9836688,15.5875684 C61.7704292,15.7202977 61.5219519,15.7878758 61.2696544,15.781758 L60.7987087,15.781758 C60.5464112,15.7878758 60.2979339,15.7202977 60.0846943,15.5875684 C59.8748073,15.4510111 59.7046579,15.263117 59.5909609,15.0423439 L53.9699962,4.78017368 C53.9699962,5.05652033 54.0307634,5.32539815 54.0383593,5.58680715 C54.0459552,5.84821614 54.0383593,6.09468748 54.0383593,6.33368999 L54.0383593,17.9850623 L51,17.9850623 L51,0 L53.5750095,0.00012348177 L53.9699962,0.00012348177 C54.0710802,0.00645752374 54.1707794,0.0265665384 54.2662362,0.0598741092 C54.3607252,0.0964927835 54.446182,0.152510905 54.5169009,0.224188335 C54.6019646,0.313256664 54.6735896,0.413866401 54.729586,0.522941472 L60.2062286,10.5386404 C60.4720851,10.7851117 60.6088112,11.0614584 60.7303456,11.3452739 Z"></path>
                        <path d="M97.1145374,0.00629286232 C97.2060317,0.0164925446 97.2952951,0.0417059341 97.3788546,0.0809520728 C97.4628237,0.123057491 97.5396563,0.178503082 97.6064611,0.245202336 C97.6938526,0.333700332 97.7748279,0.428516562 97.8487518,0.528907336 L107.129222,12.5639721 C107.094958,12.2752898 107.072932,11.9915848 107.063142,11.7128571 C107.053353,11.4341293 107.053353,11.1852653 107.063142,10.966265 L107.063142,0.00629286232 L110,0.00629286232 L110,17.9991626 L108.296623,17.9991626 C108.072242,18.0066946 107.849026,17.9633391 107.643172,17.8722419 C107.445214,17.7637658 107.274402,17.610508 107.143906,17.4242867 L97.8781204,5.41908562 C97.8781204,5.6828815 97.8976995,5.94667737 97.9368576,6.21047325 C97.9760157,6.47426913 97.9760157,6.72313316 97.9368576,6.95706536 L97.9368576,17.9991626 L95,17.9991626 L95,0.00629286232 L96.7254038,0.00629286232 C96.8549838,-0.00209762077 96.9849575,-0.00209762077 97.1145374,0.00629286232 Z"></path>
                        <path d="M117.283764,7.54718543 L118.051682,7.54718543 C118.313331,7.55666605 118.574255,7.5136308 118.8196,7.4205298 C119.027546,7.33011284 119.20896,7.18637316 119.346173,7.00331126 L124.216967,0.722682119 C124.384904,0.488905291 124.605664,0.299793189 124.860556,0.171357616 C125.129304,0.0586844458 125.418455,0.00535883066 125.708922,0.0149006623 L128.546563,0.0149006623 L122.600683,7.46523179 C122.434339,7.6743621 122.253474,7.87105955 122.059483,8.05380795 C121.894679,8.20761459 121.71016,8.33794138 121.51097,8.44122517 C121.777041,8.53859969 122.024499,8.68228927 122.242321,8.86589404 C122.479156,9.07240779 122.690371,9.30758941 122.871282,9.56622517 L129,17.9925497 L126.074598,17.9925497 C125.775007,18.0102664 125.475824,17.9513593 125.204291,17.8211921 C125.00518,17.7014831 124.83911,17.532306 124.721599,17.3294702 L119.726475,10.6837748 C119.584653,10.4834218 119.396163,10.3221279 119.177962,10.214404 C118.900677,10.1060865 118.604263,10.0578745 118.307655,10.0728477 L117.283764,10.0728477 L117.283764,18 L114,18 L114,0 L117.283764,0 L117.283764,7.55463576 L117.283764,7.54718543 Z"></path>
                        <path d="M140.947152,3.33063987 C140.878811,3.48358197 140.769447,3.61492264 140.631016,3.71030509 C140.502277,3.78638915 140.354339,3.82438487 140.204599,3.81982391 C140.006672,3.80833328 139.815817,3.74262704 139.653197,3.6299913 C139.447341,3.50343622 139.202274,3.36227864 138.917996,3.20651855 C138.605646,3.03623795 138.278361,2.89449754 137.940178,2.7830458 C137.512478,2.64832308 137.065421,2.58419395 136.616815,2.59321319 C136.210964,2.58650419 135.806572,2.64317163 135.418436,2.76114204 C135.104329,2.85749072 134.81215,3.01373158 134.55825,3.22112106 C134.326137,3.41788744 134.146785,3.66875076 134.036257,3.95124648 C133.919985,4.23635578 133.862485,4.54173146 133.867161,4.84930076 C133.854417,5.22594072 133.97982,5.59436341 134.220057,5.88607886 C134.475871,6.18923942 134.791027,6.43763659 135.146411,6.61620428 C135.56991,6.82678565 136.010049,7.0026023 136.462422,7.14189459 L137.932826,7.63837988 C138.433548,7.81404926 138.924392,8.01634294 139.403229,8.24438398 C139.884234,8.46823404 140.328015,8.76368671 140.71924,9.12053449 C141.112886,9.48746989 141.427954,9.92949332 141.645594,10.4201577 C141.894787,11.0089064 142.015079,11.6435451 141.998491,12.2819776 C142.003914,13.0457881 141.864235,13.8037625 141.586778,14.5161614 C141.319975,15.2006009 140.908872,15.8204653 140.381047,16.3341737 C139.826911,16.8672043 139.168919,17.2821322 138.447467,17.5534831 C137.610891,17.8637009 136.722998,18.0147893 135.830149,17.9988597 C135.269604,17.9982043 134.710526,17.9419488 134.161241,17.8309308 C133.620811,17.7245275 133.091604,17.568084 132.580558,17.3636505 C132.087,17.1669598 131.614182,16.9224007 131.168971,16.6335251 C130.745505,16.3605831 130.353499,16.0422879 130,15.6843621 L130.955762,14.1145924 C131.045786,14.0014238 131.155313,13.9050136 131.279251,13.8298435 C131.407213,13.7512014 131.555203,13.7106583 131.705668,13.7130234 C131.94675,13.7259276 132.177894,13.812646 132.367349,13.9612661 C132.602614,14.1267612 132.88199,14.3117263 133.205479,14.5161614 C133.566171,14.7376461 133.947849,14.9234991 134.345042,15.0710567 C134.852289,15.2488212 135.387997,15.3329529 135.925725,15.3192993 C136.718133,15.3742671 137.503206,15.1377725 138.13133,14.6548852 C138.664707,14.1676868 138.948331,13.467546 138.903292,12.7492579 C138.920306,12.3429359 138.795664,11.9432229 138.550395,11.6175634 C138.296979,11.311968 137.981268,11.0631339 137.624041,10.887438 C137.203714,10.675611 136.762773,10.5068127 136.30803,10.3836515 C135.817896,10.2473614 135.327761,10.0964688 134.837627,9.93097371 C134.335937,9.76628806 133.844882,9.57122229 133.367223,9.34687337 C132.882147,9.12396211 132.437489,8.82299149 132.051213,8.45612035 C131.650771,8.06661897 131.335431,7.59936035 131.124858,7.08348456 C130.872844,6.43683912 130.752884,5.74686545 130.771962,5.05373587 C130.776353,3.73182874 131.32329,2.46884696 132.286477,1.55643509 C132.814738,1.06553677 133.433967,0.6811906 134.109777,0.424740683 C134.89851,0.128555136 135.73698,-0.0151814872 136.580055,0.00126793645 C137.567255,-0.00835257037 138.548241,0.157313097 139.476749,0.490451971 C140.314875,0.788181024 141.08293,1.25278902 141.733818,1.85578651 L140.947152,3.33063987 Z"></path>
                    </g>
                </g>
            </g>
        </g>
    </g>
</svg>