<svg width="48" height="48" viewBox="0 0 48 48" fill="none" xmlns="http://www.w3.org/2000/svg">
  <title>[icon] Jobs Values</title>
  <path d="M39.5762 21.5629V13.351H45.9868V8.31788H39.5762V0H5.45695V5.08609H34.3311V8.31788H0.0529802V13.351H34.3311V16.4768H4.87417V21.5629H39.5762ZM38.2517 24.053C36.5033 27.5497 34.4371 30.5166 32.053 32.9536L36.4503 36.1325C38.9934 33.3775 41.1656 30.0927 43.0728 26.3841L38.2517 24.053ZM26.0662 22.5166H20.5563C20.5033 25.5364 20.2384 27.8675 19.7086 29.5629C17.5894 35.6026 11.0199 39.894 0 42.4371L2.27815 47.5762C12.8742 44.7682 19.9205 40.4768 23.4172 34.755C26.808 40.6887 34.2781 44.9801 45.7219 47.5762L48 42.4371C36.1854 40.106 28.7152 35.4967 25.5894 28.6093C25.9073 26.8079 26.0662 24.7417 26.0662 22.5166ZM7.89404 24.5828L3.54967 27.2848C6.1457 30.5166 8.21192 33.4305 9.69536 36.0795L13.9868 33.0596C12.5563 30.6755 10.543 27.8675 7.89404 24.5828Z" fill="#FE664B"/>
</svg>
