<svg width="48" height="51" viewBox="0 0 48 51" fill="none" xmlns="http://www.w3.org/2000/svg">
  <title>[icon] Jobs Values</title>
  <path
    d="M9.89227 19.8408H22.2576V22.2014H9.89227V19.8408ZM9.89227 26.4731H22.2576V30.0141H27.9906V26.4731H40.8618V27.0351C40.8618 27.8782 40.4684 28.3279 39.7377 28.3279L34.8478 28.1593L35.9157 32.2623H41.0304C44.7963 32.2623 46.7073 30.9134 46.7073 28.2717V8.82436H33.6674C36.9274 7.363 40.1311 5.78923 43.2787 4.15925V0H4.88993V4.6089H15.7377L12.8712 6.4075C14.6136 7.19438 16.2998 8.03747 17.8735 8.82436H4.10304V32.0937H9.89227V26.4731ZM40.8618 22.2014H27.9906V19.8408H40.8618V22.2014ZM40.8618 15.5691H27.9906V13.2646H40.8618V15.5691ZM22.2576 13.2646V15.5691H9.89227V13.2646H22.2576ZM25.63 8.2623C23.8314 7.13818 21.5831 5.95785 18.9415 4.6089H32.8806C30.9696 5.5644 28.5527 6.80094 25.63 8.2623ZM48 33.4988H27.541C27.7096 32.7119 27.8782 31.9251 28.0468 31.0258H22.089C21.9204 31.8689 21.6956 32.7119 21.4707 33.4988H1.91101V38.5574H18.3794C17.7049 39.2319 16.9742 39.8501 16.1311 40.4122C12.815 42.6042 7.4192 44.2904 0 45.4707L2.36066 50.8665C11.185 49.1803 17.3677 46.9321 20.9087 44.0656C22.7635 42.4918 24.281 40.637 25.5176 38.5574H42.2108C42.2108 40.0749 42.0422 41.5363 41.8173 42.8853C41.4801 44.1218 40.356 44.7963 38.3326 44.8525C35.8595 44.8525 33.1054 44.6838 30.0703 44.4028L31.5316 49.7424C33.4426 49.9672 35.8033 50.0796 38.6136 50.0796C42.1546 50.0796 44.6276 49.0679 45.9766 47.1569C47.3255 45.1335 48 40.5808 48 33.4988Z"
    fill="#FE664B"/>
</svg>
