<svg width="100" height="48" viewBox="0 0 100 48" fill="none" xmlns="http://www.w3.org/2000/svg">
  <title>[icon] Success</title>
  <path d="M4.11576 9.05466V13.582H17.7492C17.2347 14.3023 16.7203 15.074 16.2058 15.7942H1.33762V20.5273H12.3473C8.95177 24.1286 4.83601 27.5241 0 30.8167L2.88103 35.4469C5.35048 33.6977 7.71704 31.8971 9.98071 29.9936V47.8457H15.074V45.9421H36.9389V47.8457H42.0322V22.6881H17.2347C17.8006 22.0193 18.3666 21.299 18.9839 20.5273H46.8167V15.7942H22.1736C22.5852 15.074 22.9968 14.3023 23.4084 13.582H43.8328V9.05466H25.5177C25.8264 8.23151 26.135 7.40836 26.4437 6.53376C32.9775 6.01929 38.6881 5.24759 43.627 4.21865L41.1576 0C31.1254 1.90354 18.881 2.88103 4.42444 2.88103L5.86495 7.25402C11.3183 7.25402 16.463 7.09968 21.2476 6.89389L20.2701 9.05466H4.11576ZM15.074 33.1833H36.9389V35.2926H15.074V33.1833ZM36.9389 29.1704H15.074V27.0096H36.9389V29.1704ZM15.074 39.3055H36.9389V41.6206H15.074V39.3055Z" fill="#5C5FD4"/>
<path d="M52.1157 9.62058V14.8167H58.701C57.1575 20.6302 54.6881 25.8264 51.2926 30.3537L53.6077 36.3215C55.6656 32.926 57.4148 29.1704 58.8553 25.1061V47.537H64.2572V22.4309C65.2862 24.1801 66.418 26.2379 67.7556 28.7074L70.791 24.0772C68.5788 21.4534 66.418 19.0354 64.2572 16.8746V14.8167H69.8135V9.62058H64.2572V0.154342H58.8553V9.62058H52.1157ZM78.1993 19.6527C79.2283 25.7235 81.1833 31.074 84.1672 35.7042C81.492 38.7395 78.1479 41.4662 74.135 43.8328L77.6334 48C81.4405 45.6334 84.7331 43.0096 87.4598 40.0257C90.0321 42.9582 93.1704 45.4791 96.8746 47.6399L99.6527 42.8039C96.1543 40.7974 93.2218 38.4309 90.8038 35.7556C94.0965 30.7653 96 25.0032 96.463 18.4695V14.508H76.7074V6.94534H97.9035V1.80064H71.5112V20.6817C71.3055 30.7653 69.3505 38.6881 65.6463 44.3473L69.7621 48C74.1865 41.1576 76.5016 32.0514 76.7074 20.6817V19.6527H78.1993ZM87.4083 31.2283C85.2476 27.8328 83.7556 23.9743 82.9325 19.6527H91.5241C90.8553 23.8714 89.4662 27.7299 87.4083 31.2283Z" fill="#5C5FD4"/>
</svg>
