<svg width="157" height="48" viewBox="0 0 157 48" fill="none" xmlns="http://www.w3.org/2000/svg">
  <title>[icon] Our company</title>

  <path
    d="M4.32962 0.534521V5.98664H19.0824V9.08686C18.9755 11.9198 18.7617 14.5924 18.441 17.1581H0.908686V22.5568H17.4788C16.784 25.3363 15.9287 27.902 14.8597 30.2539C12.294 35.2784 7.37639 39.5011 0 42.8686L3.15367 47.8396C10.5301 44.7394 15.8753 40.2494 19.1893 34.3697C20.9532 31.0557 22.2895 27.1002 23.2517 22.5568H26.1381V40.2494C26.1381 44.686 28.2227 46.931 32.392 46.931H40.8909C43.1359 46.931 44.8463 46.3964 45.9154 45.3808C47.0913 44.3118 47.9465 40.8909 48.4276 35.118L43.1893 33.3541C42.9755 37.4165 42.6013 39.8218 42.0134 40.5702C41.5323 41.3185 40.784 41.7461 39.8218 41.7461H34.1024C32.4989 41.7461 31.6971 40.8374 31.6971 39.1269V22.5568H47.6793V17.1581H24.1604C24.4811 14.6459 24.6414 11.9733 24.7483 9.08686V5.98664H43.4566V0.534521H4.32962Z"
    fill="#FE664B"/>
  <path
    d="M64.5167 8.71269V13.7372H74.9399V19.8307H66.2272V24.7483H74.9399V31.7506H63.0735V36.7751H92.5256V31.7506H87.5011L90.1203 30.5746C89.265 28.5969 88.196 26.7795 87.02 25.1225L82.5835 26.5657C83.6526 28.0624 84.6147 29.7728 85.4699 31.7506H80.6058V24.7483H89.3185V19.8307H80.6058V13.7372H90.9755V8.71269H64.5167ZM100.437 0.213809H55.1091V47.7327H60.775V45.755H94.7706V47.7327H100.437V0.213809ZM60.775 40.5167V5.45212H94.7706V40.5167H60.775Z"
    fill="#FE664B"/>
  <path
    d="M112.356 0V22.4499H121.229C117.808 25.5501 112.784 28.1158 106.049 30.147L109.042 35.0111C113.639 33.1403 117.595 31.0022 120.909 28.5969C120.802 31.804 120.214 34.4232 119.198 36.4543C117.755 39.2339 114.708 41.5857 110.058 43.51L113.746 48C119.519 45.4343 123.154 42.2272 124.65 38.3786C125.933 35.3318 126.575 31.6437 126.575 27.314H122.566C124.383 25.8174 125.987 24.1604 127.376 22.4499H135.073C136.249 24.1604 137.8 25.7639 139.617 27.3675H136.73V47.9465H142.343V29.5056C145.443 31.7506 149.292 33.7283 153.889 35.4922L156.294 30.5746C149.612 28.5434 144.535 25.8174 141.114 22.4499H150.307V0H112.356ZM144.909 17.6392H133.951V13.4699H144.909V17.6392ZM128.499 17.6392H117.755V13.4699H128.499V17.6392ZM117.755 8.87305V4.91759H128.499V8.87305H117.755ZM133.951 4.91759H144.909V8.87305H133.951V4.91759Z"
    fill="#FE664B"/>
</svg>
