<svg width="97" height="48" viewBox="0 0 97 48" fill="none" xmlns="http://www.w3.org/2000/svg">
  <title>[icon] Life</title>

  <path
    d="M29.0459 19.3127L24.9989 21.6179C26.3308 26.1259 27.9701 30.2241 29.968 33.81C26.7919 37.9082 22.4888 41.1355 17.0587 43.492L20.3372 47.8975C25.4088 45.4386 29.6094 42.3138 32.9392 38.4205C35.9616 42.5187 39.6499 45.746 44.0043 48L47.0779 43.4408C42.7748 41.2892 39.1377 38.1644 36.1153 34.0662C39.6499 28.2263 41.5966 21.0544 41.9552 12.6019H45.3874V7.53042H29.8143C30.2753 5.58378 30.6852 3.48346 31.0438 1.33191L25.8186 0.409819C24.5891 9.01601 22.2327 15.8805 18.7492 20.952L22.0277 25.1014C24.5891 21.7716 26.7407 17.6222 28.3799 12.6019H36.7812C36.5763 18.8517 35.3468 24.3842 32.9904 29.0971C31.4536 26.1772 30.1217 22.8986 29.0459 19.3127ZM7.37673 38.318V24.0768H18.5443V3.48346H0V8.55496H13.3191V19.159H2.20277V37.4472C2.20277 39.1889 1.53682 40.3159 0.307364 40.8282L1.84418 45.4386C8.60619 43.2359 14.7535 40.8282 20.286 38.2156L19.5176 33.349C15.4194 35.2956 11.3725 36.9861 7.37673 38.318Z"
    fill="#FE664B"/>
  <path
    d="M53.3276 4.45678V9.06724H71.5133V11.27H55.6841V15.3682H71.5133V17.5197H52.3543V22.1302H60.9093C61.524 23.1035 62.1387 24.1793 62.7022 25.3575H51.4835V30.0704H96.7684V25.3575H86.2156C86.7791 24.333 87.2914 23.2572 87.7012 22.1302H95.8975V17.5197H76.7385V15.3682H92.5678V11.27H76.7385V9.06724H94.9242V4.45678H85.1398C85.9594 3.32978 86.6766 2.10032 87.1889 0.768412L81.4514 0C80.9392 1.53682 80.1708 3.02241 79.2487 4.45678H69.2593C68.5422 2.86873 67.8762 1.43436 67.159 0.102456L61.1654 1.127C61.9851 2.15155 62.8047 3.22732 63.5219 4.45678H53.3276ZM80.9904 25.3575H67.6713C67.2102 24.2305 66.7492 23.1548 66.2881 22.1302H82.5272C82.1174 23.206 81.6051 24.2817 80.9904 25.3575ZM91.9018 32.3757H56.4525V47.7951H61.6777V46.1046H86.6766V47.7951H91.9018V32.3757ZM61.6777 41.2892V36.9861H86.6766V41.2892H61.6777Z"
    fill="#FE664B"/>
</svg>
