<svg width="99" height="48" viewBox="0 0 99 48" fill="none" xmlns="http://www.w3.org/2000/svg">
  <title>[icon] Give</title>

  <path
    d="M2.7871 10.0645V15.2258H11.5613V25.9613H0.154839V31.2258H46.7097V25.9613H35.3032V15.2258H44.129V10.0645H35.3032V0.206452H29.8839V10.0645H16.9806V0H11.5613V10.0645H2.7871ZM16.9806 25.9613V15.2258H29.8839V25.9613H16.9806ZM15.4323 31.8452C11.3032 36.129 6.14193 39.8968 0 43.0968L3.81935 48C10.0129 44.3871 15.2774 40.2064 19.5097 35.4581L15.4323 31.8452ZM31.8968 31.9484L28.0258 35.7161C34.3226 40.1032 39.1742 44.1806 42.5806 47.9484L46.8645 43.6645C42.7871 39.7935 37.7806 35.871 31.8968 31.9484Z"
    fill="#5C5FD4"/>
  <path
    d="M58.8903 10.7871V22.2968H91.2516V10.7871H58.8903ZM86.0387 17.7548H64.1032V15.329H86.0387V17.7548ZM75.4064 0L69.1613 1.03226C69.8839 1.90968 70.5548 2.83871 71.1742 3.81935H52.4387V8.87742H97.6516V3.81935H77.3677C76.7484 2.42581 76.0774 1.13548 75.4064 0ZM51.3032 33.9613V38.8129H73.2903V40.7226C73.2903 42.4774 72.5161 43.4065 70.9677 43.4065C69.4193 43.4065 67.2516 43.3032 64.5161 43.0968L65.9613 47.8968H73.0839C76.7484 47.8968 78.6064 45.9871 78.6064 42.271V38.8129H98.7871V33.9613H78.7613C84.2322 31.7935 89.0839 29.8323 93.2129 28.0774V24.3097H56.3097V29.0581H82.3742L73.2903 32.671V33.9613H51.3032Z"
    fill="#5C5FD4"/>
</svg>
