<svg width="100" height="48" viewBox="0 0 100 48" fill="none" xmlns="http://www.w3.org/2000/svg">
  <title>[icon] Weirdness</title>

  <path
    d="M29.4194 24.8774V29.6258H18.8903V34.7871H29.4194V41.4968H16.1032V46.7097H48.1032V41.4968H34.8387V34.7871H45.1613V29.6258H34.8387V24.8774H29.4194ZM18.4774 1.75484V6.8129H20.9548C21.471 8.67097 22.2968 10.4774 23.4323 12.1806C24.671 14.1935 26.2194 16 28.0258 17.5484C24.5161 19.6129 20.2839 21.2645 15.4323 22.6065L17.4968 27.3548C23.2774 25.7032 28.2839 23.5355 32.4129 20.9032C33.6516 21.7806 35.0968 22.6065 36.6968 23.4323C39.4839 24.8258 42.4774 26.0129 45.6774 27.0452L48.6194 22.5032C45.8323 21.729 43.1484 20.8 40.6194 19.7677C39.2258 19.1484 37.8839 18.4774 36.6452 17.7548C40.3613 14.5548 42.9935 10.8387 44.6452 6.50323V1.75484H18.4774ZM26.0645 6.8129H38.8645C37.2129 9.70323 34.9935 12.3355 32.1548 14.7097C30.8129 13.6258 29.5742 12.3871 28.4903 11.0452C27.4581 9.80645 26.6323 8.36129 26.0645 6.8129ZM1.75484 10.3226C1.6 15.1742 1.03226 19.7677 0 24.1032L4.43871 25.3419C5.41935 20.6968 5.93548 15.8452 6.03871 10.6839L1.75484 10.3226ZM17.3419 8.98065L13.4194 10.271C14.5548 13.2645 15.4839 16.4129 16.2065 19.7161L20.3871 18.5806C19.4581 14.9677 18.4774 11.7677 17.3419 8.98065ZM7.48387 0.258064V48H12.9032V0.258064H7.48387Z"
    fill="#5C5FD4"/>
  <path
    d="M57.9613 9.39355V20.2323H73.2387V22.6065H56.929V26.7355H73.2387V29.3161H52.2323V33.6H73.2387V36.129H56.8774V40.3613H73.2387V41.4452C73.2387 42.4774 72.6193 42.9935 71.4323 42.9935C69.6258 42.9935 67.7161 42.8387 65.7548 42.6323L66.8903 47.6903H73.2387C76.8 47.6903 78.6064 46.0387 78.6064 42.7355V40.3613H94.5548V33.6H99.6129V29.3161H94.5548V22.6065H78.6064V20.2323H93.8839V9.39355H78.6064V7.07097H98.2193V2.52903H78.6064V0H73.2387V2.52903H53.6258V7.07097H73.2387V9.39355H57.9613ZM88.5161 16.3097H78.6064V13.3677H88.5161V16.3097ZM73.2387 16.3097H63.329V13.3677H73.2387V16.3097ZM78.6064 26.7355H89.4452V29.3161H78.6064V26.7355ZM89.4452 33.6V36.129H78.6064V33.6H89.4452Z"
    fill="#5C5FD4"/>
</svg>
