<svg width="110" height="110" viewBox="0 0 110 110" fill="none" xmlns="http://www.w3.org/2000/svg">
  <title>[icon] What are we working on? Blockchain projects.</title>

  <path
    d="M45.8333 98.4621H42.1666V78.4811C42.1666 77.478 41.3458 76.6647 40.3333 76.6647H7.33333C6.32087 76.6647 5.5 77.478 5.5 78.4811V98.4621H1.83333C0.820874 98.4621 0 99.2754 0 100.279C0.00595833 105.292 4.10666 109.355 9.16666 109.361H38.5C43.56 109.355 47.6607 105.292 47.6666 100.279C47.6666 99.2754 46.8458 98.4621 45.8333 98.4621ZM9.16666 80.2976H38.5V98.4621H36.6666V83.9305C36.6666 82.9273 35.8458 82.114 34.8333 82.114H12.8333C11.8209 82.114 11 82.9273 11 83.9305V98.4621H9.16666V80.2976ZM33 85.7469V98.4621H14.6667V85.7469H33ZM38.5 105.728H9.16666C6.83649 105.725 4.76002 104.271 3.98016 102.095H43.6865C42.9066 104.271 40.8301 105.725 38.5 105.728Z"
    fill="black"/>
  <path
    d="M45.8333 98.4621H42.1666V78.4811C42.1666 77.478 41.3458 76.6647 40.3333 76.6647H7.33333C6.32087 76.6647 5.5 77.478 5.5 78.4811V98.4621H1.83333C0.820874 98.4621 0 99.2754 0 100.279C0.00595833 105.292 4.10666 109.355 9.16666 109.361H38.5C43.56 109.355 47.6607 105.292 47.6666 100.279C47.6666 99.2754 46.8458 98.4621 45.8333 98.4621ZM9.16666 80.2976H38.5V98.4621H36.6666V83.9305C36.6666 82.9273 35.8458 82.114 34.8333 82.114H12.8333C11.8209 82.114 11 82.9273 11 83.9305V98.4621H9.16666V80.2976ZM33 85.7469V98.4621H14.6667V85.7469H33ZM38.5 105.728H9.16666C6.83649 105.725 4.76002 104.271 3.98016 102.095H43.6865C42.9066 104.271 40.8301 105.725 38.5 105.728Z"
    fill="url(#paint0_linear)"/>
  <path
    d="M45.8333 22.1712H42.1666V2.19023C42.1666 1.18709 41.3458 0.373779 40.3333 0.373779H7.33333C6.32087 0.373779 5.5 1.18709 5.5 2.19023V22.1712H1.83333C0.820874 22.1712 0 22.9845 0 23.9876C0.00595833 29.001 4.10666 33.064 9.16666 33.0699H38.5C43.56 33.064 47.6607 29.001 47.6666 23.9876C47.6666 22.9845 46.8458 22.1712 45.8333 22.1712ZM9.16666 4.00668H38.5V22.1712H36.6666V7.63957C36.6666 6.63644 35.8458 5.82313 34.8333 5.82313H12.8333C11.8209 5.82313 11 6.63644 11 7.63957V22.1712H9.16666V4.00668ZM33 9.45602V22.1712H14.6667V9.45602H33ZM38.5 29.437H9.16666C6.83649 29.4342 4.76002 27.9797 3.98016 25.8041H43.6865C42.9066 27.9797 40.8301 29.4342 38.5 29.437Z"
    fill="black"/>
  <path
    d="M45.8333 22.1712H42.1666V2.19023C42.1666 1.18709 41.3458 0.373779 40.3333 0.373779H7.33333C6.32087 0.373779 5.5 1.18709 5.5 2.19023V22.1712H1.83333C0.820874 22.1712 0 22.9845 0 23.9876C0.00595833 29.001 4.10666 33.064 9.16666 33.0699H38.5C43.56 33.064 47.6607 29.001 47.6666 23.9876C47.6666 22.9845 46.8458 22.1712 45.8333 22.1712ZM9.16666 4.00668H38.5V22.1712H36.6666V7.63957C36.6666 6.63644 35.8458 5.82313 34.8333 5.82313H12.8333C11.8209 5.82313 11 6.63644 11 7.63957V22.1712H9.16666V4.00668ZM33 9.45602V22.1712H14.6667V9.45602H33ZM38.5 29.437H9.16666C6.83649 29.4342 4.76002 27.9797 3.98016 25.8041H43.6865C42.9066 27.9797 40.8301 29.4342 38.5 29.437Z"
    fill="url(#paint1_linear)"/>
  <path
    d="M108.167 98.4621H104.501V78.4811C104.501 77.478 103.68 76.6647 102.667 76.6647H69.6673C68.6549 76.6647 67.834 77.478 67.834 78.4811V98.4621H64.1673C63.1549 98.4621 62.334 99.2754 62.334 100.279C62.3399 105.292 66.4406 109.355 71.5006 109.361H100.834C105.894 109.355 109.995 105.292 110.001 100.279C110.001 99.2754 109.18 98.4621 108.167 98.4621ZM71.5006 80.2976H100.834V98.4621H99.0006V83.9305C99.0006 82.9273 98.1797 82.114 97.1673 82.114H75.1673C74.1549 82.114 73.334 82.9273 73.334 83.9305V98.4621H71.5006V80.2976ZM95.334 85.7469V98.4621H77.0006V85.7469H95.334ZM100.834 105.728H71.5006C69.1705 105.725 67.094 104.271 66.3142 102.095H106.02C105.241 104.271 103.164 105.725 100.834 105.728Z"
    fill="black"/>
  <path
    d="M108.167 98.4621H104.501V78.4811C104.501 77.478 103.68 76.6647 102.667 76.6647H69.6673C68.6549 76.6647 67.834 77.478 67.834 78.4811V98.4621H64.1673C63.1549 98.4621 62.334 99.2754 62.334 100.279C62.3399 105.292 66.4406 109.355 71.5006 109.361H100.834C105.894 109.355 109.995 105.292 110.001 100.279C110.001 99.2754 109.18 98.4621 108.167 98.4621ZM71.5006 80.2976H100.834V98.4621H99.0006V83.9305C99.0006 82.9273 98.1797 82.114 97.1673 82.114H75.1673C74.1549 82.114 73.334 82.9273 73.334 83.9305V98.4621H71.5006V80.2976ZM95.334 85.7469V98.4621H77.0006V85.7469H95.334ZM100.834 105.728H71.5006C69.1705 105.725 67.094 104.271 66.3142 102.095H106.02C105.241 104.271 103.164 105.725 100.834 105.728Z"
    fill="url(#paint2_linear)"/>
  <path
    d="M108.167 22.1712H104.501V2.19023C104.501 1.18709 103.68 0.373779 102.667 0.373779H69.6673C68.6549 0.373779 67.834 1.18709 67.834 2.19023V22.1712H64.1673C63.1549 22.1712 62.334 22.9845 62.334 23.9876C62.3399 29.001 66.4406 33.064 71.5006 33.0699H100.834C105.894 33.064 109.995 29.001 110.001 23.9876C110.001 22.9845 109.18 22.1712 108.167 22.1712ZM71.5006 4.00668H100.834V22.1712H99.0006V7.63957C99.0006 6.63644 98.1797 5.82313 97.1673 5.82313H75.1673C74.1549 5.82313 73.334 6.63644 73.334 7.63957V22.1712H71.5006V4.00668ZM95.334 9.45602V22.1712H77.0006V9.45602H95.334ZM100.834 29.437H71.5006C69.1705 29.4342 67.094 27.9797 66.3142 25.8041H106.02C105.241 27.9797 103.164 29.4342 100.834 29.437Z"
    fill="black"/>
  <path
    d="M108.167 22.1712H104.501V2.19023C104.501 1.18709 103.68 0.373779 102.667 0.373779H69.6673C68.6549 0.373779 67.834 1.18709 67.834 2.19023V22.1712H64.1673C63.1549 22.1712 62.334 22.9845 62.334 23.9876C62.3399 29.001 66.4406 33.064 71.5006 33.0699H100.834C105.894 33.064 109.995 29.001 110.001 23.9876C110.001 22.9845 109.18 22.1712 108.167 22.1712ZM71.5006 4.00668H100.834V22.1712H99.0006V7.63957C99.0006 6.63644 98.1797 5.82313 97.1673 5.82313H75.1673C74.1549 5.82313 73.334 6.63644 73.334 7.63957V22.1712H71.5006V4.00668ZM95.334 9.45602V22.1712H77.0006V9.45602H95.334ZM100.834 29.437H71.5006C69.1705 29.4342 67.094 27.9797 66.3142 25.8041H106.02C105.241 27.9797 103.164 29.4342 100.834 29.437Z"
    fill="url(#paint3_linear)"/>
  <path
    d="M73.3339 58.5002H68.6772C72.7438 54.0406 72.3918 47.1592 67.8907 43.1301C63.3897 39.101 56.4444 39.4497 52.3778 43.9093C52.3599 43.9291 52.3418 43.9488 52.3242 43.9686H36.6673C35.6549 43.9686 34.834 44.7819 34.834 45.785V67.5825C34.834 68.5856 35.6549 69.3989 36.6673 69.3989H73.3339C74.3464 69.3989 75.1672 68.5856 75.1672 67.5825V60.3167C75.1672 59.3135 74.3464 58.5002 73.3339 58.5002ZM38.5006 47.6015H50.1423C49.7209 48.7674 49.5038 49.996 49.5006 51.2344H38.5006V47.6015ZM38.5006 54.8673H50.1423C50.6235 56.2076 51.3647 57.4417 52.324 58.5002H38.5006V54.8673ZM53.1673 65.766H38.5006V62.1331H53.1673V65.766ZM53.1673 51.2344C53.1673 47.2216 56.4505 43.9686 60.5006 43.9686C64.5507 43.9686 67.8339 47.2216 67.8339 51.2344C67.8339 55.2472 64.5507 58.5002 60.5006 58.5002C56.4505 58.5002 53.1673 55.2472 53.1673 51.2344ZM71.5006 65.766H56.8339V62.1331H71.5006V65.766Z"
    fill="black"/>
  <path
    d="M73.3339 58.5002H68.6772C72.7438 54.0406 72.3918 47.1592 67.8907 43.1301C63.3897 39.101 56.4444 39.4497 52.3778 43.9093C52.3599 43.9291 52.3418 43.9488 52.3242 43.9686H36.6673C35.6549 43.9686 34.834 44.7819 34.834 45.785V67.5825C34.834 68.5856 35.6549 69.3989 36.6673 69.3989H73.3339C74.3464 69.3989 75.1672 68.5856 75.1672 67.5825V60.3167C75.1672 59.3135 74.3464 58.5002 73.3339 58.5002ZM38.5006 47.6015H50.1423C49.7209 48.7674 49.5038 49.996 49.5006 51.2344H38.5006V47.6015ZM38.5006 54.8673H50.1423C50.6235 56.2076 51.3647 57.4417 52.324 58.5002H38.5006V54.8673ZM53.1673 65.766H38.5006V62.1331H53.1673V65.766ZM53.1673 51.2344C53.1673 47.2216 56.4505 43.9686 60.5006 43.9686C64.5507 43.9686 67.8339 47.2216 67.8339 51.2344C67.8339 55.2472 64.5507 58.5002 60.5006 58.5002C56.4505 58.5002 53.1673 55.2472 53.1673 51.2344ZM71.5006 65.766H56.8339V62.1331H71.5006V65.766Z"
    fill="url(#paint4_linear)"/>
  <path d="M49.5006 9.45605H45.834V13.0889H49.5006V9.45605Z" fill="black"/>
  <path d="M49.5006 9.45605H45.834V13.0889H49.5006V9.45605Z" fill="url(#paint5_linear)"/>
  <path d="M64.1667 9.45605H60.5V13.0889H64.1667V9.45605Z" fill="black"/>
  <path d="M64.1667 9.45605H60.5V13.0889H64.1667V9.45605Z" fill="url(#paint6_linear)"/>
  <path d="M56.8326 9.45605H53.166V13.0889H56.8326V9.45605Z" fill="black"/>
  <path d="M56.8326 9.45605H53.166V13.0889H56.8326V9.45605Z" fill="url(#paint7_linear)"/>
  <path d="M23.8327 38.5192H20.166V42.1521H23.8327V38.5192Z" fill="black"/>
  <path d="M23.8327 38.5192H20.166V42.1521H23.8327V38.5192Z" fill="url(#paint8_linear)"/>
  <path d="M23.8327 45.7849H20.166V49.4178H23.8327V45.7849Z" fill="black"/>
  <path d="M23.8327 45.7849H20.166V49.4178H23.8327V45.7849Z" fill="url(#paint9_linear)"/>
  <path d="M23.8327 67.5824H20.166V71.2153H23.8327V67.5824Z" fill="black"/>
  <path d="M23.8327 67.5824H20.166V71.2153H23.8327V67.5824Z" fill="url(#paint10_linear)"/>
  <path d="M23.8327 53.0508H20.166V56.6837H23.8327V53.0508Z" fill="black"/>
  <path d="M23.8327 53.0508H20.166V56.6837H23.8327V53.0508Z" fill="url(#paint11_linear)"/>
  <path d="M23.8327 60.3165H20.166V63.9494H23.8327V60.3165Z" fill="black"/>
  <path d="M23.8327 60.3165H20.166V63.9494H23.8327V60.3165Z" fill="url(#paint12_linear)"/>
  <path d="M49.5006 85.7469H45.834V89.3799H49.5006V85.7469Z" fill="black"/>
  <path d="M49.5006 85.7469H45.834V89.3799H49.5006V85.7469Z" fill="url(#paint13_linear)"/>
  <path d="M56.8326 85.7469H53.166V89.3799H56.8326V85.7469Z" fill="black"/>
  <path d="M56.8326 85.7469H53.166V89.3799H56.8326V85.7469Z" fill="url(#paint14_linear)"/>
  <path d="M64.1667 85.7469H60.5V89.3799H64.1667V85.7469Z" fill="black"/>
  <path d="M64.1667 85.7469H60.5V89.3799H64.1667V85.7469Z" fill="url(#paint15_linear)"/>
  <path d="M88.0006 60.3165H84.334V63.9494H88.0006V60.3165Z" fill="black"/>
  <path d="M88.0006 60.3165H84.334V63.9494H88.0006V60.3165Z" fill="url(#paint16_linear)"/>
  <path d="M88.0006 53.0508H84.334V56.6837H88.0006V53.0508Z" fill="black"/>
  <path d="M88.0006 53.0508H84.334V56.6837H88.0006V53.0508Z" fill="url(#paint17_linear)"/>
  <path d="M88.0006 45.7849H84.334V49.4178H88.0006V45.7849Z" fill="black"/>
  <path d="M88.0006 45.7849H84.334V49.4178H88.0006V45.7849Z" fill="url(#paint18_linear)"/>
  <path d="M88.0006 38.5192H84.334V42.1521H88.0006V38.5192Z" fill="black"/>
  <path d="M88.0006 38.5192H84.334V42.1521H88.0006V38.5192Z" fill="url(#paint19_linear)"/>
  <path d="M88.0006 67.5824H84.334V71.2153H88.0006V67.5824Z" fill="black"/>
  <path d="M88.0006 67.5824H84.334V71.2153H88.0006V67.5824Z" fill="url(#paint20_linear)"/>
  <defs>
    <linearGradient id="paint0_linear" x1="-2.86" y1="98.0785" x2="52.91" y2="98.0785" gradientUnits="userSpaceOnUse">
      <stop stop-color="#8363F9"/>
      <stop offset="1" stop-color="#485BBD"/>
    </linearGradient>
    <linearGradient id="paint1_linear" x1="-2.86" y1="21.7876" x2="52.91" y2="21.7876" gradientUnits="userSpaceOnUse">
      <stop stop-color="#8363F9"/>
      <stop offset="1" stop-color="#485BBD"/>
    </linearGradient>
    <linearGradient id="paint2_linear" x1="59.474" y1="98.0785" x2="115.244" y2="98.0785"
                    gradientUnits="userSpaceOnUse">
      <stop stop-color="#8363F9"/>
      <stop offset="1" stop-color="#485BBD"/>
    </linearGradient>
    <linearGradient id="paint3_linear" x1="59.474" y1="21.7876" x2="115.244" y2="21.7876"
                    gradientUnits="userSpaceOnUse">
      <stop stop-color="#8363F9"/>
      <stop offset="1" stop-color="#485BBD"/>
    </linearGradient>
    <linearGradient id="paint4_linear" x1="32.414" y1="59.3656" x2="79.6039" y2="59.3656"
                    gradientUnits="userSpaceOnUse">
      <stop stop-color="#8363F9"/>
      <stop offset="1" stop-color="#485BBD"/>
    </linearGradient>
    <linearGradient id="paint5_linear" x1="45.614" y1="11.8354" x2="49.9039" y2="11.8354"
                    gradientUnits="userSpaceOnUse">
      <stop stop-color="#8363F9"/>
      <stop offset="1" stop-color="#485BBD"/>
    </linearGradient>
    <linearGradient id="paint6_linear" x1="60.28" y1="11.8354" x2="64.5701" y2="11.8354" gradientUnits="userSpaceOnUse">
      <stop stop-color="#8363F9"/>
      <stop offset="1" stop-color="#485BBD"/>
    </linearGradient>
    <linearGradient id="paint7_linear" x1="52.946" y1="11.8354" x2="57.236" y2="11.8354" gradientUnits="userSpaceOnUse">
      <stop stop-color="#8363F9"/>
      <stop offset="1" stop-color="#485BBD"/>
    </linearGradient>
    <linearGradient id="paint8_linear" x1="19.946" y1="40.8985" x2="24.236" y2="40.8985" gradientUnits="userSpaceOnUse">
      <stop stop-color="#8363F9"/>
      <stop offset="1" stop-color="#485BBD"/>
    </linearGradient>
    <linearGradient id="paint9_linear" x1="19.946" y1="48.1642" x2="24.236" y2="48.1642" gradientUnits="userSpaceOnUse">
      <stop stop-color="#8363F9"/>
      <stop offset="1" stop-color="#485BBD"/>
    </linearGradient>
    <linearGradient id="paint10_linear" x1="19.946" y1="69.9617" x2="24.236" y2="69.9617"
                    gradientUnits="userSpaceOnUse">
      <stop stop-color="#8363F9"/>
      <stop offset="1" stop-color="#485BBD"/>
    </linearGradient>
    <linearGradient id="paint11_linear" x1="19.946" y1="55.4301" x2="24.236" y2="55.4301"
                    gradientUnits="userSpaceOnUse">
      <stop stop-color="#8363F9"/>
      <stop offset="1" stop-color="#485BBD"/>
    </linearGradient>
    <linearGradient id="paint12_linear" x1="19.946" y1="62.6958" x2="24.236" y2="62.6958"
                    gradientUnits="userSpaceOnUse">
      <stop stop-color="#8363F9"/>
      <stop offset="1" stop-color="#485BBD"/>
    </linearGradient>
    <linearGradient id="paint13_linear" x1="45.614" y1="88.1263" x2="49.9039" y2="88.1263"
                    gradientUnits="userSpaceOnUse">
      <stop stop-color="#8363F9"/>
      <stop offset="1" stop-color="#485BBD"/>
    </linearGradient>
    <linearGradient id="paint14_linear" x1="52.946" y1="88.1263" x2="57.236" y2="88.1263"
                    gradientUnits="userSpaceOnUse">
      <stop stop-color="#8363F9"/>
      <stop offset="1" stop-color="#485BBD"/>
    </linearGradient>
    <linearGradient id="paint15_linear" x1="60.28" y1="88.1263" x2="64.5701" y2="88.1263"
                    gradientUnits="userSpaceOnUse">
      <stop stop-color="#8363F9"/>
      <stop offset="1" stop-color="#485BBD"/>
    </linearGradient>
    <linearGradient id="paint16_linear" x1="84.114" y1="62.6958" x2="88.4039" y2="62.6958"
                    gradientUnits="userSpaceOnUse">
      <stop stop-color="#8363F9"/>
      <stop offset="1" stop-color="#485BBD"/>
    </linearGradient>
    <linearGradient id="paint17_linear" x1="84.114" y1="55.4301" x2="88.4039" y2="55.4301"
                    gradientUnits="userSpaceOnUse">
      <stop stop-color="#8363F9"/>
      <stop offset="1" stop-color="#485BBD"/>
    </linearGradient>
    <linearGradient id="paint18_linear" x1="84.114" y1="48.1642" x2="88.4039" y2="48.1642"
                    gradientUnits="userSpaceOnUse">
      <stop stop-color="#8363F9"/>
      <stop offset="1" stop-color="#485BBD"/>
    </linearGradient>
    <linearGradient id="paint19_linear" x1="84.114" y1="40.8985" x2="88.4039" y2="40.8985"
                    gradientUnits="userSpaceOnUse">
      <stop stop-color="#8363F9"/>
      <stop offset="1" stop-color="#485BBD"/>
    </linearGradient>
    <linearGradient id="paint20_linear" x1="84.114" y1="69.9617" x2="88.4039" y2="69.9617"
                    gradientUnits="userSpaceOnUse">
      <stop stop-color="#8363F9"/>
      <stop offset="1" stop-color="#485BBD"/>
    </linearGradient>
  </defs>
</svg>
