<svg width="137" height="147" viewBox="0 0 137 145" fill="none" xmlns="http://www.w3.org/2000/svg">
  <title>[icon] Blockchain projects</title>
  <path fill-rule="evenodd" clip-rule="evenodd"
        d="M5.45934 15.8666L9.66732 19.9794C10.2493 20.5531 10.2583 21.4904 9.68432 22.07C9.39632 22.3653 9.01432 22.5129 8.62733 22.5129C8.25333 22.5129 7.87533 22.3752 7.58433 22.0928L3.37634 17.981C2.79335 17.4063 2.78435 16.469 3.35834 15.8894C3.64634 15.5941 4.03034 15.4475 4.41634 15.4475C4.79234 15.4475 5.16934 15.5872 5.45934 15.8666Z"
        fill="#FE664B"/>
  <path fill-rule="evenodd" clip-rule="evenodd" d="M7.77812 1.01669L20.6751 13.8752C21.2541 14.4518 21.2541 15.3891 20.6751 15.9658C20.3831 16.2531 20.0031 16.3968 19.6231 16.3968C19.2421 16.3968 18.8621 16.2531 18.5741 15.9658L5.67611 3.10825C5.09811 2.53161 5.09811 1.59432 5.67611 1.01669C5.96711 0.729358 6.34711 0.585693 6.72811 0.585693C7.10811 0.585693 7.48812 0.729358 7.77812 1.01669Z" fill="#FE664B"/>
<path fill-rule="evenodd" clip-rule="evenodd" d="M128.446 14.2564C128.446 13.8199 128.092 13.4661 127.655 13.4661C127.219 13.4661 126.865 13.8199 126.865 14.2564V16.9944L125.086 14.8925C124.805 14.5606 124.306 14.517 123.972 14.7951C123.638 15.0732 123.594 15.5677 123.875 15.8996L125.652 17.9983L122.922 17.5213C122.495 17.4468 122.088 17.7319 122.012 18.1581C121.936 18.5843 122.221 18.9902 122.647 19.0647L125.379 19.5419L122.98 20.9142C122.603 21.1295 122.475 21.6079 122.693 21.9826C122.912 22.3573 123.394 22.4865 123.77 22.2712L126.169 20.8992L125.224 23.4698C125.074 23.8791 125.285 24.3308 125.695 24.4787C126.105 24.6267 126.56 24.4148 126.71 24.0055L127.655 21.433L128.6 24.0053C128.75 24.4146 129.205 24.6265 129.615 24.4786C130.025 24.3307 130.236 23.879 130.085 23.4697L129.14 20.8975L131.541 22.2707C131.918 22.4861 132.4 22.3569 132.618 21.9821C132.836 21.6074 132.708 21.129 132.332 20.9137L129.932 19.541L132.664 19.0638C133.09 18.9893 133.374 18.5834 133.298 18.1572C133.222 17.731 132.815 17.4459 132.389 17.5204L129.658 17.9975L131.436 15.8986C131.717 15.5667 131.673 15.0723 131.339 14.7943C131.005 14.5163 130.506 14.56 130.225 14.8918L128.446 16.9925V14.2564ZM128.054 18.0567C128.1 18.1837 128.179 18.3008 128.291 18.3937C128.402 18.4859 128.531 18.5428 128.664 18.5654C128.617 18.6914 128.603 18.8311 128.628 18.9731C128.653 19.115 128.715 19.2412 128.802 19.3437C128.685 19.4104 128.583 19.5078 128.511 19.6325C128.438 19.7577 128.403 19.8945 128.404 20.0292C128.271 20.0048 128.129 20.0142 127.993 20.0634C127.856 20.1127 127.741 20.196 127.655 20.3001C127.568 20.196 127.454 20.1128 127.317 20.0635C127.181 20.0145 127.04 20.005 126.907 20.029C126.908 19.8945 126.874 19.758 126.801 19.6329C126.728 19.5082 126.626 19.4106 126.509 19.3439C126.596 19.2415 126.657 19.1156 126.682 18.974C126.708 18.8323 126.693 18.6928 126.647 18.567C126.78 18.5443 126.908 18.4875 127.019 18.3954C127.131 18.302 127.211 18.1844 127.256 18.0566C127.373 18.1253 127.51 18.1647 127.655 18.1647C127.801 18.1647 127.937 18.1253 128.054 18.0567Z" fill="#FE664B"/>
<path fill-rule="evenodd" clip-rule="evenodd" d="M23.6094 74.895C21.6764 74.895 20.1094 76.4476 20.1094 78.3628C20.1094 80.278 21.6764 81.8305 23.6094 81.8305C25.5424 81.8305 27.1094 80.278 27.1094 78.3628C27.1094 76.4476 25.5424 74.895 23.6094 74.895ZM23.6094 75.8864C24.9901 75.8864 26.1094 76.9954 26.1094 78.3634C26.1094 79.7314 24.9901 80.8404 23.6094 80.8404C22.2287 80.8404 21.1094 79.7314 21.1094 78.3634C21.1094 76.9954 22.2287 75.8864 23.6094 75.8864Z" fill="#FE664B"/>
<path fill-rule="evenodd" clip-rule="evenodd" d="M135.743 144.413C136.001 144.413 136.262 144.314 136.457 144.116C136.848 143.723 136.848 143.081 136.453 142.69L134.156 140.404C133.763 140.015 133.124 140.011 132.731 140.408C132.34 140.802 132.34 141.443 132.735 141.835L135.032 144.12C135.229 144.314 135.485 144.413 135.743 144.413Z" fill="#FE664B"/>
<path fill-rule="evenodd" clip-rule="evenodd" d="M130.316 139.221C130.574 139.221 130.834 139.122 131.029 138.924C131.421 138.531 131.421 137.892 131.025 137.498L127.158 133.645C126.765 133.256 126.126 133.252 125.732 133.649C125.341 134.042 125.341 134.682 125.736 135.075L129.604 138.928C129.801 139.122 130.058 139.221 130.316 139.221Z" fill="#FE664B"/>
<path fill-rule="evenodd" clip-rule="evenodd" d="M3.46302 130.163C3.46302 129.735 3.80972 129.389 4.2374 129.389C4.66508 129.389 5.01178 129.735 5.01178 130.163V132.458H7.34161C7.76564 132.458 8.10938 132.801 8.10938 133.226C8.10938 133.65 7.76564 133.993 7.34161 133.993H5.01178V136.287C5.01178 136.715 4.66508 137.061 4.2374 137.061C3.80972 137.061 3.46302 136.715 3.46302 136.287V133.993H1.13318C0.709156 133.993 0.365417 133.65 0.365417 133.226C0.365417 132.801 0.709156 132.458 1.13318 132.458H3.46302V130.163Z" fill="#FE664B"/>
<path fill-rule="evenodd" clip-rule="evenodd" d="M127.734 94.7108C124.214 94.7108 121.359 97.5387 121.359 101.027C121.359 104.516 124.214 107.343 127.734 107.343C131.255 107.343 134.109 104.516 134.109 101.027C134.109 97.5387 131.255 94.7108 127.734 94.7108ZM127.734 96.5155C130.249 96.5155 132.288 98.5354 132.288 101.027C132.288 103.519 130.249 105.539 127.734 105.539C125.22 105.539 123.181 103.519 123.181 101.027C123.181 98.5354 125.22 96.5155 127.734 96.5155Z" fill="#FE664B"/>
<path d="M58.8333 121.462H55.1666V101.481C55.1666 100.478 54.3458 99.6647 53.3333 99.6647H20.3333C19.3209 99.6647 18.5 100.478 18.5 101.481V121.462H14.8333C13.8209 121.462 13 122.275 13 123.279C13.006 128.292 17.1067 132.355 22.1667 132.361H51.5C56.56 132.355 60.6607 128.292 60.6666 123.279C60.6666 122.275 59.8458 121.462 58.8333 121.462ZM22.1667 103.298H51.5V121.462H49.6666V106.93C49.6666 105.927 48.8458 105.114 47.8333 105.114H25.8333C24.8209 105.114 24 105.927 24 106.93V121.462H22.1667V103.298ZM46 108.747V121.462H27.6667V108.747H46ZM51.5 128.728H22.1667C19.8365 128.725 17.76 127.271 16.9802 125.095H56.6865C55.9066 127.271 53.8301 128.725 51.5 128.728Z" fill="black"/>
<path d="M58.8333 121.462H55.1666V101.481C55.1666 100.478 54.3458 99.6647 53.3333 99.6647H20.3333C19.3209 99.6647 18.5 100.478 18.5 101.481V121.462H14.8333C13.8209 121.462 13 122.275 13 123.279C13.006 128.292 17.1067 132.355 22.1667 132.361H51.5C56.56 132.355 60.6607 128.292 60.6666 123.279C60.6666 122.275 59.8458 121.462 58.8333 121.462ZM22.1667 103.298H51.5V121.462H49.6666V106.93C49.6666 105.927 48.8458 105.114 47.8333 105.114H25.8333C24.8209 105.114 24 105.927 24 106.93V121.462H22.1667V103.298ZM46 108.747V121.462H27.6667V108.747H46ZM51.5 128.728H22.1667C19.8365 128.725 17.76 127.271 16.9802 125.095H56.6865C55.9066 127.271 53.8301 128.725 51.5 128.728Z" fill="url(#paint0_linear)"/>
<path d="M58.8333 45.1712H55.1666V25.1902C55.1666 24.1871 54.3458 23.3738 53.3333 23.3738H20.3333C19.3209 23.3738 18.5 24.1871 18.5 25.1902V45.1712H14.8333C13.8209 45.1712 13 45.9845 13 46.9876C13.006 52.001 17.1067 56.064 22.1667 56.0699H51.5C56.56 56.064 60.6607 52.001 60.6666 46.9876C60.6666 45.9845 59.8458 45.1712 58.8333 45.1712ZM22.1667 27.0067H51.5V45.1712H49.6666V30.6396C49.6666 29.6364 48.8458 28.8231 47.8333 28.8231H25.8333C24.8209 28.8231 24 29.6364 24 30.6396V45.1712H22.1667V27.0067ZM46 32.456V45.1712H27.6667V32.456H46ZM51.5 52.437H22.1667C19.8365 52.4342 17.76 50.9797 16.9802 48.8041H56.6865C55.9066 50.9797 53.8301 52.4342 51.5 52.437Z" fill="black"/>
<path d="M58.8333 45.1712H55.1666V25.1902C55.1666 24.1871 54.3458 23.3738 53.3333 23.3738H20.3333C19.3209 23.3738 18.5 24.1871 18.5 25.1902V45.1712H14.8333C13.8209 45.1712 13 45.9845 13 46.9876C13.006 52.001 17.1067 56.064 22.1667 56.0699H51.5C56.56 56.064 60.6607 52.001 60.6666 46.9876C60.6666 45.9845 59.8458 45.1712 58.8333 45.1712ZM22.1667 27.0067H51.5V45.1712H49.6666V30.6396C49.6666 29.6364 48.8458 28.8231 47.8333 28.8231H25.8333C24.8209 28.8231 24 29.6364 24 30.6396V45.1712H22.1667V27.0067ZM46 32.456V45.1712H27.6667V32.456H46ZM51.5 52.437H22.1667C19.8365 52.4342 17.76 50.9797 16.9802 48.8041H56.6865C55.9066 50.9797 53.8301 52.4342 51.5 52.437Z" fill="url(#paint1_linear)"/>
<path d="M121.167 121.462H117.501V101.481C117.501 100.478 116.68 99.6647 115.667 99.6647H82.6673C81.6549 99.6647 80.834 100.478 80.834 101.481V121.462H77.1673C76.1549 121.462 75.334 122.275 75.334 123.279C75.3399 128.292 79.4406 132.355 84.5006 132.361H113.834C118.894 132.355 122.995 128.292 123.001 123.279C123.001 122.275 122.18 121.462 121.167 121.462ZM84.5006 103.298H113.834V121.462H112.001V106.93C112.001 105.927 111.18 105.114 110.167 105.114H88.1673C87.1549 105.114 86.334 105.927 86.334 106.93V121.462H84.5006V103.298ZM108.334 108.747V121.462H90.0006V108.747H108.334ZM113.834 128.728H84.5006C82.1705 128.725 80.094 127.271 79.3142 125.095H119.02C118.241 127.271 116.164 128.725 113.834 128.728Z" fill="black"/>
<path d="M121.167 121.462H117.501V101.481C117.501 100.478 116.68 99.6647 115.667 99.6647H82.6673C81.6549 99.6647 80.834 100.478 80.834 101.481V121.462H77.1673C76.1549 121.462 75.334 122.275 75.334 123.279C75.3399 128.292 79.4406 132.355 84.5006 132.361H113.834C118.894 132.355 122.995 128.292 123.001 123.279C123.001 122.275 122.18 121.462 121.167 121.462ZM84.5006 103.298H113.834V121.462H112.001V106.93C112.001 105.927 111.18 105.114 110.167 105.114H88.1673C87.1549 105.114 86.334 105.927 86.334 106.93V121.462H84.5006V103.298ZM108.334 108.747V121.462H90.0006V108.747H108.334ZM113.834 128.728H84.5006C82.1705 128.725 80.094 127.271 79.3142 125.095H119.02C118.241 127.271 116.164 128.725 113.834 128.728Z" fill="url(#paint2_linear)"/>
<path d="M121.167 45.1712H117.501V25.1902C117.501 24.1871 116.68 23.3738 115.667 23.3738H82.6673C81.6549 23.3738 80.834 24.1871 80.834 25.1902V45.1712H77.1673C76.1549 45.1712 75.334 45.9845 75.334 46.9876C75.3399 52.001 79.4406 56.064 84.5006 56.0699H113.834C118.894 56.064 122.995 52.001 123.001 46.9876C123.001 45.9845 122.18 45.1712 121.167 45.1712ZM84.5006 27.0067H113.834V45.1712H112.001V30.6396C112.001 29.6364 111.18 28.8231 110.167 28.8231H88.1673C87.1549 28.8231 86.334 29.6364 86.334 30.6396V45.1712H84.5006V27.0067ZM108.334 32.456V45.1712H90.0006V32.456H108.334ZM113.834 52.437H84.5006C82.1705 52.4342 80.094 50.9797 79.3142 48.8041H119.02C118.241 50.9797 116.164 52.4342 113.834 52.437Z" fill="black"/>
<path d="M121.167 45.1712H117.501V25.1902C117.501 24.1871 116.68 23.3738 115.667 23.3738H82.6673C81.6549 23.3738 80.834 24.1871 80.834 25.1902V45.1712H77.1673C76.1549 45.1712 75.334 45.9845 75.334 46.9876C75.3399 52.001 79.4406 56.064 84.5006 56.0699H113.834C118.894 56.064 122.995 52.001 123.001 46.9876C123.001 45.9845 122.18 45.1712 121.167 45.1712ZM84.5006 27.0067H113.834V45.1712H112.001V30.6396C112.001 29.6364 111.18 28.8231 110.167 28.8231H88.1673C87.1549 28.8231 86.334 29.6364 86.334 30.6396V45.1712H84.5006V27.0067ZM108.334 32.456V45.1712H90.0006V32.456H108.334ZM113.834 52.437H84.5006C82.1705 52.4342 80.094 50.9797 79.3142 48.8041H119.02C118.241 50.9797 116.164 52.4342 113.834 52.437Z" fill="url(#paint3_linear)"/>
<path d="M86.3339 81.5002H81.6772C85.7438 77.0406 85.3918 70.1592 80.8907 66.1301C76.3897 62.101 69.4444 62.4497 65.3778 66.9093C65.3599 66.9291 65.3418 66.9488 65.3242 66.9686H49.6673C48.6549 66.9686 47.834 67.7819 47.834 68.785V90.5825C47.834 91.5856 48.6549 92.3989 49.6673 92.3989H86.3339C87.3464 92.3989 88.1672 91.5856 88.1672 90.5825V83.3167C88.1672 82.3135 87.3464 81.5002 86.3339 81.5002ZM51.5006 70.6015H63.1423C62.7209 71.7674 62.5038 72.996 62.5006 74.2344H51.5006V70.6015ZM51.5006 77.8673H63.1423C63.6235 79.2076 64.3647 80.4417 65.324 81.5002H51.5006V77.8673ZM66.1673 88.766H51.5006V85.1331H66.1673V88.766ZM66.1673 74.2344C66.1673 70.2216 69.4505 66.9686 73.5006 66.9686C77.5507 66.9686 80.8339 70.2216 80.8339 74.2344C80.8339 78.2472 77.5507 81.5002 73.5006 81.5002C69.4505 81.5002 66.1673 78.2472 66.1673 74.2344ZM84.5006 88.766H69.8339V85.1331H84.5006V88.766Z" fill="black"/>
<path d="M86.3339 81.5002H81.6772C85.7438 77.0406 85.3918 70.1592 80.8907 66.1301C76.3897 62.101 69.4444 62.4497 65.3778 66.9093C65.3599 66.9291 65.3418 66.9488 65.3242 66.9686H49.6673C48.6549 66.9686 47.834 67.7819 47.834 68.785V90.5825C47.834 91.5856 48.6549 92.3989 49.6673 92.3989H86.3339C87.3464 92.3989 88.1672 91.5856 88.1672 90.5825V83.3167C88.1672 82.3135 87.3464 81.5002 86.3339 81.5002ZM51.5006 70.6015H63.1423C62.7209 71.7674 62.5038 72.996 62.5006 74.2344H51.5006V70.6015ZM51.5006 77.8673H63.1423C63.6235 79.2076 64.3647 80.4417 65.324 81.5002H51.5006V77.8673ZM66.1673 88.766H51.5006V85.1331H66.1673V88.766ZM66.1673 74.2344C66.1673 70.2216 69.4505 66.9686 73.5006 66.9686C77.5507 66.9686 80.8339 70.2216 80.8339 74.2344C80.8339 78.2472 77.5507 81.5002 73.5006 81.5002C69.4505 81.5002 66.1673 78.2472 66.1673 74.2344ZM84.5006 88.766H69.8339V85.1331H84.5006V88.766Z" fill="url(#paint4_linear)"/>
<path d="M62.5006 32.4561H58.834V36.0889H62.5006V32.4561Z" fill="black"/>
<path d="M62.5006 32.4561H58.834V36.0889H62.5006V32.4561Z" fill="url(#paint5_linear)"/>
<path d="M77.1667 32.4561H73.5V36.0889H77.1667V32.4561Z" fill="black"/>
<path d="M77.1667 32.4561H73.5V36.0889H77.1667V32.4561Z" fill="url(#paint6_linear)"/>
<path d="M69.8326 32.4561H66.166V36.0889H69.8326V32.4561Z" fill="black"/>
<path d="M69.8326 32.4561H66.166V36.0889H69.8326V32.4561Z" fill="url(#paint7_linear)"/>
<path d="M36.8327 61.5192H33.166V65.1521H36.8327V61.5192Z" fill="black"/>
<path d="M36.8327 61.5192H33.166V65.1521H36.8327V61.5192Z" fill="url(#paint8_linear)"/>
<path d="M36.8327 68.7849H33.166V72.4178H36.8327V68.7849Z" fill="black"/>
<path d="M36.8327 68.7849H33.166V72.4178H36.8327V68.7849Z" fill="url(#paint9_linear)"/>
<path d="M36.8327 90.5824H33.166V94.2153H36.8327V90.5824Z" fill="black"/>
<path d="M36.8327 90.5824H33.166V94.2153H36.8327V90.5824Z" fill="url(#paint10_linear)"/>
<path d="M36.8327 76.0508H33.166V79.6837H36.8327V76.0508Z" fill="black"/>
<path d="M36.8327 76.0508H33.166V79.6837H36.8327V76.0508Z" fill="url(#paint11_linear)"/>
<path d="M36.8327 83.3165H33.166V86.9494H36.8327V83.3165Z" fill="black"/>
<path d="M36.8327 83.3165H33.166V86.9494H36.8327V83.3165Z" fill="url(#paint12_linear)"/>
<path d="M62.5006 108.747H58.834V112.38H62.5006V108.747Z" fill="black"/>
<path d="M62.5006 108.747H58.834V112.38H62.5006V108.747Z" fill="url(#paint13_linear)"/>
<path d="M69.8326 108.747H66.166V112.38H69.8326V108.747Z" fill="black"/>
<path d="M69.8326 108.747H66.166V112.38H69.8326V108.747Z" fill="url(#paint14_linear)"/>
<path d="M77.1667 108.747H73.5V112.38H77.1667V108.747Z" fill="black"/>
<path d="M77.1667 108.747H73.5V112.38H77.1667V108.747Z" fill="url(#paint15_linear)"/>
<path d="M101.001 83.3165H97.334V86.9494H101.001V83.3165Z" fill="black"/>
<path d="M101.001 83.3165H97.334V86.9494H101.001V83.3165Z" fill="url(#paint16_linear)"/>
<path d="M101.001 76.0508H97.334V79.6837H101.001V76.0508Z" fill="black"/>
<path d="M101.001 76.0508H97.334V79.6837H101.001V76.0508Z" fill="url(#paint17_linear)"/>
<path d="M101.001 68.7849H97.334V72.4178H101.001V68.7849Z" fill="black"/>
<path d="M101.001 68.7849H97.334V72.4178H101.001V68.7849Z" fill="url(#paint18_linear)"/>
<path d="M101.001 61.5192H97.334V65.1521H101.001V61.5192Z" fill="black"/>
<path d="M101.001 61.5192H97.334V65.1521H101.001V61.5192Z" fill="url(#paint19_linear)"/>
<path d="M101.001 90.5824H97.334V94.2153H101.001V90.5824Z" fill="black"/>
<path d="M101.001 90.5824H97.334V94.2153H101.001V90.5824Z" fill="url(#paint20_linear)"/>
<defs>
<linearGradient id="paint0_linear" x1="10.14" y1="121.079" x2="65.91" y2="121.079" gradientUnits="userSpaceOnUse">
<stop stop-color="#8363F9"/>
<stop offset="1" stop-color="#485BBD"/>
</linearGradient>
<linearGradient id="paint1_linear" x1="10.14" y1="44.7876" x2="65.91" y2="44.7876" gradientUnits="userSpaceOnUse">
<stop stop-color="#8363F9"/>
<stop offset="1" stop-color="#485BBD"/>
</linearGradient>
<linearGradient id="paint2_linear" x1="72.474" y1="121.079" x2="128.244" y2="121.079" gradientUnits="userSpaceOnUse">
<stop stop-color="#8363F9"/>
<stop offset="1" stop-color="#485BBD"/>
</linearGradient>
<linearGradient id="paint3_linear" x1="72.474" y1="44.7876" x2="128.244" y2="44.7876" gradientUnits="userSpaceOnUse">
<stop stop-color="#8363F9"/>
<stop offset="1" stop-color="#485BBD"/>
</linearGradient>
<linearGradient id="paint4_linear" x1="45.414" y1="82.3656" x2="92.6039" y2="82.3656" gradientUnits="userSpaceOnUse">
<stop stop-color="#8363F9"/>
<stop offset="1" stop-color="#485BBD"/>
</linearGradient>
<linearGradient id="paint5_linear" x1="58.614" y1="34.8354" x2="62.9039" y2="34.8354" gradientUnits="userSpaceOnUse">
<stop stop-color="#8363F9"/>
<stop offset="1" stop-color="#485BBD"/>
</linearGradient>
<linearGradient id="paint6_linear" x1="73.28" y1="34.8354" x2="77.5701" y2="34.8354" gradientUnits="userSpaceOnUse">
<stop stop-color="#8363F9"/>
<stop offset="1" stop-color="#485BBD"/>
</linearGradient>
<linearGradient id="paint7_linear" x1="65.946" y1="34.8354" x2="70.236" y2="34.8354" gradientUnits="userSpaceOnUse">
<stop stop-color="#8363F9"/>
<stop offset="1" stop-color="#485BBD"/>
</linearGradient>
<linearGradient id="paint8_linear" x1="32.946" y1="63.8985" x2="37.236" y2="63.8985" gradientUnits="userSpaceOnUse">
<stop stop-color="#8363F9"/>
<stop offset="1" stop-color="#485BBD"/>
</linearGradient>
<linearGradient id="paint9_linear" x1="32.946" y1="71.1642" x2="37.236" y2="71.1642" gradientUnits="userSpaceOnUse">
<stop stop-color="#8363F9"/>
<stop offset="1" stop-color="#485BBD"/>
</linearGradient>
<linearGradient id="paint10_linear" x1="32.946" y1="92.9617" x2="37.236" y2="92.9617" gradientUnits="userSpaceOnUse">
<stop stop-color="#8363F9"/>
<stop offset="1" stop-color="#485BBD"/>
</linearGradient>
<linearGradient id="paint11_linear" x1="32.946" y1="78.4301" x2="37.236" y2="78.4301" gradientUnits="userSpaceOnUse">
<stop stop-color="#8363F9"/>
<stop offset="1" stop-color="#485BBD"/>
</linearGradient>
<linearGradient id="paint12_linear" x1="32.946" y1="85.6958" x2="37.236" y2="85.6958" gradientUnits="userSpaceOnUse">
<stop stop-color="#8363F9"/>
<stop offset="1" stop-color="#485BBD"/>
</linearGradient>
<linearGradient id="paint13_linear" x1="58.614" y1="111.126" x2="62.9039" y2="111.126" gradientUnits="userSpaceOnUse">
<stop stop-color="#8363F9"/>
<stop offset="1" stop-color="#485BBD"/>
</linearGradient>
<linearGradient id="paint14_linear" x1="65.946" y1="111.126" x2="70.236" y2="111.126" gradientUnits="userSpaceOnUse">
<stop stop-color="#8363F9"/>
<stop offset="1" stop-color="#485BBD"/>
</linearGradient>
<linearGradient id="paint15_linear" x1="73.28" y1="111.126" x2="77.5701" y2="111.126" gradientUnits="userSpaceOnUse">
<stop stop-color="#8363F9"/>
<stop offset="1" stop-color="#485BBD"/>
</linearGradient>
<linearGradient id="paint16_linear" x1="97.114" y1="85.6958" x2="101.404" y2="85.6958" gradientUnits="userSpaceOnUse">
<stop stop-color="#8363F9"/>
<stop offset="1" stop-color="#485BBD"/>
</linearGradient>
<linearGradient id="paint17_linear" x1="97.114" y1="78.4301" x2="101.404" y2="78.4301" gradientUnits="userSpaceOnUse">
<stop stop-color="#8363F9"/>
<stop offset="1" stop-color="#485BBD"/>
</linearGradient>
<linearGradient id="paint18_linear" x1="97.114" y1="71.1642" x2="101.404" y2="71.1642" gradientUnits="userSpaceOnUse">
<stop stop-color="#8363F9"/>
<stop offset="1" stop-color="#485BBD"/>
</linearGradient>
<linearGradient id="paint19_linear" x1="97.114" y1="63.8985" x2="101.404" y2="63.8985" gradientUnits="userSpaceOnUse">
<stop stop-color="#8363F9"/>
<stop offset="1" stop-color="#485BBD"/>
</linearGradient>
<linearGradient id="paint20_linear" x1="97.114" y1="92.9617" x2="101.404" y2="92.9617" gradientUnits="userSpaceOnUse">
<stop stop-color="#8363F9"/>
<stop offset="1" stop-color="#485BBD"/>
</linearGradient>
</defs>
</svg>
