<svg width="135" height="117" viewBox="0 0 135 117" fill="none" xmlns="http://www.w3.org/2000/svg">
 <title>[icon] What are we working on? Bigger companies.</title>
  <path
    d="M29.0264 79.2771V100.177C29.0264 101.62 30.2071 102.789 31.6631 102.789H52.7571C54.2134 102.789 55.3938 101.62 55.3938 100.177V79.2771C55.3938 77.8343 54.2131 76.6647 52.7571 76.6647H31.6631C30.2071 76.6647 29.0264 77.8343 29.0264 79.2771ZM44.8467 81.8895H50.1204V87.1144H44.8467V81.8895ZM44.8467 92.3393H50.1204V97.5644H44.8467V92.3393ZM34.2998 81.8895H39.5732V87.1144H34.2998V81.8895ZM34.2998 92.3393H39.5732V97.5644H34.2998V92.3393Z"
    fill="url(#paint0_linear)"/>
  <path
    d="M132.363 50.3759H95.4278V27.0312L97.0499 27.9591C98.3116 28.6804 99.9234 28.2525 100.652 27.0029C101.38 25.7534 100.948 24.1556 99.6866 23.4343L60.1145 0.797544C59.2987 0.330701 58.2936 0.330962 57.4778 0.797544L17.9048 23.4343C16.6437 24.1556 16.2115 25.7534 16.9398 27.0029C17.4284 27.841 18.3143 28.3097 19.2258 28.3094C19.673 28.3094 20.1265 28.1966 20.5416 27.9591L22.166 27.0298V61.4373L1.31882 73.3631C0.0576788 74.0844 -0.374479 75.6824 0.353782 76.9316C1.08204 78.1812 2.69466 78.6096 3.95554 77.8878L5.57923 76.9588V114.381C5.57923 115.824 6.75995 116.994 8.21595 116.994H76.2043H126.785C128.241 116.994 129.422 115.824 129.422 114.381V78.2381H132.363C133.819 78.2381 135 77.0685 135 75.6257V52.9884C135 51.5455 133.819 50.3759 132.363 50.3759ZM103.36 55.6008H113.907V73.0132H103.36V55.6008ZM98.0866 55.6008V73.0132H87.54V55.6008H98.0866ZM27.4395 43.6818H35.6223C37.0783 43.6818 38.259 42.5122 38.259 41.0694C38.259 39.6265 37.0783 38.4569 35.6223 38.4569H27.4395V24.0133L58.7961 6.0765L90.1543 24.0146V50.3759H42.2093C42.1028 50.3759 41.9984 50.384 41.8953 50.3963C41.8686 50.3994 41.8425 50.4041 41.8162 50.4081C41.7347 50.4201 41.6551 50.4357 41.5762 50.4548C41.5504 50.4611 41.5251 50.4674 41.4995 50.4744C41.4041 50.5008 41.3102 50.5314 41.2192 50.5679C41.2134 50.5703 41.2074 50.5719 41.2018 50.5742C41.1016 50.6155 41.0051 50.663 40.9115 50.7158C40.9049 50.7195 40.8975 50.7218 40.8909 50.7257L27.4395 58.4207V43.6818ZM66.4468 55.6008V63.8365L52.0495 55.6008H66.4468ZM73.5675 111.769H10.8527V73.9425L42.2093 56.005L73.5675 73.9433V111.769ZM71.7203 66.8531V55.6008H82.2666V72.8863L71.7203 66.8531ZM124.149 111.769H78.841V106.629H124.149V111.769ZM124.149 101.404H78.841V76.9596L80.4639 77.8881C80.4705 77.892 80.4776 77.8941 80.4842 77.898C80.5778 77.9508 80.6748 77.9986 80.775 78.0398C80.7869 78.0448 80.799 78.0482 80.8109 78.0526C80.8947 78.0858 80.9807 78.114 81.0685 78.1386C81.1001 78.1475 81.1318 78.1553 81.1637 78.1629C81.2333 78.1796 81.3037 78.1929 81.3754 78.2039C81.4094 78.2091 81.4434 78.2154 81.4777 78.2193C81.5644 78.2292 81.6528 78.235 81.7422 78.236C81.7548 78.2363 81.7675 78.2384 81.7799 78.2384C81.782 78.2384 81.7838 78.2381 81.7857 78.2381H124.149V83.1963H113.329C111.873 83.1963 110.692 84.3659 110.692 85.8087C110.692 87.2516 111.873 88.4212 113.329 88.4212H124.149V101.404ZM129.726 73.0132H119.18V55.6008H129.726V73.0132Z"
    fill="url(#paint1_linear)"/>
  <path
    d="M52.8633 43.6818H64.7285C66.1845 43.6818 67.3652 42.5122 67.3652 41.0694V25.9661C67.3652 24.5232 66.1845 23.3536 64.7285 23.3536H52.8633C51.4073 23.3536 50.2266 24.5232 50.2266 25.9661V41.0694C50.2266 42.5122 51.4073 43.6818 52.8633 43.6818ZM55.5 28.5788H62.0918V38.4572H55.5V28.5788Z"
    fill="url(#paint2_linear)"/>
  <path
    d="M105.754 83.1964H105.691C104.235 83.1964 103.055 84.366 103.055 85.8088C103.055 87.2517 104.235 88.4213 105.691 88.4213H105.754C107.21 88.4213 108.39 87.2517 108.39 85.8088C108.39 84.366 107.21 83.1964 105.754 83.1964Z"
    fill="url(#paint3_linear)"/>
  <path
    d="M43.1983 43.6818H43.2602C44.7162 43.6818 45.8969 42.5122 45.8969 41.0693C45.8969 39.6265 44.7162 38.4569 43.2602 38.4569H43.1983C41.7423 38.4569 40.5615 39.6265 40.5615 41.0693C40.5615 42.5122 41.742 43.6818 43.1983 43.6818Z"
    fill="url(#paint4_linear)"/>
  <defs>
    <linearGradient id="paint0_linear" x1="27.4443" y1="93.7746" x2="58.2943" y2="93.7746"
                    gradientUnits="userSpaceOnUse">
      <stop stop-color="#8363F9"/>
      <stop offset="1" stop-color="#485BBD"/>
    </linearGradient>
    <linearGradient id="paint1_linear" x1="-8.1" y1="76.7778" x2="149.85" y2="76.7778" gradientUnits="userSpaceOnUse">
      <stop stop-color="#8363F9"/>
      <stop offset="1" stop-color="#485BBD"/>
    </linearGradient>
    <linearGradient id="paint2_linear" x1="49.1982" y1="36.6673" x2="69.2505" y2="36.6673"
                    gradientUnits="userSpaceOnUse">
      <stop stop-color="#8363F9"/>
      <stop offset="1" stop-color="#485BBD"/>
    </linearGradient>
    <linearGradient id="paint3_linear" x1="102.735" y1="86.6184" x2="108.977" y2="86.6184"
                    gradientUnits="userSpaceOnUse">
      <stop stop-color="#8363F9"/>
      <stop offset="1" stop-color="#485BBD"/>
    </linearGradient>
    <linearGradient id="paint4_linear" x1="40.2414" y1="41.8788" x2="46.4838" y2="41.8788"
                    gradientUnits="userSpaceOnUse">
      <stop stop-color="#8363F9"/>
      <stop offset="1" stop-color="#485BBD"/>
    </linearGradient>
  </defs>
</svg>
