<svg width="152" height="147" viewBox="0 0 152 147" fill="none" xmlns="http://www.w3.org/2000/svg">
  <title>[icon] Bigger companies</title>

  <path fill-rule="evenodd" clip-rule="evenodd"
        d="M125.65 33.7195L121.442 37.8323C120.86 38.406 120.851 39.3433 121.425 39.9229C121.713 40.2181 122.095 40.3658 122.482 40.3658C122.856 40.3658 123.234 40.2281 123.525 39.9457L127.733 35.8339C128.316 35.2592 128.325 34.3219 127.751 33.7423C127.463 33.4471 127.079 33.3004 126.693 33.3004C126.317 33.3004 125.94 33.4401 125.65 33.7195Z"
        fill="#FE664B"/>
  <path fill-rule="evenodd" clip-rule="evenodd"
        d="M123.331 18.8695L110.434 31.728C109.855 32.3046 109.855 33.2419 110.434 33.8186C110.726 34.1059 111.106 34.2496 111.486 34.2496C111.867 34.2496 112.247 34.1059 112.535 33.8186L125.433 20.961C126.011 20.3844 126.011 19.4471 125.433 18.8695C125.142 18.5821 124.762 18.4385 124.381 18.4385C124.001 18.4385 123.621 18.5821 123.331 18.8695Z"
        fill="#FE664B"/>
  <path fill-rule="evenodd" clip-rule="evenodd"
        d="M63.865 1.3945C63.865 0.95799 64.2188 0.604126 64.6553 0.604126C65.0918 0.604126 65.4457 0.957989 65.4457 1.3945V4.13233L67.2245 2.0306C67.5055 1.69868 68.0042 1.65504 68.3385 1.93315C68.6728 2.21125 68.7161 2.70578 68.4351 3.03771L66.6589 5.13641L69.3889 4.65946C69.8154 4.58496 70.2225 4.87006 70.2984 5.29625C70.3742 5.72244 70.09 6.12833 69.6636 6.20283L66.9321 6.68004L69.331 8.05228C69.7074 8.26763 69.8356 8.74598 69.6172 9.12071C69.3989 9.49544 68.9167 9.62464 68.5402 9.40929L66.1418 8.03731L67.0861 10.6079C67.2364 11.0172 67.0258 11.4689 66.6156 11.6169C66.2054 11.7648 65.751 11.5529 65.6007 11.1436L64.6556 8.57105L63.7106 11.1435C63.5603 11.5528 63.1059 11.7647 62.6957 11.6167C62.2855 11.4688 62.0749 11.0171 62.2252 10.6078L63.1701 8.03557L60.7695 9.40882C60.393 9.62418 59.9108 9.49497 59.6924 9.12024C59.4741 8.74551 59.6022 8.26716 59.9787 8.05181L62.3784 6.67911L59.647 6.20192C59.2206 6.12742 58.9364 5.72153 59.0123 5.29533C59.0881 4.86914 59.4953 4.58403 59.9217 4.65853L62.6526 5.13563L60.875 3.03668C60.594 2.70483 60.6372 2.21046 60.9716 1.93246C61.306 1.65446 61.8049 1.6981 62.0859 2.02994L63.865 4.13058V1.3945ZM64.2563 5.19476C64.2108 5.32184 64.1316 5.4389 64.0199 5.53179C63.9089 5.62406 63.7798 5.6809 63.6465 5.70353C63.6931 5.82951 63.7078 5.96926 63.6826 6.11126C63.6573 6.25311 63.5954 6.37932 63.5082 6.48185C63.6256 6.54852 63.7274 6.64598 63.8 6.77058C63.873 6.89582 63.9073 7.03263 63.9065 7.16733C64.0399 7.1429 64.1812 7.15229 64.3176 7.20149C64.4546 7.25087 64.5693 7.3341 64.6557 7.43831C64.7421 7.33416 64.8568 7.25098 64.9937 7.20162C65.1295 7.15262 65.2702 7.1431 65.4032 7.16716C65.4025 7.03267 65.4368 6.89609 65.5097 6.77105C65.5823 6.6463 65.6843 6.54876 65.8018 6.48208C65.715 6.37967 65.6533 6.2537 65.6281 6.11217C65.6029 5.97041 65.6175 5.8309 65.6639 5.70509C65.5309 5.68236 65.4021 5.62554 65.2914 5.5334C65.1792 5.4401 65.0998 5.32243 65.0544 5.19471C64.9373 5.26337 64.8009 5.30273 64.6553 5.30273C64.5098 5.30273 64.3734 5.26339 64.2563 5.19476Z"
        fill="#FE664B"/>
  <path fill-rule="evenodd" clip-rule="evenodd"
        d="M19.5 60.0518C21.433 60.0518 23 61.6043 23 63.5195C23 65.4347 21.433 66.9873 19.5 66.9873C17.567 66.9873 16 65.4347 16 63.5195C16 61.6043 17.567 60.0518 19.5 60.0518ZM19.5 61.0432C18.1193 61.0432 17 62.1522 17 63.5202C17 64.8882 18.1193 65.9972 19.5 65.9972C20.8807 65.9972 22 64.8882 22 63.5202C22 62.1522 20.8807 61.0432 19.5 61.0432Z"
        fill="#FE664B"/>
  <path fill-rule="evenodd" clip-rule="evenodd"
        d="M1.36604 146.413C1.10795 146.413 0.84784 146.314 0.652245 146.116C0.261081 145.723 0.261081 145.081 0.656285 144.69L2.9529 142.404C3.3461 142.015 3.98526 142.011 4.37846 142.408C4.76962 142.802 4.76962 143.443 4.37442 143.835L2.0778 146.12C1.8802 146.314 1.62412 146.413 1.36604 146.413Z"
        fill="#FE664B"/>
  <path fill-rule="evenodd" clip-rule="evenodd"
        d="M6.79377 141.221C6.53569 141.221 6.27557 141.122 6.07998 140.925C5.68882 140.531 5.68882 139.892 6.08402 139.498L9.95137 135.645C10.3446 135.256 10.9837 135.252 11.3769 135.649C11.7681 136.043 11.7681 136.682 11.3729 137.075L7.50553 140.929C7.30793 141.122 7.05186 141.221 6.79377 141.221Z"
        fill="#FE664B"/>
  <path fill-rule="evenodd" clip-rule="evenodd"
        d="M141.646 136.126C141.646 135.699 141.3 135.352 140.872 135.352C140.444 135.352 140.098 135.699 140.098 136.126V138.421H137.768C137.344 138.421 137 138.765 137 139.189C137 139.613 137.344 139.957 137.768 139.957H140.098V142.25C140.098 142.678 140.444 143.025 140.872 143.025C141.3 143.025 141.646 142.678 141.646 142.25V139.957H143.976C144.4 139.957 144.744 139.613 144.744 139.189C144.744 138.765 144.4 138.421 143.976 138.421H141.646V136.126Z"
        fill="#FE664B"/>
  <path fill-rule="evenodd" clip-rule="evenodd"
        d="M145.375 96.7109C148.896 96.7109 151.75 99.5388 151.75 103.027C151.75 106.516 148.896 109.344 145.375 109.344C141.854 109.344 139 106.516 139 103.027C139 99.5388 141.854 96.7109 145.375 96.7109ZM145.375 98.5156C142.86 98.5156 140.821 100.536 140.821 103.027C140.821 105.519 142.86 107.539 145.375 107.539C147.89 107.539 149.928 105.519 149.928 103.027C149.928 100.536 147.89 98.5156 145.375 98.5156Z"
        fill="#FE664B"/>
  <path
    d="M35.0264 96.2771V117.177C35.0264 118.62 36.2071 119.789 37.6631 119.789H58.7571C60.2134 119.789 61.3938 118.62 61.3938 117.177V96.2771C61.3938 94.8343 60.2131 93.6647 58.7571 93.6647H37.6631C36.2071 93.6647 35.0264 94.8343 35.0264 96.2771ZM50.8467 98.8895H56.1204V104.114H50.8467V98.8895ZM50.8467 109.339H56.1204V114.564H50.8467V109.339ZM40.2998 98.8895H45.5732V104.114H40.2998V98.8895ZM40.2998 109.339H45.5732V114.564H40.2998V109.339Z"
    fill="url(#paint0_linear)"/>
  <path
    d="M138.363 67.3759H101.428V44.0312L103.05 44.9591C104.312 45.6804 105.923 45.2525 106.652 44.0029C107.38 42.7534 106.948 41.1556 105.687 40.4343L66.1145 17.7975C65.2987 17.3307 64.2936 17.331 63.4778 17.7975L23.9048 40.4343C22.6437 41.1556 22.2115 42.7534 22.9398 44.0029C23.4284 44.841 24.3143 45.3097 25.2258 45.3094C25.673 45.3094 26.1265 45.1966 26.5416 44.9591L28.166 44.0298V78.4373L7.31882 90.3631C6.05768 91.0844 5.62552 92.6824 6.35378 93.9316C7.08204 95.1812 8.69466 95.6096 9.95554 94.8878L11.5792 93.9588V131.381C11.5792 132.824 12.76 133.994 14.2159 133.994H82.2043H132.785C134.241 133.994 135.422 132.824 135.422 131.381V95.2381H138.363C139.819 95.2381 141 94.0685 141 92.6257V69.9884C141 68.5455 139.819 67.3759 138.363 67.3759ZM109.36 72.6008H119.907V90.0132H109.36V72.6008ZM104.087 72.6008V90.0132H93.54V72.6008H104.087ZM33.4395 60.6818H41.6223C43.0783 60.6818 44.259 59.5122 44.259 58.0694C44.259 56.6265 43.0783 55.4569 41.6223 55.4569H33.4395V41.0133L64.7961 23.0765L96.1543 41.0146V67.3759H48.2093C48.1028 67.3759 47.9984 67.384 47.8953 67.3963C47.8686 67.3994 47.8425 67.4041 47.8162 67.4081C47.7347 67.4201 47.6551 67.4357 47.5762 67.4548C47.5504 67.4611 47.5251 67.4674 47.4995 67.4744C47.4041 67.5008 47.3102 67.5314 47.2192 67.5679C47.2134 67.5703 47.2074 67.5719 47.2018 67.5742C47.1016 67.6155 47.0051 67.663 46.9115 67.7158C46.9049 67.7195 46.8975 67.7218 46.8909 67.7257L33.4395 75.4207V60.6818ZM72.4468 72.6008V80.8365L58.0495 72.6008H72.4468ZM79.5675 128.769H16.8527V90.9425L48.2093 73.005L79.5675 90.9433V128.769ZM77.7203 83.8531V72.6008H88.2666V89.8863L77.7203 83.8531ZM130.149 128.769H84.841V123.629H130.149V128.769ZM130.149 118.404H84.841V93.9596L86.4639 94.8881C86.4705 94.892 86.4776 94.8941 86.4842 94.898C86.5778 94.9508 86.6748 94.9986 86.775 95.0398C86.7869 95.0448 86.799 95.0482 86.8109 95.0526C86.8947 95.0858 86.9807 95.114 87.0685 95.1386C87.1001 95.1475 87.1318 95.1553 87.1637 95.1629C87.2333 95.1796 87.3037 95.1929 87.3754 95.2039C87.4094 95.2091 87.4434 95.2154 87.4777 95.2193C87.5644 95.2292 87.6528 95.235 87.7422 95.236C87.7548 95.2363 87.7675 95.2384 87.7799 95.2384C87.782 95.2384 87.7838 95.2381 87.7857 95.2381H130.149V100.196H119.329C117.873 100.196 116.692 101.366 116.692 102.809C116.692 104.252 117.873 105.421 119.329 105.421H130.149V118.404ZM135.726 90.0132H125.18V72.6008H135.726V90.0132Z"
    fill="url(#paint1_linear)"/>
  <path
    d="M58.8633 60.6818H70.7285C72.1845 60.6818 73.3652 59.5122 73.3652 58.0694V42.9661C73.3652 41.5232 72.1845 40.3536 70.7285 40.3536H58.8633C57.4073 40.3536 56.2266 41.5232 56.2266 42.9661V58.0694C56.2266 59.5122 57.4073 60.6818 58.8633 60.6818ZM61.5 45.5788H68.0918V55.4572H61.5V45.5788Z"
    fill="url(#paint2_linear)"/>
  <path
    d="M111.754 100.196H111.691C110.235 100.196 109.055 101.366 109.055 102.809C109.055 104.252 110.235 105.421 111.691 105.421H111.754C113.21 105.421 114.39 104.252 114.39 102.809C114.39 101.366 113.21 100.196 111.754 100.196Z"
    fill="url(#paint3_linear)"/>
  <path
    d="M49.1983 60.6818H49.2602C50.7162 60.6818 51.8969 59.5122 51.8969 58.0693C51.8969 56.6265 50.7162 55.4569 49.2602 55.4569H49.1983C47.7423 55.4569 46.5615 56.6265 46.5615 58.0693C46.5615 59.5122 47.742 60.6818 49.1983 60.6818Z"
    fill="url(#paint4_linear)"/>
  <defs>
    <linearGradient id="paint0_linear" x1="33.4443" y1="110.775" x2="64.2943" y2="110.775"
                    gradientUnits="userSpaceOnUse">
      <stop stop-color="#8363F9"/>
      <stop offset="1" stop-color="#485BBD"/>
    </linearGradient>
    <linearGradient id="paint1_linear" x1="-2.1" y1="93.7778" x2="155.85" y2="93.7778" gradientUnits="userSpaceOnUse">
      <stop stop-color="#8363F9"/>
      <stop offset="1" stop-color="#485BBD"/>
    </linearGradient>
    <linearGradient id="paint2_linear" x1="55.1982" y1="53.6673" x2="75.2505" y2="53.6673"
                    gradientUnits="userSpaceOnUse">
      <stop stop-color="#8363F9"/>
      <stop offset="1" stop-color="#485BBD"/>
    </linearGradient>
    <linearGradient id="paint3_linear" x1="108.735" y1="103.618" x2="114.977" y2="103.618"
                    gradientUnits="userSpaceOnUse">
      <stop stop-color="#8363F9"/>
      <stop offset="1" stop-color="#485BBD"/>
    </linearGradient>
    <linearGradient id="paint4_linear" x1="46.2414" y1="58.8788" x2="52.4838" y2="58.8788"
                    gradientUnits="userSpaceOnUse">
      <stop stop-color="#8363F9"/>
      <stop offset="1" stop-color="#485BBD"/>
    </linearGradient>
  </defs>
</svg>
