<svg width="135" height="88" viewBox="0 0 135 88" fill="none" xmlns="http://www.w3.org/2000/svg">
  <title>[icon] What are we working on? Startups.</title>
  <path
    d="M132.886 82.8262H130.49V36.5685L131.576 37.418C131.964 37.7213 132.426 37.8687 132.884 37.8687C133.509 37.8687 134.128 37.5954 134.545 37.0719C135.268 36.1641 135.112 34.8471 134.196 34.1303L91.3569 0.621713C90.5889 0.0211153 89.5052 0.0211153 88.7374 0.621713L72.1773 13.5747H2.11385C0.946579 13.5747 0 14.5123 0 15.669V33.5404C0 34.6969 0.946315 35.6348 2.11385 35.6348H4.50956V82.8262H2.11385C0.946579 82.8262 0 83.7638 0 84.9206C0 86.0771 0.946315 87.015 2.11385 87.015H132.886C134.053 87.015 135 86.0774 135 84.9206C134.999 83.7638 134.053 82.8262 132.886 82.8262ZM4.22744 31.446V17.7632H66.8221L49.3294 31.446H4.22744ZM13.5282 82.8262H8.737V69.1434H13.5282V82.8262ZM22.5468 82.8262H17.7556V69.1434H22.5468V82.8262ZM31.5656 82.8262H26.7745V69.1434H31.5656V82.8262ZM40.5845 82.8262H35.7933V69.1434H40.5845V82.8262ZM49.6031 82.8262H44.8119V69.1434H49.6031V82.8262ZM49.6031 64.9549H8.737V35.6345H45.1009C45.0672 36.1343 45.2106 36.6476 45.5484 37.0719C46.2719 37.9797 47.6008 38.1346 48.5173 37.4178L49.6031 36.5682V64.9549ZM126.263 73.8904H123.867C122.7 73.8904 121.753 74.828 121.753 75.9848C121.753 77.1413 122.699 78.0792 123.867 78.0792H126.263V82.8262H53.8308V78.0792H101.32C102.488 78.0792 103.434 77.1416 103.434 75.9848C103.434 74.8283 102.488 73.8904 101.32 73.8904H53.8308V35.6345H65.2451C66.4124 35.6345 67.3589 34.6969 67.3589 33.5401C67.3589 32.3834 66.4126 31.4458 65.2451 31.4458H56.1521L90.0465 4.93353L123.941 31.446H74.2629C73.0956 31.446 72.1491 32.3836 72.1491 33.5404C72.1491 34.6972 73.0954 35.6348 74.2629 35.6348H126.263V73.8904Z"
    fill="black"/>
  <path
    d="M132.886 82.8262H130.49V36.5685L131.576 37.418C131.964 37.7213 132.426 37.8687 132.884 37.8687C133.509 37.8687 134.128 37.5954 134.545 37.0719C135.268 36.1641 135.112 34.8471 134.196 34.1303L91.3569 0.621713C90.5889 0.0211153 89.5052 0.0211153 88.7374 0.621713L72.1773 13.5747H2.11385C0.946579 13.5747 0 14.5123 0 15.669V33.5404C0 34.6969 0.946315 35.6348 2.11385 35.6348H4.50956V82.8262H2.11385C0.946579 82.8262 0 83.7638 0 84.9206C0 86.0771 0.946315 87.015 2.11385 87.015H132.886C134.053 87.015 135 86.0774 135 84.9206C134.999 83.7638 134.053 82.8262 132.886 82.8262ZM4.22744 31.446V17.7632H66.8221L49.3294 31.446H4.22744ZM13.5282 82.8262H8.737V69.1434H13.5282V82.8262ZM22.5468 82.8262H17.7556V69.1434H22.5468V82.8262ZM31.5656 82.8262H26.7745V69.1434H31.5656V82.8262ZM40.5845 82.8262H35.7933V69.1434H40.5845V82.8262ZM49.6031 82.8262H44.8119V69.1434H49.6031V82.8262ZM49.6031 64.9549H8.737V35.6345H45.1009C45.0672 36.1343 45.2106 36.6476 45.5484 37.0719C46.2719 37.9797 47.6008 38.1346 48.5173 37.4178L49.6031 36.5682V64.9549ZM126.263 73.8904H123.867C122.7 73.8904 121.753 74.828 121.753 75.9848C121.753 77.1413 122.699 78.0792 123.867 78.0792H126.263V82.8262H53.8308V78.0792H101.32C102.488 78.0792 103.434 77.1416 103.434 75.9848C103.434 74.8283 102.488 73.8904 101.32 73.8904H53.8308V35.6345H65.2451C66.4124 35.6345 67.3589 34.6969 67.3589 33.5401C67.3589 32.3834 66.4126 31.4458 65.2451 31.4458H56.1521L90.0465 4.93353L123.941 31.446H74.2629C73.0956 31.446 72.1491 32.3836 72.1491 33.5404C72.1491 34.6972 73.0954 35.6348 74.2629 35.6348H126.263V73.8904Z"
    fill="url(#paint0_linear)"/>
  <path
    d="M114.848 73.8906H110.339C109.172 73.8906 108.226 74.8282 108.226 75.985C108.226 77.1415 109.172 78.0794 110.339 78.0794H114.848C116.015 78.0794 116.962 77.1418 116.962 75.985C116.962 74.8285 116.015 73.8906 114.848 73.8906Z"
    fill="black"/>
  <path
    d="M114.848 73.8906H110.339C109.172 73.8906 108.226 74.8282 108.226 75.985C108.226 77.1415 109.172 78.0794 110.339 78.0794H114.848C116.015 78.0794 116.962 77.1418 116.962 75.985C116.962 74.8285 116.015 73.8906 114.848 73.8906Z"
    fill="url(#paint1_linear)"/>
  <path
    d="M74.2632 40.3816H60.7349C59.5677 40.3816 58.6211 41.3192 58.6211 42.476V64.8151C58.6211 65.9716 59.5674 66.9095 60.7349 66.9095H74.2632C75.4304 66.9095 76.377 65.9719 76.377 64.8151V42.476C76.377 41.3192 75.4307 40.3816 74.2632 40.3816ZM72.1496 62.721H62.8491V53.5062H72.1496V62.721ZM72.1496 49.3174H62.8491V44.5704H72.1496V49.3174Z"
    fill="black"/>
  <path
    d="M74.2632 40.3816H60.7349C59.5677 40.3816 58.6211 41.3192 58.6211 42.476V64.8151C58.6211 65.9716 59.5674 66.9095 60.7349 66.9095H74.2632C75.4304 66.9095 76.377 65.9719 76.377 64.8151V42.476C76.377 41.3192 75.4307 40.3816 74.2632 40.3816ZM72.1496 62.721H62.8491V53.5062H72.1496V62.721ZM72.1496 49.3174H62.8491V44.5704H72.1496V49.3174Z"
    fill="url(#paint2_linear)"/>
  <path
    d="M96.811 40.3816H83.2828C82.1155 40.3816 81.1689 41.3192 81.1689 42.476V64.8151C81.1689 65.9716 82.1153 66.9095 83.2828 66.9095H96.811C97.9782 66.9095 98.9248 65.9719 98.9248 64.8151V42.476C98.9248 41.3192 97.9782 40.3816 96.811 40.3816ZM94.6971 62.721H85.3966V53.5062H94.6971V62.721ZM94.6971 49.3174H85.3966V44.5704H94.6971V49.3174Z"
    fill="black"/>
  <path
    d="M96.811 40.3816H83.2828C82.1155 40.3816 81.1689 41.3192 81.1689 42.476V64.8151C81.1689 65.9716 82.1153 66.9095 83.2828 66.9095H96.811C97.9782 66.9095 98.9248 65.9719 98.9248 64.8151V42.476C98.9248 41.3192 97.9782 40.3816 96.811 40.3816ZM94.6971 62.721H85.3966V53.5062H94.6971V62.721ZM94.6971 49.3174H85.3966V44.5704H94.6971V49.3174Z"
    fill="url(#paint3_linear)"/>
  <path
    d="M119.358 40.3816H105.83C104.662 40.3816 103.716 41.3192 103.716 42.476V64.8151C103.716 65.9716 104.662 66.9095 105.83 66.9095H119.358C120.525 66.9095 121.472 65.9719 121.472 64.8151V42.476C121.471 41.3192 120.525 40.3816 119.358 40.3816ZM117.244 62.721H107.944V53.5062H117.244V62.721ZM117.244 49.3174H107.944V44.5704H117.244V49.3174Z"
    fill="black"/>
  <path
    d="M119.358 40.3816H105.83C104.662 40.3816 103.716 41.3192 103.716 42.476V64.8151C103.716 65.9716 104.662 66.9095 105.83 66.9095H119.358C120.525 66.9095 121.472 65.9719 121.472 64.8151V42.476C121.471 41.3192 120.525 40.3816 119.358 40.3816ZM117.244 62.721H107.944V53.5062H117.244V62.721ZM117.244 49.3174H107.944V44.5704H117.244V49.3174Z"
    fill="url(#paint4_linear)"/>
  <path
    d="M94.5556 13.5746H85.5367C84.3694 13.5746 83.4229 14.5122 83.4229 15.669V24.6048C83.4229 25.7613 84.3692 26.6992 85.5367 26.6992H94.5556C95.7229 26.6992 96.6694 25.7616 96.6694 24.6048V15.669C96.6692 14.5124 95.7229 13.5746 94.5556 13.5746ZM92.4417 22.5104H87.6506V17.7634H92.4417V22.5104Z"
    fill="black"/>
  <path
    d="M94.5556 13.5746H85.5367C84.3694 13.5746 83.4229 14.5122 83.4229 15.669V24.6048C83.4229 25.7613 84.3692 26.6992 85.5367 26.6992H94.5556C95.7229 26.6992 96.6694 25.7616 96.6694 24.6048V15.669C96.6692 14.5124 95.7229 13.5746 94.5556 13.5746ZM92.4417 22.5104H87.6506V17.7634H92.4417V22.5104Z"
    fill="url(#paint5_linear)"/>
  <defs>
    <linearGradient id="paint0_linear" x1="-8.09999" y1="57.0483" x2="149.85" y2="57.0483"
                    gradientUnits="userSpaceOnUse">
      <stop stop-color="#8363F9"/>
      <stop offset="1" stop-color="#485BBD"/>
    </linearGradient>
    <linearGradient id="paint1_linear" x1="107.701" y1="76.634" x2="117.923" y2="76.634" gradientUnits="userSpaceOnUse">
      <stop stop-color="#8363F9"/>
      <stop offset="1" stop-color="#485BBD"/>
    </linearGradient>
    <linearGradient id="paint2_linear" x1="57.5557" y1="57.7557" x2="78.3302" y2="57.7557"
                    gradientUnits="userSpaceOnUse">
      <stop stop-color="#8363F9"/>
      <stop offset="1" stop-color="#485BBD"/>
    </linearGradient>
    <linearGradient id="paint3_linear" x1="80.1036" y1="57.7557" x2="100.878" y2="57.7557"
                    gradientUnits="userSpaceOnUse">
      <stop stop-color="#8363F9"/>
      <stop offset="1" stop-color="#485BBD"/>
    </linearGradient>
    <linearGradient id="paint4_linear" x1="102.65" y1="57.7557" x2="123.425" y2="57.7557"
                    gradientUnits="userSpaceOnUse">
      <stop stop-color="#8363F9"/>
      <stop offset="1" stop-color="#485BBD"/>
    </linearGradient>
    <linearGradient id="paint5_linear" x1="82.6281" y1="22.1704" x2="98.1266" y2="22.1703"
                    gradientUnits="userSpaceOnUse">
      <stop stop-color="#8363F9"/>
      <stop offset="1" stop-color="#485BBD"/>
    </linearGradient>
  </defs>
</svg>
