<svg width="173" height="147" viewBox="0 0 173 125" fill="none" xmlns="http://www.w3.org/2000/svg">
  <title>[icon] Startups</title>

  <path fill-rule="evenodd" clip-rule="evenodd"
        d="M3.45934 28.5259L7.66732 32.6387C8.24932 33.2124 8.25832 34.1497 7.68432 34.7293C7.39632 35.0245 7.01432 35.1722 6.62733 35.1722C6.25333 35.1722 5.87533 35.0345 5.58433 34.7521L1.37634 30.6403C0.793345 30.0656 0.784345 29.1283 1.35834 28.5487C1.64634 28.2534 2.03034 28.1068 2.41634 28.1068C2.79234 28.1068 3.16934 28.2465 3.45934 28.5259Z"
        fill="#FE664B"/>
  <path fill-rule="evenodd" clip-rule="evenodd"
        d="M5.77812 13.6761L18.6751 26.5346C19.2541 27.1112 19.2541 28.0485 18.6751 28.6252C18.3831 28.9125 18.0031 29.0561 17.6231 29.0561C17.2421 29.0561 16.8621 28.9125 16.5741 28.6252L3.67611 15.7677C3.09811 15.191 3.09811 14.2537 3.67611 13.6761C3.96711 13.3888 4.34711 13.2451 4.72811 13.2451C5.10811 13.2451 5.48812 13.3888 5.77812 13.6761Z"
        fill="#FE664B"/>
  <path fill-rule="evenodd" clip-rule="evenodd"
        d="M104.446 1.155C104.446 0.718488 104.092 0.364624 103.655 0.364624C103.219 0.364624 102.865 0.718487 102.865 1.155V3.89286L101.086 1.79111C100.805 1.45918 100.306 1.41554 99.972 1.69365C99.6377 1.97176 99.5945 2.46629 99.8754 2.79822L101.652 4.89689L98.9216 4.41994C98.4952 4.34545 98.088 4.63055 98.0122 5.05674C97.9363 5.48293 98.2205 5.88882 98.6469 5.96332L101.378 6.44053L98.9796 7.81276C98.6031 8.02811 98.475 8.50647 98.6933 8.88121C98.9117 9.25594 99.3939 9.38514 99.7704 9.16979L102.169 7.79779L101.224 10.3684C101.074 10.7777 101.285 11.2294 101.695 11.3773C102.105 11.5253 102.56 11.3134 102.71 10.9041L103.655 8.33162L104.6 10.904C104.75 11.3133 105.205 11.5251 105.615 11.3772C106.025 11.2293 106.236 10.7776 106.085 10.3683L105.14 7.79602L107.541 9.16931C107.918 9.38466 108.4 9.25546 108.618 8.88073C108.836 8.50599 108.708 8.02763 108.332 7.81228L105.932 6.43958L108.664 5.96241C109.09 5.88791 109.374 5.48202 109.298 5.05583C109.222 4.62964 108.815 4.34454 108.389 4.41904L105.658 4.89614L107.436 2.79716C107.717 2.46532 107.673 1.97095 107.339 1.69295C107.005 1.41494 106.506 1.45859 106.225 1.79043L104.446 3.89109V1.155ZM104.054 4.95528C104.1 5.08235 104.179 5.19939 104.291 5.29228C104.402 5.38456 104.531 5.44139 104.664 5.46402C104.617 5.59 104.603 5.72975 104.628 5.87175C104.653 6.01358 104.715 6.13979 104.802 6.24232C104.685 6.30899 104.583 6.40644 104.511 6.53105C104.438 6.6563 104.403 6.79313 104.404 6.92785C104.271 6.90341 104.129 6.91281 103.993 6.96201C103.856 7.01138 103.741 7.0946 103.655 7.1988C103.568 7.09466 103.454 7.01149 103.317 6.96213C103.181 6.91314 103.04 6.90362 102.907 6.92768C102.908 6.79317 102.874 6.65658 102.801 6.53153C102.728 6.40677 102.626 6.30922 102.509 6.24255C102.596 6.14014 102.657 6.01418 102.682 5.87266C102.708 5.73091 102.693 5.59142 102.647 5.46561C102.78 5.44288 102.908 5.38606 103.019 5.29393C103.131 5.20062 103.211 5.08295 103.256 4.95523C103.373 5.02389 103.51 5.06325 103.655 5.06325C103.801 5.06325 103.937 5.02391 104.054 4.95528Z"
        fill="#FE664B"/>
  <path fill-rule="evenodd" clip-rule="evenodd"
        d="M59.6094 114.306C57.6764 114.306 56.1094 115.858 56.1094 117.774C56.1094 119.689 57.6764 121.241 59.6094 121.241C61.5424 121.241 63.1094 119.689 63.1094 117.774C63.1094 115.858 61.5424 114.306 59.6094 114.306ZM59.6094 115.297C60.9901 115.297 62.1094 116.406 62.1094 117.774C62.1094 119.142 60.9901 120.251 59.6094 120.251C58.2287 120.251 57.1094 119.142 57.1094 117.774C57.1094 116.406 58.2287 115.297 59.6094 115.297Z"
        fill="#FE664B"/>
  <path fill-rule="evenodd" clip-rule="evenodd"
        d="M161.743 124.376C162.001 124.376 162.262 124.277 162.457 124.079C162.848 123.686 162.848 123.044 162.453 122.653L160.156 120.367C159.763 119.978 159.124 119.974 158.731 120.371C158.34 120.765 158.34 121.406 158.735 121.798L161.032 124.083C161.229 124.277 161.485 124.376 161.743 124.376Z"
        fill="#FE664B"/>
  <path fill-rule="evenodd" clip-rule="evenodd"
        d="M156.316 119.184C156.574 119.184 156.834 119.085 157.029 118.888C157.421 118.494 157.421 117.855 157.025 117.461L153.158 113.608C152.765 113.219 152.126 113.215 151.732 113.612C151.341 114.006 151.341 114.645 151.736 115.038L155.604 118.892C155.801 119.085 156.058 119.184 156.316 119.184Z"
        fill="#FE664B"/>
  <path fill-rule="evenodd" clip-rule="evenodd"
        d="M2.44612 124.376C2.18803 124.376 1.92792 124.277 1.73232 124.079C1.34116 123.686 1.34116 123.044 1.73636 122.653L4.03298 120.367C4.42618 119.978 5.06534 119.974 5.45853 120.371C5.8497 120.765 5.8497 121.406 5.45449 121.798L3.15788 124.083C2.96027 124.277 2.7042 124.376 2.44612 124.376Z"
        fill="#FE664B"/>
  <path fill-rule="evenodd" clip-rule="evenodd"
        d="M7.87385 119.184C7.61577 119.184 7.35565 119.085 7.16006 118.888C6.76889 118.494 6.76889 117.855 7.1641 117.461L11.0315 113.608C11.4247 113.219 12.0638 113.215 12.457 113.612C12.8482 114.006 12.8482 114.645 12.453 115.038L8.58561 118.892C8.38801 119.085 8.13193 119.184 7.87385 119.184Z"
        fill="#FE664B"/>
  <path fill-rule="evenodd" clip-rule="evenodd"
        d="M167.463 70.4946C167.463 70.0669 167.81 69.7202 168.237 69.7202C168.665 69.7202 169.012 70.0669 169.012 70.4946V72.7893H171.342C171.766 72.7893 172.109 73.1331 172.109 73.5571C172.109 73.9811 171.766 74.3249 171.342 74.3249H169.012V76.6185C169.012 77.0461 168.665 77.3928 168.237 77.3928C167.81 77.3928 167.463 77.0461 167.463 76.6185V74.3249H165.133C164.709 74.3249 164.365 73.9811 164.365 73.5571C164.365 73.1331 164.709 72.7893 165.133 72.7893H167.463V70.4946Z"
        fill="#FE664B"/>
  <path fill-rule="evenodd" clip-rule="evenodd"
        d="M145.734 16.2173C142.214 16.2173 139.359 19.0452 139.359 22.5336C139.359 26.022 142.214 28.8499 145.734 28.8499C149.255 28.8499 152.109 26.022 152.109 22.5336C152.109 19.0452 149.255 16.2173 145.734 16.2173ZM145.735 18.0219C148.249 18.0219 150.288 20.0418 150.288 22.5336C150.288 25.0253 148.249 27.0452 145.735 27.0452C143.22 27.0452 141.181 25.0253 141.181 22.5336C141.181 20.0418 143.22 18.0219 145.735 18.0219Z"
        fill="#FE664B"/>
  <path
    d="M147.886 103.826H145.49V57.5685L146.576 58.418C146.964 58.7213 147.426 58.8687 147.884 58.8687C148.509 58.8687 149.128 58.5954 149.545 58.0719C150.268 57.1641 150.112 55.8471 149.196 55.1303L106.357 21.6217C105.589 21.0211 104.505 21.0211 103.737 21.6217L87.1773 34.5747H17.1138C15.9466 34.5747 15 35.5123 15 36.669V54.5404C15 55.6969 15.9463 56.6348 17.1138 56.6348H19.5096V103.826H17.1138C15.9466 103.826 15 104.764 15 105.921C15 107.077 15.9463 108.015 17.1138 108.015H147.886C149.053 108.015 150 107.077 150 105.921C149.999 104.764 149.053 103.826 147.886 103.826ZM19.2274 52.446V38.7632H81.8221L64.3294 52.446H19.2274ZM28.5282 103.826H23.737V90.1434H28.5282V103.826ZM37.5468 103.826H32.7556V90.1434H37.5468V103.826ZM46.5656 103.826H41.7745V90.1434H46.5656V103.826ZM55.5845 103.826H50.7933V90.1434H55.5845V103.826ZM64.6031 103.826H59.8119V90.1434H64.6031V103.826ZM64.6031 85.9549H23.737V56.6345H60.1009C60.0672 57.1343 60.2106 57.6476 60.5484 58.0719C61.2719 58.9797 62.6008 59.1346 63.5173 58.4178L64.6031 57.5682V85.9549ZM141.263 94.8904H138.867C137.7 94.8904 136.753 95.828 136.753 96.9848C136.753 98.1413 137.699 99.0792 138.867 99.0792H141.263V103.826H68.8308V99.0792H116.32C117.488 99.0792 118.434 98.1416 118.434 96.9848C118.434 95.8283 117.488 94.8904 116.32 94.8904H68.8308V56.6345H80.2451C81.4124 56.6345 82.3589 55.6969 82.3589 54.5401C82.3589 53.3834 81.4126 52.4458 80.2451 52.4458H71.1521L105.047 25.9335L138.941 52.446H89.2629C88.0956 52.446 87.1491 53.3836 87.1491 54.5404C87.1491 55.6972 88.0954 56.6348 89.2629 56.6348H141.263V94.8904Z"
    fill="black"/>
  <path
    d="M147.886 103.826H145.49V57.5685L146.576 58.418C146.964 58.7213 147.426 58.8687 147.884 58.8687C148.509 58.8687 149.128 58.5954 149.545 58.0719C150.268 57.1641 150.112 55.8471 149.196 55.1303L106.357 21.6217C105.589 21.0211 104.505 21.0211 103.737 21.6217L87.1773 34.5747H17.1138C15.9466 34.5747 15 35.5123 15 36.669V54.5404C15 55.6969 15.9463 56.6348 17.1138 56.6348H19.5096V103.826H17.1138C15.9466 103.826 15 104.764 15 105.921C15 107.077 15.9463 108.015 17.1138 108.015H147.886C149.053 108.015 150 107.077 150 105.921C149.999 104.764 149.053 103.826 147.886 103.826ZM19.2274 52.446V38.7632H81.8221L64.3294 52.446H19.2274ZM28.5282 103.826H23.737V90.1434H28.5282V103.826ZM37.5468 103.826H32.7556V90.1434H37.5468V103.826ZM46.5656 103.826H41.7745V90.1434H46.5656V103.826ZM55.5845 103.826H50.7933V90.1434H55.5845V103.826ZM64.6031 103.826H59.8119V90.1434H64.6031V103.826ZM64.6031 85.9549H23.737V56.6345H60.1009C60.0672 57.1343 60.2106 57.6476 60.5484 58.0719C61.2719 58.9797 62.6008 59.1346 63.5173 58.4178L64.6031 57.5682V85.9549ZM141.263 94.8904H138.867C137.7 94.8904 136.753 95.828 136.753 96.9848C136.753 98.1413 137.699 99.0792 138.867 99.0792H141.263V103.826H68.8308V99.0792H116.32C117.488 99.0792 118.434 98.1416 118.434 96.9848C118.434 95.8283 117.488 94.8904 116.32 94.8904H68.8308V56.6345H80.2451C81.4124 56.6345 82.3589 55.6969 82.3589 54.5401C82.3589 53.3834 81.4126 52.4458 80.2451 52.4458H71.1521L105.047 25.9335L138.941 52.446H89.2629C88.0956 52.446 87.1491 53.3836 87.1491 54.5404C87.1491 55.6972 88.0954 56.6348 89.2629 56.6348H141.263V94.8904Z"
    fill="url(#paint0_linear)"/>
  <path
    d="M129.848 94.8906H125.339C124.172 94.8906 123.226 95.8282 123.226 96.985C123.226 98.1415 124.172 99.0794 125.339 99.0794H129.848C131.015 99.0794 131.962 98.1418 131.962 96.985C131.962 95.8285 131.015 94.8906 129.848 94.8906Z"
    fill="black"/>
  <path
    d="M129.848 94.8906H125.339C124.172 94.8906 123.226 95.8282 123.226 96.985C123.226 98.1415 124.172 99.0794 125.339 99.0794H129.848C131.015 99.0794 131.962 98.1418 131.962 96.985C131.962 95.8285 131.015 94.8906 129.848 94.8906Z"
    fill="url(#paint1_linear)"/>
  <path
    d="M89.2632 61.3816H75.7349C74.5677 61.3816 73.6211 62.3192 73.6211 63.476V85.8151C73.6211 86.9716 74.5674 87.9095 75.7349 87.9095H89.2632C90.4304 87.9095 91.377 86.9719 91.377 85.8151V63.476C91.377 62.3192 90.4307 61.3816 89.2632 61.3816ZM87.1496 83.721H77.8491V74.5062H87.1496V83.721ZM87.1496 70.3174H77.8491V65.5704H87.1496V70.3174Z"
    fill="black"/>
  <path
    d="M89.2632 61.3816H75.7349C74.5677 61.3816 73.6211 62.3192 73.6211 63.476V85.8151C73.6211 86.9716 74.5674 87.9095 75.7349 87.9095H89.2632C90.4304 87.9095 91.377 86.9719 91.377 85.8151V63.476C91.377 62.3192 90.4307 61.3816 89.2632 61.3816ZM87.1496 83.721H77.8491V74.5062H87.1496V83.721ZM87.1496 70.3174H77.8491V65.5704H87.1496V70.3174Z"
    fill="url(#paint2_linear)"/>
  <path
    d="M111.811 61.3816H98.2828C97.1155 61.3816 96.1689 62.3192 96.1689 63.476V85.8151C96.1689 86.9716 97.1153 87.9095 98.2828 87.9095H111.811C112.978 87.9095 113.925 86.9719 113.925 85.8151V63.476C113.925 62.3192 112.978 61.3816 111.811 61.3816ZM109.697 83.721H100.397V74.5062H109.697V83.721ZM109.697 70.3174H100.397V65.5704H109.697V70.3174Z"
    fill="black"/>
  <path
    d="M111.811 61.3816H98.2828C97.1155 61.3816 96.1689 62.3192 96.1689 63.476V85.8151C96.1689 86.9716 97.1153 87.9095 98.2828 87.9095H111.811C112.978 87.9095 113.925 86.9719 113.925 85.8151V63.476C113.925 62.3192 112.978 61.3816 111.811 61.3816ZM109.697 83.721H100.397V74.5062H109.697V83.721ZM109.697 70.3174H100.397V65.5704H109.697V70.3174Z"
    fill="url(#paint3_linear)"/>
  <path
    d="M134.358 61.3816H120.83C119.662 61.3816 118.716 62.3192 118.716 63.476V85.8151C118.716 86.9716 119.662 87.9095 120.83 87.9095H134.358C135.525 87.9095 136.472 86.9719 136.472 85.8151V63.476C136.471 62.3192 135.525 61.3816 134.358 61.3816ZM132.244 83.721H122.944V74.5062H132.244V83.721ZM132.244 70.3174H122.944V65.5704H132.244V70.3174Z"
    fill="black"/>
  <path
    d="M134.358 61.3816H120.83C119.662 61.3816 118.716 62.3192 118.716 63.476V85.8151C118.716 86.9716 119.662 87.9095 120.83 87.9095H134.358C135.525 87.9095 136.472 86.9719 136.472 85.8151V63.476C136.471 62.3192 135.525 61.3816 134.358 61.3816ZM132.244 83.721H122.944V74.5062H132.244V83.721ZM132.244 70.3174H122.944V65.5704H132.244V70.3174Z"
    fill="url(#paint4_linear)"/>
  <path
    d="M109.556 34.5746H100.537C99.3694 34.5746 98.4229 35.5122 98.4229 36.669V45.6048C98.4229 46.7613 99.3692 47.6992 100.537 47.6992H109.556C110.723 47.6992 111.669 46.7616 111.669 45.6048V36.669C111.669 35.5124 110.723 34.5746 109.556 34.5746ZM107.442 43.5104H102.651V38.7634H107.442V43.5104Z"
    fill="black"/>
  <path
    d="M109.556 34.5746H100.537C99.3694 34.5746 98.4229 35.5122 98.4229 36.669V45.6048C98.4229 46.7613 99.3692 47.6992 100.537 47.6992H109.556C110.723 47.6992 111.669 46.7616 111.669 45.6048V36.669C111.669 35.5124 110.723 34.5746 109.556 34.5746ZM107.442 43.5104H102.651V38.7634H107.442V43.5104Z"
    fill="url(#paint5_linear)"/>
  <defs>
    <linearGradient id="paint0_linear" x1="6.90001" y1="78.0483" x2="164.85" y2="78.0483"
                    gradientUnits="userSpaceOnUse">
      <stop stop-color="#8363F9"/>
      <stop offset="1" stop-color="#485BBD"/>
    </linearGradient>
    <linearGradient id="paint1_linear" x1="122.701" y1="97.634" x2="132.923" y2="97.634" gradientUnits="userSpaceOnUse">
      <stop stop-color="#8363F9"/>
      <stop offset="1" stop-color="#485BBD"/>
    </linearGradient>
    <linearGradient id="paint2_linear" x1="72.5557" y1="78.7557" x2="93.3302" y2="78.7557"
                    gradientUnits="userSpaceOnUse">
      <stop stop-color="#8363F9"/>
      <stop offset="1" stop-color="#485BBD"/>
    </linearGradient>
    <linearGradient id="paint3_linear" x1="95.1036" y1="78.7557" x2="115.878" y2="78.7557"
                    gradientUnits="userSpaceOnUse">
      <stop stop-color="#8363F9"/>
      <stop offset="1" stop-color="#485BBD"/>
    </linearGradient>
    <linearGradient id="paint4_linear" x1="117.65" y1="78.7557" x2="138.425" y2="78.7557"
                    gradientUnits="userSpaceOnUse">
      <stop stop-color="#8363F9"/>
      <stop offset="1" stop-color="#485BBD"/>
    </linearGradient>
    <linearGradient id="paint5_linear" x1="97.6281" y1="43.1704" x2="113.127" y2="43.1703"
                    gradientUnits="userSpaceOnUse">
      <stop stop-color="#8363F9"/>
      <stop offset="1" stop-color="#485BBD"/>
    </linearGradient>
  </defs>
</svg>
