<svg width="48" height="47" viewBox="0 0 48 47" fill="none" xmlns="http://www.w3.org/2000/svg">
 <title>[icon] Jobs Values</title>
  <path
    d="M0 26.6899V32.0174H31.3384V40.3221C31.3384 41.3667 30.6594 41.889 29.3014 41.889C27.4211 41.889 25.4886 41.7323 23.3993 41.5234L24.6529 46.8509H31.1817C34.9423 46.8509 36.8226 45.1273 36.8226 41.6801V32.0174H48V26.6899H36.8226V24.3395H31.3384V26.6899H0ZM40.4788 0H5.17084V17.9674C5.17084 21.2579 6.99891 22.9293 10.7595 22.9293H41.7323C44.1349 22.8248 45.7018 21.9891 46.3286 20.3177C46.6942 19.2731 47.0598 17.6017 47.4255 15.1991L42.2546 13.4755C41.9935 15.5125 41.7845 16.7138 41.5756 17.0794C41.2622 17.6017 40.7399 17.8629 39.9565 17.9151H12.9532C11.3863 17.9151 10.6551 17.1839 10.6551 15.7737V13.5277H40.4788V0ZM10.6551 8.61806V4.90968H34.9946V8.61806H10.6551ZM13.4233 32.2786L9.50599 36.0392C13.1099 38.9641 15.8781 41.6801 17.8629 44.1872L21.9369 40.1132C19.6387 37.5016 16.7661 34.8901 13.4233 32.2786Z"
    fill="#5C5FD4"/>
</svg>
