<svg width="90" height="48" viewBox="0 0 90 48" fill="none" xmlns="http://www.w3.org/2000/svg">
  <title>[icon] Jobs Values</title>
  <path d="M35.8966 5.79311H16.9138C17.7931 4.24138 18.5172 2.58621 19.0345 0.775864L13.5517 0C13.0345 1.96552 12.2069 3.93104 11.1724 5.79311H0V48H5.48276V45.2069H30.4138V48H35.8966V5.79311ZM5.48276 40.0862V33.3103H30.4138V40.0862H5.48276ZM5.48276 28.3448V21.9828H30.4138V28.3448H5.48276ZM5.48276 17.0172V10.9655H30.4138V17.0172H5.48276Z" fill="#5C5FD4"/>
<path d="M89.7414 7.9138H72.4138V0.25862H66.931V7.9138H49.6034V47.7931H54.9828V44.7931H84.3621V47.7931H89.7414V7.9138ZM54.9828 39.569V28.0862H66.931V39.569H54.9828ZM72.4138 39.569V28.0862H84.3621V39.569H72.4138ZM54.9828 23.1207V13.0345H66.931V23.1207H54.9828ZM72.4138 13.0345H84.3621V23.1207H72.4138V13.0345Z" fill="#5C5FD4"/>
</svg>
