<svg width="36" height="35" viewBox="0 0 36 35" fill="none" xmlns="http://www.w3.org/2000/svg">
<path id="facebook-brands" d="M35.5761 17.2941C35.5761 7.74051 27.8356 0 18.2819 0C8.72832 0 0.987793 7.74051 0.987793 17.2941C0.987793 25.9258 7.31201 33.0806 15.5797 34.379V22.2934H11.1865V17.2941H15.5797V13.4838C15.5797 9.14985 18.1599 6.75587 22.1118 6.75587C24.0043 6.75587 25.9834 7.09338 25.9834 7.09338V11.3472H23.8021C21.6543 11.3472 20.9841 12.6805 20.9841 14.048V17.2941H25.7805L25.0134 22.2934H20.9841V34.379C29.2519 33.0806 35.5761 25.9258 35.5761 17.2941H35.5761Z" fill="white"/>
</svg>
