<svg width="65" height="66" viewBox="0 0 65 66" fill="none" xmlns="http://www.w3.org/2000/svg">
<g id="Group 186" clip-path="url(#clip0)">
<g id="Group 114" clip-path="url(#clip1)">
<path id="Path 55" d="M0 0.585938V43.9189L21.667 65.5849H65V22.2524L43.333 0.585938L0 0.585938Z" fill="white"/>
<g id="Group 113" clip-path="url(#clip2)">
<path id="Path 56" fill-rule="evenodd" clip-rule="evenodd" d="M2.70996 38.1683V28.0029H6.89221C9.05624 28.0029 10.3195 29.3388 10.3195 31.2122C10.3195 33.0712 9.05624 34.4216 6.89221 34.4216H4.90286V38.1683L2.70996 38.1683ZM4.90286 32.6064H6.76147C7.77822 32.6064 8.2138 31.9529 8.2138 31.2122C8.2138 30.4716 7.77822 29.818 6.76147 29.818H4.90286V32.6064Z" fill="#1538E5"/>
<path id="Path 57" fill-rule="evenodd" clip-rule="evenodd" d="M9.98389 34.5083C9.98389 32.33 11.596 30.7324 13.847 30.7324C16.0979 30.7324 17.7098 32.33 17.7098 34.5083C17.7098 36.6867 16.0979 38.2841 13.847 38.2841C11.596 38.2841 9.98389 36.6867 9.98389 34.5083ZM15.6767 34.5083C15.6767 33.2884 14.936 32.4605 13.847 32.4605C12.7577 32.4605 12.017 33.2884 12.017 34.5083C12.017 35.7135 12.7577 36.5414 13.847 36.5414C14.936 36.5414 15.6767 35.7135 15.6767 34.5083Z" fill="#1538E5"/>
<path id="Path 58" d="M17.8042 35.6992H19.547C19.6194 36.3527 20.1278 36.7591 20.8829 36.7591C21.5074 36.7591 21.943 36.4541 21.943 36.0478C21.943 34.5518 18.0075 36.0186 18.0075 32.9397C18.0075 31.6473 19.1258 30.7324 20.6214 30.7324C22.3788 30.7324 23.5696 31.6765 23.6423 33.1141H21.8849C21.798 32.4895 21.2314 32.1555 20.6795 32.1555C20.1133 32.1555 19.7211 32.4026 19.7211 32.8673C19.7211 34.3631 23.7293 32.664 23.7293 35.9751C23.7293 37.3693 22.5965 38.2841 20.8829 38.2841C19.0966 38.2841 17.8769 37.2821 17.8042 35.6992H17.8042Z" fill="#1538E5"/>
<path id="Path 59" d="M25.1779 28.6855H27.1964V30.8493H29.1568V32.5337H27.1964V35.2932C27.1964 36.0048 27.5739 36.3388 28.2273 36.3388H29.1568V38.1685H27.9516C26.2669 38.1685 25.1779 37.2102 25.1779 35.5111V32.5337H23.769V30.8493H25.1779L25.1779 28.6855Z" fill="#1538E5"/>
<path id="Path 60" d="M29.4238 33.0857C29.4238 29.6584 31.8055 27.8867 34.5212 27.8867C37.0773 27.8867 38.9506 29.3389 39.2265 31.5319H36.9464C36.8013 30.4717 35.7993 29.7602 34.5212 29.7602C32.8802 29.7602 31.6168 30.9073 31.6168 33.0857C31.6168 35.264 32.8802 36.3968 34.5212 36.3968C35.8282 36.3968 36.8303 35.6853 37.0044 34.6397H39.1828C38.994 36.818 37.1208 38.2849 34.5212 38.2849C31.762 38.2849 29.4238 36.5132 29.4238 33.0857Z" fill="#1538E5"/>
<path id="Path 61" d="M46.6129 30.8496V38.1689H44.5799V37.1525C44.1732 37.8494 43.3599 38.2852 42.3578 38.2852C40.7168 38.2852 39.6421 37.0798 39.6421 35.4097V30.8496H41.6609V34.9596C41.6609 35.8453 42.2417 36.4844 43.0693 36.4844C43.9553 36.4844 44.5799 35.7872 44.5799 34.8578V30.8496L46.6129 30.8496Z" fill="#1538E5"/>
<path id="Path 62" fill-rule="evenodd" clip-rule="evenodd" d="M62.2925 35.6846C62.0019 37.2675 60.6078 38.2841 58.8072 38.2841C56.3236 38.2841 55.0459 36.3381 55.0459 34.4938C55.0459 32.6349 56.1785 30.7324 58.6619 30.7324C61.2466 30.7324 62.2779 32.6349 62.2779 34.305C62.2779 34.581 62.2633 34.7986 62.249 34.9584H56.9918C57.137 35.9895 57.7906 36.6286 58.8072 36.6286C59.6202 36.6286 60.1577 36.3089 60.3172 35.6846L62.2925 35.6846ZM57.0209 33.6804H60.2593C60.2013 32.8673 59.6348 32.2138 58.6619 32.2138C57.7469 32.2138 57.1951 32.664 57.0209 33.6804Z" fill="#1538E5"/>
<path id="Path 63" fill-rule="evenodd" clip-rule="evenodd" d="M51.3606 30.7337C50.4458 30.7337 49.7343 31.0824 49.3275 31.6195V28.2109H47.3091V38.1691H49.3275V37.3706C49.7343 37.9369 50.4893 38.2852 51.3317 38.2852C53.4955 38.2852 54.7879 36.7895 54.7879 34.5096C54.7879 32.2295 53.4955 30.7337 51.3606 30.7337ZM51.012 36.5427C49.923 36.5427 49.2115 35.7293 49.2115 34.5096C49.2115 33.275 49.923 32.4619 51.012 32.4619C52.0722 32.4619 52.7983 33.275 52.7983 34.5096C52.7983 35.7293 52.0722 36.5427 51.012 36.5427Z" fill="#1538E5"/>
</g>
</g>
</g>
<defs>
<clipPath id="clip0">
<rect width="65" height="64.999" fill="white" transform="translate(0 0.585938)"/>
</clipPath>
<clipPath id="clip1">
<rect width="65" height="64.999" fill="white" transform="translate(0 0.585938)"/>
</clipPath>
<clipPath id="clip2">
<rect width="59.5826" height="10.3986" fill="white" transform="translate(2.70996 27.8867)"/>
</clipPath>
</defs>
</svg>
