<svg xmlns="http://www.w3.org/2000/svg" width="91.061" height="257.822" viewBox="0 0 91.061 257.822"><defs><style>.a{fill:#fff;}</style></defs><path class="a" d="M-1009.721,43.039a2.591,2.591,0,0,0-2.564,2.869,2.584,2.584,0,0,0,2.564,2.848,2.584,2.584,0,0,0,2.563-2.848A2.591,2.591,0,0,0-1009.721,43.039Zm-9.927-3.7h-2.6v3.906h2.6a1.847,1.847,0,0,0,2.034-1.953A1.847,1.847,0,0,0-1019.648,39.336Zm51.234-40.952h-60.707V225.853l30.354,30.353h60.707V28.737Zm-51.051,47.4h-2.787v5.249h-3.072V36.793h5.859c3.032,0,4.8,1.872,4.8,4.5C-1014.663,43.894-1016.433,45.786-1019.464,45.786Zm9.744,5.412a5.174,5.174,0,0,1-5.412-5.29,5.174,5.174,0,0,1,5.412-5.29,5.174,5.174,0,0,1,5.412,5.29A5.174,5.174,0,0,1-1009.721,51.2Zm9.856,0c-2.5,0-4.211-1.4-4.313-3.621h2.442a1.693,1.693,0,0,0,1.871,1.485c.875,0,1.485-.427,1.485-1,0-2.1-5.513-.041-5.513-4.354,0-1.811,1.567-3.092,3.662-3.092,2.462,0,4.13,1.323,4.232,3.337h-2.462a1.628,1.628,0,0,0-1.689-1.343c-.793,0-1.343.346-1.343,1,0,2.1,5.615-.285,5.615,4.354C-995.877,49.916-997.464,51.2-999.865,51.2Zm11.592-8.057h-2.747v3.866a1.3,1.3,0,0,0,1.444,1.465h1.3v2.563h-1.688c-2.36,0-3.886-1.343-3.886-3.723V43.141h-1.974v-2.36h1.974V37.749h2.828v3.031h2.747Zm7.515,5.412a3.248,3.248,0,0,0,3.479-2.462h3.052c-.264,3.052-2.889,5.107-6.531,5.107-3.865,0-7.141-2.482-7.141-7.284s3.337-7.283,7.141-7.283c3.581,0,6.205,2.034,6.592,5.107h-3.194a3.153,3.153,0,0,0-3.4-2.482c-2.3,0-4.069,1.607-4.069,4.659S-983.057,48.552-980.758,48.552Zm16.94,2.482h-2.848V49.611a3.482,3.482,0,0,1-3.113,1.587,3.736,3.736,0,0,1-3.8-4.028V40.781h2.828v5.758a1.981,1.981,0,0,0,1.974,2.136,2.131,2.131,0,0,0,2.116-2.279V40.781h2.848Zm6.61.163a3.43,3.43,0,0,1-2.808-1.281v1.119h-2.828V37.084h2.828v4.775a3.464,3.464,0,0,1,2.848-1.241c2.991,0,4.8,2.1,4.8,5.29S-954.176,51.2-957.207,51.2Zm10.472,0A5.142,5.142,0,0,1-952,45.887c0-2.6,1.587-5.269,5.066-5.269a4.779,4.779,0,0,1,5.066,5c0,.387-.02.692-.04.915h-7.365a2.461,2.461,0,0,0,2.543,2.34c1.139,0,1.892-.448,2.116-1.323h2.767C-942.259,49.773-944.213,51.2-946.735,51.2Zm-.2-8.5a2.134,2.134,0,0,0-2.3,2.055h4.537A2.121,2.121,0,0,0-946.939,42.693Zm-10.717.345c-1.526,0-2.523,1.139-2.523,2.869a2.544,2.544,0,0,0,2.523,2.848,2.551,2.551,0,0,0,2.5-2.848C-955.153,44.178-956.17,43.039-957.655,43.039Z" transform="translate(1029.12 1.616)"/></svg>