<?xml version="1.0" encoding="UTF-8"?>
<svg width="117px" height="117px" viewBox="0 0 117 117" version="1.1" xmlns="http://www.w3.org/2000/svg" xmlns:xlink="http://www.w3.org/1999/xlink">
    <g id="Page-1" stroke="none" stroke-width="1" fill="none" fill-rule="evenodd">
        <path d="M58.5,0 C53.2566314,0 48.9767442,4.27988522 48.9767442,9.52325138 C48.9767442,14.7666176 53.2566314,19.0465028 58.5,19.0465028 C63.7433686,19.0465028 68.0232558,14.7666176 68.0232558,9.52325138 C68.0232558,4.27988522 63.7433686,0 58.5,0 Z M58.5,2.72092897 C62.2729779,2.72092897 65.3023256,5.75041128 65.3023256,9.52325138 C65.3023256,13.2960915 62.2729779,16.3255738 58.5,16.3255738 C54.7270221,16.3255738 51.6976744,13.2960915 51.6976744,9.52325138 C51.6976744,5.75041128 54.7270221,2.72092897 58.5,2.72092897 Z M58.5,25.8488252 C52.6769372,25.8488252 47.4221407,26.9059061 43.4924372,28.7398122 C39.5624616,30.5737183 36.7325581,33.3123333 36.7325581,36.7325411 L36.7325581,51.6977048 C36.7326333,52.4490375 37.3416902,53.0580942 38.0930233,53.0581693 L78.9069767,53.0581693 C79.6583098,53.0580942 80.2673667,52.4490375 80.2674419,51.6977048 L80.2674419,36.7325411 C80.2674419,33.3123333 77.4376744,30.5737183 73.5075628,28.7398122 C69.5778593,26.9059061 64.3230628,25.8488252 58.5,25.8488252 Z M58.5,28.5697542 C63.9824023,28.5697542 68.9124558,29.5969048 72.3597384,31.2056541 C75.8070209,32.8144033 77.5465116,34.8770035 77.5465116,36.7325411 L77.5465116,50.3372403 L39.4534884,50.3372403 L39.4534884,36.7325411 C39.4534884,34.8770035 41.1929791,32.8144033 44.6402616,31.2056541 C48.0875442,29.5969048 53.0175977,28.5697542 58.5,28.5697542 Z M58.3299419,61.1785097 C57.6291718,61.2663193 57.1120927,61.8757043 57.1395349,62.5814207 L57.1395349,75.4208042 L44.2151163,83.158446 C43.7388996,83.3704724 43.4256858,83.8359465 43.4086508,84.3569524 C43.3916158,84.8779582 43.6737546,85.3628982 44.135104,85.6055795 C44.5964533,85.8482609 45.1559038,85.8060181 45.5755814,85.4968123 L58.5,77.7590345 L71.4244186,85.4968123 C71.8440962,85.8060181 72.4035467,85.8482609 72.864896,85.6055795 C73.3262454,85.3628982 73.6083842,84.8779582 73.5913492,84.3569524 C73.5743142,83.8359465 73.2611004,83.3704724 72.7848837,83.158446 L59.8604651,75.4208042 L59.8604651,62.5814207 C59.8760709,62.1818054 59.715077,61.7955611 59.4202678,61.5253326 C59.1254585,61.255104 58.7266924,61.1282601 58.3299419,61.1785097 Z M21.7674419,63.9418851 C16.5240733,63.9418851 12.244186,68.2217704 12.244186,73.4651365 C12.244186,78.7085027 16.5240733,82.9883879 21.7674419,82.9883879 C27.0108105,82.9883879 31.2906977,78.7085027 31.2906977,73.4651365 C31.2906977,68.2217704 27.0108105,63.9418851 21.7674419,63.9418851 Z M95.2325581,63.9418851 C89.9891895,63.9418851 85.7093023,68.2217704 85.7093023,73.4651365 C85.7093023,78.7085027 89.9891895,82.9883879 95.2325581,82.9883879 C100.475927,82.9883879 104.755814,78.7085027 104.755814,73.4651365 C104.755814,68.2217704 100.475927,63.9418851 95.2325581,63.9418851 Z M21.7674419,66.6628141 C25.5404198,66.6628141 28.5697674,69.6922964 28.5697674,73.4651365 C28.5697674,77.2379766 25.5404198,80.2674589 21.7674419,80.2674589 C17.994464,80.2674589 14.9651163,77.2379766 14.9651163,73.4651365 C14.9651163,69.6922964 17.994464,66.6628141 21.7674419,66.6628141 Z M95.2325581,66.6628141 C99.005536,66.6628141 102.034884,69.6922964 102.034884,73.4651365 C102.034884,77.2379766 99.005536,80.2674589 95.2325581,80.2674589 C91.4595802,80.2674589 88.4302326,77.2379766 88.4302326,73.4651365 C88.4302326,69.6922964 91.4595802,66.6628141 95.2325581,66.6628141 Z M21.7674419,89.7907103 C15.9443791,89.7907103 10.6897186,90.8477912 6.75981105,92.6816974 C2.82991709,94.5156035 0,97.2542185 0,100.674426 L0,115.639536 C7.5122034e-05,116.390868 0.609132099,116.999925 1.36046512,117 L42.1744186,117 C42.9257516,116.999925 43.5348086,116.390868 43.5348837,115.639536 L43.5348837,100.674426 C43.5348837,97.2542185 40.7049802,94.5156035 36.7750047,92.6816974 C32.8453012,90.8477912 27.5905047,89.7907103 21.7674419,89.7907103 Z M95.2325581,89.7907103 C89.4094953,89.7907103 84.1546988,90.8477912 80.2249953,92.6816974 C76.2950198,94.5156035 73.4651163,97.2542185 73.4651163,100.674426 L73.4651163,115.639536 C73.4651914,116.390868 74.0742484,116.999925 74.8255814,117 L115.639535,117 C116.390868,116.999925 116.999925,116.390868 117,115.639536 L117,100.674426 C117,97.2542185 114.170233,94.5156035 110.240121,92.6816974 C106.310417,90.8477912 101.055621,89.7907103 95.2325581,89.7907103 Z M21.7674419,92.5116393 C27.2498442,92.5116393 32.1798977,93.53879 35.6271802,95.1475392 C39.0744628,96.7562885 40.8139535,98.8188887 40.8139535,100.674426 L40.8139535,114.279071 L2.72093023,114.279071 L2.72093023,100.674426 C2.72093023,98.8188887 4.46047535,96.7562885 7.90770349,95.1475392 C11.354986,93.53879 16.2850395,92.5116393 21.7674419,92.5116393 Z M95.2325581,92.5116393 C100.71496,92.5116393 105.645014,93.53879 109.092297,95.1475392 C112.539579,96.7562885 114.27907,98.8188887 114.27907,100.674426 L114.27907,114.279071 L76.1860465,114.279071 L76.1860465,100.674426 C76.1860465,98.8188887 77.9255372,96.7562885 81.3728198,95.1475392 C84.8201023,93.53879 89.7501558,92.5116393 95.2325581,92.5116393 Z" id="Shape" fill="#E0E2E5" fill-rule="nonzero"></path>
    </g>
</svg>
