<svg width="708" height="537" viewBox="0 0 708 537" fill="none" xmlns="http://www.w3.org/2000/svg">
<g clip-path="url(#clip0)">
<path fill-rule="evenodd" clip-rule="evenodd" d="M120.671 170.627H405.427C405.427 170.627 403.352 161.555 393.238 156.111C380.53 149.372 365.229 153.779 364.711 154.038C363.414 151.964 361.339 150.409 358.746 150.409C357.449 150.409 356.412 150.668 355.374 151.186C355.374 143.41 348.891 136.93 341.111 136.93C337.22 136.93 333.849 138.485 331.256 141.078C330.218 138.745 327.884 136.93 325.031 136.93C324.513 136.93 324.253 136.93 323.994 136.93C324.513 134.857 325.031 132.783 325.031 130.709C325.031 119.564 315.955 110.751 305.062 110.751C303.247 110.751 301.691 111.01 300.135 111.528C299.097 108.936 296.504 107.122 293.651 107.122C293.133 107.122 292.355 107.122 291.836 107.381C291.836 106.344 292.095 105.567 292.095 104.53C292.095 86.3855 277.313 71.6108 259.159 71.6108C241.005 71.6108 226.223 86.3855 226.223 104.53C226.223 105.307 226.223 106.085 226.223 106.863C224.148 106.085 221.814 105.567 219.48 105.567C216.368 105.567 213.256 106.344 210.662 107.64C205.475 100.901 197.436 96.2352 188.1 96.2352C172.539 96.2352 160.091 108.677 160.091 124.229C160.091 126.562 160.35 128.636 160.869 130.709C153.348 131.487 147.642 137.967 147.642 145.484C147.642 146.262 147.642 147.298 147.902 148.076H147.642C143.752 148.076 140.64 151.186 140.64 155.075C138.306 154.815 135.972 154.815 133.638 155.334C119.374 158.185 120.671 170.627 120.671 170.627ZM288.205 119.045C288.205 119.045 288.464 119.304 288.205 119.045C288.205 119.304 288.205 119.564 287.946 119.823H287.686C287.946 119.564 288.205 119.304 288.205 119.045Z" fill="white"/>
<path d="M402.574 67.1338C407.301 67.1338 411.133 63.3042 411.133 58.5801C411.133 53.856 407.301 50.0264 402.574 50.0264C397.848 50.0264 394.016 53.856 394.016 58.5801C394.016 63.3042 397.848 67.1338 402.574 67.1338Z" fill="#B1D2EE"/>
<path d="M198.214 428.983C202.94 428.983 206.772 425.153 206.772 420.429C206.772 415.705 202.94 411.875 198.214 411.875C193.487 411.875 189.656 415.705 189.656 420.429C189.656 425.153 193.487 428.983 198.214 428.983Z" fill="#B1D2EE"/>
<path d="M212.218 74.3917C216.945 74.3917 220.777 70.562 220.777 65.8379C220.777 61.1138 216.945 57.2842 212.218 57.2842C207.492 57.2842 203.66 61.1138 203.66 65.8379C203.66 70.562 207.492 74.3917 212.218 74.3917Z" fill="white"/>
<path fill-rule="evenodd" clip-rule="evenodd" d="M310.768 92.2764C310.768 95.1277 313.102 97.2013 315.695 97.2013C318.548 97.2013 320.623 94.8685 320.623 92.2764C320.623 89.4252 318.289 87.3516 315.695 87.3516C312.842 87.3516 310.768 89.6844 310.768 92.2764Z" fill="#B1D2EE"/>
<path fill-rule="evenodd" clip-rule="evenodd" d="M207.291 224.73C207.291 227.581 209.625 229.655 212.218 229.655C215.071 229.655 217.146 227.322 217.146 224.73C217.146 221.879 214.812 219.805 212.218 219.805C209.365 219.546 207.291 221.879 207.291 224.73Z" fill="#B1D2EE"/>
<path fill-rule="evenodd" clip-rule="evenodd" d="M310.768 383.881C310.768 386.732 313.102 388.806 315.695 388.806C318.548 388.806 320.623 386.473 320.623 383.881C320.623 381.03 318.289 378.956 315.695 378.956C312.842 378.697 310.768 381.03 310.768 383.881Z" fill="white"/>
<path fill-rule="evenodd" clip-rule="evenodd" d="M119.893 401.507C119.893 404.358 122.227 406.432 124.82 406.432C127.414 406.432 129.748 404.099 129.748 401.507C129.748 398.656 127.414 396.582 124.82 396.582C122.227 396.582 119.893 398.915 119.893 401.507Z" fill="white"/>
<path d="M271.348 234.061L278.35 271.905L247.489 276.571L237.374 238.986L271.348 234.061Z" fill="url(#paint0_linear)"/>
<path d="M156.088 393.244C178.781 393.244 197.176 351.328 197.176 299.622C197.176 247.916 178.781 206 156.088 206C133.396 206 115 247.916 115 299.622C115 351.328 133.396 393.244 156.088 393.244Z" fill="#B1D2EE"/>
<path d="M156.088 497.377C157.067 497.377 157.556 496.644 157.556 495.911V286.422C157.556 285.444 156.822 284.956 156.088 284.956C155.355 284.956 154.621 285.689 154.621 286.422V495.911C154.376 496.644 155.11 497.377 156.088 497.377Z" fill="#92BBE2"/>
<path d="M179 490C179 490 179.628 484.896 202.024 473.982C202.024 473.982 176.766 474.273 165.5 490C165.5 490 160.677 438.388 155.603 420.81L151.317 494.648C151.317 494.648 133.236 462.145 112.139 449.25C112.139 449.25 130.538 489.093 129 508C129 508 144 503.5 154.279 499.858C159.336 500.242 179 490 179 490Z" fill="#B1D2EE"/>
<path d="M156.088 350.955C156.577 350.955 156.822 350.711 157.311 350.466C158.045 349.733 158.045 348.755 157.311 348.266L132.609 323.578C131.876 322.844 130.897 322.844 130.408 323.578C129.674 324.311 129.674 325.289 130.408 325.778L154.865 350.466C155.355 350.711 155.599 350.955 156.088 350.955Z" fill="#92BBE2"/>
<path d="M156.088 319.666C156.577 319.666 156.822 319.422 157.311 319.178C158.045 318.444 158.045 317.466 157.311 316.978L144.838 304.511C144.104 303.778 143.126 303.778 142.637 304.511C141.903 305.244 141.903 306.222 142.637 306.711L155.11 319.178C155.355 319.666 155.599 319.666 156.088 319.666Z" fill="#92BBE2"/>
<path d="M156.088 339.467C156.577 339.467 156.822 339.222 157.311 338.978L178.1 318.2C178.834 317.467 178.834 316.489 178.1 316C177.366 315.267 176.388 315.267 175.899 316L155.11 336.778C154.376 337.511 154.376 338.489 155.11 338.978C155.355 339.222 155.599 339.467 156.088 339.467Z" fill="#92BBE2"/>
<path d="M280.425 274.497L272.645 234.58L268.495 235.616L274.979 275.534L280.425 274.497Z" fill="#AD3160"/>
<path d="M221.555 334.114C218.442 348.111 221.555 355.369 227.001 377.92C232.447 400.47 237.374 523.074 237.374 523.074H257.862L279.647 334.373H221.555V334.114Z" fill="url(#paint1_linear)"/>
<path d="M319.585 259.982C319.585 259.982 354.596 232.247 356.671 228.618C358.746 224.99 363.414 212.289 363.414 212.289L381.653 207.105C381.653 207.105 383.728 207.623 381.135 210.474C378.282 213.066 376.122 210.474 376.122 210.474C376.122 210.474 382.864 216.954 379.752 221.101C379.752 221.101 382.346 228.1 376.64 231.988C370.935 236.135 367.563 234.58 364.192 237.95C360.821 241.579 327.625 276.312 327.625 276.312L319.585 259.982Z" fill="url(#paint2_linear)"/>
<path d="M377.159 226.804C376.9 226.804 376.9 226.804 377.159 226.804C375.862 226.545 373.788 223.694 371.713 220.842C371.454 220.324 371.194 220.065 371.194 220.065C371.194 220.065 370.935 220.324 370.935 220.583C370.416 221.879 369.119 224.73 365.748 226.286H365.489V226.026C368.86 224.471 369.897 221.879 370.416 220.583C370.675 220.065 370.676 219.805 370.935 219.805C370.935 219.805 371.194 219.805 371.194 220.065C371.194 220.324 371.454 220.583 371.972 221.101C373.01 222.916 375.862 226.804 377.159 227.063H377.418C378.715 226.026 376.9 220.324 374.825 217.473C372.75 214.621 367.304 215.399 367.045 215.399C367.045 215.399 366.785 215.399 366.785 215.14C366.785 215.14 366.785 214.881 367.045 214.881C367.304 214.881 373.01 214.103 375.084 217.213C377.159 220.065 379.234 226.026 377.678 227.322C377.418 226.804 377.159 226.804 377.159 226.804Z" fill="#534236"/>
<path d="M372.75 230.433C372.231 230.433 371.972 230.433 371.453 230.174C369.119 229.396 367.304 224.99 367.304 224.73V224.471H367.563C367.563 224.471 369.638 228.878 371.713 229.655C373.528 230.433 377.159 228.878 377.159 228.878H377.418V229.137C377.159 229.396 374.566 230.433 372.75 230.433Z" fill="#534236"/>
<path d="M370.935 214.621C370.935 214.621 370.675 214.621 370.935 214.621C370.675 214.362 370.675 214.362 370.935 214.362L374.825 212.029H375.084V212.288L370.935 214.621Z" fill="#534236"/>
<path d="M255.528 191.552C255.528 191.552 248.785 184.294 244.895 172.889C244.895 172.889 264.346 145.673 297.023 160.188L255.528 191.552Z" fill="#41306A"/>
<path d="M296.763 160.188C296.763 160.188 299.097 177.296 292.873 190.515C286.649 203.735 285.093 203.994 273.941 201.92L272.126 216.436L250.601 208.919C250.601 208.919 258.64 186.109 255.528 181.961C252.675 178.592 251.897 172.371 255.787 170.297C262.012 166.928 266.68 174.185 266.939 177.296L270.051 165.891C270.051 165.891 292.095 158.374 296.763 160.188Z" fill="url(#paint3_linear)"/>
<path d="M290.28 162.003C290.539 162.003 290.539 162.003 290.28 162.003L326.069 154.745C326.588 154.745 327.106 153.968 327.106 153.449C327.106 152.931 326.328 152.412 325.809 152.412L290.28 159.67C289.761 159.67 289.242 160.448 289.242 160.966C289.242 161.484 289.761 162.003 290.28 162.003Z" fill="#BB2A37"/>
<path d="M296.763 160.707L244.636 172.63C244.636 172.63 239.19 147.487 262.012 141.007C284.834 134.527 295.985 149.043 296.763 160.707Z" fill="url(#paint4_linear)"/>
<path d="M284.315 231.729L311.805 255.316L301.172 275.534L282.24 262.056L284.315 231.729Z" fill="url(#paint5_linear)"/>
<path d="M282.759 331.263C282.759 331.263 294.948 255.576 284.574 231.729C274.201 207.882 252.935 199.587 241.005 215.399C229.075 230.951 233.744 256.353 232.706 276.83C230.891 315.192 221.814 327.116 221.555 334.114H282.759V331.263Z" fill="url(#paint6_linear)"/>
<path d="M243.858 238.209L238.152 237.69L244.117 278.645L256.047 277.349L243.858 238.209Z" fill="#AD3160"/>
<path d="M284.574 263.351H343.445V308.712H284.574V263.351Z" fill="url(#paint7_linear)"/>
<path d="M298.06 246.762H329.959V263.351H298.06V246.762Z" fill="url(#paint8_linear)"/>
<path d="M274.46 270.869L278.35 296.011L338.517 306.38C338.517 306.38 343.445 303.269 344.223 299.64C345.001 296.011 348.113 297.826 346.557 301.973C346.557 301.973 349.669 298.863 350.706 303.528C351.744 308.194 351.744 317.785 340.851 320.117C332.034 321.932 280.425 316.489 263.827 314.415C260.715 314.156 258.381 311.823 257.862 308.712L250.86 274.498L274.46 270.869Z" fill="url(#paint9_linear)"/>
<path d="M238.152 237.69L245.933 276.053L277.831 273.201L272.645 234.58" fill="url(#paint10_linear)"/>
<path d="M258 520.5H236.5C234.1 527.7 234.167 534.833 234.5 537.5H284C284.5 535.167 284 530.3 278 529.5C272 528.7 262.167 523.167 258 520.5Z" fill="#CC9753"/>
<rect x="389.259" y="193" width="4" height="43.124" rx="2" transform="rotate(34.2321 389.259 193)" fill="#3E2F66"/>
<rect x="446" y="470" width="311" height="67" rx="4" fill="#92BBE2"/>
<rect x="446" y="467" width="311" height="3" rx="1.5" fill="#3877B4"/>
<rect x="446" y="470" width="101" height="67" rx="4" fill="#B1D2EE"/>
<rect x="551" y="470" width="101" height="67" rx="4" fill="#B1D2EE"/>
<path d="M464 467H626.5V323H464V467Z" fill="#00A1E5"/>
<path d="M559.934 394.739L544.706 379.489L529.479 394.739L544.706 409.989L559.934 394.739Z" fill="white"/>
<path d="M544.698 364.614L574.762 394.723L544.698 424.832L514.634 394.723L544.698 364.614ZM544.698 360.37L542.579 362.492L512.515 392.601L510.396 394.723L512.515 396.845L542.579 426.954L544.698 429.076L546.817 426.954L576.881 396.845L579 394.723L576.881 392.601L546.817 362.492L544.698 360.37Z" fill="white"/>
<path d="M625 467H690V323H625V467Z" fill="#2885AC"/>
<rect x="585" y="434" width="25" height="15" fill="#3D2E65"/>
<circle cx="589.5" cy="438.5" r="1.5" fill="#E35D88"/>
<path d="M672.063 521.677C674.089 520.918 674.343 517.12 673.076 513.323C671.557 509.272 669.024 506.741 666.997 507.247C664.971 508.007 664.717 511.804 665.984 515.601C667.504 519.652 670.29 522.437 672.063 521.677Z" fill="white"/>
<path d="M667.251 534.589C669.277 533.829 669.783 529.779 668.264 525.728C666.744 521.424 663.958 518.64 661.931 519.399C659.905 520.159 659.398 524.209 660.918 528.26C662.438 532.31 665.224 535.095 667.251 534.589Z" fill="white"/>
<path d="M668.77 534.335C669.784 536.361 673.836 536.108 677.636 534.082C681.688 532.057 683.968 528.766 682.955 526.994C681.942 524.968 677.889 525.222 674.09 527.247C670.29 529.272 667.757 532.563 668.77 534.335Z" fill="white"/>
<path d="M688.274 518.133C687.767 516.108 683.968 515.348 679.915 516.361C675.862 517.374 672.823 519.905 673.33 521.677C673.836 523.703 677.636 524.462 681.688 523.449C685.741 522.437 688.781 520.158 688.274 518.133Z" fill="white"/>
<path d="M677.636 510.538C679.662 509.778 679.915 505.981 678.649 502.184C677.129 498.133 674.596 495.601 672.57 496.108C670.543 496.867 670.29 500.665 671.556 504.462C673.076 508.513 675.863 511.297 677.636 510.538Z" fill="white"/>
<path d="M693.593 508.513C693.34 506.487 689.541 505.475 685.488 506.234C681.435 506.994 678.142 509.272 678.649 511.298C678.902 513.323 682.702 514.336 686.754 513.576C691.06 512.817 694.1 510.538 693.593 508.513Z" fill="white"/>
<path d="M683.968 501.171C685.741 500.918 687.008 497.627 686.501 493.576C685.994 489.779 684.221 486.741 682.195 486.994C680.422 487.247 679.155 490.538 679.662 494.589C680.169 498.386 682.195 501.424 683.968 501.171Z" fill="white"/>
<path d="M698.153 498.892C697.899 497.12 694.353 496.108 690.554 496.867C686.754 497.627 683.715 499.652 684.221 501.424C684.475 503.196 688.021 504.209 691.82 503.449C695.62 502.943 698.659 500.918 698.153 498.892Z" fill="white"/>
<path d="M690.301 492.057C692.074 492.057 693.593 489.272 693.847 485.728C694.1 482.184 692.833 479.146 691.06 479.146C689.287 479.146 687.768 481.931 687.514 485.475C687.261 488.766 688.527 491.804 690.301 492.057Z" fill="white"/>
<path d="M691.314 493.07C691.82 494.842 694.86 495.348 698.406 494.589C701.952 493.829 704.485 491.551 703.978 490.032C703.472 488.259 700.432 487.753 696.886 488.513C693.34 489.272 690.807 491.297 691.314 493.07Z" fill="white"/>
<path d="M697.899 483.45C699.419 483.703 701.192 481.424 701.952 478.386C702.712 475.095 702.205 472.31 700.686 472.057C699.166 471.804 697.393 474.083 696.633 477.121C695.873 480.159 696.38 483.197 697.899 483.45Z" fill="white"/>
<path d="M698.406 484.463C698.659 485.981 701.699 486.488 704.738 485.728C708.031 484.969 710.058 483.197 709.804 481.678C709.551 480.159 706.512 479.652 703.472 480.412C700.179 481.171 697.899 482.944 698.406 484.463Z" fill="white"/>
<path d="M706.005 475.855C707.271 476.361 709.045 474.589 710.058 472.057C711.071 469.526 710.818 466.994 709.551 466.488C708.285 465.981 706.512 467.754 705.498 470.285C704.738 472.817 704.992 475.348 706.005 475.855Z" fill="white"/>
<path d="M707.018 477.121C707.271 478.386 709.298 479.146 711.831 478.64C714.364 478.386 716.137 477.121 716.137 475.855C715.884 474.589 713.857 473.83 711.324 474.336C708.791 474.589 707.018 475.855 707.018 477.121Z" fill="white"/>
<path d="M668.264 535.601C668.517 535.601 668.77 535.348 668.77 535.095C673.583 514.082 693.087 485.981 711.071 473.829C711.324 473.576 711.324 473.323 711.324 473.07C711.071 472.817 710.818 472.817 710.564 472.817C692.327 485.222 672.57 513.576 667.757 534.842C667.757 535.348 667.757 535.601 668.264 535.601Z" fill="#3877B4"/>
<path d="M655.852 533.576C657.625 532.311 657.119 528.513 654.586 524.716C652.053 520.918 648.76 518.893 646.987 520.159C645.214 521.425 645.72 525.222 648.253 529.019C650.786 532.817 654.079 534.842 655.852 533.576Z" fill="#7BABD4"/>
<path d="M657.372 533.576C658.638 535.348 662.438 534.842 666.237 532.31C670.037 529.779 672.063 526.488 670.797 524.715C669.53 522.943 665.731 523.45 661.931 525.981C658.132 528.26 656.105 531.804 657.372 533.576Z" fill="#7BABD4"/>
<path d="M658.638 520.918C660.158 519.652 659.398 515.855 656.865 512.564C654.332 509.273 650.786 507.5 649.266 508.766C647.747 510.032 648.507 513.83 651.04 517.121C653.572 520.412 657.119 522.184 658.638 520.918Z" fill="#7BABD4"/>
<path d="M672.823 512.311C671.81 510.538 668.01 511.045 664.464 513.323C660.918 515.602 658.892 518.893 659.905 520.665C660.918 522.437 664.718 521.931 668.264 519.652C671.81 517.374 673.836 514.083 672.823 512.311Z" fill="#7BABD4"/>
<path d="M660.665 509.272C662.184 508.006 661.171 504.209 658.385 501.171C655.599 497.88 652.053 496.361 650.533 497.88C649.013 499.146 650.026 502.943 652.812 505.981C655.599 509.019 659.145 510.538 660.665 509.272Z" fill="#7BABD4"/>
<path d="M674.596 501.171C673.583 499.399 669.783 499.905 666.237 502.184C662.691 504.462 660.665 507.753 661.678 509.272C662.691 511.045 666.491 510.538 670.037 508.26C673.836 506.234 675.863 502.943 674.596 501.171Z" fill="#7BABD4"/>
<path d="M662.691 498.133C664.211 496.867 663.198 493.576 660.918 490.538C658.385 487.5 655.345 485.981 653.826 487.247C652.306 488.513 653.319 491.804 655.599 494.842C658.132 497.88 661.425 499.399 662.691 498.133Z" fill="#7BABD4"/>
<path d="M673.836 488.766C672.57 487.247 669.277 488.513 666.237 491.045C663.451 493.576 661.931 496.867 663.198 498.386C664.464 499.905 667.757 498.639 670.797 496.108C673.583 493.576 675.103 490.285 673.836 488.766Z" fill="#7BABD4"/>
<path d="M663.704 486.741C665.224 485.728 664.718 482.69 662.691 479.652C660.665 476.614 657.879 475.095 656.359 475.855C654.839 476.868 655.346 479.906 657.372 482.944C659.398 485.982 662.185 487.5 663.704 486.741Z" fill="#7BABD4"/>
<path d="M665.224 486.994C666.491 488.007 669.53 486.741 671.81 483.956C674.089 481.171 674.849 477.88 673.583 476.867C672.316 475.855 669.277 477.121 666.997 479.905C664.464 482.69 663.704 485.728 665.224 486.994Z" fill="#7BABD4"/>
<path d="M665.224 474.589C666.491 473.829 666.237 470.791 664.464 468.007C662.691 465.222 660.158 463.703 658.892 464.462C657.625 465.222 657.879 468.26 659.652 471.045C661.425 473.829 663.704 475.348 665.224 474.589Z" fill="#7BABD4"/>
<path d="M666.237 475.095C667.504 475.855 670.037 474.336 671.557 471.551C673.33 468.766 673.583 465.728 672.063 464.969C670.797 464.209 668.264 465.728 666.744 468.513C664.971 471.298 664.718 474.336 666.237 475.095Z" fill="#7BABD4"/>
<path d="M665.224 463.45C666.491 462.691 666.237 460.412 664.971 457.88C663.704 455.349 661.678 454.083 660.411 454.589C659.145 455.349 659.398 457.627 660.665 460.159C662.185 462.691 664.211 464.209 665.224 463.45Z" fill="#7BABD4"/>
<path d="M665.984 463.197C666.997 463.956 669.277 462.944 671.05 460.918C672.823 458.64 673.33 456.361 672.316 455.349C671.303 454.589 669.024 455.602 667.251 457.627C665.731 459.906 664.971 462.437 665.984 463.197Z" fill="#7BABD4"/>
<path d="M665.731 451.551C666.997 450.792 666.744 448.513 665.477 445.982C664.211 443.45 662.185 442.184 660.918 442.691C659.652 443.45 659.905 445.729 661.171 448.26C662.438 450.792 664.464 452.311 665.731 451.551Z" fill="#7BABD4"/>
<path d="M666.491 451.551C667.504 452.311 669.783 451.298 671.556 449.273C673.33 446.994 673.836 444.716 672.823 443.703C671.81 442.944 669.53 443.956 667.757 445.982C665.984 448.26 665.477 450.538 666.491 451.551Z" fill="#7BABD4"/>
<path d="M665.731 440.159C666.744 439.399 666.491 437.121 664.971 434.843C663.451 432.564 661.425 431.551 660.411 432.058C659.398 432.817 659.652 435.096 661.171 437.374C662.438 439.653 664.718 440.665 665.731 440.159Z" fill="#7BABD4"/>
<path d="M666.491 439.906C667.504 440.665 669.53 439.399 671.05 437.121C672.57 434.843 672.823 432.564 671.81 431.805C670.797 431.045 668.77 432.311 667.25 434.589C665.731 436.868 665.224 439.146 666.491 439.906Z" fill="#7BABD4"/>
<path d="M665.224 430.032C665.984 429.273 665.477 427.247 663.958 425.475C662.438 423.703 660.411 422.69 659.652 423.45C658.892 424.209 659.398 426.235 660.918 428.007C662.438 430.032 664.211 430.792 665.224 430.032Z" fill="#7BABD4"/>
<path d="M665.731 429.779C666.744 430.286 668.517 429.02 669.53 426.994C670.543 424.969 670.797 422.691 669.783 422.184C668.77 421.678 666.997 422.944 665.984 424.969C664.971 427.248 664.718 429.273 665.731 429.779Z" fill="#7BABD4"/>
<path d="M664.211 420.918C664.971 420.412 664.464 418.64 663.198 416.868C661.931 415.349 660.158 414.589 659.398 415.096C658.638 415.602 659.145 417.374 660.411 419.146C661.678 420.665 663.451 421.425 664.211 420.918Z" fill="#7BABD4"/>
<path d="M663.704 415.855C664.464 415.602 664.717 414.083 664.211 412.564C663.704 411.045 662.691 409.779 661.931 410.032C661.171 410.286 660.918 411.805 661.425 413.324C661.931 414.842 662.944 416.108 663.704 415.855Z" fill="#7BABD4"/>
<path d="M664.718 420.665C665.477 421.172 666.997 419.906 668.01 418.134C669.024 416.361 669.024 414.589 668.264 414.083C667.504 413.577 665.984 414.842 664.971 416.615C663.958 418.387 663.704 420.159 664.718 420.665Z" fill="#7BABD4"/>
<path d="M656.105 535.601C656.359 535.601 656.612 535.348 656.612 535.095C656.865 534.335 673.076 464.969 663.958 415.602C663.958 415.349 663.704 415.095 663.451 415.095C663.198 415.095 662.944 415.349 662.944 415.602C672.063 464.715 655.852 533.829 655.599 534.589C655.599 535.348 655.852 535.601 656.105 535.601Z" fill="#3877B4"/>
<path d="M641.161 535.095C642.681 533.829 641.668 529.779 638.881 526.488C636.095 522.943 632.296 521.424 630.776 522.69C629.256 523.956 630.269 528.007 633.055 531.298C635.842 534.589 639.641 536.361 641.161 535.095Z" fill="#B1D2EE"/>
<path d="M642.681 534.589C644.2 536.108 648 534.589 651.039 531.298C654.079 528.007 655.092 524.209 653.572 522.69C652.053 521.171 648.253 522.69 645.214 525.981C642.174 529.272 641.161 533.07 642.681 534.589Z" fill="#B1D2EE"/>
<path d="M641.667 521.931C642.934 520.412 641.161 516.868 637.868 514.336C634.575 511.805 630.776 511.045 629.509 512.564C628.243 514.083 630.016 517.627 633.309 520.159C636.602 522.944 640.401 523.703 641.667 521.931Z" fill="#B1D2EE"/>
<path d="M653.319 510.285C651.799 509.02 648.253 510.285 645.467 513.323C642.681 516.361 641.414 520.159 642.934 521.425C644.454 522.69 648 521.425 650.786 518.387C653.572 515.349 654.586 511.551 653.319 510.285Z" fill="#B1D2EE"/>
<path d="M640.148 510.032C641.161 508.26 639.135 505.222 635.335 502.943C631.789 500.665 627.989 500.412 626.976 502.184C625.963 503.956 627.989 506.994 631.789 509.273C635.335 511.551 639.135 511.804 640.148 510.032Z" fill="#B1D2EE"/>
<path d="M651.293 498.386C649.773 497.121 646.227 498.64 643.441 501.931C640.654 505.222 639.641 508.766 641.414 510.285C642.934 511.551 646.48 510.032 649.266 506.741C651.799 503.45 652.813 499.652 651.293 498.386Z" fill="#B1D2EE"/>
<path d="M638.121 498.64C639.135 497.121 637.108 494.083 633.815 492.058C630.523 490.032 626.976 489.526 625.963 491.298C624.95 492.817 626.976 495.855 630.269 497.88C633.815 499.652 637.108 500.159 638.121 498.64Z" fill="#B1D2EE"/>
<path d="M645.467 485.981C643.694 484.969 640.908 487.247 639.135 490.538C637.361 494.083 637.108 497.627 638.628 498.386C640.401 499.399 643.187 497.121 644.96 493.83C646.987 490.538 647.24 486.994 645.467 485.981Z" fill="#B1D2EE"/>
<path d="M634.828 488.513C635.842 486.994 634.068 484.209 631.029 482.184C627.989 480.159 624.696 479.653 623.937 481.172C622.923 482.69 624.696 485.475 627.736 487.501C630.522 489.526 633.815 490.032 634.828 488.513Z" fill="#B1D2EE"/>
<path d="M636.095 488.26C637.868 488.766 639.894 486.235 640.908 482.944C641.921 479.399 641.414 476.361 639.641 475.855C637.868 475.349 635.842 477.88 634.828 481.171C634.069 484.463 634.575 487.754 636.095 488.26Z" fill="#B1D2EE"/>
<path d="M630.776 478.134C631.536 476.868 630.016 474.336 627.483 472.564C624.697 470.792 621.91 470.286 620.897 471.805C620.137 473.071 621.657 475.602 624.19 477.374C627.23 479.146 630.016 479.4 630.776 478.134Z" fill="#B1D2EE"/>
<path d="M632.042 478.133C633.562 478.387 635.082 475.855 635.335 472.564C635.588 469.273 634.575 466.488 633.055 466.488C631.536 466.235 630.016 468.766 629.762 472.057C629.509 475.095 630.522 477.88 632.042 478.133Z" fill="#B1D2EE"/>
<path d="M625.963 469.02C626.47 467.754 624.95 465.728 622.67 464.463C620.137 463.197 617.604 463.197 617.098 464.209C616.591 465.475 618.111 467.501 620.391 468.766C622.923 470.285 625.203 470.285 625.963 469.02Z" fill="#B1D2EE"/>
<path d="M624.19 464.463C625.203 463.703 624.697 461.425 623.177 459.399C621.657 457.374 619.631 456.361 618.617 456.868C617.604 457.627 618.111 459.906 619.631 461.931C621.404 464.21 623.177 465.222 624.19 464.463Z" fill="#B1D2EE"/>
<path d="M627.23 468.26C628.496 468.26 629.256 466.235 629.256 463.703C629.256 461.172 628.243 459.146 626.976 459.146C625.71 459.146 624.95 461.172 624.95 463.703C624.95 466.235 625.963 468.26 627.23 468.26Z" fill="#B1D2EE"/>
<path d="M641.667 535.602C641.921 535.602 642.174 535.349 642.174 535.096C644.707 508.26 634.575 479.653 623.683 463.197C623.43 462.944 623.177 462.944 622.923 462.944C622.67 463.197 622.67 463.45 622.67 463.703C633.562 480.159 643.187 508.513 640.908 535.096C641.161 535.349 641.414 535.602 641.667 535.602Z" fill="#3877B4"/>
</g>
<defs>
<linearGradient id="paint0_linear" x1="220.708" y1="255.334" x2="288.888" y2="255.334" gradientUnits="userSpaceOnUse">
<stop stop-color="#EC6795"/>
<stop offset="1" stop-color="#C94263"/>
</linearGradient>
<linearGradient id="paint1_linear" x1="220.255" y1="428.532" x2="279.783" y2="428.532" gradientUnits="userSpaceOnUse">
<stop stop-color="#44316D"/>
<stop offset="1" stop-color="#362B5C"/>
</linearGradient>
<linearGradient id="paint2_linear" x1="319.641" y1="236.827" x2="387.205" y2="236.827" gradientUnits="userSpaceOnUse">
<stop stop-color="#F7D8DB"/>
<stop offset="1" stop-color="#F0B0B1"/>
</linearGradient>
<linearGradient id="paint3_linear" x1="296.781" y1="172.993" x2="254.609" y2="199.294" gradientUnits="userSpaceOnUse">
<stop stop-color="#F7D8DB"/>
<stop offset="1" stop-color="#F0B0B1"/>
</linearGradient>
<linearGradient id="paint4_linear" x1="289.899" y1="143.272" x2="244.107" y2="173.057" gradientUnits="userSpaceOnUse">
<stop stop-color="#C94263"/>
<stop offset="1" stop-color="#EC6795"/>
</linearGradient>
<linearGradient id="paint5_linear" x1="282.312" y1="253.6" x2="311.714" y2="253.6" gradientUnits="userSpaceOnUse">
<stop stop-color="#C94263"/>
<stop offset="1" stop-color="#C94263"/>
</linearGradient>
<linearGradient id="paint6_linear" x1="233.965" y1="263.621" x2="289.307" y2="309.302" gradientUnits="userSpaceOnUse">
<stop stop-color="#EC6795"/>
<stop offset="1" stop-color="#C94263"/>
</linearGradient>
<linearGradient id="paint7_linear" x1="284.578" y1="285.966" x2="343.424" y2="285.966" gradientUnits="userSpaceOnUse">
<stop stop-color="#C38E4A"/>
<stop offset="1" stop-color="#D6A15D"/>
</linearGradient>
<linearGradient id="paint8_linear" x1="297.993" y1="255.001" x2="330.008" y2="255.001" gradientUnits="userSpaceOnUse">
<stop stop-color="#D79C66"/>
<stop offset="1" stop-color="#EAB37C"/>
</linearGradient>
<linearGradient id="paint9_linear" x1="251.048" y1="295.544" x2="351.323" y2="295.544" gradientUnits="userSpaceOnUse">
<stop stop-color="#F7D8DB"/>
<stop offset="1" stop-color="#F0B0B1"/>
</linearGradient>
<linearGradient id="paint10_linear" x1="248.816" y1="245.737" x2="301.599" y2="294.35" gradientUnits="userSpaceOnUse">
<stop stop-color="#EC6795"/>
<stop offset="1" stop-color="#C94263"/>
</linearGradient>
<clipPath id="clip0">
<rect width="708" height="537" fill="white"/>
</clipPath>
</defs>
</svg>
