<svg width="203" height="122" viewBox="0 0 203 122" fill="none" xmlns="http://www.w3.org/2000/svg">
<g clip-path="url(#clip0)">
<path d="M2.31119 103.468H18.1044C18.1044 102.696 18.1044 101.924 18.1044 101.152C18.1044 99.6077 18.1044 98.0633 18.4896 96.519H2.31119V103.468Z" fill="#403068"/>
<path d="M114.019 71.0377H2.31119V96.5187H18.4896C20.8008 84.9365 30.8159 76.0567 43.1423 76.0567C55.4687 76.0567 65.4839 84.9365 67.7951 96.5187H114.404V71.0377H114.019Z" fill="#9B8579"/>
<path d="M67.4099 96.519C67.7951 98.0633 67.7951 99.6077 67.7951 101.152C67.7951 101.924 67.7951 102.696 67.7951 103.468H114.019V96.519H67.4099Z" fill="#403068"/>
<path d="M168.717 32.4302H116.715V71.0378H197.222L181.044 67.9492L168.717 32.4302Z" fill="#EC6795"/>
<path d="M116.715 103.468H126.345C126.345 102.696 126.345 101.924 126.345 101.152C126.345 87.639 137.516 76.4428 150.998 76.4428C164.48 76.4428 175.651 87.639 175.651 101.152C175.651 101.924 175.651 102.696 175.651 103.468H197.992V71.0377H117.101V103.468H116.715Z" fill="#C94263"/>
<path d="M203 79.9176C203 76.829 201.459 74.1265 199.148 74.1265V85.7087C201.459 86.0948 203 83.3923 203 79.9176Z" fill="#FBB040"/>
<path d="M63.5579 101.152C63.5579 112.734 54.3131 122 42.7571 122C31.2011 122 21.9564 112.734 21.9564 101.152C21.9564 89.5698 31.2011 80.304 42.7571 80.304C54.3131 80.304 63.5579 89.5698 63.5579 101.152Z" fill="#403068"/>
<path d="M53.1575 101.152C53.1575 106.943 48.5351 111.576 42.7571 111.576C36.9791 111.576 32.3567 106.943 32.3567 101.152C32.3567 95.3608 36.9791 90.7279 42.7571 90.7279C48.5351 90.7279 53.1575 95.3608 53.1575 101.152Z" fill="#DCC172"/>
<path d="M171.414 101.152C171.414 112.734 162.169 122 150.613 122C139.057 122 129.812 112.734 129.812 101.152C129.812 89.5698 139.057 80.304 150.613 80.304C162.169 80.304 171.414 89.5698 171.414 101.152Z" fill="#403068"/>
<path d="M161.013 101.152C161.013 106.943 156.391 111.576 150.613 111.576C144.835 111.576 140.213 106.943 140.213 101.152C140.213 95.3608 144.835 90.7279 150.613 90.7279C156.391 90.7279 161.013 95.3608 161.013 101.152Z" fill="#DCC172"/>
<path d="M165.636 67.9494H132.894V38.6077H156.391L165.636 67.9494Z" fill="#E5E5E5"/>
<path d="M181.044 67.9491L172.954 66.0187L163.71 38.6073L171.028 38.2212L181.044 67.9491Z" fill="#E5E5E5"/>
<path d="M199.148 71.0377H197.222V103.468H199.148V71.0377Z" fill="#403068"/>
<path d="M139.057 72.5823C139.057 73.3544 138.672 73.7405 137.901 73.7405H130.968C130.197 73.7405 129.812 73.3544 129.812 72.5823C129.812 71.8101 130.197 71.4241 130.968 71.4241H137.901C138.672 71.4241 139.057 71.8101 139.057 72.5823Z" fill="#403068"/>
<path d="M186.051 76.4427C186.051 77.2149 185.281 77.601 184.51 77.601C183.74 77.601 182.97 77.2149 182.97 76.4427V76.0567C182.97 75.2845 183.74 74.8984 184.51 74.8984C185.281 74.8984 186.051 75.2845 186.051 76.0567V76.4427Z" fill="#F9ED32"/>
<path d="M2.3112 84.9368H0V96.133H2.3112V84.9368Z" fill="#C94263"/>
<path d="M112.863 0H2.31119V71.424H112.863V0Z" fill="#BC7528"/>
<path d="M108.626 3.08887H6.54837V71.4243H108.626V3.08887Z" fill="#D19A4A"/>
</g>
<defs>
<clipPath id="clip0">
<rect width="203" height="122" fill="white"/>
</clipPath>
</defs>
</svg>
