<svg width="127" height="141" viewBox="0 0 127 141" fill="none" xmlns="http://www.w3.org/2000/svg">
<g clip-path="url(#clip0)">
<path d="M58.8762 0H33.9078V125.915H58.8762C63.8083 125.915 67.8155 121.913 67.8155 116.987V9.23581C67.8155 4.00218 63.8083 0 58.8762 0Z" fill="#403068"/>
<path d="M8.93932 0C4.00728 0 0 4.00218 0 8.92795V116.679C0 121.605 4.00728 125.607 8.93932 125.607H33.9078V0H8.93932Z" fill="#367A97"/>
<path d="M47.4709 4.92603H20.0364V7.08105H47.4709V4.92603Z" fill="white"/>
<path d="M33.9078 122.22C29.9005 122.22 26.5097 118.834 26.5097 114.832C26.5097 110.829 29.9005 107.443 33.9078 107.443C37.9151 107.443 41.3058 110.829 41.3058 114.832C41.3058 118.834 37.9151 122.22 33.9078 122.22ZM33.9078 108.982C30.8253 108.982 28.051 111.753 28.051 114.832C28.051 117.91 30.8253 120.681 33.9078 120.681C36.9903 120.681 39.7646 117.91 39.7646 114.832C39.7646 111.445 36.9903 108.982 33.9078 108.982Z" fill="white"/>
<path d="M34.216 13.5457H3.39078V102.825H34.216H64.4248V13.5457H34.216Z" fill="#B1D2EE"/>
<path d="M127 121.913L116.828 114.524C116.828 114.524 109.121 91.4345 104.806 88.6638C102.956 86.2009 99.8738 80.3516 98.0243 74.8101C93.4005 68.9607 92.1675 68.0372 86.6189 61.88C81.9951 66.19 84.7694 71.7315 86.6189 77.5808C89.0849 81.583 95.25 86.8166 92.1675 88.9717C88.1602 91.4345 77.0631 80.6594 77.0631 80.6594C69.9733 71.1158 57.3349 55.7228 53.6359 56.3385C52.0946 56.6463 49.3204 58.1856 50.2451 61.2642C51.1699 64.3428 65.0412 80.3516 66.5825 82.8145C72.131 89.5874 61.9587 90.8188 62.267 95.4367C62.5752 99.7468 57.9514 108.367 58.8762 112.677C59.8009 116.987 71.8228 127.454 77.6796 129.609C86.6189 132.688 94.3252 128.993 101.723 134.843C104.498 136.998 107.272 139.461 109.121 141.616C115.903 135.766 122.068 129.301 127 121.913Z" fill="#FFCD94"/>
</g>
<defs>
<clipPath id="clip0">
<rect width="127" height="141" fill="white"/>
</clipPath>
</defs>
</svg>
