<svg width="229" height="154" viewBox="0 0 229 154" fill="none" xmlns="http://www.w3.org/2000/svg">
<g clip-path="url(#clip0)">
<path d="M114.5 137.72L113.179 136.4V135.96H112.738V136.4L111.417 137.72L84.1135 154H112.738H113.179H142.244L114.5 137.72Z" fill="#2885AC"/>
<path d="M122.867 129.36H103.05V143H122.867V129.36Z" fill="black"/>
<path d="M37.4327 122.76V30.3598H113.179V12.7598H23.7808V133.32H113.179V122.76H37.4327Z" fill="#B1D2EE"/>
<path d="M202.137 12.7598H113.179V30.3598H188.485V122.76H113.179V133.32H202.137V12.7598Z" fill="#B1D2EE"/>
<path d="M192.008 27.28H34.7904V117.04H192.008V27.28Z" fill="white"/>
<path d="M31.2673 22.8799V112.64V122.32H36.9923H188.485H194.21V112.64V22.8799H31.2673ZM37.4327 113.08V30.3599H188.925V112.64H37.4327V113.08Z" fill="#383838"/>
<path d="M124.629 89.3203H97.325C96.4442 89.3203 95.5635 88.4403 95.5635 87.5603C95.5635 86.6803 96.4442 85.8003 97.325 85.8003H123.308L130.794 59.8403C130.794 58.9603 131.675 58.5203 132.556 58.5203H143.565C144.446 58.5203 145.327 59.4003 145.327 60.2803C145.327 61.1603 144.446 62.0403 143.565 62.0403H133.877L126.39 88.0003C126.39 88.8803 125.51 89.3203 124.629 89.3203Z" fill="#FFA800"/>
<path d="M102.169 105.16C99.0865 105.16 96.4442 102.52 96.4442 99.4402C96.4442 96.3602 99.0865 93.7202 102.169 93.7202C105.252 93.7202 107.894 96.3602 107.894 99.4402C108.335 102.52 105.692 105.16 102.169 105.16ZM102.169 96.8002C100.848 96.8002 99.9673 97.6802 99.9673 99.0002C99.9673 100.32 100.848 101.2 102.169 101.2C103.49 101.2 104.371 100.32 104.371 99.0002C104.812 97.6802 103.49 96.8002 102.169 96.8002Z" fill="#FFA800"/>
<path d="M119.785 105.16C116.702 105.16 114.06 102.52 114.06 99.4402C114.06 96.3602 116.702 93.7202 119.785 93.7202C122.867 93.7202 125.51 96.3602 125.51 99.4402C125.51 102.52 122.867 105.16 119.785 105.16ZM119.785 96.8002C118.463 96.8002 117.583 97.6802 117.583 99.0002C117.583 100.32 118.463 101.2 119.785 101.2C121.106 101.2 121.987 100.32 121.987 99.0002C121.987 97.6802 121.106 96.8002 119.785 96.8002Z" fill="#FFA800"/>
<path d="M97.325 83.1611C96.8846 83.1611 96.4442 82.7211 96.0038 82.2811L88.9577 62.9211C88.9577 62.4811 88.9577 61.6011 89.8385 61.6011C90.2788 61.6011 91.1596 61.6011 91.1596 62.4811L98.2058 81.8411C98.6461 81.8411 98.6462 82.7211 97.325 83.1611C97.7654 83.1611 97.7654 83.1611 97.325 83.1611Z" fill="#FFA800"/>
<path d="M103.05 83.1611C102.61 83.1611 102.169 82.7211 101.729 82.2811L97.325 62.9211C97.325 62.4811 97.7654 61.6011 98.2058 61.6011C98.6462 61.6011 99.5269 62.0411 99.5269 62.4811L103.931 81.8411C104.371 82.2811 103.931 82.7211 103.05 83.1611C103.49 83.1611 103.49 83.1611 103.05 83.1611Z" fill="#FFA800"/>
<path d="M109.215 83.1611C108.775 83.1611 107.894 82.7211 107.894 82.2811L106.133 62.9211C106.133 62.4811 106.573 61.6011 107.013 61.6011C107.454 61.6011 108.335 62.0411 108.335 62.4811L110.096 81.8411C110.096 82.2811 109.656 82.7211 109.215 83.1611Z" fill="#FFA800"/>
<path d="M114.94 83.1607C114.06 83.1607 113.619 82.7207 113.619 81.8407L114.5 62.4806C114.5 62.0406 114.94 61.1606 115.821 61.1606C116.262 61.1606 117.142 61.6006 117.142 62.4806L116.262 81.8407C115.821 82.2807 115.381 83.1607 114.94 83.1607Z" fill="#FFA800"/>
<path d="M120.665 83.1611C120.665 83.1611 120.225 83.1611 120.665 83.1611C119.785 83.1611 119.344 82.2811 119.344 81.8411L122.867 62.4811C122.867 62.0411 123.748 61.6011 124.188 61.6011C124.629 61.6011 125.069 62.4811 125.069 62.9211L121.546 82.2811C121.546 82.7211 121.106 83.1611 120.665 83.1611Z" fill="#FFA800"/>
<path d="M123.308 63.3602H90.2789C89.8385 63.3602 88.9577 62.9202 88.9577 62.0402C88.9577 61.6002 89.3981 60.7202 90.2789 60.7202H123.308C123.748 60.7202 124.629 61.1602 124.629 62.0402C124.629 62.9202 124.188 63.3602 123.308 63.3602Z" fill="#FFA800"/>
<path d="M122.427 68.2005H92.0404C91.6 68.2005 90.7192 67.7605 90.7192 66.8805C90.7192 66.4405 91.1596 65.5605 92.0404 65.5605H122.427C122.867 65.5605 123.748 66.0005 123.748 66.8805C123.748 67.7605 123.308 68.2005 122.427 68.2005Z" fill="#FFA800"/>
<path d="M121.987 73.0401H94.2423C93.8019 73.0401 92.9212 72.6001 92.9212 71.7201C92.9212 71.2801 93.3616 70.4001 94.2423 70.4001H121.987C122.427 70.4001 123.308 70.8401 123.308 71.7201C122.867 72.6001 122.427 73.0401 121.987 73.0401Z" fill="#FFA800"/>
<path d="M121.106 78.3199H95.5635C95.1231 78.3199 94.2423 77.8799 94.2423 76.9999C94.2423 76.5599 94.6827 75.6799 95.5635 75.6799H121.106C121.546 75.6799 122.427 76.1199 122.427 76.9999C122.427 77.4399 121.546 78.3199 121.106 78.3199Z" fill="#FFA800"/>
<path d="M120.225 83.1603H97.325C96.8846 83.1603 96.0038 82.7203 96.0038 81.8403C96.0038 81.4003 96.4442 80.5203 97.325 80.5203H120.225C120.665 80.5203 121.546 80.9603 121.546 81.8403C121.546 82.2803 121.106 83.1603 120.225 83.1603Z" fill="#FFA800"/>
<path d="M70.4616 0L58.5712 44H81.0308L88.0769 0H70.4616Z" fill="#B1D2EE"/>
<path d="M88.0769 0L81.0308 44H103.49L105.692 0H88.0769Z" fill="#EC6795"/>
<path d="M52.4058 0L36.5519 44H58.5712L70.4616 0H52.4058Z" fill="#EC6795"/>
<path d="M21.1385 0L0 44H14.0923L34.7904 0H21.1385Z" fill="#EC6795"/>
<path d="M34.7904 0L14.0923 44H36.5519L52.4058 0H34.7904Z" fill="#B1D2EE"/>
<path d="M105.692 0L103.49 44H125.95L123.308 0H105.692Z" fill="#B1D2EE"/>
<path d="M229 44L207.862 0H194.65L215.348 44H229Z" fill="#EC6795"/>
<path d="M194.65 0H176.594L192.888 44H215.348L194.65 0Z" fill="#B1D2EE"/>
<path d="M141.363 0L147.969 44H170.429L158.979 0H141.363Z" fill="#B1D2EE"/>
<path d="M158.979 0L170.429 44H192.888L176.594 0H158.979Z" fill="#EC6795"/>
<path d="M123.308 0L125.95 44H147.969L141.363 0H123.308Z" fill="#EC6795"/>
<path d="M81.0308 44H58.5712V52.36H81.0308V44Z" fill="#7BABD4"/>
<path d="M103.49 44H81.0308V52.36H103.49V44Z" fill="#C94263"/>
<path d="M125.95 44H103.49V52.36H125.95V44Z" fill="#7BABD4"/>
<path d="M14.0923 44H0V52.36H14.0923V44Z" fill="#C94263"/>
<path d="M59.0116 44H36.5519V52.36H59.0116V44Z" fill="#C94263"/>
<path d="M36.5519 44H14.0923V52.36H36.5519V44Z" fill="#7BABD4"/>
<path d="M229.44 44H215.348V52.36H229.44V44Z" fill="#C94263"/>
<path d="M215.348 44H192.888V52.36H215.348V44Z" fill="#7BABD4"/>
<path d="M192.888 44H170.429V52.36H192.888V44Z" fill="#C94263"/>
<path d="M148.41 44H125.95V52.36H148.41V44Z" fill="#C94263"/>
<path d="M170.429 44H147.969V52.36H170.429V44Z" fill="#7BABD4"/>
</g>
<defs>
<clipPath id="clip0">
<rect width="229" height="154" fill="white"/>
</clipPath>
</defs>
</svg>
