<svg width="1638" height="355" viewBox="0 0 1638 355" fill="none" xmlns="http://www.w3.org/2000/svg">
<g opacity="0.16">
<path d="M134.4 217.4C135.2 217.4 135.867 217.933 136.4 219C137.2 219.8 137.333 220.6 136.8 221.4C127.467 229.933 117.867 236.2 108 240.2C98.4 243.933 88 245.8 76.8 245.8C60.8 245.8 46.9333 242.333 35.2 235.4C23.7333 228.2 14.9333 218.733 8.8 207C2.93333 195.267 0 182.6 0 169C0 153.267 3.73333 138.867 11.2 125.8C18.9333 112.467 29.4667 102.067 42.8 94.5999C56.4 86.8666 71.3333 83 87.6 83C102.533 83 114.133 86.6 122.4 93.8C130.667 100.733 134.8 110.333 134.8 122.6C134.8 129.267 133.333 132.6 130.4 132.6H111.2L32.4 133.4C31.3333 138.733 30.8 145.267 30.8 153C30.8 175.933 36.2667 194.467 47.2 208.6C58.4 222.733 73.7333 229.8 93.2 229.8C108.667 229.8 122.267 225.667 134 217.4H134.4ZM73.6 91C63.7333 91 55.3333 94.2 48.4 100.6C41.4667 106.733 36.5333 115.533 33.6 127L102.4 125.4C102.133 114.733 99.4667 106.333 94.4 100.2C89.3333 94.0666 82.4 91 73.6 91Z" fill="white"/>
<path d="M322.453 236.2C322.986 236.2 323.253 237 323.253 238.6C323.253 240.2 322.986 241 322.453 241L309.253 240.6C306.053 240.333 301.52 240.2 295.653 240.2L268.853 240.6C265.12 240.867 259.786 241 252.853 241C252.053 241 251.653 240.2 251.653 238.6C251.653 237 252.053 236.2 252.853 236.2C260.853 236.2 264.853 234.467 264.853 231C264.853 228.867 263.253 225.4 260.053 220.6L230.853 176.6L210.053 206.6C204.453 215.133 201.653 221.533 201.653 225.8C201.653 232.733 208.72 236.2 222.853 236.2C223.653 236.2 224.053 237 224.053 238.6C224.053 240.2 223.653 241 222.853 241C215.653 241 210.32 240.867 206.853 240.6L182.853 240.2L168.053 240.6C165.12 240.867 160.586 241 154.453 241C153.92 241 153.653 240.2 153.653 238.6C153.653 237 153.92 236.2 154.453 236.2C161.92 236.2 169.92 233.4 178.453 227.8C186.986 222.2 194.853 214.333 202.053 204.2L226.453 170.2L192.853 119.8C186.72 110.2 180.32 103.133 173.653 98.6C167.253 93.8 161.52 91.4 156.453 91.4C155.92 91.4 155.653 90.6 155.653 89C155.653 87.4 155.92 86.6 156.453 86.6C162.053 86.6 166.186 86.7333 168.853 87L181.253 87.4L208.053 87C211.786 86.7333 217.12 86.6 224.053 86.6C224.586 86.6 224.853 87.4 224.853 89C224.853 90.6 224.586 91.4 224.053 91.4C220.053 91.4 217.12 91.8 215.253 92.6C213.386 93.4 212.453 94.7333 212.453 96.5999C212.453 98.7333 214.053 102.2 217.253 107L243.653 146.6L260.853 121C266.72 112.2 269.653 105.667 269.653 101.4C269.653 97.9333 267.92 95.4 264.453 93.8C260.986 92.2 255.52 91.4 248.053 91.4C247.52 91.4 247.253 90.6 247.253 89C247.253 87.4 247.52 86.6 248.053 86.6C255.253 86.6 260.72 86.7333 264.453 87L288.453 87.4L303.253 87C306.186 86.7333 310.72 86.6 316.853 86.6C317.386 86.6 317.653 87.4 317.653 89C317.653 90.6 317.386 91.4 316.853 91.4C309.386 91.4 301.52 94.2 293.253 99.8C284.986 105.133 276.986 113 269.253 123.4L247.653 153L284.053 207.8C290.453 217.667 296.986 224.867 303.653 229.4C310.586 233.933 316.853 236.2 322.453 236.2Z" fill="white"/>
<path d="M454.234 81.4C465.434 81.4 475.701 84.3333 485.034 90.2C494.634 96.0666 502.234 104.6 507.834 115.8C513.434 127 516.234 140.067 516.234 155C516.234 175.533 511.701 192.733 502.634 206.6C493.834 220.2 482.768 230.2 469.434 236.6C456.101 243 442.768 246.2 429.434 246.2C421.701 246.2 414.768 245.533 408.634 244.2C402.768 243.133 396.501 241.133 389.834 238.2V318.6C389.834 326.6 390.768 332.467 392.634 336.2C394.501 339.933 398.101 342.467 403.434 343.8C408.768 345.4 417.034 346.2 428.234 346.2C429.034 346.2 429.434 347 429.434 348.6C429.434 350.2 429.034 351 428.234 351C418.901 351 411.568 350.867 406.234 350.6L376.234 350.2L353.834 350.6C350.101 350.867 344.901 351 338.234 351C337.434 351 337.034 350.2 337.034 348.6C337.034 347 337.434 346.2 338.234 346.2C345.168 346.2 350.368 345.4 353.834 343.8C357.301 342.467 359.568 339.933 360.634 336.2C361.968 332.467 362.634 326.6 362.634 318.6V131.4C362.634 122.333 361.568 115.8 359.434 111.8C357.301 107.533 353.701 105.4 348.634 105.4C343.568 105.4 336.768 107.4 328.234 111.4H327.834C326.768 111.4 325.968 110.733 325.434 109.4C324.634 108.067 324.768 107.267 325.834 107L374.234 83.8L376.634 83C379.834 83 382.634 85.6666 385.034 91C387.701 96.3333 389.301 103.667 389.834 113C410.901 91.9333 432.368 81.4 454.234 81.4ZM440.234 237.4C454.101 237.4 465.168 231.4 473.434 219.4C481.701 207.133 485.834 189.8 485.834 167.4C485.834 145.533 481.034 128.733 471.434 117C461.834 105 449.568 99 434.634 99C426.101 99 418.234 100.867 411.034 104.6C404.101 108.333 397.034 113.667 389.834 120.6V213.8C396.768 221.533 404.101 227.4 411.834 231.4C419.568 235.4 429.034 237.4 440.234 237.4Z" fill="white"/>
<path d="M678.931 217.4C679.731 217.4 680.398 217.933 680.931 219C681.731 219.8 681.865 220.6 681.331 221.4C671.998 229.933 662.398 236.2 652.531 240.2C642.931 243.933 632.531 245.8 621.331 245.8C605.331 245.8 591.465 242.333 579.731 235.4C568.265 228.2 559.465 218.733 553.331 207C547.465 195.267 544.531 182.6 544.531 169C544.531 153.267 548.265 138.867 555.731 125.8C563.465 112.467 573.998 102.067 587.331 94.5999C600.931 86.8666 615.865 83 632.131 83C647.065 83 658.665 86.6 666.931 93.8C675.198 100.733 679.331 110.333 679.331 122.6C679.331 129.267 677.865 132.6 674.931 132.6H655.731L576.931 133.4C575.865 138.733 575.331 145.267 575.331 153C575.331 175.933 580.798 194.467 591.731 208.6C602.931 222.733 618.265 229.8 637.731 229.8C653.198 229.8 666.798 225.667 678.531 217.4H678.931ZM618.131 91C608.265 91 599.865 94.2 592.931 100.6C585.998 106.733 581.065 115.533 578.131 127L646.931 125.4C646.665 114.733 643.998 106.333 638.931 100.2C633.865 94.0666 626.931 91 618.131 91Z" fill="white"/>
<path d="M808.184 83C814.318 83 820.051 84.8666 825.384 88.6C830.718 92.0666 833.384 96.3333 833.384 101.4C833.384 105.4 832.051 108.867 829.384 111.8C826.718 114.467 823.118 115.8 818.584 115.8C815.918 115.8 813.651 115.4 811.784 114.6C809.918 113.533 808.318 112.467 806.984 111.4C805.651 110.067 804.718 109.267 804.184 109C802.051 106.867 799.918 105.267 797.784 104.2C795.918 102.867 793.518 102.2 790.584 102.2C787.384 102.2 783.918 103.533 780.184 106.2C776.451 108.6 770.851 114.067 763.384 122.6V208.6C763.384 216.333 764.318 222.2 766.184 226.2C768.318 229.933 772.051 232.6 777.384 234.2C782.718 235.533 790.718 236.2 801.384 236.2C802.184 236.2 802.584 237 802.584 238.6C802.584 240.2 802.184 241 801.384 241C792.584 241 785.518 240.867 780.184 240.6L749.784 240.2L727.384 240.6C723.651 240.867 718.584 241 712.184 241C711.384 241 710.984 240.2 710.984 238.6C710.984 237 711.384 236.2 712.184 236.2C721.784 236.2 728.051 234.467 730.984 231C734.184 227.267 735.784 219.8 735.784 208.6V130.6C735.784 121.8 734.718 115.533 732.584 111.8C730.718 107.8 727.384 105.8 722.584 105.8C717.518 105.8 710.451 107.667 701.384 111.4H700.584C699.784 111.4 699.118 110.733 698.584 109.4C698.318 108.067 698.584 107.267 699.384 107L748.984 83.4C749.518 83.1333 750.318 83 751.384 83C754.051 83 756.584 85.9333 758.984 91.8C761.651 97.6666 763.118 105.4 763.384 115C774.318 102.733 782.984 94.3333 789.384 89.8C796.051 85.2666 802.318 83 808.184 83Z" fill="white"/>
<path d="M862.241 241C861.441 241 861.041 240.2 861.041 238.6C861.041 237 861.441 236.2 862.241 236.2C871.841 236.2 878.241 234.467 881.441 231C884.641 227.267 886.241 219.8 886.241 208.6V135C886.241 125.4 885.307 118.6 883.441 114.6C881.574 110.333 878.241 108.2 873.441 108.2C868.907 108.2 863.174 109.933 856.241 113.4H855.841C854.774 113.4 853.974 112.733 853.441 111.4C852.907 109.8 853.174 108.867 854.241 108.6L908.641 83.4L910.241 83C911.041 83 911.841 83.4 912.641 84.2C913.707 84.9999 914.241 85.9333 914.241 87C914.241 88.8666 914.107 94.2 913.841 103C913.574 111.8 913.441 122.2 913.441 134.2V208.6C913.441 219.8 914.907 227.267 917.841 231C921.041 234.467 927.574 236.2 937.441 236.2C938.241 236.2 938.641 237 938.641 238.6C938.641 240.2 938.241 241 937.441 241C931.041 241 925.841 240.867 921.841 240.6L899.841 240.2L877.841 240.6C873.841 240.867 868.641 241 862.241 241ZM897.441 38.5999C891.307 38.5999 886.374 36.8666 882.641 33.3999C879.174 29.9333 877.441 25.1333 877.441 19C877.441 13.1333 879.174 8.59995 882.641 5.39995C886.374 1.93328 891.307 0.199951 897.441 0.199951C903.307 0.199951 907.841 1.93328 911.041 5.39995C914.507 8.59995 916.241 13.1333 916.241 19C916.241 25.1333 914.507 29.9333 911.041 33.3999C907.841 36.8666 903.307 38.5999 897.441 38.5999Z" fill="white"/>
<path d="M1098.85 217.4C1099.65 217.4 1100.32 217.933 1100.85 219C1101.65 219.8 1101.79 220.6 1101.25 221.4C1091.92 229.933 1082.32 236.2 1072.45 240.2C1062.85 243.933 1052.45 245.8 1041.25 245.8C1025.25 245.8 1011.39 242.333 999.653 235.4C988.186 228.2 979.386 218.733 973.253 207C967.386 195.267 964.453 182.6 964.453 169C964.453 153.267 968.186 138.867 975.653 125.8C983.386 112.467 993.92 102.067 1007.25 94.5999C1020.85 86.8666 1035.79 83 1052.05 83C1066.99 83 1078.59 86.6 1086.85 93.8C1095.12 100.733 1099.25 110.333 1099.25 122.6C1099.25 129.267 1097.79 132.6 1094.85 132.6H1075.65L996.853 133.4C995.786 138.733 995.253 145.267 995.253 153C995.253 175.933 1000.72 194.467 1011.65 208.6C1022.85 222.733 1038.19 229.8 1057.65 229.8C1073.12 229.8 1086.72 225.667 1098.45 217.4H1098.85ZM1038.05 91C1028.19 91 1019.79 94.2 1012.85 100.6C1005.92 106.733 1000.99 115.533 998.053 127L1066.85 125.4C1066.59 114.733 1063.92 106.333 1058.85 100.2C1053.79 94.0666 1046.85 91 1038.05 91Z" fill="white"/>
<path d="M1314.91 236.2C1315.71 236.2 1316.11 237 1316.11 238.6C1316.11 240.2 1315.71 241 1314.91 241C1308.51 241 1303.31 240.867 1299.31 240.6L1277.31 240.2L1255.31 240.6C1251.31 240.867 1246.11 241 1239.71 241C1238.91 241 1238.51 240.2 1238.51 238.6C1238.51 237 1238.91 236.2 1239.71 236.2C1249.31 236.2 1255.57 234.467 1258.51 231C1261.71 227.267 1263.31 219.8 1263.31 208.6V146.2C1263.31 130.733 1260.51 119.4 1254.91 112.2C1249.31 105 1240.37 101.4 1228.11 101.4C1220.64 101.4 1212.91 103.267 1204.91 107C1196.91 110.733 1189.71 115.933 1183.31 122.6V208.6C1183.31 219.8 1184.77 227.267 1187.71 231C1190.91 234.467 1197.44 236.2 1207.31 236.2C1208.11 236.2 1208.51 237 1208.51 238.6C1208.51 240.2 1208.11 241 1207.31 241C1200.91 241 1195.71 240.867 1191.71 240.6L1169.71 240.2L1147.31 240.6C1143.57 240.867 1138.51 241 1132.11 241C1131.31 241 1130.91 240.2 1130.91 238.6C1130.91 237 1131.31 236.2 1132.11 236.2C1141.71 236.2 1147.97 234.467 1150.91 231C1154.11 227.267 1155.71 219.8 1155.71 208.6V130.6C1155.71 121.8 1154.64 115.533 1152.51 111.8C1150.64 107.8 1147.31 105.8 1142.51 105.8C1137.44 105.8 1130.37 107.667 1121.31 111.4H1120.51C1119.71 111.4 1119.04 110.733 1118.51 109.4C1118.24 108.067 1118.51 107.267 1119.31 107L1168.91 83.4C1169.44 83.1333 1170.24 83 1171.31 83C1173.97 83 1176.51 86.0666 1178.91 92.2C1181.57 98.0666 1183.04 105.8 1183.31 115.4C1202.77 92.7333 1223.17 81.4 1244.51 81.4C1259.17 81.4 1270.51 85.7999 1278.51 94.5999C1286.77 103.133 1290.91 115.133 1290.91 130.6V208.6C1290.91 219.8 1292.37 227.267 1295.31 231C1298.51 234.467 1305.04 236.2 1314.91 236.2Z" fill="white"/>
<path d="M1415.52 245.8C1398.19 245.8 1383.52 242.067 1371.52 234.6C1359.79 226.867 1350.99 217 1345.12 205C1339.52 193 1336.72 180.333 1336.72 167C1336.72 149.933 1341.12 135.133 1349.92 122.6C1358.72 109.8 1370.05 100.067 1383.92 93.4C1397.79 86.4666 1411.92 83 1426.32 83C1438.32 83 1449.25 85.5333 1459.12 90.6C1468.99 95.4 1473.92 101.533 1473.92 109C1473.92 113 1472.45 116.467 1469.52 119.4C1466.59 122.333 1462.59 123.8 1457.52 123.8C1448.72 123.8 1442.05 118.6 1437.52 108.2C1434.59 102.067 1431.39 97.6666 1427.92 95C1424.45 92.3333 1419.25 91 1412.32 91C1398.45 91 1387.52 96.8666 1379.52 108.6C1371.79 120.067 1367.92 135.4 1367.92 154.6C1367.92 176.733 1373.25 194.867 1383.92 209C1394.59 223.133 1410.99 230.2 1433.12 230.2C1447.79 230.2 1461.12 226.067 1473.12 217.8H1473.92C1474.72 217.8 1475.39 218.2 1475.92 219C1476.72 219.8 1476.72 220.467 1475.92 221C1466.59 229.533 1457.12 235.8 1447.52 239.8C1437.92 243.8 1427.25 245.8 1415.52 245.8Z" fill="white"/>
<path d="M1634.79 217.4C1635.59 217.4 1636.26 217.933 1636.79 219C1637.59 219.8 1637.72 220.6 1637.19 221.4C1627.86 229.933 1618.26 236.2 1608.39 240.2C1598.79 243.933 1588.39 245.8 1577.19 245.8C1561.19 245.8 1547.32 242.333 1535.59 235.4C1524.12 228.2 1515.32 218.733 1509.19 207C1503.32 195.267 1500.39 182.6 1500.39 169C1500.39 153.267 1504.12 138.867 1511.59 125.8C1519.32 112.467 1529.86 102.067 1543.19 94.5999C1556.79 86.8666 1571.72 83 1587.99 83C1602.92 83 1614.52 86.6 1622.79 93.8C1631.06 100.733 1635.19 110.333 1635.19 122.6C1635.19 129.267 1633.72 132.6 1630.79 132.6H1611.59L1532.79 133.4C1531.72 138.733 1531.19 145.267 1531.19 153C1531.19 175.933 1536.66 194.467 1547.59 208.6C1558.79 222.733 1574.12 229.8 1593.59 229.8C1609.06 229.8 1622.66 225.667 1634.39 217.4H1634.79ZM1573.99 91C1564.12 91 1555.72 94.2 1548.79 100.6C1541.86 106.733 1536.92 115.533 1533.99 127L1602.79 125.4C1602.52 114.733 1599.86 106.333 1594.79 100.2C1589.72 94.0666 1582.79 91 1573.99 91Z" fill="white"/>
</g>
<g opacity="0.16">
<path d="M961.595 347.2C961.861 347.2 962.061 347.367 962.195 347.7C962.328 347.967 962.295 348.167 962.095 348.3C959.628 350.367 957.361 351.867 955.295 352.8C953.228 353.733 951.061 354.2 948.795 354.2C945.995 354.2 943.628 353.567 941.695 352.3C939.828 350.967 938.895 348.767 938.895 345.7V322.6C938.895 320.267 938.561 318.767 937.895 318.1C937.295 317.433 935.895 317.1 933.695 317.1C933.495 317.1 933.395 316.833 933.395 316.3C933.395 315.833 933.495 315.6 933.695 315.6C936.628 315.533 938.995 314.833 940.795 313.5C942.595 312.1 943.761 310.2 944.295 307.8C944.361 307.6 944.628 307.5 945.095 307.5C945.561 307.5 945.795 307.6 945.795 307.8V315.5C949.061 315.433 953.595 315.1 959.395 314.5C959.595 314.5 959.761 314.733 959.895 315.2C960.028 315.667 960.095 316.2 960.095 316.8C960.095 317.4 959.995 318 959.795 318.6C959.595 319.133 959.361 319.367 959.095 319.3C954.895 318.433 950.461 317.933 945.795 317.8V342.3C945.795 344.967 946.461 346.967 947.795 348.3C949.128 349.567 951.028 350.2 953.495 350.2C956.428 350.2 959.061 349.233 961.395 347.3L961.595 347.2Z" fill="white"/>
<path d="M1012.08 351.8C1012.28 351.8 1012.38 352 1012.38 352.4C1012.38 352.8 1012.28 353 1012.08 353C1010.42 353 1009.12 352.967 1008.18 352.9L1002.68 352.8L996.984 352.9C996.05 352.967 994.784 353 993.184 353C993.05 353 992.984 352.8 992.984 352.4C992.984 352 993.05 351.8 993.184 351.8C995.65 351.8 997.25 351.367 997.984 350.5C998.784 349.567 999.184 347.7 999.184 344.9V329.5C999.184 325.633 998.45 322.8 996.984 321C995.584 319.133 993.384 318.2 990.384 318.2C988.45 318.2 986.484 318.7 984.484 319.7C982.484 320.633 980.684 321.933 979.084 323.6V344.9C979.084 347.7 979.484 349.567 980.284 350.5C981.084 351.367 982.717 351.8 985.184 351.8C985.384 351.8 985.484 352 985.484 352.4C985.484 352.8 985.384 353 985.184 353C983.517 353 982.217 352.967 981.284 352.9L975.784 352.8L970.084 352.9C969.15 352.967 967.884 353 966.284 353C966.15 353 966.084 352.8 966.084 352.4C966.084 352 966.15 351.8 966.284 351.8C968.75 351.8 970.35 351.367 971.084 350.5C971.884 349.567 972.284 347.7 972.284 344.9V293.5C972.284 291.1 972.05 289.4 971.584 288.4C971.184 287.333 970.417 286.8 969.284 286.8C968.084 286.8 966.617 287.233 964.884 288.1H964.684C964.484 288.1 964.317 287.933 964.184 287.6C964.05 287.267 964.084 287.067 964.284 287L977.684 280.5H977.984C978.25 280.5 978.484 280.6 978.684 280.8C978.95 281 979.084 281.233 979.084 281.5V321.7C983.95 316.1 989.084 313.3 994.484 313.3C998.15 313.3 1000.98 314.367 1002.98 316.5C1004.98 318.633 1005.98 321.667 1005.98 325.6V344.9C1005.98 347.7 1006.38 349.567 1007.18 350.5C1007.98 351.367 1009.62 351.8 1012.08 351.8Z" fill="white"/>
<path d="M1051.18 347.1C1051.38 347.1 1051.55 347.233 1051.68 347.5C1051.88 347.7 1051.91 347.9 1051.78 348.1C1049.45 350.233 1047.05 351.8 1044.58 352.8C1042.18 353.733 1039.58 354.2 1036.78 354.2C1032.78 354.2 1029.31 353.333 1026.38 351.6C1023.51 349.8 1021.31 347.433 1019.78 344.5C1018.31 341.567 1017.58 338.4 1017.58 335C1017.58 331.067 1018.51 327.467 1020.38 324.2C1022.31 320.867 1024.95 318.267 1028.28 316.4C1031.68 314.467 1035.41 313.5 1039.48 313.5C1043.21 313.5 1046.11 314.4 1048.18 316.2C1050.25 317.933 1051.28 320.333 1051.28 323.4C1051.28 325.067 1050.91 325.9 1050.18 325.9H1045.38L1025.68 326.1C1025.41 327.433 1025.28 329.067 1025.28 331C1025.28 336.733 1026.65 341.367 1029.38 344.9C1032.18 348.433 1036.01 350.2 1040.88 350.2C1044.75 350.2 1048.15 349.167 1051.08 347.1H1051.18ZM1035.98 315.5C1033.51 315.5 1031.41 316.3 1029.68 317.9C1027.95 319.433 1026.71 321.633 1025.98 324.5L1043.18 324.1C1043.11 321.433 1042.45 319.333 1041.18 317.8C1039.91 316.267 1038.18 315.5 1035.98 315.5Z" fill="white"/>
<path d="M1126.83 351.8C1127.03 351.8 1127.13 352 1127.13 352.4C1127.13 352.8 1127.03 353 1126.83 353C1125.16 353 1123.86 352.967 1122.93 352.9L1117.43 352.8L1111.73 352.9C1110.8 352.967 1109.53 353 1107.93 353C1107.8 353 1107.73 352.8 1107.73 352.4C1107.73 352 1107.8 351.8 1107.93 351.8C1110.4 351.8 1112 351.367 1112.73 350.5C1113.53 349.567 1113.93 347.7 1113.93 344.9V329.5C1113.93 325.633 1113.2 322.8 1111.73 321C1110.33 319.133 1108.13 318.2 1105.13 318.2C1103.2 318.2 1101.23 318.7 1099.23 319.7C1097.23 320.633 1095.43 321.933 1093.83 323.6V344.9C1093.83 347.7 1094.23 349.567 1095.03 350.5C1095.83 351.367 1097.46 351.8 1099.93 351.8C1100.13 351.8 1100.23 352 1100.23 352.4C1100.23 352.8 1100.13 353 1099.93 353C1098.26 353 1096.96 352.967 1096.03 352.9L1090.53 352.8L1084.83 352.9C1083.9 352.967 1082.63 353 1081.03 353C1080.9 353 1080.83 352.8 1080.83 352.4C1080.83 352 1080.9 351.8 1081.03 351.8C1083.5 351.8 1085.1 351.367 1085.83 350.5C1086.63 349.567 1087.03 347.7 1087.03 344.9V293.5C1087.03 291.1 1086.8 289.4 1086.33 288.4C1085.93 287.333 1085.16 286.8 1084.03 286.8C1082.83 286.8 1081.36 287.233 1079.63 288.1H1079.43C1079.23 288.1 1079.06 287.933 1078.93 287.6C1078.8 287.267 1078.83 287.067 1079.03 287L1092.43 280.5H1092.73C1093 280.5 1093.23 280.6 1093.43 280.8C1093.7 281 1093.83 281.233 1093.83 281.5V321.7C1098.7 316.1 1103.83 313.3 1109.23 313.3C1112.9 313.3 1115.73 314.367 1117.73 316.5C1119.73 318.633 1120.73 321.667 1120.73 325.6V344.9C1120.73 347.7 1121.13 349.567 1121.93 350.5C1122.73 351.367 1124.36 351.8 1126.83 351.8Z" fill="white"/>
<path d="M1152.12 354.3C1148.19 354.3 1144.72 353.367 1141.72 351.5C1138.72 349.567 1136.39 347 1134.72 343.8C1133.12 340.533 1132.32 337 1132.32 333.2C1132.32 328.867 1133.39 325.2 1135.52 322.2C1137.66 319.133 1140.39 316.867 1143.72 315.4C1147.06 313.867 1150.46 313.1 1153.93 313.1C1157.86 313.1 1161.32 314.067 1164.32 316C1167.32 317.933 1169.63 320.5 1171.23 323.7C1172.83 326.833 1173.62 330.167 1173.62 333.7C1173.62 337.767 1172.62 341.367 1170.62 344.5C1168.69 347.633 1166.09 350.067 1162.82 351.8C1159.56 353.467 1155.99 354.3 1152.12 354.3ZM1155.02 352.4C1158.36 352.4 1160.93 351.1 1162.73 348.5C1164.53 345.9 1165.43 342 1165.43 336.8C1165.43 332.467 1164.76 328.667 1163.43 325.4C1162.16 322.067 1160.39 319.533 1158.12 317.8C1155.86 316 1153.32 315.1 1150.52 315.1C1147.26 315.1 1144.73 316.367 1142.93 318.9C1141.19 321.367 1140.32 325.033 1140.32 329.9C1140.32 334.1 1140.96 337.933 1142.22 341.4C1143.49 344.8 1145.23 347.5 1147.43 349.5C1149.69 351.433 1152.22 352.4 1155.02 352.4Z" fill="white"/>
<path d="M1200.37 354.3C1196.43 354.3 1192.97 353.367 1189.97 351.5C1186.97 349.567 1184.63 347 1182.97 343.8C1181.37 340.533 1180.57 337 1180.57 333.2C1180.57 328.867 1181.63 325.2 1183.77 322.2C1185.9 319.133 1188.63 316.867 1191.97 315.4C1195.3 313.867 1198.7 313.1 1202.17 313.1C1206.1 313.1 1209.57 314.067 1212.57 316C1215.57 317.933 1217.87 320.5 1219.47 323.7C1221.07 326.833 1221.87 330.167 1221.87 333.7C1221.87 337.767 1220.87 341.367 1218.87 344.5C1216.93 347.633 1214.33 350.067 1211.07 351.8C1207.8 353.467 1204.23 354.3 1200.37 354.3ZM1203.27 352.4C1206.6 352.4 1209.17 351.1 1210.97 348.5C1212.77 345.9 1213.67 342 1213.67 336.8C1213.67 332.467 1213 328.667 1211.67 325.4C1210.4 322.067 1208.63 319.533 1206.37 317.8C1204.1 316 1201.57 315.1 1198.77 315.1C1195.5 315.1 1192.97 316.367 1191.17 318.9C1189.43 321.367 1188.57 325.033 1188.57 329.9C1188.57 334.1 1189.2 337.933 1190.47 341.4C1191.73 344.8 1193.47 347.5 1195.67 349.5C1197.93 351.433 1200.47 352.4 1203.27 352.4Z" fill="white"/>
<path d="M1274.11 351.8C1274.24 351.8 1274.31 352 1274.31 352.4C1274.31 352.8 1274.24 353 1274.11 353C1272.44 353 1271.14 352.967 1270.21 352.9L1264.61 352.8L1257.31 352.9C1256.24 352.967 1254.78 353 1252.91 353C1252.71 353 1252.61 352.8 1252.61 352.4C1252.61 352 1252.71 351.8 1252.91 351.8C1255.91 351.8 1257.41 351.133 1257.41 349.8C1257.41 349.2 1257.11 348.5 1256.51 347.7L1244.61 331.6L1240.51 335V344.9C1240.51 347.7 1240.91 349.567 1241.71 350.5C1242.51 351.367 1244.14 351.8 1246.61 351.8C1246.81 351.8 1246.91 352 1246.91 352.4C1246.91 352.8 1246.81 353 1246.61 353C1244.94 353 1243.64 352.967 1242.71 352.9L1237.21 352.8L1231.51 352.9C1230.58 352.967 1229.31 353 1227.71 353C1227.58 353 1227.51 352.8 1227.51 352.4C1227.51 352 1227.58 351.8 1227.71 351.8C1230.18 351.8 1231.78 351.367 1232.51 350.5C1233.31 349.567 1233.71 347.7 1233.71 344.9V293.5C1233.71 291.1 1233.48 289.4 1233.01 288.4C1232.61 287.333 1231.84 286.8 1230.71 286.8C1229.51 286.8 1228.04 287.233 1226.31 288.1H1226.11C1225.91 288.1 1225.74 287.933 1225.61 287.6C1225.48 287.267 1225.51 287.067 1225.71 287L1238.91 280.6L1239.41 280.5C1239.68 280.5 1239.91 280.6 1240.11 280.8C1240.38 281 1240.51 281.233 1240.51 281.5V333.2L1252.61 322.8C1254.61 321.067 1255.61 319.567 1255.61 318.3C1255.61 317.5 1255.18 316.867 1254.31 316.4C1253.44 315.867 1252.18 315.6 1250.51 315.6C1250.38 315.6 1250.31 315.4 1250.31 315C1250.31 314.6 1250.38 314.4 1250.51 314.4C1252.38 314.4 1253.84 314.433 1254.91 314.5L1262.31 314.6L1269.11 314.5C1270.04 314.433 1271.31 314.4 1272.91 314.4C1273.04 314.4 1273.11 314.6 1273.11 315C1273.11 315.4 1273.04 315.6 1272.91 315.6C1270.31 315.6 1267.38 316.233 1264.11 317.5C1260.91 318.767 1257.81 320.667 1254.81 323.2L1249.71 327.4L1262.71 344.9C1266.11 349.5 1269.91 351.8 1274.11 351.8Z" fill="white"/>
<path d="M1316.03 347.6C1316.3 347.6 1316.46 347.767 1316.53 348.1C1316.66 348.367 1316.6 348.567 1316.33 348.7L1306.03 353.6C1305.76 353.733 1305.46 353.8 1305.13 353.8C1304.26 353.8 1303.43 353.267 1302.63 352.2C1301.9 351.067 1301.4 349.533 1301.13 347.6L1295.43 350.7C1291.63 352.7 1288.46 353.7 1285.93 353.7C1283.86 353.7 1282.23 353.167 1281.03 352.1C1279.9 350.967 1279.33 349.5 1279.33 347.7C1279.33 345.767 1280.03 344.267 1281.43 343.2C1282.9 342.133 1285.56 340.933 1289.43 339.6L1300.93 335.6V327.5C1300.93 323.233 1300.4 320.2 1299.33 318.4C1298.33 316.533 1296.86 315.6 1294.93 315.6C1292.86 315.6 1291.23 316.367 1290.03 317.9C1288.9 319.367 1288.2 321.3 1287.93 323.7C1287.66 326.633 1286.2 328.1 1283.53 328.1C1282.33 328.1 1281.4 327.8 1280.73 327.2C1280.06 326.6 1279.73 325.767 1279.73 324.7C1279.73 323.1 1280.76 321.433 1282.83 319.7C1284.96 317.9 1287.5 316.433 1290.43 315.3C1293.36 314.1 1296 313.5 1298.33 313.5C1301.13 313.5 1303.4 314.433 1305.13 316.3C1306.86 318.1 1307.73 320.833 1307.73 324.5V342.2C1307.73 344.4 1308.03 346.033 1308.63 347.1C1309.3 348.167 1310.3 348.7 1311.63 348.7C1312.83 348.7 1314.26 348.333 1315.93 347.6H1316.03ZM1300.93 346.1V345.1V337L1292.13 340.3C1290.53 340.9 1289.36 341.6 1288.63 342.4C1287.96 343.133 1287.63 344.067 1287.63 345.2C1287.63 346.6 1288.03 347.7 1288.83 348.5C1289.63 349.3 1290.66 349.7 1291.93 349.7C1293.4 349.7 1294.86 349.3 1296.33 348.5L1300.93 346.1Z" fill="white"/>
<path d="M1364.62 351.8C1364.82 351.8 1364.92 352 1364.92 352.4C1364.92 352.8 1364.82 353 1364.62 353C1362.96 353 1361.66 352.967 1360.72 352.9L1355.22 352.8L1349.52 352.9C1348.59 352.967 1347.32 353 1345.72 353C1345.59 353 1345.52 352.8 1345.52 352.4C1345.52 352 1345.59 351.8 1345.72 351.8C1348.19 351.8 1349.79 351.367 1350.52 350.5C1351.32 349.567 1351.72 347.7 1351.72 344.9V329.5C1351.72 325.633 1350.99 322.8 1349.52 321C1348.12 319.133 1345.92 318.2 1342.92 318.2C1340.99 318.2 1339.02 318.7 1337.02 319.7C1335.02 320.633 1333.22 321.933 1331.62 323.6V344.9C1331.62 347.7 1332.02 349.567 1332.82 350.5C1333.62 351.367 1335.26 351.8 1337.72 351.8C1337.92 351.8 1338.02 352 1338.02 352.4C1338.02 352.8 1337.92 353 1337.72 353C1336.06 353 1334.76 352.967 1333.82 352.9L1328.32 352.8L1322.62 352.9C1321.69 352.967 1320.42 353 1318.82 353C1318.69 353 1318.62 352.8 1318.62 352.4C1318.62 352 1318.69 351.8 1318.82 351.8C1321.29 351.8 1322.89 351.367 1323.62 350.5C1324.42 349.567 1324.82 347.7 1324.82 344.9V293.5C1324.82 291.1 1324.59 289.4 1324.12 288.4C1323.72 287.333 1322.96 286.8 1321.82 286.8C1320.62 286.8 1319.16 287.233 1317.42 288.1H1317.22C1317.02 288.1 1316.86 287.933 1316.72 287.6C1316.59 287.267 1316.62 287.067 1316.82 287L1330.22 280.5H1330.52C1330.79 280.5 1331.02 280.6 1331.22 280.8C1331.49 281 1331.62 281.233 1331.62 281.5V321.7C1336.49 316.1 1341.62 313.3 1347.02 313.3C1350.69 313.3 1353.52 314.367 1355.52 316.5C1357.52 318.633 1358.52 321.667 1358.52 325.6V344.9C1358.52 347.7 1358.92 349.567 1359.72 350.5C1360.52 351.367 1362.16 351.8 1364.62 351.8Z" fill="white"/>
<path d="M1421.56 347.2C1421.82 347.2 1422.02 347.367 1422.16 347.7C1422.29 347.967 1422.26 348.167 1422.06 348.3C1419.59 350.367 1417.32 351.867 1415.26 352.8C1413.19 353.733 1411.02 354.2 1408.76 354.2C1405.96 354.2 1403.59 353.567 1401.66 352.3C1399.79 350.967 1398.86 348.767 1398.86 345.7V322.6C1398.86 320.267 1398.52 318.767 1397.86 318.1C1397.26 317.433 1395.86 317.1 1393.66 317.1C1393.46 317.1 1393.36 316.833 1393.36 316.3C1393.36 315.833 1393.46 315.6 1393.66 315.6C1396.59 315.533 1398.96 314.833 1400.76 313.5C1402.56 312.1 1403.72 310.2 1404.26 307.8C1404.32 307.6 1404.59 307.5 1405.06 307.5C1405.52 307.5 1405.76 307.6 1405.76 307.8V315.5C1409.02 315.433 1413.56 315.1 1419.36 314.5C1419.56 314.5 1419.72 314.733 1419.86 315.2C1419.99 315.667 1420.06 316.2 1420.06 316.8C1420.06 317.4 1419.96 318 1419.76 318.6C1419.56 319.133 1419.32 319.367 1419.06 319.3C1414.86 318.433 1410.42 317.933 1405.76 317.8V342.3C1405.76 344.967 1406.42 346.967 1407.76 348.3C1409.09 349.567 1410.99 350.2 1413.46 350.2C1416.39 350.2 1419.02 349.233 1421.36 347.3L1421.56 347.2Z" fill="white"/>
<path d="M1472.04 351.8C1472.24 351.8 1472.34 352 1472.34 352.4C1472.34 352.8 1472.24 353 1472.04 353C1470.38 353 1469.08 352.967 1468.14 352.9L1462.64 352.8L1456.94 352.9C1456.01 352.967 1454.74 353 1453.14 353C1453.01 353 1452.94 352.8 1452.94 352.4C1452.94 352 1453.01 351.8 1453.14 351.8C1455.61 351.8 1457.21 351.367 1457.94 350.5C1458.74 349.567 1459.14 347.7 1459.14 344.9V329.5C1459.14 325.633 1458.41 322.8 1456.94 321C1455.54 319.133 1453.34 318.2 1450.34 318.2C1448.41 318.2 1446.44 318.7 1444.44 319.7C1442.44 320.633 1440.64 321.933 1439.04 323.6V344.9C1439.04 347.7 1439.44 349.567 1440.24 350.5C1441.04 351.367 1442.68 351.8 1445.14 351.8C1445.34 351.8 1445.44 352 1445.44 352.4C1445.44 352.8 1445.34 353 1445.14 353C1443.48 353 1442.18 352.967 1441.24 352.9L1435.74 352.8L1430.04 352.9C1429.11 352.967 1427.84 353 1426.24 353C1426.11 353 1426.04 352.8 1426.04 352.4C1426.04 352 1426.11 351.8 1426.24 351.8C1428.71 351.8 1430.31 351.367 1431.04 350.5C1431.84 349.567 1432.24 347.7 1432.24 344.9V293.5C1432.24 291.1 1432.01 289.4 1431.54 288.4C1431.14 287.333 1430.38 286.8 1429.24 286.8C1428.04 286.8 1426.58 287.233 1424.84 288.1H1424.64C1424.44 288.1 1424.28 287.933 1424.14 287.6C1424.01 287.267 1424.04 287.067 1424.24 287L1437.64 280.5H1437.94C1438.21 280.5 1438.44 280.6 1438.64 280.8C1438.91 281 1439.04 281.233 1439.04 281.5V321.7C1443.91 316.1 1449.04 313.3 1454.44 313.3C1458.11 313.3 1460.94 314.367 1462.94 316.5C1464.94 318.633 1465.94 321.667 1465.94 325.6V344.9C1465.94 347.7 1466.34 349.567 1467.14 350.5C1467.94 351.367 1469.58 351.8 1472.04 351.8Z" fill="white"/>
<path d="M1515.64 347.6C1515.91 347.6 1516.07 347.767 1516.14 348.1C1516.27 348.367 1516.21 348.567 1515.94 348.7L1505.64 353.6C1505.37 353.733 1505.07 353.8 1504.74 353.8C1503.87 353.8 1503.04 353.267 1502.24 352.2C1501.51 351.067 1501.01 349.533 1500.74 347.6L1495.04 350.7C1491.24 352.7 1488.07 353.7 1485.54 353.7C1483.47 353.7 1481.84 353.167 1480.64 352.1C1479.51 350.967 1478.94 349.5 1478.94 347.7C1478.94 345.767 1479.64 344.267 1481.04 343.2C1482.51 342.133 1485.17 340.933 1489.04 339.6L1500.54 335.6V327.5C1500.54 323.233 1500.01 320.2 1498.94 318.4C1497.94 316.533 1496.47 315.6 1494.54 315.6C1492.47 315.6 1490.84 316.367 1489.64 317.9C1488.51 319.367 1487.81 321.3 1487.54 323.7C1487.27 326.633 1485.81 328.1 1483.14 328.1C1481.94 328.1 1481.01 327.8 1480.34 327.2C1479.67 326.6 1479.34 325.767 1479.34 324.7C1479.34 323.1 1480.37 321.433 1482.44 319.7C1484.57 317.9 1487.11 316.433 1490.04 315.3C1492.97 314.1 1495.61 313.5 1497.94 313.5C1500.74 313.5 1503.01 314.433 1504.74 316.3C1506.47 318.1 1507.34 320.833 1507.34 324.5V342.2C1507.34 344.4 1507.64 346.033 1508.24 347.1C1508.91 348.167 1509.91 348.7 1511.24 348.7C1512.44 348.7 1513.87 348.333 1515.54 347.6H1515.64ZM1500.54 346.1V345.1V337L1491.74 340.3C1490.14 340.9 1488.97 341.6 1488.24 342.4C1487.57 343.133 1487.24 344.067 1487.24 345.2C1487.24 346.6 1487.64 347.7 1488.44 348.5C1489.24 349.3 1490.27 349.7 1491.54 349.7C1493.01 349.7 1494.47 349.3 1495.94 348.5L1500.54 346.1Z" fill="white"/>
<path d="M1547.53 347.2C1547.8 347.2 1548 347.367 1548.13 347.7C1548.27 347.967 1548.23 348.167 1548.03 348.3C1545.57 350.367 1543.3 351.867 1541.23 352.8C1539.17 353.733 1537 354.2 1534.73 354.2C1531.93 354.2 1529.57 353.567 1527.63 352.3C1525.77 350.967 1524.83 348.767 1524.83 345.7V322.6C1524.83 320.267 1524.5 318.767 1523.83 318.1C1523.23 317.433 1521.83 317.1 1519.63 317.1C1519.43 317.1 1519.33 316.833 1519.33 316.3C1519.33 315.833 1519.43 315.6 1519.63 315.6C1522.57 315.533 1524.93 314.833 1526.73 313.5C1528.53 312.1 1529.7 310.2 1530.23 307.8C1530.3 307.6 1530.57 307.5 1531.03 307.5C1531.5 307.5 1531.73 307.6 1531.73 307.8V315.5C1535 315.433 1539.53 315.1 1545.33 314.5C1545.53 314.5 1545.7 314.733 1545.83 315.2C1545.97 315.667 1546.03 316.2 1546.03 316.8C1546.03 317.4 1545.93 318 1545.73 318.6C1545.53 319.133 1545.3 319.367 1545.03 319.3C1540.83 318.433 1536.4 317.933 1531.73 317.8V342.3C1531.73 344.967 1532.4 346.967 1533.73 348.3C1535.07 349.567 1536.97 350.2 1539.43 350.2C1542.37 350.2 1545 349.233 1547.33 347.3L1547.53 347.2Z" fill="white"/>
<path d="M1578.16 353C1577.96 353 1577.86 352.8 1577.86 352.4C1577.86 352 1577.96 351.8 1578.16 351.8C1580.56 351.8 1582.16 351.367 1582.96 350.5C1583.76 349.567 1584.16 347.7 1584.16 344.9V326.5C1584.16 324.1 1583.93 322.4 1583.46 321.4C1582.99 320.333 1582.16 319.8 1580.96 319.8C1579.83 319.8 1578.39 320.233 1576.66 321.1H1576.56C1576.29 321.1 1576.09 320.933 1575.96 320.6C1575.83 320.2 1575.89 319.967 1576.16 319.9L1589.76 313.6L1590.16 313.5C1590.36 313.5 1590.56 313.6 1590.76 313.8C1591.03 314 1591.16 314.233 1591.16 314.5C1591.16 314.967 1591.13 316.3 1591.06 318.5C1590.99 320.7 1590.96 323.3 1590.96 326.3V344.9C1590.96 347.7 1591.33 349.567 1592.06 350.5C1592.86 351.367 1594.49 351.8 1596.96 351.8C1597.16 351.8 1597.26 352 1597.26 352.4C1597.26 352.8 1597.16 353 1596.96 353C1595.36 353 1594.06 352.967 1593.06 352.9L1587.56 352.8L1582.06 352.9C1581.06 352.967 1579.76 353 1578.16 353ZM1586.96 302.4C1585.43 302.4 1584.19 301.967 1583.26 301.1C1582.39 300.233 1581.96 299.033 1581.96 297.5C1581.96 296.033 1582.39 294.9 1583.26 294.1C1584.19 293.233 1585.43 292.8 1586.96 292.8C1588.43 292.8 1589.56 293.233 1590.36 294.1C1591.23 294.9 1591.66 296.033 1591.66 297.5C1591.66 299.033 1591.23 300.233 1590.36 301.1C1589.56 301.967 1588.43 302.4 1586.96 302.4Z" fill="white"/>
<path d="M1610.81 320.1C1610.81 322.3 1611.55 324.1 1613.01 325.5C1614.55 326.9 1616.71 328.333 1619.51 329.8C1621.91 331.067 1623.75 332.167 1625.01 333.1C1626.35 333.967 1627.48 335.1 1628.41 336.5C1629.35 337.9 1629.81 339.633 1629.81 341.7C1629.81 345.1 1628.51 348.033 1625.91 350.5C1623.38 352.9 1619.88 354.1 1615.41 354.1C1611.95 354.1 1608.68 353.133 1605.61 351.2C1605.21 350.8 1605.01 350.4 1605.01 350L1604.81 341.5C1604.81 341.3 1604.98 341.2 1605.31 341.2C1605.71 341.133 1605.95 341.2 1606.01 341.4C1607.21 344.733 1608.88 347.367 1611.01 349.3C1613.21 351.233 1615.65 352.2 1618.31 352.2C1620.18 352.2 1621.61 351.733 1622.61 350.8C1623.68 349.867 1624.21 348.5 1624.21 346.7C1624.21 344.833 1623.81 343.267 1623.01 342C1622.21 340.667 1621.21 339.633 1620.01 338.9C1618.88 338.1 1617.31 337.167 1615.31 336.1C1613.11 335.033 1611.35 334.067 1610.01 333.2C1608.75 332.333 1607.65 331.2 1606.71 329.8C1605.85 328.4 1605.41 326.633 1605.41 324.5C1605.41 320.767 1606.78 317.967 1609.51 316.1C1612.25 314.167 1615.51 313.2 1619.31 313.2C1621.91 313.2 1624.45 313.7 1626.91 314.7C1627.51 314.9 1627.81 315.267 1627.81 315.8C1627.81 317.267 1627.78 318.4 1627.71 319.2L1627.61 323.7C1627.61 323.833 1627.41 323.9 1627.01 323.9C1626.61 323.9 1626.41 323.833 1626.41 323.7C1626.41 322.367 1625.88 321.033 1624.81 319.7C1623.75 318.367 1622.38 317.3 1620.71 316.5C1619.11 315.633 1617.48 315.2 1615.81 315.2C1614.28 315.2 1613.05 315.6 1612.11 316.4C1611.25 317.133 1610.81 318.367 1610.81 320.1Z" fill="white"/>
</g>
</svg>
