<svg width="1405" height="295" viewBox="0 0 1405 295" fill="none" xmlns="http://www.w3.org/2000/svg">
<g opacity="0.16">
<path d="M79.2 187.2C63.4667 187.2 49.6 183.467 37.6 176C25.6 168.267 16.2667 158 9.6 145.2C3.2 132.133 0 118 0 102.8C0 85.4667 4.26667 70.8 12.8 58.8C21.3333 46.5333 32.2667 37.4667 45.6 31.6C58.9333 25.4667 72.5333 22.4 86.4 22.4C102.133 22.4 116 26.2667 128 34C140 41.7333 149.2 52 155.6 64.8C162 77.3333 165.2 90.6667 165.2 104.8C165.2 121.067 161.2 135.467 153.2 148C145.467 160.533 135.067 170.267 122 177.2C108.933 183.867 94.6667 187.2 79.2 187.2ZM90.8 179.6C104.133 179.6 114.4 174.4 121.6 164C128.8 153.6 132.4 138 132.4 117.2C132.4 99.8667 129.733 84.6666 124.4 71.6C119.333 58.2666 112.267 48.1333 103.2 41.2C94.1333 34 84 30.4 72.8 30.4C59.7333 30.4 49.6 35.4667 42.4 45.6C35.4667 55.4667 32 70.1333 32 89.6C32 106.4 34.5333 121.733 39.6 135.6C44.6667 149.2 51.6 160 60.4 168C69.4667 175.733 79.6 179.6 90.8 179.6Z" fill="white"/>
<path d="M374.969 158C376.035 158 376.835 158.667 377.369 160C377.902 161.067 377.769 161.867 376.969 162.4L327.369 186C326.835 186.267 326.169 186.4 325.369 186.4C322.969 186.4 320.569 183.333 318.169 177.2C315.769 170.8 314.569 162.533 314.569 152.4C294.835 174.533 274.302 185.6 252.969 185.6C239.369 185.6 228.569 181.333 220.569 172.8C212.835 164 208.969 151.867 208.969 136.4V76C208.969 65.8667 208.035 58.6667 206.169 54.4C204.302 49.8667 201.235 47.6 196.969 47.6C193.235 47.6 189.102 48.6666 184.569 50.8H183.769C182.969 50.8 182.302 50.1333 181.769 48.8C181.502 47.4666 181.769 46.6667 182.569 46.4L229.769 24.4L231.369 24C232.435 24 233.502 24.4 234.569 25.2C235.635 26 236.169 26.9333 236.169 28V121.2C236.169 151.333 247.369 166.4 269.769 166.4C277.235 166.4 284.969 164.533 292.969 160.8C300.969 157.067 308.169 151.867 314.569 145.2V76C314.569 65.8667 313.635 58.6667 311.769 54.4C309.902 49.8667 306.835 47.6 302.569 47.6C299.102 47.6 294.835 48.6666 289.769 50.8H288.969C288.169 50.8 287.635 50.1333 287.369 48.8C287.102 47.4666 287.369 46.6667 288.169 46.4L335.369 24.4L336.969 24C338.035 24 339.102 24.4 340.169 25.2C341.235 26 341.769 26.9333 341.769 28V138C341.769 147.067 342.702 153.6 344.569 157.6C346.702 161.6 350.169 163.6 354.969 163.6C359.235 163.6 365.769 161.733 374.569 158H374.969Z" fill="white"/>
<path d="M490.997 24C497.13 24 502.864 25.8667 508.197 29.6C513.53 33.0667 516.197 37.3333 516.197 42.4C516.197 46.4 514.864 49.8667 512.197 52.8C509.53 55.4667 505.93 56.8 501.397 56.8C498.73 56.8 496.464 56.4 494.597 55.6C492.73 54.5333 491.13 53.4667 489.797 52.4C488.464 51.0667 487.53 50.2667 486.997 50C484.864 47.8667 482.73 46.2667 480.597 45.2C478.73 43.8667 476.33 43.2 473.397 43.2C470.197 43.2 466.73 44.5333 462.997 47.2C459.264 49.6 453.664 55.0667 446.197 63.6V149.6C446.197 157.333 447.13 163.2 448.997 167.2C451.13 170.933 454.864 173.6 460.197 175.2C465.53 176.533 473.53 177.2 484.197 177.2C484.997 177.2 485.397 178 485.397 179.6C485.397 181.2 484.997 182 484.197 182C475.397 182 468.33 181.867 462.997 181.6L432.597 181.2L410.197 181.6C406.464 181.867 401.397 182 394.997 182C394.197 182 393.797 181.2 393.797 179.6C393.797 178 394.197 177.2 394.997 177.2C404.597 177.2 410.864 175.467 413.797 172C416.997 168.267 418.597 160.8 418.597 149.6V71.6C418.597 62.8 417.53 56.5333 415.397 52.8C413.53 48.8 410.197 46.8 405.397 46.8C400.33 46.8 393.264 48.6667 384.197 52.4H383.397C382.597 52.4 381.93 51.7333 381.397 50.4C381.13 49.0667 381.397 48.2667 382.197 48L431.797 24.4C432.33 24.1333 433.13 24 434.197 24C436.864 24 439.397 26.9333 441.797 32.8C444.464 38.6667 445.93 46.4 446.197 56C457.13 43.7333 465.797 35.3333 472.197 30.8C478.864 26.2667 485.13 24 490.997 24Z" fill="white"/>
<path d="M661.603 50.4C661.603 59.2 664.536 66.4 670.403 72C676.536 77.6 685.203 83.3333 696.403 89.2C706.003 94.2666 713.336 98.6667 718.403 102.4C723.736 105.867 728.27 110.4 732.003 116C735.736 121.6 737.603 128.533 737.603 136.8C737.603 150.4 732.403 162.133 722.003 172C711.87 181.6 697.87 186.4 680.003 186.4C666.136 186.4 653.07 182.533 640.803 174.8C639.203 173.2 638.403 171.6 638.403 170L637.603 136C637.603 135.2 638.27 134.8 639.603 134.8C641.203 134.533 642.136 134.8 642.403 135.6C647.203 148.933 653.87 159.467 662.403 167.2C671.203 174.933 680.936 178.8 691.603 178.8C699.07 178.8 704.803 176.933 708.803 173.2C713.07 169.467 715.203 164 715.203 156.8C715.203 149.333 713.603 143.067 710.403 138C707.203 132.667 703.203 128.533 698.403 125.6C693.87 122.4 687.603 118.667 679.603 114.4C670.803 110.133 663.736 106.267 658.403 102.8C653.336 99.3333 648.936 94.8 645.203 89.2C641.736 83.6 640.003 76.5333 640.003 68C640.003 53.0667 645.47 41.8667 656.403 34.4C667.336 26.6667 680.403 22.8 695.603 22.8C706.003 22.8 716.136 24.8 726.003 28.8C728.403 29.6 729.603 31.0666 729.603 33.2C729.603 39.0666 729.47 43.6 729.203 46.8L728.803 64.8C728.803 65.3333 728.003 65.6 726.403 65.6C724.803 65.6 724.003 65.3333 724.003 64.8C724.003 59.4667 721.87 54.1333 717.603 48.8C713.336 43.4667 707.87 39.2 701.203 36C694.803 32.5333 688.27 30.8 681.603 30.8C675.47 30.8 670.536 32.4 666.803 35.6C663.336 38.5333 661.603 43.4667 661.603 50.4Z" fill="white"/>
<path d="M880.359 158.8C881.426 158.8 882.226 159.467 882.759 160.8C883.293 161.867 883.159 162.667 882.359 163.2C872.493 171.467 863.426 177.467 855.159 181.2C846.893 184.933 838.226 186.8 829.159 186.8C817.959 186.8 808.493 184.267 800.759 179.2C793.293 173.867 789.559 165.067 789.559 152.8V60.4C789.559 51.0667 788.226 45.0667 785.559 42.4C783.159 39.7333 777.559 38.4 768.759 38.4C767.959 38.4 767.559 37.3333 767.559 35.2C767.559 33.3333 767.959 32.4 768.759 32.4C780.493 32.1333 789.959 29.3333 797.159 24C804.359 18.4 809.026 10.8 811.159 1.2C811.426 0.399999 812.493 0 814.359 0C816.226 0 817.159 0.399999 817.159 1.2V32C830.226 31.7333 848.359 30.4 871.559 28C872.359 28 873.026 28.9333 873.559 30.8C874.093 32.6667 874.359 34.8 874.359 37.2C874.359 39.6 873.959 42 873.159 44.4C872.359 46.5333 871.426 47.4666 870.359 47.2C853.559 43.7333 835.826 41.7333 817.159 41.2V139.2C817.159 149.867 819.826 157.867 825.159 163.2C830.493 168.267 838.093 170.8 847.959 170.8C859.693 170.8 870.226 166.933 879.559 159.2L880.359 158.8Z" fill="white"/>
<path d="M982.716 187.2C966.982 187.2 953.116 183.467 941.116 176C929.116 168.267 919.782 158 913.116 145.2C906.716 132.133 903.516 118 903.516 102.8C903.516 85.4667 907.782 70.8 916.316 58.8C924.849 46.5333 935.782 37.4667 949.116 31.6C962.449 25.4667 976.049 22.4 989.916 22.4C1005.65 22.4 1019.52 26.2667 1031.52 34C1043.52 41.7333 1052.72 52 1059.12 64.8C1065.52 77.3333 1068.72 90.6667 1068.72 104.8C1068.72 121.067 1064.72 135.467 1056.72 148C1048.98 160.533 1038.58 170.267 1025.52 177.2C1012.45 183.867 998.182 187.2 982.716 187.2ZM994.316 179.6C1007.65 179.6 1017.92 174.4 1025.12 164C1032.32 153.6 1035.92 138 1035.92 117.2C1035.92 99.8667 1033.25 84.6666 1027.92 71.6C1022.85 58.2666 1015.78 48.1333 1006.72 41.2C997.649 34 987.516 30.4 976.316 30.4C963.249 30.4 953.116 35.4667 945.916 45.6C938.982 55.4667 935.516 70.1333 935.516 89.6C935.516 106.4 938.049 121.733 943.116 135.6C948.182 149.2 955.116 160 963.916 168C972.982 175.733 983.116 179.6 994.316 179.6Z" fill="white"/>
<path d="M1195.68 24C1201.82 24 1207.55 25.8667 1212.88 29.6C1218.22 33.0667 1220.88 37.3333 1220.88 42.4C1220.88 46.4 1219.55 49.8667 1216.88 52.8C1214.22 55.4667 1210.62 56.8 1206.08 56.8C1203.42 56.8 1201.15 56.4 1199.28 55.6C1197.42 54.5333 1195.82 53.4667 1194.48 52.4C1193.15 51.0667 1192.22 50.2667 1191.68 50C1189.55 47.8667 1187.42 46.2667 1185.28 45.2C1183.42 43.8667 1181.02 43.2 1178.08 43.2C1174.88 43.2 1171.42 44.5333 1167.68 47.2C1163.95 49.6 1158.35 55.0667 1150.88 63.6V149.6C1150.88 157.333 1151.82 163.2 1153.68 167.2C1155.82 170.933 1159.55 173.6 1164.88 175.2C1170.22 176.533 1178.22 177.2 1188.88 177.2C1189.68 177.2 1190.08 178 1190.08 179.6C1190.08 181.2 1189.68 182 1188.88 182C1180.08 182 1173.02 181.867 1167.68 181.6L1137.28 181.2L1114.88 181.6C1111.15 181.867 1106.08 182 1099.68 182C1098.88 182 1098.48 181.2 1098.48 179.6C1098.48 178 1098.88 177.2 1099.68 177.2C1109.28 177.2 1115.55 175.467 1118.48 172C1121.68 168.267 1123.28 160.8 1123.28 149.6V71.6C1123.28 62.8 1122.22 56.5333 1120.08 52.8C1118.22 48.8 1114.88 46.8 1110.08 46.8C1105.02 46.8 1097.95 48.6667 1088.88 52.4H1088.08C1087.28 52.4 1086.62 51.7333 1086.08 50.4C1085.82 49.0667 1086.08 48.2667 1086.88 48L1136.48 24.4C1137.02 24.1333 1137.82 24 1138.88 24C1141.55 24 1144.08 26.9333 1146.48 32.8C1149.15 38.6667 1150.62 46.4 1150.88 56C1161.82 43.7333 1170.48 35.3333 1176.88 30.8C1183.55 26.2667 1189.82 24 1195.68 24Z" fill="white"/>
<path d="M1403.74 27.6C1404.54 27.6 1404.94 28.4 1404.94 30C1404.94 31.6 1404.54 32.4 1403.74 32.4C1396.27 32.4 1389.87 35.2 1384.54 40.8C1379.47 46.1333 1374.81 54.8 1370.54 66.8L1322.94 193.2C1313.34 218.8 1304.14 238.933 1295.34 253.6C1286.54 268.267 1277.47 278.667 1268.14 284.8C1259.07 291.2 1248.81 294.4 1237.34 294.4C1230.94 294.4 1225.74 292.933 1221.74 290C1217.74 287.067 1215.74 282.933 1215.74 277.6C1215.74 273.067 1217.21 269.467 1220.14 266.8C1222.81 264.4 1226.14 263.2 1230.14 263.2C1233.61 263.2 1236.41 263.6 1238.54 264.4C1240.67 265.467 1243.21 266.8 1246.14 268.4C1249.07 270 1251.34 271.2 1252.94 272C1254.81 272.8 1257.21 273.2 1260.14 273.2C1266.54 273.2 1272.41 270.533 1277.74 265.2C1283.34 259.867 1289.21 250.933 1295.34 238.4C1301.47 226.133 1308.81 208.667 1317.34 186L1255.34 60.8C1249.21 49.0667 1244.54 41.4667 1241.34 38C1238.14 34.2667 1234.01 32.4 1228.94 32.4C1228.41 32.4 1228.14 31.6 1228.14 30C1228.14 28.4 1228.41 27.6 1228.94 27.6L1243.74 28C1247.21 28.2667 1252.01 28.4 1258.14 28.4L1284.14 28C1288.14 27.7333 1293.61 27.6 1300.54 27.6C1301.07 27.6 1301.34 28.4 1301.34 30C1301.34 31.6 1301.07 32.4 1300.54 32.4C1293.34 32.4 1287.87 33.0667 1284.14 34.4C1280.41 35.7333 1278.54 38 1278.54 41.2C1278.54 43.3333 1279.21 45.6 1280.54 48L1331.34 152.4L1360.94 67.6C1363.07 60.6667 1364.14 55.3333 1364.14 51.6C1364.14 44.9333 1361.74 40.1333 1356.94 37.2C1352.41 34 1345.21 32.4 1335.34 32.4C1334.81 32.4 1334.54 31.6 1334.54 30C1334.54 28.4 1334.81 27.6 1335.34 27.6C1342.54 27.6 1348.01 27.7333 1351.74 28L1375.74 28.4L1390.94 28C1393.61 27.7333 1397.87 27.6 1403.74 27.6Z" fill="white"/>
</g>
</svg>
