<svg width="19" height="17" viewBox="0 0 19 17" fill="none" xmlns="http://www.w3.org/2000/svg"><title>[icon] Twitter</title>
<path fill-rule="evenodd" clip-rule="evenodd" d="M15.9646 2.88715C16.7315 2.38324 17.32 1.58407 17.5961 0.632342C16.878 1.09991 16.0848 1.43824 15.2382 1.62132C14.5627 0.827983 13.5972 0.333496 12.5288 0.333496C10.4789 0.333496 8.81804 2.15933 8.81804 4.411C8.81804 4.73093 8.84863 5.04234 8.91239 5.33984C5.8281 5.16933 3.0932 3.54766 1.26133 1.07882C0.941652 1.68324 0.758982 2.38324 0.758982 3.12991C0.758982 4.54427 1.41427 5.7926 2.41034 6.52491C1.80201 6.50427 1.22945 6.3185 0.727962 6.01516V6.06542C0.727962 8.04157 2.00666 9.69016 3.70713 10.0635C3.39478 10.1591 3.06779 10.2071 2.72786 10.2071C2.48918 10.2071 2.25525 10.1824 2.03035 10.1348C2.50168 11.7543 3.873 12.9348 5.49808 12.9663C4.22671 14.0607 2.62619 14.7118 0.887368 14.7118C0.587943 14.7118 0.291534 14.6943 0.00158691 14.6557C1.64476 15.812 3.59555 16.4873 5.69239 16.4873C12.5214 16.4873 16.2537 10.2735 16.2537 4.88484C16.2537 4.7076 16.2515 4.53125 16.2442 4.3576C16.9693 3.78234 17.6005 3.0635 18.0963 2.24548C17.4303 2.56991 16.7147 2.78933 15.9646 2.88715Z" fill="black"/>
</svg>
