<svg width="109" height="109" viewBox="0 0 109 109" fill="none" xmlns="http://www.w3.org/2000/svg">
 .
  <g clip-path="url(#clip0)">
    <path
      d="M66.6903 46.9287C66.6715 46.9287 66.653 46.9474 66.653 46.966C66.653 46.9847 66.6715 47.0033 66.6903 47.0033L67.3076 47.0779L67.8876 47.3018L68.3743 47.6562L68.7486 48.1412L68.9916 48.7009L69.1225 49.2978L69.1787 49.9134L69.1976 50.529C69.1976 50.5476 69.2161 50.5663 69.235 50.5663C69.2535 50.5663 69.2723 50.5476 69.2723 50.529L69.2535 49.9134L69.1976 49.2978L69.0667 48.6822L68.8233 48.1039L68.4305 47.6189L67.9253 47.2458L67.345 47.022L66.6903 46.9287Z"
      fill="#100906"/>
    <path
      d="M66.522 47.8428C66.5032 47.8428 66.4843 47.8614 66.4843 47.8801C66.4843 47.8987 66.5032 47.9174 66.522 47.9174L66.971 47.9547L67.4012 48.1039L67.7566 48.3651L68.0189 48.7195L68.1683 49.1486L68.2245 49.5963L68.2434 50.0439V50.4916C68.2434 50.5103 68.2619 50.529 68.2807 50.529C68.2992 50.529 68.3181 50.5103 68.3181 50.4916V50.0439L68.2992 49.5963L68.2434 49.1486L68.0936 48.7195L67.8129 48.3464L67.4385 48.0666L67.0084 47.9174L66.522 47.8428Z"
      fill="#100906"/>
    <path
      d="M66.5217 47.8428L65.8855 47.936L65.3055 48.1972L64.8192 48.6076L64.4637 49.1299L64.2392 49.7268L64.1456 50.3611L64.1079 50.9953L64.0894 51.6296C64.0894 51.6482 64.1079 51.6669 64.1268 51.6669C64.1457 51.6669 64.1641 51.6482 64.1641 51.6296L64.183 50.9953L64.2204 50.3611L64.3139 49.7455L64.5196 49.1486L64.8754 48.6262L65.3618 48.2345L65.9232 47.9733L66.5405 47.8801C66.5594 47.8801 66.5779 47.8614 66.5594 47.8428C66.5594 47.8428 66.5405 47.8428 66.5217 47.8428Z"
      fill="#100906"/>
    <path
      d="M61.4139 47.8428C61.395 47.8428 61.3765 47.8614 61.3765 47.8801C61.3765 47.8987 61.395 47.9174 61.4139 47.9174L61.9002 47.9733L62.3492 48.1599L62.7235 48.4583L62.9854 48.8688L63.1163 49.3351L63.1725 49.8201L63.1914 50.3051V50.7901C63.1914 50.8088 63.2099 50.8274 63.2288 50.8274C63.2473 50.8274 63.2661 50.8088 63.2661 50.7901V50.3051L63.2473 49.8201L63.1914 49.3351L63.0605 48.8688L62.7982 48.4583L62.4243 48.1412L61.9749 47.9547L61.4139 47.8428Z"
      fill="#100906"/>
    <path
      d="M61.4138 47.8428L60.815 47.936L60.2536 48.1786L59.7672 48.5516L59.3929 49.0366L59.1496 49.5963L59.0375 50.1932L58.9813 50.7901L58.9624 51.3871C58.9624 51.4057 58.9813 51.4244 59.0001 51.4244C59.0186 51.4244 59.0375 51.4057 59.0375 51.3871L59.056 50.7901L59.0937 50.1932L59.2058 49.6149L59.4303 49.0739L59.7857 48.6076L60.2536 48.2345L60.7962 47.992L61.395 47.9174C61.4138 47.9174 61.4323 47.8987 61.4138 47.8801C61.4323 47.8428 61.4323 47.8428 61.4138 47.8428Z"
      fill="#100906"/>
    <path
      d="M84.0539 46.9287C84.0354 46.9287 84.0166 46.9474 84.0166 46.966C84.0166 46.9847 84.0354 47.0033 84.0539 47.0033L84.6342 47.0593L85.1953 47.2272L85.7005 47.5256L86.1311 47.9174L86.4491 48.4211L86.6548 48.9807L86.7672 49.559L86.8234 50.1559L86.8419 50.7528C86.8419 50.7715 86.8608 50.7902 86.8793 50.7902C86.8982 50.7902 86.917 50.7715 86.917 50.7528L86.8982 50.1559L86.8419 49.559L86.7299 48.962L86.5238 48.4024L86.1873 47.8987L85.7568 47.4883L85.2327 47.1899L84.6716 47.022L84.0539 46.9287Z"
      fill="#100906"/>
    <path
      d="M74.8484 47.8241C73.2018 47.8241 71.8732 49.1486 71.8732 50.7902C71.8732 52.4317 73.2018 53.7562 74.8484 53.7562C76.4946 53.7562 77.8232 52.4317 77.8232 50.7902C77.8232 49.1486 76.4946 47.8241 74.8484 47.8241ZM74.8484 47.8801C76.4573 47.8801 77.767 49.1859 77.767 50.7902C77.767 52.3944 76.4573 53.7002 74.8484 53.7002C73.2391 53.7002 71.9294 52.3944 71.9294 50.7902C71.9106 49.1859 73.2203 47.8801 74.8484 47.8801Z"
      fill="#100906"/>
    <path
      d="M74.8484 46.9101C72.6965 46.9101 70.9378 48.6449 70.9378 50.8088C70.9378 52.954 72.6777 54.7075 74.8484 54.7075C76.9999 54.7075 78.759 52.9727 78.759 50.8088C78.7401 48.6449 76.9999 46.9101 74.8484 46.9101ZM74.8484 46.966C76.9625 46.966 78.6839 48.6822 78.6839 50.7902C78.6839 52.8981 76.9625 54.6143 74.8484 54.6143C72.7339 54.6143 71.0125 52.8981 71.0125 50.7902C70.9937 48.6822 72.715 46.966 74.8484 46.966Z"
      fill="#100906"/>
    <path
      d="M77.4866 55.4351L74.8295 56.9647C74.8107 56.9647 74.8107 56.9833 74.8107 57.002C74.8107 57.0207 74.8295 57.0207 74.8484 57.0207L77.4866 55.491C77.5051 55.491 77.5051 55.4723 77.5051 55.4537C77.5051 55.4351 77.5051 55.4351 77.4866 55.4351Z"
      fill="#100906"/>
    <path
      d="M77.9541 56.2185C77.9356 56.2185 77.9356 56.2185 77.9541 56.2185L74.8295 58.0093C74.8107 58.0093 74.8107 58.028 74.8107 58.0466C74.8107 58.0653 74.8295 58.0653 74.8484 58.0653L77.9541 56.2745C77.973 56.2745 77.973 56.2558 77.973 56.2372C77.973 56.2185 77.9541 56.2185 77.9541 56.2185Z"
      fill="#100906"/>
    <path
      d="M71.7234 56.2185C71.7049 56.2185 71.6861 56.2372 71.6861 56.2558C71.6861 56.2745 71.686 56.2745 71.7049 56.2745L74.8107 58.0653C74.8295 58.0653 74.8484 58.0653 74.8484 58.0466C74.8484 58.028 74.8484 58.0093 74.8295 58.0093L71.7234 56.2185C71.7423 56.2185 71.7423 56.2185 71.7234 56.2185Z"
      fill="#100906"/>
    <path
      d="M72.1913 55.4351C72.1724 55.4351 72.1539 55.4537 72.1539 55.4723C72.1539 55.491 72.1539 55.491 72.1724 55.5097L74.8295 57.0393C74.8484 57.0393 74.8669 57.0393 74.8669 57.0207C74.8669 57.002 74.8669 56.9834 74.8484 56.9834L72.1913 55.4351C72.1913 55.4351 72.2098 55.4351 72.1913 55.4351Z"
      fill="#100906"/>
    <path
      d="M58.0644 47.0593C58.0459 47.0593 58.027 47.0779 58.027 47.0966C58.027 47.1152 58.0459 47.1339 58.0644 47.1339H58.9813C59.0001 47.1339 59.0186 47.1152 59.0186 47.0966C59.0186 47.0779 59.0001 47.0593 58.9813 47.0593H58.0644C58.0832 47.0593 58.0832 47.0593 58.0644 47.0593Z"
      fill="#100906"/>
    <path
      d="M59.0006 47.0593C58.9815 47.0593 58.9624 47.0779 58.9624 47.0966V48.3837C58.9624 48.4024 58.9815 48.421 59.0006 48.421C59.0193 48.421 59.0384 48.4024 59.0384 48.3837V47.0966C59.0193 47.0593 59.0193 47.0593 59.0006 47.0593Z"
      fill="#100906"/>
    <path
      d="M69.2166 50.473C69.1979 50.473 69.1788 50.4917 69.1788 50.5103V54.5396C69.1788 54.5583 69.1979 54.577 69.2166 54.577C69.2357 54.577 69.2544 54.5583 69.2544 54.5396V50.4917C69.2544 50.473 69.2357 50.473 69.2166 50.473Z"
      fill="#100906"/>
    <path
      d="M68.2992 54.5023C68.2807 54.5023 68.2619 54.521 68.2619 54.5396C68.2619 54.5583 68.2807 54.5769 68.2992 54.5769H69.2161C69.235 54.5769 69.2535 54.5583 69.2535 54.5396C69.2535 54.521 69.235 54.5023 69.2161 54.5023H68.2992Z"
      fill="#100906"/>
    <path
      d="M68.2997 50.4544C68.281 50.4544 68.2619 50.473 68.2619 50.4917V54.5396C68.2619 54.5583 68.281 54.577 68.2997 54.577C68.3188 54.577 68.3379 54.5583 68.3379 54.5396V50.4917C68.3379 50.473 68.3188 50.4544 68.2997 50.4544Z"
      fill="#100906"/>
    <path
      d="M64.1088 51.6109C64.0897 51.6109 64.0706 51.6296 64.0706 51.6482V54.5396C64.0706 54.5583 64.0897 54.5769 64.1088 54.5769C64.1275 54.5769 64.1466 54.5583 64.1466 54.5396V51.6296C64.1275 51.6109 64.1275 51.6109 64.1088 51.6109Z"
      fill="#100906"/>
    <path
      d="M63.1914 54.5023C63.1725 54.5023 63.1537 54.521 63.1537 54.5396C63.1537 54.5583 63.1725 54.5769 63.1914 54.5769H64.1079C64.1268 54.5769 64.1457 54.5583 64.1457 54.5396C64.1457 54.521 64.1268 54.5023 64.1079 54.5023H63.1914Z"
      fill="#100906"/>
    <path
      d="M63.1919 50.7155C63.1728 50.7155 63.1537 50.7342 63.1537 50.7528V54.5396C63.1537 54.5583 63.1728 54.577 63.1919 54.577C63.2106 54.577 63.2297 54.5583 63.2297 54.5396V50.7342C63.2106 50.7342 63.2106 50.7155 63.1919 50.7155Z"
      fill="#100906"/>
    <path
      d="M59.0006 51.3684C58.9815 51.3684 58.9624 51.3871 58.9624 51.4057V54.5396C58.9624 54.5583 58.9815 54.577 59.0006 54.577C59.0193 54.577 59.0384 54.5583 59.0384 54.5396V51.3871C59.0193 51.3871 59.0193 51.3684 59.0006 51.3684Z"
      fill="#100906"/>
    <path
      d="M58.0832 54.5023C58.0644 54.5023 58.0459 54.521 58.0459 54.5396C58.0459 54.5583 58.0644 54.5769 58.0832 54.5769H59.0001C59.0186 54.5769 59.0375 54.5583 59.0375 54.5396C59.0375 54.521 59.0186 54.5023 59.0001 54.5023H58.0832Z"
      fill="#100906"/>
    <path
      d="M58.0837 47.0593C58.0646 47.0593 58.0459 47.0779 58.0459 47.0966V54.5396C58.0459 54.5583 58.0646 54.5769 58.0837 54.5769C58.1024 54.5769 58.1215 54.5583 58.1215 54.5396V47.0779C58.1024 47.0593 58.1024 47.0593 58.0837 47.0593Z"
      fill="#100906"/>
    <path
      d="M55.988 47.0593C55.9689 47.0593 55.9502 47.0779 55.9502 47.0966V54.5396C55.9502 54.5583 55.9689 54.5769 55.988 54.5769C56.0068 54.5769 56.0259 54.5583 56.0259 54.5396V47.0779C56.0068 47.0593 55.988 47.0593 55.988 47.0593Z"
      fill="#100906"/>
    <path
      d="M55.0518 54.5023C55.0333 54.5023 55.0145 54.521 55.0145 54.5396C55.0145 54.5583 55.0333 54.5769 55.0518 54.5769H55.9687C55.9876 54.5769 56.0061 54.5583 56.0061 54.5396C56.0061 54.521 55.9876 54.5023 55.9687 54.5023H55.0518Z"
      fill="#100906"/>
    <path
      d="M55.0523 53.2152C55.0336 53.2152 55.0145 53.2338 55.0145 53.2525V54.5396C55.0145 54.5583 55.0336 54.5769 55.0523 54.5769C55.0714 54.5769 55.0905 54.5583 55.0905 54.5396V53.2525C55.0905 53.2338 55.0714 53.2152 55.0523 53.2152Z"
      fill="#100906"/>
    <path
      d="M55.0523 47.0593C55.0336 47.0593 55.0145 47.0779 55.0145 47.0966V48.477C55.0145 48.4957 55.0336 48.5143 55.0523 48.5143C55.0714 48.5143 55.0905 48.4957 55.0905 48.477V47.0966C55.0905 47.0593 55.0714 47.0593 55.0523 47.0593Z"
      fill="#100906"/>
    <path
      d="M55.0518 47.0593C55.0333 47.0593 55.0145 47.0779 55.0145 47.0966C55.0145 47.1152 55.0333 47.1339 55.0518 47.1339H55.9687C55.9876 47.1339 56.0061 47.1152 56.0061 47.0966C56.0061 47.0779 55.9876 47.0593 55.9687 47.0593H55.0518Z"
      fill="#100906"/>
    <path
      d="M41.2994 44.0373C41.2807 44.0373 41.262 44.056 41.262 44.0746C41.262 44.0933 41.2807 44.1119 41.2994 44.1119H42.2162C42.2349 44.1119 42.2537 44.0933 42.2537 44.0746C42.2537 44.056 42.2349 44.0373 42.2162 44.0373H41.2994Z"
      fill="#100906"/>
    <path
      d="M42.2167 44.0373C42.1977 44.0373 42.1788 44.056 42.1788 44.0746V50.1186C42.1788 50.1372 42.1977 50.1559 42.2167 50.1559C42.2356 50.1559 42.2546 50.1372 42.2546 50.1186V44.0746C42.2546 44.056 42.2356 44.0373 42.2167 44.0373Z"
      fill="#100906"/>
    <path
      d="M45.6216 47.0593H45.6029L42.1975 50.0999C42.1788 50.1186 42.1788 50.1372 42.1975 50.1372C42.2162 50.1559 42.2349 50.1559 42.2349 50.1372L45.6403 47.0966C45.659 47.0779 45.659 47.0593 45.6403 47.0593H45.6216Z"
      fill="#100906"/>
    <path
      d="M45.6216 47.0593C45.6029 47.0593 45.5842 47.0779 45.5842 47.0966C45.5842 47.1152 45.6029 47.1339 45.6216 47.1339H46.9314C46.9501 47.1339 46.9688 47.1152 46.9688 47.0966C46.9688 47.0779 46.9501 47.0593 46.9314 47.0593H45.6216Z"
      fill="#100906"/>
    <path
      d="M46.9314 47.0593H46.9127L42.9647 50.5849C42.946 50.6036 42.946 50.6223 42.9647 50.6223C42.9834 50.6409 43.0021 50.6409 43.0021 50.6223L46.9501 47.0966C46.9688 47.0779 46.9688 47.0593 46.9501 47.0593C46.9501 47.0593 46.9501 47.0593 46.9314 47.0593Z"
      fill="#100906"/>
    <path
      d="M42.9834 50.5849C42.9646 50.5849 42.9459 50.6036 42.9459 50.6223C42.9459 50.6223 42.9459 50.6409 42.9646 50.6409L47.3056 54.5583C47.3243 54.577 47.343 54.577 47.343 54.5583C47.3617 54.5396 47.3617 54.521 47.343 54.521L43.0021 50.6036C43.0021 50.5849 43.0021 50.5849 42.9834 50.5849Z"
      fill="#100906"/>
    <path
      d="M46.0145 54.5023C45.9958 54.5023 45.9771 54.521 45.9771 54.5396C45.9771 54.5583 45.9958 54.5769 46.0145 54.5769H47.3243C47.343 54.5769 47.3618 54.5583 47.3618 54.5396C47.3618 54.521 47.343 54.5023 47.3243 54.5023H46.0145Z"
      fill="#100906"/>
    <path
      d="M42.2162 51.07C42.1975 51.07 42.1788 51.0886 42.1788 51.1072C42.1788 51.1072 42.1788 51.1259 42.1975 51.1259L45.9958 54.5583C46.0146 54.577 46.0333 54.577 46.0333 54.5583C46.052 54.5396 46.052 54.521 46.0333 54.521L42.2349 51.0886C42.2349 51.07 42.2162 51.07 42.2162 51.07Z"
      fill="#100906"/>
    <path
      d="M42.2167 51.07C42.1977 51.07 42.1788 51.0886 42.1788 51.1072V54.5396C42.1788 54.5583 42.1977 54.577 42.2167 54.577C42.2356 54.577 42.2546 54.5583 42.2546 54.5396V51.0886C42.2546 51.0886 42.2356 51.07 42.2167 51.07Z"
      fill="#100906"/>
    <path
      d="M41.2994 54.5023C41.2807 54.5023 41.262 54.521 41.262 54.5396C41.262 54.5583 41.2807 54.5769 41.2994 54.5769H42.2162C42.2349 54.5769 42.2537 54.5583 42.2537 54.5396C42.2537 54.521 42.2349 54.5023 42.2162 54.5023H41.2994Z"
      fill="#100906"/>
    <path
      d="M41.2998 44.0373C41.2809 44.0373 41.262 44.056 41.262 44.0746V54.521C41.262 54.5396 41.2809 54.5583 41.2998 54.5583C41.3188 54.5583 41.3377 54.5396 41.3377 54.521V44.0746C41.3377 44.056 41.3188 44.0373 41.2998 44.0373Z"
      fill="#100906"/>
    <path
      d="M80.2931 47.0593C80.2743 47.0593 80.2558 47.0779 80.2558 47.0966C80.2558 47.1152 80.2743 47.1339 80.2931 47.1339H81.21C81.2285 47.1339 81.2474 47.1152 81.2474 47.0966C81.2474 47.0779 81.2285 47.0593 81.21 47.0593H80.2931Z"
      fill="#100906"/>
    <path
      d="M81.2105 47.0593C81.1914 47.0593 81.1727 47.0779 81.1727 47.0966V48.4397C81.1727 48.4583 81.1914 48.477 81.2105 48.477C81.2296 48.477 81.2483 48.4583 81.2483 48.4397V47.0966C81.2296 47.0593 81.2296 47.0593 81.2105 47.0593Z"
      fill="#100906"/>
    <path
      d="M86.8424 50.6969C86.8237 50.6969 86.8046 50.7155 86.8046 50.7342V54.5396C86.8046 54.5583 86.8237 54.5769 86.8424 54.5769C86.8615 54.5769 86.8802 54.5583 86.8802 54.5396V50.7342C86.8802 50.7155 86.8615 50.6969 86.8424 50.6969Z"
      fill="#100906"/>
    <path
      d="M85.925 54.5023C85.9065 54.5023 85.8877 54.521 85.8877 54.5396C85.8877 54.5583 85.9065 54.5769 85.925 54.5769H86.8419C86.8608 54.5769 86.8793 54.5583 86.8793 54.5396C86.8793 54.521 86.8608 54.5023 86.8419 54.5023H85.925Z"
      fill="#100906"/>
    <path
      d="M85.9255 50.9954C85.9068 50.9954 85.8877 51.014 85.8877 51.0326V54.5396C85.8877 54.5583 85.9068 54.577 85.9255 54.577C85.9446 54.577 85.9637 54.5583 85.9637 54.5396V51.0326C85.9637 51.014 85.9446 50.9954 85.9255 50.9954Z"
      fill="#100906"/>
    <path
      d="M81.2105 51.7975C81.1914 51.7975 81.1727 51.8161 81.1727 51.8348V54.521C81.1727 54.5396 81.1914 54.5583 81.2105 54.5583C81.2296 54.5583 81.2483 54.5396 81.2483 54.521V51.8348C81.2296 51.8161 81.2296 51.7975 81.2105 51.7975Z"
      fill="#100906"/>
    <path
      d="M80.2931 54.5023C80.2743 54.5023 80.2558 54.521 80.2558 54.5396C80.2558 54.5583 80.2743 54.5769 80.2931 54.5769H81.21C81.2285 54.5769 81.2474 54.5583 81.2474 54.5396C81.2474 54.521 81.2285 54.5023 81.21 54.5023H80.2931Z"
      fill="#100906"/>
    <path
      d="M80.2936 47.0593C80.2745 47.0593 80.2558 47.0779 80.2558 47.0966V54.5396C80.2558 54.5583 80.2745 54.5769 80.2936 54.5769C80.3127 54.5769 80.3314 54.5583 80.3314 54.5396V47.0779C80.3127 47.0593 80.3127 47.0593 80.2936 47.0593Z"
      fill="#100906"/>
    <path
      d="M14.0374 44.0373C14.0187 44.0373 14 44.056 14 44.0746C14 44.0933 14.0187 44.1119 14.0374 44.1119H14.9543C14.973 44.1119 14.9917 44.0933 14.9917 44.0746C14.9917 44.056 14.973 44.0373 14.9543 44.0373H14.0374Z"
      fill="#100906"/>
    <path
      d="M14.9547 44.0373C14.9358 44.0373 14.9168 44.056 14.9168 44.0746V48.4957C14.9168 48.5143 14.9358 48.5143 14.9547 48.5143C14.9737 48.5143 14.9926 48.4957 14.9926 48.477V44.0746C14.9926 44.056 14.9737 44.0373 14.9547 44.0373Z"
      fill="#100906"/>
    <path
      d="M20.5868 50.6969C20.5678 50.6969 20.5489 50.7155 20.5489 50.7342V54.5396C20.5489 54.5583 20.5678 54.5769 20.5868 54.5769C20.6057 54.5769 20.6246 54.5583 20.6246 54.5396V50.7342C20.6246 50.7155 20.6057 50.6969 20.5868 50.6969Z"
      fill="#100906"/>
    <path
      d="M19.6694 54.5023C19.6507 54.5023 19.632 54.521 19.632 54.5396C19.632 54.5583 19.6507 54.5769 19.6694 54.5769H20.5863C20.605 54.5769 20.6237 54.5583 20.6237 54.5396C20.6237 54.521 20.605 54.5023 20.5863 54.5023H19.6694Z"
      fill="#100906"/>
    <path
      d="M19.6699 50.9954C19.651 50.9954 19.632 51.014 19.632 51.0326V54.5396C19.632 54.5583 19.651 54.577 19.6699 54.577C19.6889 54.577 19.7078 54.5583 19.7078 54.5396V51.0326C19.7078 51.014 19.6889 50.9954 19.6699 50.9954Z"
      fill="#100906"/>
    <path
      d="M14.9547 51.7975C14.9358 51.7975 14.9168 51.8161 14.9168 51.8348V54.521C14.9168 54.5396 14.9358 54.5583 14.9547 54.5583C14.9737 54.5583 14.9926 54.5396 14.9926 54.521V51.8348C14.9926 51.8161 14.9737 51.7975 14.9547 51.7975Z"
      fill="#100906"/>
    <path
      d="M14.0374 54.5023C14.0187 54.5023 14 54.521 14 54.5396C14 54.5583 14.0187 54.5769 14.0374 54.5769H14.9543C14.973 54.5769 14.9917 54.5583 14.9917 54.5396C14.9917 54.521 14.973 54.5023 14.9543 54.5023H14.0374Z"
      fill="#100906"/>
    <path
      d="M14.0379 44.0373C14.0189 44.0373 14 44.056 14 44.0746V54.521C14 54.5396 14.0189 54.5583 14.0379 54.5583C14.0568 54.5583 14.0758 54.5396 14.0758 54.521V44.0746C14.0568 44.056 14.0568 44.0373 14.0379 44.0373Z"
      fill="#100906"/>
    <path
      d="M89.8549 44.0373C89.8358 44.0373 89.8171 44.056 89.8171 44.0746V50.1186C89.8171 50.1372 89.8358 50.1559 89.8549 50.1559C89.874 50.1559 89.8928 50.1372 89.8928 50.1186V44.0746C89.8928 44.056 89.874 44.0373 89.8549 44.0373Z"
      fill="#100906"/>
    <path
      d="M93.2598 47.0593C93.2413 47.0593 93.2224 47.0779 93.2224 47.0966C93.2224 47.1152 93.2413 47.1339 93.2598 47.1339H94.5699C94.5883 47.1339 94.6072 47.1152 94.6072 47.0966C94.6072 47.0779 94.5883 47.0593 94.5699 47.0593H93.2598Z"
      fill="#100906"/>
    <path
      d="M94.5695 47.0593H94.551L90.6031 50.5849C90.5842 50.6036 90.5842 50.6223 90.6031 50.6223C90.6216 50.6409 90.6404 50.6409 90.6404 50.6223L94.5883 47.0966C94.6072 47.0779 94.6072 47.0593 94.5883 47.0593C94.5883 47.0593 94.5883 47.0593 94.5695 47.0593Z"
      fill="#100906"/>
    <path
      d="M90.6216 50.5849C90.6031 50.5849 90.5842 50.6036 90.5842 50.6223C90.5842 50.6223 90.5842 50.6409 90.6031 50.6409L94.9438 54.5583C94.9627 54.577 94.9811 54.577 94.9811 54.5583C95 54.5396 95 54.521 94.9811 54.521L90.6404 50.6036C90.6404 50.5849 90.6404 50.5849 90.6216 50.5849Z"
      fill="#100906"/>
    <path
      d="M93.653 54.5023C93.6341 54.5023 93.6152 54.521 93.6152 54.5396C93.6152 54.5583 93.6341 54.5769 93.653 54.5769H94.9626C94.9811 54.5769 95 54.5583 95 54.5396C95 54.521 94.9811 54.5023 94.9626 54.5023H93.653Z"
      fill="#100906"/>
    <path
      d="M89.8545 51.07C89.8356 51.07 89.8171 51.0886 89.8171 51.1072C89.8171 51.1072 89.8171 51.1259 89.8356 51.1259L93.6341 54.5583C93.653 54.577 93.6715 54.577 93.6715 54.5583C93.6903 54.5396 93.6903 54.521 93.6715 54.521L89.8733 51.0886C89.8733 51.07 89.8545 51.07 89.8545 51.07Z"
      fill="#100906"/>
    <path
      d="M89.8549 51.07C89.8358 51.07 89.8171 51.0886 89.8171 51.1072V54.5396C89.8171 54.5583 89.8358 54.577 89.8549 54.577C89.874 54.577 89.8928 54.5583 89.8928 54.5396V51.0886C89.8928 51.0886 89.874 51.07 89.8549 51.07Z"
      fill="#100906"/>
    <path
      d="M88.9376 44.0373C88.9191 44.0373 88.9002 44.056 88.9002 44.0746C88.9002 44.0933 88.9191 44.1119 88.9376 44.1119H89.8545C89.8733 44.1119 89.8918 44.0933 89.8918 44.0746C89.8918 44.056 89.8733 44.0373 89.8545 44.0373H88.9376Z"
      fill="#100906"/>
    <path
      d="M88.938 44.0373C88.9193 44.0373 88.9002 44.056 88.9002 44.0746V54.521C88.9002 54.5396 88.9193 54.5583 88.938 54.5583C88.9571 54.5583 88.9759 54.5396 88.9759 54.521V44.0746C88.9759 44.056 88.9571 44.0373 88.938 44.0373Z"
      fill="#100906"/>
    <path
      d="M93.2598 47.0593H93.2413L89.8356 50.0999C89.8171 50.1186 89.8171 50.1372 89.8356 50.1372C89.8545 50.1559 89.8733 50.1559 89.8733 50.1372L93.2787 47.0966C93.2971 47.0779 93.2971 47.0593 93.2787 47.0593H93.2598Z"
      fill="#100906"/>
    <path
      d="M88.9376 54.5023C88.9191 54.5023 88.9002 54.521 88.9002 54.5396C88.9002 54.5583 88.9191 54.5769 88.9376 54.5769H89.8545C89.8733 54.5769 89.8918 54.5583 89.8918 54.5396C89.8918 54.521 89.8733 54.5023 89.8545 54.5023H88.9376Z"
      fill="#100906"/>
    <path
      d="M78.9461 58.4384L75.6155 60.7888C75.5966 60.8075 75.5966 60.8261 75.6155 60.8261C75.634 60.8448 75.6528 60.8448 75.6528 60.8261L78.9646 58.4757C78.9834 58.457 78.9834 58.4384 78.9646 58.4384C78.9646 58.457 78.9646 58.4384 78.9461 58.4384Z"
      fill="#100906"/>
    <path
      d="M75.634 60.7888C75.6155 60.7888 75.5966 60.8074 75.5966 60.8261C75.5966 60.8448 75.5966 60.8448 75.6155 60.8448L78.9272 63.1952C78.9461 63.2139 78.9646 63.1952 78.9646 63.1952C78.9835 63.1765 78.9646 63.1579 78.9646 63.1579L75.6528 60.8074C75.6528 60.7888 75.634 60.7888 75.634 60.7888Z"
      fill="#100906"/>
    <path
      d="M74.8295 61.3484C74.8107 61.3484 74.7922 61.3671 74.7922 61.3858C74.7922 61.4044 74.7922 61.4044 74.8107 61.4044L78.3846 63.9414C78.4031 63.96 78.422 63.9414 78.422 63.9414C78.4409 63.9227 78.422 63.9041 78.422 63.9041L74.8484 61.3671C74.8484 61.3671 74.8484 61.3484 74.8295 61.3484Z"
      fill="#100906"/>
    <path
      d="M74.8484 61.3484C74.8295 61.3484 74.8295 61.3671 74.8484 61.3484L71.2559 63.8854C71.237 63.8854 71.237 63.9041 71.237 63.9227C71.237 63.9414 71.2559 63.9414 71.2744 63.9414L74.8484 61.4044C74.8669 61.3858 74.8669 61.3671 74.8484 61.3671C74.8669 61.3671 74.8484 61.3484 74.8484 61.3484Z"
      fill="#100906"/>
    <path
      d="M71.2555 57.6922C71.237 57.6922 71.2182 57.7109 71.2182 57.7295C71.2182 57.7482 71.2182 57.7482 71.237 57.7482L74.8107 60.2851C74.8295 60.3038 74.8484 60.2851 74.8484 60.2851C74.8669 60.2665 74.8484 60.2478 74.8484 60.2478L71.2744 57.7109C71.2744 57.6922 71.2555 57.6922 71.2555 57.6922Z"
      fill="#100906"/>
    <path
      d="M78.422 57.6922C78.422 57.6922 78.4031 57.6922 78.422 57.6922L74.8295 60.2292C74.8107 60.2478 74.8107 60.2665 74.8295 60.2665C74.8484 60.2851 74.8669 60.2851 74.8669 60.2665L78.4409 57.7295C78.4594 57.7109 78.4594 57.6922 78.4409 57.6922H78.422Z"
      fill="#100906"/>
    <path
      d="M74.0436 60.7888C74.0436 60.7888 74.0251 60.7888 74.0436 60.7888L70.7129 63.1392C70.6945 63.1392 70.6945 63.1579 70.6945 63.1765C70.6945 63.1952 70.7129 63.1952 70.7318 63.1952L74.0624 60.8448C74.0809 60.8261 74.0809 60.8074 74.0624 60.8074C74.0624 60.7888 74.0624 60.7888 74.0436 60.7888Z"
      fill="#100906"/>
    <path
      d="M70.7318 58.4384C70.7129 58.4384 70.6945 58.457 70.6945 58.4757C70.6945 58.4943 70.6945 58.4943 70.7129 58.4943L74.0251 60.8448C74.0436 60.8634 74.0624 60.8448 74.0624 60.8448C74.0809 60.8261 74.0624 60.8075 74.0624 60.8075L70.7507 58.457C70.7318 58.4384 70.7318 58.4384 70.7318 58.4384Z"
      fill="#100906"/>
    <path
      d="M77.6738 55.3604C77.5987 55.3604 77.5425 55.3977 77.4678 55.4351C77.4489 55.4351 77.4489 55.4537 77.4489 55.4723C77.4489 55.491 77.4678 55.491 77.4866 55.491C77.6175 55.4164 77.7296 55.4164 77.8232 55.4537C77.9168 55.491 78.0103 55.5656 78.0666 55.6589C78.1228 55.7522 78.1413 55.8641 78.1228 55.976C78.1039 56.0879 78.0292 56.1812 77.9168 56.2558C77.8983 56.2558 77.8983 56.2745 77.8983 56.2931C77.8983 56.3118 77.9168 56.3118 77.9356 56.3118C78.0666 56.2372 78.1601 56.1253 78.1786 55.9947C78.1975 55.8828 78.1786 55.7522 78.1228 55.6402C78.0666 55.5283 77.973 55.4537 77.8421 55.4164C77.8047 55.3604 77.7485 55.3604 77.6738 55.3604Z"
      fill="#100906"/>
    <path
      d="M72.0041 55.3604C71.9294 55.3604 71.8732 55.3604 71.817 55.3791C71.7049 55.4164 71.6113 55.5097 71.5363 55.6029C71.4804 55.7149 71.4427 55.8268 71.4804 55.9574C71.4989 56.0693 71.574 56.1999 71.7234 56.2745C71.7423 56.2745 71.7608 56.2745 71.7608 56.2558C71.7608 56.2372 71.7608 56.2185 71.7423 56.2185C71.6113 56.1439 71.5551 56.0507 71.5363 55.9387C71.5178 55.8268 71.5363 55.7149 71.5925 55.6216C71.6487 55.5283 71.7234 55.4537 71.8358 55.4164C71.9294 55.3791 72.0604 55.3977 72.1724 55.4537C72.1913 55.4537 72.2101 55.4537 72.2101 55.4351C72.2101 55.4164 72.2101 55.3977 72.1913 55.3977C72.1351 55.3977 72.0604 55.3604 72.0041 55.3604Z"
      fill="#100906"/>
    <path
      d="M60.0291 47.3018C60.0291 47.3018 60.0102 47.3018 60.0291 47.3018C59.5986 47.5816 59.2431 47.9361 58.9624 48.3651C58.9439 48.3837 58.9624 48.4024 58.9624 48.4024C58.9813 48.4211 59.0001 48.4024 59.0001 48.4024C59.262 47.992 59.6174 47.6376 60.0291 47.3578C60.0479 47.3391 60.0479 47.3205 60.0291 47.3205C60.0479 47.3018 60.0479 47.3018 60.0291 47.3018Z"
      fill="#100906"/>
    <path
      d="M61.5633 46.9287C61.0207 46.9287 60.497 47.0593 60.0102 47.3018C59.9917 47.3018 59.9917 47.3204 59.9917 47.3391C59.9917 47.3578 60.0102 47.3578 60.0291 47.3578C60.497 47.1153 61.0207 46.9847 61.5633 46.9847C61.5821 46.9847 61.601 46.966 61.601 46.9474C61.601 46.9287 61.5821 46.9287 61.5633 46.9287Z"
      fill="#100906"/>
    <path
      d="M61.5633 46.9287C61.5448 46.9287 61.5259 46.9474 61.5259 46.966C61.5259 46.9847 61.5448 47.0033 61.5633 47.0033C62.6673 46.9847 63.6216 47.7308 63.9023 48.7755C63.9023 48.7941 63.9212 48.7941 63.9396 48.7941C63.9585 48.7941 63.9585 48.7755 63.9585 48.7568C63.6778 47.6562 62.6862 46.91 61.5633 46.9287Z"
      fill="#100906"/>
    <path
      d="M66.6903 46.9287C65.4927 46.966 64.426 47.6749 63.9211 48.7382C63.9211 48.7568 63.9211 48.7755 63.9396 48.7755C63.9585 48.7755 63.977 48.7755 63.977 48.7568C64.4822 47.7122 65.53 47.022 66.6903 46.9847C66.7088 46.9847 66.7277 46.966 66.7277 46.9474C66.7277 46.9287 66.7088 46.9287 66.6903 46.9287Z"
      fill="#100906"/>
    <path
      d="M49.027 50.7715C49.0083 50.7715 48.9896 50.7901 48.9896 50.8088C49.0084 52.469 50.3743 53.7935 52.0397 53.7935C52.0582 53.7935 52.077 53.7748 52.077 53.7562C52.077 53.7375 52.0582 53.7189 52.0397 53.7189C50.4117 53.7189 49.0832 52.4131 49.0645 50.7901C49.0645 50.7715 49.0457 50.7715 49.027 50.7715Z"
      fill="#100906"/>
    <path
      d="M55.0518 50.7901C55.0333 50.7901 55.0145 50.8088 55.0145 50.8274C55.0145 52.469 53.6674 53.7748 52.0208 53.7188C52.0019 53.7188 51.9835 53.7375 51.9835 53.7562C51.9835 53.7748 52.0019 53.7935 52.0208 53.7935C53.6859 53.8494 55.0707 52.5063 55.0707 50.8461C55.0896 50.8088 55.0707 50.7901 55.0518 50.7901Z"
      fill="#100906"/>
    <path
      d="M52.0582 47.8428C52.0397 47.8428 52.0208 47.8614 52.0208 47.8801C52.0208 47.8987 52.0397 47.9174 52.0582 47.9174C53.7048 47.8801 55.0518 49.2045 55.0333 50.8461C55.0333 50.8647 55.0518 50.8834 55.0707 50.8834C55.0896 50.8834 55.1081 50.8647 55.1081 50.8461C55.1081 49.1486 53.7237 47.7868 52.0582 47.8428Z"
      fill="#100906"/>
    <path
      d="M52.0582 47.8427C50.3929 47.8055 49.027 49.1485 49.0083 50.8088C49.0083 50.8274 49.027 50.8461 49.0457 50.8461C49.0645 50.8461 49.0832 50.8274 49.0832 50.8088C49.1018 49.1859 50.4304 47.8801 52.077 47.9174C52.0955 47.9174 52.1144 47.8987 52.1144 47.8801C52.077 47.8427 52.077 47.8427 52.0582 47.8427Z"
      fill="#100906"/>
    <path
      d="M55.0518 53.2152C55.0518 53.2152 55.0333 53.2152 55.0333 53.2338C54.3036 54.1479 53.1807 54.6702 52.0019 54.6329C51.9834 54.6329 51.9646 54.6516 51.9646 54.6702C51.9646 54.6888 51.9834 54.7075 52.0019 54.7075C53.1996 54.7262 54.3221 54.2039 55.0707 53.2711C55.0896 53.2525 55.0707 53.2338 55.0707 53.2338C55.0707 53.2152 55.0707 53.2152 55.0518 53.2152Z"
      fill="#100906"/>
    <path
      d="M48.1102 50.7528C48.0915 50.7528 48.0728 50.7715 48.0728 50.7901C48.0541 52.954 49.8316 54.7262 52.0019 54.6889C52.0208 54.6889 52.0397 54.6702 52.0397 54.6516C52.0397 54.6329 52.0208 54.6142 52.0019 54.6142C49.8691 54.6329 48.1289 52.8981 48.1289 50.7715C48.1476 50.7715 48.1289 50.7528 48.1102 50.7528Z"
      fill="#100906"/>
    <path
      d="M52.0397 46.9287C49.869 46.8914 48.0915 48.6263 48.0915 50.7901C48.0915 50.8088 48.1102 50.8274 48.1289 50.8274C48.1476 50.8274 48.1663 50.8088 48.1663 50.7901C48.1663 48.6635 49.9251 46.9474 52.0582 46.9847C52.077 46.9847 52.0955 46.966 52.0955 46.9474C52.077 46.9287 52.0582 46.9287 52.0397 46.9287Z"
      fill="#100906"/>
    <path
      d="M52.0397 46.9287C52.0208 46.9287 52.0019 46.9474 52.0019 46.966C52.0019 46.9847 52.0208 47.0033 52.0397 47.0033C53.2184 46.966 54.3598 47.5256 55.0333 48.4957C55.0518 48.5143 55.0707 48.5143 55.0707 48.4957C55.0896 48.477 55.0896 48.4583 55.0707 48.4583C54.3972 47.451 53.2369 46.8914 52.0397 46.9287Z"
      fill="#100906"/>
    <path
      d="M32.6362 50.8088C32.6175 50.8088 32.6175 50.8275 32.6175 50.8461C32.5987 52.4877 33.9459 53.8121 35.5925 53.7935C35.6112 53.7935 35.6299 53.7748 35.6299 53.7562C35.6299 53.7375 35.6112 53.7189 35.5925 53.7189C33.9834 53.7375 32.6736 52.4317 32.6736 50.8275C32.6736 50.8088 32.6736 50.8088 32.6362 50.8088C32.6362 50.8088 32.6549 50.8088 32.6362 50.8088Z"
      fill="#100906"/>
    <path
      d="M38.5488 50.8088C38.5301 50.8088 38.5114 50.8275 38.5114 50.8461C38.5301 52.4504 37.2017 53.7562 35.5925 53.7375C35.5738 53.7375 35.5551 53.7562 35.5551 53.7748C35.5551 53.7935 35.5738 53.8121 35.5925 53.8121C37.2391 53.8494 38.5863 52.5063 38.5676 50.8648C38.5676 50.8088 38.5676 50.8088 38.5488 50.8088Z"
      fill="#100906"/>
    <path
      d="M35.5925 47.8428C35.5738 47.8428 35.5551 47.8614 35.5551 47.8801C35.5551 47.8987 35.5738 47.9174 35.5925 47.9174C37.2204 47.9174 38.5301 49.2418 38.5114 50.8461C38.5114 50.8647 38.5301 50.8834 38.5488 50.8834C38.5676 50.8834 38.5863 50.8647 38.5863 50.8461C38.5863 49.1859 37.2578 47.8428 35.5925 47.8428Z"
      fill="#100906"/>
    <path
      d="M35.5925 47.8428C33.9459 47.8428 32.5987 49.1859 32.6175 50.8461C32.6175 50.8647 32.6362 50.8834 32.6549 50.8834C32.6736 50.8834 32.6923 50.8647 32.6923 50.8461C32.6736 49.2232 33.9834 47.9174 35.6112 47.9174C35.6299 47.9174 35.6486 47.8987 35.6486 47.8801C35.6299 47.8428 35.6112 47.8428 35.5925 47.8428Z"
      fill="#100906"/>
    <path
      d="M35.5925 46.9287C35.5738 46.9287 35.5551 46.9474 35.5551 46.966C35.5551 46.9847 35.5738 47.0033 35.5925 47.0033C36.659 46.9847 37.6881 47.4324 38.3992 48.2158C38.4179 48.2345 38.4366 48.2345 38.4366 48.2158C38.4553 48.1972 38.4553 48.1786 38.4366 48.1786C37.7256 47.3578 36.6965 46.8914 35.5925 46.9287Z"
      fill="#100906"/>
    <path
      d="M38.4366 48.1412C38.4179 48.1412 38.3992 48.1599 38.3992 48.1785V48.1972C39.0728 48.906 39.4283 49.8574 39.4096 50.8274C39.4096 50.8461 39.4283 50.8648 39.447 50.8648C39.4657 50.8648 39.4844 50.8461 39.4844 50.8274C39.5031 49.8388 39.1289 48.8874 38.4553 48.1599C38.4553 48.1412 38.4553 48.1412 38.4366 48.1412Z"
      fill="#100906"/>
    <path
      d="M39.4657 50.7901C39.447 50.7901 39.4283 50.8088 39.4283 50.8274C39.447 52.954 37.7256 54.6702 35.5925 54.6329C35.5738 54.6329 35.5551 54.6516 35.5551 54.6702C35.5551 54.6888 35.5738 54.7075 35.5925 54.7075C37.7443 54.7448 39.5031 52.9913 39.4844 50.8461C39.4844 50.8088 39.4844 50.7901 39.4657 50.7901Z"
      fill="#100906"/>
    <path
      d="M31.7194 50.7901C31.7007 50.7901 31.7007 50.8088 31.7007 50.8274C31.6632 52.9913 33.4408 54.7448 35.6113 54.6888C35.63 54.6888 35.6487 54.6702 35.6487 54.6516C35.6487 54.6329 35.63 54.6142 35.6113 54.6142C33.4782 54.6516 31.7381 52.9354 31.7755 50.8088C31.7568 50.8088 31.7381 50.7901 31.7194 50.7901C31.7194 50.7901 31.7381 50.7901 31.7194 50.7901Z"
      fill="#100906"/>
    <path
      d="M32.7485 48.1599C32.7485 48.1599 32.7298 48.1599 32.7298 48.1786C32.0562 48.9061 31.6819 49.8574 31.7007 50.8461C31.7007 50.8648 31.7194 50.8834 31.7381 50.8834C31.7568 50.8834 31.7755 50.8648 31.7755 50.8461C31.7568 49.8761 32.131 48.9434 32.7859 48.2158C32.8046 48.1972 32.8046 48.1786 32.7859 48.1786C32.7672 48.1599 32.7672 48.1599 32.7485 48.1599Z"
      fill="#100906"/>
    <path
      d="M35.5925 46.9287C34.5073 46.9101 33.4595 47.3578 32.7297 48.1785C32.711 48.1972 32.711 48.2158 32.7297 48.2158C32.7484 48.2345 32.7671 48.2345 32.7671 48.2158C33.4782 47.4137 34.5073 46.966 35.5925 46.9847C35.6112 46.9847 35.6299 46.966 35.6299 46.9474C35.6299 46.9287 35.6112 46.9287 35.5925 46.9287Z"
      fill="#100906"/>
    <path
      d="M23.3368 50.8088C23.3181 50.8088 23.3181 50.8275 23.3181 50.8461C23.2993 52.4877 24.6466 53.8121 26.2931 53.7935C26.3118 53.7935 26.3306 53.7748 26.3306 53.7562C26.3306 53.7375 26.3118 53.7189 26.2931 53.7189C24.684 53.7375 23.3555 52.4317 23.3742 50.8275C23.3742 50.8088 23.3555 50.8088 23.3368 50.8088Z"
      fill="#100906"/>
    <path
      d="M29.2308 50.8088C29.2121 50.8088 29.1934 50.8275 29.1934 50.8461C29.2121 52.4504 27.8836 53.7562 26.2744 53.7375C26.2557 53.7375 26.237 53.7562 26.237 53.7748C26.237 53.7935 26.2557 53.8121 26.2744 53.8121C27.921 53.8494 29.2682 52.5063 29.2495 50.8648C29.2682 50.8088 29.2495 50.8088 29.2308 50.8088Z"
      fill="#100906"/>
    <path
      d="M26.2931 47.8428C26.2744 47.8428 26.2557 47.8614 26.2557 47.8801C26.2557 47.8987 26.2744 47.9174 26.2931 47.9174C27.921 47.9174 29.2308 49.2418 29.2121 50.8461C29.2121 50.8647 29.2308 50.8834 29.2495 50.8834C29.2682 50.8834 29.2869 50.8647 29.2869 50.8461C29.2869 49.1859 27.9397 47.8428 26.2931 47.8428Z"
      fill="#100906"/>
    <path
      d="M26.2931 46.9287C26.2744 46.9287 26.2557 46.9474 26.2557 46.966C26.2557 46.9847 26.2744 47.0033 26.2931 47.0033C27.3597 46.9847 28.3888 47.4324 29.0998 48.2158C29.1185 48.2345 29.1372 48.2345 29.1372 48.2158C29.1559 48.1972 29.1559 48.1786 29.1372 48.1786C28.4262 47.3578 27.3784 46.8914 26.2931 46.9287Z"
      fill="#100906"/>
    <path
      d="M29.1372 48.1412C29.1185 48.1412 29.0998 48.1599 29.0998 48.1785V48.1972C29.7734 48.906 30.1289 49.8574 30.1102 50.8274C30.1102 50.8461 30.1289 50.8648 30.1476 50.8648C30.1663 50.8648 30.185 50.8461 30.185 50.8274C30.2037 49.8388 29.8295 48.8874 29.1559 48.1599C29.1559 48.1412 29.1372 48.1412 29.1372 48.1412Z"
      fill="#100906"/>
    <path
      d="M30.1476 50.7901C30.1289 50.7901 30.1102 50.8088 30.1102 50.8274C30.1289 52.954 28.4075 54.6702 26.2744 54.6329C26.2557 54.6329 26.237 54.6516 26.237 54.6702C26.237 54.6888 26.2557 54.7075 26.2744 54.7075C28.4262 54.7448 30.185 52.9913 30.1663 50.8461C30.185 50.8088 30.1663 50.7901 30.1476 50.7901Z"
      fill="#100906"/>
    <path
      d="M22.4199 50.7901C22.4013 50.7901 22.4013 50.8088 22.4013 50.8274C22.3638 52.9913 24.1414 54.7448 26.3119 54.6888C26.3306 54.6888 26.3493 54.6702 26.3493 54.6516C26.3493 54.6329 26.3306 54.6142 26.3119 54.6142C24.1601 54.6702 22.4199 52.954 22.4574 50.8274C22.4574 50.8088 22.4387 50.7901 22.4199 50.7901Z"
      fill="#100906"/>
    <path
      d="M23.449 48.1599C23.449 48.1599 23.4303 48.1599 23.4303 48.1786C22.7567 48.9061 22.3825 49.8574 22.4012 50.8461C22.4012 50.8648 22.4199 50.8834 22.4386 50.8834C22.4574 50.8834 22.4761 50.8648 22.4761 50.8461C22.4574 49.8761 22.8316 48.9434 23.4865 48.2158C23.5052 48.1972 23.5052 48.1786 23.4865 48.1786C23.4677 48.1599 23.449 48.1599 23.449 48.1599Z"
      fill="#100906"/>
    <path
      d="M26.2932 46.9287C25.2079 46.9101 24.1601 47.3578 23.4304 48.1785C23.4116 48.1972 23.4116 48.2158 23.4304 48.2158C23.4491 48.2345 23.4678 48.2345 23.4678 48.2158C24.1788 47.4137 25.2079 46.966 26.2932 46.9847C26.3118 46.9847 26.3306 46.966 26.3306 46.9474C26.3306 46.9287 26.3118 46.9287 26.2932 46.9287Z"
      fill="#100906"/>
    <path
      d="M26.2931 47.8428C24.6466 47.8428 23.2993 49.1859 23.3181 50.8461C23.3181 50.8647 23.3368 50.8834 23.3555 50.8834C23.3742 50.8834 23.3929 50.8647 23.3929 50.8461C23.3555 49.2232 24.6653 47.8987 26.2931 47.8987C26.3118 47.8987 26.3306 47.8801 26.3306 47.8614C26.3306 47.8428 26.3118 47.8428 26.2931 47.8428Z"
      fill="#100906"/>
    <path
      d="M84.0539 46.9287C82.9129 46.9287 81.8462 47.4883 81.1912 48.4211C81.1727 48.4397 81.1912 48.4583 81.1912 48.4583H81.2285C81.8651 47.5443 82.9314 46.9847 84.0539 47.0033C84.0728 47.0033 84.0916 46.9847 84.0916 46.966C84.0916 46.9474 84.0728 46.9287 84.0539 46.9287Z"
      fill="#100906"/>
    <path
      d="M85.813 49.2978C85.7941 49.2978 85.7756 49.3165 85.7756 49.3351C85.8692 49.8947 85.9066 50.4544 85.8877 51.0326C85.8877 51.0513 85.9066 51.07 85.925 51.07C85.9439 51.07 85.9624 51.0513 85.9624 51.0326C85.9813 50.4544 85.9439 49.8947 85.8503 49.3351C85.8503 49.3165 85.8315 49.2978 85.813 49.2978Z"
      fill="#100906"/>
    <path
      d="M83.8856 47.8427C83.8667 47.8427 83.8483 47.8614 83.8483 47.8801C83.8483 47.8987 83.8667 47.9174 83.8856 47.9174C84.8025 47.8427 85.607 48.4583 85.7756 49.3537C85.7756 49.3724 85.7941 49.3911 85.813 49.3724C85.8315 49.3537 85.8503 49.3537 85.8315 49.3351C85.6632 48.4024 84.8214 47.7681 83.8856 47.8427Z"
      fill="#100906"/>
    <path
      d="M83.8856 47.8428C82.6695 47.8614 81.6217 48.6635 81.3221 49.8388C81.3221 49.8574 81.3221 49.8761 81.341 49.8761C81.3598 49.8761 81.3783 49.8761 81.3783 49.8574C81.6779 48.7195 82.7069 47.9174 83.8856 47.8987C83.9045 47.8987 83.923 47.8801 83.923 47.8614C83.923 47.8428 83.9045 47.8428 83.8856 47.8428Z"
      fill="#100906"/>
    <path
      d="M81.341 49.8015C81.3221 49.8015 81.3221 49.8201 81.3036 49.8201C81.1727 50.473 81.1353 51.1632 81.1538 51.8348C81.1538 51.8534 81.1727 51.8721 81.1912 51.8721C81.21 51.8721 81.2285 51.8534 81.2285 51.8348C81.1912 51.1632 81.2474 50.4917 81.3783 49.8388C81.3783 49.8201 81.3598 49.8201 81.341 49.8015Z"
      fill="#100906"/>
    <path
      d="M17.7983 46.9287C16.6383 46.9474 15.5717 47.5256 14.9355 48.477C14.9168 48.4957 14.9355 48.5143 14.9355 48.5143C14.9543 48.533 14.973 48.5143 14.973 48.5143C15.6091 47.5816 16.657 47.022 17.7983 46.9847C17.8171 46.9847 17.8357 46.966 17.8357 46.9474C17.8171 46.9287 17.8171 46.9287 17.7983 46.9287Z"
      fill="#100906"/>
    <path
      d="M19.5572 49.2978C19.5385 49.2978 19.5198 49.3165 19.5198 49.3351C19.6133 49.8947 19.6507 50.4544 19.632 51.0326C19.632 51.0513 19.6507 51.07 19.6694 51.07C19.6882 51.07 19.7069 51.0513 19.7069 51.0326C19.7256 50.4544 19.6882 49.8947 19.5946 49.3351C19.5946 49.3165 19.5759 49.2978 19.5572 49.2978Z"
      fill="#100906"/>
    <path
      d="M17.6299 47.8428C16.4137 47.8614 15.3659 48.6635 15.0665 49.8388C15.0665 49.8574 15.0665 49.8761 15.0852 49.8761C15.1039 49.8761 15.1226 49.8761 15.1226 49.8574C15.422 48.7195 16.4511 47.9174 17.6299 47.8987C17.6486 47.8987 17.6673 47.8801 17.6673 47.8614C17.6673 47.8428 17.6486 47.8428 17.6299 47.8428Z"
      fill="#100906"/>
    <path
      d="M17.6299 47.8427C17.6112 47.8427 17.5925 47.8614 17.5925 47.8801C17.5925 47.8987 17.6112 47.9174 17.6299 47.9174C18.528 47.8614 19.3513 48.477 19.5384 49.3537C19.5384 49.3724 19.5571 49.3724 19.5759 49.3724C19.5946 49.3724 19.5946 49.3537 19.5946 49.3351C19.4075 48.4024 18.5655 47.7681 17.6299 47.8427Z"
      fill="#100906"/>
    <path
      d="M15.0852 49.8015C15.0665 49.8015 15.0665 49.8201 15.0478 49.8201C14.9355 50.4917 14.8981 51.1632 14.9168 51.8348C14.9168 51.8534 14.9355 51.8721 14.9542 51.8721C14.973 51.8721 14.9917 51.8534 14.9917 51.8348C14.9542 51.1632 14.9917 50.4917 15.1226 49.8388C15.1226 49.8201 15.1226 49.8201 15.0852 49.8015C15.0852 49.8015 15.1039 49.8015 15.0852 49.8015Z"
      fill="#100906"/>
    <path
      d="M80.4803 57.9161C79.9562 57.9347 79.4325 58.1212 78.9461 58.457C78.9272 58.4757 78.9272 58.4943 78.9461 58.4943C78.9646 58.513 78.9834 58.513 78.9834 58.4943C80.8731 57.1512 83.4928 58.4943 83.4928 60.8261C83.4928 63.1579 80.8731 64.501 78.9834 63.1579C78.9646 63.1393 78.9461 63.1579 78.9461 63.1579C78.9272 63.1765 78.9461 63.1952 78.9461 63.1952C80.8731 64.557 83.5675 63.1765 83.5675 60.8261C83.5487 59.054 82.0333 57.8414 80.4803 57.9161Z"
      fill="#100906"/>
    <path
      d="M80.4241 57.002C79.7317 57.0393 79.0397 57.2632 78.4035 57.7109C78.3846 57.7295 78.3846 57.7482 78.4035 57.7482C78.422 57.7668 78.4409 57.7668 78.4409 57.7482C80.9482 55.976 84.4097 57.7668 84.4097 60.8261C84.4097 63.8854 80.9482 65.6762 78.4409 63.9041C78.422 63.8854 78.4035 63.9041 78.4035 63.9041C78.3846 63.9227 78.4035 63.9414 78.4035 63.9414C80.9482 65.7322 84.4656 63.9227 84.4656 60.8261C84.4656 58.4943 82.4824 56.8901 80.4241 57.002Z"
      fill="#100906"/>
    <path
      d="M69.2538 57.002C67.1955 56.8901 65.212 58.4943 65.212 60.8261C65.212 63.9414 68.7297 65.7508 71.2744 63.9414C71.2933 63.9414 71.2933 63.9227 71.2933 63.9041C71.2933 63.8854 71.2744 63.8854 71.2559 63.8854C68.7297 65.6762 65.2682 63.8854 65.2682 60.8261C65.2682 57.7668 68.7297 55.976 71.237 57.7482C71.2559 57.7668 71.2744 57.7482 71.2744 57.7482C71.2933 57.7295 71.2744 57.7109 71.2744 57.7109C70.6382 57.2445 69.9458 57.0207 69.2538 57.002Z"
      fill="#100906"/>
    <path
      d="M69.2161 57.9161C67.6446 57.8414 66.1477 59.054 66.1477 60.8261C66.1477 63.1952 68.8233 64.5756 70.7507 63.1952C70.7692 63.1952 70.7692 63.1765 70.7692 63.1579C70.7692 63.1393 70.7507 63.1393 70.7318 63.1393C68.8422 64.4823 66.2224 63.1393 66.2224 60.8075C66.2224 58.4757 68.8422 57.1326 70.7318 58.4757C70.7507 58.4943 70.7692 58.4757 70.7692 58.4757C70.788 58.457 70.7692 58.4384 70.7692 58.4384C70.2639 58.1026 69.7402 57.9347 69.2161 57.9161Z"
      fill="#100906"/>
    <path
      d="M14.0187 44.056C13.9813 44.1679 14.0187 44.2985 14 44.4104V54.4837C14.0187 54.5956 14.1871 54.5396 14.262 54.5583C14.4865 54.5583 14.711 54.5583 14.9355 54.5583C15.0291 54.521 14.973 54.3904 14.9917 54.2971C14.9917 53.1592 14.973 52.0027 15.0104 50.8648C15.0291 50.4544 15.0665 50.0626 15.1788 49.6709C15.422 48.9434 16.0208 48.3278 16.7505 48.0666C17.1622 47.8987 17.6487 47.8614 18.079 47.936C18.79 48.048 19.4075 48.6449 19.5385 49.3537C19.6694 50.0626 19.632 50.7715 19.6507 51.499C19.6507 52.5063 19.6507 53.5137 19.6507 54.521C19.6882 54.6329 19.8378 54.577 19.9127 54.5956C20.1372 54.5956 20.3618 54.5956 20.5863 54.5956C20.6798 54.5583 20.6237 54.4277 20.6424 54.3344C20.6237 52.954 20.6424 51.555 20.6237 50.1746C20.605 49.7268 20.5489 49.2605 20.4179 48.8314C20.3243 48.5516 20.2121 48.2905 20.0437 48.0666C19.8753 47.8241 19.6507 47.6189 19.4075 47.451C19.1642 47.2831 18.8836 47.1526 18.6029 47.0779C18.2848 46.9847 17.9293 46.9474 17.5925 46.966C16.5634 47.022 15.6091 47.5443 14.9917 48.3837C14.973 47.5816 14.9917 46.7795 14.973 45.9773C14.973 45.3618 14.973 44.7275 14.973 44.1119C14.9355 44 14.8046 44.056 14.7297 44.0373C14.5052 44.056 14.262 44.0187 14.0187 44.056Z"
      fill="#100906"/>
    <path
      d="M26.2183 46.9287C25.3015 46.9287 24.3659 47.2831 23.6923 47.9174C23.1123 48.4397 22.6819 49.1299 22.5135 49.8947C22.4013 50.3238 22.4013 50.7902 22.42 51.2378C22.5135 52.2079 22.9813 53.1406 23.7297 53.7748C24.4969 54.4464 25.5447 54.7635 26.5738 54.7075C27.659 54.6516 28.6881 54.1106 29.3617 53.2711C29.8295 52.6929 30.1289 51.9653 30.185 51.2192C30.2037 50.7342 30.2037 50.2305 30.0541 49.7455C29.6798 48.4024 28.5198 47.3018 27.1351 47.022C26.817 46.9287 26.5177 46.9101 26.2183 46.9287ZM26.3306 47.8987C26.9293 47.8987 27.5281 48.1039 28.0146 48.4583C28.763 48.9993 29.2308 49.932 29.1933 50.8648C29.2121 51.8348 28.6694 52.7861 27.8462 53.2898C27.3784 53.5696 26.8358 53.7188 26.2931 53.7188C25.3389 53.7562 24.3659 53.2525 23.842 52.4504C23.4865 51.9094 23.3181 51.2565 23.3742 50.6223C23.4304 49.559 24.1414 48.5703 25.1143 48.1599C25.5073 47.9734 25.9189 47.8987 26.3306 47.8987Z"
      fill="#100906"/>
    <path
      d="M35.5738 46.9287C34.975 46.9101 34.3763 47.0593 33.8524 47.3205C32.8045 47.8428 32.0187 48.8501 31.7754 49.988C31.6819 50.4171 31.7006 50.8648 31.7193 51.2938C31.8129 52.1706 32.2432 53.01 32.8794 53.6256C33.5156 54.2598 34.4137 54.6329 35.3118 54.6889C35.7796 54.6889 36.2661 54.6889 36.7151 54.5396C37.6694 54.2598 38.5114 53.6069 38.9979 52.7302C39.3347 52.1332 39.5031 51.4244 39.4657 50.7342C39.4657 50.3798 39.4283 50.044 39.316 49.7082C39.054 48.7568 38.3804 47.9174 37.5197 47.4137C36.9584 47.078 36.2661 46.8914 35.5738 46.9287ZM35.5738 47.8987C36.3222 47.8987 37.1081 48.1972 37.6507 48.7382C38.212 49.2791 38.5301 50.044 38.5114 50.8274C38.5301 51.7602 38.0624 52.6929 37.2765 53.2152C36.5655 53.7002 35.6299 53.8308 34.8066 53.6256C33.9459 53.4017 33.2162 52.7675 32.8794 51.9467C32.6549 51.4057 32.6174 50.7902 32.7297 50.2305C32.8981 49.3724 33.4968 48.5889 34.3014 48.2158C34.7131 48.0107 35.1434 47.8987 35.5738 47.8987Z"
      fill="#100906"/>
    <path
      d="M41.2994 44.056C41.2433 44.1679 41.2807 44.2985 41.2807 44.4104V54.4837C41.2994 54.5956 41.4678 54.5396 41.5426 54.5583C41.7672 54.5583 41.9917 54.577 42.2162 54.5396C42.2911 54.4837 42.2349 54.3531 42.2537 54.2785C42.2537 53.2525 42.2537 52.2079 42.2537 51.1819C43.5073 52.2825 44.7422 53.4204 45.9771 54.5396C46.1081 54.577 46.2765 54.5396 46.4075 54.5583C46.6694 54.5583 46.9501 54.577 47.2121 54.5396C47.3056 54.5023 47.2495 54.3904 47.1934 54.3531C45.8087 53.1033 44.4054 51.8534 43.0395 50.5849C44.3119 49.4284 45.6029 48.3091 46.8753 47.1526C46.9314 47.0779 46.8378 47.0033 46.763 47.022C46.3888 47.022 46.0146 47.0033 45.6216 47.022C45.4719 47.1153 45.3784 47.2458 45.2474 47.3391C44.2557 48.2158 43.264 49.1113 42.2724 49.988C42.2537 48.5143 42.2724 47.022 42.2537 45.5483C42.2537 45.0446 42.2537 44.5596 42.2537 44.056C42.2162 43.9627 42.0853 44.0187 41.9917 44C41.7672 44.056 41.5239 44.0187 41.2994 44.056Z"
      fill="#100906"/>
    <path
      d="M51.9646 46.9287C50.9356 46.9287 49.9252 47.3578 49.2142 48.0666C48.3909 48.8688 47.9792 50.0626 48.0915 51.2005C48.2225 52.525 49.1019 53.7562 50.3181 54.3158C51.4971 54.8567 52.9188 54.8195 54.0417 54.1479C54.4157 53.9241 54.7338 53.6442 55.0333 53.3271C55.0518 53.7188 55.0333 54.1106 55.0333 54.5023C55.0707 54.5956 55.2016 54.5396 55.2952 54.5583C55.5197 54.5583 55.7442 54.5769 55.9687 54.5396C56.0438 54.4837 55.9876 54.3531 56.0061 54.2785V47.1153C55.9876 47.0033 55.8193 47.0593 55.7442 47.0406C55.5197 47.0406 55.2952 47.022 55.0707 47.0593C54.996 47.1153 55.0518 47.2458 55.0333 47.3204C55.0333 47.6562 55.0333 48.0107 55.0145 48.3464C54.4157 47.5443 53.4803 47.022 52.4887 46.9287C52.32 46.9287 52.1332 46.9287 51.9646 46.9287ZM52.077 47.8987C52.8253 47.8987 53.5739 48.1599 54.1165 48.6822C54.7338 49.2605 55.0707 50.0999 55.0333 50.958C55.0145 51.9281 54.4345 52.8794 53.5739 53.3458C53.1249 53.5883 52.6381 53.7188 52.1332 53.7188C51.4971 53.7375 50.8233 53.5323 50.2994 53.1592C49.9439 52.8608 49.6071 52.525 49.4013 52.1146C49.0457 51.4244 48.9709 50.6036 49.2329 49.8761C49.4574 49.2045 49.9439 48.6076 50.5801 48.2718C51.0292 48.0107 51.5529 47.8987 52.077 47.8987Z"
      fill="#100906"/>
    <path
      d="M61.5448 46.9287C61.0207 46.9287 60.4781 47.0593 60.0102 47.3204C59.6174 47.563 59.2993 47.8987 59.0375 48.2718C59.0375 47.8801 59.0375 47.4883 59.0375 47.1153C59.0001 47.022 58.8692 47.0779 58.7756 47.0593C58.5511 47.0593 58.3262 47.0406 58.1017 47.0779C58.027 47.1339 58.0832 47.2645 58.0644 47.3391V54.521C58.0832 54.6329 58.2515 54.5769 58.3262 54.5956C58.5511 54.5956 58.7756 54.6143 59.0001 54.5769C59.0748 54.521 59.0186 54.3904 59.0375 54.3158C59.0375 53.1219 59.0375 51.9094 59.056 50.7155C59.0748 50.3424 59.1311 49.9507 59.2431 49.5962C59.3367 49.3351 59.4491 49.0553 59.6363 48.8501C59.8046 48.6076 60.0479 48.4211 60.2909 48.2532C60.4596 48.1599 60.6464 48.0666 60.8335 48.0106C61.0396 47.992 61.2452 47.9174 61.4697 47.936C61.6942 47.9547 61.9191 47.9734 62.1247 48.0853C62.3492 48.1599 62.5364 48.3278 62.7047 48.4957C62.8356 48.6822 62.9669 48.8688 63.0043 49.0926C63.1726 49.7269 63.1352 50.3797 63.1537 51.014C63.1537 52.1892 63.1537 53.3644 63.1537 54.5396C63.1726 54.6516 63.3408 54.5956 63.4159 54.6143C63.6404 54.6143 63.8649 54.6329 64.0894 54.5956C64.1642 54.5396 64.1079 54.409 64.1268 54.3344C64.1457 53.1592 64.1268 51.984 64.1642 50.8088C64.183 50.4357 64.2204 50.044 64.3328 49.6709C64.4075 49.4284 64.5011 49.1486 64.6694 48.9434C64.7818 48.7568 64.9312 48.6076 65.0999 48.477C65.3244 48.2718 65.6236 48.1599 65.8855 48.0293C66.11 48.0106 66.3349 47.9547 66.5594 47.936C66.8024 47.9547 67.0458 47.992 67.2514 48.0853C67.4574 48.1599 67.6257 48.2905 67.7755 48.4397C67.9064 48.6076 68.0374 48.7755 68.0936 48.9993C68.2434 49.503 68.2245 50.0253 68.2434 50.5476C68.2619 51.8721 68.2434 53.2152 68.2434 54.5396C68.2619 54.6516 68.4305 54.5956 68.5052 54.6143C68.7297 54.6143 68.9542 54.6143 69.1788 54.6143C69.2723 54.5769 69.2161 54.4464 69.235 54.3531C69.235 52.9167 69.235 51.4804 69.2161 50.044C69.1976 49.5776 69.1414 49.1113 68.9916 48.6449C68.8795 48.3651 68.7671 48.0853 68.5615 47.8614C68.4305 47.6562 68.2245 47.507 68.0189 47.3764C67.7944 47.2085 67.5136 47.1153 67.2514 47.0406C66.9148 46.9847 66.5779 46.9474 66.2413 47.0033C65.2493 47.1526 64.3702 47.8055 63.9212 48.7009C63.9023 48.7195 63.8834 48.6076 63.8649 48.5703C63.6216 47.8987 63.079 47.3578 62.4055 47.1153C62.1621 46.966 61.8629 46.9101 61.5448 46.9287Z"
      fill="#100906"/>
    <path
      d="M74.7733 46.9101C74.0251 46.9287 73.2765 47.1526 72.6592 47.5816C71.4804 48.3651 70.788 49.8201 70.9752 51.2379C71.0688 52.1146 71.4804 52.9727 72.1166 53.5883C72.9773 54.4464 74.2496 54.8568 75.4472 54.6516C76.6444 54.465 77.7111 53.7002 78.2722 52.6369C78.6092 52.0213 78.759 51.3311 78.7216 50.6223C78.6839 49.3724 77.973 48.1786 76.9252 47.5257C76.289 47.1153 75.5404 46.8914 74.7733 46.9101ZM74.8669 47.8801C75.6717 47.8801 76.4573 48.2345 76.9999 48.8314C77.524 49.3911 77.8047 50.1746 77.7485 50.9207C77.7296 51.8348 77.2059 52.7302 76.4388 53.2338C76.0083 53.5137 75.503 53.6816 74.9793 53.6816C74.6239 53.7002 74.2681 53.6629 73.9315 53.551C73.1644 53.3085 72.5094 52.7302 72.1724 51.984C71.817 51.2192 71.817 50.2865 72.1913 49.5216C72.5841 48.6822 73.3889 48.0666 74.3058 47.8987C74.5114 47.8987 74.6797 47.8801 74.8669 47.8801Z"
      fill="#100906"/>
    <path
      d="M83.9045 46.9287C83.0061 46.966 82.1081 47.3764 81.4908 48.048C81.3972 48.1412 81.3036 48.2532 81.2474 48.3278C81.2285 47.9174 81.2474 47.507 81.2285 47.1153C81.1912 47.022 81.0602 47.0779 80.9667 47.0593C80.7421 47.0593 80.5176 47.0406 80.2931 47.0779C80.2184 47.1339 80.2743 47.2645 80.2558 47.3391V54.521C80.2743 54.6329 80.4429 54.5769 80.5176 54.5956C80.7421 54.5956 80.9667 54.6143 81.1912 54.5769C81.2662 54.521 81.21 54.3904 81.2285 54.3158C81.2285 53.1965 81.21 52.0773 81.2474 50.958C81.2662 50.529 81.3036 50.0999 81.4345 49.6895C81.6779 48.9434 82.2952 48.3278 83.0438 48.0666C83.4366 47.9174 83.8671 47.8987 84.2973 47.936C85.0644 48.0293 85.7194 48.6822 85.813 49.447C85.925 50.1559 85.8877 50.8648 85.9065 51.5923C85.9065 52.5809 85.9065 53.551 85.9065 54.5396C85.925 54.6516 86.0937 54.5956 86.1684 54.6143C86.3929 54.6143 86.6174 54.6143 86.8419 54.6143C86.9355 54.5769 86.8793 54.4464 86.8981 54.3531C86.8981 52.954 86.8981 51.555 86.8793 50.1372C86.8608 49.5403 86.7672 48.9434 86.5054 48.4024C86.3556 48.1226 86.1684 47.8614 85.925 47.6562C85.7194 47.4697 85.4575 47.3204 85.1953 47.1899C84.8961 47.0779 84.5969 46.9847 84.2784 46.9847C84.129 46.9287 84.0165 46.9287 83.9045 46.9287Z"
      fill="#100906"/>
    <path
      d="M88.9191 44.056C88.8629 44.1679 88.9002 44.2985 88.9002 44.4104V54.4837C88.9376 54.5956 89.0874 54.5396 89.1621 54.5583C89.3866 54.5583 89.6111 54.577 89.8356 54.5396C89.9107 54.4837 89.8545 54.3531 89.8733 54.2785C89.8733 53.2525 89.8733 52.2079 89.8918 51.1819C91.1457 52.2825 92.3806 53.4204 93.6152 54.5396C93.7465 54.577 93.9148 54.5396 94.0458 54.5583C94.3076 54.5583 94.5884 54.577 94.8502 54.5396C94.9253 54.5023 94.8879 54.4091 94.8317 54.3718C93.447 53.1033 92.0437 51.8721 90.6778 50.5849C91.9501 49.4284 93.2224 48.2905 94.5136 47.1526C94.5884 47.0593 94.4574 47.0033 94.3827 47.022C94.0084 47.022 93.6341 47.022 93.2413 47.022C93.0915 47.1153 92.9979 47.2458 92.867 47.3391C91.8754 48.2345 90.8834 49.1299 89.8733 49.988V44.1119C89.8545 44 89.6862 44.056 89.6111 44.0373C89.3866 44.056 89.1621 44.0187 88.9191 44.056Z"
      fill="#100906"/>
    <path
      d="M68.9731 56.9833C68.786 56.9833 68.5988 56.9833 68.4301 57.0393C68.3928 57.1699 68.4302 57.3378 68.4117 57.4683C68.4302 57.6362 68.3928 57.8228 68.4301 57.9907C68.5237 58.0466 68.6173 57.972 68.7109 57.972C69.1599 57.9347 69.6466 57.972 70.0768 58.1399C70.5447 58.3078 70.9374 58.6622 71.3491 58.9234C72.2286 59.539 73.1082 60.1546 73.9689 60.7888C73.1082 61.423 72.2286 62.0386 71.3491 62.6542C71.0125 62.8781 70.6945 63.1392 70.339 63.3258C69.7776 63.6056 69.1225 63.6988 68.4864 63.5869C68.3554 63.5869 68.4117 63.7548 68.4117 63.8294C68.4117 64.0533 68.4117 64.2958 68.4117 64.5196C68.449 64.6129 68.5988 64.5756 68.6735 64.6129C69.1599 64.6502 69.6651 64.6129 70.133 64.4637C70.6382 64.3144 71.1061 64.0346 71.5178 63.7175C72.6214 62.934 73.7255 62.1506 74.8295 61.3857C76.1019 62.2811 77.3742 63.1952 78.6654 64.0906C79.6008 64.6502 80.7795 64.7808 81.8088 64.4264C82.9876 64.0533 83.9418 63.0832 84.2973 61.8894C84.4656 61.3484 84.4844 60.7515 84.4097 60.1918C84.2599 59.2032 83.6985 58.3078 82.894 57.7109C81.8836 56.9647 80.4988 56.7408 79.32 57.1699C78.871 57.3191 78.4782 57.5989 78.0851 57.8787C76.9999 58.6436 75.9336 59.427 74.8295 60.1546C74.7922 60.1732 74.7359 60.0986 74.6986 60.0986C73.4636 59.2591 72.266 58.3637 71.031 57.5243C70.4326 57.1699 69.7028 56.9647 68.9731 56.9833ZM80.6112 57.9907C80.9293 57.972 81.2474 58.028 81.5466 58.1399C82.3326 58.4011 83.0061 59.0353 83.2868 59.8001C83.5487 60.4717 83.5302 61.2365 83.2683 61.9081C83.0812 62.3558 82.8004 62.7475 82.4261 63.046C81.7153 63.6242 80.7233 63.8294 79.8441 63.5683C79.451 63.4563 79.1144 63.2698 78.7963 63.0273C77.7858 62.2998 76.7569 61.5909 75.7464 60.8634C75.6713 60.8261 75.8026 60.7888 75.84 60.7515C76.9063 59.9867 77.973 59.2218 79.0393 58.4757C79.5072 58.1585 80.0498 57.9534 80.6112 57.9907Z"
      fill="#100906"/>
    <path
      d="M68.3928 57.0393C67.5321 57.2072 66.7277 57.6362 66.1477 58.3078C65.5116 59.0353 65.1746 60.0053 65.212 60.9567C65.2308 61.964 65.6987 62.9527 66.4469 63.6242C66.9895 64.1279 67.663 64.4637 68.3743 64.5756C68.4864 64.5943 68.4864 64.4637 68.4864 64.3891C68.4864 64.1279 68.4864 63.8854 68.4679 63.6242C68.4305 63.531 68.2992 63.5683 68.2245 63.531C67.42 63.2885 66.7277 62.6915 66.4096 61.9081C66.0168 61.0127 66.1289 59.9121 66.7277 59.1099C67.1393 58.5503 67.7381 58.1586 68.4117 58.0093C68.5052 57.9534 68.449 57.8041 68.4679 57.7109C68.4679 57.487 68.4864 57.2632 68.449 57.0393C68.449 57.0579 68.4305 57.0393 68.3928 57.0393Z"
      fill="#100906"/>
    <path
      d="M77.7111 55.3604C77.524 55.3604 77.3742 55.5097 77.2059 55.5843C76.4199 56.032 75.634 56.4983 74.8295 56.9274C73.9126 56.4237 73.0146 55.8828 72.0977 55.3791C71.8917 55.3045 71.6487 55.3791 71.5363 55.5656C71.3868 55.7708 71.4242 56.0879 71.6487 56.2185C72.6592 56.8341 73.6881 57.4124 74.7171 57.9907C74.7922 58.0653 74.8857 58.028 74.942 57.972C75.9709 57.3937 76.9814 56.7968 77.9918 56.1999C78.1975 56.0506 78.2163 55.7335 78.0666 55.547C78.0103 55.435 77.8605 55.3604 77.7111 55.3604Z"
      fill="#100906"/>
    <path
      d="M17.7983 46.9287C17.7796 46.9287 17.7609 46.9474 17.7609 46.966C17.7609 46.9847 17.7796 47.0033 17.7983 47.0033L18.3784 47.0593L18.9397 47.2272L19.4449 47.5256L19.8753 47.9174L20.1934 48.4211L20.3992 48.9807L20.5114 49.559L20.5676 50.1559L20.5863 50.7528C20.5863 50.7715 20.605 50.7902 20.6237 50.7902C20.6424 50.7902 20.6611 50.7715 20.6611 50.7528L20.6424 50.1559L20.5489 49.5216L20.4366 48.9247L20.2308 48.3651L19.8939 47.8614L19.4636 47.451L18.9397 47.1526L18.3784 46.9847L17.7983 46.9287Z"
      fill="#100906"/>
  </g>
  <defs>
    <clipPath id="clip0">
      <rect width="81" height="21" fill="white" transform="translate(14 44)"/>
    </clipPath>
  </defs>
</svg>
