<svg width="152" height="68" viewBox="0 0 152 68" fill="none" xmlns="http://www.w3.org/2000/svg">
  <title>[logo] PriceFx</title>

  <g clip-path="url(#clip0)">
    <path
      d="M127.05 24.51C127.05 24.24 126.91 24.11 126.63 24.11H121.05C120.834 24.11 120.623 24.1802 120.45 24.31C120.217 24.5025 120.003 24.7168 119.81 24.95L115.4 30.48L112.69 25C112.58 24.7856 112.457 24.5785 112.32 24.38C112.261 24.3051 112.185 24.2458 112.098 24.2075C112.01 24.1691 111.915 24.1528 111.82 24.16H102.82L103.54 20.72C103.637 20.027 103.901 19.368 104.31 18.8C104.692 18.5064 105.171 18.3704 105.65 18.42H107L107.84 14H105.44C104.373 13.9556 103.304 13.9823 102.24 14.08C101.353 14.1982 100.502 14.5014 99.74 14.97C98.9544 15.5053 98.3094 16.2223 97.86 17.06C97.2779 18.1864 96.8924 19.4039 96.72 20.66L96.11 23.56L94.25 33.75L91.8 47.11C91.7342 47.4921 91.6441 47.8695 91.53 48.24C91.4542 48.4864 91.3057 48.7041 91.1041 48.8646C90.9025 49.0252 90.6571 49.1212 90.4 49.14C90.28 49.14 89.4 49.14 88.33 49.14L87.44 54C88.44 54 89.8 54 90.11 54C91.0514 54 91.9912 53.9231 92.92 53.77C93.8187 53.639 94.6784 53.3149 95.44 52.82C96.2236 52.2835 96.8708 51.5712 97.33 50.74C97.9376 49.6009 98.3468 48.3665 98.54 47.09L101.91 29H106.05C106.59 28.9723 107.124 29.1235 107.57 29.43C107.7 29.5656 107.817 29.7129 107.92 29.87L110.65 35.17L101.33 46.27C101.224 46.3926 101.164 46.5481 101.16 46.71C101.16 46.95 101.29 47.07 101.54 47.07H107.12C107.334 47.0718 107.543 47.0091 107.72 46.89C107.961 46.7139 108.176 46.5052 108.36 46.27L113.36 40.02L116.36 46.23C116.46 46.4583 116.587 46.6733 116.74 46.87C116.801 46.9413 116.878 46.9967 116.965 47.0315C117.052 47.0664 117.147 47.0796 117.24 47.07H123.24C123.315 47.0731 123.389 47.0585 123.457 47.0272C123.525 46.9959 123.584 46.9488 123.63 46.89C123.729 46.7725 123.782 46.6235 123.78 46.47C123.793 46.3905 123.793 46.3095 123.78 46.23L118.1 35.45L126.88 25C126.938 24.943 126.983 24.8743 127.013 24.7984C127.042 24.7225 127.055 24.6412 127.05 24.56"
      fill="#31B4E7"/>
    <path
      d="M40.35 31.5C40.4157 30.4735 40.2722 29.4443 39.9285 28.4749C39.5847 27.5054 39.0477 26.6158 38.35 25.86C37.5701 25.1559 36.6564 24.6159 35.6634 24.2723C34.6703 23.9287 33.6183 23.7885 32.57 23.86C31.3765 23.856 30.184 23.9295 29 24.08C27.9914 24.2129 26.9901 24.3964 26 24.63C25.6956 24.6781 25.4093 24.8057 25.17 25C25.0569 25.1418 24.9968 25.3186 25 25.5V46.44C25.0013 46.5203 25.0198 46.5993 25.0543 46.6718C25.0888 46.7442 25.1385 46.8084 25.2 46.86C25.3285 46.9588 25.4881 47.0085 25.65 47H29.4C29.4816 47.0004 29.5624 46.9847 29.6379 46.9538C29.7134 46.923 29.7821 46.8775 29.84 46.82C29.9381 46.7172 29.995 46.582 30 46.44V41.27C30.46 41.33 30.92 41.38 31.39 41.42C31.86 41.46 32.24 41.48 32.55 41.48C35.17 41.48 37.13 40.79 38.41 39.42C39.752 37.8769 40.4406 35.872 40.33 33.83L40.35 31.5ZM35.35 33.85C35.3541 34.3331 35.3106 34.8154 35.22 35.29C35.155 35.7014 35.0088 36.0957 34.79 36.45C34.582 36.7782 34.2926 37.0469 33.95 37.23C33.5248 37.4284 33.059 37.5243 32.59 37.51C32.22 37.51 31.79 37.51 31.32 37.45L30 37.33V28C30.29 28 30.66 27.93 31.11 27.9C31.56 27.87 32.03 27.9 32.55 27.9C33.0182 27.8826 33.484 27.975 33.91 28.17C34.2538 28.3425 34.5441 28.6052 34.75 28.93C34.9655 29.2787 35.1115 29.6658 35.18 30.07C35.2719 30.5511 35.3155 31.0402 35.31 31.53L35.35 33.85ZM52.35 27.32V24.46C52.3481 24.3808 52.3304 24.3028 52.2977 24.2307C52.2651 24.1585 52.2182 24.0937 52.16 24.04C52.1021 23.9825 52.0334 23.937 51.9579 23.9062C51.8824 23.8753 51.8016 23.8596 51.72 23.86C50.9679 23.8601 50.2211 23.9851 49.51 24.23C48.7873 24.4702 48.1109 24.8321 47.51 25.3V24.7C47.5106 24.6204 47.4939 24.5416 47.4611 24.4691C47.4283 24.3966 47.3802 24.3321 47.32 24.28C47.264 24.2228 47.197 24.1774 47.1232 24.1465C47.0493 24.1156 46.9701 24.0998 46.89 24.1H43.21C43.1284 24.0996 43.0476 24.1153 42.9721 24.1462C42.8966 24.177 42.8279 24.2225 42.77 24.28C42.7139 24.3327 42.669 24.3961 42.6381 24.4666C42.6071 24.5371 42.5908 24.613 42.59 24.69V40.59C42.5898 40.6719 42.6077 40.7529 42.6422 40.8272C42.6768 40.9015 42.7272 40.9673 42.79 41.02C42.8479 41.081 42.9177 41.1293 42.9952 41.162C43.0726 41.1947 43.1559 41.211 43.24 41.21H47C47.0812 41.2114 47.1617 41.1951 47.2359 41.1623C47.3102 41.1295 47.3764 41.0809 47.43 41.02C47.4894 40.9652 47.537 40.8987 47.5697 40.8247C47.6024 40.7508 47.6195 40.6709 47.62 40.59V28.93C48.218 28.6312 48.8402 28.3836 49.48 28.19C50.1747 27.9855 50.8958 27.8845 51.62 27.89H51.87C51.9374 27.8919 52.0041 27.8764 52.0637 27.8448C52.1233 27.8133 52.1737 27.7668 52.21 27.71C52.2914 27.5959 52.3367 27.4601 52.34 27.32H52.35ZM59.22 18.78C59.217 18.698 59.1956 18.6178 59.1576 18.5451C59.1195 18.4724 59.0657 18.4092 59 18.36C58.9447 18.3019 58.8779 18.2559 58.8039 18.2249C58.7299 18.1939 58.6502 18.1786 58.57 18.18H54.57C54.4884 18.1796 54.4076 18.1953 54.3321 18.2262C54.2566 18.257 54.1879 18.3025 54.13 18.36C54.0731 18.4142 54.0278 18.4793 53.9969 18.5515C53.966 18.6237 53.95 18.7015 53.95 18.78V21.56C53.95 21.6385 53.966 21.7163 53.9969 21.7885C54.0278 21.8607 54.0731 21.9258 54.13 21.98C54.1879 22.0375 54.2566 22.083 54.3321 22.1138C54.4076 22.1447 54.4884 22.1604 54.57 22.16H58.57C58.6488 22.164 58.7276 22.1518 58.8015 22.1243C58.8754 22.0968 58.943 22.0545 59 22C59.0602 21.9479 59.1083 21.8834 59.1411 21.8109C59.1739 21.7384 59.1906 21.6596 59.19 21.58L59.22 18.78ZM59.1 24.69C59.0974 24.6124 59.0792 24.5362 59.0466 24.4657C59.0139 24.3953 58.9675 24.3322 58.91 24.28C58.854 24.2228 58.787 24.1774 58.7132 24.1465C58.6393 24.1156 58.5601 24.0998 58.48 24.1H54.68C54.5999 24.0998 54.5207 24.1156 54.4468 24.1465C54.373 24.1774 54.306 24.2228 54.25 24.28C54.1906 24.3306 54.1428 24.3934 54.1101 24.4642C54.0773 24.5349 54.0602 24.612 54.06 24.69V40.62C54.0595 40.6981 54.0763 40.7754 54.1091 40.8463C54.142 40.9171 54.1901 40.9799 54.25 41.03C54.306 41.0872 54.373 41.1326 54.4468 41.1635C54.5207 41.1944 54.5999 41.2102 54.68 41.21H58.47C58.5522 41.2064 58.6329 41.1859 58.7068 41.1497C58.7808 41.1136 58.8466 41.0626 58.9 41C58.9584 40.9486 59.0055 40.8856 59.0382 40.815C59.0709 40.7444 59.0885 40.6678 59.09 40.59L59.1 24.69ZM73.23 40.35V37.69C73.2336 37.6192 73.22 37.5486 73.1904 37.4842C73.1608 37.4197 73.116 37.3634 73.06 37.32C72.9411 37.2249 72.7922 37.1752 72.64 37.18H72.58L70.92 37.33C70.3867 37.37 69.6767 37.39 68.79 37.39C68.4499 37.3949 68.1116 37.3408 67.79 37.23C67.4756 37.1178 67.1987 36.9205 66.99 36.66C66.7351 36.3412 66.5479 35.9737 66.44 35.58C66.2962 35.0387 66.2289 34.48 66.24 33.92V31.42C66.2289 30.86 66.2962 30.3013 66.44 29.76C66.5509 29.3655 66.7415 28.998 67 28.68C67.2087 28.4195 67.4856 28.2222 67.8 28.11C68.1228 28.0041 68.4603 27.9501 68.8 27.95C69.6933 27.95 70.4033 27.97 70.93 28.01L72.59 28.16H72.65C72.8022 28.1648 72.9511 28.1151 73.07 28.02C73.126 27.9766 73.1708 27.9203 73.2004 27.8558C73.23 27.7914 73.2436 27.7208 73.24 27.65V25C73.2489 24.9171 73.2402 24.8332 73.2143 24.7539C73.1885 24.6746 73.1461 24.6017 73.09 24.54C72.9408 24.4321 72.7704 24.3571 72.59 24.32C72.15 24.22 71.59 24.12 70.9 24.02C70.0912 23.9126 69.2759 23.8625 68.46 23.87C67.4985 23.8216 66.5372 23.9675 65.6334 24.2991C64.7296 24.6307 63.902 25.1412 63.2 25.8C62.5004 26.5505 61.962 27.4363 61.6181 28.4029C61.2741 29.3695 61.1318 30.3963 61.2 31.42V33.92C61.1318 34.9437 61.2741 35.9705 61.6181 36.9371C61.962 37.9037 62.5004 38.7895 63.2 39.54C63.8987 40.2013 64.7241 40.7141 65.6264 41.0475C66.5287 41.3809 67.4892 41.5281 68.45 41.48C69.2659 41.4875 70.0812 41.4374 70.89 41.33C71.58 41.23 72.14 41.13 72.58 41.03C72.7604 40.9929 72.9308 40.9179 73.08 40.81C73.1361 40.7483 73.1785 40.6754 73.2043 40.5961C73.2302 40.5168 73.2389 40.4329 73.23 40.35ZM89.86 31.71C89.8679 30.647 89.7024 29.5898 89.37 28.58C89.0715 27.6605 88.5806 26.8151 87.93 26.1C87.2634 25.38 86.4431 24.8194 85.53 24.46C84.4674 24.0407 83.3321 23.8367 82.19 23.86C81.0623 23.8396 79.9405 24.026 78.88 24.41C77.9522 24.7419 77.111 25.2782 76.4186 25.9793C75.7262 26.6804 75.2004 27.5282 74.88 28.46C74.5199 29.5051 74.3439 30.6047 74.36 31.71V33.81C74.307 35.0489 74.5255 36.2844 75 37.43C75.4021 38.3552 76.0192 39.1712 76.8 39.81C77.5368 40.4092 78.3923 40.8455 79.31 41.09C80.2178 41.3469 81.1565 41.4781 82.1 41.48C83.2493 41.4908 84.3981 41.4307 85.54 41.3C86.5228 41.1755 87.4977 40.9952 88.46 40.76C88.6629 40.7351 88.8505 40.6395 88.99 40.49C89.08 40.3249 89.1216 40.1377 89.11 39.95V37.66C89.11 37.34 88.92 37.18 88.52 37.18H88.43C88.12 37.18 87.73 37.26 87.25 37.28C86.77 37.3 86.25 37.34 85.72 37.36L84.06 37.42H82.47C81.9689 37.4394 81.469 37.3578 81 37.18C80.6141 37.0279 80.2709 36.7842 80 36.47C79.7536 36.1785 79.5729 35.8375 79.47 35.47C79.37 35.0711 79.3196 34.6613 79.32 34.25V34.19H89.2C89.64 34.19 89.86 33.95 89.86 33.48V31.71ZM85 31.18H79.31V31.06C79.243 30.164 79.5222 29.2764 80.09 28.58C80.3535 28.2983 80.6751 28.0772 81.0325 27.9322C81.39 27.7871 81.7747 27.7215 82.16 27.74C82.5408 27.7193 82.9215 27.7819 83.2756 27.9235C83.6297 28.0651 83.9486 28.2824 84.21 28.56C84.7595 29.2721 85.0234 30.1636 84.95 31.06L85 31.18Z"
      fill="#414142"/>
  </g>
  <defs>
    <clipPath id="clip0">
      <rect width="102.05" height="40.02" fill="white" transform="translate(25 14)"/>
    </clipPath>
  </defs>
</svg>
