<svg width="159" height="20" viewBox="0 0 159 20" fill="none" xmlns="http://www.w3.org/2000/svg">
<path d="M20.237 1.38385C20.237 2.14846 20.8586 2.76769 21.625 2.76769C22.3913 2.76769 23.013 2.14846 23.013 1.38385C23.013 0.619231 22.3913 0 21.625 0C20.8586 0 20.237 0.619231 20.237 1.38385ZM0 0L1.60281 2.76769H17.4614V0H0ZM9.80466 5.54131V8.30846H19.2164L20.8187 5.54131H9.80466ZM4.25311 6.92461C4.25311 7.68923 4.87427 8.30846 5.64059 8.30846C6.40692 8.30846 7.02862 7.68923 7.02862 6.92461C7.02862 6.16 6.40692 5.54131 5.64059 5.54131C4.87427 5.54131 4.25311 6.16 4.25311 6.92461ZM6.41016 11.0762L8.01297 13.8492H16.0157L17.6185 11.0762H6.41016ZM10.6244 18.0008C10.6244 18.7654 11.2456 19.3846 12.0119 19.3846C12.7782 19.3846 13.3999 18.7654 13.3999 18.0008C13.3999 17.2362 12.7782 16.6169 12.0119 16.6169C11.2456 16.6169 10.6244 17.2362 10.6244 18.0008Z" fill="black"/>
<path fill-rule="evenodd" clip-rule="evenodd" d="M34.6434 14.0001H36.9354L39.9348 5.49076H37.7211L35.8139 11.661H35.7481L33.8819 5.49076H31.6682L34.6434 14.0001ZM41.2063 11.5549C41.3801 12.1041 41.6321 12.5737 41.9607 12.9651C42.2899 13.3561 42.6925 13.6608 43.1685 13.8778C43.6445 14.0948 44.1847 14.2036 44.7886 14.2036C45.8296 14.2036 46.6812 13.9419 47.3439 13.4169C48.0061 12.893 48.4054 12.158 48.542 11.2125H46.4508C46.3963 11.6475 46.2241 11.9841 45.9348 12.2231C45.6456 12.4628 45.2716 12.5818 44.8129 12.5818C44.3542 12.5818 43.957 12.4418 43.6213 12.1618C43.2856 11.8823 43.1178 11.4871 43.1178 10.9761V10.4139H48.6073V9.3623C48.6073 8.7813 48.5188 8.24068 48.3417 7.74045C48.1642 7.24076 47.9084 6.80999 47.5727 6.44868C47.2376 6.08737 46.8339 5.80361 46.3623 5.59684C45.8911 5.39061 45.366 5.28722 44.7886 5.28722C44.2117 5.28722 43.6866 5.3933 43.2133 5.60491C42.74 5.81707 42.3363 6.11699 42.0017 6.50576C41.6672 6.89399 41.4076 7.36137 41.2225 7.90737C41.0374 8.45391 40.9451 9.06076 40.9451 9.72899C40.9451 10.3978 41.032 11.0062 41.2063 11.5549ZM43.1178 8.49053C43.1178 8.02314 43.2764 7.64245 43.5927 7.34899C43.9095 7.05607 44.3077 6.90907 44.7886 6.90907C45.2743 6.90907 45.6753 7.05607 45.992 7.34899C46.3088 7.64245 46.4669 8.02314 46.4669 8.49053V8.79207H43.1178V8.49053ZM52.5733 14.0001V7.12122H55.2446V5.49076H50.4821V14.0001H52.5733ZM56.4114 12.6388C56.5447 12.9544 56.7341 13.2284 56.9791 13.4621C57.2241 13.6958 57.5085 13.8778 57.8329 14.0081C58.1567 14.1384 58.5145 14.2036 58.9068 14.2036C59.5657 14.2036 60.0978 14.0668 60.5037 13.7922C60.9095 13.5176 61.2349 13.1471 61.4799 12.6798H61.5533L61.5701 14.0001H64.862V12.3782H63.4243V8.20514C63.4243 7.24884 63.127 6.52353 62.5339 6.02868C61.9403 5.53437 61.1313 5.28722 60.1076 5.28722C59.5954 5.28722 59.1216 5.34807 58.6861 5.47084C58.2506 5.59253 57.8744 5.77076 57.5587 6.00445C57.243 6.23814 56.9899 6.52999 56.7994 6.88053C56.6084 7.23107 56.508 7.63976 56.4972 8.10714H58.5884C58.5884 7.71622 58.7217 7.41845 58.9883 7.21491C59.2549 7.01084 59.6014 6.90907 60.0261 6.90907C60.4395 6.90907 60.7665 7.00814 61.0061 7.2063C61.2457 7.40499 61.3655 7.72699 61.3655 8.1723V8.72691L59.005 8.92291C58.1011 9.00476 57.4092 9.29499 56.93 9.79468C56.4508 10.2949 56.2112 10.8894 56.2112 11.5791C56.2112 11.9706 56.2775 12.3238 56.4114 12.6388ZM58.3839 11.0854C58.3893 10.7488 58.5474 10.5647 58.8582 10.5324L61.3655 10.3143V10.6476C61.3655 11.1839 61.2117 11.6405 60.9041 12.0169C60.5965 12.3938 60.1756 12.5818 59.6418 12.5818C59.2716 12.5818 58.9694 12.5182 58.7352 12.3906C58.501 12.2635 58.3839 12.0724 58.3839 11.8171V11.0854ZM65.9009 11.5878C66.0644 12.1257 66.3105 12.5871 66.6397 12.9732C66.9689 13.3593 67.3725 13.6608 67.8518 13.8778C68.3299 14.0948 68.8879 14.2036 69.5247 14.2036C69.9932 14.2036 70.4335 14.1384 70.8453 14.0081C71.2565 13.8778 71.6246 13.6824 71.9489 13.4212C72.2738 13.1606 72.5366 12.8359 72.7379 12.4477C72.9398 12.0589 73.0682 11.5985 73.1227 11.066H71.0315C70.9656 11.6314 70.7978 12.025 70.528 12.2479C70.2576 12.4708 69.8874 12.5818 69.4179 12.5818C68.9484 12.5818 68.5663 12.4337 68.2716 12.1381C67.977 11.8414 67.8291 11.4327 67.8291 10.9109V8.57184C67.8291 8.00699 67.9851 7.58861 68.2959 7.31668C68.6073 7.04476 68.9759 6.90907 69.4017 6.90907C69.8275 6.90907 70.181 7.01514 70.4621 7.22676C70.7433 7.43891 70.9117 7.81691 70.9662 8.35968H73.0574C73.0083 7.82176 72.8815 7.35868 72.6769 6.97045C72.4724 6.58168 72.2053 6.26237 71.8755 6.01253C71.5458 5.76268 71.1761 5.57907 70.767 5.46222C70.3585 5.34538 69.9306 5.28722 69.4837 5.28722C68.896 5.28722 68.3682 5.39061 67.9003 5.59684C67.4324 5.80361 67.0315 6.10084 66.6969 6.48907C66.3623 6.87784 66.1049 7.35061 65.9257 7.90737C65.746 8.46468 65.6564 9.0936 65.6564 9.79414C65.6564 10.4521 65.7379 11.0498 65.9009 11.5878ZM74.9268 4.50484H77.0833V2.64661H74.9268V4.50484ZM74.9592 14.0001H77.0504V5.49076H74.9592V14.0001ZM80.2868 7.10453V14.0001H84.5016V12.3782H82.378V7.10453H84.5016V5.49076H82.378V2.64661H80.2868V5.49076H78.5955V7.10453H80.2868Z" fill="black"/>
<path fill-rule="evenodd" clip-rule="evenodd" d="M88.4986 14L88.082 15.2229H85.9416V16.8366H89.5849L93.7101 5.49072H91.4964L89.5849 11.563H89.5196L87.6653 5.49072H85.4187L88.4986 14Z" fill="black"/>
<path fill-rule="evenodd" clip-rule="evenodd" d="M97.6971 16.8364V12.5821H99.1186V13.9998H101.961V12.5821H99.1186V11.1637H97.6971V8.32713H99.1186V6.90882H97.6971V5.49105H96.2756V16.8364H97.6971ZM101.961 12.5821H103.383V6.90936H101.961V12.5821ZM101.961 6.90882V5.49105H99.1186V6.90882H101.961ZM107.431 13.9998V6.90882H110.274V5.49105H106.009V13.9998H107.431ZM111.476 12.5815H112.898V6.90882H111.476V12.5815ZM112.898 14.0004H117.162V12.5821H112.898V14.0004ZM112.898 6.90936H117.162V5.49105H112.898V6.90936ZM117.162 12.5815H118.583V6.90882H117.162V12.5815ZM122.631 6.90882V13.9998H125.474V12.5821H124.052V6.90882H125.474V5.49105H124.052V2.64636H122.631V5.49105H121.21V6.90882H122.631ZM128.099 12.5815H129.52V6.90882H128.099V12.5815ZM129.521 14.0004H133.785V12.5821H129.521V14.0004ZM129.521 6.90936H133.785V5.49105H129.521V6.90936ZM133.784 12.5815H135.206V6.90882H133.784V12.5815ZM137.832 12.5815H139.254V6.90882H137.832V12.5815ZM139.254 14.0004H143.518V12.5821H139.254V14.0004ZM139.254 6.90936H143.518V5.49105H139.254V6.90936ZM143.518 12.5821H144.94V11.1637H143.518V12.5821ZM143.518 8.32713H144.94V6.90882H143.518V8.32713ZM147.566 12.5815H148.987V6.90882H147.566V12.5815ZM148.987 14.0004H153.251V12.5821H148.987V14.0004ZM148.987 6.90936H153.251V5.49105H148.987V6.90936ZM153.251 12.5815H154.672V6.90882H153.251V12.5815Z" fill="black"/>
<path fill-rule="evenodd" clip-rule="evenodd" d="M157.305 14.0001H158.727V2.64661H157.305V14.0001Z" fill="black"/>
</svg>
