<svg viewBox="0 0 118 31" fill="none" xmlns="http://www.w3.org/2000/svg">
  <g fill-rule="evenodd" clip-rule="evenodd">
    <path
      d="M68.994 16.105h-4.371v-5.803h4.373c1.615 0 2.926 1.3 2.926 2.901a2.87 2.87 0 01-.856 2.05 2.932 2.932 0 01-2.072.852zm.442-8.882h-8.795v17.51h3.98v-5.55h4.814c3.332 0 6.034-2.677 6.034-5.98 0-3.303-2.7-5.98-6.034-5.98h.001zm15.382 17.51h3.979v-6.21h7.188v-3.156h-7.188v-4.912h8.934V7.223H84.817v17.51h.001zm27.994-17.51l-4.339 7.201h-.103l-4.133-7.201h-4.518l6.624 10.867v6.642h4.004v-6.667l6.701-10.842h-4.236zm-34.976 17.51h3.98V7.222h-3.98v17.51zM47.18 18.038l2.464-7.178h.103l2.413 7.178h-4.98zm.204-10.816l-6.572 17.51h4.083l1.232-3.589h7.086l1.232 3.588h4.21l-6.572-17.51h-4.698z"
      fill="#02184B"/>
    <path d="M4.088 3.99C1.493 4.32-.316 6.494.046 8.847l2.8 18.17L14.631 2.655 4.088 3.99z" fill="#6CC04A"/>
    <path
      d="M30.792 17.982l-.999-13.694c-.178-2.435-2.42-4.214-4.887-3.875l-4.114.562 9.06 19.95a4.157 4.157 0 00.94-2.943"
      fill="#00A7CE"/>
    <path d="M6.93 30.796a4.624 4.624 0 002.244-.316l16.238-6.596-7.72-16.661L6.931 30.796z" fill="#FF9012"/>
  </g>
</svg>

