<svg viewBox="0 0 567 127" version="1.1" xmlns="http://www.w3.org/2000/svg"
     xmlns:xlink="http://www.w3.org/1999/xlink">
  <title>Country Life</title>
  <defs>
    <polygon id="path-1" points="0.973 0.491 64.545 0.491 64.545 102.94 0.973 102.94"></polygon>
    <polygon id="path-3" points="0.06 0.595 181.112 0.595 181.112 70.43 0.06 70.43"></polygon>
  </defs>
  <g id="Pro-tisk-soutiskovyÌmi-barvami-(CMYK)" stroke="none" stroke-width="1" fill="none" fill-rule="evenodd">
    <g id="Group-3" transform="translate(341.000000, 24.000000)">
      <mask id="mask-2" fill="white">
        <use xlink:href="#path-1"></use>
      </mask>
      <g id="Clip-2"></g>
      <path
        d="M60.266,0.491 C38.658,0.491 35.316,29.615 33.229,54.876 L32.813,54.876 C31.037,29.615 29.367,0.491 6.297,0.491 C3.479,0.491 0.973,0.908 0.973,2.683 C0.973,3.309 1.287,3.936 1.809,4.666 C5.254,9.677 23.834,42.767 23.834,62.601 C23.834,75.127 16.424,84.314 3.375,100.389 C3.061,100.703 2.957,101.121 2.957,101.433 C2.957,102.268 3.479,103 4.732,103 L7.967,103 C9.951,103 12.248,102.373 14.021,100.285 C40.537,69.804 43.459,43.394 63.711,4.666 C64.232,3.727 64.545,2.892 64.545,2.265 C64.545,1.013 63.189,0.491 60.266,0.491"
        id="Fill-1" fill="#003926" mask="url(#mask-2)"></path>
    </g>
    <path
      d="M374.125,21.672 C379.971,21.672 384.668,16.975 384.668,11.129 C384.668,5.283 379.971,0.586 374.125,0.586 C368.279,0.586 363.582,5.283 363.582,11.129 C363.582,16.975 368.279,21.672 374.125,21.672"
      id="Fill-4" fill="#003926"></path>
    <path
      d="M90.086,82.425 L89.982,82.425 C83.301,82.425 80.169,74.596 80.169,59.461 C80.169,44.429 83.301,36.6 89.982,36.6 C96.767,36.6 99.899,44.429 99.899,59.461 C99.899,74.596 96.767,82.425 90.086,82.425 Z M90.086,24.491 L89.982,24.491 C73.28,24.491 62.006,38.583 62.006,59.461 C62.006,80.651 73.28,94.43 89.982,94.43 C106.788,94.43 118.167,80.651 118.167,59.461 C118.167,38.583 106.788,24.491 90.086,24.491 L90.086,24.491 Z"
      id="Fill-5" fill="#003926"></path>
    <path
      d="M231.845,24.491 C224.538,24.491 218.17,28.353 214.412,34.616 L213.995,34.616 L213.995,27.414 C213.995,26.37 213.159,25.535 212.011,25.535 L197.814,25.535 C196.875,25.535 196.04,26.37 196.04,27.414 L196.04,91.194 C196.04,92.238 196.875,93.073 197.814,93.073 L212.22,93.073 C213.368,93.073 214.203,92.238 214.203,91.194 L214.203,52.884 C214.203,41.923 219.422,38.166 224.224,38.166 C229.235,38.166 232.471,42.236 232.471,49.126 L232.471,91.194 C232.471,92.238 233.202,93.073 234.35,93.073 L248.86,93.073 C249.695,93.073 250.634,92.238 250.634,91.194 L250.634,47.352 C250.634,25.535 234.768,24.491 231.845,24.491"
      id="Fill-6" fill="#003926"></path>
    <g id="Group-10" transform="translate(0.000000, 24.000000)">
      <mask id="mask-4" fill="white">
        <use xlink:href="#path-3"></use>
      </mask>
      <g id="Clip-8"></g>
      <path
        d="M179.338,1.535 L164.828,1.535 C163.784,1.535 162.949,2.37 162.949,3.414 L162.949,41.828 C162.949,51.014 159.504,56.651 153.658,56.651 C147.917,56.651 146.56,50.596 146.56,45.482 L146.56,3.414 C146.56,2.37 145.725,1.535 144.786,1.535 L130.171,1.535 C129.231,1.535 128.396,2.37 128.396,3.414 L128.396,47.465 C128.396,68.551 142.28,70.326 146.56,70.326 C152.823,70.326 158.982,67.507 162.74,61.14 L163.158,61.14 L163.158,67.194 C163.158,68.238 163.993,69.073 165.037,69.073 L179.338,69.073 C180.381,69.073 181.112,68.238 181.112,67.194 L181.112,3.414 C181.112,2.37 180.381,1.535 179.338,1.535"
        id="Fill-7" fill="#003926" mask="url(#mask-4)"></path>
      <path
        d="M28.185,12.704 C39.354,12.704 34.97,29.093 39.04,29.093 L52.089,29.093 C53.446,29.093 53.864,27.84 53.864,26.9 C53.864,12.391 42.485,0.595 28.498,0.595 C11.273,0.595 0,14.896 0,35.461 C0,56.13 11.482,70.43 28.498,70.43 C42.799,70.43 53.864,59.261 53.864,45.482 C53.864,44.125 53.029,43.707 52.089,43.707 L39.145,43.707 C35.492,43.707 38.727,58.425 28.185,58.425 C21.503,58.425 18.163,50.805 18.163,35.461 C18.163,20.637 21.503,12.704 28.185,12.704"
        id="Fill-9" fill="#003926" mask="url(#mask-4)"></path>
    </g>
    <path
      d="M295.416,25.535 L286.23,25.535 L286.23,7.267 C286.23,6.223 285.188,5.388 284.665,5.388 L269.424,9.146 C268.693,9.355 268.067,10.19 268.067,10.921 L268.067,25.535 L260.656,25.535 C259.612,25.535 258.881,26.37 258.881,27.414 L258.881,36.6 C258.881,37.435 259.612,38.583 260.656,38.583 L268.067,38.583 L268.067,91.194 C268.067,92.238 268.902,93.073 269.633,93.073 L284.665,93.073 C285.396,93.073 286.23,92.238 286.23,91.194 L286.23,38.583 L295.416,38.583 C296.564,38.583 297.4,37.435 297.4,36.6 L297.4,27.414 C297.4,26.37 296.564,25.535 295.416,25.535"
      id="Fill-11" fill="#003926"></path>
    <path
      d="M336.336,24.491 C331.014,24.491 325.898,29.605 323.184,36.808 L322.766,36.808 L322.766,27.414 C322.766,26.37 321.932,25.535 320.887,25.535 L306.691,25.535 C305.752,25.535 304.813,26.37 304.813,27.414 L304.813,91.194 C304.813,92.238 305.752,93.073 306.691,93.073 L321.096,93.073 C322.141,93.073 322.975,92.238 322.975,91.194 L322.975,60.505 C322.975,48.709 327.881,43.072 334.041,43.072 L337.275,43.072 C338.424,43.072 339.26,42.236 339.26,41.192 L339.26,26.578 C339.26,24.491 337.381,24.491 336.336,24.491"
      id="Fill-12" fill="#003926"></path>
    <path
      d="M539.789,36.6 C546.051,36.6 548.244,43.489 548.557,51.005 L530.08,51.005 C530.498,43.802 533.42,36.6 539.789,36.6 Z M445.109,25.535 C444.17,25.535 443.23,26.37 443.23,27.414 L443.23,91.194 C443.23,92.238 444.17,93.073 445.109,93.073 L459.41,93.073 C460.244,93.073 461.393,92.238 461.393,91.194 L461.393,27.414 C461.393,26.37 460.244,25.535 459.41,25.535 L445.109,25.535 Z M412.123,5.701 C411.078,5.701 410.139,6.432 410.139,7.58 L410.139,91.194 C410.139,92.238 411.078,93.073 412.123,93.073 L426.424,93.073 C427.154,93.073 428.303,92.238 428.303,91.194 L428.303,7.58 C428.303,6.432 427.154,5.701 426.424,5.701 L412.123,5.701 Z M497.094,25.535 L497.094,21.881 C497.094,18.123 500.016,16.035 504.506,16.035 C505.549,16.035 506.385,15.304 506.385,14.469 L506.385,4.866 C506.385,2.778 502.627,2.465 499.494,2.465 C488.117,2.465 478.93,9.981 478.93,21.881 L478.93,25.535 L471.832,25.535 C470.684,25.535 469.848,26.37 469.848,27.414 L469.848,36.6 C469.848,37.435 470.684,38.583 471.832,38.583 L478.93,38.583 L478.93,91.194 C478.93,92.238 479.975,93.073 480.809,93.073 L495.527,93.073 C496.363,93.073 497.094,92.238 497.094,91.194 L497.094,38.583 L506.385,38.583 C507.428,38.583 508.264,37.435 508.264,36.6 L508.264,27.414 C508.264,26.37 507.428,25.535 506.385,25.535 L497.094,25.535 Z M565.154,61.757 C566.094,61.757 566.93,60.922 566.93,59.983 C566.93,37.957 555.863,24.595 539.789,24.595 C522.773,24.595 511.395,38.583 511.395,59.461 C511.395,80.86 523.607,94.43 540.414,94.43 C553.775,94.43 564.736,83.469 565.572,70.004 C565.572,68.647 564.424,68.229 563.693,68.229 L550.957,68.229 C546.99,68.229 549.184,82.425 539.996,82.425 C533.316,82.425 529.559,75.328 529.559,61.757 L565.154,61.757 L565.154,61.757 Z"
      id="Fill-13" fill="#7BBB42"></path>
  </g>
</svg>
