<?xml version="1.0" encoding="UTF-8"?>
<svg width="102px" height="25px" viewBox="0 0 102 25" version="1.1" xmlns="http://www.w3.org/2000/svg" xmlns:xlink="http://www.w3.org/1999/xlink">
    <title>img_logo_pricefx</title>
    <g id="Page-1" stroke="none" stroke-width="1">
        <g id="img_logo_pricefx" fill-rule="nonzero">
            <path d="M4.067,0 L70.837,0 C70.831,0.002 70.822,0.002 70.816,0.005 C70.125,0.261 69.528,0.637 69.02,1.137 C68.517,1.637 68.095,2.247 67.758,2.977 C67.423,3.704 67.145,4.531 66.937,5.452 L63.603,19.492 C63.471,20.042 63.318,20.547 63.148,20.997 C62.98,21.449 62.764,21.84 62.501,22.159 C62.239,22.485 61.91,22.733 61.513,22.906 C61.111,23.081 60.625,23.173 60.052,23.173 C59.555,23.173 59.135,23.13 58.787,23.044 C58.447,22.962 58.191,22.884 58.027,22.812 L57.352,25 L4.067,25 C1.821,25 0,23.863 0,22.464 L0,2.533 C0,1.137 1.821,0 4.067,0 Z M12.266,11.511 C12.679,10.876 12.884,10.147 12.884,9.33 C12.884,8.103 12.482,7.127 11.676,6.4 C10.877,5.672 9.808,5.31 8.462,5.31 L3.989,5.31 L3.989,19.438 L6.016,19.438 L6.016,13.317 L7.512,13.317 C8.843,13.317 9.868,13.175 10.582,12.889 C11.291,12.602 11.854,12.142 12.266,11.511 Z M8.104,7.105 C9.899,7.105 10.788,7.829 10.788,9.278 C10.788,9.999 10.567,10.551 10.125,10.936 C9.683,11.326 9.048,11.516 8.228,11.516 L6.016,11.516 L6.016,7.105 L8.104,7.105 Z M23.171,19.438 L23.171,19.441 L25.572,19.441 L24.824,18.431 C24.527,18.026 24.135,17.423 23.643,16.623 C22.861,15.349 22.253,14.457 21.828,13.945 C21.398,13.432 20.955,13.031 20.506,12.733 C21.272,12.435 21.864,11.991 22.273,11.389 C22.683,10.789 22.888,10.079 22.888,9.258 C22.888,8.054 22.466,7.096 21.629,6.392 C20.789,5.683 19.658,5.329 18.235,5.329 L14.701,5.329 L14.701,19.437 L16.718,19.437 L16.718,13.295 L17.245,13.295 C17.903,13.295 18.373,13.373 18.655,13.523 C18.935,13.671 19.25,13.921 19.593,14.264 C19.936,14.607 20.325,15.069 20.741,15.646 L21.413,16.749 L22.038,17.779 L22.434,18.336 C22.493,18.416 22.534,18.473 22.556,18.51 L23.171,19.438 Z M20.443,8.03 C20.68,8.391 20.799,8.795 20.8,9.239 C20.8,9.689 20.69,10.091 20.48,10.447 C20.263,10.799 19.972,11.064 19.588,11.239 C19.211,11.413 18.509,11.5 17.486,11.5 L16.716,11.5 L16.716,7.047 L17.325,7.047 C18.311,7.047 19.02,7.12 19.448,7.267 C19.875,7.417 20.21,7.671 20.443,8.03 Z M29.167,19.438 L29.167,5.329 L27.144,5.329 L27.144,19.438 L29.167,19.438 Z M44.447,18.389 L44.444,18.389 L44.444,16.165 C42.82,17.218 41.15,17.743 39.44,17.743 C37.805,17.743 36.459,17.243 35.412,16.249 C34.362,15.251 33.837,13.978 33.837,12.428 C33.837,10.893 34.369,9.615 35.437,8.597 C36.503,7.577 37.845,7.067 39.458,7.067 C41.03,7.067 42.648,7.538 44.299,8.481 L44.299,6.311 C42.486,5.534 40.84,5.15 39.36,5.15 C37.213,5.15 35.41,5.849 33.942,7.248 C32.478,8.652 31.75,10.375 31.75,12.429 C31.75,13.724 32.068,14.924 32.707,16.035 C33.348,17.147 34.214,18.017 35.311,18.65 C36.411,19.283 37.745,19.599 39.322,19.599 C41.261,19.599 42.969,19.197 44.447,18.389 Z M55.116,19.417 L55.115,19.417 L55.115,17.62 L48.951,17.62 L48.951,13.239 L54.723,13.239 L54.723,11.429 L48.951,11.429 L48.951,7.127 L54.928,7.127 L54.928,5.329 L46.931,5.329 L46.931,19.417 L55.116,19.417 Z" id="Shape"></path>
            <path d="M97.934,0 C100.177,0 102,1.137 101.999,2.533 L101.999,22.464 C101.999,23.863 100.176,25 97.933,25 L62.443,25 C63.107,24.739 63.677,24.363 64.154,23.863 C64.633,23.365 65.034,22.75 65.363,22.021 C65.69,21.291 65.958,20.467 66.169,19.546 L68.773,8.443 L72.955,8.44 L73.586,6.282 L69.255,6.286 L69.509,5.509 C69.636,4.957 69.788,4.455 69.958,4.003 C70.126,3.551 70.353,3.161 70.636,2.84 C70.917,2.514 71.263,2.271 71.686,2.092 C72.098,1.92 72.61,1.827 73.221,1.827 C73.809,1.827 74.304,1.889 74.703,2.011 C75.099,2.128 75.404,2.246 75.622,2.355 L76.297,0.143 C76.198,0.099 76.059,0.052 75.889,0 L97.934,0 Z M76.826,16.956 C76.363,15.589 76.131,14.104 76.131,12.499 C76.131,10.897 76.363,9.412 76.826,8.044 C77.289,6.682 77.973,5.413 78.874,4.248 L77.637,3.403 C76.655,4.594 75.87,5.965 75.273,7.51 C74.68,9.059 74.382,10.722 74.382,12.499 C74.382,14.279 74.68,15.942 75.273,17.488 C75.869,19.038 76.655,20.407 77.637,21.599 L78.874,20.749 C77.972,19.587 77.289,18.32 76.826,16.956 Z M90.102,19.193 L90.102,19.192 L92.842,19.192 C92.215,17.952 91.447,16.684 90.544,15.385 C89.639,14.084 88.755,12.852 87.893,11.687 L92.416,5.202 L89.754,5.202 L86.386,10.097 L83.052,5.202 L80.229,5.202 L84.858,11.848 C83.996,12.996 83.127,14.204 82.261,15.466 C81.392,16.731 80.644,17.972 80.018,19.192 L82.599,19.192 C82.791,18.816 83.039,18.386 83.323,17.899 C83.609,17.416 83.919,16.918 84.253,16.408 C84.583,15.896 84.927,15.386 85.287,14.875 C85.643,14.364 85.994,13.885 86.336,13.435 C86.677,13.885 87.025,14.36 87.38,14.864 C87.744,15.364 88.091,15.87 88.431,16.384 C88.77,16.892 89.086,17.392 89.374,17.875 C89.661,18.358 89.906,18.799 90.102,19.193 Z M97.213,17.487 C97.807,15.943 98.104,14.278 98.104,12.5 C98.104,10.72 97.807,9.057 97.213,7.508 C96.617,5.96 95.831,4.592 94.854,3.401 L93.613,4.246 C94.516,5.411 95.2,6.676 95.662,8.044 C96.125,9.407 96.36,10.897 96.36,12.5 C96.36,14.103 96.125,15.588 95.662,16.955 C95.2,18.316 94.515,19.584 93.613,20.747 L94.854,21.595 C95.83,20.406 96.616,19.038 97.213,17.487 Z" id="Shape" fill="#CFCFCF"></path>
        </g>
    </g>
</svg>
