<svg width="118" height="31" viewBox="0 0 118 31" fill="none" xmlns="http://www.w3.org/2000/svg">
  <title>[logo] Apify</title>
  <g clip-path="url(#clip0)">
    <path fill-rule="evenodd" clip-rule="evenodd"
          d="M68.9942 16.1045H64.6226V10.302H68.9957C70.6113 10.302 71.922 11.6015 71.922 13.2032C71.9225 13.5838 71.8471 13.9607 71.7003 14.3125C71.5534 14.6643 71.3379 14.984 71.066 15.2534C70.7941 15.5229 70.4712 15.7367 70.1157 15.8827C69.7603 16.0287 69.3792 16.1041 68.9942 16.1045ZM69.4362 7.22253H60.6414V24.7322H64.6218V19.1839H69.4347C72.7675 19.1839 75.4688 16.5065 75.4688 13.2032C75.4688 9.89999 72.7682 7.22253 69.4354 7.22253H69.4362ZM84.8181 24.7322H88.7969V18.5224H95.9854V15.3668H88.7969V10.455H97.7311V7.22253H84.8173V24.7322H84.8181ZM112.812 7.22253L108.473 14.4243H108.37L104.237 7.22253H99.7186L106.343 18.09V24.7322H110.347V18.0648L117.048 7.22253H112.812ZM77.836 24.7322H81.8156V7.22253H77.836V24.7322ZM47.1801 18.0389L49.6443 10.8615H49.7467L52.16 18.0389H47.1793H47.1801ZM47.3842 7.22253L40.8125 24.7322H44.8946L46.1267 21.1443H53.2127L54.4448 24.7322H58.6554L52.083 7.22253H47.3849H47.3842Z"
          fill="#02184B"/>
    <path fill-rule="evenodd" clip-rule="evenodd"
          d="M4.08828 3.99085C1.49319 4.31973 -0.316438 6.49321 0.0462583 8.84636L2.84618 27.0161L14.6311 2.65479L4.08828 3.99085Z"
          fill="#6CC04A"/>
    <path fill-rule="evenodd" clip-rule="evenodd"
          d="M30.7919 17.9819L29.7932 4.28779C29.6153 1.85318 27.3721 0.0740477 24.9056 0.412822L20.792 0.975415L29.8517 20.9258C30.5325 20.0985 30.8685 19.0456 30.7912 17.9819"
          fill="#00A7CE"/>
    <path fill-rule="evenodd" clip-rule="evenodd"
          d="M6.93066 30.7959C7.69335 30.8782 8.46473 30.7695 9.17384 30.48L25.412 23.8841L17.6922 7.22253L6.93066 30.7959Z"
          fill="#FF9012"/>
  </g>
  <defs>
    <clipPath id="clip0">
      <rect y="0.370972" width="117.048" height="30.4516" fill="white"/>
    </clipPath>
  </defs>
</svg>
