<svg id="SvgjsSvg1000" xmlns="http://www.w3.org/2000/svg" version="1.1" xmlns:xlink="http://www.w3.org/1999/xlink" xmlns:svgjs="http://svgjs.com/svgjs" width="173" height="37" viewBox="0 0 173 37"><title>Fill 1</title><desc>Created with Avocode.</desc><defs id="SvgjsDefs1001"></defs><path id="SvgjsPath1007" d="M66.44 34.21C64.85 32.74 62.4 32 59.099999999999994 32L50.459999999999994 32C50.16 32 49.99999999999999 32.16 49.99999999999999 32.47L49.99999999999999 37.16L58.669999999999995 37.16C60.05 37.16 61.089999999999996 37.44 61.779999999999994 37.989999999999995C62.48 38.55 62.82999999999999 39.529999999999994 62.82999999999999 40.92999999999999C62.82999999999999 42.32999999999999 62.47999999999999 43.309999999999995 61.779999999999994 43.849999999999994C61.089999999999996 44.39999999999999 60.05 44.669999999999995 58.669999999999995 44.669999999999995L49.99999999999999 44.669999999999995L49.99999999999999 59.489999999999995C49.99999999999999 59.8 50.15999999999999 59.949999999999996 50.459999999999994 59.949999999999996L54.56999999999999 59.949999999999996C54.849999999999994 59.949999999999996 54.989999999999995 59.8 54.989999999999995 59.489999999999995L54.989999999999995 49.419999999999995L59.099999999999994 49.419999999999995C62.39999999999999 49.419999999999995 64.85 48.67999999999999 66.44 47.199999999999996C68.02 45.709999999999994 68.82 43.53999999999999 68.82 40.669999999999995C68.82 37.83 68.02 35.67999999999999 66.44 34.209999999999994 " fill="#000000" fill-opacity="1" transform="matrix(1,0,0,1,-36,-32)"></path><path id="SvgjsPath1008" d="M80.34 58.26C79.42 58.93 78.49000000000001 59.43 77.58 59.75C76.66 60.07 75.64999999999999 60.24 74.53999999999999 60.24C72.63 60.24 71.22999999999999 59.690000000000005 70.33999999999999 58.61C69.44999999999999 57.53 68.99999999999999 55.769999999999996 68.99999999999999 53.34L68.99999999999999 42.43000000000001C68.99999999999999 42.14000000000001 69.13999999999999 42.00000000000001 69.42999999999999 42.00000000000001L73.3 42.00000000000001C73.61 42.00000000000001 73.75999999999999 42.14000000000001 73.75999999999999 42.43000000000001L73.75999999999999 52.42000000000001C73.75999999999999 53.94000000000001 73.99999999999999 54.98000000000001 74.46 55.53000000000001C74.91999999999999 56.09000000000001 75.55999999999999 56.36000000000001 76.36 56.36000000000001C77.03 56.36000000000001 77.65 56.27 78.22 56.09C78.78 55.910000000000004 79.28999999999999 55.690000000000005 79.72 55.440000000000005L79.72 42.43000000000001C79.72 42.14000000000001 79.87 42.00000000000001 80.15 42.00000000000001L84.02000000000001 42.00000000000001C84.33000000000001 42.00000000000001 84.49000000000001 42.14000000000001 84.49000000000001 42.43000000000001L84.49000000000001 59.50000000000001C84.49000000000001 59.81000000000001 84.33000000000001 59.96000000000001 84.02000000000001 59.96000000000001L81.27000000000001 59.96000000000001C81.07000000000001 59.96000000000001 80.92000000000002 59.86000000000001 80.85000000000001 59.650000000000006Z " fill="#000000" fill-opacity="1" transform="matrix(1,0,0,1,-36,-32)"></path><path id="SvgjsPath1009" d="M92.41 44.75C93.21 43.72 94.07 43 94.97 42.6C95.87 42.2 96.83 42 97.83 42C98.12 42 98.26 42.14 98.26 42.43L98.26 45.99C98.26 46.27 98.12 46.410000000000004 97.83 46.410000000000004C96.62 46.410000000000004 95.64999999999999 46.550000000000004 94.91 46.82C94.17999999999999 47.09 93.46 47.42 92.75999999999999 47.81L92.75999999999999 59.77C92.75999999999999 60.080000000000005 92.60999999999999 60.24 92.3 60.24L88.42999999999999 60.24C88.13999999999999 60.24 87.99999999999999 60.080000000000005 87.99999999999999 59.77L87.99999999999999 42.7C87.99999999999999 42.410000000000004 88.13999999999999 42.27 88.42999999999999 42.27L91.17999999999999 42.27C91.41 42.27 91.55999999999999 42.370000000000005 91.63999999999999 42.580000000000005Z " fill="#000000" fill-opacity="1" transform="matrix(1,0,0,1,-36,-32)"></path><path id="SvgjsPath1010" d="M109.36 46.98C108.8 46.19 107.92999999999999 45.79 106.74 45.79C105.66 45.79 104.67 46.08 103.75999999999999 46.65L103.75999999999999 55.739999999999995C104.19999999999999 56.029999999999994 104.66 56.24999999999999 105.13999999999999 56.419999999999995C105.60999999999999 56.589999999999996 106.14999999999999 56.669999999999995 106.73999999999998 56.669999999999995C109.03999999999998 56.669999999999995 110.18999999999998 54.78999999999999 110.18999999999998 51.019999999999996C110.18999999999998 49.11 109.90999999999998 47.76 109.35999999999999 46.98ZM103.76 67.75C103.76 68.06 103.61 68.21 103.30000000000001 68.21L99.43 68.21C99.14 68.21 99 68.05999999999999 99 67.75L99 42.7C99 42.410000000000004 99.14 42.27 99.43 42.27L102.18 42.27C102.38000000000001 42.27 102.54 42.370000000000005 102.64 42.580000000000005L103.14 43.900000000000006C104.07000000000001 43.25000000000001 104.96 42.77 105.79 42.46000000000001C106.63000000000001 42.150000000000006 107.57000000000001 42.00000000000001 108.60000000000001 42.00000000000001C109.76 42.00000000000001 110.76 42.21000000000001 111.58000000000001 42.620000000000005C112.41000000000001 43.03 113.09000000000002 43.63 113.62000000000002 44.42C114.14000000000001 45.21 114.53000000000002 46.160000000000004 114.76000000000002 47.27C114.99000000000002 48.38 115.11000000000001 49.63 115.11000000000001 51.02C115.11000000000001 52.440000000000005 114.98000000000002 53.730000000000004 114.72000000000001 54.89C114.46000000000001 56.05 114.05000000000001 57.06 113.48000000000002 57.89C112.91000000000003 58.730000000000004 112.18000000000002 59.38 111.29000000000002 59.83C110.40000000000002 60.28 109.34000000000002 60.51 108.10000000000002 60.51C107.27000000000002 60.51 106.50000000000003 60.37 105.79000000000002 60.1C105.08000000000003 59.83 104.41000000000003 59.47 103.76000000000002 59.04Z " fill="#000000" fill-opacity="1" transform="matrix(1,0,0,1,-36,-32)"></path><path id="SvgjsPath1011" d="M128 46.92C127.43 46.04 126.56 45.6 125.4 45.6C124.24000000000001 45.6 123.37 46.04 122.79 46.92C122.21000000000001 47.79 121.92 49.24 121.92 51.25C121.92 53.27 122.21000000000001 54.71 122.79 55.59C123.37 56.470000000000006 124.24000000000001 56.910000000000004 125.4 56.910000000000004C126.56 56.910000000000004 127.43 56.470000000000006 128 55.59C128.56 54.71 128.85 53.27 128.85 51.25C128.85 49.24 128.56 47.79 128 46.92ZM133.3 55.05C132.99 56.18 132.5 57.16 131.83 57.97C131.16000000000003 58.78 130.29000000000002 59.41 129.23000000000002 59.85C128.18 60.29 126.90000000000002 60.51 125.40000000000002 60.51C123.90000000000002 60.51 122.63000000000002 60.29 121.57000000000002 59.85C120.51000000000002 59.410000000000004 119.64000000000001 58.78 118.96000000000002 57.97C118.27000000000002 57.16 117.77000000000002 56.18 117.46000000000002 55.05C117.16000000000003 53.91 117.00000000000003 52.65 117.00000000000003 51.25C117.00000000000003 49.86 117.16000000000003 48.6 117.46000000000002 47.46C117.77000000000002 46.32 118.27000000000002 45.35 118.96000000000002 44.54C119.64000000000003 43.72 120.51000000000002 43.1 121.57000000000002 42.66C122.63000000000002 42.22 123.90000000000002 42 125.40000000000002 42C126.90000000000002 42 128.18 42.22 129.23000000000002 42.66C130.29000000000002 43.099999999999994 131.16000000000003 43.72 131.83 44.54C132.5 45.35 132.99 46.32 133.3 47.46C133.61 48.6 133.76000000000002 49.86 133.76000000000002 51.25C133.76000000000002 52.65 133.61 53.91 133.3 55.05Z " fill="#000000" fill-opacity="1" transform="matrix(1,0,0,1,-36,-32)"></path><path id="SvgjsPath1012" d="M135.2 59.46C135.04 59.38 134.98 59.26 135.01 59.07L135.73999999999998 56.21C135.82 55.980000000000004 135.98999999999998 55.9 136.23999999999998 55.980000000000004C136.83999999999997 56.18000000000001 137.46999999999997 56.370000000000005 138.14 56.540000000000006C138.80999999999997 56.71000000000001 139.55999999999997 56.790000000000006 140.39 56.790000000000006C141.14 56.790000000000006 141.72 56.650000000000006 142.13 56.38000000000001C142.54 56.11000000000001 142.75 55.72000000000001 142.75 55.20000000000001C142.75 54.69000000000001 142.5 54.26000000000001 142.01 53.92000000000001C141.51999999999998 53.59000000000001 140.79 53.220000000000006 139.81 52.80000000000001C139.16 52.52000000000001 138.55 52.22000000000001 137.99 51.91000000000001C137.42000000000002 51.60000000000001 136.92000000000002 51.23000000000001 136.5 50.81000000000001C136.07 50.38000000000001 135.73 49.89000000000001 135.47 49.32000000000001C135.21 48.75000000000001 135.08 48.07000000000001 135.08 47.27000000000001C135.08 45.74000000000001 135.64000000000001 44.48000000000001 136.77 43.49000000000001C137.89000000000001 42.50000000000001 139.46 42.00000000000001 141.47 42.00000000000001C142.4 42.00000000000001 143.28 42.050000000000004 144.12 42.160000000000004C144.96 42.260000000000005 145.85 42.480000000000004 146.78 42.81C146.98 42.89 147.05 43.06 146.97 43.32L146.23 46.1C146.16 46.34 145.98999999999998 46.4 145.73 46.300000000000004C145.42 46.17 144.91 46.03 144.2 45.89000000000001C143.48999999999998 45.75000000000001 142.76999999999998 45.68000000000001 142.04999999999998 45.68000000000001C141.35 45.68000000000001 140.79999999999998 45.81000000000001 140.39 46.07000000000001C139.97 46.32000000000001 139.76999999999998 46.690000000000005 139.76999999999998 47.150000000000006C139.76999999999998 47.64000000000001 139.99999999999997 48.040000000000006 140.45999999999998 48.35000000000001C140.92999999999998 48.66000000000001 141.64999999999998 49.03000000000001 142.62999999999997 49.470000000000006C143.27999999999997 49.78000000000001 143.88999999999996 50.10000000000001 144.46999999999997 50.42000000000001C145.04999999999998 50.74000000000001 145.55999999999997 51.12000000000001 145.99999999999997 51.540000000000006C146.43999999999997 51.970000000000006 146.78999999999996 52.470000000000006 147.04999999999998 53.03000000000001C147.29999999999998 53.60000000000001 147.42999999999998 54.27000000000001 147.42999999999998 55.05000000000001C147.42999999999998 56.83000000000001 146.82999999999998 58.180000000000014 145.62999999999997 59.110000000000014C144.42999999999998 60.04000000000001 142.86999999999998 60.51000000000001 140.92999999999998 60.51000000000001C139.83999999999997 60.51000000000001 138.83999999999997 60.42000000000001 137.92999999999998 60.26000000000001C137.01 60.09000000000001 136.09999999999997 59.820000000000014 135.2 59.460000000000015 " fill="#000000" fill-opacity="1" transform="matrix(1,0,0,1,-36,-32)"></path><path id="SvgjsPath1013" d="M159.3 49.78C159.3 48.18 159.04000000000002 47.07 158.52 46.43C158 45.8 157.39000000000001 45.48 156.69 45.48C155.93 45.48 155.27 45.82 154.7 46.489999999999995C154.13 47.16 153.79999999999998 48.26 153.72 49.779999999999994ZM153.76 52.8C153.81 54.12 154.16 55.07 154.79 55.669999999999995C155.42 56.26 156.23999999999998 56.559999999999995 157.25 56.559999999999995C158.07 56.559999999999995 158.85 56.449999999999996 159.57 56.23C160.29 56.01 160.91 55.779999999999994 161.43 55.55C161.71 55.419999999999995 161.89000000000001 55.47 161.97 55.709999999999994L163.05 58.56999999999999C163.13000000000002 58.79999999999999 163.04000000000002 58.97999999999999 162.78 59.10999999999999C161.98 59.54999999999999 161.11 59.88999999999999 160.17 60.13999999999999C159.23 60.379999999999995 158.23 60.50999999999999 157.17 60.50999999999999C155.92999999999998 60.50999999999999 154.80999999999997 60.30999999999999 153.80999999999997 59.90999999999999C152.79999999999998 59.50999999999999 151.94999999999996 58.92999999999999 151.24999999999997 58.15999999999999C150.53999999999996 57.39999999999999 149.98999999999998 56.46999999999999 149.59999999999997 55.37999999999999C149.19999999999996 54.27999999999999 148.99999999999997 53.01999999999999 148.99999999999997 51.59999999999999C148.99999999999997 50.179999999999986 149.16999999999996 48.889999999999986 149.51999999999998 47.70999999999999C149.86999999999998 46.539999999999985 150.36999999999998 45.51999999999999 151.02999999999997 44.66999999999999C151.68999999999997 43.819999999999986 152.49999999999997 43.15999999999999 153.46999999999997 42.69999999999999C154.43999999999997 42.22999999999999 155.53999999999996 41.999999999999986 156.77999999999997 41.999999999999986C159.09999999999997 41.999999999999986 160.87999999999997 42.76999999999999 162.10999999999999 44.319999999999986C163.32999999999998 45.86999999999998 163.94 48.08999999999999 163.94 50.97999999999999L163.94 52.37999999999999C163.94 52.65999999999999 163.82999999999998 52.79999999999999 163.59 52.79999999999999Z " fill="#000000" fill-opacity="1" transform="matrix(1,0,0,1,-36,-32)"></path><path id="SvgjsPath1014" d="M179.47 44.31C179.78 44.31 179.94 44.47 179.94 44.78L179.94 48.22C179.94 48.51 179.78 48.65 179.47 48.65L171 48.65L171 59.489999999999995C171 59.8 170.85 59.949999999999996 170.57 59.949999999999996L166.47 59.949999999999996C166.16 59.949999999999996 166 59.8 166 59.489999999999995L166 32.459999999999994C166 32.14999999999999 166.16 31.999999999999993 166.47 31.999999999999993L181.95 31.999999999999993C182.26 31.999999999999993 182.42 32.14999999999999 182.42 32.459999999999994L182.42 35.91C182.42 36.19 182.26 36.339999999999996 181.95 36.339999999999996L171.29999999999998 36.339999999999996C171.1 36.339999999999996 170.99999999999997 36.44 170.99999999999997 36.65L170.99999999999997 44.31Z " fill="#000000" fill-opacity="1" transform="matrix(1,0,0,1,-36,-32)"></path><path id="SvgjsPath1015" d="M183 32.46C183 32.15 183.14 32 183.43 32L187.3 32C187.61 32 187.76000000000002 32.15 187.76000000000002 32.46L187.76000000000002 53.6C187.76000000000002 55.2 188.56000000000003 56 190.16000000000003 56L191.52000000000004 56C191.83000000000004 56 191.98000000000005 56.16 191.98000000000005 56.47L191.98000000000005 59.49C191.98000000000005 59.800000000000004 191.83000000000004 59.95 191.52000000000004 59.95L189.39000000000004 59.95C187.38000000000005 59.95 185.81000000000003 59.39 184.68000000000004 58.27C183.56000000000003 57.150000000000006 183.00000000000003 55.580000000000005 183.00000000000003 53.56Z " fill="#000000" fill-opacity="1" transform="matrix(1,0,0,1,-36,-32)"></path><path id="SvgjsPath1016" d="M198.99 59.96L197.56 59.96C197.33 59.96 197.2 59.87 197.17000000000002 59.69L192.02 42.42999999999999C191.95000000000002 42.13999999999999 192.06 41.99999999999999 192.37 41.99999999999999L196.71 41.99999999999999C196.94 41.99999999999999 197.07000000000002 42.099999999999994 197.09 42.309999999999995L200.35 56.28999999999999L203.56 42.349999999999994C203.59 42.12 203.73 41.99999999999999 203.99 41.99999999999999L208.05 41.99999999999999C208.31 41.99999999999999 208.4 42.13999999999999 208.32000000000002 42.42999999999999L200.81000000000003 67.58999999999999C200.73000000000002 67.82 200.58000000000004 67.93999999999998 200.35000000000002 67.93999999999998L196.40000000000003 67.93999999999998C196.27000000000004 67.93999999999998 196.17000000000004 67.87999999999998 196.11000000000004 67.76999999999998C196.04000000000005 67.64999999999998 196.04000000000005 67.52999999999999 196.09000000000003 67.39999999999998Z " fill="#000000" fill-opacity="1" transform="matrix(1,0,0,1,-36,-32)"></path><path id="SvgjsPath1017" d="M46.51 41.26C46.51 44.16 44.16 46.51 41.26 46.51C38.349999999999994 46.51 36 44.16 36 41.26C36 38.349999999999994 38.35 36 41.26 36C44.16 36 46.51 38.35 46.51 41.26 " fill="#ff674c" fill-opacity="1" transform="matrix(1,0,0,1,-36,-32)"></path></svg>