<?xml version="1.0" encoding="UTF-8"?>
<svg width="289px" height="62px" viewBox="0 0 289 62" version="1.1" xmlns="http://www.w3.org/2000/svg" xmlns:xlink="http://www.w3.org/1999/xlink">
  <title>[image logo] Zonky.cz</title>
  <path d="M151.6883,26.3289 C156.8523,32.8709 161.9173,39.2859 167.1573,45.9229 C164.0353,45.9229 161.1993,45.7489 158.3953,45.9759 C156.0243,46.1679 154.5333,45.4009 153.1523,43.4539 C150.5663,39.8099 147.6783,36.3799 144.8353,32.7579 C143.8883,33.7749 142.9683,34.7029 142.1313,35.7009 C141.9123,35.9619 141.8783,36.4369 141.8753,36.8149 C141.8543,39.3729 141.8643,41.9329 141.8643,44.4929 L141.8643,45.8519 L131.3923,45.8519 L131.3923,-0.0001 L141.8153,-0.0001 L141.8153,23.3169 C141.9553,23.4119 142.0953,23.5069 142.2353,23.6009 C142.3743,23.3279 142.4643,23.0119 142.6593,22.7859 C146.0783,18.8199 149.5003,14.8579 152.9543,10.9209 C153.2583,10.5729 153.7733,10.2019 154.1953,10.1959 C157.9913,10.1399 161.7883,10.1629 165.9183,10.1629 C161.0723,15.6689 156.3993,20.9769 151.6883,26.3289 Z M172.8377,60.9437 L172.8377,51.7697 C174.4437,51.8737 176.0247,52.0787 177.6017,52.0537 C180.1207,52.0167 181.9837,50.1287 182.0817,47.6307 C182.0967,47.2617 181.8707,46.8757 181.7227,46.5097 C176.9247,34.7197 172.1227,22.9317 167.3227,11.1427 C167.2197,10.8877 167.1377,10.6247 166.9727,10.1617 L169.6407,10.1617 C171.9597,10.1617 174.2797,10.2147 176.5967,10.1357 C177.5227,10.1047 177.9067,10.4357 178.2267,11.2627 C181.0747,18.6317 183.9657,25.9847 186.8457,33.3407 C186.9897,33.7107 187.1477,34.0747 187.4197,34.7347 C187.6427,34.1657 187.7847,33.8317 187.9057,33.4907 C190.5347,26.0827 193.1807,18.6817 195.7637,11.2577 C196.0697,10.3777 196.4697,10.1237 197.3677,10.1397 C200.5147,10.1967 203.6617,10.1627 206.9837,10.1627 C206.4077,11.6987 205.9027,13.0737 205.3787,14.4407 C200.6757,26.6967 195.9707,38.9517 191.2597,51.2047 C190.9447,52.0227 190.5887,52.8257 190.2277,53.6257 C187.9397,58.6957 183.8587,61.0247 178.4447,61.1797 C176.6207,61.2327 174.7877,61.0337 172.8377,60.9437 Z M269.9129,36.7513 L288.8419,36.7513 L288.8419,45.7703 L254.2679,45.7703 C254.2679,43.6833 254.2349,41.6543 254.3009,39.6303 C254.3109,39.2673 254.6829,38.8673 254.9749,38.5683 C260.8299,32.5533 266.6989,26.5503 272.5629,20.5413 C272.8899,20.2073 273.1879,19.8463 273.6459,19.3343 L256.2839,19.3343 L256.2839,10.2303 L288.1789,10.2303 C288.1789,12.5863 288.2029,14.8943 288.1499,17.2003 C288.1419,17.5283 287.8059,17.8903 287.5439,18.1643 C281.9459,24.0363 276.3359,29.8973 270.7309,35.7643 C270.5189,35.9853 270.3389,36.2353 269.9129,36.7513 Z M244.8221,22.0125 C239.5181,16.9155 233.0201,17.8095 229.8011,21.2275 C226.5451,24.6835 226.3891,30.6065 229.4381,34.1885 C232.6051,37.9105 239.3411,39.0715 244.8451,33.8325 C246.9361,36.0015 249.0281,38.1715 251.1811,40.4035 C248.1071,43.7115 244.2841,45.9685 239.6271,46.5575 C231.9841,47.5255 225.4161,45.3945 220.5561,39.2185 C213.1761,29.8335 216.3751,13.0865 231.8191,9.5385 C238.7711,7.9415 245.0531,9.5855 250.3381,14.5415 C250.5421,14.7325 250.7441,14.9265 250.9361,15.1285 C251.0451,15.2425 251.1331,15.3775 251.1591,15.4105 C249.0471,17.6115 246.9601,19.7855 244.8221,22.0125 Z M124.5838,45.8597 L114.0228,45.8597 L114.0228,44.5317 C114.0228,38.4147 114.0268,32.2977 114.0178,26.1817 C114.0168,25.4237 114.0268,24.6517 113.8948,23.9117 C113.2118,20.0937 110.1288,18.1197 106.0048,18.9377 C104.3928,19.2567 102.6448,19.4927 101.7888,21.2777 C101.7178,21.4257 101.3858,21.4837 101.1648,21.5187 C96.0408,22.3467 90.9158,23.1667 85.7908,23.9827 C85.7248,23.9927 85.6478,23.9327 85.5538,23.8967 C85.3398,22.9637 85.7148,22.5747 86.6698,22.4137 C91.3468,21.6237 96.0128,20.7717 100.7498,19.9297 L100.7498,18.4897 C95.7328,19.4037 90.8008,20.3027 85.8678,21.2017 C85.3428,19.9317 85.3988,19.8137 86.6438,19.5317 C90.8078,18.5867 94.9728,17.6437 99.1348,16.6907 C100.9258,16.2807 100.9238,16.2697 100.7368,14.3557 C95.8178,15.6337 90.9078,16.9087 85.8518,18.2227 C85.7558,17.5197 85.6798,16.9617 85.6288,16.5857 C90.8368,14.7907 95.9028,13.0447 101.0008,11.2867 L101.0008,13.6867 C102.7428,11.6807 104.7358,10.4487 107.1178,9.8667 C110.2228,9.1067 113.3118,9.1807 116.3198,10.2367 C121.0718,11.9047 123.4378,15.5437 124.2848,20.3147 C124.4928,21.4867 124.5668,22.6967 124.5708,23.8897 C124.5978,30.7257 124.5838,37.5617 124.5838,44.3977 L124.5838,45.8597 Z M201.7869,40.2581 C201.8719,36.6401 204.7819,33.8961 208.4189,34.0021 C211.8729,34.1041 214.6099,37.0221 214.5429,40.5311 C214.4759,44.0211 211.4939,46.8751 207.9949,46.7991 C204.4209,46.7221 201.7009,43.8571 201.7869,40.2581 Z M36.5354,11.7362 C35.9584,12.3032 35.4654,13.0072 34.7934,13.4182 C24.5214,19.7022 14.6024,26.4902 5.1554,33.9632 C4.8234,34.2272 4.4604,34.4522 4.1114,34.6952 C4.0264,34.6362 3.9414,34.5762 3.8554,34.5172 C4.2664,33.7752 4.5644,32.9302 5.1204,32.3202 C5.6464,31.7422 6.4434,31.4112 7.1954,30.9232 C6.9204,30.6932 6.7214,30.5272 6.4554,30.3062 C6.5914,30.1802 6.6884,30.0672 6.8064,29.9842 C15.5984,23.8162 24.3684,17.6182 33.2224,11.5412 C33.9814,11.0202 35.2844,11.2912 36.3354,11.1942 C36.4014,11.3752 36.4684,11.5552 36.5354,11.7362 Z M34.1331,16.9696 C33.0021,18.1086 31.9371,19.3236 30.7281,20.3736 C26.2871,24.2326 20.9891,26.8816 16.3691,30.5106 C11.7241,34.1586 6.8871,37.5616 2.1321,41.0686 C1.8131,41.3026 1.4721,41.5086 1.0721,41.6816 C1.5701,41.1036 -0.1689,39.5646 1.8091,39.7046 C2.0191,39.2196 2.0841,38.6376 2.4041,38.3986 C8.1611,34.0976 13.8711,29.7276 19.7561,25.6066 C24.1311,22.5426 28.7411,19.8116 33.2491,16.9366 C33.4341,16.8196 33.6451,16.7426 33.8441,16.6476 C33.9411,16.7546 34.0371,16.8626 34.1331,16.9696 Z M51.8763,47.5531 C60.2573,39.3891 69.2473,32.4721 80.8623,29.6051 C80.9183,30.4911 81.0873,31.2881 79.9173,31.6831 C72.0363,34.3391 65.1673,38.6691 59.1083,44.3351 C57.7963,45.5621 56.4003,46.6991 55.0913,47.9291 C54.4333,48.5471 53.8743,48.7231 53.1303,48.0751 C52.8323,47.8161 52.3673,47.7481 51.8763,47.5531 Z M74.5013,13.7293 C71.5403,14.7943 68.6893,15.8113 65.8443,16.8473 C62.9593,17.8963 60.0623,18.9173 57.2043,20.0393 C54.3843,21.1463 51.5833,22.3063 48.8203,23.5463 C46.1013,24.7673 43.4413,26.1163 40.7553,27.4093 C40.7133,27.3083 40.6703,27.2073 40.6273,27.1063 C40.3553,27.5093 40.0823,27.9113 39.7303,28.4293 C39.1683,27.0813 39.5553,26.1423 41.0463,25.4473 C46.5763,22.8743 52.0963,20.2733 57.6983,17.8673 C62.4973,15.8053 67.4063,14.0033 72.2593,12.0703 C73.7723,11.4683 73.7513,11.4463 74.0493,13.0503 C74.0883,13.2603 74.3013,13.4383 74.5013,13.7293 Z M28.1409,25.1903 C27.6259,25.7963 27.0749,26.3773 26.6019,27.0143 C23.3489,31.3913 18.4209,33.7353 14.3049,37.0563 C10.1539,40.4033 5.6219,43.2783 1.2849,46.3413 C-0.1981,44.8253 -0.1661,44.8703 1.3369,43.7863 C8.2969,38.7623 15.2279,33.6993 22.1909,28.6783 C24.0299,27.3523 25.9409,26.1263 27.8199,24.8543 C27.9269,24.9653 28.0339,25.0783 28.1409,25.1903 Z M31.0926,6.6649 C31.2556,6.9209 31.4026,7.1499 31.4766,7.2679 C32.2086,7.1939 32.8586,7.1269 33.5086,7.0609 C33.5926,7.2669 33.6766,7.4719 33.7606,7.6769 C32.4276,8.7659 31.1496,9.9299 29.7526,10.9289 C23.4546,15.4319 17.1236,19.8889 10.8026,24.3609 C10.6766,24.4499 10.5336,24.5159 10.3416,24.6249 C10.1436,24.3669 9.9586,24.1269 9.7646,23.8749 C9.8726,23.7409 9.9256,23.6279 10.0136,23.5699 C10.8246,23.0399 11.5776,22.5009 11.5786,21.3599 C11.5786,21.0779 11.8936,20.7459 12.1416,20.5239 C12.5866,20.1269 13.0876,19.7909 13.5706,19.4379 C19.3756,15.2059 25.1806,10.9739 31.0926,6.6649 Z M56.5086,49.5628 C69.7396,36.4808 74.1496,34.9148 79.8196,32.6458 C79.8706,33.0798 79.9896,33.5198 79.9456,33.9438 C79.9146,34.2378 79.7286,34.6338 79.4906,34.7688 C78.0176,35.6008 76.5206,36.3928 75.0086,37.1508 C74.6216,37.3448 74.1506,37.3698 73.7366,37.4678 C73.3966,37.8468 73.0536,38.3198 72.6256,38.6918 C69.1016,41.7558 65.5816,44.8278 62.0126,47.8378 C61.0886,48.6188 60.0536,49.3318 58.9556,49.8178 C58.2516,50.1288 57.3396,49.9688 56.5206,50.0198 C56.5166,49.8678 56.5126,49.7148 56.5086,49.5628 Z M62.6795,11.1742 C62.6965,11.4192 62.7075,11.5852 62.7355,11.9862 C64.8735,9.2582 67.3725,8.4452 70.4605,10.1802 C70.1015,10.3632 69.7365,10.5702 69.3545,10.7402 C61.3085,14.3222 53.2595,17.8962 45.2145,21.4812 C44.4145,21.8382 43.6625,22.3112 42.8475,22.6232 C42.5825,22.7242 42.1865,22.4812 41.8505,22.3952 C41.9835,22.1182 42.0465,21.7582 42.2605,21.5752 C46.4625,17.9722 51.8585,16.6382 56.6105,14.0742 C58.5665,13.0192 60.6235,12.1502 62.6795,11.1742 Z M97.5154,27.4959 C93.2784,28.3239 89.0414,29.1519 84.7374,29.9929 C84.7374,28.9689 84.9744,28.2199 86.2724,28.0189 C90.6444,27.3439 95.0024,26.5769 99.3694,25.8589 C99.7134,25.8019 100.0764,25.8509 100.4154,25.8509 L100.4154,27.3609 C100.6674,27.6919 101.0174,28.1519 101.3574,28.5979 C95.7294,29.8599 90.2704,31.0829 84.7004,32.3319 C84.6834,32.0169 84.6564,31.4899 84.6134,30.6799 C88.9144,29.6989 93.2104,28.7199 97.5064,27.7419 C97.5094,27.6599 97.5124,27.5779 97.5154,27.4959 Z M8.325,17.6014 C8.903,17.1394 9.476,16.6684 10.061,16.2144 C14,13.1554 17.963,10.1264 21.865,7.0214 C22.691,6.3634 23.52,6.1784 24.502,6.2244 C25.283,6.2604 26.068,6.2314 27.108,6.2314 C26.638,6.6634 26.333,6.9944 25.981,7.2624 C21.883,10.3764 17.752,13.4484 13.692,16.6094 C12.564,17.4874 11.46,18.0694 10.004,17.8544 C9.498,17.7804 8.971,17.8434 8.453,17.8434 C8.41,17.7624 8.367,17.6824 8.325,17.6014 Z M34.8787,35.9564 C34.4367,36.3204 34.1107,36.5874 33.7867,36.8554 C33.4807,37.1094 33.1757,37.3644 32.9737,37.5324 C32.6077,37.4144 32.3377,37.3274 32.0687,37.2404 C32.0947,37.5154 32.1217,37.7894 32.1647,38.2294 C27.3697,42.1484 22.5307,46.2824 16.8327,49.1984 C15.8107,49.7224 14.7027,50.4864 13.3457,49.8684 C13.0107,49.7164 12.4737,50.0104 11.9327,49.8964 C12.6527,49.5434 13.3727,49.1894 14.0927,48.8364 C14.1217,48.9204 14.1497,49.0044 14.1797,49.0884 C14.4117,48.7774 14.5777,48.3484 14.8877,48.1754 C20.6407,44.9584 25.7257,40.8224 30.7737,36.6404 C31.6027,35.9524 32.3907,35.5434 33.4867,36.0094 C33.8267,36.1534 34.2977,35.9884 34.8787,35.9564 Z M6.1893,49.4124 C8.9453,47.6524 11.4943,46.1574 13.8983,44.4564 C17.3533,42.0124 20.7603,39.4914 24.0673,36.8524 C25.4283,35.7664 26.7003,35.3174 28.4433,36.0484 C26.0753,37.9354 23.8333,39.9204 21.3943,41.6224 C17.5343,44.3164 13.5883,46.8984 9.5633,49.3384 C8.8073,49.7974 7.5083,50.0874 6.1893,49.4124 Z M2.2967,47.933 C9.0467,43.101 15.7967,38.27 22.7767,33.274 C22.3727,33.785 22.1227,34.1 21.7787,34.534 C23.0167,35.612 22.0687,36.236 21.1727,36.859 C15.6067,40.725 10.0427,44.595 4.4637,48.444 C3.5627,49.065 2.9347,48.854 2.2967,47.933 Z M18.4451,6.5077 C16.3431,8.1867 14.4231,9.7207 12.5001,11.2547 C10.4101,12.9217 8.3181,14.5877 6.2281,16.2547 C5.0401,17.2007 4.7151,17.1337 3.9431,15.8347 C3.8321,15.6467 3.5851,15.5387 3.3331,15.3407 C6.8831,12.4417 10.3601,9.5097 13.9661,6.7477 C14.6051,6.2577 15.7831,6.4457 16.7161,6.3807 C17.1861,6.3467 17.6641,6.4447 18.4451,6.5077 Z M19.7391,49.6927 C21.8671,48.3147 24.0751,47.0437 26.1041,45.5327 C29.0461,43.3427 31.8791,41.0057 34.7151,38.6777 C35.7361,37.8387 36.7321,37.2687 38.3241,38.0437 C37.4341,38.9827 36.6891,40.0057 35.7261,40.7457 C32.2841,43.3907 28.8041,45.9907 25.2591,48.4937 C24.2271,49.2207 22.9081,49.4627 21.5861,49.2017 C21.5071,49.1857 21.4081,49.2597 21.3221,49.2967 C20.8221,49.5107 20.3241,49.7257 19.8261,49.9407 C19.7971,49.8577 19.7681,49.7757 19.7391,49.6927 Z M43.9427,17.7977 C44.2417,17.4757 44.5407,17.1537 44.8937,16.7737 C44.1467,15.8457 44.6587,15.3877 45.5507,14.9047 C49.2647,12.8957 52.9437,10.8227 56.4097,8.8987 C58.1267,10.0097 59.7487,8.8567 61.6507,9.0687 C55.6397,12.1427 49.8817,15.0877 44.1247,18.0327 C44.0647,17.9547 44.0037,17.8757 43.9427,17.7977 Z M100.7864,33.7025 C100.7354,34.4185 100.6994,34.9165 100.6574,35.5055 C95.3564,36.6475 90.3244,38.4445 85.6564,41.1495 C84.4434,39.4175 84.5434,39.0725 86.3714,38.1925 C90.8824,36.0205 95.6474,34.6845 100.7864,33.7025 Z M88.6468,45.0277 C88.4938,44.6607 88.3758,44.3767 88.2278,44.0227 C87.9388,44.2657 87.7018,44.4657 87.4628,44.6657 C86.4488,43.6567 86.4808,43.3677 87.7008,42.6307 C91.3418,40.4277 95.2528,38.8637 99.3238,37.6627 C100.0238,37.4557 100.5318,37.5537 100.7668,38.2297 C101.0258,38.9777 100.6048,39.3947 99.9168,39.6787 C97.3768,40.7247 94.8258,41.7507 92.3298,42.8927 C91.0688,43.4707 89.9158,44.2827 88.6468,45.0277 Z M49.4012,46.4681 C49.0702,46.0961 48.7732,45.7811 48.4982,45.4461 C48.3242,45.2341 48.1842,44.9921 47.9372,44.6291 C50.8602,42.1881 53.7542,39.7551 56.6762,37.3561 C56.9132,37.1601 57.3362,37.1391 57.6752,37.1291 C58.6652,37.1011 59.6562,37.1191 60.5432,37.1191 C56.9702,40.1171 53.2372,43.2501 49.4012,46.4681 Z M100.4193,30.4896 C100.5433,31.0316 100.6393,31.4516 100.7043,31.7316 C95.3743,33.2616 90.0483,34.7916 84.7643,36.3096 C84.5883,34.5556 84.5893,34.5586 86.4133,33.8996 C90.9313,32.2676 95.5853,31.2016 100.4193,30.4896 Z M76.3431,15.1312 C76.6081,15.7992 76.8071,16.3042 77.0561,16.9332 C73.0631,18.1682 69.0871,19.3982 65.1301,20.6222 C65.0551,20.3462 64.9901,20.1042 64.9171,19.8292 C64.0991,20.4892 63.3411,21.1012 62.4471,21.8222 C62.1131,20.2242 61.8791,20.1792 60.4111,20.9422 C60.6581,20.7122 60.8661,20.3682 61.1581,20.2682 C66.1981,18.5432 71.2491,16.8482 76.3431,15.1312 Z M40.6219,31.7328 C40.5219,31.4888 40.3769,31.1358 40.1899,30.6788 C39.4979,31.0938 38.8979,31.4538 38.2739,31.8288 C38.3489,30.8098 39.5079,30.1608 40.9099,30.1978 C41.1819,29.7808 41.3189,29.3028 41.6249,29.1418 C45.3809,27.1598 49.1619,25.2238 52.9369,23.2758 C53.0509,23.4178 53.1659,23.5588 53.2799,23.6998 C52.4969,24.5598 51.8649,25.6798 50.9049,26.2328 C47.5639,28.1588 44.1089,29.8888 40.6219,31.7328 Z M42.7625,40.3783 C42.2975,39.8623 41.8485,39.3643 41.2565,38.7053 C44.3975,36.4213 47.5835,34.1043 50.8335,31.7413 C51.2945,32.3543 51.6355,32.8063 51.9915,33.2773 C48.8485,35.6953 45.7675,38.0663 42.7625,40.3783 Z M77.5032,38.4496 C76.7802,39.4326 76.0622,40.4186 75.3322,41.3956 C74.9882,41.8556 74.6062,42.2886 74.2682,42.7526 C73.4562,43.8656 72.6072,44.8776 71.2102,44.0806 C71.0862,44.9106 70.9912,45.5556 70.8472,46.5266 C70.2442,45.6226 69.8832,44.7426 68.8982,45.6156 C69.0492,45.9216 69.1982,46.2216 69.3282,46.4836 C68.9002,46.8866 68.4572,47.1846 68.1752,47.5936 C67.4822,48.5976 67.5122,48.6186 66.3372,48.3406 C66.2612,48.6906 66.1852,49.0406 66.1052,49.4116 C65.7312,48.9806 65.3822,48.5796 64.9822,48.1176 C65.4952,47.9336 66.0962,47.7196 66.8622,47.4456 C66.7772,45.8086 68.3152,45.2816 69.6262,44.3846 C70.9982,43.4436 72.0252,42.0166 73.3162,40.9386 C74.5302,39.9246 75.8912,39.0856 77.1872,38.1696 C77.2932,38.2626 77.3982,38.3566 77.5032,38.4496 Z M29.2005,48.5853 C31.9765,46.3623 34.7245,44.1893 37.4355,41.9693 C37.9655,41.5353 38.4425,41.3563 38.8195,41.9613 C39.1365,42.4723 39.7255,43.0723 38.8895,43.7173 C36.8735,45.2723 34.9755,47.0093 32.8365,48.3673 C31.8315,49.0053 30.3905,49.3763 29.2005,48.5853 Z M46.5564,42.8939 C46.0094,42.4259 45.4864,41.9779 44.7854,41.3789 C46.8644,39.7239 48.9974,38.0229 51.1334,36.3259 C51.3204,36.1769 51.5274,36.0539 51.7264,35.9209 C53.2754,34.8869 53.2754,34.8869 54.6784,36.3209 C51.9254,38.5489 49.1744,40.7759 46.5564,42.8939 Z M101.4222,22.721 C101.1862,24.062 100.5982,24.479 99.4562,24.635 C95.0712,25.234 90.7092,25.994 86.3322,26.659 C85.9812,26.712 85.5892,26.499 85.2162,26.409 C85.4742,26.035 85.6832,25.384 85.9982,25.328 C91.1002,24.419 96.2142,23.587 101.4222,22.721 Z M80.8294,26.7147 C80.3084,27.7867 79.5474,28.4067 78.3274,28.8227 C74.4154,30.1587 70.5794,31.7157 66.5394,33.2557 C67.2254,32.3617 67.7104,31.0707 68.5764,30.7177 C72.5404,29.1017 76.6114,27.7487 80.6444,26.3007 C80.7064,26.4387 80.7674,26.5767 80.8294,26.7147 Z M40.907,33.8343 C44.036,31.9683 47.166,30.1023 50.33,28.2163 C50.869,29.6063 50.452,30.2573 49.37,30.9003 C46.608,32.5413 43.948,34.3543 41.065,36.2153 L41.065,34.1003 C41.012,34.0123 40.96,33.9233 40.907,33.8343 Z M65.4739,22.0101 C69.8179,20.7401 74.0559,19.5021 78.3059,18.2601 C78.3979,18.8781 78.4709,19.3551 78.5419,19.8301 C74.6939,20.9651 70.7959,22.1121 66.8999,23.2651 C65.9539,23.5441 65.7359,22.9281 65.4739,22.0101 Z M80.8768,25.1331 C79.6958,25.4541 78.5038,25.7381 77.3368,26.1031 C74.5658,26.9691 71.8118,27.8901 69.0348,28.7371 C68.7308,28.8301 68.1418,28.7011 68.0028,28.4781 C67.7048,28.0001 67.8068,27.4901 68.4878,27.2891 C72.2628,26.1721 76.0278,25.0221 79.8198,23.9651 C80.1518,23.8731 80.6498,24.3751 81.0718,24.6011 C81.0068,24.7781 80.9418,24.9561 80.8768,25.1331 Z M67.6849,25.9417 C67.5379,25.5457 67.3869,25.1407 67.1649,24.5457 C70.7979,23.5247 74.3979,22.5127 77.9989,21.5017 C78.2289,21.4377 78.4619,21.3797 78.6939,21.3247 C79.9029,21.0367 80.0249,21.1367 80.0639,22.4157 C75.9699,23.5817 71.8809,24.7467 67.6849,25.9417 Z M2.0999,13.2279 C1.3159,12.6289 0.7149,12.1709 -0.0001,11.6259 C1.1669,10.6019 2.3159,9.4619 3.6149,8.5329 C3.9969,8.2599 4.8089,8.5479 5.4139,8.6429 C5.7869,8.7019 6.1399,8.8819 6.5469,9.0229 C6.4709,7.3889 7.1969,6.9099 9.2319,7.2179 C6.7419,9.3169 4.3189,11.3579 2.0999,13.2279 Z M97.9559,43.1947 C98.4949,43.3857 98.7649,43.4817 98.8579,43.5147 C98.4869,44.1747 98.1969,44.8287 97.7749,45.3827 C97.5859,45.6317 97.1079,45.8407 96.8059,45.7927 C95.2729,45.5457 95.0599,45.6337 94.5499,47.0957 C93.3709,47.0377 92.1779,46.9777 90.9859,46.9187 C90.9459,46.7867 90.9059,46.6547 90.8659,46.5227 C92.9009,45.3917 94.9239,44.2387 96.9769,43.1407 C97.7829,42.7117 98.6449,42.3747 99.5069,42.0687 C99.7069,41.9977 100.0129,42.2267 100.2689,42.3177 C100.1039,42.4937 99.9669,42.7627 99.7659,42.8267 C99.2769,42.9807 98.7579,43.0407 97.9559,43.1947 Z M95.4315,8.5575 C95.6415,8.6465 95.9905,8.7935 96.7175,9.1005 C96.5365,7.9925 96.3945,7.1135 96.2515,6.2345 C96.3215,6.1585 96.3915,6.0815 96.4605,6.0055 C97.2575,7.1895 97.8795,8.6985 99.7795,7.9775 C97.8895,9.3865 96.0005,10.5645 93.6375,11.3575 C94.3295,10.2765 94.8265,9.5025 95.4315,8.5575 Z M88.8919,11.433 C88.9409,13.29 88.7169,13.507 86.7629,13.814 C86.7449,13.592 86.7279,13.376 86.7119,13.16 C87.7899,13.258 88.1029,12.214 88.8919,11.433 Z M40.219,36.3499 C39.696,35.7539 39.259,35.2579 38.57,34.4749 C39.116,34.5549 39.535,34.5089 39.823,34.6799 C40.481,35.0709 40.906,35.6029 40.219,36.3499 Z"></path>
</svg>
