<svg xmlns="http://www.w3.org/2000/svg" viewBox="0 0 102.05 40.02">
  <title>[logo] PriceFx</title>
  <g>
    <g>
      <path
        d="M102.05,10.51c0-.27-.14-.4-.42-.4H96.05a1,1,0,0,0-.6.2,4.76,4.76,0,0,0-.64.64L90.4,16.48,87.69,11a5.61,5.61,0,0,0-.37-.62.58.58,0,0,0-.5-.22h-9l.72-3.44a4.31,4.31,0,0,1,.77-1.92,1.88,1.88,0,0,1,1.34-.38H82L82.84,0h-2.4a24.06,24.06,0,0,0-3.2.08,6.38,6.38,0,0,0-2.5.89,5.91,5.91,0,0,0-1.88,2.09,11.14,11.14,0,0,0-1.14,3.6l-.61,2.9L69.25,19.75h0L66.8,33.11a9.07,9.07,0,0,1-.27,1.13,1.28,1.28,0,0,1-1.13.9c-.12,0-1,0-2.07,0L62.44,40c1,0,2.36,0,2.67,0a17.27,17.27,0,0,0,2.81-.23,6.29,6.29,0,0,0,2.52-.95,6.09,6.09,0,0,0,1.89-2.08,11.37,11.37,0,0,0,1.21-3.65L76.91,15h4.14a2.46,2.46,0,0,1,1.52.43,3.06,3.06,0,0,1,.35.44l2.73,5.3L76.33,32.27a.7.7,0,0,0-.17.44c0,.24.13.36.38.36h5.58a1.06,1.06,0,0,0,.6-.18,3.23,3.23,0,0,0,.64-.62l5-6.25,3,6.21a3,3,0,0,0,.38.64.58.58,0,0,0,.5.2h6a.47.47,0,0,0,.39-.18.64.64,0,0,0,.15-.42.75.75,0,0,0,0-.24L93.1,21.45,101.88,11a.57.57,0,0,0,.17-.44"
        fill="var(--color-1)"/>
      <path
        d="M15.35,17.5a7.6,7.6,0,0,0-2-5.64,7.83,7.83,0,0,0-5.78-2A27.58,27.58,0,0,0,4,10.08,30.3,30.3,0,0,0,1,10.63,1.75,1.75,0,0,0,.17,11,.78.78,0,0,0,0,11.5V32.44a.56.56,0,0,0,.2.42A.68.68,0,0,0,.65,33H4.4a.62.62,0,0,0,.44-.18A.58.58,0,0,0,5,32.44V27.27c.46.06.92.11,1.39.15s.85.06,1.16.06c2.62,0,4.58-.69,5.86-2.06a7.87,7.87,0,0,0,1.92-5.59Zm-5,2.35a7.35,7.35,0,0,1-.13,1.44,3.14,3.14,0,0,1-.43,1.16,2.25,2.25,0,0,1-.84.78,3,3,0,0,1-1.36.28c-.37,0-.8,0-1.27-.06L5,23.33V14c.29,0,.66-.07,1.11-.1s.92,0,1.44,0a3,3,0,0,1,1.36.27,2.12,2.12,0,0,1,.84.76,3.18,3.18,0,0,1,.43,1.14,7.34,7.34,0,0,1,.13,1.46Zm17-6.53V10.46a.59.59,0,0,0-.19-.42.62.62,0,0,0-.44-.18,6.79,6.79,0,0,0-2.21.37,6.69,6.69,0,0,0-2,1.07v-.6a.55.55,0,0,0-.19-.42.6.6,0,0,0-.43-.18H18.21a.62.62,0,0,0-.44.18.57.57,0,0,0-.18.41v15.9a.56.56,0,0,0,.2.43.61.61,0,0,0,.45.19H22a.56.56,0,0,0,.43-.19.59.59,0,0,0,.19-.43V14.93a11.82,11.82,0,0,1,1.86-.74,7.38,7.38,0,0,1,2.14-.3h.25a.39.39,0,0,0,.34-.18.7.7,0,0,0,.13-.39m6.88-8.54A.55.55,0,0,0,34,4.36a.58.58,0,0,0-.43-.18h-4a.62.62,0,0,0-.44.18.58.58,0,0,0-.18.42V7.56a.58.58,0,0,0,.18.42.62.62,0,0,0,.44.18h4A.58.58,0,0,0,34,8a.55.55,0,0,0,.19-.42Zm-.12,5.91a.58.58,0,0,0-.19-.41.6.6,0,0,0-.43-.18H29.68a.6.6,0,0,0-.43.18.54.54,0,0,0-.19.41V26.62a.53.53,0,0,0,.19.41.6.6,0,0,0,.43.18h3.79A.6.6,0,0,0,33.9,27a.56.56,0,0,0,.19-.41ZM48.23,26.35V23.69a.44.44,0,0,0-.17-.37.64.64,0,0,0-.42-.14h-.06l-1.66.15q-.8.06-2.13.06a2.94,2.94,0,0,1-1-.16,1.8,1.8,0,0,1-.8-.57,3,3,0,0,1-.55-1.08,6,6,0,0,1-.2-1.66v-2.5a6,6,0,0,1,.2-1.66A3,3,0,0,1,42,14.68a1.8,1.8,0,0,1,.8-.57,3.21,3.21,0,0,1,1-.16q1.34,0,2.13.06l1.66.15h.06a.64.64,0,0,0,.42-.14.44.44,0,0,0,.17-.37V11a.59.59,0,0,0-.15-.46,1.3,1.3,0,0,0-.5-.22c-.44-.1-1-.2-1.69-.3a17.32,17.32,0,0,0-2.44-.15A7.16,7.16,0,0,0,38.2,11.8a7.51,7.51,0,0,0-2,5.62v2.5a7.51,7.51,0,0,0,2,5.62,7.12,7.12,0,0,0,5.25,1.94,17.32,17.32,0,0,0,2.44-.15c.69-.1,1.25-.2,1.69-.3a1.3,1.3,0,0,0,.5-.22.59.59,0,0,0,.15-.46m16.63-8.64a9.78,9.78,0,0,0-.49-3.13,6.81,6.81,0,0,0-1.44-2.48,6.53,6.53,0,0,0-2.4-1.64,8.62,8.62,0,0,0-3.34-.6,9.23,9.23,0,0,0-3.31.55,6.57,6.57,0,0,0-4,4.05,9.55,9.55,0,0,0-.52,3.25v2.1A8.51,8.51,0,0,0,50,23.43a6.34,6.34,0,0,0,1.8,2.38,6.72,6.72,0,0,0,2.51,1.28,10.32,10.32,0,0,0,2.79.39,27.93,27.93,0,0,0,3.44-.18,26.13,26.13,0,0,0,2.92-.54.87.87,0,0,0,.53-.27,1,1,0,0,0,.12-.54V23.66c0-.32-.19-.48-.59-.48h-.09c-.31,0-.7.08-1.18.1s-1,.06-1.53.08l-1.66.06-1.59,0A3.74,3.74,0,0,1,56,23.18a2.56,2.56,0,0,1-1-.71,2.66,2.66,0,0,1-.53-1,5,5,0,0,1-.15-1.22v-.06H64.2c.44,0,.66-.24.66-.71ZM60,17.18H54.31v-.12a3.51,3.51,0,0,1,.78-2.48,2.66,2.66,0,0,1,2.07-.84,2.62,2.62,0,0,1,2.05.82,3.61,3.61,0,0,1,.74,2.5Z"
        fill="var(--color-2)"/>
    </g>
  </g>
</svg>
