<?xml version="1.0" encoding="UTF-8"?>
<svg width="243px" height="106px" viewBox="0 0 243 106" version="1.1" xmlns="http://www.w3.org/2000/svg" xmlns:xlink="http://www.w3.org/1999/xlink">
  <title>Erste Group</title>
  <g stroke="none" stroke-width="1">
    <path d="M208.3,15 C204.967702,11.5382923 204.967702,6.06170765 208.3,2.6 C209.885199,0.925492659 212.094231,-0.016061761 214.4,-4.4408921e-16 C219.260106,-0.0276142375 223.222386,3.8898942 223.25,8.75 C223.277614,13.6101058 219.360106,17.5723858 214.5,17.6 C212.166154,17.610515 209.928258,16.6720423 208.3,15 Z M243,34.8 L243,29.4 C243.005325,26.9583797 242.037752,24.6152283 240.311262,22.8887379 C238.584772,21.1622475 236.24162,20.1946747 233.8,20.2 L194.8,20.2 C192.35838,20.1946747 190.015228,21.1622475 188.288738,22.8887379 C186.562248,24.6152283 185.594675,26.9583797 185.6,29.4 L185.6,49.6 L229.1,49.6 L229.1,52.7 L185.6,52.7 L185.6,58 C185.594675,60.4416203 186.562248,62.7847717 188.288738,64.5112621 C190.015228,66.2377525 192.35838,67.2053253 194.8,67.2 L233.8,67.2 C236.24162,67.2053253 238.584772,66.2377525 240.311262,64.5112621 C242.037752,62.7847717 243.005325,60.4416203 243,58 L243,37.8 L199.5,37.8 L199.5,34.7 L243,34.7 L243,34.8 Z" fill="var(--color-1)"></path>
    <path d="M0,24.5 C0,21.7 1.2,20.3 4,20.3 L29.6,20.3 L29.6,26.1 C29.6,28.9 28.2,30.2 25.4,30.2 L11.7,30.2 L11.7,38.6 L27.1,38.6 L27.1,48.1 L11.7,48.1 L11.7,57.3 L30,57.3 L30,63.1 C30,65.9 28.6,67.2 25.8,67.2 L4,67.2 C1.2,67.2 0,65.8 0,63 L0,24.5 Z M34.8,24.5 C34.8,21.7 36,20.3 38.8,20.3 L54,20.3 C64.7,20.3 70.9,25.2 70.9,34.4 C70.9,40.8 68.5,44.9 62.7,47.2 L71.9,65.1 C72.280778,65.741908 72.5194776,66.4580068 72.6,67.2 L62.4,67.2 C60.3,67.2 59.4,67.2 58.4,65.1 L50.2,48.2 L46.5,48.2 L46.5,67.2 L34.8,67.2 L34.8,24.5 Z M46.5,30.2 L46.5,38.6 L53.2,38.6 C56.6,38.6 59.2,38.2 59.2,34.4 C59.2,30.6 56.6,30.2 53.2,30.2 L46.5,30.2 Z M90.1,19.9 C99.8,19.9 104.9,21 104.9,25.5 L104.9,30.1 L91.6,30.1 C88,30.1 87,31.1 87,33 C87,38.6 107.4,37.5 107.4,53.3 C107.4,60.8 103.1,67.5 89.9,67.5 C81.3,67.5 74.4,66.1 74.4,61.9 L74.4,57.3 L90.2,57.3 C93.4,57.3 95,56.3 95,54 C95,47.8 74.7,49 74.7,32.8 C74.6,25.6 79.3,19.9 90.1,19.9 Z M139.5,20.3 L139.5,26.2 C139.5,28.9 138.1,30.2 135.4,30.2 L129.6,30.2 L129.6,67.2 L117.9,67.2 L117.9,30.2 L108,30.2 L108,24.3 C108,21.6 109.4,20.3 112.1,20.3 L139.5,20.3 Z M143.2,24.5 C143.2,21.7 144.4,20.3 147.2,20.3 L172.8,20.3 L172.8,26.1 C172.8,28.9 171.4,30.2 168.6,30.2 L154.8,30.2 L154.8,38.6 L170.2,38.6 L170.2,48.1 L154.8,48.1 L154.8,57.3 L173.1,57.3 L173.1,63.1 C173.1,65.9 171.7,67.2 168.9,67.2 L147.1,67.2 C144.3,67.2 143.1,65.8 143.1,63 L143.1,24.5 L143.2,24.5 Z M15.7,98.2 C15.7,99.8 13.8,100.2 9.5,100.2 C3.3,100.2 0.3,96.5 0.3,88.3 C0.3,80.1 3.3,76.4 9.5,76.4 C13.8,76.4 15.4,76.8 15.4,78.4 L15.4,79.5 L9.5,79.5 C5.5,79.5 3.9,81.6 3.9,88.3 C3.9,95 5.5,97.1 9.5,97.1 L12.2,97.1 L12.2,90.1 C12.2,89 12.6,88.3 13.7,88.3 L15.6,88.3 L15.6,98.2 L15.7,98.2 Z M19.5,100 L19.5,81.7 L21.1,81.7 C22.2,81.7 22.7,82.6 22.7,84 C23.7770082,82.463324 25.5237934,81.5341829 27.4,81.5 C28,81.5 28.7,81.6 28.7,82.4 L28.7,84.7 L27.8,84.7 C25.9759321,84.5795851 24.1684185,85.1112067 22.7,86.2 L22.7,99.9 L19.5,99.9 L19.5,100 Z M29.4,90.9 C29.4,85.8 31.1,81.6 36.8,81.6 C42.5,81.6 44.2,85.8 44.2,90.9 C44.2,96 42.6,100.2 36.8,100.2 C31,100.2 29.4,96 29.4,90.9 Z M40.9,90.9 C40.9,86.4 40,84 36.9,84 C33.8,84 32.9,86.4 32.9,90.9 C32.9,95.4 33.8,97.8 36.9,97.8 C40,97.8 40.9,95.4 40.9,90.9 Z M61.3,81.7 L61.3,100 L59.7,100 C59.2742258,100.079565 58.8360147,99.9515579 58.5200196,99.6553124 C58.2040245,99.359067 58.0480412,98.9300169 58.1,98.5 L58.1,97.9 C56.8192197,99.3770315 54.9549178,100.217795 53,100.2 C49.4,100.2 47.7,98 47.7,94.6 L47.7,81.7 L51,81.7 L51,94.4 C51,96.6 52.2,97.5 54.3,97.5 C55.6963639,97.4278335 57.0308344,96.9010689 58.1,96 L58.1,81.7 L61.3,81.7 Z M68.8,105.5 L65.5,105.5 L65.5,81.7 L67.1,81.7 C67.5257742,81.620435 67.9639853,81.7484421 68.2799804,82.0446876 C68.5959755,82.340933 68.7519588,82.7699831 68.7,83.2 L68.7,83.8 C69.8842714,82.3652183 71.639753,81.52405 73.5,81.5 C77.8,81.5 79.8,85.1 79.8,90.8 C79.8,96.5 77.8,100.1 73.5,100.1 C71.6450563,100.053593 69.8983736,99.2166405 68.7,97.8 L68.7,105.5 L68.8,105.5 Z M72.5,84.2 C71.133835,84.2730998 69.8313887,84.8011186 68.8,85.7 L68.8,96 C69.7958565,96.9551853 71.1201283,97.4920522 72.5,97.5 C75.4,97.5 76.5,95.2 76.5,90.9 C76.5,86.6 75.3,84.2 72.5,84.2 Z" fill="var(--color-2)"></path>
    </g>
</svg>
