<svg width="48" height="48" viewBox="0 0 48 48" fill="none" xmlns="http://www.w3.org/2000/svg">
<g clip-path="url(#clip0)">
<path d="M20 6.004C28.822 6.004 36 11.702 36 18.704C36 24.774 29.942 31.326 20.15 31.326C16.99 31.326 14.714 30.692 12.714 30.204C10.782 31.39 10.202 31.83 6.702 32.95C7.532 29.914 7.426 28.586 7.364 26.582C5.69 24.58 4 22.444 4 18.704C4 11.702 11.178 6.004 20 6.004ZM20 2C9.438 2 0 9.052 0 18.704C0 22.126 1.23 25.486 3.41 28.094C3.504 31.148 1.708 35.53 0.088 38.718C4.424 37.936 10.592 36.202 13.386 34.488C15.748 35.066 18.01 35.33 20.15 35.33C31.956 35.33 40 27.254 40 18.704C40 9 30.498 2 20 2ZM43.07 24.348C42.748 25.324 42.348 26.27 41.868 27.18C45.222 29.704 46.382 33.632 42.796 37.91C42.754 39.4 42.698 40.008 43.072 41.64C41.288 41.026 41.114 40.856 39.742 40.014C35.488 41.052 31.212 41.406 27.564 38.304C26.44 38.622 25.274 38.86 24.084 39.032C27.11 42.786 32.68 44.826 39.238 43.232C41.066 44.354 45.104 45.486 47.942 46.002C46.882 43.912 45.708 41.044 45.766 39.044C49.276 34.848 48.852 28.172 43.07 24.348ZM13 16.822C11.818 16.822 10.858 17.78 10.858 18.964C10.858 20.148 11.818 21.106 13 21.106C14.182 21.106 15.142 20.148 15.142 18.964C15.142 17.78 14.182 16.822 13 16.822ZM20 16.822C18.818 16.822 17.858 17.78 17.858 18.964C17.858 20.148 18.818 21.106 20 21.106C21.182 21.106 22.142 20.148 22.142 18.964C22.142 17.78 21.182 16.822 20 16.822ZM27 16.822C25.818 16.822 24.858 17.78 24.858 18.964C24.858 20.148 25.818 21.106 27 21.106C28.182 21.106 29.142 20.148 29.142 18.964C29.142 17.78 28.182 16.822 27 16.822Z" fill="#1538E5"/>
</g>
<defs>
<clipPath id="clip0">
<rect width="48" height="48" fill="white"/>
</clipPath>
</defs>
</svg>
