<svg width="48" height="64" viewBox="0 0 48 64" fill="none" xmlns="http://www.w3.org/2000/svg">
<g clip-path="url(#clip0)">
<path d="M29.5933 13.0049C19.5581 13.0049 11.2637 19.6609 11.2637 27.8529C11.2637 32.1537 13.6189 36.2497 17.6125 39.1169C17.4077 39.7313 17.1005 40.3457 16.7933 40.9601C16.1789 42.1889 16.2813 43.6225 17.1005 44.7489C17.7149 45.5681 18.7389 46.0801 19.8653 46.0801C20.1725 46.0801 20.3773 46.0801 20.6845 45.9777C23.4493 45.3633 25.8045 44.2369 27.6477 42.5985C28.3645 42.7009 28.9789 42.7009 29.5933 42.7009C39.6285 42.7009 47.8205 36.0449 47.8205 27.8529C47.8205 19.6609 39.6285 13.0049 29.5933 13.0049ZM21.7085 38.6049L21.9133 37.2737L20.7869 36.5569C17.2029 34.4065 15.1549 31.2321 15.1549 27.8529C15.1549 21.8113 21.6061 16.7937 29.5933 16.7937C37.5805 16.7937 44.0317 21.8113 44.0317 27.8529C44.0317 33.9969 37.5805 38.9121 29.5933 38.9121C28.8765 38.9121 28.0573 38.8097 27.2381 38.7073L26.3165 38.6049L25.5997 39.3217C24.3709 40.5505 22.7325 41.4721 20.5821 42.0865C21.1965 40.9601 21.5037 39.7313 21.7085 38.6049Z" fill="#1538E5"/>
<path d="M22.1185 31.232C23.5889 31.232 24.7809 30.04 24.7809 28.5696C24.7809 27.0992 23.5889 25.9072 22.1185 25.9072C20.6481 25.9072 19.4561 27.0992 19.4561 28.5696C19.4561 30.04 20.6481 31.232 22.1185 31.232Z" fill="#1538E5"/>
<path d="M29.594 31.232C31.0644 31.232 32.2564 30.04 32.2564 28.5696C32.2564 27.0992 31.0644 25.9072 29.594 25.9072C28.1236 25.9072 26.9316 27.0992 26.9316 28.5696C26.9316 30.04 28.1236 31.232 29.594 31.232Z" fill="#1538E5"/>
<path d="M37.0687 31.232C38.5391 31.232 39.7311 30.04 39.7311 28.5696C39.7311 27.0992 38.5391 25.9072 37.0687 25.9072C35.5982 25.9072 34.4062 27.0992 34.4062 28.5696C34.4062 30.04 35.5982 31.232 37.0687 31.232Z" fill="#1538E5"/>
<path d="M33.9968 0H4.608C2.048 0 0 2.048 0 4.608V59.392C0 61.952 2.048 64 4.608 64H33.9968C36.5568 64 38.6048 61.952 38.6048 59.392V44.1344C36.9664 44.7488 35.2256 45.2608 33.4848 45.4656V50.5856H5.12V7.7824H33.4848V10.24C35.328 10.5472 36.9664 10.9568 38.6048 11.6736V4.608C38.6048 2.048 36.5568 0 33.9968 0ZM19.3536 53.9648C21.0944 53.9648 22.4256 55.3984 22.4256 57.0368C22.4256 58.6752 20.992 60.1088 19.3536 60.1088C17.6128 60.1088 16.2816 58.6752 16.2816 57.0368C16.1792 55.296 17.6128 53.9648 19.3536 53.9648ZM25.8048 5.0176H12.8C12.4928 5.0176 12.1856 4.5056 12.1856 3.8912C12.1856 3.2768 12.4928 2.7648 12.8 2.7648H25.9072C26.2144 2.7648 26.5216 3.2768 26.5216 3.8912C26.4192 4.5056 26.2144 5.0176 25.8048 5.0176Z" fill="#1538E5"/>
</g>
<defs>
<clipPath id="clip0">
<rect width="47.9232" height="64" fill="white"/>
</clipPath>
</defs>
</svg>
