<svg width="48" height="48" viewBox="0 0 48 48" fill="none" xmlns="http://www.w3.org/2000/svg">
<path d="M29.78 47.308C15.046 54.042 -7.82397 9.588 6.57803 2.078L10.792 0L17.776 13.634L13.612 15.686C9.23403 18.034 18.352 35.846 22.83 33.674C23.012 33.592 26.944 31.66 26.958 31.652L34 45.242C33.984 45.25 30.022 47.198 29.78 47.308ZM26.704 20.49L32.538 22.23C32.984 20.736 32.858 19.072 32.058 17.596C31.26 16.118 29.934 15.102 28.442 14.658L26.704 20.49ZM30.312 8.374C33.414 9.298 36.164 11.406 37.824 14.476C39.486 17.548 39.744 21.002 38.82 24.102L35.23 23.032C35.88 20.85 35.696 18.42 34.526 16.258C33.36 14.096 31.424 12.614 29.24 11.966L30.312 8.374ZM32.212 2C36.942 3.41 41.138 6.624 43.67 11.312C46.208 15.998 46.602 21.268 45.192 26L41.512 24.904C42.64 21.114 42.324 16.892 40.296 13.14C38.264 9.386 34.904 6.81 31.114 5.682L32.212 2Z" fill="#1538E5"/>
</svg>
