<svg width="64" height="64" viewBox="0 0 64 64" fill="none" xmlns="http://www.w3.org/2000/svg">
<path fill-rule="evenodd" clip-rule="evenodd" d="M8 48H2.66667C1.19467 48 0 46.8053 0 45.3333V40H40V16H52.4453C55.424 16 56.712 17.536 57.608 18.952C59.192 21.4587 61.704 25.4373 63.232 27.96C63.7333 28.792 64 29.7467 64 30.72V42.6667C64 45.656 62.0587 48 58.6667 48H56C56 52.416 52.416 56 48 56C43.584 56 40 52.416 40 48H24C24 52.416 20.416 56 16 56C11.584 56 8 52.416 8 48ZM16 44.8C17.7653 44.8 19.2 46.2347 19.2 48C19.2 49.7653 17.7653 51.2 16 51.2C14.2347 51.2 12.8 49.7653 12.8 48C12.8 46.2347 14.2347 44.8 16 44.8ZM48 44.8C49.7653 44.8 51.2 46.2347 51.2 48C51.2 49.7653 49.7653 51.2 48 51.2C46.2347 51.2 44.8 49.7653 44.8 48C44.8 46.2347 46.2347 44.8 48 44.8ZM37.3333 37.3333H0V10.6667C0 9.19467 1.19467 8 2.66667 8H34.6667C36.1387 8 37.3333 9.19467 37.3333 10.6667V37.3333ZM45.3333 21.3333V29.3333H57.9067L54.1013 22.6773C53.6267 21.8453 52.744 21.3333 51.7867 21.3333H45.3333Z" fill="#1538E5"/>
</svg>
