<svg width="64" height="64" viewBox="0 0 64 64" fill="none" xmlns="http://www.w3.org/2000/svg">
<path fill-rule="evenodd" clip-rule="evenodd" d="M36.168 64H5.33333C2.38933 64 0 61.6107 0 58.6667V5.33333C0 2.38933 2.38933 0 5.33333 0H42.6667C45.6107 0 48 2.38933 48 5.33333V16H42.6667V8H5.33333V53.3333H34.6667V60C34.6667 61.3973 35.152 63.1333 36.168 64ZM60 18.6667C62.208 18.6667 64 20.4587 64 22.6667V60C64 62.2027 62.2107 64 60 64H41.3333C39.1227 64 37.3333 62.2 37.3333 60V22.6667C37.3333 20.4613 39.128 18.6667 41.3333 18.6667H60ZM24 56C25.472 56 26.6667 57.1947 26.6667 58.6667C26.6667 60.1387 25.472 61.3333 24 61.3333C22.528 61.3333 21.3333 60.1387 21.3333 58.6667C21.3333 57.1947 22.528 56 24 56ZM50.6667 61.3333C49.192 61.3333 48 60.1387 48 58.6667C48 57.1947 49.192 56 50.6667 56C52.1387 56 53.3307 57.1947 53.3307 58.6667C53.3307 60.1387 52.1387 61.3333 50.6667 61.3333ZM61.3333 53.3333V26.6027H40V53.3333H61.3333ZM52 24C52.7333 24 53.3333 23.4027 53.3333 22.6667C53.3333 21.9307 52.7333 21.3333 52 21.3333H49.3333C48.5973 21.3333 48 21.9307 48 22.6667C48 23.4027 48.5973 24 49.3333 24H52Z" fill="#1538E5"/>
</svg>
