<svg width="64" height="64" viewBox="0 0 64 64" fill="none" xmlns="http://www.w3.org/2000/svg">
<g clip-path="url(#clip0)">
<path d="M28.3843 45.5466C36.027 43.7813 40.4883 42.2373 37.0403 35.7279C26.555 15.9226 34.2617 5.33325 45.3363 5.33325C56.6297 5.33325 64.147 16.3306 53.6297 35.7279C50.0777 42.2746 54.795 43.8186 62.275 45.5466C68.8963 47.0773 69.3337 50.3119 69.3337 55.9173V58.6666H21.3337C21.3337 51.3466 20.747 47.3119 28.3843 45.5466ZM-5.33301 58.6666H15.491C15.3977 36.8613 24.6537 44.4986 24.6537 28.9946C24.6537 22.2986 20.283 18.6666 14.659 18.6666C6.35233 18.6666 0.573659 26.6106 8.43766 41.4639C11.0217 46.3439 5.68833 47.5039 -0.0450077 48.8266C-5.01034 49.9733 -5.33301 52.3999 -5.33301 56.6053V58.6666Z" fill="#1538E5"/>
</g>
<defs>
<clipPath id="clip0">
<rect width="64" height="64" fill="white"/>
</clipPath>
</defs>
</svg>
