<svg width="48" height="48" viewBox="0 0 48 48" fill="none" xmlns="http://www.w3.org/2000/svg">
<path fill-rule="evenodd" clip-rule="evenodd" d="M4.356 22H2V18C2.976 17.998 3.568 17.444 3.724 16.67C4.998 11.748 10.052 0 23.724 0C37.5 0 42.692 12.27 44.312 16.826C44.612 17.668 45.23 17.994 46 17.994L46.002 22H43.642C44.792 22.918 46 24.72 46 28.262C46 31.522 44.192 35.634 40.246 37.324C35.94 44.214 30.192 48 24 48C17.808 48 12.06 44.214 7.754 37.324C3.806 35.634 2 31.522 2 28.262C2 24.72 3.206 22.918 4.356 22ZM28.4 36.918H19.6C19.608 36.942 20.852 40.398 24 40.398C27.268 40.398 28.392 36.942 28.4 36.918ZM37.434 22H10.564L10.538 23.03C10.538 24.366 9.174 25.258 7.962 24.718C7.624 24.568 7.102 24.572 6.728 24.816C4.894 26.018 5.092 32.544 9.578 34.074C11.41 34.7 14.306 40.28 17.438 34.87C18.522 33.002 21.94 32.792 24 34.276C26.058 32.792 29.478 33.002 30.56 34.87C33.692 40.28 36.588 34.7 38.422 34.074C42.91 32.544 43.104 26.018 41.27 24.816C40.84 24.536 40.296 24.604 40.038 24.718C38.826 25.26 37.46 24.366 37.46 23.03L37.434 22ZM18.042 23.992C16.774 23.992 15.75 25.232 15.75 26.762C15.75 28.292 16.774 29.532 18.042 29.532C19.306 29.532 20.334 28.292 20.334 26.762C20.334 25.232 19.306 23.992 18.042 23.992ZM32.25 26.762C32.25 28.292 31.224 29.532 29.958 29.532C28.692 29.532 27.666 28.292 27.666 26.762C27.666 25.232 28.692 23.992 29.958 23.992C31.224 23.992 32.25 25.232 32.25 26.762ZM22 4.086C20.53 4.236 19.2 4.574 18 5.052V12C18 13.104 17.104 14 16 14C14.896 14 14 13.104 14 12V7.462C9.694 11.096 8.03 16.488 7.62 18H40.41C39.744 15.988 38.032 11.08 34 7.646V12C34 13.104 33.104 14 32 14C30.896 14 30 13.104 30 12V5.188C28.802 4.692 27.472 4.326 26 4.14V10C26 11.104 25.104 12 24 12C22.896 12 22 11.104 22 10V4.086Z" fill="#1538E5"/>
</svg>
