<svg width="1920" height="900" viewBox="0 0 1920 900" fill="none" xmlns="http://www.w3.org/2000/svg">
<path fill-rule="evenodd" clip-rule="evenodd" d="M43.695 370.264C-42.5866 209.833 -172.51 70.2337 -204.073 -109.124C-236.644 -294.211 -236.564 -501.981 -137.887 -661.595C-39.693 -820.429 179.436 -847.248 324.705 -964.449C458.727 -1072.58 523.06 -1267.25 685.09 -1325.56C847.256 -1383.93 1037.52 -1350.64 1193.71 -1277.21C1341.13 -1207.9 1389.65 -1014.63 1528.33 -929.101C1676.22 -837.888 1893.44 -891.126 2017.36 -769.229C2140.25 -648.337 2194.95 -457.677 2182.24 -285.85C2169.7 -116.269 2029.6 10.5862 1948.63 159.934C1876.54 292.888 1836.71 444.415 1728.86 550.346C1619.93 657.345 1477.29 721.069 1331.42 766.194C1185.45 811.351 1033.32 799.354 881.054 812.624C689.954 829.279 484.169 944.544 314.353 854.833C148.794 767.372 132.439 535.274 43.695 370.264Z" fill="#545FEF" fill-opacity="0.07"/>
</svg>
