<svg width="107" height="107" viewBox="0 0 107 107" fill="none" xmlns="http://www.w3.org/2000/svg">
 <title>[Ikona] Brave prohlížeč</title>
  <g filter="url(#filter0_d)">
    <circle cx="53.5" cy="33.5" r="33.5" fill="white"/>
  </g>
  <path
    d="M76.6662 24.611L75.0531 20.2298L76.1749 17.7148C76.2454 17.5562 76.2663 17.3799 76.2349 17.2092C76.2035 17.0384 76.1213 16.8811 75.9989 16.7579L72.9487 13.6747C72.2939 13.0102 71.4638 12.5455 70.5551 12.3345C69.6464 12.1236 68.6965 12.1751 67.816 12.4831L66.9617 12.7801L62.302 7.73174L54.3976 7.68774H54.3463L46.3906 7.75007L41.7345 12.8388L40.906 12.5455C40.0197 12.2338 39.063 12.1814 38.148 12.3944C37.233 12.6074 36.3978 13.077 35.7403 13.748L32.635 16.8899C32.5376 16.9881 32.4721 17.1135 32.4472 17.2496C32.4224 17.3857 32.4393 17.5262 32.4957 17.6525L33.6652 20.2628L32.0594 24.6403L33.097 28.5888L37.83 46.5826C38.3753 48.6553 39.6297 50.4715 41.3753 51.7153C41.3753 51.7153 47.1202 55.7664 52.7882 59.4473C53.2364 59.8051 53.7929 60 54.3665 60C54.94 60 55.4965 59.8051 55.9448 59.4473C62.313 55.2751 67.3504 51.7006 67.3504 51.7006C69.0945 50.4562 70.3476 48.6401 70.8919 46.5679L75.5993 28.5668L76.6662 24.611Z"
    fill="#D1D1D1"/>
  <path
    d="M55.6661 40.1154C55.3644 39.9803 55.0532 39.8676 54.7349 39.7781H54.174C53.8558 39.8676 53.5445 39.9803 53.2428 40.1154L51.8313 40.702C51.384 40.8889 50.6654 41.2226 50.2365 41.4352L47.6408 42.788C47.5468 42.8185 47.4641 42.8765 47.4033 42.9544C47.3425 43.0323 47.3065 43.1266 47.2998 43.2252C47.2931 43.3238 47.316 43.4222 47.3657 43.5076C47.4154 43.593 47.4895 43.6616 47.5785 43.7046L49.8332 45.2957C50.2292 45.5744 50.8524 46.0656 51.219 46.3956L51.8533 46.9418C52.2199 47.2571 52.8175 47.7814 53.1805 48.104L53.7817 48.6356C53.9675 48.7904 54.2017 48.8752 54.4435 48.8752C54.6853 48.8752 54.9194 48.7904 55.1052 48.6356L55.7358 48.0857L57.063 46.9272L57.7009 46.3699C58.0675 46.051 58.6871 45.5597 59.0831 45.2701L61.3378 43.6569C61.427 43.6141 61.5012 43.5453 61.5506 43.4597C61.6001 43.374 61.6225 43.2753 61.615 43.1767C61.6075 43.078 61.5703 42.9839 61.5084 42.9067C61.4465 42.8295 61.3628 42.7728 61.2681 42.744L58.6761 41.4279C58.2435 41.2079 57.5249 40.8779 57.074 40.6946L55.6661 40.1154Z"
    fill="white"/>
  <path
    d="M71.6508 25.5899L71.7242 25.3552C71.7285 25.0413 71.7089 24.7276 71.6655 24.4167C71.4472 23.8613 71.1668 23.3325 70.8296 22.8402L69.3631 20.6881C69.0918 20.2848 68.6299 19.6469 68.3183 19.2693L66.3532 16.8093C66.1739 16.5695 65.9792 16.3417 65.7702 16.1274H65.7299C65.7299 16.1274 65.334 16.197 64.8574 16.2887L61.8547 16.8679L60.5386 17.1209C60.1016 17.1414 59.6648 17.078 59.2517 16.9339L56.8797 16.1677C56.4177 16.0174 55.6552 15.8011 55.1822 15.6984C54.6838 15.6454 54.1812 15.6454 53.6827 15.6984C53.2098 15.8084 52.4472 16.0211 51.9853 16.1714L49.6133 16.9413C49.2002 17.0853 48.7634 17.1488 48.3264 17.1282L47.0102 16.8789L44.004 16.3033C43.5273 16.2117 43.1351 16.1384 43.1314 16.142H43.0911C42.8821 16.3564 42.6874 16.5842 42.5081 16.8239L40.5467 19.284C40.2461 19.6506 39.7731 20.3032 39.5018 20.7028L38.0354 22.8549C37.7821 23.226 37.5507 23.6116 37.3424 24.0097C37.2168 24.4537 37.1502 24.9122 37.1445 25.3735L37.2178 25.6082C37.2531 25.7589 37.2984 25.9071 37.3534 26.0518C37.6577 26.4184 38.1783 27.027 38.512 27.3826L43.6447 32.838C43.8151 33.0369 43.9291 33.2778 43.9748 33.5357C44.0206 33.7936 43.9965 34.059 43.905 34.3044L43.0654 36.2952C42.8745 36.8226 42.8603 37.3978 43.0251 37.934L43.1937 38.3959C43.4693 39.1462 43.9416 39.8085 44.5612 40.3134L45.3678 40.9696C45.5773 41.1207 45.8218 41.2162 46.0783 41.247C46.3348 41.2777 46.5949 41.2429 46.8343 41.1456L49.7012 39.7781C50.2275 39.5146 50.7199 39.1884 51.1677 38.8065L53.4628 36.7351C53.5542 36.6526 53.6281 36.5526 53.6802 36.4409C53.7322 36.3293 53.7613 36.2084 53.7657 36.0853C53.7702 35.9622 53.7499 35.8395 53.706 35.7244C53.6622 35.6093 53.5957 35.5042 53.5104 35.4153L48.3301 31.9251C48.1339 31.7859 47.9942 31.5809 47.9364 31.3475C47.8785 31.114 47.9063 30.8676 48.0148 30.6529L50.0239 26.8767C50.1381 26.6455 50.2057 26.3941 50.2227 26.1368C50.2396 25.8795 50.2057 25.6214 50.1229 25.3772C49.8734 24.9114 49.4706 24.5462 48.9827 24.3433L42.6841 21.964C42.2295 21.7917 42.2552 21.5974 42.7354 21.568L46.4346 21.2014C47.0147 21.1645 47.597 21.2164 48.1614 21.3554L51.3804 22.2536C51.6089 22.3225 51.8047 22.4719 51.9314 22.6742C52.0582 22.8764 52.1073 23.1178 52.0696 23.3535L50.8048 30.2606C50.7202 30.6432 50.6991 31.0371 50.7424 31.4265C50.7938 31.5914 51.2264 31.7931 51.6993 31.9104L53.6607 32.3283C54.2303 32.433 54.8143 32.433 55.3839 32.3283L57.1473 31.9287C57.6203 31.8224 58.0492 31.5988 58.1042 31.4338C58.1464 31.0442 58.1241 30.6503 58.0382 30.2679L56.766 23.3608C56.7284 23.1251 56.7775 22.8838 56.9042 22.6815C57.0309 22.4792 57.2267 22.3298 57.4553 22.2609L60.6742 21.359C61.2386 21.22 61.8209 21.1681 62.401 21.2051L66.1002 21.5497C66.5841 21.5937 66.6061 21.7733 66.1552 21.9456L59.8603 24.3323C59.3724 24.5352 58.9696 24.9004 58.7201 25.3662C58.5531 25.8594 58.5888 26.3987 58.8191 26.8657L60.8319 30.6419C60.9403 30.8566 60.9681 31.103 60.9103 31.3365C60.8524 31.5699 60.7127 31.7749 60.5166 31.9141L55.3399 35.4116C55.2546 35.5005 55.1881 35.6057 55.1443 35.7207C55.1004 35.8358 55.0801 35.9586 55.0846 36.0816C55.089 36.2047 55.1181 36.3256 55.1701 36.4373C55.2222 36.5489 55.2961 36.6489 55.3875 36.7315L57.6862 38.8029C58.1343 39.1835 58.6267 39.5084 59.1527 39.7708L62.0197 41.1346C62.2593 41.2313 62.5196 41.2656 62.7762 41.2342C63.0327 41.2028 63.277 41.1067 63.4862 40.9549L64.2928 40.295C64.913 39.7893 65.3854 39.1256 65.6603 38.3739L65.8289 37.912C65.9936 37.3758 65.9795 36.8006 65.7886 36.2732L64.9453 34.2824C64.8538 34.037 64.8297 33.7716 64.8755 33.5137C64.9212 33.2558 65.0352 33.0149 65.2056 32.816L70.3383 27.3533C70.672 26.9867 71.1889 26.4001 71.4932 26.0225C71.5552 25.8819 71.6079 25.7374 71.6508 25.5899Z"
    fill="white"/>
  <defs>
    <filter id="filter0_d" x="-3.05176e-05" y="0" width="107" height="107" filterUnits="userSpaceOnUse"
            color-interpolation-filters="sRGB">
      <feFlood flood-opacity="0" result="BackgroundImageFix"/>
      <feColorMatrix in="SourceAlpha" type="matrix" values="0 0 0 0 0 0 0 0 0 0 0 0 0 0 0 0 0 0 127 0"/>
      <feOffset dy="20"/>
      <feGaussianBlur stdDeviation="10"/>
      <feColorMatrix type="matrix" values="0 0 0 0 0.360784 0 0 0 0 0.384314 0 0 0 0 0.803922 0 0 0 0.1 0"/>
      <feBlend mode="normal" in2="BackgroundImageFix" result="effect1_dropShadow"/>
      <feBlend mode="normal" in="SourceGraphic" in2="effect1_dropShadow" result="shape"/>
    </filter>
  </defs>
</svg>
