<svg width="463" height="449" viewBox="0 0 463 449" fill="none" xmlns="http://www.w3.org/2000/svg">
  <title>Homepage Icon Background</title>
  <path fill-rule="evenodd" clip-rule="evenodd"
        d="M245.613 34.9969C304.822 37.8302 369.135 37.6304 407.81 82.6735C447.8 129.247 448.654 195.806 435.165 255.757C421.627 315.931 393.137 377.637 336.194 400.981C281.885 423.245 226.579 387.573 173.201 363.15C117.531 337.677 52.6038 318.934 31.2254 261.441C7.05378 196.436 15.1329 116.477 62.7683 66.1625C107.551 18.862 180.644 31.888 245.613 34.9969Z"
        fill="#FF8787"/>
  <path fill-rule="evenodd" clip-rule="evenodd"
        d="M230.363 9.08572C262.539 10.0567 295.383 2.50653 325.62 13.5257C356.823 24.8969 388.613 43.2704 404.322 72.4801C419.953 101.547 404.696 137.458 409.797 170.052C414.503 200.121 438.61 227.172 433.218 257.127C427.822 287.107 405.918 313.288 380.878 330.707C357.246 347.146 323.381 337.494 298.038 351.163C271.012 365.74 259.967 403.693 230.363 411.888C201.003 420.016 166.991 411.539 141.818 394.409C116.974 377.503 109.938 344.848 94.2372 319.255C80.2594 296.471 60.5898 276.983 53.9069 251.114C47.1567 224.985 50.0078 197.52 55.9902 171.205C61.9768 144.871 77.2553 122.644 88.6779 98.1647C103.014 67.4419 103.557 25.7567 132.29 7.69156C160.304 -9.92075 197.269 8.08703 230.363 9.08572Z"
        fill="#545FEF"/>
  <g clip-path="url(#clip0)">
    <path
      d="M52.9963 137.128V190.833C52.9963 192.605 54.234 193.32 55.7704 192.434L180.371 120.503C181.907 119.617 183.145 117.462 183.145 115.701V61.9848C183.145 60.2134 181.907 59.4985 180.371 60.3841L55.7704 132.326C54.2446 133.212 52.9963 135.356 52.9963 137.128Z"
      fill="#F0F0F0"/>
    <path
      d="M61.6814 136.327L99.0146 114.773C100.722 113.791 102.109 114.591 102.109 116.555V154.083C102.109 156.058 100.722 158.458 99.0146 159.44L61.6814 180.995C59.9742 181.977 58.5872 181.176 58.5872 179.213V141.684C58.5872 139.71 59.9742 137.32 61.6814 136.327Z"
      fill="#FAFAFA"/>
    <path
      d="M91.9193 133.51L80.8228 156.538L75.1679 153.273C74.0262 152.611 72.5752 153.006 71.9136 154.148L58.5979 177.218V179.234C58.5979 181.208 59.9849 182.009 61.6921 181.016L99.0146 159.451C100.722 158.469 102.109 156.068 102.109 154.094V140.905L94.5974 133.084C93.6904 132.134 92.4848 132.326 91.9193 133.51Z"
      fill="#545FEF"/>
    <path
      d="M64.1888 150.061C68.5633 147.532 72.1163 141.385 72.1163 136.327C72.1163 134.012 71.3694 132.337 70.1424 131.44L61.6707 136.327C59.9636 137.309 58.5765 139.71 58.5765 141.684V150.616C60.0276 151.448 62.0015 151.33 64.1888 150.061Z"
      fill="#FF8787"/>
    <path
      d="M116.054 108.445L172.166 76.0487C173.446 75.3124 174.481 75.8353 174.481 77.2225C174.481 78.6097 173.446 80.3277 172.166 81.064L116.054 113.46C114.774 114.196 113.739 113.674 113.739 112.286C113.739 110.899 114.774 109.181 116.054 108.445Z"
      fill="#FAFAFA"/>
    <path
      d="M116.054 119.532L172.166 87.1356C173.446 86.3993 174.481 86.9222 174.481 88.3093C174.481 89.6965 173.446 91.4145 172.166 92.1508L116.054 124.547C114.774 125.283 113.739 124.76 113.739 123.373C113.739 121.986 114.774 120.268 116.054 119.532Z"
      fill="#FAFAFA"/>
    <path
      d="M116.054 130.619L172.166 98.2224C173.446 97.4861 174.481 98.009 174.481 99.3962C174.481 100.783 173.446 102.501 172.166 103.238L116.054 135.634C114.774 136.37 113.739 135.847 113.739 134.46C113.739 133.073 114.774 131.355 116.054 130.619Z"
      fill="#FAFAFA"/>
    <path
      d="M116.054 141.705L172.166 109.309C173.446 108.573 174.481 109.096 174.481 110.483C174.481 111.87 173.446 113.588 172.166 114.324L116.054 146.721C114.774 147.457 113.739 146.934 113.739 145.547C113.739 144.16 114.774 142.452 116.054 141.705Z"
      fill="#FAFAFA"/>
    <path
      d="M26.973 306.045V227.284C26.973 225.513 28.2106 223.358 29.7471 222.483L123.982 168.073C125.518 167.187 126.756 167.902 126.756 169.673V248.434C126.756 250.205 125.518 252.35 123.982 253.236L29.7471 307.645C28.2106 308.531 26.973 307.816 26.973 306.045Z"
      fill="white"/>
    <path
      d="M26.973 302.107V306.055C26.973 307.827 28.2106 308.542 29.7471 307.656L123.982 253.246C125.518 252.361 126.756 250.205 126.756 248.444V244.496L26.973 302.107Z"
      fill="#FF8787"/>
    <path
      d="M72.5645 230.678L82.1565 230.176C83.3302 230.112 83.661 230.784 82.8821 231.67L71.8496 244.219C71.0707 245.104 70.4412 244.87 70.4412 243.685V232.929C70.4306 231.745 71.3802 230.742 72.5645 230.678Z"
      fill="#545FEF"/>
    <path
      d="M70.0891 251.101C68.8941 251.101 67.7845 250.824 66.8029 250.258C64.4342 248.893 63.1325 246.033 63.1325 242.223C63.1325 234.519 68.5634 225.108 75.2426 221.255C78.5502 219.345 81.6657 219.057 84.0451 220.423C86.4137 221.789 87.7154 224.649 87.7154 228.458C87.7154 236.162 82.2846 245.574 75.6054 249.426C73.6635 250.536 71.7856 251.101 70.0891 251.101ZM80.7375 220.295C79.169 220.295 77.4192 220.829 75.5947 221.874C69.1182 225.609 63.858 234.733 63.858 242.213C63.858 245.755 65.0317 248.38 67.1656 249.618C69.2996 250.856 72.1591 250.557 75.2319 248.786C81.7084 245.051 86.9686 235.928 86.9686 228.448C86.9686 224.905 85.7949 222.28 83.661 221.042C82.7967 220.551 81.8151 220.295 80.7375 220.295Z"
      fill="#545FEF"/>
    <path
      d="M32.1691 154.094L26.3221 150.733C23.5373 148.866 19.6642 148.951 15.375 151.416C6.88194 156.335 0 168.788 0 179.245V181.625C0 192.082 14.052 203.446 14.052 203.446L19.8029 206.701C19.8029 206.701 16.3459 202.763 16.7407 201.952C20.5071 194.227 30.7607 172.405 30.75 163.868V161.478C30.75 159.568 30.5153 157.861 30.0885 156.378L30.75 156.762L32.1691 154.094ZM15.375 178.071C11.1285 180.525 7.68217 178.541 7.68217 173.632C9.96548 173.269 15.7164 163.463 15.375 160.315C19.6215 157.861 23.0678 159.856 23.0678 164.754C23.0678 169.652 19.6322 175.617 15.375 178.071Z"
      fill="#545FEF"/>
    <path
      d="M32.1691 154.105C32.1051 154.062 32.0304 154.019 31.9664 153.987C29.2243 152.451 25.5539 152.654 21.5314 154.98C15.4497 158.501 10.1896 165.885 7.69286 173.632C7.69286 173.643 7.68219 173.654 7.68219 173.654C6.70057 176.727 6.14575 179.832 6.14575 182.788V185.167C6.14575 193.224 15.2683 202.571 19.4615 206.434C19.5575 206.519 19.6536 206.594 19.7496 206.658C19.7603 206.669 19.7709 206.679 19.7816 206.679C20.7952 207.298 22.1716 206.946 22.7264 205.815C26.3541 198.399 36.9064 176.065 36.9064 167.4V165.01C36.9064 159.654 35.0926 155.855 32.1691 154.105ZM13.9773 178.733C13.8813 178.253 13.8386 177.74 13.8386 177.186C13.8386 172.277 17.2849 166.312 21.5314 163.858C22.0116 163.58 22.481 163.367 22.9292 163.196C26.5142 161.894 29.2243 163.954 29.2243 168.307C29.2243 173.205 25.778 179.181 21.5314 181.625C17.765 183.801 14.6281 182.478 13.9773 178.733Z"
      fill="#545FEF"/>
    <path
      d="M29.2242 168.308C29.2242 173.205 25.7779 179.181 21.5314 181.625C17.765 183.812 14.6281 182.489 13.9773 178.733C14.4254 178.573 14.8949 178.349 15.375 178.082C19.6322 175.628 23.0678 169.663 23.0678 164.754C23.0678 164.199 23.0252 163.676 22.9291 163.207C26.5141 161.894 29.2242 163.954 29.2242 168.308Z"
      fill="#CBCFFF"/>
    <path
      d="M333.63 108.925C333.502 108.925 333.385 108.893 333.267 108.829L330.269 107.1C329.917 106.898 329.8 106.46 330.003 106.108C330.205 105.756 330.653 105.639 330.995 105.841L333.993 107.57C334.345 107.773 334.462 108.21 334.26 108.562C334.121 108.797 333.886 108.925 333.63 108.925Z"
      fill="white"/>
    <path
      d="M139.805 172.192V330.961C139.805 332.732 141.042 333.447 142.579 332.561L327.73 225.652C329.256 224.766 330.504 222.621 330.504 220.85V62.0808C330.504 60.3094 329.266 59.5945 327.73 60.4802L142.579 167.39C141.053 168.275 139.805 170.42 139.805 172.192Z"
      fill="white"/>
    <path
      d="M161.475 201.525C161.475 207.053 165.615 209.144 170.715 206.199L317.498 121.442V101.424L170.715 186.181C165.615 189.126 161.475 195.998 161.475 201.525Z"
      fill="#E1E1E1"/>
    <path
      d="M329.938 94.2422C335.039 91.2971 339.178 93.3886 339.178 98.916C339.178 104.443 335.039 111.315 329.938 114.26L317.508 121.442V101.424L329.938 94.2422Z"
      fill="#FF8787"/>
    <path
      d="M325.511 111.123C324.966 111.123 324.454 110.995 323.995 110.728C322.918 110.11 322.331 108.861 322.331 107.228C322.331 104.123 324.444 100.463 327.132 98.9053C328.551 98.0837 329.928 97.977 330.995 98.5959C332.062 99.2148 332.659 100.463 332.659 102.096C332.659 105.212 330.547 108.861 327.858 110.419C327.036 110.878 326.247 111.123 325.511 111.123ZM329.469 99.6416C328.989 99.6416 328.445 99.8123 327.847 100.154C325.639 101.434 323.771 104.668 323.771 107.218C323.771 108.317 324.102 109.117 324.71 109.469C325.318 109.821 326.172 109.704 327.122 109.16C329.33 107.879 331.197 104.646 331.197 102.096C331.197 100.997 330.867 100.196 330.259 99.8444C330.034 99.7056 329.768 99.6416 329.469 99.6416Z"
      fill="white"/>
    <path
      d="M332.072 138.056L190.262 219.943C188.725 220.829 187.488 222.973 187.488 224.745V268.388C187.488 270.159 188.725 270.874 190.262 269.988L332.072 188.102C333.598 187.216 334.847 185.071 334.847 183.3V139.657C334.847 137.885 333.598 137.17 332.072 138.056Z"
      fill="#545FEF"/>
    <path opacity="0.2"
          d="M332.072 138.056L190.262 219.943C188.725 220.829 187.488 222.973 187.488 224.745V268.388C187.488 270.159 188.725 270.874 190.262 269.988L332.072 188.102C333.598 187.216 334.847 185.071 334.847 183.3V139.657C334.847 137.885 333.598 137.17 332.072 138.056Z"
          fill="white"/>
    <path
      d="M241.807 197.438L267.521 182.585C268.801 181.849 269.836 182.371 269.836 183.759C269.836 185.146 268.801 186.853 267.521 187.6L241.807 202.454C240.527 203.19 239.492 202.667 239.492 201.28C239.492 199.893 240.527 198.175 241.807 197.438Z"
      fill="white"/>
    <path
      d="M239.492 211.278C239.492 212.666 240.527 213.188 241.807 212.452L319.536 167.571C320.816 166.835 321.851 165.117 321.851 163.73C321.851 162.343 320.816 161.82 319.536 162.556L241.807 207.437C240.527 208.184 239.492 209.902 239.492 211.278Z"
      fill="white"/>
    <path
      d="M239.492 221.298C239.492 222.675 240.527 223.208 241.807 222.472L319.536 177.591C320.816 176.855 321.851 175.137 321.851 173.75C321.851 172.362 320.816 171.839 319.536 172.576L241.807 217.457C240.527 218.193 239.492 219.911 239.492 221.298Z"
      fill="white"/>
    <path
      d="M239.492 231.297C239.492 232.673 240.527 233.207 241.807 232.46L319.536 187.579C320.816 186.843 321.851 185.125 321.851 183.737C321.851 182.361 320.816 181.827 319.536 182.574L241.807 227.455C240.527 228.202 239.492 229.92 239.492 231.297Z"
      fill="white"/>
    <path
      d="M194.594 222.44L228.054 203.115C229.59 202.23 230.828 202.945 230.828 204.716V238.35C230.828 240.121 229.59 242.266 228.054 243.152L194.594 262.476C193.068 263.362 191.819 262.647 191.819 260.876V227.242C191.819 225.481 193.057 223.326 194.594 222.44Z"
      fill="white"/>
    <path
      d="M221.684 219.911L211.74 240.548L206.672 237.624C205.647 237.037 204.346 237.39 203.759 238.403L191.819 259.072V260.876C191.819 262.647 193.057 263.362 194.594 262.476L228.054 243.152C229.579 242.266 230.828 240.121 230.828 238.35V226.537L224.095 219.527C223.274 218.684 222.196 218.855 221.684 219.911Z"
      fill="#545FEF"/>
    <path
      d="M196.845 234.754C200.771 232.492 203.951 226.975 203.951 222.451C203.951 220.38 203.279 218.876 202.18 218.065L194.594 222.451C193.057 223.336 191.819 225.481 191.819 227.252V235.255C193.1 235.992 194.882 235.885 196.845 234.754Z"
      fill="#FF8787"/>
    <path
      d="M332.072 203.126L190.262 285.013C188.725 285.899 187.488 288.043 187.488 289.815V333.458C187.488 335.229 188.725 335.944 190.262 335.058L332.072 253.172C333.598 252.286 334.847 250.141 334.847 248.37V204.727C334.847 202.955 333.598 202.24 332.072 203.126Z"
      fill="#545FEF"/>
    <path opacity="0.2"
          d="M332.072 203.126L190.262 285.013C188.725 285.899 187.488 288.043 187.488 289.815V333.458C187.488 335.229 188.725 335.944 190.262 335.058L332.072 253.172C333.598 252.286 334.847 250.141 334.847 248.37V204.727C334.847 202.955 333.598 202.24 332.072 203.126Z"
          fill="white"/>
    <path
      d="M241.807 262.498L267.521 247.644C268.801 246.908 269.836 247.431 269.836 248.807C269.836 250.194 268.801 251.912 267.521 252.649L241.807 267.502C240.527 268.239 239.492 267.716 239.492 266.339C239.492 264.952 240.527 263.234 241.807 262.498Z"
      fill="white"/>
    <path
      d="M239.492 276.348C239.492 277.725 240.527 278.258 241.807 277.511L319.536 232.63C320.816 231.894 321.851 230.176 321.851 228.789C321.851 227.412 320.816 226.879 319.536 227.615L241.807 272.496C240.527 273.254 239.492 274.961 239.492 276.348Z"
      fill="white"/>
    <path
      d="M239.492 286.357C239.492 287.734 240.527 288.267 241.807 287.52L319.536 242.64C320.816 241.903 321.851 240.185 321.851 238.798C321.851 237.411 320.816 236.888 319.536 237.624L241.807 282.505C240.527 283.263 239.492 284.981 239.492 286.357Z"
      fill="white"/>
    <path
      d="M239.492 296.366C239.492 297.743 240.527 298.276 241.807 297.53L319.536 252.649C320.816 251.912 321.851 250.194 321.851 248.807C321.851 247.431 320.816 246.897 319.536 247.644L241.807 292.525C240.527 293.261 239.492 294.979 239.492 296.366Z"
      fill="white"/>
    <path
      d="M194.594 287.51L228.054 268.185C229.59 267.299 230.828 268.014 230.828 269.786V303.42C230.828 305.191 229.59 307.336 228.054 308.222L194.594 327.546C193.068 328.432 191.819 327.717 191.819 325.946V292.312C191.819 290.54 193.057 288.395 194.594 287.51Z"
      fill="white"/>
    <path
      d="M221.684 284.981L211.74 305.618L206.672 302.694C205.647 302.107 204.346 302.459 203.759 303.473L191.819 324.142V325.946C191.819 327.717 193.057 328.432 194.594 327.546L228.054 308.222C229.579 307.336 230.828 305.191 230.828 303.42V291.607L224.095 284.597C223.274 283.743 222.196 283.914 221.684 284.981Z"
      fill="#545FEF"/>
    <path
      d="M196.845 299.813C200.771 297.551 203.951 292.034 203.951 287.51C203.951 285.44 203.279 283.935 202.18 283.124L194.594 287.51C193.057 288.395 191.819 290.54 191.819 292.312V300.315C193.1 301.062 194.882 300.955 196.845 299.813Z"
      fill="#FF8787"/>
    <path
      d="M330.504 68.8887V62.0808C330.504 60.3094 329.266 59.5945 327.73 60.4802L142.579 167.39C141.042 168.275 139.805 170.42 139.805 172.192V179L330.504 68.8887Z"
      fill="#FF8787"/>
    <path
      d="M307.799 74.6082C306.668 75.2591 305.74 76.8597 305.74 78.1722C305.74 79.4847 306.657 80.0182 307.799 79.3566C308.93 78.7057 309.858 77.1051 309.858 75.7926C309.858 74.4801 308.941 73.9466 307.799 74.6082Z"
      fill="#F5F5F5"/>
    <path
      d="M315.961 69.8917C314.83 70.5426 313.902 72.1432 313.902 73.4557C313.902 74.7682 314.82 75.3018 315.961 74.6402C317.092 73.9893 318.02 72.3887 318.02 71.0762C318.02 69.7637 317.092 69.2408 315.961 69.8917Z"
      fill="#F5F5F5"/>
    <path
      d="M324.113 65.186C322.982 65.8369 322.054 67.4375 322.054 68.75C322.054 70.0625 322.971 70.596 324.113 69.9344C325.244 69.2835 326.172 67.6829 326.172 66.3704C326.172 65.0579 325.254 64.5244 324.113 65.186Z"
      fill="#F5F5F5"/>
    <path
      d="M333.47 399.904C333.769 400.299 333.822 401.217 334.121 402.454C334.42 403.692 334.526 404.653 334.324 405.261C334.121 405.869 332.787 407.235 331.155 407.736C329.522 408.238 327.516 407.822 325.575 406.659C323.633 405.496 322.16 404.087 319.397 403.297C316.623 402.508 315.246 401.868 313.934 400.811C312.397 399.573 310.349 396.169 313.283 395.38C316.249 394.579 322.608 397.375 328.423 397.631L333.47 399.904Z"
      fill="#263238"/>
    <path
      d="M333.203 396.073C333.203 396.073 333.545 400.15 333.545 400.64C333.545 402.017 328.466 403.863 327.516 400.64L326.705 396.308L333.203 396.073Z"
      fill="#F28F8F"/>
    <path
      d="M326.962 306.632C328.722 309.374 330.44 311.935 331.752 314.613C331.752 314.613 332.254 320.546 332.254 324.494C332.254 331.75 331.123 337.353 330.098 351.651C330.098 351.651 332.478 355.194 332.851 360.892C333.278 367.369 333.289 367.327 333.331 397.173C333.331 397.173 330.653 398.858 326.972 397.791L317.338 355.952L316.292 339.529L313.283 319.116L326.962 306.632Z"
      fill="#37474F"/>
    <path
      d="M304.225 407.384C304.566 407.736 304.449 408.409 304.609 409.625C304.769 410.884 304.875 411.738 304.747 412.368C304.619 412.997 303.467 414.512 301.909 415.217C300.351 415.921 298.303 415.75 296.233 414.843C294.163 413.936 292.531 412.709 289.682 412.272C286.833 411.834 285.382 411.375 283.952 410.489C282.277 409.454 279.812 406.328 282.629 405.186C285.467 404.034 292.499 406.115 298.292 405.645L304.225 407.384Z"
      fill="#263238"/>
    <path
      d="M305.569 402.262C305.569 402.262 304.481 406.915 304.214 407.95C303.574 410.436 298.057 410.564 298.057 407.694L298.431 401.078L305.569 402.262Z"
      fill="#F28F8F"/>
    <path
      d="M314.499 307.859C317.263 313.28 319.93 318.081 320.026 323.876C320.218 336.104 315.15 349.592 313.283 358.438C313.283 358.438 314.222 363.421 313.753 368.138C313.379 371.83 304.939 405.464 304.939 405.464C304.939 405.464 300.245 406.435 298.25 404.322L300.629 339.54L301.269 320.717L314.499 307.859Z"
      fill="#37474F"/>
    <path d="M310.701 274.726L312.451 284.362L321.147 283.722L319.322 272.806L310.701 274.726Z" fill="#FFA8A7"/>
    <path
      d="M330.333 283.017C329.469 280.403 326.151 277.554 322.822 278.162C316.719 279.293 311.875 280.51 308.268 281.801C305.227 282.889 302.453 285.514 302.197 295.523L301.248 320.706C301.248 320.706 302.827 322.307 305.846 323.139C310.477 324.409 313.518 325.167 320.549 323.63C329.693 321.635 331.87 316.097 331.87 316.097C331.87 316.097 331.518 302.769 331.24 295.523C331.005 289.377 330.931 284.821 330.333 283.017Z"
      fill="#455A64"/>
    <path
      d="M306.999 262.423L262.666 250.397C258.654 249.714 256.979 259.499 260.991 260.182L306.561 264.792L306.999 262.423Z"
      fill="#263238"/>
    <path
      d="M294.248 282.74L285.19 283.017C285.19 283.017 286.555 269.54 287.398 267.769C288.241 266.008 290.258 265.635 292.264 265.059C294.259 264.482 294.27 263.533 294.27 263.533L292.466 263.351C290.887 263.191 290.258 261.217 290.941 259.883C291.261 259.264 291.794 258.283 292.755 258.55C293.715 258.806 295.145 259.2 295.145 259.2C295.145 259.2 295.177 257.077 294.387 256.202C293.587 255.316 293.053 255.583 291.453 255.039C290.269 254.623 287.847 253.886 285.894 254.687C283.941 255.487 282.458 259.147 281.957 261.74C281.466 264.333 281.242 265.688 279.503 270.501C277.764 275.313 275.203 285.162 274.958 289.121C274.851 290.946 275.011 292.023 277.049 292.514C279.076 292.995 293.982 293.027 293.982 293.027L294.248 282.74Z"
      fill="#FFA8A7"/>
    <path
      d="M304.267 263.319C304.267 263.319 302.165 266.435 302.432 266.777C302.699 267.107 304.011 267.481 304.011 267.481L304.267 263.319Z"
      fill="#FFA8A7"/>
    <path
      d="M310.701 253.438C308.674 254.463 305.163 256.351 304.203 263.778C303.211 271.397 304.513 273.862 305.547 274.865C306.241 275.548 310.029 275.591 311.917 275.014C314.286 274.3 319.642 272.272 322.075 268.356C324.945 263.746 325.585 257.579 322.352 255.124C317.796 251.678 312.419 252.574 310.701 253.438Z"
      fill="#FFA8A7"/>
    <path
      d="M316.655 345.43L321.275 332.369C321.275 332.369 326.876 330.566 330.611 326.138C330.611 326.138 329.576 329.862 322.246 333.682L317.177 346.039L317.135 352.91L316.655 345.43Z"
      fill="#263238"/>
    <path
      d="M303.776 255.989C304.449 257.813 305.569 262.295 310.232 264.162C310.232 264.162 310.893 261.313 313.294 261.612C315.705 261.921 316.1 264.973 314.627 266.873C313.155 268.772 311.725 268.089 311.725 268.089C311.725 268.089 311.405 272.176 314.137 274.033C314.137 274.033 317.434 276.124 320.923 274.513C322.491 273.787 324.71 270.031 326.023 266.937C328.786 260.406 329.181 255.167 325.009 253.513C324.497 250.547 323.163 249.426 320.474 248.871C314.691 247.676 310.317 251.486 305.462 250.813C302.923 250.472 303.019 253.897 303.776 255.989Z"
      fill="#263238"/>
    <path
      d="M325.105 254.516L327.837 252.819C327.367 252.062 326.375 251.838 325.628 252.297C324.87 252.777 324.636 253.758 325.105 254.516Z"
      fill="#263238"/>
    <path
      d="M292.21 282.559C292.21 282.559 304.961 281.833 308.268 281.812C311.587 281.79 314.98 287.339 312.952 291.127C311.608 293.624 307.425 294.478 302.144 294.734C296.905 294.99 291.528 294.99 291.528 294.99C291.528 294.99 286.737 289.569 292.21 282.559Z"
      fill="#455A64"/>
    <path
      d="M302.24 294.723C302.24 294.723 310.317 294.616 312.963 291.127C312.963 291.127 312.344 293.219 309.218 294.574C306.134 295.908 302.197 296.089 302.197 296.089L302.24 294.723Z"
      fill="#37474F"/>
    <path
      d="M262.666 250.397C258.654 249.714 256.979 259.499 260.991 260.182L267.35 260.822C264.747 260.556 266.55 251.454 268.545 251.987L262.666 250.397Z"
      fill="#455A64"/>
    <path
      d="M424.12 247.783C424.12 253.236 419.692 257.664 414.24 257.664C411.38 257.664 408.798 256.447 406.995 254.505L406.344 253.716C406.333 253.705 406.323 253.705 406.323 253.694C405.096 252.04 404.359 249.992 404.359 247.783C404.359 242.33 408.787 237.902 414.24 237.902C417.088 237.902 419.67 239.118 421.474 241.05L422.146 241.861C422.156 241.861 422.156 241.871 422.156 241.871C423.383 243.525 424.12 245.574 424.12 247.783Z"
      fill="#455A64"/>
    <path
      d="M424.12 247.783C424.12 253.236 419.692 257.664 414.24 257.664C411.38 257.664 408.798 256.447 406.995 254.505L406.344 253.716C406.333 253.705 406.323 253.705 406.323 253.694L365.18 204.022L382.519 194.013L421.474 241.05L422.146 241.861C422.156 241.861 422.157 241.871 422.157 241.871C423.384 243.525 424.12 245.574 424.12 247.783Z"
      fill="#455A64"/>
    <path
      d="M390.073 234.071C391.876 236.013 394.458 237.229 397.317 237.229C402.77 237.229 407.198 232.801 407.198 227.348C407.198 225.14 406.461 223.091 405.234 221.437C405.234 221.437 405.234 221.426 405.224 221.426L400.134 215.291C400.145 215.291 400.145 215.301 400.145 215.301C401.372 216.955 402.108 219.004 402.108 221.213C402.108 226.666 397.68 231.094 392.228 231.094C389.368 231.094 386.786 229.877 384.983 227.935L390.073 234.071Z"
      fill="#FF8787"/>
    <path
      d="M381.878 115.893C385.101 116.277 388.056 117.238 390.702 118.763L378.187 111.486C369.79 105.713 357.701 106.055 344.268 113.802C318.895 128.452 298.324 164.093 298.324 193.384C298.314 207.778 303.232 218.065 311.309 222.952L311.48 223.048L324.838 230.752C322.523 229.258 320.474 227.316 318.746 224.958C321.819 225.321 325.105 225.14 328.583 224.393C329.757 224.137 330.941 223.827 332.147 223.443C331.987 223.39 331.838 223.326 331.699 223.262C331.059 222.963 330.44 222.621 329.864 222.216C328.85 221.512 327.922 220.637 327.09 219.591C326.055 218.3 325.19 216.795 324.486 215.066C323.579 215.195 322.704 215.248 321.861 215.248C319.589 215.248 317.594 214.853 315.822 214.042C315.374 213.839 314.948 213.605 314.531 213.348C314.147 213.103 313.785 212.836 313.411 212.559C312.675 209.24 312.291 205.57 312.291 201.568C312.291 172.266 332.862 136.637 358.245 121.986C361.766 119.948 365.202 118.433 368.499 117.387C369.459 117.782 370.366 118.305 371.187 118.945C372.03 119.596 372.809 120.353 373.524 121.25C374.559 122.541 375.423 124.067 376.138 125.785C377.045 125.657 377.92 125.603 378.763 125.603C381.42 125.603 383.714 126.158 385.677 127.289C386.21 127.567 386.722 127.908 387.203 128.292C387.021 127.428 386.808 126.596 386.562 125.785C385.495 121.954 383.895 118.646 381.878 115.893Z"
      fill="#263238"/>
    <path
      d="M390.702 118.763C390.457 118.625 390.222 118.497 389.977 118.369C387.512 117.067 384.813 116.245 381.878 115.893C379.04 115.552 375.978 115.68 372.777 116.299C371.379 116.565 369.96 116.939 368.509 117.387C365.212 118.433 361.777 119.948 358.256 121.986C332.873 136.637 312.301 172.266 312.301 201.568C312.301 205.57 312.686 209.23 313.422 212.559C313.56 213.21 313.721 213.829 313.891 214.458C314.98 218.556 316.633 222.077 318.757 224.969C319.792 226.399 320.944 227.658 322.224 228.768C323.056 229.504 323.931 230.165 324.849 230.763C333.214 236.162 345.079 235.693 358.245 228.106C383.628 213.455 404.199 177.826 404.199 148.524C404.189 133.841 399.025 123.544 390.702 118.763ZM385.677 127.3C386.21 127.577 386.722 127.919 387.203 128.303C387.992 128.922 388.718 129.658 389.39 130.491C392.591 134.503 394.277 140.745 394.277 148.524C394.277 174.176 375.498 206.701 353.273 219.537C347.671 222.771 342.283 224.489 337.706 224.489C335.625 224.489 333.79 224.147 332.136 223.454C331.976 223.4 331.827 223.336 331.688 223.272C331.048 222.973 330.429 222.632 329.853 222.226C329.149 221.736 328.477 221.149 327.869 220.498H327.858C327.591 220.21 327.335 219.9 327.079 219.591C326.044 218.3 325.18 216.795 324.476 215.066C322.96 211.417 322.182 206.85 322.182 201.579C322.182 201.237 322.182 200.896 322.214 200.544C322.683 175.051 341.259 143.221 363.185 130.565C363.697 130.266 364.199 129.989 364.711 129.712C368.723 127.577 372.596 126.244 376.117 125.795C377.024 125.667 377.899 125.614 378.742 125.614C380.801 125.614 382.647 125.956 384.279 126.628C384.791 126.809 385.239 127.044 385.677 127.3Z"
      fill="#455A64"/>
    <path
      d="M394.287 148.524C394.287 174.176 375.509 206.701 353.284 219.537C351.886 220.348 350.499 221.063 349.123 221.672C349.123 221.672 349.112 221.682 349.091 221.682C345.015 223.518 341.131 224.478 337.706 224.478C335.625 224.478 333.79 224.137 332.136 223.443C331.976 223.39 331.827 223.326 331.688 223.262C331.048 222.963 330.429 222.621 329.853 222.216C328.84 221.512 327.911 220.637 327.079 219.591C326.802 219.228 326.514 218.855 326.257 218.449C326.748 218.492 327.271 218.524 327.815 218.524C332.393 218.524 337.781 216.816 343.382 213.573C365.607 200.736 384.386 168.211 384.386 142.559C384.386 135.506 382.988 129.722 380.331 125.699C382.337 125.86 384.108 126.393 385.677 127.3C386.21 127.577 386.723 127.919 387.203 128.303C387.992 128.922 388.718 129.658 389.39 130.491C392.207 134.023 393.861 139.273 394.202 145.771C394.266 146.667 394.287 147.585 394.287 148.524Z"
      fill="#37474F"/>
    <path opacity="0.6"
          d="M390.009 145.568C390.009 171.221 371.23 203.745 349.005 216.582C343.404 219.815 338.015 221.533 333.438 221.533C331.358 221.533 329.533 221.191 327.879 220.498H327.869C327.602 220.21 327.346 219.9 327.09 219.591C326.055 218.3 325.19 216.795 324.486 215.066C322.971 211.417 322.192 206.85 322.192 201.579C322.192 201.237 322.192 200.896 322.224 200.544C322.694 175.051 341.27 143.221 363.196 130.565C363.708 130.266 364.209 129.989 364.722 129.712C368.733 127.577 372.606 126.244 376.127 125.795C377.034 125.667 377.909 125.614 378.752 125.614C380.811 125.614 382.657 125.956 384.29 126.628C384.578 126.916 384.845 127.225 385.101 127.535C388.312 131.547 390.009 137.789 390.009 145.568Z"
          fill="white"/>
  </g>
  <defs>
    <clipPath id="clip0">
      <rect width="463" height="389" fill="white" transform="translate(0 60)"/>
    </clipPath>
  </defs>
</svg>
