<svg width="261" height="70" viewBox="0 0 261 70" fill="none" xmlns="http://www.w3.org/2000/svg">
  <title>[logo] TopMonks - purple color</title>
  <rect width="240.611" height="29.7742" transform="translate(10 20.2258)" fill="white"/>
  <path fill-rule="evenodd" clip-rule="evenodd"
        d="M67.3963 28.2247C66.2207 29.3502 65.0048 31.3199 65.0048 34.2942C65.0048 36.7463 65.8154 38.7157 67.4775 40.3232C69.2204 41.9712 71.1662 42.5345 73.2748 42.5345C76.0312 42.5345 77.977 41.5292 79.2742 40.243C80.3281 39.2385 81.6256 37.349 81.6256 34.2534C81.6256 31.4806 80.4902 29.4304 79.2742 28.2247C77.9366 26.9385 75.7879 25.9337 73.3149 25.9337C70.9637 25.9337 68.8559 26.7779 67.3963 28.2247ZM83.8147 24.1249C86.3686 26.5767 88.0307 30.1139 88.0307 34.2534C88.0307 37.8313 86.7332 41.4891 83.8147 44.3027C81.3012 46.7144 77.8958 48.2417 73.3556 48.2417C68.2882 48.2417 64.8424 46.232 62.8154 44.3027C60.221 41.891 58.5993 38.2737 58.5993 34.3346C58.5993 30.4757 60.3426 26.5767 62.7749 24.165C64.5994 22.3563 67.9637 20.226 73.3556 20.226C77.5717 20.226 81.0983 21.5125 83.8147 24.1249Z"
        fill="#545FEF"/>
  <path fill-rule="evenodd" clip-rule="evenodd"
        d="M97.3864 33.1689H99.6158C100.467 33.1689 101.967 33.1284 102.98 32.164C103.548 31.601 103.994 30.6767 103.994 29.5111C103.994 28.3856 103.589 27.4612 102.98 26.8983C102.048 26.014 100.711 25.8934 99.4942 25.8934H97.3864V33.1689ZM100.67 20.8288C103.021 20.8288 105.616 21.1505 107.764 23.0397C110.075 25.0491 110.399 27.7024 110.399 29.5515C110.399 32.9276 109.102 34.8168 108.089 35.8618C105.94 38.0323 103.102 38.2334 101.197 38.2334H97.3863V47.6389H91.1433V20.8288H100.67Z"
        fill="#545FEF"/>
  <path fill-rule="evenodd" clip-rule="evenodd"
        d="M110.411 47.639L114.748 20.8289H119.937L126.667 36.8664L133.396 20.8289H138.585L142.923 47.639H136.68L134.531 31.6415L127.761 47.639H125.572L118.802 31.6415L116.654 47.639H110.411Z"
        fill="#545FEF"/>
  <path fill-rule="evenodd" clip-rule="evenodd"
        d="M153.012 28.2247C151.836 29.3502 150.62 31.3199 150.62 34.2942C150.62 36.7463 151.431 38.7157 153.093 40.3232C154.836 41.9712 156.782 42.5345 158.89 42.5345C161.647 42.5345 163.592 41.5292 164.89 40.243C165.943 39.2385 167.241 37.349 167.241 34.2534C167.241 31.4806 166.106 29.4304 164.89 28.2247C163.552 26.9385 161.403 25.9337 158.93 25.9337C156.579 25.9337 154.471 26.7779 153.012 28.2247ZM169.43 24.1249C171.984 26.5767 173.646 30.1139 173.646 34.2534C173.646 37.8313 172.349 41.4891 169.43 44.3027C166.917 46.7144 163.511 48.2417 158.971 48.2417C153.904 48.2417 150.458 46.232 148.431 44.3027C145.836 41.891 144.215 38.2737 144.215 34.3346C144.215 30.4757 145.958 26.5767 148.39 24.165C150.215 22.3563 153.579 20.226 158.971 20.226C163.187 20.226 166.714 21.5125 169.43 24.1249Z"
        fill="#545FEF"/>
  <path fill-rule="evenodd" clip-rule="evenodd"
        d="M176.759 47.639V20.8289H182.19L196.866 38.1125V20.8289H203.109V47.639H197.677L183.002 30.2745V47.639H176.759Z"
        fill="#545FEF"/>
  <path fill-rule="evenodd" clip-rule="evenodd"
        d="M213.92 32.0031L223.162 20.829H230.784L219.838 33.5305L231.635 47.6392H223.608L213.92 35.7414V47.6392H207.677V20.829H213.92V32.0031Z"
        fill="#545FEF"/>
  <path fill-rule="evenodd" clip-rule="evenodd"
        d="M246.76 27.3807C244.733 25.572 242.99 25.4514 242.219 25.4514C241.368 25.4514 240.314 25.572 239.585 26.3758C239.179 26.7777 238.895 27.3807 238.895 28.0639C238.895 28.707 239.098 29.1894 239.503 29.5512C240.152 30.1542 241.084 30.3954 242.909 31.0786L244.935 31.8423C246.111 32.2842 247.571 32.8872 248.625 33.8921C250.206 35.3794 250.611 37.3087 250.611 38.8765C250.611 41.65 249.638 44.0617 248.219 45.5086C245.827 48.0008 242.341 48.242 240.558 48.242C238.612 48.242 236.909 47.9607 235.206 47.1161C233.828 46.4329 232.247 45.1868 231.234 44.1823L234.476 39.7608C235.166 40.444 236.26 41.3684 236.99 41.8107C238.044 42.4538 239.139 42.7752 240.395 42.7752C241.206 42.7752 242.341 42.6145 243.233 41.8508C243.76 41.4088 244.206 40.6852 244.206 39.6803C244.206 38.796 243.841 38.2331 243.273 37.7507C242.544 37.148 240.882 36.545 240.111 36.2637L237.881 35.5C236.625 35.0577 235.166 34.4951 234.111 33.3696C232.693 31.8823 232.491 29.9935 232.491 28.707C232.491 26.3357 233.22 24.3259 234.842 22.6779C236.747 20.7487 239.017 20.2258 241.53 20.2258C243.395 20.2258 246.395 20.5476 249.557 22.8791L246.76 27.3807Z"
        fill="#545FEF"/>
  <path fill-rule="evenodd" clip-rule="evenodd"
        d="M40.7791 21.3363V26.5805H46.5984V48.242H52.7793V26.5805H58.5992V21.3363H40.7791Z" fill="#545FEF"/>
  <path fill-rule="evenodd" clip-rule="evenodd"
        d="M27.0521 48.5884C24.369 48.5884 23.7319 47.551 21.8787 47.551H21.8312C19.9543 47.551 19.3365 48.5884 16.6534 48.5884C11.9353 48.563 10.0025 43.7094 12.3278 41.6418C13.5158 40.7184 15.0125 41.2765 15.9152 42.6387C16.8182 44.0008 18.1724 46.2268 21.071 46.096C20.3146 45.7892 19.7281 45.4902 19.2609 45.1911C21.9822 44.2349 23.9074 43.0616 25.2612 41.9379C25.443 42.3963 25.7214 42.8403 25.9919 43.2006C25.4583 43.9508 24.8406 44.2896 23.1933 45.0436C25.4742 44.859 26.2978 44.1202 27.6443 42.6426C28.7498 41.4298 30.1877 40.7184 31.3756 41.6418C33.7009 43.7094 31.7704 48.563 27.0521 48.5884ZM15.163 36.0552C16.178 35.1394 17.3467 34.8682 17.5359 34.8293C18.3855 36.0244 19.7404 37.2098 21.8312 37.213C23.9695 37.2098 25.2962 36.0244 26.1459 34.8293C26.247 34.8501 26.6322 34.9375 27.1236 35.154C25.3209 40.2114 20.0952 41.8439 18.2777 42.2836C18.5675 41.6522 18.7413 40.9707 18.5524 40.4725C18.3643 39.9759 17.9031 39.5583 17.3928 39.285C17.3857 39.0075 17.3893 38.1764 17.6497 37.5943C17.1081 38.1731 16.845 38.7062 16.7401 39.0221C16.4845 38.9522 16.2399 38.9249 16.034 38.9488C15.442 39.0179 14.6199 39.6373 14.2425 39.9456C14.1482 39.919 14.0522 39.8965 13.9546 39.8784C14.106 38.3526 14.4992 36.931 15.163 36.0552ZM16.562 31.699C15.6961 31.3923 15.245 30.1158 16.3615 29.2232C16.7167 29.4497 17.0209 29.8629 17.0209 29.8629C16.3795 26.5729 18.2672 23.1653 21.8507 23.1624C25.434 23.1653 27.3218 26.5729 26.6803 29.8629C26.6803 29.8629 26.9845 29.4497 27.3396 29.2232C28.4561 30.1158 28.0051 31.3923 27.1393 31.699C26.9072 31.5067 26.7811 31.3901 26.5963 31.1519C26.3392 33.1314 24.9256 36.0799 21.8507 36.0827C18.7754 36.0799 17.3619 33.1314 17.1049 31.1519C16.9201 31.3901 16.7941 31.5067 16.562 31.699ZM17.0953 42.6334C16.8881 42.252 16.6605 41.8502 16.343 41.4192C16.0743 41.0547 15.6268 40.6211 15.0677 40.2991C15.3161 40.048 15.7465 39.6893 16.2083 39.6722C16.7552 39.6519 17.6136 40.1918 17.7922 40.8265C17.9754 41.4772 17.3896 42.2819 17.0953 42.6334ZM28.6334 40.2991C28.0745 40.6211 27.6268 41.0547 27.3582 41.4192C27.0406 41.8502 26.7903 42.0957 26.5108 42.4949C26.2166 42.1433 25.7259 41.4772 25.9089 40.8265C26.0877 40.1918 26.9461 39.6519 27.4929 39.6722C27.9546 39.6893 28.385 40.048 28.6334 40.2991ZM28.5324 36.0552C29.196 36.931 29.5923 38.3526 29.7437 39.8785C29.646 39.8965 29.5515 39.919 29.457 39.9457C29.1147 39.6659 28.4064 39.1297 27.8356 38.9814C28.2101 38.3303 28.3253 37.9176 28.3253 37.9176C28.1271 38.2791 27.9086 38.6228 27.6738 38.9498C27.6712 38.9496 27.6688 38.9491 27.6664 38.9489C26.8744 38.8565 25.5096 39.5197 25.1483 40.4725C25.0249 40.798 25.0359 41.1618 25.1278 41.529C22.3843 43.6243 19.2417 44.4999 18.5604 44.6724C18.1279 44.2964 17.8374 43.9157 17.5916 43.5185C25.4226 41.5966 27.2914 36.6875 27.6492 35.4191C27.9392 35.5852 28.2425 35.7939 28.5324 36.0552ZM21.8787 48.9807C23.3518 48.9807 23.1415 49.3219 25.6757 49.8452C32.7083 51.138 35.2325 43.9908 32.7989 41.1663C32.2683 40.5503 31.7251 40.1823 31.1951 39.9929C31.1513 39.6569 30.754 36.8124 29.647 35.4393C28.21 34.0401 26.9461 33.6777 26.8637 33.6553C27.0855 33.2236 27.2901 32.8555 27.4003 32.629C28.3412 32.6483 30.1197 30.2726 27.8857 28.5246C27.8857 23.152 23.3518 21.8756 21.8312 21.8713C20.3581 21.8756 15.7961 23.152 15.7961 28.5246C13.562 30.2726 15.3564 32.6484 16.2971 32.629C16.4074 32.8557 16.6137 33.2237 16.8356 33.6554C16.7534 33.6778 15.4903 34.0404 14.0532 35.4397C12.9462 36.8126 12.5493 39.6573 12.5057 39.9934C11.9757 40.1829 11.4327 40.551 10.9019 41.167C8.46843 43.9917 10.9971 51.138 18.0297 49.8452C20.5639 49.3219 20.3423 48.9807 21.8312 48.9807H21.8787ZM22.4485 26.9829C22.8105 27.0155 23.1311 26.7569 23.1647 26.4054C23.1982 26.0538 22.9318 25.7424 22.5698 25.7099C22.2079 25.6773 21.8873 25.9359 21.8536 26.2874C21.8201 26.639 22.0864 26.9503 22.4485 26.9829ZM22.4485 25.7043C22.8105 25.7369 23.1312 25.4783 23.1647 25.1268C23.1981 24.7752 22.9317 24.4639 22.5698 24.4313C22.2079 24.3987 21.8873 24.6573 21.8536 25.0088C21.8201 25.3604 22.0864 25.6718 22.4485 25.7043ZM24.4843 30.8214C23.591 31.276 22.7096 31.276 21.8508 30.8214C21.8508 32.5261 24.4843 32.5261 24.4843 30.8214ZM20.534 30.8214C19.6754 31.276 18.7938 31.276 17.9005 30.8214C17.9005 32.5261 20.534 32.5261 20.534 30.8214ZM21.2531 25.7043C21.6152 25.6718 21.8815 25.3604 21.8479 25.0088C21.8144 24.6573 21.4937 24.3987 21.1317 24.4313C20.7696 24.4639 20.5033 24.7752 20.5369 25.1268C20.5704 25.4783 20.8911 25.7369 21.2531 25.7043ZM21.1317 26.9884C20.7696 27.021 20.5033 27.3324 20.5369 27.6839C20.5704 28.0355 20.8911 28.2941 21.2531 28.2615C21.6152 28.2289 21.8815 27.9175 21.8479 27.566C21.8144 27.2144 21.4937 26.9559 21.1317 26.9884ZM22.4484 28.2615C22.8106 28.2941 23.1313 28.0355 23.1647 27.6839C23.1982 27.3324 22.9319 27.021 22.5699 26.9884C22.208 26.9559 21.8873 27.2144 21.8536 27.566C21.8201 27.9175 22.0864 28.2289 22.4484 28.2615ZM21.1317 25.7099C20.7696 25.7424 20.5033 26.0538 20.5369 26.4054C20.5704 26.7569 20.8911 27.0155 21.2531 26.9829C21.6151 26.9503 21.8815 26.639 21.8479 26.2874C21.8144 25.9359 21.4937 25.6773 21.1317 25.7099Z"
        fill="#545FEF"/>
</svg>
