<svg width="261" height="70" viewBox="0 0 261 70" fill="none" xmlns="http://www.w3.org/2000/svg">
 <title>[logo] Apify</title>
  <g clip-path="url(#clip1)">
    <path fill-rule="evenodd" clip-rule="evenodd"
          d="M147.192 35.8337H140.147V26.3063H147.195C149.799 26.3063 151.911 28.44 151.911 31.07C151.912 31.6949 151.79 32.3138 151.554 32.8914C151.317 33.469 150.97 33.994 150.531 34.4363C150.093 34.8787 149.573 35.2298 149 35.4696C148.427 35.7093 147.813 35.8331 147.192 35.8337ZM147.905 21.25H133.731V50H140.146V40.89H147.902C153.273 40.89 157.627 36.4938 157.627 31.07C157.627 25.6463 153.275 21.25 147.904 21.25H147.905ZM172.694 50H179.107V39.8038H190.692V34.6225H179.107V26.5575H193.505V21.25H172.693V50H172.694ZM217.809 21.25L210.816 33.075H210.651L203.991 21.25H196.708L207.384 39.0938V50H213.837V39.0525L224.636 21.25H217.809ZM161.442 50H167.856V21.25H161.442V50ZM112.037 39.01L116.008 27.225H116.173L120.062 39.01H112.035H112.037ZM112.365 21.25L101.775 50H108.353L110.339 44.1088H121.759L123.744 50H130.53L119.938 21.25H112.367H112.365Z"
          fill="#02184B"/>
    <path fill-rule="evenodd" clip-rule="evenodd"
          d="M42.5886 15.9438C38.4064 16.4838 35.4899 20.0525 36.0745 23.9163L40.5868 53.75L59.5795 13.75L42.5886 15.9438Z"
          fill="#6CC04A"/>
    <path fill-rule="evenodd" clip-rule="evenodd"
          d="M85.6238 38.9162L84.0142 16.4312C83.7275 12.4337 80.1124 9.5125 76.1374 10.0687L69.5078 10.9925L84.1085 43.75C85.2056 42.3916 85.7471 40.6629 85.6225 38.9162"
          fill="#00A7CE"/>
    <path fill-rule="evenodd" clip-rule="evenodd"
          d="M47.1693 59.9563C48.3984 60.0913 49.6416 59.913 50.7844 59.4375L76.9539 48.6075L64.5126 21.25L47.1693 59.9563Z"
          fill="#FF9012"/>
  </g>
  <defs>
    <clipPath id="clip1">
      <rect width="188.636" height="50" fill="white" transform="translate(36 10)"/>
    </clipPath>
  </defs>
</svg>
