<svg width="36" height="36" viewBox="0 0 36 36" fill="none" xmlns="http://www.w3.org/2000/svg">
<circle cx="18" cy="18" r="18" fill="white"/>
<path d="M25.4141 14.9158C25.4252 15.0694 25.4252 15.2231 25.4252 15.3767C25.4252 20.0633 21.8039 25.4633 15.185 25.4633C13.1459 25.4633 11.2516 24.8816 9.6582 23.8719C9.94793 23.9048 10.2265 23.9158 10.5273 23.9158C12.2099 23.9158 13.7587 23.356 14.9956 22.4012C13.4133 22.3682 12.0873 21.3475 11.6305 19.9426C11.8533 19.9755 12.0762 19.9975 12.3102 19.9975C12.6333 19.9975 12.9565 19.9535 13.2573 19.8768C11.6082 19.5475 10.3713 18.1206 10.3713 16.3975V16.3536C10.8504 16.617 11.4076 16.7816 11.9981 16.8036C11.0287 16.167 10.3936 15.0804 10.3936 13.8511C10.3936 13.1926 10.5719 12.5889 10.8839 12.0621C12.6556 14.2133 15.3187 15.6182 18.305 15.7719C18.2493 15.5084 18.2158 15.2341 18.2158 14.9597C18.2158 13.006 19.8204 11.4146 21.8149 11.4146C22.8512 11.4146 23.7872 11.8426 24.4446 12.5341C25.258 12.3804 26.038 12.0841 26.7289 11.678C26.4614 12.5012 25.8932 13.1926 25.1466 13.6316C25.8709 13.5548 26.5729 13.3572 27.2192 13.0829C26.729 13.7853 26.1161 14.4109 25.4141 14.9158V14.9158Z" fill="#4D9FEC"/>
</svg>
