<svg width="24" height="24" viewBox="0 0 24 24" fill="none" xmlns="http://www.w3.org/2000/svg">
<path d="M12.042 23.648C4.229 23.648 0 18.772 0 12.477C0 5.74999 4.762 0.35199 13.276 0.35199C19.49 0.35199 24 4.38999 24 9.95299C24 18.665 13.67 20.965 14.188 15.995C13.478 17.103 12.334 18.349 10.135 18.349C7.619 18.349 6.055 16.507 6.055 13.542C6.055 9.09799 8.976 5.34299 12.434 5.34299C14.093 5.34299 15.234 6.21899 15.711 7.56399L16.175 5.93199H18.513C18.269 6.76399 16.192 14.459 16.192 14.459C15.544 17.125 17.542 17.172 19.314 15.756C22.643 13.176 22.815 6.42899 18.316 3.61499C13.495 0.72399 2.521 2.51299 2.521 12.308C2.521 17.919 6.471 21.689 12.35 21.689C15.786 21.689 17.892 20.759 19.645 19.741L20.822 21.439C19.111 22.405 16.361 23.648 12.042 23.648ZM9.698 9.34299C8.983 10.683 8.521 12.419 8.521 13.767C8.521 17.377 12.043 17.4 13.773 14.006C14.485 12.612 14.944 10.835 14.944 9.47699C14.944 6.55999 11.449 6.04299 9.698 9.34299Z" fill="#1538E5"/>
</svg>
