<svg width="352" height="78" viewBox="0 0 352 78" fill="none" xmlns="http://www.w3.org/2000/svg">
<path d="M1 7C1 7 149.629 67 350.414 7" stroke="#F6F6F6" stroke-width="5"/>
<path fill-rule="evenodd" clip-rule="evenodd" d="M201.461 13.5475C209.01 21.0965 212.51 31.1602 211.94 41.0396C211.468 49.5686 207.968 57.9552 201.461 64.4625C194.953 70.9697 186.574 74.4624 178.052 74.9414C168.165 75.5041 158.094 72.0115 150.545 64.4625C136.481 50.3992 136.488 27.6038 150.545 13.5475C164.608 -0.515819 187.397 -0.515819 201.461 13.5475Z" fill="url(#paint0_linear)"/>
<path d="M201.461 13.5475C209.01 21.0965 212.51 31.1602 211.94 41.0396C211.468 49.5686 207.968 57.9552 201.461 64.4625C194.953 70.9697 186.574 74.4624 178.052 74.9414C168.165 75.5041 158.094 72.0115 150.545 64.4625C136.481 50.3992 136.488 27.6038 150.545 13.5475C164.608 -0.515819 187.397 -0.515819 201.461 13.5475" stroke="white" stroke-width="5"/>
<path d="M166.266 25.5295H168.034C168.225 25.5295 168.381 25.5728 168.502 25.6595C168.623 25.7462 168.71 25.861 168.762 26.004L170.595 31.074C170.677 31.295 170.76 31.5355 170.842 31.7955C170.929 32.0555 171.009 32.3285 171.083 32.6145C171.143 32.3285 171.213 32.0555 171.291 31.7955C171.373 31.5355 171.453 31.295 171.531 31.074L173.351 26.004C173.394 25.8827 173.479 25.7743 173.605 25.679C173.73 25.5793 173.884 25.5295 174.066 25.5295H175.847L172.051 35H170.062L166.266 25.5295ZM180.434 35C180.244 35 180.099 34.974 179.999 34.922C179.904 34.87 179.823 34.7617 179.758 34.597L179.615 34.2265C179.446 34.3695 179.284 34.4952 179.128 34.6035C178.972 34.7118 178.809 34.805 178.64 34.883C178.476 34.9567 178.298 35.0108 178.107 35.0455C177.921 35.0845 177.713 35.104 177.483 35.104C177.176 35.104 176.896 35.065 176.645 34.987C176.394 34.9047 176.179 34.7855 176.001 34.6295C175.828 34.4735 175.694 34.2807 175.598 34.051C175.503 33.817 175.455 33.5483 175.455 33.245C175.455 33.0067 175.516 32.7618 175.637 32.5105C175.759 32.2592 175.969 32.0317 176.268 31.828C176.567 31.62 176.97 31.4467 177.477 31.308C177.984 31.1693 178.623 31.0913 179.394 31.074V30.788C179.394 30.3937 179.312 30.1098 179.147 29.9365C178.987 29.7588 178.757 29.67 178.458 29.67C178.22 29.67 178.025 29.696 177.873 29.748C177.722 29.8 177.585 29.8585 177.464 29.9235C177.347 29.9885 177.232 30.047 177.119 30.099C177.007 30.151 176.872 30.177 176.716 30.177C176.578 30.177 176.459 30.1445 176.359 30.0795C176.264 30.0102 176.188 29.9257 176.131 29.826L175.767 29.1955C176.175 28.8358 176.625 28.5693 177.119 28.396C177.618 28.2183 178.151 28.1295 178.718 28.1295C179.126 28.1295 179.492 28.1967 179.817 28.331C180.146 28.461 180.424 28.6452 180.649 28.8835C180.879 29.1175 181.054 29.397 181.175 29.722C181.297 30.047 181.357 30.4023 181.357 30.788V35H180.434ZM178.12 33.7715C178.38 33.7715 178.608 33.726 178.803 33.635C178.998 33.544 179.195 33.3967 179.394 33.193V32.257C178.991 32.2743 178.66 32.309 178.4 32.361C178.14 32.413 177.934 32.478 177.782 32.556C177.631 32.634 177.525 32.7228 177.464 32.8225C177.408 32.9222 177.379 33.0305 177.379 33.1475C177.379 33.3772 177.442 33.5397 177.568 33.635C177.694 33.726 177.878 33.7715 178.12 33.7715ZM181.227 25.4255L179.537 27.135C179.438 27.2347 179.342 27.3062 179.251 27.3495C179.16 27.3885 179.039 27.408 178.887 27.408H177.678L178.562 25.8155C178.636 25.6898 178.723 25.5945 178.822 25.5295C178.922 25.4602 179.074 25.4255 179.277 25.4255H181.227ZM186.909 29.735C186.857 29.8173 186.801 29.8758 186.74 29.9105C186.684 29.9452 186.61 29.9625 186.519 29.9625C186.424 29.9625 186.329 29.943 186.233 29.904C186.138 29.8607 186.034 29.8152 185.921 29.7675C185.813 29.7198 185.689 29.6765 185.551 29.6375C185.412 29.5942 185.254 29.5725 185.076 29.5725C184.821 29.5725 184.623 29.6223 184.485 29.722C184.35 29.8173 184.283 29.9517 184.283 30.125C184.283 30.2507 184.327 30.3547 184.413 30.437C184.504 30.5193 184.623 30.593 184.771 30.658C184.918 30.7187 185.085 30.7772 185.271 30.8335C185.458 30.8898 185.648 30.9527 185.843 31.022C186.038 31.0913 186.229 31.1737 186.415 31.269C186.602 31.36 186.768 31.4748 186.916 31.6135C187.063 31.7478 187.18 31.9125 187.267 32.1075C187.358 32.3025 187.403 32.5365 187.403 32.8095C187.403 33.1432 187.343 33.4508 187.221 33.7325C187.1 34.0142 186.918 34.2568 186.675 34.4605C186.437 34.6642 186.14 34.8223 185.785 34.935C185.434 35.0477 185.029 35.104 184.569 35.104C184.34 35.104 184.11 35.0823 183.88 35.039C183.651 34.9957 183.427 34.9372 183.211 34.8635C182.998 34.7898 182.801 34.7032 182.619 34.6035C182.437 34.4995 182.281 34.389 182.151 34.272L182.619 33.531C182.676 33.4443 182.743 33.3772 182.821 33.3295C182.899 33.2775 183.001 33.2515 183.126 33.2515C183.243 33.2515 183.347 33.2775 183.438 33.3295C183.534 33.3815 183.635 33.4378 183.744 33.4985C183.852 33.5592 183.978 33.6155 184.121 33.6675C184.268 33.7195 184.452 33.7455 184.673 33.7455C184.829 33.7455 184.961 33.7303 185.07 33.7C185.178 33.6653 185.265 33.6198 185.33 33.5635C185.395 33.5072 185.442 33.4443 185.473 33.375C185.503 33.3057 185.518 33.2342 185.518 33.1605C185.518 33.0262 185.473 32.9157 185.382 32.829C185.291 32.7423 185.172 32.6687 185.024 32.608C184.877 32.543 184.708 32.4845 184.517 32.4325C184.331 32.3762 184.14 32.3133 183.945 32.244C183.75 32.1747 183.557 32.0923 183.367 31.997C183.18 31.8973 183.014 31.7738 182.866 31.6265C182.719 31.4748 182.6 31.2907 182.509 31.074C182.418 30.8573 182.372 30.5952 182.372 30.2875C182.372 30.0015 182.426 29.7307 182.535 29.475C182.647 29.215 182.814 28.9875 183.035 28.7925C183.256 28.5975 183.534 28.4437 183.867 28.331C184.201 28.214 184.591 28.1555 185.037 28.1555C185.28 28.1555 185.514 28.1772 185.739 28.2205C185.969 28.2638 186.183 28.3245 186.383 28.4025C186.582 28.4805 186.764 28.5737 186.929 28.682C187.093 28.786 187.239 28.9008 187.364 29.0265L186.909 29.735ZM182.541 25.5295H183.932C184.01 25.5295 184.084 25.5425 184.153 25.5685C184.227 25.5902 184.283 25.6183 184.322 25.653L184.868 26.121C184.894 26.1427 184.922 26.1687 184.953 26.199C184.983 26.2293 185.011 26.2618 185.037 26.2965C185.085 26.2272 185.141 26.1687 185.206 26.121L185.752 25.653C185.791 25.627 185.845 25.601 185.915 25.575C185.988 25.5447 186.064 25.5295 186.142 25.5295H187.481L185.96 27.408H184.062L182.541 25.5295ZM153.678 52.1385V43.2595H154.926C155.052 43.2595 155.156 43.2877 155.238 43.344C155.325 43.4003 155.385 43.4848 155.42 43.5975L155.569 44.0915C155.699 43.9485 155.838 43.8185 155.985 43.7015C156.137 43.5845 156.297 43.4848 156.466 43.4025C156.64 43.3158 156.824 43.2487 157.019 43.201C157.218 43.1533 157.435 43.1295 157.669 43.1295C158.02 43.1295 158.345 43.2075 158.644 43.3635C158.943 43.5195 159.201 43.7448 159.417 44.0395C159.634 44.3342 159.803 44.696 159.924 45.125C160.05 45.5497 160.113 46.0328 160.113 46.5745C160.113 47.0815 160.041 47.5495 159.898 47.9785C159.76 48.4075 159.563 48.7802 159.307 49.0965C159.056 49.4128 158.752 49.6598 158.397 49.8375C158.046 50.0152 157.656 50.104 157.227 50.104C156.876 50.104 156.581 50.0542 156.343 49.9545C156.105 49.8548 155.888 49.7205 155.693 49.5515V52.1385H153.678ZM156.967 44.67C156.82 44.67 156.685 44.6852 156.564 44.7155C156.447 44.7415 156.336 44.7805 156.232 44.8325C156.133 44.8845 156.04 44.9517 155.953 45.034C155.866 45.112 155.78 45.203 155.693 45.307V48.167C155.845 48.336 156.009 48.4552 156.187 48.5245C156.365 48.5895 156.551 48.622 156.746 48.622C156.932 48.622 157.103 48.5852 157.259 48.5115C157.415 48.4378 157.55 48.3208 157.662 48.1605C157.779 47.9958 157.87 47.7835 157.935 47.5235C158 47.2635 158.033 46.9472 158.033 46.5745C158.033 46.2192 158.007 45.9202 157.955 45.6775C157.903 45.4348 157.829 45.2398 157.734 45.0925C157.643 44.9408 157.532 44.8325 157.402 44.7675C157.272 44.7025 157.127 44.67 156.967 44.67ZM161.194 50V43.2595H162.39C162.489 43.2595 162.572 43.2682 162.637 43.2855C162.706 43.3028 162.762 43.331 162.806 43.37C162.853 43.4047 162.888 43.4523 162.91 43.513C162.936 43.5737 162.957 43.6473 162.975 43.734L163.085 44.3645C163.332 43.9832 163.609 43.682 163.917 43.461C164.225 43.24 164.561 43.1295 164.925 43.1295C165.232 43.1295 165.479 43.2032 165.666 43.3505L165.406 44.8325C165.388 44.9235 165.354 44.9885 165.302 45.0275C165.25 45.0622 165.18 45.0795 165.094 45.0795C165.02 45.0795 164.933 45.0708 164.834 45.0535C164.734 45.0318 164.608 45.021 164.457 45.021C163.928 45.021 163.512 45.3027 163.209 45.866V50H161.194ZM169.567 43.1555C170.078 43.1555 170.544 43.2357 170.964 43.396C171.385 43.5563 171.744 43.786 172.043 44.085C172.347 44.384 172.581 44.748 172.745 45.177C172.914 45.6017 172.999 46.0805 172.999 46.6135C172.999 47.1508 172.914 47.6362 172.745 48.0695C172.581 48.4985 172.347 48.8647 172.043 49.168C171.744 49.467 171.385 49.6988 170.964 49.8635C170.544 50.0238 170.078 50.104 169.567 50.104C169.051 50.104 168.581 50.0238 168.156 49.8635C167.736 49.6988 167.372 49.467 167.064 49.168C166.761 48.8647 166.525 48.4985 166.356 48.0695C166.191 47.6362 166.109 47.1508 166.109 46.6135C166.109 46.0805 166.191 45.6017 166.356 45.177C166.525 44.748 166.761 44.384 167.064 44.085C167.372 43.786 167.736 43.5563 168.156 43.396C168.581 43.2357 169.051 43.1555 169.567 43.1555ZM169.567 48.609C170.03 48.609 170.371 48.4465 170.587 48.1215C170.808 47.7922 170.919 47.2938 170.919 46.6265C170.919 45.9592 170.808 45.463 170.587 45.138C170.371 44.813 170.03 44.6505 169.567 44.6505C169.09 44.6505 168.741 44.813 168.52 45.138C168.299 45.463 168.189 45.9592 168.189 46.6265C168.189 47.2938 168.299 47.7922 168.52 48.1215C168.741 48.4465 169.09 48.609 169.567 48.609ZM178.837 50C178.711 50 178.605 49.9718 178.518 49.9155C178.436 49.8592 178.377 49.7747 178.343 49.662L178.187 49.1485C178.052 49.2915 177.912 49.4215 177.764 49.5385C177.617 49.6555 177.457 49.7573 177.283 49.844C177.114 49.9263 176.93 49.9892 176.731 50.0325C176.536 50.0802 176.323 50.104 176.094 50.104C175.743 50.104 175.418 50.026 175.119 49.87C174.82 49.714 174.562 49.4887 174.345 49.194C174.129 48.8993 173.957 48.5397 173.832 48.115C173.71 47.686 173.65 47.1985 173.65 46.6525C173.65 46.1498 173.719 45.684 173.858 45.255C173.996 44.8217 174.191 44.449 174.443 44.137C174.698 43.8207 175.004 43.5737 175.359 43.396C175.715 43.2183 176.107 43.1295 176.536 43.1295C176.882 43.1295 177.175 43.1815 177.413 43.2855C177.656 43.3852 177.875 43.5173 178.07 43.682V40.2695H180.085V50H178.837ZM176.796 48.557C176.943 48.557 177.075 48.544 177.192 48.518C177.314 48.4877 177.424 48.4465 177.524 48.3945C177.623 48.3425 177.717 48.2775 177.803 48.1995C177.894 48.1215 177.983 48.0305 178.07 47.9265V45.0665C177.914 44.8975 177.747 44.7805 177.569 44.7155C177.396 44.6462 177.212 44.6115 177.017 44.6115C176.83 44.6115 176.659 44.6483 176.503 44.722C176.347 44.7957 176.211 44.9148 176.094 45.0795C175.981 45.2398 175.892 45.45 175.827 45.71C175.762 45.97 175.73 46.2842 175.73 46.6525C175.73 47.0078 175.756 47.3068 175.808 47.5495C175.86 47.7922 175.931 47.9893 176.022 48.141C176.118 48.2883 176.23 48.3945 176.36 48.4595C176.49 48.5245 176.635 48.557 176.796 48.557ZM183.531 43.2595V47.5365C183.531 47.8702 183.607 48.128 183.758 48.31C183.91 48.492 184.133 48.583 184.428 48.583C184.649 48.583 184.855 48.5375 185.045 48.4465C185.24 48.3555 185.429 48.2277 185.611 48.063V43.2595H187.626V50H186.378C186.126 50 185.962 49.8873 185.884 49.662L185.76 49.272C185.63 49.3977 185.496 49.5125 185.357 49.6165C185.219 49.7162 185.069 49.8028 184.909 49.8765C184.753 49.9458 184.584 50 184.402 50.039C184.22 50.0823 184.02 50.104 183.804 50.104C183.435 50.104 183.108 50.0412 182.822 49.9155C182.541 49.7855 182.302 49.6057 182.107 49.376C181.912 49.1463 181.765 48.8755 181.665 48.5635C181.566 48.2515 181.516 47.9092 181.516 47.5365V43.2595H183.531ZM191.202 40.2695V45.723H191.501C191.626 45.723 191.722 45.7057 191.787 45.671C191.856 45.6363 191.921 45.5735 191.982 45.4825L193.256 43.5845C193.329 43.4718 193.416 43.3895 193.516 43.3375C193.62 43.2855 193.75 43.2595 193.906 43.2595H195.752L194.01 45.658C193.927 45.7707 193.836 45.8703 193.737 45.957C193.641 46.0437 193.537 46.1217 193.425 46.191C193.62 46.3383 193.789 46.5333 193.932 46.776L195.83 50H194.01C193.858 50 193.726 49.9762 193.613 49.9285C193.505 49.8765 193.416 49.7877 193.347 49.662L192.073 47.2765C192.012 47.1682 191.949 47.0988 191.884 47.0685C191.819 47.0338 191.722 47.0165 191.592 47.0165H191.202V50H189.187V40.2695H191.202ZM199.043 50.104C198.722 50.104 198.438 50.0585 198.191 49.9675C197.949 49.8722 197.743 49.74 197.574 49.571C197.409 49.3977 197.284 49.1897 197.197 48.947C197.11 48.7043 197.067 48.4335 197.067 48.1345V44.6505H196.495C196.391 44.6505 196.302 44.618 196.228 44.553C196.155 44.4837 196.118 44.384 196.118 44.254V43.4675L197.19 43.2595L197.587 41.615C197.639 41.407 197.786 41.303 198.029 41.303H199.082V43.2725H200.72V44.6505H199.082V47.998C199.082 48.154 199.119 48.284 199.192 48.388C199.27 48.4877 199.381 48.5375 199.524 48.5375C199.598 48.5375 199.658 48.531 199.706 48.518C199.758 48.5007 199.801 48.4833 199.836 48.466C199.875 48.4443 199.91 48.427 199.94 48.414C199.975 48.3967 200.014 48.388 200.057 48.388C200.118 48.388 200.165 48.4032 200.2 48.4335C200.239 48.4595 200.278 48.5028 200.317 48.5635L200.928 49.519C200.668 49.714 200.375 49.8613 200.05 49.961C199.725 50.0563 199.39 50.104 199.043 50.104Z" fill="white"/>
<defs>
<linearGradient id="paint0_linear" x1="112.516" y1="-18.5416" x2="125.886" y2="81.6853" gradientUnits="userSpaceOnUse">
<stop stop-color="#529CFB"/>
<stop offset="1" stop-color="#8380E5"/>
</linearGradient>
</defs>
</svg>
