<svg width="876" height="730" viewBox="0 0 876 730" fill="none" xmlns="http://www.w3.org/2000/svg">
<path fill-rule="evenodd" clip-rule="evenodd" d="M425.326 703.111V685.111H456.489C479.356 685.111 498.263 666.891 498.636 644.496C498.823 633.315 494.614 622.773 486.784 614.811C478.951 606.846 468.487 602.461 457.318 602.461H418.154C385.528 602.461 358.547 576.3 358.009 544.146C357.741 528.101 363.785 512.97 375.026 501.54C386.27 490.107 401.292 483.81 417.326 483.81H456.489C479.356 483.81 498.263 465.591 498.636 443.194C498.823 432.014 494.614 421.471 486.784 413.509C478.952 405.546 468.487 401.159 457.318 401.159H418.154C385.528 401.159 358.547 374.999 358.009 342.844C357.741 326.8 363.785 311.669 375.026 300.238C386.27 288.805 401.293 282.508 417.326 282.508H456.489C479.356 282.508 498.263 264.289 498.636 241.893C498.823 230.713 494.614 220.17 486.784 212.208C478.951 204.244 468.487 199.857 457.318 199.857H418.154C385.528 199.857 358.547 173.698 358.009 141.543C357.741 125.499 363.785 110.367 375.026 98.937C386.27 87.504 401.293 81.207 417.326 81.207H437.322C443.385 81.207 448.318 76.275 448.318 70.211V0C456.489 0 459.708 0 466.318 0V70.211C466.318 86.2 453.31 99.207 437.322 99.207H417.326C406.157 99.207 395.693 103.593 387.86 111.558C380.029 119.52 375.82 130.062 376.007 141.242C376.381 163.638 395.288 181.858 418.154 181.858H457.318C473.351 181.858 488.374 188.154 499.617 199.587C510.859 211.018 516.902 226.149 516.634 242.193C516.098 274.348 489.117 300.508 456.489 300.508H417.326C406.157 300.508 395.693 304.895 387.86 312.86C380.029 320.821 375.82 331.364 376.007 342.544C376.381 364.939 395.288 383.159 418.154 383.159H457.318C473.352 383.159 488.374 389.456 499.618 400.888C510.859 412.319 516.902 427.45 516.634 443.495C516.098 475.65 489.117 501.81 456.489 501.81H417.326C406.157 501.81 395.693 506.196 387.86 514.161C380.029 522.123 375.82 532.666 376.007 543.845C376.381 566.241 395.288 584.461 418.154 584.461H457.318C473.351 584.461 488.374 590.756 499.617 602.19C510.859 613.621 516.902 628.752 516.634 644.797C516.098 676.951 489.117 703.111 456.489 703.111H425.326Z" fill="white"/>
<path fill-rule="evenodd" clip-rule="evenodd" d="M481.712 664.591C489.292 672.171 492.806 682.276 492.234 692.196C491.76 700.76 488.246 709.181 481.712 715.715C475.178 722.249 466.764 725.756 458.208 726.237C448.28 726.802 438.168 723.295 430.588 715.715C416.467 701.594 416.474 678.705 430.588 664.591C444.709 650.47 467.591 650.47 481.712 664.591Z" fill="url(#paint0_linear)" stroke="white" stroke-width="6"/>
<path d="M876 144.295H448V140.295H876V144.295Z" fill="url(#paint1_linear)"/>
<mask id="mask0" mask-type="alpha" maskUnits="userSpaceOnUse" x="385" y="105" width="73" height="73">
<path d="M385 105H457.294V177.295H385V105Z" fill="white"/>
</mask>
<g mask="url(#mask0)">
<path fill-rule="evenodd" clip-rule="evenodd" d="M446.712 115.591C454.292 123.171 457.806 133.276 457.234 143.196C456.76 151.76 453.246 160.181 446.712 166.715C440.178 173.249 431.764 176.756 423.208 177.237C413.28 177.802 403.168 174.295 395.588 166.715C381.467 152.594 381.474 129.705 395.588 115.591C409.709 101.47 432.591 101.47 446.712 115.591Z" fill="url(#paint2_linear)"/>
</g>
<mask id="mask1" mask-type="alpha" maskUnits="userSpaceOnUse" x="397" y="117" width="49" height="49">
<path d="M404.136 124.135C394.739 133.532 394.739 148.767 404.136 158.165C413.533 167.561 428.769 167.561 438.166 158.165C447.564 148.767 447.564 133.532 438.166 124.135C433.467 119.436 427.309 117.086 421.151 117.086C414.993 117.086 408.834 119.436 404.136 124.135Z" fill="white"/>
</mask>
<g mask="url(#mask1)">
<path fill-rule="evenodd" clip-rule="evenodd" d="M404.136 124.135C394.739 133.532 394.739 148.767 404.136 158.165C413.533 167.561 428.769 167.561 438.166 158.165C447.564 148.767 447.564 133.532 438.166 124.135C433.467 119.436 427.309 117.086 421.151 117.086C414.993 117.086 408.834 119.436 404.136 124.135Z" fill="white"/>
</g>
<path d="M0 243.295H428V239.295H0V243.295Z" fill="url(#paint3_linear)"/>
<mask id="mask2" mask-type="alpha" maskUnits="userSpaceOnUse" x="418" y="204" width="74" height="73">
<path d="M491 204H418.706V276.295H491V204Z" fill="white"/>
</mask>
<g mask="url(#mask2)">
<path fill-rule="evenodd" clip-rule="evenodd" d="M429.288 214.591C421.708 222.171 418.194 232.276 418.766 242.196C419.24 250.76 422.754 259.181 429.288 265.715C435.822 272.249 444.236 275.756 452.792 276.237C462.72 276.802 472.832 273.295 480.412 265.715C494.533 251.594 494.526 228.705 480.412 214.591C466.291 200.47 443.409 200.47 429.288 214.591Z" fill="url(#paint4_linear)"/>
</g>
<mask id="mask3" mask-type="alpha" maskUnits="userSpaceOnUse" x="430" y="216" width="49" height="49">
<path d="M471.864 223.135C481.261 232.532 481.261 247.767 471.864 257.165C462.467 266.561 447.231 266.561 437.834 257.165C428.436 247.767 428.436 232.532 437.834 223.135C442.533 218.436 448.691 216.086 454.849 216.086C461.007 216.086 467.166 218.436 471.864 223.135Z" fill="white"/>
</mask>
<g mask="url(#mask3)">
<path fill-rule="evenodd" clip-rule="evenodd" d="M471.864 223.135C481.261 232.532 481.261 247.767 471.864 257.165C462.467 266.561 447.231 266.561 437.834 257.165C428.436 247.767 428.436 232.532 437.834 223.135C442.533 218.436 448.691 216.086 454.849 216.086C461.007 216.086 467.166 218.436 471.864 223.135Z" fill="white"/>
</g>
<path d="M0 445.295H428V441.295H0V445.295Z" fill="url(#paint5_linear)"/>
<mask id="mask4" mask-type="alpha" maskUnits="userSpaceOnUse" x="418" y="406" width="74" height="73">
<path d="M491 406H418.706V478.295H491V406Z" fill="white"/>
</mask>
<g mask="url(#mask4)">
<path fill-rule="evenodd" clip-rule="evenodd" d="M429.288 416.591C421.708 424.171 418.194 434.276 418.766 444.196C419.24 452.76 422.754 461.181 429.288 467.715C435.822 474.249 444.236 477.756 452.792 478.237C462.72 478.802 472.832 475.295 480.412 467.715C494.533 453.594 494.526 430.705 480.412 416.591C466.291 402.47 443.409 402.47 429.288 416.591Z" fill="url(#paint6_linear)"/>
</g>
<mask id="mask5" mask-type="alpha" maskUnits="userSpaceOnUse" x="430" y="418" width="49" height="49">
<path d="M471.864 425.135C481.261 434.532 481.261 449.767 471.864 459.165C462.467 468.561 447.231 468.561 437.834 459.165C428.436 449.767 428.436 434.532 437.834 425.135C442.533 420.436 448.691 418.086 454.849 418.086C461.007 418.086 467.166 420.436 471.864 425.135Z" fill="white"/>
</mask>
<g mask="url(#mask5)">
<path fill-rule="evenodd" clip-rule="evenodd" d="M471.864 425.135C481.261 434.532 481.261 449.767 471.864 459.165C462.467 468.561 447.231 468.561 437.834 459.165C428.436 449.767 428.436 434.532 437.834 425.135C442.533 420.436 448.691 418.086 454.849 418.086C461.007 418.086 467.166 420.436 471.864 425.135Z" fill="white"/>
</g>
<path d="M876 344.295H448V340.295H876V344.295Z" fill="url(#paint7_linear)"/>
<mask id="mask6" mask-type="alpha" maskUnits="userSpaceOnUse" x="385" y="305" width="73" height="73">
<path d="M385 305H457.294V377.295H385V305Z" fill="white"/>
</mask>
<g mask="url(#mask6)">
<path fill-rule="evenodd" clip-rule="evenodd" d="M446.712 315.591C454.292 323.171 457.806 333.276 457.234 343.196C456.76 351.76 453.246 360.181 446.712 366.715C440.178 373.249 431.764 376.756 423.208 377.237C413.28 377.802 403.168 374.295 395.588 366.715C381.467 352.594 381.474 329.705 395.588 315.591C409.709 301.47 432.591 301.47 446.712 315.591Z" fill="url(#paint8_linear)"/>
</g>
<mask id="mask7" mask-type="alpha" maskUnits="userSpaceOnUse" x="397" y="317" width="49" height="49">
<path d="M404.136 324.135C394.739 333.532 394.739 348.767 404.136 358.165C413.533 367.561 428.769 367.561 438.166 358.165C447.564 348.767 447.564 333.532 438.166 324.135C433.467 319.436 427.309 317.086 421.151 317.086C414.993 317.086 408.834 319.436 404.136 324.135Z" fill="white"/>
</mask>
<g mask="url(#mask7)">
<path fill-rule="evenodd" clip-rule="evenodd" d="M404.136 324.135C394.739 333.532 394.739 348.767 404.136 358.165C413.533 367.561 428.769 367.561 438.166 358.165C447.564 348.767 447.564 333.532 438.166 324.135C433.467 319.436 427.309 317.086 421.151 317.086C414.993 317.086 408.834 319.436 404.136 324.135Z" fill="white"/>
</g>
<path fill-rule="evenodd" clip-rule="evenodd" d="M420.2 141.005C420.2 142.279 420.063 143.382 419.79 144.315C419.517 145.249 419.138 146.022 418.655 146.635C418.172 147.249 417.598 147.705 416.935 148.005C416.272 148.305 415.553 148.455 414.78 148.455C414.007 148.455 413.292 148.305 412.635 148.005C411.978 147.705 411.41 147.249 410.93 146.635C410.45 146.022 410.075 145.249 409.805 144.315C409.535 143.382 409.4 142.279 409.4 141.005C409.4 139.732 409.535 138.629 409.805 137.695C410.075 136.762 410.45 135.989 410.93 135.375C411.41 134.762 411.978 134.307 412.635 134.01C413.292 133.714 414.007 133.565 414.78 133.565C415.553 133.565 416.272 133.714 416.935 134.01C417.598 134.307 418.172 134.762 418.655 135.375C419.138 135.989 419.517 136.762 419.79 137.695C420.063 138.629 420.2 139.732 420.2 141.005ZM417 141.005C417 139.999 416.937 139.174 416.81 138.53C416.683 137.887 416.515 137.382 416.305 137.015C416.095 136.649 415.857 136.397 415.59 136.26C415.323 136.124 415.053 136.055 414.78 136.055C414.507 136.055 414.238 136.124 413.975 136.26C413.712 136.397 413.478 136.649 413.275 137.015C413.072 137.382 412.908 137.887 412.785 138.53C412.662 139.174 412.6 139.999 412.6 141.005C412.6 142.019 412.662 142.845 412.785 143.485C412.908 144.125 413.072 144.63 413.275 145C413.478 145.37 413.712 145.624 413.975 145.76C414.238 145.897 414.507 145.965 414.78 145.965C415.053 145.965 415.323 145.897 415.59 145.76C415.857 145.624 416.095 145.37 416.305 145C416.515 144.63 416.683 144.125 416.81 143.485C416.937 142.845 417 142.019 417 141.005ZM423.12 146.055H425.92V138.705C425.92 138.345 425.93 137.969 425.95 137.575L424.3 138.945C424.193 139.032 424.087 139.094 423.98 139.13C423.873 139.167 423.77 139.185 423.67 139.185C423.497 139.185 423.342 139.147 423.205 139.07C423.068 138.994 422.967 138.912 422.9 138.825L421.92 137.525L426.46 133.715H429.02V146.055H431.42V148.295H423.12V146.055Z" fill="#529CFB"/>
<path fill-rule="evenodd" clip-rule="evenodd" d="M454.4 240.005C454.4 241.279 454.263 242.382 453.99 243.315C453.717 244.249 453.338 245.022 452.855 245.635C452.372 246.249 451.798 246.705 451.135 247.005C450.472 247.305 449.753 247.455 448.98 247.455C448.207 247.455 447.492 247.305 446.835 247.005C446.178 246.705 445.61 246.249 445.13 245.635C444.65 245.022 444.275 244.249 444.005 243.315C443.735 242.382 443.6 241.279 443.6 240.005C443.6 238.732 443.735 237.629 444.005 236.695C444.275 235.762 444.65 234.989 445.13 234.375C445.61 233.762 446.178 233.307 446.835 233.01C447.492 232.714 448.207 232.565 448.98 232.565C449.753 232.565 450.472 232.714 451.135 233.01C451.798 233.307 452.372 233.762 452.855 234.375C453.338 234.989 453.717 235.762 453.99 236.695C454.263 237.629 454.4 238.732 454.4 240.005ZM451.2 240.005C451.2 238.999 451.137 238.174 451.01 237.53C450.883 236.887 450.715 236.382 450.505 236.015C450.295 235.649 450.057 235.397 449.79 235.26C449.523 235.124 449.253 235.055 448.98 235.055C448.707 235.055 448.438 235.124 448.175 235.26C447.912 235.397 447.678 235.649 447.475 236.015C447.272 236.382 447.108 236.887 446.985 237.53C446.862 238.174 446.8 238.999 446.8 240.005C446.8 241.019 446.862 241.845 446.985 242.485C447.108 243.125 447.272 243.63 447.475 244C447.678 244.37 447.912 244.624 448.175 244.76C448.438 244.897 448.707 244.965 448.98 244.965C449.253 244.965 449.523 244.897 449.79 244.76C450.057 244.624 450.295 244.37 450.505 244C450.715 243.63 450.883 243.125 451.01 242.485C451.137 241.845 451.2 241.019 451.2 240.005ZM460.82 232.565C461.54 232.565 462.188 232.67 462.765 232.88C463.342 233.09 463.833 233.382 464.24 233.755C464.647 234.129 464.958 234.574 465.175 235.09C465.392 235.607 465.5 236.175 465.5 236.795C465.5 237.329 465.425 237.822 465.275 238.275C465.125 238.729 464.92 239.16 464.66 239.57C464.4 239.98 464.098 240.377 463.755 240.76C463.412 241.144 463.047 241.532 462.66 241.925L459.81 244.845C460.177 244.739 460.538 244.654 460.895 244.59C461.252 244.527 461.587 244.495 461.9 244.495H464.62C464.953 244.495 465.217 244.587 465.41 244.77C465.603 244.954 465.7 245.195 465.7 245.495V247.295H455.46V246.295C455.46 246.102 455.5 245.895 455.58 245.675C455.66 245.455 455.8 245.255 456 245.075L460.2 240.845C460.56 240.485 460.873 240.142 461.14 239.815C461.407 239.489 461.627 239.167 461.8 238.85C461.973 238.534 462.103 238.217 462.19 237.9C462.277 237.584 462.32 237.249 462.32 236.895C462.32 236.315 462.182 235.87 461.905 235.56C461.628 235.25 461.207 235.095 460.64 235.095C460.407 235.095 460.193 235.129 460 235.195C459.807 235.262 459.633 235.352 459.48 235.465C459.327 235.579 459.195 235.712 459.085 235.865C458.975 236.019 458.887 236.185 458.82 236.365C458.713 236.665 458.578 236.882 458.415 237.015C458.252 237.149 458.03 237.215 457.75 237.215C457.683 237.215 457.612 237.212 457.535 237.205C457.458 237.199 457.38 237.189 457.3 237.175L455.66 236.885C455.767 236.159 455.972 235.525 456.275 234.985C456.578 234.445 456.955 233.995 457.405 233.635C457.855 233.275 458.37 233.007 458.95 232.83C459.53 232.654 460.153 232.565 460.82 232.565Z" fill="#529CFB"/>
<path fill-rule="evenodd" clip-rule="evenodd" d="M420.2 341.005C420.2 342.279 420.063 343.382 419.79 344.315C419.517 345.249 419.138 346.022 418.655 346.635C418.172 347.249 417.598 347.705 416.935 348.005C416.272 348.305 415.553 348.455 414.78 348.455C414.007 348.455 413.292 348.305 412.635 348.005C411.978 347.705 411.41 347.249 410.93 346.635C410.45 346.022 410.075 345.249 409.805 344.315C409.535 343.382 409.4 342.279 409.4 341.005C409.4 339.732 409.535 338.629 409.805 337.695C410.075 336.762 410.45 335.989 410.93 335.375C411.41 334.762 411.978 334.307 412.635 334.01C413.292 333.714 414.007 333.565 414.78 333.565C415.553 333.565 416.272 333.714 416.935 334.01C417.598 334.307 418.172 334.762 418.655 335.375C419.138 335.989 419.517 336.762 419.79 337.695C420.063 338.629 420.2 339.732 420.2 341.005ZM417 341.005C417 339.999 416.937 339.174 416.81 338.53C416.683 337.887 416.515 337.382 416.305 337.015C416.095 336.649 415.857 336.397 415.59 336.26C415.323 336.124 415.053 336.055 414.78 336.055C414.507 336.055 414.238 336.124 413.975 336.26C413.712 336.397 413.478 336.649 413.275 337.015C413.072 337.382 412.908 337.887 412.785 338.53C412.662 339.174 412.6 339.999 412.6 341.005C412.6 342.019 412.662 342.845 412.785 343.485C412.908 344.125 413.072 344.63 413.275 345C413.478 345.37 413.712 345.624 413.975 345.76C414.238 345.897 414.507 345.965 414.78 345.965C415.053 345.965 415.323 345.897 415.59 345.76C415.857 345.624 416.095 345.37 416.305 345C416.515 344.63 416.683 344.125 416.81 343.485C416.937 342.845 417 342.019 417 341.005ZM426.9 333.565C427.62 333.565 428.26 333.667 428.82 333.87C429.38 334.074 429.853 334.349 430.24 334.695C430.627 335.042 430.92 335.444 431.12 335.9C431.32 336.357 431.42 336.839 431.42 337.345C431.42 337.805 431.373 338.21 431.28 338.56C431.187 338.91 431.048 339.214 430.865 339.47C430.682 339.727 430.455 339.945 430.185 340.125C429.915 340.305 429.607 340.455 429.26 340.575C430.873 341.135 431.68 342.232 431.68 343.865C431.68 344.639 431.54 345.312 431.26 345.885C430.98 346.459 430.605 346.935 430.135 347.315C429.665 347.695 429.12 347.98 428.5 348.17C427.88 348.36 427.233 348.455 426.56 348.455C425.867 348.455 425.25 348.38 424.71 348.23C424.17 348.08 423.69 347.847 423.27 347.53C422.85 347.214 422.482 346.809 422.165 346.315C421.848 345.822 421.573 345.235 421.34 344.555L422.72 343.995C422.84 343.942 422.958 343.905 423.075 343.885C423.192 343.865 423.307 343.855 423.42 343.855C423.633 343.855 423.825 343.897 423.995 343.98C424.165 344.064 424.293 344.185 424.38 344.345C424.68 344.899 424.998 345.3 425.335 345.55C425.672 345.8 426.067 345.925 426.52 345.925C426.867 345.925 427.168 345.867 427.425 345.75C427.682 345.634 427.895 345.484 428.065 345.3C428.235 345.117 428.363 344.909 428.45 344.675C428.537 344.442 428.58 344.205 428.58 343.965C428.58 343.652 428.558 343.37 428.515 343.12C428.472 342.87 428.35 342.655 428.15 342.475C427.95 342.295 427.648 342.157 427.245 342.06C426.842 341.964 426.28 341.915 425.56 341.915V339.775C426.167 339.775 426.657 339.729 427.03 339.635C427.403 339.542 427.692 339.414 427.895 339.25C428.098 339.087 428.233 338.889 428.3 338.655C428.367 338.422 428.4 338.165 428.4 337.885C428.4 337.312 428.262 336.87 427.985 336.56C427.708 336.25 427.287 336.095 426.72 336.095C426.487 336.095 426.273 336.129 426.08 336.195C425.887 336.262 425.713 336.352 425.56 336.465C425.407 336.579 425.275 336.712 425.165 336.865C425.055 337.019 424.967 337.185 424.9 337.365C424.793 337.665 424.658 337.882 424.495 338.015C424.332 338.149 424.11 338.215 423.83 338.215C423.763 338.215 423.692 338.212 423.615 338.205C423.538 338.199 423.46 338.189 423.38 338.175L421.74 337.885C421.847 337.159 422.052 336.525 422.355 335.985C422.658 335.445 423.035 334.995 423.485 334.635C423.935 334.275 424.45 334.007 425.03 333.83C425.61 333.654 426.233 333.565 426.9 333.565Z" fill="#529CFB"/>
<path fill-rule="evenodd" clip-rule="evenodd" d="M454.4 442.005C454.4 443.279 454.263 444.382 453.99 445.315C453.717 446.249 453.338 447.022 452.855 447.635C452.372 448.249 451.798 448.705 451.135 449.005C450.472 449.305 449.753 449.455 448.98 449.455C448.207 449.455 447.492 449.305 446.835 449.005C446.178 448.705 445.61 448.249 445.13 447.635C444.65 447.022 444.275 446.249 444.005 445.315C443.735 444.382 443.6 443.279 443.6 442.005C443.6 440.732 443.735 439.629 444.005 438.695C444.275 437.762 444.65 436.989 445.13 436.375C445.61 435.762 446.178 435.307 446.835 435.01C447.492 434.714 448.207 434.565 448.98 434.565C449.753 434.565 450.472 434.714 451.135 435.01C451.798 435.307 452.372 435.762 452.855 436.375C453.338 436.989 453.717 437.762 453.99 438.695C454.263 439.629 454.4 440.732 454.4 442.005ZM451.2 442.005C451.2 440.999 451.137 440.174 451.01 439.53C450.883 438.887 450.715 438.382 450.505 438.015C450.295 437.649 450.057 437.397 449.79 437.26C449.523 437.124 449.253 437.055 448.98 437.055C448.707 437.055 448.438 437.124 448.175 437.26C447.912 437.397 447.678 437.649 447.475 438.015C447.272 438.382 447.108 438.887 446.985 439.53C446.862 440.174 446.8 440.999 446.8 442.005C446.8 443.019 446.862 443.845 446.985 444.485C447.108 445.125 447.272 445.63 447.475 446C447.678 446.37 447.912 446.624 448.175 446.76C448.438 446.897 448.707 446.965 448.98 446.965C449.253 446.965 449.523 446.897 449.79 446.76C450.057 446.624 450.295 446.37 450.505 446C450.715 445.63 450.883 445.125 451.01 444.485C451.137 443.845 451.2 443.019 451.2 442.005ZM464.56 443.635H466.06V445.375C466.06 445.529 466.008 445.662 465.905 445.775C465.802 445.889 465.653 445.945 465.46 445.945H464.56V449.295H461.86V445.945H456C455.807 445.945 455.632 445.885 455.475 445.765C455.318 445.645 455.22 445.495 455.18 445.315L454.86 443.785L461.6 434.725H464.56V443.635ZM461.86 439.835C461.86 439.602 461.868 439.35 461.885 439.08C461.902 438.81 461.927 438.532 461.96 438.245L458.11 443.635H461.86V439.835Z" fill="#529CFB"/>
<path d="M442.073 689H440.373V685.92H437.413V689H435.713V681.715H437.413V684.76H440.373V681.715H442.073V689Z" fill="white"/>
<path d="M450.462 685.355C450.462 685.882 450.37 686.372 450.187 686.825C450.007 687.278 449.752 687.673 449.422 688.01C449.092 688.343 448.694 688.605 448.227 688.795C447.764 688.985 447.249 689.08 446.682 689.08C446.115 689.08 445.599 688.985 445.132 688.795C444.665 688.605 444.265 688.343 443.932 688.01C443.602 687.673 443.345 687.278 443.162 686.825C442.982 686.372 442.892 685.882 442.892 685.355C442.892 684.828 442.982 684.338 443.162 683.885C443.345 683.432 443.602 683.038 443.932 682.705C444.265 682.372 444.665 682.11 445.132 681.92C445.599 681.73 446.115 681.635 446.682 681.635C447.249 681.635 447.764 681.732 448.227 681.925C448.694 682.115 449.092 682.377 449.422 682.71C449.752 683.043 450.007 683.437 450.187 683.89C450.37 684.343 450.462 684.832 450.462 685.355ZM448.732 685.355C448.732 684.995 448.685 684.672 448.592 684.385C448.499 684.095 448.364 683.85 448.187 683.65C448.014 683.45 447.8 683.297 447.547 683.19C447.294 683.083 447.005 683.03 446.682 683.03C446.355 683.03 446.064 683.083 445.807 683.19C445.554 683.297 445.339 683.45 445.162 683.65C444.989 683.85 444.855 684.095 444.762 684.385C444.669 684.672 444.622 684.995 444.622 685.355C444.622 685.718 444.669 686.045 444.762 686.335C444.855 686.622 444.989 686.865 445.162 687.065C445.339 687.265 445.554 687.418 445.807 687.525C446.064 687.628 446.355 687.68 446.682 687.68C447.005 687.68 447.294 687.628 447.547 687.525C447.8 687.418 448.014 687.265 448.187 687.065C448.364 686.865 448.499 686.622 448.592 686.335C448.685 686.045 448.732 685.718 448.732 685.355Z" fill="white"/>
<path d="M456.257 681.715V683.055H454.207V689H452.517V683.055H450.467V681.715H456.257Z" fill="white"/>
<path d="M463.841 685.355C463.841 685.882 463.749 686.372 463.566 686.825C463.386 687.278 463.131 687.673 462.801 688.01C462.471 688.343 462.073 688.605 461.606 688.795C461.143 688.985 460.628 689.08 460.061 689.08C459.494 689.08 458.978 688.985 458.511 688.795C458.044 688.605 457.644 688.343 457.311 688.01C456.981 687.673 456.724 687.278 456.541 686.825C456.361 686.372 456.271 685.882 456.271 685.355C456.271 684.828 456.361 684.338 456.541 683.885C456.724 683.432 456.981 683.038 457.311 682.705C457.644 682.372 458.044 682.11 458.511 681.92C458.978 681.73 459.494 681.635 460.061 681.635C460.628 681.635 461.143 681.732 461.606 681.925C462.073 682.115 462.471 682.377 462.801 682.71C463.131 683.043 463.386 683.437 463.566 683.89C463.749 684.343 463.841 684.832 463.841 685.355ZM462.111 685.355C462.111 684.995 462.064 684.672 461.971 684.385C461.878 684.095 461.743 683.85 461.566 683.65C461.393 683.45 461.179 683.297 460.926 683.19C460.673 683.083 460.384 683.03 460.061 683.03C459.734 683.03 459.443 683.083 459.186 683.19C458.933 683.297 458.718 683.45 458.541 683.65C458.368 683.85 458.234 684.095 458.141 684.385C458.048 684.672 458.001 684.995 458.001 685.355C458.001 685.718 458.048 686.045 458.141 686.335C458.234 686.622 458.368 686.865 458.541 687.065C458.718 687.265 458.933 687.418 459.186 687.525C459.443 687.628 459.734 687.68 460.061 687.68C460.384 687.68 460.673 687.628 460.926 687.525C461.179 687.418 461.393 687.265 461.566 687.065C461.743 686.865 461.878 686.622 461.971 686.335C462.064 686.045 462.111 685.718 462.111 685.355Z" fill="white"/>
<path d="M463.746 681.715H465.106C465.253 681.715 465.373 681.748 465.466 681.815C465.56 681.882 465.626 681.97 465.666 682.08L467.076 685.98C467.14 686.15 467.203 686.335 467.266 686.535C467.333 686.735 467.395 686.945 467.451 687.165C467.498 686.945 467.551 686.735 467.611 686.535C467.675 686.335 467.736 686.15 467.796 685.98L469.196 682.08C469.23 681.987 469.295 681.903 469.391 681.83C469.488 681.753 469.606 681.715 469.746 681.715H471.116L468.196 689H466.666L463.746 681.715Z" fill="white"/>
<path d="M475.349 686.23V689H473.659V686.23L471.019 681.715H472.509C472.656 681.715 472.773 681.75 472.859 681.82C472.946 681.887 473.016 681.973 473.069 682.08L474.099 684.2C474.183 684.37 474.259 684.527 474.329 684.67C474.399 684.813 474.461 684.955 474.514 685.095C474.564 684.952 474.624 684.808 474.694 684.665C474.764 684.522 474.839 684.367 474.919 684.2L475.939 682.08C475.959 682.037 475.986 681.993 476.019 681.95C476.056 681.907 476.096 681.868 476.139 681.835C476.186 681.798 476.238 681.77 476.294 681.75C476.354 681.727 476.419 681.715 476.489 681.715H477.989L475.349 686.23ZM476.639 680.01L475.164 681.08C475.078 681.147 474.996 681.192 474.919 681.215C474.846 681.235 474.753 681.245 474.639 681.245H473.409L474.314 680.26C474.358 680.21 474.399 680.17 474.439 680.14C474.483 680.107 474.528 680.08 474.574 680.06C474.621 680.04 474.673 680.027 474.729 680.02C474.786 680.013 474.853 680.01 474.929 680.01H476.639Z" fill="white"/>
<path d="M434.503 701.565V704H432.813V696.715H435.383C435.896 696.715 436.336 696.777 436.703 696.9C437.073 697.02 437.376 697.187 437.613 697.4C437.853 697.613 438.03 697.865 438.143 698.155C438.256 698.445 438.313 698.758 438.313 699.095C438.313 699.458 438.255 699.792 438.138 700.095C438.021 700.398 437.843 700.658 437.603 700.875C437.363 701.092 437.058 701.262 436.688 701.385C436.321 701.505 435.886 701.565 435.383 701.565H434.503ZM434.503 700.29H435.383C435.823 700.29 436.14 700.185 436.333 699.975C436.526 699.765 436.623 699.472 436.623 699.095C436.623 698.928 436.598 698.777 436.548 698.64C436.498 698.503 436.421 698.387 436.318 698.29C436.218 698.19 436.09 698.113 435.933 698.06C435.78 698.007 435.596 697.98 435.383 697.98H434.503V700.29Z" fill="white"/>
<path d="M440.88 701.305V704H439.19V696.715H441.56C442.087 696.715 442.535 696.77 442.905 696.88C443.278 696.987 443.582 697.137 443.815 697.33C444.052 697.523 444.223 697.752 444.33 698.015C444.437 698.278 444.49 698.565 444.49 698.875C444.49 699.112 444.458 699.335 444.395 699.545C444.332 699.755 444.237 699.95 444.11 700.13C443.987 700.307 443.833 700.465 443.65 700.605C443.47 700.745 443.262 700.86 443.025 700.95C443.138 701.007 443.243 701.077 443.34 701.16C443.44 701.243 443.527 701.345 443.6 701.465L445.15 704H443.62C443.337 704 443.133 703.893 443.01 703.68L441.8 701.565C441.747 701.472 441.683 701.405 441.61 701.365C441.54 701.325 441.44 701.305 441.31 701.305H440.88ZM440.88 700.14H441.56C441.79 700.14 441.985 700.112 442.145 700.055C442.308 699.995 442.442 699.913 442.545 699.81C442.648 699.707 442.723 699.587 442.77 699.45C442.817 699.31 442.84 699.16 442.84 699C442.84 698.68 442.735 698.43 442.525 698.25C442.318 698.07 441.997 697.98 441.56 697.98H440.88V700.14Z" fill="white"/>
<path d="M452.776 700.355C452.776 700.882 452.685 701.372 452.501 701.825C452.321 702.278 452.066 702.673 451.736 703.01C451.406 703.343 451.008 703.605 450.541 703.795C450.078 703.985 449.563 704.08 448.996 704.08C448.43 704.08 447.913 703.985 447.446 703.795C446.98 703.605 446.58 703.343 446.246 703.01C445.916 702.673 445.66 702.278 445.476 701.825C445.296 701.372 445.206 700.882 445.206 700.355C445.206 699.828 445.296 699.338 445.476 698.885C445.66 698.432 445.916 698.038 446.246 697.705C446.58 697.372 446.98 697.11 447.446 696.92C447.913 696.73 448.43 696.635 448.996 696.635C449.563 696.635 450.078 696.732 450.541 696.925C451.008 697.115 451.406 697.377 451.736 697.71C452.066 698.043 452.321 698.437 452.501 698.89C452.685 699.343 452.776 699.832 452.776 700.355ZM451.046 700.355C451.046 699.995 451 699.672 450.906 699.385C450.813 699.095 450.678 698.85 450.501 698.65C450.328 698.45 450.115 698.297 449.861 698.19C449.608 698.083 449.32 698.03 448.996 698.03C448.67 698.03 448.378 698.083 448.121 698.19C447.868 698.297 447.653 698.45 447.476 698.65C447.303 698.85 447.17 699.095 447.076 699.385C446.983 699.672 446.936 699.995 446.936 700.355C446.936 700.718 446.983 701.045 447.076 701.335C447.17 701.622 447.303 701.865 447.476 702.065C447.653 702.265 447.868 702.418 448.121 702.525C448.378 702.628 448.67 702.68 448.996 702.68C449.32 702.68 449.608 702.628 449.861 702.525C450.115 702.418 450.328 702.265 450.501 702.065C450.678 701.865 450.813 701.622 450.906 701.335C451 701.045 451.046 700.718 451.046 700.355Z" fill="white"/>
<path d="M460.194 700.355C460.194 700.882 460.103 701.368 459.919 701.815C459.739 702.258 459.484 702.643 459.154 702.97C458.824 703.293 458.426 703.547 457.959 703.73C457.496 703.91 456.981 704 456.414 704H453.584V696.715H456.414C456.981 696.715 457.496 696.807 457.959 696.99C458.426 697.173 458.824 697.427 459.154 697.75C459.484 698.073 459.739 698.458 459.919 698.905C460.103 699.348 460.194 699.832 460.194 700.355ZM458.464 700.355C458.464 699.995 458.418 699.67 458.324 699.38C458.231 699.09 458.096 698.845 457.919 698.645C457.746 698.442 457.533 698.287 457.279 698.18C457.026 698.07 456.738 698.015 456.414 698.015H455.284V702.7H456.414C456.738 702.7 457.026 702.647 457.279 702.54C457.533 702.43 457.746 702.275 457.919 702.075C458.096 701.872 458.231 701.625 458.324 701.335C458.418 701.045 458.464 700.718 458.464 700.355Z" fill="white"/>
<path d="M464.036 702.665C464.263 702.665 464.465 702.628 464.641 702.555C464.821 702.478 464.973 702.37 465.096 702.23C465.22 702.09 465.313 701.92 465.376 701.72C465.443 701.517 465.476 701.287 465.476 701.03V696.715H467.166V701.03C467.166 701.477 467.093 701.887 466.946 702.26C466.803 702.633 466.596 702.955 466.326 703.225C466.056 703.495 465.728 703.705 465.341 703.855C464.955 704.005 464.52 704.08 464.036 704.08C463.55 704.08 463.113 704.005 462.726 703.855C462.34 703.705 462.011 703.495 461.741 703.225C461.471 702.955 461.265 702.633 461.121 702.26C460.978 701.887 460.906 701.477 460.906 701.03V696.715H462.596V701.025C462.596 701.282 462.628 701.512 462.691 701.715C462.758 701.915 462.853 702.087 462.976 702.23C463.1 702.37 463.25 702.478 463.426 702.555C463.606 702.628 463.81 702.665 464.036 702.665Z" fill="white"/>
<path d="M469.952 699.665H470.222C470.472 699.665 470.652 699.587 470.762 699.43L472.402 697.05C472.492 696.92 472.594 696.832 472.707 696.785C472.824 696.738 472.966 696.715 473.132 696.715H474.602L472.442 699.66C472.366 699.767 472.286 699.855 472.202 699.925C472.119 699.995 472.034 700.053 471.947 700.1C472.074 700.147 472.189 700.212 472.292 700.295C472.399 700.375 472.496 700.483 472.582 700.62L474.782 704H473.272C473.176 704 473.092 703.993 473.022 703.98C472.956 703.967 472.897 703.947 472.847 703.92C472.797 703.893 472.754 703.862 472.717 703.825C472.681 703.785 472.646 703.74 472.612 703.69L470.962 701.155C470.902 701.062 470.826 700.997 470.732 700.96C470.642 700.92 470.519 700.9 470.362 700.9H469.952V704H468.262V696.715H469.952V699.665Z" fill="white"/>
<path d="M480.691 696.715V698.055H478.641V704H476.951V698.055H474.901V696.715H480.691Z" fill="white"/>
<defs>
<linearGradient id="paint0_linear" x1="442.722" y1="625.657" x2="456.147" y2="726.295" gradientUnits="userSpaceOnUse">
<stop stop-color="#529CFB"/>
<stop offset="1" stop-color="#8380E5"/>
</linearGradient>
<linearGradient id="paint1_linear" x1="859.512" y1="162.118" x2="859.494" y2="140.139" gradientUnits="userSpaceOnUse">
<stop stop-color="#529CFB"/>
<stop offset="1" stop-color="#8380E5"/>
</linearGradient>
<linearGradient id="paint2_linear" x1="407.722" y1="76.6572" x2="421.147" y2="177.295" gradientUnits="userSpaceOnUse">
<stop stop-color="#529CFB"/>
<stop offset="1" stop-color="#8380E5"/>
</linearGradient>
<linearGradient id="paint3_linear" x1="16.4884" y1="261.118" x2="16.5058" y2="239.139" gradientUnits="userSpaceOnUse">
<stop stop-color="#529CFB"/>
<stop offset="1" stop-color="#8380E5"/>
</linearGradient>
<linearGradient id="paint4_linear" x1="468.278" y1="175.657" x2="454.853" y2="276.295" gradientUnits="userSpaceOnUse">
<stop stop-color="#529CFB"/>
<stop offset="1" stop-color="#8380E5"/>
</linearGradient>
<linearGradient id="paint5_linear" x1="16.4884" y1="463.118" x2="16.5058" y2="441.139" gradientUnits="userSpaceOnUse">
<stop stop-color="#529CFB"/>
<stop offset="1" stop-color="#8380E5"/>
</linearGradient>
<linearGradient id="paint6_linear" x1="468.278" y1="377.657" x2="454.853" y2="478.295" gradientUnits="userSpaceOnUse">
<stop stop-color="#529CFB"/>
<stop offset="1" stop-color="#8380E5"/>
</linearGradient>
<linearGradient id="paint7_linear" x1="859.512" y1="362.118" x2="859.494" y2="340.139" gradientUnits="userSpaceOnUse">
<stop stop-color="#529CFB"/>
<stop offset="1" stop-color="#8380E5"/>
</linearGradient>
<linearGradient id="paint8_linear" x1="407.722" y1="276.657" x2="421.147" y2="377.295" gradientUnits="userSpaceOnUse">
<stop stop-color="#529CFB"/>
<stop offset="1" stop-color="#8380E5"/>
</linearGradient>
</defs>
</svg>
