<?xml version="1.0" encoding="UTF-8"?>
<svg width="876px" height="730px" viewBox="0 0 876 730" version="1.1" xmlns="http://www.w3.org/2000/svg" xmlns:xlink="http://www.w3.org/1999/xlink">
    <defs>
        <linearGradient x1="31.4296206%" y1="-39.2040706%" x2="50%" y2="100%" id="linearGradient-1">
            <stop stop-color="#529CFB" offset="0%"></stop>
            <stop stop-color="#8380E5" offset="100%"></stop>
        </linearGradient>
        <linearGradient x1="96.1475817%" y1="-445.563594%" x2="50%" y2="100%" id="linearGradient-2">
            <stop stop-color="#529CFB" offset="0%"></stop>
            <stop stop-color="#8380E5" offset="100%"></stop>
        </linearGradient>
        <polygon id="path-3" points="0 0.0002 72.2939627 0.0002 72.2939627 72.2952 0 72.2952"></polygon>
        <path d="M19.136,19.1352 C9.739,28.5322 9.739,43.7672 19.136,53.1652 C28.533,62.5612 43.769,62.5612 53.166,53.1652 C62.564,43.7672 62.564,28.5322 53.166,19.1352 C48.467,14.4362 42.309,12.0862 36.151,12.0862 C29.993,12.0862 23.834,14.4362 19.136,19.1352" id="path-5"></path>
        <polygon id="path-7" points="0 0.0002 72.2939627 0.0002 72.2939627 72.2952 0 72.2952"></polygon>
        <path d="M19.136,19.1352 C9.739,28.5322 9.739,43.7672 19.136,53.1652 C28.533,62.5612 43.769,62.5612 53.166,53.1652 C62.564,43.7672 62.564,28.5322 53.166,19.1352 C48.467,14.4362 42.309,12.0862 36.151,12.0862 C29.993,12.0862 23.834,14.4362 19.136,19.1352" id="path-9"></path>
        <polygon id="path-11" points="0 0.0002 72.2939627 0.0002 72.2939627 72.2952 0 72.2952"></polygon>
        <path d="M19.136,19.1352 C9.739,28.5322 9.739,43.7672 19.136,53.1652 C28.533,62.5612 43.769,62.5612 53.166,53.1652 C62.564,43.7672 62.564,28.5322 53.166,19.1352 C48.467,14.4362 42.309,12.0862 36.151,12.0862 C29.993,12.0862 23.834,14.4362 19.136,19.1352" id="path-13"></path>
        <polygon id="path-15" points="0 0.0002 72.2939627 0.0002 72.2939627 72.2952 0 72.2952"></polygon>
        <path d="M19.136,19.1352 C9.739,28.5322 9.739,43.7672 19.136,53.1652 C28.533,62.5612 43.769,62.5612 53.166,53.1652 C62.564,43.7672 62.564,28.5322 53.166,19.1352 C48.467,14.4362 42.309,12.0862 36.151,12.0862 C29.993,12.0862 23.834,14.4362 19.136,19.1352" id="path-17"></path>
    </defs>
    <g id="Page-1" stroke="none" stroke-width="1" fill="none" fill-rule="evenodd">
        <g id="Product-background">
            <path d="M425.325545,703.111 L425.325545,685.111 L456.488545,685.111 C479.355545,685.111 498.262545,666.891 498.635545,644.496 C498.822545,633.315 494.613545,622.773 486.783545,614.811 C478.950545,606.846 468.486545,602.461 457.317545,602.461 L418.153545,602.461 C385.527545,602.461 358.546545,576.3 358.008545,544.146 C357.740545,528.101 363.784545,512.97 375.025545,501.54 C386.269545,490.107 401.291545,483.81 417.325545,483.81 L456.488545,483.81 C479.355545,483.81 498.262545,465.591 498.635545,443.194 C498.822545,432.014 494.613545,421.471 486.783545,413.509 C478.951545,405.546 468.486545,401.159 457.317545,401.159 L418.153545,401.159 C385.527545,401.159 358.546545,374.999 358.008545,342.844 C357.740545,326.8 363.784545,311.669 375.025545,300.238 C386.269545,288.805 401.292545,282.508 417.325545,282.508 L456.488545,282.508 C479.355545,282.508 498.262545,264.289 498.635545,241.893 C498.822545,230.713 494.613545,220.17 486.783545,212.208 C478.950545,204.244 468.486545,199.857 457.317545,199.857 L418.153545,199.857 C385.527545,199.857 358.546545,173.698 358.008545,141.543 C357.740545,125.499 363.784545,110.367 375.025545,98.937 C386.269545,87.504 401.292545,81.207 417.325545,81.207 L437.321545,81.207 C443.384545,81.207 448.317545,76.275 448.317545,70.211 L448.317545,-5.68434189e-14 C456.488545,-4.26325641e-14 459.707529,-8.05529254e-15 466.317545,-5.68434189e-14 L466.317545,70.211 C466.317545,86.2 453.309545,99.207 437.321545,99.207 L417.325545,99.207 C406.156545,99.207 395.692545,103.593 387.859545,111.558 C380.028545,119.52 375.819545,130.062 376.006545,141.242 C376.380545,163.638 395.287545,181.858 418.153545,181.858 L457.317545,181.858 C473.350545,181.858 488.373545,188.154 499.616545,199.587 C510.858545,211.018 516.901545,226.149 516.633545,242.193 C516.097545,274.348 489.116545,300.508 456.488545,300.508 L417.325545,300.508 C406.156545,300.508 395.692545,304.895 387.859545,312.86 C380.028545,320.821 375.819545,331.364 376.006545,342.544 C376.380545,364.939 395.287545,383.159 418.153545,383.159 L457.317545,383.159 C473.351545,383.159 488.373545,389.456 499.617545,400.888 C510.858545,412.319 516.901545,427.45 516.633545,443.495 C516.097545,475.65 489.116545,501.81 456.488545,501.81 L417.325545,501.81 C406.156545,501.81 395.692545,506.196 387.859545,514.161 C380.028545,522.123 375.819545,532.666 376.006545,543.845 C376.380545,566.241 395.287545,584.461 418.153545,584.461 L457.317545,584.461 C473.350545,584.461 488.373545,590.756 499.616545,602.19 C510.858545,613.621 516.901545,628.752 516.633545,644.797 C516.097545,676.951 489.116545,703.111 456.488545,703.111 L425.325545,703.111 Z" id="Fill-1" fill="#FFFFFF"></path>
            <path d="M481.7119,664.5907 C489.2919,672.1707 492.8059,682.2757 492.2339,692.1957 C491.7599,700.7597 488.2459,709.1807 481.7119,715.7147 C475.1779,722.2487 466.7639,725.7557 458.2079,726.2367 C448.2799,726.8017 438.1679,723.2947 430.5879,715.7147 C416.4669,701.5937 416.4739,678.7047 430.5879,664.5907 C444.7089,650.4697 467.5909,650.4697 481.7119,664.5907" id="Fill-5" stroke="#FFFFFF" stroke-width="6" fill="url(#linearGradient-1)"></path>
            <g id="Line" transform="translate(385.000000, 105.000000)">
                <g>
                    <rect id="Rectangle-3" fill="url(#linearGradient-2)" transform="translate(277.000000, 37.295200) scale(1, -1) translate(-277.000000, -37.295200) " x="63" y="35.2952" width="428" height="4"></rect>
                    <mask id="mask-4" fill="white">
                        <use xlink:href="#path-3"></use>
                    </mask>
                    <g id="Clip-6"></g>
                    <path d="M61.7119,10.5907 C69.2919,18.1707 72.8059,28.2757 72.2339,38.1957 C71.7599,46.7597 68.2459,55.1807 61.7119,61.7147 C55.1779,68.2487 46.7639,71.7557 38.2079,72.2367 C28.2799,72.8017 18.1679,69.2947 10.5879,61.7147 C-3.5331,47.5937 -3.5261,24.7047 10.5879,10.5907 C24.7089,-3.5303 47.5909,-3.5303 61.7119,10.5907" id="Fill-5" fill="url(#linearGradient-1)" mask="url(#mask-4)"></path>
                    <mask id="mask-6" fill="white">
                        <use xlink:href="#path-5"></use>
                    </mask>
                    <g id="Clip-13"></g>
                    <path d="M19.136,19.1352 C9.739,28.5322 9.739,43.7672 19.136,53.1652 C28.533,62.5612 43.769,62.5612 53.166,53.1652 C62.564,43.7672 62.564,28.5322 53.166,19.1352 C48.467,14.4362 42.309,12.0862 36.151,12.0862 C29.993,12.0862 23.834,14.4362 19.136,19.1352" id="Fill-12" fill="#FFFFFF" mask="url(#mask-6)"></path>
                </g>
            </g>
            <g id="Line" transform="translate(245.500000, 240.500000) scale(-1, 1) translate(-245.500000, -240.500000) translate(0.000000, 204.000000)">
                <g>
                    <rect id="Rectangle-3" fill="url(#linearGradient-2)" transform="translate(277.000000, 37.295200) scale(1, -1) translate(-277.000000, -37.295200) " x="63" y="35.2952" width="428" height="4"></rect>
                    <mask id="mask-8" fill="white">
                        <use xlink:href="#path-7"></use>
                    </mask>
                    <g id="Clip-6"></g>
                    <path d="M61.7119,10.5907 C69.2919,18.1707 72.8059,28.2757 72.2339,38.1957 C71.7599,46.7597 68.2459,55.1807 61.7119,61.7147 C55.1779,68.2487 46.7639,71.7557 38.2079,72.2367 C28.2799,72.8017 18.1679,69.2947 10.5879,61.7147 C-3.5331,47.5937 -3.5261,24.7047 10.5879,10.5907 C24.7089,-3.5303 47.5909,-3.5303 61.7119,10.5907" id="Fill-5" fill="url(#linearGradient-1)" mask="url(#mask-8)"></path>
                    <mask id="mask-10" fill="white">
                        <use xlink:href="#path-9"></use>
                    </mask>
                    <g id="Clip-13"></g>
                    <path d="M19.136,19.1352 C9.739,28.5322 9.739,43.7672 19.136,53.1652 C28.533,62.5612 43.769,62.5612 53.166,53.1652 C62.564,43.7672 62.564,28.5322 53.166,19.1352 C48.467,14.4362 42.309,12.0862 36.151,12.0862 C29.993,12.0862 23.834,14.4362 19.136,19.1352" id="Fill-12" fill="#FFFFFF" mask="url(#mask-10)"></path>
                </g>
            </g>
            <g id="Line" transform="translate(245.500000, 442.500000) scale(-1, 1) translate(-245.500000, -442.500000) translate(0.000000, 406.000000)">
                <g>
                    <rect id="Rectangle-3" fill="url(#linearGradient-2)" transform="translate(277.000000, 37.295200) scale(1, -1) translate(-277.000000, -37.295200) " x="63" y="35.2952" width="428" height="4"></rect>
                    <mask id="mask-12" fill="white">
                        <use xlink:href="#path-11"></use>
                    </mask>
                    <g id="Clip-6"></g>
                    <path d="M61.7119,10.5907 C69.2919,18.1707 72.8059,28.2757 72.2339,38.1957 C71.7599,46.7597 68.2459,55.1807 61.7119,61.7147 C55.1779,68.2487 46.7639,71.7557 38.2079,72.2367 C28.2799,72.8017 18.1679,69.2947 10.5879,61.7147 C-3.5331,47.5937 -3.5261,24.7047 10.5879,10.5907 C24.7089,-3.5303 47.5909,-3.5303 61.7119,10.5907" id="Fill-5" fill="url(#linearGradient-1)" mask="url(#mask-12)"></path>
                    <mask id="mask-14" fill="white">
                        <use xlink:href="#path-13"></use>
                    </mask>
                    <g id="Clip-13"></g>
                    <path d="M19.136,19.1352 C9.739,28.5322 9.739,43.7672 19.136,53.1652 C28.533,62.5612 43.769,62.5612 53.166,53.1652 C62.564,43.7672 62.564,28.5322 53.166,19.1352 C48.467,14.4362 42.309,12.0862 36.151,12.0862 C29.993,12.0862 23.834,14.4362 19.136,19.1352" id="Fill-12" fill="#FFFFFF" mask="url(#mask-14)"></path>
                </g>
            </g>
            <g id="Line" transform="translate(385.000000, 305.000000)">
                <g>
                    <rect id="Rectangle-3" fill="url(#linearGradient-2)" transform="translate(277.000000, 37.295200) scale(1, -1) translate(-277.000000, -37.295200) " x="63" y="35.2952" width="428" height="4"></rect>
                    <mask id="mask-16" fill="white">
                        <use xlink:href="#path-15"></use>
                    </mask>
                    <g id="Clip-6"></g>
                    <path d="M61.7119,10.5907 C69.2919,18.1707 72.8059,28.2757 72.2339,38.1957 C71.7599,46.7597 68.2459,55.1807 61.7119,61.7147 C55.1779,68.2487 46.7639,71.7557 38.2079,72.2367 C28.2799,72.8017 18.1679,69.2947 10.5879,61.7147 C-3.5331,47.5937 -3.5261,24.7047 10.5879,10.5907 C24.7089,-3.5303 47.5909,-3.5303 61.7119,10.5907" id="Fill-5" fill="url(#linearGradient-1)" mask="url(#mask-16)"></path>
                    <mask id="mask-18" fill="white">
                        <use xlink:href="#path-17"></use>
                    </mask>
                    <g id="Clip-13"></g>
                    <path d="M19.136,19.1352 C9.739,28.5322 9.739,43.7672 19.136,53.1652 C28.533,62.5612 43.769,62.5612 53.166,53.1652 C62.564,43.7672 62.564,28.5322 53.166,19.1352 C48.467,14.4362 42.309,12.0862 36.151,12.0862 C29.993,12.0862 23.834,14.4362 19.136,19.1352" id="Fill-12" fill="#FFFFFF" mask="url(#mask-18)"></path>
                </g>
            </g>
            <path d="M420.2,141.0052 C420.2,142.27854 420.063335,143.381862 419.79,144.3152 C419.516665,145.248538 419.138336,146.021864 418.655,146.6352 C418.171664,147.248536 417.598337,147.705198 416.935,148.0052 C416.271663,148.305202 415.553337,148.4552 414.78,148.4552 C414.006663,148.4552 413.29167,148.305202 412.635,148.0052 C411.97833,147.705198 411.410002,147.248536 410.93,146.6352 C410.449998,146.021864 410.075001,145.248538 409.805,144.3152 C409.534999,143.381862 409.4,142.27854 409.4,141.0052 C409.4,139.73186 409.534999,138.628538 409.805,137.6952 C410.075001,136.761862 410.449998,135.988536 410.93,135.3752 C411.410002,134.761864 411.97833,134.306868 412.635,134.0102 C413.29167,133.713532 414.006663,133.5652 414.78,133.5652 C415.553337,133.5652 416.271663,133.713532 416.935,134.0102 C417.598337,134.306868 418.171664,134.761864 418.655,135.3752 C419.138336,135.988536 419.516665,136.761862 419.79,137.6952 C420.063335,138.628538 420.2,139.73186 420.2,141.0052 Z M417,141.0052 C417,139.998528 416.936667,139.173537 416.81,138.5302 C416.683333,137.886863 416.515001,137.381868 416.305,137.0152 C416.094999,136.648532 415.856668,136.396867 415.59,136.2602 C415.323332,136.123533 415.053335,136.0552 414.78,136.0552 C414.506665,136.0552 414.238335,136.123533 413.975,136.2602 C413.711665,136.396867 413.478334,136.648532 413.275,137.0152 C413.071666,137.381868 412.908334,137.886863 412.785,138.5302 C412.661666,139.173537 412.6,139.998528 412.6,141.0052 C412.6,142.018538 412.661666,142.845197 412.785,143.4852 C412.908334,144.125203 413.071666,144.630198 413.275,145.0002 C413.478334,145.370202 413.711665,145.623533 413.975,145.7602 C414.238335,145.896867 414.506665,145.9652 414.78,145.9652 C415.053335,145.9652 415.323332,145.896867 415.59,145.7602 C415.856668,145.623533 416.094999,145.370202 416.305,145.0002 C416.515001,144.630198 416.683333,144.125203 416.81,143.4852 C416.936667,142.845197 417,142.018538 417,141.0052 Z M423.12,146.0552 L425.92,146.0552 L425.92,138.7052 C425.92,138.345198 425.93,137.968535 425.95,137.5752 L424.3,138.9452 C424.193333,139.031867 424.086667,139.093533 423.98,139.1302 C423.873333,139.166867 423.77,139.1852 423.67,139.1852 C423.496666,139.1852 423.341667,139.146867 423.205,139.0702 C423.068333,138.993533 422.966667,138.911867 422.9,138.8252 L421.92,137.5252 L426.46,133.7152 L429.02,133.7152 L429.02,146.0552 L431.42,146.0552 L431.42,148.2952 L423.12,148.2952 L423.12,146.0552 Z" id="01" fill="#529CFB"></path>
            <path d="M454.4,240.0052 C454.4,241.27854 454.263335,242.381862 453.99,243.3152 C453.716665,244.248538 453.338336,245.021864 452.855,245.6352 C452.371664,246.248536 451.798337,246.705198 451.135,247.0052 C450.471663,247.305202 449.753337,247.4552 448.98,247.4552 C448.206663,247.4552 447.49167,247.305202 446.835,247.0052 C446.17833,246.705198 445.610002,246.248536 445.13,245.6352 C444.649998,245.021864 444.275001,244.248538 444.005,243.3152 C443.734999,242.381862 443.6,241.27854 443.6,240.0052 C443.6,238.73186 443.734999,237.628538 444.005,236.6952 C444.275001,235.761862 444.649998,234.988536 445.13,234.3752 C445.610002,233.761864 446.17833,233.306868 446.835,233.0102 C447.49167,232.713532 448.206663,232.5652 448.98,232.5652 C449.753337,232.5652 450.471663,232.713532 451.135,233.0102 C451.798337,233.306868 452.371664,233.761864 452.855,234.3752 C453.338336,234.988536 453.716665,235.761862 453.99,236.6952 C454.263335,237.628538 454.4,238.73186 454.4,240.0052 Z M451.2,240.0052 C451.2,238.998528 451.136667,238.173537 451.01,237.5302 C450.883333,236.886863 450.715001,236.381868 450.505,236.0152 C450.294999,235.648532 450.056668,235.396867 449.79,235.2602 C449.523332,235.123533 449.253335,235.0552 448.98,235.0552 C448.706665,235.0552 448.438335,235.123533 448.175,235.2602 C447.911665,235.396867 447.678334,235.648532 447.475,236.0152 C447.271666,236.381868 447.108334,236.886863 446.985,237.5302 C446.861666,238.173537 446.8,238.998528 446.8,240.0052 C446.8,241.018538 446.861666,241.845197 446.985,242.4852 C447.108334,243.125203 447.271666,243.630198 447.475,244.0002 C447.678334,244.370202 447.911665,244.623533 448.175,244.7602 C448.438335,244.896867 448.706665,244.9652 448.98,244.9652 C449.253335,244.9652 449.523332,244.896867 449.79,244.7602 C450.056668,244.623533 450.294999,244.370202 450.505,244.0002 C450.715001,243.630198 450.883333,243.125203 451.01,242.4852 C451.136667,241.845197 451.2,241.018538 451.2,240.0052 Z M460.82,232.5652 C461.540004,232.5652 462.18833,232.670199 462.765,232.8802 C463.34167,233.090201 463.833331,233.381865 464.24,233.7552 C464.646669,234.128535 464.958332,234.573531 465.175,235.0902 C465.391668,235.606869 465.5,236.175197 465.5,236.7952 C465.5,237.328536 465.425001,237.821864 465.275,238.2752 C465.124999,238.728536 464.920001,239.160198 464.66,239.5702 C464.399999,239.980202 464.098335,240.376865 463.755,240.7602 C463.411665,241.143535 463.046669,241.531865 462.66,241.9252 L459.81,244.8452 C460.176669,244.738533 460.538332,244.653534 460.895,244.5902 C461.251668,244.526866 461.586665,244.4952 461.9,244.4952 L464.62,244.4952 C464.953335,244.4952 465.216666,244.586866 465.41,244.7702 C465.603334,244.953534 465.7,245.195199 465.7,245.4952 L465.7,247.2952 L455.46,247.2952 L455.46,246.2952 C455.46,246.101866 455.5,245.895201 455.58,245.6752 C455.66,245.455199 455.799999,245.255201 456,245.0752 L460.2,240.8452 C460.560002,240.485198 460.873332,240.141868 461.14,239.8152 C461.406668,239.488532 461.626666,239.166868 461.8,238.8502 C461.973334,238.533532 462.103333,238.216868 462.19,237.9002 C462.276667,237.583532 462.32,237.248535 462.32,236.8952 C462.32,236.315197 462.181668,235.870202 461.905,235.5602 C461.628332,235.250198 461.20667,235.0952 460.64,235.0952 C460.406666,235.0952 460.193334,235.128533 460,235.1952 C459.806666,235.261867 459.633334,235.351866 459.48,235.4652 C459.326666,235.578534 459.195001,235.711866 459.085,235.8652 C458.974999,236.018534 458.886667,236.185199 458.82,236.3652 C458.713333,236.665201 458.578334,236.881866 458.415,237.0152 C458.251666,237.148534 458.030001,237.2152 457.75,237.2152 C457.683333,237.2152 457.611667,237.211867 457.535,237.2052 C457.458333,237.198533 457.38,237.188533 457.3,237.1752 L455.66,236.8852 C455.766667,236.15853 455.971665,235.525203 456.275,234.9852 C456.578335,234.445197 456.954998,233.995202 457.405,233.6352 C457.855002,233.275198 458.369997,233.006868 458.95,232.8302 C459.530003,232.653532 460.15333,232.5652 460.82,232.5652 Z" id="02" fill="#529CFB"></path>
            <path d="M420.2,341.0052 C420.2,342.27854 420.063335,343.381862 419.79,344.3152 C419.516665,345.248538 419.138336,346.021864 418.655,346.6352 C418.171664,347.248536 417.598337,347.705198 416.935,348.0052 C416.271663,348.305201 415.553337,348.4552 414.78,348.4552 C414.006663,348.4552 413.29167,348.305201 412.635,348.0052 C411.97833,347.705198 411.410002,347.248536 410.93,346.6352 C410.449998,346.021864 410.075001,345.248538 409.805,344.3152 C409.534999,343.381862 409.4,342.27854 409.4,341.0052 C409.4,339.73186 409.534999,338.628538 409.805,337.6952 C410.075001,336.761862 410.449998,335.988536 410.93,335.3752 C411.410002,334.761864 411.97833,334.306868 412.635,334.0102 C413.29167,333.713532 414.006663,333.5652 414.78,333.5652 C415.553337,333.5652 416.271663,333.713532 416.935,334.0102 C417.598337,334.306868 418.171664,334.761864 418.655,335.3752 C419.138336,335.988536 419.516665,336.761862 419.79,337.6952 C420.063335,338.628538 420.2,339.73186 420.2,341.0052 Z M417,341.0052 C417,339.998528 416.936667,339.173537 416.81,338.5302 C416.683333,337.886863 416.515001,337.381868 416.305,337.0152 C416.094999,336.648531 415.856668,336.396867 415.59,336.2602 C415.323332,336.123533 415.053335,336.0552 414.78,336.0552 C414.506665,336.0552 414.238335,336.123533 413.975,336.2602 C413.711665,336.396867 413.478334,336.648531 413.275,337.0152 C413.071666,337.381868 412.908334,337.886863 412.785,338.5302 C412.661666,339.173537 412.6,339.998528 412.6,341.0052 C412.6,342.018538 412.661666,342.845197 412.785,343.4852 C412.908334,344.125203 413.071666,344.630198 413.275,345.0002 C413.478334,345.370202 413.711665,345.623533 413.975,345.7602 C414.238335,345.896867 414.506665,345.9652 414.78,345.9652 C415.053335,345.9652 415.323332,345.896867 415.59,345.7602 C415.856668,345.623533 416.094999,345.370202 416.305,345.0002 C416.515001,344.630198 416.683333,344.125203 416.81,343.4852 C416.936667,342.845197 417,342.018538 417,341.0052 Z M426.9,333.5652 C427.620004,333.5652 428.259997,333.666866 428.82,333.8702 C429.380003,334.073534 429.853331,334.348532 430.24,334.6952 C430.626669,335.041868 430.919999,335.443531 431.12,335.9002 C431.320001,336.356869 431.42,336.838531 431.42,337.3452 C431.42,337.805202 431.373334,338.210198 431.28,338.5602 C431.186666,338.910202 431.048334,339.213532 430.865,339.4702 C430.681666,339.726868 430.455001,339.945199 430.185,340.1252 C429.914999,340.305201 429.606668,340.455199 429.26,340.5752 C430.873341,341.135203 431.68,342.231858 431.68,343.8652 C431.68,344.638537 431.540001,345.311864 431.26,345.8852 C430.979999,346.458536 430.605002,346.935198 430.135,347.3152 C429.664998,347.695202 429.120003,347.980199 428.5,348.1702 C427.879997,348.360201 427.233337,348.4552 426.56,348.4552 C425.866663,348.4552 425.250003,348.380201 424.71,348.2302 C424.169997,348.080199 423.690002,347.846868 423.27,347.5302 C422.849998,347.213532 422.481668,346.808536 422.165,346.3152 C421.848332,345.821864 421.573334,345.235203 421.34,344.5552 L422.72,343.9952 C422.840001,343.941866 422.958333,343.9052 423.075,343.8852 C423.191667,343.8652 423.306666,343.8552 423.42,343.8552 C423.633334,343.8552 423.824999,343.896866 423.995,343.9802 C424.165001,344.063534 424.293333,344.185199 424.38,344.3452 C424.680002,344.898536 424.998332,345.300199 425.335,345.5502 C425.671668,345.800201 426.066664,345.9252 426.52,345.9252 C426.866668,345.9252 427.168332,345.866867 427.425,345.7502 C427.681668,345.633533 427.894999,345.483534 428.065,345.3002 C428.235001,345.116866 428.363333,344.908534 428.45,344.6752 C428.536667,344.441865 428.58,344.205201 428.58,343.9652 C428.58,343.651865 428.558334,343.370201 428.515,343.1202 C428.471666,342.870199 428.350001,342.655201 428.15,342.4752 C427.949999,342.295199 427.648335,342.156867 427.245,342.0602 C426.841665,341.963533 426.280004,341.9152 425.56,341.9152 L425.56,339.7752 C426.16667,339.7752 426.656665,339.728534 427.03,339.6352 C427.403335,339.541866 427.691666,339.413534 427.895,339.2502 C428.098334,339.086866 428.233333,338.888534 428.3,338.6552 C428.366667,338.421865 428.4,338.165201 428.4,337.8852 C428.4,337.311864 428.261668,336.870202 427.985,336.5602 C427.708332,336.250198 427.286669,336.0952 426.72,336.0952 C426.486665,336.0952 426.273334,336.128533 426.08,336.1952 C425.886666,336.261867 425.713334,336.351866 425.56,336.4652 C425.406666,336.578534 425.275001,336.711866 425.165,336.8652 C425.054999,337.018534 424.966667,337.185199 424.9,337.3652 C424.793333,337.665201 424.658334,337.881866 424.495,338.0152 C424.331666,338.148534 424.110001,338.2152 423.83,338.2152 C423.763333,338.2152 423.691667,338.211867 423.615,338.2052 C423.538333,338.198533 423.46,338.188533 423.38,338.1752 L421.74,337.8852 C421.846667,337.15853 422.051665,336.525203 422.355,335.9852 C422.658335,335.445197 423.034998,334.995202 423.485,334.6352 C423.935002,334.275198 424.449997,334.006868 425.03,333.8302 C425.610003,333.653532 426.23333,333.5652 426.9,333.5652 Z" id="03" fill="#529CFB"></path>
            <path d="M454.4,442.0052 C454.4,443.27854 454.263335,444.381862 453.99,445.3152 C453.716665,446.248538 453.338336,447.021864 452.855,447.6352 C452.371664,448.248536 451.798337,448.705198 451.135,449.0052 C450.471663,449.305202 449.753337,449.4552 448.98,449.4552 C448.206663,449.4552 447.49167,449.305202 446.835,449.0052 C446.17833,448.705198 445.610002,448.248536 445.13,447.6352 C444.649998,447.021864 444.275001,446.248538 444.005,445.3152 C443.734999,444.381862 443.6,443.27854 443.6,442.0052 C443.6,440.73186 443.734999,439.628538 444.005,438.6952 C444.275001,437.761862 444.649998,436.988536 445.13,436.3752 C445.610002,435.761864 446.17833,435.306868 446.835,435.0102 C447.49167,434.713532 448.206663,434.5652 448.98,434.5652 C449.753337,434.5652 450.471663,434.713532 451.135,435.0102 C451.798337,435.306868 452.371664,435.761864 452.855,436.3752 C453.338336,436.988536 453.716665,437.761862 453.99,438.6952 C454.263335,439.628538 454.4,440.73186 454.4,442.0052 Z M451.2,442.0052 C451.2,440.998528 451.136667,440.173537 451.01,439.5302 C450.883333,438.886863 450.715001,438.381868 450.505,438.0152 C450.294999,437.648531 450.056668,437.396867 449.79,437.2602 C449.523332,437.123533 449.253335,437.0552 448.98,437.0552 C448.706665,437.0552 448.438335,437.123533 448.175,437.2602 C447.911665,437.396867 447.678334,437.648531 447.475,438.0152 C447.271666,438.381868 447.108334,438.886863 446.985,439.5302 C446.861666,440.173537 446.8,440.998528 446.8,442.0052 C446.8,443.018538 446.861666,443.845197 446.985,444.4852 C447.108334,445.125203 447.271666,445.630198 447.475,446.0002 C447.678334,446.370202 447.911665,446.623533 448.175,446.7602 C448.438335,446.896867 448.706665,446.9652 448.98,446.9652 C449.253335,446.9652 449.523332,446.896867 449.79,446.7602 C450.056668,446.623533 450.294999,446.370202 450.505,446.0002 C450.715001,445.630198 450.883333,445.125203 451.01,444.4852 C451.136667,443.845197 451.2,443.018538 451.2,442.0052 Z M464.56,443.6352 L466.06,443.6352 L466.06,445.3752 C466.06,445.528534 466.008334,445.661866 465.905,445.7752 C465.801666,445.888534 465.653334,445.9452 465.46,445.9452 L464.56,445.9452 L464.56,449.2952 L461.86,449.2952 L461.86,445.9452 L456,445.9452 C455.806666,445.9452 455.631667,445.885201 455.475,445.7652 C455.318333,445.645199 455.22,445.495201 455.18,445.3152 L454.86,443.7852 L461.6,434.7252 L464.56,434.7252 L464.56,443.6352 Z M461.86,439.8352 C461.86,439.601866 461.868333,439.350201 461.885,439.0802 C461.901667,438.810199 461.926667,438.531868 461.96,438.2452 L458.11,443.6352 L461.86,443.6352 L461.86,439.8352 Z" id="04" fill="#529CFB"></path>
            <path d="M437.8455,679.5295 L437.8455,681.2195 L433.9585,681.2195 L433.9585,683.618 L437.1955,683.618 L437.1955,685.3145 L433.9585,685.3145 L433.9585,689 L431.7485,689 L431.7485,679.5295 L437.8455,679.5295 Z M441.0695,682.2595 L441.0695,689 L439.0545,689 L439.0545,682.2595 L441.0695,682.2595 Z M441.3035,680.4135 C441.3035,680.573834 441.271,680.724416 441.206,680.86525 C441.141,681.006084 441.052167,681.129583 440.9395,681.23575 C440.826833,681.341917 440.695751,681.426416 440.54625,681.48925 C440.396749,681.552084 440.237501,681.5835 440.0685,681.5835 C439.903833,681.5835 439.750001,681.552084 439.607,681.48925 C439.463999,681.426416 439.337251,681.341917 439.22675,681.23575 C439.116249,681.129583 439.029584,681.006084 438.96675,680.86525 C438.903916,680.724416 438.8725,680.573834 438.8725,680.4135 C438.8725,680.248833 438.903916,680.095001 438.96675,679.952 C439.029584,679.808999 439.116249,679.683334 439.22675,679.575 C439.337251,679.466666 439.463999,679.382167 439.607,679.3215 C439.750001,679.260833 439.903833,679.2305 440.0685,679.2305 C440.237501,679.2305 440.396749,679.260833 440.54625,679.3215 C440.695751,679.382167 440.826833,679.466666 440.9395,679.575 C441.052167,679.683334 441.141,679.808999 441.206,679.952 C441.271,680.095001 441.3035,680.248833 441.3035,680.4135 Z M442.6945,689 L442.6945,682.2595 L443.9425,682.2595 C444.068167,682.2595 444.17325,682.287666 444.25775,682.344 C444.34225,682.400334 444.401833,682.484833 444.4365,682.5975 L444.5535,682.9875 C444.683501,682.866166 444.817833,682.753501 444.9565,682.6495 C445.095167,682.545499 445.243583,682.45775 445.40175,682.38625 C445.559917,682.31475 445.731082,682.258417 445.91525,682.21725 C446.099418,682.176083 446.299832,682.1555 446.5165,682.1555 C446.884835,682.1555 447.210915,682.219416 447.49475,682.34725 C447.778585,682.475084 448.017999,682.652749 448.213,682.88025 C448.408001,683.107751 448.555333,683.378582 448.655,683.69275 C448.754667,684.006918 448.8045,684.348165 448.8045,684.7165 L448.8045,689 L446.7895,689 L446.7895,684.7165 C446.7895,684.387165 446.713667,684.130418 446.562,683.94625 C446.410333,683.762082 446.187168,683.67 445.8925,683.67 C445.671499,683.67 445.463501,683.717666 445.2685,683.813 C445.073499,683.908334 444.887168,684.036166 444.7095,684.1965 L444.7095,689 L442.6945,689 Z M452.3145,682.2595 L452.3145,689 L450.2995,689 L450.2995,682.2595 L452.3145,682.2595 Z M452.5485,680.4135 C452.5485,680.573834 452.516,680.724416 452.451,680.86525 C452.386,681.006084 452.297167,681.129583 452.1845,681.23575 C452.071833,681.341917 451.940751,681.426416 451.79125,681.48925 C451.641749,681.552084 451.482501,681.5835 451.3135,681.5835 C451.148833,681.5835 450.995001,681.552084 450.852,681.48925 C450.708999,681.426416 450.582251,681.341917 450.47175,681.23575 C450.361249,681.129583 450.274584,681.006084 450.21175,680.86525 C450.148916,680.724416 450.1175,680.573834 450.1175,680.4135 C450.1175,680.248833 450.148916,680.095001 450.21175,679.952 C450.274584,679.808999 450.361249,679.683334 450.47175,679.575 C450.582251,679.466666 450.708999,679.382167 450.852,679.3215 C450.995001,679.260833 451.148833,679.2305 451.3135,679.2305 C451.482501,679.2305 451.641749,679.260833 451.79125,679.3215 C451.940751,679.382167 452.071833,679.466666 452.1845,679.575 C452.297167,679.683334 452.386,679.808999 452.451,679.952 C452.516,680.095001 452.5485,680.248833 452.5485,680.4135 Z M458.0605,683.735 C458.0085,683.817334 457.95325,683.875833 457.89475,683.9105 C457.83625,683.945167 457.7615,683.9625 457.6705,683.9625 C457.575166,683.9625 457.479834,683.941917 457.3845,683.90075 C457.289166,683.859583 457.186251,683.815167 457.07575,683.7675 C456.965249,683.719833 456.840667,683.675417 456.702,683.63425 C456.563333,683.593083 456.405168,683.5725 456.2275,683.5725 C455.971832,683.5725 455.775751,683.62125 455.63925,683.71875 C455.502749,683.81625 455.4345,683.951666 455.4345,684.125 C455.4345,684.250667 455.478916,684.354666 455.56775,684.437 C455.656584,684.519334 455.774666,684.591916 455.922,684.65475 C456.069334,684.717584 456.236166,684.777166 456.4225,684.8335 C456.608834,684.889834 456.799499,684.952666 456.9945,685.022 C457.189501,685.091334 457.380166,685.172583 457.5665,685.26575 C457.752834,685.358917 457.919666,685.473749 458.067,685.61025 C458.214334,685.746751 458.332416,685.912499 458.42125,686.1075 C458.510084,686.302501 458.5545,686.536499 458.5545,686.8095 C458.5545,687.143168 458.493834,687.450832 458.3725,687.7325 C458.251166,688.014168 458.070251,688.256832 457.82975,688.4605 C457.589249,688.664168 457.292418,688.822333 456.93925,688.935 C456.586082,689.047667 456.179836,689.104 455.7205,689.104 C455.490832,689.104 455.261168,689.082334 455.0315,689.039 C454.801832,688.995666 454.579751,688.937167 454.36525,688.8635 C454.150749,688.789833 453.952501,688.702084 453.7705,688.60025 C453.588499,688.498416 453.432501,688.389001 453.3025,688.272 L453.7705,687.531 C453.826834,687.444333 453.894,687.376084 453.972,687.32625 C454.05,687.276416 454.151833,687.2515 454.2775,687.2515 C454.394501,687.2515 454.499583,687.2775 454.59275,687.3295 C454.685917,687.3815 454.786666,687.437833 454.895,687.4985 C455.003334,687.559167 455.130083,687.6155 455.27525,687.6675 C455.420417,687.7195 455.603499,687.7455 455.8245,687.7455 C455.980501,687.7455 456.112666,687.72925 456.221,687.69675 C456.329334,687.66425 456.416,687.619834 456.481,687.5635 C456.546,687.507166 456.593667,687.444334 456.624,687.375 C456.654333,687.305666 456.6695,687.234167 456.6695,687.1605 C456.6695,687.026166 456.624,686.915667 456.533,686.829 C456.442,686.742333 456.322834,686.667584 456.1755,686.60475 C456.028166,686.541916 455.860251,686.483417 455.67175,686.42925 C455.483249,686.375083 455.291501,686.313334 455.0965,686.244 C454.901499,686.174666 454.709751,686.09125 454.52125,685.99375 C454.332749,685.89625 454.164834,685.772751 454.0175,685.62325 C453.870166,685.473749 453.751,685.290668 453.66,685.074 C453.569,684.857332 453.5235,684.595168 453.5235,684.2875 C453.5235,684.001499 453.578749,683.729585 453.68925,683.47175 C453.799751,683.213915 453.965499,682.987501 454.1865,682.7925 C454.407501,682.597499 454.684832,682.442584 455.0185,682.32775 C455.352168,682.212916 455.742164,682.1555 456.1885,682.1555 C456.431168,682.1555 456.666249,682.177166 456.89375,682.2205 C457.121251,682.263834 457.334666,682.3245 457.534,682.4025 C457.733334,682.4805 457.915333,682.572583 458.08,682.67875 C458.244667,682.784917 458.389833,682.900833 458.5155,683.0265 L458.0605,683.735 Z M459.6595,689 L459.6595,679.2695 L461.6745,679.2695 L461.6745,682.851 C461.917168,682.642999 462.180415,682.475084 462.46425,682.34725 C462.748085,682.219416 463.087165,682.1555 463.4815,682.1555 C463.849835,682.1555 464.175915,682.219416 464.45975,682.34725 C464.743585,682.475084 464.982999,682.652749 465.178,682.88025 C465.373001,683.107751 465.520333,683.378582 465.62,683.69275 C465.719667,684.006918 465.7695,684.348165 465.7695,684.7165 L465.7695,689 L463.7545,689 L463.7545,684.7165 C463.7545,684.387165 463.678667,684.130418 463.527,683.94625 C463.375333,683.762082 463.152168,683.67 462.8575,683.67 C462.636499,683.67 462.428501,683.717666 462.2335,683.813 C462.038499,683.908334 461.852168,684.036166 461.6745,684.1965 L461.6745,689 L459.6595,689 Z M470.0855,682.1555 C470.531836,682.1555 470.940248,682.224833 471.31075,682.3635 C471.681252,682.502167 471.999749,682.703665 472.26625,682.968 C472.532751,683.232335 472.740749,683.556248 472.89025,683.93975 C473.039751,684.323252 473.1145,684.757664 473.1145,685.243 C473.1145,685.394667 473.108,685.518166 473.095,685.6135 C473.082,685.708834 473.058167,685.784666 473.0235,685.841 C472.988833,685.897334 472.94225,685.936333 472.88375,685.958 C472.82525,685.979667 472.7505,685.9905 472.6595,685.9905 L468.7725,685.9905 C468.8375,686.553836 469.008665,686.962249 469.286,687.21575 C469.563335,687.469251 469.920831,687.596 470.3585,687.596 C470.592501,687.596 470.793999,687.567834 470.963,687.5115 C471.132001,687.455166 471.282583,687.392334 471.41475,687.323 C471.546917,687.253666 471.668249,687.190834 471.77875,687.1345 C471.889251,687.078166 472.005166,687.05 472.1265,687.05 C472.286834,687.05 472.408166,687.108499 472.4905,687.2255 L473.0755,687.947 C472.867499,688.185335 472.643251,688.379249 472.40275,688.52875 C472.162249,688.678251 471.915251,688.79525 471.66175,688.87975 C471.408249,688.96425 471.154751,689.02275 470.90125,689.05525 C470.647749,689.08775 470.406168,689.104 470.1765,689.104 C469.704164,689.104 469.261085,689.027084 468.84725,688.87325 C468.433415,688.719416 468.071585,688.490835 467.76175,688.1875 C467.451915,687.884165 467.207084,687.507169 467.02725,687.0565 C466.847416,686.605831 466.7575,686.081503 466.7575,685.4835 C466.7575,685.032831 466.834416,684.606002 466.98825,684.203 C467.142084,683.799998 467.363082,683.446835 467.65125,683.1435 C467.939418,682.840165 468.288248,682.599668 468.69775,682.422 C469.107252,682.244332 469.569831,682.1555 470.0855,682.1555 Z M470.1245,683.5465 C469.738831,683.5465 469.437668,683.655916 469.221,683.87475 C469.004332,684.093584 468.861334,684.408831 468.792,684.8205 L471.3075,684.8205 C471.3075,684.660166 471.286917,684.504167 471.24575,684.3525 C471.204583,684.200833 471.137417,684.065417 471.04425,683.94625 C470.951083,683.827083 470.828667,683.730667 470.677,683.657 C470.525333,683.583333 470.341168,683.5465 470.1245,683.5465 Z M479.0035,689 C478.877833,689 478.77275,688.971834 478.68825,688.9155 C478.60375,688.859166 478.544167,688.774667 478.5095,688.662 L478.3535,688.1485 C478.219166,688.291501 478.078334,688.421499 477.931,688.5385 C477.783666,688.655501 477.624418,688.75625 477.45325,688.84075 C477.282082,688.92525 477.097918,688.99025 476.90075,689.03575 C476.703582,689.08125 476.490168,689.104 476.2605,689.104 C475.909498,689.104 475.584501,689.026001 475.2855,688.87 C474.986499,688.713999 474.728668,688.488668 474.512,688.194 C474.295332,687.899332 474.125251,687.538585 474.00175,687.11175 C473.878249,686.684915 473.8165,686.198503 473.8165,685.6525 C473.8165,685.149831 473.885833,684.682919 474.0245,684.25175 C474.163167,683.820581 474.359249,683.447918 474.61275,683.13375 C474.866251,682.819582 475.170665,682.573668 475.526,682.396 C475.881335,682.218332 476.273498,682.1295 476.7025,682.1295 C477.049168,682.1295 477.342749,682.180416 477.58325,682.28225 C477.823751,682.384084 478.041499,682.517333 478.2365,682.682 L478.2365,679.2695 L480.2515,679.2695 L480.2515,689 L479.0035,689 Z M476.9625,687.557 C477.109834,687.557 477.243083,687.542917 477.36225,687.51475 C477.481417,687.486583 477.590833,687.4465 477.6905,687.3945 C477.790167,687.3425 477.884416,687.2775 477.97325,687.1995 C478.062084,687.1215 478.149833,687.030501 478.2365,686.9265 L478.2365,684.0665 C478.080499,683.897499 477.914751,683.779417 477.73925,683.71225 C477.563749,683.645083 477.378501,683.6115 477.1835,683.6115 C476.997166,683.6115 476.826001,683.648333 476.67,683.722 C476.513999,683.795667 476.378584,683.913749 476.26375,684.07625 C476.148916,684.238751 476.059,684.449999 475.994,684.71 C475.929,684.970001 475.8965,685.284165 475.8965,685.6525 C475.8965,686.007835 475.9225,686.306832 475.9745,686.5495 C476.0265,686.792168 476.099083,686.988249 476.19225,687.13775 C476.285417,687.287251 476.396999,687.3945 476.527,687.4595 C476.657001,687.5245 476.802166,687.557 476.9625,687.557 Z M433.2695,706.1385 L433.2695,697.2595 L434.5175,697.2595 C434.643167,697.2595 434.74825,697.287666 434.83275,697.344 C434.91725,697.400334 434.976833,697.484833 435.0115,697.5975 L435.161,698.0915 C435.291001,697.948499 435.430749,697.818501 435.58025,697.7015 C435.729751,697.584499 435.890082,697.48375 436.06125,697.39925 C436.232418,697.31475 436.416582,697.248667 436.61375,697.201 C436.810918,697.153333 437.026499,697.1295 437.2605,697.1295 C437.611502,697.1295 437.936499,697.207499 438.2355,697.3635 C438.534501,697.519501 438.792332,697.744832 439.009,698.0395 C439.225668,698.334168 439.395749,698.694915 439.51925,699.12175 C439.642751,699.548585 439.7045,700.032831 439.7045,700.5745 C439.7045,701.081503 439.634084,701.549498 439.49325,701.9785 C439.352416,702.407502 439.155251,702.780165 438.90175,703.0965 C438.648249,703.412835 438.344918,703.659832 437.99175,703.8375 C437.638582,704.015168 437.247502,704.104 436.8185,704.104 C436.467498,704.104 436.172835,704.054167 435.9345,703.9545 C435.696165,703.854833 435.479501,703.720501 435.2845,703.5515 L435.2845,706.1385 L433.2695,706.1385 Z M436.5585,698.67 C436.411166,698.67 436.277917,698.684083 436.15875,698.71225 C436.039583,698.740417 435.929084,698.7805 435.82725,698.8325 C435.725416,698.8845 435.631167,698.950583 435.5445,699.03075 C435.457833,699.110917 435.371167,699.202999 435.2845,699.307 L435.2845,702.167 C435.436167,702.336001 435.600832,702.454083 435.7785,702.52125 C435.956168,702.588417 436.142499,702.622 436.3375,702.622 C436.523834,702.622 436.694999,702.585167 436.851,702.5115 C437.007001,702.437833 437.142416,702.319751 437.25725,702.15725 C437.372084,701.994749 437.462,701.783501 437.527,701.5235 C437.592,701.263499 437.6245,700.947169 437.6245,700.5745 C437.6245,700.219165 437.5985,699.920168 437.5465,699.6775 C437.4945,699.434832 437.421917,699.238751 437.32875,699.08925 C437.235583,698.939749 437.124001,698.8325 436.994,698.7675 C436.863999,698.7025 436.718834,698.67 436.5585,698.67 Z M440.7835,704 L440.7835,697.2595 L441.9795,697.2595 C442.079167,697.2595 442.162583,697.268167 442.22975,697.2855 C442.296917,697.302833 442.35325,697.329916 442.39875,697.36675 C442.44425,697.403584 442.478917,697.452333 442.50275,697.513 C442.526583,697.573667 442.547167,697.647333 442.5645,697.734 L442.675,698.3645 C442.922001,697.983165 443.199332,697.682001 443.507,697.461 C443.814668,697.239999 444.150498,697.1295 444.5145,697.1295 C444.822168,697.1295 445.069166,697.203166 445.2555,697.3505 L444.9955,698.8325 C444.978167,698.9235 444.9435,698.987416 444.8915,699.02425 C444.8395,699.061084 444.770167,699.0795 444.6835,699.0795 C444.609833,699.0795 444.523167,699.06975 444.4235,699.05025 C444.323833,699.03075 444.198167,699.021 444.0465,699.021 C443.517831,699.021 443.101835,699.302664 442.7985,699.866 L442.7985,704 L440.7835,704 Z M449.1555,697.1555 C449.666836,697.1555 450.132665,697.235666 450.553,697.396 C450.973335,697.556334 451.334082,697.785999 451.63525,698.085 C451.936418,698.384001 452.170416,698.746915 452.33725,699.17375 C452.504084,699.600585 452.5875,700.080497 452.5875,700.6135 C452.5875,701.150836 452.504084,701.635081 452.33725,702.06625 C452.170416,702.497419 451.936418,702.863582 451.63525,703.16475 C451.334082,703.465918 450.973335,703.697749 450.553,703.86025 C450.132665,704.022751 449.666836,704.104 449.1555,704.104 C448.639831,704.104 448.170752,704.022751 447.74825,703.86025 C447.325748,703.697749 446.961752,703.465918 446.65625,703.16475 C446.350748,702.863582 446.114584,702.497419 445.94775,702.06625 C445.780916,701.635081 445.6975,701.150836 445.6975,700.6135 C445.6975,700.080497 445.780916,699.600585 445.94775,699.17375 C446.114584,698.746915 446.350748,698.384001 446.65625,698.085 C446.961752,697.785999 447.325748,697.556334 447.74825,697.396 C448.170752,697.235666 448.639831,697.1555 449.1555,697.1555 Z M449.1555,702.609 C449.619169,702.609 449.960416,702.445418 450.17925,702.11825 C450.398084,701.791082 450.5075,701.293837 450.5075,700.6265 C450.5075,699.959163 450.398084,699.463002 450.17925,699.138 C449.960416,698.812998 449.619169,698.6505 449.1555,698.6505 C448.678831,698.6505 448.330001,698.812998 448.109,699.138 C447.887999,699.463002 447.7775,699.959163 447.7775,700.6265 C447.7775,701.293837 447.887999,701.791082 448.109,702.11825 C448.330001,702.445418 448.678831,702.609 449.1555,702.609 Z M458.4245,704 C458.298833,704 458.19375,703.971834 458.10925,703.9155 C458.02475,703.859166 457.965167,703.774667 457.9305,703.662 L457.7745,703.1485 C457.640166,703.291501 457.499334,703.421499 457.352,703.5385 C457.204666,703.655501 457.045418,703.75625 456.87425,703.84075 C456.703082,703.92525 456.518918,703.99025 456.32175,704.03575 C456.124582,704.08125 455.911168,704.104 455.6815,704.104 C455.330498,704.104 455.005501,704.026001 454.7065,703.87 C454.407499,703.713999 454.149668,703.488668 453.933,703.194 C453.716332,702.899332 453.546251,702.538585 453.42275,702.11175 C453.299249,701.684915 453.2375,701.198503 453.2375,700.6525 C453.2375,700.149831 453.306833,699.682919 453.4455,699.25175 C453.584167,698.820581 453.780249,698.447918 454.03375,698.13375 C454.287251,697.819582 454.591665,697.573668 454.947,697.396 C455.302335,697.218332 455.694498,697.1295 456.1235,697.1295 C456.470168,697.1295 456.763749,697.180416 457.00425,697.28225 C457.244751,697.384084 457.462499,697.517333 457.6575,697.682 L457.6575,694.2695 L459.6725,694.2695 L459.6725,704 L458.4245,704 Z M456.3835,702.557 C456.530834,702.557 456.664083,702.542917 456.78325,702.51475 C456.902417,702.486583 457.011833,702.4465 457.1115,702.3945 C457.211167,702.3425 457.305416,702.2775 457.39425,702.1995 C457.483084,702.1215 457.570833,702.030501 457.6575,701.9265 L457.6575,699.0665 C457.501499,698.897499 457.335751,698.779417 457.16025,698.71225 C456.984749,698.645083 456.799501,698.6115 456.6045,698.6115 C456.418166,698.6115 456.247001,698.648333 456.091,698.722 C455.934999,698.795667 455.799584,698.913749 455.68475,699.07625 C455.569916,699.238751 455.48,699.449999 455.415,699.71 C455.35,699.970001 455.3175,700.284165 455.3175,700.6525 C455.3175,701.007835 455.3435,701.306832 455.3955,701.5495 C455.4475,701.792168 455.520083,701.988249 455.61325,702.13775 C455.706417,702.287251 455.817999,702.3945 455.948,702.4595 C456.078001,702.5245 456.223166,702.557 456.3835,702.557 Z M463.1175,697.2595 L463.1175,701.5365 C463.1175,701.870168 463.193333,702.127999 463.345,702.31 C463.496667,702.492001 463.719832,702.583 464.0145,702.583 C464.235501,702.583 464.442416,702.5375 464.63525,702.4465 C464.828084,702.3555 465.015499,702.227667 465.1975,702.063 L465.1975,697.2595 L467.2125,697.2595 L467.2125,704 L465.9645,704 C465.713165,704 465.5485,703.887334 465.4705,703.662 L465.347,703.272 C465.216999,703.397667 465.082667,703.511416 464.944,703.61325 C464.805333,703.715084 464.656917,703.80175 464.49875,703.87325 C464.340583,703.94475 464.170501,704.001083 463.9885,704.04225 C463.806499,704.083417 463.607168,704.104 463.3905,704.104 C463.022165,704.104 462.696085,704.040084 462.41225,703.91225 C462.128415,703.784416 461.889001,703.605668 461.694,703.376 C461.498999,703.146332 461.351667,702.875502 461.252,702.5635 C461.152333,702.251498 461.1025,701.909169 461.1025,701.5365 L461.1025,697.2595 L463.1175,697.2595 Z M473.6345,698.8585 C473.573833,698.932167 473.515334,698.990666 473.459,699.034 C473.402666,699.077334 473.322501,699.099 473.2185,699.099 C473.118833,699.099 473.028917,699.075167 472.94875,699.0275 C472.868583,698.979833 472.778667,698.92675 472.679,698.86825 C472.579333,698.80975 472.462334,698.756667 472.328,698.709 C472.193666,698.661333 472.026834,698.6375 471.8275,698.6375 C471.580499,698.6375 471.367084,698.683 471.18725,698.774 C471.007416,698.865 470.859001,698.994999 470.742,699.164 C470.624999,699.333001 470.538334,699.539915 470.482,699.78475 C470.425666,700.029585 470.3975,700.305832 470.3975,700.6135 C470.3975,701.25917 470.522082,701.755332 470.77125,702.102 C471.020418,702.448668 471.363831,702.622 471.8015,702.622 C472.035501,702.622 472.220749,702.59275 472.35725,702.53425 C472.493751,702.47575 472.609666,702.41075 472.705,702.33925 C472.800334,702.26775 472.888083,702.201667 472.96825,702.141 C473.048417,702.080333 473.149166,702.05 473.2705,702.05 C473.430834,702.05 473.552166,702.108499 473.6345,702.2255 L474.2195,702.947 C474.011499,703.185335 473.792668,703.379249 473.563,703.52875 C473.333332,703.678251 473.098251,703.79525 472.85775,703.87975 C472.617249,703.96425 472.375668,704.02275 472.133,704.05525 C471.890332,704.08775 471.654168,704.104 471.4245,704.104 C471.012831,704.104 470.619585,704.026001 470.24475,703.87 C469.869915,703.713999 469.540585,703.487585 469.25675,703.19075 C468.972915,702.893915 468.747584,702.528836 468.58075,702.0955 C468.413916,701.662165 468.3305,701.168169 468.3305,700.6135 C468.3305,700.128164 468.403083,699.674252 468.54825,699.25175 C468.693417,698.829248 468.907915,698.463085 469.19175,698.15325 C469.475585,697.843415 469.826581,697.599668 470.24475,697.422 C470.662919,697.244332 471.147164,697.1555 471.6975,697.1555 C472.226169,697.1555 472.689831,697.239999 473.0885,697.409 C473.487169,697.578001 473.846832,697.824998 474.1675,698.15 L473.6345,698.8585 Z M477.4565,704.104 C477.135832,704.104 476.853085,704.057417 476.60825,703.96425 C476.363415,703.871083 476.157584,703.738918 475.99075,703.56775 C475.823916,703.396582 475.697167,703.189668 475.6105,702.947 C475.523833,702.704332 475.4805,702.433501 475.4805,702.1345 L475.4805,698.6505 L474.9085,698.6505 C474.804499,698.6505 474.715667,698.616917 474.642,698.54975 C474.568333,698.482583 474.5315,698.384001 474.5315,698.254 L474.5315,697.4675 L475.604,697.2595 L476.0005,695.615 C476.0525,695.406999 476.199832,695.303 476.4425,695.303 L477.4955,695.303 L477.4955,697.2725 L479.1335,697.2725 L479.1335,698.6505 L477.4955,698.6505 L477.4955,701.998 C477.4955,702.154001 477.533416,702.282916 477.60925,702.38475 C477.685084,702.486584 477.794499,702.5375 477.9375,702.5375 C478.011167,702.5375 478.072916,702.529917 478.12275,702.51475 C478.172584,702.499583 478.215916,702.48225 478.25275,702.46275 C478.289584,702.44325 478.32425,702.425917 478.35675,702.41075 C478.38925,702.395583 478.427166,702.388 478.4705,702.388 C478.531167,702.388 478.579916,702.402083 478.61675,702.43025 C478.653584,702.458417 478.6915,702.502833 478.7305,702.5635 L479.3415,703.519 C479.081499,703.714001 478.789002,703.86025 478.464,703.95775 C478.138998,704.05525 477.803168,704.104 477.4565,704.104 Z" id="Finished-product" fill="#FFFFFF"></path>
        </g>
    </g>
</svg>
