<svg width="79" height="79" viewBox="0 0 79 79" fill="none" xmlns="http://www.w3.org/2000/svg">
<path fill-rule="evenodd" clip-rule="evenodd" d="M64.7121 13.5907C72.2921 21.1707 75.8061 31.2758 75.2341 41.1958C74.7601 49.7598 71.2461 58.1807 64.7121 64.7147C58.1781 71.2487 49.7641 74.7557 41.2081 75.2367C31.2801 75.8018 21.1681 72.2947 13.5881 64.7147C-0.532875 50.5938 -0.525875 27.7048 13.5881 13.5907C27.7091 -0.530251 50.5911 -0.530251 64.7121 13.5907Z" fill="#5C5FD4"/>
<path d="M64.7121 13.5907C72.2921 21.1707 75.8061 31.2758 75.2341 41.1958C74.7601 49.7598 71.2461 58.1807 64.7121 64.7147C58.1781 71.2487 49.7641 74.7557 41.2081 75.2367C31.2801 75.8017 21.1681 72.2947 13.5881 64.7147C-0.532875 50.5937 -0.525875 27.7048 13.5881 13.5907C27.7091 -0.530251 50.5911 -0.530251 64.7121 13.5907" stroke="#F6F6F6" stroke-width="6"/>
<path d="M29.2664 25.5295H31.0344C31.225 25.5295 31.381 25.5728 31.5024 25.6595C31.6237 25.7462 31.7104 25.861 31.7624 26.004L33.5954 31.074C33.6777 31.295 33.76 31.5355 33.8424 31.7955C33.929 32.0555 34.0092 32.3285 34.0829 32.6145C34.1435 32.3285 34.2129 32.0555 34.2909 31.7955C34.3732 31.5355 34.4534 31.295 34.5314 31.074L36.3514 26.004C36.3947 25.8827 36.4792 25.7743 36.6049 25.679C36.7305 25.5793 36.8844 25.5295 37.0664 25.5295H38.8474L35.0514 35H33.0624L29.2664 25.5295ZM43.4347 35C43.2441 35 43.0989 34.974 42.9992 34.922C42.9039 34.87 42.8237 34.7617 42.7587 34.597L42.6157 34.2265C42.4467 34.3695 42.2842 34.4952 42.1282 34.6035C41.9722 34.7118 41.8097 34.805 41.6407 34.883C41.4761 34.9567 41.2984 35.0108 41.1077 35.0455C40.9214 35.0845 40.7134 35.104 40.4837 35.104C40.1761 35.104 39.8966 35.065 39.6452 34.987C39.3939 34.9047 39.1794 34.7855 39.0017 34.6295C38.8284 34.4735 38.6941 34.2807 38.5987 34.051C38.5034 33.817 38.4557 33.5483 38.4557 33.245C38.4557 33.0067 38.5164 32.7618 38.6377 32.5105C38.7591 32.2592 38.9692 32.0317 39.2682 31.828C39.5672 31.62 39.9702 31.4467 40.4772 31.308C40.9842 31.1693 41.6234 31.0913 42.3947 31.074V30.788C42.3947 30.3937 42.3124 30.1098 42.1477 29.9365C41.9874 29.7588 41.7577 29.67 41.4587 29.67C41.2204 29.67 41.0254 29.696 40.8737 29.748C40.7221 29.8 40.5856 29.8585 40.4642 29.9235C40.3472 29.9885 40.2324 30.047 40.1197 30.099C40.0071 30.151 39.8727 30.177 39.7167 30.177C39.5781 30.177 39.4589 30.1445 39.3592 30.0795C39.2639 30.0102 39.1881 29.9257 39.1317 29.826L38.7677 29.1955C39.1751 28.8358 39.6257 28.5693 40.1197 28.396C40.6181 28.2183 41.1511 28.1295 41.7187 28.1295C42.1261 28.1295 42.4922 28.1967 42.8172 28.331C43.1466 28.461 43.4239 28.6452 43.6492 28.8835C43.8789 29.1175 44.0544 29.397 44.1757 29.722C44.2971 30.047 44.3577 30.4023 44.3577 30.788V35H43.4347ZM41.1207 33.7715C41.3807 33.7715 41.6082 33.726 41.8032 33.635C41.9982 33.544 42.1954 33.3967 42.3947 33.193V32.257C41.9917 32.2743 41.6602 32.309 41.4002 32.361C41.1402 32.413 40.9344 32.478 40.7827 32.556C40.6311 32.634 40.5249 32.7228 40.4642 32.8225C40.4079 32.9222 40.3797 33.0305 40.3797 33.1475C40.3797 33.3772 40.4426 33.5397 40.5682 33.635C40.6939 33.726 40.8781 33.7715 41.1207 33.7715ZM44.2277 25.4255L42.5377 27.135C42.4381 27.2347 42.3427 27.3062 42.2517 27.3495C42.1607 27.3885 42.0394 27.408 41.8877 27.408H40.6787L41.5627 25.8155C41.6364 25.6898 41.7231 25.5945 41.8227 25.5295C41.9224 25.4602 42.0741 25.4255 42.2777 25.4255H44.2277ZM49.9095 29.735C49.8575 29.8173 49.8012 29.8758 49.7405 29.9105C49.6842 29.9452 49.6105 29.9625 49.5195 29.9625C49.4242 29.9625 49.3289 29.943 49.2335 29.904C49.1382 29.8607 49.0342 29.8152 48.9215 29.7675C48.8132 29.7198 48.6897 29.6765 48.551 29.6375C48.4124 29.5942 48.2542 29.5725 48.0765 29.5725C47.8209 29.5725 47.6237 29.6223 47.485 29.722C47.3507 29.8173 47.2835 29.9517 47.2835 30.125C47.2835 30.2507 47.3269 30.3547 47.4135 30.437C47.5045 30.5193 47.6237 30.593 47.771 30.658C47.9184 30.7187 48.0852 30.7772 48.2715 30.8335C48.4579 30.8898 48.6485 30.9527 48.8435 31.022C49.0385 31.0913 49.2292 31.1737 49.4155 31.269C49.6019 31.36 49.7687 31.4748 49.916 31.6135C50.0634 31.7478 50.1804 31.9125 50.267 32.1075C50.358 32.3025 50.4035 32.5365 50.4035 32.8095C50.4035 33.1432 50.3429 33.4508 50.2215 33.7325C50.1002 34.0142 49.9182 34.2568 49.6755 34.4605C49.4372 34.6642 49.1404 34.8223 48.785 34.935C48.434 35.0477 48.0289 35.104 47.5695 35.104C47.3399 35.104 47.1102 35.0823 46.8805 35.039C46.6509 34.9957 46.4277 34.9372 46.211 34.8635C45.9987 34.7898 45.8015 34.7032 45.6195 34.6035C45.4375 34.4995 45.2815 34.389 45.1515 34.272L45.6195 33.531C45.6759 33.4443 45.743 33.3772 45.821 33.3295C45.899 33.2775 46.0009 33.2515 46.1265 33.2515C46.2435 33.2515 46.3475 33.2775 46.4385 33.3295C46.5339 33.3815 46.6357 33.4378 46.744 33.4985C46.8524 33.5592 46.978 33.6155 47.121 33.6675C47.2684 33.7195 47.4525 33.7455 47.6735 33.7455C47.8295 33.7455 47.9617 33.7303 48.07 33.7C48.1784 33.6653 48.265 33.6198 48.33 33.5635C48.395 33.5072 48.4427 33.4443 48.473 33.375C48.5034 33.3057 48.5185 33.2342 48.5185 33.1605C48.5185 33.0262 48.473 32.9157 48.382 32.829C48.291 32.7423 48.1719 32.6687 48.0245 32.608C47.8772 32.543 47.7082 32.4845 47.5175 32.4325C47.3312 32.3762 47.1405 32.3133 46.9455 32.244C46.7505 32.1747 46.5577 32.0923 46.367 31.997C46.1807 31.8973 46.0139 31.7738 45.8665 31.6265C45.7192 31.4748 45.6 31.2907 45.509 31.074C45.418 30.8573 45.3725 30.5952 45.3725 30.2875C45.3725 30.0015 45.4267 29.7307 45.535 29.475C45.6477 29.215 45.8145 28.9875 46.0355 28.7925C46.2565 28.5975 46.5339 28.4437 46.8675 28.331C47.2012 28.214 47.5912 28.1555 48.0375 28.1555C48.2802 28.1555 48.5142 28.1772 48.7395 28.2205C48.9692 28.2638 49.1837 28.3245 49.383 28.4025C49.5824 28.4805 49.7644 28.5737 49.929 28.682C50.0937 28.786 50.2389 28.9008 50.3645 29.0265L49.9095 29.735ZM45.5415 25.5295H46.9325C47.0105 25.5295 47.0842 25.5425 47.1535 25.5685C47.2272 25.5902 47.2835 25.6183 47.3225 25.653L47.8685 26.121C47.8945 26.1427 47.9227 26.1687 47.953 26.199C47.9834 26.2293 48.0115 26.2618 48.0375 26.2965C48.0852 26.2272 48.1415 26.1687 48.2065 26.121L48.7525 25.653C48.7915 25.627 48.8457 25.601 48.915 25.575C48.9887 25.5447 49.0645 25.5295 49.1425 25.5295H50.4815L48.9605 27.408H47.0625L45.5415 25.5295ZM16.6782 52.1385V43.2595H17.9262C18.0519 43.2595 18.1559 43.2877 18.2382 43.344C18.3249 43.4003 18.3855 43.4848 18.4202 43.5975L18.5697 44.0915C18.6997 43.9485 18.8384 43.8185 18.9857 43.7015C19.1374 43.5845 19.2977 43.4848 19.4667 43.4025C19.64 43.3158 19.8242 43.2487 20.0192 43.201C20.2185 43.1533 20.4352 43.1295 20.6692 43.1295C21.0202 43.1295 21.3452 43.2075 21.6442 43.3635C21.9432 43.5195 22.201 43.7448 22.4177 44.0395C22.6344 44.3342 22.8034 44.696 22.9247 45.125C23.0504 45.5497 23.1132 46.0328 23.1132 46.5745C23.1132 47.0815 23.0417 47.5495 22.8987 47.9785C22.76 48.4075 22.5629 48.7802 22.3072 49.0965C22.0559 49.4128 21.7525 49.6598 21.3972 49.8375C21.0462 50.0152 20.6562 50.104 20.2272 50.104C19.8762 50.104 19.5815 50.0542 19.3432 49.9545C19.1049 49.8548 18.8882 49.7205 18.6932 49.5515V52.1385H16.6782ZM19.9672 44.67C19.8199 44.67 19.6855 44.6852 19.5642 44.7155C19.4472 44.7415 19.3367 44.7805 19.2327 44.8325C19.133 44.8845 19.0399 44.9517 18.9532 45.034C18.8665 45.112 18.7799 45.203 18.6932 45.307V48.167C18.8449 48.336 19.0095 48.4552 19.1872 48.5245C19.3649 48.5895 19.5512 48.622 19.7462 48.622C19.9325 48.622 20.1037 48.5852 20.2597 48.5115C20.4157 48.4378 20.55 48.3208 20.6627 48.1605C20.7797 47.9958 20.8707 47.7835 20.9357 47.5235C21.0007 47.2635 21.0332 46.9472 21.0332 46.5745C21.0332 46.2192 21.0072 45.9202 20.9552 45.6775C20.9032 45.4348 20.8295 45.2398 20.7342 45.0925C20.6432 44.9408 20.5327 44.8325 20.4027 44.7675C20.2727 44.7025 20.1275 44.67 19.9672 44.67ZM24.1938 50V43.2595H25.3898C25.4895 43.2595 25.5718 43.2682 25.6368 43.2855C25.7062 43.3028 25.7625 43.331 25.8058 43.37C25.8535 43.4047 25.8882 43.4523 25.9098 43.513C25.9358 43.5737 25.9575 43.6473 25.9748 43.734L26.0853 44.3645C26.3323 43.9832 26.6097 43.682 26.9173 43.461C27.225 43.24 27.5608 43.1295 27.9248 43.1295C28.2325 43.1295 28.4795 43.2032 28.6658 43.3505L28.4058 44.8325C28.3885 44.9235 28.3538 44.9885 28.3018 45.0275C28.2498 45.0622 28.1805 45.0795 28.0938 45.0795C28.0202 45.0795 27.9335 45.0708 27.8338 45.0535C27.7342 45.0318 27.6085 45.021 27.4568 45.021C26.9282 45.021 26.5122 45.3027 26.2088 45.866V50H24.1938ZM32.5669 43.1555C33.0783 43.1555 33.5441 43.2357 33.9644 43.396C34.3848 43.5563 34.7444 43.786 35.0434 44.085C35.3468 44.384 35.5808 44.748 35.7454 45.177C35.9144 45.6017 35.9989 46.0805 35.9989 46.6135C35.9989 47.1508 35.9144 47.6362 35.7454 48.0695C35.5808 48.4985 35.3468 48.8647 35.0434 49.168C34.7444 49.467 34.3848 49.6988 33.9644 49.8635C33.5441 50.0238 33.0783 50.104 32.5669 50.104C32.0513 50.104 31.5811 50.0238 31.1564 49.8635C30.7361 49.6988 30.3721 49.467 30.0644 49.168C29.7611 48.8647 29.5249 48.4985 29.3559 48.0695C29.1913 47.6362 29.1089 47.1508 29.1089 46.6135C29.1089 46.0805 29.1913 45.6017 29.3559 45.177C29.5249 44.748 29.7611 44.384 30.0644 44.085C30.3721 43.786 30.7361 43.5563 31.1564 43.396C31.5811 43.2357 32.0513 43.1555 32.5669 43.1555ZM32.5669 48.609C33.0306 48.609 33.3708 48.4465 33.5874 48.1215C33.8084 47.7922 33.9189 47.2938 33.9189 46.6265C33.9189 45.9592 33.8084 45.463 33.5874 45.138C33.3708 44.813 33.0306 44.6505 32.5669 44.6505C32.0903 44.6505 31.7414 44.813 31.5204 45.138C31.2994 45.463 31.1889 45.9592 31.1889 46.6265C31.1889 47.2938 31.2994 47.7922 31.5204 48.1215C31.7414 48.4465 32.0903 48.609 32.5669 48.609ZM41.837 50C41.7113 50 41.6051 49.9718 41.5185 49.9155C41.4361 49.8592 41.3776 49.7747 41.343 49.662L41.187 49.1485C41.0526 49.2915 40.9118 49.4215 40.7645 49.5385C40.6171 49.6555 40.4568 49.7573 40.2835 49.844C40.1145 49.9263 39.9303 49.9892 39.731 50.0325C39.536 50.0802 39.3236 50.104 39.094 50.104C38.743 50.104 38.418 50.026 38.119 49.87C37.82 49.714 37.5621 49.4887 37.3455 49.194C37.1288 48.8993 36.9576 48.5397 36.832 48.115C36.7106 47.686 36.65 47.1985 36.65 46.6525C36.65 46.1498 36.7193 45.684 36.858 45.255C36.9966 44.8217 37.1916 44.449 37.443 44.137C37.6986 43.8207 38.0041 43.5737 38.3595 43.396C38.7148 43.2183 39.107 43.1295 39.536 43.1295C39.8826 43.1295 40.1751 43.1815 40.4135 43.2855C40.6561 43.3852 40.875 43.5173 41.07 43.682V40.2695H43.085V50H41.837ZM39.796 48.557C39.9433 48.557 40.0755 48.544 40.1925 48.518C40.3138 48.4877 40.4243 48.4465 40.524 48.3945C40.6236 48.3425 40.7168 48.2775 40.8035 48.1995C40.8945 48.1215 40.9833 48.0305 41.07 47.9265V45.0665C40.914 44.8975 40.7471 44.7805 40.5695 44.7155C40.3961 44.6462 40.212 44.6115 40.017 44.6115C39.8306 44.6115 39.6595 44.6483 39.5035 44.722C39.3475 44.7957 39.211 44.9148 39.094 45.0795C38.9813 45.2398 38.8925 45.45 38.8275 45.71C38.7625 45.97 38.73 46.2842 38.73 46.6525C38.73 47.0078 38.756 47.3068 38.808 47.5495C38.86 47.7922 38.9315 47.9893 39.0225 48.141C39.1178 48.2883 39.2305 48.3945 39.3605 48.4595C39.4905 48.5245 39.6356 48.557 39.796 48.557ZM46.531 43.2595V47.5365C46.531 47.8702 46.6068 48.128 46.7585 48.31C46.9101 48.492 47.1333 48.583 47.428 48.583C47.649 48.583 47.8548 48.5375 48.0455 48.4465C48.2405 48.3555 48.429 48.2277 48.611 48.063V43.2595H50.626V50H49.378C49.1266 50 48.962 49.8873 48.884 49.662L48.7605 49.272C48.6305 49.3977 48.4961 49.5125 48.3575 49.6165C48.2188 49.7162 48.0693 49.8028 47.909 49.8765C47.753 49.9458 47.584 50 47.402 50.039C47.22 50.0823 47.0206 50.104 46.804 50.104C46.4356 50.104 46.1085 50.0412 45.8225 49.9155C45.5408 49.7855 45.3025 49.6057 45.1075 49.376C44.9125 49.1463 44.7651 48.8755 44.6655 48.5635C44.5658 48.2515 44.516 47.9092 44.516 47.5365V43.2595H46.531ZM54.202 40.2695V45.723H54.501C54.6266 45.723 54.722 45.7057 54.787 45.671C54.8563 45.6363 54.9213 45.5735 54.982 45.4825L56.256 43.5845C56.3296 43.4718 56.4163 43.3895 56.516 43.3375C56.62 43.2855 56.75 43.2595 56.906 43.2595H58.752L57.01 45.658C56.9276 45.7707 56.8366 45.8703 56.737 45.957C56.6416 46.0437 56.5376 46.1217 56.425 46.191C56.62 46.3383 56.789 46.5333 56.932 46.776L58.83 50H57.01C56.8583 50 56.7261 49.9762 56.6135 49.9285C56.5051 49.8765 56.4163 49.7877 56.347 49.662L55.073 47.2765C55.0123 47.1682 54.9495 47.0988 54.8845 47.0685C54.8195 47.0338 54.722 47.0165 54.592 47.0165H54.202V50H52.187V40.2695H54.202ZM62.0432 50.104C61.7226 50.104 61.4387 50.0585 61.1917 49.9675C60.9491 49.8722 60.7432 49.74 60.5742 49.571C60.4096 49.3977 60.2839 49.1897 60.1972 48.947C60.1106 48.7043 60.0672 48.4335 60.0672 48.1345V44.6505H59.4952C59.3912 44.6505 59.3024 44.618 59.2287 44.553C59.1551 44.4837 59.1182 44.384 59.1182 44.254V43.4675L60.1907 43.2595L60.5872 41.615C60.6392 41.407 60.7866 41.303 61.0292 41.303H62.0822V43.2725H63.7202V44.6505H62.0822V47.998C62.0822 48.154 62.1191 48.284 62.1927 48.388C62.2707 48.4877 62.3812 48.5375 62.5242 48.5375C62.5979 48.5375 62.6586 48.531 62.7062 48.518C62.7582 48.5007 62.8016 48.4833 62.8362 48.466C62.8752 48.4443 62.9099 48.427 62.9402 48.414C62.9749 48.3967 63.0139 48.388 63.0572 48.388C63.1179 48.388 63.1656 48.4032 63.2002 48.4335C63.2392 48.4595 63.2782 48.5028 63.3172 48.5635L63.9282 49.519C63.6682 49.714 63.3757 49.8613 63.0507 49.961C62.7257 50.0563 62.3899 50.104 62.0432 50.104Z" fill="white"/>
</svg>
