<svg width="89" height="1151" viewBox="0 0 89 1151" fill="none" xmlns="http://www.w3.org/2000/svg">
<path fill-rule="evenodd" clip-rule="evenodd" d="M42.1524 0C55.9336 0.243009 67.4372 0.731398 78.6634 3.66213C81.2444 4.33623 83.731 5.45368 86.169 6.56796C87.8389 7.33136 88.7244 8.76097 88.509 10.7386C88.4098 11.6494 88.4324 12.5843 88.5027 13.5006C88.79 17.2457 87.3963 20.1828 84.7157 22.8164C80.4992 26.9581 76.3254 31.1435 72.1516 35.3289C67.4472 40.0465 62.7429 44.7641 57.9772 49.4189C54.9928 52.3343 53.4612 55.4938 53.6639 59.7265V1151H34.8534V58.664C34.9024 55.2666 33.719 52.5927 31.3296 50.2258C27.4096 46.3426 23.5115 42.4372 19.6135 38.5318C14.397 33.3054 9.1805 28.079 3.91147 22.9061C1.1795 20.2239 -0.0987689 17.254 0.00594227 13.4271C0.167553 7.50404 0.534635 6.78528 6.17521 4.77127C12.6076 2.47474 19.325 1.54182 26.0723 0.946352C30.4852 0.557044 34.9141 0.349398 38.49 0.181745C39.8502 0.117976 41.0869 0.0599931 42.1524 0ZM71.9951 13.8096C62.801 14.8899 53.4999 15.922 44.2877 15.922C33.7585 15.7964 23.2435 15.4704 12.9198 13.098C11.2061 12.704 9.52123 12.0726 7.92606 11.329C7.25788 11.0176 6.44193 10.1206 6.45339 9.50422C6.46564 8.87832 7.30728 7.91182 7.97071 7.71346C8.666 7.50581 9.36145 7.29135 10.0577 7.07664C13.0009 6.16903 15.9582 5.25707 18.9772 4.83687C35.8108 2.49529 52.6836 2.53006 69.5263 4.8096C71.902 5.13128 74.2409 5.73552 76.5769 6.33902C77.36 6.54133 78.1428 6.74357 78.9266 6.93504C79.6129 7.10298 80.2712 7.47519 80.8797 7.85413C82.6883 8.98066 82.7768 10.3862 80.8106 11.1824C77.9743 12.3306 75.0017 13.4564 71.9951 13.8096Z" fill="#F6F6F6"/>
</svg>
