<svg width="90" height="90" viewBox="0 0 90 90" fill="none" xmlns="http://www.w3.org/2000/svg">
  <title>IT v Retailu [Icon]</title>
  <path
    d="M19.0148 26.2105C21.1599 26.2105 22.9049 24.4655 22.9049 22.3211V15.3473C22.9049 11.3818 26.1058 8.09527 30.0589 7.98085C34.0127 8.09527 37.2136 11.3818 37.2136 15.3473V22.3204C37.2136 24.4655 38.9586 26.2105 41.1037 26.2105C43.2482 26.2105 44.9931 24.4655 44.9931 22.3204V15.5569C44.9931 7.21489 38.303 0.326013 30.0795 0.200636L30.0589 0.199951L30.039 0.200636C21.8156 0.326013 15.1254 7.21489 15.1254 15.5569V22.3211C15.1254 24.4655 16.8704 26.2105 19.0148 26.2105ZM17.7562 15.5569C17.7562 8.65022 23.2735 2.94591 30.0589 2.8315C36.845 2.94591 42.3623 8.65022 42.3623 15.5569V22.3211C42.3623 23.0151 41.7978 23.5797 41.1037 23.5797C40.4097 23.5797 39.8445 23.0151 39.8445 22.3211V15.3473C39.8445 9.96153 35.4933 5.49935 30.1233 5.35068L29.9952 5.34794V5.35068C24.6252 5.49935 20.274 9.96153 20.274 15.3473V22.3204C20.274 23.0151 19.7088 23.5797 19.0148 23.5797C18.3208 23.5797 17.7562 23.0144 17.7562 22.3204V15.5569Z"
    fill="#7462E0"/>
  <path
    d="M69.5862 58.194C67.7467 58.194 66.2497 59.691 66.2497 61.5305V63.9976C66.2497 65.4898 65.6598 66.8874 64.5889 67.9336C63.5181 68.9791 62.1074 69.5389 60.6132 69.4998C57.6514 69.4299 55.2425 66.9046 55.2425 63.8702V61.5305C55.2425 59.691 53.7455 58.194 51.906 58.194C50.0664 58.194 48.5695 59.691 48.5695 61.5305V63.9976C48.5695 67.2807 49.8609 70.361 52.2061 72.6705C54.5047 74.9349 57.5301 76.1749 60.744 76.1749C60.8078 76.1749 60.8715 76.1742 60.9352 76.1736C67.5452 76.0722 72.9234 70.5364 72.9234 63.8332V61.5305C72.9227 59.691 71.4257 58.194 69.5862 58.194V58.194ZM70.2919 63.8332C70.2919 69.1079 66.0763 73.4639 60.8948 73.5427C58.3242 73.5845 55.89 72.6068 54.0518 70.7961C52.2129 68.9853 51.1996 66.5709 51.1996 63.9976V61.5305C51.1996 61.1414 51.5162 60.8255 51.906 60.8255C52.2951 60.8255 52.611 61.142 52.611 61.5305V63.8702C52.611 68.3207 56.1729 72.0265 60.5502 72.13C62.7569 72.1814 64.8452 71.3599 66.4264 69.8156C68.0091 68.27 68.8805 66.2044 68.8805 63.9976V61.5305C68.8805 61.1414 69.197 60.8255 69.5862 60.8255C69.9753 60.8255 70.2919 61.142 70.2919 61.5305V63.8332Z"
    fill="#7462E0"/>
  <path
    d="M86.0537 53.2803H35.4377L31.6922 86.0913L35.1801 89.9999H86.3113L89.7993 86.0913L86.0537 53.2803ZM85.1329 87.3691H36.3586L34.4402 85.2185L37.7857 55.9111H83.7065L87.0519 85.2185L85.1329 87.3691Z"
    fill="#7462E0"/>
  <path
    d="M42.1109 40.6638H43.2304V38.033H20.0254L19.2773 35.2308H12.509V37.8617H17.2569L21.8506 55.0575H22.4309C22.2939 55.4556 22.2192 55.8817 22.2192 56.3257C22.2192 58.4756 23.9683 60.2247 26.1182 60.2247C28.2674 60.2247 30.0165 58.4756 30.0165 56.3257C30.0165 55.8817 29.9418 55.4556 29.8048 55.0575H33.3716V52.4266H23.871L23.6011 51.4147H39.2341L42.1109 40.6638ZM26.1182 55.0582C26.817 55.0582 27.3857 55.6268 27.3857 56.3257C27.3857 57.0252 26.817 57.5938 26.1182 57.5938C25.4187 57.5938 24.85 57.0252 24.85 56.3257C24.85 55.6268 25.4187 55.0582 26.1182 55.0582ZM25.7373 48.7839H22.905L22.1705 46.0393H25.7373V48.7839ZM25.7373 43.4084H21.4662L20.7318 40.6638H25.7373V43.4084ZM31.7512 48.7839H28.3681V46.0393H31.7512V48.7839ZM31.7512 43.4084H28.3681V40.6638H31.7512V43.4084ZM37.2144 48.7839H34.3821V46.0393H37.9488L37.2144 48.7839ZM34.3821 43.4084V40.6638H39.3876L38.6531 43.4084H34.3821Z"
    fill="#7462E0"/>
  <path
    d="M4.97876 87.0457C4.16416 86.1982 3.54275 85.5514 2.67334 84.6471L2.69663 84.0503H22.017V81.4195H2.80077L5.33023 17.443H12.9337V14.8121H2.80145L0 85.6638L0.388463 86.0673C1.47232 87.1943 2.15128 87.9007 3.08167 88.8688L4.16827 89.9999H31.0674V87.369H5.28912L4.97876 87.0457Z"
    fill="#7462E0"/>
  <path d="M25.0974 14.8121H35.0214V17.443H25.0974V14.8121Z" fill="#7462E0"/>
  <path d="M56.5512 51.1392L59.1807 51.0351L57.7502 14.8121H47.1856V17.443H55.2207L56.5512 51.1392Z" fill="#7462E0"/>
  <path
    d="M51.8614 49.78L51.0633 29.5758L53.6921 29.4717L54.4902 49.6758L51.8614 49.78ZM50.9941 27.8233L50.8899 25.1938L53.5187 25.0903L53.6229 27.7191L50.9941 27.8233ZM50.8207 23.4412L50.7173 20.8124L53.3461 20.709L53.4495 23.3378L50.8207 23.4412Z"
    fill="#7462E0"/>
  <path
    d="M82.3821 84.2984L80.5207 67.9926L83.1351 67.6945L84.9959 84.0004L82.3821 84.2984ZM80.322 66.2503L80.024 63.6366L82.6377 63.3379L82.9357 65.9516L80.322 66.2503ZM79.8246 61.8936L79.5266 59.2799L82.1403 58.9812L82.439 61.5956L79.8246 61.8936Z"
    fill="#7462E0"/>
</svg>
