<svg width="100" height="100" viewBox="0 0 100 100" fill="none" xmlns="http://www.w3.org/2000/svg">
<path d="M25.0445 75.5687C27.3845 73.7273 28.8243 70.9722 29 67.9997C29 58.0818 23.2895 55.9998 18.5 55.9998C13.7105 55.9998 8 58.0818 8 67.9997C8.17438 70.9739 9.61438 73.7309 11.9555 75.5732C7.97938 76.0632 4.9942 79.4434 5.00001 83.4497V94.9997H8V83.4497C8 80.716 10.2163 78.4997 12.95 78.4997H16.28L14.1065 83.9417C13.8836 84.4991 14.0146 85.1359 14.4395 85.5602L17.4395 88.5602C18.0252 89.1458 18.9747 89.1458 19.5605 88.5602L22.5605 85.5602C22.9854 85.1359 23.1164 84.4991 22.8935 83.9417L20.7155 78.4997H24.05C26.7837 78.4997 29 80.716 29 83.4497V94.9997H32V83.4497C32.008 79.4417 29.0223 76.0589 25.0445 75.5687ZM11.078 66.4127C11.4845 61.3863 13.85 58.9998 18.5 58.9998C22.757 58.9998 25.1 61.0127 25.7705 65.2127L20.7725 62.2127C20.062 61.7866 19.1407 62.017 18.7145 62.7274C18.6582 62.8212 18.6125 62.9206 18.578 63.0242C17.819 65.3012 13.7225 66.1622 11.078 66.4127ZM18.5 85.3742L17.2595 84.1337L18.5 81.0377L19.7405 84.1382L18.5 85.3742ZM18.5 75.4997C15.1544 74.9299 12.3714 72.61 11.2085 69.4217C13.7765 69.2102 18.4085 68.4317 20.5685 65.5907L25.931 68.8082C25.328 72.4802 20.8025 75.4997 18.5 75.4997Z" fill="#7462E0"/>
<path d="M13.9995 89H10.9995V95H13.9995V89Z" fill="#7462E0"/>
<path d="M25.9998 89H22.9998V95H25.9998V89Z" fill="#7462E0"/>
<path d="M56.5442 75.5687C58.8842 73.7273 60.3241 70.9722 60.4997 67.9997C60.4997 58.0818 54.7893 55.9998 49.9998 55.9998C45.2103 55.9998 39.4998 58.0818 39.4998 67.9997C39.6741 70.9739 41.1141 73.7309 43.4553 75.5732C39.4791 76.0632 36.494 79.4434 36.4998 83.4497V94.9997H39.4998V83.4497C39.4998 80.716 41.716 78.4997 44.4498 78.4997H47.7798L45.6033 83.9417C45.3803 84.4991 45.5114 85.1359 45.9363 85.5602L48.9363 88.5602C49.522 89.1458 50.4715 89.1458 51.0573 88.5602L54.0573 85.5602C54.4821 85.1359 54.6132 84.4991 54.3902 83.9417L52.2153 78.4997H55.5498C58.2835 78.4997 60.4997 80.716 60.4997 83.4497V94.9997H63.4997V83.4497C63.5078 79.4417 60.5221 76.0589 56.5442 75.5687ZM42.5778 66.4127C42.9843 61.3863 45.3498 58.9998 49.9998 58.9998C54.2568 58.9998 56.5998 61.0127 57.2703 65.2127L52.2723 62.2127C51.5618 61.7866 50.6404 62.017 50.2143 62.7274C50.158 62.8212 50.1123 62.9206 50.0778 63.0242C49.3188 65.3012 45.2223 66.1622 42.5778 66.4127ZM49.9998 85.3742L48.7593 84.1337L49.9998 81.0377L51.2403 84.1382L49.9998 85.3742ZM49.9998 75.4997C46.6542 74.9299 43.8711 72.61 42.7083 69.4217C45.2763 69.2102 49.9083 68.4317 52.0683 65.5907L57.4307 68.8082C56.8277 72.4802 52.3023 75.4997 49.9998 75.4997Z" fill="#7462E0"/>
<path d="M45.5002 89H42.5002V95H45.5002V89Z" fill="#7462E0"/>
<path d="M57.5002 89H54.5002V95H57.5002V89Z" fill="#7462E0"/>
<path d="M91.458 76.8362C90.4333 76.1562 89.2646 75.7238 88.044 75.5732C90.3851 73.7309 91.8251 70.9739 91.9995 67.9997C91.9995 58.0818 86.289 55.9998 81.4995 55.9998C76.71 55.9998 70.9995 58.0818 70.9995 67.9997C71.1739 70.9739 72.6139 73.7309 74.955 75.5732C70.9789 76.0632 67.9937 79.4434 67.9995 83.4497V94.9997H70.9995V83.4497C70.9995 80.716 73.2158 78.4997 75.9495 78.4997H79.2795L77.103 83.9417C76.8801 84.4991 77.0111 85.1359 77.436 85.5602L80.436 88.5602C81.0217 89.1458 81.9712 89.1458 82.557 88.5602L85.557 85.5602C85.9819 85.1359 86.1129 84.4991 85.89 83.9417L83.715 78.4997H87.0495C89.7832 78.4997 91.9995 80.716 91.9995 83.4497V94.9997H94.9995V83.4497C95.0006 80.7913 93.6712 78.3088 91.458 76.8362ZM74.0775 66.4127C74.484 61.3863 76.8495 58.9998 81.4995 58.9998C85.7565 58.9998 88.0995 61.0127 88.77 65.2127L83.772 62.2127C83.0615 61.7866 82.1402 62.017 81.714 62.7274C81.6577 62.8212 81.612 62.9206 81.5775 63.0242C80.8185 65.3012 76.722 66.1622 74.0775 66.4127ZM81.4995 85.3787L80.259 84.1382L81.4995 81.0377L82.74 84.1382L81.4995 85.3787ZM81.4995 75.4997C78.1539 74.9299 75.3709 72.61 74.208 69.4217C76.776 69.2102 81.408 68.4317 83.568 65.5907L88.9305 68.8082C88.3275 72.4802 83.802 75.4997 81.4995 75.4997Z" fill="#7462E0"/>
<path d="M77 89H74V95H77V89Z" fill="#7462E0"/>
<path d="M89 89H86V95H89V89Z" fill="#7462E0"/>
<path d="M90.4999 20H66.4999C64.0146 20 61.9999 22.0147 61.9999 24.5V26H49.9999V14C49.9999 11.5147 47.9852 9.5 45.4999 9.5H9.49999C7.01468 9.5 5 11.5147 5 14V32C5 34.4853 7.01468 36.5 9.49999 36.5H12.8L17.351 41.9599C17.8816 42.5961 18.8274 42.6818 19.4637 42.1512C19.5331 42.0933 19.5972 42.0293 19.655 41.9599L24.2 36.5H30.5V42.4999C30.5 44.9853 32.5146 46.9999 35 46.9999H44.2999L48.8509 52.4599C49.3816 53.0961 50.3273 53.1818 50.9637 52.6512C51.0331 52.5932 51.0972 52.5293 51.1549 52.4599L55.6999 46.9999H64.9999C67.4852 46.9999 69.4999 44.9853 69.4999 42.4999V40.9999H77.2999L81.8509 46.4599C82.3815 47.0961 83.3273 47.1818 83.9636 46.6512C84.033 46.5932 84.0971 46.5293 84.1549 46.4599L88.6999 40.9999H90.4999C92.9852 40.9999 94.9999 38.9853 94.9999 36.5V24.5C94.9999 22.0147 92.9852 20 90.4999 20ZM23.4995 33.5C23.0543 33.5001 22.6323 33.698 22.3475 34.04L18.5 38.6569L14.6525 34.04C14.3677 33.698 13.9456 33.5001 13.5005 33.5H9.49999C8.67162 33.5 8 32.8283 8 32V14C8 13.1716 8.67162 12.5 9.49999 12.5H45.4999C46.3283 12.5 46.9999 13.1716 46.9999 14V32C46.9999 32.8283 46.3283 33.5 45.4999 33.5H23.4995ZM66.4999 42.4999C66.4999 43.3283 65.8283 43.9999 64.9999 43.9999H54.9994C54.5543 44.0001 54.1322 44.1979 53.8474 44.5399L49.9999 49.1569L46.1524 44.5399C45.8676 44.1979 45.4456 44.0001 45.0004 43.9999H35C34.1716 43.9999 33.5 43.3283 33.5 42.4999V36.5H45.4999C47.9852 36.5 49.9999 34.4853 49.9999 32V29H64.9999C65.8283 29 66.4999 29.6716 66.4999 30.5V42.4999ZM91.9999 36.5C91.9999 37.3283 91.3282 38 90.4999 38H87.9994C87.5542 38.0001 87.1322 38.198 86.8474 38.5399L82.9999 43.1569L79.1524 38.5399C78.8676 38.198 78.4455 38.0001 78.0004 38H69.4999V30.5C69.4999 28.0147 67.4852 26 64.9999 26V24.5C64.9999 23.6716 65.6715 23 66.4999 23H90.4999C91.3282 23 91.9999 23.6716 91.9999 24.5V36.5Z" fill="#7462E0"/>
<path d="M13.9995 15.5H10.9995V18.5H13.9995V15.5Z" fill="#7462E0"/>
<path d="M20.0002 15.5H17.0002V18.5H20.0002V15.5Z" fill="#7462E0"/>
<path d="M25.9998 15.5H22.9998V18.5H25.9998V15.5Z" fill="#7462E0"/>
<path d="M56 32H53V35H56V32Z" fill="#7462E0"/>
<path d="M61.9997 32H58.9998V35H61.9997V32Z" fill="#7462E0"/>
<path d="M77 26H74V29H77V26Z" fill="#7462E0"/>
<path d="M82.9995 26H79.9995V29H82.9995V26Z" fill="#7462E0"/>
<path d="M89 26H86V29H89V26Z" fill="#7462E0"/>
<path d="M57.4995 5V8C62.4677 8.00581 66.4937 12.0318 66.4995 17H69.4995C69.492 10.3756 64.1239 5.0075 57.4995 5Z" fill="#7462E0"/>
<path d="M25.9998 44H22.9998C23.0073 50.6244 28.3754 55.9925 34.9997 56V53C30.0316 52.9942 26.0056 48.9682 25.9998 44Z" fill="#7462E0"/>
<path fill-rule="evenodd" clip-rule="evenodd" d="M90.0271 11.2754L87.2878 13.9776C86.9089 14.3545 86.903 14.9703 87.2767 15.3511C87.4642 15.5451 87.7129 15.6421 87.9648 15.6421C88.2082 15.6421 88.4543 15.5516 88.6438 15.3661L91.3831 12.6645C91.7626 12.287 91.7684 11.6712 91.3948 11.2903C91.2073 11.0963 90.9573 11 90.706 11C90.4613 11 90.2159 11.0918 90.0271 11.2754Z" fill="#F0BE59"/>
<path fill-rule="evenodd" clip-rule="evenodd" d="M86.6783 5.28317L78.2827 13.7315C77.9058 14.1104 77.9058 14.7262 78.2827 15.1051C78.4728 15.2939 78.7201 15.3883 78.9675 15.3883C79.2155 15.3883 79.4629 15.2939 79.6504 15.1051L88.0467 6.65739C88.4229 6.27852 88.4229 5.66269 88.0467 5.28317C87.8572 5.09439 87.6099 5 87.3618 5C87.1145 5 86.8671 5.09439 86.6783 5.28317Z" fill="#F0BE59"/>
<path fill-rule="evenodd" clip-rule="evenodd" d="M55.3669 9.31457C55.3669 9.03041 55.5973 8.80005 55.8814 8.80005C56.1656 8.80005 56.3959 9.03041 56.3959 9.31457V11.1171L57.5547 9.73616C57.7373 9.51848 58.0618 9.49008 58.2795 9.67274C58.4972 9.85539 58.5256 10.1799 58.3429 10.3976L57.1846 11.778L58.9591 11.4651C59.239 11.4158 59.5058 11.6027 59.5552 11.8825C59.6045 12.1623 59.4177 12.4292 59.1378 12.4785L57.3631 12.7915L58.9239 13.6926C59.17 13.8347 59.2543 14.1493 59.1122 14.3954C58.9701 14.6415 58.6555 14.7258 58.4094 14.5838L56.8486 13.6826L57.465 15.3762C57.5622 15.6432 57.4245 15.9384 57.1575 16.0356C56.8904 16.1328 56.5952 15.9951 56.498 15.7281L55.8815 14.0345L55.2651 15.7281C55.1679 15.9951 54.8727 16.1328 54.6056 16.0356C54.3386 15.9384 54.2009 15.6432 54.2981 15.3762L54.9145 13.6827L53.3539 14.5837C53.1079 14.7258 52.7932 14.6415 52.6511 14.3954C52.509 14.1493 52.5933 13.8346 52.8394 13.6925L54.4001 12.7915L52.6255 12.4786C52.3456 12.4292 52.1588 12.1624 52.2081 11.8825C52.2574 11.6027 52.5243 11.4158 52.8041 11.4652L54.5789 11.7781L53.4205 10.3976C53.2378 10.1799 53.2662 9.85539 53.4839 9.67273C53.7016 9.49008 54.0261 9.51847 54.2088 9.73615L55.3669 11.1164V9.31457ZM55.622 11.817C55.5923 11.9002 55.5407 11.9768 55.4682 12.0376C55.3957 12.0985 55.3113 12.1359 55.2242 12.1507C55.255 12.2335 55.2648 12.3253 55.2483 12.4186C55.2319 12.5119 55.1913 12.5948 55.1341 12.6621C55.2108 12.7058 55.2773 12.7698 55.3246 12.8518C55.372 12.9339 55.3942 13.0235 55.3936 13.1118C55.4805 13.096 55.5726 13.1023 55.6615 13.1347C55.7505 13.1671 55.8252 13.2215 55.8815 13.2896C55.9379 13.2215 56.0126 13.1671 56.1016 13.1347C56.1906 13.1023 56.2828 13.096 56.3697 13.1119C56.3692 13.0236 56.3914 12.9339 56.4387 12.8519C56.4861 12.7699 56.5526 12.7059 56.6293 12.6622C56.572 12.5948 56.5314 12.5119 56.515 12.4186C56.4985 12.3253 56.5083 12.2335 56.539 12.1507C56.452 12.1359 56.3677 12.0984 56.2952 12.0376C56.2226 11.9767 56.171 11.9 56.1414 11.8167C56.0651 11.8615 55.9762 11.8871 55.8814 11.8871C55.7868 11.8871 55.6981 11.8616 55.622 11.817Z" fill="#F0BE59"/>
<path fill-rule="evenodd" clip-rule="evenodd" d="M5.27841 4C6.53675 4 7.55683 5.02008 7.55683 6.27842C7.55683 7.53675 6.53675 8.55684 5.27841 8.55684C4.02008 8.55684 3 7.53675 3 6.27842C3 5.02008 4.02008 4 5.27841 4ZM5.27829 4.65098C4.37948 4.65098 3.65085 5.37961 3.65085 6.27842C3.65085 7.17723 4.37948 7.90586 5.27829 7.90586C6.1771 7.90586 6.90573 7.17723 6.90573 6.27842C6.90573 5.37961 6.1771 4.65098 5.27829 4.65098Z" fill="#F0BE59"/>
<path fill-rule="evenodd" clip-rule="evenodd" d="M8 44C10.7614 44 13 46.2386 13 49C13 51.7614 10.7614 54 8 54C5.23858 54 3 51.7614 3 49C3 46.2386 5.23858 44 8 44ZM7.99979 45.4284C6.02734 45.4284 4.42836 47.0273 4.42836 48.9998C4.42836 50.9722 6.02734 52.5712 7.99979 52.5712C9.97223 52.5712 11.5712 50.9722 11.5712 48.9998C11.5712 47.0273 9.97223 45.4284 7.99979 45.4284Z" fill="#F0BE59"/>
<path fill-rule="evenodd" clip-rule="evenodd" d="M82.0246 93.5041C82.0246 93.2257 81.7989 93 81.5205 93C81.2421 93 81.0164 93.2257 81.0164 93.5041V95.0164H79.5041C79.2257 95.0164 79 95.2421 79 95.5206C79 95.799 79.2257 96.0247 79.5041 96.0247H81.0164V97.537C81.0164 97.8154 81.2421 98.0411 81.5205 98.0411C81.7989 98.0411 82.0246 97.8154 82.0246 97.537V96.0247H83.537C83.8154 96.0247 84.0411 95.799 84.0411 95.5206C84.0411 95.2421 83.8154 95.0164 83.537 95.0164H82.0246V93.5041Z" fill="#F0BE59"/>
<path fill-rule="evenodd" clip-rule="evenodd" d="M75.15 46.6001C77.4419 46.6001 79.2999 48.4581 79.2999 50.7501C79.2999 53.042 77.4419 54.9 75.15 54.9C72.858 54.9 71 53.042 71 50.7501C71 48.4581 72.858 46.6001 75.15 46.6001ZM75.1498 47.7858C73.5127 47.7858 72.1856 49.1129 72.1856 50.75C72.1856 52.3872 73.5127 53.7143 75.1498 53.7143C76.787 53.7143 78.1141 52.3872 78.1141 50.75C78.1141 49.1129 76.787 47.7858 75.1498 47.7858Z" fill="#F0BE59"/>
</svg>
