<?xml version="1.0" encoding="UTF-8"?>
<svg width="472px" height="73px" viewBox="0 0 472 73" version="1.1" xmlns="http://www.w3.org/2000/svg" xmlns:xlink="http://www.w3.org/1999/xlink">
    <defs>
        <linearGradient x1="96.1475817%" y1="-445.563594%" x2="50%" y2="100%" id="linearGradient-1">
            <stop stop-color="#529CFB" offset="0%"></stop>
            <stop stop-color="#8380E5" offset="100%"></stop>
        </linearGradient>
        <linearGradient x1="31.4296206%" y1="-39.2040706%" x2="50%" y2="100%" id="linearGradient-2">
            <stop stop-color="#529CFB" offset="0%"></stop>
            <stop stop-color="#8380E5" offset="100%"></stop>
        </linearGradient>
    </defs>
    <g id="Page-1" stroke="none" stroke-width="1" fill="none" fill-rule="evenodd">
        <g id="Group-14" transform="translate(0.000000, -0.704800)">
            <rect id="Rectangle-3" fill="url(#linearGradient-1)" x="72" y="36" width="400" height="4"></rect>
            <path d="M61.7119,11.2955 C69.2919,18.8755 72.8059,28.9805 72.2339,38.9005 C71.7599,47.4645 68.2459,55.8855 61.7119,62.4195 C55.1779,68.9535 46.7639,72.4605 38.2079,72.9415 C28.2799,73.5065 18.1679,69.9995 10.5879,62.4195 C-3.5331,48.2985 -3.5261,25.4095 10.5879,11.2955 C24.7089,-2.8255 47.5909,-2.8255 61.7119,11.2955" id="Fill-5" fill="url(#linearGradient-2)"></path>
            <path d="M19.136,19.84 C9.739,29.237 9.739,44.472 19.136,53.87 C28.533,63.266 43.769,63.266 53.166,53.87 C62.564,44.472 62.564,29.237 53.166,19.84 C48.467,15.141 42.309,12.791 36.151,12.791 C29.993,12.791 23.834,15.141 19.136,19.84" id="Fill-12" fill="#FFFFFF"></path>
            <path d="M36.2,36.71 C36.2,37.9833397 36.0633347,39.086662 35.79,40.02 C35.5166653,40.953338 35.1383357,41.7266636 34.655,42.34 C34.1716642,42.9533364 33.5983367,43.4099985 32.935,43.71 C32.2716633,44.0100015 31.5533372,44.16 30.78,44.16 C30.0066628,44.16 29.2916699,44.0100015 28.635,43.71 C27.9783301,43.4099985 27.4100024,42.9533364 26.93,42.34 C26.4499976,41.7266636 26.0750014,40.953338 25.805,40.02 C25.5349986,39.086662 25.4,37.9833397 25.4,36.71 C25.4,35.4366603 25.5349986,34.333338 25.805,33.4 C26.0750014,32.466662 26.4499976,31.6933364 26.93,31.08 C27.4100024,30.4666636 27.9783301,30.0116681 28.635,29.715 C29.2916699,29.4183319 30.0066628,29.27 30.78,29.27 C31.5533372,29.27 32.2716633,29.4183319 32.935,29.715 C33.5983367,30.0116681 34.1716642,30.4666636 34.655,31.08 C35.1383357,31.6933364 35.5166653,32.466662 35.79,33.4 C36.0633347,34.333338 36.2,35.4366603 36.2,36.71 Z M33,36.71 C33,35.7033283 32.9366673,34.8783366 32.81,34.235 C32.6833327,33.5916634 32.5150011,33.0866685 32.305,32.72 C32.0949989,32.3533315 31.856668,32.1016673 31.59,31.965 C31.323332,31.8283327 31.0533347,31.76 30.78,31.76 C30.5066653,31.76 30.2383346,31.8283327 29.975,31.965 C29.7116654,32.1016673 29.4783344,32.3533315 29.275,32.72 C29.0716656,33.0866685 28.9083339,33.5916634 28.785,34.235 C28.6616661,34.8783366 28.6,35.7033283 28.6,36.71 C28.6,37.7233384 28.6616661,38.5499968 28.785,39.19 C28.9083339,39.8300032 29.0716656,40.3349982 29.275,40.705 C29.4783344,41.0750018 29.7116654,41.3283327 29.975,41.465 C30.2383346,41.6016673 30.5066653,41.67 30.78,41.67 C31.0533347,41.67 31.323332,41.6016673 31.59,41.465 C31.856668,41.3283327 32.0949989,41.0750018 32.305,40.705 C32.5150011,40.3349982 32.6833327,39.8300032 32.81,39.19 C32.9366673,38.5499968 33,37.7233384 33,36.71 Z M42.9,29.27 C43.6200036,29.27 44.2599972,29.3716657 44.82,29.575 C45.3800028,29.7783343 45.8533314,30.0533316 46.24,30.4 C46.6266686,30.7466684 46.919999,31.1483311 47.12,31.605 C47.320001,32.0616689 47.42,32.5433308 47.42,33.05 C47.42,33.5100023 47.3733338,33.9149982 47.28,34.265 C47.1866662,34.6150018 47.0483343,34.9183321 46.865,35.175 C46.6816658,35.431668 46.4550014,35.6499991 46.185,35.83 C45.9149987,36.0100009 45.6066684,36.1599994 45.26,36.28 C46.8733414,36.8400028 47.68,37.9366585 47.68,39.57 C47.68,40.3433372 47.5400014,41.0166638 47.26,41.59 C46.9799986,42.1633362 46.6050023,42.6399981 46.135,43.02 C45.6649977,43.4000019 45.1200031,43.6849991 44.5,43.875 C43.8799969,44.0650009 43.2333367,44.16 42.56,44.16 C41.8666632,44.16 41.2500027,44.0850007 40.71,43.935 C40.1699973,43.7849992 39.6900021,43.5516682 39.27,43.235 C38.8499979,42.9183318 38.4816682,42.5133358 38.165,42.02 C37.8483317,41.5266642 37.5733345,40.9400034 37.34,40.26 L38.72,39.7 C38.8400006,39.6466664 38.9583327,39.6100001 39.075,39.59 C39.1916672,39.5699999 39.3066661,39.56 39.42,39.56 C39.6333344,39.56 39.8249991,39.6016662 39.995,39.685 C40.1650008,39.7683337 40.2933329,39.8899992 40.38,40.05 C40.6800015,40.6033361 40.9983316,41.0049987 41.335,41.255 C41.6716684,41.5050012 42.0666644,41.63 42.52,41.63 C42.8666684,41.63 43.1683321,41.5716672 43.425,41.455 C43.6816679,41.3383327 43.8949991,41.1883342 44.065,41.005 C44.2350008,40.8216658 44.3633329,40.6133345 44.45,40.38 C44.5366671,40.1466655 44.58,39.9100012 44.58,39.67 C44.58,39.3566651 44.5583336,39.0750012 44.515,38.825 C44.4716665,38.5749987 44.350001,38.3600009 44.15,38.18 C43.949999,37.9999991 43.6483354,37.8616672 43.245,37.765 C42.8416646,37.6683328 42.2800036,37.62 41.56,37.62 L41.56,35.48 C42.1666697,35.48 42.6566648,35.4333338 43.03,35.34 C43.4033352,35.2466662 43.6916657,35.1183341 43.895,34.955 C44.0983344,34.7916659 44.233333,34.5933345 44.3,34.36 C44.366667,34.1266655 44.4,33.8700014 44.4,33.59 C44.4,33.0166638 44.261668,32.5750015 43.985,32.265 C43.708332,31.9549984 43.2866695,31.8 42.72,31.8 C42.4866655,31.8 42.2733343,31.833333 42.08,31.9 C41.8866657,31.966667 41.7133341,32.0566661 41.56,32.17 C41.4066659,32.2833339 41.2750006,32.4166659 41.165,32.57 C41.0549994,32.7233341 40.966667,32.8899991 40.9,33.07 C40.7933328,33.3700015 40.6583342,33.586666 40.495,33.72 C40.3316659,33.853334 40.1100014,33.92 39.83,33.92 C39.763333,33.92 39.691667,33.9166667 39.615,33.91 C39.5383329,33.9033333 39.4600004,33.8933334 39.38,33.88 L37.74,33.59 C37.8466672,32.8633297 38.0516651,32.2300027 38.355,31.69 C38.6583349,31.1499973 39.0349978,30.7000018 39.485,30.34 C39.9350022,29.9799982 40.4499971,29.7116675 41.03,29.535 C41.6100029,29.3583324 42.23333,29.27 42.9,29.27 Z" id="03" fill="#529CFB"></path>
        </g>
    </g>
</svg>
