<?xml version="1.0" encoding="UTF-8"?>
<svg width="357px" height="83px" viewBox="0 0 357 83" version="1.1" xmlns="http://www.w3.org/2000/svg" xmlns:xlink="http://www.w3.org/1999/xlink">
    <g id="Page-1" stroke="none" stroke-width="1" fill="none" fill-rule="evenodd">
        <g id="Group" transform="translate(1.000000, 0.000000)">
            <path d="M177.41339,9.76560385 L177.447077,10.0884177 C183.102378,9.56590519 188.768343,9.13257848 194.407407,8.46998608 C196.251469,8.25332273 198.074688,7.56285976 199.814296,6.85858268 C201.020243,6.3702419 200.965956,5.50819318 199.856708,4.81724551 C199.483485,4.58482923 199.079725,4.35653294 198.658758,4.25353302 C196.744172,3.78579223 194.838794,3.21335504 192.893187,2.94991761 C182.562901,1.55178463 172.214196,1.53045758 161.889485,2.96663995 C159.599736,3.28533381 157.367909,4.06522494 155.138749,4.73096793 C154.731839,4.85262901 154.215627,5.44542382 154.208114,5.82931057 C154.201086,6.20738085 154.701545,6.75752158 155.111363,6.94849555 C156.089741,7.40460341 157.123133,7.7918831 158.174217,8.03350879 C164.506167,9.48859467 170.955416,9.68853568 177.41339,9.76560385 M176.103715,0 C184.556252,0.149046938 191.611868,0.448594931 198.497351,2.24612524 C200.0804,2.65957902 201.605525,3.34495258 203.100842,4.02838732 C204.125025,4.49661283 204.668137,5.37344506 204.536055,6.58642055 C204.475224,7.14504362 204.489038,7.71845022 204.532177,8.28046623 C204.708368,10.5774855 203.853589,12.3788935 202.209468,13.9941745 C196.708303,19.3976713 191.325891,24.9225869 185.809701,30.3105731 C183.97921,32.0986516 183.039851,34.0365042 183.164178,36.6325868 C183.311044,39.6939867 183.154969,42.7687159 183.21895,45.8359323 C183.24682,47.1751735 182.758479,48.1920857 181.770165,49.0010591 C179.549487,50.8194318 176.989272,51.8785133 174.130237,51.9931461 C172.221709,52.0697296 171.546757,51.5203159 171.581656,49.5458681 C171.66139,45.0252623 171.561783,40.5017484 171.626976,35.9809003 C171.657027,33.8971514 170.931181,32.2571503 169.465674,30.8054574 C163.843817,25.2364337 158.295636,19.5927653 152.649059,14.0491886 C150.973432,12.4040982 150.189421,10.582575 150.253645,8.23538862 C150.352767,4.60252098 150.577913,4.16168133 154.037498,2.92640939 C157.982758,1.51785524 162.102755,0.94566041 166.24117,0.580434824 C169.97728,0.250835091 173.732051,0.133536362 176.103715,0" id="Fill-1" fill="#FFFFFF"></path>
            <path d="M0,50 C100.503825,90 218.641845,90 354.414063,50" id="Path-3-Copy" stroke="#FFFFFF" stroke-width="5" transform="translate(177.207031, 65.000000) scale(1, -1) translate(-177.207031, -65.000000) "></path>
        </g>
    </g>
</svg>
