<?xml version="1.0" encoding="UTF-8"?>
<svg width="89px" height="127px" viewBox="0 0 89 127" version="1.1" xmlns="http://www.w3.org/2000/svg" xmlns:xlink="http://www.w3.org/1999/xlink">
    <defs>
        <polygon id="path-1" points="0 0 89 0 89 126 0 126"></polygon>
    </defs>
    <g id="Page-1" stroke="none" stroke-width="1" fill="none" fill-rule="evenodd">
        <g id="Group-19" transform="translate(-327.000000, 0.000000)">
            <g id="Page-1" transform="translate(227.000000, 0.000000)">
                <g transform="translate(100.000000, 0.000000)" id="Group-3">
                    <g transform="translate(0.000000, 0.563000)">
                        <mask id="mask-2" fill="white">
                            <use xlink:href="#path-1"></use>
                        </mask>
                        <g id="Clip-2"></g>
                        <path d="M71.7631657,14.1367685 C74.7697599,13.7835164 77.7423724,12.6577723 80.5786627,11.5095054 C82.5448623,10.7133052 82.4563517,9.3078044 80.6478116,8.18127003 C80.0393013,7.80233405 76.2570429,5.96796627 69.2943524,5.13674271 C51.693813,3.03554593 33.45881,2.50071635 18.7453205,5.16400713 C11.0263815,6.56121336 6.22146675,8.76982671 6.22146675,9.83136037 C6.22146675,10.892894 7.02596482,11.3447335 7.69414077,11.6561011 C9.28930713,12.3997481 10.9741695,13.0311764 12.6878768,13.4251275 C23.0116101,15.7975275 33.5265895,16.1235152 44.0557939,16.2491686 C56.3980165,15.5611041 65.6338072,14.8569708 71.7631657,14.1367685 Z M78.4314906,3.98926609 C81.0125227,4.66336909 83.4991172,5.78081533 85.9371098,6.89510047 C87.606957,7.65850434 88.4924581,9.08810847 88.2771086,11.065767 C88.1779294,11.9765568 88.2004521,12.91145 88.2707864,13.8277717 C88.5580507,17.5728762 87.164404,20.5099263 84.4837975,23.1435116 C75.5145924,31.9534767 66.7390042,40.9614052 57.7453006,49.7460816 C54.760834,52.6613992 53.4319897,54.8722131 53.4319897,60.0536143 C53.4319897,63.5078817 53.4617566,85.5170334 53.5212906,126.081069 L34.621513,126.081069 C34.5343195,98.2449258 34.5096894,83.2537949 34.5476225,81.1076765 C34.6776224,73.7371939 34.5152213,66.3619697 34.621513,58.991092 C34.6705099,55.5937078 33.4870759,52.9198186 31.097685,50.5529505 C21.9317019,41.4731071 12.8858402,32.2715616 3.67955316,23.2332076 C0.947578873,20.5510205 -0.33068795,17.581174 -0.225976757,13.7542763 C-0.0643658977,7.83117902 0.302715981,7.11242559 5.9432906,5.09841446 C12.3757189,2.80188068 19.0930407,1.86896323 25.8403929,1.27349241 C31.9318183,0.736106664 38.0536693,0.544860561 41.9204758,0.327140308 C55.7016542,0.570149302 67.2052653,1.05853811 78.4314906,3.98926609 Z" id="Fill-1" fill="#FFFFFF" mask="url(#mask-2)"></path>
                    </g>
                </g>
            </g>
        </g>
    </g>
</svg>
