<?xml version="1.0" encoding="UTF-8"?>
<svg width="352px" height="78px" viewBox="0 0 352 78" version="1.1" xmlns="http://www.w3.org/2000/svg" xmlns:xlink="http://www.w3.org/1999/xlink">
    <defs>
        <linearGradient x1="31.4296206%" y1="-39.2040706%" x2="50%" y2="100%" id="linearGradient-1">
            <stop stop-color="#529CFB" offset="0%"></stop>
            <stop stop-color="#8380E5" offset="100%"></stop>
        </linearGradient>
        <path d="M156.877,22.52955 L156.877,24.21955 L152.99,24.21955 L152.99,26.61805 L156.227,26.61805 L156.227,28.31455 L152.99,28.31455 L152.99,32.00005 L150.78,32.00005 L150.78,22.52955 L156.877,22.52955 Z M160.101,25.25955 L160.101,32.00005 L158.086,32.00005 L158.086,25.25955 L160.101,25.25955 Z M160.335,23.41355 C160.335,23.5738841 160.3025,23.724466 160.2375,23.8653 C160.1725,24.006134 160.083667,24.1296328 159.971,24.2358 C159.858333,24.3419672 159.727251,24.4264664 159.57775,24.4893 C159.428249,24.5521336 159.269001,24.58355 159.1,24.58355 C158.935333,24.58355 158.781501,24.5521336 158.6385,24.4893 C158.495499,24.4264664 158.368751,24.3419672 158.25825,24.2358 C158.147749,24.1296328 158.061084,24.006134 157.99825,23.8653 C157.935416,23.724466 157.904,23.5738841 157.904,23.41355 C157.904,23.2488825 157.935416,23.0950507 157.99825,22.95205 C158.061084,22.8090493 158.147749,22.6833839 158.25825,22.57505 C158.368751,22.4667161 158.495499,22.382217 158.6385,22.32155 C158.781501,22.260883 158.935333,22.23055 159.1,22.23055 C159.269001,22.23055 159.428249,22.260883 159.57775,22.32155 C159.727251,22.382217 159.858333,22.4667161 159.971,22.57505 C160.083667,22.6833839 160.1725,22.8090493 160.2375,22.95205 C160.3025,23.0950507 160.335,23.2488825 160.335,23.41355 Z M161.726,32.00005 L161.726,25.25955 L162.974,25.25955 C163.099667,25.25955 163.20475,25.2877164 163.28925,25.34405 C163.37375,25.4003836 163.433333,25.4848828 163.468,25.59755 L163.585,25.98755 C163.715001,25.8662161 163.849333,25.7535505 163.988,25.64955 C164.126667,25.5455495 164.275083,25.4578004 164.43325,25.3863 C164.591417,25.3147996 164.762582,25.2584669 164.94675,25.2173 C165.130918,25.1761331 165.331332,25.15555 165.548,25.15555 C165.916335,25.15555 166.242415,25.219466 166.52625,25.3473 C166.810085,25.475134 167.049499,25.6527989 167.2445,25.8803 C167.439501,26.1078011 167.586833,26.3786318 167.6865,26.6928 C167.786167,27.0069682 167.836,27.3482148 167.836,27.71655 L167.836,32.00005 L165.821,32.00005 L165.821,27.71655 C165.821,27.387215 165.745167,27.1304676 165.5935,26.9463 C165.441833,26.7621324 165.218668,26.67005 164.924,26.67005 C164.702999,26.67005 164.495001,26.7177162 164.3,26.81305 C164.104999,26.9083838 163.918668,27.0362159 163.741,27.19655 L163.741,32.00005 L161.726,32.00005 Z M171.346,25.25955 L171.346,32.00005 L169.331,32.00005 L169.331,25.25955 L171.346,25.25955 Z M171.58,23.41355 C171.58,23.5738841 171.5475,23.724466 171.4825,23.8653 C171.4175,24.006134 171.328667,24.1296328 171.216,24.2358 C171.103333,24.3419672 170.972251,24.4264664 170.82275,24.4893 C170.673249,24.5521336 170.514001,24.58355 170.345,24.58355 C170.180333,24.58355 170.026501,24.5521336 169.8835,24.4893 C169.740499,24.4264664 169.613751,24.3419672 169.50325,24.2358 C169.392749,24.1296328 169.306084,24.006134 169.24325,23.8653 C169.180416,23.724466 169.149,23.5738841 169.149,23.41355 C169.149,23.2488825 169.180416,23.0950507 169.24325,22.95205 C169.306084,22.8090493 169.392749,22.6833839 169.50325,22.57505 C169.613751,22.4667161 169.740499,22.382217 169.8835,22.32155 C170.026501,22.260883 170.180333,22.23055 170.345,22.23055 C170.514001,22.23055 170.673249,22.260883 170.82275,22.32155 C170.972251,22.382217 171.103333,22.4667161 171.216,22.57505 C171.328667,22.6833839 171.4175,22.8090493 171.4825,22.95205 C171.5475,23.0950507 171.58,23.2488825 171.58,23.41355 Z M177.092,26.73505 C177.04,26.8173837 176.98475,26.8758832 176.92625,26.91055 C176.86775,26.9452168 176.793,26.96255 176.702,26.96255 C176.606666,26.96255 176.511334,26.9419669 176.416,26.9008 C176.320666,26.8596331 176.217751,26.8152169 176.10725,26.76755 C175.996749,26.7198831 175.872167,26.6754669 175.7335,26.6343 C175.594833,26.5931331 175.436668,26.57255 175.259,26.57255 C175.003332,26.57255 174.807251,26.6212995 174.67075,26.7188 C174.534249,26.8163005 174.466,26.9517158 174.466,27.12505 C174.466,27.2507173 174.510416,27.3547163 174.59925,27.43705 C174.688084,27.5193837 174.806166,27.5919664 174.9535,27.6548 C175.100834,27.7176336 175.267666,27.7772164 175.454,27.83355 C175.640334,27.8898836 175.830999,27.9527163 176.026,28.02205 C176.221001,28.0913837 176.411666,28.1726329 176.598,28.2658 C176.784334,28.3589671 176.951166,28.4737993 177.0985,28.6103 C177.245834,28.7468007 177.363916,28.912549 177.45275,29.10755 C177.541584,29.302551 177.586,29.5365486 177.586,29.80955 C177.586,30.1432183 177.525334,30.4508819 177.404,30.73255 C177.282666,31.0142181 177.101751,31.2568823 176.86125,31.46055 C176.620749,31.6642177 176.323918,31.8223828 175.97075,31.93505 C175.617582,32.0477172 175.211336,32.10405 174.752,32.10405 C174.522332,32.10405 174.292668,32.0823836 174.063,32.03905 C173.833332,31.9957165 173.611251,31.937217 173.39675,31.86355 C173.182249,31.789883 172.984001,31.7021338 172.802,31.6003 C172.619999,31.4984662 172.464001,31.3890506 172.334,31.27205 L172.802,30.53105 C172.858334,30.4443829 172.9255,30.3761336 173.0035,30.3263 C173.0815,30.2764664 173.183333,30.25155 173.309,30.25155 C173.426001,30.25155 173.531083,30.2775497 173.62425,30.32955 C173.717417,30.3815503 173.818166,30.437883 173.9265,30.49855 C174.034834,30.559217 174.161583,30.6155497 174.30675,30.66755 C174.451917,30.7195503 174.634999,30.74555 174.856,30.74555 C175.012001,30.74555 175.144166,30.7293002 175.2525,30.6968 C175.360834,30.6642998 175.4475,30.6198836 175.5125,30.56355 C175.5775,30.5072164 175.625167,30.4443837 175.6555,30.37505 C175.685833,30.3057163 175.701,30.234217 175.701,30.16055 C175.701,30.026216 175.6555,29.9157171 175.5645,29.82905 C175.4735,29.7423829 175.354334,29.6676336 175.207,29.6048 C175.059666,29.5419664 174.891751,29.4834669 174.70325,29.4293 C174.514749,29.3751331 174.323001,29.3133837 174.128,29.24405 C173.932999,29.1747163 173.741251,29.0913005 173.55275,28.9938 C173.364249,28.8962995 173.196334,28.7728007 173.049,28.6233 C172.901666,28.4737993 172.7825,28.2907178 172.6915,28.07405 C172.6005,27.8573823 172.555,27.5952182 172.555,27.28755 C172.555,27.0015486 172.610249,26.7296346 172.72075,26.4718 C172.831251,26.2139654 172.996999,25.987551 173.218,25.79255 C173.439001,25.597549 173.716332,25.4426339 174.05,25.3278 C174.383668,25.2129661 174.773664,25.15555 175.22,25.15555 C175.462668,25.15555 175.697749,25.1772165 175.92525,25.22055 C176.152751,25.2638836 176.366166,25.3245496 176.5655,25.40255 C176.764834,25.4805504 176.946833,25.5726328 177.1115,25.6788 C177.276167,25.7849672 177.421333,25.9008827 177.547,26.02655 L177.092,26.73505 Z M178.691,32.00005 L178.691,22.26955 L180.706,22.26955 L180.706,25.85105 C180.948668,25.643049 181.211915,25.475134 181.49575,25.3473 C181.779585,25.219466 182.118665,25.15555 182.513,25.15555 C182.881335,25.15555 183.207415,25.219466 183.49125,25.3473 C183.775085,25.475134 184.014499,25.6527989 184.2095,25.8803 C184.404501,26.1078011 184.551833,26.3786318 184.6515,26.6928 C184.751167,27.0069682 184.801,27.3482148 184.801,27.71655 L184.801,32.00005 L182.786,32.00005 L182.786,27.71655 C182.786,27.387215 182.710167,27.1304676 182.5585,26.9463 C182.406833,26.7621324 182.183668,26.67005 181.889,26.67005 C181.667999,26.67005 181.460001,26.7177162 181.265,26.81305 C181.069999,26.9083838 180.883668,27.0362159 180.706,27.19655 L180.706,32.00005 L178.691,32.00005 Z M189.117,25.15555 C189.563336,25.15555 189.971748,25.2248826 190.34225,25.36355 C190.712752,25.5022174 191.031249,25.7037153 191.29775,25.96805 C191.564251,26.2323847 191.772249,26.5562981 191.92175,26.9398 C192.071251,27.3233019 192.146,27.7577142 192.146,28.24305 C192.146,28.3947174 192.1395,28.5182162 192.1265,28.61355 C192.1135,28.7088838 192.089667,28.7847164 192.055,28.84105 C192.020333,28.8973836 191.97375,28.9363832 191.91525,28.95805 C191.85675,28.9797168 191.782,28.99055 191.691,28.99055 L187.804,28.99055 C187.869,29.5538862 188.040165,29.9622987 188.3175,30.2158 C188.594835,30.4693013 188.952331,30.59605 189.39,30.59605 C189.624001,30.59605 189.825499,30.5678836 189.9945,30.51155 C190.163501,30.4552164 190.314083,30.3923837 190.44625,30.32305 C190.578417,30.2537163 190.699749,30.1908836 190.81025,30.13455 C190.920751,30.0782164 191.036666,30.05005 191.158,30.05005 C191.318334,30.05005 191.439666,30.1085494 191.522,30.22555 L192.107,30.94705 C191.898999,31.1853845 191.674751,31.3792993 191.43425,31.5288 C191.193749,31.6783007 190.946751,31.7952996 190.69325,31.8798 C190.439749,31.9643004 190.186251,32.0227998 189.93275,32.0553 C189.679249,32.0878002 189.437668,32.10405 189.208,32.10405 C188.735664,32.10405 188.292585,32.0271341 187.87875,31.8733 C187.464915,31.7194659 187.103085,31.4908849 186.79325,31.18755 C186.483415,30.8842152 186.238584,30.5072189 186.05875,30.05655 C185.878916,29.6058811 185.789,29.081553 185.789,28.48355 C185.789,28.0328811 185.865916,27.606052 186.01975,27.20305 C186.173584,26.800048 186.394582,26.4468849 186.68275,26.14355 C186.970918,25.8402151 187.319748,25.5997176 187.72925,25.42205 C188.138752,25.2443824 188.601331,25.15555 189.117,25.15555 Z M189.156,26.54655 C188.770331,26.54655 188.469168,26.6559656 188.2525,26.8748 C188.035832,27.0936344 187.892834,27.4088813 187.8235,27.82055 L190.339,27.82055 C190.339,27.6602159 190.318417,27.5042174 190.27725,27.35255 C190.236083,27.2008826 190.168917,27.0654673 190.07575,26.9463 C189.982583,26.8271327 189.860167,26.730717 189.7085,26.65705 C189.556833,26.583383 189.372668,26.54655 189.156,26.54655 Z M198.035,32.00005 C197.909333,32.00005 197.80425,31.9718836 197.71975,31.91555 C197.63525,31.8592164 197.575667,31.7747172 197.541,31.66205 L197.385,31.14855 C197.250666,31.2915507 197.109834,31.4215494 196.9625,31.53855 C196.815166,31.6555506 196.655918,31.7562996 196.48475,31.8408 C196.313582,31.9253004 196.129418,31.9902998 195.93225,32.0358 C195.735082,32.0813002 195.521668,32.10405 195.292,32.10405 C194.940998,32.10405 194.616001,32.0260508 194.317,31.87005 C194.017999,31.7140492 193.760168,31.4887181 193.5435,31.19405 C193.326832,30.8993819 193.156751,30.5386355 193.03325,30.1118 C192.909749,29.6849645 192.848,29.1985527 192.848,28.65255 C192.848,28.1498808 192.917333,27.6829688 193.056,27.2518 C193.194667,26.8206312 193.390749,26.4479682 193.64425,26.1338 C193.897751,25.8196318 194.202165,25.5737176 194.5575,25.39605 C194.912835,25.2183824 195.304998,25.12955 195.734,25.12955 C196.080668,25.12955 196.374249,25.1804662 196.61475,25.2823 C196.855251,25.3841338 197.072999,25.5173825 197.268,25.68205 L197.268,22.26955 L199.283,22.26955 L199.283,32.00005 L198.035,32.00005 Z M195.994,30.55705 C196.141334,30.55705 196.274583,30.5429668 196.39375,30.5148 C196.512917,30.4866332 196.622333,30.4465503 196.722,30.39455 C196.821667,30.3425497 196.915916,30.2775504 197.00475,30.19955 C197.093584,30.1215496 197.181333,30.0305505 197.268,29.92655 L197.268,27.06655 C197.111999,26.8975492 196.946251,26.779467 196.77075,26.7123 C196.595249,26.645133 196.410001,26.61155 196.215,26.61155 C196.028666,26.61155 195.857501,26.648383 195.7015,26.72205 C195.545499,26.795717 195.410084,26.9137992 195.29525,27.0763 C195.180416,27.2388008 195.0905,27.4500487 195.0255,27.71005 C194.9605,27.9700513 194.928,28.2842148 194.928,28.65255 C194.928,29.0078851 194.954,29.3068821 195.006,29.54955 C195.058,29.7922179 195.130583,29.9882993 195.22375,30.1378 C195.316917,30.2873007 195.428499,30.3945497 195.5585,30.45955 C195.688501,30.5245503 195.833666,30.55705 195.994,30.55705 Z" id="path-2"></path>
        <path d="M152.301,49.13855 L152.301,40.25955 L153.549,40.25955 C153.674667,40.25955 153.77975,40.2877164 153.86425,40.34405 C153.94875,40.4003836 154.008333,40.4848828 154.043,40.59755 L154.1925,41.09155 C154.322501,40.9485493 154.462249,40.8185506 154.61175,40.70155 C154.761251,40.5845494 154.921582,40.4838004 155.09275,40.3993 C155.263918,40.3147996 155.448082,40.2487169 155.64525,40.20105 C155.842418,40.1533831 156.057999,40.12955 156.292,40.12955 C156.643002,40.12955 156.967999,40.2075492 157.267,40.36355 C157.566001,40.5195508 157.823832,40.7448819 158.0405,41.03955 C158.257168,41.3342181 158.427249,41.6949645 158.55075,42.1218 C158.674251,42.5486355 158.736,43.0328806 158.736,43.57455 C158.736,44.0815525 158.665584,44.5495479 158.52475,44.97855 C158.383916,45.4075521 158.186751,45.7802151 157.93325,46.09655 C157.679749,46.4128849 157.376418,46.6598824 157.02325,46.83755 C156.670082,47.0152176 156.279002,47.10405 155.85,47.10405 C155.498998,47.10405 155.204335,47.0542172 154.966,46.95455 C154.727665,46.8548828 154.511001,46.7205508 154.316,46.55155 L154.316,49.13855 L152.301,49.13855 Z M155.59,41.67005 C155.442666,41.67005 155.309417,41.6841332 155.19025,41.7123 C155.071083,41.7404668 154.960584,41.7805497 154.85875,41.83255 C154.756916,41.8845503 154.662667,41.9506329 154.576,42.0308 C154.489333,42.1109671 154.402667,42.2030495 154.316,42.30705 L154.316,45.16705 C154.467667,45.3360508 154.632332,45.454133 154.81,45.5213 C154.987668,45.588467 155.173999,45.62205 155.369,45.62205 C155.555334,45.62205 155.726499,45.585217 155.8825,45.51155 C156.038501,45.437883 156.173916,45.3198008 156.28875,45.1573 C156.403584,44.9947992 156.4935,44.7835513 156.5585,44.52355 C156.6235,44.2635487 156.656,43.9472185 156.656,43.57455 C156.656,43.2192149 156.63,42.9202179 156.578,42.67755 C156.526,42.4348821 156.453417,42.2388007 156.36025,42.0893 C156.267083,41.9397993 156.155501,41.8325503 156.0255,41.76755 C155.895499,41.7025497 155.750334,41.67005 155.59,41.67005 Z M159.815,47.00005 L159.815,40.25955 L161.011,40.25955 C161.110667,40.25955 161.194083,40.2682166 161.26125,40.28555 C161.328417,40.3028834 161.38475,40.3299665 161.43025,40.3668 C161.47575,40.4036335 161.510417,40.452383 161.53425,40.51305 C161.558083,40.573717 161.578667,40.6473829 161.596,40.73405 L161.7065,41.36455 C161.953501,40.9832148 162.230832,40.6820511 162.5385,40.46105 C162.846168,40.2400489 163.181998,40.12955 163.546,40.12955 C163.853668,40.12955 164.100666,40.2032159 164.287,40.35055 L164.027,41.83255 C164.009667,41.9235505 163.975,41.9874665 163.923,42.0243 C163.871,42.0611335 163.801667,42.07955 163.715,42.07955 C163.641333,42.07955 163.554667,42.0698001 163.455,42.0503 C163.355333,42.0307999 163.229667,42.02105 163.078,42.02105 C162.549331,42.02105 162.133335,42.3027138 161.83,42.86605 L161.83,47.00005 L159.815,47.00005 Z M168.187,40.15555 C168.698336,40.15555 169.164165,40.2357159 169.5845,40.39605 C170.004835,40.5563841 170.365582,40.7860485 170.66675,41.08505 C170.967918,41.3840515 171.201916,41.7469645 171.36875,42.1738 C171.535584,42.6006355 171.619,43.0805473 171.619,43.61355 C171.619,44.150886 171.535584,44.6351312 171.36875,45.0663 C171.201916,45.4974688 170.967918,45.8636318 170.66675,46.1648 C170.365582,46.4659682 170.004835,46.6977992 169.5845,46.8603 C169.164165,47.0228008 168.698336,47.10405 168.187,47.10405 C167.671331,47.10405 167.202252,47.0228008 166.77975,46.8603 C166.357248,46.6977992 165.993252,46.4659682 165.68775,46.1648 C165.382248,45.8636318 165.146084,45.4974688 164.97925,45.0663 C164.812416,44.6351312 164.729,44.150886 164.729,43.61355 C164.729,43.0805473 164.812416,42.6006355 164.97925,42.1738 C165.146084,41.7469645 165.382248,41.3840515 165.68775,41.08505 C165.993252,40.7860485 166.357248,40.5563841 166.77975,40.39605 C167.202252,40.2357159 167.671331,40.15555 168.187,40.15555 Z M168.187,45.60905 C168.650669,45.60905 168.991916,45.4454683 169.21075,45.1183 C169.429584,44.7911317 169.539,44.2938867 169.539,43.62655 C169.539,42.9592133 169.429584,42.4630516 169.21075,42.13805 C168.991916,41.8130484 168.650669,41.65055 168.187,41.65055 C167.710331,41.65055 167.361501,41.8130484 167.1405,42.13805 C166.919499,42.4630516 166.809,42.9592133 166.809,43.62655 C166.809,44.2938867 166.919499,44.7911317 167.1405,45.1183 C167.361501,45.4454683 167.710331,45.60905 168.187,45.60905 Z M177.456,47.00005 C177.330333,47.00005 177.22525,46.9718836 177.14075,46.91555 C177.05625,46.8592164 176.996667,46.7747172 176.962,46.66205 L176.806,46.14855 C176.671666,46.2915507 176.530834,46.4215494 176.3835,46.53855 C176.236166,46.6555506 176.076918,46.7562996 175.90575,46.8408 C175.734582,46.9253004 175.550418,46.9902998 175.35325,47.0358 C175.156082,47.0813002 174.942668,47.10405 174.713,47.10405 C174.361998,47.10405 174.037001,47.0260508 173.738,46.87005 C173.438999,46.7140492 173.181168,46.4887181 172.9645,46.19405 C172.747832,45.8993819 172.577751,45.5386355 172.45425,45.1118 C172.330749,44.6849645 172.269,44.1985527 172.269,43.65255 C172.269,43.1498808 172.338333,42.6829688 172.477,42.2518 C172.615667,41.8206312 172.811749,41.4479682 173.06525,41.1338 C173.318751,40.8196318 173.623165,40.5737176 173.9785,40.39605 C174.333835,40.2183824 174.725998,40.12955 175.155,40.12955 C175.501668,40.12955 175.795249,40.1804662 176.03575,40.2823 C176.276251,40.3841338 176.493999,40.5173825 176.689,40.68205 L176.689,37.26955 L178.704,37.26955 L178.704,47.00005 L177.456,47.00005 Z M175.415,45.55705 C175.562334,45.55705 175.695583,45.5429668 175.81475,45.5148 C175.933917,45.4866332 176.043333,45.4465503 176.143,45.39455 C176.242667,45.3425497 176.336916,45.2775504 176.42575,45.19955 C176.514584,45.1215496 176.602333,45.0305505 176.689,44.92655 L176.689,42.06655 C176.532999,41.8975492 176.367251,41.779467 176.19175,41.7123 C176.016249,41.645133 175.831001,41.61155 175.636,41.61155 C175.449666,41.61155 175.278501,41.648383 175.1225,41.72205 C174.966499,41.795717 174.831084,41.9137992 174.71625,42.0763 C174.601416,42.2388008 174.5115,42.4500487 174.4465,42.71005 C174.3815,42.9700513 174.349,43.2842148 174.349,43.65255 C174.349,44.0078851 174.375,44.3068821 174.427,44.54955 C174.479,44.7922179 174.551583,44.9882993 174.64475,45.1378 C174.737917,45.2873007 174.849499,45.3945497 174.9795,45.45955 C175.109501,45.5245503 175.254666,45.55705 175.415,45.55705 Z M182.149,40.25955 L182.149,44.53655 C182.149,44.8702183 182.224833,45.1280491 182.3765,45.31005 C182.528167,45.4920509 182.751332,45.58305 183.046,45.58305 C183.267001,45.58305 183.473916,45.5375505 183.66675,45.44655 C183.859584,45.3555495 184.046999,45.2277175 184.229,45.06305 L184.229,40.25955 L186.244,40.25955 L186.244,47.00005 L184.996,47.00005 C184.744665,47.00005 184.58,46.8873845 184.502,46.66205 L184.3785,46.27205 C184.248499,46.3977173 184.114167,46.5114662 183.9755,46.6133 C183.836833,46.7151338 183.688417,46.8017996 183.53025,46.8733 C183.372083,46.9448004 183.202001,47.0011331 183.02,47.0423 C182.837999,47.0834669 182.638668,47.10405 182.422,47.10405 C182.053665,47.10405 181.727585,47.040134 181.44375,46.9123 C181.159915,46.784466 180.920501,46.6057178 180.7255,46.37605 C180.530499,46.1463822 180.383167,45.8755516 180.2835,45.56355 C180.183833,45.2515484 180.134,44.9092185 180.134,44.53655 L180.134,40.25955 L182.149,40.25955 Z M192.666,41.85855 C192.605333,41.932217 192.546834,41.9907164 192.4905,42.03405 C192.434166,42.0773835 192.354001,42.09905 192.25,42.09905 C192.150333,42.09905 192.060417,42.0752169 191.98025,42.02755 C191.900083,41.9798831 191.810167,41.9268003 191.7105,41.8683 C191.610833,41.8097997 191.493834,41.7567169 191.3595,41.70905 C191.225166,41.6613831 191.058334,41.63755 190.859,41.63755 C190.611999,41.63755 190.398584,41.6830495 190.21875,41.77405 C190.038916,41.8650505 189.890501,41.9950492 189.7735,42.16405 C189.656499,42.3330508 189.569834,42.5399654 189.5135,42.7848 C189.457166,43.0296346 189.429,43.3058818 189.429,43.61355 C189.429,44.2592199 189.553582,44.7553816 189.80275,45.10205 C190.051918,45.4487184 190.395331,45.62205 190.833,45.62205 C191.067001,45.62205 191.252249,45.5928003 191.38875,45.5343 C191.525251,45.4757997 191.641166,45.4108004 191.7365,45.3393 C191.831834,45.2677996 191.919583,45.201717 191.99975,45.14105 C192.079917,45.080383 192.180666,45.05005 192.302,45.05005 C192.462334,45.05005 192.583666,45.1085494 192.666,45.22555 L193.251,45.94705 C193.042999,46.1853845 192.824168,46.3792993 192.5945,46.5288 C192.364832,46.6783007 192.129751,46.7952996 191.88925,46.8798 C191.648749,46.9643004 191.407168,47.0227998 191.1645,47.0553 C190.921832,47.0878002 190.685668,47.10405 190.456,47.10405 C190.044331,47.10405 189.651085,47.0260508 189.27625,46.87005 C188.901415,46.7140492 188.572085,46.4876348 188.28825,46.1908 C188.004415,45.8939652 187.779084,45.5288855 187.61225,45.09555 C187.445416,44.6622145 187.362,44.1682194 187.362,43.61355 C187.362,43.1282142 187.434583,42.6743021 187.57975,42.2518 C187.724917,41.8292979 187.939415,41.4631349 188.22325,41.1533 C188.507085,40.8434651 188.858081,40.5997176 189.27625,40.42205 C189.694419,40.2443824 190.178664,40.15555 190.729,40.15555 C191.257669,40.15555 191.721331,40.2400492 192.12,40.40905 C192.518669,40.5780508 192.878332,40.8250484 193.199,41.15005 L192.666,41.85855 Z M196.488,47.10405 C196.167332,47.10405 195.884585,47.0574671 195.63975,46.9643 C195.394915,46.8711329 195.189084,46.7389675 195.02225,46.5678 C194.855416,46.3966325 194.728667,46.1897179 194.642,45.94705 C194.555333,45.7043821 194.512,45.4335515 194.512,45.13455 L194.512,41.65055 L193.94,41.65055 C193.835999,41.65055 193.747167,41.616967 193.6735,41.5498 C193.599833,41.482633 193.563,41.3840506 193.563,41.25405 L193.563,40.46755 L194.6355,40.25955 L195.032,38.61505 C195.084,38.407049 195.231332,38.30305 195.474,38.30305 L196.527,38.30305 L196.527,40.27255 L198.165,40.27255 L198.165,41.65055 L196.527,41.65055 L196.527,44.99805 C196.527,45.1540508 196.564916,45.2829662 196.64075,45.3848 C196.716584,45.4866338 196.825999,45.53755 196.969,45.53755 C197.042667,45.53755 197.104416,45.5299667 197.15425,45.5148 C197.204084,45.4996333 197.247416,45.4823001 197.28425,45.4628 C197.321084,45.4432999 197.35575,45.4259667 197.38825,45.4108 C197.42075,45.3956333 197.458666,45.38805 197.502,45.38805 C197.562667,45.38805 197.611416,45.4021332 197.64825,45.4303 C197.685084,45.4584668 197.723,45.502883 197.762,45.56355 L198.373,46.51905 C198.112999,46.714051 197.820502,46.8602995 197.4955,46.9578 C197.170498,47.0553005 196.834668,47.10405 196.488,47.10405 Z" id="path-3"></path>
    </defs>
    <g id="Page-1" stroke="none" stroke-width="1" fill="none" fill-rule="evenodd">
        <g id="bgnd_product_mobile" transform="translate(1.000000, 3.000000)">
            <path d="M0,4.00005 C99.0859375,44.00005 215.557292,44.00005 349.414063,4.00005" id="Path-3" stroke="#FFFFFF" stroke-width="5"></path>
            <path d="M200.7119,10.59075 C208.2919,18.17075 211.8059,28.27575 211.2339,38.19575 C210.7599,46.75975 207.2459,55.18075 200.7119,61.71475 C194.1779,68.24875 185.7639,71.75575 177.2079,72.23675 C167.2799,72.80175 157.1679,69.29475 149.5879,61.71475 C135.4669,47.59375 135.4739,24.70475 149.5879,10.59075 C163.7089,-3.53025 186.5909,-3.53025 200.7119,10.59075" id="Fill-5" stroke="#FFFFFF" stroke-width="5" fill="url(#linearGradient-1)" fill-rule="nonzero"></path>
            <g id="Finished">
                <use fill="#000000" xlink:href="#path-2"></use>
                <use fill="#FFFFFF" xlink:href="#path-2"></use>
            </g>
            <g id="product">
                <use fill="#000000" xlink:href="#path-3"></use>
                <use fill="#FFFFFF" xlink:href="#path-3"></use>
            </g>
        </g>
    </g>
</svg>
