<?xml version="1.0" encoding="UTF-8"?>
<svg width="472px" height="73px" viewBox="0 0 472 73" version="1.1" xmlns="http://www.w3.org/2000/svg" xmlns:xlink="http://www.w3.org/1999/xlink">
    <defs>
        <linearGradient x1="96.1475817%" y1="-445.563594%" x2="50%" y2="100%" id="linearGradient-1">
            <stop stop-color="#529CFB" offset="0%"></stop>
            <stop stop-color="#8380E5" offset="100%"></stop>
        </linearGradient>
        <linearGradient x1="31.4296206%" y1="-39.2040706%" x2="50%" y2="100%" id="linearGradient-2">
            <stop stop-color="#529CFB" offset="0%"></stop>
            <stop stop-color="#8380E5" offset="100%"></stop>
        </linearGradient>
    </defs>
    <g id="Page-1" stroke="none" stroke-width="1" fill="none" fill-rule="evenodd">
        <g id="Group-14" transform="translate(0.000000, -0.704800)">
            <rect id="Rectangle-3" fill="url(#linearGradient-1)" x="72" y="36" width="400" height="4"></rect>
            <path d="M61.7119,11.2955 C69.2919,18.8755 72.8059,28.9805 72.2339,38.9005 C71.7599,47.4645 68.2459,55.8855 61.7119,62.4195 C55.1779,68.9535 46.7639,72.4605 38.2079,72.9415 C28.2799,73.5065 18.1679,69.9995 10.5879,62.4195 C-3.5331,48.2985 -3.5261,25.4095 10.5879,11.2955 C24.7089,-2.8255 47.5909,-2.8255 61.7119,11.2955" id="Fill-5" fill="url(#linearGradient-2)"></path>
            <path d="M19.136,19.84 C9.739,29.237 9.739,44.472 19.136,53.87 C28.533,63.266 43.769,63.266 53.166,53.87 C62.564,44.472 62.564,29.237 53.166,19.84 C48.467,15.141 42.309,12.791 36.151,12.791 C29.993,12.791 23.834,15.141 19.136,19.84" id="Fill-12" fill="#FFFFFF"></path>
            <text id="01" font-family="Lato-Black, Lato" font-size="20" font-weight="700" fill="#529CFB">
                <tspan x="25" y="44">01</tspan>
            </text>
        </g>
    </g>
</svg>
