<?xml version="1.0" encoding="UTF-8"?>
<svg width="472px" height="73px" viewBox="0 0 472 73" version="1.1" xmlns="http://www.w3.org/2000/svg" xmlns:xlink="http://www.w3.org/1999/xlink">
    <defs>
        <linearGradient x1="96.1475817%" y1="-445.563594%" x2="50%" y2="100%" id="linearGradient-1">
            <stop stop-color="#529CFB" offset="0%"></stop>
            <stop stop-color="#8380E5" offset="100%"></stop>
        </linearGradient>
        <linearGradient x1="31.4296206%" y1="-39.2040706%" x2="50%" y2="100%" id="linearGradient-2">
            <stop stop-color="#529CFB" offset="0%"></stop>
            <stop stop-color="#8380E5" offset="100%"></stop>
        </linearGradient>
    </defs>
    <g id="Page-1" stroke="none" stroke-width="1" fill="none" fill-rule="evenodd">
        <g id="Group-14" transform="translate(0.000000, -0.704800)">
            <rect id="Rectangle-3" fill="url(#linearGradient-1)" x="72" y="36" width="400" height="4"></rect>
            <path d="M61.7119,11.2955 C69.2919,18.8755 72.8059,28.9805 72.2339,38.9005 C71.7599,47.4645 68.2459,55.8855 61.7119,62.4195 C55.1779,68.9535 46.7639,72.4605 38.2079,72.9415 C28.2799,73.5065 18.1679,69.9995 10.5879,62.4195 C-3.5331,48.2985 -3.5261,25.4095 10.5879,11.2955 C24.7089,-2.8255 47.5909,-2.8255 61.7119,11.2955" id="Fill-5" fill="url(#linearGradient-2)"></path>
            <path d="M19.136,19.84 C9.739,29.237 9.739,44.472 19.136,53.87 C28.533,63.266 43.769,63.266 53.166,53.87 C62.564,44.472 62.564,29.237 53.166,19.84 C48.467,15.141 42.309,12.791 36.151,12.791 C29.993,12.791 23.834,15.141 19.136,19.84" id="Fill-12" fill="#FFFFFF"></path>
            <path d="M36.2,36.71 C36.2,37.9833397 36.0633347,39.086662 35.79,40.02 C35.5166653,40.953338 35.1383357,41.7266636 34.655,42.34 C34.1716642,42.9533364 33.5983367,43.4099985 32.935,43.71 C32.2716633,44.0100015 31.5533372,44.16 30.78,44.16 C30.0066628,44.16 29.2916699,44.0100015 28.635,43.71 C27.9783301,43.4099985 27.4100024,42.9533364 26.93,42.34 C26.4499976,41.7266636 26.0750014,40.953338 25.805,40.02 C25.5349986,39.086662 25.4,37.9833397 25.4,36.71 C25.4,35.4366603 25.5349986,34.333338 25.805,33.4 C26.0750014,32.466662 26.4499976,31.6933364 26.93,31.08 C27.4100024,30.4666636 27.9783301,30.0116681 28.635,29.715 C29.2916699,29.4183319 30.0066628,29.27 30.78,29.27 C31.5533372,29.27 32.2716633,29.4183319 32.935,29.715 C33.5983367,30.0116681 34.1716642,30.4666636 34.655,31.08 C35.1383357,31.6933364 35.5166653,32.466662 35.79,33.4 C36.0633347,34.333338 36.2,35.4366603 36.2,36.71 Z M33,36.71 C33,35.7033283 32.9366673,34.8783366 32.81,34.235 C32.6833327,33.5916634 32.5150011,33.0866685 32.305,32.72 C32.0949989,32.3533315 31.856668,32.1016673 31.59,31.965 C31.323332,31.8283327 31.0533347,31.76 30.78,31.76 C30.5066653,31.76 30.2383346,31.8283327 29.975,31.965 C29.7116654,32.1016673 29.4783344,32.3533315 29.275,32.72 C29.0716656,33.0866685 28.9083339,33.5916634 28.785,34.235 C28.6616661,34.8783366 28.6,35.7033283 28.6,36.71 C28.6,37.7233384 28.6616661,38.5499968 28.785,39.19 C28.9083339,39.8300032 29.0716656,40.3349982 29.275,40.705 C29.4783344,41.0750018 29.7116654,41.3283327 29.975,41.465 C30.2383346,41.6016673 30.5066653,41.67 30.78,41.67 C31.0533347,41.67 31.323332,41.6016673 31.59,41.465 C31.856668,41.3283327 32.0949989,41.0750018 32.305,40.705 C32.5150011,40.3349982 32.6833327,39.8300032 32.81,39.19 C32.9366673,38.5499968 33,37.7233384 33,36.71 Z M39.12,41.76 L41.92,41.76 L41.92,34.41 C41.92,34.0499982 41.9299999,33.6733353 41.95,33.28 L40.3,34.65 C40.1933328,34.7366671 40.0866672,34.7983331 39.98,34.835 C39.8733328,34.8716668 39.7700005,34.89 39.67,34.89 C39.4966658,34.89 39.3416674,34.8516671 39.205,34.775 C39.0683327,34.698333 38.966667,34.6166671 38.9,34.53 L37.92,33.23 L42.46,29.42 L45.02,29.42 L45.02,41.76 L47.42,41.76 L47.42,44 L39.12,44 L39.12,41.76 Z" id="01" fill="#529CFB"></path>
        </g>
    </g>
</svg>
