<?xml version="1.0" encoding="UTF-8"?>
<svg width="473px" height="73px" viewBox="0 0 473 73" version="1.1" xmlns="http://www.w3.org/2000/svg" xmlns:xlink="http://www.w3.org/1999/xlink">
    <defs>
        <linearGradient x1="96.1475817%" y1="-445.563594%" x2="50%" y2="100%" id="linearGradient-1">
            <stop stop-color="#529CFB" offset="0%"></stop>
            <stop stop-color="#8380E5" offset="100%"></stop>
        </linearGradient>
        <linearGradient x1="31.4296206%" y1="-39.2040706%" x2="50%" y2="100%" id="linearGradient-2">
            <stop stop-color="#529CFB" offset="0%"></stop>
            <stop stop-color="#8380E5" offset="100%"></stop>
        </linearGradient>
    </defs>
    <g id="Page-1" stroke="none" stroke-width="1" fill="none" fill-rule="evenodd">
        <g id="Group-14" transform="translate(0.000000, -0.704800)">
            <rect id="Rectangle-3" fill="url(#linearGradient-1)" x="0" y="36" width="400" height="4"></rect>
            <path d="M461.7119,11.2955 C469.2919,18.8755 472.8059,28.9805 472.2339,38.9005 C471.7599,47.4645 468.2459,55.8855 461.7119,62.4195 C455.1779,68.9535 446.7639,72.4605 438.2079,72.9415 C428.2799,73.5065 418.1679,69.9995 410.5879,62.4195 C396.4669,48.2985 396.4739,25.4095 410.5879,11.2955 C424.7089,-2.8255 447.5909,-2.8255 461.7119,11.2955" id="Fill-5" fill="url(#linearGradient-2)"></path>
            <path d="M419.136,19.84 C409.739,29.237 409.739,44.472 419.136,53.87 C428.533,63.266 443.769,63.266 453.166,53.87 C462.564,44.472 462.564,29.237 453.166,19.84 C448.467,15.141 442.309,12.791 436.151,12.791 C429.993,12.791 423.834,15.141 419.136,19.84" id="Fill-12" fill="#FFFFFF"></path>
            <path d="M436.2,36.71 C436.2,37.9833397 436.063335,39.086662 435.79,40.02 C435.516665,40.953338 435.138336,41.7266636 434.655,42.34 C434.171664,42.9533364 433.598337,43.4099985 432.935,43.71 C432.271663,44.0100015 431.553337,44.16 430.78,44.16 C430.006663,44.16 429.29167,44.0100015 428.635,43.71 C427.97833,43.4099985 427.410002,42.9533364 426.93,42.34 C426.449998,41.7266636 426.075001,40.953338 425.805,40.02 C425.534999,39.086662 425.4,37.9833397 425.4,36.71 C425.4,35.4366603 425.534999,34.333338 425.805,33.4 C426.075001,32.466662 426.449998,31.6933364 426.93,31.08 C427.410002,30.4666636 427.97833,30.0116681 428.635,29.715 C429.29167,29.4183319 430.006663,29.27 430.78,29.27 C431.553337,29.27 432.271663,29.4183319 432.935,29.715 C433.598337,30.0116681 434.171664,30.4666636 434.655,31.08 C435.138336,31.6933364 435.516665,32.466662 435.79,33.4 C436.063335,34.333338 436.2,35.4366603 436.2,36.71 Z M433,36.71 C433,35.7033283 432.936667,34.8783366 432.81,34.235 C432.683333,33.5916634 432.515001,33.0866685 432.305,32.72 C432.094999,32.3533315 431.856668,32.1016673 431.59,31.965 C431.323332,31.8283327 431.053335,31.76 430.78,31.76 C430.506665,31.76 430.238335,31.8283327 429.975,31.965 C429.711665,32.1016673 429.478334,32.3533315 429.275,32.72 C429.071666,33.0866685 428.908334,33.5916634 428.785,34.235 C428.661666,34.8783366 428.6,35.7033283 428.6,36.71 C428.6,37.7233384 428.661666,38.5499968 428.785,39.19 C428.908334,39.8300032 429.071666,40.3349982 429.275,40.705 C429.478334,41.0750018 429.711665,41.3283327 429.975,41.465 C430.238335,41.6016673 430.506665,41.67 430.78,41.67 C431.053335,41.67 431.323332,41.6016673 431.59,41.465 C431.856668,41.3283327 432.094999,41.0750018 432.305,40.705 C432.515001,40.3349982 432.683333,39.8300032 432.81,39.19 C432.936667,38.5499968 433,37.7233384 433,36.71 Z M442.62,29.27 C443.340004,29.27 443.98833,29.3749989 444.565,29.585 C445.14167,29.795001 445.633331,30.0866648 446.04,30.46 C446.446669,30.8333352 446.758332,31.2783307 446.975,31.795 C447.191668,32.3116693 447.3,32.8799969 447.3,33.5 C447.3,34.033336 447.225001,34.5266644 447.075,34.98 C446.924999,35.4333356 446.720001,35.864998 446.46,36.275 C446.199999,36.6850021 445.898335,37.0816648 445.555,37.465 C445.211665,37.8483352 444.846669,38.2366647 444.46,38.63 L441.61,41.55 C441.976669,41.4433328 442.338332,41.3583336 442.695,41.295 C443.051668,41.2316663 443.386665,41.2 443.7,41.2 L446.42,41.2 C446.753335,41.2 447.016666,41.2916657 447.21,41.475 C447.403334,41.6583342 447.5,41.8999985 447.5,42.2 L447.5,44 L437.26,44 L437.26,43 C437.26,42.8066657 437.3,42.6000011 437.38,42.38 C437.46,42.1599989 437.599999,41.9600009 437.8,41.78 L442,37.55 C442.360002,37.1899982 442.673332,36.8466683 442.94,36.52 C443.206668,36.1933317 443.426666,35.8716682 443.6,35.555 C443.773334,35.2383318 443.903333,34.9216682 443.99,34.605 C444.076667,34.2883317 444.12,33.9533351 444.12,33.6 C444.12,33.0199971 443.981668,32.5750015 443.705,32.265 C443.428332,31.9549984 443.006669,31.8 442.44,31.8 C442.206665,31.8 441.993334,31.833333 441.8,31.9 C441.606666,31.966667 441.433334,32.0566661 441.28,32.17 C441.126666,32.2833339 440.995001,32.4166659 440.885,32.57 C440.774999,32.7233341 440.686667,32.8899991 440.62,33.07 C440.513333,33.3700015 440.378334,33.586666 440.215,33.72 C440.051666,33.853334 439.830001,33.92 439.55,33.92 C439.483333,33.92 439.411667,33.9166667 439.335,33.91 C439.258333,33.9033333 439.18,33.8933334 439.1,33.88 L437.46,33.59 C437.566667,32.8633297 437.771665,32.2300027 438.075,31.69 C438.378335,31.1499973 438.754998,30.7000018 439.205,30.34 C439.655002,29.9799982 440.169997,29.7116675 440.75,29.535 C441.330003,29.3583324 441.95333,29.27 442.62,29.27 Z" id="02" fill="#529CFB"></path>
        </g>
    </g>
</svg>
