<svg width="79" height="79" viewBox="0 0 79 79" fill="none" xmlns="http://www.w3.org/2000/svg">
<path fill-rule="evenodd" clip-rule="evenodd" d="M64.7121 13.5907C72.2921 21.1707 75.8061 31.2758 75.2341 41.1958C74.7601 49.7598 71.2461 58.1807 64.7121 64.7147C58.1781 71.2487 49.7641 74.7557 41.2081 75.2367C31.2801 75.8017 21.1681 72.2947 13.5881 64.7147C-0.532875 50.5937 -0.525875 27.7048 13.5881 13.5907C27.7091 -0.530251 50.5911 -0.530251 64.7121 13.5907" fill="#5C5FD4"/>
<path d="M64.7121 13.5907C72.2921 21.1707 75.8061 31.2758 75.2341 41.1958C74.7601 49.7598 71.2461 58.1807 64.7121 64.7147C58.1781 71.2487 49.7641 74.7557 41.2081 75.2367C31.2801 75.8017 21.1681 72.2947 13.5881 64.7147C-0.532875 50.5937 -0.525875 27.7048 13.5881 13.5907C27.7091 -0.530251 50.5911 -0.530251 64.7121 13.5907" stroke="#F6F6F6" stroke-width="6"/>
<path d="M30.8948 31.399V35H28.6978V31.399L25.2658 25.5295H27.2028C27.3934 25.5295 27.5451 25.575 27.6578 25.666C27.7704 25.7527 27.8614 25.8653 27.9308 26.004L29.2698 28.76C29.3781 28.981 29.4778 29.1847 29.5688 29.371C29.6598 29.5573 29.7399 29.7415 29.8093 29.9235C29.8743 29.7372 29.9523 29.5508 30.0433 29.3645C30.1343 29.1782 30.2318 28.9767 30.3358 28.76L31.6618 26.004C31.6878 25.9477 31.7224 25.8913 31.7658 25.835C31.8134 25.7787 31.8654 25.7288 31.9218 25.6855C31.9824 25.6378 32.0496 25.601 32.1233 25.575C32.2013 25.5447 32.2858 25.5295 32.3768 25.5295H34.3268L30.8948 31.399ZM36.9356 28.1555C37.4469 28.1555 37.9128 28.2357 38.3331 28.396C38.7534 28.5563 39.1131 28.786 39.4121 29.085C39.7154 29.384 39.9494 29.748 40.1141 30.177C40.2831 30.6017 40.3676 31.0805 40.3676 31.6135C40.3676 32.1508 40.2831 32.6362 40.1141 33.0695C39.9494 33.4985 39.7154 33.8647 39.4121 34.168C39.1131 34.467 38.7534 34.6988 38.3331 34.8635C37.9128 35.0238 37.4469 35.104 36.9356 35.104C36.4199 35.104 35.9498 35.0238 35.5251 34.8635C35.1048 34.6988 34.7408 34.467 34.4331 34.168C34.1298 33.8647 33.8936 33.4985 33.7246 33.0695C33.5599 32.6362 33.4776 32.1508 33.4776 31.6135C33.4776 31.0805 33.5599 30.6017 33.7246 30.177C33.8936 29.748 34.1298 29.384 34.4331 29.085C34.7408 28.786 35.1048 28.5563 35.5251 28.396C35.9498 28.2357 36.4199 28.1555 36.9356 28.1555ZM36.9356 33.609C37.3993 33.609 37.7394 33.4465 37.9561 33.1215C38.1771 32.7922 38.2876 32.2938 38.2876 31.6265C38.2876 30.9592 38.1771 30.463 37.9561 30.138C37.7394 29.813 37.3993 29.6505 36.9356 29.6505C36.4589 29.6505 36.1101 29.813 35.8891 30.138C35.6681 30.463 35.5576 30.9592 35.5576 31.6265C35.5576 32.2938 35.6681 32.7922 35.8891 33.1215C36.1101 33.4465 36.4589 33.609 36.9356 33.609ZM43.3586 28.2595V32.5365C43.3586 32.8702 43.4344 33.128 43.5861 33.31C43.7378 33.492 43.9609 33.583 44.2556 33.583C44.4766 33.583 44.6824 33.5375 44.8731 33.4465C45.0681 33.3555 45.2566 33.2277 45.4386 33.063V28.2595H47.4536V35H46.2056C45.9543 35 45.7896 34.8873 45.7116 34.662L45.5881 34.272C45.4581 34.3977 45.3238 34.5125 45.1851 34.6165C45.0464 34.7162 44.8969 34.8028 44.7366 34.8765C44.5806 34.9458 44.4116 35 44.2296 35.039C44.0476 35.0823 43.8483 35.104 43.6316 35.104C43.2633 35.104 42.9361 35.0412 42.6501 34.9155C42.3684 34.7855 42.1301 34.6057 41.9351 34.376C41.7401 34.1463 41.5928 33.8755 41.4931 33.5635C41.3934 33.2515 41.3436 32.9092 41.3436 32.5365V28.2595H43.3586ZM49.0146 35V28.2595H50.2106C50.3103 28.2595 50.3926 28.2682 50.4576 28.2855C50.527 28.3028 50.5833 28.331 50.6266 28.37C50.6743 28.4047 50.709 28.4523 50.7306 28.513C50.7566 28.5737 50.7783 28.6473 50.7956 28.734L50.9061 29.3645C51.1531 28.9832 51.4305 28.682 51.7381 28.461C52.0458 28.24 52.3816 28.1295 52.7456 28.1295C53.0533 28.1295 53.3003 28.2032 53.4866 28.3505L53.2266 29.8325C53.2093 29.9235 53.1746 29.9885 53.1226 30.0275C53.0706 30.0622 53.0013 30.0795 52.9146 30.0795C52.841 30.0795 52.7543 30.0708 52.6546 30.0535C52.555 30.0318 52.4293 30.021 52.2776 30.021C51.749 30.021 51.333 30.3027 51.0296 30.866V35H49.0146ZM16.7622 52.1385V43.2595H18.0102C18.1358 43.2595 18.2398 43.2877 18.3222 43.344C18.4088 43.4003 18.4695 43.4848 18.5042 43.5975L18.6537 44.0915C18.7837 43.9485 18.9223 43.8185 19.0697 43.7015C19.2213 43.5845 19.3817 43.4848 19.5507 43.4025C19.724 43.3158 19.9082 43.2487 20.1032 43.201C20.3025 43.1533 20.5192 43.1295 20.7532 43.1295C21.1042 43.1295 21.4292 43.2075 21.7282 43.3635C22.0272 43.5195 22.285 43.7448 22.5017 44.0395C22.7183 44.3342 22.8873 44.696 23.0087 45.125C23.1343 45.5497 23.1972 46.0328 23.1972 46.5745C23.1972 47.0815 23.1257 47.5495 22.9827 47.9785C22.844 48.4075 22.6468 48.7802 22.3912 49.0965C22.1398 49.4128 21.8365 49.6598 21.4812 49.8375C21.1302 50.0152 20.7402 50.104 20.3112 50.104C19.9602 50.104 19.6655 50.0542 19.4272 49.9545C19.1888 49.8548 18.9722 49.7205 18.7772 49.5515V52.1385H16.7622ZM20.0512 44.67C19.9038 44.67 19.7695 44.6852 19.6482 44.7155C19.5312 44.7415 19.4207 44.7805 19.3167 44.8325C19.217 44.8845 19.1238 44.9517 19.0372 45.034C18.9505 45.112 18.8638 45.203 18.7772 45.307V48.167C18.9288 48.336 19.0935 48.4552 19.2712 48.5245C19.4488 48.5895 19.6352 48.622 19.8302 48.622C20.0165 48.622 20.1877 48.5852 20.3437 48.5115C20.4997 48.4378 20.634 48.3208 20.7467 48.1605C20.8637 47.9958 20.9547 47.7835 21.0197 47.5235C21.0847 47.2635 21.1172 46.9472 21.1172 46.5745C21.1172 46.2192 21.0912 45.9202 21.0392 45.6775C20.9872 45.4348 20.9135 45.2398 20.8182 45.0925C20.7272 44.9408 20.6167 44.8325 20.4867 44.7675C20.3567 44.7025 20.2115 44.67 20.0512 44.67ZM24.2778 50V43.2595H25.4738C25.5735 43.2595 25.6558 43.2682 25.7208 43.2855C25.7901 43.3028 25.8465 43.331 25.8898 43.37C25.9375 43.4047 25.9721 43.4523 25.9938 43.513C26.0198 43.5737 26.0415 43.6473 26.0588 43.734L26.1693 44.3645C26.4163 43.9832 26.6936 43.682 27.0013 43.461C27.309 43.24 27.6448 43.1295 28.0088 43.1295C28.3165 43.1295 28.5635 43.2032 28.7498 43.3505L28.4898 44.8325C28.4725 44.9235 28.4378 44.9885 28.3858 45.0275C28.3338 45.0622 28.2645 45.0795 28.1778 45.0795C28.1041 45.0795 28.0175 45.0708 27.9178 45.0535C27.8181 45.0318 27.6925 45.021 27.5408 45.021C27.0121 45.021 26.5961 45.3027 26.2928 45.866V50H24.2778ZM32.6509 43.1555C33.1623 43.1555 33.6281 43.2357 34.0484 43.396C34.4688 43.5563 34.8284 43.786 35.1274 44.085C35.4308 44.384 35.6648 44.748 35.8294 45.177C35.9984 45.6017 36.0829 46.0805 36.0829 46.6135C36.0829 47.1508 35.9984 47.6362 35.8294 48.0695C35.6648 48.4985 35.4308 48.8647 35.1274 49.168C34.8284 49.467 34.4688 49.6988 34.0484 49.8635C33.6281 50.0238 33.1623 50.104 32.6509 50.104C32.1353 50.104 31.6651 50.0238 31.2404 49.8635C30.8201 49.6988 30.4561 49.467 30.1484 49.168C29.8451 48.8647 29.6089 48.4985 29.4399 48.0695C29.2753 47.6362 29.1929 47.1508 29.1929 46.6135C29.1929 46.0805 29.2753 45.6017 29.4399 45.177C29.6089 44.748 29.8451 44.384 30.1484 44.085C30.4561 43.786 30.8201 43.5563 31.2404 43.396C31.6651 43.2357 32.1353 43.1555 32.6509 43.1555ZM32.6509 48.609C33.1146 48.609 33.4548 48.4465 33.6714 48.1215C33.8924 47.7922 34.0029 47.2938 34.0029 46.6265C34.0029 45.9592 33.8924 45.463 33.6714 45.138C33.4548 44.813 33.1146 44.6505 32.6509 44.6505C32.1743 44.6505 31.8254 44.813 31.6044 45.138C31.3834 45.463 31.2729 45.9592 31.2729 46.6265C31.2729 47.2938 31.3834 47.7922 31.6044 48.1215C31.8254 48.4465 32.1743 48.609 32.6509 48.609ZM41.9209 50C41.7953 50 41.6891 49.9718 41.6024 49.9155C41.5201 49.8592 41.4616 49.7747 41.4269 49.662L41.2709 49.1485C41.1366 49.2915 40.9958 49.4215 40.8484 49.5385C40.7011 49.6555 40.5408 49.7573 40.3674 49.844C40.1984 49.9263 40.0143 49.9892 39.8149 50.0325C39.6199 50.0802 39.4076 50.104 39.1779 50.104C38.8269 50.104 38.5019 50.026 38.2029 49.87C37.9039 49.714 37.6461 49.4887 37.4294 49.194C37.2128 48.8993 37.0416 48.5397 36.9159 48.115C36.7946 47.686 36.7339 47.1985 36.7339 46.6525C36.7339 46.1498 36.8033 45.684 36.9419 45.255C37.0806 44.8217 37.2756 44.449 37.5269 44.137C37.7826 43.8207 38.0881 43.5737 38.4434 43.396C38.7988 43.2183 39.1909 43.1295 39.6199 43.1295C39.9666 43.1295 40.2591 43.1815 40.4974 43.2855C40.7401 43.3852 40.9589 43.5173 41.1539 43.682V40.2695H43.1689V50H41.9209ZM39.8799 48.557C40.0273 48.557 40.1594 48.544 40.2764 48.518C40.3978 48.4877 40.5083 48.4465 40.6079 48.3945C40.7076 48.3425 40.8008 48.2775 40.8874 48.1995C40.9784 48.1215 41.0673 48.0305 41.1539 47.9265V45.0665C40.9979 44.8975 40.8311 44.7805 40.6534 44.7155C40.4801 44.6462 40.2959 44.6115 40.1009 44.6115C39.9146 44.6115 39.7434 44.6483 39.5874 44.722C39.4314 44.7957 39.2949 44.9148 39.1779 45.0795C39.0653 45.2398 38.9764 45.45 38.9114 45.71C38.8464 45.97 38.8139 46.2842 38.8139 46.6525C38.8139 47.0078 38.8399 47.3068 38.8919 47.5495C38.9439 47.7922 39.0154 47.9893 39.1064 48.141C39.2018 48.2883 39.3144 48.3945 39.4444 48.4595C39.5744 48.5245 39.7196 48.557 39.8799 48.557ZM46.615 43.2595V47.5365C46.615 47.8702 46.6908 48.128 46.8425 48.31C46.9941 48.492 47.2173 48.583 47.512 48.583C47.733 48.583 47.9388 48.5375 48.1295 48.4465C48.3245 48.3555 48.513 48.2277 48.695 48.063V43.2595H50.71V50H49.462C49.2106 50 49.046 49.8873 48.968 49.662L48.8445 49.272C48.7145 49.3977 48.5801 49.5125 48.4415 49.6165C48.3028 49.7162 48.1533 49.8028 47.993 49.8765C47.837 49.9458 47.668 50 47.486 50.039C47.304 50.0823 47.1046 50.104 46.888 50.104C46.5196 50.104 46.1925 50.0412 45.9065 49.9155C45.6248 49.7855 45.3865 49.6057 45.1915 49.376C44.9965 49.1463 44.8491 48.8755 44.7495 48.5635C44.6498 48.2515 44.6 47.9092 44.6 47.5365V43.2595H46.615ZM57.133 44.8585C57.0723 44.9322 57.0138 44.9907 56.9575 45.034C56.9011 45.0773 56.821 45.099 56.717 45.099C56.6173 45.099 56.5263 45.0752 56.444 45.0275C56.366 44.9798 56.2771 44.9278 56.1775 44.8715C56.0778 44.8108 55.9608 44.7567 55.8265 44.709C55.6921 44.6613 55.5253 44.6375 55.326 44.6375C55.079 44.6375 54.8645 44.683 54.6825 44.774C54.5048 44.865 54.3575 44.995 54.2405 45.164C54.1235 45.333 54.0368 45.541 53.9805 45.788C53.9241 46.0307 53.896 46.3058 53.896 46.6135C53.896 47.2592 54.0195 47.7553 54.2665 48.102C54.5178 48.4487 54.8623 48.622 55.3 48.622C55.534 48.622 55.7181 48.5938 55.8525 48.5375C55.9911 48.4768 56.1081 48.4118 56.2035 48.3425C56.2988 48.2688 56.3855 48.2017 56.4635 48.141C56.5458 48.0803 56.6476 48.05 56.769 48.05C56.9293 48.05 57.0506 48.1085 57.133 48.2255L57.718 48.947C57.51 49.1853 57.2911 49.3803 57.0615 49.532C56.8318 49.6793 56.5956 49.7963 56.353 49.883C56.1146 49.9653 55.8741 50.0217 55.6315 50.052C55.3888 50.0867 55.1526 50.104 54.923 50.104C54.5113 50.104 54.117 50.026 53.74 49.87C53.3673 49.714 53.038 49.4887 52.752 49.194C52.4703 48.895 52.245 48.5288 52.076 48.0955C51.9113 47.6622 51.829 47.1682 51.829 46.6135C51.829 46.1282 51.9005 45.6753 52.0435 45.255C52.1908 44.8303 52.4053 44.4642 52.687 44.1565C52.973 43.8445 53.324 43.5997 53.74 43.422C54.1603 43.2443 54.6456 43.1555 55.196 43.1555C55.7246 43.1555 56.1883 43.24 56.587 43.409C56.9856 43.578 57.3453 43.825 57.666 44.15L57.133 44.8585ZM60.9592 50.104C60.6386 50.104 60.3547 50.0585 60.1077 49.9675C59.8651 49.8722 59.6592 49.74 59.4902 49.571C59.3256 49.3977 59.1999 49.1897 59.1132 48.947C59.0266 48.7043 58.9832 48.4335 58.9832 48.1345V44.6505H58.4112C58.3072 44.6505 58.2184 44.618 58.1447 44.553C58.0711 44.4837 58.0342 44.384 58.0342 44.254V43.4675L59.1067 43.2595L59.5032 41.615C59.5552 41.407 59.7026 41.303 59.9452 41.303H60.9982V43.2725H62.6362V44.6505H60.9982V47.998C60.9982 48.154 61.0351 48.284 61.1087 48.388C61.1867 48.4877 61.2972 48.5375 61.4402 48.5375C61.5139 48.5375 61.5746 48.531 61.6222 48.518C61.6742 48.5007 61.7176 48.4833 61.7522 48.466C61.7912 48.4443 61.8259 48.427 61.8562 48.414C61.8909 48.3967 61.9299 48.388 61.9732 48.388C62.0339 48.388 62.0816 48.4032 62.1162 48.4335C62.1552 48.4595 62.1942 48.5028 62.2332 48.5635L62.8442 49.519C62.5842 49.714 62.2917 49.8613 61.9667 49.961C61.6417 50.0563 61.3059 50.104 60.9592 50.104Z" fill="white"/>
</svg>
