<?xml version="1.0" encoding="UTF-8"?>
<svg width="654px" height="730px" viewBox="0 0 654 730" version="1.1" xmlns="http://www.w3.org/2000/svg" xmlns:xlink="http://www.w3.org/1999/xlink">
    <defs>
        <linearGradient x1="31.4296206%" y1="-39.2040706%" x2="50%" y2="100%" id="linearGradient-1">
            <stop stop-color="#529CFB" offset="0%"></stop>
            <stop stop-color="#8380E5" offset="100%"></stop>
        </linearGradient>
        <linearGradient x1="96.1475817%" y1="-445.563594%" x2="50%" y2="100%" id="linearGradient-2">
            <stop stop-color="#529CFB" offset="0%"></stop>
            <stop stop-color="#8380E5" offset="100%"></stop>
        </linearGradient>
        <polygon id="path-3" points="0 0.705 72.2939627 0.705 72.2939627 73 0 73"></polygon>
        <path d="M34.17,0.837 L53.234,19.901 C52.76,28.464 49.246,36.886 42.712,43.419 C36.178,49.953 27.764,53.46 19.208,53.941 L0.137,34.87 L34.17,0.837 Z" id="path-5"></path>
        <path d="M7.136,7.84 C-2.261,17.237 -2.261,32.472 7.136,41.87 C16.533,51.266 31.769,51.266 41.166,41.87 C50.564,32.472 50.564,17.237 41.166,7.84 C36.467,3.141 30.309,0.791 24.151,0.791 C17.993,0.791 11.834,3.141 7.136,7.84" id="path-7"></path>
        <polygon id="path-9" points="0 0.705 72.2939627 0.705 72.2939627 73 0 73"></polygon>
        <path d="M34.17,0.837 L53.234,19.901 C52.76,28.464 49.246,36.886 42.712,43.419 C36.178,49.953 27.764,53.46 19.208,53.941 L0.137,34.87 L34.17,0.837 Z" id="path-11"></path>
        <path d="M7.136,7.84 C-2.261,17.237 -2.261,32.472 7.136,41.87 C16.533,51.266 31.769,51.266 41.166,41.87 C50.564,32.472 50.564,17.237 41.166,7.84 C36.467,3.141 30.309,0.791 24.151,0.791 C17.993,0.791 11.834,3.141 7.136,7.84" id="path-13"></path>
        <polygon id="path-15" points="0 0.705 72.2939627 0.705 72.2939627 73 0 73"></polygon>
        <path d="M7.136,7.84 C-2.261,17.237 -2.261,32.472 7.136,41.87 C16.533,51.266 31.769,51.266 41.166,41.87 C50.564,32.472 50.564,17.237 41.166,7.84 C36.467,3.141 30.309,0.791 24.151,0.791 C17.993,0.791 11.834,3.141 7.136,7.84" id="path-17"></path>
        <polygon id="path-19" points="0 0.705 72.2939627 0.705 72.2939627 73 0 73"></polygon>
        <path d="M7.136,7.84 C-2.261,17.237 -2.261,32.472 7.136,41.87 C16.533,51.266 31.769,51.266 41.166,41.87 C50.564,32.472 50.564,17.237 41.166,7.84 C36.467,3.141 30.309,0.791 24.151,0.791 C17.993,0.791 11.834,3.141 7.136,7.84" id="path-21"></path>
    </defs>
    <g id="Page-1" stroke="none" stroke-width="1" fill="none" fill-rule="evenodd">
        <g id="Group-19">
            <g id="Page-1" transform="translate(227.000000, 0.000000)" fill="#FFFFFF">
                <path d="M59.3255449,703.111 L59.3255449,685.111 L98.4885449,685.111 C121.355545,685.111 140.262545,666.891 140.635545,644.496 C140.822545,633.315 136.613545,622.773 128.783545,614.811 C120.950545,606.846 110.486545,602.461 99.3175449,602.461 L60.1535449,602.461 C27.5275449,602.461 0.546544919,576.3 0.00854491878,544.146 C-0.259455081,528.101 5.78454492,512.97 17.0255449,501.54 C28.2695449,490.107 43.2915449,483.81 59.3255449,483.81 L98.4885449,483.81 C121.355545,483.81 140.262545,465.591 140.635545,443.194 C140.822545,432.014 136.613545,421.471 128.783545,413.509 C120.951545,405.546 110.486545,401.159 99.3175449,401.159 L60.1535449,401.159 C27.5275449,401.159 0.546544919,374.999 0.00854491878,342.844 C-0.259455081,326.8 5.78454492,311.669 17.0255449,300.238 C28.2695449,288.805 43.2925449,282.508 59.3255449,282.508 L98.4885449,282.508 C121.355545,282.508 140.262545,264.289 140.635545,241.893 C140.822545,230.713 136.613545,220.17 128.783545,212.208 C120.950545,204.244 110.486545,199.857 99.3175449,199.857 L60.1535449,199.857 C27.5275449,199.857 0.546544919,173.698 0.00854491878,141.543 C-0.259455081,125.499 5.78454492,110.367 17.0255449,98.937 C28.2695449,87.504 43.2925449,81.207 59.3255449,81.207 L79.3215449,81.207 C85.3845449,81.207 90.3175449,76.275 90.3175449,70.211 L90.3175449,-5.68434189e-14 C98.4885449,-4.26325641e-14 101.707529,-8.05529254e-15 108.317545,-5.68434189e-14 L108.317545,70.211 C108.317545,86.2 95.3095449,99.207 79.3215449,99.207 L59.3255449,99.207 C48.1565449,99.207 37.6925449,103.593 29.8595449,111.558 C22.0285449,119.52 17.8195449,130.062 18.0065449,141.242 C18.3805449,163.638 37.2875449,181.858 60.1535449,181.858 L99.3175449,181.858 C115.350545,181.858 130.373545,188.154 141.616545,199.587 C152.858545,211.018 158.901545,226.149 158.633545,242.193 C158.097545,274.348 131.116545,300.508 98.4885449,300.508 L59.3255449,300.508 C48.1565449,300.508 37.6925449,304.895 29.8595449,312.86 C22.0285449,320.821 17.8195449,331.364 18.0065449,342.544 C18.3805449,364.939 37.2875449,383.159 60.1535449,383.159 L99.3175449,383.159 C115.351545,383.159 130.373545,389.456 141.617545,400.888 C152.858545,412.319 158.901545,427.45 158.633545,443.495 C158.097545,475.65 131.116545,501.81 98.4885449,501.81 L59.3255449,501.81 C48.1565449,501.81 37.6925449,506.196 29.8595449,514.161 C22.0285449,522.123 17.8195449,532.666 18.0065449,543.845 C18.3805449,566.241 37.2875449,584.461 60.1535449,584.461 L99.3175449,584.461 C115.350545,584.461 130.373545,590.756 141.616545,602.19 C152.858545,613.621 158.901545,628.752 158.633545,644.797 C158.097545,676.951 131.116545,703.111 98.4885449,703.111 L59.3255449,703.111 Z" id="Fill-1"></path>
            </g>
            <g id="Group-4" transform="translate(289.000000, 654.000000)">
                <path d="M61.7119,10.5907 C69.2919,18.1707 72.8059,28.2757 72.2339,38.1957 C71.7599,46.7597 68.2459,55.1807 61.7119,61.7147 C55.1779,68.2487 46.7639,71.7557 38.2079,72.2367 C28.2799,72.8017 18.1679,69.2947 10.5879,61.7147 C-3.5331,47.5937 -3.5261,24.7047 10.5879,10.5907 C24.7089,-3.5303 47.5909,-3.5303 61.7119,10.5907" id="Fill-5" stroke="#FFFFFF" stroke-width="6" fill="url(#linearGradient-1)"></path>
                <path d="M25.6515,22.5295 L25.6515,24.2195 L21.7645,24.2195 L21.7645,26.618 L25.0015,26.618 L25.0015,28.3145 L21.7645,28.3145 L21.7645,32 L19.5545,32 L19.5545,22.5295 L25.6515,22.5295 Z M28.8755,25.2595 L28.8755,32 L26.8605,32 L26.8605,25.2595 L28.8755,25.2595 Z M29.1095,23.4135 C29.1095,23.5738341 29.0770003,23.724416 29.012,23.86525 C28.9469997,24.006084 28.8581672,24.1295828 28.7455,24.23575 C28.6328328,24.3419172 28.5017507,24.4264164 28.35225,24.48925 C28.2027493,24.5520836 28.0435008,24.5835 27.8745,24.5835 C27.7098325,24.5835 27.5560007,24.5520836 27.413,24.48925 C27.2699993,24.4264164 27.1432506,24.3419172 27.03275,24.23575 C26.9222494,24.1295828 26.8355836,24.006084 26.77275,23.86525 C26.7099164,23.724416 26.6785,23.5738341 26.6785,23.4135 C26.6785,23.2488325 26.7099164,23.0950007 26.77275,22.952 C26.8355836,22.8089993 26.9222494,22.6833339 27.03275,22.575 C27.1432506,22.4666661 27.2699993,22.382167 27.413,22.3215 C27.5560007,22.260833 27.7098325,22.2305 27.8745,22.2305 C28.0435008,22.2305 28.2027493,22.260833 28.35225,22.3215 C28.5017507,22.382167 28.6328328,22.4666661 28.7455,22.575 C28.8581672,22.6833339 28.9469997,22.8089993 29.012,22.952 C29.0770003,23.0950007 29.1095,23.2488325 29.1095,23.4135 Z M30.5005,32 L30.5005,25.2595 L31.7485,25.2595 C31.8741673,25.2595 31.9792496,25.2876664 32.06375,25.344 C32.1482504,25.4003336 32.2078332,25.4848328 32.2425,25.5975 L32.3595,25.9875 C32.4895006,25.8661661 32.6238326,25.7535005 32.7625,25.6495 C32.9011674,25.5454995 33.0495825,25.4577504 33.20775,25.38625 C33.3659175,25.3147496 33.5370824,25.2584169 33.72125,25.21725 C33.9054176,25.1760831 34.1058323,25.1555 34.3225,25.1555 C34.6908352,25.1555 35.0169152,25.219416 35.30075,25.34725 C35.5845848,25.475084 35.823999,25.6527489 36.019,25.88025 C36.214001,26.1077511 36.3613328,26.3785818 36.461,26.69275 C36.5606672,27.0069182 36.6105,27.3481648 36.6105,27.7165 L36.6105,32 L34.5955,32 L34.5955,27.7165 C34.5955,27.387165 34.5196674,27.1304176 34.368,26.94625 C34.2163326,26.7620824 33.9931681,26.67 33.6985,26.67 C33.4774989,26.67 33.269501,26.7176662 33.0745,26.813 C32.879499,26.9083338 32.6931676,27.0361659 32.5155,27.1965 L32.5155,32 L30.5005,32 Z M40.1205,25.2595 L40.1205,32 L38.1055,32 L38.1055,25.2595 L40.1205,25.2595 Z M40.3545,23.4135 C40.3545,23.5738341 40.3220003,23.724416 40.257,23.86525 C40.1919997,24.006084 40.1031672,24.1295828 39.9905,24.23575 C39.8778328,24.3419172 39.7467507,24.4264164 39.59725,24.48925 C39.4477493,24.5520836 39.2885008,24.5835 39.1195,24.5835 C38.9548325,24.5835 38.8010007,24.5520836 38.658,24.48925 C38.5149993,24.4264164 38.3882506,24.3419172 38.27775,24.23575 C38.1672494,24.1295828 38.0805836,24.006084 38.01775,23.86525 C37.9549164,23.724416 37.9235,23.5738341 37.9235,23.4135 C37.9235,23.2488325 37.9549164,23.0950007 38.01775,22.952 C38.0805836,22.8089993 38.1672494,22.6833339 38.27775,22.575 C38.3882506,22.4666661 38.5149993,22.382167 38.658,22.3215 C38.8010007,22.260833 38.9548325,22.2305 39.1195,22.2305 C39.2885008,22.2305 39.4477493,22.260833 39.59725,22.3215 C39.7467507,22.382167 39.8778328,22.4666661 39.9905,22.575 C40.1031672,22.6833339 40.1919997,22.8089993 40.257,22.952 C40.3220003,23.0950007 40.3545,23.2488325 40.3545,23.4135 Z M45.8665,26.735 C45.8144997,26.8173337 45.7592503,26.8758332 45.70075,26.9105 C45.6422497,26.9451668 45.5675005,26.9625 45.4765,26.9625 C45.3811662,26.9625 45.2858338,26.9419169 45.1905,26.90075 C45.0951662,26.8595831 44.9922506,26.8151669 44.88175,26.7675 C44.7712494,26.7198331 44.6466674,26.6754169 44.508,26.63425 C44.3693326,26.5930831 44.2111676,26.5725 44.0335,26.5725 C43.7778321,26.5725 43.5817507,26.6212495 43.44525,26.71875 C43.3087493,26.8162505 43.2405,26.9516658 43.2405,27.125 C43.2405,27.2506673 43.2849162,27.3546663 43.37375,27.437 C43.4625838,27.5193337 43.5806659,27.5919164 43.728,27.65475 C43.8753341,27.7175836 44.0421657,27.7771664 44.2285,27.8335 C44.4148343,27.8898336 44.605499,27.9526663 44.8005,28.022 C44.995501,28.0913337 45.1861657,28.1725829 45.3725,28.26575 C45.5588343,28.3589171 45.7256659,28.4737493 45.873,28.61025 C46.0203341,28.7467507 46.1384162,28.912499 46.22725,29.1075 C46.3160838,29.302501 46.3605,29.5364986 46.3605,29.8095 C46.3605,30.1431683 46.2998339,30.4508319 46.1785,30.7325 C46.0571661,31.0141681 45.8762512,31.2568323 45.63575,31.4605 C45.3952488,31.6641677 45.0984184,31.8223328 44.74525,31.935 C44.3920816,32.0476672 43.9858356,32.104 43.5265,32.104 C43.2968322,32.104 43.0671678,32.0823336 42.8375,32.039 C42.6078322,31.9956665 42.3857511,31.937167 42.17125,31.8635 C41.9567489,31.789833 41.7585009,31.7020838 41.5765,31.60025 C41.3944991,31.4984162 41.2385007,31.3890006 41.1085,31.272 L41.5765,30.531 C41.6328336,30.4443329 41.6999996,30.3760836 41.778,30.32625 C41.8560004,30.2764164 41.9578327,30.2515 42.0835,30.2515 C42.2005006,30.2515 42.3055829,30.2774997 42.39875,30.3295 C42.4919171,30.3815003 42.5926661,30.437833 42.701,30.4985 C42.8093339,30.559167 42.9360826,30.6154997 43.08125,30.6675 C43.2264174,30.7195003 43.4094989,30.7455 43.6305,30.7455 C43.7865008,30.7455 43.9186661,30.7292502 44.027,30.69675 C44.1353339,30.6642498 44.2219997,30.6198336 44.287,30.5635 C44.3520003,30.5071664 44.3996665,30.4443337 44.43,30.375 C44.4603335,30.3056663 44.4755,30.234167 44.4755,30.1605 C44.4755,30.026166 44.4300005,29.9156671 44.339,29.829 C44.2479995,29.7423329 44.1288341,29.6675836 43.9815,29.60475 C43.8341659,29.5419164 43.6662509,29.4834169 43.47775,29.42925 C43.2892491,29.3750831 43.097501,29.3133337 42.9025,29.244 C42.707499,29.1746663 42.5157509,29.0912505 42.32725,28.99375 C42.1387491,28.8962495 41.9708341,28.7727507 41.8235,28.62325 C41.6761659,28.4737493 41.5570005,28.2906678 41.466,28.074 C41.3749995,27.8573322 41.3295,27.5951682 41.3295,27.2875 C41.3295,27.0014986 41.3847494,26.7295846 41.49525,26.47175 C41.6057506,26.2139154 41.7714989,25.987501 41.9925,25.7925 C42.2135011,25.597499 42.4908317,25.4425839 42.8245,25.32775 C43.1581683,25.2129161 43.5481644,25.1555 43.9945,25.1555 C44.2371679,25.1555 44.4722489,25.1771665 44.69975,25.2205 C44.9272511,25.2638336 45.1406657,25.3244996 45.34,25.4025 C45.5393343,25.4805004 45.7213325,25.5725828 45.886,25.67875 C46.0506675,25.7849172 46.1958327,25.9008327 46.3215,26.0265 L45.8665,26.735 Z M47.4655,32 L47.4655,22.2695 L49.4805,22.2695 L49.4805,25.851 C49.7231679,25.642999 49.9864152,25.475084 50.27025,25.34725 C50.5540848,25.219416 50.8931647,25.1555 51.2875,25.1555 C51.6558352,25.1555 51.9819152,25.219416 52.26575,25.34725 C52.5495848,25.475084 52.788999,25.6527489 52.984,25.88025 C53.179001,26.1077511 53.3263328,26.3785818 53.426,26.69275 C53.5256672,27.0069182 53.5755,27.3481648 53.5755,27.7165 L53.5755,32 L51.5605,32 L51.5605,27.7165 C51.5605,27.387165 51.4846674,27.1304176 51.333,26.94625 C51.1813326,26.7620824 50.9581681,26.67 50.6635,26.67 C50.4424989,26.67 50.234501,26.7176662 50.0395,26.813 C49.844499,26.9083338 49.6581676,27.0361659 49.4805,27.1965 L49.4805,32 L47.4655,32 Z M13.7695,49.1385 L13.7695,40.2595 L15.0175,40.2595 C15.1431673,40.2595 15.2482496,40.2876664 15.33275,40.344 C15.4172504,40.4003336 15.4768332,40.4848328 15.5115,40.5975 L15.661,41.0915 C15.7910007,40.9484993 15.9307493,40.8185006 16.08025,40.7015 C16.2297507,40.5844994 16.3900825,40.4837504 16.56125,40.39925 C16.7324175,40.3147496 16.9165823,40.2486669 17.11375,40.201 C17.3109177,40.1533331 17.5264988,40.1295 17.7605,40.1295 C18.1115018,40.1295 18.4364985,40.2074992 18.7355,40.3635 C19.0345015,40.5195008 19.2923323,40.7448319 19.509,41.0395 C19.7256677,41.3341681 19.8957494,41.6949145 20.01925,42.12175 C20.1427506,42.5485855 20.2045,43.0328306 20.2045,43.5745 C20.2045,44.0815025 20.134084,44.5494979 19.99325,44.9785 C19.852416,45.4075021 19.6552513,45.7801651 19.40175,46.0965 C19.1482487,46.4128349 18.8449184,46.6598324 18.49175,46.8375 C18.1385816,47.0151676 17.7475021,47.104 17.3185,47.104 C16.9674982,47.104 16.6728345,47.0541672 16.4345,46.9545 C16.1961655,46.8548328 15.979501,46.7205008 15.7845,46.5515 L15.7845,49.1385 L13.7695,49.1385 Z M17.0585,41.67 C16.9111659,41.67 16.7779173,41.6840832 16.65875,41.71225 C16.5395827,41.7404168 16.4290838,41.7804997 16.32725,41.8325 C16.2254162,41.8845003 16.1311671,41.9505829 16.0445,42.03075 C15.9578329,42.1109171 15.8711671,42.2029995 15.7845,42.307 L15.7845,45.167 C15.9361674,45.3360008 16.1008324,45.454083 16.2785,45.52125 C16.4561676,45.588417 16.642499,45.622 16.8375,45.622 C17.0238343,45.622 17.1949992,45.585167 17.351,45.5115 C17.5070008,45.437833 17.6424161,45.3197508 17.75725,45.15725 C17.8720839,44.9947492 17.9619997,44.7835013 18.027,44.5235 C18.0920003,44.2634987 18.1245,43.9471685 18.1245,43.5745 C18.1245,43.2191649 18.0985003,42.9201679 18.0465,42.6775 C17.9944997,42.4348321 17.9219171,42.2387507 17.82875,42.08925 C17.7355829,41.9397493 17.6240006,41.8325003 17.494,41.7675 C17.3639994,41.7024997 17.2188341,41.67 17.0585,41.67 Z M21.2835,47 L21.2835,40.2595 L22.4795,40.2595 C22.5791672,40.2595 22.662583,40.2681666 22.72975,40.2855 C22.796917,40.3028334 22.8532498,40.3299165 22.89875,40.36675 C22.9442502,40.4035835 22.9789165,40.452333 23.00275,40.513 C23.0265835,40.573667 23.0471666,40.6473329 23.0645,40.734 L23.175,41.3645 C23.4220012,40.9831648 23.6993318,40.6820011 24.007,40.461 C24.3146682,40.2399989 24.6504982,40.1295 25.0145,40.1295 C25.3221682,40.1295 25.5691657,40.2031659 25.7555,40.3505 L25.4955,41.8325 C25.4781666,41.9235005 25.4435003,41.9874165 25.3915,42.02425 C25.3394997,42.0610835 25.2701671,42.0795 25.1835,42.0795 C25.109833,42.0795 25.0231672,42.0697501 24.9235,42.05025 C24.8238328,42.0307499 24.6981674,42.021 24.5465,42.021 C24.0178307,42.021 23.6018348,42.3026639 23.2985,42.866 L23.2985,47 L21.2835,47 Z M29.6555,40.1555 C30.1668359,40.1555 30.6326646,40.2356659 31.053,40.396 C31.4733354,40.5563341 31.8340818,40.7859985 32.13525,41.085 C32.4364182,41.3840015 32.6704158,41.7469145 32.83725,42.17375 C33.0040842,42.6005855 33.0875,43.0804973 33.0875,43.6135 C33.0875,44.150836 33.0040842,44.6350812 32.83725,45.06625 C32.6704158,45.4974188 32.4364182,45.8635818 32.13525,46.16475 C31.8340818,46.4659182 31.4733354,46.6977492 31.053,46.86025 C30.6326646,47.0227508 30.1668359,47.104 29.6555,47.104 C29.1398308,47.104 28.6707521,47.0227508 28.24825,46.86025 C27.8257479,46.6977492 27.4617515,46.4659182 27.15625,46.16475 C26.8507485,45.8635818 26.6145842,45.4974188 26.44775,45.06625 C26.2809158,44.6350812 26.1975,44.150836 26.1975,43.6135 C26.1975,43.0804973 26.2809158,42.6005855 26.44775,42.17375 C26.6145842,41.7469145 26.8507485,41.3840015 27.15625,41.085 C27.4617515,40.7859985 27.8257479,40.5563341 28.24825,40.396 C28.6707521,40.2356659 29.1398308,40.1555 29.6555,40.1555 Z M29.6555,45.609 C30.119169,45.609 30.4604156,45.4454183 30.67925,45.11825 C30.8980844,44.7910817 31.0075,44.2938367 31.0075,43.6265 C31.0075,42.9591633 30.8980844,42.4630016 30.67925,42.138 C30.4604156,41.8129984 30.119169,41.6505 29.6555,41.6505 C29.178831,41.6505 28.8300011,41.8129984 28.609,42.138 C28.3879989,42.4630016 28.2775,42.9591633 28.2775,43.6265 C28.2775,44.2938367 28.3879989,44.7910817 28.609,45.11825 C28.8300011,45.4454183 29.178831,45.609 29.6555,45.609 Z M38.9245,47 C38.7988327,47 38.6937504,46.9718336 38.60925,46.9155 C38.5247496,46.8591664 38.4651668,46.7746672 38.4305,46.662 L38.2745,46.1485 C38.140166,46.2915007 37.9993341,46.4214994 37.852,46.5385 C37.7046659,46.6555006 37.5454175,46.7562496 37.37425,46.84075 C37.2030825,46.9252504 37.0189177,46.9902498 36.82175,47.03575 C36.6245823,47.0812502 36.4111678,47.104 36.1815,47.104 C35.8304982,47.104 35.5055015,47.0260008 35.2065,46.87 C34.9074985,46.7139992 34.6496678,46.4886681 34.433,46.194 C34.2163323,45.8993319 34.0462506,45.5385855 33.92275,45.11175 C33.7992494,44.6849145 33.7375,44.1985027 33.7375,43.6525 C33.7375,43.1498308 33.8068326,42.6829188 33.9455,42.25175 C34.0841674,41.8205812 34.2802487,41.4479182 34.53375,41.13375 C34.7872513,40.8195818 35.0916649,40.5736676 35.447,40.396 C35.8023351,40.2183324 36.1944979,40.1295 36.6235,40.1295 C36.9701684,40.1295 37.2637488,40.1804162 37.50425,40.28225 C37.7447512,40.3840838 37.962499,40.5173325 38.1575,40.682 L38.1575,37.2695 L40.1725,37.2695 L40.1725,47 L38.9245,47 Z M36.8835,45.557 C37.0308341,45.557 37.1640827,45.5429168 37.28325,45.51475 C37.4024173,45.4865832 37.5118328,45.4465003 37.6115,45.3945 C37.7111672,45.3424997 37.8054162,45.2775004 37.89425,45.1995 C37.9830838,45.1214996 38.0708329,45.0305005 38.1575,44.9265 L38.1575,42.0665 C38.0014992,41.8974992 37.8357509,41.779417 37.66025,41.71225 C37.4847491,41.645083 37.299501,41.6115 37.1045,41.6115 C36.9181657,41.6115 36.7470008,41.648333 36.591,41.722 C36.4349992,41.795667 36.2995839,41.9137492 36.18475,42.07625 C36.0699161,42.2387508 35.9800003,42.4499987 35.915,42.71 C35.8499997,42.9700013 35.8175,43.2841648 35.8175,43.6525 C35.8175,44.0078351 35.8434997,44.3068321 35.8955,44.5495 C35.9475003,44.7921679 36.0200829,44.9882493 36.11325,45.13775 C36.2064171,45.2872507 36.3179994,45.3944997 36.448,45.4595 C36.5780006,45.5245003 36.7231659,45.557 36.8835,45.557 Z M43.6175,40.2595 L43.6175,44.5365 C43.6175,44.8701683 43.6933326,45.1279991 43.845,45.31 C43.9966674,45.4920009 44.2198319,45.583 44.5145,45.583 C44.7355011,45.583 44.9424157,45.5375005 45.13525,45.4465 C45.3280843,45.3554995 45.5154991,45.2276675 45.6975,45.063 L45.6975,40.2595 L47.7125,40.2595 L47.7125,47 L46.4645,47 C46.2131654,47 46.0485004,46.8873345 45.9705,46.662 L45.847,46.272 C45.7169994,46.3976673 45.5826674,46.5114162 45.444,46.61325 C45.3053326,46.7150838 45.1569175,46.8017496 44.99875,46.87325 C44.8405825,46.9447504 44.6705009,47.0010831 44.4885,47.04225 C44.3064991,47.0834169 44.1071678,47.104 43.8905,47.104 C43.5221648,47.104 43.1960848,47.040084 42.91225,46.91225 C42.6284152,46.784416 42.389001,46.6056678 42.194,46.376 C41.998999,46.1463322 41.8516672,45.8755016 41.752,45.5635 C41.6523328,45.2514984 41.6025,44.9091685 41.6025,44.5365 L41.6025,40.2595 L43.6175,40.2595 Z M54.1345,41.8585 C54.073833,41.932167 54.0153336,41.9906664 53.959,42.034 C53.9026664,42.0773335 53.8225005,42.099 53.7185,42.099 C53.6188328,42.099 53.5289171,42.0751669 53.44875,42.0275 C53.3685829,41.9798331 53.2786672,41.9267503 53.179,41.86825 C53.0793328,41.8097497 52.962334,41.7566669 52.828,41.709 C52.693666,41.6613331 52.5268343,41.6375 52.3275,41.6375 C52.0804988,41.6375 51.8670842,41.6829995 51.68725,41.774 C51.5074158,41.8650005 51.3590006,41.9949992 51.242,42.164 C51.1249994,42.3330008 51.0383336,42.5399154 50.982,42.78475 C50.9256664,43.0295846 50.8975,43.3058318 50.8975,43.6135 C50.8975,44.2591699 51.0220821,44.7553316 51.27125,45.102 C51.5204179,45.4486684 51.8638311,45.622 52.3015,45.622 C52.5355012,45.622 52.7207493,45.5927503 52.85725,45.53425 C52.9937507,45.4757497 53.1096662,45.4107504 53.205,45.33925 C53.3003338,45.2677496 53.3880829,45.201667 53.46825,45.141 C53.5484171,45.080333 53.6491661,45.05 53.7705,45.05 C53.9308341,45.05 54.0521663,45.1084994 54.1345,45.2255 L54.7195,45.947 C54.511499,46.1853345 54.2926678,46.3792493 54.063,46.52875 C53.8333322,46.6782507 53.5982512,46.7952496 53.35775,46.87975 C53.1172488,46.9642504 52.8756679,47.0227498 52.633,47.05525 C52.3903321,47.0877502 52.1541678,47.104 51.9245,47.104 C51.5128313,47.104 51.1195852,47.0260008 50.74475,46.87 C50.3699148,46.7139992 50.0405848,46.4875848 49.75675,46.19075 C49.4729152,45.8939152 49.2475842,45.5288355 49.08075,45.0955 C48.9139158,44.6621645 48.8305,44.1681694 48.8305,43.6135 C48.8305,43.1281642 48.9030826,42.6742521 49.04825,42.25175 C49.1934174,41.8292479 49.4079152,41.4630849 49.69175,41.15325 C49.9755848,40.8434151 50.3265812,40.5996676 50.74475,40.422 C51.1629188,40.2443324 51.6471639,40.1555 52.1975,40.1555 C52.7261693,40.1555 53.1898313,40.2399992 53.5885,40.409 C53.9871687,40.5780008 54.3468317,40.8249984 54.6675,41.15 L54.1345,41.8585 Z M57.9565,47.104 C57.6358317,47.104 57.3530846,47.0574171 57.10825,46.96425 C56.8634154,46.8710829 56.6575842,46.7389175 56.49075,46.56775 C56.3239158,46.3965825 56.1971671,46.1896679 56.1105,45.947 C56.0238329,45.7043321 55.9805,45.4335015 55.9805,45.1345 L55.9805,41.6505 L55.4085,41.6505 C55.3044995,41.6505 55.215667,41.616917 55.142,41.54975 C55.068333,41.482583 55.0315,41.3840007 55.0315,41.254 L55.0315,40.4675 L56.104,40.2595 L56.5005,38.615 C56.5525003,38.406999 56.6998321,38.303 56.9425,38.303 L57.9955,38.303 L57.9955,40.2725 L59.6335,40.2725 L59.6335,41.6505 L57.9955,41.6505 L57.9955,44.998 C57.9955,45.1540008 58.0334163,45.2829162 58.10925,45.38475 C58.1850837,45.4865838 58.2944993,45.5375 58.4375,45.5375 C58.511167,45.5375 58.5729164,45.5299167 58.62275,45.51475 C58.6725836,45.4995833 58.7159165,45.4822501 58.75275,45.46275 C58.7895835,45.4432499 58.8242498,45.4259167 58.85675,45.41075 C58.8892502,45.3955833 58.9271665,45.388 58.9705,45.388 C59.031167,45.388 59.0799165,45.4020832 59.11675,45.43025 C59.1535835,45.4584168 59.1914998,45.502833 59.2305,45.5635 L59.8415,46.519 C59.5814987,46.714001 59.2890016,46.8602495 58.964,46.95775 C58.6389984,47.0552505 58.3031684,47.104 57.9565,47.104 Z" id="Finish-product" fill="#FFFFFF"></path>
            </g>
            <g id="Page-1" transform="translate(253.000000, 104.000000)">
                <g id="Group-11" transform="translate(0.000000, 0.295200)">
                    <rect id="Rectangle-3" fill="url(#linearGradient-2)" x="65" y="36" width="297" height="4"></rect>
                    <g id="Group-7">
                        <mask id="mask-4" fill="white">
                            <use xlink:href="#path-3"></use>
                        </mask>
                        <g id="Clip-6"></g>
                        <path d="M61.7119,11.2955 C69.2919,18.8755 72.8059,28.9805 72.2339,38.9005 C71.7599,47.4645 68.2459,55.8855 61.7119,62.4195 C55.1779,68.9535 46.7639,72.4605 38.2079,72.9415 C28.2799,73.5065 18.1679,69.9995 10.5879,62.4195 C-3.5331,48.2985 -3.5261,25.4095 10.5879,11.2955 C24.7089,-2.8255 47.5909,-2.8255 61.7119,11.2955" id="Fill-5" fill="url(#linearGradient-1)" mask="url(#mask-4)"></path>
                    </g>
                    <g id="Group-10" transform="translate(19.000000, 19.000000)">
                        <mask id="mask-6" fill="white">
                            <use xlink:href="#path-5"></use>
                        </mask>
                        <g id="Clip-9"></g>
                        <path d="M34.17,0.837 L53.234,19.901 C52.76,28.464 49.246,36.886 42.712,43.419 C36.178,49.953 27.764,53.46 19.208,53.941 L0.137,34.87 L34.17,0.837 Z" id="Fill-8" mask="url(#mask-6)"></path>
                    </g>
                </g>
                <g id="Group-14" transform="translate(12.000000, 12.295200)">
                    <mask id="mask-8" fill="white">
                        <use xlink:href="#path-7"></use>
                    </mask>
                    <g id="Clip-13"></g>
                    <path d="M7.136,7.84 C-2.261,17.237 -2.261,32.472 7.136,41.87 C16.533,51.266 31.769,51.266 41.166,41.87 C50.564,32.472 50.564,17.237 41.166,7.84 C36.467,3.141 30.309,0.791 24.151,0.791 C17.993,0.791 11.834,3.141 7.136,7.84" id="Fill-12" fill="#FFFFFF" mask="url(#mask-8)"></path>
                    <path d="M24.2,24.71 C24.2,25.9833397 24.0633347,27.086662 23.79,28.02 C23.5166653,28.953338 23.1383357,29.7266636 22.655,30.34 C22.1716642,30.9533364 21.5983367,31.4099985 20.935,31.71 C20.2716634,32.0100015 19.5533372,32.16 18.78,32.16 C18.0066628,32.16 17.2916699,32.0100015 16.635,31.71 C15.9783301,31.4099985 15.4100024,30.9533364 14.93,30.34 C14.4499976,29.7266636 14.0750014,28.953338 13.805,28.02 C13.5349987,27.086662 13.4,25.9833397 13.4,24.71 C13.4,23.4366603 13.5349987,22.333338 13.805,21.4 C14.0750014,20.466662 14.4499976,19.6933364 14.93,19.08 C15.4100024,18.4666636 15.9783301,18.0116681 16.635,17.715 C17.2916699,17.4183319 18.0066628,17.27 18.78,17.27 C19.5533372,17.27 20.2716634,17.4183319 20.935,17.715 C21.5983367,18.0116681 22.1716642,18.4666636 22.655,19.08 C23.1383357,19.6933364 23.5166653,20.466662 23.79,21.4 C24.0633347,22.333338 24.2,23.4366603 24.2,24.71 Z M21,24.71 C21,23.7033283 20.9366673,22.8783366 20.81,22.235 C20.6833327,21.5916634 20.5150011,21.0866685 20.305,20.72 C20.094999,20.3533315 19.856668,20.1016673 19.59,19.965 C19.323332,19.8283327 19.0533347,19.76 18.78,19.76 C18.5066653,19.76 18.2383346,19.8283327 17.975,19.965 C17.7116654,20.1016673 17.4783344,20.3533315 17.275,20.72 C17.0716656,21.0866685 16.9083339,21.5916634 16.785,22.235 C16.6616661,22.8783366 16.6,23.7033283 16.6,24.71 C16.6,25.7233384 16.6616661,26.5499968 16.785,27.19 C16.9083339,27.8300032 17.0716656,28.3349982 17.275,28.705 C17.4783344,29.0750018 17.7116654,29.3283327 17.975,29.465 C18.2383346,29.6016673 18.5066653,29.67 18.78,29.67 C19.0533347,29.67 19.323332,29.6016673 19.59,29.465 C19.856668,29.3283327 20.094999,29.0750018 20.305,28.705 C20.5150011,28.3349982 20.6833327,27.8300032 20.81,27.19 C20.9366673,26.5499968 21,25.7233384 21,24.71 Z M27.12,29.76 L29.92,29.76 L29.92,22.41 C29.92,22.0499982 29.9299999,21.6733353 29.95,21.28 L28.3,22.65 C28.1933328,22.7366671 28.0866672,22.7983331 27.98,22.835 C27.8733328,22.8716669 27.7700005,22.89 27.67,22.89 C27.4966658,22.89 27.3416674,22.851667 27.205,22.775 C27.0683327,22.698333 26.966667,22.6166671 26.9,22.53 L25.92,21.23 L30.46,17.42 L33.02,17.42 L33.02,29.76 L35.42,29.76 L35.42,32 L27.12,32 L27.12,29.76 Z" id="01" fill="#529CFB" mask="url(#mask-8)"></path>
                </g>
            </g>
            <g id="Page-1-Copy-3" transform="translate(253.000000, 304.000000)">
                <g id="Group-11" transform="translate(0.000000, 0.295200)">
                    <rect id="Rectangle-3" fill="url(#linearGradient-2)" x="65" y="36" width="336" height="4"></rect>
                    <g id="Group-7">
                        <mask id="mask-10" fill="white">
                            <use xlink:href="#path-9"></use>
                        </mask>
                        <g id="Clip-6"></g>
                        <path d="M61.7119,11.2955 C69.2919,18.8755 72.8059,28.9805 72.2339,38.9005 C71.7599,47.4645 68.2459,55.8855 61.7119,62.4195 C55.1779,68.9535 46.7639,72.4605 38.2079,72.9415 C28.2799,73.5065 18.1679,69.9995 10.5879,62.4195 C-3.5331,48.2985 -3.5261,25.4095 10.5879,11.2955 C24.7089,-2.8255 47.5909,-2.8255 61.7119,11.2955" id="Fill-5" fill="url(#linearGradient-1)" mask="url(#mask-10)"></path>
                    </g>
                    <g id="Group-10" transform="translate(19.000000, 19.000000)">
                        <mask id="mask-12" fill="white">
                            <use xlink:href="#path-11"></use>
                        </mask>
                        <g id="Clip-9"></g>
                        <path d="M34.17,0.837 L53.234,19.901 C52.76,28.464 49.246,36.886 42.712,43.419 C36.178,49.953 27.764,53.46 19.208,53.941 L0.137,34.87 L34.17,0.837 Z" id="Fill-8" mask="url(#mask-12)"></path>
                    </g>
                </g>
                <g id="Group-14" transform="translate(12.000000, 12.295200)">
                    <mask id="mask-14" fill="white">
                        <use xlink:href="#path-13"></use>
                    </mask>
                    <g id="Clip-13"></g>
                    <path d="M7.136,7.84 C-2.261,17.237 -2.261,32.472 7.136,41.87 C16.533,51.266 31.769,51.266 41.166,41.87 C50.564,32.472 50.564,17.237 41.166,7.84 C36.467,3.141 30.309,0.791 24.151,0.791 C17.993,0.791 11.834,3.141 7.136,7.84" id="Fill-12" fill="#FFFFFF" mask="url(#mask-14)"></path>
                    <path d="M24.2,24.71 C24.2,25.9833397 24.0633347,27.086662 23.79,28.02 C23.5166653,28.953338 23.1383357,29.7266636 22.655,30.34 C22.1716642,30.9533364 21.5983367,31.4099985 20.935,31.71 C20.2716634,32.0100015 19.5533372,32.16 18.78,32.16 C18.0066628,32.16 17.2916699,32.0100015 16.635,31.71 C15.9783301,31.4099985 15.4100024,30.9533364 14.93,30.34 C14.4499976,29.7266636 14.0750014,28.953338 13.805,28.02 C13.5349987,27.086662 13.4,25.9833397 13.4,24.71 C13.4,23.4366603 13.5349987,22.333338 13.805,21.4 C14.0750014,20.466662 14.4499976,19.6933364 14.93,19.08 C15.4100024,18.4666636 15.9783301,18.0116681 16.635,17.715 C17.2916699,17.4183319 18.0066628,17.27 18.78,17.27 C19.5533372,17.27 20.2716634,17.4183319 20.935,17.715 C21.5983367,18.0116681 22.1716642,18.4666636 22.655,19.08 C23.1383357,19.6933364 23.5166653,20.466662 23.79,21.4 C24.0633347,22.333338 24.2,23.4366603 24.2,24.71 Z M21,24.71 C21,23.7033283 20.9366673,22.8783366 20.81,22.235 C20.6833327,21.5916634 20.5150011,21.0866685 20.305,20.72 C20.094999,20.3533315 19.856668,20.1016673 19.59,19.965 C19.323332,19.8283327 19.0533347,19.76 18.78,19.76 C18.5066653,19.76 18.2383346,19.8283327 17.975,19.965 C17.7116654,20.1016673 17.4783344,20.3533315 17.275,20.72 C17.0716656,21.0866685 16.9083339,21.5916634 16.785,22.235 C16.6616661,22.8783366 16.6,23.7033283 16.6,24.71 C16.6,25.7233384 16.6616661,26.5499968 16.785,27.19 C16.9083339,27.8300032 17.0716656,28.3349982 17.275,28.705 C17.4783344,29.0750018 17.7116654,29.3283327 17.975,29.465 C18.2383346,29.6016673 18.5066653,29.67 18.78,29.67 C19.0533347,29.67 19.323332,29.6016673 19.59,29.465 C19.856668,29.3283327 20.094999,29.0750018 20.305,28.705 C20.5150011,28.3349982 20.6833327,27.8300032 20.81,27.19 C20.9366673,26.5499968 21,25.7233384 21,24.71 Z M30.9,17.27 C31.6200036,17.27 32.2599972,17.3716657 32.82,17.575 C33.3800028,17.7783343 33.8533314,18.0533316 34.24,18.4 C34.6266686,18.7466684 34.919999,19.1483311 35.12,19.605 C35.320001,20.061669 35.42,20.5433308 35.42,21.05 C35.42,21.5100023 35.3733338,21.9149983 35.28,22.265 C35.1866662,22.6150018 35.0483343,22.9183321 34.865,23.175 C34.6816658,23.431668 34.4550014,23.6499991 34.185,23.83 C33.9149987,24.0100009 33.6066684,24.1599994 33.26,24.28 C34.8733414,24.8400028 35.68,25.9366585 35.68,27.57 C35.68,28.3433372 35.5400014,29.0166638 35.26,29.59 C34.9799986,30.1633362 34.6050023,30.6399981 34.135,31.02 C33.6649977,31.4000019 33.1200031,31.6849991 32.5,31.875 C31.8799969,32.0650009 31.2333367,32.16 30.56,32.16 C29.8666632,32.16 29.2500027,32.0850007 28.71,31.935 C28.1699973,31.7849992 27.6900021,31.5516682 27.27,31.235 C26.8499979,30.9183318 26.4816682,30.5133358 26.165,30.02 C25.8483317,29.5266642 25.5733345,28.9400034 25.34,28.26 L26.72,27.7 C26.8400006,27.6466664 26.9583327,27.6100001 27.075,27.59 C27.1916672,27.5699999 27.3066661,27.56 27.42,27.56 C27.6333344,27.56 27.8249991,27.6016662 27.995,27.685 C28.1650008,27.7683337 28.2933329,27.8899992 28.38,28.05 C28.6800015,28.6033361 28.9983316,29.0049987 29.335,29.255 C29.6716683,29.5050012 30.0666644,29.63 30.52,29.63 C30.8666684,29.63 31.168332,29.5716672 31.425,29.455 C31.6816679,29.3383327 31.8949991,29.1883343 32.065,29.005 C32.2350008,28.8216658 32.3633329,28.6133345 32.45,28.38 C32.5366671,28.1466655 32.58,27.9100012 32.58,27.67 C32.58,27.3566651 32.5583336,27.0750012 32.515,26.825 C32.4716665,26.5749987 32.350001,26.3600009 32.15,26.18 C31.949999,25.9999991 31.6483354,25.8616672 31.245,25.765 C30.8416647,25.6683328 30.2800036,25.62 29.56,25.62 L29.56,23.48 C30.1666697,23.48 30.6566648,23.4333338 31.03,23.34 C31.4033352,23.2466662 31.6916656,23.1183341 31.895,22.955 C32.0983344,22.7916659 32.233333,22.5933345 32.3,22.36 C32.366667,22.1266655 32.4,21.8700014 32.4,21.59 C32.4,21.0166638 32.2616681,20.5750015 31.985,20.265 C31.708332,19.9549984 31.2866695,19.8 30.72,19.8 C30.4866655,19.8 30.2733343,19.833333 30.08,19.9 C29.8866657,19.966667 29.7133341,20.0566661 29.56,20.17 C29.4066659,20.2833339 29.2750005,20.4166659 29.165,20.57 C29.0549994,20.7233341 28.966667,20.8899991 28.9,21.07 C28.7933328,21.3700015 28.6583341,21.586666 28.495,21.72 C28.3316659,21.853334 28.1100014,21.92 27.83,21.92 C27.763333,21.92 27.691667,21.9166667 27.615,21.91 C27.5383329,21.9033333 27.4600004,21.8933334 27.38,21.88 L25.74,21.59 C25.8466672,20.8633297 26.0516651,20.2300027 26.355,19.69 C26.6583348,19.1499973 27.0349977,18.7000018 27.485,18.34 C27.9350022,17.9799982 28.4499971,17.7116675 29.03,17.535 C29.6100029,17.3583324 30.23333,17.27 30.9,17.27 Z" id="03" fill="#529CFB" mask="url(#mask-14)"></path>
                </g>
            </g>
            <g id="Page-1-Copy-2" transform="translate(180.000000, 241.000000) scale(-1, 1) translate(-180.000000, -241.000000) translate(0.000000, 204.000000)">
                <g id="Group-11" transform="translate(0.000000, 0.295200)">
                    <rect id="Rectangle-3" fill="url(#linearGradient-2)" transform="translate(211.500000, 38.000000) scale(1, -1) translate(-211.500000, -38.000000) " x="63" y="36" width="297" height="4"></rect>
                    <g id="Group-7">
                        <mask id="mask-16" fill="white">
                            <use xlink:href="#path-15"></use>
                        </mask>
                        <g id="Clip-6"></g>
                        <path d="M61.7119,11.2955 C69.2919,18.8755 72.8059,28.9805 72.2339,38.9005 C71.7599,47.4645 68.2459,55.8855 61.7119,62.4195 C55.1779,68.9535 46.7639,72.4605 38.2079,72.9415 C28.2799,73.5065 18.1679,69.9995 10.5879,62.4195 C-3.5331,48.2985 -3.5261,25.4095 10.5879,11.2955 C24.7089,-2.8255 47.5909,-2.8255 61.7119,11.2955" id="Fill-5" fill="url(#linearGradient-1)" mask="url(#mask-16)"></path>
                    </g>
                </g>
                <g id="Group-14" transform="translate(12.000000, 12.295200)">
                    <mask id="mask-18" fill="white">
                        <use xlink:href="#path-17"></use>
                    </mask>
                    <g id="Clip-13"></g>
                    <path d="M7.136,7.84 C-2.261,17.237 -2.261,32.472 7.136,41.87 C16.533,51.266 31.769,51.266 41.166,41.87 C50.564,32.472 50.564,17.237 41.166,7.84 C36.467,3.141 30.309,0.791 24.151,0.791 C17.993,0.791 11.834,3.141 7.136,7.84" id="Fill-12" fill="#FFFFFF" mask="url(#mask-18)"></path>
                    <path d="M24.2,23.71 C24.2,24.9833397 24.0633347,26.086662 23.79,27.02 C23.5166653,27.953338 23.1383357,28.7266636 22.655,29.34 C22.1716642,29.9533364 21.5983367,30.4099985 20.935,30.71 C20.2716634,31.0100015 19.5533372,31.16 18.78,31.16 C18.0066628,31.16 17.2916699,31.0100015 16.635,30.71 C15.9783301,30.4099985 15.4100024,29.9533364 14.93,29.34 C14.4499976,28.7266636 14.0750014,27.953338 13.805,27.02 C13.5349987,26.086662 13.4,24.9833397 13.4,23.71 C13.4,22.4366603 13.5349987,21.333338 13.805,20.4 C14.0750014,19.466662 14.4499976,18.6933364 14.93,18.08 C15.4100024,17.4666636 15.9783301,17.0116681 16.635,16.715 C17.2916699,16.4183319 18.0066628,16.27 18.78,16.27 C19.5533372,16.27 20.2716634,16.4183319 20.935,16.715 C21.5983367,17.0116681 22.1716642,17.4666636 22.655,18.08 C23.1383357,18.6933364 23.5166653,19.466662 23.79,20.4 C24.0633347,21.333338 24.2,22.4366603 24.2,23.71 Z M21,23.71 C21,22.7033283 20.9366673,21.8783366 20.81,21.235 C20.6833327,20.5916634 20.5150011,20.0866685 20.305,19.72 C20.094999,19.3533315 19.856668,19.1016673 19.59,18.965 C19.323332,18.8283327 19.0533347,18.76 18.78,18.76 C18.5066653,18.76 18.2383346,18.8283327 17.975,18.965 C17.7116654,19.1016673 17.4783344,19.3533315 17.275,19.72 C17.0716656,20.0866685 16.9083339,20.5916634 16.785,21.235 C16.6616661,21.8783366 16.6,22.7033283 16.6,23.71 C16.6,24.7233384 16.6616661,25.5499968 16.785,26.19 C16.9083339,26.8300032 17.0716656,27.3349982 17.275,27.705 C17.4783344,28.0750018 17.7116654,28.3283327 17.975,28.465 C18.2383346,28.6016673 18.5066653,28.67 18.78,28.67 C19.0533347,28.67 19.323332,28.6016673 19.59,28.465 C19.856668,28.3283327 20.094999,28.0750018 20.305,27.705 C20.5150011,27.3349982 20.6833327,26.8300032 20.81,26.19 C20.9366673,25.5499968 21,24.7233384 21,23.71 Z M30.62,16.27 C31.3400036,16.27 31.9883304,16.3749989 32.565,16.585 C33.1416696,16.795001 33.6333313,17.0866648 34.04,17.46 C34.4466687,17.8333352 34.7583322,18.2783307 34.975,18.795 C35.1916678,19.3116693 35.3,19.8799969 35.3,20.5 C35.3,21.033336 35.2250007,21.5266644 35.075,21.98 C34.9249992,22.4333356 34.7200013,22.8649979 34.46,23.275 C34.1999987,23.6850021 33.8983351,24.0816648 33.555,24.465 C33.2116649,24.8483352 32.8466686,25.2366647 32.46,25.63 L29.61,28.55 C29.9766685,28.4433328 30.3383315,28.3583336 30.695,28.295 C31.0516685,28.2316663 31.3866651,28.2 31.7,28.2 L34.42,28.2 C34.753335,28.2 35.0166657,28.2916657 35.21,28.475 C35.4033343,28.6583342 35.5,28.8999985 35.5,29.2 L35.5,31 L25.26,31 L25.26,30 C25.26,29.8066657 25.2999996,29.6000011 25.38,29.38 C25.4600004,29.1599989 25.599999,28.9600009 25.8,28.78 L30,24.55 C30.3600018,24.1899982 30.673332,23.8466683 30.94,23.52 C31.206668,23.1933317 31.4266658,22.8716682 31.6,22.555 C31.7733342,22.2383318 31.9033329,21.9216682 31.99,21.605 C32.0766671,21.2883317 32.12,20.9533351 32.12,20.6 C32.12,20.0199971 31.981668,19.5750015 31.705,19.265 C31.428332,18.9549984 31.0066695,18.8 30.44,18.8 C30.2066655,18.8 29.9933343,18.833333 29.8,18.9 C29.6066657,18.966667 29.4333341,19.0566661 29.28,19.17 C29.1266659,19.2833339 28.9950006,19.4166659 28.885,19.57 C28.7749995,19.7233341 28.686667,19.8899991 28.62,20.07 C28.5133328,20.3700015 28.3783342,20.586666 28.215,20.72 C28.0516658,20.853334 27.8300014,20.92 27.55,20.92 C27.483333,20.92 27.411667,20.9166667 27.335,20.91 C27.2583329,20.9033333 27.1800004,20.8933334 27.1,20.88 L25.46,20.59 C25.5666672,19.8633297 25.7716652,19.2300027 26.075,18.69 C26.3783349,18.1499973 26.7549978,17.7000018 27.205,17.34 C27.6550023,16.9799982 28.1699971,16.7116675 28.75,16.535 C29.3300029,16.3583324 29.95333,16.27 30.62,16.27 Z" id="02" fill="#529CFB" mask="url(#mask-18)" transform="translate(24.450000, 23.715000) scale(-1, 1) translate(-24.450000, -23.715000) "></path>
                </g>
            </g>
            <g id="Page-1-Copy-4" transform="translate(182.000000, 442.000000) scale(-1, 1) translate(-182.000000, -442.000000) translate(2.000000, 405.000000)">
                <g id="Group-11" transform="translate(0.000000, 0.295200)">
                    <rect id="Rectangle-3" fill="url(#linearGradient-2)" transform="translate(211.500000, 38.000000) scale(1, -1) translate(-211.500000, -38.000000) " x="63" y="36" width="297" height="4"></rect>
                    <g id="Group-7">
                        <mask id="mask-20" fill="white">
                            <use xlink:href="#path-19"></use>
                        </mask>
                        <g id="Clip-6"></g>
                        <path d="M61.7119,11.2955 C69.2919,18.8755 72.8059,28.9805 72.2339,38.9005 C71.7599,47.4645 68.2459,55.8855 61.7119,62.4195 C55.1779,68.9535 46.7639,72.4605 38.2079,72.9415 C28.2799,73.5065 18.1679,69.9995 10.5879,62.4195 C-3.5331,48.2985 -3.5261,25.4095 10.5879,11.2955 C24.7089,-2.8255 47.5909,-2.8255 61.7119,11.2955" id="Fill-5" fill="url(#linearGradient-1)" mask="url(#mask-20)"></path>
                    </g>
                </g>
                <g id="Group-14" transform="translate(12.000000, 12.295200)">
                    <mask id="mask-22" fill="white">
                        <use xlink:href="#path-21"></use>
                    </mask>
                    <g id="Clip-13"></g>
                    <path d="M7.136,7.84 C-2.261,17.237 -2.261,32.472 7.136,41.87 C16.533,51.266 31.769,51.266 41.166,41.87 C50.564,32.472 50.564,17.237 41.166,7.84 C36.467,3.141 30.309,0.791 24.151,0.791 C17.993,0.791 11.834,3.141 7.136,7.84" id="Fill-12" fill="#FFFFFF" mask="url(#mask-22)"></path>
                    <path d="M23.2,24.71 C23.2,25.9833397 23.0633347,27.086662 22.79,28.02 C22.5166653,28.953338 22.1383357,29.7266636 21.655,30.34 C21.1716642,30.9533364 20.5983367,31.4099985 19.935,31.71 C19.2716634,32.0100015 18.5533372,32.16 17.78,32.16 C17.0066628,32.16 16.2916699,32.0100015 15.635,31.71 C14.9783301,31.4099985 14.4100024,30.9533364 13.93,30.34 C13.4499976,29.7266636 13.0750014,28.953338 12.805,28.02 C12.5349987,27.086662 12.4,25.9833397 12.4,24.71 C12.4,23.4366603 12.5349987,22.333338 12.805,21.4 C13.0750014,20.466662 13.4499976,19.6933364 13.93,19.08 C14.4100024,18.4666636 14.9783301,18.0116681 15.635,17.715 C16.2916699,17.4183319 17.0066628,17.27 17.78,17.27 C18.5533372,17.27 19.2716634,17.4183319 19.935,17.715 C20.5983367,18.0116681 21.1716642,18.4666636 21.655,19.08 C22.1383357,19.6933364 22.5166653,20.466662 22.79,21.4 C23.0633347,22.333338 23.2,23.4366603 23.2,24.71 Z M20,24.71 C20,23.7033283 19.9366673,22.8783366 19.81,22.235 C19.6833327,21.5916634 19.5150011,21.0866685 19.305,20.72 C19.094999,20.3533315 18.856668,20.1016673 18.59,19.965 C18.323332,19.8283327 18.0533347,19.76 17.78,19.76 C17.5066653,19.76 17.2383346,19.8283327 16.975,19.965 C16.7116654,20.1016673 16.4783344,20.3533315 16.275,20.72 C16.0716656,21.0866685 15.9083339,21.5916634 15.785,22.235 C15.6616661,22.8783366 15.6,23.7033283 15.6,24.71 C15.6,25.7233384 15.6616661,26.5499968 15.785,27.19 C15.9083339,27.8300032 16.0716656,28.3349982 16.275,28.705 C16.4783344,29.0750018 16.7116654,29.3283327 16.975,29.465 C17.2383346,29.6016673 17.5066653,29.67 17.78,29.67 C18.0533347,29.67 18.323332,29.6016673 18.59,29.465 C18.856668,29.3283327 19.094999,29.0750018 19.305,28.705 C19.5150011,28.3349982 19.6833327,27.8300032 19.81,27.19 C19.9366673,26.5499968 20,25.7233384 20,24.71 Z M33.36,26.34 L34.86,26.34 L34.86,28.08 C34.86,28.2333341 34.8083338,28.3666661 34.705,28.48 C34.6016661,28.5933339 34.4533343,28.65 34.26,28.65 L33.36,28.65 L33.36,32 L30.66,32 L30.66,28.65 L24.8,28.65 C24.6066657,28.65 24.4316674,28.5900006 24.275,28.47 C24.1183325,28.3499994 24.0200002,28.2000009 23.98,28.02 L23.66,26.49 L30.4,17.43 L33.36,17.43 L33.36,26.34 Z M30.66,22.54 C30.66,22.3066655 30.6683332,22.0550013 30.685,21.785 C30.7016668,21.5149986 30.7266665,21.2366681 30.76,20.95 L26.91,26.34 L30.66,26.34 L30.66,22.54 Z" id="04" fill="#529CFB" mask="url(#mask-22)" transform="translate(23.630000, 24.715000) scale(-1, 1) translate(-23.630000, -24.715000) "></path>
                </g>
            </g>
        </g>
    </g>
</svg>
