<?xml version="1.0" encoding="UTF-8"?>
<svg width="90px" height="127px" viewBox="0 0 90 127" version="1.1" xmlns="http://www.w3.org/2000/svg" xmlns:xlink="http://www.w3.org/1999/xlink">
    <g id="Page-1" stroke="none" stroke-width="1" fill="none" fill-rule="evenodd">
        <g id="bgnd_product_top" fill="#FFFFFF" fill-rule="nonzero">
            <path d="M72.7631657,14.6997685 C75.7697599,14.3465164 78.7423724,13.2207723 81.5786627,12.0725054 C83.5448623,11.2763052 83.4563517,9.8708044 81.6478116,8.74427003 C81.0393013,8.36533405 77.2570429,6.53096627 70.2943524,5.69974271 C52.693813,3.59854593 34.45881,3.06371635 19.7453205,5.72700713 C12.0263815,7.12421336 7.22146675,9.33282671 7.22146675,10.3943604 C7.22146675,11.455894 8.02596482,11.9077335 8.69414077,12.2191011 C10.2893071,12.9627481 11.9741695,13.5941764 13.6878768,13.9881275 C24.0116101,16.3605275 34.5265895,16.6865152 45.0557939,16.8121686 C57.3980165,16.1241041 66.6338072,15.4199708 72.7631657,14.6997685 Z M79.4314906,4.55226609 C82.0125227,5.22636909 84.4991172,6.34381533 86.9371098,7.45810047 C88.606957,8.22150434 89.4924581,9.65110847 89.2771086,11.628767 C89.1779294,12.5395568 89.2004521,13.47445 89.2707864,14.3907717 C89.5580507,18.1358762 88.164404,21.0729263 85.4837975,23.7065116 C76.5145924,32.5164767 67.7390042,41.5244052 58.7453006,50.3090816 C55.760834,53.2243992 54.4319897,55.4352131 54.4319897,60.6166143 C54.4319897,64.0708817 53.740466,86.0800334 53.8,126.644069 L36,126.644069 C35.6768142,86.8313361 35.5506519,64.4680105 35.621513,59.554092 C35.6705099,56.1567078 34.4870759,53.4828186 32.097685,51.1159505 C22.9317019,42.0361071 13.8858402,32.8345616 4.67955316,23.7962076 C1.94757887,21.1140205 0.66931205,18.144174 0.774023243,14.3172763 C0.935634102,8.39417902 1.30271598,7.67542559 6.9432906,5.66141446 C13.3757189,3.36488068 20.0930407,2.43196323 26.8403929,1.83649241 C32.9318183,1.29910666 39.0536693,1.10786056 42.9204758,0.890140308 C56.7016542,1.1331493 68.2052653,1.62153811 79.4314906,4.55226609 Z" id="Fill-1"></path>
        </g>
    </g>
</svg>
