<svg width="352" height="78" viewBox="0 0 352 78" fill="none" xmlns="http://www.w3.org/2000/svg">
<path d="M1 7C1 7 149.629 67 350.414 7" stroke="#F6F6F6" stroke-width="5"/>
<path fill-rule="evenodd" clip-rule="evenodd" d="M201.461 13.5475C209.01 21.0965 212.51 31.1602 211.94 41.0396C211.468 49.5686 207.968 57.9552 201.461 64.4625C194.953 70.9697 186.574 74.4624 178.052 74.9414C168.165 75.5041 158.094 72.0115 150.545 64.4625C136.481 50.3992 136.488 27.6038 150.545 13.5475C164.608 -0.515819 187.397 -0.515819 201.461 13.5475" fill="url(#paint0_linear)"/>
<path d="M201.461 13.5475C209.01 21.0965 212.51 31.1602 211.94 41.0396C211.468 49.5686 207.968 57.9552 201.461 64.4625C194.953 70.9697 186.574 74.4624 178.052 74.9414C168.165 75.5041 158.094 72.0115 150.545 64.4625C136.481 50.3992 136.488 27.6038 150.545 13.5475C164.608 -0.515819 187.397 -0.515819 201.461 13.5475" stroke="white" stroke-width="5"/>
<path d="M167.895 31.399V35H165.698V31.399L162.266 25.5295H164.203C164.393 25.5295 164.545 25.575 164.658 25.666C164.77 25.7527 164.861 25.8654 164.931 26.004L166.27 28.76C166.378 28.981 166.478 29.1847 166.569 29.371C166.66 29.5574 166.74 29.7415 166.809 29.9235C166.874 29.7372 166.952 29.5509 167.043 29.3645C167.134 29.1782 167.232 28.9767 167.336 28.76L168.662 26.004C168.688 25.9477 168.722 25.8914 168.766 25.835C168.813 25.7787 168.865 25.7289 168.922 25.6855C168.982 25.6379 169.049 25.601 169.123 25.575C169.201 25.5447 169.286 25.5295 169.377 25.5295H171.327L167.895 31.399Z" fill="white"/>
<path d="M173.935 28.1555C174.447 28.1555 174.913 28.2357 175.333 28.396C175.753 28.5564 176.113 28.786 176.412 29.085C176.715 29.384 176.949 29.748 177.114 30.177C177.283 30.6017 177.367 31.0805 177.367 31.6135C177.367 32.1509 177.283 32.6362 177.114 33.0695C176.949 33.4985 176.715 33.8647 176.412 34.168C176.113 34.467 175.753 34.6989 175.333 34.8635C174.913 35.0239 174.447 35.104 173.935 35.104C173.42 35.104 172.95 35.0239 172.525 34.8635C172.105 34.6989 171.741 34.467 171.433 34.168C171.13 33.8647 170.893 33.4985 170.724 33.0695C170.56 32.6362 170.477 32.1509 170.477 31.6135C170.477 31.0805 170.56 30.6017 170.724 30.177C170.893 29.748 171.13 29.384 171.433 29.085C171.741 28.786 172.105 28.5564 172.525 28.396C172.95 28.2357 173.42 28.1555 173.935 28.1555ZM173.935 33.609C174.399 33.609 174.739 33.4465 174.956 33.1215C175.177 32.7922 175.287 32.2939 175.287 31.6265C175.287 30.9592 175.177 30.463 174.956 30.138C174.739 29.813 174.399 29.6505 173.935 29.6505C173.459 29.6505 173.11 29.813 172.889 30.138C172.668 30.463 172.557 30.9592 172.557 31.6265C172.557 32.2939 172.668 32.7922 172.889 33.1215C173.11 33.4465 173.459 33.609 173.935 33.609Z" fill="white"/>
<path d="M180.358 28.2595V32.5365C180.358 32.8702 180.434 33.128 180.586 33.31C180.738 33.492 180.961 33.583 181.255 33.583C181.476 33.583 181.682 33.5375 181.873 33.4465C182.068 33.3555 182.256 33.2277 182.438 33.063V28.2595H184.453V35H183.205C182.954 35 182.789 34.8874 182.711 34.662L182.588 34.272C182.458 34.3977 182.324 34.5125 182.185 34.6165C182.046 34.7162 181.897 34.8029 181.736 34.8765C181.58 34.9459 181.411 35 181.229 35.039C181.047 35.0824 180.848 35.104 180.631 35.104C180.263 35.104 179.936 35.0412 179.65 34.9155C179.368 34.7855 179.13 34.6057 178.935 34.376C178.74 34.1464 178.593 33.8755 178.493 33.5635C178.393 33.2515 178.343 32.9092 178.343 32.5365V28.2595H180.358Z" fill="white"/>
<path d="M186.014 35V28.2595H187.21C187.31 28.2595 187.392 28.2682 187.457 28.2855C187.527 28.3029 187.583 28.331 187.626 28.37C187.674 28.4047 187.709 28.4524 187.73 28.513C187.756 28.5737 187.778 28.6474 187.795 28.734L187.906 29.3645C188.153 28.9832 188.43 28.682 188.738 28.461C189.046 28.24 189.381 28.1295 189.745 28.1295C190.053 28.1295 190.3 28.2032 190.486 28.3505L190.226 29.8325C190.209 29.9235 190.174 29.9885 190.122 30.0275C190.07 30.0622 190.001 30.0795 189.914 30.0795C189.841 30.0795 189.754 30.0709 189.654 30.0535C189.555 30.0319 189.429 30.021 189.277 30.021C188.749 30.021 188.333 30.3027 188.029 30.866V35H186.014Z" fill="white"/>
<path d="M153.762 52.1385V43.2595H155.01C155.136 43.2595 155.24 43.2877 155.322 43.344C155.409 43.4004 155.469 43.4849 155.504 43.5975L155.653 44.0915C155.783 43.9485 155.922 43.8185 156.069 43.7015C156.221 43.5845 156.381 43.4849 156.55 43.4025C156.724 43.3159 156.908 43.2487 157.103 43.201C157.302 43.1534 157.519 43.1295 157.753 43.1295C158.104 43.1295 158.429 43.2075 158.728 43.3635C159.027 43.5195 159.285 43.7449 159.501 44.0395C159.718 44.3342 159.887 44.696 160.008 45.125C160.134 45.5497 160.197 46.0329 160.197 46.5745C160.197 47.0815 160.125 47.5495 159.982 47.9785C159.844 48.4075 159.647 48.7802 159.391 49.0965C159.14 49.4129 158.836 49.6599 158.481 49.8375C158.13 50.0152 157.74 50.104 157.311 50.104C156.96 50.104 156.665 50.0542 156.427 49.9545C156.189 49.8549 155.972 49.7205 155.777 49.5515V52.1385H153.762ZM157.051 44.67C156.904 44.67 156.769 44.6852 156.648 44.7155C156.531 44.7415 156.42 44.7805 156.316 44.8325C156.217 44.8845 156.124 44.9517 156.037 45.034C155.95 45.112 155.864 45.203 155.777 45.307V48.167C155.929 48.336 156.093 48.4552 156.271 48.5245C156.449 48.5895 156.635 48.622 156.83 48.622C157.016 48.622 157.187 48.5852 157.343 48.5115C157.499 48.4379 157.634 48.3209 157.746 48.1605C157.863 47.9959 157.954 47.7835 158.019 47.5235C158.084 47.2635 158.117 46.9472 158.117 46.5745C158.117 46.2192 158.091 45.9202 158.039 45.6775C157.987 45.4349 157.913 45.2399 157.818 45.0925C157.727 44.9409 157.616 44.8325 157.486 44.7675C157.356 44.7025 157.211 44.67 157.051 44.67Z" fill="white"/>
<path d="M161.278 50V43.2595H162.474C162.573 43.2595 162.656 43.2682 162.721 43.2855C162.79 43.3029 162.846 43.331 162.89 43.37C162.937 43.4047 162.972 43.4524 162.994 43.513C163.02 43.5737 163.041 43.6474 163.059 43.734L163.169 44.3645C163.416 43.9832 163.693 43.682 164.001 43.461C164.309 43.24 164.645 43.1295 165.009 43.1295C165.316 43.1295 165.563 43.2032 165.75 43.3505L165.49 44.8325C165.472 44.9235 165.438 44.9885 165.386 45.0275C165.334 45.0622 165.264 45.0795 165.178 45.0795C165.104 45.0795 165.017 45.0709 164.918 45.0535C164.818 45.0319 164.692 45.021 164.541 45.021C164.012 45.021 163.596 45.3027 163.293 45.866V50H161.278Z" fill="white"/>
<path d="M169.651 43.1555C170.162 43.1555 170.628 43.2357 171.048 43.396C171.469 43.5564 171.828 43.786 172.127 44.085C172.431 44.384 172.665 44.748 172.829 45.177C172.998 45.6017 173.083 46.0805 173.083 46.6135C173.083 47.1509 172.998 47.6362 172.829 48.0695C172.665 48.4985 172.431 48.8647 172.127 49.168C171.828 49.467 171.469 49.6989 171.048 49.8635C170.628 50.0239 170.162 50.104 169.651 50.104C169.135 50.104 168.665 50.0239 168.24 49.8635C167.82 49.6989 167.456 49.467 167.148 49.168C166.845 48.8647 166.609 48.4985 166.44 48.0695C166.275 47.6362 166.193 47.1509 166.193 46.6135C166.193 46.0805 166.275 45.6017 166.44 45.177C166.609 44.748 166.845 44.384 167.148 44.085C167.456 43.786 167.82 43.5564 168.24 43.396C168.665 43.2357 169.135 43.1555 169.651 43.1555ZM169.651 48.609C170.114 48.609 170.455 48.4465 170.671 48.1215C170.892 47.7922 171.003 47.2939 171.003 46.6265C171.003 45.9592 170.892 45.463 170.671 45.138C170.455 44.813 170.114 44.6505 169.651 44.6505C169.174 44.6505 168.825 44.813 168.604 45.138C168.383 45.463 168.273 45.9592 168.273 46.6265C168.273 47.2939 168.383 47.7922 168.604 48.1215C168.825 48.4465 169.174 48.609 169.651 48.609Z" fill="white"/>
<path d="M178.921 50C178.795 50 178.689 49.9719 178.602 49.9155C178.52 49.8592 178.461 49.7747 178.427 49.662L178.271 49.1485C178.136 49.2915 177.996 49.4215 177.848 49.5385C177.701 49.6555 177.541 49.7574 177.367 49.844C177.198 49.9264 177.014 49.9892 176.815 50.0325C176.62 50.0802 176.407 50.104 176.178 50.104C175.827 50.104 175.502 50.026 175.203 49.87C174.904 49.714 174.646 49.4887 174.429 49.194C174.213 48.8994 174.041 48.5397 173.916 48.115C173.794 47.686 173.734 47.1985 173.734 46.6525C173.734 46.1499 173.803 45.684 173.942 45.255C174.08 44.8217 174.275 44.449 174.527 44.137C174.782 43.8207 175.088 43.5737 175.443 43.396C175.799 43.2184 176.191 43.1295 176.62 43.1295C176.966 43.1295 177.259 43.1815 177.497 43.2855C177.74 43.3852 177.959 43.5174 178.154 43.682V40.2695H180.169V50H178.921ZM176.88 48.557C177.027 48.557 177.159 48.544 177.276 48.518C177.398 48.4877 177.508 48.4465 177.608 48.3945C177.707 48.3425 177.801 48.2775 177.887 48.1995C177.978 48.1215 178.067 48.0305 178.154 47.9265V45.0665C177.998 44.8975 177.831 44.7805 177.653 44.7155C177.48 44.6462 177.296 44.6115 177.101 44.6115C176.914 44.6115 176.743 44.6484 176.587 44.722C176.431 44.7957 176.295 44.9149 176.178 45.0795C176.065 45.2399 175.976 45.45 175.911 45.71C175.846 45.97 175.814 46.2842 175.814 46.6525C175.814 47.0079 175.84 47.3069 175.892 47.5495C175.944 47.7922 176.015 47.9894 176.106 48.141C176.202 48.2884 176.314 48.3945 176.444 48.4595C176.574 48.5245 176.719 48.557 176.88 48.557Z" fill="white"/>
<path d="M183.615 43.2595V47.5365C183.615 47.8702 183.691 48.128 183.842 48.31C183.994 48.492 184.217 48.583 184.512 48.583C184.733 48.583 184.939 48.5375 185.129 48.4465C185.324 48.3555 185.513 48.2277 185.695 48.063V43.2595H187.71V50H186.462C186.21 50 186.046 49.8874 185.968 49.662L185.844 49.272C185.714 49.3977 185.58 49.5125 185.441 49.6165C185.303 49.7162 185.153 49.8029 184.993 49.8765C184.837 49.9459 184.668 50 184.486 50.039C184.304 50.0824 184.104 50.104 183.888 50.104C183.519 50.104 183.192 50.0412 182.906 49.9155C182.625 49.7855 182.386 49.6057 182.191 49.376C181.996 49.1464 181.849 48.8755 181.749 48.5635C181.65 48.2515 181.6 47.9092 181.6 47.5365V43.2595H183.615Z" fill="white"/>
<path d="M194.133 44.8585C194.072 44.9322 194.014 44.9907 193.957 45.034C193.901 45.0774 193.821 45.099 193.717 45.099C193.617 45.099 193.526 45.0752 193.444 45.0275C193.366 44.9799 193.277 44.9279 193.177 44.8715C193.078 44.8109 192.961 44.7567 192.826 44.709C192.692 44.6614 192.525 44.6375 192.326 44.6375C192.079 44.6375 191.864 44.683 191.682 44.774C191.505 44.865 191.357 44.995 191.24 45.164C191.123 45.333 191.037 45.541 190.98 45.788C190.924 46.0307 190.896 46.3059 190.896 46.6135C190.896 47.2592 191.019 47.7554 191.266 48.102C191.518 48.4487 191.862 48.622 192.3 48.622C192.534 48.622 192.718 48.5939 192.852 48.5375C192.991 48.4769 193.108 48.4119 193.203 48.3425C193.299 48.2689 193.385 48.2017 193.463 48.141C193.546 48.0804 193.647 48.05 193.769 48.05C193.929 48.05 194.05 48.1085 194.133 48.2255L194.718 48.947C194.51 49.1854 194.291 49.3804 194.061 49.532C193.832 49.6794 193.595 49.7964 193.353 49.883C193.114 49.9654 192.874 50.0217 192.631 50.052C192.389 50.0867 192.152 50.104 191.923 50.104C191.511 50.104 191.117 50.026 190.74 49.87C190.367 49.714 190.038 49.4887 189.752 49.194C189.47 48.895 189.245 48.5289 189.076 48.0955C188.911 47.6622 188.829 47.1682 188.829 46.6135C188.829 46.1282 188.9 45.6754 189.043 45.255C189.191 44.8304 189.405 44.4642 189.687 44.1565C189.973 43.8445 190.324 43.5997 190.74 43.422C191.16 43.2444 191.645 43.1555 192.196 43.1555C192.724 43.1555 193.188 43.24 193.587 43.409C193.985 43.578 194.345 43.825 194.666 44.15L194.133 44.8585Z" fill="white"/>
<path d="M197.959 50.104C197.638 50.104 197.355 50.0585 197.108 49.9675C196.865 49.8722 196.659 49.74 196.49 49.571C196.325 49.3977 196.2 49.1897 196.113 48.947C196.026 48.7044 195.983 48.4335 195.983 48.1345V44.6505H195.411C195.307 44.6505 195.218 44.618 195.145 44.553C195.071 44.4837 195.034 44.384 195.034 44.254V43.4675L196.107 43.2595L196.503 41.615C196.555 41.407 196.702 41.303 196.945 41.303H197.998V43.2725H199.636V44.6505H197.998V47.998C197.998 48.154 198.035 48.284 198.109 48.388C198.187 48.4877 198.297 48.5375 198.44 48.5375C198.514 48.5375 198.574 48.531 198.622 48.518C198.674 48.5007 198.717 48.4834 198.752 48.466C198.791 48.4444 198.826 48.427 198.856 48.414C198.891 48.3967 198.93 48.388 198.973 48.388C199.034 48.388 199.081 48.4032 199.116 48.4335C199.155 48.4595 199.194 48.5029 199.233 48.5635L199.844 49.519C199.584 49.714 199.292 49.8614 198.967 49.961C198.642 50.0564 198.306 50.104 197.959 50.104Z" fill="white"/>
<defs>
<linearGradient id="paint0_linear" x1="112.516" y1="-18.5416" x2="125.886" y2="81.6853" gradientUnits="userSpaceOnUse">
<stop stop-color="#529CFB"/>
<stop offset="1" stop-color="#8380E5"/>
</linearGradient>
</defs>
</svg>
