<?xml version="1.0" encoding="UTF-8"?>
<svg width="82px" height="82px" viewBox="0 0 82 82" version="1.1" xmlns="http://www.w3.org/2000/svg" xmlns:xlink="http://www.w3.org/1999/xlink">
    <g id="Page-1" stroke="none" stroke-width="1" fill="none" fill-rule="evenodd">
        <g id="Group" fill-rule="nonzero">
            <path d="M41,62.383 C36.838,62.383 33.453,58.998 33.453,54.837 C33.453,48.666 31.616,46.539 29.67,44.288 C27.819,42.146 25.906,39.931 25.906,34.712 C25.906,26.39 32.677,19.618 41,19.618 C49.323,19.618 56.094,25.907 56.094,34.712 L53.578,34.712 C53.578,27.165 47.935,22.134 41,22.134 C34.065,22.134 28.422,27.777 28.422,34.713 C28.422,38.996 29.883,40.687 31.574,42.645 C33.634,45.028 35.969,47.731 35.969,54.838 C35.969,57.612 38.226,59.869 41,59.869 C43.774,59.869 46.031,57.353 46.031,54.838 L48.547,54.838 C48.547,58.609 45.162,62.383 41,62.383 Z" id="Shape" fill="#FF7880"></path>
            <path d="M43.516,52.32 C40.742,52.32 38.485,49.804 38.485,47.289 L41,47.289 C41,48.547 42.128,49.805 43.516,49.805 C44.904,49.805 46.032,48.677 46.032,47.289 C46.032,45.901 44.904,44.773 43.516,44.773 L41,44.773 C35.452,44.773 30.937,40.259 30.937,34.71 C30.937,29.161 35.452,24.648 41,24.648 C46.548,24.648 51.063,29.679 51.063,34.711 L48.547,34.711 C48.547,30.938 45.162,27.164 41,27.164 C36.838,27.164 33.453,30.55 33.453,34.711 C33.453,38.873 36.838,42.258 41,42.258 L43.516,42.258 C46.29,42.258 48.547,44.515 48.547,47.289 C48.547,50.064 46.29,52.32 43.516,52.32 Z" id="Shape" fill="#FF7880"></path>
            <rect id="Rectangle-path" fill="#30A6EE" x="17.102" y="27.164" width="2.516" height="2.516"></rect>
            <rect id="Rectangle-path" fill="#30A6EE" x="10.813" y="23.391" width="2.516" height="2.516"></rect>
            <rect id="Rectangle-path" fill="#30A6EE" x="4.523" y="19.617" width="2.516" height="2.516"></rect>
            <rect id="Rectangle-path" fill="#30A6EE" x="27.164" y="17.102" width="2.516" height="2.516"></rect>
            <rect id="Rectangle-path" fill="#30A6EE" x="23.391" y="10.813" width="2.516" height="2.516"></rect>
            <rect id="Rectangle-path" fill="#30A6EE" x="19.617" y="4.523" width="2.516" height="2.516"></rect>
            <rect id="Rectangle-path" fill="#30A6EE" x="39.742" y="7.039" width="2.516" height="2.516"></rect>
            <rect id="Rectangle-path" fill="#30A6EE" x="39.742" y="13.328" width="2.516" height="2.516"></rect>
            <rect id="Rectangle-path" fill="#30A6EE" x="39.742" y="0.75" width="2.516" height="2.516"></rect>
            <rect id="Rectangle-path" fill="#30A6EE" x="62.383" y="27.164" width="2.516" height="2.516"></rect>
            <rect id="Rectangle-path" fill="#30A6EE" x="68.672" y="23.391" width="2.516" height="2.516"></rect>
            <rect id="Rectangle-path" fill="#30A6EE" x="74.961" y="19.617" width="2.516" height="2.516"></rect>
            <rect id="Rectangle-path" fill="#30A6EE" x="52.32" y="17.102" width="2.516" height="2.516"></rect>
            <rect id="Rectangle-path" fill="#30A6EE" x="56.094" y="10.813" width="2.516" height="2.516"></rect>
            <rect id="Rectangle-path" fill="#30A6EE" x="59.867" y="4.523" width="2.516" height="2.516"></rect>
            <rect id="Rectangle-path" fill="#30A6EE" x="7.039" y="39.742" width="2.516" height="2.516"></rect>
            <rect id="Rectangle-path" fill="#30A6EE" x="13.328" y="39.742" width="2.516" height="2.516"></rect>
            <rect id="Rectangle-path" fill="#30A6EE" x="0.75" y="39.742" width="2.516" height="2.516"></rect>
            <rect id="Rectangle-path" fill="#30A6EE" x="17.102" y="52.32" width="2.516" height="2.516"></rect>
            <rect id="Rectangle-path" fill="#30A6EE" x="10.813" y="56.094" width="2.516" height="2.516"></rect>
            <rect id="Rectangle-path" fill="#30A6EE" x="4.523" y="59.867" width="2.516" height="2.516"></rect>
            <rect id="Rectangle-path" fill="#30A6EE" x="27.164" y="62.383" width="2.516" height="2.516"></rect>
            <rect id="Rectangle-path" fill="#30A6EE" x="23.391" y="68.672" width="2.516" height="2.516"></rect>
            <rect id="Rectangle-path" fill="#30A6EE" x="19.617" y="74.961" width="2.516" height="2.516"></rect>
            <rect id="Rectangle-path" fill="#30A6EE" x="39.742" y="72.445" width="2.516" height="2.516"></rect>
            <rect id="Rectangle-path" fill="#30A6EE" x="39.742" y="66.156" width="2.516" height="2.516"></rect>
            <rect id="Rectangle-path" fill="#30A6EE" x="39.742" y="78.734" width="2.516" height="2.516"></rect>
            <rect id="Rectangle-path" fill="#30A6EE" x="72.445" y="39.742" width="2.516" height="2.516"></rect>
            <rect id="Rectangle-path" fill="#30A6EE" x="66.156" y="39.742" width="2.516" height="2.516"></rect>
            <rect id="Rectangle-path" fill="#30A6EE" x="78.734" y="39.742" width="2.516" height="2.516"></rect>
            <rect id="Rectangle-path" fill="#30A6EE" x="62.383" y="52.32" width="2.516" height="2.516"></rect>
            <rect id="Rectangle-path" fill="#30A6EE" x="68.672" y="56.094" width="2.516" height="2.516"></rect>
            <rect id="Rectangle-path" fill="#30A6EE" x="74.961" y="59.867" width="2.516" height="2.516"></rect>
            <rect id="Rectangle-path" fill="#30A6EE" x="52.32" y="62.383" width="2.516" height="2.516"></rect>
            <rect id="Rectangle-path" fill="#30A6EE" x="56.094" y="68.672" width="2.516" height="2.516"></rect>
            <rect id="Rectangle-path" fill="#30A6EE" x="59.867" y="74.961" width="2.516" height="2.516"></rect>
        </g>
    </g>
</svg>
