<svg width="173" height="126" viewBox="0 0 173 126" fill="none" xmlns="http://www.w3.org/2000/svg">
  <title>[icon] We develop</title>

  <path fill-rule="evenodd" clip-rule="evenodd"
        d="M3.45932 28.423L7.66732 32.574C8.24932 33.153 8.25832 34.099 7.68432 34.684C7.39632 34.982 7.01432 35.131 6.62732 35.131C6.25332 35.131 5.87532 34.992 5.58432 34.707L1.37632 30.557C0.79332 29.977 0.78432 29.031 1.35832 28.446C1.64632 28.148 2.03032 28 2.41632 28C2.79232 28 3.16932 28.141 3.45932 28.423Z"
        fill="#FE664B"/>
  <path fill-rule="evenodd" clip-rule="evenodd"
        d="M5.77812 13.435L18.6751 26.413C19.2541 26.995 19.2541 27.941 18.6751 28.523C18.3831 28.813 18.0031 28.958 17.6231 28.958C17.2421 28.958 16.8621 28.813 16.5741 28.523L3.67612 15.546C3.09813 14.964 3.09813 14.018 3.67612 13.435C3.96712 13.145 4.34713 13 4.72812 13C5.10812 13 5.48812 13.145 5.77812 13.435Z"
        fill="#FE664B"/>
  <path fill-rule="evenodd" clip-rule="evenodd"
        d="M104.446 0.790378C104.446 0.353865 104.092 0 103.655 0C103.219 0 102.865 0.353864 102.865 0.790378V3.55869L101.085 1.43804C100.805 1.10365 100.306 1.06004 99.9719 1.34062C99.6375 1.62121 99.5939 2.11974 99.8745 2.45413L101.654 4.57478L98.9277 4.09407C98.4978 4.01827 98.0878 4.30531 98.012 4.73519C97.9362 5.16507 98.2233 5.57501 98.6532 5.65081L101.379 6.13152L98.982 7.51568C98.604 7.73394 98.4744 8.21733 98.6927 8.59536C98.9109 8.97339 99.3943 9.10291 99.7724 8.88465L102.17 7.5005L101.223 10.1019C101.074 10.5121 101.285 10.9656 101.695 11.1149C102.106 11.2642 102.559 11.0527 102.708 10.6425L103.655 8.04115L104.602 10.6425C104.751 11.0527 105.205 11.2642 105.615 11.1149C106.025 10.9656 106.237 10.5121 106.087 10.1019L105.141 7.5005L107.538 8.88465C107.916 9.10291 108.399 8.97339 108.618 8.59536C108.836 8.21733 108.706 7.73394 108.328 7.51568L105.931 6.13152L108.657 5.65081C109.087 5.57501 109.374 5.16507 109.298 4.73519C109.223 4.30531 108.813 4.01827 108.383 4.09407L105.657 4.57478L107.436 2.45413C107.717 2.11974 107.673 1.62121 107.339 1.34062C107.004 1.06004 106.506 1.10365 106.225 1.43804L104.446 3.55869V0.790378ZM104.054 4.63439C104.1 4.76218 104.179 4.8799 104.29 4.97341C104.402 5.06692 104.531 5.12442 104.665 5.14715C104.618 5.27436 104.603 5.41541 104.628 5.55868C104.653 5.70195 104.716 5.82935 104.804 5.93274C104.686 5.99985 104.584 6.09824 104.511 6.22422C104.438 6.35021 104.404 6.4879 104.405 6.62358C104.271 6.59919 104.13 6.60887 103.993 6.65863C103.856 6.70838 103.742 6.79193 103.655 6.89641C103.569 6.79193 103.454 6.70838 103.317 6.65863C103.181 6.60887 103.039 6.59919 102.906 6.62358C102.906 6.4879 102.872 6.35021 102.8 6.22422C102.727 6.09824 102.625 5.99985 102.507 5.93274C102.595 5.82935 102.657 5.70195 102.682 5.55868C102.708 5.41541 102.692 5.27436 102.645 5.14715C102.779 5.12442 102.909 5.06692 103.02 4.97341C103.132 4.8799 103.211 4.76218 103.256 4.63439C103.373 4.70296 103.51 4.74227 103.655 4.74227C103.801 4.74227 103.937 4.70296 104.054 4.63439Z"
        fill="#FE664B"/>
  <path fill-rule="evenodd" clip-rule="evenodd"
        d="M27.4457 68.7904C27.4457 68.3539 27.0918 68 26.6553 68C26.2188 68 25.8649 68.3539 25.8649 68.7904V71.5587L24.0855 69.438C23.8049 69.1037 23.3064 69.06 22.972 69.3406C22.6376 69.6212 22.594 70.1197 22.8746 70.4541L24.654 72.5748L21.9278 72.0941C21.4979 72.0183 21.0879 72.3053 21.0121 72.7352C20.9363 73.1651 21.2234 73.575 21.6533 73.6508L24.3795 74.1315L21.9821 75.5157C21.6041 75.7339 21.4745 76.2173 21.6928 76.5954C21.911 76.9734 22.3944 77.1029 22.7725 76.8847L25.1699 75.5005L24.2231 78.1019C24.0738 78.5121 24.2853 78.9656 24.6955 79.1149C25.1056 79.2642 25.5592 79.0527 25.7085 78.6425L26.6553 76.0411L27.6021 78.6425C27.7514 79.0527 28.205 79.2642 28.6152 79.1149C29.0254 78.9656 29.2369 78.5121 29.0876 78.1019L28.1407 75.5005L30.5382 76.8847C30.9162 77.1029 31.3996 76.9734 31.6178 76.5954C31.8361 76.2173 31.7066 75.7339 31.3285 75.5157L28.9311 74.1315L31.6574 73.6508C32.0873 73.575 32.3743 73.1651 32.2985 72.7352C32.2227 72.3053 31.8128 72.0183 31.3829 72.0941L28.6566 72.5748L30.4361 70.4541C30.7166 70.1197 30.673 69.6212 30.3386 69.3406C30.0043 69.06 29.5057 69.1037 29.2251 69.438L27.4457 71.5587V68.7904ZM27.0542 72.6344C27.0998 72.7622 27.1789 72.8799 27.2904 72.9734C27.4018 73.0669 27.5315 73.1244 27.6653 73.1472C27.6181 73.2744 27.603 73.4154 27.6283 73.5587C27.6535 73.7019 27.7159 73.8293 27.8038 73.9327C27.6859 73.9999 27.5837 74.0982 27.5109 74.2242C27.4382 74.3502 27.4041 74.4879 27.4049 74.6236C27.2714 74.5992 27.1299 74.6089 26.9932 74.6586C26.8565 74.7084 26.7419 74.7919 26.6553 74.8964C26.5688 74.7919 26.4541 74.7084 26.3174 74.6586C26.1807 74.6089 26.0392 74.5992 25.9057 74.6236C25.9066 74.4879 25.8724 74.3502 25.7997 74.2242C25.727 74.0982 25.6248 73.9999 25.5069 73.9327C25.5947 73.8293 25.6571 73.7019 25.6824 73.5587C25.7076 73.4154 25.6926 73.2744 25.6454 73.1472C25.7791 73.1244 25.9088 73.0669 26.0203 72.9734C26.1317 72.8799 26.2108 72.7622 26.2565 72.6344C26.3735 72.703 26.5098 72.7423 26.6553 72.7423C26.8008 72.7423 26.9371 72.703 27.0542 72.6344Z"
        fill="#FE664B"/>
  <path fill-rule="evenodd" clip-rule="evenodd"
        d="M59.6094 115C57.6764 115 56.1094 116.567 56.1094 118.5C56.1094 120.433 57.6764 122 59.6094 122C61.5424 122 63.1094 120.433 63.1094 118.5C63.1094 116.567 61.5424 115 59.6094 115ZM59.6094 116C60.9901 116 62.1094 117.119 62.1094 118.5C62.1094 119.881 60.9901 121 59.6094 121C58.2287 121 57.1094 119.881 57.1094 118.5C57.1094 117.119 58.2287 116 59.6094 116Z"
        fill="#FE664B"/>
  <path fill-rule="evenodd" clip-rule="evenodd"
        d="M161.744 125.164C162.002 125.164 162.262 125.064 162.458 124.864C162.849 124.467 162.849 123.82 162.454 123.425L160.157 121.118C159.764 120.725 159.125 120.721 158.731 121.122C158.34 121.519 158.34 122.166 158.735 122.561L161.032 124.868C161.23 125.064 161.486 125.164 161.744 125.164Z"
        fill="#FE664B"/>
  <path fill-rule="evenodd" clip-rule="evenodd"
        d="M156.316 119.924C156.574 119.924 156.834 119.824 157.029 119.624C157.421 119.227 157.421 118.582 157.025 118.185L153.158 114.296C152.765 113.903 152.126 113.899 151.732 114.3C151.341 114.697 151.341 115.342 151.736 115.739L155.604 119.628C155.801 119.824 156.058 119.924 156.316 119.924Z"
        fill="#FE664B"/>
  <path fill-rule="evenodd" clip-rule="evenodd"
        d="M2.44612 125.164C2.18803 125.164 1.92792 125.064 1.73232 124.864C1.34116 124.467 1.34116 123.82 1.73636 123.425L4.03299 121.118C4.42619 120.725 5.06535 120.721 5.45854 121.122C5.84971 121.519 5.84971 122.166 5.4545 122.561L3.15788 124.868C2.96028 125.064 2.7042 125.164 2.44612 125.164Z"
        fill="#FE664B"/>
  <path fill-rule="evenodd" clip-rule="evenodd"
        d="M7.87434 119.924C7.61626 119.924 7.35614 119.824 7.16055 119.624C6.76938 119.227 6.76938 118.582 7.16459 118.185L11.0319 114.296C11.4251 113.903 12.0643 113.899 12.4575 114.3C12.8487 114.697 12.8487 115.342 12.4535 115.739L8.5861 119.628C8.3885 119.824 8.13242 119.924 7.87434 119.924Z"
        fill="#FE664B"/>
  <path fill-rule="evenodd" clip-rule="evenodd"
        d="M167.463 70.7744C167.463 70.3467 167.81 70 168.237 70C168.665 70 169.012 70.3467 169.012 70.7744V73.0976H171.335C171.763 73.0976 172.109 73.4443 172.109 73.872C172.109 74.2997 171.763 74.6464 171.335 74.6464H169.012V76.9695C169.012 77.3972 168.665 77.7439 168.237 77.7439C167.81 77.7439 167.463 77.3972 167.463 76.9695V74.6464H165.14C164.712 74.6464 164.365 74.2997 164.365 73.872C164.365 73.4443 164.712 73.0976 165.14 73.0976H167.463V70.7744Z"
        fill="#FE664B"/>
  <path fill-rule="evenodd" clip-rule="evenodd"
        d="M145.734 16C142.214 16 139.359 18.8542 139.359 22.375C139.359 25.8958 142.214 28.75 145.734 28.75C149.255 28.75 152.109 25.8958 152.109 22.375C152.109 18.8542 149.255 16 145.734 16ZM145.735 17.8214C148.249 17.8214 150.288 19.8601 150.288 22.375C150.288 24.8899 148.249 26.9286 145.735 26.9286C143.22 26.9286 141.181 24.8899 141.181 22.375C141.181 19.8601 143.22 17.8214 145.735 17.8214Z"
        fill="#FE664B"/>
  <path
    d="M137 43.0167C137 42.855 137 42.6933 136.838 42.5317V42.37C136.677 42.2083 136.677 42.0467 136.515 41.885L117.115 22.485C116.953 22.3233 116.792 22.3233 116.63 22.1617H116.468C116.307 22.1617 116.145 22 115.983 22H41.6167C40.6467 22 40 22.6467 40 23.6167V38.1667H43.2333V25.2333H114.367V43.0167C114.367 43.9867 115.013 44.6333 115.983 44.6333H133.767V73.7333H137V43.0167ZM117.6 41.4V27.4967L131.503 41.4H117.6Z"
    fill="url(#paint0_linear)"/>
  <path
    d="M135.383 89.9H130.857C130.695 89.7383 130.695 89.415 130.533 89.2533L133.767 86.3433C134.09 86.02 134.252 85.6967 134.252 85.2117C134.252 84.7267 134.09 84.4033 133.767 84.08L126.977 77.29C126.33 76.6433 125.36 76.6433 124.713 77.29L121.642 80.3617C121.318 80.2 121.157 80.2 120.995 80.0383V75.35C120.995 74.38 120.348 73.7333 119.378 73.7333H109.678C108.708 73.7333 108.062 74.38 108.062 75.35V79.715C107.9 79.8767 107.577 79.8767 107.415 80.0383L104.343 76.9667C103.697 76.32 102.727 76.32 102.08 76.9667L95.29 83.7567C94.9667 84.08 94.805 84.4033 94.805 84.8883C94.805 85.3733 94.9667 85.6967 95.29 86.02L98.3617 89.0917C98.2 89.415 98.2 89.5767 98.0383 89.7383H93.35C92.38 89.7383 91.7333 90.385 91.7333 91.355V101.055C91.7333 102.025 92.38 102.672 93.35 102.672H97.8767C98.0383 102.833 98.0383 103.157 98.2 103.318L95.1283 106.39C94.805 106.713 94.6433 107.037 94.6433 107.522C94.6433 108.007 94.805 108.33 95.1283 108.653L101.918 115.443C102.565 116.09 103.535 116.09 104.182 115.443L107.253 112.372C107.577 112.533 107.738 112.533 107.9 112.695V117.383C107.9 118.353 108.547 119 109.517 119H119.217C120.187 119 120.833 118.353 120.833 117.383V112.857C120.995 112.695 121.318 112.695 121.48 112.533L124.552 115.605C125.198 116.252 126.168 116.252 126.815 115.605L133.605 108.815C133.928 108.492 134.09 108.168 134.09 107.683C134.09 107.198 133.928 106.875 133.605 106.552L130.533 103.48C130.695 103.318 130.695 102.995 130.857 102.833H135.383C136.353 102.833 137 102.187 137 101.217V91.5167C137 90.5467 136.353 89.9 135.383 89.9ZM133.767 99.6H129.725C128.917 99.6 128.27 100.247 128.108 100.893C128.108 101.217 127.462 102.51 127.3 102.833C127.138 103.157 126.977 103.48 126.977 103.803C126.977 104.288 127.138 104.612 127.462 104.935L130.21 107.683L125.683 112.21L122.935 109.462C122.612 109.138 122.288 108.977 121.803 108.977C121.318 108.977 121.157 109.138 120.833 109.3C120.51 109.462 119.217 109.947 118.893 110.108C118.085 110.27 117.6 110.917 117.6 111.725V115.767H111.133V111.725C111.133 111.24 110.972 110.917 110.648 110.593C110.325 110.108 107.577 108.977 106.93 108.977C106.445 108.977 106.122 109.138 105.798 109.462L103.05 112.21L98.5233 107.683L101.272 104.935C101.595 104.612 101.757 104.288 101.757 103.803C101.757 103.48 101.595 103.157 101.433 102.833C101.272 102.51 100.787 101.217 100.625 100.893C100.463 100.085 99.8167 99.6 99.0083 99.6H94.9667V93.1333H99.0083C99.4933 93.1333 99.8167 92.9717 100.14 92.6483C100.625 92.325 101.757 89.5767 101.757 88.93C101.757 88.445 101.595 88.1217 101.272 87.7983L98.5233 85.05L103.05 80.5233L105.798 83.2717C106.122 83.595 106.445 83.7567 106.93 83.7567C107.415 83.7567 107.577 83.595 107.9 83.4333C108.223 83.2717 109.517 82.7867 109.84 82.625C110.648 82.4633 111.133 81.8167 111.133 81.0083V76.9667H117.6V81.0083C117.6 81.4933 117.762 81.8167 118.085 82.14C118.408 82.625 121.157 83.7567 121.803 83.7567C122.288 83.7567 122.612 83.595 122.935 83.2717L125.683 80.5233L130.21 85.05L127.462 87.7983C127.138 88.1217 126.977 88.445 126.977 88.93C126.977 89.2533 127.138 89.5767 127.3 89.9C127.462 90.2233 127.947 91.5167 128.108 91.84C128.27 92.6483 128.917 93.1333 129.725 93.1333H133.767V99.6Z"
    fill="url(#paint1_linear)"/>
  <path
    d="M114.367 89.9C110.81 89.9 107.9 92.81 107.9 96.3667C107.9 99.9234 110.81 102.833 114.367 102.833C117.923 102.833 120.833 99.9234 120.833 96.3667C120.833 92.81 117.923 89.9 114.367 89.9ZM114.367 99.6C112.588 99.6 111.133 98.145 111.133 96.3667C111.133 94.5884 112.588 93.1334 114.367 93.1334C116.145 93.1334 117.6 94.5884 117.6 96.3667C117.6 98.145 116.145 99.6 114.367 99.6Z"
    fill="url(#paint2_linear)"/>
  <path
    d="M80.255 63.225L73.7883 50.2917C73.3033 49.16 71.3633 49.16 70.8783 50.2917L64.4117 63.225C64.0883 63.5483 64.0883 64.0333 64.25 64.5183V119H67.4833V65.65H70.7167V119H73.95V65.65H77.1833V119H80.4167V64.195C80.4167 63.8717 80.4167 63.5483 80.255 63.225ZM68.4533 62.4167L72.3333 54.6567L76.2133 62.4167H68.4533Z"
    fill="url(#paint3_linear)"/>
  <path
    d="M57.7833 43.0167H41.6167C40.6467 43.0167 40 43.6633 40 44.6333V119H43.2333V114.15H51.3167V110.917H43.2333V99.6H51.3167V96.3667H43.2333V83.4333H51.3167V80.2H43.2333V67.2667H51.3167V64.0333H43.2333V54.3333H51.3167V51.1H43.2333V46.25H56.1667V119H59.4V44.6333C59.4 43.6633 58.7533 43.0167 57.7833 43.0167Z"
    fill="url(#paint4_linear)"/>
  <path d="M67.4833 30.0833H48.0833V33.3166H67.4833V30.0833Z" fill="url(#paint5_linear)"/>
  <path d="M77.1833 30.0833H70.7166V33.3166H77.1833V30.0833Z" fill="url(#paint6_linear)"/>
  <path d="M77.1833 36.55H61.0167V39.7833H77.1833V36.55Z" fill="url(#paint7_linear)"/>
  <path d="M128.917 49.4833H96.5833V52.7167H128.917V49.4833Z" fill="url(#paint8_linear)"/>
  <path d="M115.983 57.5667H86.8833V60.8H115.983V57.5667Z" fill="url(#paint9_linear)"/>
  <path d="M128.917 65.65H86.8833V68.8834H128.917V65.65Z" fill="url(#paint10_linear)"/>
  <path d="M96.5833 72.1167H86.8833V75.35H96.5833V72.1167Z" fill="url(#paint11_linear)"/>
  <path d="M128.917 57.5667H119.217V60.8H128.917V57.5667Z" fill="url(#paint12_linear)"/>
  <defs>
    <linearGradient id="paint0_linear" x1="34.18" y1="55.882" x2="147.67" y2="55.882" gradientUnits="userSpaceOnUse">
      <stop stop-color="#8363F9"/>
      <stop offset="1" stop-color="#485BBD"/>
    </linearGradient>
    <linearGradient id="paint1_linear" x1="89.0173" y1="103.38" x2="141.979" y2="103.38" gradientUnits="userSpaceOnUse">
      <stop stop-color="#8363F9"/>
      <stop offset="1" stop-color="#485BBD"/>
    </linearGradient>
    <linearGradient id="paint2_linear" x1="107.124" y1="98.3705" x2="122.256" y2="98.3705"
                    gradientUnits="userSpaceOnUse">
      <stop stop-color="#8363F9"/>
      <stop offset="1" stop-color="#485BBD"/>
    </linearGradient>
    <linearGradient id="paint3_linear" x1="63.1674" y1="94.9984" x2="82.2067" y2="94.9984"
                    gradientUnits="userSpaceOnUse">
      <stop stop-color="#8363F9"/>
      <stop offset="1" stop-color="#485BBD"/>
    </linearGradient>
    <linearGradient id="paint4_linear" x1="38.836" y1="92.7809" x2="61.534" y2="92.7809" gradientUnits="userSpaceOnUse">
      <stop stop-color="#8363F9"/>
      <stop offset="1" stop-color="#485BBD"/>
    </linearGradient>
    <linearGradient id="paint5_linear" x1="46.9193" y1="32.2009" x2="69.6174" y2="32.2009"
                    gradientUnits="userSpaceOnUse">
      <stop stop-color="#8363F9"/>
      <stop offset="1" stop-color="#485BBD"/>
    </linearGradient>
    <linearGradient id="paint6_linear" x1="70.3286" y1="32.2009" x2="77.8946" y2="32.2009"
                    gradientUnits="userSpaceOnUse">
      <stop stop-color="#8363F9"/>
      <stop offset="1" stop-color="#485BBD"/>
    </linearGradient>
    <linearGradient id="paint7_linear" x1="60.0467" y1="38.6676" x2="78.9617" y2="38.6676"
                    gradientUnits="userSpaceOnUse">
      <stop stop-color="#8363F9"/>
      <stop offset="1" stop-color="#485BBD"/>
    </linearGradient>
    <linearGradient id="paint8_linear" x1="94.6433" y1="51.601" x2="132.473" y2="51.601" gradientUnits="userSpaceOnUse">
      <stop stop-color="#8363F9"/>
      <stop offset="1" stop-color="#485BBD"/>
    </linearGradient>
    <linearGradient id="paint9_linear" x1="85.1373" y1="59.6843" x2="119.184" y2="59.6843"
                    gradientUnits="userSpaceOnUse">
      <stop stop-color="#8363F9"/>
      <stop offset="1" stop-color="#485BBD"/>
    </linearGradient>
    <linearGradient id="paint10_linear" x1="84.3613" y1="67.7677" x2="133.54" y2="67.7676"
                    gradientUnits="userSpaceOnUse">
      <stop stop-color="#8363F9"/>
      <stop offset="1" stop-color="#485BBD"/>
    </linearGradient>
    <linearGradient id="paint11_linear" x1="86.3013" y1="74.2343" x2="97.6503" y2="74.2343"
                    gradientUnits="userSpaceOnUse">
      <stop stop-color="#8363F9"/>
      <stop offset="1" stop-color="#485BBD"/>
    </linearGradient>
    <linearGradient id="paint12_linear" x1="118.635" y1="59.6843" x2="129.984" y2="59.6843"
                    gradientUnits="userSpaceOnUse">
      <stop stop-color="#8363F9"/>
      <stop offset="1" stop-color="#485BBD"/>
    </linearGradient>
  </defs>
</svg>
