<?xml version="1.0" encoding="UTF-8"?>
<svg width="19px" height="23px" viewBox="0 0 19 23" version="1.1" xmlns="http://www.w3.org/2000/svg" xmlns:xlink="http://www.w3.org/1999/xlink">
    <!-- Generator: Sketch 50.2 (55047) - http://www.bohemiancoding.com/sketch -->
    <title>Fill 9</title>
    <desc>Created with Sketch.</desc>
    <defs></defs>
    <g id="Page-1" stroke="none" stroke-width="1" fill="none" fill-rule="evenodd">
        <g id="TopMonks-desktop" transform="translate(-265.000000, -67.000000)" fill="#5C5FD4">
            <g id="logo" transform="translate(265.000000, 66.000000)">
                <path d="M13.3130402,22.2312644 C11.2182258,22.2312644 10.7208689,21.4213486 9.27402557,21.4213486 L9.23691045,21.4213486 C7.77161721,21.4213486 7.2892643,22.2312644 5.19452169,22.2312644 C1.5109363,22.2114525 0.00199511136,18.422079 1.81740521,16.8078979 C2.74485234,16.0869264 3.91336824,16.5226485 4.61819647,17.5861426 C5.32316828,18.6495669 6.38041062,20.3875026 8.64342756,20.2853736 C8.05288804,20.0458171 7.59501531,19.8123996 7.23025342,19.5789122 C9.35486042,18.8323386 10.8579149,17.9163176 11.9147983,17.0390134 C12.0567977,17.3968832 12.2741042,17.7435914 12.4853086,18.0248644 C12.0687147,18.610571 11.5864336,18.8750319 10.3003985,19.4637381 C12.0811343,19.3196136 12.7241519,18.7428363 13.7753639,17.5892121 C14.6384877,16.642357 15.7610584,16.0869264 16.6885056,16.8078979 C18.5039156,18.422079 16.9966974,22.2114525 13.3130402,22.2312644 Z M4.03088747,12.4462816 C4.82329875,11.7313094 5.7357419,11.5195872 5.88348447,11.4891718 C6.54681843,12.4222143 7.6045633,13.3477227 9.23691045,13.3502341 C10.9063727,13.3477227 11.94215,12.4222143 12.6055558,11.4891718 C12.6844523,11.5054259 12.9851781,11.5736514 13.3688206,11.7426803 C11.9614614,15.6911071 7.88159856,16.9656955 6.46260948,17.3089156 C6.68888963,16.8159901 6.82457158,16.2839291 6.67711617,15.8949463 C6.53023508,15.507289 6.1701395,15.1812298 5.77178018,14.9679032 C5.76625239,14.751228 5.76905218,14.1023885 5.97235973,13.6479008 C5.54952022,14.0998074 5.34405899,14.5159967 5.26221908,14.7625989 C5.06264458,14.7080465 4.8716848,14.6866998 4.71094836,14.7053956 C4.24869648,14.7593202 3.60689933,15.2428978 3.31227567,15.4836402 C3.23861976,15.4628517 3.16367164,15.4452721 3.08750309,15.4311806 C3.20566843,14.2398858 3.51263986,13.1300012 4.03088747,12.4462816 Z M5.12309125,9.04526303 C4.44705056,8.8057763 4.0949236,7.80918223 4.96659038,7.11234769 C5.24391279,7.28918977 5.48139209,7.61176089 5.48139209,7.61176089 C4.9806611,5.0431907 6.45442548,2.38274633 9.2521298,2.380514 C12.0496905,2.38274633 13.5235985,5.0431907 13.0227239,7.61176089 C13.0227239,7.61176089 13.260275,7.28918977 13.5374539,7.11234769 C14.4091924,7.80918223 14.0570655,8.8057763 13.3810966,9.04526303 C13.1999001,8.8951391 13.1014769,8.80410206 12.9571802,8.61812139 C12.7564571,10.1635886 11.6528388,12.4655354 9.2521298,12.467698 C6.85120544,12.4655354 5.74765894,10.1635886 5.54693581,8.61812139 C5.40271092,8.80410206 5.30428767,8.8951391 5.12309125,9.04526303 Z M5.53946971,17.5820268 C5.37772821,17.2842205 5.20004947,16.9705089 4.95216071,16.6340555 C4.74239211,16.3495037 4.39299315,16.0109575 3.95651366,15.7595418 C4.1504168,15.5635157 4.48646294,15.2834983 4.84698925,15.2701043 C5.27399254,15.2542687 5.9441465,15.6757598 6.0835615,16.1713362 C6.22656596,16.6793299 5.76926755,17.3075902 5.53946971,17.5820268 Z M14.5476024,15.7595418 C14.1111947,16.0109575 13.7617239,16.3495037 13.5520271,16.6340555 C13.3040666,16.9705089 13.108584,17.1622099 12.8904161,17.4738985 C12.66069,17.1993921 12.2776219,16.6793299 12.4204827,16.1713362 C12.5600413,15.6757598 13.2302671,15.2542687 13.6571268,15.2701043 C14.0175813,15.2834983 14.3536274,15.5635157 14.5476024,15.7595418 Z M14.4687058,12.4462816 C14.9868099,13.1300012 15.2962221,14.2398858 15.4143875,15.4311806 C15.3381471,15.4452721 15.2643476,15.4628517 15.1906199,15.4836402 C14.923348,15.2652211 14.3703544,14.8465902 13.9247576,14.7307883 C14.217084,14.2224458 14.3070361,13.9002932 14.3070361,13.9002932 C14.15233,14.1824732 13.9816866,14.4508406 13.7984083,14.7061629 C13.7963982,14.7059536 13.7944599,14.7056048 13.7925934,14.7053956 C13.1742713,14.6332635 12.1087732,15.1510934 11.8266409,15.8949463 C11.7302995,16.1490827 11.7389143,16.4330764 11.8106319,16.7197908 C9.66872363,18.3556673 7.21524944,19.0392474 6.68336185,19.1739543 C6.34566456,18.8804034 6.11888188,18.5831552 5.92698884,18.2730712 C12.0408604,16.7725295 13.4998362,12.9399047 13.7791687,11.949589 C14.0055925,12.0792732 14.2424257,12.242233 14.4687058,12.4462816 Z M9.27402557,22.5375116 C10.4240916,22.5375116 10.2599093,22.8039258 12.2384248,23.2124415 C17.7289492,24.2218016 19.6996397,18.6418236 17.7997335,16.4366342 C17.385437,15.9557075 16.961377,15.668435 16.547583,15.5205434 C16.5134112,15.2581753 16.2032093,13.0374294 15.3389368,11.9654246 C14.2170122,10.8730498 13.2302671,10.5901024 13.1659438,10.5725926 C13.3390998,10.2355812 13.4988312,9.94816917 13.5849066,9.77132709 C14.3194557,9.78639529 15.7080061,7.93161136 13.963811,6.56689276 C13.963811,2.37242182 10.4240916,1.37589751 9.23691045,1.37254902 C8.08684442,1.37589751 4.52515742,2.37242182 4.52515742,6.56689276 C2.7809624,7.93161136 4.18186055,9.78646505 4.9163378,9.77132709 C5.00241328,9.94830869 5.16350867,10.2356509 5.33673647,10.5726624 C5.27255676,10.5901722 4.28638591,10.8732591 3.16446132,11.9657036 C2.30018885,13.0375689 1.99027406,15.2585241 1.95624589,15.5208922 C1.54245184,15.6688536 1.11853549,15.9562655 0.704167135,16.4371923 C-1.19573907,18.6425212 0.778469154,24.2218016 6.26899349,23.2124415 C8.24750908,22.8039258 8.07449665,22.5375116 9.23691045,22.5375116 L9.27402557,22.5375116 Z M9.71886701,5.36325807 C10.0014974,5.38868269 10.2518403,5.18681304 10.2780218,4.91235297 C10.3042033,4.6378929 10.0962317,4.39478686 9.81360137,4.36936225 C9.53106353,4.34393763 9.28072058,4.54580728 9.25444659,4.82026735 C9.22826512,5.09472742 9.43614414,5.33783346 9.71886701,5.36325807 M9.71887377,4.3650406 C10.0015082,4.39046522 10.2518548,4.18859557 10.2780367,3.9141355 C10.304126,3.63967543 10.0961514,3.3965694 9.81360951,3.37114478 C9.53106758,3.34572016 9.28072099,3.54758981 9.25444663,3.82204988 C9.22826478,4.09650995 9.43614681,4.33961599 9.71887377,4.3650406 M11.3082707,8.3600713 C10.610858,8.71499307 9.92271742,8.71499307 9.25222146,8.3600713 C9.25222146,9.69102793 11.3082707,9.69102793 11.3082707,8.3600713 M8.22419686,8.3600713 C7.55383929,8.71499307 6.86556031,8.71499307 6.16814764,8.3600713 C6.16814764,9.69102793 8.22419686,9.69102793 8.22419686,8.3600713 M8.78562682,4.3650406 C9.06828237,4.33961599 9.27617992,4.09650995 9.24999612,3.82204988 C9.22381231,3.54758981 8.97344704,3.34572016 8.69079149,3.37114478 C8.40813595,3.3965694 8.2002384,3.63967543 8.2264222,3.9141355 C8.25260601,4.18859557 8.50297128,4.39046522 8.78562682,4.3650406 M8.69079149,5.36757972 C8.40813595,5.39300433 8.2002384,5.63611037 8.2264222,5.91057044 C8.25260601,6.18503051 8.50297128,6.38690016 8.78562682,6.36147554 C9.06828237,6.33605093 9.27617992,6.09294489 9.24999612,5.81848482 C9.22381231,5.54402475 8.97344704,5.3421551 8.69079149,5.36757972 M9.7188161,6.36147554 C10.0015642,6.38690016 10.2519294,6.18503051 10.2780207,5.91057044 C10.3042045,5.63611037 10.096307,5.39300433 9.81365143,5.36757972 C9.53108841,5.3421551 9.28072313,5.54402475 9.25444681,5.81848482 C9.22826301,6.09294489 9.43616055,6.33605093 9.7188161,6.36147554 M8.69079188,4.36936225 C8.4081361,4.39478686 8.20023838,4.6378929 8.2264222,4.91235297 C8.25260603,5.18681304 8.50297151,5.38868269 8.78562729,5.36325807 C9.06819055,5.33783346 9.27618079,5.09472742 9.24999697,4.82026735 C9.22381314,4.54580728 8.97344766,4.34393763 8.69079188,4.36936225" id="Fill-9"></path>
            </g>
        </g>
    </g>
</svg>