<svg width="315" height="73" viewBox="0 0 315 73" fill="none" xmlns="http://www.w3.org/2000/svg">

  <rect x="28" y="34.9998" width="287" height="4" fill="url(#paint0_linear)"/>
  <mask id="mask0" mask-type="alpha" maskUnits="userSpaceOnUse" x="-1" y="0" width="74" height="73">
    <path fill-rule="evenodd" clip-rule="evenodd" d="M-3.05176e-05 0H72.2939V72.295H-3.05176e-05V0Z" fill="white"/>
  </mask>
  <g mask="url(#mask0)">
    <path fill-rule="evenodd" clip-rule="evenodd"
          d="M61.7119 10.5905C69.2919 18.1705 72.8059 28.2755 72.2339 38.1955C71.7599 46.7595 68.2459 55.1805 61.7119 61.7145C55.1779 68.2485 46.7639 71.7555 38.2079 72.2365C28.2799 72.8015 18.1679 69.2945 10.5879 61.7145C-3.53312 47.5935 -3.52612 24.7045 10.5879 10.5905C24.7089 -3.53049 47.5909 -3.53049 61.7119 10.5905Z"
          fill="#5C5FD4"/>
  </g>
  <mask id="mask1" mask-type="alpha" maskUnits="userSpaceOnUse" x="12" y="12" width="49" height="49">
    <path fill-rule="evenodd" clip-rule="evenodd"
          d="M19.136 19.1351C9.73898 28.5321 9.73898 43.7671 19.136 53.1651C28.533 62.5611 43.769 62.5611 53.166 53.1651C62.564 43.7671 62.564 28.5321 53.166 19.1351C48.467 14.4361 42.309 12.0861 36.151 12.0861C29.993 12.0861 23.834 14.4361 19.136 19.1351Z"
          fill="white"/>
  </mask>
  <g mask="url(#mask1)">
    <path fill-rule="evenodd" clip-rule="evenodd"
          d="M19.136 19.1351C9.73898 28.5321 9.73898 43.7671 19.136 53.1651C28.533 62.5611 43.769 62.5611 53.166 53.1651C62.564 43.7671 62.564 28.5321 53.166 19.1351C48.467 14.4361 42.309 12.0861 36.151 12.0861C29.993 12.0861 23.834 14.4361 19.136 19.1351Z"
          fill="white"/>
    <path
      d="M36.2 36.005C36.2 37.2784 36.0633 38.3817 35.79 39.315C35.5166 40.2484 35.1366 41.0217 34.65 41.635C34.17 42.2484 33.5966 42.705 32.93 43.005C32.27 43.305 31.5533 43.455 30.78 43.455C30.0066 43.455 29.29 43.305 28.63 43.005C27.9766 42.705 27.41 42.2484 26.93 41.635C26.45 41.0217 26.0733 40.2484 25.8 39.315C25.5333 38.3817 25.4 37.2784 25.4 36.005C25.4 34.7317 25.5333 33.6284 25.8 32.695C26.0733 31.7617 26.45 30.9884 26.93 30.375C27.41 29.7617 27.9766 29.3084 28.63 29.015C29.29 28.715 30.0066 28.565 30.78 28.565C31.5533 28.565 32.27 28.715 32.93 29.015C33.5966 29.3084 34.17 29.7617 34.65 30.375C35.1366 30.9884 35.5166 31.7617 35.79 32.695C36.0633 33.6284 36.2 34.7317 36.2 36.005ZM33 36.005C33 34.9984 32.9366 34.175 32.81 33.535C32.6833 32.8884 32.5133 32.3817 32.3 32.015C32.0933 31.6484 31.8566 31.3984 31.59 31.265C31.3233 31.125 31.0533 31.055 30.78 31.055C30.5066 31.055 30.2366 31.125 29.97 31.265C29.71 31.3984 29.4766 31.6484 29.27 32.015C29.07 32.3817 28.9066 32.8884 28.78 33.535C28.66 34.175 28.6 34.9984 28.6 36.005C28.6 37.0184 28.66 37.845 28.78 38.485C28.9066 39.125 29.07 39.6317 29.27 40.005C29.4766 40.3717 29.71 40.625 29.97 40.765C30.2366 40.8984 30.5066 40.965 30.78 40.965C31.0533 40.965 31.3233 40.8984 31.59 40.765C31.8566 40.625 32.0933 40.3717 32.3 40.005C32.5133 39.6317 32.6833 39.125 32.81 38.485C32.9366 37.845 33 37.0184 33 36.005ZM39.1215 41.055H41.9215V33.705C41.9215 33.345 41.9315 32.9684 41.9515 32.575L40.3015 33.945C40.1949 34.0317 40.0882 34.095 39.9815 34.135C39.8749 34.1684 39.7715 34.185 39.6715 34.185C39.4982 34.185 39.3415 34.1484 39.2015 34.075C39.0682 33.995 38.9682 33.9117 38.9015 33.825L37.9215 32.525L42.4615 28.715H45.0215V41.055H47.4215V43.295H39.1215V41.055Z"
      fill="#FE664B"/>
  </g>
  <defs>
    <linearGradient id="paint0_linear" x1="-478.94" y1="16.2543" x2="-478.966" y2="38.2329"
                    gradientUnits="userSpaceOnUse">
      <stop stop-color="#529CFB"/>
      <stop offset="1" stop-color="#8380E5"/>
    </linearGradient>
  </defs>
</svg>
