<svg width="392" height="961" viewBox="0 0 392 961" fill="none" xmlns="http://www.w3.org/2000/svg">
  <path fill-rule="evenodd" clip-rule="evenodd"
        d="M45.1107 17.3385L45.0558 16.8122C34.5266 16.6865 24.0116 16.3605 13.6879 13.9881C11.9742 13.5942 10.2893 12.9627 8.69413 12.2191C8.02595 11.9077 7.20999 11.0108 7.22145 10.3944C7.2337 9.76846 8.07534 8.80196 8.73878 8.6036C9.43407 8.39595 10.1295 8.18149 10.8258 7.96678C13.7689 7.05917 16.7262 6.14721 19.7453 5.727C36.5789 3.38542 53.4516 3.4202 70.2943 5.69974C72.6701 6.02141 75.009 6.62566 77.345 7.22916C78.1281 7.43148 78.9109 7.63371 79.6946 7.82518C80.381 7.99311 81.0393 8.36533 81.6478 8.74427C83.4563 9.8708 83.5448 11.2763 81.5786 12.0725C78.7424 13.2208 75.7697 14.3465 72.7631 14.6998C66.1444 15.4775 59.5028 16.0615 52.8614 16.6454C50.2774 16.8727 47.6934 17.0999 45.1107 17.3385ZM79.4315 4.55226C68.2052 1.62153 56.7016 1.13315 42.9205 0.890137C41.855 0.95013 40.6182 1.00811 39.2581 1.07188C35.6822 1.23954 31.2533 1.44718 26.8404 1.83649C20.093 2.43196 13.3757 3.36488 6.94328 5.66141C1.3027 7.67542 0.93562 8.39418 0.774009 14.3173C0.669297 18.1442 1.94756 21.114 4.67954 23.7962C9.94857 28.9691 15.165 34.1955 20.3816 39.4219C24.2796 43.3273 28.1776 47.2328 32.0977 51.1159C34.4871 53.4828 35.6705 56.1567 35.6215 59.5541C35.5706 63.0838 35.5813 66.6146 35.592 70.1453C35.6037 73.9875 35.6154 77.8297 35.5476 81.6707C35.5317 82.5698 35.6061 83.2876 35.7894 83.8526L36.3175 129.211L35.5 954.5H54.3175V129.211V77.5229C54.4673 76.9369 54.5355 76.3051 54.5213 75.6219C54.4774 73.5177 54.497 71.4112 54.5166 69.3051C54.5437 66.4061 54.5707 63.5077 54.432 60.6166C54.2293 56.3839 55.7608 53.2244 58.7453 50.3091C63.5109 45.6542 68.2153 40.9366 72.9197 36.2191C77.0935 32.0336 81.2672 27.8482 85.4838 23.7065C88.1644 21.0729 89.558 18.1359 89.2708 14.3908C89.2004 13.4744 89.1779 12.5396 89.2771 11.6288C89.4924 9.6511 88.6069 8.2215 86.9371 7.4581C84.4991 6.34381 82.0125 5.22637 79.4315 4.55226Z"
        fill="#F6F6F6"/>
  <path fill-rule="evenodd" clip-rule="evenodd"
        d="M70.7121 895.591C78.2921 903.171 81.8061 913.276 81.2341 923.196C80.7601 931.76 77.2461 940.181 70.7121 946.715C64.1781 953.249 55.7641 956.756 47.2081 957.237C37.2801 957.802 27.1681 954.295 19.5881 946.715C5.46712 932.594 5.47412 909.705 19.5881 895.591C33.7091 881.47 56.5911 881.47 70.7121 895.591Z"
        fill="#5C5FD4"/>
  <path
    d="M70.7121 895.591C78.2921 903.171 81.8061 913.276 81.2341 923.196C80.7601 931.76 77.2461 940.181 70.7121 946.715C64.1781 953.249 55.7641 956.756 47.2081 957.237C37.2801 957.802 27.1681 954.295 19.5881 946.715C5.46712 932.594 5.47412 909.705 19.5881 895.591C33.7091 881.47 56.5911 881.47 70.7121 895.591"
    stroke="#F6F6F6" stroke-width="6"/>
  <path
    d="M35.2664 907.529H37.0344C37.225 907.529 37.381 907.573 37.5024 907.659C37.6237 907.746 37.7104 907.861 37.7624 908.004L39.5954 913.074C39.6777 913.295 39.76 913.535 39.8424 913.795C39.929 914.055 40.0092 914.328 40.0829 914.614C40.1435 914.328 40.2129 914.055 40.2909 913.795C40.3732 913.535 40.4534 913.295 40.5314 913.074L42.3514 908.004C42.3947 907.883 42.4792 907.774 42.6049 907.679C42.7305 907.579 42.8844 907.529 43.0664 907.529H44.8474L41.0514 917H39.0624L35.2664 907.529ZM49.4347 917C49.2441 917 49.0989 916.974 48.9992 916.922C48.9039 916.87 48.8237 916.762 48.7587 916.597L48.6157 916.226C48.4467 916.369 48.2842 916.495 48.1282 916.603C47.9722 916.712 47.8097 916.805 47.6407 916.883C47.4761 916.957 47.2984 917.011 47.1077 917.046C46.9214 917.085 46.7134 917.104 46.4837 917.104C46.1761 917.104 45.8966 917.065 45.6452 916.987C45.3939 916.905 45.1794 916.785 45.0017 916.629C44.8284 916.473 44.6941 916.281 44.5987 916.051C44.5034 915.817 44.4557 915.548 44.4557 915.245C44.4557 915.007 44.5164 914.762 44.6377 914.51C44.7591 914.259 44.9692 914.032 45.2682 913.828C45.5672 913.62 45.9702 913.447 46.4772 913.308C46.9842 913.169 47.6234 913.091 48.3947 913.074V912.788C48.3947 912.394 48.3124 912.11 48.1477 911.936C47.9874 911.759 47.7577 911.67 47.4587 911.67C47.2204 911.67 47.0254 911.696 46.8737 911.748C46.7221 911.8 46.5856 911.858 46.4642 911.923C46.3472 911.988 46.2324 912.047 46.1197 912.099C46.0071 912.151 45.8727 912.177 45.7167 912.177C45.5781 912.177 45.4589 912.144 45.3592 912.079C45.2639 912.01 45.1881 911.926 45.1317 911.826L44.7677 911.195C45.1751 910.836 45.6257 910.569 46.1197 910.396C46.6181 910.218 47.1511 910.129 47.7187 910.129C48.1261 910.129 48.4922 910.197 48.8172 910.331C49.1466 910.461 49.4239 910.645 49.6492 910.883C49.8789 911.117 50.0544 911.397 50.1757 911.722C50.2971 912.047 50.3577 912.402 50.3577 912.788V917H49.4347ZM47.1207 915.771C47.3807 915.771 47.6082 915.726 47.8032 915.635C47.9982 915.544 48.1954 915.397 48.3947 915.193V914.257C47.9917 914.274 47.6602 914.309 47.4002 914.361C47.1402 914.413 46.9344 914.478 46.7827 914.556C46.6311 914.634 46.5249 914.723 46.4642 914.822C46.4079 914.922 46.3797 915.03 46.3797 915.147C46.3797 915.377 46.4426 915.54 46.5682 915.635C46.6939 915.726 46.8781 915.771 47.1207 915.771ZM50.2277 907.425L48.5377 909.135C48.4381 909.235 48.3427 909.306 48.2517 909.349C48.1607 909.388 48.0394 909.408 47.8877 909.408H46.6787L47.5627 907.815C47.6364 907.69 47.7231 907.594 47.8227 907.529C47.9224 907.46 48.0741 907.425 48.2777 907.425H50.2277ZM55.9095 911.735C55.8575 911.817 55.8012 911.876 55.7405 911.91C55.6842 911.945 55.6105 911.962 55.5195 911.962C55.4242 911.962 55.3289 911.943 55.2335 911.904C55.1382 911.861 55.0342 911.815 54.9215 911.767C54.8132 911.72 54.6897 911.676 54.551 911.637C54.4124 911.594 54.2542 911.572 54.0765 911.572C53.8209 911.572 53.6237 911.622 53.485 911.722C53.3507 911.817 53.2835 911.952 53.2835 912.125C53.2835 912.251 53.3269 912.355 53.4135 912.437C53.5045 912.519 53.6237 912.593 53.771 912.658C53.9184 912.719 54.0852 912.777 54.2715 912.833C54.4579 912.89 54.6485 912.953 54.8435 913.022C55.0385 913.091 55.2292 913.174 55.4155 913.269C55.6019 913.36 55.7687 913.475 55.916 913.613C56.0634 913.748 56.1804 913.912 56.267 914.107C56.358 914.302 56.4035 914.536 56.4035 914.809C56.4035 915.143 56.3429 915.451 56.2215 915.732C56.1002 916.014 55.9182 916.257 55.6755 916.46C55.4372 916.664 55.1404 916.822 54.785 916.935C54.434 917.048 54.0289 917.104 53.5695 917.104C53.3399 917.104 53.1102 917.082 52.8805 917.039C52.6509 916.996 52.4277 916.937 52.211 916.863C51.9987 916.79 51.8015 916.703 51.6195 916.603C51.4375 916.499 51.2815 916.389 51.1515 916.272L51.6195 915.531C51.6759 915.444 51.743 915.377 51.821 915.33C51.899 915.277 52.0009 915.251 52.1265 915.251C52.2435 915.251 52.3475 915.277 52.4385 915.33C52.5339 915.381 52.6357 915.438 52.744 915.498C52.8524 915.559 52.978 915.615 53.121 915.667C53.2684 915.719 53.4525 915.745 53.6735 915.745C53.8295 915.745 53.9617 915.73 54.07 915.7C54.1784 915.665 54.265 915.62 54.33 915.563C54.395 915.507 54.4427 915.444 54.473 915.375C54.5034 915.306 54.5185 915.234 54.5185 915.16C54.5185 915.026 54.473 914.916 54.382 914.829C54.291 914.742 54.1719 914.669 54.0245 914.608C53.8772 914.543 53.7082 914.484 53.5175 914.432C53.3312 914.376 53.1405 914.313 52.9455 914.244C52.7505 914.175 52.5577 914.092 52.367 913.997C52.1807 913.897 52.0139 913.774 51.8665 913.626C51.7192 913.475 51.6 913.291 51.509 913.074C51.418 912.857 51.3725 912.595 51.3725 912.287C51.3725 912.001 51.4267 911.731 51.535 911.475C51.6477 911.215 51.8145 910.987 52.0355 910.792C52.2565 910.597 52.5339 910.444 52.8675 910.331C53.2012 910.214 53.5912 910.155 54.0375 910.155C54.2802 910.155 54.5142 910.177 54.7395 910.22C54.9692 910.264 55.1837 910.324 55.383 910.402C55.5824 910.48 55.7644 910.574 55.929 910.682C56.0937 910.786 56.2389 910.901 56.3645 911.026L55.9095 911.735ZM51.5415 907.529H52.9325C53.0105 907.529 53.0842 907.542 53.1535 907.568C53.2272 907.59 53.2835 907.618 53.3225 907.653L53.8685 908.121C53.8945 908.143 53.9227 908.169 53.953 908.199C53.9834 908.229 54.0115 908.262 54.0375 908.296C54.0852 908.227 54.1415 908.169 54.2065 908.121L54.7525 907.653C54.7915 907.627 54.8457 907.601 54.915 907.575C54.9887 907.545 55.0645 907.529 55.1425 907.529H56.4815L54.9605 909.408H53.0625L51.5415 907.529ZM22.6782 934.139V925.259H23.9262C24.0519 925.259 24.1559 925.288 24.2382 925.344C24.3249 925.4 24.3855 925.485 24.4202 925.597L24.5697 926.091C24.6997 925.948 24.8384 925.818 24.9857 925.701C25.1374 925.584 25.2977 925.485 25.4667 925.402C25.64 925.316 25.8242 925.249 26.0192 925.201C26.2185 925.153 26.4352 925.129 26.6692 925.129C27.0202 925.129 27.3452 925.207 27.6442 925.363C27.9432 925.519 28.201 925.745 28.4177 926.039C28.6344 926.334 28.8034 926.696 28.9247 927.125C29.0504 927.55 29.1132 928.033 29.1132 928.574C29.1132 929.081 29.0417 929.549 28.8987 929.978C28.76 930.407 28.5629 930.78 28.3072 931.096C28.0559 931.413 27.7525 931.66 27.3972 931.837C27.0462 932.015 26.6562 932.104 26.2272 932.104C25.8762 932.104 25.5815 932.054 25.3432 931.954C25.1049 931.855 24.8882 931.72 24.6932 931.551V934.139H22.6782ZM25.9672 926.67C25.8199 926.67 25.6855 926.685 25.5642 926.715C25.4472 926.741 25.3367 926.78 25.2327 926.832C25.133 926.884 25.0399 926.952 24.9532 927.034C24.8665 927.112 24.7799 927.203 24.6932 927.307V930.167C24.8449 930.336 25.0095 930.455 25.1872 930.524C25.3649 930.589 25.5512 930.622 25.7462 930.622C25.9325 930.622 26.1037 930.585 26.2597 930.511C26.4157 930.438 26.55 930.321 26.6627 930.16C26.7797 929.996 26.8707 929.783 26.9357 929.523C27.0007 929.263 27.0332 928.947 27.0332 928.574C27.0332 928.219 27.0072 927.92 26.9552 927.677C26.9032 927.435 26.8295 927.24 26.7342 927.092C26.6432 926.941 26.5327 926.832 26.4027 926.767C26.2727 926.702 26.1275 926.67 25.9672 926.67ZM30.1938 932V925.259H31.3898C31.4895 925.259 31.5718 925.268 31.6368 925.286C31.7062 925.303 31.7625 925.331 31.8058 925.37C31.8535 925.405 31.8882 925.452 31.9098 925.513C31.9358 925.574 31.9575 925.647 31.9748 925.734L32.0853 926.364C32.3323 925.983 32.6097 925.682 32.9173 925.461C33.225 925.24 33.5608 925.129 33.9248 925.129C34.2325 925.129 34.4795 925.203 34.6658 925.35L34.4058 926.832C34.3885 926.923 34.3538 926.988 34.3018 927.027C34.2498 927.062 34.1805 927.079 34.0938 927.079C34.0202 927.079 33.9335 927.071 33.8338 927.053C33.7342 927.032 33.6085 927.021 33.4568 927.021C32.9282 927.021 32.5122 927.303 32.2088 927.866V932H30.1938ZM38.5669 925.155C39.0783 925.155 39.5441 925.236 39.9644 925.396C40.3848 925.556 40.7444 925.786 41.0434 926.085C41.3468 926.384 41.5808 926.748 41.7454 927.177C41.9144 927.602 41.9989 928.08 41.9989 928.613C41.9989 929.151 41.9144 929.636 41.7454 930.069C41.5808 930.498 41.3468 930.865 41.0434 931.168C40.7444 931.467 40.3848 931.699 39.9644 931.863C39.5441 932.024 39.0783 932.104 38.5669 932.104C38.0513 932.104 37.5811 932.024 37.1564 931.863C36.7361 931.699 36.3721 931.467 36.0644 931.168C35.7611 930.865 35.5249 930.498 35.3559 930.069C35.1913 929.636 35.1089 929.151 35.1089 928.613C35.1089 928.08 35.1913 927.602 35.3559 927.177C35.5249 926.748 35.7611 926.384 36.0644 926.085C36.3721 925.786 36.7361 925.556 37.1564 925.396C37.5811 925.236 38.0513 925.155 38.5669 925.155ZM38.5669 930.609C39.0306 930.609 39.3708 930.446 39.5874 930.121C39.8084 929.792 39.9189 929.294 39.9189 928.626C39.9189 927.959 39.8084 927.463 39.5874 927.138C39.3708 926.813 39.0306 926.65 38.5669 926.65C38.0903 926.65 37.7414 926.813 37.5204 927.138C37.2994 927.463 37.1889 927.959 37.1889 928.626C37.1889 929.294 37.2994 929.792 37.5204 930.121C37.7414 930.446 38.0903 930.609 38.5669 930.609ZM47.837 932C47.7113 932 47.6051 931.972 47.5185 931.915C47.4361 931.859 47.3776 931.775 47.343 931.662L47.187 931.148C47.0526 931.291 46.9118 931.421 46.7645 931.538C46.6171 931.655 46.4568 931.757 46.2835 931.844C46.1145 931.926 45.9303 931.989 45.731 932.033C45.536 932.08 45.3236 932.104 45.094 932.104C44.743 932.104 44.418 932.026 44.119 931.87C43.82 931.714 43.5621 931.489 43.3455 931.194C43.1288 930.899 42.9576 930.54 42.832 930.115C42.7106 929.686 42.65 929.198 42.65 928.652C42.65 928.15 42.7193 927.684 42.858 927.255C42.9966 926.822 43.1916 926.449 43.443 926.137C43.6986 925.821 44.0041 925.574 44.3595 925.396C44.7148 925.218 45.107 925.129 45.536 925.129C45.8826 925.129 46.1751 925.181 46.4135 925.286C46.6561 925.385 46.875 925.517 47.07 925.682V922.269H49.085V932H47.837ZM45.796 930.557C45.9433 930.557 46.0755 930.544 46.1925 930.518C46.3138 930.488 46.4243 930.446 46.524 930.394C46.6236 930.342 46.7168 930.277 46.8035 930.199C46.8945 930.121 46.9833 930.03 47.07 929.926V927.066C46.914 926.897 46.7471 926.78 46.5695 926.715C46.3961 926.646 46.212 926.611 46.017 926.611C45.8306 926.611 45.6595 926.648 45.5035 926.722C45.3475 926.796 45.211 926.915 45.094 927.079C44.9813 927.24 44.8925 927.45 44.8275 927.71C44.7625 927.97 44.73 928.284 44.73 928.652C44.73 929.008 44.756 929.307 44.808 929.549C44.86 929.792 44.9315 929.989 45.0225 930.141C45.1178 930.288 45.2305 930.394 45.3605 930.459C45.4905 930.524 45.6356 930.557 45.796 930.557ZM52.531 925.259V929.536C52.531 929.87 52.6068 930.128 52.7585 930.31C52.9101 930.492 53.1333 930.583 53.428 930.583C53.649 930.583 53.8548 930.537 54.0455 930.446C54.2405 930.355 54.429 930.228 54.611 930.063V925.259H56.626V932H55.378C55.1266 932 54.962 931.887 54.884 931.662L54.7605 931.272C54.6305 931.398 54.4961 931.512 54.3575 931.616C54.2188 931.716 54.0693 931.803 53.909 931.876C53.753 931.946 53.584 932 53.402 932.039C53.22 932.082 53.0206 932.104 52.804 932.104C52.4356 932.104 52.1085 932.041 51.8225 931.915C51.5408 931.785 51.3025 931.606 51.1075 931.376C50.9125 931.146 50.7651 930.875 50.6655 930.563C50.5658 930.251 50.516 929.909 50.516 929.536V925.259H52.531ZM60.202 922.269V927.723H60.501C60.6266 927.723 60.722 927.706 60.787 927.671C60.8563 927.636 60.9213 927.573 60.982 927.482L62.256 925.584C62.3296 925.472 62.4163 925.389 62.516 925.337C62.62 925.285 62.75 925.259 62.906 925.259H64.752L63.01 927.658C62.9276 927.771 62.8366 927.87 62.737 927.957C62.6416 928.044 62.5376 928.122 62.425 928.191C62.62 928.338 62.789 928.533 62.932 928.776L64.83 932H63.01C62.8583 932 62.7261 931.976 62.6135 931.928C62.5051 931.876 62.4163 931.788 62.347 931.662L61.073 929.276C61.0123 929.168 60.9495 929.099 60.8845 929.068C60.8195 929.034 60.722 929.016 60.592 929.016H60.202V932H58.187V922.269H60.202ZM68.0432 932.104C67.7226 932.104 67.4387 932.059 67.1917 931.967C66.9491 931.872 66.7432 931.74 66.5742 931.571C66.4096 931.398 66.2839 931.19 66.1972 930.947C66.1106 930.704 66.0672 930.433 66.0672 930.134V926.65H65.4952C65.3912 926.65 65.3024 926.618 65.2287 926.553C65.1551 926.484 65.1182 926.384 65.1182 926.254V925.468L66.1907 925.259L66.5872 923.615C66.6392 923.407 66.7866 923.303 67.0292 923.303H68.0822V925.272H69.7202V926.65H68.0822V929.998C68.0822 930.154 68.1191 930.284 68.1927 930.388C68.2707 930.488 68.3812 930.537 68.5242 930.537C68.5979 930.537 68.6586 930.531 68.7062 930.518C68.7582 930.501 68.8016 930.483 68.8362 930.466C68.8752 930.444 68.9099 930.427 68.9402 930.414C68.9749 930.397 69.0139 930.388 69.0572 930.388C69.1179 930.388 69.1656 930.403 69.2002 930.433C69.2392 930.459 69.2782 930.503 69.3172 930.563L69.9282 931.519C69.6682 931.714 69.3757 931.861 69.0507 931.961C68.7257 932.056 68.3899 932.104 68.0432 932.104Z"
    fill="white"/>
  <rect x="37" y="753" width="192" height="4" fill="url(#paint0_linear)"/>
  <mask id="mask0" mask-type="alpha" maskUnits="userSpaceOnUse" x="9" y="718" width="73" height="73">
    <path fill-rule="evenodd" clip-rule="evenodd" d="M9 718H81.294V790.295H9V718Z" fill="white"/>
  </mask>
  <g mask="url(#mask0)">
    <path fill-rule="evenodd" clip-rule="evenodd"
          d="M70.7119 728.591C78.2919 736.171 81.8059 746.276 81.2339 756.196C80.7599 764.76 77.2459 773.181 70.7119 779.715C64.1779 786.249 55.7639 789.756 47.2079 790.237C37.2799 790.802 27.1679 787.295 19.5879 779.715C5.46688 765.594 5.47388 742.705 19.5879 728.591C33.7089 714.47 56.5909 714.47 70.7119 728.591Z"
          fill="#5C5FD4"/>
  </g>
  <mask id="mask1" mask-type="alpha" maskUnits="userSpaceOnUse" x="21" y="730" width="49" height="49">
    <path fill-rule="evenodd" clip-rule="evenodd"
          d="M28.136 737.135C18.739 746.532 18.739 761.767 28.136 771.165C37.533 780.561 52.769 780.561 62.166 771.165C71.564 761.767 71.564 746.532 62.166 737.135C57.467 732.436 51.309 730.086 45.151 730.086C38.993 730.086 32.834 732.436 28.136 737.135Z"
          fill="white"/>
  </mask>
  <g mask="url(#mask1)">
    <path fill-rule="evenodd" clip-rule="evenodd"
          d="M28.136 737.135C18.739 746.532 18.739 761.767 28.136 771.165C37.533 780.561 52.769 780.561 62.166 771.165C71.564 761.767 71.564 746.532 62.166 737.135C57.467 732.436 51.309 730.086 45.151 730.086C38.993 730.086 32.834 732.436 28.136 737.135Z"
          fill="white"/>
    <path
      d="M45.2 754.005C45.2 755.278 45.0633 756.382 44.79 757.315C44.5167 758.248 44.1367 759.022 43.65 759.635C43.17 760.248 42.5967 760.705 41.93 761.005C41.27 761.305 40.5533 761.455 39.78 761.455C39.0067 761.455 38.29 761.305 37.63 761.005C36.9767 760.705 36.41 760.248 35.93 759.635C35.45 759.022 35.0733 758.248 34.8 757.315C34.5333 756.382 34.4 755.278 34.4 754.005C34.4 752.732 34.5333 751.628 34.8 750.695C35.0733 749.762 35.45 748.988 35.93 748.375C36.41 747.762 36.9767 747.308 37.63 747.015C38.29 746.715 39.0067 746.565 39.78 746.565C40.5533 746.565 41.27 746.715 41.93 747.015C42.5967 747.308 43.17 747.762 43.65 748.375C44.1367 748.988 44.5167 749.762 44.79 750.695C45.0633 751.628 45.2 752.732 45.2 754.005ZM42 754.005C42 752.998 41.9367 752.175 41.81 751.535C41.6833 750.888 41.5133 750.382 41.3 750.015C41.0933 749.648 40.8567 749.398 40.59 749.265C40.3233 749.125 40.0533 749.055 39.78 749.055C39.5067 749.055 39.2367 749.125 38.97 749.265C38.71 749.398 38.4767 749.648 38.27 750.015C38.07 750.382 37.9067 750.888 37.78 751.535C37.66 752.175 37.6 752.998 37.6 754.005C37.6 755.018 37.66 755.845 37.78 756.485C37.9067 757.125 38.07 757.632 38.27 758.005C38.4767 758.372 38.71 758.625 38.97 758.765C39.2367 758.898 39.5067 758.965 39.78 758.965C40.0533 758.965 40.3233 758.898 40.59 758.765C40.8567 758.625 41.0933 758.372 41.3 758.005C41.5133 757.632 41.6833 757.125 41.81 756.485C41.9367 755.845 42 755.018 42 754.005ZM55.3616 755.635H56.8616V757.375C56.8616 757.528 56.8082 757.662 56.7016 757.775C56.6016 757.888 56.4549 757.945 56.2616 757.945H55.3616V761.295H52.6616V757.945H46.8016C46.6082 757.945 46.4316 757.885 46.2716 757.765C46.1182 757.645 46.0216 757.495 45.9816 757.315L45.6616 755.785L52.4016 746.725H55.3616V755.635ZM52.6616 751.835C52.6616 751.602 52.6682 751.352 52.6816 751.085C52.7016 750.812 52.7282 750.532 52.7616 750.245L48.9116 755.635H52.6616V751.835Z"
      fill="#FE664B"/>
  </g>
  <rect x="37" y="576" width="203" height="4" fill="url(#paint1_linear)"/>
  <mask id="mask2" mask-type="alpha" maskUnits="userSpaceOnUse" x="9" y="541" width="73" height="73">
    <path fill-rule="evenodd" clip-rule="evenodd" d="M9 541H81.294V613.295H9V541Z" fill="white"/>
  </mask>
  <g mask="url(#mask2)">
    <path fill-rule="evenodd" clip-rule="evenodd"
          d="M70.7119 551.591C78.2919 559.171 81.8059 569.276 81.2339 579.196C80.7599 587.76 77.2459 596.181 70.7119 602.715C64.1779 609.249 55.7639 612.756 47.2079 613.237C37.2799 613.802 27.1679 610.295 19.5879 602.715C5.46688 588.594 5.47388 565.705 19.5879 551.591C33.7089 537.47 56.5909 537.47 70.7119 551.591Z"
          fill="#5C5FD4"/>
  </g>
  <mask id="mask3" mask-type="alpha" maskUnits="userSpaceOnUse" x="21" y="553" width="49" height="49">
    <path fill-rule="evenodd" clip-rule="evenodd"
          d="M28.136 560.135C18.739 569.532 18.739 584.767 28.136 594.165C37.533 603.561 52.769 603.561 62.166 594.165C71.564 584.767 71.564 569.532 62.166 560.135C57.467 555.436 51.309 553.086 45.151 553.086C38.993 553.086 32.834 555.436 28.136 560.135Z"
          fill="white"/>
  </mask>
  <g mask="url(#mask3)">
    <path fill-rule="evenodd" clip-rule="evenodd"
          d="M28.136 560.135C18.739 569.532 18.739 584.767 28.136 594.165C37.533 603.561 52.769 603.561 62.166 594.165C71.564 584.767 71.564 569.532 62.166 560.135C57.467 555.436 51.309 553.086 45.151 553.086C38.993 553.086 32.834 555.436 28.136 560.135Z"
          fill="white"/>
    <path
      d="M45.2 577.005C45.2 578.278 45.0633 579.382 44.79 580.315C44.5167 581.248 44.1367 582.022 43.65 582.635C43.17 583.248 42.5967 583.705 41.93 584.005C41.27 584.305 40.5533 584.455 39.78 584.455C39.0067 584.455 38.29 584.305 37.63 584.005C36.9767 583.705 36.41 583.248 35.93 582.635C35.45 582.022 35.0733 581.248 34.8 580.315C34.5333 579.382 34.4 578.278 34.4 577.005C34.4 575.732 34.5333 574.628 34.8 573.695C35.0733 572.762 35.45 571.988 35.93 571.375C36.41 570.762 36.9767 570.308 37.63 570.015C38.29 569.715 39.0067 569.565 39.78 569.565C40.5533 569.565 41.27 569.715 41.93 570.015C42.5967 570.308 43.17 570.762 43.65 571.375C44.1367 571.988 44.5167 572.762 44.79 573.695C45.0633 574.628 45.2 575.732 45.2 577.005ZM42 577.005C42 575.998 41.9367 575.175 41.81 574.535C41.6833 573.888 41.5133 573.382 41.3 573.015C41.0933 572.648 40.8567 572.398 40.59 572.265C40.3233 572.125 40.0533 572.055 39.78 572.055C39.5067 572.055 39.2367 572.125 38.97 572.265C38.71 572.398 38.4767 572.648 38.27 573.015C38.07 573.382 37.9067 573.888 37.78 574.535C37.66 575.175 37.6 575.998 37.6 577.005C37.6 578.018 37.66 578.845 37.78 579.485C37.9067 580.125 38.07 580.632 38.27 581.005C38.4767 581.372 38.71 581.625 38.97 581.765C39.2367 581.898 39.5067 581.965 39.78 581.965C40.0533 581.965 40.3233 581.898 40.59 581.765C40.8567 581.625 41.0933 581.372 41.3 581.005C41.5133 580.632 41.6833 580.125 41.81 579.485C41.9367 578.845 42 578.018 42 577.005ZM51.9016 569.565C52.6216 569.565 53.2616 569.668 53.8216 569.875C54.3816 570.075 54.8549 570.348 55.2416 570.695C55.6282 571.042 55.9216 571.445 56.1216 571.905C56.3216 572.358 56.4216 572.838 56.4216 573.345C56.4216 573.805 56.3749 574.212 56.2816 574.565C56.1882 574.912 56.0482 575.215 55.8616 575.475C55.6816 575.728 55.4549 575.945 55.1816 576.125C54.9149 576.305 54.6082 576.455 54.2616 576.575C55.8749 577.135 56.6816 578.232 56.6816 579.865C56.6816 580.638 56.5416 581.312 56.2616 581.885C55.9816 582.458 55.6049 582.935 55.1316 583.315C54.6649 583.695 54.1216 583.982 53.5016 584.175C52.8816 584.362 52.2349 584.455 51.5616 584.455C50.8682 584.455 50.2516 584.382 49.7116 584.235C49.1716 584.082 48.6916 583.848 48.2716 583.535C47.8516 583.215 47.4816 582.808 47.1616 582.315C46.8482 581.822 46.5749 581.235 46.3416 580.555L47.7216 579.995C47.8416 579.942 47.9582 579.905 48.0716 579.885C48.1916 579.865 48.3082 579.855 48.4216 579.855C48.6349 579.855 48.8249 579.898 48.9916 579.985C49.1649 580.065 49.2949 580.185 49.3816 580.345C49.6816 580.898 49.9982 581.302 50.3316 581.555C50.6716 581.802 51.0682 581.925 51.5216 581.925C51.8682 581.925 52.1682 581.868 52.4216 581.755C52.6816 581.635 52.8949 581.485 53.0616 581.305C53.2349 581.118 53.3649 580.908 53.4516 580.675C53.5382 580.442 53.5816 580.205 53.5816 579.965C53.5816 579.652 53.5582 579.372 53.5116 579.125C53.4716 578.872 53.3516 578.655 53.1516 578.475C52.9516 578.295 52.6482 578.158 52.2416 578.065C51.8416 577.965 51.2816 577.915 50.5616 577.915V575.775C51.1682 575.775 51.6582 575.728 52.0316 575.635C52.4049 575.542 52.6916 575.415 52.8916 575.255C53.0982 575.088 53.2349 574.888 53.3016 574.655C53.3682 574.422 53.4016 574.165 53.4016 573.885C53.4016 573.312 53.2616 572.872 52.9816 572.565C52.7082 572.252 52.2882 572.095 51.7216 572.095C51.4882 572.095 51.2749 572.128 51.0816 572.195C50.8882 572.262 50.7149 572.352 50.5616 572.465C50.4082 572.578 50.2749 572.712 50.1616 572.865C50.0549 573.018 49.9682 573.185 49.9016 573.365C49.7949 573.665 49.6582 573.882 49.4916 574.015C49.3316 574.148 49.1116 574.215 48.8316 574.215C48.7649 574.215 48.6916 574.212 48.6116 574.205C48.5382 574.198 48.4616 574.188 48.3816 574.175L46.7416 573.885C46.8482 573.158 47.0516 572.525 47.3516 571.985C47.6582 571.445 48.0349 570.995 48.4816 570.635C48.9349 570.275 49.4516 570.008 50.0316 569.835C50.6116 569.655 51.2349 569.565 51.9016 569.565Z"
      fill="#FE664B"/>
  </g>
  <rect x="37" y="399" width="355" height="4" fill="url(#paint2_linear)"/>
  <mask id="mask4" mask-type="alpha" maskUnits="userSpaceOnUse" x="9" y="364" width="73" height="73">
    <path fill-rule="evenodd" clip-rule="evenodd" d="M9 364H81.294V436.295H9V364Z" fill="white"/>
  </mask>
  <g mask="url(#mask4)">
    <path fill-rule="evenodd" clip-rule="evenodd"
          d="M70.7119 374.591C78.2919 382.171 81.8059 392.276 81.2339 402.196C80.7599 410.76 77.2459 419.181 70.7119 425.715C64.1779 432.249 55.7639 435.756 47.2079 436.237C37.2799 436.802 27.1679 433.295 19.5879 425.715C5.46688 411.594 5.47388 388.705 19.5879 374.591C33.7089 360.47 56.5909 360.47 70.7119 374.591Z"
          fill="#5C5FD4"/>
  </g>
  <mask id="mask5" mask-type="alpha" maskUnits="userSpaceOnUse" x="21" y="376" width="49" height="49">
    <path fill-rule="evenodd" clip-rule="evenodd"
          d="M28.136 383.135C18.739 392.532 18.739 407.767 28.136 417.165C37.533 426.561 52.769 426.561 62.166 417.165C71.564 407.767 71.564 392.532 62.166 383.135C57.467 378.436 51.309 376.086 45.151 376.086C38.993 376.086 32.834 378.436 28.136 383.135Z"
          fill="white"/>
  </mask>
  <g mask="url(#mask5)">
    <path fill-rule="evenodd" clip-rule="evenodd"
          d="M28.136 383.135C18.739 392.532 18.739 407.767 28.136 417.165C37.533 426.561 52.769 426.561 62.166 417.165C71.564 407.767 71.564 392.532 62.166 383.135C57.467 378.436 51.309 376.086 45.151 376.086C38.993 376.086 32.834 378.436 28.136 383.135Z"
          fill="white"/>
    <path
      d="M45.2 400.005C45.2 401.278 45.0633 402.382 44.79 403.315C44.5167 404.248 44.1367 405.022 43.65 405.635C43.17 406.248 42.5967 406.705 41.93 407.005C41.27 407.305 40.5533 407.455 39.78 407.455C39.0067 407.455 38.29 407.305 37.63 407.005C36.9767 406.705 36.41 406.248 35.93 405.635C35.45 405.022 35.0733 404.248 34.8 403.315C34.5333 402.382 34.4 401.278 34.4 400.005C34.4 398.732 34.5333 397.628 34.8 396.695C35.0733 395.762 35.45 394.988 35.93 394.375C36.41 393.762 36.9767 393.308 37.63 393.015C38.29 392.715 39.0067 392.565 39.78 392.565C40.5533 392.565 41.27 392.715 41.93 393.015C42.5967 393.308 43.17 393.762 43.65 394.375C44.1367 394.988 44.5167 395.762 44.79 396.695C45.0633 397.628 45.2 398.732 45.2 400.005ZM42 400.005C42 398.998 41.9367 398.175 41.81 397.535C41.6833 396.888 41.5133 396.382 41.3 396.015C41.0933 395.648 40.8567 395.398 40.59 395.265C40.3233 395.125 40.0533 395.055 39.78 395.055C39.5067 395.055 39.2367 395.125 38.97 395.265C38.71 395.398 38.4767 395.648 38.27 396.015C38.07 396.382 37.9067 396.888 37.78 397.535C37.66 398.175 37.6 398.998 37.6 400.005C37.6 401.018 37.66 401.845 37.78 402.485C37.9067 403.125 38.07 403.632 38.27 404.005C38.4767 404.372 38.71 404.625 38.97 404.765C39.2367 404.898 39.5067 404.965 39.78 404.965C40.0533 404.965 40.3233 404.898 40.59 404.765C40.8567 404.625 41.0933 404.372 41.3 404.005C41.5133 403.632 41.6833 403.125 41.81 402.485C41.9367 401.845 42 401.018 42 400.005ZM51.6216 392.565C52.3416 392.565 52.9882 392.672 53.5616 392.885C54.1416 393.092 54.6349 393.382 55.0416 393.755C55.4482 394.128 55.7582 394.575 55.9716 395.095C56.1916 395.608 56.3016 396.175 56.3016 396.795C56.3016 397.328 56.2249 397.822 56.0716 398.275C55.9249 398.728 55.7216 399.162 55.4616 399.575C55.2016 399.982 54.8982 400.378 54.5516 400.765C54.2116 401.145 53.8482 401.532 53.4616 401.925L50.6116 404.845C50.9782 404.738 51.3382 404.655 51.6916 404.595C52.0516 404.528 52.3882 404.495 52.7016 404.495H55.4216C55.7549 404.495 56.0182 404.588 56.2116 404.775C56.4049 404.955 56.5016 405.195 56.5016 405.495V407.295H46.2616V406.295C46.2616 406.102 46.3016 405.895 46.3816 405.675C46.4616 405.455 46.6016 405.255 46.8016 405.075L51.0016 400.845C51.3616 400.485 51.6749 400.142 51.9416 399.815C52.2082 399.488 52.4282 399.168 52.6016 398.855C52.7749 398.535 52.9049 398.218 52.9916 397.905C53.0782 397.585 53.1216 397.248 53.1216 396.895C53.1216 396.315 52.9816 395.872 52.7016 395.565C52.4282 395.252 52.0082 395.095 51.4416 395.095C51.2082 395.095 50.9949 395.128 50.8016 395.195C50.6082 395.262 50.4349 395.352 50.2816 395.465C50.1282 395.578 49.9949 395.712 49.8816 395.865C49.7749 396.018 49.6882 396.185 49.6216 396.365C49.5149 396.665 49.3782 396.882 49.2116 397.015C49.0516 397.148 48.8316 397.215 48.5516 397.215C48.4849 397.215 48.4116 397.212 48.3316 397.205C48.2582 397.198 48.1816 397.188 48.1016 397.175L46.4616 396.885C46.5682 396.158 46.7716 395.525 47.0716 394.985C47.3782 394.445 47.7549 393.995 48.2016 393.635C48.6549 393.275 49.1716 393.008 49.7516 392.835C50.3316 392.655 50.9549 392.565 51.6216 392.565Z"
      fill="#FE664B"/>
  </g>
  <rect x="37" y="197" width="310" height="4" fill="url(#paint3_linear)"/>
  <mask id="mask6" mask-type="alpha" maskUnits="userSpaceOnUse" x="9" y="162" width="73" height="73">
    <path fill-rule="evenodd" clip-rule="evenodd" d="M9 162H81.294V234.295H9V162Z" fill="white"/>
  </mask>
  <g mask="url(#mask6)">
    <path fill-rule="evenodd" clip-rule="evenodd"
          d="M70.7119 172.591C78.2919 180.171 81.8059 190.276 81.2339 200.196C80.7599 208.76 77.2459 217.181 70.7119 223.715C64.1779 230.249 55.7639 233.756 47.2079 234.237C37.2799 234.802 27.1679 231.295 19.5879 223.715C5.46688 209.594 5.47388 186.705 19.5879 172.591C33.7089 158.47 56.5909 158.47 70.7119 172.591Z"
          fill="#5C5FD4"/>
  </g>
  <mask id="mask7" mask-type="alpha" maskUnits="userSpaceOnUse" x="21" y="174" width="49" height="49">
    <path fill-rule="evenodd" clip-rule="evenodd"
          d="M28.136 181.135C18.739 190.532 18.739 205.767 28.136 215.165C37.533 224.561 52.769 224.561 62.166 215.165C71.564 205.767 71.564 190.532 62.166 181.135C57.467 176.436 51.309 174.086 45.151 174.086C38.993 174.086 32.834 176.436 28.136 181.135Z"
          fill="white"/>
  </mask>
  <g mask="url(#mask7)">
    <path fill-rule="evenodd" clip-rule="evenodd"
          d="M28.136 181.135C18.739 190.532 18.739 205.767 28.136 215.165C37.533 224.561 52.769 224.561 62.166 215.165C71.564 205.767 71.564 190.532 62.166 181.135C57.467 176.436 51.309 174.086 45.151 174.086C38.993 174.086 32.834 176.436 28.136 181.135Z"
          fill="white"/>
    <path
      d="M45.2 198.005C45.2 199.278 45.0633 200.382 44.79 201.315C44.5167 202.248 44.1367 203.022 43.65 203.635C43.17 204.248 42.5967 204.705 41.93 205.005C41.27 205.305 40.5533 205.455 39.78 205.455C39.0067 205.455 38.29 205.305 37.63 205.005C36.9767 204.705 36.41 204.248 35.93 203.635C35.45 203.022 35.0733 202.248 34.8 201.315C34.5333 200.382 34.4 199.278 34.4 198.005C34.4 196.732 34.5333 195.628 34.8 194.695C35.0733 193.762 35.45 192.988 35.93 192.375C36.41 191.762 36.9767 191.308 37.63 191.015C38.29 190.715 39.0067 190.565 39.78 190.565C40.5533 190.565 41.27 190.715 41.93 191.015C42.5967 191.308 43.17 191.762 43.65 192.375C44.1367 192.988 44.5167 193.762 44.79 194.695C45.0633 195.628 45.2 196.732 45.2 198.005ZM42 198.005C42 196.998 41.9367 196.175 41.81 195.535C41.6833 194.888 41.5133 194.382 41.3 194.015C41.0933 193.648 40.8567 193.398 40.59 193.265C40.3233 193.125 40.0533 193.055 39.78 193.055C39.5067 193.055 39.2367 193.125 38.97 193.265C38.71 193.398 38.4767 193.648 38.27 194.015C38.07 194.382 37.9067 194.888 37.78 195.535C37.66 196.175 37.6 196.998 37.6 198.005C37.6 199.018 37.66 199.845 37.78 200.485C37.9067 201.125 38.07 201.632 38.27 202.005C38.4767 202.372 38.71 202.625 38.97 202.765C39.2367 202.898 39.5067 202.965 39.78 202.965C40.0533 202.965 40.3233 202.898 40.59 202.765C40.8567 202.625 41.0933 202.372 41.3 202.005C41.5133 201.632 41.6833 201.125 41.81 200.485C41.9367 199.845 42 199.018 42 198.005ZM48.1216 203.055H50.9216V195.705C50.9216 195.345 50.9316 194.968 50.9516 194.575L49.3016 195.945C49.1949 196.032 49.0882 196.095 48.9816 196.135C48.8749 196.168 48.7716 196.185 48.6716 196.185C48.4982 196.185 48.3416 196.148 48.2016 196.075C48.0682 195.995 47.9682 195.912 47.9016 195.825L46.9216 194.525L51.4616 190.715H54.0216V203.055H56.4216V205.295H48.1216V203.055Z"
      fill="#FE664B"/>
  </g>
  <defs>
    <linearGradient id="paint0_linear" x1="-302.138" y1="734.254" x2="-302.176" y2="756.233"
                    gradientUnits="userSpaceOnUse">
      <stop stop-color="#529CFB"/>
      <stop offset="1" stop-color="#8380E5"/>
    </linearGradient>
    <linearGradient id="paint1_linear" x1="-321.567" y1="557.254" x2="-321.604" y2="579.233"
                    gradientUnits="userSpaceOnUse">
      <stop stop-color="#529CFB"/>
      <stop offset="1" stop-color="#8380E5"/>
    </linearGradient>
    <linearGradient id="paint2_linear" x1="-590.051" y1="380.254" x2="-590.072" y2="402.233"
                    gradientUnits="userSpaceOnUse">
      <stop stop-color="#529CFB"/>
      <stop offset="1" stop-color="#8380E5"/>
    </linearGradient>
    <linearGradient id="paint3_linear" x1="-510.566" y1="178.254" x2="-510.59" y2="200.233"
                    gradientUnits="userSpaceOnUse">
      <stop stop-color="#529CFB"/>
      <stop offset="1" stop-color="#8380E5"/>
    </linearGradient>
  </defs>
</svg>
