<svg width="155" height="108" viewBox="0 0 155 108" fill="none" xmlns="http://www.w3.org/2000/svg">
<path d="M21.2202 104.272V96.5152C18.9395 96.1347 15.9158 95.9654 12.833 95.9654C6.60103 95.9654 4.5073 96.4293 4.5073 100.349C4.5073 104.608 6.29595 105.239 12.833 105.239C15.8518 105.241 18.814 104.866 21.2202 104.272ZM25.2281 106.044C21.8353 107.097 16.5948 107.732 12.646 107.732C3.70278 107.732 0 106.085 0 100.565C0 94.4877 5.36841 93.5207 12.336 93.5207C15.6058 93.5207 18.012 93.7317 21.2178 94.1981C21.2178 88.9675 19.2446 87.8752 12.0285 87.8752C9.06627 87.8752 5.55048 88.1673 3.08278 88.884L1.91167 86.3141C4.31786 85.8526 8.07968 85.2562 12.2745 85.2562C21.3383 85.2562 25.2256 87.0652 25.2256 93.5182V106.044H25.2281Z" fill="#933C06"/>
<path d="M38.6119 107.141H34.6016V86.9425C37.9968 85.8944 43.4243 85.2562 47.1861 85.2562C56.1933 85.2562 59.4581 87.3646 59.4581 95.1259V107.143H55.4503V95.6733C55.4503 89.1786 53.4796 87.8752 46.4431 87.8752C43.4218 87.8752 41.0181 88.0838 38.6094 88.5895V107.141H38.6119Z" fill="#933C06"/>
<path d="M102.021 107.141H96.3455C94.5519 101.279 91.4076 92.9707 89.4345 89.0091C87.3358 94.8264 84.1915 101.864 81.4163 107.141H75.7403C72.9036 99.9687 69.2623 92.0454 65.626 85.8501H70.3744C73.2751 90.9924 76.4809 98.1989 78.7616 104.524C81.4778 99.3771 85.5496 90.0204 86.8413 85.8501H91.9637C94.488 90.8206 97.5142 98.9157 99.3643 104.524C102.819 98.3266 105.965 92.0429 108.126 85.8501H112.63C109.85 92.9708 106.216 100.352 102.021 107.141Z" fill="#933C06"/>
<path d="M122.93 85.8527H118.922V107.143H122.93V85.8527Z" fill="#933C06"/>
<path d="M143.65 87.7893C138.351 87.7893 135.699 88.29 135.699 91.6257C135.699 93.7317 137.859 94.662 143.471 94.9173C151.548 95.2953 155 97.0626 155 101.024C155 106.085 151.243 107.73 142.974 107.73C139.891 107.73 134.83 107.305 131.747 106.589L132.98 104.019C135.14 104.691 139.768 105.241 142.976 105.241C148.032 105.241 150.623 104.65 150.623 101.275C150.623 99.0041 148.957 97.9069 142.976 97.5657C135.45 97.1877 131.319 95.8795 131.319 91.8761C131.319 86.8566 135.573 85.2562 143.653 85.2562C146.677 85.2562 150.379 85.6833 153.895 86.3509L152.535 88.965C150.008 88.29 146.674 87.7893 143.65 87.7893Z" fill="#933C06"/>
<path d="M108.921 18.9859C94.4494 18.5564 60.3887 17.8028 43.046 17.4297C42.0569 19.2559 41.2278 21.1827 40.5537 23.1783L109.197 19.5971C109.103 19.3909 109.017 19.1872 108.921 18.9859ZM103.036 10.2404C88.6799 9.85747 65.2159 9.32729 49.3272 8.98365C47.6886 10.6331 46.205 12.4323 44.901 14.3665L103.946 11.286C103.646 10.935 103.343 10.584 103.036 10.2404ZM111.969 28.4654C111.947 28.3427 111.925 28.2175 111.9 28.0972C99.0059 27.6603 56.622 26.7349 39.636 26.3717C39.1882 28.2469 38.888 30.1811 38.7379 32.1497L38.8733 32.2773L111.969 28.4654ZM89.824 0.893472C81.3064 0.68729 71.7628 0.466381 62.9376 0.267563C59.8007 1.41138 56.8631 2.97002 54.1863 4.86738L93.731 2.80802C92.4713 2.09865 91.1698 1.45556 89.824 0.893472ZM39.2989 41.9286L112.4 38.1142C112.412 38.0062 112.415 37.8957 112.427 37.7853C99.9457 37.3435 55.1458 36.3715 38.6543 36.0205C38.7109 38.0332 38.9299 40.0091 39.2989 41.9286ZM58.3393 67.5442L96.1495 65.5708C96.8949 65.07 97.6158 64.5398 98.3195 63.9876C84.6426 63.6366 65.6095 63.2168 51.5218 62.9051C53.6056 64.692 55.8888 66.2482 58.3393 67.5442ZM42.2119 50.787L110.429 47.2304C110.486 47.0708 110.545 46.9015 110.596 46.7419C96.4718 46.2854 56.7524 45.4238 40.0493 45.063C40.6176 47.0438 41.336 48.9559 42.2119 50.787ZM47.6714 59.0883L105.873 56.0496C106.072 55.7673 106.264 55.485 106.458 55.1954C91.1107 54.7609 60.401 54.0835 43.789 53.7227C44.9232 55.6298 46.2272 57.4266 47.6714 59.0883Z" fill="#FAA21B"/>
</svg>
