<svg width="290" height="42" viewBox="0 0 290 42" fill="none" xmlns="http://www.w3.org/2000/svg">
<path d="M44.8096 13.7549H49.4377C52.9348 13.7549 55.8179 16.5033 55.8179 20.0346C55.8179 23.5658 52.9204 26.3106 49.4377 26.3106H44.8096V13.7549ZM48.0744 23.5478H48.8065C50.7551 23.5478 52.4194 22.4807 52.4194 20.0346C52.4194 17.7848 50.9382 16.519 48.8403 16.519H48.0744V23.5478Z" fill="#3B6E8F"/>
<path d="M60.5915 13.7549H57.3291V26.3106H60.5915V13.7549Z" fill="#3B6E8F"/>
<path d="M65.9193 24.1307L65.0546 26.3119H61.5898L66.4202 13.7549H69.9825L74.7117 26.3119H71.2325L70.4161 24.1307H65.9193ZM68.2002 17.6355H68.1688L66.8176 21.634H69.5321L68.2002 17.6355Z" fill="#3B6E8F"/>
<path d="M88.2463 19.3023C88.2138 21.1318 88.0801 22.6962 86.965 24.2631C85.7318 25.9793 83.8844 26.7273 81.7866 26.7273C77.8402 26.7273 75.0908 24.0464 75.0908 20.0984C75.0908 16.0192 77.8558 13.3382 81.9021 13.3382C84.4829 13.3382 86.4808 14.5029 87.5646 16.8527L84.4685 18.1497C84.0169 16.9538 83.0679 16.154 81.7528 16.154C79.6044 16.154 78.4892 18.2003 78.4892 20.1164C78.4892 22.0651 79.6538 24.0464 81.8023 24.0464C83.2172 24.0464 84.301 23.3129 84.4336 21.8652H81.7697V19.3023H88.2463Z" fill="#3B6E8F"/>
<path d="M89.7422 13.7549H93.0058L98.9839 21.4329H99.0175V13.7549H102.281V26.3106H99.0175L93.0396 18.617H93.0058V26.3106H89.7422V13.7549Z" fill="#3B6E8F"/>
<path d="M117.664 19.7997C117.664 23.8633 114.751 26.7273 110.721 26.7273C106.689 26.7273 103.774 23.8633 103.774 19.7997C103.774 16.0035 107.105 13.3382 110.721 13.3382C114.335 13.3382 117.664 16.0035 117.664 19.7997ZM107.173 19.8177C107.173 21.9809 108.772 23.5658 110.721 23.5658C112.669 23.5658 114.266 21.9809 114.266 19.8177C114.266 18.086 112.669 16.5022 110.721 16.5022C108.772 16.5022 107.173 18.086 107.173 19.8177Z" fill="#3B6E8F"/>
<path d="M126.07 16.9852C125.47 16.4866 124.704 16.154 123.905 16.154C123.306 16.154 122.505 16.5022 122.505 17.202C122.505 17.9354 123.387 18.2185 123.953 18.4002L124.786 18.652C126.535 19.1675 127.885 20.0503 127.885 22.0809C127.885 23.331 127.585 24.6124 126.585 25.464C125.603 26.2938 124.288 26.6442 123.021 26.6442C121.438 26.6442 119.89 26.1107 118.608 25.2111L120.008 22.583C120.824 23.2985 121.789 23.8802 122.906 23.8802C123.672 23.8802 124.488 23.4984 124.488 22.6133C124.488 21.699 123.205 21.3823 122.505 21.1836C120.458 20.6007 119.107 20.0684 119.107 17.6343C119.107 15.087 120.923 13.4214 123.438 13.4214C124.704 13.4214 126.252 13.8224 127.369 14.456L126.07 16.9852Z" fill="#3B6E8F"/>
<path d="M134.426 26.3106H131.164V16.5202H128.465V13.7549H137.125V16.5202H134.426V26.3106Z" fill="#3B6E8F"/>
<path d="M141.567 13.7549H138.305V26.3106H141.567V13.7549Z" fill="#3B6E8F"/>
<path d="M152.672 17.9678C152.006 17.0683 150.924 16.5877 149.807 16.5877C147.808 16.5877 146.461 18.1197 146.461 20.0684C146.461 22.0472 147.826 23.4804 149.858 23.4804C150.924 23.4804 151.991 22.9649 152.672 22.1483V26.0625C151.591 26.3938 150.808 26.6442 149.792 26.6442C148.043 26.6442 146.378 25.977 145.078 24.7943C143.696 23.5478 143.063 21.9158 143.063 20.0502C143.063 18.3365 143.713 16.6865 144.913 15.4532C146.145 14.1873 147.927 13.4213 149.692 13.4213C150.74 13.4213 151.705 13.6563 152.672 14.0561V17.9678ZM145.513 10.4068L146.745 8.99286L149.141 10.8572L151.54 8.99286L152.774 10.4068L149.141 13.1215L145.513 10.4068Z" fill="#3B6E8F"/>
<path d="M154.686 13.7549H157.949L163.927 21.4329H163.961V13.7549H167.226V26.3106H163.961L157.983 18.617H157.949V26.3106H154.686V13.7549Z" fill="#3B6E8F"/>
<path d="M172.615 13.7549H169.352V26.3106H172.615V13.7549Z" fill="#3B6E8F"/>
<path d="M189.432 17.9679C188.765 17.0683 187.682 16.5877 186.567 16.5877C184.569 16.5877 183.22 18.1197 183.22 20.0684C183.22 22.0472 184.584 23.4804 186.616 23.4804C187.682 23.4804 188.746 22.9636 189.432 22.1483V26.0625C188.347 26.3938 187.564 26.6467 186.549 26.6467C184.8 26.6467 183.136 25.9794 181.838 24.7968C180.455 23.5478 179.82 21.9158 179.82 20.0503C179.82 18.3365 180.471 16.6865 181.67 15.4532C182.901 14.1886 184.683 13.4214 186.449 13.4214C187.5 13.4214 188.466 13.6563 189.432 14.0561V17.9679Z" fill="#3B6E8F"/>
<path d="M194.707 16.5202V18.6183H198.386V21.3823H194.707V23.5489H198.586V26.3106H191.443V13.7549H198.586V16.5202H194.707Z" fill="#3B6E8F"/>
<path d="M200.6 13.7549H203.863L209.841 21.4329H209.875V13.7549H213.14V26.3106H209.875L203.897 18.617H203.863V26.3106H200.6V13.7549Z" fill="#3B6E8F"/>
<path d="M220.261 26.3106H216.998V16.5202H214.299V13.7549H222.959V16.5202H220.261V26.3106Z" fill="#3B6E8F"/>
<path d="M227.403 16.5202V18.6183H231.082V21.3823H227.403V23.5489H231.282V26.3106H224.14V13.7549H231.282V16.5202H227.403Z" fill="#3B6E8F"/>
<path d="M243.734 26.3119H239.67L236.59 21.4823H236.557V26.3119H233.294V13.7549H238.174C240.653 13.7549 242.537 14.9377 242.537 17.6175C242.537 19.3505 241.57 20.85 239.789 21.1655L243.734 26.3119ZM236.557 19.3843H236.875C237.939 19.3843 239.139 19.1844 239.139 17.8174C239.139 16.4528 237.939 16.2528 236.875 16.2528H236.557V19.3843Z" fill="#3B6E8F"/>
<path d="M250.325 26.3094V13.7549H254.988C257.22 13.7549 258.718 14.621 258.718 17.0188C258.718 18.151 258.352 19.0687 257.335 19.5842V19.6179C259.135 19.8516 259.9 21.0631 259.9 22.8119C259.9 25.4459 257.653 26.3094 255.354 26.3094H250.325ZM253.59 18.6845H253.956C254.822 18.6845 255.722 18.5364 255.722 17.4693C255.722 16.3191 254.705 16.2528 253.821 16.2528H253.59V18.6845ZM253.59 23.8127H254.005C254.97 23.8127 256.603 23.8633 256.603 22.4807C256.603 20.9644 254.988 21.1137 253.924 21.1137H253.59V23.8127Z" fill="#3B6E8F"/>
<path d="M264.861 23.5478H268.773V26.3106H261.596V13.7549H264.861V23.5478Z" fill="#3B6E8F"/>
<path d="M273.101 16.5202V18.6183H276.78V21.3823H273.101V23.5489H276.979V26.3106H269.837V13.7549H276.979V16.5202H273.101Z" fill="#3B6E8F"/>
<path d="M278.992 13.7549H283.62C287.117 13.7549 289.999 16.5033 289.999 20.0346C289.999 23.5658 287.103 26.3106 283.62 26.3106H278.992V13.7549ZM282.257 23.5478H282.989C284.938 23.5478 286.601 22.4807 286.601 20.0346C286.601 17.7848 285.12 16.519 283.022 16.519H282.257V23.5478Z" fill="#3B6E8F"/>
<path d="M24.5761 20.8438C24.5761 21.4154 24.4784 21.7 24.2808 21.7C24.0589 21.3696 23.6128 21.0801 22.9605 20.8342C21.3713 21.7483 19.482 22.5067 17.2827 23.1048C14.9581 23.7366 12.9796 24.0526 11.3422 24.0526C11.3121 24.0526 11.2867 24.0501 11.2566 24.0501C10.4596 24.9231 9.77354 25.9095 9.21042 27.0189C8.34233 28.6962 7.90711 30.2697 7.90711 31.7481C7.90711 33.3832 8.6184 34.5167 10.0376 35.1485C11.0986 35.6212 12.6552 35.8552 14.7074 35.8552C16.7921 35.8552 18.8514 35.5802 20.883 35.0279C22.26 34.6541 23.649 34.1405 25.05 33.4917C25.6396 33.2144 26.2316 32.9394 26.8212 32.6621C27.0973 32.6621 27.2336 32.802 27.2336 33.0793C27.2336 33.3543 26.3775 33.8511 24.6654 34.5697C22.9508 35.2884 21.0881 35.8937 19.0793 36.3881C16.5968 37.0007 14.4288 37.3046 12.5768 37.3046C10.2932 37.3046 8.51963 36.9501 7.25966 36.2411C5.83931 35.4332 5.12914 34.1911 5.12914 32.515C5.12914 30.8992 5.91882 29.0049 7.49474 26.826C8.24109 25.7962 9.06572 24.8448 9.96047 23.9717C9.35882 23.9006 8.8536 23.7849 8.46049 23.6076C7.80093 23.3146 7.47177 22.7828 7.47177 22.016C7.47177 21.7964 7.54894 21.6891 7.70698 21.6891C7.84563 21.6891 8.06256 21.7579 8.35678 21.8965C9.14659 22.2511 9.97368 22.4259 10.8394 22.4259C10.8394 20.3592 10.8744 17.517 10.9442 13.9031C11.0143 10.2857 11.0467 7.97534 11.0467 6.96839C10.3559 7.10952 9.66749 7.29523 8.97781 7.5328C8.34962 7.7884 7.71661 8.0356 7.08718 8.27193C6.88951 8.27193 6.67357 8.16339 6.43972 7.94509C6.20094 7.72925 6.08278 7.49179 6.08278 7.23732C6.08278 7.01902 6.7074 6.75502 7.95292 6.43905C9.20202 6.12554 10.2293 5.92786 11.0467 5.84821V5.28874C11.0467 4.89325 11.1854 4.69791 11.4616 4.69791C11.7774 4.69791 12.1705 4.79434 12.6528 4.99203C13.1339 5.18984 13.4016 5.42259 13.4594 5.70115L15.8515 5.64324C19.3216 5.64324 22.1586 6.12554 24.3603 7.09026C27.1094 8.29119 28.4839 10.1337 28.4839 12.6177C28.4839 15.3537 27.2505 17.6894 24.7896 19.6199C24.6196 19.7514 24.4411 19.878 24.2626 20.0045C24.47 20.2469 24.5761 20.5255 24.5761 20.8438ZM0 42H33.6166V0H0V42Z" fill="#386D8A"/>
<path d="M24.0502 8.4794C22.6491 7.11794 20.3148 6.43907 17.0449 6.43907C16.5312 6.43907 16.172 6.44636 15.9645 6.45241C15.7596 6.46326 14.9084 6.54045 13.4109 6.67541C13.1733 9.31619 12.9406 12.0486 12.7164 14.8774C12.5114 17.4362 12.4029 19.7767 12.3848 21.9267C12.6585 21.7278 12.9383 21.5336 13.2252 21.3455C15.6897 19.7104 18.0143 18.8929 20.2027 18.8929C21.4542 18.8929 22.4923 19.058 23.3195 19.3896C24.9472 17.8631 25.7635 15.8698 25.7635 13.4136C25.7635 11.2263 25.1931 9.58142 24.0502 8.4794Z" fill="#386D8A"/>
<path d="M13.1095 22.3789C13.013 22.4476 12.925 22.5236 12.8311 22.5935C16.635 22.5428 19.6288 21.8519 21.8124 20.5207C21.1167 20.3845 20.3125 20.3132 19.3733 20.3132C17.0667 20.3132 14.9819 20.9994 13.1095 22.3789Z" fill="#386D8A"/>
</svg>
