<svg xmlns="http://www.w3.org/2000/svg" width="214" height="48.547" viewBox="0 0 214 48.547"><path fill="#8D004B" d="M0 24.046c0-6.85 5.55-12.403 12.397-12.403 6.85 0 12.4 5.553 12.4 12.403 0 6.844-5.55 12.4-12.4 12.4C5.55 36.445 0 30.89 0 24.045"/><path fill="#004167" d="M21.066 1C14.354 1 8.314 3.876 4.104 8.46c-.2.243-.333.57-.333.907 0 .765.61 1.385 1.368 1.41h15.808c7.487-.022 13.412 5.943 13.412 13.275 0 7.33-5.938 13.296-13.268 13.296H5.19a1.41 1.41 0 0 0-1.39 1.41c0 .326.122.634.305.877 4.212 4.578 10.25 7.453 16.96 7.453 12.73 0 23.046-10.318 23.046-23.045C44.113 11.318 33.795 1 21.067 1M181.882 18.66h-10.62v-7.007h31.894v7.008h-10.653v17.787h-10.62V18.66zm-24.772-7.008h10.612V36.43H157.11V11.65zm-35.387 0h10.662l10.566 11.894V11.652h10.618v24.796h-10.62l-10.612-11.956v11.956h-10.613V11.652zm-14.968 17.644c.462 0 .84-.378.84-.84v-8.82a.843.843 0 0 0-.84-.84H97.81c-.462 0-.84.378-.84.84v8.82c0 .462.378.84.84.84h8.945zm3.187 7.153h-15.3c-5.467 0-8.292-2.36-8.292-7.078v-10.61c0-4.824 2.688-7.11 8.29-7.11h15.303c5.65 0 8.245 2.253 8.245 7.11v10.61c0 4.716-2.78 7.077-8.246 7.077M70.29 29.28c1.075 0 1.956-.88 1.956-1.96v-6.592c0-1.08-.88-1.964-1.956-1.964h-8.706v10.514l8.706.003zM50.968 11.653H74.43c5.103 0 8.382 2.5 8.382 7.075V29.21c0 4.788-2.962 7.254-8.613 7.254H50.967V11.652zM210.05 7.896c0 .492-.382.85-.925.85h-.91V7.033h.91c.543 0 .926.37.926.862m.81 3.42l-1.168-2.08c.602-.185 1.045-.627 1.045-1.34 0-.826-.687-1.465-1.538-1.465h-1.66v4.887h.674V9.323h.74l1.12 1.995h.786zm1.885-2.437c0 2.093-1.688 3.803-3.755 3.803s-3.742-1.71-3.742-3.804c0-2.092 1.675-3.804 3.742-3.804s3.755 1.712 3.755 3.803m.7 0a4.452 4.452 0 0 0-4.455-4.454 4.452 4.452 0 0 0-4.454 4.453 4.45 4.45 0 0 0 4.454 4.453 4.45 4.45 0 0 0 4.454-4.454"/></svg>