<?xml version="1.0" encoding="UTF-8"?>
<!-- Generator: Adobe Illustrator 23.0.1, SVG Export Plug-In . SVG Version: 6.00 Build 0)  -->
<svg version="1.1" id="Vrstva_1" xmlns="http://www.w3.org/2000/svg" xmlns:xlink="http://www.w3.org/1999/xlink" x="0px" y="0px" viewBox="0 0 218 28" style="enable-background:new 0 0 218 28;" xml:space="preserve">
<style type="text/css">
	.st0{fill-rule:evenodd;clip-rule:evenodd;fill:#EC1C24;}
</style>
<g>
	<g>
		<path class="st0" d="M56.1,1.2c-1,0-1.6,0-1.6,0c-5.4,0-10.9,0.9-15.1,3.4c-4.9,3-7.7,6.6-7.7,11.6c0,0.5,0.1,1.2,0.1,1.8    c0.3,3.1,1.8,5.4,4.3,7c2.1,1.4,4.9,2.1,8.2,2.1c4.7,0,8.6-1.4,11.8-4.3c0.9-0.8,1.8-1.7,2.5-2.7l-2.2,6.7h17.4L82,1.3    C82,1.3,62.1,1.3,56.1,1.2z M60.9,11.5c-0.4,0.8-0.9,1.6-1.4,2.5c-0.9,1.4-1.9,2.7-3.1,3.9c-0.1,0.1-0.2,0.1-0.2,0.2    c-1.1,1-2.6,2-4.2,1.8c-2.2-0.3-2.7-2.5-2.3-4.4c0.5-2.5,2.1-4.9,4.2-6.3c0.7-0.4,1.4-0.9,2.2-1.2c0.7-0.3,1.4-0.5,2.1-0.7    c1.6-0.3,4.4-0.5,4.4-0.4C62.1,8.6,61.6,10,60.9,11.5z"/>
		<path class="st0" d="M114.6,1.2L87.2,1.3c0,0.1-8.1,25.4-8.1,25.4h18.1l5.3-16.7c1.1-4.3,8.7-3.6,7.5,0.1l-1.8,5.8l-3.5,10.8h18    l4.4-13.8c0.7-2,0.9-3.8,0.7-5.3C127.5,2.7,124.2,1.2,114.6,1.2z"/>
		<path class="st0" d="M217,1.3h-15.2l-3.8,0.1c0,0-2,2.1-5.5,5.2l-5.6-5.3h-18.4c3.4,3.2,6.5,6.3,9.9,9.4c1.2,1.1,2.3,2.2,3.5,3.2    c-7,4.6-15.9,7.9-24.5,7.6c-1.7-0.1-3.7-0.4-5.4-1c-0.5-0.2-0.9-0.3-1.4-0.5c-1.3-0.5-2.7-1.5-3.5-2.7c0.9,0.2,2.7,0.4,4.9,0.5    c4.2,0.2,9.9-0.1,14.7-2.2c4.2-1.9,5.5-4.1,5.3-6.8c-0.2-2.1-1.9-3.9-4.8-5.4c-3.5-1.7-8-2.5-13.7-2.5c-0.4,0-0.9,0-1.4,0    c-3.8,0.1-8,0.7-11.5,1.8c-3.4,1-6.2,2.5-8.5,5.3c-1,1.1-2,2.6-2.4,4.1c-0.2,0.6-0.3,1.4-0.4,2.1v0.9c0.3,4.8,4.5,11.5,22.9,12.4    c1.3,0.1,2.7,0.1,4.2,0.1c17.1,0,34-8.1,45.6-15.3C211,6.4,217,1.3,217,1.3z M146.4,13.6c-0.3-3.2,2.7-6.3,5.6-6.9    c0.3-0.1,0.7-0.1,1-0.2c1.4,0,3.3,0.1,4.2,1.3c0.8,1.2,0.4,2.5-0.5,3.4c-1.2,1-2.9,1.6-4.6,1.9c-1.2,0.2-2.4,0.4-3.4,0.4    C148.5,13.6,146.4,13.8,146.4,13.6z"/>
		<path class="st0" d="M201.3,14.7c-5.7,3.1-9,4.7-12,5.9l6.6,6.1h5.9h12.5l-12.5-11.6L201.3,14.7z"/>
		<polygon class="st0" points="27.3,1.2 9.2,1.2 1,26.7 28.2,26.7 30.6,19 21.6,19   "/>
	</g>
</g>
</svg>