<svg id="Layer_1" data-name="Layer 1" xmlns="http://www.w3.org/2000/svg" viewBox="0 0 150 21.97"><defs><style>.cls-1{fill:#253561;fill-rule:evenodd;}</style></defs><title>Untitled-35</title><path class="cls-1" d="M69.23,19.19c0,2-.64,2.68-2.54,2.68-1,0-2.13-.06-2.87-0.13V0.08h5.27L78.3,13.84a8.93,8.93,0,0,1-.12-1.71v-12H83.6V21.74c-0.91.09-2.22,0.13-3.46,0.13a3.51,3.51,0,0,1-3.65-2c-0.84-1.29-7.38-11.2-7.38-11.2a10.69,10.69,0,0,1,.12,2.14v8.4Z"/><path class="cls-1" d="M6.92,0.09C1.87,0.32,0,3.27,0,6.51S2,13,7.15,13.11c1.67,0,3.86,0,4.61,0a2.08,2.08,0,1,1,0,4.15c-0.76,0-8.13,0-8.13,0C1,17.26.23,18,.23,20.53v1.34c2.52,0.06,6.9.14,12.1,0.07s7.31-3.43,7.31-6.88-2.2-6.82-7.3-6.91c-1.53,0-4.08,0-4.86,0a1.91,1.91,0,0,1,0-3.8c0.79-.05,7.29,0,7.29,0,2.65,0,3.4-.75,3.4-3.27v-1c-1.48,0-7.39-.18-11.25,0"/><path class="cls-1" d="M93.4,0.09c-5.06.23-6.92,3.19-6.92,6.42s2.05,6.49,7.15,6.6c1.67,0,3.86,0,4.61,0a2.08,2.08,0,1,1,0,4.15c-0.76,0-8.13,0-8.13,0-2.65,0-3.4.75-3.4,3.27v1.34c2.52,0.06,6.9.14,12.1,0.07s7.31-3.43,7.31-6.88-2.2-6.82-7.3-6.91c-1.53,0-4.08,0-4.86,0a1.91,1.91,0,0,1,0-3.8c0.79-.05,7.29,0,7.29,0,2.65,0,3.4-.75,3.4-3.27v-1c-1.48,0-7.39-.18-11.25,0"/><path class="cls-1" d="M54.06,13.25L51.38,4.77l-2.67,8.48a0.33,0.33,0,0,1,.24-0.07h4.86A0.35,0.35,0,0,1,54.06,13.25Zm9.12,8.49c-0.7,0-2.26.13-3.42,0.13-1.8,0-3.06-.24-3.58-1.89l-0.75-2.37H47.34L46.6,20c-0.52,1.66-1.66,1.85-3.51,1.89-1.64,0-3.07,0-4.77,0s-2.64-.41-3.43-1.33l-7-8.12A0.85,0.85,0,0,1,27.65,12v7.23c0,2-.64,2.68-2.55,2.68-1,0-2.61-.06-3.36-0.13V0.08h5.9V9.91a1,1,0,0,1,.24-0.6L35,0.08h7L33,10.58l7.5,8.15a0.75,0.75,0,0,1,.18.33,1.31,1.31,0,0,1,.08-0.34L48.25,0.08h6.26Z"/><path class="cls-1" d="M140.88,13.25L138.2,4.77l-2.67,8.48a0.33,0.33,0,0,1,.24-0.07h4.86A0.35,0.35,0,0,1,140.88,13.25ZM150,21.74c-0.7,0-2.26.13-3.42,0.13-1.81,0-3.06-.24-3.58-1.89l-0.75-2.37h-8.08L133.42,20c-0.52,1.66-1.66,1.85-3.51,1.89-1.64,0-3.07,0-4.77,0s-2.64-.41-3.43-1.33l-7-8.12a0.87,0.87,0,0,1-.24-0.47v7.23c0,2-.64,2.68-2.55,2.68-1,0-2.61-.06-3.36-0.13V0.08h5.9V9.91a1,1,0,0,1,.24-0.6l7.13-9.23h7l-9,10.49,7.5,8.15a0.75,0.75,0,0,1,.18.33,1.25,1.25,0,0,1,.08-0.34l7.46-18.64h6.26Z"/></svg>