<svg width="190" height="31" viewBox="0 0 190 31" fill="none" xmlns="http://www.w3.org/2000/svg">
<path d="M30.1743 0H22.6104V25.0142H30.1743V0Z" fill="#0088CF"/>
<path d="M7.8251 5.07172H0.260742V30.0859H7.8251V5.07172Z" fill="#0088CF"/>
<path d="M18.9999 5.07172H11.4355V30.0859H18.9999V5.07172Z" fill="#0088CF"/>
<path d="M189.37 5.07166V30.0859H186.018L172.351 12.8941V30.0859H168.139V5.07166H171.491L185.158 22.263V5.07166H189.37Z" fill="#0088CF"/>
<path d="M144.328 12.2922V5.07166H162.121V8.93978H148.626V12.2922H144.328Z" fill="#0088CF"/>
<path d="M110.203 26.2178V30.0859H91.8936V15.4728H108.225V19.3405H96.1916V26.2178H110.203Z" fill="#0088CF"/>
<path d="M91.8936 12.2922V5.07166H109.687V8.93978H96.1916V12.2922H91.8936Z" fill="#0088CF"/>
<path d="M139.171 17.6216C139.171 20.0285 138.569 22.1777 137.452 24.0685C136.334 25.9593 134.701 27.5071 132.724 28.5384C130.747 29.5702 128.426 30.0859 125.761 30.0859H115.446V15.4732H119.658V26.2177H125.676C127.566 26.2177 129.2 25.8739 130.575 25.1002C131.951 24.4118 132.982 23.3809 133.756 22.0916C134.529 20.8022 134.873 19.3409 134.873 17.6216C134.873 15.9023 134.529 14.4415 133.756 13.1517C132.981 11.8623 131.951 10.831 130.575 10.143C129.2 9.36929 127.567 9.02551 125.676 9.02551H119.658V12.2922H115.446V5.07166H125.761C128.34 5.07166 130.661 5.58732 132.724 6.61907C134.787 7.65082 136.334 9.19782 137.452 11.089C138.569 12.9798 139.171 15.2148 139.171 17.6216Z" fill="#0088CF"/>
<path d="M77.9682 5.07172L69.5444 30.0859H65.6763L59.487 12.1204L53.2978 30.0859H49.4297L41.0059 5.07172H45.3896L51.4927 23.2087L57.7677 5.07172H61.3782L67.5675 23.2948L73.7563 5.07172H77.9682Z" fill="#0088CF"/>
<path d="M86.4779 5.07166H82.2656V30.0859H86.4779V5.07166Z" fill="#0088CF"/>
<path d="M148.626 26.2178V19.3405H160.66V15.4728H144.328V30.0859H162.552V26.2178H148.626Z" fill="#0088CF"/>
</svg>
