<svg width="1278" height="736" viewBox="0 0 1278 736" fill="none" xmlns="http://www.w3.org/2000/svg">
<g opacity="0.3">
<path opacity="0.3" d="M1068.46 472.682C1068.27 472.682 1068.08 472.682 1067.88 472.49L833.435 336.938C829.022 334.442 826.72 330.986 826.72 327.338C826.72 323.69 829.022 320.234 833.435 317.738L986.154 229.418C989.607 227.306 991.717 224.81 991.717 221.93C991.717 219.242 989.799 216.554 986.154 214.442L727.338 65.4499C719.472 61.0339 706.809 61.0339 699.135 65.4499L612.416 115.562C608.962 117.674 606.852 120.17 606.852 123.05C606.852 125.93 608.77 128.426 612.416 130.538L741.344 205.034C745.756 207.53 748.059 210.986 748.059 214.634C748.059 218.282 745.756 221.738 741.344 224.234L548.527 335.594C540.086 340.394 526.272 340.394 517.83 335.594L389.861 261.674C389.286 261.29 389.094 260.522 389.478 259.946C389.861 259.37 390.629 259.178 391.204 259.562L519.173 333.482C527.039 337.898 539.702 337.898 547.376 333.482L740.193 222.122C743.646 220.01 745.756 217.514 745.756 214.634C745.756 211.754 743.838 209.258 740.193 207.146L611.265 132.458C606.852 129.962 604.55 126.506 604.55 122.858C604.55 119.21 606.852 115.754 611.265 113.258L697.984 63.1459C706.426 58.3459 720.239 58.3459 728.681 63.1459L987.305 212.714C991.717 215.21 994.02 218.666 994.02 222.314C994.02 225.962 991.717 229.418 987.305 231.914L834.586 320.234C831.133 322.346 829.022 324.842 829.022 327.722C829.022 330.41 830.941 333.098 834.586 335.21L1069.04 470.762C1069.61 471.146 1069.8 471.914 1069.42 472.49C1069.23 472.49 1068.84 472.682 1068.46 472.682Z" fill="white"/>
<path opacity="0.3" d="M1012.44 371.114C1012.05 371.114 1011.67 370.922 1011.48 370.538C1011.09 369.962 1011.29 369.194 1011.86 368.81L1239.6 237.29C1244.39 234.41 1247.27 230.762 1247.27 226.922C1247.27 223.082 1244.58 219.434 1239.6 216.554L1021.26 90.4099C1010.71 84.2659 993.444 84.2659 982.892 90.4099L934.16 118.634C933.585 119.018 932.817 118.826 932.434 118.25C932.05 117.674 932.242 116.906 932.817 116.522L981.549 88.2979C992.677 81.7699 1011.09 81.7699 1022.22 88.2979L1240.56 214.442C1246.31 217.706 1249.38 222.122 1249.38 226.922C1249.38 231.722 1246.31 236.138 1240.56 239.402L1012.82 370.922C1013.01 371.114 1012.82 371.114 1012.44 371.114Z" fill="white"/>
<path opacity="0.3" d="M470.441 735.146C464.11 735.146 457.971 733.802 453.174 731.114L141.215 550.826C136.418 547.946 133.732 544.298 133.732 540.074C133.732 536.042 136.418 532.202 141.215 529.322L247.695 467.882C257.288 462.314 272.637 462.314 282.23 467.882L359.164 512.234C359.74 512.618 359.932 513.386 359.548 513.962C359.164 514.538 358.397 514.73 357.821 514.346L280.887 469.994C272.061 464.81 257.672 464.81 248.846 469.994L142.366 531.434C138.337 533.738 136.034 536.81 136.034 540.074C136.034 543.338 138.337 546.218 142.366 548.714L454.325 729.002C463.151 734.186 477.54 734.186 486.366 729.002L890.033 495.722C890.609 495.338 891.376 495.53 891.76 496.106C892.143 496.682 891.952 497.45 891.376 497.834L487.709 730.922C482.912 733.802 476.581 735.146 470.441 735.146Z" fill="white"/>
<path opacity="0.3" d="M379.309 526.634C379.117 526.634 378.926 526.634 378.734 526.442L372.594 522.986C372.019 522.602 371.827 521.834 372.211 521.258C372.594 520.682 373.362 520.49 373.937 520.874L380.077 524.33C380.652 524.714 380.844 525.482 380.46 526.058C380.077 526.442 379.693 526.634 379.309 526.634Z" fill="white"/>
<path opacity="0.3" d="M401.373 539.306C401.181 539.306 400.989 539.306 400.797 539.114L393.123 534.698C392.548 534.314 392.356 533.546 392.739 532.97C393.123 532.394 393.891 532.202 394.466 532.586L402.14 537.002C402.716 537.386 402.908 538.154 402.524 538.73C402.14 539.114 401.757 539.306 401.373 539.306Z" fill="white"/>
<path opacity="0.3" d="M494.999 587.882C488.668 587.882 482.528 586.538 477.732 583.85L414.419 547.37C413.844 546.986 413.652 546.218 414.035 545.642C414.419 545.066 415.187 544.874 415.762 545.258L479.075 581.738C487.9 586.922 502.29 586.922 511.115 581.738L776.646 428.33C780.674 426.026 782.977 422.954 782.977 419.69C782.977 416.426 780.674 413.354 776.646 411.05L698.176 365.738C689.35 360.554 674.961 360.554 666.136 365.738L512.458 454.442C502.865 460.01 487.517 460.01 477.924 454.442L263.236 330.41C254.41 325.226 240.021 325.226 231.196 330.41L1.92635 462.89C1.35078 463.274 0.583345 463.082 0.19963 462.506C-0.184084 461.93 0.00777476 461.162 0.583346 460.778L229.853 328.298C239.445 322.73 254.794 322.73 264.387 328.298L478.883 452.522C487.709 457.706 502.098 457.706 510.923 452.522L664.601 363.818C674.194 358.25 689.542 358.25 699.135 363.818L777.605 409.13C782.401 412.01 785.087 415.658 785.087 419.882C785.087 423.914 782.401 427.754 777.605 430.634L512.074 584.042C507.47 586.538 501.33 587.882 494.999 587.882Z" fill="white"/>
<path opacity="0.3" d="M768.779 645.866C768.588 645.866 768.396 645.866 768.204 645.674L701.054 606.89C700.478 606.506 700.286 605.738 700.67 605.162C701.054 604.586 701.821 604.394 702.397 604.778L769.547 643.562C770.122 643.946 770.314 644.714 769.931 645.29C769.739 645.674 769.355 645.866 768.779 645.866Z" fill="white"/>
<path opacity="0.3" d="M585.556 219.626C585.172 219.626 584.788 219.434 584.596 219.05C584.213 218.474 584.405 217.706 584.98 217.322L673.234 166.25C673.81 165.866 674.577 166.058 674.961 166.634C675.345 167.21 675.153 167.978 674.577 168.362L586.323 219.434C585.939 219.434 585.748 219.626 585.556 219.626Z" fill="white"/>
<path opacity="0.3" d="M586.323 242.09H546.609C546.033 242.09 545.458 241.514 545.458 240.938V217.898C545.458 217.514 545.649 217.322 545.841 217.13C546.033 216.938 546.417 216.746 546.609 216.746H586.323C586.899 216.746 587.474 217.322 587.474 217.898V240.938C587.474 241.514 587.091 242.09 586.323 242.09ZM547.76 239.594H585.172V219.05H547.76V239.594Z" fill="white"/>
<path opacity="0.3" d="M1061.94 191.594H1022.22C1021.65 191.594 1021.07 191.018 1021.07 190.442V167.402C1021.07 166.826 1021.65 166.25 1022.22 166.25H1061.94C1062.51 166.25 1063.09 166.826 1063.09 167.402V190.442C1063.09 191.21 1062.51 191.594 1061.94 191.594ZM1023.37 189.29H1060.79V168.746H1023.37V189.29Z" fill="white"/>
<path opacity="0.3" d="M808.686 668.906H768.971C768.396 668.906 767.82 668.33 767.82 667.754V644.714C767.82 644.33 768.012 644.138 768.204 643.946C768.396 643.754 768.779 643.562 768.971 643.562H808.686C809.261 643.562 809.837 644.138 809.837 644.714V667.754C809.837 668.33 809.261 668.906 808.686 668.906ZM770.122 666.41H807.534V645.866H770.122V666.41Z" fill="white"/>
<path opacity="0.3" d="M479.842 681.77C472.168 681.77 464.494 680.042 458.546 676.778C452.599 673.322 449.337 668.714 449.337 663.722C449.337 658.73 452.599 654.122 458.546 650.666C470.25 643.946 489.435 643.946 501.139 650.666C507.086 654.122 510.348 658.73 510.348 663.722C510.348 668.714 507.086 673.322 501.139 676.778C495.383 680.042 487.709 681.77 479.842 681.77ZM479.842 647.978C472.552 647.978 465.261 649.514 459.697 652.778C454.517 655.658 451.639 659.69 451.639 663.722C451.639 667.754 454.517 671.594 459.697 674.666C470.825 681.002 488.86 681.002 499.796 674.666C504.976 671.786 507.854 667.754 507.854 663.722C507.854 659.69 504.976 655.85 499.796 652.778C494.424 649.514 487.133 647.978 479.842 647.978Z" fill="white"/>
<path opacity="0.3" d="M405.594 638.762C397.92 638.762 390.245 637.034 384.298 633.77C378.35 630.314 375.089 625.706 375.089 620.714C375.089 615.722 378.35 611.114 384.298 607.658C396.001 600.938 415.187 600.938 426.89 607.658C432.837 611.114 436.099 615.722 436.099 620.714C436.099 625.706 432.837 630.314 426.89 633.77C420.942 637.034 413.268 638.762 405.594 638.762ZM405.594 604.97C398.303 604.97 391.013 606.506 385.449 609.77C380.269 612.65 377.391 616.682 377.391 620.714C377.391 624.746 380.269 628.586 385.449 631.658C396.577 637.994 414.611 637.994 425.547 631.658C430.727 628.778 433.605 624.746 433.605 620.714C433.605 616.682 430.727 612.842 425.547 609.77C420.175 606.698 412.884 604.97 405.594 604.97Z" fill="white"/>
<path opacity="0.3" d="M331.345 595.946C323.671 595.946 315.996 594.218 310.049 590.954C304.101 587.498 300.84 582.89 300.84 577.898C300.84 572.906 304.101 568.298 310.049 564.842C321.752 558.122 340.938 558.122 352.641 564.842C358.589 568.298 361.85 572.906 361.85 577.898C361.85 582.89 358.589 587.498 352.641 590.954C346.694 594.218 339.019 595.946 331.345 595.946ZM331.153 562.154C323.863 562.154 316.572 563.69 311.008 566.954C305.828 569.834 302.95 573.866 302.95 577.898C302.95 581.93 305.828 585.77 311.008 588.842C322.136 595.178 340.17 595.178 351.106 588.842C356.286 585.962 359.164 581.93 359.164 577.898C359.164 573.866 356.286 570.026 351.106 566.954C345.734 563.69 338.444 562.154 331.153 562.154Z" fill="white"/>
<path opacity="0.3" d="M256.904 552.938C249.23 552.938 241.556 551.21 235.608 547.946C229.661 544.49 226.399 539.882 226.399 534.89C226.399 529.898 229.661 525.29 235.608 521.834C247.312 515.114 266.497 515.114 278.201 521.834C284.148 525.29 287.41 529.898 287.41 534.89C287.41 539.882 284.148 544.49 278.201 547.946C272.253 551.21 264.579 552.938 256.904 552.938ZM256.904 519.146C249.614 519.146 242.323 520.682 236.759 523.946C231.579 526.826 228.701 530.858 228.701 534.89C228.701 538.922 231.579 542.762 236.759 545.834C247.887 552.17 265.922 552.17 276.858 545.834C282.038 542.954 284.916 538.922 284.916 534.89C284.916 530.858 282.038 527.018 276.858 523.946C271.486 520.682 264.195 519.146 256.904 519.146Z" fill="white"/>
<path opacity="0.3" d="M277.625 524.138C277.241 524.138 276.858 523.946 276.666 523.562C276.282 522.986 276.474 522.218 277.05 521.834L325.589 493.802C326.165 493.418 326.932 493.61 327.316 494.186C327.7 494.762 327.508 495.53 326.932 495.914L278.393 523.946C278.009 523.946 277.817 524.138 277.625 524.138Z" fill="white"/>
<path opacity="0.3" d="M544.115 698.282C543.923 698.282 543.731 698.282 543.539 698.09L503.249 674.474C502.674 674.09 502.482 673.322 502.865 672.746C503.249 672.17 504.017 671.978 504.592 672.362L544.882 695.978C545.458 696.362 545.65 697.13 545.266 697.706C544.882 697.898 544.498 698.282 544.115 698.282Z" fill="white"/>
</g>
<path opacity="0.5" d="M1144.63 128.81L1064.43 82.5379C1062.7 81.5779 1062.9 79.8499 1065.01 78.6979L1088.61 65.0659L1175.13 114.986L1151.53 128.618C1149.42 129.77 1146.35 129.962 1144.63 128.81Z" fill="#242993"/>
<path d="M1258.59 65.834V49.898H1232.5L1174.75 16.49C1173.41 15.722 1170.91 15.722 1169.19 16.682L1111.63 49.898H1085.73V66.026C1085.73 66.602 1086.11 66.986 1086.69 67.37L1169.57 115.178C1170.91 115.946 1173.41 115.946 1175.13 114.986L1257.25 67.562C1258.21 66.986 1258.59 66.41 1258.59 65.834Z" fill="url(#paint0_linear)"/>
<path d="M1169.76 99.242L1086.88 51.434C1085.54 50.666 1085.73 49.13 1087.26 48.17L1169.38 0.746005C1171.1 -0.213995 1173.41 -0.213996 1174.94 0.554004L1257.82 48.362C1259.17 49.13 1258.97 50.666 1257.44 51.626L1175.32 98.858C1173.6 99.818 1171.1 100.01 1169.76 99.242Z" fill="url(#paint1_linear)"/>
<path d="M1169.95 93.4822L1096.47 51.0502C1095.13 50.2822 1095.32 49.1302 1096.86 48.1702L1169.57 6.31421C1171.1 5.54621 1173.21 5.35421 1174.56 6.12221L1248.04 48.5542C1249.38 49.3222 1249.19 50.4742 1247.65 51.4342L1174.94 93.4822C1173.41 94.2502 1171.3 94.2502 1169.95 93.4822Z" fill="#242993"/>
<path d="M1170.14 90.0261L1102.61 51.0501C1101.46 50.4741 1101.65 49.1301 1102.99 48.3621L1169.76 9.77006C1171.1 9.00206 1173.02 9.00206 1174.17 9.57806L1241.71 48.5541C1242.86 49.1301 1242.67 50.4741 1241.32 51.2421L1174.56 89.8341C1173.41 90.6021 1171.3 90.6021 1170.14 90.0261Z" fill="#4553C7"/>
<path d="M1170.72 47.21L1162.85 42.602L1167.07 40.106L1174.94 44.714L1170.72 47.21Z" fill="#42FFFF"/>
<path d="M1185.3 46.6342L1177.44 51.2422L1173.21 48.7462L1181.08 44.1382L1185.3 46.6342Z" fill="#42FFFF"/>
<path d="M1168.99 48.3617L1164.58 50.8577L1160.36 48.3617L1164.58 45.8657L1168.99 48.3617Z" fill="#42FFFF"/>
<path d="M1183.77 56.8101L1179.55 59.3061L1167.07 52.2021L1171.49 49.7061L1183.77 56.8101Z" fill="#42FFFF"/>
<path opacity="0.5" d="M227.742 596.906L147.546 550.634C145.819 549.674 146.011 547.946 148.121 546.794L171.72 533.162L258.247 583.082L234.649 596.714C232.539 597.866 229.469 597.866 227.742 596.906Z" fill="#242993"/>
<path d="M341.705 533.738V517.802H315.613L257.864 484.394C256.521 483.626 254.027 483.626 252.3 484.586L194.743 517.802H168.842V533.93C168.842 534.506 169.226 534.89 169.801 535.274L252.684 583.082C254.027 583.85 256.521 583.85 258.247 582.89L340.362 535.466C341.322 535.082 341.705 534.314 341.705 533.738Z" fill="url(#paint2_linear)"/>
<path d="M252.875 567.146L169.993 519.338C168.65 518.57 168.842 517.034 170.377 516.074L252.492 468.65C254.218 467.69 256.521 467.69 258.056 468.458L340.938 516.266C342.281 517.034 342.089 518.57 340.554 519.53L258.439 566.954C256.713 567.914 254.218 567.914 252.875 567.146Z" fill="url(#paint3_linear)"/>
<path d="M253.067 561.578L179.586 519.146C178.243 518.378 178.435 517.226 179.97 516.266L252.684 474.218C254.218 473.45 256.329 473.258 257.672 474.026L331.153 516.458C332.496 517.226 332.304 518.378 330.769 519.338L258.056 561.386C256.521 562.154 254.41 562.346 253.067 561.578Z" fill="#242993"/>
<path d="M253.259 557.93L185.725 518.954C184.574 518.378 184.766 517.034 186.109 516.266L252.875 477.674C254.218 476.906 256.137 476.906 257.288 477.482L324.822 516.458C325.973 517.034 325.781 518.378 324.438 519.146L257.672 557.738C256.521 558.506 254.41 558.698 253.259 557.93Z" fill="#4553C7"/>
<path d="M253.835 515.306L245.969 510.698L250.189 508.202L258.247 512.81L253.835 515.306Z" fill="#42FFFF"/>
<path d="M268.608 514.538L260.55 519.146L256.329 516.65L264.195 512.042L268.608 514.538Z" fill="#42FFFF"/>
<path d="M252.108 516.266L247.695 518.762L243.474 516.266L247.695 513.77L252.108 516.266Z" fill="#42FFFF"/>
<path d="M266.881 524.906L262.66 527.402L250.189 520.298L254.602 517.802L266.881 524.906Z" fill="#42FFFF"/>
<path opacity="0.5" d="M1163.05 428.138L1082.85 381.866C1081.12 380.906 1081.31 379.178 1083.43 378.026L1107.02 364.394L1193.55 414.314L1169.95 427.946C1167.65 429.098 1164.77 429.29 1163.05 428.138Z" fill="#242993"/>
<path d="M1277.01 365.162V349.226H1250.92L1193.17 315.818C1191.82 315.05 1189.33 315.05 1187.6 316.01L1130.05 349.226H1104.15V365.354C1104.15 365.93 1104.53 366.314 1105.11 366.698L1187.99 414.506C1189.33 415.274 1191.82 415.274 1193.55 414.314L1275.67 366.89C1276.43 366.314 1277.01 365.738 1277.01 365.162Z" fill="url(#paint4_linear)"/>
<path d="M1187.99 398.57L1105.11 350.762C1103.76 349.994 1103.95 348.458 1105.49 347.498L1187.6 300.074C1189.33 299.114 1191.63 299.114 1193.17 299.882L1276.05 347.69C1277.39 348.458 1277.2 349.994 1275.67 350.954L1193.55 398.186C1192.02 399.146 1189.52 399.338 1187.99 398.57Z" fill="url(#paint5_linear)"/>
<path d="M1187.99 398.57L1105.11 350.762C1103.76 349.994 1103.95 348.458 1105.49 347.498L1187.6 300.074C1189.33 299.114 1191.63 299.114 1193.17 299.882L1276.05 347.69C1277.39 348.458 1277.2 349.994 1275.67 350.954L1193.55 398.186C1192.02 399.146 1189.52 399.338 1187.99 398.57Z" fill="url(#paint6_linear)"/>
<path d="M1188.37 392.81L1114.89 350.378C1113.55 349.61 1113.74 348.458 1115.27 347.498L1187.99 305.45C1189.52 304.682 1191.63 304.49 1192.98 305.258L1266.46 347.69C1267.8 348.458 1267.61 349.61 1266.07 350.57L1193.36 392.618C1191.82 393.578 1189.52 393.578 1188.37 392.81Z" fill="#242993"/>
<path d="M1188.56 389.354L1121.03 350.378C1119.88 349.802 1120.07 348.458 1121.41 347.69L1188.18 309.098C1189.52 308.33 1191.44 308.33 1192.59 308.906L1260.13 347.882C1261.28 348.458 1261.08 349.802 1259.74 350.57L1192.98 389.162C1191.63 389.93 1189.71 389.93 1188.56 389.354Z" fill="#4553C7"/>
<path d="M1189.14 346.538L1181.27 342.122L1185.49 339.626L1193.36 344.042L1189.14 346.538Z" fill="#42FFFF"/>
<path d="M1203.72 345.962L1195.85 350.57L1191.63 348.074L1199.5 343.466L1203.72 345.962Z" fill="#42FFFF"/>
<path d="M1187.22 347.69L1183 350.186L1178.59 347.69L1183 345.194L1187.22 347.69Z" fill="#42FFFF"/>
<path d="M1202.18 356.138L1197.96 358.634L1185.49 351.53L1189.71 349.034L1202.18 356.138Z" fill="#42FFFF"/>
<path opacity="0.4" d="M1277.01 327.53L1241.71 327.722L1193.17 299.69C1191.82 298.922 1189.33 298.922 1187.6 299.882L1138.3 328.298L1104.15 328.49V349.226C1104.15 349.61 1104.53 349.994 1105.11 350.378L1187.99 398.186C1189.33 398.954 1191.82 398.954 1193.55 397.994L1275.67 350.57C1276.43 350.186 1276.82 349.61 1277.01 349.034V327.53Z" fill="#42FFFF"/>
<path d="M1277.01 329.642V313.706H1250.92L1193.17 280.298C1191.82 279.53 1189.33 279.53 1187.6 280.49L1130.05 313.706H1104.15V329.834C1104.15 330.41 1104.53 330.794 1105.11 331.178L1187.99 378.986C1189.33 379.754 1191.82 379.754 1193.55 378.794L1275.67 331.37C1276.43 330.986 1277.01 330.218 1277.01 329.642Z" fill="url(#paint7_linear)"/>
<path d="M1187.99 363.05L1105.11 315.242C1103.76 314.474 1103.95 312.938 1105.49 311.978L1187.6 264.554C1189.33 263.594 1191.63 263.594 1193.17 264.362L1276.05 312.17C1277.39 312.938 1277.2 314.474 1275.67 315.434L1193.55 362.858C1192.02 363.818 1189.52 363.818 1187.99 363.05Z" fill="url(#paint8_linear)"/>
<path d="M1188.37 357.482L1114.89 315.05C1113.55 314.282 1113.74 313.13 1115.27 312.17L1187.99 270.122C1189.52 269.354 1191.63 269.162 1192.98 269.93L1266.46 312.362C1267.8 313.13 1267.61 314.282 1266.07 315.242L1193.36 357.29C1191.82 358.058 1189.52 358.25 1188.37 357.482Z" fill="#242993"/>
<path d="M1188.56 353.834L1121.03 314.858C1119.88 314.282 1120.07 312.938 1121.41 312.17L1188.18 273.578C1189.52 272.81 1191.44 272.81 1192.59 273.386L1260.13 312.362C1261.28 312.938 1261.08 314.282 1259.74 315.05L1192.98 353.642C1191.63 354.41 1189.71 354.602 1188.56 353.834Z" fill="#4553C7"/>
<path d="M1189.14 311.21L1181.27 306.602L1185.49 304.106L1193.36 308.714L1189.14 311.21Z" fill="#42FFFF"/>
<path d="M1203.72 310.442L1195.85 315.05L1191.63 312.554L1199.5 307.946L1203.72 310.442Z" fill="#42FFFF"/>
<path d="M1187.22 312.17L1183 314.666L1178.59 312.17L1183 309.674L1187.22 312.17Z" fill="#42FFFF"/>
<path d="M1202.18 320.81L1197.96 323.306L1185.49 316.01L1189.71 313.514L1202.18 320.81Z" fill="#42FFFF"/>
<path opacity="0.5" d="M428.041 734.954L347.845 688.682C346.118 687.722 346.31 685.994 348.42 684.842L391.972 659.306L478.499 709.226L434.756 734.57C432.837 735.722 429.768 735.914 428.041 734.954Z" fill="#242993"/>
<path d="M562.149 660.074V643.946H536.057L478.308 610.538C476.965 609.77 474.47 609.77 472.744 610.73L415.187 643.946H389.286V660.074C389.286 660.65 389.67 661.034 390.245 661.418L473.127 709.226C474.47 709.994 476.965 709.994 478.691 709.034L560.806 661.61C561.574 661.226 561.957 660.65 562.149 660.074Z" fill="url(#paint9_linear)"/>
<path d="M473.127 693.29L390.245 645.482C388.902 644.714 389.094 643.178 390.629 642.218L472.744 594.794C474.47 593.834 476.773 593.834 478.308 594.602L561.19 642.41C562.533 643.178 562.341 644.714 560.806 645.674L478.691 693.098C476.965 694.058 474.47 694.25 473.127 693.29Z" fill="url(#paint10_linear)"/>
<path d="M473.127 693.29L390.245 645.482C388.902 644.714 389.094 643.178 390.629 642.218L472.744 594.794C474.47 593.834 476.773 593.834 478.308 594.602L561.19 642.41C562.533 643.178 562.341 644.714 560.806 645.674L478.691 693.098C476.965 694.058 474.47 694.25 473.127 693.29Z" fill="url(#paint11_linear)"/>
<path d="M473.511 687.722L400.03 645.29C398.687 644.522 398.879 643.37 400.414 642.41L473.127 600.362C474.662 599.594 476.773 599.402 478.116 600.17L551.597 642.602C552.94 643.37 552.748 644.522 551.213 645.482L478.499 687.53C476.965 688.298 474.662 688.49 473.511 687.722Z" fill="#242993"/>
<path d="M473.511 684.266L405.977 645.29C404.826 644.714 405.018 643.37 406.361 642.602L473.127 604.01C474.47 603.242 476.389 603.242 477.54 603.818L545.074 642.794C546.225 643.37 546.033 644.714 544.69 645.482L477.924 684.074C476.773 684.842 474.662 684.842 473.511 684.266Z" fill="#4553C7"/>
<path d="M474.087 641.45L466.22 636.842L470.633 634.346L478.499 638.954L474.087 641.45Z" fill="#42FFFF"/>
<path d="M488.86 640.874L480.994 645.29L476.581 642.794L484.447 638.378L488.86 640.874Z" fill="#42FFFF"/>
<path d="M472.36 642.41L467.947 644.906L463.726 642.41L467.947 639.914L472.36 642.41Z" fill="#42FFFF"/>
<path d="M487.325 651.05L482.912 653.546L470.441 646.442L474.854 643.946L487.325 651.05Z" fill="#42FFFF"/>
<path opacity="0.4" d="M562.149 622.442L526.847 622.634L478.308 594.602C476.965 593.834 474.47 593.834 472.744 594.794L423.436 623.21L389.286 623.402V644.138C389.286 644.522 389.67 644.906 390.245 645.29L473.127 693.098C474.47 693.866 476.965 693.866 478.691 692.906L560.806 645.482C561.574 645.098 561.957 644.522 562.149 643.946V622.442Z" fill="#42FFFF"/>
<path d="M562.149 624.554V608.618H536.057L478.308 575.21C476.965 574.442 474.47 574.442 472.744 575.402L415.187 608.618H389.286V624.746C389.286 625.322 389.67 625.706 390.245 626.09L473.127 673.898C474.47 674.666 476.965 674.666 478.691 673.706L560.806 626.282C561.574 625.706 561.957 625.13 562.149 624.554Z" fill="url(#paint12_linear)"/>
<path d="M473.127 657.962L390.245 610.154C388.902 609.386 389.094 607.85 390.629 606.89L472.744 559.466C474.47 558.506 476.773 558.506 478.308 559.274L561.19 607.082C562.533 607.85 562.341 609.386 560.806 610.346L478.691 657.77C476.965 658.538 474.47 658.73 473.127 657.962Z" fill="url(#paint13_linear)"/>
<path d="M473.511 652.394L400.03 609.962C398.687 609.194 398.879 608.042 400.414 607.082L473.127 565.034C474.662 564.266 476.773 564.074 478.116 564.842L551.597 607.274C552.94 608.042 552.748 609.194 551.213 610.154L478.499 652.202C476.965 652.97 474.662 652.97 473.511 652.394Z" fill="#242993"/>
<path d="M473.511 648.746L405.977 609.77C404.826 609.194 405.018 607.85 406.361 607.082L473.127 568.49C474.47 567.722 476.389 567.722 477.54 568.298L545.074 607.274C546.225 607.85 546.033 609.194 544.69 609.962L477.924 648.554C476.773 649.322 474.662 649.322 473.511 648.746Z" fill="#4553C7"/>
<path d="M474.087 605.93L466.22 601.514L470.633 599.018L478.499 603.434L474.087 605.93Z" fill="#42FFFF"/>
<path d="M488.86 605.354L480.994 609.962L476.581 607.466L484.447 602.858L488.86 605.354Z" fill="#42FFFF"/>
<path d="M472.36 607.082L467.947 609.578L463.726 607.082L467.947 604.586L472.36 607.082Z" fill="#42FFFF"/>
<path d="M487.325 615.722L482.912 618.218L470.441 610.922L474.854 608.426L487.325 615.722Z" fill="#42FFFF"/>
<defs>
<linearGradient id="paint0_linear" x1="1221.75" y1="18.4926" x2="1087.03" y2="126.442" gradientUnits="userSpaceOnUse">
<stop stop-color="#BCD5FF"/>
<stop offset="0.151" stop-color="#A3BEFF"/>
<stop offset="0.3866" stop-color="#82A0FF"/>
<stop offset="0.6124" stop-color="#6A8AFF"/>
<stop offset="0.8221" stop-color="#5C7DFF"/>
<stop offset="1" stop-color="#5778FF"/>
</linearGradient>
<linearGradient id="paint1_linear" x1="1247.19" y1="51.4544" x2="1059.89" y2="-7.00318" gradientUnits="userSpaceOnUse">
<stop stop-color="#C0D6FF"/>
<stop offset="0.2978" stop-color="#C5DBFF"/>
<stop offset="0.6488" stop-color="#D3E9FF"/>
<stop offset="1" stop-color="#E9FFFF"/>
</linearGradient>
<linearGradient id="paint2_linear" x1="304.87" y1="486.499" x2="170.151" y2="594.448" gradientUnits="userSpaceOnUse">
<stop stop-color="#BCD5FF"/>
<stop offset="0.151" stop-color="#A3BEFF"/>
<stop offset="0.3866" stop-color="#82A0FF"/>
<stop offset="0.6124" stop-color="#6A8AFF"/>
<stop offset="0.8221" stop-color="#5C7DFF"/>
<stop offset="1" stop-color="#5778FF"/>
</linearGradient>
<linearGradient id="paint3_linear" x1="330.317" y1="519.461" x2="143.011" y2="461.003" gradientUnits="userSpaceOnUse">
<stop stop-color="#C0D6FF"/>
<stop offset="0.2978" stop-color="#C5DBFF"/>
<stop offset="0.6488" stop-color="#D3E9FF"/>
<stop offset="1" stop-color="#E9FFFF"/>
</linearGradient>
<linearGradient id="paint4_linear" x1="1240.11" y1="317.829" x2="1105.39" y2="425.778" gradientUnits="userSpaceOnUse">
<stop stop-color="#BCD5FF"/>
<stop offset="0.151" stop-color="#A3BEFF"/>
<stop offset="0.3866" stop-color="#82A0FF"/>
<stop offset="0.6124" stop-color="#6A8AFF"/>
<stop offset="0.8221" stop-color="#5C7DFF"/>
<stop offset="1" stop-color="#5778FF"/>
</linearGradient>
<linearGradient id="paint5_linear" x1="1265.55" y1="350.791" x2="1078.25" y2="292.333" gradientUnits="userSpaceOnUse">
<stop stop-color="#C0D6FF"/>
<stop offset="0.2978" stop-color="#C5DBFF"/>
<stop offset="0.6488" stop-color="#D3E9FF"/>
<stop offset="1" stop-color="#E9FFFF"/>
</linearGradient>
<linearGradient id="paint6_linear" x1="1265.55" y1="350.791" x2="1078.25" y2="292.333" gradientUnits="userSpaceOnUse">
<stop stop-color="#C0D6FF"/>
<stop offset="0.2978" stop-color="#C5DBFF"/>
<stop offset="0.6488" stop-color="#D3E9FF"/>
<stop offset="1" stop-color="#E9FFFF"/>
</linearGradient>
<linearGradient id="paint7_linear" x1="1240.11" y1="282.379" x2="1105.39" y2="390.329" gradientUnits="userSpaceOnUse">
<stop stop-color="#BCD5FF"/>
<stop offset="0.151" stop-color="#A3BEFF"/>
<stop offset="0.3866" stop-color="#82A0FF"/>
<stop offset="0.6124" stop-color="#6A8AFF"/>
<stop offset="0.8221" stop-color="#5C7DFF"/>
<stop offset="1" stop-color="#5778FF"/>
</linearGradient>
<linearGradient id="paint8_linear" x1="1265.55" y1="315.341" x2="1078.25" y2="256.884" gradientUnits="userSpaceOnUse">
<stop stop-color="#C0D6FF"/>
<stop offset="0.2978" stop-color="#C5DBFF"/>
<stop offset="0.6488" stop-color="#D3E9FF"/>
<stop offset="1" stop-color="#E9FFFF"/>
</linearGradient>
<linearGradient id="paint9_linear" x1="525.165" y1="612.695" x2="390.446" y2="720.645" gradientUnits="userSpaceOnUse">
<stop stop-color="#BCD5FF"/>
<stop offset="0.151" stop-color="#A3BEFF"/>
<stop offset="0.3866" stop-color="#82A0FF"/>
<stop offset="0.6124" stop-color="#6A8AFF"/>
<stop offset="0.8221" stop-color="#5C7DFF"/>
<stop offset="1" stop-color="#5778FF"/>
</linearGradient>
<linearGradient id="paint10_linear" x1="550.611" y1="645.657" x2="363.306" y2="587.2" gradientUnits="userSpaceOnUse">
<stop stop-color="#C0D6FF"/>
<stop offset="0.2978" stop-color="#C5DBFF"/>
<stop offset="0.6488" stop-color="#D3E9FF"/>
<stop offset="1" stop-color="#E9FFFF"/>
</linearGradient>
<linearGradient id="paint11_linear" x1="550.611" y1="645.657" x2="363.306" y2="587.2" gradientUnits="userSpaceOnUse">
<stop stop-color="#C0D6FF"/>
<stop offset="0.2978" stop-color="#C5DBFF"/>
<stop offset="0.6488" stop-color="#D3E9FF"/>
<stop offset="1" stop-color="#E9FFFF"/>
</linearGradient>
<linearGradient id="paint12_linear" x1="525.165" y1="577.246" x2="390.446" y2="685.195" gradientUnits="userSpaceOnUse">
<stop stop-color="#BCD5FF"/>
<stop offset="0.151" stop-color="#A3BEFF"/>
<stop offset="0.3866" stop-color="#82A0FF"/>
<stop offset="0.6124" stop-color="#6A8AFF"/>
<stop offset="0.8221" stop-color="#5C7DFF"/>
<stop offset="1" stop-color="#5778FF"/>
</linearGradient>
<linearGradient id="paint13_linear" x1="550.611" y1="610.207" x2="363.306" y2="551.75" gradientUnits="userSpaceOnUse">
<stop stop-color="#C0D6FF"/>
<stop offset="0.2978" stop-color="#C5DBFF"/>
<stop offset="0.6488" stop-color="#D3E9FF"/>
<stop offset="1" stop-color="#E9FFFF"/>
</linearGradient>
</defs>
</svg>
