<svg width="120" height="122" viewBox="0 0 120 122" fill="none" xmlns="http://www.w3.org/2000/svg">
<title>[Icon] 3. Poc Rails app connected to blockchain</title>
  <path d="M59.339 39.8434L42.1342 45.4493C41.8347 45.5465 41.5756 45.7396 41.3968 45.9987C41.2181 46.2578 41.1295 46.5686 41.1449 46.883V54.8833C41.2059 58.9339 42.1738 62.9194 43.9776 66.5468C45.7814 70.1742 48.3751 73.3513 51.5682 75.8445L59.0379 80.9056C59.3097 81.0859 59.6293 81.1808 59.9555 81.178C60.2882 81.1804 60.6136 81.0802 60.8874 80.8912L68.2425 75.7728C71.3876 73.2685 73.9337 70.0934 75.6948 66.4793C77.4559 62.8653 78.3877 58.9035 78.422 54.8833V46.8114C78.4374 46.4969 78.3488 46.1862 78.1701 45.927C77.9913 45.6679 77.7321 45.4748 77.4327 45.3776L60.2279 39.7717C59.9315 39.7005 59.6201 39.7256 59.339 39.8434ZM75.5545 54.8833C75.5311 58.4664 74.708 61.9991 73.1453 65.2237C71.5827 68.4482 69.3199 71.2832 66.522 73.5218L59.9412 78.0954L53.26 73.5792C50.4213 71.3503 48.1175 68.5143 46.5173 65.2793C44.9171 62.0442 44.0613 58.4921 44.0124 54.8833V47.858L59.7834 42.7109L75.5545 47.858V54.8833Z" fill="white"/>
<path d="M54.6358 57.5074L52.0837 60.0738L58.9943 66.9988L69.4749 56.5182L66.9086 53.9518L58.9943 61.866L54.6358 57.5074Z" fill="white"/>
<path d="M41.6446 31.3003H57.5887C58.0185 31.2996 58.4436 31.2107 58.8377 31.039C59.2318 30.8674 59.5865 30.6168 59.8798 30.3026C60.1732 29.9884 60.3989 29.6173 60.5431 29.2124C60.6872 28.8074 60.7468 28.3772 60.718 27.9484L60.7169 27.9316V27.9149V23.1979C60.7169 22.685 60.9206 22.1932 61.2833 21.8305C61.6459 21.4679 62.1378 21.2642 62.6506 21.2642C63.1635 21.2642 63.6553 21.4679 64.018 21.8306C64.3806 22.1932 64.5844 22.685 64.5844 23.1979V27.9046C64.6224 28.8434 64.4706 29.7802 64.1378 30.659C63.8039 31.5411 63.2946 32.3464 62.6408 33.0262C61.9869 33.706 61.2021 34.2463 60.3337 34.6144C59.4656 34.9823 58.532 35.1705 57.5893 35.1678H57.5895V34.6678L57.588 35.1678L41.6446 31.3003ZM41.6446 31.3003V19.3967H51.1807C51.6936 19.3967 52.1855 19.193 52.5481 18.8303C52.9108 18.4677 53.1145 17.9758 53.1145 17.463C53.1145 16.9501 52.9108 16.4583 52.5481 16.0956C52.1855 15.733 51.6936 15.5292 51.1807 15.5292H41.6446V9.31936V9.31842C41.6406 7.16437 40.7831 5.09971 39.2599 3.57656C37.7368 2.05341 35.6721 1.19593 33.5181 1.19189H33.5171L8.62752 1.19189L8.62658 1.1919C6.47253 1.19593 4.40786 2.05341 2.88471 3.57656C1.36157 5.09971 0.504088 7.16437 0.500049 9.31842V9.31936V34.2081C0.492838 36.2825 1.28053 38.281 2.70124 39.7926C4.01395 41.1893 5.77494 42.0724 7.66872 42.2943V58.4365C7.60906 59.3353 7.73916 60.2366 8.05064 61.082C8.36414 61.9328 8.85429 62.7076 9.48882 63.3553C10.1233 64.0031 10.8879 64.5091 11.7321 64.8401C12.5724 65.1695 13.4727 65.3181 14.3743 65.2762H19.6386C20.1515 65.2762 20.6433 65.0725 21.006 64.7098C21.3686 64.3472 21.5723 63.8553 21.5723 63.3425C21.5723 62.8296 21.3686 62.3378 21.006 61.9751C20.6433 61.6125 20.1515 61.4087 19.6386 61.4087H14.3625H14.3392L14.3161 61.4109C13.9321 61.4466 13.545 61.3954 13.1835 61.2611C12.822 61.1267 12.4954 60.9127 12.228 60.6348C11.9605 60.357 11.759 60.0225 11.6385 59.6562C11.518 59.2898 11.4816 58.901 11.5319 58.5187L11.5362 58.4862V58.4534V42.3365H23.4398V51.8726C23.4398 52.3854 23.6435 52.8773 24.0062 53.2399C24.3688 53.6026 24.8607 53.8063 25.3735 53.8063C25.8864 53.8063 26.3782 53.6026 26.7409 53.2399C27.1035 52.8773 27.3073 52.3854 27.3073 51.8726V42.3365L33.5154 42.3364C33.5157 42.3364 33.5161 42.3365 33.5164 42.3365L41.6446 31.3003ZM41.6024 35.1678C41.6207 35.0117 41.6345 34.8547 41.6438 34.697L41.1446 34.6678V35.1678H41.6024ZM4.36752 34.2082V9.32016C4.37109 8.19124 4.82113 7.10956 5.61942 6.31127C6.41771 5.51298 7.49939 5.06293 8.62832 5.05936H33.5163C34.6453 5.06293 35.727 5.51298 36.5252 6.31127C37.3234 7.10943 37.7734 8.19091 37.7771 9.31965C37.7771 9.32005 37.7771 9.32046 37.7771 9.32086V34.2075C37.7771 34.2079 37.7771 34.2083 37.7771 34.2087C37.7734 35.3374 37.3234 36.4189 36.5252 37.2171C35.7271 38.0153 34.6456 38.4653 33.5169 38.469C33.5165 38.469 33.516 38.469 33.5156 38.469H8.62901C8.62861 38.469 8.6282 38.469 8.6278 38.469C7.49906 38.4653 6.41759 38.0153 5.61942 37.2171C4.82113 36.4188 4.37109 35.3371 4.36752 34.2082Z" fill="white" stroke="white"/>
<path d="M110.939 1.19194H110.938H86.0497C83.9753 1.18473 81.9768 1.97242 80.4652 3.39313C79.0685 4.70585 78.1854 6.46684 77.9635 8.36061H61.9517C61.0452 8.29543 60.135 8.42085 59.2798 8.72888C58.4187 9.03906 57.6326 9.52744 56.973 10.1621C56.3135 10.7968 55.7952 11.5634 55.4521 12.412C55.1102 13.2578 54.9499 14.1659 54.9816 15.0776V20.3305C54.9816 20.8433 55.1853 21.3352 55.548 21.6978C55.9106 22.0605 56.4025 22.2642 56.9153 22.2642C57.4282 22.2642 57.92 22.0605 58.2827 21.6978C58.6453 21.3352 58.8491 20.8433 58.8491 20.3305V15.0687V15.0556L58.8484 15.0425C58.8277 14.649 58.8936 14.2558 59.0412 13.8905C59.1888 13.5253 59.4147 13.1967 59.7029 12.9281C59.9912 12.6595 60.3348 12.4573 60.7095 12.3357C61.0843 12.2141 61.4811 12.1761 61.8722 12.2243L61.9027 12.2281H61.9334H77.9213V24.1317H68.3852C67.8724 24.1317 67.3805 24.3354 67.0178 24.6981C66.6552 25.0607 66.4515 25.5526 66.4515 26.0654C66.4515 26.5783 66.6552 27.0701 67.0179 27.4328C67.3805 27.7954 67.8724 27.9992 68.3852 27.9992H77.9213V34.2083C77.9142 36.2827 78.7019 38.2811 80.1225 39.7926C81.4353 41.1894 83.1962 42.0724 85.09 42.2943V58.6112C85.09 60.5586 85.836 62.2359 87.1324 63.4228C88.4255 64.6067 90.2363 65.2762 92.3286 65.2762H97.0599C97.5728 65.2762 98.0646 65.0725 98.4272 64.7099C98.7899 64.3472 98.9936 63.8554 98.9936 63.3425C98.9936 62.8297 98.7899 62.3378 98.4272 61.9752C98.0646 61.6125 97.5728 61.4088 97.0599 61.4088H92.3286C91.5087 61.4088 90.6503 61.2086 90.0123 60.7638C89.3974 60.3351 88.9575 59.6621 88.9575 58.6112V42.3365H100.861V51.8726C100.861 52.3855 101.065 52.8773 101.427 53.24C101.79 53.6026 102.282 53.8064 102.795 53.8064C103.308 53.8064 103.8 53.6026 104.162 53.24C104.525 52.8773 104.729 52.3855 104.729 51.8726V42.3365H110.938H110.939C113.093 42.3325 115.158 41.475 116.681 39.9518C118.204 38.4287 119.062 36.364 119.066 34.21V34.209V9.31941V9.31847C119.062 7.16442 118.204 5.09975 116.681 3.57661C115.158 2.05346 113.093 1.19598 110.939 1.19194ZM115.198 34.2087C115.195 35.3375 114.745 36.419 113.947 37.2171C113.148 38.0153 112.067 38.4653 110.938 38.469C110.938 38.469 110.937 38.469 110.937 38.469H86.0503C86.0499 38.469 86.0495 38.469 86.0491 38.469C84.9204 38.4653 83.8389 38.0153 83.0407 37.2171C82.2424 36.4188 81.7924 35.3371 81.7888 34.2082C81.7888 34.208 81.7888 34.2077 81.7888 34.2075V9.32091C81.7888 9.3207 81.7888 9.32049 81.7888 9.32029C81.7924 8.19133 82.2424 7.10962 83.0407 6.31132C83.839 5.51303 84.9207 5.06298 86.0496 5.05941H110.938C112.067 5.06298 113.148 5.51303 113.947 6.31132C114.745 7.10948 115.195 8.19096 115.198 9.3197C115.198 9.3201 115.198 9.32051 115.198 9.32091V34.2075C115.198 34.2079 115.198 34.2083 115.198 34.2087Z" fill="white" stroke="white"/>
<path d="M61.9538 89.6497H77.9216V101.553H68.3855C67.8726 101.553 67.3808 101.757 67.0181 102.12C66.6555 102.482 66.4517 102.974 66.4517 103.487C66.4517 104 66.6555 104.492 67.0181 104.854C67.3808 105.217 67.8726 105.421 68.3855 105.421H77.9216V113.064V113.065C77.9257 115.219 78.7831 117.284 80.3063 118.807C81.8294 120.33 83.8941 121.188 86.0481 121.192H86.0491H110.939H110.94C113.094 121.188 115.158 120.33 116.682 118.807C118.205 117.284 119.062 115.219 119.066 113.065V113.064L119.066 88.1765C119.066 88.1762 119.066 88.1758 119.066 88.1755C119.073 86.1011 118.286 84.1027 116.865 82.5911C115.552 81.1944 113.791 80.3113 111.898 80.0894V62.9738C111.964 62.0518 111.843 61.1257 111.54 60.2522C111.235 59.3725 110.753 58.5648 110.124 57.8788C109.494 57.1929 108.731 56.6433 107.881 56.264C107.03 55.8848 106.111 55.6839 105.181 55.6738V55.6738H105.175H99.9276C99.4148 55.6738 98.9229 55.8775 98.5603 56.2402C98.1976 56.6028 97.9939 57.0947 97.9939 57.6075C97.9939 58.1204 98.1976 58.6122 98.5603 58.9749C98.9229 59.3375 99.4148 59.5413 99.9276 59.5413H105.175C106.175 59.5413 106.867 59.9552 107.323 60.5662C107.792 61.1944 108.03 62.06 108.03 62.9554V80.0473H96.1264V69.0774C96.1264 68.5645 95.9227 68.0727 95.5601 67.71C95.1974 67.3474 94.7055 67.1437 94.1927 67.1437C93.6798 67.1437 93.188 67.3474 92.8253 67.71C92.4627 68.0727 92.259 68.5645 92.259 69.0774V80.0473L86.0491 80.0473L86.0478 80.0473C84.2468 80.0519 82.4984 80.6546 81.0771 81.7606C79.7588 82.7866 78.7912 84.1917 78.3013 85.7822H61.9337H61.9249L61.9162 85.7825C60.9602 85.8159 60.0205 86.0396 59.152 86.4405C58.2835 86.8414 57.5036 87.4115 56.858 88.1173C56.2124 88.8232 55.714 89.6507 55.392 90.5514C55.0715 91.4478 54.9322 92.3989 54.9819 93.3495V97.7521C54.9819 98.2649 55.1856 98.7568 55.5482 99.1194C55.9109 99.4821 56.4027 99.6858 56.9156 99.6858C57.4285 99.6858 57.9203 99.4821 58.283 99.1194C58.6456 98.7568 58.8493 98.2649 58.8493 97.7521V93.3362V93.317L58.8479 93.2979C58.7789 92.3997 59.0692 91.5108 59.6551 90.8265C60.2369 90.147 61.0629 89.7243 61.9538 89.6497ZM115.199 113.021L115.199 113.024C115.202 113.587 115.094 114.144 114.882 114.665C114.669 115.186 114.356 115.659 113.96 116.059C113.565 116.458 113.094 116.776 112.575 116.993C112.057 117.21 111.5 117.323 110.938 117.324C110.938 117.324 110.938 117.324 110.937 117.324H86.0506C86.0502 117.324 86.0498 117.324 86.0494 117.324C84.9206 117.321 83.8392 116.871 83.041 116.072C82.2427 115.274 81.7926 114.192 81.7891 113.063C81.7891 113.063 81.7891 113.063 81.7891 113.063V88.1762C81.7891 88.176 81.7891 88.1758 81.7891 88.1756C81.7926 87.0467 82.2427 85.965 83.041 85.1666C83.8393 84.3683 84.921 83.9183 86.05 83.9147C86.0502 83.9147 86.0504 83.9147 86.0506 83.9147H110.937C110.937 83.9147 110.938 83.9147 110.938 83.9147C112.067 83.9183 113.148 84.3683 113.947 85.1666C114.745 85.9648 115.195 87.0463 115.199 88.175C115.199 88.1754 115.199 88.1758 115.199 88.1762L115.199 113.021Z" fill="white" stroke="white"/>
<path d="M30.6084 62.7978V80.0474H18.7048V69.0776C18.7048 68.5647 18.5011 68.0728 18.1384 67.7102C17.7758 67.3475 17.2839 67.1438 16.7711 67.1438C16.2582 67.1438 15.7664 67.3475 15.4037 67.7102C15.0411 68.0728 14.8373 68.5647 14.8373 69.0776V80.0474H8.62747H8.62653C6.47248 80.0515 4.40781 80.909 2.88467 82.4321C1.36152 83.9552 0.504038 86.0199 0.5 88.174V88.1749L0.499999 113.065L0.500001 113.065C0.504038 115.22 1.36152 117.284 2.88467 118.807C4.40781 120.33 6.47248 121.188 8.62653 121.192H8.62747H33.5153C35.5901 121.199 37.5888 120.412 39.1007 118.991C40.4974 117.678 41.3805 115.917 41.6024 114.023H57.5895C61.9761 114.023 64.5843 109.879 64.5843 106.183V100.62C64.5843 100.107 64.3806 99.615 64.0179 99.2524C63.6553 98.8897 63.1634 98.686 62.6506 98.686C62.1377 98.686 61.6459 98.8897 61.2832 99.2524C60.9206 99.615 60.7168 100.107 60.7168 100.62V106.183C60.7168 107.163 60.3902 108.175 59.8251 108.932C59.2637 109.684 58.4935 110.156 57.5895 110.156H41.6446V98.2522H51.1807C51.6936 98.2522 52.1854 98.0485 52.5481 97.6859C52.9107 97.3232 53.1144 96.8314 53.1144 96.3185C53.1144 95.8057 52.9107 95.3138 52.5481 94.9511C52.1854 94.5885 51.6936 94.3848 51.1807 94.3848H41.6446L41.6446 88.1767C41.6446 88.1763 41.6446 88.176 41.6446 88.1756C41.6517 86.1012 40.864 84.1029 39.4434 82.5913C38.1307 81.1946 36.3697 80.3115 34.4759 80.0896V62.7979C34.4759 62.7979 34.4759 62.7978 34.4759 62.7978C34.4761 61.8492 34.2868 60.9101 33.9193 60.0356L33.4583 60.2294L33.9193 60.0356C33.5516 59.1611 33.0131 58.3688 32.3351 57.7053C31.6572 57.0417 30.8536 56.5202 29.9714 56.1714C29.0909 55.8233 28.1499 55.6542 27.2034 55.6739H22.506C21.9932 55.6739 21.5013 55.8777 21.1387 56.2403C20.776 56.603 20.5723 57.0948 20.5723 57.6077C20.5723 58.1205 20.776 58.6124 21.1387 58.975C21.5013 59.3377 21.9932 59.5414 22.506 59.5414H27.2087H27.2192L27.2297 59.541C27.6679 59.5225 28.1052 59.5931 28.5153 59.7485C28.9254 59.9039 29.2997 60.1409 29.6156 60.4451C29.9314 60.7494 30.1823 61.1145 30.3529 61.5185C30.5236 61.9225 30.6105 62.3569 30.6084 62.7954V62.7978ZM37.7771 113.064C37.7734 114.193 37.3234 115.274 36.5252 116.073C35.727 116.871 34.6455 117.321 33.5168 117.325C33.5164 117.325 33.516 117.325 33.5156 117.325H8.62896C8.62856 117.325 8.62815 117.325 8.62775 117.325C7.49901 117.321 6.41754 116.871 5.61937 116.073C4.82108 115.274 4.37104 114.193 4.36747 113.064V88.1757C4.37104 87.0468 4.82108 85.9651 5.61937 85.1668C6.41768 84.3685 7.49939 83.9184 8.62834 83.9149C8.62855 83.9149 8.62876 83.9149 8.62896 83.9149H33.5156C33.5158 83.9149 33.516 83.9149 33.5162 83.9149C34.6452 83.9184 35.7269 84.3685 36.5252 85.1668C37.3234 85.965 37.7734 87.0464 37.7771 88.1752C37.7771 88.1756 37.7771 88.176 37.7771 88.1764V113.063C37.7771 113.063 37.7771 113.064 37.7771 113.064Z" fill="white" stroke="white"/>
</svg>
