<svg width="622" height="457" viewBox="0 0 622 457" fill="none" xmlns="http://www.w3.org/2000/svg">
  <title>Crypto API Icons</title>
  <path d="M219 110L170.213 46H-9.53674e-07" stroke="white"/>
  <path
    d="M16.95 13.74C16.17 12.9 15.41 12.34 14.67 12.06C13.95 11.78 13.22 11.64 12.48 11.64C11.38 11.64 10.38 11.84 9.48 12.24C8.6 12.62 7.84 13.16 7.2 13.86C6.56 14.54 6.06 15.34 5.7 16.26C5.36 17.18 5.19 18.17 5.19 19.23C5.19 20.37 5.36 21.42 5.7 22.38C6.06 23.34 6.56 24.17 7.2 24.87C7.84 25.57 8.6 26.12 9.48 26.52C10.38 26.92 11.38 27.12 12.48 27.12C13.34 27.12 14.17 26.92 14.97 26.52C15.79 26.1 16.55 25.44 17.25 24.54L20.37 26.76C19.41 28.08 18.24 29.04 16.86 29.64C15.48 30.24 14.01 30.54 12.45 30.54C10.81 30.54 9.3 30.28 7.92 29.76C6.56 29.22 5.38 28.47 4.38 27.51C3.4 26.53 2.63 25.36 2.07 24C1.51 22.64 1.23 21.13 1.23 19.47C1.23 17.77 1.51 16.23 2.07 14.85C2.63 13.45 3.4 12.26 4.38 11.28C5.38 10.3 6.56 9.55 7.92 9.03C9.3 8.49 10.81 8.22 12.45 8.22C13.89 8.22 15.22 8.48 16.44 9C17.68 9.5 18.83 10.36 19.89 11.58L16.95 13.74ZM22.5771 15.6H26.1771V17.88H26.2371C26.6371 17.04 27.2071 16.39 27.9471 15.93C28.6871 15.47 29.5371 15.24 30.4971 15.24C30.7171 15.24 30.9271 15.26 31.1271 15.3C31.3471 15.34 31.5671 15.39 31.7871 15.45V18.93C31.4871 18.85 31.1871 18.79 30.8871 18.75C30.6071 18.69 30.3271 18.66 30.0471 18.66C29.2071 18.66 28.5271 18.82 28.0071 19.14C27.5071 19.44 27.1171 19.79 26.8371 20.19C26.5771 20.59 26.3971 20.99 26.2971 21.39C26.2171 21.79 26.1771 22.09 26.1771 22.29V30H22.5771V15.6ZM32.2873 15.6H36.2473L40.2673 25.59H40.3273L43.9273 15.6H47.6773L40.8673 33.09C40.6073 33.77 40.3173 34.36 39.9973 34.86C39.6973 35.38 39.3373 35.81 38.9173 36.15C38.4973 36.51 37.9973 36.77 37.4173 36.93C36.8573 37.11 36.1773 37.2 35.3773 37.2C34.4373 37.2 33.5173 37.08 32.6173 36.84L33.0673 33.6C33.3473 33.7 33.6373 33.78 33.9373 33.84C34.2573 33.92 34.5773 33.96 34.8973 33.96C35.3373 33.96 35.7073 33.92 36.0073 33.84C36.3073 33.76 36.5573 33.63 36.7573 33.45C36.9773 33.29 37.1573 33.07 37.2973 32.79C37.4373 32.53 37.5873 32.21 37.7473 31.83L38.4373 30.12L32.2873 15.6ZM49.7939 15.6H53.2139V17.76H53.2739C53.7939 16.88 54.4939 16.24 55.3739 15.84C56.2539 15.44 57.2039 15.24 58.2239 15.24C59.3239 15.24 60.3139 15.44 61.1939 15.84C62.0739 16.22 62.8239 16.75 63.4439 17.43C64.0639 18.11 64.5339 18.91 64.8539 19.83C65.1739 20.75 65.3339 21.74 65.3339 22.8C65.3339 23.86 65.1639 24.85 64.8239 25.77C64.4839 26.69 64.0039 27.49 63.3839 28.17C62.7839 28.85 62.0539 29.39 61.1939 29.79C60.3339 30.17 59.3939 30.36 58.3739 30.36C57.6939 30.36 57.0939 30.29 56.5739 30.15C56.0539 30.01 55.5939 29.83 55.1939 29.61C54.7939 29.39 54.4539 29.16 54.1739 28.92C53.8939 28.66 53.6639 28.41 53.4839 28.17H53.3939V36.84H49.7939V15.6ZM61.7339 22.8C61.7339 22.24 61.6339 21.7 61.4339 21.18C61.2539 20.66 60.9739 20.2 60.5939 19.8C60.2339 19.4 59.7939 19.08 59.2739 18.84C58.7539 18.6 58.1639 18.48 57.5039 18.48C56.8439 18.48 56.2539 18.6 55.7339 18.84C55.2139 19.08 54.7639 19.4 54.3839 19.8C54.0239 20.2 53.7439 20.66 53.5439 21.18C53.3639 21.7 53.2739 22.24 53.2739 22.8C53.2739 23.36 53.3639 23.9 53.5439 24.42C53.7439 24.94 54.0239 25.4 54.3839 25.8C54.7639 26.2 55.2139 26.52 55.7339 26.76C56.2539 27 56.8439 27.12 57.5039 27.12C58.1639 27.12 58.7539 27 59.2739 26.76C59.7939 26.52 60.2339 26.2 60.5939 25.8C60.9739 25.4 61.2539 24.94 61.4339 24.42C61.6339 23.9 61.7339 23.36 61.7339 22.8ZM67.0104 18.66V15.6H69.9804V11.43H73.5804V15.6H77.5404V18.66H73.5804V24.96C73.5804 25.68 73.7104 26.25 73.9704 26.67C74.2504 27.09 74.7904 27.3 75.5904 27.3C75.9104 27.3 76.2604 27.27 76.6404 27.21C77.0204 27.13 77.3204 27.01 77.5404 26.85V29.88C77.1604 30.06 76.6904 30.18 76.1304 30.24C75.5904 30.32 75.1104 30.36 74.6904 30.36C73.7304 30.36 72.9404 30.25 72.3204 30.03C71.7204 29.83 71.2404 29.52 70.8804 29.1C70.5404 28.66 70.3004 28.12 70.1604 27.48C70.0404 26.84 69.9804 26.1 69.9804 25.26V18.66H67.0104ZM79.6305 22.8C79.6305 21.66 79.8305 20.63 80.2305 19.71C80.6505 18.77 81.2105 17.97 81.9105 17.31C82.6105 16.65 83.4405 16.14 84.4005 15.78C85.3605 15.42 86.3805 15.24 87.4605 15.24C88.5405 15.24 89.5605 15.42 90.5205 15.78C91.4805 16.14 92.3105 16.65 93.0105 17.31C93.7105 17.97 94.2605 18.77 94.6605 19.71C95.0805 20.63 95.2905 21.66 95.2905 22.8C95.2905 23.94 95.0805 24.98 94.6605 25.92C94.2605 26.84 93.7105 27.63 93.0105 28.29C92.3105 28.95 91.4805 29.46 90.5205 29.82C89.5605 30.18 88.5405 30.36 87.4605 30.36C86.3805 30.36 85.3605 30.18 84.4005 29.82C83.4405 29.46 82.6105 28.95 81.9105 28.29C81.2105 27.63 80.6505 26.84 80.2305 25.92C79.8305 24.98 79.6305 23.94 79.6305 22.8ZM83.2305 22.8C83.2305 23.36 83.3205 23.9 83.5005 24.42C83.7005 24.94 83.9805 25.4 84.3405 25.8C84.7205 26.2 85.1705 26.52 85.6905 26.76C86.2105 27 86.8005 27.12 87.4605 27.12C88.1205 27.12 88.7105 27 89.2305 26.76C89.7505 26.52 90.1905 26.2 90.5505 25.8C90.9305 25.4 91.2105 24.94 91.3905 24.42C91.5905 23.9 91.6905 23.36 91.6905 22.8C91.6905 22.24 91.5905 21.7 91.3905 21.18C91.2105 20.66 90.9305 20.2 90.5505 19.8C90.1905 19.4 89.7505 19.08 89.2305 18.84C88.7105 18.6 88.1205 18.48 87.4605 18.48C86.8005 18.48 86.2105 18.6 85.6905 18.84C85.1705 19.08 84.7205 19.4 84.3405 19.8C83.9805 20.2 83.7005 20.66 83.5005 21.18C83.3205 21.7 83.2305 22.24 83.2305 22.8ZM114.738 8.76H118.008L127.158 30H122.838L120.858 25.14H111.648L109.728 30H105.498L114.738 8.76ZM119.538 21.9L116.268 13.26L112.938 21.9H119.538ZM129.518 8.76H136.658C137.678 8.76 138.658 8.86 139.598 9.06C140.558 9.26 141.398 9.6 142.118 10.08C142.838 10.54 143.408 11.17 143.828 11.97C144.268 12.75 144.488 13.73 144.488 14.91C144.488 16.25 144.258 17.33 143.798 18.15C143.338 18.97 142.718 19.61 141.938 20.07C141.158 20.51 140.248 20.81 139.208 20.97C138.188 21.13 137.118 21.21 135.998 21.21H133.298V30H129.518V8.76ZM135.578 17.97C136.118 17.97 136.678 17.95 137.258 17.91C137.838 17.87 138.368 17.75 138.848 17.55C139.348 17.35 139.748 17.05 140.048 16.65C140.368 16.25 140.528 15.69 140.528 14.97C140.528 14.31 140.388 13.79 140.108 13.41C139.828 13.01 139.468 12.71 139.028 12.51C138.588 12.29 138.098 12.15 137.558 12.09C137.018 12.03 136.498 12 135.998 12H133.298V17.97H135.578ZM147.768 8.76H151.548V30H147.768V8.76Z"
    fill="white"/>
  <path
    d="M376.991 312.065C374.767 312.065 372.657 312.179 370.49 312.407L362.222 298.141L342.321 304.646L344.032 321.025C340.269 323.25 336.79 325.761 333.54 328.671L318.486 321.995L306.17 338.943L317.175 351.213C315.464 355.15 314.096 359.259 313.183 363.596L297.103 367.077V388.021L313.183 391.445C314.096 395.725 315.464 399.89 317.232 403.828L306.227 416.097L318.543 433.046L333.597 426.369C336.847 429.28 340.326 431.79 344.089 434.016L342.436 450.394L362.336 456.843L370.547 442.576C372.714 442.804 374.881 442.861 377.048 442.861C379.271 442.861 381.381 442.747 383.548 442.519L391.816 456.786L411.717 450.28L410.006 433.902C413.77 431.676 417.248 429.108 420.498 426.255L435.552 432.932L447.869 415.983L436.863 403.714C438.574 399.776 439.943 395.667 440.855 391.33L456.935 387.849V366.906L440.798 363.482C439.886 359.202 438.517 355.036 436.806 351.099L447.812 338.829L435.495 321.881L420.441 328.557C417.191 325.704 413.713 323.136 409.949 320.91L411.603 304.532L391.759 298.141L383.491 312.407C381.381 312.179 379.214 312.065 376.991 312.065ZM434.982 377.463C434.982 409.478 409.094 435.443 377.105 435.443C345.116 435.443 319.171 409.535 319.171 377.52C319.171 345.506 345.058 319.541 377.048 319.541C408.98 319.484 434.925 345.449 434.982 377.463Z"
    fill="#00ACFF"/>
  <path
    d="M338.133 366.84H343.653C344.186 366.84 344.713 366.907 345.233 367.04C345.753 367.16 346.213 367.367 346.613 367.66C347.026 367.94 347.359 368.307 347.613 368.76C347.866 369.213 347.993 369.76 347.993 370.4C347.993 371.2 347.766 371.86 347.313 372.38C346.859 372.9 346.266 373.273 345.533 373.5V373.54C345.973 373.593 346.379 373.72 346.753 373.92C347.139 374.107 347.466 374.353 347.733 374.66C347.999 374.953 348.206 375.3 348.353 375.7C348.513 376.087 348.593 376.507 348.593 376.96C348.593 377.733 348.439 378.38 348.133 378.9C347.826 379.407 347.419 379.82 346.913 380.14C346.419 380.447 345.846 380.667 345.193 380.8C344.553 380.933 343.899 381 343.233 381H338.133V366.84ZM340.653 372.6H342.953C343.793 372.6 344.419 372.44 344.833 372.12C345.259 371.787 345.473 371.353 345.473 370.82C345.473 370.207 345.253 369.753 344.813 369.46C344.386 369.153 343.693 369 342.733 369H340.653V372.6ZM340.653 378.84H342.973C343.293 378.84 343.633 378.82 343.993 378.78C344.366 378.74 344.706 378.647 345.013 378.5C345.319 378.353 345.573 378.147 345.773 377.88C345.973 377.6 346.073 377.227 346.073 376.76C346.073 376.013 345.826 375.493 345.333 375.2C344.853 374.907 344.099 374.76 343.073 374.76H340.653V378.84ZM356.881 379.68H356.821C356.475 380.227 356.035 380.627 355.501 380.88C354.968 381.12 354.381 381.24 353.741 381.24C353.301 381.24 352.868 381.18 352.441 381.06C352.028 380.94 351.655 380.76 351.321 380.52C351.001 380.28 350.741 379.98 350.541 379.62C350.341 379.26 350.241 378.84 350.241 378.36C350.241 377.84 350.335 377.4 350.521 377.04C350.708 376.667 350.955 376.36 351.261 376.12C351.581 375.867 351.948 375.667 352.361 375.52C352.775 375.373 353.201 375.267 353.641 375.2C354.095 375.12 354.548 375.073 355.001 375.06C355.455 375.033 355.881 375.02 356.281 375.02H356.881V374.76C356.881 374.16 356.675 373.713 356.261 373.42C355.848 373.113 355.321 372.96 354.681 372.96C354.175 372.96 353.701 373.053 353.261 373.24C352.821 373.413 352.441 373.653 352.121 373.96L350.861 372.7C351.395 372.153 352.015 371.76 352.721 371.52C353.441 371.28 354.181 371.16 354.941 371.16C355.621 371.16 356.195 371.24 356.661 371.4C357.128 371.547 357.515 371.74 357.821 371.98C358.128 372.22 358.361 372.5 358.521 372.82C358.695 373.127 358.815 373.44 358.881 373.76C358.961 374.08 359.008 374.393 359.021 374.7C359.035 374.993 359.041 375.253 359.041 375.48V381H356.881V379.68ZM356.741 376.7H356.241C355.908 376.7 355.535 376.713 355.121 376.74C354.708 376.767 354.315 376.833 353.941 376.94C353.581 377.033 353.275 377.18 353.021 377.38C352.768 377.567 352.641 377.833 352.641 378.18C352.641 378.407 352.688 378.6 352.781 378.76C352.888 378.907 353.021 379.033 353.181 379.14C353.341 379.247 353.521 379.327 353.721 379.38C353.921 379.42 354.121 379.44 354.321 379.44C355.148 379.44 355.755 379.247 356.141 378.86C356.541 378.46 356.741 377.92 356.741 377.24V376.7ZM360.504 373.44V371.4H362.484V368.62H364.884V371.4H367.524V373.44H364.884V377.64C364.884 378.12 364.97 378.5 365.144 378.78C365.33 379.06 365.69 379.2 366.224 379.2C366.437 379.2 366.67 379.18 366.924 379.14C367.177 379.087 367.377 379.007 367.524 378.9V380.92C367.27 381.04 366.957 381.12 366.584 381.16C366.224 381.213 365.904 381.24 365.624 381.24C364.984 381.24 364.457 381.167 364.044 381.02C363.644 380.887 363.324 380.68 363.084 380.4C362.857 380.107 362.697 379.747 362.604 379.32C362.524 378.893 362.484 378.4 362.484 377.84V373.44H360.504ZM375.957 374.28C375.677 373.987 375.384 373.753 375.077 373.58C374.77 373.407 374.457 373.32 374.137 373.32C373.697 373.32 373.304 373.4 372.957 373.56C372.61 373.72 372.31 373.933 372.057 374.2C371.817 374.467 371.63 374.773 371.497 375.12C371.377 375.467 371.317 375.827 371.317 376.2C371.317 376.573 371.377 376.933 371.497 377.28C371.63 377.627 371.817 377.933 372.057 378.2C372.31 378.467 372.61 378.68 372.957 378.84C373.304 379 373.697 379.08 374.137 379.08C374.51 379.08 374.857 379.007 375.177 378.86C375.497 378.7 375.77 378.473 375.997 378.18L377.597 379.9C377.357 380.14 377.077 380.347 376.757 380.52C376.45 380.693 376.137 380.833 375.817 380.94C375.497 381.047 375.19 381.12 374.897 381.16C374.604 381.213 374.35 381.24 374.137 381.24C373.417 381.24 372.737 381.12 372.097 380.88C371.457 380.64 370.904 380.3 370.437 379.86C369.97 379.42 369.597 378.893 369.317 378.28C369.05 377.653 368.917 376.96 368.917 376.2C368.917 375.44 369.05 374.753 369.317 374.14C369.597 373.513 369.97 372.98 370.437 372.54C370.904 372.1 371.457 371.76 372.097 371.52C372.737 371.28 373.417 371.16 374.137 371.16C374.75 371.16 375.364 371.28 375.977 371.52C376.604 371.747 377.15 372.113 377.617 372.62L375.957 374.28ZM381.446 372.74H381.486C381.672 372.34 381.999 371.98 382.466 371.66C382.946 371.327 383.559 371.16 384.306 371.16C384.946 371.16 385.486 371.267 385.926 371.48C386.379 371.693 386.746 371.973 387.026 372.32C387.306 372.667 387.506 373.067 387.626 373.52C387.746 373.973 387.806 374.447 387.806 374.94V381H385.406V376.14C385.406 375.873 385.392 375.58 385.366 375.26C385.339 374.927 385.266 374.62 385.146 374.34C385.039 374.047 384.866 373.807 384.626 373.62C384.386 373.42 384.059 373.32 383.646 373.32C383.246 373.32 382.906 373.387 382.626 373.52C382.359 373.653 382.132 373.833 381.946 374.06C381.772 374.287 381.646 374.547 381.566 374.84C381.486 375.133 381.446 375.44 381.446 375.76V381H379.046V365.88H381.446V372.74ZM390.57 371.4H392.97V381H390.57V371.4ZM390.23 368.14C390.23 367.753 390.37 367.42 390.65 367.14C390.943 366.847 391.31 366.7 391.75 366.7C392.19 366.7 392.557 366.84 392.85 367.12C393.157 367.387 393.31 367.727 393.31 368.14C393.31 368.553 393.157 368.9 392.85 369.18C392.557 369.447 392.19 369.58 391.75 369.58C391.31 369.58 390.943 369.44 390.65 369.16C390.37 368.867 390.23 368.527 390.23 368.14ZM395.725 371.4H398.005V372.94H398.045C398.272 372.46 398.619 372.047 399.085 371.7C399.552 371.34 400.185 371.16 400.985 371.16C401.625 371.16 402.165 371.267 402.605 371.48C403.059 371.693 403.425 371.973 403.705 372.32C403.985 372.667 404.185 373.067 404.305 373.52C404.425 373.973 404.485 374.447 404.485 374.94V381H402.085V376.14C402.085 375.873 402.072 375.58 402.045 375.26C402.019 374.927 401.945 374.62 401.825 374.34C401.719 374.047 401.545 373.807 401.305 373.62C401.065 373.42 400.739 373.32 400.325 373.32C399.925 373.32 399.585 373.387 399.305 373.52C399.039 373.653 398.812 373.833 398.625 374.06C398.452 374.287 398.325 374.547 398.245 374.84C398.165 375.133 398.125 375.44 398.125 375.76V381H395.725V371.4ZM417.09 371.4V380.14C417.09 381.007 416.983 381.787 416.77 382.48C416.556 383.187 416.223 383.78 415.77 384.26C415.33 384.753 414.77 385.133 414.09 385.4C413.41 385.667 412.603 385.8 411.67 385.8C410.776 385.8 409.93 385.687 409.13 385.46C408.33 385.233 407.59 384.82 406.91 384.22L408.35 382.26C408.83 382.7 409.33 383.04 409.85 383.28C410.37 383.52 410.97 383.64 411.65 383.64C412.223 383.64 412.703 383.56 413.09 383.4C413.49 383.24 413.803 383.02 414.03 382.74C414.27 382.46 414.436 382.12 414.53 381.72C414.636 381.333 414.69 380.9 414.69 380.42V379.72H414.65C414.303 380.187 413.843 380.54 413.27 380.78C412.696 381.007 412.11 381.12 411.51 381.12C410.79 381.12 410.136 380.993 409.55 380.74C408.963 380.473 408.456 380.12 408.03 379.68C407.616 379.24 407.296 378.72 407.07 378.12C406.843 377.52 406.73 376.88 406.73 376.2C406.73 375.493 406.836 374.833 407.05 374.22C407.263 373.607 407.576 373.073 407.99 372.62C408.403 372.167 408.896 371.813 409.47 371.56C410.056 371.293 410.723 371.16 411.47 371.16C412.15 371.16 412.783 371.293 413.37 371.56C413.956 371.827 414.423 372.253 414.77 372.84H414.81V371.4H417.09ZM411.97 373.32C411.543 373.32 411.156 373.393 410.81 373.54C410.463 373.673 410.163 373.867 409.91 374.12C409.67 374.36 409.476 374.66 409.33 375.02C409.196 375.367 409.13 375.753 409.13 376.18C409.13 376.567 409.196 376.927 409.33 377.26C409.476 377.593 409.676 377.887 409.93 378.14C410.183 378.393 410.483 378.593 410.83 378.74C411.176 378.887 411.55 378.96 411.95 378.96C412.39 378.96 412.783 378.887 413.13 378.74C413.49 378.593 413.79 378.4 414.03 378.16C414.283 377.907 414.476 377.607 414.61 377.26C414.743 376.913 414.81 376.54 414.81 376.14C414.81 375.3 414.556 374.62 414.05 374.1C413.543 373.58 412.85 373.32 411.97 373.32Z"
    fill="white"/>
  <path
    d="M166.45 114.518C162.568 114.518 158.885 114.719 155.103 115.121L140.67 90L105.932 101.455L108.918 130.294C102.349 134.213 96.2772 138.634 90.6036 143.759L64.3261 132.002L42.8263 161.846L62.0367 183.45C59.0507 190.384 56.6618 197.619 55.0692 205.255L27 211.385V248.263L55.0692 254.292C56.6618 261.828 59.0507 269.163 62.1363 276.097L42.9258 297.701L64.4256 327.544L90.7032 315.788C96.3767 320.913 102.448 325.334 109.018 329.253L106.131 358.092L140.869 369.446L155.203 344.325C158.985 344.727 162.767 344.828 166.55 344.828C170.432 344.828 174.115 344.627 177.897 344.225L192.33 369.346L227.068 357.891L224.082 329.052C230.651 325.133 236.723 320.611 242.396 315.587L268.674 327.344L290.174 297.5L270.963 275.896C273.949 268.962 276.338 261.727 277.931 254.091L306 247.961V211.083L277.831 205.054C276.239 197.518 273.85 190.183 270.864 183.249L290.074 161.645L268.574 131.801L242.297 143.558C236.623 138.534 230.552 134.012 223.982 130.093L226.869 101.254L192.23 90L177.797 115.121C174.115 114.719 170.332 114.518 166.45 114.518ZM267.679 229.673C267.679 286.045 222.489 331.765 166.649 331.765C110.809 331.765 65.5205 286.145 65.5205 229.773C65.5205 173.402 110.71 127.682 166.55 127.682C222.29 127.581 267.579 173.301 267.679 229.673Z"
    fill="#FF3F92"/>
  <path
    d="M80.48 205.12H76.14V202.84H87.34V205.12H83V217H80.48V205.12ZM87.0084 207.4H89.4084V208.92H89.4484C89.7151 208.36 90.0951 207.927 90.5884 207.62C91.0818 207.313 91.6484 207.16 92.2884 207.16C92.4351 207.16 92.5751 207.173 92.7084 207.2C92.8551 207.227 93.0018 207.26 93.1484 207.3V209.62C92.9484 209.567 92.7484 209.527 92.5484 209.5C92.3618 209.46 92.1751 209.44 91.9884 209.44C91.4284 209.44 90.9751 209.547 90.6284 209.76C90.2951 209.96 90.0351 210.193 89.8484 210.46C89.6751 210.727 89.5551 210.993 89.4884 211.26C89.4351 211.527 89.4084 211.727 89.4084 211.86V217H87.0084V207.4ZM100.782 215.68H100.722C100.375 216.227 99.9352 216.627 99.4019 216.88C98.8685 217.12 98.2819 217.24 97.6419 217.24C97.2019 217.24 96.7685 217.18 96.3419 217.06C95.9285 216.94 95.5552 216.76 95.2219 216.52C94.9019 216.28 94.6419 215.98 94.4419 215.62C94.2419 215.26 94.1419 214.84 94.1419 214.36C94.1419 213.84 94.2352 213.4 94.4219 213.04C94.6085 212.667 94.8552 212.36 95.1619 212.12C95.4819 211.867 95.8485 211.667 96.2619 211.52C96.6752 211.373 97.1019 211.267 97.5419 211.2C97.9952 211.12 98.4485 211.073 98.9019 211.06C99.3552 211.033 99.7819 211.02 100.182 211.02H100.782V210.76C100.782 210.16 100.575 209.713 100.162 209.42C99.7485 209.113 99.2219 208.96 98.5819 208.96C98.0752 208.96 97.6019 209.053 97.1619 209.24C96.7219 209.413 96.3419 209.653 96.0219 209.96L94.7619 208.7C95.2952 208.153 95.9152 207.76 96.6219 207.52C97.3419 207.28 98.0819 207.16 98.8419 207.16C99.5219 207.16 100.095 207.24 100.562 207.4C101.029 207.547 101.415 207.74 101.722 207.98C102.029 208.22 102.262 208.5 102.422 208.82C102.595 209.127 102.715 209.44 102.782 209.76C102.862 210.08 102.909 210.393 102.922 210.7C102.935 210.993 102.942 211.253 102.942 211.48V217H100.782V215.68ZM100.642 212.7H100.142C99.8085 212.7 99.4352 212.713 99.0219 212.74C98.6085 212.767 98.2152 212.833 97.8419 212.94C97.4819 213.033 97.1752 213.18 96.9219 213.38C96.6685 213.567 96.5419 213.833 96.5419 214.18C96.5419 214.407 96.5885 214.6 96.6819 214.76C96.7885 214.907 96.9219 215.033 97.0819 215.14C97.2419 215.247 97.4219 215.327 97.6219 215.38C97.8219 215.42 98.0219 215.44 98.2219 215.44C99.0485 215.44 99.6552 215.247 100.042 214.86C100.442 214.46 100.642 213.92 100.642 213.24V212.7ZM112.084 210.28C111.804 209.987 111.511 209.753 111.204 209.58C110.897 209.407 110.584 209.32 110.264 209.32C109.824 209.32 109.431 209.4 109.084 209.56C108.737 209.72 108.437 209.933 108.184 210.2C107.944 210.467 107.757 210.773 107.624 211.12C107.504 211.467 107.444 211.827 107.444 212.2C107.444 212.573 107.504 212.933 107.624 213.28C107.757 213.627 107.944 213.933 108.184 214.2C108.437 214.467 108.737 214.68 109.084 214.84C109.431 215 109.824 215.08 110.264 215.08C110.637 215.08 110.984 215.007 111.304 214.86C111.624 214.7 111.897 214.473 112.124 214.18L113.724 215.9C113.484 216.14 113.204 216.347 112.884 216.52C112.577 216.693 112.264 216.833 111.944 216.94C111.624 217.047 111.317 217.12 111.024 217.16C110.731 217.213 110.477 217.24 110.264 217.24C109.544 217.24 108.864 217.12 108.224 216.88C107.584 216.64 107.031 216.3 106.564 215.86C106.097 215.42 105.724 214.893 105.444 214.28C105.177 213.653 105.044 212.96 105.044 212.2C105.044 211.44 105.177 210.753 105.444 210.14C105.724 209.513 106.097 208.98 106.564 208.54C107.031 208.1 107.584 207.76 108.224 207.52C108.864 207.28 109.544 207.16 110.264 207.16C110.877 207.16 111.491 207.28 112.104 207.52C112.731 207.747 113.277 208.113 113.744 208.62L112.084 210.28ZM115.173 201.88H117.573V211.38L121.273 207.4H124.353L120.233 211.76L124.613 217H121.433L117.613 212.1H117.573V217H115.173V201.88ZM125.955 207.4H128.355V217H125.955V207.4ZM125.615 204.14C125.615 203.753 125.755 203.42 126.035 203.14C126.328 202.847 126.695 202.7 127.135 202.7C127.575 202.7 127.941 202.84 128.235 203.12C128.541 203.387 128.695 203.727 128.695 204.14C128.695 204.553 128.541 204.9 128.235 205.18C127.941 205.447 127.575 205.58 127.135 205.58C126.695 205.58 126.328 205.44 126.035 205.16C125.755 204.867 125.615 204.527 125.615 204.14ZM131.11 207.4H133.39V208.94H133.43C133.657 208.46 134.003 208.047 134.47 207.7C134.937 207.34 135.57 207.16 136.37 207.16C137.01 207.16 137.55 207.267 137.99 207.48C138.443 207.693 138.81 207.973 139.09 208.32C139.37 208.667 139.57 209.067 139.69 209.52C139.81 209.973 139.87 210.447 139.87 210.94V217H137.47V212.14C137.47 211.873 137.457 211.58 137.43 211.26C137.403 210.927 137.33 210.62 137.21 210.34C137.103 210.047 136.93 209.807 136.69 209.62C136.45 209.42 136.123 209.32 135.71 209.32C135.31 209.32 134.97 209.387 134.69 209.52C134.423 209.653 134.197 209.833 134.01 210.06C133.837 210.287 133.71 210.547 133.63 210.84C133.55 211.133 133.51 211.44 133.51 211.76V217H131.11V207.4ZM152.474 207.4V216.14C152.474 217.007 152.368 217.787 152.154 218.48C151.941 219.187 151.608 219.78 151.154 220.26C150.714 220.753 150.154 221.133 149.474 221.4C148.794 221.667 147.988 221.8 147.054 221.8C146.161 221.8 145.314 221.687 144.514 221.46C143.714 221.233 142.974 220.82 142.294 220.22L143.734 218.26C144.214 218.7 144.714 219.04 145.234 219.28C145.754 219.52 146.354 219.64 147.034 219.64C147.608 219.64 148.088 219.56 148.474 219.4C148.874 219.24 149.188 219.02 149.414 218.74C149.654 218.46 149.821 218.12 149.914 217.72C150.021 217.333 150.074 216.9 150.074 216.42V215.72H150.034C149.688 216.187 149.228 216.54 148.654 216.78C148.081 217.007 147.494 217.12 146.894 217.12C146.174 217.12 145.521 216.993 144.934 216.74C144.348 216.473 143.841 216.12 143.414 215.68C143.001 215.24 142.681 214.72 142.454 214.12C142.228 213.52 142.114 212.88 142.114 212.2C142.114 211.493 142.221 210.833 142.434 210.22C142.648 209.607 142.961 209.073 143.374 208.62C143.788 208.167 144.281 207.813 144.854 207.56C145.441 207.293 146.108 207.16 146.854 207.16C147.534 207.16 148.168 207.293 148.754 207.56C149.341 207.827 149.808 208.253 150.154 208.84H150.194V207.4H152.474ZM147.354 209.32C146.928 209.32 146.541 209.393 146.194 209.54C145.848 209.673 145.548 209.867 145.294 210.12C145.054 210.36 144.861 210.66 144.714 211.02C144.581 211.367 144.514 211.753 144.514 212.18C144.514 212.567 144.581 212.927 144.714 213.26C144.861 213.593 145.061 213.887 145.314 214.14C145.568 214.393 145.868 214.593 146.214 214.74C146.561 214.887 146.934 214.96 147.334 214.96C147.774 214.96 148.168 214.887 148.514 214.74C148.874 214.593 149.174 214.4 149.414 214.16C149.668 213.907 149.861 213.607 149.994 213.26C150.128 212.913 150.194 212.54 150.194 212.14C150.194 211.3 149.941 210.62 149.434 210.1C148.928 209.58 148.234 209.32 147.354 209.32ZM160.63 212.2C160.63 211.44 160.763 210.753 161.03 210.14C161.31 209.513 161.683 208.98 162.15 208.54C162.617 208.1 163.17 207.76 163.81 207.52C164.45 207.28 165.13 207.16 165.85 207.16C166.57 207.16 167.25 207.28 167.89 207.52C168.53 207.76 169.083 208.1 169.55 208.54C170.017 208.98 170.383 209.513 170.65 210.14C170.93 210.753 171.07 211.44 171.07 212.2C171.07 212.96 170.93 213.653 170.65 214.28C170.383 214.893 170.017 215.42 169.55 215.86C169.083 216.3 168.53 216.64 167.89 216.88C167.25 217.12 166.57 217.24 165.85 217.24C165.13 217.24 164.45 217.12 163.81 216.88C163.17 216.64 162.617 216.3 162.15 215.86C161.683 215.42 161.31 214.893 161.03 214.28C160.763 213.653 160.63 212.96 160.63 212.2ZM163.03 212.2C163.03 212.573 163.09 212.933 163.21 213.28C163.343 213.627 163.53 213.933 163.77 214.2C164.023 214.467 164.323 214.68 164.67 214.84C165.017 215 165.41 215.08 165.85 215.08C166.29 215.08 166.683 215 167.03 214.84C167.377 214.68 167.67 214.467 167.91 214.2C168.163 213.933 168.35 213.627 168.47 213.28C168.603 212.933 168.67 212.573 168.67 212.2C168.67 211.827 168.603 211.467 168.47 211.12C168.35 210.773 168.163 210.467 167.91 210.2C167.67 209.933 167.377 209.72 167.03 209.56C166.683 209.4 166.29 209.32 165.85 209.32C165.41 209.32 165.017 209.4 164.67 209.56C164.323 209.72 164.023 209.933 163.77 210.2C163.53 210.467 163.343 210.773 163.21 211.12C163.09 211.467 163.03 211.827 163.03 212.2ZM173.317 207.4H175.597V208.84H175.637C175.984 208.253 176.45 207.827 177.037 207.56C177.624 207.293 178.257 207.16 178.937 207.16C179.67 207.16 180.33 207.293 180.917 207.56C181.504 207.813 182.004 208.167 182.417 208.62C182.83 209.073 183.144 209.607 183.357 210.22C183.57 210.833 183.677 211.493 183.677 212.2C183.677 212.907 183.564 213.567 183.337 214.18C183.11 214.793 182.79 215.327 182.377 215.78C181.977 216.233 181.49 216.593 180.917 216.86C180.344 217.113 179.717 217.24 179.037 217.24C178.584 217.24 178.184 217.193 177.837 217.1C177.49 217.007 177.184 216.887 176.917 216.74C176.65 216.593 176.424 216.44 176.237 216.28C176.05 216.107 175.897 215.94 175.777 215.78H175.717V221.56H173.317V207.4ZM181.277 212.2C181.277 211.827 181.21 211.467 181.077 211.12C180.957 210.773 180.77 210.467 180.517 210.2C180.277 209.933 179.984 209.72 179.637 209.56C179.29 209.4 178.897 209.32 178.457 209.32C178.017 209.32 177.624 209.4 177.277 209.56C176.93 209.72 176.63 209.933 176.377 210.2C176.137 210.467 175.95 210.773 175.817 211.12C175.697 211.467 175.637 211.827 175.637 212.2C175.637 212.573 175.697 212.933 175.817 213.28C175.95 213.627 176.137 213.933 176.377 214.2C176.63 214.467 176.93 214.68 177.277 214.84C177.624 215 178.017 215.08 178.457 215.08C178.897 215.08 179.29 215 179.637 214.84C179.984 214.68 180.277 214.467 180.517 214.2C180.77 213.933 180.957 213.627 181.077 213.28C181.21 212.933 181.277 212.573 181.277 212.2ZM187.835 213.04C187.915 213.76 188.195 214.32 188.675 214.72C189.155 215.12 189.735 215.32 190.415 215.32C191.015 215.32 191.515 215.2 191.915 214.96C192.328 214.707 192.688 214.393 192.995 214.02L194.715 215.32C194.155 216.013 193.528 216.507 192.835 216.8C192.141 217.093 191.415 217.24 190.655 217.24C189.935 217.24 189.255 217.12 188.615 216.88C187.975 216.64 187.421 216.3 186.955 215.86C186.488 215.42 186.115 214.893 185.835 214.28C185.568 213.653 185.435 212.96 185.435 212.2C185.435 211.44 185.568 210.753 185.835 210.14C186.115 209.513 186.488 208.98 186.955 208.54C187.421 208.1 187.975 207.76 188.615 207.52C189.255 207.28 189.935 207.16 190.655 207.16C191.321 207.16 191.928 207.28 192.475 207.52C193.035 207.747 193.508 208.08 193.895 208.52C194.295 208.96 194.601 209.507 194.815 210.16C195.041 210.8 195.155 211.54 195.155 212.38V213.04H187.835ZM192.755 211.24C192.741 210.533 192.521 209.98 192.095 209.58C191.668 209.167 191.075 208.96 190.315 208.96C189.595 208.96 189.021 209.167 188.595 209.58C188.181 209.993 187.928 210.547 187.835 211.24H192.755ZM197.399 207.4H199.799V208.92H199.839C200.106 208.36 200.486 207.927 200.979 207.62C201.472 207.313 202.039 207.16 202.679 207.16C202.826 207.16 202.966 207.173 203.099 207.2C203.246 207.227 203.392 207.26 203.539 207.3V209.62C203.339 209.567 203.139 209.527 202.939 209.5C202.752 209.46 202.566 209.44 202.379 209.44C201.819 209.44 201.366 209.547 201.019 209.76C200.686 209.96 200.426 210.193 200.239 210.46C200.066 210.727 199.946 210.993 199.879 211.26C199.826 211.527 199.799 211.727 199.799 211.86V217H197.399V207.4ZM211.173 215.68H211.113C210.766 216.227 210.326 216.627 209.793 216.88C209.259 217.12 208.673 217.24 208.033 217.24C207.593 217.24 207.159 217.18 206.733 217.06C206.319 216.94 205.946 216.76 205.613 216.52C205.293 216.28 205.033 215.98 204.833 215.62C204.633 215.26 204.533 214.84 204.533 214.36C204.533 213.84 204.626 213.4 204.813 213.04C204.999 212.667 205.246 212.36 205.553 212.12C205.873 211.867 206.239 211.667 206.653 211.52C207.066 211.373 207.493 211.267 207.933 211.2C208.386 211.12 208.839 211.073 209.293 211.06C209.746 211.033 210.173 211.02 210.573 211.02H211.173V210.76C211.173 210.16 210.966 209.713 210.553 209.42C210.139 209.113 209.613 208.96 208.973 208.96C208.466 208.96 207.993 209.053 207.553 209.24C207.113 209.413 206.733 209.653 206.413 209.96L205.153 208.7C205.686 208.153 206.306 207.76 207.013 207.52C207.733 207.28 208.473 207.16 209.233 207.16C209.913 207.16 210.486 207.24 210.953 207.4C211.419 207.547 211.806 207.74 212.113 207.98C212.419 208.22 212.653 208.5 212.813 208.82C212.986 209.127 213.106 209.44 213.173 209.76C213.253 210.08 213.299 210.393 213.313 210.7C213.326 210.993 213.333 211.253 213.333 211.48V217H211.173V215.68ZM211.033 212.7H210.533C210.199 212.7 209.826 212.713 209.413 212.74C208.999 212.767 208.606 212.833 208.233 212.94C207.873 213.033 207.566 213.18 207.313 213.38C207.059 213.567 206.933 213.833 206.933 214.18C206.933 214.407 206.979 214.6 207.073 214.76C207.179 214.907 207.313 215.033 207.473 215.14C207.633 215.247 207.813 215.327 208.013 215.38C208.213 215.42 208.413 215.44 208.613 215.44C209.439 215.44 210.046 215.247 210.433 214.86C210.833 214.46 211.033 213.92 211.033 213.24V212.7ZM214.795 209.44V207.4H216.775V204.62H219.175V207.4H221.815V209.44H219.175V213.64C219.175 214.12 219.261 214.5 219.435 214.78C219.621 215.06 219.981 215.2 220.515 215.2C220.728 215.2 220.961 215.18 221.215 215.14C221.468 215.087 221.668 215.007 221.815 214.9V216.92C221.561 217.04 221.248 217.12 220.875 217.16C220.515 217.213 220.195 217.24 219.915 217.24C219.275 217.24 218.748 217.167 218.335 217.02C217.935 216.887 217.615 216.68 217.375 216.4C217.148 216.107 216.988 215.747 216.895 215.32C216.815 214.893 216.775 214.4 216.775 213.84V209.44H214.795ZM223.748 207.4H226.148V217H223.748V207.4ZM223.408 204.14C223.408 203.753 223.548 203.42 223.828 203.14C224.121 202.847 224.488 202.7 224.928 202.7C225.368 202.7 225.734 202.84 226.028 203.12C226.334 203.387 226.488 203.727 226.488 204.14C226.488 204.553 226.334 204.9 226.028 205.18C225.734 205.447 225.368 205.58 224.928 205.58C224.488 205.58 224.121 205.44 223.828 205.16C223.548 204.867 223.408 204.527 223.408 204.14ZM228.423 212.2C228.423 211.44 228.556 210.753 228.823 210.14C229.103 209.513 229.476 208.98 229.943 208.54C230.41 208.1 230.963 207.76 231.603 207.52C232.243 207.28 232.923 207.16 233.643 207.16C234.363 207.16 235.043 207.28 235.683 207.52C236.323 207.76 236.876 208.1 237.343 208.54C237.81 208.98 238.176 209.513 238.443 210.14C238.723 210.753 238.863 211.44 238.863 212.2C238.863 212.96 238.723 213.653 238.443 214.28C238.176 214.893 237.81 215.42 237.343 215.86C236.876 216.3 236.323 216.64 235.683 216.88C235.043 217.12 234.363 217.24 233.643 217.24C232.923 217.24 232.243 217.12 231.603 216.88C230.963 216.64 230.41 216.3 229.943 215.86C229.476 215.42 229.103 214.893 228.823 214.28C228.556 213.653 228.423 212.96 228.423 212.2ZM230.823 212.2C230.823 212.573 230.883 212.933 231.003 213.28C231.136 213.627 231.323 213.933 231.563 214.2C231.816 214.467 232.116 214.68 232.463 214.84C232.81 215 233.203 215.08 233.643 215.08C234.083 215.08 234.476 215 234.823 214.84C235.17 214.68 235.463 214.467 235.703 214.2C235.956 213.933 236.143 213.627 236.263 213.28C236.396 212.933 236.463 212.573 236.463 212.2C236.463 211.827 236.396 211.467 236.263 211.12C236.143 210.773 235.956 210.467 235.703 210.2C235.463 209.933 235.17 209.72 234.823 209.56C234.476 209.4 234.083 209.32 233.643 209.32C233.203 209.32 232.81 209.4 232.463 209.56C232.116 209.72 231.816 209.933 231.563 210.2C231.323 210.467 231.136 210.773 231.003 211.12C230.883 211.467 230.823 211.827 230.823 212.2ZM241.11 207.4H243.39V208.94H243.43C243.657 208.46 244.003 208.047 244.47 207.7C244.937 207.34 245.57 207.16 246.37 207.16C247.01 207.16 247.55 207.267 247.99 207.48C248.443 207.693 248.81 207.973 249.09 208.32C249.37 208.667 249.57 209.067 249.69 209.52C249.81 209.973 249.87 210.447 249.87 210.94V217H247.47V212.14C247.47 211.873 247.457 211.58 247.43 211.26C247.403 210.927 247.33 210.62 247.21 210.34C247.103 210.047 246.93 209.807 246.69 209.62C246.45 209.42 246.123 209.32 245.71 209.32C245.31 209.32 244.97 209.387 244.69 209.52C244.423 209.653 244.197 209.833 244.01 210.06C243.837 210.287 243.71 210.547 243.63 210.84C243.55 211.133 243.51 211.44 243.51 211.76V217H241.11V207.4ZM82.48 243.06C82.0133 242.407 81.3867 242.08 80.6 242.08C80.28 242.08 79.9667 242.16 79.66 242.32C79.3533 242.48 79.2 242.74 79.2 243.1C79.2 243.393 79.3267 243.607 79.58 243.74C79.8333 243.873 80.1533 243.987 80.54 244.08C80.9267 244.173 81.34 244.273 81.78 244.38C82.2333 244.473 82.6533 244.627 83.04 244.84C83.4267 245.04 83.7467 245.32 84 245.68C84.2533 246.04 84.38 246.533 84.38 247.16C84.38 247.733 84.2533 248.22 84 248.62C83.76 249.007 83.44 249.32 83.04 249.56C82.6533 249.8 82.2133 249.973 81.72 250.08C81.2267 250.187 80.7333 250.24 80.24 250.24C79.4933 250.24 78.8067 250.133 78.18 249.92C77.5533 249.707 76.9933 249.32 76.5 248.76L78.1 247.26C78.4067 247.607 78.7333 247.893 79.08 248.12C79.44 248.333 79.8733 248.44 80.38 248.44C80.5533 248.44 80.7333 248.42 80.92 248.38C81.1067 248.34 81.28 248.273 81.44 248.18C81.6 248.087 81.7267 247.973 81.82 247.84C81.9267 247.693 81.98 247.527 81.98 247.34C81.98 247.007 81.8533 246.76 81.6 246.6C81.3467 246.44 81.0267 246.313 80.64 246.22C80.2533 246.113 79.8333 246.02 79.38 245.94C78.94 245.847 78.5267 245.707 78.14 245.52C77.7533 245.32 77.4333 245.047 77.18 244.7C76.9267 244.353 76.8 243.873 76.8 243.26C76.8 242.727 76.9067 242.267 77.12 241.88C77.3467 241.48 77.64 241.153 78 240.9C78.36 240.647 78.7733 240.46 79.24 240.34C79.7067 240.22 80.18 240.16 80.66 240.16C81.3 240.16 81.9333 240.273 82.56 240.5C83.1867 240.713 83.6933 241.087 84.08 241.62L82.48 243.06ZM85.1267 242.44V240.4H87.1067V237.62H89.5067V240.4H92.1467V242.44H89.5067V246.64C89.5067 247.12 89.5934 247.5 89.7667 247.78C89.9534 248.06 90.3134 248.2 90.8467 248.2C91.0601 248.2 91.2934 248.18 91.5467 248.14C91.8001 248.087 92.0001 248.007 92.1467 247.9V249.92C91.8934 250.04 91.5801 250.12 91.2067 250.16C90.8467 250.213 90.5267 250.24 90.2467 250.24C89.6067 250.24 89.0801 250.167 88.6667 250.02C88.2667 249.887 87.9467 249.68 87.7067 249.4C87.4801 249.107 87.3201 248.747 87.2267 248.32C87.1467 247.893 87.1067 247.4 87.1067 246.84V242.44H85.1267ZM100.02 248.68H99.9602C99.6135 249.227 99.1735 249.627 98.6402 249.88C98.1068 250.12 97.5202 250.24 96.8802 250.24C96.4402 250.24 96.0068 250.18 95.5802 250.06C95.1668 249.94 94.7935 249.76 94.4602 249.52C94.1402 249.28 93.8802 248.98 93.6802 248.62C93.4802 248.26 93.3802 247.84 93.3802 247.36C93.3802 246.84 93.4735 246.4 93.6602 246.04C93.8468 245.667 94.0935 245.36 94.4002 245.12C94.7202 244.867 95.0868 244.667 95.5002 244.52C95.9135 244.373 96.3402 244.267 96.7802 244.2C97.2335 244.12 97.6868 244.073 98.1402 244.06C98.5935 244.033 99.0202 244.02 99.4202 244.02H100.02V243.76C100.02 243.16 99.8135 242.713 99.4002 242.42C98.9868 242.113 98.4602 241.96 97.8202 241.96C97.3135 241.96 96.8402 242.053 96.4002 242.24C95.9602 242.413 95.5802 242.653 95.2602 242.96L94.0002 241.7C94.5335 241.153 95.1535 240.76 95.8602 240.52C96.5802 240.28 97.3202 240.16 98.0802 240.16C98.7602 240.16 99.3335 240.24 99.8002 240.4C100.267 240.547 100.653 240.74 100.96 240.98C101.267 241.22 101.5 241.5 101.66 241.82C101.833 242.127 101.953 242.44 102.02 242.76C102.1 243.08 102.147 243.393 102.16 243.7C102.173 243.993 102.18 244.253 102.18 244.48V250H100.02V248.68ZM99.8802 245.7H99.3802C99.0468 245.7 98.6735 245.713 98.2602 245.74C97.8468 245.767 97.4535 245.833 97.0802 245.94C96.7202 246.033 96.4135 246.18 96.1602 246.38C95.9068 246.567 95.7802 246.833 95.7802 247.18C95.7802 247.407 95.8268 247.6 95.9202 247.76C96.0268 247.907 96.1602 248.033 96.3202 248.14C96.4802 248.247 96.6602 248.327 96.8602 248.38C97.0602 248.42 97.2602 248.44 97.4602 248.44C98.2868 248.44 98.8935 248.247 99.2802 247.86C99.6802 247.46 99.8802 246.92 99.8802 246.24V245.7ZM103.642 242.44V240.4H105.622V237.62H108.022V240.4H110.662V242.44H108.022V246.64C108.022 247.12 108.109 247.5 108.282 247.78C108.469 248.06 108.829 248.2 109.362 248.2C109.576 248.2 109.809 248.18 110.062 248.14C110.316 248.087 110.516 248.007 110.662 247.9V249.92C110.409 250.04 110.096 250.12 109.722 250.16C109.362 250.213 109.042 250.24 108.762 250.24C108.122 250.24 107.596 250.167 107.182 250.02C106.782 249.887 106.462 249.68 106.222 249.4C105.996 249.107 105.836 248.747 105.742 248.32C105.662 247.893 105.622 247.4 105.622 246.84V242.44H103.642ZM114.456 246.04C114.536 246.76 114.816 247.32 115.296 247.72C115.776 248.12 116.356 248.32 117.036 248.32C117.636 248.32 118.136 248.2 118.536 247.96C118.949 247.707 119.309 247.393 119.616 247.02L121.336 248.32C120.776 249.013 120.149 249.507 119.456 249.8C118.762 250.093 118.036 250.24 117.276 250.24C116.556 250.24 115.876 250.12 115.236 249.88C114.596 249.64 114.042 249.3 113.576 248.86C113.109 248.42 112.736 247.893 112.456 247.28C112.189 246.653 112.056 245.96 112.056 245.2C112.056 244.44 112.189 243.753 112.456 243.14C112.736 242.513 113.109 241.98 113.576 241.54C114.042 241.1 114.596 240.76 115.236 240.52C115.876 240.28 116.556 240.16 117.276 240.16C117.942 240.16 118.549 240.28 119.096 240.52C119.656 240.747 120.129 241.08 120.516 241.52C120.916 241.96 121.222 242.507 121.436 243.16C121.662 243.8 121.776 244.54 121.776 245.38V246.04H114.456ZM119.376 244.24C119.362 243.533 119.142 242.98 118.716 242.58C118.289 242.167 117.696 241.96 116.936 241.96C116.216 241.96 115.642 242.167 115.216 242.58C114.802 242.993 114.549 243.547 114.456 244.24H119.376ZM129.458 245.2C129.458 244.44 129.591 243.753 129.858 243.14C130.138 242.513 130.511 241.98 130.978 241.54C131.445 241.1 131.998 240.76 132.638 240.52C133.278 240.28 133.958 240.16 134.678 240.16C135.398 240.16 136.078 240.28 136.718 240.52C137.358 240.76 137.911 241.1 138.378 241.54C138.845 241.98 139.211 242.513 139.478 243.14C139.758 243.753 139.898 244.44 139.898 245.2C139.898 245.96 139.758 246.653 139.478 247.28C139.211 247.893 138.845 248.42 138.378 248.86C137.911 249.3 137.358 249.64 136.718 249.88C136.078 250.12 135.398 250.24 134.678 250.24C133.958 250.24 133.278 250.12 132.638 249.88C131.998 249.64 131.445 249.3 130.978 248.86C130.511 248.42 130.138 247.893 129.858 247.28C129.591 246.653 129.458 245.96 129.458 245.2ZM131.858 245.2C131.858 245.573 131.918 245.933 132.038 246.28C132.171 246.627 132.358 246.933 132.598 247.2C132.851 247.467 133.151 247.68 133.498 247.84C133.845 248 134.238 248.08 134.678 248.08C135.118 248.08 135.511 248 135.858 247.84C136.205 247.68 136.498 247.467 136.738 247.2C136.991 246.933 137.178 246.627 137.298 246.28C137.431 245.933 137.498 245.573 137.498 245.2C137.498 244.827 137.431 244.467 137.298 244.12C137.178 243.773 136.991 243.467 136.738 243.2C136.498 242.933 136.205 242.72 135.858 242.56C135.511 242.4 135.118 242.32 134.678 242.32C134.238 242.32 133.845 242.4 133.498 242.56C133.151 242.72 132.851 242.933 132.598 243.2C132.358 243.467 132.171 243.773 132.038 244.12C131.918 244.467 131.858 244.827 131.858 245.2ZM142.145 240.4H144.425V241.94H144.465C144.692 241.46 145.038 241.047 145.505 240.7C145.972 240.34 146.605 240.16 147.405 240.16C148.045 240.16 148.585 240.267 149.025 240.48C149.478 240.693 149.845 240.973 150.125 241.32C150.405 241.667 150.605 242.067 150.725 242.52C150.845 242.973 150.905 243.447 150.905 243.94V250H148.505V245.14C148.505 244.873 148.492 244.58 148.465 244.26C148.438 243.927 148.365 243.62 148.245 243.34C148.138 243.047 147.965 242.807 147.725 242.62C147.485 242.42 147.158 242.32 146.745 242.32C146.345 242.32 146.005 242.387 145.725 242.52C145.458 242.653 145.232 242.833 145.045 243.06C144.872 243.287 144.745 243.547 144.665 243.84C144.585 244.133 144.545 244.44 144.545 244.76V250H142.145V240.4ZM159.548 234.88H161.948V241.62H162.008C162.128 241.46 162.281 241.3 162.468 241.14C162.654 240.967 162.881 240.807 163.148 240.66C163.414 240.513 163.721 240.393 164.067 240.3C164.414 240.207 164.814 240.16 165.268 240.16C165.948 240.16 166.574 240.293 167.148 240.56C167.721 240.813 168.208 241.167 168.608 241.62C169.021 242.073 169.341 242.607 169.568 243.22C169.794 243.833 169.908 244.493 169.908 245.2C169.908 245.907 169.801 246.567 169.588 247.18C169.374 247.793 169.061 248.327 168.648 248.78C168.234 249.233 167.734 249.593 167.148 249.86C166.561 250.113 165.901 250.24 165.168 250.24C164.488 250.24 163.854 250.107 163.268 249.84C162.681 249.573 162.214 249.147 161.868 248.56H161.828V250H159.548V234.88ZM167.508 245.2C167.508 244.827 167.441 244.467 167.308 244.12C167.188 243.773 167.001 243.467 166.748 243.2C166.508 242.933 166.214 242.72 165.868 242.56C165.521 242.4 165.128 242.32 164.688 242.32C164.248 242.32 163.854 242.4 163.508 242.56C163.161 242.72 162.861 242.933 162.608 243.2C162.368 243.467 162.181 243.773 162.048 244.12C161.928 244.467 161.868 244.827 161.868 245.2C161.868 245.573 161.928 245.933 162.048 246.28C162.181 246.627 162.368 246.933 162.608 247.2C162.861 247.467 163.161 247.68 163.508 247.84C163.854 248 164.248 248.08 164.688 248.08C165.128 248.08 165.521 248 165.868 247.84C166.214 247.68 166.508 247.467 166.748 247.2C167.001 246.933 167.188 246.627 167.308 246.28C167.441 245.933 167.508 245.573 167.508 245.2ZM172.185 234.88H174.585V250H172.185V234.88ZM176.86 245.2C176.86 244.44 176.994 243.753 177.26 243.14C177.54 242.513 177.914 241.98 178.38 241.54C178.847 241.1 179.4 240.76 180.04 240.52C180.68 240.28 181.36 240.16 182.08 240.16C182.8 240.16 183.48 240.28 184.12 240.52C184.76 240.76 185.314 241.1 185.78 241.54C186.247 241.98 186.614 242.513 186.88 243.14C187.16 243.753 187.3 244.44 187.3 245.2C187.3 245.96 187.16 246.653 186.88 247.28C186.614 247.893 186.247 248.42 185.78 248.86C185.314 249.3 184.76 249.64 184.12 249.88C183.48 250.12 182.8 250.24 182.08 250.24C181.36 250.24 180.68 250.12 180.04 249.88C179.4 249.64 178.847 249.3 178.38 248.86C177.914 248.42 177.54 247.893 177.26 247.28C176.994 246.653 176.86 245.96 176.86 245.2ZM179.26 245.2C179.26 245.573 179.32 245.933 179.44 246.28C179.574 246.627 179.76 246.933 180 247.2C180.254 247.467 180.554 247.68 180.9 247.84C181.247 248 181.64 248.08 182.08 248.08C182.52 248.08 182.914 248 183.26 247.84C183.607 247.68 183.9 247.467 184.14 247.2C184.394 246.933 184.58 246.627 184.7 246.28C184.834 245.933 184.9 245.573 184.9 245.2C184.9 244.827 184.834 244.467 184.7 244.12C184.58 243.773 184.394 243.467 184.14 243.2C183.9 242.933 183.607 242.72 183.26 242.56C182.914 242.4 182.52 242.32 182.08 242.32C181.64 242.32 181.247 242.4 180.9 242.56C180.554 242.72 180.254 242.933 180 243.2C179.76 243.467 179.574 243.773 179.44 244.12C179.32 244.467 179.26 244.827 179.26 245.2ZM196.108 243.28C195.828 242.987 195.534 242.753 195.228 242.58C194.921 242.407 194.608 242.32 194.288 242.32C193.848 242.32 193.454 242.4 193.108 242.56C192.761 242.72 192.461 242.933 192.208 243.2C191.968 243.467 191.781 243.773 191.648 244.12C191.528 244.467 191.468 244.827 191.468 245.2C191.468 245.573 191.528 245.933 191.648 246.28C191.781 246.627 191.968 246.933 192.208 247.2C192.461 247.467 192.761 247.68 193.108 247.84C193.454 248 193.848 248.08 194.288 248.08C194.661 248.08 195.008 248.007 195.328 247.86C195.648 247.7 195.921 247.473 196.148 247.18L197.748 248.9C197.508 249.14 197.228 249.347 196.908 249.52C196.601 249.693 196.288 249.833 195.968 249.94C195.648 250.047 195.341 250.12 195.048 250.16C194.754 250.213 194.501 250.24 194.288 250.24C193.568 250.24 192.888 250.12 192.248 249.88C191.608 249.64 191.054 249.3 190.588 248.86C190.121 248.42 189.748 247.893 189.468 247.28C189.201 246.653 189.068 245.96 189.068 245.2C189.068 244.44 189.201 243.753 189.468 243.14C189.748 242.513 190.121 241.98 190.588 241.54C191.054 241.1 191.608 240.76 192.248 240.52C192.888 240.28 193.568 240.16 194.288 240.16C194.901 240.16 195.514 240.28 196.128 240.52C196.754 240.747 197.301 241.113 197.768 241.62L196.108 243.28ZM199.196 234.88H201.596V244.38L205.296 240.4H208.376L204.256 244.76L208.636 250H205.456L201.636 245.1H201.596V250H199.196V234.88ZM216.498 243.28C216.218 242.987 215.925 242.753 215.618 242.58C215.311 242.407 214.998 242.32 214.678 242.32C214.238 242.32 213.845 242.4 213.498 242.56C213.151 242.72 212.851 242.933 212.598 243.2C212.358 243.467 212.171 243.773 212.038 244.12C211.918 244.467 211.858 244.827 211.858 245.2C211.858 245.573 211.918 245.933 212.038 246.28C212.171 246.627 212.358 246.933 212.598 247.2C212.851 247.467 213.151 247.68 213.498 247.84C213.845 248 214.238 248.08 214.678 248.08C215.051 248.08 215.398 248.007 215.718 247.86C216.038 247.7 216.311 247.473 216.538 247.18L218.138 248.9C217.898 249.14 217.618 249.347 217.298 249.52C216.991 249.693 216.678 249.833 216.358 249.94C216.038 250.047 215.731 250.12 215.438 250.16C215.145 250.213 214.891 250.24 214.678 250.24C213.958 250.24 213.278 250.12 212.638 249.88C211.998 249.64 211.445 249.3 210.978 248.86C210.511 248.42 210.138 247.893 209.858 247.28C209.591 246.653 209.458 245.96 209.458 245.2C209.458 244.44 209.591 243.753 209.858 243.14C210.138 242.513 210.511 241.98 210.978 241.54C211.445 241.1 211.998 240.76 212.638 240.52C213.278 240.28 213.958 240.16 214.678 240.16C215.291 240.16 215.905 240.28 216.518 240.52C217.145 240.747 217.691 241.113 218.158 241.62L216.498 243.28ZM221.987 241.74H222.027C222.213 241.34 222.54 240.98 223.007 240.66C223.487 240.327 224.1 240.16 224.847 240.16C225.487 240.16 226.027 240.267 226.467 240.48C226.92 240.693 227.287 240.973 227.567 241.32C227.847 241.667 228.047 242.067 228.167 242.52C228.287 242.973 228.347 243.447 228.347 243.94V250H225.947V245.14C225.947 244.873 225.933 244.58 225.907 244.26C225.88 243.927 225.807 243.62 225.687 243.34C225.58 243.047 225.407 242.807 225.167 242.62C224.927 242.42 224.6 242.32 224.187 242.32C223.787 242.32 223.447 242.387 223.167 242.52C222.9 242.653 222.673 242.833 222.487 243.06C222.313 243.287 222.187 243.547 222.107 243.84C222.027 244.133 221.987 244.44 221.987 244.76V250H219.587V234.88H221.987V241.74ZM237.071 248.68H237.011C236.664 249.227 236.224 249.627 235.691 249.88C235.158 250.12 234.571 250.24 233.931 250.24C233.491 250.24 233.058 250.18 232.631 250.06C232.218 249.94 231.844 249.76 231.511 249.52C231.191 249.28 230.931 248.98 230.731 248.62C230.531 248.26 230.431 247.84 230.431 247.36C230.431 246.84 230.524 246.4 230.711 246.04C230.898 245.667 231.144 245.36 231.451 245.12C231.771 244.867 232.138 244.667 232.551 244.52C232.964 244.373 233.391 244.267 233.831 244.2C234.284 244.12 234.738 244.073 235.191 244.06C235.644 244.033 236.071 244.02 236.471 244.02H237.071V243.76C237.071 243.16 236.864 242.713 236.451 242.42C236.038 242.113 235.511 241.96 234.871 241.96C234.364 241.96 233.891 242.053 233.451 242.24C233.011 242.413 232.631 242.653 232.311 242.96L231.051 241.7C231.584 241.153 232.204 240.76 232.911 240.52C233.631 240.28 234.371 240.16 235.131 240.16C235.811 240.16 236.384 240.24 236.851 240.4C237.318 240.547 237.704 240.74 238.011 240.98C238.318 241.22 238.551 241.5 238.711 241.82C238.884 242.127 239.004 242.44 239.071 242.76C239.151 243.08 239.198 243.393 239.211 243.7C239.224 243.993 239.231 244.253 239.231 244.48V250H237.071V248.68ZM236.931 245.7H236.431C236.098 245.7 235.724 245.713 235.311 245.74C234.898 245.767 234.504 245.833 234.131 245.94C233.771 246.033 233.464 246.18 233.211 246.38C232.958 246.567 232.831 246.833 232.831 247.18C232.831 247.407 232.878 247.6 232.971 247.76C233.078 247.907 233.211 248.033 233.371 248.14C233.531 248.247 233.711 248.327 233.911 248.38C234.111 248.42 234.311 248.44 234.511 248.44C235.338 248.44 235.944 248.247 236.331 247.86C236.731 247.46 236.931 246.92 236.931 246.24V245.7ZM241.853 240.4H244.253V250H241.853V240.4ZM241.513 237.14C241.513 236.753 241.653 236.42 241.933 236.14C242.226 235.847 242.593 235.7 243.033 235.7C243.473 235.7 243.84 235.84 244.133 236.12C244.44 236.387 244.593 236.727 244.593 237.14C244.593 237.553 244.44 237.9 244.133 238.18C243.84 238.447 243.473 238.58 243.033 238.58C242.593 238.58 242.226 238.44 241.933 238.16C241.653 237.867 241.513 237.527 241.513 237.14ZM247.008 240.4H249.288V241.94H249.328C249.555 241.46 249.902 241.047 250.368 240.7C250.835 240.34 251.468 240.16 252.268 240.16C252.908 240.16 253.448 240.267 253.888 240.48C254.342 240.693 254.708 240.973 254.988 241.32C255.268 241.667 255.468 242.067 255.588 242.52C255.708 242.973 255.768 243.447 255.768 243.94V250H253.368V245.14C253.368 244.873 253.355 244.58 253.328 244.26C253.302 243.927 253.228 243.62 253.108 243.34C253.002 243.047 252.828 242.807 252.588 242.62C252.348 242.42 252.022 242.32 251.608 242.32C251.208 242.32 250.868 242.387 250.588 242.52C250.322 242.653 250.095 242.833 249.908 243.06C249.735 243.287 249.608 243.547 249.528 243.84C249.448 244.133 249.408 244.44 249.408 244.76V250H247.008V240.4Z"
    fill="white"/>
  <path
    d="M528.757 137.879C526.446 137.879 524.214 137.959 521.982 138.198L513.454 123.441L492.81 130.221L494.564 147.212C490.658 149.525 486.992 152.157 483.644 155.189L468.022 148.249L455.269 165.878L466.667 178.561C464.834 182.629 463.479 186.936 462.522 191.403L445.784 194.993V216.77L462.522 220.359C463.479 224.826 464.913 229.134 466.667 233.202L455.269 245.965L468.101 263.594L483.724 256.654C487.071 259.685 490.738 262.317 494.643 264.551L492.89 281.541L513.534 288.242L522.062 273.405C524.294 273.644 526.526 273.724 528.837 273.724C531.149 273.724 533.38 273.565 535.612 273.405L544.22 288.162L564.864 281.382L563.111 264.391C567.016 262.078 570.683 259.446 574.03 256.494L589.653 263.434L602.405 245.805L591.008 233.122C592.841 229.054 594.196 224.747 595.152 220.28L611.811 216.69V194.833L595.073 191.244C594.116 186.777 592.681 182.469 590.928 178.401L602.326 165.638L589.573 148.089L573.951 155.029C570.603 152.078 566.936 149.366 563.031 147.132L564.784 130.141L544.061 123.441L535.532 138.278C533.301 138.038 531.069 137.879 528.757 137.879ZM588.935 205.762C588.935 238.945 562.074 265.907 528.917 265.987C495.759 265.987 468.819 239.105 468.739 205.841C468.739 172.578 495.6 145.696 528.837 145.616C561.995 145.616 588.855 172.498 588.935 205.762Z"
    fill="#89C512"/>
  <path
    d="M481.536 197.84H484.436L488.296 208.54L492.276 197.84H494.996L489.276 212H487.096L481.536 197.84ZM501.202 210.68H501.142C500.795 211.227 500.355 211.627 499.822 211.88C499.288 212.12 498.702 212.24 498.062 212.24C497.622 212.24 497.188 212.18 496.762 212.06C496.348 211.94 495.975 211.76 495.642 211.52C495.322 211.28 495.062 210.98 494.862 210.62C494.662 210.26 494.562 209.84 494.562 209.36C494.562 208.84 494.655 208.4 494.842 208.04C495.028 207.667 495.275 207.36 495.582 207.12C495.902 206.867 496.268 206.667 496.682 206.52C497.095 206.373 497.522 206.267 497.962 206.2C498.415 206.12 498.868 206.073 499.322 206.06C499.775 206.033 500.202 206.02 500.602 206.02H501.202V205.76C501.202 205.16 500.995 204.713 500.582 204.42C500.168 204.113 499.642 203.96 499.002 203.96C498.495 203.96 498.022 204.053 497.582 204.24C497.142 204.413 496.762 204.653 496.442 204.96L495.182 203.7C495.715 203.153 496.335 202.76 497.042 202.52C497.762 202.28 498.502 202.16 499.262 202.16C499.942 202.16 500.515 202.24 500.982 202.4C501.448 202.547 501.835 202.74 502.142 202.98C502.448 203.22 502.682 203.5 502.842 203.82C503.015 204.127 503.135 204.44 503.202 204.76C503.282 205.08 503.328 205.393 503.342 205.7C503.355 205.993 503.362 206.253 503.362 206.48V212H501.202V210.68ZM501.062 207.7H500.562C500.228 207.7 499.855 207.713 499.442 207.74C499.028 207.767 498.635 207.833 498.262 207.94C497.902 208.033 497.595 208.18 497.342 208.38C497.088 208.567 496.962 208.833 496.962 209.18C496.962 209.407 497.008 209.6 497.102 209.76C497.208 209.907 497.342 210.033 497.502 210.14C497.662 210.247 497.842 210.327 498.042 210.38C498.242 210.42 498.442 210.44 498.642 210.44C499.468 210.44 500.075 210.247 500.462 209.86C500.862 209.46 501.062 208.92 501.062 208.24V207.7ZM505.984 196.88H508.384V212H505.984V196.88ZM511.199 202.4H513.599V212H511.199V202.4ZM510.859 199.14C510.859 198.753 510.999 198.42 511.279 198.14C511.572 197.847 511.939 197.7 512.379 197.7C512.819 197.7 513.185 197.84 513.479 198.12C513.785 198.387 513.939 198.727 513.939 199.14C513.939 199.553 513.785 199.9 513.479 200.18C513.185 200.447 512.819 200.58 512.379 200.58C511.939 200.58 511.572 200.44 511.279 200.16C510.999 199.867 510.859 199.527 510.859 199.14ZM523.954 210.56H523.914C523.567 211.147 523.101 211.573 522.514 211.84C521.927 212.107 521.294 212.24 520.614 212.24C519.867 212.24 519.201 212.113 518.614 211.86C518.041 211.593 517.547 211.233 517.134 210.78C516.721 210.327 516.407 209.793 516.194 209.18C515.981 208.567 515.874 207.907 515.874 207.2C515.874 206.493 515.987 205.833 516.214 205.22C516.441 204.607 516.754 204.073 517.154 203.62C517.567 203.167 518.061 202.813 518.634 202.56C519.207 202.293 519.834 202.16 520.514 202.16C520.967 202.16 521.367 202.207 521.714 202.3C522.061 202.393 522.367 202.513 522.634 202.66C522.901 202.807 523.127 202.967 523.314 203.14C523.501 203.3 523.654 203.46 523.774 203.62H523.834V196.88H526.234V212H523.954V210.56ZM518.274 207.2C518.274 207.573 518.334 207.933 518.454 208.28C518.587 208.627 518.774 208.933 519.014 209.2C519.267 209.467 519.567 209.68 519.914 209.84C520.261 210 520.654 210.08 521.094 210.08C521.534 210.08 521.927 210 522.274 209.84C522.621 209.68 522.914 209.467 523.154 209.2C523.407 208.933 523.594 208.627 523.714 208.28C523.847 207.933 523.914 207.573 523.914 207.2C523.914 206.827 523.847 206.467 523.714 206.12C523.594 205.773 523.407 205.467 523.154 205.2C522.914 204.933 522.621 204.72 522.274 204.56C521.927 204.4 521.534 204.32 521.094 204.32C520.654 204.32 520.261 204.4 519.914 204.56C519.567 204.72 519.267 204.933 519.014 205.2C518.774 205.467 518.587 205.773 518.454 206.12C518.334 206.467 518.274 206.827 518.274 207.2ZM534.952 210.68H534.892C534.545 211.227 534.105 211.627 533.572 211.88C533.038 212.12 532.452 212.24 531.812 212.24C531.372 212.24 530.938 212.18 530.512 212.06C530.098 211.94 529.725 211.76 529.392 211.52C529.072 211.28 528.812 210.98 528.612 210.62C528.412 210.26 528.312 209.84 528.312 209.36C528.312 208.84 528.405 208.4 528.592 208.04C528.778 207.667 529.025 207.36 529.332 207.12C529.652 206.867 530.018 206.667 530.432 206.52C530.845 206.373 531.272 206.267 531.712 206.2C532.165 206.12 532.618 206.073 533.072 206.06C533.525 206.033 533.952 206.02 534.352 206.02H534.952V205.76C534.952 205.16 534.745 204.713 534.332 204.42C533.918 204.113 533.392 203.96 532.752 203.96C532.245 203.96 531.772 204.053 531.332 204.24C530.892 204.413 530.512 204.653 530.192 204.96L528.932 203.7C529.465 203.153 530.085 202.76 530.792 202.52C531.512 202.28 532.252 202.16 533.012 202.16C533.692 202.16 534.265 202.24 534.732 202.4C535.198 202.547 535.585 202.74 535.892 202.98C536.198 203.22 536.432 203.5 536.592 203.82C536.765 204.127 536.885 204.44 536.952 204.76C537.032 205.08 537.078 205.393 537.092 205.7C537.105 205.993 537.112 206.253 537.112 206.48V212H534.952V210.68ZM534.812 207.7H534.312C533.978 207.7 533.605 207.713 533.192 207.74C532.778 207.767 532.385 207.833 532.012 207.94C531.652 208.033 531.345 208.18 531.092 208.38C530.838 208.567 530.712 208.833 530.712 209.18C530.712 209.407 530.758 209.6 530.852 209.76C530.958 209.907 531.092 210.033 531.252 210.14C531.412 210.247 531.592 210.327 531.792 210.38C531.992 210.42 532.192 210.44 532.392 210.44C533.218 210.44 533.825 210.247 534.212 209.86C534.612 209.46 534.812 208.92 534.812 208.24V207.7ZM538.574 204.44V202.4H540.554V199.62H542.954V202.4H545.594V204.44H542.954V208.64C542.954 209.12 543.041 209.5 543.214 209.78C543.401 210.06 543.761 210.2 544.294 210.2C544.507 210.2 544.741 210.18 544.994 210.14C545.247 210.087 545.447 210.007 545.594 209.9V211.92C545.341 212.04 545.027 212.12 544.654 212.16C544.294 212.213 543.974 212.24 543.694 212.24C543.054 212.24 542.527 212.167 542.114 212.02C541.714 211.887 541.394 211.68 541.154 211.4C540.927 211.107 540.767 210.747 540.674 210.32C540.594 209.893 540.554 209.4 540.554 208.84V204.44H538.574ZM547.527 202.4H549.927V212H547.527V202.4ZM547.187 199.14C547.187 198.753 547.327 198.42 547.607 198.14C547.9 197.847 548.267 197.7 548.707 197.7C549.147 197.7 549.514 197.84 549.807 198.12C550.114 198.387 550.267 198.727 550.267 199.14C550.267 199.553 550.114 199.9 549.807 200.18C549.514 200.447 549.147 200.58 548.707 200.58C548.267 200.58 547.9 200.44 547.607 200.16C547.327 199.867 547.187 199.527 547.187 199.14ZM552.682 202.4H554.962V203.94H555.002C555.229 203.46 555.576 203.047 556.042 202.7C556.509 202.34 557.142 202.16 557.942 202.16C558.582 202.16 559.122 202.267 559.562 202.48C560.016 202.693 560.382 202.973 560.662 203.32C560.942 203.667 561.142 204.067 561.262 204.52C561.382 204.973 561.442 205.447 561.442 205.94V212H559.042V207.14C559.042 206.873 559.029 206.58 559.002 206.26C558.976 205.927 558.902 205.62 558.782 205.34C558.676 205.047 558.502 204.807 558.262 204.62C558.022 204.42 557.696 204.32 557.282 204.32C556.882 204.32 556.542 204.387 556.262 204.52C555.996 204.653 555.769 204.833 555.582 205.06C555.409 205.287 555.282 205.547 555.202 205.84C555.122 206.133 555.082 206.44 555.082 206.76V212H552.682V202.4ZM574.047 202.4V211.14C574.047 212.007 573.94 212.787 573.727 213.48C573.513 214.187 573.18 214.78 572.727 215.26C572.287 215.753 571.727 216.133 571.047 216.4C570.367 216.667 569.56 216.8 568.627 216.8C567.733 216.8 566.887 216.687 566.087 216.46C565.287 216.233 564.547 215.82 563.867 215.22L565.307 213.26C565.787 213.7 566.287 214.04 566.807 214.28C567.327 214.52 567.927 214.64 568.607 214.64C569.18 214.64 569.66 214.56 570.047 214.4C570.447 214.24 570.76 214.02 570.987 213.74C571.227 213.46 571.393 213.12 571.487 212.72C571.593 212.333 571.647 211.9 571.647 211.42V210.72H571.607C571.26 211.187 570.8 211.54 570.227 211.78C569.653 212.007 569.067 212.12 568.467 212.12C567.747 212.12 567.093 211.993 566.507 211.74C565.92 211.473 565.413 211.12 564.987 210.68C564.573 210.24 564.253 209.72 564.027 209.12C563.8 208.52 563.687 207.88 563.687 207.2C563.687 206.493 563.793 205.833 564.007 205.22C564.22 204.607 564.533 204.073 564.947 203.62C565.36 203.167 565.853 202.813 566.427 202.56C567.013 202.293 567.68 202.16 568.427 202.16C569.107 202.16 569.74 202.293 570.327 202.56C570.913 202.827 571.38 203.253 571.727 203.84H571.767V202.4H574.047ZM568.927 204.32C568.5 204.32 568.113 204.393 567.767 204.54C567.42 204.673 567.12 204.867 566.867 205.12C566.627 205.36 566.433 205.66 566.287 206.02C566.153 206.367 566.087 206.753 566.087 207.18C566.087 207.567 566.153 207.927 566.287 208.26C566.433 208.593 566.633 208.887 566.887 209.14C567.14 209.393 567.44 209.593 567.787 209.74C568.133 209.887 568.507 209.96 568.907 209.96C569.347 209.96 569.74 209.887 570.087 209.74C570.447 209.593 570.747 209.4 570.987 209.16C571.24 208.907 571.433 208.607 571.567 208.26C571.7 207.913 571.767 207.54 571.767 207.14C571.767 206.3 571.513 205.62 571.007 205.1C570.5 204.58 569.807 204.32 568.927 204.32Z"
    fill="white"/>
</svg>
