<svg width="190" height="165" viewBox="0 0 190 165" fill="none" xmlns="http://www.w3.org/2000/svg">
  <title>[icon] Gas Optimizations</title>
  <path
    d="M0 0V164.734H189.3V0H0ZM185.254 4.33511V22.2536H4.62412V4.33511H185.254ZM4.62412 160.399V26.5887H185.254V160.399H4.62412Z"
    fill="#BB6BD9"/>
  <path d="M169.648 11.271H165.313V15.6061H169.648V11.271Z" fill="#BB6BD9"/>
  <path d="M147.683 11.271H143.348V15.6061H147.683V11.271Z" fill="#BB6BD9"/>
  <path d="M158.665 11.271H154.33V15.6061H158.665V11.271Z" fill="#BB6BD9"/>
  <path d="M129.764 11.271H18.4961V15.6061H129.764V11.271Z" fill="#BB6BD9"/>
  <path
    d="M48.7781 46.5924C48.8768 46.5929 48.9746 46.574 49.0659 46.5367C49.1572 46.4994 49.2402 46.4445 49.3103 46.375L50.0598 45.6255V70.8463C50.0598 71.045 50.1387 71.2357 50.2793 71.3762C50.4199 71.5168 50.6105 71.5958 50.8093 71.5958H68.3926C68.5914 71.5958 68.782 71.5168 68.9226 71.3762C69.0632 71.2357 69.1421 71.045 69.1421 70.8463C69.1421 70.6475 69.0632 70.4569 68.9226 70.3163C68.782 70.1757 68.5914 70.0968 68.3926 70.0968H51.5813V65.6747L59.4436 55.7813C59.8084 55.9021 60.2011 55.911 60.5711 55.8068C60.9411 55.7026 61.2714 55.4901 61.5197 55.1967L67.2084 57.685C67.2396 58.1936 67.4636 58.6712 67.8347 59.0203C68.2059 59.3694 68.6963 59.5638 69.2058 59.5638C69.7154 59.5638 70.2057 59.3694 70.5769 59.0203C70.9481 58.6712 71.1721 58.1936 71.2032 57.685C71.2003 57.3513 71.1126 57.0237 70.9484 56.7331L76.12 48.0164L76.9669 51.659C77.0065 51.8267 77.1026 51.9756 77.2391 52.0807C77.3756 52.1859 77.5442 52.2407 77.7164 52.2361H77.8888C77.9848 52.214 78.0755 52.1732 78.1557 52.1161C78.2359 52.0589 78.3041 51.9865 78.3563 51.9029C78.4085 51.8194 78.4437 51.7264 78.46 51.6292C78.4762 51.5321 78.4731 51.4327 78.4509 51.3367L77.1768 45.9478C77.1697 45.8281 77.134 45.7119 77.0727 45.6089C77.0114 45.5058 76.9263 45.419 76.8245 45.3557C76.7096 45.2936 76.5804 45.2625 76.4498 45.2657C76.3827 45.2559 76.3145 45.2559 76.2474 45.2657L70.7535 46.5399C70.5597 46.5846 70.3916 46.7045 70.2862 46.8732C70.1808 47.0419 70.1467 47.2455 70.1914 47.4393C70.2361 47.6331 70.356 47.8012 70.5247 47.9066C70.6934 48.0121 70.897 48.0462 71.0908 48.0014L74.9058 47.117L69.7642 55.7813C69.5798 55.7235 69.3878 55.6932 69.1946 55.6913C68.931 55.6915 68.6702 55.7439 68.427 55.8455C68.1839 55.9472 67.9633 56.096 67.778 56.2834L62.0218 53.7651C62.0099 53.2363 61.7884 52.734 61.4061 52.3685C61.0238 52.0031 60.512 51.8045 59.9832 51.8164C59.4544 51.8283 58.9521 52.0498 58.5866 52.4321C58.2212 52.8145 58.0226 53.3263 58.0345 53.855C58.0354 54.1824 58.1178 54.5044 58.2743 54.7919L51.5813 63.2763V45.5955L52.3308 46.345C52.4709 46.4881 52.6622 46.5697 52.8625 46.5718C53.0628 46.574 53.2557 46.4964 53.3988 46.3563C53.5419 46.2161 53.6235 46.0249 53.6256 45.8246C53.6277 45.6243 53.5502 45.4314 53.4101 45.2882L51.3564 43.2571C51.2865 43.1845 51.2027 43.1268 51.11 43.0874C51.0172 43.048 50.9175 43.0277 50.8168 43.0277C50.716 43.0277 50.6163 43.048 50.5236 43.0874C50.4309 43.1268 50.3471 43.1845 50.2771 43.2571L48.246 45.2882C48.1321 45.3915 48.0527 45.5274 48.0186 45.6774C47.9846 45.8274 47.9974 45.9842 48.0555 46.1266C48.1137 46.269 48.2142 46.39 48.3434 46.4734C48.4727 46.5567 48.6245 46.5982 48.7781 46.5924ZM69.2096 57.2053C69.3089 57.2053 69.406 57.2348 69.4886 57.29C69.5711 57.3451 69.6355 57.4236 69.6735 57.5153C69.7115 57.6071 69.7215 57.708 69.7021 57.8055C69.6827 57.9029 69.6349 57.9923 69.5647 58.0626C69.4944 58.1328 69.4049 58.1806 69.3075 58.2C69.2101 58.2194 69.1092 58.2094 69.0174 58.1714C68.9256 58.1334 68.8472 58.0691 68.792 57.9865C68.7369 57.9039 68.7074 57.8068 68.7074 57.7075C68.7074 57.5743 68.7603 57.4466 68.8545 57.3524C68.9487 57.2582 69.0764 57.2053 69.2096 57.2053ZM60.0207 53.3754C60.12 53.3754 60.2171 53.4048 60.2997 53.46C60.3822 53.5152 60.4466 53.5936 60.4846 53.6854C60.5226 53.7771 60.5326 53.8781 60.5132 53.9755C60.4938 54.0729 60.446 54.1624 60.3758 54.2326C60.3055 54.3028 60.216 54.3507 60.1186 54.37C60.0212 54.3894 59.9203 54.3795 59.8285 54.3415C59.7367 54.3035 59.6583 54.2391 59.6031 54.1565C59.548 54.0739 59.5185 53.9768 59.5185 53.8775C59.5185 53.7443 59.5714 53.6166 59.6656 53.5224C59.7598 53.4283 59.8875 53.3754 60.0207 53.3754Z"
    fill="#BB6BD9"/>
  <path
    d="M113.813 73.3347C113.801 73.3141 113.789 73.2941 113.775 73.2747L113.715 73.2373C109.04 68.5834 102.716 65.9638 96.1187 65.9484C89.5219 65.9329 83.1857 68.5229 78.4885 73.1548C78.4178 73.1838 78.3535 73.2266 78.2995 73.2806C78.2455 73.3347 78.2027 73.3989 78.1737 73.4696C73.5608 78.1677 70.9832 84.4932 70.9986 91.0773C71.014 97.6615 73.6213 103.975 78.2561 108.651H78.3086C78.3086 108.651 78.3086 108.651 78.3086 108.704C78.449 108.843 78.639 108.922 78.837 108.922C79.035 108.922 79.225 108.843 79.3654 108.704L83.1129 104.956C83.2357 104.813 83.2999 104.628 83.2926 104.44C83.2853 104.251 83.2071 104.072 83.0736 103.939C82.9401 103.805 82.7612 103.727 82.5725 103.72C82.3839 103.712 82.1995 103.777 82.0561 103.899L78.8857 107.07C74.9529 102.919 72.676 97.4722 72.485 91.7575H76.982C77.1808 91.7575 77.3714 91.6785 77.512 91.5379C77.6525 91.3974 77.7315 91.2067 77.7315 91.008C77.7315 90.8092 77.6525 90.6185 77.512 90.478C77.3714 90.3374 77.1808 90.2585 76.982 90.2585H72.485C72.6623 84.5383 74.9224 79.0798 78.8407 74.9086L81.9812 78.0491C82.1208 78.1875 82.3092 78.2656 82.5058 78.2664H82.5433C82.6921 78.2673 82.8379 78.2238 82.962 78.1415C83.086 78.0592 83.1828 77.9418 83.2398 77.8043C83.2969 77.6668 83.3118 77.5155 83.2825 77.3695C83.2532 77.2235 83.1811 77.0896 83.0754 76.9848L79.9125 73.8219C84.0861 69.8903 89.5539 67.6216 95.2848 67.4436V71.9406C95.2848 72.1394 95.3638 72.33 95.5043 72.4706C95.6449 72.6112 95.8355 72.6901 96.0343 72.6901C96.2331 72.6901 96.4237 72.6112 96.5643 72.4706C96.7049 72.33 96.7838 72.1394 96.7838 71.9406V67.4436C102.515 67.6216 107.983 69.8903 112.156 73.8219L108.993 76.9848C108.915 77.052 108.851 77.1346 108.806 77.2276C108.761 77.3206 108.736 77.4219 108.732 77.5251C108.728 77.6283 108.745 77.7313 108.783 77.8274C108.821 77.9236 108.878 78.011 108.951 78.084C109.024 78.1571 109.111 78.2142 109.207 78.2519C109.304 78.2896 109.406 78.307 109.51 78.303C109.613 78.299 109.714 78.2737 109.807 78.2287C109.9 78.1837 109.983 78.12 110.05 78.0416L113.235 74.8862C117.161 79.0619 119.425 84.5295 119.599 90.2585H115.102C114.903 90.2585 114.712 90.3374 114.572 90.478C114.431 90.6185 114.352 90.8092 114.352 91.008C114.352 91.2067 114.431 91.3974 114.572 91.5379C114.712 91.6785 114.903 91.7575 115.102 91.7575H119.599C119.551 93.3508 119.343 94.9353 118.977 96.4868L114.607 95.2951C114.512 95.269 114.413 95.2619 114.315 95.2742C114.217 95.2864 114.123 95.3178 114.037 95.3665C113.952 95.4152 113.877 95.4803 113.816 95.5581C113.756 95.6359 113.711 95.7248 113.685 95.8198C113.659 95.9147 113.652 96.0139 113.664 96.1117C113.676 96.2094 113.708 96.3038 113.757 96.3894C113.805 96.475 113.87 96.5501 113.948 96.6106C114.026 96.671 114.115 96.7156 114.21 96.7417L118.587 97.9334C118.109 99.4953 117.469 101.003 116.676 102.43L112.786 100.107C112.701 100.045 112.604 100.002 112.502 99.9801C112.399 99.9582 112.293 99.9581 112.19 99.9797C112.088 100.001 111.991 100.044 111.906 100.106C111.821 100.167 111.75 100.246 111.697 100.336C111.644 100.427 111.611 100.528 111.6 100.632C111.588 100.736 111.599 100.842 111.631 100.942C111.663 101.041 111.716 101.134 111.785 101.212C111.855 101.29 111.941 101.353 112.036 101.396L115.926 103.705C115.135 104.935 114.232 106.089 113.228 107.152L110.043 103.967C109.899 103.844 109.715 103.78 109.526 103.787C109.337 103.794 109.159 103.873 109.025 104.006C108.892 104.14 108.813 104.319 108.806 104.507C108.799 104.696 108.863 104.88 108.986 105.024L112.733 108.771C112.902 108.898 113.109 108.962 113.32 108.953C113.53 108.943 113.731 108.86 113.887 108.719C118.56 104.023 121.182 97.6692 121.182 91.0454C121.182 84.4217 118.56 78.0674 113.887 73.3722L113.813 73.3347Z"
    fill="#BB6BD9"/>
  <path
    d="M107.104 95.6175L99.6091 90.6333C99.6091 90.5433 99.6091 90.4459 99.6091 90.3559C99.4856 89.685 99.1742 89.0628 98.7112 88.5618C98.2481 88.0607 97.6524 87.7014 96.9932 87.5255C96.3341 87.3495 95.6385 87.3643 94.9874 87.5679C94.3362 87.7716 93.7563 88.1559 93.3148 88.676C92.8734 89.1962 92.5886 89.831 92.4936 90.5066C92.3986 91.1822 92.4973 91.8709 92.7781 92.4927C93.059 93.1144 93.5105 93.6437 94.0802 94.0191C94.6499 94.3944 95.3144 94.6004 95.9965 94.6131C96.2178 94.6132 96.4385 94.5931 96.6561 94.5532C97.0517 94.4772 97.4317 94.3353 97.7803 94.1334L106.49 96.9591C106.663 97.0183 106.852 97.0119 107.021 96.941C107.191 96.8701 107.328 96.7396 107.407 96.5743C107.487 96.409 107.503 96.2204 107.452 96.044C107.402 95.8677 107.289 95.7159 107.134 95.6175H107.104ZM96.3788 93.0841C95.8319 93.1771 95.2704 93.0505 94.8163 92.7319C94.3622 92.4134 94.0521 91.9285 93.9534 91.3826C93.8546 90.8367 93.9753 90.2739 94.2891 89.8165C94.6029 89.359 95.0845 89.0438 95.6293 88.9394C95.7564 88.928 95.8844 88.928 96.0115 88.9394C96.5412 88.934 97.0534 89.1285 97.4462 89.4839C97.8389 89.8394 98.0832 90.3298 98.1305 90.8574C98.1778 91.385 98.0245 91.911 97.7013 92.3307C97.378 92.7503 96.9085 93.0327 96.3863 93.1216L96.3788 93.0841ZM98.9945 92.9717C99.1333 92.7572 99.2489 92.5286 99.3393 92.2897L101.678 93.8336L98.9945 92.9717Z"
    fill="#BB6BD9"/>
  <path
    d="M127.416 91.008C127.416 84.7957 125.574 78.7229 122.123 73.5574C118.671 68.392 113.766 64.3659 108.027 61.9882C102.287 59.6105 95.972 58.988 89.879 60.1994C83.7859 61.4108 78.1889 64.4018 73.7956 68.794C69.4023 73.1862 66.41 78.7826 65.1971 84.8753C63.9843 90.9681 64.6053 97.2837 66.9816 103.024C69.3579 108.763 73.3829 113.67 78.5475 117.122C83.7121 120.575 89.7845 122.418 95.9968 122.42C104.324 122.404 112.305 119.09 118.193 113.202C124.082 107.315 127.398 99.3347 127.416 91.008ZM95.9968 120.921C90.081 120.919 84.2984 119.164 79.3803 115.876C74.4622 112.588 70.6294 107.916 68.3665 102.45C66.1036 96.984 65.5123 90.9698 66.6673 85.1678C67.8224 79.3658 70.6719 74.0366 74.8555 69.854C79.0392 65.6713 84.3691 62.8232 90.1714 61.6696C95.9737 60.516 101.988 61.1088 107.453 63.3731C112.919 65.6373 117.59 69.4713 120.876 74.3902C124.163 79.3092 125.917 85.0922 125.917 91.008C125.899 98.9372 122.741 106.536 117.133 112.142C111.526 117.748 103.926 120.905 95.9968 120.921Z"
    fill="#BB6BD9"/>
  <path
    d="M138.134 109.161H138.029C137.279 109.401 136.657 109.648 136.185 109.843C132.615 111.229 129.344 113.284 126.546 115.899L126.142 116.319C123.211 115.869 121.899 116.319 118.062 120.141C117.039 121.147 116.199 122.324 115.581 123.619C115.534 123.728 115.514 123.847 115.523 123.966C115.531 124.084 115.567 124.199 115.629 124.301C115.69 124.403 115.775 124.489 115.876 124.551C115.978 124.614 116.092 124.651 116.211 124.661L120.888 125.058C120.753 125.589 120.665 126.13 120.625 126.677C120.618 126.783 120.634 126.889 120.672 126.989C120.709 127.088 120.768 127.179 120.843 127.254L122.424 128.835L121.809 129.45C121.731 129.517 121.667 129.6 121.622 129.693C121.577 129.786 121.552 129.887 121.548 129.99C121.544 130.094 121.561 130.196 121.599 130.293C121.637 130.389 121.694 130.476 121.767 130.549C121.84 130.622 121.927 130.679 122.024 130.717C122.12 130.755 122.223 130.772 122.326 130.768C122.429 130.764 122.53 130.739 122.623 130.694C122.716 130.649 122.799 130.585 122.866 130.507L123.481 129.892L125.062 131.474C125.132 131.543 125.215 131.598 125.307 131.635C125.398 131.673 125.496 131.692 125.594 131.691H125.639C126.186 131.652 126.728 131.564 127.258 131.429L127.656 136.106C127.665 136.224 127.703 136.339 127.765 136.44C127.828 136.541 127.913 136.626 128.015 136.687C128.117 136.749 128.232 136.785 128.35 136.794C128.469 136.802 128.588 136.782 128.697 136.735C129.992 136.117 131.169 135.278 132.175 134.254C136.013 130.417 136.447 129.105 135.998 126.175L136.417 125.77C141.379 120.808 145.261 110.54 143.515 108.801C142.616 107.932 140.127 108.501 138.134 109.161ZM142.436 109.91C142.514 110.693 142.422 111.483 142.166 112.226C141.881 111.889 141.551 111.529 141.192 111.17C140.832 110.81 140.442 110.42 140.112 110.165C140.866 109.897 141.671 109.805 142.466 109.895L142.436 109.91ZM117.462 123.289C117.942 122.546 118.497 121.856 119.119 121.228C122.117 118.23 123.226 117.593 124.92 117.705C123.41 119.464 122.2 121.46 121.337 123.611L117.462 123.289ZM131.118 133.22C130.491 133.842 129.8 134.398 129.057 134.876L128.727 131.001C130.879 130.139 132.874 128.929 134.633 127.419C134.746 129.113 134.139 130.192 131.111 133.22H131.118ZM135.353 124.736C132.265 127.824 128.675 129.885 125.872 130.192L124.538 128.858L131.321 122.075C131.443 121.931 131.508 121.747 131.5 121.558C131.493 121.37 131.415 121.191 131.281 121.057C131.148 120.924 130.969 120.846 130.78 120.838C130.592 120.831 130.407 120.895 130.264 121.018L123.481 127.801L122.147 126.467C122.454 123.671 124.515 120.074 127.603 116.993C130.691 113.913 135.038 111.814 138.314 110.69C138.977 111.117 139.588 111.62 140.135 112.189C140.7 112.725 141.203 113.323 141.634 113.973C140.51 117.286 138.321 121.738 135.353 124.736Z"
    fill="#BB6BD9"/>
  <path
    d="M120.618 131.721C120.477 131.581 120.287 131.503 120.089 131.503C119.891 131.503 119.701 131.581 119.561 131.721L113.565 137.717C113.487 137.784 113.423 137.867 113.378 137.96C113.333 138.053 113.308 138.154 113.304 138.257C113.3 138.361 113.317 138.464 113.355 138.56C113.392 138.656 113.449 138.743 113.523 138.816C113.596 138.889 113.683 138.946 113.779 138.984C113.875 139.022 113.978 139.039 114.081 139.035C114.185 139.031 114.286 139.006 114.379 138.961C114.472 138.916 114.555 138.852 114.622 138.774L120.618 132.778C120.757 132.637 120.836 132.447 120.836 132.249C120.836 132.051 120.757 131.861 120.618 131.721Z"
    fill="#BB6BD9"/>
  <path
    d="M115.304 132.598C115.402 132.598 115.5 132.58 115.592 132.542C115.683 132.505 115.766 132.45 115.836 132.38L119.194 129.023C119.316 128.879 119.381 128.695 119.373 128.506C119.366 128.318 119.288 128.139 119.154 128.005C119.021 127.872 118.842 127.794 118.653 127.786C118.465 127.779 118.28 127.843 118.137 127.966L114.734 131.324C114.628 131.429 114.556 131.562 114.527 131.708C114.498 131.854 114.513 132.006 114.57 132.143C114.627 132.281 114.724 132.398 114.848 132.48C114.972 132.563 115.117 132.606 115.266 132.605L115.304 132.598Z"
    fill="#BB6BD9"/>
  <path
    d="M123.316 133.152L119.981 136.51C119.902 136.577 119.839 136.66 119.794 136.753C119.749 136.846 119.723 136.947 119.719 137.051C119.715 137.154 119.733 137.257 119.77 137.353C119.808 137.449 119.865 137.536 119.938 137.609C120.011 137.683 120.099 137.74 120.195 137.777C120.291 137.815 120.394 137.832 120.497 137.828C120.6 137.824 120.702 137.799 120.795 137.754C120.888 137.709 120.97 137.645 121.038 137.567L124.395 134.209C124.518 134.066 124.582 133.881 124.575 133.693C124.568 133.504 124.489 133.325 124.356 133.192C124.223 133.058 124.044 132.98 123.855 132.973C123.666 132.966 123.482 133.03 123.339 133.152H123.316Z"
    fill="#BB6BD9"/>
  <path
    d="M135.203 113.605C134.506 113.605 133.825 113.812 133.246 114.199C132.667 114.586 132.215 115.136 131.949 115.78C131.682 116.424 131.612 117.132 131.748 117.815C131.884 118.499 132.22 119.126 132.712 119.619C133.205 120.112 133.833 120.447 134.516 120.583C135.199 120.719 135.907 120.649 136.551 120.383C137.195 120.116 137.745 119.664 138.132 119.085C138.519 118.506 138.726 117.825 138.726 117.128C138.724 116.194 138.352 115.3 137.692 114.639C137.032 113.979 136.137 113.607 135.203 113.605ZM135.203 119.152C134.803 119.152 134.412 119.033 134.079 118.811C133.746 118.588 133.487 118.272 133.333 117.902C133.18 117.533 133.14 117.126 133.218 116.733C133.296 116.341 133.489 115.98 133.772 115.697C134.055 115.414 134.416 115.221 134.808 115.143C135.201 115.065 135.608 115.105 135.978 115.258C136.347 115.412 136.663 115.671 136.886 116.004C137.108 116.337 137.227 116.728 137.227 117.128C137.228 117.394 137.176 117.658 137.075 117.905C136.974 118.151 136.825 118.375 136.637 118.564C136.449 118.753 136.225 118.902 135.979 119.004C135.733 119.107 135.469 119.159 135.203 119.159V119.152Z"
    fill="#BB6BD9"/>
  <path
    d="M109.33 135.521C107.269 136.134 105.168 136.605 103.042 136.93C90.8607 138.798 78.4364 135.751 68.5019 128.459C58.5673 121.166 51.9362 110.227 50.067 98.0458C49.6938 95.6054 49.5133 93.1394 49.5274 90.6707C49.5274 90.4719 49.4484 90.2813 49.3079 90.1407C49.1673 90.0002 48.9767 89.9212 48.7779 89.9212C48.5791 89.9212 48.3885 90.0002 48.2479 90.1407C48.1074 90.2813 48.0284 90.4719 48.0284 90.6707C48.0161 93.2148 48.2041 95.756 48.5905 98.2707C50.3233 109.584 56.0441 119.904 64.7197 127.369C73.3953 134.834 84.4541 138.951 95.8991 138.976C100.592 138.975 105.259 138.296 109.757 136.96C109.948 136.903 110.109 136.773 110.204 136.598C110.299 136.423 110.32 136.218 110.263 136.027C110.207 135.836 110.077 135.676 109.902 135.581C109.727 135.486 109.521 135.464 109.33 135.521Z"
    fill="#BB6BD9"/>
  <path
    d="M49.2953 80.0128C49.003 81.257 48.7557 82.5236 48.5458 83.7603C48.5309 83.8578 48.5354 83.9572 48.559 84.0529C48.5826 84.1487 48.6249 84.2388 48.6833 84.3182C48.7418 84.3975 48.8154 84.4646 48.8998 84.5155C48.9843 84.5664 49.0779 84.6001 49.1754 84.6148H49.2878C49.4686 84.6168 49.644 84.5534 49.7817 84.4364C49.9195 84.3193 50.0102 84.1564 50.0373 83.9777C50.2247 82.756 50.4571 81.5268 50.7419 80.3276C50.7876 80.1338 50.7545 79.9298 50.6497 79.7604C50.545 79.591 50.3773 79.4702 50.1835 79.4244C49.9897 79.3787 49.7857 79.4119 49.6163 79.5166C49.4469 79.6213 49.3261 79.789 49.2803 79.9828L49.2953 80.0128Z"
    fill="#BB6BD9"/>
  <path
    d="M58.1542 107.377C57.9736 107.459 57.8327 107.609 57.7625 107.794C57.6922 107.98 57.6983 108.185 57.7794 108.366C58.3191 109.558 58.9262 110.742 59.5782 111.882C59.682 112.045 59.8447 112.161 60.0324 112.207C60.2202 112.253 60.4185 112.225 60.5858 112.128C60.7532 112.032 60.8767 111.874 60.9306 111.688C60.9844 111.503 60.9645 111.303 60.8749 111.132C60.2453 110.038 59.6607 108.884 59.136 107.744C59.0529 107.567 58.9035 107.429 58.72 107.36C58.5365 107.292 58.3334 107.298 58.1542 107.377Z"
    fill="#BB6BD9"/>
  <path
    d="M109.286 129.232C101.447 131.945 92.9659 132.189 84.985 129.93C77.004 127.672 69.9076 123.021 64.6527 116.603C64.5902 116.527 64.5133 116.464 64.4264 116.417C64.3394 116.371 64.2442 116.342 64.1461 116.332C64.0479 116.322 63.9488 116.332 63.8544 116.361C63.7601 116.389 63.6722 116.436 63.5959 116.498C63.5197 116.561 63.4564 116.638 63.4099 116.725C63.3633 116.812 63.3343 116.907 63.3246 117.005C63.3149 117.103 63.3245 117.202 63.3531 117.297C63.3816 117.391 63.4285 117.479 63.491 117.555C67.4468 122.371 72.4197 126.252 78.0528 128.919C83.6859 131.586 89.8394 132.973 96.0719 132.98C98.1796 132.98 100.284 132.82 102.368 132.5C104.889 132.115 107.37 131.503 109.78 130.672C109.877 130.642 109.966 130.594 110.043 130.529C110.121 130.465 110.184 130.385 110.23 130.295C110.276 130.206 110.303 130.108 110.31 130.007C110.317 129.907 110.304 129.806 110.271 129.711C110.239 129.615 110.187 129.528 110.12 129.453C110.052 129.378 109.97 129.317 109.879 129.275C109.788 129.232 109.689 129.209 109.588 129.205C109.487 129.202 109.387 129.219 109.293 129.255L109.286 129.232Z"
    fill="#BB6BD9"/>
  <path
    d="M81.6661 46.8248C84.0711 46.0456 86.5349 45.4616 89.0337 45.0785C95.0658 44.1537 101.221 44.426 107.148 45.88C113.075 47.334 118.657 49.9412 123.576 53.5526C128.495 57.1641 132.655 61.7091 135.818 66.9281C138.98 72.1472 141.084 77.9381 142.009 83.9702C142.226 85.4092 142.383 86.8707 142.473 88.3173C142.485 88.5082 142.569 88.6874 142.708 88.8184C142.847 88.9494 143.032 89.0222 143.223 89.0218H143.268C143.366 89.0161 143.463 88.991 143.551 88.9479C143.64 88.9048 143.72 88.8447 143.785 88.7709C143.85 88.697 143.901 88.611 143.933 88.5178C143.965 88.4245 143.978 88.3258 143.972 88.2273C143.882 86.7283 143.725 85.2293 143.493 83.7303C141.561 71.1568 134.714 59.8655 124.457 52.34C114.201 44.8146 101.375 41.6715 88.8014 43.602C86.2238 43.9963 83.6823 44.5978 81.2014 45.4008C81.0195 45.4678 80.8705 45.6027 80.786 45.7772C80.7014 45.9517 80.6878 46.1522 80.7479 46.3366C80.8081 46.521 80.9373 46.6748 81.1086 46.7659C81.2798 46.8569 81.4796 46.878 81.6661 46.8248Z"
    fill="#BB6BD9"/>
  <path
    d="M143.215 93.8636C143.018 93.8491 142.822 93.9135 142.672 94.0428C142.522 94.172 142.429 94.3555 142.413 94.5531C142.323 95.6999 142.196 96.8541 142.024 97.9858C142.009 98.0833 142.013 98.1827 142.037 98.2785C142.06 98.3742 142.103 98.4643 142.161 98.5437C142.22 98.6231 142.293 98.6901 142.378 98.741C142.462 98.7919 142.556 98.8256 142.653 98.8403H142.766C142.946 98.8423 143.122 98.779 143.26 98.6619C143.397 98.5448 143.488 98.3819 143.515 98.2032C143.695 97.034 143.83 95.8423 143.92 94.658C143.926 94.5596 143.913 94.4609 143.88 94.3676C143.848 94.2743 143.798 94.1883 143.733 94.1145C143.667 94.0407 143.588 93.9806 143.499 93.9375C143.41 93.8944 143.314 93.8693 143.215 93.8636Z"
    fill="#BB6BD9"/>
  <path
    d="M131.643 70.9062C131.775 70.9062 131.905 70.8711 132.02 70.8046C132.134 70.7381 132.229 70.6426 132.294 70.5276C132.36 70.4127 132.394 70.2824 132.392 70.1501C132.391 70.0179 132.355 69.8882 132.288 69.7744C131.613 68.6277 130.879 67.5259 130.099 66.4242C130.043 66.3399 129.971 66.2678 129.887 66.2122C129.803 66.1566 129.708 66.1185 129.608 66.1004C129.509 66.0823 129.407 66.0844 129.309 66.1067C129.21 66.129 129.117 66.171 129.035 66.2302C128.953 66.2893 128.884 66.3644 128.832 66.4509C128.78 66.5374 128.746 66.6336 128.732 66.7336C128.718 66.8336 128.724 66.9354 128.75 67.033C128.777 67.1305 128.822 67.2217 128.885 67.3011C129.634 68.3429 130.384 69.4297 130.998 70.5314C131.064 70.6447 131.158 70.7389 131.271 70.8047C131.384 70.8704 131.512 70.9054 131.643 70.9062Z"
    fill="#BB6BD9"/>
  <path
    d="M81.696 53.173C89.0949 50.3661 97.1534 49.7858 104.878 51.5039C112.603 53.222 119.656 57.1632 125.167 62.8416C125.234 62.9236 125.317 62.9905 125.411 63.0381C125.506 63.0857 125.609 63.1128 125.714 63.1177C125.82 63.1226 125.925 63.1051 126.023 63.0664C126.122 63.0277 126.211 62.9687 126.284 62.8933C126.358 62.8178 126.415 62.7276 126.452 62.6285C126.489 62.5294 126.504 62.4238 126.497 62.3184C126.49 62.213 126.46 62.1104 126.411 62.0171C126.361 61.9239 126.292 61.8422 126.209 61.7773C120.494 55.9012 113.187 51.8235 105.185 50.0458C97.1834 48.2681 88.8366 48.8679 81.1714 51.7715C80.9855 51.842 80.8353 51.9836 80.7538 52.1649C80.6723 52.3462 80.6661 52.5525 80.7367 52.7383C80.8072 52.9242 80.9488 53.0744 81.1301 53.1559C81.3114 53.2375 81.5177 53.2436 81.7035 53.173H81.696Z"
    fill="#BB6BD9"/>
  <path
    d="M131.508 104.169C132.04 104.279 132.565 104.416 133.082 104.581C133.257 105.221 133.4 105.869 133.509 106.523C133.509 106.721 133.588 106.912 133.729 107.053C133.869 107.193 134.06 107.272 134.259 107.272C134.458 107.272 134.648 107.193 134.789 107.053C134.929 106.912 135.008 106.721 135.008 106.523C135.118 105.869 135.261 105.221 135.435 104.581C135.952 104.416 136.478 104.279 137.009 104.169C137.208 104.169 137.399 104.09 137.539 103.95C137.68 103.809 137.759 103.618 137.759 103.42C137.759 103.221 137.68 103.03 137.539 102.89C137.399 102.749 137.208 102.67 137.009 102.67C136.478 102.56 135.952 102.423 135.435 102.258C135.261 101.618 135.118 100.971 135.008 100.317C135.008 100.118 134.929 99.9273 134.789 99.7867C134.648 99.6462 134.458 99.5672 134.259 99.5672C134.06 99.5672 133.869 99.6462 133.729 99.7867C133.588 99.9273 133.509 100.118 133.509 100.317C133.399 100.971 133.257 101.618 133.082 102.258C132.565 102.423 132.04 102.561 131.508 102.67C131.309 102.67 131.119 102.749 130.978 102.89C130.838 103.03 130.759 103.221 130.759 103.42C130.759 103.618 130.838 103.809 130.978 103.95C131.119 104.09 131.309 104.169 131.508 104.169ZM134.184 103.375L134.251 103.3L134.319 103.375L134.394 103.442L134.319 103.51L134.251 103.585L134.184 103.51L134.109 103.442L134.184 103.375Z"
    fill="#BB6BD9"/>
  <path
    d="M61.692 77.5169C61.6946 77.3384 61.6334 77.1647 61.5193 77.0273C61.4053 76.8899 61.2459 76.7977 61.07 76.7674C60.3729 76.6475 59.5335 76.4676 59.1437 76.3477C59.0238 75.8755 58.8289 74.7437 58.7015 73.7844C58.7015 73.5856 58.6226 73.395 58.482 73.2544C58.3414 73.1138 58.1508 73.0349 57.952 73.0349C57.7532 73.0349 57.5626 73.1138 57.422 73.2544C57.2815 73.395 57.2025 73.5856 57.2025 73.7844C57.0751 74.7363 56.8802 75.8755 56.7603 76.3477C56.3781 76.4676 55.5311 76.6475 54.8341 76.7674C54.6353 76.7674 54.4447 76.8464 54.3041 76.9869C54.1636 77.1275 54.0846 77.3181 54.0846 77.5169C54.0846 77.7157 54.1636 77.9063 54.3041 78.0469C54.4447 78.1874 54.6353 78.2664 54.8341 78.2664C55.5311 78.3863 56.3706 78.5662 56.7603 78.6861C56.8802 79.1583 57.0751 80.2901 57.2025 81.2494C57.2025 81.4482 57.2815 81.6388 57.422 81.7794C57.5626 81.92 57.7532 81.9989 57.952 81.9989C58.1508 81.9989 58.3414 81.92 58.482 81.7794C58.6226 81.6388 58.7015 81.4482 58.7015 81.2494C58.8289 80.2976 59.0238 79.1583 59.1437 78.6861C59.526 78.5662 60.3729 78.3863 61.07 78.2664C61.2459 78.2361 61.4053 78.1439 61.5193 78.0065C61.6334 77.8691 61.6946 77.6955 61.692 77.5169ZM58.0345 77.5844L57.967 77.6593L57.8996 77.5844L57.8246 77.5169L57.8996 77.4495L57.967 77.3745L58.0345 77.4495L58.1094 77.5169L58.0345 77.5844Z"
    fill="#BB6BD9"/>
</svg>
