<svg width="115" height="116" viewBox="0 0 115 116" fill="none" xmlns="http://www.w3.org/2000/svg">
<title>[Icon] 2. Rough api design proposal</title>
  <path d="M1.91667 62.0252H3.83333V71.6086C3.83689 74.3254 4.80062 76.9535 6.55423 79.0285C8.30785 81.1036 10.7385 82.492 13.4167 82.9485V113.775C13.4167 114.284 13.6186 114.771 13.978 115.131C14.3375 115.49 14.825 115.692 15.3333 115.692H34.5C35.0083 115.692 35.4958 115.49 35.8553 115.131C36.2147 114.771 36.4167 114.284 36.4167 113.775V82.9485C39.0948 82.492 41.5255 81.1036 43.2791 79.0285C45.0327 76.9535 45.9964 74.3254 46 71.6086V62.0252H47.9167C48.425 62.0252 48.9125 61.8233 49.272 61.4638C49.6314 61.1044 49.8333 60.6169 49.8333 60.1086V2.60856C49.8333 2.10023 49.6314 1.61272 49.272 1.25327C48.9125 0.893828 48.425 0.691895 47.9167 0.691895H1.91667C1.40833 0.691895 0.920823 0.893828 0.561379 1.25327C0.201934 1.61272 0 2.10023 0 2.60856V60.1086C0 60.6169 0.201934 61.1044 0.561379 61.4638C0.920823 61.8233 1.40833 62.0252 1.91667 62.0252ZM42.1667 71.6086C42.1643 73.6412 41.3559 75.5899 39.9186 77.0271C38.4813 78.4644 36.5326 79.2729 34.5 79.2752C33.9917 79.2752 33.5042 79.4772 33.1447 79.8366C32.7853 80.196 32.5833 80.6836 32.5833 81.1919V111.859H26.8333V92.6919H23V111.859H17.25V81.1919C17.25 80.6836 17.0481 80.196 16.6886 79.8366C16.3292 79.4772 15.8417 79.2752 15.3333 79.2752C13.3007 79.2729 11.352 78.4644 9.91475 77.0271C8.47747 75.5899 7.66899 73.6412 7.66667 71.6086V62.0252H11.5V70.5155C11.5014 71.8216 12.0208 73.0739 12.9444 73.9975C13.868 74.9211 15.1203 75.4405 16.4264 75.4419H20.6584C21.029 75.4419 21.3916 75.3346 21.7023 75.1328C22.0131 74.931 22.2587 74.6435 22.4094 74.305C22.5602 73.9665 22.6095 73.5916 22.5516 73.2256C22.4936 72.8596 22.3308 72.5183 22.0828 72.243C21.4427 71.5473 21.0861 70.6372 21.0833 69.6919C21.0827 68.747 21.4311 67.8351 22.0616 67.1312C22.692 66.4274 23.5602 65.9811 24.4995 65.8781C25.4388 65.7751 26.3831 66.0226 27.1511 66.573C27.9192 67.1235 28.4569 67.9382 28.6611 68.8608C28.7933 69.4561 28.7796 70.0745 28.621 70.6633C28.4625 71.2521 28.1638 71.7938 27.7505 72.2421C27.5025 72.5175 27.3397 72.8589 27.2817 73.2249C27.2237 73.591 27.273 73.966 27.4237 74.3045C27.5745 74.6431 27.8201 74.9307 28.1309 75.1326C28.4417 75.3344 28.8043 75.4419 29.1749 75.4419H33.4069C34.713 75.4405 35.9653 74.9211 36.8889 73.9975C37.8125 73.0739 38.332 71.8216 38.3333 70.5155V62.0252H42.1667V71.6086ZM32.4102 68.0654C32.0089 66.2165 30.9381 64.5813 29.404 63.4743C27.8698 62.3672 25.9805 61.8665 24.0994 62.0683C22.2183 62.2701 20.4783 63.1603 19.2139 64.5676C17.9495 65.9749 17.25 67.8 17.25 69.6919C17.2499 70.3389 17.3335 70.9831 17.4989 71.6086H16.4264C16.1366 71.6082 15.8588 71.4929 15.6539 71.288C15.449 71.0831 15.3337 70.8053 15.3333 70.5155V62.0252H34.5V70.5155C34.4996 70.8053 34.3844 71.0831 34.1795 71.288C33.9745 71.4929 33.6967 71.6082 33.4069 71.6086H32.3363C32.6377 70.4495 32.663 69.2359 32.4102 68.0654ZM3.83333 4.52523H46V58.1919H3.83333V4.52523Z" fill="white"/>
<path d="M34.5 8.35856H15.3334V12.1919H34.5V8.35856Z" fill="white"/>
<path d="M21.0833 16.0252H7.66663V19.8586H21.0833V16.0252Z" fill="white"/>
<path d="M42.1666 16.0252H24.9166V19.8586H42.1666V16.0252Z" fill="white"/>
<path d="M15.3333 23.6919H7.66663V27.5252H15.3333V23.6919Z" fill="white"/>
<path d="M42.1666 23.6919H19.1666V27.5252H42.1666V23.6919Z" fill="white"/>
<path d="M30.6666 31.3586H7.66663V35.1919H30.6666V31.3586Z" fill="white"/>
<path d="M42.1667 31.3586H34.5V35.1919H42.1667V31.3586Z" fill="white"/>
<path d="M17.25 39.0252H7.66663V42.8586H17.25V39.0252Z" fill="white"/>
<path d="M42.1667 39.0252H21.0834V42.8586H42.1667V39.0252Z" fill="white"/>
<path d="M42.1666 50.5252H30.6666V54.3586H42.1666V50.5252Z" fill="white"/>
<path d="M113.083 31.3586H67.0833C67.0538 31.3586 67.0294 31.3741 67.0001 31.3754C66.8041 31.3843 66.6106 31.4233 66.4264 31.4912C66.3833 31.5071 66.3396 31.517 66.2979 31.5358C66.2745 31.5463 66.2491 31.5492 66.226 31.5607L54.726 37.3107C54.4077 37.47 54.14 37.7147 53.9528 38.0175C53.7657 38.3203 53.6666 38.6693 53.6666 39.0252C53.6666 39.3812 53.7657 39.7301 53.9528 40.0329C54.14 40.3358 54.4077 40.5805 54.726 40.7397L66.226 46.4897C66.243 46.4982 66.2627 46.4944 66.2797 46.5024C66.5303 46.6241 66.8047 46.6888 67.0833 46.6919H70.9166V56.2752C70.9202 58.992 71.8839 61.6201 73.6375 63.6952C75.3911 65.7703 77.8218 67.1587 80.5 67.6152V96.5252H78.3063C76.3471 96.5274 74.4688 97.3067 73.0834 98.692C71.698 100.077 70.9188 101.956 70.9166 103.915V113.775C70.9166 114.284 71.1186 114.771 71.478 115.131C71.8375 115.49 72.325 115.692 72.8333 115.692H111.167C111.675 115.692 112.162 115.49 112.522 115.131C112.881 114.771 113.083 114.284 113.083 113.775V103.915C113.081 101.956 112.302 100.077 110.917 98.692C109.531 97.3067 107.653 96.5274 105.694 96.5252H103.5V67.6152C106.178 67.1587 108.609 65.7703 110.362 63.6952C112.116 61.6201 113.08 58.992 113.083 56.2752V46.6919C113.592 46.6919 114.079 46.49 114.439 46.1305C114.798 45.7711 115 45.2836 115 44.7752V33.2752C115 32.7669 114.798 32.2794 114.439 31.9199C114.079 31.5605 113.592 31.3586 113.083 31.3586ZM65.1666 41.6738L59.8687 39.0252L65.1666 36.3767V41.6738ZM69 42.8586V35.1919H103.5V42.8586H69ZM99.4935 52.732C99.0922 50.8832 98.0214 49.248 96.4873 48.141C94.9531 47.0339 93.0638 46.5331 91.1827 46.735C89.3016 46.9368 87.5616 47.8269 86.2972 49.2343C85.0328 50.6416 84.3333 52.4667 84.3333 54.3586C84.3331 55.0055 84.4168 55.6498 84.5822 56.2752H83.5097C83.2199 56.2749 82.9421 56.1596 82.7372 55.9547C82.5323 55.7498 82.417 55.4719 82.4166 55.1821V46.6919H101.583V55.1821C101.583 55.4719 101.468 55.7498 101.263 55.9547C101.058 56.1596 100.78 56.2749 100.49 56.2752H99.4196C99.721 55.1162 99.7463 53.9026 99.4935 52.732ZM82.4166 111.859H74.75V108.025H82.4166V111.859ZM99.6666 111.859H86.25V108.025H99.6666V111.859ZM109.25 111.859H103.5V108.025H109.25V111.859ZM105.694 100.359C106.636 100.36 107.54 100.735 108.207 101.401C108.874 102.068 109.249 102.972 109.25 103.915V104.192H74.75V103.915C74.7511 102.972 75.1262 102.068 75.7929 101.401C76.4596 100.735 77.3634 100.36 78.3063 100.359H105.694ZM109.25 56.2752C109.248 58.3078 108.439 60.2565 107.002 61.6938C105.565 63.1311 103.616 63.9396 101.583 63.9419C101.075 63.9419 100.587 64.1438 100.228 64.5033C99.8686 64.8627 99.6666 65.3502 99.6666 65.8586V96.5252H93.9166V77.3586H90.0833V96.5252H84.3333V65.8586C84.3333 65.3502 84.1314 64.8627 83.7719 64.5033C83.4125 64.1438 82.925 63.9419 82.4166 63.9419C80.384 63.9396 78.4353 63.1311 76.998 61.6938C75.5608 60.2565 74.7523 58.3078 74.75 56.2752V46.6919H78.5833V55.1821C78.5847 56.4883 79.1041 57.7405 80.0277 58.6641C80.9513 59.5877 82.2036 60.1072 83.5097 60.1086H87.7417C88.1122 60.1086 88.4748 60.0012 88.7856 59.7995C89.0963 59.5977 89.3419 59.3102 89.4926 58.9717C89.6434 58.6332 89.6927 58.2583 89.6348 57.8923C89.5768 57.5264 89.414 57.1851 89.1661 56.9097C88.526 56.2141 88.1694 55.3039 88.1666 54.3586C88.166 53.4136 88.5144 52.5017 89.1448 51.7979C89.7753 51.094 90.6435 50.6478 91.5828 50.5448C92.5221 50.4418 93.4664 50.6892 94.2344 51.2397C95.0025 51.7902 95.5402 52.6049 95.7444 53.5275C95.8766 54.1228 95.8629 54.7412 95.7043 55.33C95.5457 55.9188 95.2471 56.4605 94.8338 56.9088C94.5858 57.1842 94.423 57.5256 94.365 57.8916C94.307 58.2576 94.3563 58.6326 94.507 58.9712C94.6578 59.3097 94.9034 59.5974 95.2142 59.7992C95.5249 60.0011 95.8876 60.1085 96.2582 60.1086H100.49C101.796 60.1072 103.049 59.5877 103.972 58.6641C104.896 57.7406 105.415 56.4883 105.417 55.1821V46.6919H109.25V56.2752ZM111.167 42.8586H107.333V35.1919H111.167V42.8586Z" fill="white"/>
<path d="M111.167 0.691895H107.333V4.52523H111.167V0.691895Z" fill="white"/>
<path d="M111.167 8.35856H107.333V12.1919H111.167V8.35856Z" fill="white"/>
<path d="M115 4.52523H111.167V8.35856H115V4.52523Z" fill="white"/>
<path d="M107.333 4.52523H103.5V8.35856H107.333V4.52523Z" fill="white"/>
<path d="M72.8333 8.35856H69V12.1919H72.8333V8.35856Z" fill="white"/>
<path d="M72.8333 16.0252H69V19.8586H72.8333V16.0252Z" fill="white"/>
<path d="M76.6667 12.1919H72.8334V16.0252H76.6667V12.1919Z" fill="white"/>
<path d="M69 12.1919H65.1666V16.0252H69V12.1919Z" fill="white"/>
</svg>
