<svg width="40" height="40" viewBox="0 0 40 40" fill="none" xmlns="http://www.w3.org/2000/svg">
<path d="M38.6105 16.2947L33.6 15.7895C33.4316 15.7895 33.2632 15.6632 33.2211 15.4947C33.0105 14.9474 32.8 14.4 32.5474 13.8526C32.4632 13.6842 32.5053 13.5158 32.5895 13.3474L35.7474 9.47368C36.2526 8.8421 36.2105 7.95789 35.6211 7.36842L32.6316 4.33684C32.0842 3.78947 31.1579 3.70526 30.5263 4.21053L26.6526 7.36842C26.5263 7.49474 26.3158 7.49474 26.1474 7.41053C25.6 7.1579 25.0947 6.90526 24.5053 6.73684C24.3368 6.69474 24.2105 6.52632 24.2105 6.35789L23.7053 1.38947C23.6211 0.589474 22.9474 0 22.1474 0H17.8526C17.0526 0 16.3789 0.589474 16.2947 1.38947L15.7895 6.4C15.7895 6.56842 15.6632 6.73684 15.4947 6.77895C14.9474 6.98947 14.4 7.2 13.8526 7.45263C13.6842 7.53684 13.5158 7.49474 13.3474 7.41053L9.47368 4.25263C8.8421 3.74737 7.95789 3.78947 7.36842 4.37895L4.33684 7.36842C3.78947 7.91579 3.70526 8.8421 4.21053 9.47368L7.36842 13.3474C7.49474 13.4737 7.49474 13.6842 7.41053 13.8526C7.1579 14.4 6.90526 14.9053 6.73684 15.4947C6.69474 15.6632 6.52632 15.7895 6.35789 15.7895L1.38947 16.2947C0.589474 16.3789 0 17.0526 0 17.8526V22.1474C0 22.9474 0.589474 23.6211 1.38947 23.7053L6.4 24.2105C6.56842 24.2105 6.73684 24.3368 6.77895 24.5053C6.98947 25.0526 7.2 25.6 7.45263 26.1474C7.53684 26.3158 7.49474 26.4842 7.41053 26.6526L4.25263 30.5263C3.74737 31.1579 3.78947 32.0421 4.37895 32.6316L7.41053 35.6632C7.95789 36.2105 8.88421 36.2947 9.51579 35.7895L13.3895 32.6316C13.5158 32.5053 13.7263 32.5053 13.8947 32.5895C14.4421 32.8421 14.9474 33.0947 15.5368 33.2632C15.7053 33.3053 15.8316 33.4737 15.8316 33.6421L16.3368 38.6105C16.4211 39.4105 17.0947 40 17.8947 40H22.1895C22.9895 40 23.6632 39.4105 23.7474 38.6105L24.2105 33.6C24.2105 33.4316 24.3368 33.2632 24.5053 33.2211C25.0526 33.0105 25.6 32.8 26.1474 32.5474C26.3158 32.4632 26.4842 32.5053 26.6526 32.5895L30.5263 35.7474C31.1579 36.2526 32.0421 36.2105 32.6316 35.6211L35.6632 32.5895C36.2105 32.0421 36.2947 31.1158 35.7895 30.4842L32.6316 26.6105C32.5053 26.4842 32.5053 26.2737 32.5895 26.1053C32.8421 25.5579 33.0947 25.0526 33.2632 24.4632C33.3053 24.2947 33.4737 24.1684 33.6421 24.1684L38.6105 23.6632C39.4105 23.5789 40 22.9053 40 22.1053V17.8526C40 17.0526 39.4105 16.3789 38.6105 16.2947ZM20 28.5474C15.2842 28.5474 11.4526 24.7158 11.4526 20C11.4526 15.2842 15.2842 11.4526 20 11.4526C24.7158 11.4526 28.5474 15.2842 28.5474 20C28.5474 24.7158 24.7158 28.5474 20 28.5474Z" fill="#1538E5"/>
<path d="M22.1473 16.7158L19.0315 20.4211L17.8947 19.0316C17.3473 18.3579 16.3789 18.2737 15.7052 18.8211C15.0315 19.3684 14.9473 20.3369 15.4947 21.0105L17.8526 23.8316C18.1473 24.1684 18.5684 24.379 19.0315 24.379C19.4947 24.379 19.9157 24.1684 20.2105 23.8316L24.5052 18.6527C25.0526 17.979 24.9684 17.0105 24.2947 16.4632C23.6631 15.9579 22.6947 16.0421 22.1473 16.7158Z" fill="#1538E5"/>
</svg>
