<svg width="27" height="40" viewBox="0 0 27 40" fill="none" xmlns="http://www.w3.org/2000/svg">
<path d="M5.30339 19V15.5717C3.80647 14.25 2.86554 12.3087 2.86554 10.1609C2.86554 6.11304 6.28708 2.8087 10.4785 2.8087C14.6699 2.8087 18.0914 6.11304 18.0914 10.1609C18.0914 12.2674 17.1505 14.2087 15.6536 15.5304V16.3152C16.5517 16.3978 17.4071 16.687 18.1342 17.1413C19.8877 15.3239 20.9997 12.887 20.9997 10.1609C21.0425 4.54348 16.2951 0 10.5212 0C4.70462 0 0 4.54348 0 10.1609C0 13.9196 2.13846 17.2239 5.30339 19Z" fill="#1538E5"/>
<path d="M27 24.4154C27 23.0179 25.8565 21.8744 24.4164 21.8744C23.4847 21.8744 22.6799 22.3403 22.2564 23.1026V23.0179C22.2564 21.6203 21.1129 20.4345 19.6728 20.4345C18.7411 20.4345 17.9363 20.9004 17.5128 21.6203V21.578C17.5128 20.1805 16.3693 18.9947 14.9292 18.9947C13.9975 18.9947 13.1927 19.4605 12.7692 20.1805V11.5835C12.7692 10.9059 12.5151 10.2283 12.0069 9.76242C11.541 9.29657 10.8633 9.00012 10.1856 9.00012C8.78798 9.00012 7.64444 10.1436 7.64444 11.5835V27.4646C7.64444 27.634 7.55973 27.7187 7.43267 27.8034C7.30561 27.8458 7.13619 27.8458 7.05149 27.7187L4.42557 25.1354C3.53614 24.246 2.18083 24.119 1.12199 24.8389C0.529043 25.2624 0.105507 25.8977 0.0208001 26.6176C-0.063907 27.3376 0.105507 28.0998 0.613749 28.6504L7.09384 36.4851C8.91504 38.7296 11.6257 40.0001 14.5057 40.0001H18.5293C20.774 40.0001 22.9341 39.1108 24.5011 37.5015C26.1106 35.8922 27 33.7747 27 31.5302V24.4154Z" fill="#1538E5"/>
</svg>
