<?xml version="1.0" encoding="UTF-8"?>
<svg width="60px" height="60px" viewBox="0 0 60 60" version="1.1" xmlns="http://www.w3.org/2000/svg" xmlns:xlink="http://www.w3.org/1999/xlink">
    <!-- Generator: Sketch 51.2 (57519) - http://www.bohemiancoding.com/sketch -->
    <title>Group 20</title>
    <desc>Created with Sketch.</desc>
    <defs>
        <linearGradient x1="0%" y1="0%" x2="100%" y2="100%" id="linearGradient-1">
            <stop stop-color="#EE72E9" offset="0%"></stop>
            <stop stop-color="#8363F9" offset="100%"></stop>
        </linearGradient>
    </defs>
    <g id="Page-1" stroke="none" stroke-width="1" fill="none" fill-rule="evenodd">
        <g id="Blockchain---doplnene-texty-2" transform="translate(-1010.000000, -3350.000000)" fill="url(#linearGradient-1)" fill-rule="nonzero">
            <g id="content-2" transform="translate(0.000000, 2552.000000)">
                <g id="box-1-copy-3" transform="translate(890.000000, 798.000000)">
                    <g id="Group-20" transform="translate(120.000000, 0.000000)">
                        <path d="M58.1125562,30.0049106 C58.1125562,30.7936982 58.0788519,31.5757439 58.018184,32.3577897 C57.9912206,32.7285873 57.9507753,33.0993848 57.9103301,33.4701824 C57.8968484,33.5645672 57.8901075,33.6522103 57.8766258,33.7465951 C57.8698849,33.7735622 57.8496623,33.9353648 57.8766258,33.7735622 C57.8496623,33.989299 57.8159579,34.198294 57.7822536,34.4140307 C57.5463231,35.8837374 57.1957978,37.3332188 56.7374186,38.7489913 C56.5149699,39.4299105 56.2655577,40.1108297 55.9959228,40.7715235 C55.989182,40.7850071 55.8745872,41.054678 55.9554776,40.8793919 C55.9217733,40.9602932 55.8880689,41.0411945 55.8476237,41.1288375 C55.7734741,41.2906401 55.7060654,41.4591844 55.6319158,41.620987 C55.4701349,41.9715593 55.3016132,42.3221315 55.1263505,42.665962 C54.4724861,43.9603825 53.7175086,45.2008689 52.8748997,46.3806794 C52.6861554,46.6436085 52.4906701,46.9065377 52.2951849,47.1627251 C52.1199222,47.3919454 52.4097797,47.0211479 52.2277762,47.2503682 C52.1738492,47.3177859 52.1199222,47.3919454 52.0659953,47.4593632 C51.9379187,47.6211658 51.8098422,47.7829683 51.6750248,47.9380291 C51.2166456,48.4908546 50.7313029,49.0301965 50.2324785,49.5425713 C49.733654,50.0616879 49.214607,50.5605792 48.6753373,51.0392451 C48.4124434,51.2752072 48.1428086,51.5044275 47.8731737,51.7269061 C47.7585789,51.8212909 47.6439841,51.9156757 47.5293893,52.0033188 C47.4619806,52.057253 47.3945719,52.1111872 47.3204223,52.1651214 C47.2732363,52.1988302 47.2260502,52.2392809 47.1788641,52.2729897 C47.2530136,52.2123138 47.2462728,52.2190555 47.1586415,52.2864733 C46.0059526,53.1629039 44.7925959,53.9584332 43.5253122,54.6528359 C42.8849295,55.0034082 42.2378059,55.3337551 41.5772006,55.6303931 C41.4289014,55.6978109 41.2806023,55.7652286 41.1255622,55.8326463 C41.0446718,55.8663552 40.9637813,55.9068059 40.87615,55.9405147 C41.0581535,55.8663552 40.7817778,55.9809654 40.7682961,55.9809654 C40.41103,56.1292844 40.0470229,56.2708616 39.6830159,56.3989553 C38.2876557,56.9045884 36.8585911,57.302353 35.4025631,57.5922493 C35.0722604,57.6596671 34.7419578,57.7136013 34.4049142,57.7675354 C34.2229107,57.7945025 34.0409072,57.8214696 33.8589037,57.8484367 C33.5555645,57.8956291 34.0476481,57.8282114 33.7443089,57.8619203 C33.6229732,57.8754038 33.5016376,57.8956291 33.373561,57.9091127 C32.5983609,57.9967558 31.8231608,58.0574317 31.0412198,58.0843988 C29.5380056,58.138333 28.0280506,58.077657 26.5315773,57.8956291 C26.4372051,57.8821456 26.3495738,57.8754038 26.2552016,57.8619203 C25.9518625,57.8214696 26.4372051,57.8888874 26.1406068,57.8484367 C25.9586033,57.8214696 25.7765998,57.7945025 25.5945963,57.7675354 C25.2036258,57.7068595 24.8126553,57.6327 24.4216848,57.5517987 C23.7071525,57.4034797 22.9993611,57.2349353 22.2983106,57.0326821 C21.5770374,56.8304289 20.8625051,56.5944668 20.1547137,56.3315376 C19.8446337,56.2169275 19.5412945,56.0955755 19.2379553,55.9742236 C19.2244736,55.9674818 18.9548387,55.8528717 19.1301014,55.9337729 C19.0492109,55.9000641 18.9683205,55.8663552 18.8806892,55.8259046 C18.6919448,55.7450033 18.4964595,55.6573602 18.3077152,55.5697172 C16.9932454,54.9629575 15.7192208,54.2550713 14.5058641,53.4528002 C13.9126675,53.0617773 13.3396935,52.6505291 12.7802013,52.2190555 C12.9352413,52.3336657 12.6993108,52.1583796 12.6925699,52.1516378 C12.6251612,52.0977036 12.5510117,52.0437694 12.4836029,51.9898352 C12.3487855,51.8819668 12.2072272,51.7673567 12.0724098,51.6527465 C11.7758115,51.4100427 11.492695,51.160597 11.2028375,50.9044096 C10.1580026,49.9605613 9.17383547,48.9358117 8.27729967,47.8503861 C7.78521612,47.2503682 7.50884042,46.8930542 7.03023861,46.2188768 C6.62578637,45.6390842 6.23481587,45.0458081 5.87080886,44.4390485 C5.4933201,43.8053217 5.13605396,43.1513697 4.79901043,42.4906758 C4.65071128,42.2007796 4.50915299,41.9041415 4.37433558,41.6075035 C4.300186,41.4457009 4.22603643,41.2838983 4.15862772,41.115354 C4.12492337,41.0344527 4.08447814,40.9535514 4.05077379,40.8659083 C4.12492337,41.0344527 3.98336508,40.7108475 3.97662421,40.6771387 C3.42387282,39.3085586 2.97223449,37.8995278 2.62845009,36.46353 C2.45992832,35.748902 2.31837004,35.0275322 2.20377524,34.3061624 C2.17681175,34.1241345 2.14984827,33.9421066 2.12288479,33.7600787 C2.14984827,33.9623319 2.10940305,33.6589521 2.10940305,33.6454685 C2.09592131,33.5510837 2.08918044,33.4634406 2.0756987,33.3690558 C2.0285126,32.9645494 1.98806738,32.5667847 1.96110389,32.1622783 C1.85324996,30.6588627 1.85324996,29.1419636 1.97458564,27.638548 C2.04199434,26.7890845 2.10940305,26.2295173 2.23073872,25.4946639 C2.35207439,24.7732941 2.49363267,24.0519243 2.66889531,23.344038 C3.01942058,21.9080402 3.48454066,20.512493 4.04403292,19.1439129 C4.15188685,18.8675002 3.96988334,19.3124573 4.09121901,19.0360445 C4.12492337,18.9551432 4.16536859,18.874242 4.19907294,18.7865989 C4.27322252,18.6247963 4.3473721,18.4629937 4.42152167,18.2944494 C4.56982083,17.9708443 4.72486085,17.6472391 4.88664175,17.3303757 C5.22368528,16.6696819 5.58095142,16.0224716 5.96518105,15.3887449 C6.33592893,14.7819852 6.72015856,14.1887091 7.13135167,13.6156583 C7.33357778,13.3257621 7.54928565,13.0426076 7.76499351,12.7661948 C7.6503987,12.9212556 7.82566134,12.6852935 7.83240221,12.6785518 C7.88632918,12.611134 7.94025614,12.5369745 7.99418311,12.4695568 C8.12225965,12.3077542 8.25707706,12.1526934 8.3851536,11.9908908 C9.29517114,10.912207 10.2793382,9.89419915 11.3309141,8.95709258 C11.593808,8.7211305 11.8634428,8.49191019 12.1330777,8.26943165 C12.2678951,8.15482149 12.4027125,8.04695311 12.5442708,7.93234295 C12.6116795,7.87840876 12.6858291,7.82447457 12.7532378,7.77054038 C12.8408691,7.70312264 12.84761,7.69638087 12.7734604,7.75705683 C12.8206465,7.72334796 12.8678326,7.68289732 12.9150187,7.64918845 C13.4812518,7.2244567 14.0542258,6.81320849 14.6474224,6.42892738 C15.86752,5.64013984 17.1415445,4.93899535 18.4627552,4.33897748 C18.6245361,4.26481797 18.786317,4.19065845 18.9548387,4.12324071 C18.9683205,4.11649894 19.2379553,4.00188878 19.0559518,4.0760483 C19.1368423,4.04233943 19.2244736,4.00863056 19.305364,3.97492169 C19.6356667,3.84008621 19.9727102,3.71199251 20.3097537,3.59064058 C21.0175452,3.33445317 21.7320774,3.10523286 22.4600915,2.90297964 C23.161142,2.7074682 23.8756743,2.53892385 24.5902066,2.3973466 C24.9542136,2.32318709 25.3114797,2.26251112 25.6754868,2.20183516 C25.8574903,2.17486806 26.0394938,2.14790097 26.2214973,2.12093387 C26.0192712,2.14790097 26.3226103,2.10745032 26.3360921,2.10745032 C26.4574278,2.09396678 26.5787634,2.08048323 26.70684,2.06025791 C28.2033132,1.89171356 29.7132683,1.83777937 31.2232233,1.90519711 C31.9984234,1.93890598 32.7803644,1.99958194 33.5555645,2.09396678 C33.6499367,2.10745032 33.737568,2.1141921 33.8319402,2.12767565 C33.6297141,2.10070855 33.9330533,2.14115919 33.946535,2.14790097 C34.1285385,2.17486806 34.310542,2.20183516 34.4925455,2.23554403 C34.8565526,2.29621999 35.2138187,2.36363773 35.5778257,2.43779724 C37.0271129,2.7344353 38.4561775,3.13894173 39.8447968,3.65805832 C40.1818404,3.78615202 40.512143,3.91424572 40.8491865,4.0490812 C41.1255622,4.15694958 40.6806648,3.97492169 40.9570405,4.09627362 C41.0379309,4.12998249 41.1188214,4.17043313 41.2064527,4.204142 C41.3682336,4.27830151 41.5300145,4.35246103 41.6985362,4.42662054 C42.3726233,4.73674214 43.0332286,5.07383083 43.6803522,5.43788662 C44.3005123,5.78171709 44.9071907,6.15251465 45.5003873,6.54353754 C45.7969856,6.73904898 46.086843,6.94130219 46.3767005,7.14355541 C46.5182587,7.24468202 46.6665579,7.3525504 46.8081162,7.45367701 C46.8822658,7.5076112 46.9496745,7.56154539 47.0170832,7.61547958 C47.0440467,7.6357049 47.3204223,7.84469989 47.1788641,7.73683151 C48.2911077,8.60652034 49.3426835,9.55036868 50.3201098,10.5683765 C50.8256751,11.1009767 51.3177586,11.6470604 51.7828787,12.2133694 C51.8974735,12.3482048 52.0053274,12.4897821 52.1131814,12.6246176 C52.1671083,12.6920353 52.2210353,12.7661948 52.2749623,12.8336126 C52.1603675,12.6852935 52.3356301,12.9145138 52.342371,12.9212556 C52.5580788,13.2044101 52.7670458,13.4875646 52.9692719,13.7774609 C53.8051399,14.9640131 54.5466357,16.2112413 55.1937592,17.5056619 C55.3555401,17.8225252 55.5038393,18.1461304 55.6521384,18.4697355 C55.726288,18.6315381 55.8004376,18.7933407 55.8678463,18.961885 C55.8745872,18.9753686 55.989182,19.2450395 55.9150324,19.0630116 C55.9487368,19.1439129 55.9824411,19.231556 56.0161455,19.3124573 C56.299262,20.00686 56.5554151,20.7147462 56.7778638,21.4293743 C57.2295022,22.8518885 57.5732866,24.3013699 57.8024762,25.7778184 C57.8159579,25.8722032 57.8294397,25.9598463 57.8429214,26.0542311 C57.8429214,26.0340058 57.8833666,26.3373856 57.863144,26.2025502 C57.8429214,26.0677147 57.8833666,26.3710945 57.8833666,26.3508692 C57.8968484,26.445254 57.9035892,26.5328971 57.917071,26.6272819 C57.9575162,26.9980795 57.9979614,27.368877 58.0249249,27.7396746 C58.0788519,28.4947533 58.1058154,29.2498319 58.1125562,30.0049106 C58.1125562,30.5172854 58.5439719,30.948759 59.0562781,30.948759 C59.5685843,30.948759 60,30.5172854 60,30.0049106 C59.9932591,23.8361875 58.0788519,17.7146568 54.4927087,12.6785518 C50.9537516,7.71660619 45.98573,3.90750395 40.2694717,1.8040705 C34.3914325,-0.35329714 27.8123428,-0.575775678 21.7927453,1.13663489 C15.9955965,2.78162771 10.7242357,6.21993239 6.88868032,10.8784981 C2.94527101,15.6651576 0.559002804,21.557468 0.0871418601,27.7464164 C-0.391459954,33.9421066 1.1117542,40.2456651 4.34063123,45.558183 C7.45491346,50.6886729 12.1263368,54.8618309 17.5999238,57.3293201 C23.3768499,59.9316449 29.8750492,60.6597564 36.083391,59.3923029 C42.0153572,58.1855254 47.5293893,55.097793 51.7087291,50.71564 C55.8948098,46.3200034 58.7259755,40.6569133 59.635993,34.643251 C59.8651826,33.1061266 59.9932591,31.5622604 60,30.0049106 C60,29.4925358 59.5685843,29.0610623 59.0562781,29.0610623 C58.5439719,29.0610623 58.1125562,29.4925358 58.1125562,30.0049106 Z" id="Shape"></path>
                        <path d="M24.5188175,18.0461141 C23.8499905,17.3729997 22.9539337,17 22.0064288,17 C21.0546364,17 20.1585797,17.3729997 19.4897526,18.0461141 C18.1006503,19.4309291 18.1006503,21.690364 19.4897526,23.075179 C20.1585797,23.7482934 21.0546364,24.1170057 22.0064288,24.1170057 C22.9539337,24.1170057 23.8499905,23.7482934 24.5188175,23.075179 C25.1919319,22.4063519 25.5649316,21.5102952 25.5649316,20.5585029 C25.5649316,19.6109979 25.1919319,18.7149411 24.5188175,18.0461141 Z M23.9143008,22.4706622 C23.4041058,22.9808572 22.726704,23.2595351 22.0064288,23.2595351 C21.2818661,23.2595351 20.6044644,22.9808572 20.0942694,22.4706622 C19.0395806,21.4159734 19.0395806,19.7053196 20.0942694,18.6506308 C20.6044644,18.1404359 21.2818661,17.8574706 22.0064288,17.8574706 C22.726704,17.8574706 23.4041058,18.1404359 23.9143008,18.6506308 C24.4244958,19.1608258 24.707461,19.8382276 24.707461,20.5585029 C24.707461,21.2830655 24.4244958,21.9604672 23.9143008,22.4706622 Z M19.2668103,24.5500283 C19.3011091,24.7815454 19.1381897,25.0002004 18.9023853,25.0344992 C18.5508224,25.0859474 18.2378456,25.1759819 17.9548803,25.2917404 C17.1960189,25.6047171 16.6772492,26.0977627 16.3428357,26.5307853 L16.3428357,26.5350727 C15.982698,26.9938195 15.836928,27.3711065 15.8326407,27.3839686 C15.7683304,27.5554627 15.605411,27.6626465 15.4296295,27.6626465 C15.3824686,27.6626465 15.3310204,27.6540718 15.2795722,27.6369224 C15.0566298,27.5554627 14.9451586,27.3067962 15.0266184,27.0838539 C15.0652045,26.9852447 15.982698,24.6014766 18.7780521,24.1856033 C19.0138565,24.1555919 19.2325115,24.3142239 19.2668103,24.5500283 Z M28.728998,27.6369224 C28.6775498,27.6540718 28.6303889,27.6626465 28.5789407,27.6626465 C28.4031592,27.6626465 28.2402398,27.5554627 28.1759295,27.3839686 C28.1630674,27.3496697 28.0172974,26.9809574 27.6828839,26.5436474 C27.3484704,26.1106248 26.8297007,25.6090045 26.0579772,25.2917404 C25.7750119,25.1759819 25.4577478,25.0859474 25.1061849,25.0344992 C24.8703805,25.0002004 24.707461,24.7815454 24.7460472,24.5500283 C24.780346,24.3142239 24.9947137,24.1555919 25.2305181,24.1856033 C28.0258721,24.6014766 28.9433656,26.9852447 28.9819518,27.0838539 C29.0634115,27.3067962 28.9519404,27.5554627 28.728998,27.6369224 Z M47.5933505,29.9263688 C47.8291549,29.9263688 48.0220857,30.1150123 48.0220857,30.3551041 C48.0220857,30.5909085 47.8291549,30.7838394 47.5933505,30.7838394 L45.7883749,30.7838394 C45.7969496,30.8567244 45.801237,30.9296094 45.801237,31.0024944 L45.801237,44.3490237 C45.801237,45.811011 44.6093529,47.0028951 43.1473656,47.0028951 L34.2639705,47.0028951 C32.8019832,47.0028951 31.6100991,45.811011 31.6100991,44.3490237 L31.6100991,31.0024944 C31.6100991,30.9296094 31.6143865,30.8567244 31.6229612,30.7838394 L29.8179856,30.7838394 C29.5821812,30.7838394 29.3892503,30.5909085 29.3892503,30.3551041 C29.3892503,30.1150123 29.5821812,29.9263688 29.8179856,29.9263688 L38.2769328,29.9263688 L38.2769328,24.923028 C38.2769328,24.6700742 37.9896801,24.5200169 37.9853928,24.5157295 L33.3250402,22.3977772 C33.0335002,22.7364781 32.6004776,22.9508457 32.1202941,22.9508457 C31.2413868,22.9508457 30.5253988,22.2348578 30.5253988,21.3559505 C30.5253988,20.4770431 31.2413868,19.7610552 32.1202941,19.7610552 C32.9992014,19.7610552 33.7151893,20.4770431 33.7151893,21.3559505 C33.7151893,21.4459849 33.7066146,21.5360193 33.6894652,21.6217664 L38.3498178,23.744006 C38.6456451,23.8812013 39.1344033,24.2842125 39.1344033,24.923028 L39.1344033,29.9263688 L47.5933505,29.9263688 Z M32.1202941,22.0933752 C32.5275926,22.0933752 32.8577188,21.763249 32.8577188,21.3559505 C32.8577188,20.948652 32.5275926,20.6185258 32.1202941,20.6185258 C31.7129956,20.6185258 31.3828694,20.948652 31.3828694,21.3559505 C31.3828694,21.763249 31.7129956,22.0933752 32.1202941,22.0933752 Z M44.9437664,44.3490237 L44.9437664,31.0024944 C44.9437664,30.9296094 44.9394791,30.8567244 44.926617,30.7838394 L32.4847191,30.7838394 C32.471857,30.8567244 32.4675697,30.9296094 32.4675697,31.0024944 L32.4675697,44.3490237 C32.4675697,45.3394022 33.273592,46.1454246 34.2639705,46.1454246 L43.1473656,46.1454246 C44.1377441,46.1454246 44.9437664,45.3394022 44.9437664,44.3490237 Z" id="Combined-Shape"></path>
                    </g>
                </g>
            </g>
        </g>
    </g>
</svg>