<?xml version="1.0" encoding="UTF-8"?>
<svg width="119px" height="116px" viewBox="0 0 119 116" version="1.1" xmlns="http://www.w3.org/2000/svg" xmlns:xlink="http://www.w3.org/1999/xlink">
    <!-- Generator: Sketch 51.2 (57519) - http://www.bohemiancoding.com/sketch -->
    <title>Group 12</title>
    <desc>Created with Sketch.</desc>
    <defs>
        <linearGradient x1="0%" y1="0%" x2="100%" y2="100%" id="linearGradient-1">
            <stop stop-color="#FF865E" offset="0%"></stop>
            <stop stop-color="#FE6C9F" offset="100%"></stop>
        </linearGradient>
        <linearGradient x1="0%" y1="0%" x2="100%" y2="100%" id="linearGradient-2">
            <stop stop-color="#EE72E9" offset="0%"></stop>
            <stop stop-color="#8363F9" offset="100%"></stop>
        </linearGradient>
    </defs>
    <g id="Page-1" stroke="none" stroke-width="1" fill="none" fill-rule="evenodd">
        <g id="Blockchain---doplnene-texty-2" transform="translate(-347.000000, -1175.000000)">
            <g id="box" transform="translate(250.000000, 1143.000000)">
                <g id="Group-12" transform="translate(97.000000, 32.000000)">
                    <ellipse id="Oval" fill="url(#linearGradient-1)" fill-rule="nonzero" cx="65" cy="53.5" rx="54" ry="53.5"></ellipse>
                    <ellipse id="Oval-Copy" fill="url(#linearGradient-2)" fill-rule="nonzero" style="mix-blend-mode: multiply;" cx="54" cy="62.5" rx="54" ry="53.5"></ellipse>
                    <path d="M23.86125,64.0875 C24.1962517,64.0875 24.4699989,64.0450004 24.6825,63.96 C24.8950011,63.8749996 25.0612494,63.7650007 25.18125,63.63 C25.3012506,63.4949993 25.3837498,63.3425009 25.42875,63.1725 C25.4737502,63.0024991 25.49625,62.8300009 25.49625,62.655 C25.49625,62.454999 25.4700003,62.2750008 25.4175,62.115 C25.3649997,61.9549992 25.2750006,61.8200006 25.1475,61.71 C25.0199994,61.5999994 24.8512511,61.5150003 24.64125,61.455 C24.431249,61.3949997 24.1662516,61.365 23.84625,61.365 L22.07625,61.365 L22.07625,64.0875 L23.86125,64.0875 Z M22.07625,56.97 L22.07625,59.67 L23.39625,59.67 C23.6762514,59.67 23.9287489,59.6500002 24.15375,59.61 C24.3787511,59.5699998 24.5699992,59.5000005 24.7275,59.4 C24.8850008,59.2999995 25.0049996,59.1625009 25.0875,58.9875 C25.1700004,58.8124991 25.21125,58.5925013 25.21125,58.3275 C25.21125,58.0674987 25.1787503,57.8512509 25.11375,57.67875 C25.0487497,57.5062491 24.9487507,57.3675005 24.81375,57.2625 C24.6787493,57.1574995 24.507501,57.0825002 24.3,57.0375 C24.092499,56.9924998 23.8462514,56.97 23.56125,56.97 L22.07625,56.97 Z M23.56125,55.0725 C24.3162538,55.0725 24.9587473,55.1424993 25.48875,55.2825 C26.0187527,55.4225007 26.4512483,55.6199987 26.78625,55.875 C27.1212517,56.1300013 27.3649992,56.4399982 27.5175,56.805 C27.6700008,57.1700018 27.74625,57.5774977 27.74625,58.0275 C27.74625,58.2725012 27.7112504,58.5087489 27.64125,58.73625 C27.5712496,58.9637511 27.4612507,59.176249 27.31125,59.37375 C27.1612492,59.571251 26.9687512,59.7524992 26.73375,59.9175 C26.4987488,60.0825008 26.2162517,60.2249994 25.88625,60.345 C26.6062536,60.5200009 27.1387483,60.802498 27.48375,61.1925 C27.8287517,61.582502 28.00125,62.0874969 28.00125,62.7075 C28.00125,63.1725023 27.9112509,63.604998 27.73125,64.005 C27.5512491,64.405002 27.2875017,64.7537485 26.94,65.05125 C26.5924983,65.3487515 26.1637525,65.5812492 25.65375,65.74875 C25.1437474,65.9162508 24.5612533,66 23.90625,66 L19.54125,66 L19.54125,55.0725 L23.56125,55.0725 Z M31.52625,54.7725 L31.52625,66 L29.20125,66 L29.20125,54.7725 L31.52625,54.7725 Z M36.68625,58.1025 C37.2762529,58.1025 37.8137476,58.1949991 38.29875,58.38 C38.7837524,58.5650009 39.1999983,58.8299983 39.5475,59.175 C39.8950017,59.5200017 40.164999,59.9387475 40.3575,60.43125 C40.550001,60.9237525 40.64625,61.4774969 40.64625,62.0925 C40.64625,62.7125031 40.550001,63.2712475 40.3575,63.76875 C40.164999,64.2662525 39.8950017,64.6887483 39.5475,65.03625 C39.1999983,65.3837517 38.7837524,65.6512491 38.29875,65.83875 C37.8137476,66.0262509 37.2762529,66.12 36.68625,66.12 C36.091247,66.12 35.5500024,66.0262509 35.0625,65.83875 C34.5749976,65.6512491 34.1550018,65.3837517 33.8025,65.03625 C33.4499982,64.6887483 33.177501,64.2662525 32.985,63.76875 C32.792499,63.2712475 32.69625,62.7125031 32.69625,62.0925 C32.69625,61.4774969 32.792499,60.9237525 32.985,60.43125 C33.177501,59.9387475 33.4499982,59.5200017 33.8025,59.175 C34.1550018,58.8299983 34.5749976,58.5650009 35.0625,58.38 C35.5500024,58.1949991 36.091247,58.1025 36.68625,58.1025 Z M36.68625,64.395 C37.2212527,64.395 37.6149987,64.2062519 37.8675,63.82875 C38.1200013,63.4512481 38.24625,62.8775038 38.24625,62.1075 C38.24625,61.3374961 38.1200013,60.7650019 37.8675,60.39 C37.6149987,60.0149981 37.2212527,59.8275 36.68625,59.8275 C36.1362472,59.8275 35.7337513,60.0149981 35.47875,60.39 C35.2237487,60.7650019 35.09625,61.3374961 35.09625,62.1075 C35.09625,62.8775038 35.2237487,63.4512481 35.47875,63.82875 C35.7337513,64.2062519 36.1362472,64.395 36.68625,64.395 Z M47.53125,60.0675 C47.4612496,60.1525004 47.3937503,60.2199997 47.32875,60.27 C47.2637497,60.3200002 47.1712506,60.345 47.05125,60.345 C46.9362494,60.345 46.8325005,60.3175003 46.74,60.2625 C46.6474995,60.2074997 46.5437506,60.1462503 46.42875,60.07875 C46.3137494,60.0112497 46.1787508,59.9500003 46.02375,59.895 C45.8687492,59.8399997 45.6762511,59.8125 45.44625,59.8125 C45.1612486,59.8125 44.915001,59.8649995 44.7075,59.97 C44.499999,60.0750005 44.3287507,60.224999 44.19375,60.42 C44.0587493,60.615001 43.9587503,60.8537486 43.89375,61.13625 C43.8287497,61.4187514 43.79625,61.7374982 43.79625,62.0925 C43.79625,62.8375037 43.9399986,63.409998 44.2275,63.81 C44.5150014,64.210002 44.9112475,64.41 45.41625,64.41 C45.6862513,64.41 45.8999992,64.3762503 46.0575,64.30875 C46.2150008,64.2412497 46.3487494,64.1662504 46.45875,64.08375 C46.5687506,64.0012496 46.6699995,63.9250004 46.7625,63.855 C46.8550005,63.7849997 46.9712493,63.75 47.11125,63.75 C47.2962509,63.75 47.4362495,63.8174993 47.53125,63.9525 L48.20625,64.785 C47.9662488,65.0600014 47.7137513,65.2837491 47.44875,65.45625 C47.1837487,65.6287509 46.9125014,65.7637495 46.635,65.86125 C46.3574986,65.9587505 46.0787514,66.0262498 45.79875,66.06375 C45.5187486,66.1012502 45.2462513,66.12 44.98125,66.12 C44.5062476,66.12 44.0525022,66.0300009 43.62,65.85 C43.1874978,65.6699991 42.8075016,65.4087517 42.48,65.06625 C42.1524984,64.7237483 41.892501,64.3025025 41.7,63.8025 C41.507499,63.3024975 41.41125,62.7325032 41.41125,62.0925 C41.41125,61.5324972 41.4949992,61.0087524 41.6625,60.52125 C41.8300008,60.0337476 42.0774984,59.6112518 42.405,59.25375 C42.7325016,58.8962482 43.1374976,58.615001 43.62,58.41 C44.1025024,58.204999 44.6612468,58.1025 45.29625,58.1025 C45.9062531,58.1025 46.4412477,58.199999 46.90125,58.395 C47.3612523,58.590001 47.7762482,58.8749981 48.14625,59.25 L47.53125,60.0675 Z M51.43875,54.7725 L51.43875,61.065 L51.78375,61.065 C51.9287507,61.065 52.0387496,61.0437502 52.11375,61.00125 C52.1887504,60.9587498 52.2637496,60.8875005 52.33875,60.7875 L53.80875,58.5975 C53.8987505,58.4724994 54.0012494,58.3787503 54.11625,58.31625 C54.2312506,58.2537497 54.3787491,58.2225 54.55875,58.2225 L56.68875,58.2225 L54.67875,60.99 C54.4887491,61.2400012 54.2637513,61.4449992 54.00375,61.605 C54.1187506,61.6900004 54.2237495,61.7887494 54.31875,61.90125 C54.4137505,62.0137506 54.5037496,62.1399993 54.58875,62.28 L56.77875,66 L54.67875,66 C54.5037491,66 54.3537506,65.9712503 54.22875,65.91375 C54.1037494,65.8562497 53.9987504,65.7550007 53.91375,65.61 L52.44375,62.8575 C52.3737497,62.7324994 52.3012504,62.6512502 52.22625,62.61375 C52.1512496,62.5762498 52.0387508,62.5575 51.88875,62.5575 L51.43875,62.5575 L51.43875,66 L49.11375,66 L49.11375,54.7725 L51.43875,54.7725 Z M62.85375,60.0675 C62.7837497,60.1525004 62.7162503,60.2199997 62.65125,60.27 C62.5862497,60.3200002 62.4937506,60.345 62.37375,60.345 C62.2587494,60.345 62.1550005,60.3175003 62.0625,60.2625 C61.9699995,60.2074997 61.8662506,60.1462503 61.75125,60.07875 C61.6362494,60.0112497 61.5012508,59.9500003 61.34625,59.895 C61.1912492,59.8399997 60.9987512,59.8125 60.76875,59.8125 C60.4837486,59.8125 60.237501,59.8649995 60.03,59.97 C59.822499,60.0750005 59.6512507,60.224999 59.51625,60.42 C59.3812493,60.615001 59.2812503,60.8537486 59.21625,61.13625 C59.1512497,61.4187514 59.11875,61.7374982 59.11875,62.0925 C59.11875,62.8375037 59.2624986,63.409998 59.55,63.81 C59.8375014,64.210002 60.2337475,64.41 60.73875,64.41 C61.0087513,64.41 61.2224992,64.3762503 61.38,64.30875 C61.5375008,64.2412497 61.6712495,64.1662504 61.78125,64.08375 C61.8912506,64.0012496 61.9924995,63.9250004 62.085,63.855 C62.1775005,63.7849997 62.2937493,63.75 62.43375,63.75 C62.6187509,63.75 62.7587495,63.8174993 62.85375,63.9525 L63.52875,64.785 C63.2887488,65.0600014 63.0362513,65.2837491 62.77125,65.45625 C62.5062487,65.6287509 62.2350014,65.7637495 61.9575,65.86125 C61.6799986,65.9587505 61.4012514,66.0262498 61.12125,66.06375 C60.8412486,66.1012502 60.5687513,66.12 60.30375,66.12 C59.8287476,66.12 59.3750022,66.0300009 58.9425,65.85 C58.5099978,65.6699991 58.1300016,65.4087517 57.8025,65.06625 C57.4749984,64.7237483 57.215001,64.3025025 57.0225,63.8025 C56.829999,63.3024975 56.73375,62.7325032 56.73375,62.0925 C56.73375,61.5324972 56.8174992,61.0087524 56.985,60.52125 C57.1525008,60.0337476 57.3999984,59.6112518 57.7275,59.25375 C58.0550016,58.8962482 58.4599976,58.615001 58.9425,58.41 C59.4250024,58.204999 59.9837468,58.1025 60.61875,58.1025 C61.228753,58.1025 61.7637477,58.199999 62.22375,58.395 C62.6837523,58.590001 63.0987482,58.8749981 63.46875,59.25 L62.85375,60.0675 Z M66.76125,58.905 C67.0412514,58.6649988 67.3449984,58.4712507 67.6725,58.32375 C68.0000016,58.1762493 68.3912477,58.1025 68.84625,58.1025 C69.2712521,58.1025 69.6474984,58.1762493 69.975,58.32375 C70.3025016,58.4712507 70.5787489,58.6762487 70.80375,58.93875 C71.0287511,59.2012513 71.1987494,59.5137482 71.31375,59.87625 C71.4287506,60.2387518 71.48625,60.6324979 71.48625,61.0575 L71.48625,66 L69.16125,66 L69.16125,61.0575 C69.16125,60.6774981 69.0737509,60.3812511 68.89875,60.16875 C68.7237491,59.9562489 68.4662517,59.85 68.12625,59.85 C67.8712487,59.85 67.6325011,59.9037495 67.41,60.01125 C67.1874989,60.1187505 66.9712511,60.2649991 66.76125,60.45 L66.76125,66 L64.43625,66 L64.43625,54.7725 L66.76125,54.7725 L66.76125,58.905 Z M76.99875,62.835 C76.5337477,62.8550001 76.1512515,62.8949997 75.85125,62.955 C75.5512485,63.0150003 75.3137509,63.0899996 75.13875,63.18 C74.9637491,63.2700004 74.8425003,63.3724994 74.775,63.4875 C74.7074997,63.6025006 74.67375,63.7274993 74.67375,63.8625 C74.67375,64.1275013 74.7462493,64.3137495 74.89125,64.42125 C75.0362507,64.5287505 75.2487486,64.5825 75.52875,64.5825 C75.8287515,64.5825 76.0912489,64.5300005 76.31625,64.425 C76.5412511,64.3199995 76.7687488,64.1500012 76.99875,63.915 L76.99875,62.835 Z M72.81375,59.3025 C73.2837523,58.8874979 73.8049971,58.578751 74.3775,58.37625 C74.9500029,58.173749 75.5637467,58.0725 76.21875,58.0725 C76.6887524,58.0725 77.1124981,58.1487492 77.49,58.30125 C77.8675019,58.4537508 78.1874987,58.6662486 78.45,58.93875 C78.7125013,59.2112514 78.9137493,59.5349981 79.05375,59.91 C79.1937507,60.2850019 79.26375,60.6949978 79.26375,61.14 L79.26375,66 L78.19875,66 C77.9787489,66 77.8125006,65.9700003 77.7,65.91 C77.5874994,65.8499997 77.4937504,65.7250009 77.41875,65.535 L77.25375,65.1075 C77.058749,65.2725008 76.8712509,65.4174994 76.69125,65.5425 C76.5112491,65.6675006 76.325001,65.7737496 76.1325,65.86125 C75.939999,65.9487504 75.7350011,66.0137498 75.5175,66.05625 C75.2999989,66.0987502 75.0587513,66.12 74.79375,66.12 C74.4387482,66.12 74.1162514,66.0737505 73.82625,65.98125 C73.5362485,65.8887495 73.290001,65.7525009 73.0875,65.5725 C72.884999,65.3924991 72.7287506,65.1687513 72.61875,64.90125 C72.5087494,64.6337487 72.45375,64.3250017 72.45375,63.975 C72.45375,63.6949986 72.5237493,63.4112514 72.66375,63.12375 C72.8037507,62.8362486 73.0462483,62.5737512 73.39125,62.33625 C73.7362517,62.0987488 74.2012471,61.9000008 74.78625,61.74 C75.3712529,61.5799992 76.1087455,61.4900001 76.99875,61.47 L76.99875,61.14 C76.99875,60.6849977 76.9050009,60.356251 76.7175,60.15375 C76.5299991,59.951249 76.2637517,59.85 75.91875,59.85 C75.6437486,59.85 75.4187509,59.8799997 75.24375,59.94 C75.0687491,60.0000003 74.9125007,60.0674996 74.775,60.1425 C74.6374993,60.2175004 74.5037507,60.2849997 74.37375,60.345 C74.2437494,60.4050003 74.0887509,60.435 73.90875,60.435 C73.7487492,60.435 73.6137505,60.3950004 73.50375,60.315 C73.3937495,60.2349996 73.3037504,60.1400005 73.23375,60.03 L72.81375,59.3025 Z M83.12625,58.2225 L83.12625,66 L80.80125,66 L80.80125,58.2225 L83.12625,58.2225 Z M83.36625,56.0925 C83.36625,56.2775009 83.3287504,56.4512492 83.25375,56.61375 C83.1787496,56.7762508 83.0762506,56.9187494 82.94625,57.04125 C82.8162493,57.1637506 82.6650009,57.2612496 82.4925,57.33375 C82.3199991,57.4062504 82.136251,57.4425 81.94125,57.4425 C81.751249,57.4425 81.5737508,57.4062504 81.40875,57.33375 C81.2437492,57.2612496 81.0975006,57.1637506 80.97,57.04125 C80.8424994,56.9187494 80.7425004,56.7762508 80.67,56.61375 C80.5974996,56.4512492 80.56125,56.2775009 80.56125,56.0925 C80.56125,55.9024991 80.5974996,55.7250008 80.67,55.56 C80.7425004,55.3949992 80.8424994,55.2500006 80.97,55.125 C81.0975006,54.9999994 81.2437492,54.9025003 81.40875,54.8325 C81.5737508,54.7624997 81.751249,54.7275 81.94125,54.7275 C82.136251,54.7275 82.3199991,54.7624997 82.4925,54.8325 C82.6650009,54.9025003 82.8162493,54.9999994 82.94625,55.125 C83.0762506,55.2500006 83.1787496,55.3949992 83.25375,55.56 C83.3287504,55.7250008 83.36625,55.9024991 83.36625,56.0925 Z M86.89875,59.0625 C87.0487507,58.9224993 87.2037492,58.7925006 87.36375,58.6725 C87.5237508,58.5524994 87.6949991,58.4512504 87.8775,58.36875 C88.0600009,58.2862496 88.2574989,58.2212502 88.47,58.17375 C88.6825011,58.1262498 88.9137487,58.1025 89.16375,58.1025 C89.5887521,58.1025 89.9649984,58.1762493 90.2925,58.32375 C90.6200016,58.4712507 90.8962489,58.6762487 91.12125,58.93875 C91.3462511,59.2012513 91.5162494,59.5137482 91.63125,59.87625 C91.7462506,60.2387518 91.80375,60.6324979 91.80375,61.0575 L91.80375,66 L89.47875,66 L89.47875,61.0575 C89.47875,60.6774981 89.3912509,60.3812511 89.21625,60.16875 C89.0412491,59.9562489 88.7837517,59.85 88.44375,59.85 C88.1887487,59.85 87.9500011,59.9037495 87.7275,60.01125 C87.5049989,60.1187505 87.288751,60.2649991 87.07875,60.45 L87.07875,66 L84.75375,66 L84.75375,58.2225 L86.19375,58.2225 C86.4837514,58.2225 86.6737495,58.3524987 86.76375,58.6125 L86.89875,59.0625 Z" id="Blockchain" fill="#FFFFFF"></path>
                </g>
            </g>
        </g>
    </g>
</svg>