<?xml version="1.0" encoding="UTF-8"?>
<svg width="75px" height="70px" viewBox="0 0 75 70" version="1.1" xmlns="http://www.w3.org/2000/svg" xmlns:xlink="http://www.w3.org/1999/xlink">
    <!-- Generator: Sketch 51.2 (57519) - http://www.bohemiancoding.com/sketch -->
    <title>Group 23</title>
    <desc>Created with Sketch.</desc>
    <defs></defs>
    <g id="Page-1" stroke="none" stroke-width="1" fill="none" fill-rule="evenodd">
        <g id="Blockchain---doplnene-texty-2" transform="translate(-250.000000, -1847.000000)" fill="#FFFFFF" fill-rule="nonzero">
            <g id="Group-21" transform="translate(-34.000000, 1785.000000)">
                <g id="Group-23" transform="translate(284.000000, 62.000000)">
                    <path d="M34.9560378,44.1156167 C36.2510269,42.285682 37.2985927,40.2926881 38.0715475,38.1883596 C39.7558733,37.1684917 40.7862515,35.3439252 40.7898297,33.3748972 L40.7898297,29.1455928 C40.7886383,27.9746634 40.4209528,26.8334765 39.7383452,25.8820964 L39.7383452,23.3741112 C39.9771544,20.5023825 39.0604162,17.654046 37.191416,15.4607167 C34.7457409,12.6723355 30.8669314,11.2547786 25.6796078,11.2547786 C20.4922843,11.2547786 16.6134747,12.6723355 14.1677997,15.4607167 C12.3114208,17.6464648 11.3907911,20.4755124 11.605293,23.3351673 L11.605293,25.8820964 C10.9222128,26.8332381 10.554477,27.974581 10.5538085,29.1455928 L10.5538085,33.3593196 C10.5445596,34.891948 11.1638664,36.3613943 12.2673388,37.4250597 C13.0105144,40.0466683 14.2044464,42.5188717 15.7956535,44.7309299 L15.7956535,47.7373967 C15.7950961,48.228248 15.5261432,48.6794912 15.0946638,48.9135016 L5.70140219,54.0307262 C2.18138907,55.9418456 -0.00754087184,59.6289366 1.95217604e-05,63.6342847 L1.95217604e-05,67.9804206 C1.95217604e-05,68.8407449 0.697450114,69.5381755 1.55777435,69.5381755 L49.7469199,69.5381755 C50.6072441,69.5381755 51.3046747,68.8407449 51.3046747,67.9804206 L51.3046747,63.8367928 C51.3128255,59.6922437 48.970695,55.9013728 45.260586,54.0540925 L35.2052786,49.0303332 C34.7348012,48.815631 34.4311395,48.3479921 34.4264012,47.830862 L34.4264012,44.7698737 C34.6211205,44.5595768 34.7924736,44.3337024 34.9560378,44.1156167 Z M33.811088,51.8265031 L43.8663954,56.8580512 C46.5258466,58.1795278 48.2024231,60.8983006 48.1891651,63.8679479 L48.1892431,66.4460321 L3.11551199,66.4460321 L3.11552918,63.6342847 C3.1095318,60.7722868 4.67362971,58.1375444 7.18905805,56.7723747 L16.5823197,51.6473613 C18.0140523,50.8734689 18.9098622,49.3804524 18.9189519,47.7529742 L18.9189519,44.209082 C18.9201132,43.8658046 18.8078512,43.5317567 18.5996122,43.2588515 C17.0093198,41.1460715 15.8453359,38.7440321 15.1725515,36.1866446 C15.0900323,35.8510029 14.8982286,35.5523371 14.6273373,35.3376682 C14.0139143,34.8653954 13.6565952,34.1334677 13.6615294,33.3593196 L13.6615294,29.1455928 C13.6639897,28.5231755 13.8970932,27.9237666 14.3157864,27.4632176 C14.5726324,27.176367 14.7141423,26.8045567 14.7130139,26.4195219 L14.7130139,23.2572796 C14.7165567,23.1976182 14.7165567,23.1377991 14.7130139,23.0781378 C14.5597063,21.0601265 15.2059202,19.0627381 16.5122207,17.516953 C18.3425826,15.4295616 21.4269372,14.4014434 25.6796078,14.4014434 C29.9322785,14.4014434 33.0166331,15.4607167 34.846995,17.516953 C36.1301568,19.0770646 36.7633114,21.0713621 36.6150467,23.0859265 C36.6119029,23.1430009 36.6119029,23.2002051 36.6150467,23.2572796 L36.6150467,26.3727892 C36.615837,26.7551396 36.7572204,27.1238453 37.0122742,27.4086962 C37.4309674,27.8692452 37.6640708,28.4686541 37.6665312,29.0910714 L37.6665312,33.3047982 C37.688456,34.3172381 37.0937341,35.2416762 36.1632978,35.6414304 C35.7672612,35.8174364 35.4624493,36.1504716 35.3221102,36.5605058 C34.6331887,38.5981766 33.654767,40.5261658 32.4168975,42.2852548 C32.1754455,42.6279608 31.9339935,42.9473006 31.708119,43.2199077 C31.4775926,43.4981059 31.3509372,43.8477851 31.3498354,44.209082 L31.3498354,47.8074956 C31.3339303,49.5057061 32.2898811,51.0636639 33.811088,51.8187143 L33.811088,51.8265031 Z" id="Shape"></path>
                    <path d="M67.3729158,1.38356422e-15 L49.9650056,1.38356422e-15 C46.0935465,0 42.9551089,3.13843766 42.9551089,7.00989672 L42.9551089,28.8184643 C42.9542024,29.4402089 43.3230997,30.0029507 43.8936062,30.2501137 C44.4641126,30.4972767 45.1269582,30.3815215 45.5799258,29.9556253 L51.6473808,24.2620314 L67.3729158,24.2620314 C69.232056,24.2620314 71.0150506,23.5234909 72.3296613,22.2088802 C73.6442719,20.8942696 74.3828125,19.1112749 74.3828125,17.2521347 L74.3828125,7.00989672 C74.3828125,3.13843766 71.2443748,0 67.3729158,1.38356422e-15 Z M51.2112095,7.23577117 L56.4063218,7.23577117 C57.266646,7.2357712 57.9640766,7.93320178 57.9640766,8.793526 C57.9640766,9.65385021 57.266646,10.3512808 56.4063218,10.3512808 L51.2112095,10.3512808 C50.3508852,10.3512808 49.6534546,9.65385023 49.6534546,8.793526 C49.6534546,7.93320176 50.3508852,7.23577117 51.2112095,7.23577117 Z M64.1950959,16.5823001 L51.2112095,16.5823001 C50.3508852,16.5823001 49.6534546,15.8848695 49.6534546,15.0245453 C49.6534546,14.1642211 50.3508852,13.4667905 51.2112095,13.4667905 L64.1795184,13.4667905 C65.0398426,13.4667905 65.7372732,14.1642211 65.7372732,15.0245453 C65.7372732,15.8848695 65.0398426,16.5823001 64.1795184,16.5823001 L64.1950959,16.5823001 Z" id="Shape"></path>
                </g>
            </g>
        </g>
    </g>
</svg>