<?xml version="1.0" encoding="UTF-8"?>
<svg width="44px" height="44px" viewBox="0 0 44 44" version="1.1" xmlns="http://www.w3.org/2000/svg" xmlns:xlink="http://www.w3.org/1999/xlink">
    <g stroke="none" stroke-width="1" fill="none" fill-rule="evenodd">
        <g transform="translate(-1046.000000, -2264.000000)" fill="#FFFFFF" fill-rule="nonzero">
            <g transform="translate(251.000000, 1975.000000)">
                <g transform="translate(458.000000, 20.000000)">
                    <g transform="translate(240.000000, 190.000000)">
                        <path d="M116.119023,116.045953 L116.307814,115.038558 L114.974,114.788884 L114.796465,115.737442 C114.773953,115.73693 114.751953,115.735907 114.72893,115.735907 C112.919814,115.735907 111.44786,117.20786 111.44786,119.016977 C111.44786,120.826093 112.919814,122.297535 114.72893,122.297535 C116.538047,122.297535 118.01,120.825581 118.01,119.016977 C118.01,117.70414 117.234884,116.56986 116.119023,116.045953 Z M114.72893,120.940186 C113.668326,120.940186 112.805209,120.07707 112.805209,119.016465 C112.805209,117.95586 113.668326,117.092744 114.72893,117.092744 C115.789535,117.092744 116.652651,117.95586 116.652651,119.016465 C116.652651,120.07707 115.789535,120.940186 114.72893,120.940186 Z M137.52707,115.09893 C139.336186,115.09893 140.80814,116.570884 140.80814,118.379488 C140.80814,120.188605 139.336186,121.660558 137.52707,121.660558 C135.718465,121.660558 134.246512,120.188605 134.246512,118.379488 C134.246512,117.610512 134.51307,116.90293 134.958186,116.342698 L134.367767,115.642791 L135.405349,114.767907 L136.002419,115.476 C136.458279,115.235535 136.976558,115.09893 137.52707,115.09893 Z M137.52707,120.303721 C138.588186,120.303721 139.451302,119.440605 139.450791,118.38 C139.450791,117.319395 138.587674,116.456279 137.52707,116.456279 C136.466465,116.456279 135.603349,117.319395 135.603349,118.38 C135.603349,119.440605 136.466465,120.303721 137.52707,120.303721 Z M102.805953,116.194326 L103.865023,117.043628 L103.248,117.812605 C103.592326,118.331395 103.793395,118.953023 103.793395,119.620698 C103.793395,121.429814 102.321442,122.901767 100.512326,122.901767 C98.7032093,122.901767 97.2312558,121.429814 97.2312558,119.620698 C97.2312558,117.812093 98.7032093,116.34014 100.512326,116.34014 C101.16107,116.34014 101.765814,116.530465 102.275395,116.856372 L102.805953,116.194326 Z M100.512326,121.54493 C101.57293,121.54493 102.436047,120.681814 102.436047,119.621209 C102.436047,118.560605 101.57293,117.697488 100.512326,117.697488 C99.4517209,117.697488 98.5886047,118.560605 98.5886047,119.621209 C98.5886047,120.681814 99.4517209,121.54493 100.512326,121.54493 Z M105.269141,113.127578 L106.328009,113.976735 L104.316021,116.485609 L103.257153,115.636452 L105.269141,113.127578 Z M107.728517,110.061504 L108.787385,110.910662 L106.775397,113.419536 L105.716529,112.570378 L107.728517,110.061504 Z M131.436651,110.061442 L130.399581,110.935302 L129.792791,110.215953 C129.578419,110.380186 129.359953,110.539302 129.137907,110.692279 L128.367907,109.574884 C129.158372,109.030512 129.898186,108.405302 130.567907,107.71614 L131.541535,108.661628 C131.313349,108.896977 131.076465,109.124651 130.833442,109.345674 L131.436651,110.061442 Z M135.074435,114.378775 L134.037133,115.253393 L132.548766,113.48818 L133.586069,112.613563 L135.074435,114.378775 Z M133.255721,112.220831 L132.218419,113.095448 L130.730052,111.330235 L131.767354,110.455618 L133.255721,112.220831 Z M116.485349,114.088977 L115.151535,113.839302 L115.350558,112.775628 C115.037953,112.678419 114.727907,112.572512 114.422465,112.45586 L114.905953,111.188047 C115.801814,111.529814 116.736558,111.78307 117.683581,111.941163 L117.46,113.279581 C117.194465,113.23507 116.92893,113.183395 116.665442,113.125581 L116.485349,114.088977 Z M100.47293,85.8645116 C98.663814,85.8645116 97.1918605,84.3925581 97.1923721,82.5834419 C97.1923721,80.7743256 98.6643256,79.3023721 100.473442,79.3023721 C102.282558,79.3023721 103.754512,80.7743256 103.754512,82.5834419 C103.754512,83.2014884 103.582093,83.7801395 103.283814,84.2743721 L103.959674,84.8085116 L103.118558,85.8737209 L102.353674,85.2694884 C101.820558,85.644 101.172326,85.8645116 100.47293,85.8645116 Z M100.47293,80.6597209 C99.411814,80.6597209 98.5492093,81.5228372 98.5492093,82.5834419 C98.5492093,83.6440465 99.4123256,84.5071628 100.47293,84.5071628 C101.533535,84.5071628 102.396651,83.6440465 102.396651,82.5834419 C102.396651,81.5228372 101.533535,80.6597209 100.47293,80.6597209 Z M103.571271,86.2341219 L104.412239,85.169276 L106.448777,86.7776426 L105.607809,87.8424884 L103.571271,86.2341219 Z M106.059907,88.1965116 L106.901023,87.1313023 L107.587116,87.6731163 C107.77693,87.4326512 107.973395,87.1973023 108.176512,86.968093 L109.19107,87.8690698 C108.552558,88.587907 107.983628,89.3722326 107.499628,90.2000465 L106.328,89.5149767 C106.474837,89.2637674 106.62986,89.0166512 106.790512,88.7736279 L106.059907,88.1965116 Z M104.173535,96.833814 C104.220093,95.7824186 104.370512,94.7346047 104.621721,93.7185116 L105.939163,94.043907 C105.709953,94.9730233 105.571814,95.9313023 105.529349,96.8936744 L104.173535,96.833814 Z M107.18907,90.7587442 C106.740884,91.6085581 106.376605,92.5059535 106.106465,93.4253488 L104.804372,93.0421395 C105.100605,92.0362791 105.498651,91.0549767 105.988791,90.1258605 L107.18907,90.7587442 Z M135.397163,102.078512 C135.099907,103.08386 134.700326,104.064651 134.209163,104.993767 L133.009395,104.359349 C133.458605,103.510047 133.823907,102.613163 134.095581,101.693767 L135.397163,102.078512 Z M136.032093,98.2883721 C135.984512,99.3397674 135.832558,100.387581 135.580837,101.40214 L134.263395,101.075721 C134.493628,100.147116 134.632279,99.1888372 134.676279,98.2264651 L136.032093,98.2883721 Z M131.004326,107.246977 C131.643349,106.529163 132.213302,105.745349 132.698837,104.918047 L133.869442,105.60414 C133.338884,106.508698 132.716233,107.364651 132.018372,108.148977 L131.004326,107.246977 Z M104.157674,97.5516279 L104.157674,97.5337209 L105.515023,97.5337209 L105.515023,97.5516279 C105.515023,98.5104186 105.608651,99.4692093 105.792837,100.400884 L104.461581,100.664372 C104.26,99.6457209 104.157674,98.5984186 104.157674,97.5516279 Z M111.82493,85.538093 C111.034977,86.0829767 110.295674,86.7092093 109.627488,87.3993953 L108.652837,86.4549302 C109.38293,85.7013023 110.190791,85.0167442 111.053907,84.4212093 L111.82493,85.538093 Z M114.314512,110.94707 L113.775767,112.192372 C112.813907,111.776419 111.888884,111.261721 111.025256,110.662605 L111.798837,109.547767 C112.588791,110.095721 113.435023,110.566419 114.314512,110.94707 Z M111.280558,109.171209 L110.458884,110.251256 C110.221488,110.070651 109.989721,109.882884 109.762558,109.688977 L109.229953,110.35307 L108.171395,109.504279 L108.765907,108.763442 C108.555628,108.551116 108.350977,108.333674 108.153488,108.110093 L109.170093,107.211163 C109.806558,107.930512 110.516698,108.59 111.280558,109.171209 Z M118.318,112.032233 C119.265535,112.14786 120.244279,112.170372 121.197953,112.100279 L121.298233,113.453535 C120.903256,113.482698 120.501116,113.497535 120.10307,113.497535 C119.451767,113.497023 118.79586,113.457628 118.153767,113.379349 L118.318,112.032233 Z M125.252605,111.205953 C126.149488,110.867256 127.017209,110.437488 127.831721,109.927907 L128.551581,111.078047 C127.661349,111.635209 126.712279,112.105907 125.731488,112.475814 L125.252605,111.205953 Z M121.835953,112.038884 C122.79014,111.925814 123.73614,111.71707 124.647349,111.419302 L125.069442,112.709116 C124.073302,113.035023 123.039302,113.263209 121.995581,113.386512 L121.835953,112.038884 Z M106.888233,103.740791 L105.659302,104.317395 C105.213163,103.366791 104.861163,102.368093 104.612,101.34893 L105.930465,101.026605 C106.15814,101.958279 106.480465,102.871535 106.888233,103.740791 Z M125.766791,82.6412558 L125.284326,83.910093 C124.387953,83.5693488 123.453209,83.3171163 122.505674,83.1600465 L122.727721,81.8211163 C123.764279,81.9930233 124.786512,82.2687907 125.766791,82.6412558 Z M121.871767,83.0689767 C120.925256,82.9548837 119.947023,82.9328837 118.991814,83.0045116 L118.89,81.6512558 C119.932698,81.5729767 121.000465,81.5970233 122.034465,81.7218605 L121.871767,83.0689767 Z M108.756186,106.721535 L107.701209,107.57493 C107.040186,106.75786 106.458465,105.873256 105.971907,104.945163 L107.173721,104.315349 C107.618837,105.164651 108.151442,105.974047 108.756186,106.721535 Z M114.938698,83.9034419 C114.042326,84.2431628 113.174605,84.6739535 112.361116,85.1845581 L111.639721,84.0349302 C112.529953,83.4762326 113.478,83.0050233 114.458279,82.634093 L114.938698,83.9034419 Z M118.353814,83.0669302 C117.399628,83.1810233 116.45414,83.3902791 115.543442,83.6895814 L115.119814,82.4002791 C116.115442,82.0728372 117.149442,81.8441395 118.192651,81.7193023 L118.353814,83.0669302 Z M126.930233,85.243907 L127.937116,85.2433953 C127.280186,84.8243721 126.589488,84.4565116 125.876279,84.1490233 L126.414,82.9032093 C127.041767,83.1743721 127.653674,83.4874884 128.243581,83.8384651 C128.407302,81.7254419 130.177535,80.0554884 132.332,80.0554884 C134.593907,80.0554884 136.434233,81.895814 136.434233,84.1577209 L136.434233,85.243907 L137.824326,85.243907 L137.824326,92.1253023 C137.824326,93.5757674 137.067116,94.8517674 135.928233,95.5813488 C136.008558,96.2331628 136.048977,96.8926512 136.048977,97.5516279 L136.048977,97.5869302 L134.69214,97.5869302 L134.69214,97.5516279 C134.69214,97.075814 134.669116,96.6 134.62307,96.1272558 C134.457814,96.164093 134.288977,96.1922326 134.116558,96.2086047 C134.158512,96.6511628 134.18307,97.0983256 134.18307,97.5516279 C134.18307,105.315581 127.866512,111.631628 120.10307,111.631628 C112.339628,111.631628 106.024093,105.31507 106.024093,97.5516279 C106.024093,89.788186 112.34014,83.4721395 120.103581,83.4721395 C122.579349,83.4721395 124.906744,84.1167907 126.930233,85.243907 Z M135.863256,87.2054884 C135.863256,87.2054884 128.801256,87.2054884 128.801256,87.2054884 L128.801256,92.125814 C128.801256,93.3066512 129.761581,94.2669767 130.942419,94.2669767 L133.722093,94.2669767 C134.90293,94.2669767 135.863256,93.3066512 135.863256,92.125814 L135.863256,87.2054884 Z M123.201488,97.2983721 C124.120372,97.8376279 124.738419,98.8363256 124.737907,99.9767442 C124.737907,101.519302 123.606186,102.802465 122.129116,103.03986 L122.129116,104.938 L120.772279,104.938 L120.772279,103.079767 L119.916837,103.079767 L119.916837,104.938 L118.56,104.938 L118.56,103.079767 L117.702,103.079767 L117.023581,103.079767 L116.147163,103.079767 L116.147163,101.72293 L117.023581,101.72293 L117.023581,93.3813488 L116.147163,93.3813488 L116.147163,92.0245116 L117.023581,92.0245116 L117.702,92.0245116 L118.56,92.0245116 L118.56,90.1662791 L119.917349,90.1662791 L119.917349,92.0245116 L120.772791,92.0245116 L120.772791,90.1662791 L122.129628,90.1662791 L122.129628,92.2434884 C123.276698,92.6998605 124.089674,93.8203256 124.089674,95.1275349 C124.089674,95.9717209 123.750465,96.7381395 123.201488,97.2983721 Z M118.380419,93.3813488 L118.380419,96.8737209 L120.986651,96.8737209 C121.949535,96.8737209 122.732837,96.0904186 122.732837,95.1275349 C122.732837,94.1646512 121.949535,93.3813488 120.986651,93.3813488 L118.380419,93.3813488 Z M121.635395,101.722419 C122.598279,101.722419 123.381581,100.939116 123.381581,99.9762326 C123.381581,99.0133488 122.598279,98.2300465 121.635395,98.2300465 L118.380419,98.2300465 L118.380419,101.722419 L121.635395,101.722419 Z M120.10307,108.917442 C126.37,108.917442 131.468884,103.818558 131.468372,97.5521395 C131.468372,97.1044651 131.441256,96.6629302 131.390605,96.2285581 L130.941907,96.2285581 C128.68,96.2285581 126.839674,94.3882326 126.839674,92.1263256 L126.839674,88.4083256 C124.953302,87.0141395 122.62386,86.1868372 120.10307,86.1868372 C113.835628,86.1868372 108.737256,91.2852093 108.737256,97.5521395 C108.737256,103.81907 113.83614,108.917442 120.10307,108.917442 Z M132.332,82.0170698 C131.151674,82.0170698 130.191349,82.9773953 130.190837,84.1577209 L130.190837,85.243907 L134.472651,85.243907 L134.472651,84.1577209 C134.472651,82.9773953 133.512326,82.0170698 132.332,82.0170698 Z M131.351721,89.4080465 L133.312791,89.4080465 L133.312791,92.7090698 L131.351721,92.7090698 L131.351721,89.4080465 Z" id="Combined-Shape"></path>
                    </g>
                </g>
            </g>
        </g>
    </g>
</svg>
