<?xml version="1.0" encoding="UTF-8"?>
<svg width="241px" height="202px" viewBox="0 0 241 202" version="1.1" xmlns="http://www.w3.org/2000/svg" xmlns:xlink="http://www.w3.org/1999/xlink">
    <!-- Generator: Sketch 51.2 (57519) - http://www.bohemiancoding.com/sketch -->
    <title>Group 26</title>
    <desc>Created with Sketch.</desc>
    <defs></defs>
    <g id="Page-1" stroke="none" stroke-width="1" fill="none" fill-rule="evenodd">
        <g id="Blockchain---doplnene-texty-2" transform="translate(-950.000000, -2193.000000)">
            <g id="Group-10" transform="translate(251.000000, 1975.000000)">
                <g id="Group-18" transform="translate(458.000000, 20.000000)">
                    <g id="Group-26" transform="translate(241.000000, 198.000000)">
                        <rect id="Rectangle-7" fill="#4D2F72" fill-rule="nonzero" x="0" y="0" width="241" height="202"></rect>
                        <text id="Cryptography" font-family="Lato-Regular, Lato" font-size="18" font-weight="normal" fill="#FFFFFF">
                            <tspan x="65.8785" y="154">Cryptography</tspan>
                        </text>
                        <path d="M115.119023,108.045953 L115.307814,107.038558 L113.974,106.788884 L113.796465,107.737442 C113.773953,107.73693 113.751953,107.735907 113.72893,107.735907 C111.919814,107.735907 110.44786,109.20786 110.44786,111.016977 C110.44786,112.826093 111.919814,114.297535 113.72893,114.297535 C115.538047,114.297535 117.01,112.825581 117.01,111.016977 C117.01,109.70414 116.234884,108.56986 115.119023,108.045953 Z M113.72893,112.940186 C112.668326,112.940186 111.805209,112.07707 111.805209,111.016465 C111.805209,109.95586 112.668326,109.092744 113.72893,109.092744 C114.789535,109.092744 115.652651,109.95586 115.652651,111.016465 C115.652651,112.07707 114.789535,112.940186 113.72893,112.940186 Z M136.52707,107.09893 C138.336186,107.09893 139.80814,108.570884 139.80814,110.379488 C139.80814,112.188605 138.336186,113.660558 136.52707,113.660558 C134.718465,113.660558 133.246512,112.188605 133.246512,110.379488 C133.246512,109.610512 133.51307,108.90293 133.958186,108.342698 L133.367767,107.642791 L134.405349,106.767907 L135.002419,107.476 C135.458279,107.235535 135.976558,107.09893 136.52707,107.09893 Z M136.52707,112.303721 C137.588186,112.303721 138.451302,111.440605 138.450791,110.38 C138.450791,109.319395 137.587674,108.456279 136.52707,108.456279 C135.466465,108.456279 134.603349,109.319395 134.603349,110.38 C134.603349,111.440605 135.466465,112.303721 136.52707,112.303721 Z M101.805953,108.194326 L102.865023,109.043628 L102.248,109.812605 C102.592326,110.331395 102.793395,110.953023 102.793395,111.620698 C102.793395,113.429814 101.321442,114.901767 99.5123256,114.901767 C97.7032093,114.901767 96.2312558,113.429814 96.2312558,111.620698 C96.2312558,109.812093 97.7032093,108.34014 99.5123256,108.34014 C100.16107,108.34014 100.765814,108.530465 101.275395,108.856372 L101.805953,108.194326 Z M99.5123256,113.54493 C100.57293,113.54493 101.436047,112.681814 101.436047,111.621209 C101.436047,110.560605 100.57293,109.697488 99.5123256,109.697488 C98.4517209,109.697488 97.5886047,110.560605 97.5886047,111.621209 C97.5886047,112.681814 98.4517209,113.54493 99.5123256,113.54493 Z M104.269141,105.127578 L105.328009,105.976735 L103.316021,108.485609 L102.257153,107.636452 L104.269141,105.127578 Z M106.728517,102.061504 L107.787385,102.910662 L105.775397,105.419536 L104.716529,104.570378 L106.728517,102.061504 Z M130.436651,102.061442 L129.399581,102.935302 L128.792791,102.215953 C128.578419,102.380186 128.359953,102.539302 128.137907,102.692279 L127.367907,101.574884 C128.158372,101.030512 128.898186,100.405302 129.567907,99.7161395 L130.541535,100.661628 C130.313349,100.896977 130.076465,101.124651 129.833442,101.345674 L130.436651,102.061442 Z M134.074435,106.378775 L133.037133,107.253393 L131.548766,105.48818 L132.586069,104.613563 L134.074435,106.378775 Z M132.255721,104.220831 L131.218419,105.095448 L129.730052,103.330235 L130.767354,102.455618 L132.255721,104.220831 Z M115.485349,106.088977 L114.151535,105.839302 L114.350558,104.775628 C114.037953,104.678419 113.727907,104.572512 113.422465,104.45586 L113.905953,103.188047 C114.801814,103.529814 115.736558,103.78307 116.683581,103.941163 L116.46,105.279581 C116.194465,105.23507 115.92893,105.183395 115.665442,105.125581 L115.485349,106.088977 Z M99.4729302,77.8645116 C97.663814,77.8645116 96.1918605,76.3925581 96.1923721,74.5834419 C96.1923721,72.7743256 97.6643256,71.3023721 99.4734419,71.3023721 C101.282558,71.3023721 102.754512,72.7743256 102.754512,74.5834419 C102.754512,75.2014884 102.582093,75.7801395 102.283814,76.2743721 L102.959674,76.8085116 L102.118558,77.8737209 L101.353674,77.2694884 C100.820558,77.644 100.172326,77.8645116 99.4729302,77.8645116 Z M99.4729302,72.6597209 C98.411814,72.6597209 97.5492093,73.5228372 97.5492093,74.5834419 C97.5492093,75.6440465 98.4123256,76.5071628 99.4729302,76.5071628 C100.533535,76.5071628 101.396651,75.6440465 101.396651,74.5834419 C101.396651,73.5228372 100.533535,72.6597209 99.4729302,72.6597209 Z M102.571271,78.2341219 L103.412239,77.169276 L105.448777,78.7776426 L104.607809,79.8424884 L102.571271,78.2341219 Z M105.059907,80.1965116 L105.901023,79.1313023 L106.587116,79.6731163 C106.77693,79.4326512 106.973395,79.1973023 107.176512,78.968093 L108.19107,79.8690698 C107.552558,80.587907 106.983628,81.3722326 106.499628,82.2000465 L105.328,81.5149767 C105.474837,81.2637674 105.62986,81.0166512 105.790512,80.7736279 L105.059907,80.1965116 Z M103.173535,88.833814 C103.220093,87.7824186 103.370512,86.7346047 103.621721,85.7185116 L104.939163,86.043907 C104.709953,86.9730233 104.571814,87.9313023 104.529349,88.8936744 L103.173535,88.833814 Z M106.18907,82.7587442 C105.740884,83.6085581 105.376605,84.5059535 105.106465,85.4253488 L103.804372,85.0421395 C104.100605,84.0362791 104.498651,83.0549767 104.988791,82.1258605 L106.18907,82.7587442 Z M134.397163,94.0785116 C134.099907,95.0838605 133.700326,96.0646512 133.209163,96.9937674 L132.009395,96.3593488 C132.458605,95.5100465 132.823907,94.6131628 133.095581,93.6937674 L134.397163,94.0785116 Z M135.032093,90.2883721 C134.984512,91.3397674 134.832558,92.3875814 134.580837,93.4021395 L133.263395,93.0757209 C133.493628,92.1471163 133.632279,91.1888372 133.676279,90.2264651 L135.032093,90.2883721 Z M130.004326,99.2469767 C130.643349,98.5291628 131.213302,97.7453488 131.698837,96.9180465 L132.869442,97.6041395 C132.338884,98.5086977 131.716233,99.3646512 131.018372,100.148977 L130.004326,99.2469767 Z M103.157674,89.5516279 L103.157674,89.5337209 L104.515023,89.5337209 L104.515023,89.5516279 C104.515023,90.5104186 104.608651,91.4692093 104.792837,92.4008837 L103.461581,92.6643721 C103.26,91.6457209 103.157674,90.5984186 103.157674,89.5516279 Z M110.82493,77.538093 C110.034977,78.0829767 109.295674,78.7092093 108.627488,79.3993953 L107.652837,78.4549302 C108.38293,77.7013023 109.190791,77.0167442 110.053907,76.4212093 L110.82493,77.538093 Z M113.314512,102.94707 L112.775767,104.192372 C111.813907,103.776419 110.888884,103.261721 110.025256,102.662605 L110.798837,101.547767 C111.588791,102.095721 112.435023,102.566419 113.314512,102.94707 Z M110.280558,101.171209 L109.458884,102.251256 C109.221488,102.070651 108.989721,101.882884 108.762558,101.688977 L108.229953,102.35307 L107.171395,101.504279 L107.765907,100.763442 C107.555628,100.551116 107.350977,100.333674 107.153488,100.110093 L108.170093,99.2111628 C108.806558,99.9305116 109.516698,100.59 110.280558,101.171209 Z M117.318,104.032233 C118.265535,104.14786 119.244279,104.170372 120.197953,104.100279 L120.298233,105.453535 C119.903256,105.482698 119.501116,105.497535 119.10307,105.497535 C118.451767,105.497023 117.79586,105.457628 117.153767,105.379349 L117.318,104.032233 Z M124.252605,103.205953 C125.149488,102.867256 126.017209,102.437488 126.831721,101.927907 L127.551581,103.078047 C126.661349,103.635209 125.712279,104.105907 124.731488,104.475814 L124.252605,103.205953 Z M120.835953,104.038884 C121.79014,103.925814 122.73614,103.71707 123.647349,103.419302 L124.069442,104.709116 C123.073302,105.035023 122.039302,105.263209 120.995581,105.386512 L120.835953,104.038884 Z M105.888233,95.7407907 L104.659302,96.3173953 C104.213163,95.3667907 103.861163,94.368093 103.612,93.3489302 L104.930465,93.0266047 C105.15814,93.9582791 105.480465,94.8715349 105.888233,95.7407907 Z M124.766791,74.6412558 L124.284326,75.910093 C123.387953,75.5693488 122.453209,75.3171163 121.505674,75.1600465 L121.727721,73.8211163 C122.764279,73.9930233 123.786512,74.2687907 124.766791,74.6412558 Z M120.871767,75.0689767 C119.925256,74.9548837 118.947023,74.9328837 117.991814,75.0045116 L117.89,73.6512558 C118.932698,73.5729767 120.000465,73.5970233 121.034465,73.7218605 L120.871767,75.0689767 Z M107.756186,98.7215349 L106.701209,99.5749302 C106.040186,98.7578605 105.458465,97.8732558 104.971907,96.9451628 L106.173721,96.3153488 C106.618837,97.1646512 107.151442,97.9740465 107.756186,98.7215349 Z M113.938698,75.9034419 C113.042326,76.2431628 112.174605,76.6739535 111.361116,77.1845581 L110.639721,76.0349302 C111.529953,75.4762326 112.478,75.0050233 113.458279,74.634093 L113.938698,75.9034419 Z M117.353814,75.0669302 C116.399628,75.1810233 115.45414,75.3902791 114.543442,75.6895814 L114.119814,74.4002791 C115.115442,74.0728372 116.149442,73.8441395 117.192651,73.7193023 L117.353814,75.0669302 Z M125.930233,77.243907 L126.937116,77.2433953 C126.280186,76.8243721 125.589488,76.4565116 124.876279,76.1490233 L125.414,74.9032093 C126.041767,75.1743721 126.653674,75.4874884 127.243581,75.8384651 C127.407302,73.7254419 129.177535,72.0554884 131.332,72.0554884 C133.593907,72.0554884 135.434233,73.895814 135.434233,76.1577209 L135.434233,77.243907 L136.824326,77.243907 L136.824326,84.1253023 C136.824326,85.5757674 136.067116,86.8517674 134.928233,87.5813488 C135.008558,88.2331628 135.048977,88.8926512 135.048977,89.5516279 L135.048977,89.5869302 L133.69214,89.5869302 L133.69214,89.5516279 C133.69214,89.075814 133.669116,88.6 133.62307,88.1272558 C133.457814,88.164093 133.288977,88.1922326 133.116558,88.2086047 C133.158512,88.6511628 133.18307,89.0983256 133.18307,89.5516279 C133.18307,97.3155814 126.866512,103.631628 119.10307,103.631628 C111.339628,103.631628 105.024093,97.3150698 105.024093,89.5516279 C105.024093,81.788186 111.34014,75.4721395 119.103581,75.4721395 C121.579349,75.4721395 123.906744,76.1167907 125.930233,77.243907 Z M134.863256,79.2054884 C134.863256,79.2054884 127.801256,79.2054884 127.801256,79.2054884 L127.801256,84.125814 C127.801256,85.3066512 128.761581,86.2669767 129.942419,86.2669767 L132.722093,86.2669767 C133.90293,86.2669767 134.863256,85.3066512 134.863256,84.125814 L134.863256,79.2054884 Z M122.201488,89.2983721 C123.120372,89.8376279 123.738419,90.8363256 123.737907,91.9767442 C123.737907,93.5193023 122.606186,94.8024651 121.129116,95.0398605 L121.129116,96.938 L119.772279,96.938 L119.772279,95.0797674 L118.916837,95.0797674 L118.916837,96.938 L117.56,96.938 L117.56,95.0797674 L116.702,95.0797674 L116.023581,95.0797674 L115.147163,95.0797674 L115.147163,93.7229302 L116.023581,93.7229302 L116.023581,85.3813488 L115.147163,85.3813488 L115.147163,84.0245116 L116.023581,84.0245116 L116.702,84.0245116 L117.56,84.0245116 L117.56,82.1662791 L118.917349,82.1662791 L118.917349,84.0245116 L119.772791,84.0245116 L119.772791,82.1662791 L121.129628,82.1662791 L121.129628,84.2434884 C122.276698,84.6998605 123.089674,85.8203256 123.089674,87.1275349 C123.089674,87.9717209 122.750465,88.7381395 122.201488,89.2983721 Z M117.380419,85.3813488 L117.380419,88.8737209 L119.986651,88.8737209 C120.949535,88.8737209 121.732837,88.0904186 121.732837,87.1275349 C121.732837,86.1646512 120.949535,85.3813488 119.986651,85.3813488 L117.380419,85.3813488 Z M120.635395,93.7224186 C121.598279,93.7224186 122.381581,92.9391163 122.381581,91.9762326 C122.381581,91.0133488 121.598279,90.2300465 120.635395,90.2300465 L117.380419,90.2300465 L117.380419,93.7224186 L120.635395,93.7224186 Z M119.10307,100.917442 C125.37,100.917442 130.468884,95.8185581 130.468372,89.5521395 C130.468372,89.1044651 130.441256,88.6629302 130.390605,88.2285581 L129.941907,88.2285581 C127.68,88.2285581 125.839674,86.3882326 125.839674,84.1263256 L125.839674,80.4083256 C123.953302,79.0141395 121.62386,78.1868372 119.10307,78.1868372 C112.835628,78.1868372 107.737256,83.2852093 107.737256,89.5521395 C107.737256,95.8190698 112.83614,100.917442 119.10307,100.917442 Z M131.332,74.0170698 C130.151674,74.0170698 129.191349,74.9773953 129.190837,76.1577209 L129.190837,77.243907 L133.472651,77.243907 L133.472651,76.1577209 C133.472651,74.9773953 132.512326,74.0170698 131.332,74.0170698 Z M130.351721,81.4080465 L132.312791,81.4080465 L132.312791,84.7090698 L130.351721,84.7090698 L130.351721,81.4080465 Z" id="Combined-Shape" fill="#FFFFFF" fill-rule="nonzero"></path>
                    </g>
                </g>
            </g>
        </g>
    </g>
</svg>