<?xml version="1.0" encoding="UTF-8"?>
<svg width="60px" height="60px" viewBox="0 0 60 60" version="1.1" xmlns="http://www.w3.org/2000/svg" xmlns:xlink="http://www.w3.org/1999/xlink">
    <!-- Generator: Sketch 51.2 (57519) - http://www.bohemiancoding.com/sketch -->
    <title>Group</title>
    <desc>Created with Sketch.</desc>
    <defs>
        <linearGradient x1="0%" y1="0%" x2="100%" y2="100%" id="linearGradient-1">
            <stop stop-color="#EE72E9" offset="0%"></stop>
            <stop stop-color="#8363F9" offset="100%"></stop>
        </linearGradient>
    </defs>
    <g id="Page-1" stroke="none" stroke-width="1" fill="none" fill-rule="evenodd">
        <g id="Blockchain---doplnene-texty-2" transform="translate(-367.000000, -3350.000000)" fill="url(#linearGradient-1)" fill-rule="nonzero">
            <g id="content-2" transform="translate(0.000000, 2552.000000)">
                <g id="box-1-copy" transform="translate(250.000000, 791.000000)">
                    <g id="Group" transform="translate(117.000000, 7.000000)">
                        <path d="M22.090443,18.6374425 C23.8904827,18.6374425 25.6836256,18.6374425 27.4836652,18.6374425 C29.6009532,18.6374425 31.7251379,18.6374425 33.8424259,18.6374425 C33.8838061,18.6374425 33.9320831,18.6374425 33.9734633,18.6374425 C34.166571,18.6374425 34.3596787,18.6443873 34.5527864,18.6652217 C34.6148567,18.6721665 34.676927,18.6791112 34.7389974,18.686056 C34.5734765,18.6652217 34.7321007,18.686056 34.7665842,18.6930008 C34.8907248,18.72078 35.0148655,18.7416143 35.1321095,18.7693935 C35.3597007,18.8249517 35.5803952,18.8874548 35.8010897,18.9707922 C35.8424699,18.9846818 36.1114414,19.0957984 35.9528172,19.0263505 C36.0769579,19.0819088 36.2010985,19.1444119 36.3252392,19.206915 C36.5114502,19.304142 36.6976612,19.4152585 36.8769755,19.5333199 C36.9666326,19.5888782 37.0493931,19.6513813 37.1390502,19.7138843 C37.2907777,19.8250009 37.1942238,19.755553 37.1597403,19.7277739 C37.2218107,19.7763874 37.2769843,19.8250009 37.3321579,19.8736144 C37.5045755,20.0263997 37.6700964,20.179185 37.8218239,20.3458598 C37.8907909,20.4222525 37.9597579,20.5055899 38.028725,20.5889273 C38.0563118,20.6236513 38.0838986,20.6583752 38.1183821,20.6930991 C38.0149316,20.568093 38.1390722,20.727823 38.1597623,20.7486574 C38.2907997,20.9361666 38.4149404,21.1306206 38.5321843,21.3250746 C38.587358,21.4153568 38.6356349,21.5125838 38.6839118,21.6098108 C38.7114986,21.6653691 38.7390854,21.7209274 38.7666723,21.7764857 C38.7804657,21.8042648 38.8563294,21.9987188 38.7942591,21.8389888 C38.9666767,22.2765103 39.0908173,22.7279213 39.1666811,23.193222 C39.1390942,23.0196023 39.1804745,23.3112833 39.1804745,23.3598968 C39.1942679,23.4918478 39.2011646,23.6168539 39.2011646,23.7488048 C39.2080613,24.0265963 39.1942679,24.2974429 39.1666811,24.5752343 C39.1804745,24.4641178 39.1597844,24.6446822 39.1528877,24.6446822 C39.1390942,24.7141301 39.1253008,24.7905227 39.1115074,24.8599706 C39.0839206,24.9849767 39.0563338,25.1099829 39.0218503,25.234989 C38.9873668,25.3599951 38.9528833,25.4780565 38.911503,25.6030626 C38.8701228,25.7280688 38.8080525,25.8947436 38.7942591,25.9225228 C38.6977052,26.1517007 38.5804613,26.3739339 38.4494239,26.5892222 C38.3114898,26.8253449 38.1735557,27.0267437 38.0494151,27.179529 C37.3873315,27.9851242 36.5666238,28.5684862 35.6631556,28.8740567 C34.6907204,29.2004617 33.8079424,29.1587929 32.7527467,29.1587929 C30.4561445,29.1587929 28.1595422,29.1587929 25.8698366,29.1587929 C25.8146629,29.1587929 25.7594893,29.1587929 25.7043157,29.1587929 C25.1801662,29.1587929 24.7387772,29.6032592 24.7387772,30.1310629 C24.7387772,30.6588667 25.1801662,31.103333 25.7043157,31.103333 C27.8629839,31.103333 30.0216521,31.103333 32.1803203,31.103333 C33.1596523,31.103333 34.1458809,31.1519465 35.1114194,31.006106 C37.4838854,30.6449771 39.5804833,28.9712837 40.5253317,26.7558971 C41.4356965,24.6099583 41.2908658,22.0890011 40.0494591,20.1027923 C38.8908129,18.2485345 36.9735293,17.0262522 34.8217578,16.741516 C34.0976039,16.644289 33.35276,16.679013 32.6286061,16.679013 C31.3665093,16.679013 30.1044126,16.679013 28.8423158,16.679013 C26.628474,16.679013 24.4146321,16.6512338 22.2007903,16.679013 C22.1594101,16.679013 22.1180298,16.679013 22.0766496,16.679013 C21.5525001,16.679013 21.1111111,17.1234792 21.1111111,17.651283 C21.1249045,18.1929762 21.5662935,18.6374425 22.090443,18.6374425 Z" id="Shape"></path>
                        <path d="M25.6679286,30.8496313 C27.7360758,30.8496313 29.8042229,30.8496313 31.8792639,30.8496313 C32.6237968,30.8496313 33.3752236,30.8287723 34.1266504,30.8496313 C34.2576331,30.8565842 34.3817219,30.8635372 34.5127046,30.8704902 C34.5609613,30.8774432 34.6092181,30.8774432 34.6574749,30.8843962 C34.8160328,30.9052552 34.5264922,30.8635372 34.6850502,30.8913492 C34.9332278,30.9330671 35.1745116,30.988691 35.4157955,31.0582209 C35.5192028,31.0860328 35.6226102,31.1207978 35.7260176,31.1555627 C35.788062,31.1764216 36.0017705,31.2598575 35.9535137,31.2389985 C35.8501064,31.1972806 36.0293458,31.2737635 36.0500273,31.2807165 C36.0913902,31.3015754 36.1327532,31.3224344 36.1741161,31.3432933 C36.2982049,31.4058702 36.4153999,31.4684471 36.5394888,31.537977 C36.7394096,31.6561778 36.9255429,31.7813315 37.1116761,31.9134383 C37.11857,31.9203913 37.235765,32.0107801 37.1599329,31.9482032 C37.077207,31.8786733 37.2219773,32.0038271 37.235765,32.0177331 C37.3253847,32.0942159 37.4218982,32.1776518 37.5046241,32.2610876 C37.6700759,32.4210063 37.8286338,32.580925 37.9734041,32.7547497 C38.0147671,32.8034206 38.0492362,32.8451386 38.0905991,32.8938095 C38.0768115,32.8799035 38.0147671,32.7895147 38.0768115,32.8799035 C38.1595373,32.9911513 38.2353694,33.1023991 38.3112015,33.2205999 C38.4283965,33.4013775 38.5318038,33.5891082 38.6283174,33.7768388 C38.683468,33.8880866 38.7386185,33.9993344 38.7868753,34.1105822 C38.7248309,33.9645695 38.8351321,34.249642 38.8558136,34.3122188 C38.9247518,34.5208084 38.9867962,34.7293981 39.0419468,34.9449407 C39.0695221,35.0700944 39.0902036,35.1952482 39.1177789,35.313449 C39.1246727,35.3412609 39.1453542,35.5011796 39.1246727,35.3412609 C39.1315665,35.4038378 39.1384603,35.4664147 39.1453542,35.5289916 C39.1660356,35.7792991 39.1798233,36.0296067 39.1729294,36.2799142 C39.1660356,36.6067046 39.152248,36.7457643 39.0970974,37.0238838 C38.99369,37.5592638 38.8420259,38.025114 38.6352112,38.4353402 C37.7183326,40.2500698 35.9259384,41.3695008 33.947411,41.3834067 C32.1274415,41.3973127 30.3074721,41.3834067 28.4943964,41.3834067 C26.3917801,41.3834067 24.2891639,41.3486418 22.1934414,41.3834067 C22.1520785,41.3834067 22.1176094,41.3834067 22.0762464,41.3834067 C21.5523158,41.3834067 21.1111111,41.8283979 21.1111111,42.3568249 C21.1111111,42.8852519 21.5523158,43.3302431 22.0762464,43.3302431 C23.972048,43.3302431 25.8747434,43.3302431 27.7705449,43.3302431 C29.8180106,43.3302431 31.8723701,43.3371961 33.9267295,43.3302431 C36.1120717,43.3232901 38.2215818,42.308154 39.5658774,40.5699072 C41.0342619,38.6717418 41.5306172,36.0852305 40.7309336,33.7976978 C40.0139759,31.7326606 38.4421841,30.1265206 36.4222938,29.3408331 C35.3054943,28.9097479 34.1542257,28.8888889 32.9822757,28.8888889 C30.6108003,28.8888889 28.2393249,28.8888889 25.8678495,28.8888889 C25.8126989,28.8888889 25.7506545,28.8888889 25.6955039,28.8888889 C25.1715733,28.8888889 24.7303686,29.3338801 24.7303686,29.8623071 C24.7027933,30.4046401 25.143998,30.8496313 25.6679286,30.8496313 Z" id="Shape"></path>
                        <path d="M24.4652129,14.2780027 C24.4652129,15.3238866 24.4652129,16.3630229 24.4652129,17.4089069 C24.4652129,19.9122807 24.4652129,22.4156545 24.4652129,24.9190283 C24.4652129,27.9487179 24.4652129,30.9784076 24.4652129,34.0080972 C24.4652129,36.6261808 24.4652129,39.2442645 24.4652129,41.8623482 C24.4652129,43.1309042 24.4184839,44.3994602 24.4652129,45.6680162 C24.4652129,45.6882591 24.4652129,45.7017544 24.4652129,45.7219973 C24.4652129,46.2348178 24.9636552,46.6666667 25.5555556,46.6666667 C26.1474559,46.6666667 26.6458982,46.2348178 26.6458982,45.7219973 C26.6458982,44.6761134 26.6458982,43.6369771 26.6458982,42.5910931 C26.6458982,40.0877193 26.6458982,37.5843455 26.6458982,35.0809717 C26.6458982,32.0512821 26.6458982,29.0215924 26.6458982,25.9919028 C26.6458982,23.3738192 26.6458982,20.7557355 26.6458982,18.1376518 C26.6458982,16.8690958 26.6926272,15.6005398 26.6458982,14.3319838 C26.6458982,14.3117409 26.6458982,14.2982456 26.6458982,14.2780027 C26.6458982,13.7651822 26.1474559,13.3333333 25.5555556,13.3333333 C24.9636552,13.3333333 24.4652129,13.7651822 24.4652129,14.2780027 Z" id="Shape"></path>
                        <path d="M31.1111111,14.2900096 C31.1111111,15.5063551 31.1111111,16.7158672 31.1111111,17.9322127 C31.1111111,18.4515512 31.6190476,18.8888889 32.2222222,18.8888889 C32.8253968,18.8888889 33.3333333,18.4515512 33.3333333,17.9322127 C33.3333333,16.7158672 33.3333333,15.5063551 33.3333333,14.2900096 C33.3333333,13.770671 32.8253968,13.3333333 32.2222222,13.3333333 C31.6190476,13.3333333 31.1111111,13.770671 31.1111111,14.2900096 Z" id="Shape"></path>
                        <path d="M31.1111111,42.0677873 C31.1111111,43.2841328 31.1111111,44.4936449 31.1111111,45.7099904 C31.1111111,46.229329 31.6190476,46.6666667 32.2222222,46.6666667 C32.8253968,46.6666667 33.3333333,46.229329 33.3333333,45.7099904 C33.3333333,44.4936449 33.3333333,43.2841328 33.3333333,42.0677873 C33.3333333,41.5484488 32.8253968,41.1111111 32.2222222,41.1111111 C31.6190476,41.1111111 31.1111111,41.5484488 31.1111111,42.0677873 Z" id="Shape"></path>
                        <path d="M58.1125562,30.0049106 C58.1125562,30.7936982 58.0788519,31.5757439 58.018184,32.3577897 C57.9912206,32.7285873 57.9507753,33.0993848 57.9103301,33.4701824 C57.8968484,33.5645672 57.8901075,33.6522103 57.8766258,33.7465951 C57.8698849,33.7735622 57.8496623,33.9353648 57.8766258,33.7735622 C57.8496623,33.989299 57.8159579,34.198294 57.7822536,34.4140307 C57.5463231,35.8837374 57.1957978,37.3332188 56.7374186,38.7489913 C56.5149699,39.4299105 56.2655577,40.1108297 55.9959228,40.7715235 C55.989182,40.7850071 55.8745872,41.054678 55.9554776,40.8793919 C55.9217733,40.9602932 55.8880689,41.0411945 55.8476237,41.1288375 C55.7734741,41.2906401 55.7060654,41.4591844 55.6319158,41.620987 C55.4701349,41.9715593 55.3016132,42.3221315 55.1263505,42.665962 C54.4724861,43.9603825 53.7175086,45.2008689 52.8748997,46.3806794 C52.6861554,46.6436085 52.4906701,46.9065377 52.2951849,47.1627251 C52.1199222,47.3919454 52.4097797,47.0211479 52.2277762,47.2503682 C52.1738492,47.3177859 52.1199222,47.3919454 52.0659953,47.4593632 C51.9379187,47.6211658 51.8098422,47.7829683 51.6750248,47.9380291 C51.2166456,48.4908546 50.7313029,49.0301965 50.2324785,49.5425713 C49.733654,50.0616879 49.214607,50.5605792 48.6753373,51.0392451 C48.4124434,51.2752072 48.1428086,51.5044275 47.8731737,51.7269061 C47.7585789,51.8212909 47.6439841,51.9156757 47.5293893,52.0033188 C47.4619806,52.057253 47.3945719,52.1111872 47.3204223,52.1651214 C47.2732363,52.1988302 47.2260502,52.2392809 47.1788641,52.2729897 C47.2530136,52.2123138 47.2462728,52.2190555 47.1586415,52.2864733 C46.0059526,53.1629039 44.7925959,53.9584332 43.5253122,54.6528359 C42.8849295,55.0034082 42.2378059,55.3337551 41.5772006,55.6303931 C41.4289014,55.6978109 41.2806023,55.7652286 41.1255622,55.8326463 C41.0446718,55.8663552 40.9637813,55.9068059 40.87615,55.9405147 C41.0581535,55.8663552 40.7817778,55.9809654 40.7682961,55.9809654 C40.41103,56.1292844 40.0470229,56.2708616 39.6830159,56.3989553 C38.2876557,56.9045884 36.8585911,57.302353 35.4025631,57.5922493 C35.0722604,57.6596671 34.7419578,57.7136013 34.4049142,57.7675354 C34.2229107,57.7945025 34.0409072,57.8214696 33.8589037,57.8484367 C33.5555645,57.8956291 34.0476481,57.8282114 33.7443089,57.8619203 C33.6229732,57.8754038 33.5016376,57.8956291 33.373561,57.9091127 C32.5983609,57.9967558 31.8231608,58.0574317 31.0412198,58.0843988 C29.5380056,58.138333 28.0280506,58.077657 26.5315773,57.8956291 C26.4372051,57.8821456 26.3495738,57.8754038 26.2552016,57.8619203 C25.9518625,57.8214696 26.4372051,57.8888874 26.1406068,57.8484367 C25.9586033,57.8214696 25.7765998,57.7945025 25.5945963,57.7675354 C25.2036258,57.7068595 24.8126553,57.6327 24.4216848,57.5517987 C23.7071525,57.4034797 22.9993611,57.2349353 22.2983106,57.0326821 C21.5770374,56.8304289 20.8625051,56.5944668 20.1547137,56.3315376 C19.8446337,56.2169275 19.5412945,56.0955755 19.2379553,55.9742236 C19.2244736,55.9674818 18.9548387,55.8528717 19.1301014,55.9337729 C19.0492109,55.9000641 18.9683205,55.8663552 18.8806892,55.8259046 C18.6919448,55.7450033 18.4964595,55.6573602 18.3077152,55.5697172 C16.9932454,54.9629575 15.7192208,54.2550713 14.5058641,53.4528002 C13.9126675,53.0617773 13.3396935,52.6505291 12.7802013,52.2190555 C12.9352413,52.3336657 12.6993108,52.1583796 12.6925699,52.1516378 C12.6251612,52.0977036 12.5510117,52.0437694 12.4836029,51.9898352 C12.3487855,51.8819668 12.2072272,51.7673567 12.0724098,51.6527465 C11.7758115,51.4100427 11.492695,51.160597 11.2028375,50.9044096 C10.1580026,49.9605613 9.17383547,48.9358117 8.27729967,47.8503861 C7.78521612,47.2503682 7.50884042,46.8930542 7.03023861,46.2188768 C6.62578637,45.6390842 6.23481587,45.0458081 5.87080886,44.4390485 C5.4933201,43.8053217 5.13605396,43.1513697 4.79901043,42.4906758 C4.65071128,42.2007796 4.50915299,41.9041415 4.37433558,41.6075035 C4.300186,41.4457009 4.22603643,41.2838983 4.15862772,41.115354 C4.12492337,41.0344527 4.08447814,40.9535514 4.05077379,40.8659083 C4.12492337,41.0344527 3.98336508,40.7108475 3.97662421,40.6771387 C3.42387282,39.3085586 2.97223449,37.8995278 2.62845009,36.46353 C2.45992832,35.748902 2.31837004,35.0275322 2.20377524,34.3061624 C2.17681175,34.1241345 2.14984827,33.9421066 2.12288479,33.7600787 C2.14984827,33.9623319 2.10940305,33.6589521 2.10940305,33.6454685 C2.09592131,33.5510837 2.08918044,33.4634406 2.0756987,33.3690558 C2.0285126,32.9645494 1.98806738,32.5667847 1.96110389,32.1622783 C1.85324996,30.6588627 1.85324996,29.1419636 1.97458564,27.638548 C2.04199434,26.7890845 2.10940305,26.2295173 2.23073872,25.4946639 C2.35207439,24.7732941 2.49363267,24.0519243 2.66889531,23.344038 C3.01942058,21.9080402 3.48454066,20.512493 4.04403292,19.1439129 C4.15188685,18.8675002 3.96988334,19.3124573 4.09121901,19.0360445 C4.12492337,18.9551432 4.16536859,18.874242 4.19907294,18.7865989 C4.27322252,18.6247963 4.3473721,18.4629937 4.42152167,18.2944494 C4.56982083,17.9708443 4.72486085,17.6472391 4.88664175,17.3303757 C5.22368528,16.6696819 5.58095142,16.0224716 5.96518105,15.3887449 C6.33592893,14.7819852 6.72015856,14.1887091 7.13135167,13.6156583 C7.33357778,13.3257621 7.54928565,13.0426076 7.76499351,12.7661948 C7.6503987,12.9212556 7.82566134,12.6852935 7.83240221,12.6785518 C7.88632918,12.611134 7.94025614,12.5369745 7.99418311,12.4695568 C8.12225965,12.3077542 8.25707706,12.1526934 8.3851536,11.9908908 C9.29517114,10.912207 10.2793382,9.89419915 11.3309141,8.95709258 C11.593808,8.7211305 11.8634428,8.49191019 12.1330777,8.26943165 C12.2678951,8.15482149 12.4027125,8.04695311 12.5442708,7.93234295 C12.6116795,7.87840876 12.6858291,7.82447457 12.7532378,7.77054038 C12.8408691,7.70312264 12.84761,7.69638087 12.7734604,7.75705683 C12.8206465,7.72334796 12.8678326,7.68289732 12.9150187,7.64918845 C13.4812518,7.2244567 14.0542258,6.81320849 14.6474224,6.42892738 C15.86752,5.64013984 17.1415445,4.93899535 18.4627552,4.33897748 C18.6245361,4.26481797 18.786317,4.19065845 18.9548387,4.12324071 C18.9683205,4.11649894 19.2379553,4.00188878 19.0559518,4.0760483 C19.1368423,4.04233943 19.2244736,4.00863056 19.305364,3.97492169 C19.6356667,3.84008621 19.9727102,3.71199251 20.3097537,3.59064058 C21.0175452,3.33445317 21.7320774,3.10523286 22.4600915,2.90297964 C23.161142,2.7074682 23.8756743,2.53892385 24.5902066,2.3973466 C24.9542136,2.32318709 25.3114797,2.26251112 25.6754868,2.20183516 C25.8574903,2.17486806 26.0394938,2.14790097 26.2214973,2.12093387 C26.0192712,2.14790097 26.3226103,2.10745032 26.3360921,2.10745032 C26.4574278,2.09396678 26.5787634,2.08048323 26.70684,2.06025791 C28.2033132,1.89171356 29.7132683,1.83777937 31.2232233,1.90519711 C31.9984234,1.93890598 32.7803644,1.99958194 33.5555645,2.09396678 C33.6499367,2.10745032 33.737568,2.1141921 33.8319402,2.12767565 C33.6297141,2.10070855 33.9330533,2.14115919 33.946535,2.14790097 C34.1285385,2.17486806 34.310542,2.20183516 34.4925455,2.23554403 C34.8565526,2.29621999 35.2138187,2.36363773 35.5778257,2.43779724 C37.0271129,2.7344353 38.4561775,3.13894173 39.8447968,3.65805832 C40.1818404,3.78615202 40.512143,3.91424572 40.8491865,4.0490812 C41.1255622,4.15694958 40.6806648,3.97492169 40.9570405,4.09627362 C41.0379309,4.12998249 41.1188214,4.17043313 41.2064527,4.204142 C41.3682336,4.27830151 41.5300145,4.35246103 41.6985362,4.42662054 C42.3726233,4.73674214 43.0332286,5.07383083 43.6803522,5.43788662 C44.3005123,5.78171709 44.9071907,6.15251465 45.5003873,6.54353754 C45.7969856,6.73904898 46.086843,6.94130219 46.3767005,7.14355541 C46.5182587,7.24468202 46.6665579,7.3525504 46.8081162,7.45367701 C46.8822658,7.5076112 46.9496745,7.56154539 47.0170832,7.61547958 C47.0440467,7.6357049 47.3204223,7.84469989 47.1788641,7.73683151 C48.2911077,8.60652034 49.3426835,9.55036868 50.3201098,10.5683765 C50.8256751,11.1009767 51.3177586,11.6470604 51.7828787,12.2133694 C51.8974735,12.3482048 52.0053274,12.4897821 52.1131814,12.6246176 C52.1671083,12.6920353 52.2210353,12.7661948 52.2749623,12.8336126 C52.1603675,12.6852935 52.3356301,12.9145138 52.342371,12.9212556 C52.5580788,13.2044101 52.7670458,13.4875646 52.9692719,13.7774609 C53.8051399,14.9640131 54.5466357,16.2112413 55.1937592,17.5056619 C55.3555401,17.8225252 55.5038393,18.1461304 55.6521384,18.4697355 C55.726288,18.6315381 55.8004376,18.7933407 55.8678463,18.961885 C55.8745872,18.9753686 55.989182,19.2450395 55.9150324,19.0630116 C55.9487368,19.1439129 55.9824411,19.231556 56.0161455,19.3124573 C56.299262,20.00686 56.5554151,20.7147462 56.7778638,21.4293743 C57.2295022,22.8518885 57.5732866,24.3013699 57.8024762,25.7778184 C57.8159579,25.8722032 57.8294397,25.9598463 57.8429214,26.0542311 C57.8429214,26.0340058 57.8833666,26.3373856 57.863144,26.2025502 C57.8429214,26.0677147 57.8833666,26.3710945 57.8833666,26.3508692 C57.8968484,26.445254 57.9035892,26.5328971 57.917071,26.6272819 C57.9575162,26.9980795 57.9979614,27.368877 58.0249249,27.7396746 C58.0788519,28.4947533 58.1058154,29.2498319 58.1125562,30.0049106 C58.1125562,30.5172854 58.5439719,30.948759 59.0562781,30.948759 C59.5685843,30.948759 60,30.5172854 60,30.0049106 C59.9932591,23.8361875 58.0788519,17.7146568 54.4927087,12.6785518 C50.9537516,7.71660619 45.98573,3.90750395 40.2694717,1.8040705 C34.3914325,-0.35329714 27.8123428,-0.575775678 21.7927453,1.13663489 C15.9955965,2.78162771 10.7242357,6.21993239 6.88868032,10.8784981 C2.94527101,15.6651576 0.559002804,21.557468 0.0871418601,27.7464164 C-0.391459954,33.9421066 1.1117542,40.2456651 4.34063123,45.558183 C7.45491346,50.6886729 12.1263368,54.8618309 17.5999238,57.3293201 C23.3768499,59.9316449 29.8750492,60.6597564 36.083391,59.3923029 C42.0153572,58.1855254 47.5293893,55.097793 51.7087291,50.71564 C55.8948098,46.3200034 58.7259755,40.6569133 59.635993,34.643251 C59.8651826,33.1061266 59.9932591,31.5622604 60,30.0049106 C60,29.4925358 59.5685843,29.0610623 59.0562781,29.0610623 C58.5439719,29.0610623 58.1125562,29.4925358 58.1125562,30.0049106 Z" id="Shape"></path>
                    </g>
                </g>
            </g>
        </g>
    </g>
</svg>