<?xml version="1.0" encoding="UTF-8"?>
<svg width="241px" height="202px" viewBox="0 0 241 202" version="1.1" xmlns="http://www.w3.org/2000/svg" xmlns:xlink="http://www.w3.org/1999/xlink">
    <!-- Generator: Sketch 51.2 (57519) - http://www.bohemiancoding.com/sketch -->
    <title>Group 26</title>
    <desc>Created with Sketch.</desc>
    <defs></defs>
    <g id="Page-1" stroke="none" stroke-width="1" fill="none" fill-rule="evenodd">
        <g id="Blockchain---doplnene-texty-2" transform="translate(-949.000000, -2185.000000)">
            <g id="Group-10" transform="translate(251.000000, 1975.000000)">
                <g id="Group-18" transform="translate(458.000000, 20.000000)">
                    <g id="Group-26" transform="translate(240.000000, 190.000000)">
                        <rect id="Rectangle-7" fill="#4D2F72" fill-rule="nonzero" x="0" y="0" width="241" height="202"></rect>
                        <path d="M77.5795,159.336 C77.6755005,159.336 77.7594996,159.375 77.8315,159.453 L78.5245,160.2 C77.9964974,160.812003 77.3560038,161.288998 76.603,161.631 C75.8499962,161.973002 74.9395053,162.144 73.8715,162.144 C72.9474954,162.144 72.1075038,161.983502 71.3515,161.6625 C70.5954962,161.341498 69.9505027,160.891503 69.4165,160.3125 C68.8824973,159.733497 68.4685015,159.039004 68.1745,158.229 C67.8804985,157.418996 67.7335,156.528005 67.7335,155.556 C67.7335,154.583995 67.8864985,153.693004 68.1925,152.883 C68.4985015,152.072996 68.9289972,151.377003 69.484,150.795 C70.0390028,150.212997 70.7034961,149.761502 71.4775,149.4405 C72.2515039,149.119498 73.1064953,148.959 74.0425,148.959 C74.9605046,148.959 75.7704965,149.105999 76.4725,149.4 C77.1745035,149.694001 77.7924973,150.092997 78.3265,150.597 L77.7505,151.398 C77.7144998,151.458 77.6680003,151.5075 77.611,151.5465 C77.5539997,151.5855 77.4775005,151.605 77.3815,151.605 C77.2734995,151.605 77.1415008,151.546501 76.9855,151.4295 C76.8294992,151.312499 76.6255013,151.182001 76.3735,151.038 C76.1214987,150.893999 75.8065019,150.763501 75.4285,150.6465 C75.0504981,150.529499 74.5855028,150.471 74.0335,150.471 C73.3674967,150.471 72.7585028,150.586499 72.2065,150.8175 C71.6544972,151.048501 71.179002,151.382998 70.78,151.821 C70.380998,152.259002 70.0705011,152.792997 69.8485,153.423 C69.6264989,154.053003 69.5155,154.763996 69.5155,155.556 C69.5155,156.360004 69.6309988,157.076997 69.862,157.707 C70.0930012,158.337003 70.407998,158.869498 70.807,159.3045 C71.206002,159.739502 71.6769973,160.070999 72.22,160.299 C72.7630027,160.527001 73.3494968,160.641 73.9795,160.641 C74.3635019,160.641 74.7099985,160.6185 75.019,160.5735 C75.3280015,160.5285 75.6129987,160.458 75.874,160.362 C76.1350013,160.266 76.3779989,160.144501 76.603,159.9975 C76.8280011,159.850499 77.0514989,159.675001 77.2735,159.471 C77.3755005,159.381 77.4774995,159.336 77.5795,159.336 Z M81.6385,154.71 C81.9265014,154.085997 82.2804979,153.598502 82.7005,153.2475 C83.1205021,152.896498 83.633497,152.721 84.2395,152.721 C84.431501,152.721 84.6159991,152.742 84.793,152.784 C84.9700009,152.826 85.1274993,152.892 85.2655,152.982 L85.1485,154.179 C85.1124998,154.329001 85.0225007,154.404 84.8785,154.404 C84.7944996,154.404 84.6715008,154.386 84.5095,154.35 C84.3474992,154.314 84.164501,154.296 83.9605,154.296 C83.6724986,154.296 83.4160011,154.338 83.191,154.422 C82.9659989,154.506 82.7650009,154.630499 82.588,154.7955 C82.4109991,154.960501 82.2520007,155.164499 82.111,155.4075 C81.9699993,155.650501 81.8425006,155.927998 81.7285,156.24 L81.7285,162 L80.1175,162 L80.1175,152.883 L81.0355,152.883 C81.2095009,152.883 81.3294997,152.916 81.3955,152.982 C81.4615003,153.048 81.5064999,153.161999 81.5305,153.324 L81.6385,154.71 Z M94.5355,152.883 L89.4505,164.691 C89.3964997,164.811001 89.3290004,164.907 89.248,164.979 C89.1669996,165.051 89.0425008,165.087 88.8745,165.087 L87.6865,165.087 L89.3515,161.469 L85.5895,152.883 L86.9755,152.883 C87.1135007,152.883 87.2229996,152.9175 87.304,152.9865 C87.3850004,153.0555 87.4404998,153.132 87.4705,153.216 L89.9095,158.958 C90.0055005,159.210001 90.0864997,159.473999 90.1525,159.75 C90.2365004,159.467999 90.3264995,159.201001 90.4225,158.949 L92.7895,153.216 C92.8255002,153.12 92.8869996,153.0405 92.974,152.9775 C93.0610004,152.9145 93.1584995,152.883 93.2665,152.883 L94.5355,152.883 Z M97.5595,159.804 C97.8535015,160.200002 98.1744983,160.478999 98.5225,160.641 C98.8705017,160.803001 99.2604978,160.884 99.6925,160.884 C100.544504,160.884 101.198498,160.581003 101.6545,159.975 C102.110502,159.368997 102.3385,158.505006 102.3385,157.383 C102.3385,156.788997 102.286001,156.279002 102.181,155.853 C102.075999,155.426998 101.924501,155.077501 101.7265,154.8045 C101.528499,154.531499 101.285501,154.332001 100.9975,154.206 C100.709499,154.079999 100.382502,154.017 100.0165,154.017 C99.4944974,154.017 99.037002,154.136999 98.644,154.377 C98.250998,154.617001 97.8895016,154.955998 97.5595,155.394 L97.5595,159.804 Z M97.4785,154.296 C97.8625019,153.821998 98.3064975,153.441001 98.8105,153.153 C99.3145025,152.864999 99.8904968,152.721 100.5385,152.721 C101.066503,152.721 101.543498,152.821499 101.9695,153.0225 C102.395502,153.223501 102.758499,153.520498 103.0585,153.9135 C103.358501,154.306502 103.589499,154.793997 103.7515,155.376 C103.913501,155.958003 103.9945,156.626996 103.9945,157.383 C103.9945,158.055003 103.904501,158.680497 103.7245,159.2595 C103.544499,159.838503 103.285002,160.339498 102.946,160.7625 C102.606998,161.185502 102.193002,161.518499 101.704,161.7615 C101.214998,162.004501 100.664503,162.126 100.0525,162.126 C99.4944972,162.126 99.016002,162.031501 98.617,161.8425 C98.217998,161.653499 97.8655015,161.391002 97.5595,161.055 L97.5595,165.087 L95.9485,165.087 L95.9485,152.883 L96.9115,152.883 C97.1395011,152.883 97.2804997,152.993999 97.3345,153.216 L97.4785,154.296 Z M108.7195,162.144 C107.999496,162.144 107.446002,161.943002 107.059,161.541 C106.671998,161.138998 106.4785,160.560004 106.4785,159.804 L106.4785,154.224 L105.3805,154.224 C105.2845,154.224 105.2035,154.1955 105.1375,154.1385 C105.0715,154.0815 105.0385,153.993001 105.0385,153.873 L105.0385,153.234 L106.5325,153.045 L106.9015,150.228 C106.9195,150.138 106.96,150.0645 107.023,150.0075 C107.086,149.9505 107.168499,149.922 107.2705,149.922 L108.0805,149.922 L108.0805,153.063 L110.7175,153.063 L110.7175,154.224 L108.0805,154.224 L108.0805,159.696 C108.0805,160.080002 108.173499,160.364999 108.3595,160.551 C108.545501,160.737001 108.785499,160.83 109.0795,160.83 C109.247501,160.83 109.392999,160.8075 109.516,160.7625 C109.639001,160.7175 109.7455,160.668 109.8355,160.614 C109.9255,160.56 110.002,160.5105 110.065,160.4655 C110.128,160.4205 110.1835,160.398 110.2315,160.398 C110.3155,160.398 110.3905,160.448999 110.4565,160.551 L110.9245,161.316 C110.648499,161.574001 110.315502,161.776499 109.9255,161.9235 C109.535498,162.070501 109.133502,162.144 108.7195,162.144 Z M116.1715,152.739 C116.837503,152.739 117.437497,152.849999 117.9715,153.072 C118.505503,153.294001 118.961498,153.608998 119.3395,154.017 C119.717502,154.425002 120.006999,154.918497 120.208,155.4975 C120.409001,156.076503 120.5095,156.722996 120.5095,157.437 C120.5095,158.157004 120.409001,158.804997 120.208,159.381 C120.006999,159.957003 119.717502,160.448998 119.3395,160.857 C118.961498,161.265002 118.505503,161.578499 117.9715,161.7975 C117.437497,162.016501 116.837503,162.126 116.1715,162.126 C115.499497,162.126 114.895003,162.016501 114.358,161.7975 C113.820997,161.578499 113.363502,161.265002 112.9855,160.857 C112.607498,160.448998 112.318001,159.957003 112.117,159.381 C111.915999,158.804997 111.8155,158.157004 111.8155,157.437 C111.8155,156.722996 111.915999,156.076503 112.117,155.4975 C112.318001,154.918497 112.607498,154.425002 112.9855,154.017 C113.363502,153.608998 113.820997,153.294001 114.358,153.072 C114.895003,152.849999 115.499497,152.739 116.1715,152.739 Z M116.1715,160.875 C117.071505,160.875 117.743498,160.573503 118.1875,159.9705 C118.631502,159.367497 118.8535,158.526005 118.8535,157.446 C118.8535,156.359995 118.631502,155.514003 118.1875,154.908 C117.743498,154.301997 117.071505,153.999 116.1715,153.999 C115.715498,153.999 115.318002,154.076999 114.979,154.233 C114.639998,154.389001 114.358001,154.613999 114.133,154.908 C113.907999,155.202001 113.740001,155.563498 113.629,155.9925 C113.517999,156.421502 113.4625,156.905997 113.4625,157.446 C113.4625,158.526005 113.685998,159.367497 114.133,159.9705 C114.580002,160.573503 115.259495,160.875 116.1715,160.875 Z M125.6665,157.545 C125.990502,157.545 126.275499,157.5 126.5215,157.41 C126.767501,157.32 126.974499,157.194001 127.1425,157.032 C127.310501,156.869999 127.4365,156.676501 127.5205,156.4515 C127.6045,156.226499 127.6465,155.979001 127.6465,155.709 C127.6465,155.150997 127.477002,154.707002 127.138,154.377 C126.798998,154.046998 126.308503,153.882 125.6665,153.882 C125.018497,153.882 124.525002,154.046998 124.186,154.377 C123.846998,154.707002 123.6775,155.150997 123.6775,155.709 C123.6775,155.979001 123.721,156.226499 123.808,156.4515 C123.895,156.676501 124.022499,156.869999 124.1905,157.032 C124.358501,157.194001 124.565499,157.32 124.8115,157.41 C125.057501,157.5 125.342498,157.545 125.6665,157.545 Z M128.5555,162.495 C128.5555,162.272999 128.492501,162.093001 128.3665,161.955 C128.240499,161.816999 128.071001,161.709 127.858,161.631 C127.644999,161.553 127.397501,161.4975 127.1155,161.4645 C126.833499,161.4315 126.535002,161.406 126.22,161.388 C125.904998,161.37 125.585502,161.352 125.2615,161.334 C124.937498,161.316 124.625502,161.286 124.3255,161.244 C123.989498,161.400001 123.715001,161.596499 123.502,161.8335 C123.288999,162.070501 123.1825,162.347998 123.1825,162.666 C123.1825,162.870001 123.234999,163.060499 123.34,163.2375 C123.445001,163.414501 123.605499,163.567499 123.8215,163.6965 C124.037501,163.825501 124.308998,163.9275 124.636,164.0025 C124.963002,164.0775 125.348498,164.115 125.7925,164.115 C126.224502,164.115 126.611498,164.076 126.9535,163.998 C127.295502,163.92 127.584999,163.809001 127.822,163.665 C128.059001,163.520999 128.240499,163.350001 128.3665,163.152 C128.492501,162.953999 128.5555,162.735001 128.5555,162.495 Z M130.1845,153.243 L130.1845,153.837 C130.1845,154.035001 130.058501,154.161 129.8065,154.215 L128.7715,154.35 C128.975501,154.746002 129.0775,155.183998 129.0775,155.664 C129.0775,156.108002 128.992001,156.511498 128.821,156.8745 C128.649999,157.237502 128.414502,157.547999 128.1145,157.806 C127.814498,158.064001 127.454502,158.261999 127.0345,158.4 C126.614498,158.538001 126.158502,158.607 125.6665,158.607 C125.240498,158.607 124.838502,158.556001 124.4605,158.454 C124.268499,158.574001 124.121501,158.701499 124.0195,158.8365 C123.917499,158.971501 123.8665,159.107999 123.8665,159.246 C123.8665,159.462001 123.954999,159.625499 124.132,159.7365 C124.309001,159.847501 124.541499,159.927 124.8295,159.975 C125.117501,160.023 125.445998,160.053 125.815,160.065 C126.184002,160.077 126.561998,160.0965 126.949,160.1235 C127.336002,160.1505 127.713998,160.197 128.083,160.263 C128.452002,160.329 128.780499,160.436999 129.0685,160.587 C129.356501,160.737001 129.588999,160.943999 129.766,161.208 C129.943001,161.472001 130.0315,161.813998 130.0315,162.234 C130.0315,162.624002 129.934001,163.001998 129.739,163.368 C129.543999,163.734002 129.263502,164.059499 128.8975,164.3445 C128.531498,164.629501 128.083003,164.857499 127.552,165.0285 C127.020997,165.199501 126.422503,165.285 125.7565,165.285 C125.090497,165.285 124.508502,165.219001 124.0105,165.087 C123.512498,164.954999 123.098502,164.778001 122.7685,164.556 C122.438498,164.333999 122.191001,164.077501 122.026,163.7865 C121.860999,163.495499 121.7785,163.191002 121.7785,162.873 C121.7785,162.422998 121.919499,162.042002 122.2015,161.73 C122.483501,161.417998 122.870498,161.169001 123.3625,160.983 C123.092499,160.862999 122.878001,160.702501 122.719,160.5015 C122.559999,160.300499 122.4805,160.029002 122.4805,159.687 C122.4805,159.554999 122.5045,159.418501 122.5525,159.2775 C122.6005,159.136499 122.674,158.995501 122.773,158.8545 C122.872,158.713499 122.993499,158.580001 123.1375,158.454 C123.281501,158.327999 123.449499,158.217 123.6415,158.121 C123.191498,157.868999 122.840501,157.534502 122.5885,157.1175 C122.336499,156.700498 122.2105,156.216003 122.2105,155.664 C122.2105,155.219998 122.295999,154.816502 122.467,154.4535 C122.638001,154.090498 122.876498,153.781501 123.1825,153.5265 C123.488502,153.271499 123.852998,153.075001 124.276,152.937 C124.699002,152.798999 125.162497,152.73 125.6665,152.73 C126.062502,152.73 126.431498,152.7735 126.7735,152.8605 C127.115502,152.9475 127.427499,153.074999 127.7095,153.243 L130.1845,153.243 Z M133.3705,154.71 C133.658501,154.085997 134.012498,153.598502 134.4325,153.2475 C134.852502,152.896498 135.365497,152.721 135.9715,152.721 C136.163501,152.721 136.347999,152.742 136.525,152.784 C136.702001,152.826 136.859499,152.892 136.9975,152.982 L136.8805,154.179 C136.8445,154.329001 136.754501,154.404 136.6105,154.404 C136.5265,154.404 136.403501,154.386 136.2415,154.35 C136.079499,154.314 135.896501,154.296 135.6925,154.296 C135.404499,154.296 135.148001,154.338 134.923,154.422 C134.697999,154.506 134.497001,154.630499 134.32,154.7955 C134.142999,154.960501 133.984001,155.164499 133.843,155.4075 C133.701999,155.650501 133.574501,155.927998 133.4605,156.24 L133.4605,162 L131.8495,162 L131.8495,152.883 L132.7675,152.883 C132.941501,152.883 133.0615,152.916 133.1275,152.982 C133.1935,153.048 133.2385,153.161999 133.2625,153.324 L133.3705,154.71 Z M143.1985,157.896 C142.460496,157.92 141.832003,157.9785 141.313,158.0715 C140.793997,158.1645 140.371002,158.285999 140.044,158.436 C139.716998,158.586001 139.480001,158.762999 139.333,158.967 C139.185999,159.171001 139.1125,159.398999 139.1125,159.651 C139.1125,159.891001 139.1515,160.097999 139.2295,160.272 C139.3075,160.446001 139.413999,160.588499 139.549,160.6995 C139.684001,160.810501 139.842999,160.8915 140.026,160.9425 C140.209001,160.9935 140.405499,161.019 140.6155,161.019 C140.897501,161.019 141.155499,160.9905 141.3895,160.9335 C141.623501,160.8765 141.843999,160.794001 142.051,160.686 C142.258001,160.577999 142.455999,160.449001 142.645,160.299 C142.834001,160.148999 143.018499,159.978001 143.1985,159.786 L143.1985,157.896 Z M138.0235,154.17 C138.527503,153.683998 139.070497,153.321001 139.6525,153.081 C140.234503,152.840999 140.879496,152.721 141.5875,152.721 C142.097503,152.721 142.550498,152.804999 142.9465,152.973 C143.342502,153.141001 143.675499,153.374999 143.9455,153.675 C144.215501,153.975001 144.419499,154.337998 144.5575,154.764 C144.695501,155.190002 144.7645,155.657997 144.7645,156.168 L144.7645,162 L144.0535,162 C143.897499,162 143.7775,161.9745 143.6935,161.9235 C143.6095,161.8725 143.5435,161.772001 143.4955,161.622 L143.3155,160.758 C143.075499,160.980001 142.841501,161.176499 142.6135,161.3475 C142.385499,161.518501 142.145501,161.662499 141.8935,161.7795 C141.641499,161.896501 141.373001,161.9865 141.088,162.0495 C140.802999,162.1125 140.486502,162.144 140.1385,162.144 C139.784498,162.144 139.451502,162.0945 139.1395,161.9955 C138.827498,161.8965 138.556001,161.748001 138.325,161.55 C138.093999,161.351999 137.911001,161.101502 137.776,160.7985 C137.640999,160.495498 137.5735,160.137002 137.5735,159.723 C137.5735,159.362998 137.672499,159.016502 137.8705,158.6835 C138.068501,158.350498 138.389498,158.055001 138.8335,157.797 C139.277502,157.538999 139.856496,157.327501 140.5705,157.1625 C141.284504,156.997499 142.160495,156.903 143.1985,156.879 L143.1985,156.168 C143.1985,155.459996 143.045502,154.924502 142.7395,154.5615 C142.433498,154.198498 141.986503,154.017 141.3985,154.017 C141.002498,154.017 140.671001,154.0665 140.404,154.1655 C140.136999,154.2645 139.906001,154.375499 139.711,154.4985 C139.515999,154.621501 139.348001,154.7325 139.207,154.8315 C139.065999,154.9305 138.926501,154.98 138.7885,154.98 C138.680499,154.98 138.5875,154.9515 138.5095,154.8945 C138.4315,154.8375 138.3655,154.767 138.3115,154.683 L138.0235,154.17 Z M148.8145,159.804 C149.108501,160.200002 149.429498,160.478999 149.7775,160.641 C150.125502,160.803001 150.515498,160.884 150.9475,160.884 C151.799504,160.884 152.453498,160.581003 152.9095,159.975 C153.365502,159.368997 153.5935,158.505006 153.5935,157.383 C153.5935,156.788997 153.541001,156.279002 153.436,155.853 C153.330999,155.426998 153.179501,155.077501 152.9815,154.8045 C152.783499,154.531499 152.540501,154.332001 152.2525,154.206 C151.964499,154.079999 151.637502,154.017 151.2715,154.017 C150.749497,154.017 150.292002,154.136999 149.899,154.377 C149.505998,154.617001 149.144502,154.955998 148.8145,155.394 L148.8145,159.804 Z M148.7335,154.296 C149.117502,153.821998 149.561497,153.441001 150.0655,153.153 C150.569503,152.864999 151.145497,152.721 151.7935,152.721 C152.321503,152.721 152.798498,152.821499 153.2245,153.0225 C153.650502,153.223501 154.013498,153.520498 154.3135,153.9135 C154.613501,154.306502 154.844499,154.793997 155.0065,155.376 C155.168501,155.958003 155.2495,156.626996 155.2495,157.383 C155.2495,158.055003 155.159501,158.680497 154.9795,159.2595 C154.799499,159.838503 154.540002,160.339498 154.201,160.7625 C153.861998,161.185502 153.448002,161.518499 152.959,161.7615 C152.469998,162.004501 151.919503,162.126 151.3075,162.126 C150.749497,162.126 150.271002,162.031501 149.872,161.8425 C149.472998,161.653499 149.120502,161.391002 148.8145,161.055 L148.8145,165.087 L147.2035,165.087 L147.2035,152.883 L148.1665,152.883 C148.394501,152.883 148.5355,152.993999 148.5895,153.216 L148.7335,154.296 Z M158.9035,154.098 C159.293502,153.683998 159.725498,153.354001 160.1995,153.108 C160.673502,152.861999 161.219497,152.739 161.8375,152.739 C162.335502,152.739 162.774998,152.821499 163.156,152.9865 C163.537002,153.151501 163.854999,153.385498 164.11,153.6885 C164.365001,153.991502 164.558499,154.355998 164.6905,154.782 C164.822501,155.208002 164.8885,155.678997 164.8885,156.195 L164.8885,162 L163.2775,162 L163.2775,156.195 C163.2775,155.504997 163.120002,154.969502 162.805,154.5885 C162.489998,154.207498 162.011503,154.017 161.3695,154.017 C160.895498,154.017 160.453002,154.130999 160.042,154.359 C159.630998,154.587001 159.251502,154.895998 158.9035,155.286 L158.9035,162 L157.2925,162 L157.2925,148.743 L158.9035,148.743 L158.9035,154.098 Z M174.9775,152.883 L169.8925,164.691 C169.8385,164.811001 169.771,164.907 169.69,164.979 C169.609,165.051 169.484501,165.087 169.3165,165.087 L168.1285,165.087 L169.7935,161.469 L166.0315,152.883 L167.4175,152.883 C167.555501,152.883 167.665,152.9175 167.746,152.9865 C167.827,153.0555 167.8825,153.132 167.9125,153.216 L170.3515,158.958 C170.4475,159.210001 170.5285,159.473999 170.5945,159.75 C170.6785,159.467999 170.7685,159.201001 170.8645,158.949 L173.2315,153.216 C173.2675,153.12 173.329,153.0405 173.416,152.9775 C173.503,152.9145 173.600499,152.883 173.7085,152.883 L174.9775,152.883 Z" id="Cryptography" fill="#FFFFFF"></path>
                        <path d="M116.119023,116.045953 L116.307814,115.038558 L114.974,114.788884 L114.796465,115.737442 C114.773953,115.73693 114.751953,115.735907 114.72893,115.735907 C112.919814,115.735907 111.44786,117.20786 111.44786,119.016977 C111.44786,120.826093 112.919814,122.297535 114.72893,122.297535 C116.538047,122.297535 118.01,120.825581 118.01,119.016977 C118.01,117.70414 117.234884,116.56986 116.119023,116.045953 Z M114.72893,120.940186 C113.668326,120.940186 112.805209,120.07707 112.805209,119.016465 C112.805209,117.95586 113.668326,117.092744 114.72893,117.092744 C115.789535,117.092744 116.652651,117.95586 116.652651,119.016465 C116.652651,120.07707 115.789535,120.940186 114.72893,120.940186 Z M137.52707,115.09893 C139.336186,115.09893 140.80814,116.570884 140.80814,118.379488 C140.80814,120.188605 139.336186,121.660558 137.52707,121.660558 C135.718465,121.660558 134.246512,120.188605 134.246512,118.379488 C134.246512,117.610512 134.51307,116.90293 134.958186,116.342698 L134.367767,115.642791 L135.405349,114.767907 L136.002419,115.476 C136.458279,115.235535 136.976558,115.09893 137.52707,115.09893 Z M137.52707,120.303721 C138.588186,120.303721 139.451302,119.440605 139.450791,118.38 C139.450791,117.319395 138.587674,116.456279 137.52707,116.456279 C136.466465,116.456279 135.603349,117.319395 135.603349,118.38 C135.603349,119.440605 136.466465,120.303721 137.52707,120.303721 Z M102.805953,116.194326 L103.865023,117.043628 L103.248,117.812605 C103.592326,118.331395 103.793395,118.953023 103.793395,119.620698 C103.793395,121.429814 102.321442,122.901767 100.512326,122.901767 C98.7032093,122.901767 97.2312558,121.429814 97.2312558,119.620698 C97.2312558,117.812093 98.7032093,116.34014 100.512326,116.34014 C101.16107,116.34014 101.765814,116.530465 102.275395,116.856372 L102.805953,116.194326 Z M100.512326,121.54493 C101.57293,121.54493 102.436047,120.681814 102.436047,119.621209 C102.436047,118.560605 101.57293,117.697488 100.512326,117.697488 C99.4517209,117.697488 98.5886047,118.560605 98.5886047,119.621209 C98.5886047,120.681814 99.4517209,121.54493 100.512326,121.54493 Z M105.269141,113.127578 L106.328009,113.976735 L104.316021,116.485609 L103.257153,115.636452 L105.269141,113.127578 Z M107.728517,110.061504 L108.787385,110.910662 L106.775397,113.419536 L105.716529,112.570378 L107.728517,110.061504 Z M131.436651,110.061442 L130.399581,110.935302 L129.792791,110.215953 C129.578419,110.380186 129.359953,110.539302 129.137907,110.692279 L128.367907,109.574884 C129.158372,109.030512 129.898186,108.405302 130.567907,107.71614 L131.541535,108.661628 C131.313349,108.896977 131.076465,109.124651 130.833442,109.345674 L131.436651,110.061442 Z M135.074435,114.378775 L134.037133,115.253393 L132.548766,113.48818 L133.586069,112.613563 L135.074435,114.378775 Z M133.255721,112.220831 L132.218419,113.095448 L130.730052,111.330235 L131.767354,110.455618 L133.255721,112.220831 Z M116.485349,114.088977 L115.151535,113.839302 L115.350558,112.775628 C115.037953,112.678419 114.727907,112.572512 114.422465,112.45586 L114.905953,111.188047 C115.801814,111.529814 116.736558,111.78307 117.683581,111.941163 L117.46,113.279581 C117.194465,113.23507 116.92893,113.183395 116.665442,113.125581 L116.485349,114.088977 Z M100.47293,85.8645116 C98.663814,85.8645116 97.1918605,84.3925581 97.1923721,82.5834419 C97.1923721,80.7743256 98.6643256,79.3023721 100.473442,79.3023721 C102.282558,79.3023721 103.754512,80.7743256 103.754512,82.5834419 C103.754512,83.2014884 103.582093,83.7801395 103.283814,84.2743721 L103.959674,84.8085116 L103.118558,85.8737209 L102.353674,85.2694884 C101.820558,85.644 101.172326,85.8645116 100.47293,85.8645116 Z M100.47293,80.6597209 C99.411814,80.6597209 98.5492093,81.5228372 98.5492093,82.5834419 C98.5492093,83.6440465 99.4123256,84.5071628 100.47293,84.5071628 C101.533535,84.5071628 102.396651,83.6440465 102.396651,82.5834419 C102.396651,81.5228372 101.533535,80.6597209 100.47293,80.6597209 Z M103.571271,86.2341219 L104.412239,85.169276 L106.448777,86.7776426 L105.607809,87.8424884 L103.571271,86.2341219 Z M106.059907,88.1965116 L106.901023,87.1313023 L107.587116,87.6731163 C107.77693,87.4326512 107.973395,87.1973023 108.176512,86.968093 L109.19107,87.8690698 C108.552558,88.587907 107.983628,89.3722326 107.499628,90.2000465 L106.328,89.5149767 C106.474837,89.2637674 106.62986,89.0166512 106.790512,88.7736279 L106.059907,88.1965116 Z M104.173535,96.833814 C104.220093,95.7824186 104.370512,94.7346047 104.621721,93.7185116 L105.939163,94.043907 C105.709953,94.9730233 105.571814,95.9313023 105.529349,96.8936744 L104.173535,96.833814 Z M107.18907,90.7587442 C106.740884,91.6085581 106.376605,92.5059535 106.106465,93.4253488 L104.804372,93.0421395 C105.100605,92.0362791 105.498651,91.0549767 105.988791,90.1258605 L107.18907,90.7587442 Z M135.397163,102.078512 C135.099907,103.08386 134.700326,104.064651 134.209163,104.993767 L133.009395,104.359349 C133.458605,103.510047 133.823907,102.613163 134.095581,101.693767 L135.397163,102.078512 Z M136.032093,98.2883721 C135.984512,99.3397674 135.832558,100.387581 135.580837,101.40214 L134.263395,101.075721 C134.493628,100.147116 134.632279,99.1888372 134.676279,98.2264651 L136.032093,98.2883721 Z M131.004326,107.246977 C131.643349,106.529163 132.213302,105.745349 132.698837,104.918047 L133.869442,105.60414 C133.338884,106.508698 132.716233,107.364651 132.018372,108.148977 L131.004326,107.246977 Z M104.157674,97.5516279 L104.157674,97.5337209 L105.515023,97.5337209 L105.515023,97.5516279 C105.515023,98.5104186 105.608651,99.4692093 105.792837,100.400884 L104.461581,100.664372 C104.26,99.6457209 104.157674,98.5984186 104.157674,97.5516279 Z M111.82493,85.538093 C111.034977,86.0829767 110.295674,86.7092093 109.627488,87.3993953 L108.652837,86.4549302 C109.38293,85.7013023 110.190791,85.0167442 111.053907,84.4212093 L111.82493,85.538093 Z M114.314512,110.94707 L113.775767,112.192372 C112.813907,111.776419 111.888884,111.261721 111.025256,110.662605 L111.798837,109.547767 C112.588791,110.095721 113.435023,110.566419 114.314512,110.94707 Z M111.280558,109.171209 L110.458884,110.251256 C110.221488,110.070651 109.989721,109.882884 109.762558,109.688977 L109.229953,110.35307 L108.171395,109.504279 L108.765907,108.763442 C108.555628,108.551116 108.350977,108.333674 108.153488,108.110093 L109.170093,107.211163 C109.806558,107.930512 110.516698,108.59 111.280558,109.171209 Z M118.318,112.032233 C119.265535,112.14786 120.244279,112.170372 121.197953,112.100279 L121.298233,113.453535 C120.903256,113.482698 120.501116,113.497535 120.10307,113.497535 C119.451767,113.497023 118.79586,113.457628 118.153767,113.379349 L118.318,112.032233 Z M125.252605,111.205953 C126.149488,110.867256 127.017209,110.437488 127.831721,109.927907 L128.551581,111.078047 C127.661349,111.635209 126.712279,112.105907 125.731488,112.475814 L125.252605,111.205953 Z M121.835953,112.038884 C122.79014,111.925814 123.73614,111.71707 124.647349,111.419302 L125.069442,112.709116 C124.073302,113.035023 123.039302,113.263209 121.995581,113.386512 L121.835953,112.038884 Z M106.888233,103.740791 L105.659302,104.317395 C105.213163,103.366791 104.861163,102.368093 104.612,101.34893 L105.930465,101.026605 C106.15814,101.958279 106.480465,102.871535 106.888233,103.740791 Z M125.766791,82.6412558 L125.284326,83.910093 C124.387953,83.5693488 123.453209,83.3171163 122.505674,83.1600465 L122.727721,81.8211163 C123.764279,81.9930233 124.786512,82.2687907 125.766791,82.6412558 Z M121.871767,83.0689767 C120.925256,82.9548837 119.947023,82.9328837 118.991814,83.0045116 L118.89,81.6512558 C119.932698,81.5729767 121.000465,81.5970233 122.034465,81.7218605 L121.871767,83.0689767 Z M108.756186,106.721535 L107.701209,107.57493 C107.040186,106.75786 106.458465,105.873256 105.971907,104.945163 L107.173721,104.315349 C107.618837,105.164651 108.151442,105.974047 108.756186,106.721535 Z M114.938698,83.9034419 C114.042326,84.2431628 113.174605,84.6739535 112.361116,85.1845581 L111.639721,84.0349302 C112.529953,83.4762326 113.478,83.0050233 114.458279,82.634093 L114.938698,83.9034419 Z M118.353814,83.0669302 C117.399628,83.1810233 116.45414,83.3902791 115.543442,83.6895814 L115.119814,82.4002791 C116.115442,82.0728372 117.149442,81.8441395 118.192651,81.7193023 L118.353814,83.0669302 Z M126.930233,85.243907 L127.937116,85.2433953 C127.280186,84.8243721 126.589488,84.4565116 125.876279,84.1490233 L126.414,82.9032093 C127.041767,83.1743721 127.653674,83.4874884 128.243581,83.8384651 C128.407302,81.7254419 130.177535,80.0554884 132.332,80.0554884 C134.593907,80.0554884 136.434233,81.895814 136.434233,84.1577209 L136.434233,85.243907 L137.824326,85.243907 L137.824326,92.1253023 C137.824326,93.5757674 137.067116,94.8517674 135.928233,95.5813488 C136.008558,96.2331628 136.048977,96.8926512 136.048977,97.5516279 L136.048977,97.5869302 L134.69214,97.5869302 L134.69214,97.5516279 C134.69214,97.075814 134.669116,96.6 134.62307,96.1272558 C134.457814,96.164093 134.288977,96.1922326 134.116558,96.2086047 C134.158512,96.6511628 134.18307,97.0983256 134.18307,97.5516279 C134.18307,105.315581 127.866512,111.631628 120.10307,111.631628 C112.339628,111.631628 106.024093,105.31507 106.024093,97.5516279 C106.024093,89.788186 112.34014,83.4721395 120.103581,83.4721395 C122.579349,83.4721395 124.906744,84.1167907 126.930233,85.243907 Z M135.863256,87.2054884 C135.863256,87.2054884 128.801256,87.2054884 128.801256,87.2054884 L128.801256,92.125814 C128.801256,93.3066512 129.761581,94.2669767 130.942419,94.2669767 L133.722093,94.2669767 C134.90293,94.2669767 135.863256,93.3066512 135.863256,92.125814 L135.863256,87.2054884 Z M123.201488,97.2983721 C124.120372,97.8376279 124.738419,98.8363256 124.737907,99.9767442 C124.737907,101.519302 123.606186,102.802465 122.129116,103.03986 L122.129116,104.938 L120.772279,104.938 L120.772279,103.079767 L119.916837,103.079767 L119.916837,104.938 L118.56,104.938 L118.56,103.079767 L117.702,103.079767 L117.023581,103.079767 L116.147163,103.079767 L116.147163,101.72293 L117.023581,101.72293 L117.023581,93.3813488 L116.147163,93.3813488 L116.147163,92.0245116 L117.023581,92.0245116 L117.702,92.0245116 L118.56,92.0245116 L118.56,90.1662791 L119.917349,90.1662791 L119.917349,92.0245116 L120.772791,92.0245116 L120.772791,90.1662791 L122.129628,90.1662791 L122.129628,92.2434884 C123.276698,92.6998605 124.089674,93.8203256 124.089674,95.1275349 C124.089674,95.9717209 123.750465,96.7381395 123.201488,97.2983721 Z M118.380419,93.3813488 L118.380419,96.8737209 L120.986651,96.8737209 C121.949535,96.8737209 122.732837,96.0904186 122.732837,95.1275349 C122.732837,94.1646512 121.949535,93.3813488 120.986651,93.3813488 L118.380419,93.3813488 Z M121.635395,101.722419 C122.598279,101.722419 123.381581,100.939116 123.381581,99.9762326 C123.381581,99.0133488 122.598279,98.2300465 121.635395,98.2300465 L118.380419,98.2300465 L118.380419,101.722419 L121.635395,101.722419 Z M120.10307,108.917442 C126.37,108.917442 131.468884,103.818558 131.468372,97.5521395 C131.468372,97.1044651 131.441256,96.6629302 131.390605,96.2285581 L130.941907,96.2285581 C128.68,96.2285581 126.839674,94.3882326 126.839674,92.1263256 L126.839674,88.4083256 C124.953302,87.0141395 122.62386,86.1868372 120.10307,86.1868372 C113.835628,86.1868372 108.737256,91.2852093 108.737256,97.5521395 C108.737256,103.81907 113.83614,108.917442 120.10307,108.917442 Z M132.332,82.0170698 C131.151674,82.0170698 130.191349,82.9773953 130.190837,84.1577209 L130.190837,85.243907 L134.472651,85.243907 L134.472651,84.1577209 C134.472651,82.9773953 133.512326,82.0170698 132.332,82.0170698 Z M131.351721,89.4080465 L133.312791,89.4080465 L133.312791,92.7090698 L131.351721,92.7090698 L131.351721,89.4080465 Z" id="Combined-Shape" fill="#FFFFFF" fill-rule="nonzero"></path>
                    </g>
                </g>
            </g>
        </g>
    </g>
</svg>