<?xml version="1.0" encoding="UTF-8"?>
<svg width="119px" height="116px" viewBox="0 0 119 116" version="1.1" xmlns="http://www.w3.org/2000/svg" xmlns:xlink="http://www.w3.org/1999/xlink">
    <!-- Generator: Sketch 51.2 (57519) - http://www.bohemiancoding.com/sketch -->
    <title>Group 12</title>
    <desc>Created with Sketch.</desc>
    <defs>
        <linearGradient x1="0%" y1="0%" x2="100%" y2="100%" id="linearGradient-1">
            <stop stop-color="#FF865E" offset="0%"></stop>
            <stop stop-color="#FE6C9F" offset="100%"></stop>
        </linearGradient>
        <linearGradient x1="0%" y1="0%" x2="100%" y2="100%" id="linearGradient-2">
            <stop stop-color="#EE72E9" offset="0%"></stop>
            <stop stop-color="#8363F9" offset="100%"></stop>
        </linearGradient>
    </defs>
    <g id="Page-1" stroke="none" stroke-width="1" fill="none" fill-rule="evenodd">
        <g id="Blockchain---doplnene-texty-2" transform="translate(-660.000000, -1175.000000)">
            <g id="box-copy" transform="translate(551.000000, 1143.000000)">
                <g id="Group-12" transform="translate(109.000000, 32.000000)">
                    <ellipse id="Oval" fill="url(#linearGradient-1)" fill-rule="nonzero" cx="65" cy="53.5" rx="54" ry="53.5"></ellipse>
                    <ellipse id="Oval-Copy" fill="url(#linearGradient-2)" fill-rule="nonzero" style="mix-blend-mode: multiply;" cx="54" cy="62.5" rx="54" ry="53.5"></ellipse>
                    <path d="M44.3975,57.3075 C44.2224991,57.112499 44.032501,56.9762504 43.8275,56.89875 C43.622499,56.8212496 43.4075011,56.7825 43.1825,56.7825 C42.9674989,56.7825 42.7700009,56.8249996 42.59,56.91 C42.4099991,56.9950004 42.2537507,57.1312491 42.12125,57.31875 C41.9887493,57.5062509 41.8850004,57.7499985 41.81,58.05 C41.7349996,58.3500015 41.6975,58.7124979 41.6975,59.1375 C41.6975,59.547502 41.7274997,59.8924986 41.7875,60.1725 C41.8475003,60.4525014 41.9312495,60.6787491 42.03875,60.85125 C42.1462505,61.0237509 42.2749993,61.1474996 42.425,61.2225 C42.5750008,61.2975004 42.7424991,61.335 42.9275,61.335 C43.0975009,61.335 43.2512493,61.3187502 43.38875,61.28625 C43.5262507,61.2537498 43.6524994,61.2075003 43.7675,61.1475 C43.8825006,61.0874997 43.9912495,61.0112505 44.09375,60.91875 C44.1962505,60.8262495 44.2974995,60.7200006 44.3975,60.6 L44.3975,57.3075 Z M46.7225,51.7725 L46.7225,63 L45.2825,63 C44.9924986,63 44.8025005,62.8700013 44.7125,62.61 L44.5325,62.0175 C44.3774992,62.1825008 44.2150009,62.3324993 44.045,62.4675 C43.8749992,62.6025007 43.691251,62.7187495 43.49375,62.81625 C43.296249,62.9137505 43.0837511,62.9887497 42.85625,63.04125 C42.6287489,63.0937503 42.3825013,63.12 42.1175,63.12 C41.712498,63.12 41.3375017,63.0300009 40.9925,62.85 C40.6474983,62.6699991 40.3500012,62.4100017 40.1,62.07 C39.8499988,61.7299983 39.6537507,61.3137525 39.51125,60.82125 C39.3687493,60.3287475 39.2975,59.7675031 39.2975,59.1375 C39.2975,58.5574971 39.3774992,58.0187525 39.5375,57.52125 C39.6975008,57.0237475 39.9237485,56.5937518 40.21625,56.23125 C40.5087515,55.8687482 40.859998,55.585001 41.27,55.38 C41.6800021,55.174999 42.1324975,55.0725 42.6275,55.0725 C43.032502,55.0725 43.3724986,55.1299994 43.6475,55.245 C43.9225014,55.3600006 44.1724989,55.514999 44.3975,55.71 L44.3975,51.7725 L46.7225,51.7725 Z M54.3425,58.8225 L53.33,55.83 C53.2549996,55.6399991 53.1750004,55.4162513 53.09,55.15875 C53.0049996,54.9012487 52.9200004,54.6225015 52.835,54.3225 C52.7599996,54.6275015 52.6800004,54.9099987 52.595,55.17 C52.5099996,55.4300013 52.4300004,55.6549991 52.355,55.845 L51.35,58.8225 L54.3425,58.8225 Z M58.37,63 L56.405,63 C56.1849989,63 56.0075007,62.9487505 55.8725,62.84625 C55.7374993,62.7437495 55.6350003,62.6125008 55.565,62.4525 L54.92,60.5475 L50.765,60.5475 L50.12,62.4525 C50.0649997,62.5925007 49.9662507,62.7187494 49.82375,62.83125 C49.6812493,62.9437506 49.5050011,63 49.295,63 L47.315,63 L51.545,52.0725 L54.14,52.0725 L58.37,63 Z M61.2875,60.885 C61.4625009,61.075001 61.652499,61.2099996 61.8575,61.29 C62.062501,61.3700004 62.2774989,61.41 62.5025,61.41 C62.7175011,61.41 62.9149991,61.3675004 63.095,61.2825 C63.2750009,61.1974996 63.4312493,61.0612509 63.56375,60.87375 C63.6962507,60.6862491 63.7999996,60.4425015 63.875,60.1425 C63.9500004,59.8424985 63.9875,59.4775021 63.9875,59.0475 C63.9875,58.6374979 63.9575003,58.2925014 63.8975,58.0125 C63.8374997,57.7324986 63.7537505,57.5062509 63.64625,57.33375 C63.5387495,57.1612491 63.4100008,57.0375004 63.26,56.9625 C63.1099993,56.8874996 62.9425009,56.85 62.7575,56.85 C62.4174983,56.85 62.1375011,56.9124994 61.9175,57.0375 C61.6974989,57.1625006 61.487501,57.3449988 61.2875,57.585 L61.2875,60.885 Z M61.145,56.1825 C61.4500015,55.8574984 61.7962481,55.591251 62.18375,55.38375 C62.5712519,55.176249 63.0324973,55.0725 63.5675,55.0725 C63.972502,55.0725 64.3474983,55.1624991 64.6925,55.3425 C65.0375017,55.5225009 65.3349988,55.7824983 65.585,56.1225 C65.8350013,56.4625017 66.0312493,56.8787475 66.17375,57.37125 C66.3162507,57.8637525 66.3875,58.4224969 66.3875,59.0475 C66.3875,59.6325029 66.3062508,60.1724975 66.14375,60.6675 C65.9812492,61.1625025 65.7537515,61.5924982 65.46125,61.9575 C65.1687485,62.3225018 64.818752,62.607499 64.41125,62.8125 C64.003748,63.017501 63.5525025,63.12 63.0575,63.12 C62.652498,63.12 62.3125014,63.0625006 62.0375,62.9475 C61.7624986,62.8324994 61.5125011,62.677501 61.2875,62.4825 L61.2875,65.4675 L58.9625,65.4675 L58.9625,55.2225 L60.4025,55.2225 C60.6925015,55.2225 60.8824996,55.3524987 60.9725,55.6125 L61.145,56.1825 Z M69.9125,60.885 C70.0875009,61.075001 70.277499,61.2099996 70.4825,61.29 C70.687501,61.3700004 70.9024989,61.41 71.1275,61.41 C71.3425011,61.41 71.5399991,61.3675004 71.72,61.2825 C71.9000009,61.1974996 72.0562493,61.0612509 72.18875,60.87375 C72.3212507,60.6862491 72.4249996,60.4425015 72.5,60.1425 C72.5750004,59.8424985 72.6125,59.4775021 72.6125,59.0475 C72.6125,58.6374979 72.5825003,58.2925014 72.5225,58.0125 C72.4624997,57.7324986 72.3787505,57.5062509 72.27125,57.33375 C72.1637495,57.1612491 72.0350008,57.0375004 71.885,56.9625 C71.7349993,56.8874996 71.5675009,56.85 71.3825,56.85 C71.0424983,56.85 70.7625011,56.9124994 70.5425,57.0375 C70.3224989,57.1625006 70.112501,57.3449988 69.9125,57.585 L69.9125,60.885 Z M69.77,56.1825 C70.0750015,55.8574984 70.4212481,55.591251 70.80875,55.38375 C71.1962519,55.176249 71.6574973,55.0725 72.1925,55.0725 C72.597502,55.0725 72.9724983,55.1624991 73.3175,55.3425 C73.6625017,55.5225009 73.9599988,55.7824983 74.21,56.1225 C74.4600013,56.4625017 74.6562493,56.8787475 74.79875,57.37125 C74.9412507,57.8637525 75.0125,58.4224969 75.0125,59.0475 C75.0125,59.6325029 74.9312508,60.1724975 74.76875,60.6675 C74.6062492,61.1625025 74.3787515,61.5924982 74.08625,61.9575 C73.7937485,62.3225018 73.443752,62.607499 73.03625,62.8125 C72.628748,63.017501 72.1775025,63.12 71.6825,63.12 C71.277498,63.12 70.9375014,63.0625006 70.6625,62.9475 C70.3874986,62.8324994 70.1375011,62.677501 69.9125,62.4825 L69.9125,65.4675 L67.5875,65.4675 L67.5875,55.2225 L69.0275,55.2225 C69.3175015,55.2225 69.5074996,55.3524987 69.5975,55.6125 L69.77,56.1825 Z M81.155,56.925 C81.0949997,57.0200005 81.0312503,57.0874998 80.96375,57.1275 C80.8962497,57.1675002 80.8100005,57.1875 80.705,57.1875 C80.5949995,57.1875 80.4850006,57.1637502 80.375,57.11625 C80.2649995,57.0687498 80.1462506,57.0175003 80.01875,56.9625 C79.8912494,56.9074997 79.7475008,56.8562502 79.5875,56.80875 C79.4274992,56.7612498 79.245001,56.7375 79.04,56.7375 C78.7449985,56.7375 78.5187508,56.7937494 78.36125,56.90625 C78.2037492,57.0187506 78.125,57.174999 78.125,57.375 C78.125,57.5200007 78.1762495,57.6399995 78.27875,57.735 C78.3812505,57.8300005 78.5174992,57.9137496 78.6875,57.98625 C78.8575009,58.0587504 79.0499989,58.1274997 79.265,58.1925 C79.4800011,58.2575003 79.6999989,58.3299996 79.925,58.41 C80.1500011,58.4900004 80.3699989,58.5837495 80.585,58.69125 C80.8000011,58.7987505 80.9924992,58.9312492 81.1625,59.08875 C81.3325009,59.2462508 81.4687495,59.4374989 81.57125,59.6625 C81.6737505,59.8875011 81.725,60.1574984 81.725,60.4725 C81.725,60.8575019 81.6550007,61.2124984 81.515,61.5375 C81.3749993,61.8625016 81.1662514,62.1424988 80.88875,62.3775 C80.6112486,62.6125012 80.268752,62.7949993 79.86125,62.925 C79.453748,63.0550006 78.9850027,63.12 78.455,63.12 C78.1899987,63.12 77.9250013,63.0950002 77.66,63.045 C77.3949987,62.9949997 77.1387512,62.9275004 76.89125,62.8425 C76.6437488,62.7574996 76.4150011,62.6562506 76.205,62.53875 C75.994999,62.4212494 75.8150008,62.2950007 75.665,62.16 L76.205,61.305 C76.2650003,61.2049995 76.3412495,61.1262503 76.43375,61.06875 C76.5262505,61.0112497 76.6449993,60.9825 76.79,60.9825 C76.9250007,60.9825 77.0462495,61.0124997 77.15375,61.0725 C77.2612505,61.1325003 77.3774994,61.1974996 77.5025,61.2675 C77.6275006,61.3375003 77.7737492,61.4024997 77.94125,61.4625 C78.1087508,61.5225003 78.3199987,61.5525 78.575,61.5525 C78.7550009,61.5525 78.9074994,61.5337502 79.0325,61.49625 C79.1575006,61.4587498 79.2574996,61.4075003 79.3325,61.3425 C79.4075004,61.2774997 79.4624998,61.2050004 79.4975,61.125 C79.5325002,61.0449996 79.55,60.9625004 79.55,60.8775 C79.55,60.7224992 79.4975005,60.5950005 79.3925,60.495 C79.2874995,60.3949995 79.1500009,60.3087504 78.98,60.23625 C78.8099992,60.1637496 78.6162511,60.0962503 78.39875,60.03375 C78.1812489,59.9712497 77.9600011,59.9000004 77.735,59.82 C77.5099989,59.7399996 77.2887511,59.6437506 77.07125,59.53125 C76.8537489,59.4187494 76.6600009,59.2762509 76.49,59.10375 C76.3199992,58.9312491 76.1825005,58.7200012 76.0775,58.47 C75.9724995,58.2199988 75.92,57.9175018 75.92,57.5625 C75.92,57.2324984 75.9837494,56.9187515 76.11125,56.62125 C76.2387506,56.3237485 76.4299987,56.0625011 76.685,55.8375 C76.9400013,55.6124989 77.2599981,55.4337507 77.645,55.30125 C78.0300019,55.1687493 78.4799974,55.1025 78.995,55.1025 C79.2750014,55.1025 79.5462487,55.1274997 79.80875,55.1775 C80.0712513,55.2275003 80.3174989,55.2974995 80.5475,55.3875 C80.7775012,55.4775005 80.9874991,55.5837494 81.1775,55.70625 C81.367501,55.8287506 81.5349993,55.9624993 81.68,56.1075 L81.155,56.925 Z" id="dApps" fill="#FFFFFF"></path>
                </g>
            </g>
        </g>
    </g>
</svg>