<svg width="48" height="48" viewBox="0 0 48 48" fill="none" xmlns="http://www.w3.org/2000/svg">
  <title>Icon of pen for UX Design Section</title>
  <path
    d="M15 35.168C18.5318 33.6248 21 30.1006 21 26C21 18 11 6 11 6C11 6 1 18 1 26C1 30.1006 3.4682 33.6248 7 35.168V42H15V35.168Z"
    stroke="#FFB51F" stroke-width="2" stroke-linecap="square"/>
  <path d="M11 6V22" stroke="#FFB51F" stroke-width="2" stroke-linecap="square"/>
  <path
    d="M11 25.9999C12.1046 25.9999 13 25.1045 13 23.9999C13 22.8954 12.1046 21.9999 11 21.9999C9.89543 21.9999 9 22.8954 9 23.9999C9 25.1045 9.89543 25.9999 11 25.9999Z"
    stroke="#FFB51F" stroke-width="2" stroke-linecap="square"/>
</svg>
