<?xml version="1.0" encoding="UTF-8"?>
<svg width="35px" height="36px" viewBox="0 0 35 36" version="1.1" xmlns="http://www.w3.org/2000/svg" xmlns:xlink="http://www.w3.org/1999/xlink">
    <!-- Generator: Sketch 51.2 (57519) - http://www.bohemiancoding.com/sketch -->
    <title>Shape</title>
    <desc>Created with Sketch.</desc>
    <defs></defs>
    <g id="Page-1" stroke="none" stroke-width="1" fill="none" fill-rule="evenodd">
        <g id="Blockchain---doplnene-texty-2" transform="translate(-875.000000, -4171.000000)" fill="#1C1C37" fill-rule="nonzero">
            <g id="paticka" transform="translate(0.000000, 3772.000000)">
                <g id="box-1-copy-6" transform="translate(875.000000, 88.000000)">
                    <g id="25231" transform="translate(0.000000, 311.000000)">
                        <path d="M32.6524926,9.29934982 C31.087594,6.55084773 28.964909,4.37485479 26.283879,2.77088015 C23.6024499,1.1668237 20.6751287,0.365 17.4998404,0.365 C14.3249511,0.365 11.3966722,1.16706913 8.71580176,2.77088015 C6.0345323,4.37477298 3.91192714,6.55084773 2.34702859,9.29934982 C0.782369466,12.0477701 0,15.0490663 0,18.3031567 C0,22.2120574 1.11254008,25.7270411 3.33817889,28.8490077 C5.56357828,31.9712197 8.43846484,34.1316686 11.9625991,35.3306 C12.3728184,35.4086471 12.6764923,35.3537523 12.8739402,35.1673064 C13.071468,34.9806151 13.1701121,34.746801 13.1701121,34.4668458 C13.1701121,34.4201321 13.1662015,33.9998721 13.1586196,33.2055749 C13.1507983,32.4112778 13.1471271,31.7183437 13.1471271,31.1271 L12.6230202,31.2200366 C12.2888591,31.2827852 11.867307,31.3093736 11.3583638,31.301847 C10.84966,31.2945659 10.3215626,31.2399165 9.77478987,31.138308 C9.2277777,31.0375994 8.71899413,30.8040307 8.24804011,30.4380928 C7.77732553,30.0721549 7.44316446,29.5931551 7.24563672,29.0018295 L7.01778149,28.4643352 C6.8659046,28.1064965 6.62679628,27.7089798 6.30013727,27.2732576 C5.97347827,26.8371264 5.64314804,26.5414636 5.30898697,26.3857784 L5.1494484,26.2687078 C5.04314257,26.1909061 4.94449841,26.0970696 4.85327651,25.9881799 C4.76213442,25.8792903 4.69389756,25.7703188 4.64832652,25.6611838 C4.60267566,25.5519669 4.64050521,25.4623845 4.76221423,25.3921094 C4.88392324,25.3218342 5.10387736,25.2877193 5.4230343,25.2877193 L5.87858514,25.3575036 C6.18241872,25.4199249 6.55824018,25.6063708 7.00652839,25.9179866 C7.45457717,26.229357 7.82289657,26.6341548 8.1115664,27.1322165 C8.46113065,27.7708285 8.88228373,28.2574367 9.37622279,28.5922867 C9.86976281,28.9271366 10.3673731,29.0942753 10.8685748,29.0942753 C11.3697765,29.0942753 11.8026615,29.0553335 12.1673895,28.9778591 C12.5317185,28.8999756 12.8735412,28.7829049 13.1926981,28.6273015 C13.3294113,27.5835645 13.7016413,26.7817408 14.3090691,26.2212577 C13.443299,26.1279939 12.66492,25.9875254 11.973533,25.8007523 C11.282545,25.6137337 10.5684922,25.3102172 9.83185344,24.8893845 C9.0948156,24.4691245 8.48339741,23.9472559 7.99743927,23.3246788 C7.51140131,22.7017745 7.11251499,21.8839977 6.80133897,20.8720849 C6.49000333,19.8597631 6.3342956,18.6920015 6.3342956,17.3684729 C6.3342956,15.4839704 6.9344607,13.880323 8.13455145,12.5566308 C7.57237553,11.1398383 7.62544864,9.55157127 8.2939304,7.79199326 C8.73447711,7.65168843 9.38779512,7.75697841 10.2535652,8.10720872 C11.1194949,8.45760265 11.7534991,8.75776499 12.1562162,9.00663222 C12.5589334,9.25541764 12.8816019,9.46624303 13.1247007,9.63722676 C14.5377224,9.23251073 15.995916,9.0301118 17.4996808,9.0301118 C19.0034455,9.0301118 20.4619584,9.23251073 21.8750599,9.63722676 L22.7409097,9.07690735 C23.3330141,8.70303384 24.0322224,8.3604119 24.8368586,8.04895971 C25.6419737,7.73767115 26.2576218,7.65193386 26.6831644,7.79223869 C27.3664906,9.55189851 27.427385,11.1400837 26.8650495,12.5568762 C28.0650604,13.8805684 28.665465,15.4846249 28.665465,17.3687183 C28.665465,18.6922469 28.5091986,19.86369 28.1983418,20.8837838 C27.887086,21.9040413 27.4847678,22.7209999 26.9912278,23.3363777 C26.4971291,23.9516737 25.8818003,24.4694517 25.1451615,24.8896299 C24.4083631,25.3101353 23.6940709,25.6136519 23.0030829,25.8006705 C22.3117757,25.9876891 21.5333967,26.1282393 20.6676267,26.2216668 C21.4572588,26.9221274 21.8521546,28.0277949 21.8521546,29.5381785 L21.8521546,34.4661913 C21.8521546,34.7461465 21.9471276,34.9798788 22.137233,35.166652 C22.3270991,35.3530979 22.6269422,35.4079926 23.0371614,35.3298637 C26.5617746,34.131096 29.4366611,31.9705652 31.6619807,28.8483532 C33.8870609,25.7263866 35,22.2114029 35,18.3025022 C34.9992019,15.0488209 34.2164334,12.0477701 32.6524926,9.29934982 Z" id="Shape"></path>
                    </g>
                </g>
            </g>
        </g>
    </g>
</svg>