<?xml version="1.0" encoding="UTF-8"?>
<svg width="119px" height="116px" viewBox="0 0 119 116" version="1.1" xmlns="http://www.w3.org/2000/svg" xmlns:xlink="http://www.w3.org/1999/xlink">
    <!-- Generator: Sketch 51.2 (57519) - http://www.bohemiancoding.com/sketch -->
    <title>Group 12</title>
    <desc>Created with Sketch.</desc>
    <defs>
        <linearGradient x1="0%" y1="0%" x2="100%" y2="100%" id="linearGradient-1">
            <stop stop-color="#FF865E" offset="0%"></stop>
            <stop stop-color="#FE6C9F" offset="100%"></stop>
        </linearGradient>
        <linearGradient x1="0%" y1="0%" x2="100%" y2="100%" id="linearGradient-2">
            <stop stop-color="#EE72E9" offset="0%"></stop>
            <stop stop-color="#8363F9" offset="100%"></stop>
        </linearGradient>
    </defs>
    <g id="Page-1" stroke="none" stroke-width="1" fill="none" fill-rule="evenodd">
        <g id="Blockchain---doplnene-texty-2" transform="translate(-973.000000, -1175.000000)">
            <g id="box-copy-2" transform="translate(876.000000, 1143.000000)">
                <g id="Group-12" transform="translate(97.000000, 32.000000)">
                    <ellipse id="Oval" fill="url(#linearGradient-1)" fill-rule="nonzero" cx="65" cy="53.5" rx="54" ry="53.5"></ellipse>
                    <ellipse id="Oval-Copy" fill="url(#linearGradient-2)" fill-rule="nonzero" style="mix-blend-mode: multiply;" cx="54" cy="62.5" rx="54" ry="53.5"></ellipse>
                    <path d="M46.8775,65 L44.3275,65 L44.3275,54.0725 L46.8775,54.0725 L46.8775,65 Z M56.3575,62.1725 C56.4175003,62.1725 56.4774997,62.1837499 56.5375,62.20625 C56.5975003,62.2287501 56.6549997,62.2674997 56.71,62.3225 L57.715,63.38 C57.2749978,63.9550029 56.7237533,64.3887485 56.06125,64.68125 C55.3987467,64.9737515 54.6150045,65.12 53.71,65.12 C52.8799959,65.12 52.1362533,64.9787514 51.47875,64.69625 C50.8212467,64.4137486 50.2637523,64.0237525 49.80625,63.52625 C49.3487477,63.0287475 48.9975012,62.4387534 48.7525,61.75625 C48.5074988,61.0737466 48.385,60.332504 48.385,59.5325 C48.385,58.7174959 48.5174987,57.9687534 48.7825,57.28625 C49.0475013,56.6037466 49.4199976,56.0150025 49.9,55.52 C50.3800024,55.0249975 50.9549967,54.6400014 51.625,54.365 C52.2950034,54.0899986 53.032496,53.9525 53.8375,53.9525 C54.2475021,53.9525 54.6337482,53.9887496 54.99625,54.06125 C55.3587518,54.1337504 55.6974984,54.2337494 56.0125,54.36125 C56.3275016,54.4887506 56.6174987,54.6424991 56.8825,54.8225 C57.1475013,55.0025009 57.382499,55.197499 57.5875,55.4075 L56.7325,56.555 C56.6774997,56.6250004 56.6125004,56.6887497 56.5375,56.74625 C56.4624996,56.8037503 56.3575007,56.8325 56.2225,56.8325 C56.1324996,56.8325 56.0475004,56.8125002 55.9675,56.7725 C55.8874996,56.7324998 55.8025005,56.6837503 55.7125,56.62625 C55.6224996,56.5687497 55.5237505,56.5062503 55.41625,56.43875 C55.3087495,56.3712497 55.1812507,56.3087503 55.03375,56.25125 C54.8862493,56.1937497 54.713751,56.1450002 54.51625,56.105 C54.318749,56.0649998 54.0875013,56.045 53.8225,56.045 C53.4024979,56.045 53.0187517,56.1224992 52.67125,56.2775 C52.3237483,56.4325008 52.0237513,56.6587485 51.77125,56.95625 C51.5187487,57.2537515 51.3237507,57.6187478 51.18625,58.05125 C51.0487493,58.4837522 50.98,58.9774972 50.98,59.5325 C50.98,60.0925028 51.0562492,60.5899978 51.20875,61.025 C51.3612508,61.4600022 51.5687487,61.8262485 51.83125,62.12375 C52.0937513,62.4212515 52.3999982,62.6474992 52.75,62.8025 C53.1000018,62.9575008 53.474998,63.035 53.875,63.035 C54.1050011,63.035 54.314999,63.0237501 54.505,63.00125 C54.695001,62.9787499 54.8724992,62.9412503 55.0375,62.88875 C55.2025008,62.8362497 55.3574993,62.7662504 55.5025,62.67875 C55.6475007,62.5912496 55.7949993,62.4800007 55.945,62.345 C56.0050003,62.2949998 56.0699996,62.2537502 56.14,62.22125 C56.2100004,62.1887498 56.2824996,62.1725 56.3575,62.1725 Z M69.295,59.5325 C69.295,60.3225039 69.1587514,61.0574966 68.88625,61.7375 C68.6137486,62.4175034 68.2300025,63.0087475 67.735,63.51125 C67.2399975,64.0137525 66.6437535,64.4074986 65.94625,64.6925 C65.2487465,64.9775014 64.4750043,65.12 63.625,65.12 C62.7749958,65.12 62.0000035,64.9775014 61.3,64.6925 C60.5999965,64.4074986 60.0012525,64.0137525 59.50375,63.51125 C59.0062475,63.0087475 58.6212514,62.4175034 58.34875,61.7375 C58.0762486,61.0574966 57.94,60.3225039 57.94,59.5325 C57.94,58.742496 58.0762486,58.0075034 58.34875,57.3275 C58.6212514,56.6474966 59.0062475,56.0575025 59.50375,55.5575 C60.0012525,55.0574975 60.5999965,54.6650014 61.3,54.38 C62.0000035,54.0949986 62.7749958,53.9525 63.625,53.9525 C64.4750043,53.9525 65.2487465,54.0962486 65.94625,54.38375 C66.6437535,54.6712514 67.2399975,55.0649975 67.735,55.565 C68.2300025,56.0650025 68.6137486,56.6549966 68.88625,57.335 C69.1587514,58.0150034 69.295,58.7474961 69.295,59.5325 Z M66.7,59.5325 C66.7,58.9924973 66.6300007,58.5062522 66.49,58.07375 C66.3499993,57.6412478 66.1487513,57.2750015 65.88625,56.975 C65.6237487,56.6749985 65.3025019,56.4450008 64.9225,56.285 C64.5424981,56.1249992 64.1100024,56.045 63.625,56.045 C63.1349976,56.045 62.6987519,56.1249992 62.31625,56.285 C61.9337481,56.4450008 61.6112513,56.6749985 61.34875,56.975 C61.0862487,57.2750015 60.8850007,57.6412478 60.745,58.07375 C60.6049993,58.5062522 60.535,58.9924973 60.535,59.5325 C60.535,60.0775027 60.6049993,60.5662478 60.745,60.99875 C60.8850007,61.4312522 61.0862487,61.7974985 61.34875,62.0975 C61.6112513,62.3975015 61.9337481,62.6262492 62.31625,62.78375 C62.6987519,62.9412508 63.1349976,63.02 63.625,63.02 C64.1100024,63.02 64.5424981,62.9412508 64.9225,62.78375 C65.3025019,62.6262492 65.6237487,62.3975015 65.88625,62.0975 C66.1487513,61.7974985 66.3499993,61.4312522 66.49,60.99875 C66.6300007,60.5662478 66.7,60.0775027 66.7,59.5325 Z" id="ICO" fill="#FFFFFF"></path>
                </g>
            </g>
        </g>
    </g>
</svg>