<?xml version="1.0" encoding="UTF-8"?>
<svg width="46px" height="46px" viewBox="0 0 46 46" version="1.1" xmlns="http://www.w3.org/2000/svg" xmlns:xlink="http://www.w3.org/1999/xlink">
    <g stroke="none" stroke-width="1" fill="none" fill-rule="evenodd" stroke-linecap="round" stroke-linejoin="round">
        <g transform="translate(-806.000000, -2263.000000)" stroke="#CF6DED">
            <g transform="translate(251.000000, 1975.000000)">
                <g transform="translate(458.000000, 20.000000)">
                    <g transform="translate(98.000000, 269.000000)">
                        <path d="M27.4989,11.6875 C30.19995,11.6875 32.63645,10.56385 34.37665,8.76535 C32.63645,10.56385 30.19995,11.6875 27.4989,11.6875 Z" id="Shape" stroke-width="0.5"></path>
                        <path d="M27.4989,21.3124998 C32.68595,21.3114 36.88795,25.51505 36.89015,30.701 C36.89015,33.3487 35.78575,35.739 34.0219,37.4462 C35.78575,35.739 36.89015,33.34925 36.89015,30.701 C36.88795,25.51505 32.68595,21.3114 27.4989,21.3124998 Z" id="Shape" stroke-width="0.5"></path>
                        <rect id="Rectangle-path" stroke-width="1.25" x="0" y="9.6239" width="27.5011" height="8.25055"></rect>
                        <rect id="Rectangle-path" stroke-width="0.75" x="2.0625" y="11.6875" width="6.875" height="1.64945"></rect>
                        <rect id="Rectangle-path" stroke-width="0.75" x="2.0625" y="14.7125" width="2.06195" height="1.09945"></rect>
                        <circle id="Oval" stroke-width="0.75" cx="24.8875" cy="15.2625" r="1"></circle>
                        <circle id="Oval" stroke-width="0.75" cx="22.68805" cy="15.2625" r="1"></circle>
                        <circle id="Oval" stroke-width="0.75" cx="20.4875" cy="15.2625" r="1"></circle>
                        <rect id="Rectangle-path" stroke-width="0.75" x="10.31305" y="11.6875" width="1.65055" height="1.64945"></rect>
                        <rect id="Rectangle-path" stroke-width="0.75" x="11.9636" y="11.6875" width="6.6011" height="1.64945"></rect>
                        <rect id="Rectangle-path" stroke-width="0.75" x="23.7875" y="11.6875" width="1.65" height="1.64945"></rect>
                        <rect id="Rectangle-path" stroke-width="0.75" x="10.31305" y="14.7125" width="8.25" height="1.09945"></rect>
                        <rect id="Rectangle-path" stroke-width="0.75" x="2.0625" y="21.9989" width="6.875" height="1.65"></rect>
                        <rect id="Rectangle-path" stroke-width="0.75" x="2.0625" y="25.025" width="2.06195" height="1.1"></rect>
                        <rect id="Rectangle-path" stroke-width="0.75" x="10.31305" y="21.9989" width="1.65055" height="1.65"></rect>
                        <rect id="Rectangle-path" stroke-width="0.75" x="11.9636" y="21.9989" width="6.6011" height="1.65"></rect>
                        <rect id="Rectangle-path" stroke-width="0.75" x="23.7875" y="21.9989" width="1.65" height="1.65"></rect>
                        <rect id="Rectangle-path" stroke-width="0.75" x="10.31305" y="25.025" width="8.25" height="1.1"></rect>
                        <rect id="Rectangle-path" stroke-width="1.25" x="1.37555" y="17.87555" width="24.75055" height="2.06195"></rect>
                        <rect id="Rectangle-path" stroke-width="0.75" x="2.0625" y="32.31195" width="6.875" height="1.6489"></rect>
                        <rect id="Rectangle-path" stroke-width="0.75" x="2.0625" y="35.33695" width="2.06195" height="1.1011"></rect>
                        <rect id="Rectangle-path" stroke-width="0.75" x="10.31305" y="32.31195" width="1.65055" height="1.6489"></rect>
                        <path d="M30.24945,5.49945 C30.24945,4.58535 30.47605,3.7235 30.8704,2.96505 C30.47605,3.72405 30.24945,4.58535 30.24945,5.49945 Z" id="Shape" stroke-width="0.5"></path>
                        <path d="M41.0575,6.91405 C40.98325,7.18905 40.89415,7.458 40.7825,7.7154 C40.4921,8.371 40.0796,8.9595 39.5692,9.4512 C40.0796,8.95895 40.4921,8.371 40.7825,7.7154 C40.8947,7.458 40.9838,7.18905 41.0575,6.91405 Z" id="Shape" stroke-width="0.5"></path>
                        <path d="M18.01195,44 C15.3538,44 13.19945,41.8451 13.19945,39.18695 C13.19945,36.76475 14.9897,34.7666 17.32005,34.42945 C17.14955,33.79695 17.04945,33.13695 17.04945,32.45055 C17.04945,28.1974 20.49795,24.75 24.75,24.75 C27.7211,24.75 30.29675,26.4363 31.57935,28.9025 C32.1574,28.7089 32.77175,28.59945 33.41305,28.59945 C36.6025,28.59945 39.18915,31.185 39.18695,34.37445 C41.8462,34.37445 44,36.52935 44,39.18695 C44,41.8462 41.8462,44 39.18695,44 L18.01195,44 Z" id="Shape" stroke-width="1.25"></path>
                        <path d="M32.45055,32.45055 C32.45055,31.16905 32.13265,29.96455 31.57935,28.9025 C32.13265,29.96455 32.45055,31.16905 32.45055,32.45055 Z" id="Shape" stroke-width="0.5"></path>
                        <path d="M17.32005,34.42945 C17.4229,34.815 17.54555,35.1934 17.70505,35.5509 C18.1104,36.4705 18.68845,37.2944 19.4007,37.9819 C18.68845,37.2944 18.1104,36.4705 17.70505,35.5509 C17.54555,35.19285 17.4229,34.815 17.32005,34.42945 Z" id="Shape" stroke-width="0.5"></path>
                        <path d="M41.0575,6.91405 C41.17905,6.4614 41.2511,5.9895 41.2511,5.49945 C41.2511,2.46125 38.78765,1.77635684e-15 35.74945,1.77635684e-15 C33.6281,1.77635684e-15 31.7878,1.2034 30.8704,2.96505 C30.4601,2.827 30.01955,2.7489 29.56195,2.7489 C27.28275,2.7489 25.4364,4.59525 25.4375,6.8739 C23.77485,6.8739 22.38775,8.0553 22.06875,9.62335 L27.50055,9.62335 L27.50055,13.75 L40.5625,13.7489 C42.4611,13.7489 43.99945,12.21 43.99945,10.3114 C44,8.58165 42.7218,7.15385 41.0575,6.91405 Z" id="Shape" stroke-width="1.25"></path>
                        <path d="M18.01195,44 C15.3538,44 13.19945,41.8451 13.19945,39.18695 C13.19945,36.76475 14.9897,34.7666 17.32005,34.42945 C17.14955,33.79695 17.04945,33.13695 17.04945,32.45055 C17.04945,28.1974 20.49795,24.75 24.75,24.75 C27.7211,24.75 30.29675,26.4363 31.57935,28.9025 C32.1574,28.7089 32.77175,28.59945 33.41305,28.59945 C36.6025,28.59945 39.18915,31.185 39.18695,34.37445 C41.8462,34.37445 44,36.52935 44,39.18695 C44,41.8462 41.8462,44 39.18695,44 L18.01195,44 Z" id="Shape" stroke-width="1.25"></path>
                        <path d="M15.15195,35.33695 L10.3136,35.33695 L10.3136,36.43805 L14.0855,36.43805 C14.3814,36.01565 14.7378,35.6444 15.15195,35.33695 Z" id="Shape" stroke-width="0.75"></path>
                        <path d="M17.04945,32.45055 C17.04945,32.40325 17.0555,32.35815 17.05715,32.31195 L11.96415,32.31195 L11.96415,33.96085 L17.22435,33.96085 C17.1215,33.4708 17.04945,32.9703 17.04945,32.45055 Z" id="Shape" stroke-width="0.75"></path>
                        <path d="M13.19945,39.18695 C13.19945,38.95155 13.2297,38.72495 13.2616,38.50055 L1.37555,38.50055 L1.37555,44 L2.7489,44 L4.12445,41.2511 L13.6807,41.2511 C13.38095,40.6219 13.19945,39.92835 13.19945,39.18695 Z" id="Shape" stroke-width="1.25"></path>
                        <path d="M17.32005,34.42945 C17.14955,33.79695 17.04945,33.13695 17.04945,32.45055 C17.04945,31.6844 17.16495,30.94685 17.3734,30.24945 L0,30.24945 L0,38.49945 L13.2616,38.49945 C13.5652,36.39735 15.2163,34.73305 17.32005,34.42945 Z" id="Shape" stroke-width="1.25"></path>
                        <path d="M18.3381,28.1875 L1.37555,28.1875 L1.37555,30.25055 L17.37285,30.25055 C17.59285,29.51025 17.9201,28.8167 18.3381,28.1875 Z" id="Shape" stroke-width="1.25"></path>
                        <path d="M24.75,24.75 C25.7224,24.75 26.64475,24.94525 27.5011,25.27525 L27.5011,19.9375 L3.55271368e-15,19.9375 L3.55271368e-15,28.1875 L18.3381,28.1875 C19.7197,26.1162 22.0748,24.75 24.75,24.75 Z" id="Shape" stroke-width="1.25"></path>
                        <polygon id="Shape" stroke-width="0.75" points="35.11145 9.4974 36.3242 6.8233 33.65285 8.0388"></polygon>
                        <polygon id="Shape" stroke-width="0.75" points="33.2937 36.71635 32.07985 39.391 34.75175 38.17495"></polygon>
                    </g>
                </g>
            </g>
        </g>
    </g>
</svg>
