<?xml version="1.0" encoding="UTF-8"?>
<svg width="12px" height="9px" viewBox="0 0 12 9" version="1.1" xmlns="http://www.w3.org/2000/svg" xmlns:xlink="http://www.w3.org/1999/xlink">
    <!-- Generator: Sketch 51 (57462) - http://www.bohemiancoding.com/sketch -->
    <title>Shape</title>
    <desc>Created with Sketch.</desc>
    <defs></defs>
    <g stroke="none" stroke-width="1" fill="none" fill-rule="evenodd">
        <g transform="translate(-285.000000, -1377.000000)">
            <g transform="translate(250.000000, 1143.000000)" fill="#586B78" fill-rule="nonzero">
                <path d="M46.7121959,234.000295 C46.641021,234.003106 46.5737755,234.033672 46.5248579,234.085448 C43.6790075,236.937454 41.6009921,239.256159 38.8014244,242.07285 L35.454887,239.24575 C35.3804431,239.181142 35.2770957,239.161358 35.1840539,239.193906 C35.091012,239.226453 35.0225319,239.306344 35.0045944,239.403268 C34.9866568,239.500193 35.0220102,239.5993 35.0972418,239.662989 L38.6396325,242.660396 C38.7491549,242.755269 38.9137689,242.747847 39.0143084,242.643502 C41.9265214,239.725035 44.0156327,237.375975 46.9165646,234.468762 C46.9986099,234.389706 47.0228142,234.267953 46.9772451,234.163526 C46.9316759,234.0591 46.8259527,233.994044 46.7121959,234.000431 L46.7121959,234.000295 Z" id="Shape"></path>
            </g>
        </g>
    </g>
</svg>
