<svg width="32" height="39" viewBox="0 0 32 39" fill="none" xmlns="http://www.w3.org/2000/svg">
  <title>TopMonks Logo</title>
  <path
    d="M11.7396 31.7424L11.7754 31.7744L11.8221 31.7622C12.6404 31.5491 16.9103 30.3385 20.5998 27.4383L20.6451 27.4028L20.6316 27.3468C20.5024 26.8154 20.5105 26.3458 20.656 25.9514C21.1079 24.7246 22.8557 23.7941 23.9159 23.9217L23.9769 23.9301L24.0081 23.8853C24.0681 23.7993 24.127 23.7127 24.1851 23.6256C24.1496 23.6926 24.1118 23.7621 24.0719 23.8335L24.0157 23.9342L24.127 23.964C24.8602 24.16 25.7727 24.8649 26.2515 25.2674L26.2881 25.2984L26.3343 25.2848C26.4627 25.2473 26.5848 25.218 26.7075 25.1947L26.7881 25.1795L26.7802 25.0981C26.5607 22.82 25.9817 20.9436 25.1503 19.8142L25.1392 19.8017C24.7844 19.4722 24.3835 19.1752 23.9476 18.9185L23.8466 18.859L23.8157 18.9722C23.5929 19.7851 22.8597 21.9172 20.8707 24.1497C18.4026 26.9199 14.9093 28.891 10.4877 30.0077L10.3705 30.0372L10.4326 30.1409C10.8213 30.7875 11.2244 31.2815 11.7396 31.7424Z"
    fill="#F15938"/>
  <path
    d="M28.9153 27.4598C27.493 26.3219 25.5884 26.8349 23.8203 28.8313C22.1877 30.6748 21.1614 31.7019 18.5063 32.0333C20.2991 31.1751 21.0976 30.6884 21.7719 29.7132L21.8101 29.6578L21.7705 29.6032C21.4782 29.2023 21.0743 28.5805 20.8099 27.8949L20.7616 27.7697L20.6596 27.8569C18.5535 29.6556 15.8754 31.1501 12.6991 32.2985L12.5216 32.3629L12.6796 32.4671C13.2441 32.8389 13.9067 33.1921 14.6955 33.5406C11.3273 33.4757 9.62978 30.8285 8.49114 29.0517L8.35705 28.843C7.64835 27.7426 6.66062 27.0165 5.64765 26.851C4.86241 26.7226 4.09915 26.9332 3.43605 27.4638C2.07321 28.7108 1.7114 30.7432 2.49148 32.7681C2.9635 33.9933 3.7938 35.0511 4.89254 35.8274C6.11288 36.6894 7.61741 37.1498 9.24435 37.159C11.2125 37.159 12.3435 36.7329 13.3665 36.3569C14.1781 36.0586 14.886 35.7763 15.9717 35.7603V36.558L16.0936 36.564C16.1061 36.5643 16.1294 36.5933 16.1367 36.5944C16.1077 36.5868 16.0917 36.5431 16.0917 36.5431H16.2429V35.7603C17.3286 35.7763 18.0897 36.0586 18.9067 36.3569C19.9365 36.7329 21.1134 37.159 23.0818 37.159C24.7109 37.15 26.2238 36.6881 27.4477 35.823C28.5342 35.0552 29.3917 33.9659 29.858 32.7556C30.637 30.7348 30.2787 28.7073 28.9153 27.4598Z"
    fill="#F15938"/>
  <path
    d="M16.1506 36.5665C16.1571 36.5681 16.1639 36.5694 16.1698 36.5703C16.1663 36.5697 16.1601 36.5681 16.1506 36.5665Z"
    fill="#F15938"/>
  <path
    d="M23.55 10.432L23.496 10.3874L23.4376 10.4257C23.1735 10.5989 22.9328 10.8456 22.7664 11.037C23.1366 8.57104 22.5248 6.1081 21.0998 4.38615C19.8659 2.8952 18.1649 2.10643 16.1804 2.1048C14.1963 2.10643 12.4953 2.8952 11.2613 4.38615C9.83635 6.1081 9.22428 8.57104 9.59478 11.037C9.42839 10.8456 9.18763 10.5989 8.92353 10.4257L8.86517 10.3874L8.81116 10.432C8.11658 11.0033 7.79249 11.7655 7.92223 12.5228C8.03677 13.1918 8.50119 13.7665 9.10593 13.9869L9.15778 14.0059L9.19985 13.97C9.45499 13.7526 9.61649 13.6025 9.79835 13.3818C9.93298 14.2548 10.3407 16.0226 11.5382 17.5996C12.7295 19.1679 14.335 19.9979 16.1807 19.9995C18.0264 19.9979 19.6317 19.1679 20.823 17.5996C22.0208 16.0228 22.4285 14.2548 22.5628 13.3818C22.7447 13.6025 22.9062 13.7523 23.1613 13.97L23.2034 14.0059L23.2552 13.9869C23.8597 13.7665 24.3244 13.1918 24.4389 12.5228C24.5687 11.7655 24.2446 11.0033 23.55 10.432ZM15.469 6.20445C15.4989 6.52583 15.2617 6.81137 14.9403 6.84123C14.6181 6.87081 14.3334 6.63385 14.3035 6.31248C14.2737 5.99111 14.5109 5.70557 14.8323 5.67571C14.8504 5.67408 14.8686 5.67327 14.8865 5.67327C15.1851 5.673 15.4411 5.90127 15.469 6.20445ZM14.2552 3.93124C14.3551 3.811 14.4957 3.7369 14.6515 3.72251C14.8073 3.70813 14.959 3.75508 15.0793 3.85497C15.1995 3.95485 15.2736 4.09545 15.288 4.25125C15.3178 4.57263 15.0806 4.85817 14.7592 4.88803C14.4373 4.91788 14.1523 4.68065 14.1225 4.35928C14.1081 4.20348 14.1553 4.05148 14.2552 3.93124ZM14.3402 13.4131C14.0318 13.6191 13.6116 13.7323 13.1573 13.7323C12.3403 13.7323 11.5138 13.3501 11.4182 12.6178C12.5775 13.058 13.7303 13.0586 14.8488 12.6197C14.8095 12.9438 14.6355 13.216 14.3402 13.4131ZM15.127 8.85713C14.9712 8.87151 14.8195 8.82456 14.6993 8.72467C14.579 8.62478 14.5049 8.48418 14.4905 8.32838C14.4761 8.17258 14.5231 8.02085 14.623 7.90061C14.7229 7.78037 14.8635 7.70627 15.0193 7.69188C15.0377 7.69026 15.0559 7.68944 15.0744 7.68944C15.2106 7.68944 15.3412 7.7364 15.4473 7.82461C15.5676 7.9245 15.6417 8.0651 15.656 8.2209C15.6856 8.54173 15.4484 8.82754 15.127 8.85713ZM17.0729 4.25125C17.0873 4.09545 17.1614 3.95485 17.2816 3.85497C17.3878 3.76703 17.5183 3.7198 17.6546 3.7198C17.6728 3.7198 17.6912 3.72061 17.7097 3.72224C17.8655 3.73663 18.0061 3.81073 18.106 3.93097C18.2058 4.05121 18.2528 4.20321 18.2384 4.35874C18.2086 4.68011 17.9222 4.91761 17.6016 4.88748C17.4458 4.8731 17.3052 4.799 17.2054 4.67876C17.1055 4.55878 17.0585 4.40678 17.0729 4.25125ZM16.8919 6.20445C16.9217 5.88308 17.2075 5.64531 17.5286 5.67571C17.85 5.70557 18.0872 5.99111 18.0574 6.31248C18.043 6.46828 17.9689 6.60888 17.8484 6.70877C17.7281 6.80865 17.5759 6.85561 17.4206 6.84123C17.0995 6.81137 16.8623 6.52555 16.8919 6.20445ZM17.2341 8.85713C17.0783 8.84274 16.9377 8.76864 16.8378 8.6484C16.738 8.52816 16.691 8.37615 16.7054 8.22063C16.7198 8.0651 16.7939 7.92423 16.9141 7.82434C17.0202 7.73613 17.1508 7.68917 17.2871 7.68917C17.3052 7.68917 17.3237 7.68998 17.3422 7.69161C17.498 7.706 17.6386 7.7801 17.7384 7.90034C17.8383 8.02058 17.8853 8.17258 17.8709 8.32811C17.841 8.64976 17.5547 8.88671 17.2341 8.85713ZM19.224 13.7564C18.7734 13.7564 18.3587 13.6421 18.0566 13.4345C17.7642 13.2336 17.5927 12.9541 17.5547 12.6194C18.6735 13.0588 19.8265 13.0583 20.9861 12.6178C20.8914 13.3661 20.0526 13.7564 19.224 13.7564Z"
    fill="#F1CEAB"/>
  <path
    d="M21.9187 18.0995L21.8604 18.0871L21.8264 18.1362C20.3284 20.3046 18.4732 21.3605 16.1549 21.3643C13.8858 21.3605 11.9861 20.2745 10.5089 18.1362L10.475 18.0871L10.4167 18.0995C10.1205 18.1622 8.57447 18.5387 7.21434 19.8014L7.20321 19.8139C6.37454 20.939 5.79694 22.8156 5.57709 25.0978L5.56921 25.1792L5.64983 25.1944C5.77469 25.218 5.9009 25.2484 6.02494 25.2845L6.07109 25.2981L6.10773 25.2672C6.55206 24.8937 7.66899 24.0148 8.44636 23.9214C8.70204 23.8908 9.01527 23.9244 9.35157 24.0191L9.43463 24.0425L9.46123 23.9602C9.54049 23.7146 9.77391 23.118 10.3483 22.3952C10.1531 23.118 10.1463 23.9328 10.1553 24.2952L10.1566 24.3468L10.2017 24.3717C10.9364 24.7767 11.4845 25.3524 11.7051 25.9514C11.9717 26.6751 11.6546 27.6636 11.3414 28.3655L11.2665 28.5335L11.4451 28.489C14.2215 27.798 20.9334 25.4569 23.2873 18.6617L23.3141 18.5843L23.2395 18.5507C22.5807 18.2521 22.062 18.1299 21.9187 18.0995Z"
    fill="#F1CEAB"/>
  <path
    d="M8.66374 24.7341C8.03945 24.7579 7.45995 25.2291 7.08375 25.6203L7.00531 25.7017L7.10275 25.7595C7.75391 26.1458 8.363 26.6959 8.77367 27.2695C9.20443 27.871 9.51331 28.4385 9.76927 28.923L9.83251 29.043L9.91801 28.9379C10.9885 27.6221 10.9695 26.7717 10.8629 26.3816C10.6148 25.4748 9.42673 24.7047 8.66374 24.7341Z"
    fill="#F1CEAB"/>
  <path
    d="M25.2771 25.6203C24.9009 25.2292 24.3214 24.7577 23.6971 24.7341C22.9328 24.705 21.7461 25.4748 21.498 26.3819C21.3107 27.067 21.5783 27.8411 22.3164 28.7482L22.3924 28.8416L22.4602 28.742C22.6559 28.4543 22.8405 28.226 23.0356 27.9842C23.2088 27.77 23.3877 27.5482 23.5875 27.2695C23.9981 26.696 24.6072 26.1458 25.2584 25.7595L25.3558 25.7017L25.2771 25.6203Z"
    fill="#F1CEAB"/>
  <path
    d="M17.4746 6.9384C17.8503 6.9384 18.1548 6.63386 18.1548 6.2582C18.1548 5.88254 17.8503 5.578 17.4746 5.578C17.099 5.578 16.7944 5.88254 16.7944 6.2582C16.7944 6.63386 17.099 6.9384 17.4746 6.9384Z"
    fill="#233341"/>
  <path
    d="M17.6557 4.98548C18.0313 4.98548 18.3359 4.68095 18.3359 4.30528C18.3359 3.92961 18.0313 3.62508 17.6557 3.62508C17.28 3.62508 16.9755 3.92961 16.9755 4.30528C16.9755 4.68095 17.28 4.98548 17.6557 4.98548Z"
    fill="#233341"/>
  <path d="M21.0901 12.6571C19.8559 13.2 18.638 13.2 17.4518 12.6571C17.4518 14.5571 21.0901 14.5571 21.0901 12.6571Z"
        fill="#233341"/>
  <path d="M14.9525 12.6571C13.7664 13.2 12.5485 13.2 11.3143 12.6571C11.3143 14.5571 14.9525 14.5571 14.9525 12.6571Z"
        fill="#233341"/>
  <path
    d="M16.2179 37.6286C18.1792 37.6286 17.8994 38.0715 21.2741 38.7887C30.6386 40.5603 33.9997 30.7538 30.7594 26.8832C30.0526 26.0391 29.3295 25.5288 28.6235 25.2691C28.5655 24.8087 28.0362 20.9077 26.562 19.0262C24.6485 17.1088 22.9653 16.6108 22.856 16.5798C23.1513 15.9884 23.4235 15.4832 23.5704 15.1725C24.823 15.1991 27.1915 11.943 24.2166 9.54764C24.2166 2.18542 18.1792 0.43633 16.1547 0.430359C14.1933 0.43633 8.11847 2.18514 8.11847 9.54737C5.14361 11.9427 7.53273 15.1982 8.78564 15.1716C8.93248 15.4822 9.20717 15.9867 9.50276 16.5782C9.39337 16.6091 7.71133 17.1056 5.79803 19.0232C4.3239 20.9048 3.79543 24.803 3.73734 25.2634C3.03136 25.5231 2.30854 26.0277 1.60201 26.8718C-1.63857 30.7424 1.72877 40.56 11.0931 38.7884C14.4672 38.0715 14.1721 37.6286 16.1547 37.6286H16.2179ZM25.0779 19.8674C25.9616 21.0673 26.4893 23.0157 26.691 25.1065C26.561 25.1309 26.435 25.1618 26.3093 25.1985C25.8533 24.815 24.9101 24.0802 24.1504 23.8772C24.6487 22.985 24.8021 22.4193 24.8021 22.4193C24.5383 22.9147 24.2473 23.3856 23.9346 23.834C23.9314 23.8335 23.9281 23.8329 23.9248 23.8327C22.8703 23.7062 21.0529 24.6152 20.5719 25.9208C20.4077 26.3667 20.4223 26.8651 20.5445 27.3683C16.8913 30.2397 12.7064 31.4394 11.7996 31.6759C11.2236 31.1604 10.8368 30.639 10.5095 30.0945C20.9372 27.4611 23.4254 20.7338 23.902 18.9958C24.288 19.223 24.6919 19.5091 25.0779 19.8674ZM25.2125 25.6824C24.4682 26.1238 23.8722 26.7179 23.5144 27.2174C23.0916 27.808 22.7582 28.1446 22.3861 28.6915C21.9942 28.2097 21.3408 27.2969 21.5846 26.4053C21.8224 25.5353 22.9656 24.7957 23.6936 24.8234C24.3086 24.8473 24.8816 25.3386 25.2125 25.6824ZM9.84856 28.8815C9.57279 28.3587 9.2696 27.8083 8.84671 27.2176C8.48897 26.7182 7.89291 26.1241 7.14866 25.6827C7.47953 25.3388 8.05251 24.8473 8.6673 24.8239C9.39554 24.796 10.5385 25.5359 10.7763 26.4058C11.02 27.2972 10.2402 28.3997 9.84856 28.8815ZM9.13796 13.8978C7.98493 13.4777 7.38453 11.7283 8.87114 10.5052C9.34397 10.8155 9.74921 11.3817 9.74921 11.3817C8.89503 6.87353 11.4087 2.2036 16.1804 2.1998C20.9519 2.2036 23.4659 6.87326 22.6117 11.3817C22.6117 11.3817 23.0169 10.8155 23.4897 10.5052C24.9764 11.7283 24.376 13.4777 23.2229 13.8978C22.9138 13.6343 22.746 13.4747 22.4998 13.1481C22.1576 15.8605 20.2752 19.901 16.1804 19.9048C12.0857 19.901 10.2033 15.8605 9.86104 13.1481C9.61513 13.4747 9.44711 13.6343 9.13796 13.8978ZM7.27514 19.8674C8.62686 18.6125 10.183 18.2407 10.4351 18.1875C11.5664 19.8253 13.3706 21.4498 16.1547 21.4541C19.0019 21.4495 20.7687 19.8253 21.9 18.1875C22.0346 18.216 22.5473 18.3357 23.202 18.6326C20.8015 25.5627 13.8432 27.7999 11.4228 28.4024C11.8088 27.5371 12.0403 26.6034 11.7887 25.9208C11.5379 25.2403 10.924 24.6681 10.2443 24.2935C10.2351 23.9133 10.2397 22.7744 10.5863 21.9766C9.86511 22.7697 9.5147 23.5002 9.37518 23.9331C9.03481 23.8373 8.7091 23.7998 8.43496 23.8327C7.64646 23.9274 6.55178 24.7761 6.04937 25.1988C5.9237 25.1621 5.79586 25.1312 5.66584 25.1067C5.86778 23.0154 6.39137 21.0673 7.27514 19.8674ZM23.1068 37.096C19.5339 37.096 18.6855 35.7286 16.2179 35.7286H16.1547C13.6553 35.7286 12.8329 37.096 9.25983 37.096C2.97707 37.0613 0.403655 30.383 3.49984 27.5499C5.08173 26.2845 7.07483 27.0358 8.27698 28.9021C9.47914 30.7688 11.2825 33.8123 15.1422 33.6331C14.135 33.2124 13.3541 32.7996 12.7319 32.3897C16.3558 31.0793 18.9192 29.4697 20.722 27.9299C20.9641 28.558 21.3349 29.1654 21.6951 29.6594C20.9847 30.6873 20.162 31.1512 17.9686 32.1845C21.0056 31.9315 22.1025 30.9188 23.8955 28.8943C25.3675 27.232 27.2821 26.2845 28.864 27.5499C31.9602 30.383 29.3895 37.0613 23.1068 37.096Z"
    fill="#233341"/>
  <path
    d="M14.7055 4.98548C15.0811 4.98548 15.3857 4.68095 15.3857 4.30528C15.3857 3.92961 15.0811 3.62508 14.7055 3.62508C14.3298 3.62508 14.0253 3.92961 14.0253 4.30528C14.0253 4.68095 14.3298 4.98548 14.7055 4.98548Z"
    fill="#233341"/>
  <path
    d="M15.073 8.95458C15.4487 8.95458 15.7532 8.65004 15.7532 8.27438C15.7532 7.89871 15.4487 7.59418 15.073 7.59418C14.6974 7.59418 14.3928 7.89871 14.3928 8.27438C14.3928 8.65004 14.6974 8.95458 15.073 8.95458Z"
    fill="#233341"/>
  <path
    d="M17.2879 8.95458C17.6635 8.95458 17.9681 8.65004 17.9681 8.27438C17.9681 7.89871 17.6635 7.59418 17.2879 7.59418C16.9122 7.59418 16.6077 7.89871 16.6077 8.27438C16.6077 8.65004 16.9122 8.95458 17.2879 8.95458Z"
    fill="#233341"/>
  <path
    d="M14.8863 6.9384C15.2619 6.9384 15.5665 6.63386 15.5665 6.2582C15.5665 5.88254 15.2619 5.578 14.8863 5.578C14.5106 5.578 14.2061 5.88254 14.2061 6.2582C14.2061 6.63386 14.5106 6.9384 14.8863 6.9384Z"
    fill="#233341"/>
</svg>
