<svg width="49" height="41" viewBox="0 0 49 41" fill="none" xmlns="http://www.w3.org/2000/svg">
  <title>Quotes Icon</title>
  <path opacity="0.3"
        d="M17.7234 38.3151C16.8455 39.1355 15.8029 39.7881 14.5957 40.2729C13.3886 40.7576 11.9436 41 10.2609 41C8.5782 41 7.0601 40.5152 5.70661 39.5457C4.35312 38.5762 3.25569 37.3829 2.41433 35.9659C0.804778 33.2437 0 30.1114 0 26.5689C0 22.9891 0.530422 19.6703 1.59127 16.6126C2.68869 13.5175 3.98731 10.8327 5.48712 8.55798C7.02352 6.24602 8.5782 4.36289 10.1512 2.90859C11.7607 1.4543 13.0959 0.484766 14.1568 0C14.8518 0 15.6383 0.335607 16.5162 1.00682C18.0161 2.12551 18.8757 3.15098 19.0952 4.08322C16.4248 6.80537 14.4677 10.0123 13.224 13.704C12.7118 15.3074 12.4558 16.8736 12.4558 18.4025C12.4558 19.9313 12.6021 21.2365 12.8947 22.3179C13.224 23.362 13.6995 24.2942 14.3214 25.1146C15.6383 26.9045 17.3027 27.874 19.3147 28.0232C20.156 29.3283 20.5767 30.6335 20.5767 31.9386C20.5767 33.2437 20.3206 34.437 19.8085 35.5184C19.2964 36.5625 18.6013 37.4948 17.7234 38.3151ZM46.1467 38.3151C45.2688 39.1355 44.2262 39.7881 43.019 40.2729C41.8119 40.7576 40.3669 41 38.6842 41C37.0015 41 35.4834 40.5152 34.1299 39.5457C32.7764 38.5762 31.679 37.3829 30.8376 35.9659C29.2281 33.2437 28.4233 30.1114 28.4233 26.5689C28.4233 22.9891 28.9537 19.6703 30.0146 16.6126C31.112 13.5175 32.4106 10.8327 33.9104 8.55798C35.4468 6.24602 37.0015 4.36289 38.5745 2.90859C40.184 1.4543 41.5192 0.484766 42.5801 0C43.2751 0 44.0616 0.335607 44.9395 1.00682C46.4393 2.12551 47.299 3.15098 47.5185 4.08322C44.8481 6.80537 42.891 10.0123 41.6473 13.704C41.1351 15.3074 40.8791 16.8736 40.8791 18.4025C40.8791 19.9313 41.0254 21.2365 41.318 22.3179C41.6473 23.362 42.1228 24.2942 42.7447 25.1146C44.0616 26.9045 45.726 27.874 47.738 28.0232C48.5793 29.3283 49 30.6335 49 31.9386C49 33.2437 48.7439 34.437 48.2318 35.5184C47.7197 36.5625 47.0246 37.4948 46.1467 38.3151Z"
        fill="white"/>
</svg>
