<?xml version="1.0" encoding="UTF-8"?>
<svg width="137px" height="160px" viewBox="0 0 137 160" version="1.1" xmlns="http://www.w3.org/2000/svg" xmlns:xlink="http://www.w3.org/1999/xlink">
    <!-- Generator: Sketch 51.2 (57519) - http://www.bohemiancoding.com/sketch -->
    <title>Group 5</title>
    <desc>Created with Sketch.</desc>
    <defs>
        <linearGradient x1="0%" y1="0%" x2="100%" y2="100%" id="linearGradient-1">
            <stop stop-color="#EE72E9" offset="0%"></stop>
            <stop stop-color="#8363F9" offset="100%"></stop>
        </linearGradient>
    </defs>
    <g id="Page-1" stroke="none" stroke-width="1" fill="none" fill-rule="evenodd">
        <g id="Blockchain---doplnene-texty-2" transform="translate(-410.000000, -2150.000000)" fill="url(#linearGradient-1)" fill-rule="nonzero">
            <g id="Group-10" transform="translate(251.000000, 2010.000000)">
                <g id="Group-5" transform="translate(159.000000, 140.000000)">
                    <path d="M17.0001445,36.7981335 L17.0001445,63.5657587 C16.9470437,91.1929859 31.5357462,116.958683 55.7417563,131.988885 L67.0001635,139 L78.2507466,131.988885 C102.459788,116.960516 117.051538,91.1944271 116.999863,63.5657587 L116.999863,36.7981335 L66.999924,23 L17.0001445,36.7981335 Z M97.9526399,50.0661136 C98.7013559,50.7828257 99.1220065,51.7550757 99.1220065,52.7688716 C99.1220065,53.7826674 98.7013559,54.7549175 97.9526399,55.4716295 L56.9968065,94.6934255 C56.2484243,95.4104748 55.2331763,95.813339 54.1745403,95.813339 C53.1159042,95.813339 52.1006563,95.4104748 51.352274,94.6934255 L36.0473678,80.0366025 C34.5154276,78.5395903 34.528081,76.1403677 36.075733,74.6582507 C37.623385,73.1761338 40.1286943,73.1640162 41.6919002,74.6310867 L54.1743806,86.5849989 L92.3078679,50.0662665 C93.0562594,49.3491643 94.0715391,48.946254 95.1302208,48.9462253 C96.1889026,48.9461966 97.204206,49.3490519 97.9526399,50.0661136 Z" id="Shape"></path>
                    <path d="M68.5,0 L0,19.1505016 L0,57.2304538 C0.000580253315,94.3693837 19.3632488,128.990498 51.4631311,149.248295 L68.5,160 L85.53883,149.248295 C117.638226,128.990289 137.000197,94.3691028 137,57.2304538 L137,19.1505016 L68.5,0 Z M125.472911,62.3674174 C125.528584,92.4301061 109.846886,120.46567 83.8305699,136.815127 L70.6392277,145.142193 C69.3404996,145.964323 67.6634225,145.964323 66.3646944,145.142193 L53.1656648,136.814899 C27.1525988,120.463535 11.4740998,92.4284958 11.5311678,62.3674174 L11.5311678,32.8762017 C11.531163,31.1817759 12.6868289,29.6916071 14.3655602,29.2214057 L67.4141876,14.394406 C68.1257212,14.20127 68.8782794,14.20127 69.589813,14.394406 L122.638284,29.2215578 C124.317015,29.6917592 125.472681,31.181928 125.472676,32.8763539 L125.472911,62.3674174 Z" id="Shape"></path>
                </g>
            </g>
        </g>
    </g>
</svg>