<?xml version="1.0" encoding="UTF-8"?>
<svg width="506px" height="487px" viewBox="0 0 506 487" version="1.1" xmlns="http://www.w3.org/2000/svg" xmlns:xlink="http://www.w3.org/1999/xlink">
    <!-- Generator: Sketch 51.2 (57519) - http://www.bohemiancoding.com/sketch -->
    <title>Group 27</title>
    <desc>Created with Sketch.</desc>
    <defs>
        <rect id="path-1" x="0" y="0" width="460" height="441"></rect>
        <filter x="-7.7%" y="-7.6%" width="115.4%" height="116.1%" filterUnits="objectBoundingBox" id="filter-2">
            <feOffset dx="0" dy="2" in="SourceAlpha" result="shadowOffsetOuter1"></feOffset>
            <feGaussianBlur stdDeviation="11.5" in="shadowOffsetOuter1" result="shadowBlurOuter1"></feGaussianBlur>
            <feColorMatrix values="0 0 0 0 0   0 0 0 0 0   0 0 0 0 0  0 0 0 0.1 0" type="matrix" in="shadowBlurOuter1"></feColorMatrix>
        </filter>
        <linearGradient x1="0%" y1="0%" x2="100%" y2="100%" id="linearGradient-3">
            <stop stop-color="#EE72E9" offset="0%"></stop>
            <stop stop-color="#8363F9" offset="100%"></stop>
        </linearGradient>
    </defs>
    <g id="Page-1" stroke="none" stroke-width="1" fill="none" fill-rule="evenodd">
        <g id="Blockchain---doplnene-texty-2" transform="translate(-228.000000, -1954.000000)">
            <g id="Group-10" transform="translate(251.000000, 1975.000000)">
                <g id="Group-27">
                    <g id="Combined-Shape">
                        <use fill="black" fill-opacity="1" filter="url(#filter-2)" xlink:href="#path-1"></use>
                        <use fill="#FFFFFF" fill-rule="evenodd" xlink:href="#path-1"></use>
                    </g>
                    <path d="M165.352,330.068 C165.231999,330.260001 165.106001,330.404 164.974,330.5 C164.841999,330.596 164.672001,330.644 164.464,330.644 C164.279999,330.644 164.082001,330.586001 163.87,330.47 C163.657999,330.353999 163.418001,330.224001 163.15,330.08 C162.881999,329.935999 162.576002,329.806001 162.232,329.69 C161.887998,329.573999 161.496002,329.516 161.056,329.516 C160.295996,329.516 159.730002,329.677998 159.358,330.002 C158.985998,330.326002 158.8,330.763997 158.8,331.316 C158.8,331.668002 158.911999,331.959999 159.136,332.192 C159.360001,332.424001 159.653998,332.623999 160.018,332.792 C160.382002,332.960001 160.797998,333.113999 161.266,333.254 C161.734002,333.394001 162.211998,333.549999 162.7,333.722 C163.188002,333.894001 163.665998,334.095999 164.134,334.328 C164.602002,334.560001 165.017998,334.855998 165.382,335.216 C165.746002,335.576002 166.039999,336.013997 166.264,336.53 C166.488001,337.046003 166.6,337.667996 166.6,338.396 C166.6,339.204004 166.460001,339.959996 166.18,340.664 C165.899999,341.368004 165.494003,341.981997 164.962,342.506 C164.429997,343.030003 163.774004,343.441998 162.994,343.742 C162.213996,344.042001 161.328005,344.192 160.336,344.192 C159.791997,344.192 159.238003,344.136001 158.674,344.024 C158.109997,343.911999 157.564003,343.754001 157.036,343.55 C156.507997,343.345999 156.012002,343.104001 155.548,342.824 C155.083998,342.543999 154.680002,342.232002 154.336,341.888 L155.536,339.992 C155.632,339.855999 155.757999,339.742 155.914,339.65 C156.070001,339.558 156.239999,339.512 156.424,339.512 C156.664001,339.512 156.905999,339.587999 157.15,339.74 C157.394001,339.892001 157.669998,340.059999 157.978,340.244 C158.286002,340.428001 158.639998,340.595999 159.04,340.748 C159.440002,340.900001 159.911997,340.976 160.456,340.976 C161.192004,340.976 161.763998,340.814002 162.172,340.49 C162.580002,340.165998 162.784,339.652004 162.784,338.948 C162.784,338.539998 162.672001,338.208001 162.448,337.952 C162.223999,337.695999 161.930002,337.484001 161.566,337.316 C161.201998,337.147999 160.788002,337.000001 160.324,336.872 C159.859998,336.743999 159.384002,336.602001 158.896,336.446 C158.407998,336.289999 157.932002,336.098001 157.468,335.87 C157.003998,335.641999 156.590002,335.342002 156.226,334.97 C155.861998,334.597998 155.568001,334.134003 155.344,333.578 C155.119999,333.021997 155.008,332.336004 155.008,331.52 C155.008,330.863997 155.139999,330.224003 155.404,329.6 C155.668001,328.975997 156.055997,328.420002 156.568,327.932 C157.080003,327.443998 157.707996,327.054001 158.452,326.762 C159.196004,326.469999 160.047995,326.324 161.008,326.324 C161.544003,326.324 162.065997,326.366 162.574,326.45 C163.082003,326.534 163.563998,326.657999 164.02,326.822 C164.476002,326.986001 164.901998,327.181999 165.298,327.41 C165.694002,327.638001 166.047998,327.895999 166.36,328.184 L165.352,330.068 Z M176.296,336.284 C176.296,335.987999 176.258,335.700001 176.182,335.42 C176.106,335.139999 175.982001,334.890001 175.81,334.67 C175.637999,334.449999 175.412001,334.272001 175.132,334.136 C174.851999,333.999999 174.512002,333.932 174.112,333.932 C173.407996,333.932 172.856002,334.133998 172.456,334.538 C172.055998,334.942002 171.792001,335.523996 171.664,336.284 L176.296,336.284 Z M171.616,338.444 C171.736001,339.484005 172.051997,340.237998 172.564,340.706 C173.076003,341.174002 173.735996,341.408 174.544,341.408 C174.976002,341.408 175.347998,341.356001 175.66,341.252 C175.972002,341.147999 176.249999,341.032001 176.494,340.904 C176.738001,340.775999 176.961999,340.660001 177.166,340.556 C177.370001,340.451999 177.583999,340.4 177.808,340.4 C178.104001,340.4 178.327999,340.507999 178.48,340.724 L179.56,342.056 C179.175998,342.496002 178.762002,342.853999 178.318,343.13 C177.873998,343.406001 177.418002,343.621999 176.95,343.778 C176.481998,343.934001 176.014002,344.042 175.546,344.102 C175.077998,344.162 174.632002,344.192 174.208,344.192 C173.335996,344.192 172.518004,344.050001 171.754,343.766 C170.989996,343.481999 170.322003,343.060003 169.75,342.5 C169.177997,341.939997 168.726002,341.244004 168.394,340.412 C168.061998,339.579996 167.896,338.612006 167.896,337.508 C167.896,336.675996 168.037999,335.888004 168.322,335.144 C168.606001,334.399996 169.013997,333.748003 169.546,333.188 C170.078003,332.627997 170.721996,332.184002 171.478,331.856 C172.234004,331.527998 173.087995,331.364 174.04,331.364 C174.864004,331.364 175.617997,331.491999 176.302,331.748 C176.986003,332.004001 177.573998,332.375998 178.066,332.864 C178.558002,333.352002 178.941999,333.949996 179.218,334.658 C179.494001,335.366004 179.632,336.167996 179.632,337.064 C179.632,337.344001 179.62,337.571999 179.596,337.748 C179.572,337.924001 179.528,338.063999 179.464,338.168 C179.4,338.272001 179.314001,338.344 179.206,338.384 C179.097999,338.424 178.960001,338.444 178.792,338.444 L171.616,338.444 Z M190.636,334.508 C190.523999,334.644001 190.416001,334.752 190.312,334.832 C190.207999,334.912 190.060001,334.952 189.868,334.952 C189.683999,334.952 189.518001,334.908 189.37,334.82 C189.221999,334.732 189.056001,334.634001 188.872,334.526 C188.687999,334.417999 188.472001,334.32 188.224,334.232 C187.975999,334.144 187.668002,334.1 187.3,334.1 C186.843998,334.1 186.450002,334.183999 186.118,334.352 C185.785998,334.520001 185.512001,334.759998 185.296,335.072 C185.079999,335.384002 184.920001,335.765998 184.816,336.218 C184.711999,336.670002 184.66,337.179997 184.66,337.748 C184.66,338.940006 184.889998,339.855997 185.35,340.496 C185.810002,341.136003 186.443996,341.456 187.252,341.456 C187.684002,341.456 188.025999,341.402001 188.278,341.294 C188.530001,341.185999 188.743999,341.066001 188.92,340.934 C189.096001,340.801999 189.257999,340.680001 189.406,340.568 C189.554001,340.455999 189.739999,340.4 189.964,340.4 C190.260001,340.4 190.483999,340.507999 190.636,340.724 L191.716,342.056 C191.331998,342.496002 190.928002,342.853999 190.504,343.13 C190.079998,343.406001 189.646002,343.621999 189.202,343.778 C188.757998,343.934001 188.312002,344.042 187.864,344.102 C187.415998,344.162 186.980002,344.192 186.556,344.192 C185.795996,344.192 185.070003,344.048001 184.378,343.76 C183.685997,343.471999 183.078003,343.054003 182.554,342.506 C182.029997,341.957997 181.614002,341.284004 181.306,340.484 C180.997998,339.683996 180.844,338.772005 180.844,337.748 C180.844,336.851996 180.977999,336.014004 181.246,335.234 C181.514001,334.453996 181.909997,333.778003 182.434,333.206 C182.958003,332.633997 183.605996,332.184002 184.378,331.856 C185.150004,331.527998 186.043995,331.364 187.06,331.364 C188.036005,331.364 188.891996,331.519998 189.628,331.832 C190.364004,332.144002 191.027997,332.599997 191.62,333.2 L190.636,334.508 Z M204.328,331.556 L204.328,344 L202.024,344 C201.559998,344 201.256001,343.792002 201.112,343.376 L200.896,342.656 C200.655999,342.888001 200.408001,343.097999 200.152,343.286 C199.895999,343.474001 199.622001,343.633999 199.33,343.766 C199.037999,343.898001 198.722002,344.002 198.382,344.078 C198.041998,344.154 197.672002,344.192 197.272,344.192 C196.591997,344.192 195.990003,344.074001 195.466,343.838 C194.941997,343.601999 194.500002,343.272002 194.14,342.848 C193.779998,342.423998 193.508001,341.924003 193.324,341.348 C193.139999,340.771997 193.048,340.140003 193.048,339.452 L193.048,331.556 L196.768,331.556 L196.768,339.452 C196.768,340.068003 196.907999,340.543998 197.188,340.88 C197.468001,341.216002 197.879997,341.384 198.424,341.384 C198.832002,341.384 199.213998,341.298001 199.57,341.126 C199.926002,340.953999 200.271998,340.720001 200.608,340.424 L200.608,331.556 L204.328,331.556 Z M210.328,333.476 C210.712002,332.803997 211.153998,332.276002 211.654,331.892 C212.154002,331.507998 212.727997,331.316 213.376,331.316 C213.936003,331.316 214.391998,331.447999 214.744,331.712 L214.504,334.448 C214.464,334.624001 214.398,334.744 214.306,334.808 C214.214,334.872 214.088001,334.904 213.928,334.904 C213.864,334.904 213.780001,334.9 213.676,334.892 C213.571999,334.884 213.464001,334.874 213.352,334.862 C213.239999,334.85 213.126001,334.838 213.01,334.826 C212.893999,334.814 212.788,334.808 212.692,334.808 C212.147997,334.808 211.714002,334.951999 211.39,335.24 C211.065998,335.528001 210.792001,335.927997 210.568,336.44 L210.568,344 L206.848,344 L206.848,331.556 L209.056,331.556 C209.240001,331.556 209.393999,331.572 209.518,331.604 C209.642001,331.636 209.746,331.686 209.83,331.754 C209.914,331.822 209.978,331.911999 210.022,332.024 C210.066,332.136001 210.104,332.271999 210.136,332.432 L210.328,333.476 Z M219.808,331.556 L219.808,344 L216.088,344 L216.088,331.556 L219.808,331.556 Z M220.192,328.148 C220.192,328.444001 220.132001,328.721999 220.012,328.982 C219.891999,329.242001 219.728001,329.469999 219.52,329.666 C219.311999,329.862001 219.070001,330.017999 218.794,330.134 C218.517999,330.250001 218.224002,330.308 217.912,330.308 C217.607998,330.308 217.324001,330.250001 217.06,330.134 C216.795999,330.017999 216.562001,329.862001 216.358,329.666 C216.153999,329.469999 215.994001,329.242001 215.878,328.982 C215.761999,328.721999 215.704,328.444001 215.704,328.148 C215.704,327.843998 215.761999,327.560001 215.878,327.296 C215.994001,327.031999 216.153999,326.800001 216.358,326.6 C216.562001,326.399999 216.795999,326.244001 217.06,326.132 C217.324001,326.019999 217.607998,325.964 217.912,325.964 C218.224002,325.964 218.517999,326.019999 218.794,326.132 C219.070001,326.244001 219.311999,326.399999 219.52,326.6 C219.728001,326.800001 219.891999,327.031999 220.012,327.296 C220.132001,327.560001 220.192,327.843998 220.192,328.148 Z M226.864,344.192 C226.271997,344.192 225.750002,344.106001 225.298,343.934 C224.845998,343.761999 224.466002,343.518002 224.158,343.202 C223.849998,342.885998 223.616001,342.504002 223.456,342.056 C223.295999,341.607998 223.216,341.108003 223.216,340.556 L223.216,334.124 L222.16,334.124 C221.967999,334.124 221.804001,334.062001 221.668,333.938 C221.531999,333.813999 221.464,333.632001 221.464,333.392 L221.464,331.94 L223.444,331.556 L224.176,328.52 C224.272,328.135998 224.543998,327.944 224.992,327.944 L226.936,327.944 L226.936,331.58 L230.02,331.58 L230.02,334.124 L226.936,334.124 L226.936,340.304 C226.936,340.592001 227.005999,340.829999 227.146,341.018 C227.286001,341.206001 227.487999,341.3 227.752,341.3 C227.888001,341.3 228.002,341.286 228.094,341.258 C228.186,341.23 228.266,341.198 228.334,341.162 C228.402,341.126 228.466,341.094 228.526,341.066 C228.586,341.038 228.656,341.024 228.736,341.024 C228.848001,341.024 228.938,341.05 229.006,341.102 C229.074,341.154 229.144,341.235999 229.216,341.348 L230.344,343.112 C229.863998,343.472002 229.324003,343.741999 228.724,343.922 C228.123997,344.102001 227.504003,344.192 226.864,344.192 Z M243.448,331.556 L236.8,347.228 C236.687999,347.476001 236.552001,347.657999 236.392,347.774 C236.231999,347.890001 235.976002,347.948 235.624,347.948 L232.84,347.948 L235.24,342.908 L230.272,331.556 L233.56,331.556 C233.848001,331.556 234.069999,331.619999 234.226,331.748 C234.382001,331.876001 234.496,332.027999 234.568,332.204 L236.608,337.568 C236.800001,338.056002 236.955999,338.555997 237.076,339.068 L237.34,338.3 C237.428,338.043999 237.52,337.792001 237.616,337.544 L239.464,332.204 C239.536,332.019999 239.663999,331.866001 239.848,331.742 C240.032001,331.617999 240.231999,331.556 240.448,331.556 L243.448,331.556 Z M253.996,329.636 L253.996,334.064 L259.972,334.064 L259.972,337.196 L253.996,337.196 L253.996,344 L249.916,344 L249.916,326.516 L261.172,326.516 L261.172,329.636 L253.996,329.636 Z M266.884,331.556 L266.884,344 L263.164,344 L263.164,331.556 L266.884,331.556 Z M267.268,328.148 C267.268,328.444001 267.208001,328.721999 267.088,328.982 C266.967999,329.242001 266.804001,329.469999 266.596,329.666 C266.387999,329.862001 266.146001,330.017999 265.87,330.134 C265.593999,330.250001 265.300002,330.308 264.988,330.308 C264.683998,330.308 264.400001,330.250001 264.136,330.134 C263.871999,330.017999 263.638001,329.862001 263.434,329.666 C263.229999,329.469999 263.070001,329.242001 262.954,328.982 C262.837999,328.721999 262.78,328.444001 262.78,328.148 C262.78,327.843998 262.837999,327.560001 262.954,327.296 C263.070001,327.031999 263.229999,326.800001 263.434,326.6 C263.638001,326.399999 263.871999,326.244001 264.136,326.132 C264.400001,326.019999 264.683998,325.964 264.988,325.964 C265.300002,325.964 265.593999,326.019999 265.87,326.132 C266.146001,326.244001 266.387999,326.399999 266.596,326.6 C266.804001,326.800001 266.967999,327.031999 267.088,327.296 C267.208001,327.560001 267.268,327.843998 267.268,328.148 Z M272.968,333.476 C273.352002,332.803997 273.793997,332.276002 274.294,331.892 C274.794003,331.507998 275.367997,331.316 276.016,331.316 C276.576003,331.316 277.031998,331.447999 277.384,331.712 L277.144,334.448 C277.104,334.624001 277.038,334.744 276.946,334.808 C276.854,334.872 276.728001,334.904 276.568,334.904 C276.504,334.904 276.420001,334.9 276.316,334.892 C276.211999,334.884 276.104001,334.874 275.992,334.862 C275.879999,334.85 275.766001,334.838 275.65,334.826 C275.533999,334.814 275.428,334.808 275.332,334.808 C274.787997,334.808 274.354002,334.951999 274.03,335.24 C273.705998,335.528001 273.432001,335.927997 273.208,336.44 L273.208,344 L269.488,344 L269.488,331.556 L271.696,331.556 C271.880001,331.556 272.033999,331.572 272.158,331.604 C272.282001,331.636 272.386,331.686 272.47,331.754 C272.554,331.822 272.618,331.911999 272.662,332.024 C272.706,332.136001 272.744,332.271999 272.776,332.432 L272.968,333.476 Z M286.552,334.28 C286.456,334.432001 286.354001,334.54 286.246,334.604 C286.137999,334.668 286.000001,334.7 285.832,334.7 C285.655999,334.7 285.480001,334.662 285.304,334.586 C285.127999,334.51 284.938001,334.428 284.734,334.34 C284.529999,334.252 284.300001,334.17 284.044,334.094 C283.787999,334.018 283.496002,333.98 283.168,333.98 C282.695998,333.98 282.334001,334.069999 282.082,334.25 C281.829999,334.430001 281.704,334.679998 281.704,335 C281.704,335.232001 281.785999,335.423999 281.95,335.576 C282.114001,335.728001 282.331999,335.861999 282.604,335.978 C282.876001,336.094001 283.183998,336.203999 283.528,336.308 C283.872002,336.412001 284.223998,336.527999 284.584,336.656 C284.944002,336.784001 285.295998,336.933999 285.64,337.106 C285.984002,337.278001 286.291999,337.489999 286.564,337.742 C286.836001,337.994001 287.053999,338.299998 287.218,338.66 C287.382001,339.020002 287.464,339.451997 287.464,339.956 C287.464,340.572003 287.352001,341.139997 287.128,341.66 C286.903999,342.180003 286.570002,342.627998 286.126,343.004 C285.681998,343.380002 285.134003,343.671999 284.482,343.88 C283.829997,344.088001 283.080004,344.192 282.232,344.192 C281.807998,344.192 281.384002,344.152 280.96,344.072 C280.535998,343.992 280.126002,343.884001 279.73,343.748 C279.333998,343.611999 278.968002,343.450001 278.632,343.262 C278.295998,343.073999 278.008001,342.872001 277.768,342.656 L278.632,341.288 C278.728,341.127999 278.849999,341.002 278.998,340.91 C279.146001,340.818 279.335999,340.772 279.568,340.772 C279.784001,340.772 279.977999,340.82 280.15,340.916 C280.322001,341.012 280.507999,341.115999 280.708,341.228 C280.908001,341.340001 281.141999,341.444 281.41,341.54 C281.678001,341.636 282.015998,341.684 282.424,341.684 C282.712001,341.684 282.955999,341.654 283.156,341.594 C283.356001,341.534 283.515999,341.452001 283.636,341.348 C283.756001,341.243999 283.844,341.128001 283.9,341 C283.956,340.871999 283.984,340.740001 283.984,340.604 C283.984,340.355999 283.900001,340.152001 283.732,339.992 C283.563999,339.831999 283.344001,339.694001 283.072,339.578 C282.799999,339.461999 282.490002,339.354 282.142,339.254 C281.793998,339.153999 281.440002,339.040001 281.08,338.912 C280.719998,338.783999 280.366002,338.630001 280.018,338.45 C279.669998,338.269999 279.360001,338.042001 279.088,337.766 C278.815999,337.489999 278.596001,337.152002 278.428,336.752 C278.259999,336.351998 278.176,335.868003 278.176,335.3 C278.176,334.771997 278.277999,334.270002 278.482,333.794 C278.686001,333.317998 278.991998,332.900002 279.4,332.54 C279.808002,332.179998 280.319997,331.894001 280.936,331.682 C281.552003,331.469999 282.271996,331.364 283.096,331.364 C283.544002,331.364 283.977998,331.404 284.398,331.484 C284.818002,331.564 285.211998,331.675999 285.58,331.82 C285.948002,331.964001 286.283998,332.133999 286.588,332.33 C286.892002,332.526001 287.159999,332.739999 287.392,332.972 L286.552,334.28 Z M293.788,344.192 C293.195997,344.192 292.674002,344.106001 292.222,343.934 C291.769998,343.761999 291.390002,343.518002 291.082,343.202 C290.773998,342.885998 290.540001,342.504002 290.38,342.056 C290.219999,341.607998 290.14,341.108003 290.14,340.556 L290.14,334.124 L289.084,334.124 C288.891999,334.124 288.728001,334.062001 288.592,333.938 C288.455999,333.813999 288.388,333.632001 288.388,333.392 L288.388,331.94 L290.368,331.556 L291.1,328.52 C291.196,328.135998 291.467998,327.944 291.916,327.944 L293.86,327.944 L293.86,331.58 L296.944,331.58 L296.944,334.124 L293.86,334.124 L293.86,340.304 C293.86,340.592001 293.929999,340.829999 294.07,341.018 C294.210001,341.206001 294.411999,341.3 294.676,341.3 C294.812001,341.3 294.926,341.286 295.018,341.258 C295.11,341.23 295.19,341.198 295.258,341.162 C295.326,341.126 295.39,341.094 295.45,341.066 C295.51,341.038 295.58,341.024 295.66,341.024 C295.772001,341.024 295.862,341.05 295.93,341.102 C295.998,341.154 296.068,341.235999 296.14,341.348 L297.268,343.112 C296.787998,343.472002 296.248003,343.741999 295.648,343.922 C295.047997,344.102001 294.428003,344.192 293.788,344.192 Z" id="Security-First" fill="#000000"></path>
                    <g id="secure-shield" transform="translate(166.000000, 138.000000)" fill-rule="nonzero">
                        <path d="M125.677087,27.801126 C105.026205,21.7315666 84.2539587,12.280701 65.6058703,0.47049934 C64.6153198,-0.156833113 63.386146,-0.156833113 62.3958886,0.47049934 C43.2098718,12.6199951 23.5600933,21.5595611 2.3229128,27.801126 C0.950975408,28.2039394 0,29.5416198 0,31.0676571 L0,65.6718812 C0,101.306566 15.3255374,124.894266 28.1824669,138.406598 C42.0237909,152.954736 58.1469867,161 64.0008794,161 C69.8541858,161 85.9773817,152.954736 99.8187057,138.406598 C112.675342,124.89458 128,101.30688 128,65.6718812 L128,31.0673426 C128,29.5416198 127.049025,28.2039394 125.677087,27.801126 Z M121.68557,65.6715667 C121.68557,98.9541476 107.391331,120.96424 95.3991911,133.56812 C81.7879891,147.87413 67.2351925,154.226067 64.0008794,154.226067 C60.7665664,154.226067 46.2128903,147.87413 32.6013952,133.56812 C20.6095484,120.963926 6.31472295,98.9541476 6.31472295,65.6715667 L6.31472295,33.6383051 C26.6235005,27.4530272 45.5368887,18.8209956 64.0014657,7.31109592 C82.0049194,18.5156623 101.861954,27.5769214 121.68557,33.6370473 L121.68557,65.6715667 Z" id="Shape-Copy" fill="url(#linearGradient-3)"></path>
                        <path d="M114,68.0522122 C114,96.5966495 101.734079,115.473362 91.4435952,126.28294 C79.7637903,138.552331 67.2760007,144 64.5006289,144 C61.7252571,144 49.2367129,138.552331 37.5566563,126.28294 C27.2664239,115.473092 15,96.5966495 15,68.0522122 L15,40.5792397 C32.4270106,35.2745046 48.6566342,27.8713381 64.501132,18 C79.9499386,27.6094724 96.9893078,35.3807611 114,40.578161 L114,68.0522122 Z" id="Path" fill="url(#linearGradient-3)"></path>
                        <path d="M84.64184,62.9141236 C85.2344744,62.3245533 86.0231787,62 86.8619485,62 C87.701184,62 88.4891898,62.3245533 89.0822899,62.9141236 C90.305981,64.131488 90.305981,66.1130931 89.0818242,67.3309207 L58.1672667,98.0858764 C57.5746323,98.6754467 56.785928,99 55.9471582,99 C55.1083884,99 54.319684,98.6754467 53.7268168,98.0858764 L38.9181758,83.3542619 C37.694019,82.1364342 37.694019,80.1548291 38.9177101,78.9374648 C39.5105773,78.3478944 40.2992817,78.0228778 41.1382844,78.0228778 C41.977287,78.0228778 42.7655256,78.3474311 43.35816,78.9370015 L54.1734465,89.6966028 C54.6440611,90.1643209 55.2816379,90.427253 55.9469253,90.427253 C56.6122127,90.427253 57.2497895,90.1645525 57.7199384,89.6966028 L84.64184,62.9141236 Z" id="Path" fill="#FFFFFF"></path>
                    </g>
                </g>
            </g>
        </g>
    </g>
</svg>