<?xml version="1.0" encoding="UTF-8"?>
<svg width="47px" height="44px" viewBox="0 0 47 44" version="1.1" xmlns="http://www.w3.org/2000/svg" xmlns:xlink="http://www.w3.org/1999/xlink">
    <g stroke="none" stroke-width="1" fill="none" fill-rule="evenodd">
        <g transform="translate(-808.000000, -2064.000000)" fill="#FFFFFF" fill-rule="nonzero">
            <g transform="translate(251.000000, 1975.000000)">
                <g transform="translate(458.000000, 20.000000)">
                    <g>
                        <path d="M143.564193,87.6582278 C142.544772,87.6538934 141.652459,88.342052 141.397611,89.3291139 L136.323687,89.3291139 L136.323687,93.5063291 L134.652801,93.5063291 L134.652801,79.5822785 L140.840649,79.5822785 C141.121117,80.6685253 142.165543,81.3767685 143.278472,81.2354079 C144.391401,81.0940474 145.225602,80.1471873 145.225602,79.0253165 C145.225602,77.9034456 144.391401,76.9565855 143.278472,76.815225 C142.165543,76.6738644 141.121117,77.3821076 140.840649,78.4683544 L134.652801,78.4683544 L134.652801,69 L109.58951,69 L109.58951,78.4683544 L105.412295,78.4683544 L105.412295,74.4916456 C106.498541,74.2111779 107.206785,73.1667517 107.065424,72.0538225 C106.924063,70.9408933 105.977203,70.1066928 104.855332,70.1066928 C103.733462,70.1066928 102.786602,70.9408933 102.645241,72.0538225 C102.50388,73.1667517 103.212124,74.2111779 104.29837,74.4916456 L104.29837,79.5822785 L109.58951,79.5822785 L109.58951,89.3291139 L103.663434,89.3291139 C103.382966,88.2428671 102.33854,87.5346239 101.225611,87.6759845 C100.112681,87.817345 99.278481,88.7642051 99.278481,89.8860759 C99.278481,91.0079468 100.112681,91.9548069 101.225611,92.0961674 C102.33854,92.237528 103.382966,91.5292848 103.663434,90.443038 L109.58951,90.443038 L109.58951,99.3544304 L106.526219,99.3544304 L106.526219,103.531646 L103.384953,103.531646 C103.104485,102.445399 102.060059,101.737156 100.94713,101.878516 C99.8342005,102.019877 99,102.966737 99,104.088608 C99,105.210478 99.8342005,106.157339 100.94713,106.298699 C102.060059,106.44006 103.104485,105.731816 103.384953,104.64557 L107.640143,104.64557 L107.640143,100.468354 L109.58951,100.468354 L109.58951,108.265823 L134.652801,108.265823 L134.652801,101.303797 L139.665459,101.303797 L139.665459,105.558987 C138.579212,105.839455 137.870969,106.883881 138.01233,107.99681 C138.15369,109.10974 139.10055,109.94394 140.222421,109.94394 C141.344292,109.94394 142.291152,109.10974 142.432513,107.99681 C142.573873,106.883881 141.86563,105.839455 140.779383,105.558987 L140.779383,100.189873 L134.652801,100.189873 L134.652801,94.6202532 L137.437611,94.6202532 L137.437611,90.443038 L141.397611,90.443038 C141.687476,91.5656002 142.789855,92.2782093 143.93245,92.0816295 C145.075046,91.8850497 145.875885,90.8449981 145.773922,89.690108 C145.671958,88.5352179 144.701278,87.6515712 143.541915,87.6582278 L143.564193,87.6582278 Z M143.007231,77.9113924 C143.622434,77.9113924 144.121155,78.4101132 144.121155,79.0253165 C144.121155,79.6405197 143.622434,80.1392405 143.007231,80.1392405 C142.392028,80.1392405 141.893307,79.6405197 141.893307,79.0253165 C141.893307,78.4101132 142.392028,77.9113924 143.007231,77.9113924 Z M103.741408,72.3417722 C103.741408,71.7265689 104.240129,71.2278481 104.855332,71.2278481 C105.470536,71.2278481 105.969257,71.7265689 105.969257,72.3417722 C105.969257,72.9569754 105.470536,73.4556962 104.855332,73.4556962 C104.240129,73.4556962 103.741408,72.9569754 103.741408,72.3417722 Z M101.51356,91 C100.898357,91 100.399636,90.5012792 100.399636,89.8860759 C100.399636,89.2708727 100.898357,88.7721519 101.51356,88.7721519 C102.128764,88.7721519 102.627484,89.2708727 102.627484,89.8860759 C102.627484,90.5012792 102.128764,91 101.51356,91 Z M101.235079,105.202532 C100.619876,105.202532 100.121155,104.703811 100.121155,104.088608 C100.121155,103.473404 100.619876,102.974684 101.235079,102.974684 C101.850283,102.974684 102.349003,103.473404 102.349003,104.088608 C102.349003,104.703811 101.850283,105.202532 101.235079,105.202532 Z M141.336345,107.708861 C141.336345,108.324064 140.837624,108.822785 140.222421,108.822785 C139.607218,108.822785 139.108497,108.324064 139.108497,107.708861 C139.108497,107.093657 139.607218,106.594937 140.222421,106.594937 C140.837624,106.594937 141.336345,107.093657 141.336345,107.708861 Z M110.703434,70.1139241 L133.538877,70.1139241 L133.538877,75.4050633 L110.703434,75.4050633 L110.703434,70.1139241 Z M133.538877,107.151899 L110.703434,107.151899 L110.703434,76.5189873 L133.538877,76.5189873 L133.538877,107.151899 Z M143.564193,91 C142.94899,91 142.450269,90.5012792 142.450269,89.8860759 C142.450269,89.2708727 142.94899,88.7721519 143.564193,88.7721519 C144.179397,88.7721519 144.678117,89.2708727 144.678117,89.8860759 C144.678117,90.5012792 144.179397,91 143.564193,91 Z M114.602168,83.4810127 L129.640143,83.4810127 L129.640143,84.5949367 L114.602168,84.5949367 L114.602168,83.4810127 Z M114.602168,87.6582278 L129.640143,87.6582278 L129.640143,88.7721519 L114.602168,88.7721519 L114.602168,87.6582278 Z M114.602168,91.835443 L129.640143,91.835443 L129.640143,92.9493671 L114.602168,92.9493671 L114.602168,91.835443 Z M114.602168,101.025316 L122.121155,101.025316 L122.121155,102.139241 L114.602168,102.139241 L114.602168,101.025316 Z M128.8047,71.5063291 L132.146472,71.5063291 L132.146472,73.1772152 L128.8047,73.1772152 L128.8047,71.5063291 Z M127.133814,95.1772152 C128.824351,95.1802805 130.194039,96.5499687 130.197105,98.2405063 C130.197105,99.9323153 128.825622,101.303797 127.133814,101.303797 C125.442005,101.303797 124.070522,99.9323153 124.070522,98.2405063 C124.070522,96.5486973 125.442005,95.1772152 127.133814,95.1772152 Z M127.133814,100.189873 C128.210419,100.189873 129.083181,99.317112 129.083181,98.2405063 C129.083181,97.1639006 128.210419,96.2911392 127.133814,96.2911392 C126.057208,96.2911392 125.184446,97.1639006 125.184446,98.2405063 C125.184446,99.317112 126.057208,100.189873 127.133814,100.189873 Z M127.362168,102 L129.333814,100.858228 L130.475586,102.835443 L129.205712,102.913418 L128.49837,103.977215 L127.362168,102 Z M123.792041,102.835443 L124.933814,100.858228 L126.911029,102 L125.769257,103.977215 L125.067484,102.913418 L123.792041,102.835443 Z M127.969257,109.379747 L132.981915,109.379747 L132.981915,110.493671 L127.969257,110.493671 L127.969257,109.379747 Z M127.969257,111.886076 L132.981915,111.886076 L132.981915,113 L127.969257,113 L127.969257,111.886076 Z" id="Combined-Shape"></path>
                    </g>
                </g>
            </g>
        </g>
    </g>
</svg>
