<?xml version="1.0" encoding="UTF-8"?>
<svg width="241px" height="198px" viewBox="0 0 241 198" version="1.1" xmlns="http://www.w3.org/2000/svg" xmlns:xlink="http://www.w3.org/1999/xlink">
    <!-- Generator: Sketch 51.2 (57519) - http://www.bohemiancoding.com/sketch -->
    <title>Group 24</title>
    <desc>Created with Sketch.</desc>
    <defs></defs>
    <g id="Page-1" stroke="none" stroke-width="1" fill="none" fill-rule="evenodd">
        <g id="Blockchain---doplnene-texty-2" transform="translate(-709.000000, -1995.000000)">
            <g id="Group-10" transform="translate(251.000000, 1975.000000)">
                <g id="Group-18" transform="translate(458.000000, 20.000000)">
                    <g id="Group-24">
                        <rect id="Rectangle-7-Copy" fill="#4D2F72" fill-rule="nonzero" x="0" y="0" width="241" height="198"></rect>
                        <path d="M45.9545,135.119 C45.9004997,135.209 45.8420003,135.2765 45.779,135.3215 C45.7159997,135.3665 45.6395004,135.389 45.5495,135.389 C45.4474995,135.389 45.3275007,135.338001 45.1895,135.236 C45.0514993,135.133999 44.879001,135.021501 44.672,134.8985 C44.464999,134.775499 44.2160015,134.663001 43.925,134.561 C43.6339985,134.458999 43.2815021,134.408 42.8675,134.408 C42.477498,134.408 42.1340015,134.460499 41.837,134.5655 C41.5399985,134.670501 41.291001,134.812999 41.09,134.993 C40.888999,135.173001 40.7375005,135.384499 40.6355,135.6275 C40.5334995,135.870501 40.4825,136.132999 40.4825,136.415 C40.4825,136.775002 40.5709991,137.073499 40.748,137.3105 C40.9250009,137.547501 41.1589985,137.749999 41.45,137.918 C41.7410015,138.086001 42.0709982,138.231499 42.44,138.3545 C42.8090018,138.477501 43.1869981,138.604999 43.574,138.737 C43.9610019,138.869001 44.3389982,139.017499 44.708,139.1825 C45.0770018,139.347501 45.4069985,139.555999 45.698,139.808 C45.9890015,140.060001 46.2229991,140.368998 46.4,140.735 C46.5770009,141.101002 46.6655,141.550997 46.6655,142.085 C46.6655,142.649003 46.569501,143.178498 46.3775,143.6735 C46.185499,144.168502 45.9050018,144.598998 45.536,144.965 C45.1669982,145.331002 44.7140027,145.618999 44.177,145.829 C43.6399973,146.039001 43.0295034,146.144 42.3455,146.144 C41.5054958,146.144 40.7435034,145.992502 40.0595,145.6895 C39.3754966,145.386498 38.7905024,144.977003 38.3045,144.461 L38.8085,143.633 C38.8565002,143.567 38.9149997,143.5115 38.984,143.4665 C39.0530003,143.4215 39.1294996,143.399 39.2135,143.399 C39.2915004,143.399 39.3799995,143.4305 39.479,143.4935 C39.5780005,143.5565 39.6904994,143.636 39.8165,143.732 C39.9425006,143.828 40.0864992,143.932999 40.2485,144.047 C40.4105008,144.161001 40.594999,144.266 40.802,144.362 C41.009001,144.458 41.2444987,144.5375 41.5085,144.6005 C41.7725013,144.6635 42.0694983,144.695 42.3995,144.695 C42.8135021,144.695 43.1824984,144.638001 43.5065,144.524 C43.8305016,144.409999 44.1049989,144.249501 44.33,144.0425 C44.5550011,143.835499 44.7274994,143.588001 44.8475,143.3 C44.9675006,143.011999 45.0275,142.691002 45.0275,142.337 C45.0275,141.946998 44.9390009,141.627501 44.762,141.3785 C44.5849991,141.129499 44.3525014,140.921001 44.0645,140.753 C43.7764986,140.584999 43.4465019,140.442501 43.0745,140.3255 C42.7024981,140.208499 42.3245019,140.088501 41.9405,139.9655 C41.5564981,139.842499 41.1785019,139.700001 40.8065,139.538 C40.4344981,139.375999 40.1045014,139.166001 39.8165,138.908 C39.5284986,138.649999 39.2960009,138.327502 39.119,137.9405 C38.9419991,137.553498 38.8535,137.075003 38.8535,136.505 C38.8535,136.048998 38.9419991,135.608002 39.119,135.182 C39.2960009,134.755998 39.5539983,134.378002 39.893,134.048 C40.2320017,133.717998 40.6489975,133.454001 41.144,133.256 C41.6390025,133.057999 42.2074968,132.959 42.8495,132.959 C43.5695036,132.959 44.224997,133.072999 44.816,133.301 C45.407003,133.529001 45.9274978,133.858998 46.3775,134.291 L45.9545,135.119 Z M48.5465,146 L48.5465,136.883 L49.5095,136.883 C49.7375011,136.883 49.8784997,136.993999 49.9325,137.216 L50.0495,138.152 C50.3855017,137.737998 50.7634979,137.399001 51.1835,137.135 C51.6035021,136.870999 52.0894972,136.739 52.6415,136.739 C53.2535031,136.739 53.7499981,136.909998 54.131,137.252 C54.5120019,137.594002 54.7864992,138.055997 54.9545,138.638 C55.0865007,138.307998 55.255999,138.023001 55.463,137.783 C55.670001,137.542999 55.9024987,137.345001 56.1605,137.189 C56.4185013,137.032999 56.6929985,136.919 56.984,136.847 C57.2750015,136.775 57.5704985,136.739 57.8705,136.739 C58.3505024,136.739 58.7779981,136.815499 59.153,136.9685 C59.5280019,137.121501 59.8459987,137.344999 60.107,137.639 C60.3680013,137.933001 60.5674993,138.294498 60.7055,138.7235 C60.8435007,139.152502 60.9125,139.642997 60.9125,140.195 L60.9125,146 L59.3015,146 L59.3015,140.195 C59.3015,139.480996 59.1455016,138.939502 58.8335,138.5705 C58.5214984,138.201498 58.0715029,138.017 57.4835,138.017 C57.2194987,138.017 56.9690012,138.0635 56.732,138.1565 C56.4949988,138.2495 56.2865009,138.385999 56.1065,138.566 C55.9264991,138.746001 55.7840005,138.972499 55.679,139.2455 C55.5739995,139.518501 55.5215,139.834998 55.5215,140.195 L55.5215,146 L53.9105,146 L53.9105,140.195 C53.9105,139.462996 53.7635015,138.917002 53.4695,138.557 C53.1754985,138.196998 52.7465028,138.017 52.1825,138.017 C51.786498,138.017 51.4205017,138.123499 51.0845,138.3365 C50.7484983,138.549501 50.4395014,138.838998 50.1575,139.205 L50.1575,146 L48.5465,146 Z M68.2925,141.896 C67.5544963,141.92 66.9260026,141.9785 66.407,142.0715 C65.8879974,142.1645 65.4650016,142.285999 65.138,142.436 C64.8109984,142.586001 64.5740007,142.762999 64.427,142.967 C64.2799993,143.171001 64.2065,143.398999 64.2065,143.651 C64.2065,143.891001 64.2454996,144.097999 64.3235,144.272 C64.4015004,144.446001 64.5079993,144.588499 64.643,144.6995 C64.7780007,144.810501 64.9369991,144.8915 65.12,144.9425 C65.3030009,144.9935 65.499499,145.019 65.7095,145.019 C65.9915014,145.019 66.2494988,144.9905 66.4835,144.9335 C66.7175012,144.8765 66.937999,144.794001 67.145,144.686 C67.352001,144.577999 67.5499991,144.449001 67.739,144.299 C67.9280009,144.148999 68.1124991,143.978001 68.2925,143.786 L68.2925,141.896 Z M63.1175,138.17 C63.6215025,137.683998 64.1644971,137.321001 64.7465,137.081 C65.3285029,136.840999 65.9734965,136.721 66.6815,136.721 C67.1915025,136.721 67.644498,136.804999 68.0405,136.973 C68.436502,137.141001 68.7694987,137.374999 69.0395,137.675 C69.3095014,137.975001 69.5134993,138.337998 69.6515,138.764 C69.7895007,139.190002 69.8585,139.657997 69.8585,140.168 L69.8585,146 L69.1475,146 C68.9914992,146 68.8715004,145.9745 68.7875,145.9235 C68.7034996,145.8725 68.6375002,145.772001 68.5895,145.622 L68.4095,144.758 C68.1694988,144.980001 67.9355011,145.176499 67.7075,145.3475 C67.4794989,145.518501 67.2395013,145.662499 66.9875,145.7795 C66.7354987,145.896501 66.4670014,145.9865 66.182,146.0495 C65.8969986,146.1125 65.5805017,146.144 65.2325,146.144 C64.8784982,146.144 64.5455016,146.0945 64.2335,145.9955 C63.9214984,145.8965 63.6500012,145.748001 63.419,145.55 C63.1879988,145.351999 63.0050007,145.101502 62.87,144.7985 C62.7349993,144.495498 62.6675,144.137002 62.6675,143.723 C62.6675,143.362998 62.766499,143.016502 62.9645,142.6835 C63.162501,142.350498 63.4834978,142.055001 63.9275,141.797 C64.3715022,141.538999 64.9504964,141.327501 65.6645,141.1625 C66.3785036,140.997499 67.2544948,140.903 68.2925,140.879 L68.2925,140.168 C68.2925,139.459996 68.1395015,138.924502 67.8335,138.5615 C67.5274985,138.198498 67.0805029,138.017 66.4925,138.017 C66.096498,138.017 65.7650013,138.0665 65.498,138.1655 C65.2309987,138.2645 65.000001,138.375499 64.805,138.4985 C64.609999,138.621501 64.4420007,138.7325 64.301,138.8315 C64.1599993,138.9305 64.0205007,138.98 63.8825,138.98 C63.7744995,138.98 63.6815004,138.9515 63.6035,138.8945 C63.5254996,138.8375 63.4595003,138.767 63.4055,138.683 L63.1175,138.17 Z M73.8185,138.71 C74.1065014,138.085997 74.4604979,137.598502 74.8805,137.2475 C75.3005021,136.896498 75.813497,136.721 76.4195,136.721 C76.611501,136.721 76.7959991,136.742 76.973,136.784 C77.1500009,136.826 77.3074993,136.892 77.4455,136.982 L77.3285,138.179 C77.2924998,138.329001 77.2025007,138.404 77.0585,138.404 C76.9744996,138.404 76.8515008,138.386 76.6895,138.35 C76.5274992,138.314 76.344501,138.296 76.1405,138.296 C75.8524986,138.296 75.5960011,138.338 75.371,138.422 C75.1459989,138.506 74.9450009,138.630499 74.768,138.7955 C74.5909991,138.960501 74.4320007,139.164499 74.291,139.4075 C74.1499993,139.650501 74.0225006,139.927998 73.9085,140.24 L73.9085,146 L72.2975,146 L72.2975,136.883 L73.2155,136.883 C73.3895009,136.883 73.5094997,136.916 73.5755,136.982 C73.6415003,137.048 73.6864999,137.161999 73.7105,137.324 L73.8185,138.71 Z M81.6485,146.144 C80.9284964,146.144 80.3750019,145.943002 79.988,145.541 C79.6009981,145.138998 79.4075,144.560004 79.4075,143.804 L79.4075,138.224 L78.3095,138.224 C78.2134995,138.224 78.1325003,138.1955 78.0665,138.1385 C78.0004997,138.0815 77.9675,137.993001 77.9675,137.873 L77.9675,137.234 L79.4615,137.045 L79.8305,134.228 C79.8485001,134.138 79.8889997,134.0645 79.952,134.0075 C80.0150003,133.9505 80.0974995,133.922 80.1995,133.922 L81.0095,133.922 L81.0095,137.063 L83.6465,137.063 L83.6465,138.224 L81.0095,138.224 L81.0095,143.696 C81.0095,144.080002 81.1024991,144.364999 81.2885,144.551 C81.4745009,144.737001 81.7144985,144.83 82.0085,144.83 C82.1765008,144.83 82.3219994,144.8075 82.445,144.7625 C82.5680006,144.7175 82.6744995,144.668 82.7645,144.614 C82.8545004,144.56 82.9309997,144.5105 82.994,144.4655 C83.0570003,144.4205 83.1124998,144.398 83.1605,144.398 C83.2445004,144.398 83.3194997,144.448999 83.3855,144.551 L83.8535,145.316 C83.5774986,145.574001 83.244502,145.776499 82.8545,145.9235 C82.4644981,146.070501 82.0625021,146.144 81.6485,146.144 Z M96.2555,138.503 C96.2074998,138.569 96.1595002,138.62 96.1115,138.656 C96.0634998,138.692 95.9975004,138.71 95.9135,138.71 C95.8234995,138.71 95.7245005,138.6725 95.6165,138.5975 C95.5084995,138.5225 95.3750008,138.44 95.216,138.35 C95.0569992,138.26 94.8620012,138.1775 94.631,138.1025 C94.3999988,138.0275 94.1165017,137.99 93.7805,137.99 C93.3304977,137.99 92.9345017,138.069499 92.5925,138.2285 C92.2504983,138.387501 91.9640012,138.616998 91.733,138.917 C91.5019988,139.217002 91.3280006,139.579998 91.211,140.006 C91.0939994,140.432002 91.0355,140.908997 91.0355,141.437 C91.0355,141.989003 91.0984994,142.479498 91.2245,142.9085 C91.3505006,143.337502 91.5289988,143.697499 91.76,143.9885 C91.9910012,144.279501 92.2699984,144.501499 92.597,144.6545 C92.9240016,144.807501 93.291498,144.884 93.6995,144.884 C94.0895019,144.884 94.4104987,144.8375 94.6625,144.7445 C94.9145013,144.6515 95.1229992,144.548001 95.288,144.434 C95.4530008,144.319999 95.5909994,144.2165 95.702,144.1235 C95.8130006,144.0305 95.9224995,143.984 96.0305,143.984 C96.1625007,143.984 96.2644996,144.034999 96.3365,144.137 L96.7865,144.722 C96.588499,144.968001 96.3635013,145.177999 96.1115,145.352 C95.8594987,145.526001 95.5880015,145.671499 95.297,145.7885 C95.0059985,145.905501 94.7015016,145.991 94.3835,146.045 C94.0654984,146.099 93.7415017,146.126 93.4115,146.126 C92.8414971,146.126 92.3120024,146.021001 91.823,145.811 C91.3339976,145.600999 90.9095018,145.296502 90.5495,144.8975 C90.1894982,144.498498 89.907501,144.008003 89.7035,143.426 C89.499499,142.843997 89.3975,142.181004 89.3975,141.437 C89.3975,140.758997 89.4919991,140.132003 89.681,139.556 C89.8700009,138.979997 90.1459982,138.483502 90.509,138.0665 C90.8720018,137.649498 91.3189973,137.324001 91.85,137.09 C92.3810027,136.855999 92.9914965,136.739 93.6815,136.739 C94.3235032,136.739 94.8889976,136.842499 95.378,137.0495 C95.8670024,137.256501 96.3004981,137.548998 96.6785,137.927 L96.2555,138.503 Z M102.1865,136.739 C102.852503,136.739 103.452497,136.849999 103.9865,137.072 C104.520503,137.294001 104.976498,137.608998 105.3545,138.017 C105.732502,138.425002 106.021999,138.918497 106.223,139.4975 C106.424001,140.076503 106.5245,140.722996 106.5245,141.437 C106.5245,142.157004 106.424001,142.804997 106.223,143.381 C106.021999,143.957003 105.732502,144.448998 105.3545,144.857 C104.976498,145.265002 104.520503,145.578499 103.9865,145.7975 C103.452497,146.016501 102.852503,146.126 102.1865,146.126 C101.514497,146.126 100.910003,146.016501 100.373,145.7975 C99.8359973,145.578499 99.3785019,145.265002 99.0005,144.857 C98.6224981,144.448998 98.333001,143.957003 98.132,143.381 C97.930999,142.804997 97.8305,142.157004 97.8305,141.437 C97.8305,140.722996 97.930999,140.076503 98.132,139.4975 C98.333001,138.918497 98.6224981,138.425002 99.0005,138.017 C99.3785019,137.608998 99.8359973,137.294001 100.373,137.072 C100.910003,136.849999 101.514497,136.739 102.1865,136.739 Z M102.1865,144.875 C103.086504,144.875 103.758498,144.573503 104.2025,143.9705 C104.646502,143.367497 104.8685,142.526005 104.8685,141.446 C104.8685,140.359995 104.646502,139.514003 104.2025,138.908 C103.758498,138.301997 103.086504,137.999 102.1865,137.999 C101.730498,137.999 101.333002,138.076999 100.994,138.233 C100.654998,138.389001 100.373001,138.613999 100.148,138.908 C99.9229989,139.202001 99.7550006,139.563498 99.644,139.9925 C99.5329994,140.421502 99.4775,140.905997 99.4775,141.446 C99.4775,142.526005 99.7009978,143.367497 100.148,143.9705 C100.595002,144.573503 101.274495,144.875 102.1865,144.875 Z M110.0615,138.206 C110.259501,137.983999 110.469499,137.783001 110.6915,137.603 C110.913501,137.422999 111.148999,137.268501 111.398,137.1395 C111.647001,137.010499 111.910999,136.9115 112.19,136.8425 C112.469001,136.7735 112.770498,136.739 113.0945,136.739 C113.592502,136.739 114.031998,136.821499 114.413,136.9865 C114.794002,137.151501 115.111999,137.385498 115.367,137.6885 C115.622001,137.991502 115.815499,138.355998 115.9475,138.782 C116.079501,139.208002 116.1455,139.678997 116.1455,140.195 L116.1455,146 L114.5345,146 L114.5345,140.195 C114.5345,139.504997 114.377002,138.969502 114.062,138.5885 C113.746998,138.207498 113.268503,138.017 112.6265,138.017 C112.152498,138.017 111.710002,138.130999 111.299,138.359 C110.887998,138.587001 110.508502,138.895998 110.1605,139.286 L110.1605,146 L108.5495,146 L108.5495,136.883 L109.5125,136.883 C109.740501,136.883 109.8815,136.993999 109.9355,137.216 L110.0615,138.206 Z M121.2665,146.144 C120.546496,146.144 119.993002,145.943002 119.606,145.541 C119.218998,145.138998 119.0255,144.560004 119.0255,143.804 L119.0255,138.224 L117.9275,138.224 C117.8315,138.224 117.7505,138.1955 117.6845,138.1385 C117.6185,138.0815 117.5855,137.993001 117.5855,137.873 L117.5855,137.234 L119.0795,137.045 L119.4485,134.228 C119.4665,134.138 119.507,134.0645 119.57,134.0075 C119.633,133.9505 119.715499,133.922 119.8175,133.922 L120.6275,133.922 L120.6275,137.063 L123.2645,137.063 L123.2645,138.224 L120.6275,138.224 L120.6275,143.696 C120.6275,144.080002 120.720499,144.364999 120.9065,144.551 C121.092501,144.737001 121.332499,144.83 121.6265,144.83 C121.794501,144.83 121.939999,144.8075 122.063,144.7625 C122.186001,144.7175 122.2925,144.668 122.3825,144.614 C122.4725,144.56 122.549,144.5105 122.612,144.4655 C122.675,144.4205 122.7305,144.398 122.7785,144.398 C122.8625,144.398 122.9375,144.448999 123.0035,144.551 L123.4715,145.316 C123.195499,145.574001 122.862502,145.776499 122.4725,145.9235 C122.082498,146.070501 121.680502,146.144 121.2665,146.144 Z M126.4415,138.71 C126.729501,138.085997 127.083498,137.598502 127.5035,137.2475 C127.923502,136.896498 128.436497,136.721 129.0425,136.721 C129.234501,136.721 129.418999,136.742 129.596,136.784 C129.773001,136.826 129.930499,136.892 130.0685,136.982 L129.9515,138.179 C129.9155,138.329001 129.825501,138.404 129.6815,138.404 C129.5975,138.404 129.474501,138.386 129.3125,138.35 C129.150499,138.314 128.967501,138.296 128.7635,138.296 C128.475499,138.296 128.219001,138.338 127.994,138.422 C127.768999,138.506 127.568001,138.630499 127.391,138.7955 C127.213999,138.960501 127.055001,139.164499 126.914,139.4075 C126.772999,139.650501 126.645501,139.927998 126.5315,140.24 L126.5315,146 L124.9205,146 L124.9205,136.883 L125.8385,136.883 C126.012501,136.883 126.1325,136.916 126.1985,136.982 C126.2645,137.048 126.3095,137.161999 126.3335,137.324 L126.4415,138.71 Z M136.2695,141.896 C135.531496,141.92 134.903003,141.9785 134.384,142.0715 C133.864997,142.1645 133.442002,142.285999 133.115,142.436 C132.787998,142.586001 132.551001,142.762999 132.404,142.967 C132.256999,143.171001 132.1835,143.398999 132.1835,143.651 C132.1835,143.891001 132.2225,144.097999 132.3005,144.272 C132.3785,144.446001 132.484999,144.588499 132.62,144.6995 C132.755001,144.810501 132.913999,144.8915 133.097,144.9425 C133.280001,144.9935 133.476499,145.019 133.6865,145.019 C133.968501,145.019 134.226499,144.9905 134.4605,144.9335 C134.694501,144.8765 134.914999,144.794001 135.122,144.686 C135.329001,144.577999 135.526999,144.449001 135.716,144.299 C135.905001,144.148999 136.089499,143.978001 136.2695,143.786 L136.2695,141.896 Z M131.0945,138.17 C131.598503,137.683998 132.141497,137.321001 132.7235,137.081 C133.305503,136.840999 133.950496,136.721 134.6585,136.721 C135.168503,136.721 135.621498,136.804999 136.0175,136.973 C136.413502,137.141001 136.746499,137.374999 137.0165,137.675 C137.286501,137.975001 137.490499,138.337998 137.6285,138.764 C137.766501,139.190002 137.8355,139.657997 137.8355,140.168 L137.8355,146 L137.1245,146 C136.968499,146 136.8485,145.9745 136.7645,145.9235 C136.6805,145.8725 136.6145,145.772001 136.5665,145.622 L136.3865,144.758 C136.146499,144.980001 135.912501,145.176499 135.6845,145.3475 C135.456499,145.518501 135.216501,145.662499 134.9645,145.7795 C134.712499,145.896501 134.444001,145.9865 134.159,146.0495 C133.873999,146.1125 133.557502,146.144 133.2095,146.144 C132.855498,146.144 132.522502,146.0945 132.2105,145.9955 C131.898498,145.8965 131.627001,145.748001 131.396,145.55 C131.164999,145.351999 130.982001,145.101502 130.847,144.7985 C130.711999,144.495498 130.6445,144.137002 130.6445,143.723 C130.6445,143.362998 130.743499,143.016502 130.9415,142.6835 C131.139501,142.350498 131.460498,142.055001 131.9045,141.797 C132.348502,141.538999 132.927496,141.327501 133.6415,141.1625 C134.355504,140.997499 135.231495,140.903 136.2695,140.879 L136.2695,140.168 C136.2695,139.459996 136.116502,138.924502 135.8105,138.5615 C135.504498,138.198498 135.057503,138.017 134.4695,138.017 C134.073498,138.017 133.742001,138.0665 133.475,138.1655 C133.207999,138.2645 132.977001,138.375499 132.782,138.4985 C132.586999,138.621501 132.419001,138.7325 132.278,138.8315 C132.136999,138.9305 131.997501,138.98 131.8595,138.98 C131.751499,138.98 131.6585,138.9515 131.5805,138.8945 C131.5025,138.8375 131.4365,138.767 131.3825,138.683 L131.0945,138.17 Z M146.6195,138.503 C146.5715,138.569 146.5235,138.62 146.4755,138.656 C146.4275,138.692 146.3615,138.71 146.2775,138.71 C146.1875,138.71 146.088501,138.6725 145.9805,138.5975 C145.872499,138.5225 145.739001,138.44 145.58,138.35 C145.420999,138.26 145.226001,138.1775 144.995,138.1025 C144.763999,138.0275 144.480502,137.99 144.1445,137.99 C143.694498,137.99 143.298502,138.069499 142.9565,138.2285 C142.614498,138.387501 142.328001,138.616998 142.097,138.917 C141.865999,139.217002 141.692001,139.579998 141.575,140.006 C141.457999,140.432002 141.3995,140.908997 141.3995,141.437 C141.3995,141.989003 141.462499,142.479498 141.5885,142.9085 C141.714501,143.337502 141.892999,143.697499 142.124,143.9885 C142.355001,144.279501 142.633998,144.501499 142.961,144.6545 C143.288002,144.807501 143.655498,144.884 144.0635,144.884 C144.453502,144.884 144.774499,144.8375 145.0265,144.7445 C145.278501,144.6515 145.486999,144.548001 145.652,144.434 C145.817001,144.319999 145.954999,144.2165 146.066,144.1235 C146.177001,144.0305 146.286499,143.984 146.3945,143.984 C146.526501,143.984 146.6285,144.034999 146.7005,144.137 L147.1505,144.722 C146.952499,144.968001 146.727501,145.177999 146.4755,145.352 C146.223499,145.526001 145.952001,145.671499 145.661,145.7885 C145.369999,145.905501 145.065502,145.991 144.7475,146.045 C144.429498,146.099 144.105502,146.126 143.7755,146.126 C143.205497,146.126 142.676002,146.021001 142.187,145.811 C141.697998,145.600999 141.273502,145.296502 140.9135,144.8975 C140.553498,144.498498 140.271501,144.008003 140.0675,143.426 C139.863499,142.843997 139.7615,142.181004 139.7615,141.437 C139.7615,140.758997 139.855999,140.132003 140.045,139.556 C140.234001,138.979997 140.509998,138.483502 140.873,138.0665 C141.236002,137.649498 141.682997,137.324001 142.214,137.09 C142.745003,136.855999 143.355497,136.739 144.0455,136.739 C144.687503,136.739 145.252998,136.842499 145.742,137.0495 C146.231002,137.256501 146.664498,137.548998 147.0425,137.927 L146.6195,138.503 Z M151.6685,146.144 C150.948496,146.144 150.395002,145.943002 150.008,145.541 C149.620998,145.138998 149.4275,144.560004 149.4275,143.804 L149.4275,138.224 L148.3295,138.224 C148.2335,138.224 148.1525,138.1955 148.0865,138.1385 C148.0205,138.0815 147.9875,137.993001 147.9875,137.873 L147.9875,137.234 L149.4815,137.045 L149.8505,134.228 C149.8685,134.138 149.909,134.0645 149.972,134.0075 C150.035,133.9505 150.117499,133.922 150.2195,133.922 L151.0295,133.922 L151.0295,137.063 L153.6665,137.063 L153.6665,138.224 L151.0295,138.224 L151.0295,143.696 C151.0295,144.080002 151.122499,144.364999 151.3085,144.551 C151.494501,144.737001 151.734499,144.83 152.0285,144.83 C152.196501,144.83 152.341999,144.8075 152.465,144.7625 C152.588001,144.7175 152.6945,144.668 152.7845,144.614 C152.8745,144.56 152.951,144.5105 153.014,144.4655 C153.077,144.4205 153.1325,144.398 153.1805,144.398 C153.2645,144.398 153.3395,144.448999 153.4055,144.551 L153.8735,145.316 C153.597499,145.574001 153.264502,145.776499 152.8745,145.9235 C152.484498,146.070501 152.082502,146.144 151.6685,146.144 Z M160.6325,138.386 C160.5605,138.518001 160.449501,138.584 160.2995,138.584 C160.2095,138.584 160.107501,138.551 159.9935,138.485 C159.879499,138.419 159.740001,138.3455 159.575,138.2645 C159.409999,138.1835 159.213501,138.1085 158.9855,138.0395 C158.757499,137.9705 158.487502,137.936 158.1755,137.936 C157.905499,137.936 157.662501,137.9705 157.4465,138.0395 C157.230499,138.1085 157.046001,138.202999 156.893,138.323 C156.739999,138.443001 156.623,138.582499 156.542,138.7415 C156.461,138.900501 156.4205,139.072999 156.4205,139.259 C156.4205,139.493001 156.487999,139.687999 156.623,139.844 C156.758001,140.000001 156.936499,140.134999 157.1585,140.249 C157.380501,140.363001 157.632499,140.4635 157.9145,140.5505 C158.196501,140.6375 158.485999,140.7305 158.783,140.8295 C159.080001,140.9285 159.369499,141.037999 159.6515,141.158 C159.933501,141.278001 160.185499,141.427999 160.4075,141.608 C160.629501,141.788001 160.807999,142.008499 160.943,142.2695 C161.078001,142.530501 161.1455,142.843998 161.1455,143.21 C161.1455,143.630002 161.070501,144.018498 160.9205,144.3755 C160.770499,144.732502 160.548501,145.041499 160.2545,145.3025 C159.960499,145.563501 159.600502,145.768999 159.1745,145.919 C158.748498,146.069001 158.256503,146.144 157.6985,146.144 C157.062497,146.144 156.486503,146.040501 155.9705,145.8335 C155.454497,145.626499 155.016502,145.361002 154.6565,145.037 L155.0345,144.425 C155.0825,144.347 155.1395,144.287 155.2055,144.245 C155.2715,144.203 155.355499,144.182 155.4575,144.182 C155.565501,144.182 155.679499,144.224 155.7995,144.308 C155.919501,144.392 156.064999,144.484999 156.236,144.587 C156.407001,144.689001 156.615499,144.782 156.8615,144.866 C157.107501,144.95 157.413498,144.992 157.7795,144.992 C158.091502,144.992 158.364499,144.9515 158.5985,144.8705 C158.832501,144.7895 159.027499,144.680001 159.1835,144.542 C159.339501,144.403999 159.455,144.245001 159.53,144.065 C159.605,143.884999 159.6425,143.693001 159.6425,143.489 C159.6425,143.236999 159.575001,143.028501 159.44,142.8635 C159.304999,142.698499 159.126501,142.557501 158.9045,142.4405 C158.682499,142.323499 158.429001,142.2215 158.144,142.1345 C157.858999,142.0475 157.568001,141.956 157.271,141.86 C156.973999,141.764 156.683001,141.654501 156.398,141.5315 C156.112999,141.408499 155.859501,141.254001 155.6375,141.068 C155.415499,140.881999 155.237001,140.652501 155.102,140.3795 C154.966999,140.106499 154.8995,139.775002 154.8995,139.385 C154.8995,139.036998 154.971499,138.702502 155.1155,138.3815 C155.259501,138.060498 155.469499,137.778501 155.7455,137.5355 C156.021501,137.292499 156.360498,137.099001 156.7625,136.955 C157.164502,136.810999 157.623497,136.739 158.1395,136.739 C158.739503,136.739 159.277998,136.833499 159.755,137.0225 C160.232002,137.211501 160.644498,137.470998 160.9925,137.801 L160.6325,138.386 Z M172.6655,141.896 C171.927496,141.92 171.299003,141.9785 170.78,142.0715 C170.260997,142.1645 169.838002,142.285999 169.511,142.436 C169.183998,142.586001 168.947001,142.762999 168.8,142.967 C168.652999,143.171001 168.5795,143.398999 168.5795,143.651 C168.5795,143.891001 168.6185,144.097999 168.6965,144.272 C168.7745,144.446001 168.880999,144.588499 169.016,144.6995 C169.151001,144.810501 169.309999,144.8915 169.493,144.9425 C169.676001,144.9935 169.872499,145.019 170.0825,145.019 C170.364501,145.019 170.622499,144.9905 170.8565,144.9335 C171.090501,144.8765 171.310999,144.794001 171.518,144.686 C171.725001,144.577999 171.922999,144.449001 172.112,144.299 C172.301001,144.148999 172.485499,143.978001 172.6655,143.786 L172.6655,141.896 Z M167.4905,138.17 C167.994503,137.683998 168.537497,137.321001 169.1195,137.081 C169.701503,136.840999 170.346496,136.721 171.0545,136.721 C171.564503,136.721 172.017498,136.804999 172.4135,136.973 C172.809502,137.141001 173.142499,137.374999 173.4125,137.675 C173.682501,137.975001 173.886499,138.337998 174.0245,138.764 C174.162501,139.190002 174.2315,139.657997 174.2315,140.168 L174.2315,146 L173.5205,146 C173.364499,146 173.2445,145.9745 173.1605,145.9235 C173.0765,145.8725 173.0105,145.772001 172.9625,145.622 L172.7825,144.758 C172.542499,144.980001 172.308501,145.176499 172.0805,145.3475 C171.852499,145.518501 171.612501,145.662499 171.3605,145.7795 C171.108499,145.896501 170.840001,145.9865 170.555,146.0495 C170.269999,146.1125 169.953502,146.144 169.6055,146.144 C169.251498,146.144 168.918502,146.0945 168.6065,145.9955 C168.294498,145.8965 168.023001,145.748001 167.792,145.55 C167.560999,145.351999 167.378001,145.101502 167.243,144.7985 C167.107999,144.495498 167.0405,144.137002 167.0405,143.723 C167.0405,143.362998 167.139499,143.016502 167.3375,142.6835 C167.535501,142.350498 167.856498,142.055001 168.3005,141.797 C168.744502,141.538999 169.323496,141.327501 170.0375,141.1625 C170.751504,140.997499 171.627495,140.903 172.6655,140.879 L172.6655,140.168 C172.6655,139.459996 172.512502,138.924502 172.2065,138.5615 C171.900498,138.198498 171.453503,138.017 170.8655,138.017 C170.469498,138.017 170.138001,138.0665 169.871,138.1655 C169.603999,138.2645 169.373001,138.375499 169.178,138.4985 C168.982999,138.621501 168.815001,138.7325 168.674,138.8315 C168.532999,138.9305 168.393501,138.98 168.2555,138.98 C168.147499,138.98 168.0545,138.9515 167.9765,138.8945 C167.8985,138.8375 167.8325,138.767 167.7785,138.683 L167.4905,138.17 Z M184.1675,136.883 L184.1675,146 L183.2135,146 C182.985499,146 182.8415,145.889001 182.7815,145.667 L182.6555,144.686 C182.259498,145.124002 181.815502,145.476499 181.3235,145.7435 C180.831498,146.010501 180.267503,146.144 179.6315,146.144 C179.133498,146.144 178.694002,146.061501 178.313,145.8965 C177.931998,145.731499 177.612501,145.499001 177.3545,145.199 C177.096499,144.898999 176.903001,144.536002 176.774,144.11 C176.644999,143.683998 176.5805,143.213003 176.5805,142.697 L176.5805,136.883 L178.1825,136.883 L178.1825,142.697 C178.1825,143.387003 178.339998,143.920998 178.655,144.299 C178.970002,144.677002 179.451497,144.866 180.0995,144.866 C180.573502,144.866 181.015998,144.753501 181.427,144.5285 C181.838002,144.303499 182.217498,143.993002 182.5655,143.597 L182.5655,136.883 L184.1675,136.883 Z M192.6455,139.052 C192.345499,138.649998 192.021502,138.369501 191.6735,138.2105 C191.325498,138.051499 190.935502,137.972 190.5035,137.972 C189.657496,137.972 189.006502,138.274997 188.5505,138.881 C188.094498,139.487003 187.8665,140.350994 187.8665,141.473 C187.8665,142.067003 187.917499,142.575498 188.0195,142.9985 C188.121501,143.421502 188.271499,143.769499 188.4695,144.0425 C188.667501,144.315501 188.910499,144.514999 189.1985,144.641 C189.486501,144.767001 189.813498,144.83 190.1795,144.83 C190.707503,144.83 191.167998,144.710001 191.561,144.47 C191.954002,144.229999 192.315498,143.891002 192.6455,143.453 L192.6455,139.052 Z M194.2475,132.743 L194.2475,146 L193.2935,146 C193.065499,146 192.9215,145.889001 192.8615,145.667 L192.7175,144.56 C192.327498,145.028002 191.883502,145.405999 191.3855,145.694 C190.887498,145.982001 190.311503,146.126 189.6575,146.126 C189.135497,146.126 188.661502,146.025501 188.2355,145.8245 C187.809498,145.623499 187.446502,145.328002 187.1465,144.938 C186.846498,144.547998 186.615501,144.062003 186.4535,143.48 C186.291499,142.897997 186.2105,142.229004 186.2105,141.473 C186.2105,140.800997 186.300499,140.175503 186.4805,139.5965 C186.660501,139.017497 186.918498,138.515002 187.2545,138.089 C187.590502,137.662998 188.002998,137.328501 188.492,137.0855 C188.981002,136.842499 189.531497,136.721 190.1435,136.721 C190.701503,136.721 191.179998,136.815499 191.579,137.0045 C191.978002,137.193501 192.333498,137.455998 192.6455,137.792 L192.6455,132.743 L194.2475,132.743 Z M198.4775,136.883 L198.4775,146 L196.8755,146 L196.8755,136.883 L198.4775,136.883 Z M198.8195,134.021 C198.8195,134.177001 198.788,134.322499 198.725,134.4575 C198.662,134.592501 198.578001,134.712499 198.473,134.8175 C198.367999,134.922501 198.245001,135.005 198.104,135.065 C197.962999,135.125 197.814501,135.155 197.6585,135.155 C197.502499,135.155 197.357001,135.125 197.222,135.065 C197.086999,135.005 196.968501,134.922501 196.8665,134.8175 C196.764499,134.712499 196.6835,134.592501 196.6235,134.4575 C196.5635,134.322499 196.5335,134.177001 196.5335,134.021 C196.5335,133.864999 196.5635,133.716501 196.6235,133.5755 C196.6835,133.434499 196.764499,133.311501 196.8665,133.2065 C196.968501,133.101499 197.086999,133.019 197.222,132.959 C197.357001,132.899 197.502499,132.869 197.6585,132.869 C197.814501,132.869 197.962999,132.899 198.104,132.959 C198.245001,133.019 198.367999,133.101499 198.473,133.2065 C198.578001,133.311501 198.662,133.434499 198.725,133.5755 C198.788,133.716501 198.8195,133.864999 198.8195,134.021 Z M203.9045,146.144 C203.184496,146.144 202.631002,145.943002 202.244,145.541 C201.856998,145.138998 201.6635,144.560004 201.6635,143.804 L201.6635,138.224 L200.5655,138.224 C200.4695,138.224 200.3885,138.1955 200.3225,138.1385 C200.2565,138.0815 200.2235,137.993001 200.2235,137.873 L200.2235,137.234 L201.7175,137.045 L202.0865,134.228 C202.1045,134.138 202.145,134.0645 202.208,134.0075 C202.271,133.9505 202.353499,133.922 202.4555,133.922 L203.2655,133.922 L203.2655,137.063 L205.9025,137.063 L205.9025,138.224 L203.2655,138.224 L203.2655,143.696 C203.2655,144.080002 203.358499,144.364999 203.5445,144.551 C203.730501,144.737001 203.970499,144.83 204.2645,144.83 C204.432501,144.83 204.577999,144.8075 204.701,144.7625 C204.824001,144.7175 204.9305,144.668 205.0205,144.614 C205.1105,144.56 205.187,144.5105 205.25,144.4655 C205.313,144.4205 205.3685,144.398 205.4165,144.398 C205.5005,144.398 205.5755,144.448999 205.6415,144.551 L206.1095,145.316 C205.833499,145.574001 205.500502,145.776499 205.1105,145.9235 C204.720498,146.070501 204.318502,146.144 203.9045,146.144 Z" id="Smart-contracts-audi" fill="#FFFFFF"></path>
                        <path d="M143.564193,87.6582278 C142.544772,87.6538934 141.652459,88.342052 141.397611,89.3291139 L136.323687,89.3291139 L136.323687,93.5063291 L134.652801,93.5063291 L134.652801,79.5822785 L140.840649,79.5822785 C141.121117,80.6685253 142.165543,81.3767685 143.278472,81.2354079 C144.391401,81.0940474 145.225602,80.1471873 145.225602,79.0253165 C145.225602,77.9034456 144.391401,76.9565855 143.278472,76.815225 C142.165543,76.6738644 141.121117,77.3821076 140.840649,78.4683544 L134.652801,78.4683544 L134.652801,69 L109.58951,69 L109.58951,78.4683544 L105.412295,78.4683544 L105.412295,74.4916456 C106.498541,74.2111779 107.206785,73.1667517 107.065424,72.0538225 C106.924063,70.9408933 105.977203,70.1066928 104.855332,70.1066928 C103.733462,70.1066928 102.786602,70.9408933 102.645241,72.0538225 C102.50388,73.1667517 103.212124,74.2111779 104.29837,74.4916456 L104.29837,79.5822785 L109.58951,79.5822785 L109.58951,89.3291139 L103.663434,89.3291139 C103.382966,88.2428671 102.33854,87.5346239 101.225611,87.6759845 C100.112681,87.817345 99.278481,88.7642051 99.278481,89.8860759 C99.278481,91.0079468 100.112681,91.9548069 101.225611,92.0961674 C102.33854,92.237528 103.382966,91.5292848 103.663434,90.443038 L109.58951,90.443038 L109.58951,99.3544304 L106.526219,99.3544304 L106.526219,103.531646 L103.384953,103.531646 C103.104485,102.445399 102.060059,101.737156 100.94713,101.878516 C99.8342005,102.019877 99,102.966737 99,104.088608 C99,105.210478 99.8342005,106.157339 100.94713,106.298699 C102.060059,106.44006 103.104485,105.731816 103.384953,104.64557 L107.640143,104.64557 L107.640143,100.468354 L109.58951,100.468354 L109.58951,108.265823 L134.652801,108.265823 L134.652801,101.303797 L139.665459,101.303797 L139.665459,105.558987 C138.579212,105.839455 137.870969,106.883881 138.01233,107.99681 C138.15369,109.10974 139.10055,109.94394 140.222421,109.94394 C141.344292,109.94394 142.291152,109.10974 142.432513,107.99681 C142.573873,106.883881 141.86563,105.839455 140.779383,105.558987 L140.779383,100.189873 L134.652801,100.189873 L134.652801,94.6202532 L137.437611,94.6202532 L137.437611,90.443038 L141.397611,90.443038 C141.687476,91.5656002 142.789855,92.2782093 143.93245,92.0816295 C145.075046,91.8850497 145.875885,90.8449981 145.773922,89.690108 C145.671958,88.5352179 144.701278,87.6515712 143.541915,87.6582278 L143.564193,87.6582278 Z M143.007231,77.9113924 C143.622434,77.9113924 144.121155,78.4101132 144.121155,79.0253165 C144.121155,79.6405197 143.622434,80.1392405 143.007231,80.1392405 C142.392028,80.1392405 141.893307,79.6405197 141.893307,79.0253165 C141.893307,78.4101132 142.392028,77.9113924 143.007231,77.9113924 Z M103.741408,72.3417722 C103.741408,71.7265689 104.240129,71.2278481 104.855332,71.2278481 C105.470536,71.2278481 105.969257,71.7265689 105.969257,72.3417722 C105.969257,72.9569754 105.470536,73.4556962 104.855332,73.4556962 C104.240129,73.4556962 103.741408,72.9569754 103.741408,72.3417722 Z M101.51356,91 C100.898357,91 100.399636,90.5012792 100.399636,89.8860759 C100.399636,89.2708727 100.898357,88.7721519 101.51356,88.7721519 C102.128764,88.7721519 102.627484,89.2708727 102.627484,89.8860759 C102.627484,90.5012792 102.128764,91 101.51356,91 Z M101.235079,105.202532 C100.619876,105.202532 100.121155,104.703811 100.121155,104.088608 C100.121155,103.473404 100.619876,102.974684 101.235079,102.974684 C101.850283,102.974684 102.349003,103.473404 102.349003,104.088608 C102.349003,104.703811 101.850283,105.202532 101.235079,105.202532 Z M141.336345,107.708861 C141.336345,108.324064 140.837624,108.822785 140.222421,108.822785 C139.607218,108.822785 139.108497,108.324064 139.108497,107.708861 C139.108497,107.093657 139.607218,106.594937 140.222421,106.594937 C140.837624,106.594937 141.336345,107.093657 141.336345,107.708861 Z M110.703434,70.1139241 L133.538877,70.1139241 L133.538877,75.4050633 L110.703434,75.4050633 L110.703434,70.1139241 Z M133.538877,107.151899 L110.703434,107.151899 L110.703434,76.5189873 L133.538877,76.5189873 L133.538877,107.151899 Z M143.564193,91 C142.94899,91 142.450269,90.5012792 142.450269,89.8860759 C142.450269,89.2708727 142.94899,88.7721519 143.564193,88.7721519 C144.179397,88.7721519 144.678117,89.2708727 144.678117,89.8860759 C144.678117,90.5012792 144.179397,91 143.564193,91 Z M114.602168,83.4810127 L129.640143,83.4810127 L129.640143,84.5949367 L114.602168,84.5949367 L114.602168,83.4810127 Z M114.602168,87.6582278 L129.640143,87.6582278 L129.640143,88.7721519 L114.602168,88.7721519 L114.602168,87.6582278 Z M114.602168,91.835443 L129.640143,91.835443 L129.640143,92.9493671 L114.602168,92.9493671 L114.602168,91.835443 Z M114.602168,101.025316 L122.121155,101.025316 L122.121155,102.139241 L114.602168,102.139241 L114.602168,101.025316 Z M128.8047,71.5063291 L132.146472,71.5063291 L132.146472,73.1772152 L128.8047,73.1772152 L128.8047,71.5063291 Z M127.133814,95.1772152 C128.824351,95.1802805 130.194039,96.5499687 130.197105,98.2405063 C130.197105,99.9323153 128.825622,101.303797 127.133814,101.303797 C125.442005,101.303797 124.070522,99.9323153 124.070522,98.2405063 C124.070522,96.5486973 125.442005,95.1772152 127.133814,95.1772152 Z M127.133814,100.189873 C128.210419,100.189873 129.083181,99.317112 129.083181,98.2405063 C129.083181,97.1639006 128.210419,96.2911392 127.133814,96.2911392 C126.057208,96.2911392 125.184446,97.1639006 125.184446,98.2405063 C125.184446,99.317112 126.057208,100.189873 127.133814,100.189873 Z M127.362168,102 L129.333814,100.858228 L130.475586,102.835443 L129.205712,102.913418 L128.49837,103.977215 L127.362168,102 Z M123.792041,102.835443 L124.933814,100.858228 L126.911029,102 L125.769257,103.977215 L125.067484,102.913418 L123.792041,102.835443 Z M127.969257,109.379747 L132.981915,109.379747 L132.981915,110.493671 L127.969257,110.493671 L127.969257,109.379747 Z M127.969257,111.886076 L132.981915,111.886076 L132.981915,113 L127.969257,113 L127.969257,111.886076 Z" id="Combined-Shape" fill="#FFFFFF" fill-rule="nonzero"></path>
                    </g>
                </g>
            </g>
        </g>
    </g>
</svg>