<?xml version="1.0" encoding="UTF-8"?>
<svg width="12px" height="9px" viewBox="0 0 12 9" version="1.1" xmlns="http://www.w3.org/2000/svg" xmlns:xlink="http://www.w3.org/1999/xlink">
    <!-- Generator: Sketch 51 (57462) - http://www.bohemiancoding.com/sketch -->
    <title>Shape Copy 4</title>
    <desc>Created with Sketch.</desc>
    <defs></defs>
    <g stroke="none" stroke-width="1" fill="none" fill-rule="evenodd">
        <g transform="translate(-567.000000, -1380.000000)">
            <g id="box-copy" transform="translate(551.000000, 1143.000000)" fill="#FFFFFF" fill-rule="nonzero">
                <path d="M27.7121959,237.000295 C27.641021,237.003106 27.5737755,237.033672 27.5248579,237.085448 C24.6790075,239.937454 22.6009921,242.256159 19.8014244,245.07285 L16.454887,242.24575 C16.3804431,242.181142 16.2770957,242.161358 16.1840539,242.193906 C16.091012,242.226453 16.0225319,242.306344 16.0045944,242.403268 C15.9866568,242.500193 16.0220102,242.5993 16.0972418,242.662989 L19.6396325,245.660396 C19.7491549,245.755269 19.9137689,245.747847 20.0143084,245.643502 C22.9265214,242.725035 25.0156327,240.375975 27.9165646,237.468762 C27.9986099,237.389706 28.0228142,237.267953 27.9772451,237.163526 C27.9316759,237.0591 27.8259527,236.994044 27.7121959,237.000431 L27.7121959,237.000295 Z" id="Shape-Copy-4"></path>
            </g>
        </g>
    </g>
</svg>
