<svg width="32" height="45" viewBox="0 0 32 45" fill="none" xmlns="http://www.w3.org/2000/svg">
 <title>Value - Freedom Icon</title>
  <path fill-rule="evenodd" clip-rule="evenodd"
        d="M27.3163 41.765H9.59167V41.6257C9.59167 36.9053 9.59139 35.5574 9.59354 30.8368C9.59368 30.7434 9.56656 30.6716 9.50571 30.5976C6.64328 27.1155 3.78272 23.6321 0.921731 20.1491C0.566691 19.7167 0.253267 19.2659 0.114494 18.7284C-0.0869921 17.9488 -0.0290145 17.1919 0.339947 16.4629C1.54499 14.0824 2.75348 11.7033 3.9591 9.32299C4.02497 9.1929 4.0696 9.05344 4.13647 8.92362C4.73275 7.76639 5.71737 7.08401 7.09677 6.89244C7.26109 6.86975 7.42986 6.86724 7.59647 6.86724C11.3059 6.86579 15.0153 6.86619 18.7247 6.86619H18.8579C18.8206 7.03955 18.7969 7.20355 18.7495 7.36148C18.3632 8.64998 17.5322 9.63515 16.3125 10.3481C15.5072 10.8188 14.6189 11.0867 13.6825 11.2309C13.0311 11.3312 12.3737 11.3453 11.7157 11.3495C11.6413 11.3501 11.6012 11.3681 11.5679 11.432C10.5929 13.3034 9.61578 15.1737 8.6392 17.0444C8.87255 17.1626 9.13775 17.1949 9.4031 17.2248C10.2386 17.3193 11.0464 17.5181 11.8369 17.7781C12.9844 18.1554 14.0478 18.6731 14.988 19.3934C15.9748 20.1492 16.7005 21.0758 17.1672 22.1768C17.4066 22.7413 17.6216 23.3114 17.7055 23.9147C17.744 24.1906 17.7698 24.4702 17.771 24.748C17.7771 26.2777 17.7738 27.8073 17.7738 29.3369V29.4648H19.125C19.1334 27.7526 19.1383 26.1102 19.1291 24.4678C19.1248 23.7152 18.9848 22.9782 18.7546 22.2561C19.7941 22.5552 20.8073 22.43 21.7984 21.9957C21.8367 22.1526 21.868 22.3112 21.9146 22.466C22.2946 23.7274 23.5607 24.6243 24.9751 24.5997C26.1836 24.5788 27.1241 24.0827 27.7428 23.1243C27.9918 22.7385 28.1753 22.3166 28.3817 21.908C28.7772 21.1246 29.1677 20.339 29.5602 19.5542C29.1954 19.2802 28.7884 19.1076 28.3727 18.9313C28.3517 18.9714 28.3339 19.0041 28.3173 19.0373C27.7566 20.1505 27.1963 21.264 26.6356 22.3771C26.2985 23.0464 25.4561 23.4465 24.6542 23.3186C23.845 23.1896 23.2332 22.5734 23.1558 21.8193C23.1225 21.4949 23.1876 21.191 23.3354 20.8977C24.4524 18.6798 25.5718 16.4629 26.6823 14.2423C26.8383 13.9304 26.994 13.6245 27.244 13.3649C28.5928 11.9642 31.0744 12.3688 31.804 14.1147C31.9295 14.4155 31.999 14.7351 31.9991 15.0609C32.0004 18.4273 31.9997 21.7937 32 25.1602C32 25.579 31.8816 25.9661 31.6764 26.3404C31.1984 27.2124 30.7347 28.0909 30.2664 28.9673C29.2995 30.7762 28.3331 32.5854 27.3688 34.3957C27.3374 34.4545 27.3192 34.526 27.3192 34.5916C27.3164 38.0612 27.3164 41.5306 27.3163 45V41.765ZM20.1537 21.1459C18.3734 21.1443 17.1348 19.9167 17.2516 18.465C17.2775 18.143 17.368 17.8342 17.5135 17.5428C19.3093 13.9448 21.1062 10.3476 22.9075 6.75216C23.3305 5.90803 24.048 5.39849 25.0497 5.25705C26.404 5.066 27.7241 5.90183 28.0503 7.13188C28.2082 7.72705 28.1287 8.30071 27.8567 8.84653C26.2186 12.1356 24.5727 15.4212 22.9276 18.7074C22.7299 19.1024 22.5493 19.5076 22.3133 19.8827C21.7935 20.7086 20.9839 21.1073 20.1537 21.1459ZM10.6147 16.1582C10.8272 15.7508 11.0343 15.3532 11.2421 14.9556C11.6385 14.1969 12.0361 13.4385 12.4304 12.6785C12.4611 12.6197 12.4968 12.5967 12.5673 12.5941C13.394 12.5639 14.2089 12.4594 15.0051 12.2476C16.6234 11.8171 17.9721 11.0196 18.9771 9.76259C19.5533 9.04208 19.9646 8.25033 20.1424 7.36516C20.2166 6.99613 20.2418 6.62645 20.1391 6.2561C20.0685 6.00199 19.9103 5.80408 19.6988 5.63824C19.6701 5.61581 19.6179 5.61132 19.5765 5.61119C18.4207 5.60974 17.2649 5.61013 16.1091 5.61013H15.9763C16.0408 5.48083 16.0986 5.36486 16.1564 5.24889C16.3496 4.86218 16.5417 4.47495 16.7363 4.08876C17.2151 3.13855 18.2651 2.56027 19.4012 2.61951C20.6339 2.68377 21.6957 3.56458 21.8939 4.6842C21.9886 5.2192 21.915 5.73165 21.6689 6.22404C19.6744 10.2136 17.6803 14.2033 15.686 18.193C15.6719 18.2212 15.6566 18.2491 15.6342 18.2918C14.8923 17.765 14.0932 17.335 13.2451 16.9814C12.3999 16.6287 11.524 16.3587 10.6147 16.1582ZM8.48176 5.60496C8.49683 5.57079 8.50817 5.54216 8.52195 5.51458C9.18883 4.17793 9.84955 2.8385 10.5253 1.50554C10.9468 0.674201 11.6595 0.171388 12.6483 0.0285005C13.9971 -0.166371 15.3211 0.658237 15.6515 1.88525C15.8105 2.47501 15.7495 3.04788 15.4764 3.60017C15.1568 4.24693 14.8319 4.89131 14.5119 5.5378C14.4855 5.59097 14.456 5.6109 14.3913 5.6109C12.4483 5.60931 10.5052 5.60958 8.56213 5.60944C8.53888 5.60944 8.51549 5.60694 8.48176 5.60496Z"
        fill="url(#paint0_linear)"/>
  <defs>
    <linearGradient id="paint0_linear" x1="16" y1="0" x2="16" y2="45" gradientUnits="userSpaceOnUse">
      <stop stop-color="#7E50D3"/>
      <stop offset="1" stop-color="#7E50D3"/>
    </linearGradient>
  </defs>
</svg>
