<?xml version="1.0" encoding="UTF-8"?>
<svg width="82px" height="82px" viewBox="0 0 82 82" version="1.1" xmlns="http://www.w3.org/2000/svg" xmlns:xlink="http://www.w3.org/1999/xlink">
    <!-- Generator: Sketch 51.2 (57519) - http://www.bohemiancoding.com/sketch -->
    <title>noun_1417835_cc</title>
    <desc>Created with Sketch.</desc>
    <defs>
        <linearGradient x1="0%" y1="0%" x2="101.999998%" y2="100.999999%" id="linearGradient-1">
            <stop stop-color="#3023AE" offset="0%"></stop>
            <stop stop-color="#C86DD7" offset="100%"></stop>
        </linearGradient>
    </defs>
    <g id="Page-1" stroke="none" stroke-width="1" fill="none" fill-rule="evenodd">
        <g id="Blockchain---doplnene-texty-2" transform="translate(-359.000000, -2735.000000)" fill-rule="nonzero">
            <g id="content-2" transform="translate(0.000000, 2552.000000)">
                <g id="box-1" transform="translate(250.000000, 129.000000)">
                    <g id="Group" transform="translate(63.000000, 28.000000)">
                        <g id="noun_1417835_cc" transform="translate(46.000000, 26.000000)">
                            <g id="Group" transform="translate(25.000000, 19.000000)" fill="#FFFFFF">
                                <path d="M16,43.383 C11.838,43.383 8.453,39.998 8.453,35.837 C8.453,29.666 6.616,27.539 4.67,25.288 C2.819,23.146 0.906,20.931 0.906,15.712 C0.906,7.39 7.677,0.618 16,0.618 C24.323,0.618 31.094,6.907 31.094,15.712 L28.578,15.712 C28.578,8.165 22.935,3.134 16,3.134 C9.065,3.134 3.422,8.777 3.422,15.713 C3.422,19.996 4.883,21.687 6.574,23.645 C8.634,26.028 10.969,28.731 10.969,35.838 C10.969,38.612 13.226,40.869 16,40.869 C18.774,40.869 21.031,38.353 21.031,35.838 L23.547,35.838 C23.547,39.609 20.162,43.383 16,43.383 Z" id="Shape"></path>
                                <path d="M18.516,33.32 C15.742,33.32 13.485,30.804 13.485,28.289 L16,28.289 C16,29.547 17.128,30.805 18.516,30.805 C19.904,30.805 21.032,29.677 21.032,28.289 C21.032,26.901 19.904,25.773 18.516,25.773 L16,25.773 C10.452,25.773 5.937,21.259 5.937,15.71 C5.937,10.161 10.452,5.648 16,5.648 C21.548,5.648 26.063,10.679 26.063,15.711 L23.547,15.711 C23.547,11.938 20.162,8.164 16,8.164 C11.838,8.164 8.453,11.55 8.453,15.711 C8.453,19.873 11.838,23.258 16,23.258 L18.516,23.258 C21.29,23.258 23.547,25.515 23.547,28.289 C23.547,31.064 21.29,33.32 18.516,33.32 Z" id="Shape"></path>
                            </g>
                            <path d="M17.102,27.164 L19.618,27.164 L19.618,29.68 L17.102,29.68 L17.102,27.164 Z M10.813,23.391 L13.329,23.391 L13.329,25.907 L10.813,25.907 L10.813,23.391 Z M4.523,19.617 L7.039,19.617 L7.039,22.133 L4.523,22.133 L4.523,19.617 Z M27.164,17.102 L29.68,17.102 L29.68,19.618 L27.164,19.618 L27.164,17.102 Z M23.391,10.813 L25.907,10.813 L25.907,13.329 L23.391,13.329 L23.391,10.813 Z M19.617,4.523 L22.133,4.523 L22.133,7.039 L19.617,7.039 L19.617,4.523 Z M39.742,7.039 L42.258,7.039 L42.258,9.555 L39.742,9.555 L39.742,7.039 Z M39.742,13.328 L42.258,13.328 L42.258,15.844 L39.742,15.844 L39.742,13.328 Z M39.742,0.75 L42.258,0.75 L42.258,3.266 L39.742,3.266 L39.742,0.75 Z M62.383,27.164 L64.899,27.164 L64.899,29.68 L62.383,29.68 L62.383,27.164 Z M68.672,23.391 L71.188,23.391 L71.188,25.907 L68.672,25.907 L68.672,23.391 Z M74.961,19.617 L77.477,19.617 L77.477,22.133 L74.961,22.133 L74.961,19.617 Z M52.32,17.102 L54.836,17.102 L54.836,19.618 L52.32,19.618 L52.32,17.102 Z M56.094,10.813 L58.61,10.813 L58.61,13.329 L56.094,13.329 L56.094,10.813 Z M59.867,4.523 L62.383,4.523 L62.383,7.039 L59.867,7.039 L59.867,4.523 Z M7.039,39.742 L9.555,39.742 L9.555,42.258 L7.039,42.258 L7.039,39.742 Z M13.328,39.742 L15.844,39.742 L15.844,42.258 L13.328,42.258 L13.328,39.742 Z M0.75,39.742 L3.266,39.742 L3.266,42.258 L0.75,42.258 L0.75,39.742 Z M17.102,52.32 L19.618,52.32 L19.618,54.836 L17.102,54.836 L17.102,52.32 Z M10.813,56.094 L13.329,56.094 L13.329,58.61 L10.813,58.61 L10.813,56.094 Z M4.523,59.867 L7.039,59.867 L7.039,62.383 L4.523,62.383 L4.523,59.867 Z M27.164,62.383 L29.68,62.383 L29.68,64.899 L27.164,64.899 L27.164,62.383 Z M23.391,68.672 L25.907,68.672 L25.907,71.188 L23.391,71.188 L23.391,68.672 Z M19.617,74.961 L22.133,74.961 L22.133,77.477 L19.617,77.477 L19.617,74.961 Z M39.742,72.445 L42.258,72.445 L42.258,74.961 L39.742,74.961 L39.742,72.445 Z M39.742,66.156 L42.258,66.156 L42.258,68.672 L39.742,68.672 L39.742,66.156 Z M39.742,78.734 L42.258,78.734 L42.258,81.25 L39.742,81.25 L39.742,78.734 Z M72.445,39.742 L74.961,39.742 L74.961,42.258 L72.445,42.258 L72.445,39.742 Z M66.156,39.742 L68.672,39.742 L68.672,42.258 L66.156,42.258 L66.156,39.742 Z M78.734,39.742 L81.25,39.742 L81.25,42.258 L78.734,42.258 L78.734,39.742 Z M62.383,52.32 L64.899,52.32 L64.899,54.836 L62.383,54.836 L62.383,52.32 Z M68.672,56.094 L71.188,56.094 L71.188,58.61 L68.672,58.61 L68.672,56.094 Z M74.961,59.867 L77.477,59.867 L77.477,62.383 L74.961,62.383 L74.961,59.867 Z M52.32,62.383 L54.836,62.383 L54.836,64.899 L52.32,64.899 L52.32,62.383 Z M56.094,68.672 L58.61,68.672 L58.61,71.188 L56.094,71.188 L56.094,68.672 Z M59.867,74.961 L62.383,74.961 L62.383,77.477 L59.867,77.477 L59.867,74.961 Z" id="Combined-Shape" fill="url(#linearGradient-1)"></path>
                        </g>
                    </g>
                </g>
            </g>
        </g>
    </g>
</svg>