<svg width="64" height="60" viewBox="0 0 64 60" fill="none" xmlns="http://www.w3.org/2000/svg">
<path d="M50.2857 29.7143H64V38.8571H50.2857C49.0733 38.8571 47.9105 38.3755 47.0532 37.5182C46.1959 36.6609 45.7143 35.4981 45.7143 34.2857C45.7143 33.0733 46.1959 31.9105 47.0532 31.0532C47.9105 30.1959 49.0733 29.7143 50.2857 29.7143ZM57.1429 9.14286H6.85714C6.25093 9.14286 5.66955 8.90204 5.2409 8.47339C4.81224 8.04473 4.57143 7.46335 4.57143 6.85714C4.57143 6.25093 4.81224 5.66955 5.2409 5.2409C5.66955 4.81224 6.25093 4.57143 6.85714 4.57143H56.7314C56.2599 3.2376 55.3873 2.08228 54.2333 1.26386C53.0793 0.445437 51.7004 0.00397603 50.2857 0H6.85714C5.03852 0 3.29437 0.722447 2.00841 2.00841C0.722447 3.29437 0 5.03852 0 6.85714V52.5714C0 54.3901 0.722447 56.1342 2.00841 57.4202C3.29437 58.7061 5.03852 59.4286 6.85714 59.4286H57.1429C58.9615 59.4286 60.7056 58.7061 61.9916 57.4202C63.2776 56.1342 64 54.3901 64 52.5714V43.4286H50.2857C47.8609 43.4286 45.5354 42.4653 43.8207 40.7507C42.1061 39.0361 41.1429 36.7105 41.1429 34.2857C41.1429 31.8609 42.1061 29.5354 43.8207 27.8207C45.5354 26.1061 47.8609 25.1429 50.2857 25.1429H64V16C64 14.1814 63.2776 12.4372 61.9916 11.1513C60.7056 9.8653 58.9615 9.14286 57.1429 9.14286Z" fill="#1538E5"/>
</svg>
