<svg width="64" height="64" viewBox="0 0 64 64" fill="none" xmlns="http://www.w3.org/2000/svg">
<g clip-path="url(#clip0)">
<path d="M62.0533 52.648L30.1973 20.7947C28.712 19.3093 27.952 17.2453 28.1093 15.1547C28.416 11.1947 27.056 7.13067 24.032 4.09867C21.2853 1.35733 17.696 0 14.104 0C12.752 0 11.3973 0.192 10.0907 0.576L18.544 9.02933C19.4613 13.2667 13.32 19.4773 9.032 18.5413L0.581333 10.088C0.194667 11.4 0 12.7547 0 14.112C0 17.704 1.36 21.288 4.10133 24.0347C7.128 27.064 11.1947 28.424 15.1573 28.1147C17.2453 27.9547 19.3093 28.7173 20.792 30.2027L52.648 62.0533C53.896 63.3013 55.5893 64 57.3493 64C60.9973 64 64 61.0453 64 57.3493C64 55.648 63.3493 53.9467 62.0533 52.648ZM57.3333 60C55.8587 60 54.6667 58.8053 54.6667 57.3333C54.6667 55.8613 55.8587 54.6667 57.3333 54.6667C58.808 54.6667 60 55.8613 60 57.3333C60 58.8053 58.808 60 57.3333 60ZM36.1733 19.2293L50.3787 5.048C51.936 3.49067 53.9733 2.70933 56.0133 2.70933C58.0507 2.70933 60.0907 3.488 61.648 5.048C63.2187 6.61333 64 8.66667 64 10.7147C64 12.752 63.224 14.7893 61.672 16.3413L47.4693 30.5227L44.6987 27.752L58.2107 14.2613C58.6613 13.8133 58.656 13.0853 58.208 12.6373C57.7573 12.1867 57.032 12.184 56.5813 12.6347L43.0667 26.1227L40.6933 23.7493L54.2053 10.2587C54.656 9.808 54.6533 9.08267 54.2053 8.62933C53.7547 8.18133 53.024 8.176 52.576 8.62933L39.064 22.1173L36.1733 19.2293ZM26.76 43.7093L12.8213 57.536C12.216 58.1467 11.6933 58.8373 11.2907 59.6L10.488 61.1467L4.888 64L2.66667 61.776L5.4 56.0533L6.94667 55.248C7.70933 54.848 8.44267 54.3707 9.05333 53.76L22.992 39.9333L26.76 43.7093Z" fill="#1538E5"/>
</g>
<defs>
<clipPath id="clip0">
<rect width="64" height="64" fill="white"/>
</clipPath>
</defs>
</svg>
