<svg width="64" height="64" viewBox="0 0 64 64" fill="none" xmlns="http://www.w3.org/2000/svg">
<path d="M63.2887 53.7749L57.8116 48.2979C56.8869 47.3732 55.4643 47.3732 54.5396 48.2979C53.6149 49.2226 53.6149 50.6452 54.5396 51.5699L56.1045 53.1348H10.1539V7.8244L11.7188 9.38928C12.1456 9.81606 12.7858 10.1006 13.3548 10.1006C13.9239 10.1006 14.564 9.88719 14.9908 9.38928C15.9155 8.46457 15.9155 7.04196 14.9908 6.11726L9.51375 0.640178C8.66018 -0.213393 7.02417 -0.213393 6.1706 0.640178L0.693526 6.11726C-0.231175 7.04196 -0.231175 8.46457 0.693526 9.38928C1.61823 10.314 3.04084 10.314 3.96555 9.38928L5.53043 7.8244V57.8294H56.1045L54.5396 59.3943C53.6149 60.319 53.6149 61.7416 54.5396 62.6663C54.9664 63.0931 55.6066 63.3776 56.1756 63.3776C56.7447 63.3776 57.3848 63.1642 57.8116 62.6663L63.2887 57.1892C63.7155 56.7624 64 56.0511 64 55.4821C64 54.8419 63.7866 54.2017 63.2887 53.7749Z" fill="#1538E5"/>
<path d="M20.0409 46.3063H51.1251C52.4055 46.3063 53.4724 45.2394 53.4724 43.959V12.946C53.4724 11.6656 52.4055 10.5986 51.1251 10.5986H20.0409C18.7606 10.5986 17.6936 11.6656 17.6936 12.946V44.0301C17.6936 45.2394 18.7606 46.3063 20.0409 46.3063ZM22.3882 15.2221H48.7778V41.6117H22.3882V15.2221Z" fill="#1538E5"/>
</svg>
