<svg width="188" height="151" viewBox="0 0 188 151" fill="none" xmlns="http://www.w3.org/2000/svg">
  <title>Záruka bezkontaktního předání</title>
  <path d="M104 51C102.894 51 102 51.894 102 53V55H86V53C86 51.894 85.106 51 84 51C82.894 51 82 51.894 82 53V61C82 62.106 82.894 63 84 63C85.106 63 86 62.106 86 61V59H102V61C102 62.106 102.894 63 104 63C105.106 63 106 62.106 106 61V53C106 51.894 105.106 51 104 51Z" fill="white"/>
<path d="M78 37C78 33.692 75.308 31 72 31C68.692 31 66 33.692 66 37C66 40.308 68.692 43 72 43C75.308 43 78 40.308 78 37Z" fill="white"/>
<path d="M72 43C67.588 43 64 46.588 64 51V61C64 62.106 64.894 63 66 63V81C66 82.106 66.894 83 68 83C69.106 83 70 82.106 70 81V63H74V81C74 82.106 74.894 83 76 83C77.106 83 78 82.106 78 81V63C79.106 63 80 62.106 80 61V51C80 48.896 79.144 46.836 77.654 45.346C76.164 43.856 74.104 43 72 43Z" fill="white"/>
<path d="M122 37C122 33.692 119.308 31 116 31C112.692 31 110 33.692 110 37C110 40.308 112.692 43 116 43C119.308 43 122 40.308 122 37Z" fill="white"/>
<path d="M121.654 45.346C120.164 43.856 118.104 43 116 43C111.588 43 108 46.588 108 51V61C108 62.106 108.894 63 110 63V81C110 82.106 110.894 83 112 83C113.106 83 114 82.106 114 81V63H118V81C118 82.106 118.894 83 120 83C121.106 83 122 82.106 122 81V63C123.106 63 124 62.106 124 61V51C124 48.896 123.144 46.836 121.654 45.346Z" fill="white"/>
<path d="M10.0254 114H14.8134C17.4054 114 18.9354 112.596 18.9354 110.328C18.9354 108.564 17.9994 107.538 16.7034 107.106C17.5494 106.746 18.3774 105.81 18.3774 104.64C18.3774 102.588 16.9194 101.4 14.5254 101.4H10.0254V114ZM11.5554 106.62V102.75H14.4894C16.0014 102.75 16.8474 103.38 16.8474 104.676C16.8474 105.972 16.0014 106.62 14.4894 106.62H11.5554ZM11.5554 112.614V107.988H14.5614C16.4154 107.988 17.3694 108.798 17.3694 110.31C17.3694 111.804 16.4154 112.614 14.5614 112.614H11.5554ZM27.5453 111.084C27.2573 112.218 26.3213 112.866 24.8453 112.866C23.1353 112.866 21.8933 111.534 21.7853 109.662H28.8773C28.8953 109.536 28.9133 109.23 28.9133 109.032C28.9133 106.62 27.3293 104.784 24.6833 104.784C22.0193 104.784 20.3633 106.746 20.3633 109.41C20.3633 112.002 22.1633 114.144 24.8453 114.144C27.0953 114.144 28.6973 112.938 29.0033 111.084H27.5453ZM24.6833 106.008C26.3033 106.008 27.3293 106.98 27.4373 108.51H21.8573C22.1273 106.908 23.1533 106.008 24.6833 106.008ZM30.0857 114H37.6277V112.722H31.7957L37.3757 106.206V104.928H30.3377V106.206H35.7017L30.0857 112.722V114ZM45.7113 114H47.5293L43.2813 108.474L47.1693 104.928H45.2613L40.9953 108.762V101.202H39.5373V114H40.9953V110.544L42.1833 109.464L45.7113 114ZM52.5865 114.144C55.2865 114.144 57.2125 112.182 57.2125 109.464C57.2125 106.728 55.2865 104.784 52.5865 104.784C49.9045 104.784 47.9785 106.728 47.9785 109.464C47.9785 112.182 49.9045 114.144 52.5865 114.144ZM52.5865 112.848C50.7325 112.848 49.4545 111.444 49.4545 109.464C49.4545 107.484 50.7325 106.08 52.5865 106.08C54.4585 106.08 55.7365 107.484 55.7365 109.464C55.7365 111.444 54.4585 112.848 52.5865 112.848ZM59.065 114H60.505V109.104C60.505 107.34 61.621 106.098 63.169 106.098C64.537 106.098 65.437 107.142 65.437 108.69V114H66.877V108.456C66.877 106.242 65.545 104.784 63.493 104.784C62.107 104.784 60.973 105.414 60.505 106.674V104.928H59.065V114ZM69.9163 102.03V104.928H68.0263V106.206H69.9163V111.156C69.9163 112.92 71.0323 114 72.7603 114H74.1463V112.722H72.8143C71.9323 112.722 71.3563 112.128 71.3563 111.12V106.206H74.1463V104.928H71.3563V102.03H69.9163ZM78.905 104.784C76.871 104.784 75.215 106.08 75.053 107.826H76.421C76.493 106.836 77.537 106.008 78.869 106.008C80.417 106.008 81.299 106.854 81.299 108.096C81.299 108.384 81.119 108.582 80.723 108.582H78.671C76.475 108.582 75.053 109.68 75.053 111.408C75.053 113.064 76.295 114.144 78.203 114.144C79.607 114.144 80.813 113.478 81.299 112.434V114H82.739V108.15C82.739 106.134 81.263 104.784 78.905 104.784ZM78.419 112.92C77.267 112.92 76.529 112.326 76.529 111.39C76.529 110.328 77.411 109.68 78.761 109.68H81.299V109.914C81.299 111.786 80.237 112.92 78.419 112.92ZM91.1156 114H92.9336L88.6856 108.474L92.5736 104.928H90.6656L86.3996 108.762V101.202H84.9416V114H86.3996V110.544L87.5876 109.464L91.1156 114ZM95.2991 102.03V104.928H93.4091V106.206H95.2991V111.156C95.2991 112.92 96.4151 114 98.1431 114H99.5291V112.722H98.1971C97.3151 112.722 96.7391 112.128 96.7391 111.12V106.206H99.5291V104.928H96.7391V102.03H95.2991ZM101.094 114H102.534V109.104C102.534 107.34 103.65 106.098 105.198 106.098C106.566 106.098 107.466 107.142 107.466 108.69V114H108.906V108.456C108.906 106.242 107.574 104.784 105.522 104.784C104.136 104.784 103.002 105.414 102.534 106.674V104.928H101.094V114ZM111.326 103.938H112.694L114.566 101.274H112.892L111.326 103.938ZM111.29 114H112.73V104.928H111.29V114ZM119.465 117.672H120.905V112.542C121.445 113.514 122.615 114.144 123.893 114.144C126.701 114.144 128.285 112.11 128.285 109.464C128.285 106.818 126.737 104.784 123.929 104.784C122.633 104.784 121.463 105.432 120.905 106.422V104.928H119.465V117.672ZM123.785 112.848C121.967 112.848 120.779 111.516 120.779 109.464C120.779 107.412 121.967 106.08 123.785 106.08C125.603 106.08 126.791 107.412 126.791 109.464C126.791 111.516 125.603 112.848 123.785 112.848ZM132.095 103.92H133.319L135.281 101.4H133.931L132.707 102.894L131.483 101.4H130.133L132.095 103.92ZM135.191 106.206V104.928H134.039C132.707 104.928 131.951 105.522 131.573 106.764V104.928H130.133V114H131.573V110.004C131.573 107.862 132.095 106.206 133.931 106.206H135.191ZM142.963 111.084C142.675 112.218 141.739 112.866 140.263 112.866C138.553 112.866 137.311 111.534 137.203 109.662H144.295C144.313 109.536 144.331 109.23 144.331 109.032C144.331 106.62 142.747 104.784 140.101 104.784C137.437 104.784 135.781 106.746 135.781 109.41C135.781 112.002 137.581 114.144 140.263 114.144C142.513 114.144 144.115 112.938 144.421 111.084H142.963ZM140.101 106.008C141.721 106.008 142.747 106.98 142.855 108.51H137.275C137.545 106.908 138.571 106.008 140.101 106.008ZM150.122 114.144C151.4 114.144 152.588 113.496 153.128 112.506V114H154.568V101.202H153.128V106.404C152.588 105.432 151.4 104.784 150.122 104.784C147.296 104.784 145.748 106.818 145.748 109.464C145.748 112.11 147.296 114.144 150.122 114.144ZM150.248 112.848C148.43 112.848 147.224 111.516 147.224 109.464C147.224 107.412 148.43 106.08 150.248 106.08C152.066 106.08 153.254 107.412 153.254 109.464C153.254 111.516 152.066 112.848 150.248 112.848ZM163.202 101.274H161.528L159.962 103.938H161.33L163.202 101.274ZM160.52 104.784C158.486 104.784 156.83 106.08 156.668 107.826H158.036C158.108 106.836 159.152 106.008 160.484 106.008C162.032 106.008 162.914 106.854 162.914 108.096C162.914 108.384 162.734 108.582 162.338 108.582H160.286C158.09 108.582 156.668 109.68 156.668 111.408C156.668 113.064 157.91 114.144 159.818 114.144C161.222 114.144 162.428 113.478 162.914 112.434V114H164.354V108.15C164.354 106.134 162.878 104.784 160.52 104.784ZM160.034 112.92C158.882 112.92 158.144 112.326 158.144 111.39C158.144 110.328 159.026 109.68 160.376 109.68H162.914V109.914C162.914 111.786 161.852 112.92 160.034 112.92ZM166.485 114H167.925V109.104C167.925 107.34 169.041 106.098 170.589 106.098C171.957 106.098 172.857 107.142 172.857 108.69V114H174.297V108.456C174.297 106.242 172.965 104.784 170.913 104.784C169.527 104.784 168.393 105.414 167.925 106.674V104.928H166.485V114ZM176.716 103.938H178.084L179.956 101.274H178.282L176.716 103.938ZM176.68 114H178.12V104.928H176.68V114Z" fill="white"/>
</svg>
