<svg width="188" height="151" viewBox="0 0 188 151" fill="none" xmlns="http://www.w3.org/2000/svg">
  <title>Záruka vrácení</title>
  <path
    d="M118 36V80H70V36H76V38C76 40.206 77.794 42 80 42C82.206 42 84 40.206 84 38V36H104V38C104 40.206 105.794 42 108 42C110.206 42 112 40.206 112 38V36H118ZM114 48H74V76H114V48ZM110 34C110 32.896 109.106 32 108 32C106.894 32 106 32.896 106 34V38C106 39.104 106.894 40 108 40C109.106 40 110 39.104 110 38V34ZM82 38C82 39.104 81.106 40 80 40C78.894 40 78 39.104 78 38V34C78 32.896 78.894 32 80 32C81.106 32 82 32.896 82 34V38ZM84 61.458L85.71 59.876C87.71 60.844 88.98 61.58 91.23 63.184C95.456 58.386 98.252 55.952 103.442 52.722L104 54.002C99.718 57.74 96.582 61.9 92.066 70C89.28 66.72 87.422 64.628 84 61.458Z"
    fill="white"/>
  <path
    d="M40.1721 114H49.6581V112.614H41.9541L49.6401 102.786V101.4H40.5861V102.786H47.8761L40.1721 112.614V114ZM57.3995 101.274H55.7255L54.1595 103.938H55.5275L57.3995 101.274ZM54.7175 104.784C52.6835 104.784 51.0275 106.08 50.8655 107.826H52.2335C52.3055 106.836 53.3495 106.008 54.6815 106.008C56.2295 106.008 57.1115 106.854 57.1115 108.096C57.1115 108.384 56.9315 108.582 56.5355 108.582H54.4835C52.2875 108.582 50.8655 109.68 50.8655 111.408C50.8655 113.064 52.1075 114.144 54.0155 114.144C55.4195 114.144 56.6255 113.478 57.1115 112.434V114H58.5515V108.15C58.5515 106.134 57.0755 104.784 54.7175 104.784ZM54.2315 112.92C53.0795 112.92 52.3415 112.326 52.3415 111.39C52.3415 110.328 53.2235 109.68 54.5735 109.68H57.1115V109.914C57.1115 111.786 56.0495 112.92 54.2315 112.92ZM65.7401 106.206V104.928H64.5881C63.2561 104.928 62.5001 105.522 62.1221 106.764V104.928H60.6821V114H62.1221V110.004C62.1221 107.862 62.6441 106.206 64.4801 106.206H65.7401ZM75.0156 104.928H73.5756V109.824C73.5756 111.588 72.4776 112.83 70.9116 112.83C69.5436 112.83 68.6436 111.786 68.6436 110.238V104.928H67.2036V110.472C67.2036 112.686 68.5356 114.144 70.5876 114.144C71.9916 114.144 73.1076 113.514 73.5756 112.254V114H75.0156V104.928ZM83.6449 114H85.4629L81.2149 108.474L85.1029 104.928H83.1949L78.9289 108.762V101.202H77.4709V114H78.9289V110.544L80.1169 109.464L83.6449 114ZM90.1902 104.784C88.1562 104.784 86.5002 106.08 86.3382 107.826H87.7062C87.7782 106.836 88.8222 106.008 90.1542 106.008C91.7022 106.008 92.5842 106.854 92.5842 108.096C92.5842 108.384 92.4042 108.582 92.0082 108.582H89.9562C87.7602 108.582 86.3382 109.68 86.3382 111.408C86.3382 113.064 87.5802 114.144 89.4882 114.144C90.8922 114.144 92.0982 113.478 92.5842 112.434V114H94.0242V108.15C94.0242 106.134 92.5482 104.784 90.1902 104.784ZM89.7042 112.92C88.5522 112.92 87.8142 112.326 87.8142 111.39C87.8142 110.328 88.6962 109.68 90.0462 109.68H92.5842V109.914C92.5842 111.786 91.5222 112.92 89.7042 112.92ZM100.39 105.486H101.974C101.902 103.758 102.928 102.606 104.548 102.606C105.988 102.606 107.05 103.542 107.05 104.982C107.05 106.08 106.564 106.944 105.214 107.628L103.288 108.618C101.992 109.266 100.228 110.652 100.228 112.902V114H108.706V112.614H101.722C101.722 111.39 102.874 110.436 103.9 109.914L105.7 108.996C107.626 108.042 108.634 106.656 108.634 105.018C108.634 102.732 106.924 101.256 104.548 101.256C101.956 101.256 100.3 102.912 100.39 105.486ZM119.863 106.206V104.928H118.711C117.379 104.928 116.623 105.522 116.245 106.764V104.928H114.805V114H116.245V110.004C116.245 107.862 116.767 106.206 118.603 106.206H119.863ZM125.061 114.144C127.761 114.144 129.687 112.182 129.687 109.464C129.687 106.728 127.761 104.784 125.061 104.784C122.379 104.784 120.453 106.728 120.453 109.464C120.453 112.182 122.379 114.144 125.061 114.144ZM125.061 112.848C123.207 112.848 121.929 111.444 121.929 109.464C121.929 107.484 123.207 106.08 125.061 106.08C126.933 106.08 128.211 107.484 128.211 109.464C128.211 111.444 126.933 112.848 125.061 112.848ZM137.786 114H139.604L135.356 108.474L139.244 104.928H137.336L133.07 108.762V101.202H131.612V114H133.07V110.544L134.258 109.464L137.786 114ZM148.197 104.928H146.685L144.111 112.128L141.537 104.928H140.043L143.427 114.144L142.275 117.672H143.661L145.317 112.758L148.197 104.928Z"
    fill="white"/>
</svg>
