<svg width="188" height="151" viewBox="0 0 188 151" fill="none" xmlns="http://www.w3.org/2000/svg">
<title>Záruka offline funkce</title>
  <path d="M36.2783 114H37.8083V108.33H42.9743V106.944H37.8083V102.786H44.1623V101.4H36.2783V114ZM53.0869 104.928H51.6469V109.824C51.6469 111.588 50.5489 112.83 48.9829 112.83C47.6149 112.83 46.7149 111.786 46.7149 110.238V104.928H45.2749V110.472C45.2749 112.686 46.6069 114.144 48.6589 114.144C50.0629 114.144 51.1789 113.514 51.6469 112.254V114H53.0869V104.928ZM55.4702 114H56.9102V109.104C56.9102 107.34 58.0262 106.098 59.5742 106.098C60.9422 106.098 61.8422 107.142 61.8422 108.69V114H63.2822V108.456C63.2822 106.242 61.9502 104.784 59.8982 104.784C58.5122 104.784 57.3782 105.414 56.9102 106.674V104.928H55.4702V114ZM72.5955 104.928V106.26C72.0375 105.396 70.8135 104.784 69.5895 104.784C66.7635 104.784 65.2155 106.818 65.2155 109.464C65.2155 112.11 66.7635 114.144 69.5895 114.144C70.9575 114.144 72.1635 113.586 72.5955 112.74V114.342C72.5955 115.548 71.7675 116.43 70.5975 116.43H66.4035V117.672H70.6875C72.6495 117.672 74.0355 116.322 74.0355 114.396V104.928H72.5955ZM69.7155 112.848C67.8795 112.848 66.6915 111.516 66.6915 109.464C66.6915 107.412 67.8795 106.08 69.7155 106.08C71.5335 106.08 72.7215 107.412 72.7215 109.464C72.7215 111.516 71.5335 112.848 69.7155 112.848ZM83.9717 104.928H82.5317V109.824C82.5317 111.588 81.4337 112.83 79.8677 112.83C78.4997 112.83 77.5997 111.786 77.5997 110.238V104.928H76.1597V110.472C76.1597 112.686 77.4917 114.144 79.5437 114.144C80.9477 114.144 82.0637 113.514 82.5317 112.254V114H83.9717V104.928ZM86.2993 101.202V103.218H87.9553V101.202H86.2993ZM86.4253 104.928V114.648C86.4253 115.854 86.3353 116.43 85.1653 116.43H84.4273V117.672H85.2553C87.2353 117.672 87.8653 116.61 87.8653 114.702V104.928H86.4253ZM96.8998 111.084C96.6118 112.218 95.6758 112.866 94.1998 112.866C92.4898 112.866 91.2478 111.534 91.1398 109.662H98.2318C98.2498 109.536 98.2678 109.23 98.2678 109.032C98.2678 106.62 96.6838 104.784 94.0378 104.784C91.3738 104.784 89.7178 106.746 89.7178 109.41C89.7178 112.002 91.5178 114.144 94.1998 114.144C96.4498 114.144 98.0518 112.938 98.3578 111.084H96.8998ZM94.0378 106.008C95.6578 106.008 96.6838 106.98 96.7918 108.51H91.2118C91.4818 106.908 92.5078 106.008 94.0378 106.008ZM108.582 114.144C111.282 114.144 113.208 112.182 113.208 109.464C113.208 106.728 111.282 104.784 108.582 104.784C105.9 104.784 103.974 106.728 103.974 109.464C103.974 112.182 105.9 114.144 108.582 114.144ZM108.582 112.848C106.728 112.848 105.45 111.444 105.45 109.464C105.45 107.484 106.728 106.08 108.582 106.08C110.454 106.08 111.732 107.484 111.732 109.464C111.732 111.444 110.454 112.848 108.582 112.848ZM126.37 101.202V104.928H122.536V104.028C122.536 103.056 123.094 102.48 123.976 102.48H124.948V101.202H123.922C122.194 101.202 121.096 102.282 121.096 104.01V104.928H117.244V104.028C117.244 103.056 117.82 102.48 118.702 102.48H120.07V101.202H118.63C116.902 101.202 115.804 102.282 115.804 104.01V104.928H113.914V106.206H115.804V114H117.244V106.206H121.096V114H122.536V106.206H126.37V114H127.81V101.202H126.37ZM130.157 101.202V103.218H131.813V101.202H130.157ZM130.265 114H131.705V104.928H130.265V114ZM134.08 114H135.52V109.104C135.52 107.34 136.636 106.098 138.184 106.098C139.552 106.098 140.452 107.142 140.452 108.69V114H141.892V108.456C141.892 106.242 140.56 104.784 138.508 104.784C137.122 104.784 135.988 105.414 135.52 106.674V104.928H134.08V114ZM150.935 111.084C150.647 112.218 149.711 112.866 148.235 112.866C146.525 112.866 145.283 111.534 145.175 109.662H152.267C152.285 109.536 152.303 109.23 152.303 109.032C152.303 106.62 150.719 104.784 148.073 104.784C145.409 104.784 143.753 106.746 143.753 109.41C143.753 112.002 145.553 114.144 148.235 114.144C150.485 114.144 152.087 112.938 152.393 111.084H150.935ZM148.073 106.008C149.693 106.008 150.719 106.98 150.827 108.51H145.247C145.517 106.908 146.543 106.008 148.073 106.008Z" fill="white"/>
<path fill-rule="evenodd" clip-rule="evenodd" d="M84.5657 64.7685H79.8856C81.5742 67.48 84.0145 69.6588 86.9033 71.0257C85.8203 69.0892 85.0783 66.9192 84.5657 64.7685ZM93.9996 32C107.254 32 117.999 42.7456 117.999 56.0004C117.999 69.2545 107.254 80 93.9996 80C80.7447 80 70 69.2545 70 56.0004C70 42.7456 80.7447 32 93.9996 32ZM93.9996 36.6263C104.699 36.6263 113.373 45.3006 113.373 56.0004C113.373 59.6954 112.337 63.1497 110.542 66.0881L104.319 61.1369H109.804C110.329 59.5197 110.612 57.7925 110.612 56.0004C110.612 54.2075 110.329 52.4811 109.804 50.8631H104.095C104.307 52.5036 104.421 54.2259 104.421 56.0004C104.421 57.7155 104.315 59.3825 104.115 60.9741L100.72 58.2739C100.765 57.5294 100.788 56.7705 100.788 56.0004C100.788 54.2067 100.664 52.4819 100.436 50.8631H93.9988H91.4093L84.9611 45.733C85.4417 44.086 86.0722 42.4592 86.9033 40.9735C85.3318 41.7171 83.8926 42.7022 82.6347 43.8815L80.4568 42.1487C83.9488 38.7329 88.7283 36.6263 93.9996 36.6263ZM107.542 69.8505C104.05 73.2663 99.2717 75.3737 93.9996 75.3737C83.2998 75.3737 74.6263 66.6994 74.6263 56.0004C74.6263 52.3046 75.662 48.8503 77.4581 45.9127L83.68 50.8631H78.1945C77.6699 52.4811 77.3859 54.2075 77.3859 56.0004C77.3859 57.7925 77.6691 59.5197 78.1945 61.1369H83.9038C83.6913 59.4964 83.5781 57.7733 83.5781 56.0004C83.5781 54.2837 83.684 52.6167 83.8838 51.0251L87.2779 53.7253C87.2338 54.4698 87.2105 55.2287 87.2105 56.0004C87.2105 57.7933 87.3341 59.5181 87.5635 61.1369H93.9988H96.5907L103.037 66.2662C102.558 67.914 101.927 69.5376 101.096 71.0257C102.667 70.2821 104.107 69.2978 105.364 68.1177L107.542 69.8505ZM108.113 47.2315H103.433C102.921 45.0832 102.177 42.9076 101.096 40.9735C103.984 42.3404 106.424 44.5208 108.113 47.2315ZM93.9988 64.7685H88.2991C88.9826 67.2931 91.0002 72.6133 93.9988 72.6133C96.999 72.6133 99.0158 67.2931 99.6993 64.7685H93.9988ZM93.9988 39.3867C91.0002 39.3867 88.9826 44.7069 88.2991 47.2315H93.9988H99.6993C99.0158 44.7069 96.999 39.3867 93.9988 39.3867Z" fill="white"/>
</svg>
