<svg width="188" height="151" viewBox="0 0 188 151" fill="none" xmlns="http://www.w3.org/2000/svg">
<title>Záruka 4 velikosti</title>
  <path d="M61.2487 114H62.7787V110.85H64.7407V109.464H62.7787V101.4H60.9787L54.4807 109.464V110.85H61.2487V114ZM56.1187 109.464L61.2487 103.092V109.464H56.1187ZM73.1831 114H74.6771L78.0071 104.928H76.4951L73.9211 112.2L71.3471 104.928H69.8531L73.1831 114ZM85.7816 111.084C85.4936 112.218 84.5576 112.866 83.0816 112.866C81.3716 112.866 80.1296 111.534 80.0216 109.662H87.1136C87.1316 109.536 87.1496 109.23 87.1496 109.032C87.1496 106.62 85.5656 104.784 82.9196 104.784C80.2556 104.784 78.5996 106.746 78.5996 109.41C78.5996 112.002 80.3996 114.144 83.0816 114.144C85.3316 114.144 86.9336 112.938 87.2396 111.084H85.7816ZM82.9196 106.008C84.5396 106.008 85.5656 106.98 85.6736 108.51H80.0936C80.3636 106.908 81.3896 106.008 82.9196 106.008ZM89.1604 114H90.6004V101.202H89.1604V114ZM92.9355 101.202V103.218H94.5915V101.202H92.9355ZM93.0435 114H94.4835V104.928H93.0435V114ZM103.104 114H104.922L100.674 108.474L104.562 104.928H102.654L98.3879 108.762V101.202H96.9299V114H98.3879V110.544L99.5759 109.464L103.104 114ZM109.979 114.144C112.679 114.144 114.605 112.182 114.605 109.464C114.605 106.728 112.679 104.784 109.979 104.784C107.297 104.784 105.371 106.728 105.371 109.464C105.371 112.182 107.297 114.144 109.979 114.144ZM109.979 112.848C108.125 112.848 106.847 111.444 106.847 109.464C106.847 107.484 108.125 106.08 109.979 106.08C111.851 106.08 113.129 107.484 113.129 109.464C113.129 111.444 111.851 112.848 109.979 112.848ZM119.52 114.144C121.518 114.144 122.85 113.1 122.85 111.48C122.85 107.322 117.54 109.752 117.54 107.304C117.54 106.512 118.242 106.008 119.304 106.008C120.132 106.008 121.266 106.404 121.392 107.556H122.796C122.688 105.882 121.338 104.784 119.34 104.784C117.432 104.784 116.136 105.792 116.136 107.322C116.136 111.246 121.41 108.816 121.41 111.516C121.41 112.254 120.654 112.884 119.52 112.884C118.206 112.884 117.414 112.254 117.288 111.084H115.902C116.046 112.974 117.414 114.144 119.52 114.144ZM125.692 102.03V104.928H123.802V106.206H125.692V111.156C125.692 112.92 126.808 114 128.536 114H129.922V112.722H128.59C127.708 112.722 127.132 112.128 127.132 111.12V106.206H129.922V104.928H127.132V102.03H125.692ZM131.379 101.202V103.218H133.035V101.202H131.379ZM131.487 114H132.927V104.928H131.487V114Z" fill="white"/>
<path d="M124.412 77.0303L119.011 71.6291C118.099 70.7172 116.696 70.7172 115.784 71.6291C114.872 72.541 114.872 73.9439 115.784 74.8558L117.328 76.399H72.0133V31.716L73.5565 33.2593C73.9774 33.6801 74.6087 33.9607 75.1699 33.9607C75.7311 33.9607 76.3624 33.7503 76.7832 33.2593C77.6951 32.3474 77.6951 30.9444 76.7832 30.0325L71.382 24.6313C70.5403 23.7896 68.9269 23.7896 68.0852 24.6313L62.6839 30.0325C61.772 30.9444 61.772 32.3474 62.6839 33.2593C63.5958 34.1712 64.9987 34.1712 65.9106 33.2593L67.4538 31.716V81.0286H117.328L115.784 82.5718C114.872 83.4837 114.872 84.8866 115.784 85.7985C116.205 86.2194 116.837 86.5 117.398 86.5C117.959 86.5 118.59 86.2896 119.011 85.7985L124.412 80.3973C124.833 79.9764 125.114 79.275 125.114 78.7138C125.114 78.0825 124.903 77.4512 124.412 77.0303Z" fill="white"/>
<path d="M81.7634 69.665H112.417C113.68 69.665 114.732 68.6128 114.732 67.3502V36.7666C114.732 35.504 113.68 34.4518 112.417 34.4518H81.7634C80.5008 34.4518 79.4486 35.504 79.4486 36.7666V67.4204C79.4486 68.6128 80.5008 69.665 81.7634 69.665ZM84.0782 39.0113H110.102V65.0354H84.0782V39.0113Z" fill="white"/>
</svg>
