<svg width="188" height="151" viewBox="0 0 188 151" fill="none" xmlns="http://www.w3.org/2000/svg">
  <title>Záruka českého výrobku</title>
  <path
    d="M41.2488 100.392H42.4728L44.4348 97.872H43.0848L41.8608 99.366L40.6368 97.872H39.2868L41.2488 100.392ZM42.0408 114.144C44.8308 114.144 47.0808 112.434 47.3508 110.076H45.7668C45.5868 111.624 44.0028 112.758 42.0408 112.758C39.4128 112.758 37.5588 110.976 37.5588 107.7C37.5588 104.424 39.4128 102.642 42.0408 102.642C43.9668 102.642 45.5328 103.776 45.7488 105.324H47.3688C47.0268 102.966 44.7768 101.256 42.0408 101.256C38.9088 101.256 35.9748 103.344 35.9748 107.7C35.9748 112.038 38.8908 114.144 42.0408 114.144ZM55.8109 111.084C55.5229 112.218 54.5869 112.866 53.1109 112.866C51.4009 112.866 50.1589 111.534 50.0509 109.662H57.1429C57.1609 109.536 57.1789 109.23 57.1789 109.032C57.1789 106.62 55.5949 104.784 52.9489 104.784C50.2849 104.784 48.6289 106.746 48.6289 109.41C48.6289 112.002 50.4289 114.144 53.1109 114.144C55.3609 114.144 56.9629 112.938 57.2689 111.084H55.8109ZM52.9489 106.008C54.5689 106.008 55.5949 106.98 55.7029 108.51H50.1229C50.3929 106.908 51.4189 106.008 52.9489 106.008ZM62.1798 114.144C64.1778 114.144 65.5098 113.1 65.5098 111.48C65.5098 107.322 60.1998 109.752 60.1998 107.304C60.1998 106.512 60.9018 106.008 61.9638 106.008C62.7918 106.008 63.9258 106.404 64.0518 107.556H65.4558C65.3478 105.882 63.9978 104.784 61.9998 104.784C60.0918 104.784 58.7958 105.792 58.7958 107.322C58.7958 111.246 64.0698 108.816 64.0698 111.516C64.0698 112.254 63.3138 112.884 62.1798 112.884C60.8658 112.884 60.0738 112.254 59.9478 111.084H58.5618C58.7058 112.974 60.0738 114.144 62.1798 114.144ZM73.7309 114H75.5489L71.3009 108.474L75.1889 104.928H73.2809L69.0149 108.762V101.202H67.5569V114H69.0149V110.544L70.2029 109.464L73.7309 114ZM82.7019 101.274H81.0279L79.4619 103.938H80.8299L82.7019 101.274ZM84.1419 104.928H82.6299L80.0559 112.128L77.4819 104.928H75.9879L79.3719 114.144L78.2199 117.672H79.6059L81.2619 112.758L84.1419 104.928ZM92.2203 114H93.7143L97.0443 104.928H95.5323L92.9583 112.2L90.3843 104.928H88.8903L92.2203 114ZM104.218 101.274H102.544L100.978 103.938H102.346L104.218 101.274ZM105.658 104.928H104.146L101.572 112.128L98.9975 104.928H97.5035L100.888 114.144L99.7355 117.672H101.122L102.778 112.758L105.658 104.928ZM112.129 106.206V104.928H110.977C109.645 104.928 108.889 105.522 108.511 106.764V104.928H107.071V114H108.511V110.004C108.511 107.862 109.033 106.206 110.869 106.206H112.129ZM117.327 114.144C120.027 114.144 121.953 112.182 121.953 109.464C121.953 106.728 120.027 104.784 117.327 104.784C114.645 104.784 112.719 106.728 112.719 109.464C112.719 112.182 114.645 114.144 117.327 114.144ZM117.327 112.848C115.473 112.848 114.195 111.444 114.195 109.464C114.195 107.484 115.473 106.08 117.327 106.08C119.199 106.08 120.477 107.484 120.477 109.464C120.477 111.444 119.199 112.848 117.327 112.848ZM128.323 114.144C131.149 114.144 132.697 112.11 132.697 109.464C132.697 106.818 131.149 104.784 128.323 104.784C127.045 104.784 125.875 105.432 125.317 106.404V101.202H123.877V114H125.317V112.506C125.875 113.496 127.063 114.144 128.323 114.144ZM128.197 112.848C126.379 112.848 125.191 111.516 125.191 109.464C125.191 107.412 126.379 106.08 128.197 106.08C130.033 106.08 131.221 107.412 131.221 109.464C131.221 111.516 130.033 112.848 128.197 112.848ZM141.205 111.084C140.917 112.218 139.981 112.866 138.505 112.866C136.795 112.866 135.553 111.534 135.445 109.662H142.537C142.555 109.536 142.573 109.23 142.573 109.032C142.573 106.62 140.989 104.784 138.343 104.784C135.679 104.784 134.023 106.746 134.023 109.41C134.023 112.002 135.823 114.144 138.505 114.144C140.755 114.144 142.357 112.938 142.663 111.084H141.205ZM138.343 106.008C139.963 106.008 140.989 106.98 141.097 108.51H135.517C135.787 106.908 136.813 106.008 138.343 106.008ZM150.758 114H152.576L148.328 108.474L152.216 104.928H150.308L146.042 108.762V101.202H144.584V114H146.042V110.544L147.23 109.464L150.758 114Z"
    fill="white"/>
  <g clip-path="url(#clip0)">
    <path
      d="M94 37C105.028 37 114 45.972 114 57C114 68.028 105.028 77 94 77C82.972 77 74 68.028 74 57C74 45.972 82.972 37 94 37ZM94 33C80.746 33 70 43.746 70 57C70 70.254 80.746 81 94 81C107.254 81 118 70.254 118 57C118 43.746 107.254 33 94 33Z"
      fill="white"/>
    <path d="M70 57C73.5 66 73.5 70 77.5002 73.5L94 57L78.4998 41.5C74.5 46.5 74 47 70 57Z" fill="white"/>
    <path opacity="0.5" d="M94 81C103 77.5 114 72.5002 116.5 57L94 57L78.5 72.5002C83.5 76.5 84 77 94 81Z"
          fill="white"/>
  </g>
  <defs>
    <clipPath id="clip0">
      <rect width="48" height="48" fill="white" transform="translate(70 33)"/>
    </clipPath>
  </defs>
</svg>
