<svg width="48" height="48" viewBox="0 0 48 48" fill="none" xmlns="http://www.w3.org/2000/svg">
<path d="M40 32C35.582 32 32 35.582 32 40C32 44.418 35.582 48 40 48C44.418 48 48 44.418 48 40C48 35.582 44.418 32 40 32ZM8 32C3.582 32 0 35.582 0 40C0 44.418 3.582 48 8 48C12.418 48 16 44.418 16 40C16 35.582 12.418 32 8 32ZM24 4C26.206 4 28 5.794 28 8C28 10.206 26.206 12 24 12C21.794 12 20 10.206 20 8C20 5.794 21.794 4 24 4ZM24 0C19.582 0 16 3.582 16 8C16 12.418 19.582 16 24 16C28.418 16 32 12.418 32 8C32 3.582 28.418 0 24 0ZM31.746 31.31L26 26.502V19.82C25.348 19.93 24.684 20 24 20C23.316 20 22.652 19.93 22 19.82V26.502L16.254 31.31C17.222 32.23 18.038 33.31 18.656 34.506L24 30L29.344 34.506C29.962 33.31 30.778 32.232 31.746 31.31Z" fill="#1538E5"/>
</svg>
