<svg width="64" height="45" viewBox="0 0 64 45" fill="none" xmlns="http://www.w3.org/2000/svg">
<path d="M9.68387 21.7003H30.8963V2.05369C30.8963 0.9216 29.9754 0 28.8433 0H12.2673C8.17347 0 4.84192 3.33155 4.84192 7.42542V12.2297C4.85827 12.2325 4.87463 12.2382 4.89099 12.2411C4.95783 12.2546 5.02396 12.2723 5.0901 12.288C5.2053 12.315 5.31979 12.3427 5.43214 12.3762C5.50396 12.3975 5.57294 12.4217 5.64334 12.4459C5.74787 12.4814 5.8517 12.5191 5.9541 12.5603C6.0245 12.5888 6.09347 12.6187 6.16174 12.6492C6.2613 12.694 6.35943 12.741 6.45543 12.7907C6.52156 12.8249 6.5877 12.8597 6.6517 12.896C6.74841 12.9507 6.84227 13.0083 6.93543 13.0681C6.99445 13.1065 7.0549 13.1435 7.11321 13.184C7.21063 13.2515 7.3045 13.3234 7.39694 13.3966C7.44601 13.435 7.49721 13.4713 7.54485 13.5118C7.66005 13.6078 7.77027 13.7095 7.87765 13.8147C7.89898 13.8354 7.92245 13.8546 7.94378 13.8759C8.07107 14.0039 8.19267 14.1376 8.30858 14.277C8.33987 14.3147 8.36832 14.3559 8.3989 14.395C8.47996 14.4981 8.55961 14.6019 8.63427 14.7093C8.67196 14.7641 8.70609 14.821 8.74236 14.8771C8.80423 14.9739 8.86467 15.0706 8.92085 15.1715C8.95641 15.2341 8.98912 15.2988 9.02183 15.3635C9.07232 15.4617 9.12067 15.5605 9.16618 15.6615C9.19676 15.7298 9.22521 15.7987 9.25365 15.8684C9.29489 15.9708 9.33187 16.0747 9.36743 16.1792C9.3916 16.2503 9.41507 16.3207 9.43641 16.3925C9.46841 16.502 9.49614 16.613 9.52245 16.7246C9.53881 16.7957 9.55658 16.8654 9.57009 16.9365C9.59427 17.0603 9.61134 17.1868 9.62769 17.3127C9.63552 17.3739 9.64618 17.4343 9.65258 17.4962C9.67036 17.686 9.68174 17.8773 9.68174 18.0715V21.7003H9.68387Z" fill="#1538E5"/>
<path d="M3.36709 41.7466L2.30896 44.9971H5.10931L6.60549 41.7466H3.36709Z" fill="#1538E5"/>
<path d="M64.0001 37.4053V18.0723C64.0001 16.0115 62.3233 14.334 60.2625 14.334C58.2017 14.334 56.5242 16.0108 56.5242 18.0723V39.54H61.866C63.0422 39.54 64.0001 38.5821 64.0001 37.4053Z" fill="#1538E5"/>
<path d="M57.3953 41.7466L58.8914 44.9971H61.6918L60.633 41.7466H57.3953Z" fill="#1538E5"/>
<path d="M7.47733 18.0723C7.47733 16.0115 5.79982 14.334 3.73902 14.334C1.67822 14.334 0 16.0108 0 18.0723V37.406C0 38.5829 0.957866 39.54 2.13404 39.54H7.47662V18.0723H7.47733Z" fill="#1538E5"/>
<path d="M56.6017 13.3973C56.6941 13.3241 56.788 13.2523 56.8854 13.1847C56.9437 13.1442 57.0035 13.1072 57.0632 13.0688C57.1564 13.0091 57.2502 12.9508 57.3469 12.8967C57.4117 12.8597 57.4778 12.8249 57.5439 12.7915C57.6399 12.7417 57.7373 12.6948 57.8369 12.65C57.9059 12.6194 57.9749 12.5888 58.0453 12.5611C58.1477 12.5198 58.2515 12.4829 58.356 12.4466C58.4264 12.4224 58.4961 12.3982 58.5672 12.3769C58.6796 12.3435 58.7948 12.3157 58.9093 12.2887C58.9761 12.2731 59.0415 12.2553 59.1091 12.2418C59.1254 12.2389 59.1411 12.2333 59.1581 12.2304V7.42615C59.1581 3.33157 55.8266 0.000732422 51.732 0.000732422H35.1574C34.0254 0.000732422 33.1038 0.922331 33.1038 2.05442V21.7017H54.3169V18.0729C54.3169 17.8788 54.3283 17.6875 54.3461 17.4983C54.3525 17.4357 54.3631 17.3746 54.3717 17.3127C54.3873 17.1869 54.4051 17.0617 54.4293 16.938C54.4435 16.8669 54.4605 16.7972 54.4769 16.7261C54.5032 16.6144 54.5302 16.5035 54.5629 16.394C54.5843 16.3221 54.6077 16.251 54.6319 16.1806C54.6675 16.0761 54.7052 15.9723 54.7457 15.8699C54.7741 15.8002 54.8026 15.7312 54.8332 15.6622C54.878 15.5613 54.9263 15.4624 54.9768 15.365C55.0102 15.3003 55.0429 15.2356 55.0785 15.1723C55.1347 15.072 55.1958 14.9753 55.257 14.8779C55.2933 14.8217 55.3274 14.7648 55.3651 14.7101C55.439 14.602 55.5194 14.4981 55.6005 14.3957C55.631 14.3566 55.6595 14.3161 55.6908 14.2777C55.8067 14.1383 55.9276 14.0046 56.0556 13.8766C56.0776 13.8546 56.1018 13.8354 56.1238 13.8133C56.2312 13.7095 56.3407 13.6085 56.4552 13.5125C56.5021 13.4727 56.5526 13.4357 56.6017 13.3973Z" fill="#1538E5"/>
<path d="M54.3168 23.9077H9.68396V27.2158H54.3168V23.9077Z" fill="#1538E5"/>
<path d="M54.3168 29.4229H9.68396V39.5398H54.3168V29.4229Z" fill="#1538E5"/>
</svg>
