<?xml version="1.0" encoding="UTF-8"?>
<svg width="72px" height="92px" viewBox="0 0 72 92" version="1.1" xmlns="http://www.w3.org/2000/svg" xmlns:xlink="http://www.w3.org/1999/xlink">
    <!-- Generator: Sketch 52.2 (67145) - http://www.bohemiancoding.com/sketch -->
    <title>noun_Select User_692992</title>
    <desc>Created with Sketch.</desc>
    <g id="Page-1" stroke="none" stroke-width="1" fill="none" fill-rule="evenodd">
        <g id="about-us---vsichni-2-copy-5" transform="translate(-414.000000, -1749.000000)" fill="#E0E2E5">
            <g id="Group-9" transform="translate(414.000000, 1737.000000)">
                <g id="noun_Select-User_692992" transform="translate(0.000000, 12.000000)">
                    <g id="Group" transform="translate(36.000000, 46.000000) scale(-1, 1) rotate(-180.000000) translate(-36.000000, -46.000000) ">
                        <g id="Shape">
                            <g>
                                <path d="M50.7811034,1.71691892 C46.8508966,6.80054054 40.9382069,8.66789189 34.6630345,11.2724865 C31.6253793,12.5343784 28.8012414,14.9064865 27.6542069,17.9536757 C26.5555862,20.8653514 27.1489655,23.9921081 29.6838621,26.6128649 L22.4553103,37.2587568 L0.418344828,37.2587568 L0.418344828,39.5898378 C0.418344828,46.506 3.04758621,51.6182162 7.47931034,54.9302162 C11.8067586,58.1638919 17.5903448,59.4867027 23.6495172,59.4867027 C29.7086897,59.4867027 35.4922759,58.1638919 39.8197241,54.9302162 C42.1808276,53.1635676 44.0329655,50.8834595 45.2457931,48.0911351 L53.5257931,48.0911351 C53.7951724,48.1122703 54.0695172,48.1122703 54.3488276,48.0911351 L66.590069,48.0911351 L66.4708966,48.5598378 C65.9495172,50.3737297 64.898069,51.6865946 63.5064828,52.6476216 C61.3626207,54.1295676 58.1933793,54.9128108 54.3736552,54.9128108 C51.5048276,54.9128108 48.9773793,54.4714595 46.9824828,53.6049189 C45.8044138,53.0939459 44.4326897,53.636 43.9212414,54.8170811 C43.4110345,55.9969189 43.9522759,57.3707027 45.1315862,57.8829189 C47.8737931,59.0727027 51.074069,59.574973 54.3736552,59.574973 C58.7135172,59.574973 62.9391724,58.7034595 66.1493793,56.4867568 C69.4812414,54.1855135 71.4910345,50.5863243 71.4910345,45.7600541 L71.4910345,43.428973 L61.1354483,43.428973 C68.1728276,35.0097297 68.3317241,21.5454054 71.3433103,15.3876216 C71.8535172,14.3420541 71.5158621,13.0789189 70.5525517,12.4287027 L53.9217931,1.20967568 C52.9051034,0.524648649 51.5308966,0.745945946 50.7811034,1.71691892 Z M53.0031724,6.21248649 L66.3653793,15.226 L65.9544828,16.3722703 C63.4630345,23.9622703 62.8957241,34.7324865 57.0438621,41.032 C55.4710345,42.6581622 54.6591724,43.2325405 54.1638621,43.3991351 C54.0086897,43.4513514 53.748,43.5719459 52.7983448,42.9254595 C52.7387586,42.8844324 52.6828966,42.8446486 52.6307586,42.8048649 L54.9806897,39.2765405 C55.6932414,38.2061081 55.404,36.7577297 54.333931,36.0441081 C53.2651034,35.3304865 51.8188966,35.6201622 51.1063448,36.6918378 L47.978069,41.3937838 C47.2369655,42.5686486 46.8335172,42.8434054 46.7217931,42.9005946 C46.6175172,42.8906486 46.2314483,42.8023784 45.3513103,42.2018919 C44.7256552,41.7754595 44.4873103,41.3788649 44.4091034,41.1065946 L47.0296552,37.1692432 C47.7422069,36.0975676 47.4517241,34.6504324 46.3828966,33.9368108 C45.3128276,33.2231892 43.8678621,33.5141081 43.1553103,34.5845405 L40.0282759,39.2877297 C39.2871724,40.4625946 38.8837241,40.7373514 38.772,40.7945405 C38.6677241,40.7845946 38.2816552,40.6963243 37.3990345,40.0958378 C36.9235862,39.7713514 36.6715862,39.463027 36.5449655,39.2156216 L40.8773793,32.8004865 C41.5961379,31.7337838 41.3168276,30.2841622 40.2529655,29.5630811 C39.1878621,28.8432432 37.7404138,29.122973 37.0204138,30.1884324 L25.9597241,46.5718919 C25.334069,47.5664865 24.9504828,47.9183243 24.7841379,48.0376757 L24.7009655,48.0874054 L24.6264828,48.074973 C24.4651034,48.0364324 24.074069,47.8947027 23.3292414,47.3874595 C22.6688276,46.9386486 22.4354483,46.5097297 22.3758621,46.2523784 C22.3336552,46.0696216 22.3026207,45.6717838 22.8277241,44.9942162 L22.9133793,44.8761081 L38.9917241,21.1997838 C39.7142069,20.1355676 39.4386207,18.6847027 38.376,17.9611351 C37.3133793,17.2375676 35.8646897,17.5135676 35.1422069,18.5777838 L32.3987586,22.6158378 C31.6315862,21.486973 31.6812414,20.4687568 32.0089655,19.5997297 C32.5750345,18.0966486 34.2124138,16.5065405 36.4444138,15.5803243 C41.4111724,13.5177838 47.7434483,11.4689189 52.5190345,6.75951351 L53.0031724,6.21248649 Z M19.2897931,41.9209189 L19.0638621,42.2541081 L18.7262069,42.7352432 C17.8187586,44.1587568 17.4773793,45.7351892 17.8411034,47.3041622 C18.2383448,49.0223243 19.3915862,50.3426486 20.7111724,51.2427568 C21.8644138,52.0284865 23.2522759,52.7818919 24.8077241,52.7508108 C25.3055172,52.7421081 25.7946207,52.6525946 26.2675862,52.481027 C27.864,51.9054054 28.9775172,50.5229189 29.8588966,49.1217838 L33.8486897,43.2114054 C34.1441379,43.4836757 34.4582069,43.7298378 34.7834483,43.9511351 C35.9292414,44.7318919 37.3195862,45.4915135 38.8824828,45.4591892 C39.3790345,45.4492432 39.8668966,45.360973 40.3386207,45.1906486 C40.6588966,45.075027 40.9605517,44.9258378 41.2448276,44.7505405 C41.3118621,44.8263784 41.3801379,44.900973 41.4496552,44.9755676 C40.5794483,47.6821081 39.0252414,49.7048649 37.0353103,51.193027 C33.7953103,53.6161081 29.1264828,54.8245405 23.6495172,54.8245405 C18.1713103,54.8245405 13.5037241,53.6161081 10.2637241,51.193027 C7.71268966,49.2858919 5.88041379,46.5097297 5.28331034,42.5363243 L5.20634483,41.9209189 L19.2897931,41.9209189 Z M44.5617931,72.583027 C44.5617931,78.0060541 48.9550345,82.4058919 54.3711724,82.4058919 C59.786069,82.4058919 64.1805517,78.0060541 64.1805517,72.583027 C64.1805517,67.1587568 59.786069,62.7601622 54.3711724,62.7601622 C48.9550345,62.7601622 44.5617931,67.1587568 44.5617931,72.583027 Z M10.7453793,78.2671351 C10.7453793,85.3983784 16.5252414,91.1869189 23.6470345,91.1869189 C30.7675862,91.1869189 36.5486897,85.3983784 36.5486897,78.2671351 C36.5486897,71.1346486 30.7675862,65.3473514 23.6470345,65.3473514 C16.5252414,65.3473514 10.7453793,71.1346486 10.7453793,78.2671351 Z M59.5253793,72.583027 C59.5253793,75.4312973 57.2151724,77.7437297 54.3711724,77.7437297 C51.525931,77.7437297 49.2169655,75.4312973 49.2169655,72.583027 C49.2169655,69.7335135 51.525931,67.4223243 54.3711724,67.4223243 C57.2151724,67.4223243 59.5253793,69.7335135 59.5253793,72.583027 Z M31.8935172,78.2671351 C31.8935172,82.8236216 28.1966897,86.5247568 23.6470345,86.5247568 C19.0961379,86.5247568 15.4005517,82.8236216 15.4005517,78.2671351 C15.4005517,73.7094054 19.0961379,70.0095135 23.6470345,70.0095135 C28.1966897,70.0095135 31.8935172,73.7094054 31.8935172,78.2671351 Z"></path>
                            </g>
                        </g>
                    </g>
                </g>
            </g>
        </g>
    </g>
</svg>