<?xml version="1.0" encoding="UTF-8"?>
<svg width="132px" height="88px" viewBox="0 0 132 88" version="1.1" xmlns="http://www.w3.org/2000/svg" xmlns:xlink="http://www.w3.org/1999/xlink">
    <!-- Generator: Sketch 52.2 (67145) - http://www.bohemiancoding.com/sketch -->
    <title>noun_Navigation_510280</title>
    <desc>Created with Sketch.</desc>
    <g id="Page-1" stroke="none" stroke-width="1" fill="none" fill-rule="evenodd">
        <g id="about-us---vsichni-2-copy-5" transform="translate(-407.000000, -2245.000000)" fill="#E0E2E5" fill-rule="nonzero">
            <g id="Group-11" transform="translate(407.000000, 2209.000000)">
                <g id="noun_Navigation_510280" transform="translate(0.000000, 36.000000)">
                    <g id="Group">
                        <path d="M13.5279822,37.7446004 C13.5279822,37.7446004 16.0031277,37.6608729 20.3345273,37.5143539 C22.5056297,37.4706803 25.1458943,37.3789464 28.1726538,37.3609029 C31.2004373,37.3239599 34.6189986,37.3087194 38.3599458,37.3991775 C42.1016091,37.481786 46.1596495,37.6293233 50.4962483,38.0835555 C52.6675521,38.3249134 54.9020559,38.6053573 57.2392929,39.1516255 C58.4054133,39.4070993 59.6002802,39.7445215 60.8446843,40.2332518 C61.4681563,40.4878081 62.0950972,40.7408873 62.7590371,41.1626021 C63.3980015,41.4975289 64.1018946,42.0737074 64.7419834,42.7471754 C65.0564218,43.1660368 65.3852335,43.5459633 65.628018,44.0525301 C65.8364555,44.5908983 66.1013568,45.1441434 66.1423338,45.7243502 C66.3081607,46.9137174 66.0728174,48.0321357 65.7338175,48.8753079 C65.0354298,50.6086438 64.081104,51.7379723 63.1579696,52.7543677 C61.2829599,54.795719 59.3048029,56.344569 57.3232777,57.9060579 C53.37624,60.9702277 49.2650985,63.772042 45.778039,66.7875475 C44.9410324,67.5393887 44.0965845,68.2994432 43.4488529,69.04701 C42.7910283,69.7715481 42.2167856,70.5645678 42.1011001,70.9771125 C42.0281203,71.1754066 42.0682805,71.2504788 42.0999811,71.092647 C42.0746027,71.058395 42.1663309,70.8862962 42.0988565,70.7958941 C42.0726613,70.6972785 42.1107848,70.6032061 42.036479,70.5366493 C41.9392455,70.3537972 42.4522296,70.7827462 43.113624,71.0981971 C44.6327091,71.7850257 46.7748692,72.336693 48.9140695,72.7133522 C51.0508192,73.1243193 53.2914381,73.38315 55.4903639,73.6194109 C64.3767881,74.4519864 72.9578433,74.5081031 80.2782971,74.494239 C87.6106738,74.4718594 93.7498115,74.2813199 98.0429938,74.1523354 C102.339835,73.99842 104.795208,73.9104571 104.795208,73.9104571 L104.848315,73.9085773 C108.730631,73.7694996 111.990706,76.8040557 112.129728,80.6864277 C112.26885,84.5687996 109.23425,87.8288186 105.351922,87.9678964 C105.170088,87.97442 104.973988,87.9729431 104.795208,87.9658039 C104.795208,87.9658039 102.302428,87.8576659 97.9401487,87.6683908 C93.575016,87.4537372 87.34241,87.1538735 79.8399152,86.5821207 C76.0912218,86.3094706 72.0210518,85.9470336 67.70963,85.4943847 C63.3915839,85.0123737 58.8378811,84.4588713 54.0776821,83.6073964 C51.6900911,83.1574442 49.2666256,82.6834452 46.756417,81.9936625 C44.2515122,81.3111756 41.6951347,80.5452129 38.8786421,78.9880543 C37.466576,78.0701233 35.8456638,77.127362 34.4927133,74.7980753 C34.2001874,74.1621713 33.8977753,73.5332946 33.753248,72.8358133 C33.6431685,72.1371235 33.5030222,71.3588185 33.5901682,70.7133809 C33.6861793,69.3232299 34.1141632,68.2099029 34.5778201,67.3039448 C35.5377491,65.4865234 36.6381296,64.4084106 37.6986578,63.3721923 C38.7693797,62.3405562 39.8423425,61.5273503 40.9145918,60.7086892 C45.1938093,57.5795459 49.503905,55.1432347 53.469904,52.5286533 C55.4261514,51.234975 57.3647637,49.9102563 58.8332992,48.5347303 C59.5866231,47.8671706 60.1808451,47.129339 60.4042658,46.689631 C60.5410497,46.4613707 60.5253505,46.3889056 60.5640838,46.41622 C60.6157581,46.4057183 60.5421686,46.4359419 60.6044453,46.4158115 C60.6181025,46.3918598 60.535645,46.3361067 60.5398243,46.268733 C60.2900069,45.9426236 59.6137357,45.3920754 58.7457446,45.001194 C57.9013975,44.5878381 56.9427915,44.2195824 55.9482104,43.9214531 C53.9770861,43.2877871 51.8932304,42.8503787 49.8615583,42.4610751 C45.7784471,41.7018878 41.8106132,41.238077 38.1460055,40.8667666 C34.4797668,40.4863813 31.0969821,40.2328937 28.0970275,40.0318468 C25.0963569,39.8117383 22.4786201,39.6955437 20.3208698,39.567885 C15.9932397,39.3714765 13.5203377,39.2592542 13.5203377,39.2592542 C13.1021408,39.2408582 12.778019,38.8869254 12.7964668,38.4687242 C12.8138966,38.0717281 13.1378142,37.7593822 13.5279822,37.7446004 Z" id="Shape"></path>
                        <path d="M13.7329412,0.02794088 C6.14847009,0.02794088 0,6.17633544 0,13.7608065 C0,25.3639329 13.7329412,32.6571228 13.7329412,32.6571228 C13.7329412,32.6571228 27.4658069,25.5359924 27.4658069,13.7608065 C27.4658069,6.17633544 21.317334,0.02794088 13.7329412,0.02794088 Z M13.7328642,21.8331101 C9.25480849,21.8331101 5.62455344,18.2028606 5.62455344,13.7247251 C5.62455344,9.24666805 9.25480864,5.61641564 13.7328642,5.61641564 C18.2109982,5.61641564 21.8412534,9.24666791 21.8412534,13.7247251 C21.8412534,18.2028606 18.2109982,21.8331101 13.7328642,21.8331101 Z" id="Shape"></path>
                        <path d="M106.70696,6.05699923 C92.7379649,6.05699923 81.4137858,17.3810412 81.4137858,31.3500336 C81.4137858,52.7205414 106.70696,66.153065 106.70696,66.153065 C106.70696,66.153065 132,53.0374472 132,31.3500336 C132,17.3810412 120.67581,6.05699923 106.70696,6.05699923 Z M106.706826,46.2175176 C98.4591868,46.2175176 91.7730255,39.5313563 91.7730255,31.283583 C91.7730255,23.0359496 98.4591868,16.3497856 106.706826,16.3497856 C114.954599,16.3497856 121.64076,23.0359496 121.64076,31.283583 C121.64076,39.5313563 114.954599,46.2175176 106.706826,46.2175176 Z" id="Shape"></path>
                    </g>
                </g>
            </g>
        </g>
    </g>
</svg>