<?xml version="1.0" encoding="UTF-8"?>
<svg width="113px" height="113px" viewBox="0 0 113 113" version="1.1" xmlns="http://www.w3.org/2000/svg" xmlns:xlink="http://www.w3.org/1999/xlink">
    <!-- Generator: Sketch 52.2 (67145) - http://www.bohemiancoding.com/sketch -->
    <title>noun_activity_1943675</title>
    <desc>Created with Sketch.</desc>
    <g id="Page-1" stroke="none" stroke-width="1" fill="none" fill-rule="evenodd">
        <g id="about-us---vsichni-2-copy-5" transform="translate(-929.000000, -2493.000000)" fill="#E0E2E5" fill-rule="nonzero">
            <g id="Group-13" transform="translate(250.000000, 2467.000000)">
                <g id="noun_activity_1943675" transform="translate(679.000000, 26.000000)">
                    <path d="M93.3025187,46.5904563 C90.7043894,64.6679894 74.8263108,78.3001365 56.3650348,78.3001365 C37.9037587,78.3001365 22.0256801,64.6679894 19.4275508,46.5904563 C19.3155625,45.8245846 18.7388226,45.2085573 17.9791685,45.0439134 C17.2101819,44.8755696 16.431863,45.2011576 16.0100403,45.8504836 L10,55.1001424 L13.1394062,57.1017685 L16.6633056,51.6777686 C21.3350854,69.2521203 37.6461855,82 56.3650348,82 C76.6722518,82 94.1386982,67.0026033 97,47.1121371 L93.3025187,46.5904563 Z" id="Shape"></path>
                    <path d="M98.8605938,24.89915 L95.3366944,30.32335 C90.6649146,12.74835 74.3538145,0 55.6349652,0 C35.3277482,0 17.8613018,14.99795 15,34.88915 L18.6956149,35.409 C21.2956106,17.33265 37.1736892,3.7 55.6349652,3.7 C74.0962413,3.7 89.9743199,17.33265 92.5724492,35.41085 C92.6844375,36.17675 93.2611774,36.7928 94.0208315,36.95745 C94.1552175,36.9852 94.2896035,37 94.4202566,37 C95.0455248,37 95.6409294,36.68735 95.9899597,36.15085 L102,26.90085 L98.8605938,24.89915 Z" id="Shape"></path>
                    <path d="M55.5,60 C65.7009,60 74,51.7009 74,41.5 C74,31.2991 65.7009,23 55.5,23 C45.2991,23 37,31.2991 37,41.5 C37,51.7009 45.2991,60 55.5,60 Z M55.5,26.7 C63.66035,26.7 70.3,33.33965 70.3,41.5 C70.3,49.66035 63.66035,56.3 55.5,56.3 C47.33965,56.3 40.7,49.66035 40.7,41.5 C40.7,33.33965 47.33965,26.7 55.5,26.7 Z" id="Shape"></path>
                    <path d="M25.2912941,34.1821176 C24.5195294,34.4381176 24,35.1571765 24,35.9684706 L24,46.0315294 C24,46.8447059 24.5195294,47.5618824 25.2912941,47.8178824 L31.0268235,49.7171765 L32.1863529,52.5087059 L29.7618824,57.6136471 C29.4701176,58.2291765 29.5322353,58.9557647 29.9275294,59.5110588 C32.0131765,62.4456471 34.5562353,64.9868235 37.4908235,67.0743529 C38.048,67.4696471 38.7783529,67.5298824 39.3882353,67.24 L44.4912941,64.8155294 L47.2847059,65.9750588 L49.184,71.7105882 C49.4381176,72.4804706 50.1571765,73 50.9684706,73 L61.0315294,73 C61.8447059,73 62.5618824,72.4804706 62.8178824,71.7087059 L64.6889412,66.0597647 C65.6752941,65.7152941 66.6484706,65.3124706 67.5915294,64.8512941 L72.6136471,67.2381176 C73.2254118,67.5298824 73.9557647,67.4677647 74.5110588,67.0724706 C77.4456471,64.9868235 79.9868235,62.4437647 82.0743529,59.5091765 C82.4696471,58.9538824 82.5317647,58.2272941 82.24,57.6117647 L79.8531765,52.5877647 C80.3143529,51.6428235 80.7190588,50.6715294 81.0616471,49.6851765 L86.7105882,47.816 C87.4804706,47.5618824 88,46.8428235 88,46.0315294 L88,35.9684706 C88,35.1552941 87.4804706,34.4381176 86.7087059,34.1821176 L81.0597647,32.3129412 C80.7171765,31.3265882 80.3143529,30.3552941 79.8512941,29.4084706 L82.2381176,24.3863529 C82.5298824,23.7708235 82.4677647,23.0442353 82.0724706,22.4889412 C79.9868235,19.5543529 77.4437647,17.0131765 74.5091765,14.9256471 C73.9538824,14.5303529 73.2235294,14.472 72.6117647,14.76 L67.5896471,17.1468235 C66.6428235,16.6856471 65.6715294,16.2809412 64.6851765,15.9383529 L62.816,10.2894118 C62.5618824,9.51952941 61.8428235,9 61.0315294,9 L50.9684706,9 C50.1552941,9 49.4381176,9.51952941 49.1821176,10.2912941 L47.2828235,16.0268235 L44.4912941,17.1844706 L39.3863529,14.7618824 C38.7689412,14.4701176 38.0423529,14.5341176 37.4889412,14.9275294 C34.5543529,17.0131765 32.0131765,19.5562353 29.9256471,22.4908235 C29.5303529,23.0461176 29.4682353,23.7727059 29.76,24.3882353 L32.1844706,29.4912941 L31.0249412,32.2847059 L25.2912941,34.1821176 Z M33.0258824,35.5863529 C33.5435294,35.4150588 33.9632941,35.0254118 34.1722353,34.5228235 L35.9830588,30.1614118 C36.1863529,29.6682353 36.1731765,29.1110588 35.9435294,28.6329412 L33.6432941,23.7934118 C35.1322353,21.8621176 36.8564706,20.1378824 38.7877647,18.6489412 L43.6291765,20.9472941 C44.1110588,21.1769412 44.6682353,21.1901176 45.1576471,20.9868235 L49.5171765,19.1778824 C50.0235294,18.9689412 50.4131765,18.5491765 50.5825882,18.0315294 L52.3294118,12.7647059 L59.6705882,12.7647059 L61.4136471,18.0258824 C61.6056471,18.6075294 62.0687059,19.0574118 62.6522353,19.2362353 C64.0282353,19.656 65.3835294,20.2169412 66.6767059,20.9077647 C67.2037647,21.1863529 67.8287059,21.1995294 68.3689412,20.9472941 L73.2084706,18.6470588 C75.1397647,20.136 76.864,21.8602353 78.3529412,23.7915294 L76.0527059,28.6310588 C75.7967059,29.1694118 75.8117647,29.7962353 76.0922353,30.3232941 C76.7811765,31.6164706 77.344,32.9698824 77.7637647,34.3477647 C77.9425882,34.9331765 78.3924706,35.3962353 78.9741176,35.5863529 L84.2352941,37.3294118 L84.2352941,44.6705882 L78.9741176,46.4136471 C78.3924706,46.6056471 77.9425882,47.0687059 77.7637647,47.6522353 C77.344,49.0301176 76.7830588,50.3835294 76.0941176,51.6748235 C75.8136471,52.2 75.7985882,52.8287059 76.0545882,53.3670588 L78.3548235,58.2084706 C76.8658824,60.1397647 75.1416471,61.864 73.2103529,63.3529412 L68.3708235,61.0527059 C67.8305882,60.7967059 67.2056471,60.8098824 66.6785882,61.0922353 C65.3929412,61.7774118 64.0395294,62.3402353 62.6522353,62.7656471 C62.0668235,62.9444706 61.6056471,63.3943529 61.4155294,63.9741176 L59.6705882,69.2352941 L52.3294118,69.2352941 L50.5863529,63.9741176 C50.4150588,63.4564706 50.0254118,63.0367059 49.5228235,62.8277647 L45.1614118,61.0169412 C44.6682353,60.8155294 44.1110588,60.8268235 43.6329412,61.0564706 L38.7934118,63.3567059 C36.8621176,61.8677647 35.1378824,60.1435294 33.6489412,58.2122353 L35.9491765,53.3708235 C36.1769412,52.8889412 36.192,52.3336471 35.9887059,51.8423529 L34.1778824,47.4828235 C33.9689412,46.9783529 33.5491765,46.5887059 33.0315294,46.4192941 L27.7647059,44.6705882 L27.7647059,37.3294118 L33.0258824,35.5863529 Z" id="Shape"></path>
                    <path d="M52.3446667,41.6035713 L53.8799167,39.3349299 L56.5728333,48.6305038 C56.7894167,49.378532 57.4525833,49.9225526 58.2384167,49.9943331 C58.2978333,49.998111 58.3591667,50 58.4166667,50 C59.1373333,50 59.8043333,49.5995404 60.1320833,48.9554049 L63.4345,42.4441586 L68,42.4441586 L68,38.6662379 L62.25,38.6662379 C61.5235833,38.6662379 60.8604167,39.0704754 60.5345833,39.710833 L58.9035,42.9220656 L56.42525,34.3707421 C56.2201667,33.662382 55.6145,33.137251 54.8765833,33.0220244 C54.131,32.9105758 53.40075,33.2279211 52.98675,33.8418332 L49.7245833,38.6662379 L45,38.6662379 L45,42.4441586 L50.75,42.4441586 C51.3901667,42.4441586 51.9881667,42.1287022 52.3446667,41.6035713 Z" id="Shape"></path>
                    <path d="M108.760333,83.0419048 C109.028667,82.2666667 109.166667,81.4495238 109.166667,80.6190476 C109.166667,76.4171429 105.728167,73 101.5,73 C97.2718333,73 93.8333333,76.4171429 93.8333333,80.6190476 C93.8333333,81.4495238 93.9713333,82.2666667 94.2396667,83.0419048 C91.75375,84.0704762 90,86.5104762 90,89.3485714 L90,97.7619048 C90,98.4838095 90.4101667,99.1428571 91.0599167,99.4666667 L93.8333333,100.84381 L93.8333333,111.095238 C93.8333333,112.148571 94.6900833,113 95.75,113 L107.25,113 C108.309917,113 109.166667,112.148571 109.166667,111.095238 L109.166667,100.84381 L111.940083,99.4647619 C112.589833,99.1428571 113,98.4838095 113,97.7619048 L113,89.3485714 C113,86.5104762 111.24625,84.0704762 108.760333,83.0419048 Z M109.166667,96.5847619 L106.39325,97.9638095 C105.7435,98.2857143 105.333333,98.9447619 105.333333,99.6666667 L105.333333,109.190476 L97.6666667,109.190476 L97.6666667,99.6666667 C97.6666667,98.9447619 97.2565,98.2857143 96.60675,97.9619048 L93.8333333,96.5847619 L93.8333333,89.3485714 C93.8333333,87.6857143 95.1960833,86.3333333 96.8693333,86.3333333 L97.2411667,86.3333333 C97.99825,86.3333333 98.6844167,85.8914286 98.993,85.2019048 C99.2996667,84.5161905 99.1731667,83.712381 98.66525,83.1542857 C98.0231667,82.4419048 97.6666667,81.5428571 97.6666667,80.6190476 C97.6666667,78.5180952 99.3859167,76.8095238 101.5,76.8095238 C103.614083,76.8095238 105.333333,78.5180952 105.333333,80.6190476 C105.333333,81.5428571 104.976833,82.4419048 104.33475,83.1542857 C103.826833,83.712381 103.700333,84.5161905 104.007,85.2019048 C104.315583,85.8914286 105.00175,86.3333333 105.758833,86.3333333 L106.130667,86.3333333 C107.803917,86.3333333 109.166667,87.6857143 109.166667,89.3485714 L109.166667,96.5847619 Z" id="Shape"></path>
                    <polygon id="Rectangle-path" points="100 89 104 89 104 94 100 94"></polygon>
                    <path d="M1.05991667,99.4666667 L3.83333333,100.84381 L3.83333333,111.095238 C3.83333333,112.148571 4.69008333,113 5.75,113 L17.25,113 C18.3099167,113 19.1666667,112.148571 19.1666667,111.095238 L19.1666667,100.84381 L21.9400833,99.4647619 C22.5898333,99.1428571 23,98.4838095 23,97.7619048 L23,89.3485714 C23,86.5104762 21.24625,84.0704762 18.7603333,83.0419048 C19.0286667,82.2666667 19.1666667,81.4495238 19.1666667,80.6190476 C19.1666667,76.4171429 15.7281667,73 11.5,73 C7.27183333,73 3.83333333,76.4171429 3.83333333,80.6190476 C3.83333333,81.4495238 3.97133333,82.2666667 4.23966667,83.0419048 C1.75375,84.0704762 0,86.5104762 0,89.3485714 L0,97.7619048 C0,98.4838095 0.410166667,99.1428571 1.05991667,99.4666667 Z M3.83333333,89.3485714 C3.83333333,87.6857143 5.19608333,86.3333333 6.86933333,86.3333333 L7.24116667,86.3333333 C7.99825,86.3333333 8.68441667,85.8914286 8.993,85.2019048 C9.29966667,84.5161905 9.17316667,83.712381 8.66525,83.1542857 C8.02316667,82.4419048 7.66666667,81.5428571 7.66666667,80.6190476 C7.66666667,78.5180952 9.38591667,76.8095238 11.5,76.8095238 C13.6140833,76.8095238 15.3333333,78.5180952 15.3333333,80.6190476 C15.3333333,81.5428571 14.9768333,82.4419048 14.33475,83.1542857 C13.8268333,83.712381 13.7003333,84.5161905 14.007,85.2019048 C14.3155833,85.8914286 15.00175,86.3333333 15.7588333,86.3333333 L16.1306667,86.3333333 C17.8039167,86.3333333 19.1666667,87.6857143 19.1666667,89.3485714 L19.1666667,96.5847619 L16.39325,97.9638095 C15.7435,98.2857143 15.3333333,98.9447619 15.3333333,99.6666667 L15.3333333,109.190476 L7.66666667,109.190476 L7.66666667,99.6666667 C7.66666667,98.9447619 7.2565,98.2857143 6.60675,97.9619048 L3.83333333,96.5847619 L3.83333333,89.3485714 Z" id="Shape"></path>
                    <polygon id="Rectangle-path" points="9 89 13 89 13 94 9 94"></polygon>
                    <polygon id="Rectangle-path" points="27 96 31 96 31 100 27 100"></polygon>
                    <polygon id="Rectangle-path" points="33 96 37 96 37 100 33 100"></polygon>
                    <polygon id="Rectangle-path" points="41 96 45 96 45 100 41 100"></polygon>
                    <polygon id="Rectangle-path" points="49 96 53 96 53 100 49 100"></polygon>
                    <polygon id="Rectangle-path" points="60 96 64 96 64 100 60 100"></polygon>
                    <polygon id="Rectangle-path" points="68 96 72 96 72 100 68 100"></polygon>
                    <polygon id="Rectangle-path" points="76 96 80 96 80 100 76 100"></polygon>
                    <polygon id="Rectangle-path" points="83 96 87 96 87 100 83 100"></polygon>
                    <polygon id="Rectangle-path" points="60 89 64 89 64 93 60 93"></polygon>
                    <polygon id="Rectangle-path" points="49 89 53 89 53 93 49 93"></polygon>
                </g>
            </g>
        </g>
    </g>
</svg>