<?xml version="1.0" encoding="UTF-8"?>
<svg width="92px" height="81px" viewBox="0 0 92 81" version="1.1" xmlns="http://www.w3.org/2000/svg" xmlns:xlink="http://www.w3.org/1999/xlink">
    <!-- Generator: Sketch 52.2 (67145) - http://www.bohemiancoding.com/sketch -->
    <title>noun_Button_993212</title>
    <desc>Created with Sketch.</desc>
    <g id="Page-1" stroke="none" stroke-width="1" fill="none" fill-rule="evenodd">
        <g id="about-us---vsichni-2-copy-5" transform="translate(-435.000000, -2774.000000)" fill="#E0E2E5" fill-rule="nonzero">
            <g id="Group-11-Copy" transform="translate(435.000000, 2763.000000)">
                <g id="noun_Button_993212" transform="translate(0.000000, 11.000000)">
                    <g id="Group">
                        <path d="M80,0 L12,0 C5.37565344,0.00740683163 0.00740683163,5.37565344 -2.66453526e-15,12 L-2.66453526e-15,58 C0.00740683163,64.6243466 5.37565344,69.9925932 12,70 L36.97021,70 C38.0747795,70 38.97021,69.1045695 38.97021,68 C38.97021,66.8954305 38.0747795,66 36.97021,66 L12,66 C7.58381687,65.9949466 4.00505337,62.4161831 4,58 L4,12 C4.00505337,7.58381687 7.58381687,4.00505337 12,4 L80,4 C84.4161831,4.00505337 87.9949466,7.58381687 88,12 L88,58 C88.0026377,58.7154444 87.9068499,59.4278514 87.71533,60.11719 C87.415456,61.1802304 88.0341246,62.2850909 89.097165,62.584965 C90.1602054,62.884839 91.2650659,62.2661704 91.56494,61.20313 C91.8561039,60.1604108 92.0024951,59.082605 92,58 L92,12 C91.9925932,5.37565344 86.6243466,0.00740683163 80,0 Z" id="Shape"></path>
                        <path d="M16.5,23.5 C16.5,27.3659932 19.6340068,30.5 23.5,30.5 C27.3659932,30.5 30.5,27.3659932 30.5,23.5 C30.5,19.6340068 27.3659932,16.5 23.5,16.5 C19.6358754,16.5045076 16.5045076,19.6358754 16.5,23.5 Z M26.5,23.5 C26.5,25.1568542 25.1568542,26.5 23.5,26.5 C21.8431458,26.5 20.5,25.1568542 20.5,23.5 C20.5,21.8431458 21.8431458,20.5 23.5,20.5 C25.1561049,20.5018077 26.4981923,21.8438951 26.5,23.5 Z" id="Shape"></path>
                        <path d="M85,49.91992 C86.1045466,49.9198648 86.9999448,49.0244666 87,47.91992 L87,13 C86.9949466,8.58381687 83.4161831,5.00505337 79,5 L13,5 C8.58381687,5.00505337 5.00505337,8.58381687 5,13 L5,57 C5.00505337,61.4161831 8.58381687,64.9949466 13,65 L35.1499,65 C36.2544695,65 37.1499,64.1045695 37.1499,63 C37.1499,61.8954305 36.2544695,61 35.1499,61 L13,61 C10.7918366,60.9976466 9.00235345,59.2081634 9,57 L9,13 C9.00235345,10.7918366 10.7918366,9.00235345 13,9 L79,9 C81.2081634,9.00235345 82.9976466,10.7918366 83,13 L83,47.91992 C83.0000552,49.0244666 83.8954534,49.9198648 85,49.91992 Z" id="Shape"></path>
                        <path d="M45.48047,79.68457 C45.8585476,80.7225312 47.0064738,81.2574726 48.044435,80.879395 C49.0823962,80.5013174 49.6173376,79.3533912 49.23926,78.31543 L41.56934,57.24512 C38.1698755,47.9029335 42.9874035,37.5737845 52.32959,34.17432 C61.6717765,30.7748555 72.0009255,35.5923835 75.40039,44.93457 L88.05078,79.68457 C88.3386279,80.4745187 89.0894214,81.0004137 89.93018,81.001 C90.1636226,81.0009862 90.3952206,80.9596589 90.61426,80.87893 C91.1128026,80.6976266 91.518861,80.3256355 91.7430449,79.8448474 C91.9672287,79.3640593 91.9911598,78.8138883 91.80957,78.31545 L79.15869,43.56545 C75.0006504,32.1509751 62.3780316,26.2669257 50.9623675,30.4216993 C39.5467034,34.5764729 33.6590428,47.1974076 37.81055,58.61426 L45.48047,79.68457 Z" id="Shape"></path>
                        <path d="M79.9624,61.68555 L74.78369,46.34863 C72.7209221,40.6766916 67.7860066,36.5382453 61.8414355,35.4951868 C55.8968643,34.4521283 49.8478218,36.6632849 45.9772838,41.2941414 C42.1067458,45.924998 41.004082,52.2704106 43.08545,57.93555 L48.95945,72.96875 C49.3535825,73.9817398 50.4852512,74.4937651 51.50633,74.12109 L78.75145,64.20409 C79.7720725,63.8327344 80.3096812,62.7146132 79.9624,61.68555 Z M51.97412,69.69336 L46.82764,56.52344 C44.3963899,49.8493315 47.8294871,42.4670976 54.4998902,40.0256998 C61.1702933,37.5843019 68.5577401,41.0061677 71.00928,47.67285 L75.54737,61.11426 L51.97412,69.69336 Z" id="Shape"></path>
                    </g>
                </g>
            </g>
        </g>
    </g>
</svg>