<?xml version="1.0" encoding="UTF-8"?>
<svg width="145px" height="119px" viewBox="0 0 145 119" version="1.1" xmlns="http://www.w3.org/2000/svg" xmlns:xlink="http://www.w3.org/1999/xlink">
    <!-- Generator: Sketch 52.2 (67145) - http://www.bohemiancoding.com/sketch -->
    <title>Combined Shape</title>
    <desc>Created with Sketch.</desc>
    <g id="Page-1" stroke="none" stroke-width="1" fill="none" fill-rule="evenodd">
        <g id="about-us---vsichni-2-copy-5" transform="translate(-887.000000, -1970.000000)" fill="#E0E2E5" fill-rule="nonzero">
            <g id="Group-10" transform="translate(250.000000, 1970.000000)">
                <path d="M679.530416,118.497 L679.530416,102.961899 L637,118.497 L637,16.1639077 L696.263628,0 L696.263628,6.44337586 L696.263628,11.5993876 L738.793539,0 L738.793539,6.44337586 L738.793539,11.5993876 L781.323955,0 L781.323955,96.850323 L722.060327,118.497 L722.060327,102.961899 L679.530416,118.497 Z M745.21624,68.2514764 C743.464457,69.3210022 741.756544,70.2906854 740.142422,71.1353132 L739.172235,69.283183 C740.747024,68.4612467 742.413589,67.5107252 744.127049,66.4648994 L745.21624,68.2514764 Z M764.043625,54.6774245 C762.588848,55.8614163 761.066501,57.0711251 759.503309,58.2803296 L758.223509,56.6243548 C759.775607,55.4257396 761.282323,54.228133 762.725502,53.0537221 L764.043625,54.6774245 Z M734.822527,73.6157456 C732.785336,74.435665 730.873703,75.0327034 729.143603,75.389212 L728.725071,73.3409264 C730.332133,73.0086221 732.120727,72.4504114 734.043453,71.6773878 L734.822527,73.6157456 Z M772.883727,47.1816676 C771.579218,48.3369168 770.105784,49.6162128 768.501747,50.9761897 L767.150847,49.3802213 C768.738748,48.0318423 770.201593,46.7626314 771.501059,45.612929 L772.883727,47.1816676 Z M754.864664,61.7632218 C753.296429,62.9018306 751.708529,64.0237989 750.110039,65.1029055 L748.938654,63.3702839 C750.515461,62.3032794 752.087225,61.196943 753.63428,60.0694278 L754.864664,61.7632218 Z M775.746385,92.9504115 L775.746385,7.30413987 L727.638905,20.4233533 L727.638905,110.522705 L775.746385,92.9504115 Z M733.21597,13.1212305 L733.21597,12.1399494 L731.903393,13.4782433 L733.21597,13.1212305 Z M707.835785,45.8771588 L707.16563,47.8598912 C705.627147,47.3394996 703.826451,47.0641761 701.816993,47.0424931 L701.838171,44.9513459 C704.069502,44.9755501 706.087028,45.2866757 707.835785,45.8771588 Z M715.96287,54.7096969 L713.947361,55.27648 C713.424448,53.418803 712.60705,51.8606537 711.515337,50.6459024 L713.06794,49.2465936 C714.377491,50.7008662 715.352721,52.5393815 715.96287,54.7096969 Z M696.258585,47.5089294 C694.534536,47.7918167 692.676355,48.2063146 690.740014,48.7367914 L690.184828,46.7212824 C692.194286,46.1691227 694.123063,45.7384886 695.920734,45.4445077 L696.258585,47.5089294 Z M714.669455,61.1808068 L714.66643,60.7012599 L716.758081,60.6684833 L716.760602,61.1808068 C716.760602,63.0571412 716.907341,64.7509352 717.196279,66.219327 L715.142951,66.6222271 C714.829808,65.0232332 714.669455,63.1902647 714.669455,61.1808068 Z M722.060327,16.1639077 L730.452146,8.0595145 L685.108489,20.4238576 L685.108489,49.8784256 L685.312208,50.4563024 C685.244638,50.4805066 685.176564,50.5102577 685.108489,50.534462 L685.108489,110.523209 L722.060327,97.0252996 L722.060327,75.3261801 C720.240973,74.789148 718.716105,73.8023202 717.555813,72.3263645 L719.200694,71.0349664 C719.971701,72.0147347 720.916676,72.7090944 722.060327,73.1483009 L722.060327,16.1639077 Z M690.685554,13.1212305 L690.685554,12.1399494 L689.372977,13.4782433 L690.685554,13.1212305 Z M658.423796,60.9190982 C660.049011,59.9953023 661.74331,59.0538574 663.491563,58.113421 L664.483434,59.9549619 C662.750812,60.8888429 661.068112,61.8202027 659.458528,62.7384518 L658.423796,60.9190982 Z M668.635977,55.4343119 C670.352463,54.5705224 672.100716,53.7238775 673.859055,52.909505 L674.736459,54.8110522 C672.999299,55.6143311 671.272224,56.4503866 669.572884,57.3025783 L668.635977,55.4343119 Z M648.479879,66.8672953 C649.952809,65.9414823 651.61181,64.9203651 653.420069,63.8392414 L654.493125,65.6359035 C652.701001,66.7064378 651.053095,67.7225125 649.590754,68.6377361 L648.479879,66.8672953 Z M642.578074,110.522705 L679.530416,97.0247954 L679.530416,51.4174132 L679.181975,50.5753066 C679.298962,50.5274024 679.412924,50.4895832 679.530416,50.441679 L679.530416,16.1634035 L687.922234,8.05901025 L642.578074,20.4233533 L642.578074,70.6804748 C642.877601,70.4802854 643.217974,70.254379 643.612806,69.9941832 L644.762508,71.742941 C643.547757,72.5462199 642.807006,73.0494668 642.578074,73.2052817 L642.578074,110.522705 Z" id="Combined-Shape"></path>
            </g>
        </g>
    </g>
</svg>