<?xml version="1.0" encoding="UTF-8"?>
<svg width="44px" height="44px" viewBox="0 0 44 44" version="1.1" xmlns="http://www.w3.org/2000/svg" xmlns:xlink="http://www.w3.org/1999/xlink">
    <!-- Generator: Sketch 46.2 (44496) - http://www.bohemiancoding.com/sketch -->
    <title>1</title>
    <desc>Created with Sketch.</desc>
    <defs></defs>
    <g id="v2" stroke="none" stroke-width="1" fill="none" fill-rule="evenodd">
        <g id="Join-from-desktop" transform="translate(-228.000000, -420.000000)" fill="#FFFFFF">
            <path d="M250,464 C237.849736,464 228,454.150264 228,442 C228,429.849736 237.849736,420 250,420 C262.150264,420 272,429.849736 272,442 C272,454.150264 262.150264,464 250,464 Z M254.42,447.78 L251.3,447.78 L251.3,432.624 L248.864,432.624 L243.572,437.124 L244.508,438.408 C244.556,438.48 244.628,438.546 244.724,438.606 C244.82,438.666 244.929999,438.708 245.054,438.732 C245.178001,438.756 245.309999,438.754 245.45,438.726 C245.590001,438.698 245.731999,438.628001 245.876,438.516 L248.372,436.428 C248.348,436.852002 248.336,437.263998 248.336,437.664 L248.336,447.78 L244.82,447.78 L244.82,450 L254.42,450 L254.42,447.78 Z M257.303429,448.368 C257.303429,448.624001 257.349428,448.861999 257.441429,449.082 C257.533429,449.302001 257.659428,449.491999 257.819429,449.652 C257.979429,449.812001 258.171427,449.938 258.395429,450.03 C258.61943,450.122 258.859427,450.168 259.115429,450.168 C259.37143,450.168 259.609427,450.122 259.829429,450.03 C260.04943,449.938 260.241428,449.812001 260.405429,449.652 C260.569429,449.491999 260.699428,449.302001 260.795429,449.082 C260.891429,448.861999 260.939429,448.624001 260.939429,448.368 C260.939429,448.119999 260.891429,447.884001 260.795429,447.66 C260.699428,447.435999 260.569429,447.244001 260.405429,447.084 C260.241428,446.923999 260.04943,446.796 259.829429,446.7 C259.609427,446.604 259.37143,446.556 259.115429,446.556 C258.859427,446.556 258.61943,446.604 258.395429,446.7 C258.171427,446.796 257.979429,446.923999 257.819429,447.084 C257.659428,447.244001 257.533429,447.435999 257.441429,447.66 C257.349428,447.884001 257.303429,448.119999 257.303429,448.368 Z" id="1"></path>
        </g>
    </g>
</svg>