<?xml version="1.0" encoding="UTF-8"?>
<svg width="44px" height="44px" viewBox="0 0 44 44" version="1.1" xmlns="http://www.w3.org/2000/svg" xmlns:xlink="http://www.w3.org/1999/xlink">
    <!-- Generator: Sketch 46.2 (44496) - http://www.bohemiancoding.com/sketch -->
    <title>2</title>
    <desc>Created with Sketch.</desc>
    <defs></defs>
    <g id="v2" stroke="none" stroke-width="1" fill="none" fill-rule="evenodd">
        <g id="Join-from-desktop" transform="translate(-228.000000, -521.000000)" fill="#FFFFFF">
            <path d="M250,565 C237.849736,565 228,555.150264 228,543 C228,530.849736 237.849736,521 250,521 C262.150264,521 272,530.849736 272,543 C272,555.150264 262.150264,565 250,565 Z M253.772,548.24 L249.32,548.24 C248.983998,548.24 248.630002,548.27 248.258,548.33 C247.885998,548.39 247.512002,548.475999 247.136,548.588 L251.048,544.592 C251.512002,544.111998 251.955998,543.640002 252.38,543.176 C252.804002,542.711998 253.173998,542.232002 253.49,541.736 C253.806002,541.239998 254.057999,540.720003 254.246,540.176 C254.434001,539.631997 254.528,539.040003 254.528,538.4 C254.528,537.655996 254.396001,536.980003 254.132,536.372 C253.867999,535.763997 253.500002,535.244002 253.028,534.812 C252.555998,534.379998 251.988003,534.046001 251.324,533.81 C250.659997,533.573999 249.928004,533.456 249.128,533.456 C248.359996,533.456 247.642003,533.561999 246.974,533.774 C246.305997,533.986001 245.714003,534.301998 245.198,534.722 C244.681997,535.142002 244.252002,535.665997 243.908,536.294 C243.563998,536.922003 243.332001,537.651996 243.212,538.484 L244.772,538.76 C245.180002,538.824 245.491999,538.796001 245.708,538.676 C245.924001,538.555999 246.099999,538.312002 246.236,537.944 C246.316,537.655999 246.435999,537.392001 246.596,537.152 C246.756001,536.911999 246.951999,536.702001 247.184,536.522 C247.416001,536.341999 247.681999,536.202001 247.982,536.102 C248.282002,536.002 248.607998,535.952 248.96,535.952 C249.344002,535.952 249.689998,536.005999 249.998,536.114 C250.306002,536.222001 250.569999,536.383999 250.79,536.6 C251.010001,536.816001 251.179999,537.081998 251.3,537.398 C251.420001,537.714002 251.48,538.079998 251.48,538.496 C251.48,538.952002 251.418001,539.385998 251.294,539.798 C251.169999,540.210002 250.992001,540.615998 250.76,541.016 C250.527999,541.416002 250.238002,541.819998 249.89,542.228 C249.541998,542.636002 249.148002,543.063998 248.708,543.512 L243.44,548.792 C243.255999,548.968001 243.122,549.165999 243.038,549.386 C242.954,549.606001 242.912,549.815999 242.912,550.016 L242.912,551 L254.816,551 L254.816,549.224 C254.816,548.927999 254.722001,548.690001 254.534,548.51 C254.345999,548.329999 254.092002,548.24 253.772,548.24 Z M257.303429,549.368 C257.303429,549.624001 257.349428,549.861999 257.441429,550.082 C257.533429,550.302001 257.659428,550.491999 257.819429,550.652 C257.979429,550.812001 258.171427,550.938 258.395429,551.03 C258.61943,551.122 258.859427,551.168 259.115429,551.168 C259.37143,551.168 259.609427,551.122 259.829429,551.03 C260.04943,550.938 260.241428,550.812001 260.405429,550.652 C260.569429,550.491999 260.699428,550.302001 260.795429,550.082 C260.891429,549.861999 260.939429,549.624001 260.939429,549.368 C260.939429,549.119999 260.891429,548.884001 260.795429,548.66 C260.699428,548.435999 260.569429,548.244001 260.405429,548.084 C260.241428,547.923999 260.04943,547.796 259.829429,547.7 C259.609427,547.604 259.37143,547.556 259.115429,547.556 C258.859427,547.556 258.61943,547.604 258.395429,547.7 C258.171427,547.796 257.979429,547.923999 257.819429,548.084 C257.659428,548.244001 257.533429,548.435999 257.441429,548.66 C257.349428,548.884001 257.303429,549.119999 257.303429,549.368 Z" id="2"></path>
        </g>
    </g>
</svg>