<?xml version="1.0" encoding="utf-8"?>
<!-- Generator: Adobe Illustrator 19.0.1, SVG Export Plug-In . SVG Version: 6.00 Build 0)  -->
<svg version="1.1" id="Layer_1" xmlns="http://www.w3.org/2000/svg" xmlns:xlink="http://www.w3.org/1999/xlink" x="0px" y="0px"
	 viewBox="-2685 1329.1 297.6 177.6" style="enable-background:new -2685 1329.1 297.6 177.6;" xml:space="preserve">
<style type="text/css">
	.st0{fill:#FFFFFF;}
</style>
<path id="SVGID_1_" class="st0" d="M-2470.9,1393.2c-0.9,5.2-1.5,11-1.9,17.1c4-8.5,6-15.4,6-20.7c0-1.3-0.1-2.4-0.4-3.1
	c-0.2-0.7-0.5-1.1-0.8-1.1C-2469,1385.3-2470,1387.9-2470.9,1393.2z M-2481.2,1423.6c0.6-0.5,1.4-1.5,2.4-3
	c-0.3-2.5-0.5-5.1-0.5-7.8c0-1.1,0-1.9,0.1-2.5c-1.9,0.5-3.4,1.8-4.7,3.8c-1.2,2-1.9,4.1-1.9,6.5c0,2.5,0.9,3.8,2.6,3.8
	C-2482.5,1424.3-2481.9,1424.1-2481.2,1423.6z M-2501.7,1401.3c-0.7-0.7-1.1-1.6-1.1-2.8c0-1.2,0.5-2.2,1.4-3s2.1-1.2,3.4-1.2
	c1.2,0,2.2,0.3,3,0.9s1.2,1.5,1.2,2.6c0,1.4-0.4,2.5-1.3,3.3s-2,1.2-3.5,1.2C-2500,1402.3-2501,1402-2501.7,1401.3z M-2547.1,1446.2
	c1.2-2.1,2.3-5.4,3.3-9.9c-2.8,2.3-4.9,4.3-6.1,6.2c-1.2,1.9-1.9,3.4-1.9,4.8c0,0.6,0.1,1.1,0.4,1.5c0.3,0.4,0.6,0.6,1.2,0.6
	C-2549.3,1449.3-2548.3,1448.3-2547.1,1446.2z M-2543,1423.8c0.7-1,1.3-2.4,1.6-4.3l1.7-9.2c-1.4,0-2.8,0.6-4,1.7s-2.2,2.5-2.9,4.3
	s-1.1,3.7-1.1,5.7c0,1.1,0.2,1.9,0.7,2.5c0.4,0.5,1,0.8,1.8,0.8C-2544.5,1425.3-2543.8,1424.8-2543,1423.8z M-2580.7,1386
	c0.6,0.4,0.9,1,0.9,1.6c0,1.1-0.3,2-1,2.7s-1.7,1-3,1c-2,0-3.6,0-4.6,0.1l-0.9,5.6c-0.6,3.7-1,6-1.2,6.8l-1.1,6.8
	c-0.8,5.1-1.4,9.4-1.8,12.9c0.7,0,1.7-0.1,3-0.1c1.8,0,3.1,0.2,3.8,0.7s1,1.2,1,2.2c0,0.9-0.4,1.7-1.1,2.3c-0.7,0.6-1.7,0.9-3,0.9
	c-0.9,0-2.3,0-4.1-0.1c-1.7-0.1-2.9-0.1-3.5-0.1c-2.2,0-4.6,0.2-7.2,0.6c-1.2,0.2-2,0.3-2.5,0.3c-0.8,0-1.4-0.2-1.9-0.6
	s-0.8-1-0.8-1.8c0-1.3,0.6-2.2,1.7-2.9c1.1-0.7,2.7-1.1,4.7-1.1l2.5-0.1l0.2-1.1c0.8-5.6,1.4-9.5,1.8-11.8l1.2-6.8
	c0.7-4,1.3-8.2,1.9-12.5h-4.6c-1.3,0-2.1-0.2-2.6-0.6s-0.7-1-0.7-1.7c0-2.4,1.7-3.6,5.1-3.8c1.6-0.1,3.6-0.1,5.9-0.1l9.6,0.1
	C-2582.1,1385.4-2581.4,1385.6-2580.7,1386z M-2491.4,1426.8c-2.5,2.4-4.8,3.6-7,3.6s-3.9-0.8-4.9-2.4s-1.5-3.6-1.5-6.1
	c-1.2,0.6-2.4,0.9-3.8,0.9c-1.9,0-3.3-0.5-4.3-1.4c-1-1-1.5-2.2-1.5-3.9c0-0.5,0.1-1.1,0.2-1.6c0.1-0.7,0.1-1.2,0.1-1.4
	c0-0.6-0.2-0.8-0.6-0.8c-0.5,0-1.2,0.6-2.1,1.8c-0.9,1.2-1.7,2.8-2.6,4.7c-0.8,1.9-1.5,4-2.1,6.2c-0.4,1.7-0.8,2.8-1.4,3.4
	c-0.5,0.6-1.3,0.9-2.4,0.9c-1.3,0-2.3-0.7-2.8-2.1c-0.3-0.8-0.6-2-0.7-3.4c-2.3,1.6-4.1,2.8-5.3,3.7l-3.4,2.3
	c-1.3,7.3-3.1,13.1-5.2,17.3c-2.2,4.2-4.9,6.3-8.2,6.3c-1.8,0-3.2-0.6-4.4-1.7c-1.1-1.1-1.7-2.6-1.7-4.4c0-2.5,1-5.2,2.9-8.1
	c2-2.9,5.6-6.4,11-10.6l0.3-2.1c-0.6,1-1.4,1.7-2.3,2.2c-1,0.5-1.9,0.8-2.9,0.8c-2.2,0-3.9-0.8-5.2-2.4c-0.3-0.3-0.5-0.7-0.7-1.1
	c-0.6,0.6-1.3,1.1-2,1.6c-1.7,1.2-3.7,1.8-5.9,1.8c-1.8,0-3.1-0.5-4-1.6c-0.9-1-1.4-2.6-1.4-4.5c0-1,0.2-2.8,0.7-5.3
	c0.5-2.2,0.7-3.8,0.7-4.6c0-0.6-0.2-0.8-0.6-0.8c-0.5,0-1.1,0.6-1.9,1.8c-0.8,1.2-1.7,2.8-2.5,4.7c-0.9,1.9-1.5,4-2.1,6.2
	c-0.4,1.7-0.8,2.8-1.3,3.4s-1.3,0.9-2.4,0.9c-1.3,0-2.3-0.7-2.8-2.1s-0.8-3.7-0.8-6.8c0-4.6,0.6-9,1.9-13.1c0.3-1,0.8-1.8,1.5-2.3
	s1.7-0.7,3-0.7c0.7,0,1.2,0.1,1.5,0.3c0.3,0.2,0.4,0.5,0.4,1c0,0.6-0.3,1.8-0.8,3.8c-0.3,1.4-0.6,2.7-0.8,3.7
	c-0.2,1.1-0.4,2.4-0.5,3.9c1.1-3,2.4-5.5,3.9-7.4c1.4-1.9,2.8-3.3,4.2-4.1c1.4-0.8,2.6-1.2,3.8-1.2c2.3,0,3.4,1.2,3.4,3.5
	c0,1.4-0.4,3.9-1.1,7.5c-0.7,3.1-1,5.1-1,6.1c0,1.4,0.5,2.1,1.5,2.1c0.7,0,1.5-0.4,2.5-1.3c0.5-0.4,1-1,1.7-1.7
	c0-2.7,0.7-5.3,1.9-7.8c1.3-2.5,3-4.6,5.2-6.1s4.4-2.3,6.9-2.3c0.8,0,1.3,0.2,1.6,0.5s0.5,0.8,0.7,1.6c0.7-0.1,1.4-0.2,2.3-0.2
	c0.9,0,1.5,0.1,1.9,0.4s0.6,0.8,0.6,1.6c0,0.4,0,0.8-0.1,1c-0.1,1.1-0.6,3.9-1.3,8.3c-0.1,0.8-0.3,1.8-0.4,2.8
	c-0.2,1-0.3,2.1-0.5,3.2c2.6-2,5.1-3.9,7.5-5.5c0.2-3.7,0.8-7.3,1.9-10.7c0.3-1,0.8-1.8,1.6-2.3c0.7-0.5,1.7-0.7,3.1-0.7
	c0.7,0,1.2,0.1,1.5,0.3c0.3,0.2,0.4,0.5,0.4,1c0,0.6-0.3,1.8-0.8,3.8c-0.4,1.4-0.6,2.7-0.8,3.7c-0.2,1.1-0.4,2.4-0.5,3.9
	c1.2-3,2.5-5.5,3.9-7.4c1.5-1.9,2.9-3.3,4.3-4.1c1.4-0.8,2.7-1.2,3.9-1.2c2.3,0,3.5,1.2,3.5,3.5c0,0.5-0.2,1.6-0.5,3.3
	c-0.3,1.4-0.4,2.3-0.4,2.7c0,1.2,0.4,1.9,1.3,1.9c0.6,0,1.4-0.3,2.3-1c0-0.1,0-0.2,0.1-0.4c0.4-2.5,0.9-4.8,1.5-7
	c0.3-1.1,0.7-1.9,1.2-2.3s1.3-0.6,2.5-0.6c1.8,0,2.6,0.6,2.6,1.8c0,0.9-0.3,2.9-1,6.2c-0.8,3.9-1.2,6.5-1.2,7.9
	c0,1.1,0.1,1.9,0.4,2.4c0.3,0.6,0.7,0.8,1.4,0.8c0.6,0,1.4-0.4,2.3-1.3c0.5-0.4,1-1,1.6-1.7v-0.1c0-2.8,0.6-5.4,1.8-7.8
	s2.8-4.3,4.9-5.9c2.1-1.5,4.4-2.4,6.9-2.8c0.7-6.6,1.9-12.4,3.8-17.3c1.9-4.9,4.3-7.4,7.4-7.4c1.5,0,2.7,0.7,3.7,2.1
	s1.5,3.4,1.5,6.2c0,3.9-0.9,8.4-2.8,13.5c-1.9,5.2-4.4,10.5-7.5,15.9c0.4,2.9,0.9,5.7,1.7,8.5c0.1,0.5,0.2,0.9,0.2,1.4
	c0,1.6-1,2.4-2.9,2.4c-1.1,0-1.9-0.3-2.5-0.9s-1.1-1.7-1.6-3.4l-0.1-0.2c-1.3,1.6-2.5,2.8-3.6,3.3c-1.1,0.6-2.3,0.8-3.7,0.8
	c-2.1,0-3.9-0.8-5.3-2.4C-2490.9,1427.3-2491.2,1427.1-2491.4,1426.8z"/>
</svg>
