<?xml version="1.0" encoding="UTF-8"?>
<svg width="147px" height="74px" viewBox="0 0 147 74" version="1.1" xmlns="http://www.w3.org/2000/svg" xmlns:xlink="http://www.w3.org/1999/xlink">
    <!-- Generator: Sketch 46.2 (44496) - http://www.bohemiancoding.com/sketch -->
    <title>Combined Shape</title>
    <desc>Created with Sketch.</desc>
    <defs></defs>
    <g id="V2-1x" stroke="none" stroke-width="1" fill="none" fill-rule="evenodd">
        <g id="splashscreen" transform="translate(-117.000000, -306.000000)" fill="#FFFFFF">
            <g id="logo" transform="translate(117.000000, 306.000000)">
                <path d="M118.429179,46.4479025 C115.970846,48.8159763 113.636742,50 111.426829,50 C109.180883,50 107.548277,49.1861369 106.528963,47.5583864 C105.556294,46.0051231 105.047711,43.9685681 105.003202,41.4486651 C103.810151,42.0186305 102.554515,42.3036093 101.236264,42.3036093 C99.3595755,42.3036093 97.9343761,41.8259071 96.9606227,40.8704883 C95.9868694,39.9150695 95.5,38.6235042 95.5,36.9957537 C95.5,36.4649655 95.553113,35.9341852 95.6593407,35.403397 C95.7301591,34.6956794 95.7655678,34.2179772 95.7655678,33.970276 C95.7655678,33.4041019 95.57082,33.1210191 95.1813187,33.1210191 C94.6501805,33.1210191 93.950859,33.7137237 93.0833333,34.8991507 C92.2158076,36.0845778 91.3571471,37.6503795 90.507326,39.596603 C89.6575049,41.5428264 88.9670356,43.5951768 88.4358974,45.7537155 C88.0463961,47.4168519 87.5949354,48.5403368 87.0815018,49.1242038 C86.5680683,49.7080709 85.7625208,50 84.6648352,50 C83.3192851,50 82.3721029,49.292293 81.8232601,47.8768577 C81.5000829,47.0434016 81.2720559,45.9154969 81.1391776,44.4931297 C78.8019118,46.0905133 77.0408434,47.3082149 75.8559322,48.1462622 L72.4932203,50.4290358 C71.1621402,57.7551829 69.4195023,63.515147 67.2652542,67.7091008 C65.1110062,71.9030546 62.3700731,74 59.0423729,74 C57.2559233,74 55.8022655,73.4425841 54.6813559,72.3277356 C53.5604464,71.2128872 53,69.7529884 53,67.9479957 C53,65.4351626 53.9807812,62.7365619 55.9423729,59.8521127 C57.9039646,56.9676634 61.5818939,53.4196671 66.9762712,49.2080173 L67.2915254,47.1375948 C66.6960422,48.0931792 65.9166715,48.8275525 64.9533898,49.3407367 C63.9901082,49.8539209 63.0355979,50.1105092 62.0898305,50.1105092 C59.9180682,50.1105092 58.1841873,49.3142008 56.8881356,47.7215601 C56.6113532,47.3814387 56.3641258,47.0187209 56.1464532,46.6334062 C55.5090519,47.2052293 54.8544381,47.7258693 54.1826087,48.1953291 C52.460861,49.398449 50.5043588,50 48.3130435,50 C46.5391216,50 45.2000045,49.4780661 44.2956522,48.4341826 C43.3912998,47.3902991 42.9391304,45.8775754 42.9391304,43.895966 C42.9391304,42.9051614 43.1826063,41.1358938 43.6695652,38.5881104 C44.1217414,36.3587999 44.3478261,34.8195372 44.3478261,33.970276 C44.3478261,33.4041019 44.1565237,33.1210191 43.773913,33.1210191 C43.3217369,33.1210191 42.6869606,33.7137237 41.8695652,34.8991507 C41.0521698,36.0845778 40.2173956,37.6503795 39.3652174,39.596603 C38.5130392,41.5428264 37.8260896,43.5951768 37.3043478,45.7537155 C36.9217372,47.4168519 36.4782634,48.5403368 35.973913,49.1242038 C35.4695627,49.7080709 34.6782663,50 33.6,50 C32.2782543,50 31.3478288,49.292293 30.8086957,47.8768577 C30.2695625,46.4614225 30,44.1967601 30,41.0828025 C30,36.482638 30.6434718,32.1125472 31.9304348,27.9723992 C32.2434798,26.9462086 32.7565182,26.1942699 33.4695652,25.7165605 C34.1826123,25.2388511 35.1826023,25 36.4695652,25 C37.1652209,25 37.6521725,25.0884634 37.9304348,25.2653928 C38.208697,25.4423222 38.3478261,25.778483 38.3478261,26.2738854 C38.3478261,26.8400594 38.0869591,28.1139321 37.5652174,30.0955414 C37.2173896,31.5109766 36.9391315,32.7494639 36.7304348,33.8110403 C36.5217381,34.8726168 36.3478268,36.1818747 36.2086957,37.7388535 C37.3565275,34.6956677 38.6434711,32.2186932 40.0695652,30.3078556 C41.4956593,28.397018 42.8956453,27.0346821 44.2695652,26.2208068 C45.6434851,25.4069315 46.9043421,25 48.0521739,25 C50.3130548,25 51.4434783,26.1500239 51.4434783,28.4501062 C51.4434783,29.8301555 51.0608734,32.3248227 50.2956522,35.9341826 C49.6347793,39.0127542 49.3043478,41.0474119 49.3043478,42.0382166 C49.3043478,43.4536518 49.8086906,44.1613588 50.8173913,44.1613588 C51.513047,44.1613588 52.3391257,43.7278883 53.2956522,42.8609342 C53.7675061,42.4332662 54.3176492,41.8742864 54.946086,41.1839896 C54.9864994,38.4532394 55.6338434,35.8634037 56.8881356,33.4144095 C58.1841873,30.8838804 59.9093113,28.8488701 62.0635593,27.3093174 C64.2178074,25.7697648 66.5033777,25 68.920339,25 C69.6909643,25 70.2076258,25.1504138 70.470339,25.4512459 C70.7330522,25.7520781 70.9519765,26.2917982 71.1271186,27.0704225 C71.7926587,26.9288545 72.5632725,26.8580715 73.4389831,26.8580715 C74.3146936,26.8580715 74.9364388,26.9907896 75.3042373,27.2562297 C75.6720357,27.5216698 75.8559322,28.0436942 75.8559322,28.8223185 C75.8559322,29.2470227 75.8384183,29.5832418 75.8033898,29.8309859 C75.6632761,30.9281384 75.2254274,33.7063699 74.4898305,38.1657638 C74.3497168,39.0151722 74.2008482,39.9441986 74.0432203,40.9528711 C73.8855924,41.9615435 73.7192099,43.0321359 73.5440678,44.1646804 C76.146981,42.1153834 78.6519905,40.2968404 81.0591662,38.7090009 C81.2470472,34.9730154 81.8823886,31.3941728 82.9652015,27.9723992 C83.2838844,26.9462086 83.8061624,26.1942699 84.5320513,25.7165605 C85.2579401,25.2388511 86.2759397,25 87.5860806,25 C88.2942648,25 88.7899864,25.0884634 89.0732601,25.2653928 C89.3565338,25.4423222 89.4981685,25.778483 89.4981685,26.2738854 C89.4981685,26.8400594 89.2326034,28.1139321 88.7014652,30.0955414 C88.3473731,31.5109766 88.0641036,32.7494639 87.8516484,33.8110403 C87.6391931,34.8726168 87.4621497,36.1818747 87.3205128,37.7388535 C88.4890168,34.6956677 89.799138,32.2186932 91.2509158,30.3078556 C92.7026935,28.397018 94.1278929,27.0346821 95.5265568,26.2208068 C96.9252207,25.4069315 98.2087854,25 99.3772894,25 C101.678888,25 102.82967,26.1500239 102.82967,28.4501062 C102.82967,28.9101226 102.670331,30.0247611 102.351648,31.7940552 C102.068375,33.2094904 101.92674,34.0941242 101.92674,34.447983 C101.92674,35.6864889 102.369348,36.3057325 103.254579,36.3057325 C103.896716,36.3057325 104.657673,35.9791793 105.537458,35.3260667 C105.556479,35.2026008 105.576006,35.0779884 105.596037,34.9522293 C105.993396,32.4575247 106.503046,30.1309379 107.125,27.9723992 C107.435977,26.840051 107.850607,26.0615732 108.368902,25.6369427 C108.887198,25.2123121 109.716458,25 110.856707,25 C112.618911,25 113.5,25.601551 113.5,26.8046709 C113.5,27.6893179 113.171751,29.7416683 112.515244,32.9617834 C111.685971,36.8542304 111.271341,39.490439 111.271341,40.8704883 C111.271341,41.9320648 111.409551,42.7459278 111.685976,43.3121019 C111.9624,43.878276 112.428859,44.1613588 113.085366,44.1613588 C113.70732,44.1613588 114.484751,43.7190419 115.417683,42.8343949 C115.87165,42.4039229 116.399247,41.8519638 117.000478,41.1785129 C117.000159,41.1398002 117,41.1009759 117,41.06204 C117,38.25796 117.592329,35.664225 118.777003,33.2807571 C119.961678,30.8972892 121.581871,28.9432253 123.637631,27.4185068 C125.69339,25.8937884 127.993019,24.9737135 130.536585,24.6582545 C131.19861,18.0336157 132.461663,12.2678128 134.325784,7.36067298 C136.189905,2.45353312 138.672458,0 141.773519,0 C143.271784,0 144.517417,0.683484227 145.510453,2.05047319 C146.503489,3.41746215 147,5.48544006 147,8.25446898 C147,12.1100789 146.059243,16.6140647 144.1777,21.7665615 C142.296158,26.9190584 139.804894,32.229205 136.703833,37.6971609 C137.08711,40.5713428 137.644596,43.4104311 138.376307,46.214511 C138.51568,46.670174 138.585366,47.1433554 138.585366,47.6340694 C138.585366,49.2113644 137.627187,50 135.710801,50 C134.630657,50 133.803139,49.702071 133.228223,49.106204 C132.653307,48.510337 132.121954,47.3887219 131.634146,45.7413249 L131.581882,45.53102 C130.257833,47.1784169 129.064465,48.2825068 128.001742,48.8433228 C126.939019,49.4041388 125.710808,49.6845426 124.317073,49.6845426 C122.191627,49.6845426 120.440773,48.8871443 119.06446,47.2923239 C118.833285,47.0244465 118.621524,46.7429728 118.429179,46.4479025 Z M29.0575916,5.70557491 C29.685867,6.14111716 30,6.67247073 30,7.29965157 C30,8.41463972 29.6509634,9.31184329 28.9528796,9.9912892 C28.2547958,10.6707351 27.2600414,11.010453 25.9685864,11.010453 C23.9441435,11.010453 22.4083822,11.0278744 21.3612565,11.0627178 L20.4188482,16.7073171 C19.7905728,20.4355587 19.4066325,22.7177659 19.2670157,23.554007 L18.1675393,30.4006969 C17.3996471,35.5226737 16.788833,39.8083451 16.3350785,43.2578397 C17.0680665,43.2229963 18.0628209,43.2055749 19.3193717,43.2055749 C21.1692937,43.2055749 22.4258257,43.4494749 23.0890052,43.9372822 C23.7521848,44.4250895 24.0837696,45.1567895 24.0837696,46.1324042 C24.0837696,47.0383321 23.7260071,47.8048749 23.0104712,48.4320557 C22.2949353,49.0592366 21.291455,49.3728223 20,49.3728223 C19.1273953,49.3728223 17.7487005,49.3379794 15.8638743,49.2682927 C14.1186649,49.1986059 12.966844,49.1637631 12.408377,49.1637631 C10.2094131,49.1637631 7.80106021,49.3553988 5.18324607,49.738676 C4.03140785,49.9128929 3.21117173,50 2.72251309,50 C1.95462094,50 1.30890314,49.7909429 0.785340314,49.3728223 C0.261777487,48.9547017 -2.84217094e-14,48.3449517 -2.84217094e-14,47.543554 C-2.84217094e-14,46.2891923 0.558458639,45.3135923 1.67539267,44.6167247 C2.7923267,43.9198571 4.36299162,43.5540071 6.38743455,43.5191638 L8.84816754,43.466899 L9.0052356,42.3170732 C9.84293613,36.7421324 10.4537503,32.8048895 10.8376963,30.5052265 L11.9895288,23.6585366 C12.6876126,19.6167045 13.3158785,15.4529831 13.8743455,11.1672474 L9.47643979,11.2195122 C8.21988901,11.2195122 7.3560233,11.0191658 6.88481675,10.6184669 C6.41361021,10.217768 6.17801047,9.6515716 6.17801047,8.91986063 C6.17801047,6.5505108 7.88829005,5.27874652 11.3089005,5.10452962 C12.9144932,5.03484286 14.8690984,5 17.1727749,5 L26.7539267,5.05226481 C27.6614356,5.05226481 28.4293162,5.27003267 29.0575916,5.70557491 Z M66.7581699,43.4946237 C67.4901997,42.4910344 68.0130703,41.057357 68.3267974,39.1935484 L70,30 C68.570799,30.0358425 67.2461935,30.600353 66.0261438,31.6935484 C64.8060941,32.7867438 63.830069,34.2293817 63.0980392,36.0215054 C62.3660094,37.813629 62,39.7132516 62,41.7204301 C62,42.8315468 62.2178627,43.6559113 62.6535948,44.1935484 C63.0893268,44.7311855 63.690628,45 64.4575163,45 C65.2592633,45 66.0261401,44.4982129 66.7581699,43.4946237 Z M62.662069,65.8924303 C63.8206954,63.8207068 64.933328,60.523263 66,56 C63.1678019,58.2788959 61.126443,60.3333242 59.8758621,62.1633466 C58.6252811,63.993369 58,65.5989307 58,66.9800797 C58,67.567068 58.119539,68.0504629 58.3586207,68.4302789 C58.5977023,68.8100949 58.9931007,69 59.5448276,69 C60.4643724,69 61.5034425,67.9641538 62.662069,65.8924303 Z M108.055866,21 C107.351952,20.33333 107,19.4017154 107,18.2051282 C107,17.008541 107.460889,16.008551 108.382682,15.2051282 C109.304474,14.4017054 110.452507,14 111.826816,14 C113.067045,14 114.072622,14.3076892 114.843575,14.9230769 C115.614529,15.5384646 116,16.4102508 116,17.5384615 C116,18.9059897 115.56425,19.991449 114.692737,20.7948718 C113.821225,21.5982946 112.664812,22 111.223464,22 C109.815635,22 108.75978,21.66667 108.055866,21 Z M128.555147,43.2279412 C129.189954,42.7132327 130.004897,41.7181446 131,40.2426471 C130.656861,37.7377326 130.485294,35.1470722 130.485294,32.4705882 C130.485294,31.4068574 130.502451,30.5833362 130.536765,30 C128.6495,30.5490224 127.088241,31.8014608 125.852941,33.7573529 C124.617641,35.7132451 124,37.8749882 124,40.2426471 C124,42.7475615 124.857835,44 126.573529,44 C127.259807,44 127.92034,43.7426496 128.555147,43.2279412 Z M138.864865,12.8723404 C137.945941,18.1205936 137.324326,23.8297564 137,30 C141.00002,21.4893191 143,14.5744947 143,9.25531915 C143,7.90779468 142.882884,6.86170585 142.648649,6.11702128 C142.414413,5.3723367 142.135137,5 141.810811,5 C140.765761,5 139.783788,7.62408723 138.864865,12.8723404 Z" id="Combined-Shape"></path>
            </g>
        </g>
    </g>
</svg>