<?xml version="1.0" encoding="utf-8"?>
<!-- Generator: Adobe Illustrator 22.1.0, SVG Export Plug-In . SVG Version: 6.00 Build 0)  -->
<svg version="1.1" id="Layer_1" xmlns="http://www.w3.org/2000/svg" xmlns:xlink="http://www.w3.org/1999/xlink" x="0px" y="0px"
	 viewBox="0 0 100 50" style="enable-background:new 0 0 100 50;" xml:space="preserve">
<style type="text/css">
	.st0{opacity:0.1;}
</style>
<g id="Layer_6" class="st0">
</g>
<g id="artboard2">
</g>
<g id="artboard1">
</g>
<g id="Layer_5">
</g>
<g id="artboard3">
	<g>
		<g>
			<path d="M29.8,22.1v7.6h-2.2v-7.6h-2.1v-1.9h6.3v1.9H29.8z"/>
			<path d="M40.6,21.4c0.9,0.9,1.5,2.1,1.5,3.6c0,1.3-0.5,2.6-1.5,3.6c-0.9,0.9-2.1,1.4-3.7,1.4c-1.8,0-3-0.7-3.7-1.4
				c-0.9-0.9-1.5-2.1-1.5-3.5c0-1.4,0.6-2.7,1.5-3.6c0.6-0.6,1.8-1.4,3.7-1.4C38.4,20,39.7,20.5,40.6,21.4z M34.8,22.9
				C34.4,23.3,34,24,34,25c0,0.9,0.3,1.6,0.9,2.1c0.6,0.6,1.3,0.8,2,0.8c1,0,1.7-0.4,2.1-0.8c0.4-0.4,0.8-1,0.8-2.1
				c0-1-0.4-1.7-0.8-2.1c-0.5-0.5-1.2-0.8-2.1-0.8C36.1,22.1,35.4,22.4,34.8,22.9z"/>
			<path d="M46.5,20.3c0.8,0,1.7,0.1,2.5,0.8c0.8,0.7,0.9,1.7,0.9,2.3c0,1.2-0.5,1.9-0.8,2.2c-0.8,0.8-1.8,0.8-2.4,0.8h-1.3v3.3
				h-2.2v-9.5H46.5z M45.4,24.6h0.8c0.3,0,0.8,0,1.2-0.4c0.2-0.2,0.4-0.5,0.4-0.9c0-0.4-0.1-0.7-0.4-0.9c-0.3-0.3-0.8-0.4-1.2-0.4
				h-0.7L45.4,24.6L45.4,24.6z"/>
			<path d="M49.9,29.8l1.5-9.5h1.8l2.4,5.7l2.4-5.7h1.8l1.5,9.5h-2.2l-0.8-5.7L56,29.8h-0.8l-2.4-5.7l-0.8,5.7H49.9z"/>
			<path d="M70.7,21.4c0.9,0.9,1.5,2.1,1.5,3.6c0,1.3-0.5,2.6-1.5,3.6C69.8,29.4,68.6,30,67,30c-1.8,0-3-0.7-3.7-1.4
				c-0.9-0.9-1.5-2.1-1.5-3.5c0-1.4,0.6-2.7,1.5-3.6c0.6-0.6,1.8-1.4,3.7-1.4C68.5,20,69.7,20.5,70.7,21.4z M64.9,22.9
				c-0.4,0.4-0.8,1.1-0.8,2.1c0,0.9,0.3,1.6,0.9,2.1c0.6,0.6,1.3,0.8,2,0.8c1,0,1.7-0.4,2.1-0.8c0.4-0.4,0.8-1,0.8-2.1
				c0-1-0.4-1.7-0.8-2.1c-0.5-0.5-1.2-0.8-2.1-0.8C66.2,22.1,65.4,22.4,64.9,22.9z"/>
			<path d="M73.2,29.8v-9.5h1.9l5.2,6.1v-6.1h2.2v9.5h-1.9l-5.2-6.1v6.1L73.2,29.8L73.2,29.8z"/>
			<path d="M86.3,24.2l3.2-4h2.7l-3.8,4.5l4.1,5h-2.8l-3.4-4.2v4.2h-2.2v-9.5h2.2L86.3,24.2L86.3,24.2z"/>
			<path d="M97.8,22.6c-0.7-0.6-1.3-0.7-1.6-0.7c-0.3,0-0.7,0-0.9,0.3c-0.1,0.1-0.2,0.4-0.2,0.6c0,0.2,0.1,0.4,0.2,0.5
				c0.2,0.2,0.6,0.3,1.2,0.5l0.7,0.3c0.4,0.2,0.9,0.4,1.3,0.7c0.6,0.5,0.7,1.2,0.7,1.8c0,1-0.3,1.8-0.8,2.3c-0.8,0.9-2.1,1-2.7,1
				c-0.7,0-1.3-0.1-1.9-0.4c-0.5-0.2-1-0.7-1.4-1l1.1-1.6c0.2,0.2,0.6,0.6,0.9,0.7c0.4,0.2,0.8,0.3,1.2,0.3c0.3,0,0.7-0.1,1-0.3
				c0.2-0.2,0.3-0.4,0.3-0.8c0-0.3-0.1-0.5-0.3-0.7c-0.3-0.2-0.8-0.4-1.1-0.5l-0.8-0.3c-0.4-0.2-1-0.4-1.3-0.8
				c-0.5-0.5-0.6-1.2-0.6-1.7c0-0.8,0.3-1.6,0.8-2.1c0.7-0.7,1.5-0.9,2.3-0.9c0.7,0,1.7,0.1,2.8,0.9L97.8,22.6z"/>
		</g>
		<g>
			<g>
				<path d="M14.7,27.7c0.5,0.1,1,0.6,1.3,0.8l0,0l0,0c0.1,0,0.2,0,0.2-0.1l0.1,0l0-0.1c-0.1-1.4-0.5-2.6-1-3.3l0,0
					c-0.2-0.2-0.5-0.4-0.8-0.6l-0.1,0l0,0.1c-0.1,0.5-0.6,1.9-1.9,3.3c-1.6,1.7-3.8,3-6.5,3.7l-0.1,0l0,0.1c0.2,0.4,0.5,0.7,0.8,1
					l0,0l0,0c0.5-0.1,3.2-0.9,5.5-2.7l0,0l0,0c-0.1-0.3-0.1-0.6,0-0.9c0.3-0.8,1.4-1.4,2.1-1.3L14.7,27.7z"/>
				<path d="M9.7,35.1c0.7,0,1.2,0.2,1.7,0.4C12,35.7,12.8,36,14,36c1,0,2-0.3,2.8-0.8c0.7-0.5,1.2-1.2,1.5-1.9
					c0.5-1.3,0.3-2.5-0.6-3.3c-1.3-1.2-2.1-0.9-3.2,0.6c-0.9,1.2-1.7,2.1-3.3,2.3c1.1-0.5,1.6-0.8,2.1-1.5l0,0l0,0
					c-0.2-0.3-0.4-0.6-0.6-1.1l0-0.1l-0.1,0.1c-1.3,1.1-3,2.1-5,2.8l-0.1,0L7.5,33c0.4,0.2,0.8,0.5,1.3,0.7c-2.1,0-3-1.5-3.7-2.8
					l-0.3-0.4c-0.4-0.7-1.1-1.2-1.7-1.3c-0.5-0.1-1,0.1-1.4,0.5c-0.9,0.8-1.1,2.3-0.6,3.6c0.3,0.8,0.8,1.4,1.5,1.9
					C3.4,35.7,4.3,36,5.3,36c1.2,0,1.9-0.3,2.6-0.5c0.5-0.2,0.9-0.4,1.6-0.4L9.7,35.1L9.7,35.1z"/>
			</g>
			<path d="M14.3,19.2c-0.4-0.3-0.5,0.2-0.5,0.4c0.2-1.5-0.2-3.1-1.1-4.2C12,14.5,10.9,14,9.7,14c-1.2,0-2.3,0.5-3.1,1.4
				c-0.9,1.1-1.3,2.6-1.1,4.1c0-0.2-0.1-0.6-0.5-0.3c-0.4,0.4-0.6,0.8-0.6,1.3c0.1,0.4,0.4,0.8,0.7,0.9c0.4,0.2,0.4-0.2,0.4-0.4
				c0.1,0.5,0.3,1.7,1.1,2.7c0.8,1,1.8,1.5,2.9,1.5c1.2,0,2.2-0.5,2.9-1.5c0.8-1,1-2.1,1.1-2.7c0,0.2,0.1,0.5,0.4,0.4
				c0.4-0.1,0.7-0.5,0.7-0.9C15,20.1,14.8,19.6,14.3,19.2z M8.4,15.2c0.1-0.1,0.2-0.1,0.3-0.1l0,0c0.1,0,0.2,0,0.3,0.1
				s0.1,0.2,0.1,0.3c0,0.2-0.1,0.4-0.3,0.4c-0.2,0-0.4-0.1-0.4-0.3C8.4,15.4,8.4,15.3,8.4,15.2z M9.2,16.7c0,0.2-0.1,0.4-0.3,0.4
				c-0.2,0-0.4-0.1-0.4-0.3c0-0.2,0.1-0.4,0.3-0.4c0,0,0,0,0,0C9.1,16.4,9.2,16.5,9.2,16.7z M8.7,21.2c-0.2,0.1-0.5,0.2-0.8,0.2
				c-0.5,0-1.1-0.3-1.2-0.7C7.5,21,8.3,21,9,20.7C9,20.9,8.9,21.1,8.7,21.2z M9,18.4c-0.1,0-0.2,0-0.3-0.1c-0.1-0.1-0.1-0.2-0.1-0.3
				c0-0.1,0-0.2,0.1-0.3s0.2-0.1,0.3-0.1c0,0,0,0,0,0c0.1,0,0.2,0,0.2,0.1c0.1,0.1,0.1,0.2,0.1,0.3C9.4,18.2,9.2,18.4,9,18.4z
				 M10.4,15.2c0.1-0.1,0.2-0.1,0.2-0.1c0,0,0,0,0,0c0.1,0,0.2,0.1,0.3,0.1c0.1,0.1,0.1,0.2,0.1,0.3c0,0.2-0.2,0.4-0.4,0.3
				c-0.1,0-0.2-0.1-0.3-0.1s-0.1-0.2-0.1-0.3C10.3,15.3,10.3,15.2,10.4,15.2z M10.2,16.7L10.2,16.7c0-0.2,0.2-0.4,0.4-0.3
				c0.2,0,0.4,0.2,0.3,0.4c0,0.1-0.1,0.2-0.1,0.3c-0.1,0.1-0.2,0.1-0.3,0.1C10.3,17.1,10.1,16.9,10.2,16.7L10.2,16.7L10.2,16.7z
				 M10,18c0-0.1,0.1-0.2,0.1-0.3c0.1-0.1,0.2-0.1,0.2-0.1c0,0,0,0,0,0c0.1,0,0.2,0.1,0.3,0.1c0.1,0.1,0.1,0.2,0.1,0.3
				c0,0.2-0.2,0.4-0.4,0.3c-0.1,0-0.2-0.1-0.3-0.1C10.1,18.2,10,18.1,10,18z M11.5,21.4c-0.3,0-0.6-0.1-0.8-0.2
				c-0.2-0.1-0.3-0.3-0.3-0.5c0.7,0.3,1.5,0.3,2.3,0C12.6,21.2,12,21.4,11.5,21.4z"/>
			<path d="M13.3,24L13.3,24L13.3,24c-1,1.4-2.2,2.1-3.6,2.1c-1.4,0-2.6-0.7-3.6-2l0,0l0,0c-0.2,0-1.2,0.3-2,1.1l0,0
				c-0.5,0.7-0.9,1.9-1,3.3l0,0.1l0.1,0c0.1,0,0.2,0,0.2,0.1l0,0l0,0c0.3-0.2,1-0.8,1.5-0.8c0.2,0,0.4,0,0.6,0.1l0.1,0l0-0.1
				c0-0.2,0.2-0.5,0.6-1c-0.1,0.5-0.1,1-0.1,1.2l0,0l0,0c0.5,0.3,0.8,0.6,0.9,1c0.2,0.5,0,1-0.2,1.5c4.8-1.4,6.5-3.9,7.3-6.3
				C13.7,24.1,13.4,24,13.3,24z"/>
			<path d="M5,28.2c-0.4,0-0.8,0.3-1,0.6l0,0.1l0.1,0c0.4,0.2,0.8,0.6,1.1,1c0.3,0.4,0.5,0.7,0.6,1l0,0.1l0.1-0.1
				c0.7-0.8,0.7-1.4,0.6-1.6C6.2,28.6,5.4,28.2,5,28.2z"/>
			<path d="M15.4,28.7c-0.2-0.2-0.6-0.5-1-0.6c-0.5,0-1.2,0.5-1.4,1c-0.1,0.4,0.1,0.9,0.5,1.5l0,0.1l0-0.1c0.1-0.2,0.2-0.3,0.4-0.5
				c0.1-0.1,0.2-0.3,0.3-0.5C14.6,29.4,15,29.1,15.4,28.7L15.4,28.7L15.4,28.7z"/>
		</g>
	</g>
</g>
<g id="artboard4">
</g>
</svg>
