<?xml version="1.0" encoding="utf-8"?>
<!-- Generator: Adobe Illustrator 22.1.0, SVG Export Plug-In . SVG Version: 6.00 Build 0)  -->
<svg version="1.1" id="Layer_1" xmlns="http://www.w3.org/2000/svg" xmlns:xlink="http://www.w3.org/1999/xlink" x="0px" y="0px"
	 viewBox="0 0 100 50" style="enable-background:new 0 0 100 50;" xml:space="preserve">
<style type="text/css">
	.st0{clip-path:url(#SVGID_2_);}
</style>
<g>
	<defs>
		<rect id="SVGID_1_" x="-16.5" y="-10" width="133" height="70"/>
	</defs>
	<clipPath id="SVGID_2_">
		<use xlink:href="#SVGID_1_"  style="overflow:visible;"/>
	</clipPath>
	<g class="st0">
		<path d="M80.6,7.9c0.7,0,1.4,0.3,1.8,0.8c0.5,0.5,0.8,1.2,0.8,1.9c0,0.8-0.2,1.4-0.8,1.9c-0.5,0.5-1.2,0.8-1.9,0.8
			c-0.8,0-1.4-0.2-1.9-0.8c-0.5-0.5-0.8-1.2-0.8-1.9c0-0.8,0.2-1.4,0.8-1.9C79.3,8.2,79.9,7.9,80.6,7.9z M89.5,18.7v-1.7
			c0-1.5-1.3-2.8-2.8-2.8H74.6c-1.5,0-2.8,1.3-2.8,2.8v6.2h13.4v0.9H71.8v1.7c0,1.5,1.3,2.8,2.8,2.8h12.1c1.5,0,2.8-1.3,2.8-2.8
			v-6.2H76.1v-0.9H89.5z"/>
		<path d="M15.9,14.1c3,0,4,0.5,4,1.8v1.4h-4c-2,0-2.5,0.8-2.5,4.2c0,3.3,0.5,4.2,2.5,4.2h4v1.4c0,1.2-1,1.8-4,1.8
			c-4,0-6.2-2.2-6.2-7.4C9.7,16.3,11.8,14.1,15.9,14.1z M15.3,13.4c-0.3,0-0.5-0.1-0.7-0.4l-1.8-2.4c-0.1-0.1-0.1-0.2-0.1-0.3h1.4
			c0.3,0,0.4,0.1,0.7,0.3l1,0.9l0.9-0.8c0.3-0.3,0.5-0.3,0.7-0.3h1.5c0,0.1,0,0.2-0.1,0.3l-1.8,2.3c-0.2,0.3-0.4,0.4-0.7,0.4H15.3
			L15.3,13.4z M21,15.5c0-0.8,0.4-1.3,1.2-1.3h8V16c0,0.8-0.5,1.3-1.3,1.3h-4.3v2.6h4.8v2.9h-4.8v2.8h5.7v1.8c0,0.8-0.5,1.3-1.3,1.3
			h-6.8c-0.8,0-1.2-0.5-1.2-1.3V15.5L21,15.5z M36.4,14.1c3,0,4.6,0.3,4.6,1.8v1.5h-4.1c-1.1,0-1.5,0.3-1.5,0.9
			c0,1.8,6.3,1.4,6.3,6.3c0,2.3-1.3,4.4-5.5,4.4c-2.7,0-4.8-0.5-4.8-1.8v-1.5h4.9c1,0,1.5-0.3,1.5-1c0-1.9-6.3-1.5-6.3-6.6
			C31.5,15.9,33,14.1,36.4,14.1L36.4,14.1z M46.9,20.9l3.6-6c0.3-0.6,0.5-0.7,1-0.7H55c0,0.2-0.1,0.4-0.2,0.6l-4.1,6.4l4.4,6.9
			c0.1,0.2,0.2,0.4,0.2,0.6h-3.4c-0.7,0-0.9-0.1-1.3-0.7l-3.8-6v6.6h-3.6V15.5c0-0.8,0.4-1.3,1.2-1.3h2.4L46.9,20.9L46.9,20.9z
			 M63.4,14.2c0.6,0,0.9,0.1,1.1,0.6l3.4,13.4c0.1,0.2,0.1,0.4,0.1,0.5h-3c-0.6,0-0.8-0.1-0.9-0.5l-0.7-2.9h-3.4l-0.7,2.9
			c-0.1,0.5-0.3,0.5-0.9,0.5h-2.9c0-0.2,0-0.3,0.1-0.5l3.4-13.4c0.2-0.5,0.5-0.6,1.1-0.6H63.4z M60.5,22.6h2.2l-1.1-4.7h-0.1
			L60.5,22.6z M62.8,13.1c-0.3,0.3-0.5,0.3-0.7,0.3h-1.4c0-0.1,0-0.2,0.1-0.3l1.8-2.4c0.2-0.3,0.4-0.4,0.7-0.4h1.4
			c0.2,0,0.2,0.1,0.2,0.2c0,0.1-0.1,0.2-0.2,0.4L62.8,13.1L62.8,13.1z M11.7,33.5c1,0,1.7,0,1.7,0.5v0.3h-1.7
			c-0.5,0-0.8,0.2-0.8,0.6c0,1.2,2.8,0.8,2.8,2.8c0,0.9-0.6,1.6-2.2,1.6c-0.9,0-1.8,0-1.8-0.5v-0.3h1.9c0.7,0,1-0.2,1-0.8
			c0-1.1-2.8-0.8-2.8-2.8C9.7,34,10.4,33.5,11.7,33.5L11.7,33.5z M15.5,40.9h-1v-7.4H15c0.4,0,0.5,0.2,0.5,0.5v0.2
			c0.3-0.4,0.8-0.7,1.5-0.7c1.3,0,2,1.1,2,2.9c0,1.8-0.6,2.9-2,2.9c-0.6,0-1.2-0.3-1.5-0.7L15.5,40.9L15.5,40.9z M16.6,34.3
			c-0.5,0-0.8,0.2-1.2,0.5v3.1c0.3,0.3,0.7,0.5,1.2,0.5c0.9,0,1.2-0.7,1.2-2.1C17.9,35.1,17.5,34.3,16.6,34.3z M19.6,36.4
			c0-1.6,0.5-2.9,2.3-2.9s2.3,1.3,2.3,2.9c0,1.6-0.5,2.9-2.3,2.9S19.6,38,19.6,36.4z M23.2,36.4c0-1.4-0.3-2.1-1.2-2.1
			c-1,0-1.2,0.8-1.2,2.1c0,1.4,0.3,2.1,1.2,2.1C22.9,38.5,23.2,37.8,23.2,36.4z M26.3,33c-0.2,0-0.2,0-0.3-0.2l-0.9-1.1
			c-0.1,0-0.1-0.1-0.1-0.1h0.5c0.2,0,0.2,0,0.4,0.2l0.6,0.5l0.6-0.5c0.2-0.2,0.2-0.2,0.4-0.2h0.5c0,0.1,0,0.1-0.1,0.2l-0.9,1.1
			c-0.2,0.2-0.2,0.2-0.3,0.2L26.3,33L26.3,33z M25.2,39.2v-5.7h0.5c0.3,0,0.5,0.3,0.5,0.7c0.5-0.6,1-0.8,1.5-0.8
			c0.2,0,0.4,0.1,0.4,0.3v0.7h-0.3c-0.8,0-1.2,0.2-1.6,0.5v4.2L25.2,39.2L25.2,39.2z M29.6,32.9h-1v-0.6c0-0.3,0.2-0.5,0.5-0.5h0.5
			V32.9z M28.6,33.6h0.5c0.4,0,0.5,0.2,0.5,0.5v5.1h-1V33.6L28.6,33.6z M32.1,33.6h1.2v0.8h-1.2v3.5c0,0.5,0.1,0.7,0.4,0.7h0.8v0.2
			c0,0.5-0.4,0.5-1,0.5c-1.2,0-1.3-0.6-1.3-1.5v-3.5h-0.7v-0.5l0.7-0.2l0.4-0.9c0.1-0.2,0.2-0.3,0.4-0.3h0.2L32.1,33.6L32.1,33.6z
			 M37.8,38.5v0.2c0,0.5-0.6,0.5-1.8,0.5c-1.8,0-2.3-1.3-2.3-2.9c0-1.6,0.6-2.9,2.3-2.9c1.4,0,2.1,0.8,2.1,2.1c0,0.2,0,0.5-0.1,1.1
			h-3.3c0,1.3,0.5,1.8,1.4,1.8H37.8z M37.1,35.9c0-0.1,0-0.3,0-0.5c0-0.5-0.2-1.2-1.1-1.2c-0.8,0-1.2,0.5-1.2,1.7H37.1z M40.1,39.2
			h-1v-7c0-0.3,0.2-0.5,0.5-0.5h0.5V39.2L40.1,39.2z M41.3,39.2v-5.7h0.5c0.4,0,0.5,0.2,0.5,0.5v0.2c0.5-0.5,1.1-0.7,1.6-0.7
			c1.1,0,1.6,0.7,1.6,1.8v4h-1v-3.9c0-0.7-0.4-0.9-1-0.9c-0.5,0-0.8,0.2-1.2,0.5v4.5h-1.1V39.2z M50.3,39.2c-0.4,0-0.5-0.2-0.5-0.5
			v-0.2c-0.5,0.5-1.1,0.7-1.6,0.7c-1,0-1.7-0.6-1.7-1.6c0-1.5,1.5-1.8,3.2-1.8v-0.5c0-0.8-0.5-1-1.2-1h-1.6V34
			c0-0.5,0.6-0.5,1.8-0.5c1.3,0,2.1,0.5,2.1,1.8v4H50.3L50.3,39.2z M49.8,36.5c-1.5,0-2.1,0.4-2.1,1.1c0,0.6,0.5,0.8,1,0.8
			c0.5,0,0.8-0.2,1.2-0.5V36.5z"/>
	</g>
</g>
</svg>
