<?xml version="1.0" encoding="utf-8"?>
<!-- Generator: Adobe Illustrator 22.1.0, SVG Export Plug-In . SVG Version: 6.00 Build 0)  -->
<svg version="1.1" id="Layer_1" xmlns="http://www.w3.org/2000/svg" xmlns:xlink="http://www.w3.org/1999/xlink" x="0px" y="0px"
	 viewBox="0 0 100 50" style="enable-background:new 0 0 100 50;" xml:space="preserve">
<path d="M50.2,22.6c4.1,0,7.5-3.4,7.5-7.5c0-4.1-3.4-7.5-7.5-7.5c-4.1,0-7.5,3.4-7.5,7.5C42.7,19.3,46,22.6,50.2,22.6z"/>
<path d="M55.7,21.2c-1.4,1.5-3.9,3.1-7.2,3.1c-2.5,0-4.6-1-6-2.1c-8.1,0.9-14.2,2.1-14.2,2.1v3.3h43.2v-6.8
	C71.5,20.8,64.1,20.8,55.7,21.2z"/>
<path d="M37.3,41.8c-0.8,0.2-1.9,0.4-2.9,0.4c-3.6,0-6.4-1.9-6.4-5.9c0-3.7,3-5.6,6.4-5.6c1.1,0,1.8,0.1,2.9,0.4V34
	c-0.7-0.2-1.4-0.4-2.1-0.4c-1.8,0-3.1,1-3.1,2.8c0,1.9,1.2,2.9,2.9,2.9c0.7,0,1.5-0.2,2.2-0.4V41.8L37.3,41.8z"/>
<path d="M47,34c-0.9-0.3-2-0.6-3.2-0.6c-0.6,0-1.8,0-1.8,0.7c0,1.5,5.6,0.1,5.6,4.3c0,3-2.9,3.7-5.2,3.7c-1.6,0-2.9-0.2-4.4-0.5
	v-2.9c1.1,0.5,2.4,0.7,3.7,0.7c1,0,1.8-0.2,1.8-0.8c0-1.5-5.6-0.1-5.6-4.5c0-3.1,3.1-3.6,5.5-3.6c1.2,0,2.4,0.1,3.5,0.4V34L47,34z"
	/>
<path d="M54.3,42.2c-3.7,0-5.9-2-5.9-5.7c0-3.7,2.2-5.7,5.9-5.7c3.7,0,6,2,6,5.7C60.3,40.3,58.1,42.2,54.3,42.2z M54.3,39.5
	c1.6,0,1.7-1.9,1.7-3.1c0-1-0.1-3.1-1.7-3.1c-1.5,0-1.7,2-1.7,3.1C52.7,37.7,52.9,39.5,54.3,39.5z"/>
<path d="M61.4,30.9h6.8c1.9,0,3.7,0.6,3.7,2.7c0,1.5-0.8,2.3-2.2,2.7v0c1.5,0.2,2.4,1.4,2.4,2.5c0,2.8-2.2,3.1-4.4,3.1h-6.2V30.9
	L61.4,30.9z M65.2,39.7h1.1c0.7,0,1.6-0.3,1.6-1.2c0-1-0.8-1.1-1.5-1.1h-1.1V39.7L65.2,39.7z M65.2,35.2h1c0.7,0,1.5-0.2,1.5-1.1
	c0-0.8-0.7-1.1-1.4-1.1h-1.1V35.2L65.2,35.2z"/>
<path d="M30,29.9c0,0,1.3,1.1,3.2,1.1c1.8,0,3.2-0.9,3.9-1.7l-0.3-0.2c0,0-0.9,1-2.7,1c-1.9,0-3-1.3-3-1.3L30,29.9z"/>
</svg>
