<?xml version="1.0" encoding="utf-8"?>
<!-- Generator: Adobe Illustrator 22.1.0, SVG Export Plug-In . SVG Version: 6.00 Build 0)  -->
<svg version="1.1" id="Layer_1" xmlns="http://www.w3.org/2000/svg" xmlns:xlink="http://www.w3.org/1999/xlink" x="0px" y="0px"
	 viewBox="0 0 100 50" style="enable-background:new 0 0 100 50;" xml:space="preserve">
<g>
	<g>
		<path d="M78.4,22.7c-2.3,0-2.9,0-3.7,0.3c-0.8,0.3-1.3,0.7-1.5,1.5c-0.4,1.2-0.3,3.6,0.1,4.5c0.3,0.6,0.9,1,1.9,1.2
			c0.8,0.1,6.9,0.1,7.5,0c1.1-0.3,1.7-0.9,1.9-1.9c0.1-0.5,0.1-0.5-2-0.5l-1.8,0L80.7,28c-0.1,0.3-0.3,0.6-0.6,0.7
			c-0.2,0.1-0.4,0.1-1.3,0.1c-1.2,0-1.3,0-1.6-0.4c-0.2-0.2-0.2-1.1-0.1-1.2c0.1-0.1,0.5-0.1,3.7-0.1l3.7-0.1
			c0.1-0.1,0.1-2.2-0.1-2.6c-0.2-0.7-0.8-1.1-1.5-1.4C82.4,22.8,80.8,22.7,78.4,22.7L78.4,22.7z M79,24.2c0.4,0,0.9,0,1,0.1
			c0.6,0.3,0.9,0.8,0.6,1.1c-0.1,0.1-0.3,0.1-1.7,0.1c-1.1,0-1.6,0-1.6-0.1c0,0-0.1-0.2-0.1-0.3c0-0.3,0.3-0.6,0.7-0.8
			C78.1,24.3,78.6,24.2,79,24.2L79,24.2z M48.2,30.1c-1.1-0.1-1.4-0.1-1.9-0.3c-0.5-0.2-1-0.6-1.2-1.2c-0.2-0.4-0.3-1.1-0.2-1.5
			l0-0.3h4.5l0,0.4c0.1,0.6,0.3,0.9,0.8,1.1c0.1,0,0.7,0.1,1.6,0c1.3,0,1.3,0,1.6-0.2c0.3-0.2,0.5-0.6,0.5-1.1
			c0-0.5-0.1-0.7-0.3-0.9c-0.3-0.3-0.6-0.3-3.4-0.4l-3.1-0.2c-0.6-0.1-1.3-0.5-1.6-0.8c-0.3-0.4-0.4-0.8-0.4-2
			c0-1.2,0.1-1.4,0.4-1.8c0.4-0.5,1-0.9,2-1c0.3,0,2.2-0.1,4.4-0.1l4.4,0.1c0.8,0.2,1.3,0.5,1.6,0.9c0.2,0.4,0.4,1.9,0.2,2
			c-0.1,0.1-0.4,0.1-2.1,0.1c-1.6,0-2,0-2.1-0.1c0,0-0.1-0.3-0.1-0.5c0-0.7-0.3-0.9-1.1-1c-0.6-0.1-2.2,0-2.6,0.1
			c-0.7,0.2-0.8,0.4-0.7,1.2c0,0.6,0.1,0.7,0.5,1c0.2,0.2,0.4,0.2,3.6,0.3l2.7,0.2c1.1,0.2,1.8,0.8,2.1,1.5c0.1,0.4,0.2,1.6,0.2,2.1
			c-0.1,1.5-0.8,2.2-2.1,2.4C54.6,30.1,50.3,30.2,48.2,30.1L48.2,30.1z M60.2,30.1c0,0,0-2.3,0-5.1l0-5l1.9,0L64,20
			c0.1,0.1,0.1,0.4,0.1,1.6v1.5l0.1,0c0.1,0,0.3,0,0.6-0.1c0.9-0.3,3.5-0.3,4.6,0c0.9,0.2,1.6,0.7,1.7,1.3c0.1,0.4,0.1,5.6,0,5.7
			c-0.1,0.1-0.5,0.1-1.8,0.1s-1.8,0-1.8-0.1c-0.1-0.1-0.1-0.7-0.1-2.4v-2.3l-0.2-0.2c-0.6-0.6-2.4-0.5-3.1,0.1l-0.1,0.1v2.3L64,30.1
			C63.9,30.2,60.3,30.2,60.2,30.1L60.2,30.1z M86.5,30c-0.1-0.2-0.1-9.8,0-10c0.1-0.1,0.2-0.1,1.9-0.1l1.9,0v10.1l-1.9,0
			C86.7,30.1,86.6,30.1,86.5,30L86.5,30z M92.5,30.1c0,0,0-2.3,0-5.1l0-5l1.9,0l1.9,0.1c0.1,0.1,0.1,10,0,10.1
			C96.2,30.2,92.6,30.2,92.5,30.1L92.5,30.1z"/>
		<path d="M35.3,14.8c-0.5-0.6-1.5-1.7-2.2-2.3c-2.7-2.3-5.9-3.7-9.4-4.1c-2.4-0.3-4.9-0.1-7.2,0.5c-2.7,0.8-5,2-7,3.9
			c-0.7,0.6-1.4,1.4-2.1,2.4C4.3,19.5,3.1,24,3.7,29.2c0.1,0.6,0.1,0.7,0.2,0.8L6.8,32c2.3,1.7,2.8,2,2.8,2.1L9.8,35l0.1,1.3
			l0.2,2.1l0.1,1.3c0.1,0.5,0.1,1,0.1,1c0,0,1,0.1,4.6,0.1h4.6l0.3,0.2c0.4,0.4,0.9,0.6,1.3,0.7l0,0c0.7,0.1,1.4-0.1,2.1-0.7
			l0.3-0.2l4.5,0c2.5,0,4.5,0,4.6,0l0.4-3.3l0.4-3.4l4.3-3.2c1.3-0.9,1.5-1.1,1.5-1.2c0-0.1,0-0.3,0.1-0.6
			C39.8,23.7,38.5,19,35.3,14.8z M36.4,26.7c0,0.8-0.2,1.6-0.3,1.7l-5.5,4.1L30.5,33l-0.4,3.5l-0.1,0.9c0,0.2,0,0.3,0,0.4l-3.4,0.1
			l-3.4,0l-0.3,0.3c-0.2,0.2-0.4,0.4-0.6,0.5l0,0c-0.2,0.1-0.3,0.1-0.6,0.2c-0.5,0-1-0.2-1.4-0.7L20,37.8h-6.9l0-0.1L13,36.6
			l-0.2-1.5l-0.1-1l-0.1-1l0-0.4l-1.2-0.9C7.7,29,7,28.4,6.9,28.4c-0.1-0.1-0.1-0.2-0.2-0.5c-0.1-0.6-0.1-1.9,0-2.6
			c0.1-0.7,0.4-1.7,0.5-1.8l4.6,4.6c4.2,4.3,4.6,4.7,4.7,4.6c0.1,0,0.1-0.1,0.1-0.1l-1.5-1.9l-7.5-9.2l0-0.3
			c0.1-0.6,0.4-1.4,0.8-2.1c0.4-0.6,1.2-1.6,1.3-1.5l7,12c0.6,1,1.1,1.8,1.1,1.9c0.1,0.2,0.3,0.1,0.2,0c0-0.1-0.1-0.4-0.3-0.8
			l-7-14.6l0.2-0.2c0.4-0.6,1.1-1.2,1.7-1.7c0.6-0.4,1.8-0.9,1.8-0.8l2.8,9.6c1.5,5.5,2.2,7.8,2.3,7.9c0.1,0.1,0.2,0.1,0.2-0.1
			l-1.1-5.6l-2.5-12.7l0.2-0.1c0.4-0.3,0.8-0.5,1.2-0.6c0.8-0.3,1.7-0.4,2.6-0.3l0.3,0l0,0.3l0.2,4.2l0.1,1.4l0.1,1.5l0.1,3.3
			l0.3,7.4c0.1,1.3,0.1,1.4,0.1,1.4c0.1,0,0.2-0.1,0.2-1.7l0.1-2.8l0.5-13.6c0-0.8,0.1-1.5,0.1-1.5c0,0,1.1,0,1.6,0
			c1.2,0.1,2,0.4,2.6,0.9l0.1,0.1l-2.9,15.4l-0.2,0.9l-0.3,1.4c-0.1,0.5-0.1,0.6,0,0.6c0.1,0,0.1-0.1,0.3-0.7l4-14.3
			c0.6-2.2,0.7-2.4,0.7-2.5c0,0,1,0.4,1.4,0.7c0.5,0.3,1.2,0.8,1.5,1.2c0.3,0.3,0.6,0.8,0.6,0.9l-1.4,3.1l-4.9,10.6
			c-0.7,1.5-0.8,1.7-0.6,1.8c0.1,0,0.1,0,0.1,0l0.8-1.4l6.5-11.5l0.7-1.2c0,0,0.8,0.8,1.1,1.2c0.3,0.5,0.7,1,0.8,1.4
			c0.1,0.3,0.3,1,0.3,1.1L31,26.9l-3.4,4.3c-0.9,1.1-1,1.3-1,1.4l1-0.9l4.5-4.6c2-2,3.6-3.6,3.6-3.6c0.1,0,0.3,0.7,0.5,1.2
			C36.4,25.3,36.4,25.9,36.4,26.7z"/>
	</g>
</g>
</svg>
