<?xml version="1.0" encoding="utf-8"?>
<!-- Generator: Adobe Illustrator 22.1.0, SVG Export Plug-In . SVG Version: 6.00 Build 0)  -->
<svg version="1.1" id="Layer_1" xmlns="http://www.w3.org/2000/svg" xmlns:xlink="http://www.w3.org/1999/xlink" x="0px" y="0px"
	 viewBox="0 0 100 50" style="enable-background:new 0 0 100 50;" xml:space="preserve">
<path d="M31,22.2c0,8.4,6.1,15.4,15,15.4c8.8,0,14.9-7,14.9-15.4c0-8.9-6-15.4-14.9-15.4C37,6.8,31,13.3,31,22.2L31,22.2z
	 M36.8,22.2c0-5.6,3.4-11,9.2-11c5.8,0,9.2,5.4,9.2,11c0,5.2-2.8,11-9.2,11C39.6,33.2,36.8,27.5,36.8,22.2z"/>
<path d="M69,43.4v-2.1h-5.3c2.1-2.1,4.9-4.6,4.9-7.4c0-2.6-1.6-3.8-4.1-3.8c-1.3,0-2.7,0.3-3.9,0.9l0.2,2.2c0.9-0.6,1.9-1,3-1
	c1.1,0,2.1,0.6,2.1,1.8c0,2.4-4.4,6.1-5.6,7.2v2.2H69"/>
</svg>
