<?xml version="1.0" encoding="utf-8"?>
<!-- Generator: Adobe Illustrator 22.1.0, SVG Export Plug-In . SVG Version: 6.00 Build 0)  -->
<svg version="1.1" id="Layer_1" xmlns="http://www.w3.org/2000/svg" xmlns:xlink="http://www.w3.org/1999/xlink" x="0px" y="0px"
	 viewBox="0 0 100 50" style="enable-background:new 0 0 100 50;" xml:space="preserve">
<style type="text/css">
	.st0{clip-path:url(#SVGID_2_);}
	.st1{fill:#333333;}
</style>
<g>
	<defs>
		<rect id="SVGID_1_" x="1.3" y="7.5" width="97.3" height="34.7"/>
	</defs>
	<clipPath id="SVGID_2_">
		<use xlink:href="#SVGID_1_"  style="overflow:visible;"/>
	</clipPath>
	<g class="st0">
		<path d="M54.7,23.8l10.8-6.2c1-0.6,0.4-1.1-0.3-1.1v-0.3h7.6v0.3c-1.3,0.3-2.5,0.7-3.6,1.4l-9.7,5.5L70.9,32
			c0.8,0.6,1.6,1.3,2.5,1.3v0.3h-7.6l-11.1-8.7v6.7c-0.1,0.9,0.5,1.7,1.4,1.8c0.1,0,0.3,0,0.4,0v0.3h-8.3v-0.3
			c0.9,0.1,1.7-0.5,1.8-1.4c0-0.1,0-0.3,0-0.4V18.3c0.1-0.9-0.6-1.7-1.5-1.8c-0.1,0-0.2,0-0.3,0v-0.3h8.3v0.3
			c-0.9-0.1-1.7,0.5-1.8,1.4c0,0.1,0,0.2,0,0.3V23.8z"/>
		<path d="M98.6,28.7c0,3-2.8,4.9-9.5,5H76v-0.3c0.9,0.1,1.7-0.5,1.8-1.4c0-0.1,0-0.3,0-0.4V18.3c0.1-0.9-0.6-1.7-1.5-1.8
			c-0.1,0-0.2,0-0.3,0v-0.3h13.9c5.7,0,7.8,1.8,7.8,4c0,2.9-3.1,3.9-6,4.1C94.6,24.5,98.6,25.4,98.6,28.7z M92.4,20.9
			c0-2.4-2.8-2.7-5.7-2.7c-1.4,0-2.9,0.1-4.3,0.3v5.1c0,0,1.7,0.1,2.9,0.1C91,23.5,92.4,22.8,92.4,20.9z M87.9,31.6
			c2.4,0,5.5-0.4,5.5-3.1c0-3.6-6.2-3.2-10.9-3v4.6c0,0.6,0.8,1.3,1.7,1.3C85.3,31.6,87.9,31.7,87.9,31.6z"/>
		<path class="st1" d="M1.3,7.5h35v17.8h-35V7.5z"/>
		<path d="M8.8,25.3H1.3v17.4h35V25.3h-7.5V27h-20V25.3z"/>
	</g>
</g>
</svg>
