<svg width="141" height="159" viewBox="0 0 141 159" fill="none" xmlns="http://www.w3.org/2000/svg">
 <title>[Icon] API Design</title>
  <rect x="70.7455" y="18.3333" width="99.2436" height="99.2436" transform="rotate(45 70.7455 18.3333)" fill="#9B51E0"/>
  <rect x="70.7455" width="99.2436" height="99.2436" transform="rotate(45 70.7455 0)" fill="#BB6BD9"/>
  <path
    d="M45.7862 52.4579C44.8793 52.4579 44.141 53.1955 44.141 54.1031C44.141 55.0107 44.8786 55.7484 45.7862 55.7484C46.6939 55.7484 47.4315 55.0107 47.4315 54.1031C47.4315 53.1955 46.6931 52.4579 45.7862 52.4579ZM45.7862 54.6898C45.4626 54.6898 45.1988 54.4261 45.1988 54.1024C45.1988 53.7787 45.4626 53.515 45.7862 53.515C46.1099 53.515 46.3737 53.7787 46.3737 54.1024C46.3737 54.4261 46.1099 54.6898 45.7862 54.6898Z"
    fill="white"/>
  <path
    d="M51.6846 52.4579C50.7777 52.4579 50.0393 53.1955 50.0393 54.1031C50.0393 55.0107 50.777 55.7484 51.6846 55.7484C52.5922 55.7484 53.3298 55.0107 53.3298 54.1031C53.3298 53.1955 52.5915 52.4579 51.6846 52.4579ZM51.6846 54.6898C51.3609 54.6898 51.0971 54.4261 51.0971 54.1024C51.0971 53.7787 51.3609 53.515 51.6846 53.515C52.0083 53.515 52.272 53.7787 52.272 54.1024C52.272 54.4261 52.0083 54.6898 51.6846 54.6898Z"
    fill="white"/>
  <path
    d="M57.5837 52.4579C56.6768 52.4579 55.9385 53.1955 55.9385 54.1031C55.9385 55.0107 56.6761 55.7484 57.5837 55.7484C58.4913 55.7484 59.229 55.0107 59.229 54.1031C59.229 53.1955 58.4906 52.4579 57.5837 52.4579ZM57.5837 54.6898C57.26 54.6898 56.9963 54.4261 56.9963 54.1024C56.9963 53.7787 57.26 53.515 57.5837 53.515C57.9074 53.515 58.1712 53.7787 58.1712 54.1024C58.1712 54.4261 57.9074 54.6898 57.5837 54.6898Z"
    fill="white"/>
  <path d="M94.3301 53.5735H84.6052V54.6313H94.3301V53.5735Z" fill="white"/>
  <path
    d="M60.8044 80.4081L58.205 83.0075L61.559 86.3615L64.1584 83.7614C65.0766 84.327 66.0723 84.7381 67.128 84.9878V88.6676H71.8713V84.9878C72.9277 84.7381 73.9227 84.327 74.8409 83.7614L77.4403 86.3615L80.7943 83.0075L78.1949 80.4081C78.7598 79.49 79.1709 78.4942 79.4212 77.4385H83.1003V72.6953H79.4227C79.1723 71.6396 78.7612 70.6438 78.1963 69.7256L80.7957 67.1262L77.4417 63.7722L74.8423 66.3716C73.9241 65.8068 72.9284 65.3956 71.8727 65.1453V61.4662H67.1294V65.1453C66.073 65.3956 65.0773 65.8068 64.1598 66.3716L61.5604 63.7722L58.2064 67.1262L60.8058 69.7256C60.2409 70.6438 59.8298 71.6396 59.5794 72.6953H55.8997V77.4385H59.5794C59.8284 78.4935 60.2395 79.49 60.8044 80.4081ZM56.9568 73.7524H60.4426L60.5251 73.3236C60.76 72.1043 61.2296 70.9689 61.9193 69.9485L62.1633 69.5867L59.7014 67.1255L61.5597 65.2673L64.0216 67.7292L64.3833 67.4845C65.4031 66.7955 66.5385 66.3258 67.7585 66.0903L68.1865 66.007V62.5226H70.8142V66.0077L71.2429 66.0903C72.4622 66.3258 73.5983 66.7955 74.6181 67.4845L74.9798 67.7292L77.4417 65.2673L79.3 67.1255L76.8381 69.5867L77.0821 69.9485C77.7718 70.9682 78.2407 72.1043 78.4763 73.3236L78.5588 73.7524H82.0439V76.38H78.5588L78.4763 76.8087C78.2407 78.0281 77.7718 79.1641 77.0821 80.1839L76.8374 80.5457L79.2992 83.0075L77.441 84.8658L74.9791 82.4032L74.6174 82.6479C73.5976 83.3383 72.4622 83.8073 71.2429 84.0421L70.8142 84.1246V87.6112H68.1865V84.1253L67.7578 84.0428C66.5385 83.808 65.4031 83.339 64.3833 82.6486L64.0216 82.4039L61.5597 84.8665L59.7014 83.0083L62.1633 80.5464L61.9186 80.1846C61.2289 79.1649 60.76 78.0295 60.5251 76.8095L60.4426 76.3807H56.9568V73.7524Z"
    fill="white"/>
  <path
    d="M69.5004 79.454C71.9199 79.454 73.8882 77.4858 73.8882 75.0669C73.8882 72.6473 71.9199 70.6791 69.5004 70.6791C67.0808 70.6791 65.1125 72.6473 65.1125 75.0669C65.1125 77.4858 67.0808 79.454 69.5004 79.454ZM69.5004 71.7369C71.3367 71.7369 72.8304 73.2305 72.8304 75.0669C72.8304 76.9026 71.3367 78.3962 69.5004 78.3962C67.664 78.3962 66.1704 76.9026 66.1704 75.0669C66.1704 73.2305 67.664 71.7369 69.5004 71.7369Z"
    fill="white"/>
  <path
    d="M96.2835 48.1532H42.7172C40.6671 48.1532 39 49.8211 39 51.8704V65.3921V70.6784V71.2073V78.9244V79.4533V84.2113V84.7395V88.2184C39 90.2677 40.6678 91.9355 42.7172 91.9355H96.2828C98.3329 91.9355 100 90.2677 100 88.2184V84.7395V79.4533V78.9244V71.208V70.6791V65.9203V65.3921V51.8704C100.001 49.8211 98.3329 48.1532 96.2835 48.1532ZM40.0578 71.7785C41.189 71.959 42.1572 72.7094 42.6057 73.7919C42.9464 74.6134 42.9457 75.5182 42.6057 76.3398C42.2651 77.1614 41.6255 77.8017 40.8039 78.1416C40.5627 78.2417 40.3131 78.3123 40.0578 78.3532V71.7785ZM40.0578 79.418C40.4527 79.3708 40.8378 79.2728 41.2087 79.1197C42.2912 78.6712 43.1339 77.8278 43.5832 76.7453C44.0317 75.6621 44.0317 74.4696 43.5832 73.3871C42.9703 71.9075 41.6192 70.9061 40.0578 70.7178V65.9471C40.4972 65.9718 40.933 66.0169 41.3561 66.1037L41.7835 66.1911L43.1149 62.9746L45.5429 63.9803L44.2101 67.1967L44.5747 67.4372C45.6022 68.1156 46.4703 68.9851 47.1543 70.0218L47.3948 70.3864L50.6141 69.0528L51.6197 71.4809L48.3998 72.8144L48.4879 73.2425C48.7375 74.4583 48.739 75.6868 48.4914 76.8941L48.404 77.3214L51.6204 78.6536L50.6155 81.0809L47.3991 79.7488L47.1586 80.1127C46.4802 81.1395 45.6106 82.0076 44.5726 82.6923L44.208 82.9328L45.5429 86.1521L43.1149 87.1584L41.7814 83.9377L41.354 84.0252C40.928 84.1126 40.4929 84.1578 40.0571 84.1838V79.418H40.0578ZM98.9429 78.3539C97.8117 78.1733 96.8435 77.423 96.3957 76.3412C95.6926 74.6452 96.5007 72.6931 98.1975 71.9908C98.4387 71.8913 98.6883 71.8208 98.9429 71.7799V78.3539ZM98.9429 70.7143C98.5494 70.7616 98.1636 70.8596 97.7927 71.0126C95.5579 71.9386 94.4923 74.5105 95.4182 76.7453C96.0304 78.2248 97.3808 79.2262 98.9429 79.4138V84.1853C98.5057 84.1606 98.0698 84.1154 97.6439 84.0287L97.2165 83.9413L95.8851 87.1577L93.4578 86.1521L94.7899 82.9342L94.4253 82.6937C93.3971 82.016 92.5297 81.1465 91.8456 80.1084L91.6052 79.7438L88.3859 81.0788L87.3796 78.6508L90.5988 77.3172L90.5114 76.8899C90.2632 75.6727 90.2617 74.4442 90.5086 73.2376L90.596 72.8102L87.3788 71.4774L88.3845 69.0493L91.6016 70.3822L91.8421 70.0176C92.5212 68.9887 93.3908 68.1213 94.4253 67.4393L94.7899 67.1988L93.4564 63.9782L95.8837 62.9732L97.2186 66.1939L97.646 66.1058C98.072 66.0183 98.5057 65.9725 98.9408 65.9464V70.7143H98.9429ZM98.9429 64.878C98.5825 64.897 98.2229 64.9358 97.8667 64.993L96.4577 61.5931L92.0763 63.4083L93.4839 66.8082C92.6052 67.4421 91.8428 68.2031 91.2103 69.0775L87.814 67.6706L85.9987 72.0528L89.395 73.4604C89.2244 74.5246 89.2258 75.6021 89.3979 76.6734L85.998 78.0817L87.814 82.4638L91.2117 81.0548C91.8471 81.9356 92.608 82.698 93.4817 83.3298L92.0756 86.7261L96.457 88.5413L97.8639 85.1443C98.2186 85.2008 98.579 85.2381 98.9422 85.2565V88.2198C98.9422 89.6859 97.749 90.8791 96.2828 90.8791H42.7172C41.2503 90.8791 40.0578 89.6859 40.0578 88.2198V85.2558C40.4189 85.2367 40.7785 85.1979 41.1354 85.1408L42.5437 88.5413L46.9259 86.7254L45.5168 83.3263C46.397 82.6909 47.16 81.93 47.7926 81.0569L51.1889 82.4638L53.0034 78.0824L49.6078 76.6755C49.7791 75.6099 49.7777 74.5323 49.605 73.4618L53.0041 72.0542L51.1889 67.672L47.7897 69.0796C47.1543 68.2002 46.3934 67.4379 45.5197 66.8053L46.9266 63.4098L42.5444 61.5945L41.1368 64.9887C40.7828 64.9323 40.4224 64.8949 40.0578 64.8766V59.2547H98.9429V64.878ZM98.9429 58.1968H40.0578V51.8704C40.0578 50.4043 41.251 49.211 42.7172 49.211H96.2828C97.7497 49.211 98.9422 50.4043 98.9422 51.8704V58.1968H98.9429Z"
    fill="white"/>
</svg>
