<svg width="63" height="72" viewBox="0 0 63 72" fill="none" xmlns="http://www.w3.org/2000/svg">
  <title>[Icon] Infrastructure Set Up</title>
  <rect x="31.4474" y="9.05591" width="44.2723" height="44.2723" transform="rotate(45 31.4474 9.05591)" fill="#9B51E0"/>
  <rect x="31.4474" y="0.877441" width="44.2723" height="44.2723" transform="rotate(45 31.4474 0.877441)"
        fill="#BB6BD9"/>
  <path
    d="M26.3588 29.9091C26.3589 29.2237 26.1378 28.5567 25.7283 28.0071C25.3188 27.4575 24.7428 27.0549 24.086 26.8591V24.9091C24.086 24.668 23.9903 24.4368 23.8198 24.2663C23.6493 24.0958 23.4181 24 23.1769 24C22.9358 24 22.7046 24.0958 22.5341 24.2663C22.3636 24.4368 22.2679 24.668 22.2679 24.9091V26.8591C21.6124 27.0557 21.0377 27.4583 20.6292 28.0074C20.2206 28.5564 20 29.2225 20 29.9068C20 30.5912 20.2206 31.2573 20.6292 31.8063C21.0377 32.3553 21.6124 32.758 22.2679 32.9545V43.0909C22.2679 43.332 22.3636 43.5632 22.5341 43.7337C22.7046 43.9042 22.9358 44 23.1769 44C23.4181 44 23.6493 43.9042 23.8198 43.7337C23.9903 43.5632 24.086 43.332 24.086 43.0909V32.9591C24.7428 32.7633 25.3188 32.3606 25.7283 31.8111C26.1378 31.2615 26.3589 30.5944 26.3588 29.9091ZM23.1769 31.2727C22.9072 31.2727 22.6436 31.1928 22.4194 31.0429C22.1951 30.8931 22.0203 30.6801 21.9171 30.4309C21.8139 30.1818 21.7869 29.9076 21.8395 29.6431C21.8921 29.3785 22.022 29.1356 22.2127 28.9449C22.4034 28.7541 22.6464 28.6243 22.9109 28.5717C23.1754 28.519 23.4496 28.546 23.6988 28.6493C23.948 28.7525 24.1609 28.9272 24.3108 29.1515C24.4606 29.3757 24.5406 29.6394 24.5406 29.9091C24.5406 30.2708 24.3969 30.6176 24.1412 30.8733C23.8855 31.1291 23.5386 31.2727 23.1769 31.2727Z"
    fill="white"/>
  <path
    d="M33.6315 38.0909C33.6316 37.4056 33.4105 36.7385 33.001 36.1889C32.5915 35.6394 32.0155 35.2367 31.3587 35.0409V24.9091C31.3587 24.668 31.263 24.4368 31.0925 24.2663C30.922 24.0958 30.6908 24 30.4497 24C30.2085 24 29.9773 24.0958 29.8068 24.2663C29.6363 24.4368 29.5406 24.668 29.5406 24.9091V35.0409C28.8851 35.2375 28.3104 35.6402 27.9019 36.1892C27.4933 36.7382 27.2727 37.4043 27.2727 38.0886C27.2727 38.773 27.4933 39.4391 27.9019 39.9881C28.3104 40.5371 28.8851 40.9398 29.5406 41.1364V43.0909C29.5406 43.332 29.6363 43.5632 29.8068 43.7337C29.9773 43.9042 30.2085 44 30.4497 44C30.6908 44 30.922 43.9042 31.0925 43.7337C31.263 43.5632 31.3587 43.332 31.3587 43.0909V41.1409C32.0155 40.9451 32.5915 40.5425 33.001 39.9929C33.4105 39.4433 33.6316 38.7763 33.6315 38.0909ZM30.4497 39.4545C30.18 39.4545 29.9163 39.3746 29.6921 39.2247C29.4678 39.0749 29.293 38.8619 29.1898 38.6128C29.0866 38.3636 29.0596 38.0894 29.1122 37.8249C29.1648 37.5604 29.2947 37.3174 29.4854 37.1267C29.6761 36.936 29.9191 36.8061 30.1836 36.7535C30.4481 36.7009 30.7223 36.7279 30.9715 36.8311C31.2207 36.9343 31.4336 37.1091 31.5835 37.3333C31.7333 37.5576 31.8133 37.8212 31.8133 38.0909C31.8133 38.4526 31.6696 38.7994 31.4139 39.0551C31.1582 39.3109 30.8113 39.4545 30.4497 39.4545Z"
    fill="white"/>
  <path
    d="M40.9042 29.9091C40.9044 29.2237 40.6832 28.5567 40.2737 28.0071C39.8642 27.4575 39.2882 27.0549 38.6314 26.8591V24.9091C38.6314 24.668 38.5357 24.4368 38.3652 24.2663C38.1947 24.0958 37.9635 24 37.7224 24C37.4813 24 37.25 24.0958 37.0795 24.2663C36.909 24.4368 36.8133 24.668 36.8133 24.9091V26.8591C36.1578 27.0557 35.5831 27.4583 35.1746 28.0074C34.766 28.5564 34.5454 29.2225 34.5454 29.9068C34.5454 30.5912 34.766 31.2573 35.1746 31.8063C35.5831 32.3553 36.1578 32.758 36.8133 32.9545V43.0909C36.8133 43.332 36.909 43.5632 37.0795 43.7337C37.25 43.9042 37.4813 44 37.7224 44C37.9635 44 38.1947 43.9042 38.3652 43.7337C38.5357 43.5632 38.6314 43.332 38.6314 43.0909V32.9591C39.2882 32.7633 39.8642 32.3606 40.2737 31.8111C40.6832 31.2615 40.9044 30.5944 40.9042 29.9091ZM37.7224 31.2727C37.4527 31.2727 37.189 31.1928 36.9648 31.0429C36.7405 30.8931 36.5657 30.6801 36.4625 30.4309C36.3593 30.1818 36.3323 29.9076 36.3849 29.6431C36.4375 29.3785 36.5674 29.1356 36.7581 28.9449C36.9488 28.7541 37.1918 28.6243 37.4563 28.5717C37.7208 28.519 37.995 28.546 38.2442 28.6493C38.4934 28.7525 38.7063 28.9272 38.8562 29.1515C39.006 29.3757 39.086 29.6394 39.086 29.9091C39.086 30.2708 38.9423 30.6176 38.6866 30.8733C38.4309 31.1291 38.084 31.2727 37.7224 31.2727Z"
    fill="white"/>
</svg>
