<svg width="63" height="72" viewBox="0 0 63 72" fill="none" xmlns="http://www.w3.org/2000/svg">
  <title>[Icon] Crypto Backend</title>

  <rect x="31.4474" y="8.84497" width="44.2723" height="44.2723" transform="rotate(45 31.4474 8.84497)" fill="#9B51E0"/>
  <rect x="31.4474" y="0.666565" width="44.2723" height="44.2723" transform="rotate(45 31.4474 0.666565)"
        fill="#BB6BD9"/>
  <path
    d="M20.3089 38.5099L23.5254 40.1841C23.49 40.3143 23.4551 40.4441 23.4205 40.5739C22.9616 42.2852 22.5255 43.9126 21.2701 43.9922C20.9739 44.0108 20.7489 44.2662 20.7674 44.5624C20.786 44.8586 21.0413 45.0837 21.3376 45.0651C23.3645 44.9366 23.8984 42.9455 24.4597 40.8512L24.5022 40.6928L26.1874 41.5701L26.1343 41.7673C25.6754 43.479 25.2392 45.1064 23.9839 45.1856C23.6877 45.2046 23.4626 45.4595 23.4812 45.7558C23.4997 46.052 23.7551 46.2775 24.0513 46.2585C26.0673 46.1308 26.6062 44.1604 27.1642 42.0787L31.6077 44.3917C31.6865 44.4368 31.7775 44.4625 31.8749 44.4625C31.9718 44.4625 32.0633 44.4368 32.1421 44.3917L43.4404 38.5099C43.6233 38.4236 43.7497 38.2381 43.7497 38.0224V25.1029C43.7497 24.888 43.6237 24.7022 43.4413 24.6158L32.1231 18.7239C31.9609 18.6396 31.7754 18.646 31.6246 18.7248L20.3089 24.6158C20.1265 24.7018 20.0001 24.8876 20.0001 25.1029V38.0224C20.0001 38.2381 20.1265 38.4236 20.3089 38.5099ZM31.3364 43.037L27.4587 41.0181C27.8561 39.6801 28.3744 38.4695 29.4342 38.094C29.714 37.9954 29.8611 37.6882 29.762 37.4084C29.6634 37.1282 29.3562 36.9816 29.0764 37.0802C27.6104 37.5993 26.9564 38.9865 26.487 40.5124L24.8023 39.6355C25.1929 38.3738 25.7108 37.258 26.7204 36.9002C27.0002 36.8016 27.1473 36.4944 27.0487 36.2146C26.9497 35.9348 26.6429 35.7878 26.3627 35.8864C24.9573 36.3844 24.2978 37.6798 23.8322 39.1307L21.0772 37.6962V25.99L31.3364 31.3307V43.037ZM42.6726 37.6962L32.4134 43.037V31.3307L42.6726 25.99V37.6962ZM23.0177 31.6922C22.7202 31.6922 22.4791 31.9333 22.4791 32.2308C22.4791 32.5283 22.7202 32.7693 23.0177 32.7693H23.5398V33.2914C23.5398 33.5889 23.7808 33.83 24.0783 33.83C24.3758 33.83 24.6168 33.5889 24.6168 33.2914V32.7693H25.1389C25.4364 32.7693 25.6775 32.5283 25.6775 32.2308C25.6775 31.9333 25.4364 31.6922 25.1389 31.6922H24.6168V31.1701C24.6168 30.8726 24.3758 30.6316 24.0783 30.6316C23.7808 30.6316 23.5398 30.8726 23.5398 31.1701V31.6922H23.0177ZM41.9917 18.0611C41.6942 18.0611 41.4531 18.3021 41.4531 18.5996C41.4531 18.8971 41.6942 19.1381 41.9917 19.1381H42.5138V19.6602C42.5138 19.9577 42.7552 20.1988 43.0523 20.1988C43.3498 20.1988 43.5908 19.9577 43.5908 19.6602V19.1381H44.113C44.4105 19.1381 44.6515 18.8971 44.6515 18.5996C44.6515 18.3021 44.4105 18.0611 44.113 18.0611H43.5908V17.5385C43.5908 17.2415 43.3498 17 43.0523 17C42.7552 17 42.5138 17.2415 42.5138 17.5385V18.0611H41.9917ZM40.9841 29.2031C40.9841 28.9056 40.7431 28.6645 40.4456 28.6645C40.1481 28.6645 39.907 28.9056 39.907 29.2031V36.888C39.907 37.1851 40.1481 37.4265 40.4456 37.4265C40.7431 37.4265 40.9841 37.1851 40.9841 36.888V29.2031ZM38.5325 30.2578C38.5325 29.9603 38.291 29.7193 37.9939 29.7193C37.6964 29.7193 37.4554 29.9603 37.4554 30.2578V37.9428C37.4554 38.2403 37.6964 38.4813 37.9939 38.4813C38.291 38.4813 38.5325 38.2403 38.5325 37.9428V30.2578ZM35.6628 31.79C35.6628 31.4929 35.4217 31.2515 35.1242 31.2515C34.8267 31.2515 34.5857 31.4929 34.5857 31.79V39.4749C34.5857 39.7724 34.8267 40.0135 35.1242 40.0135C35.4217 40.0135 35.6628 39.7724 35.6628 39.4749V31.79ZM35.7281 21.814V23.3504L31.3692 21.0378C31.3309 21.0104 31.2887 20.9881 31.2441 20.9716L30.4497 20.5502L31.8749 19.8082L35.7281 21.814ZM36.8052 23.9218V22.3749L42.0456 25.1029L40.524 25.8952L36.8052 23.9218ZM30.518 21.8026V23.261L27.9041 21.8751L29.2926 21.1524L30.518 21.8026ZM31.5951 23.8324V22.374L39.3668 26.4977L37.9817 27.2188L31.5951 23.8324ZM32.9975 25.7923V27.5849L25.0408 23.366L26.7466 22.4777L32.9975 25.7923ZM34.0746 28.1559V26.3633L36.8241 27.8209L35.1179 28.7096C35.1108 28.7054 35.1036 28.7012 35.0964 28.6974L34.0746 28.1559ZM25.3707 24.757V27.0118L21.7042 25.1029L23.8832 23.9686L25.3707 24.757ZM26.4478 27.5723V25.328L29.2193 26.7978V29.0151L26.4478 27.5723ZM30.2964 29.576V27.3688L33.9608 29.3118L31.8749 30.3977L30.2964 29.576Z"
    fill="white"/>
</svg>
