<svg width="63" height="72" viewBox="0 0 63 72" fill="none" xmlns="http://www.w3.org/2000/svg">
  <title>[Icon] Development</title>

  <rect x="31.4475" y="8.84491" width="44.2723" height="44.2723" transform="rotate(45 31.4475 8.84491)" fill="#9B51E0"/>
  <rect x="31.4475" y="0.666443" width="44.2723" height="44.2723" transform="rotate(45 31.4475 0.666443)"
        fill="#BB6BD9"/>
  <path
    d="M27.5738 32.3949C26.7385 31.5596 25.9032 30.7243 25.0647 29.8858C24.9449 29.7661 24.8251 29.6463 24.7054 29.5265C24.7054 29.8228 24.7054 30.1223 24.7054 30.4186C25.5407 29.5832 26.376 28.7479 27.2144 27.9095C27.3342 27.7897 27.454 27.6699 27.5738 27.5501C27.807 27.3169 27.826 26.8882 27.5738 26.6581C27.3216 26.428 26.9308 26.4091 26.6817 26.6581C25.8464 27.4934 25.0111 28.3287 24.1726 29.1672C24.0529 29.2869 23.9331 29.4067 23.8133 29.5265C23.5737 29.7661 23.5706 30.1758 23.8133 30.4186C24.6486 31.2539 25.4839 32.0892 26.3224 32.9276C26.4422 33.0474 26.562 33.1672 26.6817 33.287C26.915 33.5202 27.3437 33.5392 27.5738 33.287C27.8039 33.0348 27.8228 32.644 27.5738 32.3949Z"
    fill="white"/>
  <path
    d="M34.6755 33.287C35.5108 32.4517 36.3461 31.6163 37.1846 30.7779C37.3043 30.6581 37.4241 30.5383 37.5439 30.4185C37.7835 30.179 37.7866 29.7692 37.5439 29.5265C36.7086 28.6912 35.8733 27.8559 35.0348 27.0174C34.915 26.8976 34.7953 26.7778 34.6755 26.6581C34.4422 26.4248 34.0135 26.4059 33.7834 26.6581C33.5533 26.9102 33.5344 27.3011 33.7834 27.5501C34.6187 28.3854 35.454 29.2207 36.2925 30.0592C36.4123 30.179 36.5321 30.2988 36.6519 30.4185C36.6519 30.1222 36.6519 29.8228 36.6519 29.5265C35.8165 30.3618 34.9812 31.1971 34.1428 32.0356C34.023 32.1554 33.9032 32.2751 33.7834 32.3949C33.5502 32.6282 33.5313 33.0569 33.7834 33.287C34.0356 33.5171 34.4265 33.536 34.6755 33.287Z"
    fill="white"/>
  <path
    d="M29.8874 34.4249C30.2057 33.4541 30.521 32.4832 30.8393 31.5124C31.3405 29.9773 31.8417 28.4453 32.3429 26.9103C32.4564 26.5604 32.573 26.2073 32.6865 25.8575C32.7873 25.5422 32.5667 25.1545 32.2452 25.082C31.8984 25.0032 31.5801 25.186 31.4697 25.5233C31.1514 26.4942 30.8362 27.465 30.5178 28.4359C30.0166 29.971 29.5154 31.5029 29.0142 33.038C28.9008 33.3879 28.7841 33.7409 28.6707 34.0908C28.5698 34.406 28.7904 34.7937 29.112 34.8662C29.4587 34.945 29.7771 34.7622 29.8874 34.4249Z"
    fill="white"/>
  <path
    d="M43.0917 23.6478C43.0917 24.5115 43.0917 25.372 43.0917 26.2357C43.0917 27.9851 43.0917 29.7314 43.0917 31.4808C43.0917 32.8583 43.0917 34.2326 43.0917 35.6101C43.0917 35.7488 43.0917 35.8875 43.0917 36.0262C43.0917 36.0514 43.0917 36.0766 43.0917 36.1018C43.0917 36.1333 43.1043 36.3099 43.079 36.3256C43.079 36.3256 43.1106 36.1617 43.0822 36.2878C43.0727 36.3288 43.0664 36.3729 43.057 36.4139C43.0381 36.4958 43.0097 36.5746 42.9813 36.6566C42.934 36.7953 43.0475 36.5337 42.9782 36.6597C42.9656 36.685 42.953 36.7102 42.9403 36.7354C42.9088 36.7953 42.871 36.8552 42.8332 36.9151C42.8269 36.9277 42.8174 36.9371 42.8111 36.9497C42.7701 37.0033 42.7796 36.9939 42.8363 36.9214C42.8363 36.9403 42.7701 37.0002 42.7575 37.0159C42.7008 37.0758 42.6441 37.1357 42.581 37.1893C42.581 37.1893 42.5274 37.2429 42.518 37.2429C42.54 37.2271 42.5589 37.2114 42.581 37.1956C42.5589 37.2114 42.5369 37.2271 42.5117 37.2429C42.4549 37.2807 42.395 37.3185 42.332 37.3501C42.3194 37.3564 42.228 37.41 42.2185 37.4068C42.2217 37.41 42.3446 37.3595 42.2532 37.391C42.1712 37.4194 42.0924 37.4446 42.0105 37.4667C41.9695 37.4762 41.9254 37.4825 41.8844 37.4919C41.7394 37.5234 42.0294 37.4856 41.8812 37.4919C41.8213 37.4951 41.7646 37.4982 41.7047 37.4982C41.7016 37.4982 41.6984 37.4982 41.6953 37.4982C41.6763 37.4982 41.6543 37.4982 41.6354 37.4982C40.9072 37.4982 40.1791 37.4982 39.4509 37.4982C37.9915 37.4982 36.5321 37.4982 35.0726 37.4982C33.2885 37.4982 31.5044 37.4982 29.7203 37.4982C28.0024 37.4982 26.2814 37.4982 24.5635 37.4982C23.3184 37.4982 22.0733 37.4982 20.8282 37.4982C20.5067 37.4982 20.182 37.4982 19.8605 37.4982C19.7975 37.4982 19.7313 37.4982 19.6682 37.4982C19.6651 37.4982 19.6588 37.4982 19.6556 37.4982C19.6556 37.4982 19.6556 37.4982 19.6525 37.4982C19.6146 37.4982 19.602 37.4982 19.5642 37.4951C19.5421 37.4951 19.3656 37.4919 19.4728 37.4919C19.5768 37.4888 19.4507 37.4856 19.4287 37.4825C19.3877 37.473 19.3436 37.4635 19.3026 37.4541C19.2332 37.4352 19.167 37.4131 19.1008 37.3879C18.9716 37.3438 19.1891 37.4415 19.1166 37.3942C19.0882 37.3753 19.0536 37.3627 19.022 37.3469C18.9495 37.3091 18.8802 37.2618 18.8108 37.2177C18.6911 37.142 18.9149 37.3122 18.8077 37.2145C18.7856 37.1956 18.7667 37.1798 18.7446 37.1609C18.6848 37.1042 18.6249 37.0475 18.5713 36.9844C18.5618 36.975 18.5177 36.9308 18.5177 36.9214C18.5335 36.9434 18.5492 36.9624 18.565 36.9844C18.5492 36.9624 18.5335 36.9403 18.5177 36.9151C18.4704 36.8457 18.4294 36.7732 18.3916 36.7007C18.3822 36.6818 18.3128 36.5841 18.3695 36.6629C18.4263 36.7386 18.3632 36.6471 18.3538 36.6219C18.3286 36.5557 18.3097 36.4864 18.2939 36.4202C18.2844 36.3792 18.2781 36.3351 18.2687 36.2941C18.2372 36.1491 18.275 36.4391 18.2687 36.291C18.2655 36.2311 18.2624 36.1743 18.2624 36.1144C18.2624 36.0451 18.2624 35.9789 18.2624 35.9095C18.2624 35.4525 18.2624 34.9954 18.2624 34.5384C18.2624 32.8898 18.2624 31.2381 18.2624 29.5895C18.2624 28.0072 18.2624 26.428 18.2624 24.8456C18.2624 24.4736 18.2624 24.1017 18.2624 23.7297C18.2624 23.7077 18.2624 23.6856 18.2624 23.6635C18.2624 23.6478 18.2624 23.6352 18.2624 23.6163C18.2624 23.5879 18.2655 23.5564 18.2655 23.528C18.2655 23.5122 18.2687 23.4996 18.2687 23.4839C18.275 23.4145 18.275 23.4271 18.2624 23.5217C18.2435 23.4965 18.297 23.3483 18.3065 23.3105C18.3286 23.2286 18.3664 23.1497 18.3853 23.0709C18.3475 23.2254 18.3664 23.1151 18.3916 23.0678C18.4074 23.0363 18.4231 23.0048 18.442 22.9764C18.4578 22.948 18.5366 22.7873 18.565 22.7841C18.5555 22.7841 18.4799 22.885 18.5429 22.8125C18.5713 22.7809 18.5965 22.7494 18.6249 22.7211C18.6816 22.6612 18.7446 22.6076 18.8045 22.5508C18.9117 22.4563 18.6879 22.6265 18.8077 22.5477C18.8298 22.5319 18.8518 22.5162 18.877 22.5004C18.9369 22.4626 18.9968 22.4279 19.0567 22.3964C19.0693 22.3901 19.0819 22.3838 19.0945 22.3775C19.1576 22.3491 19.145 22.3523 19.0599 22.3901C19.0725 22.3712 19.1576 22.3523 19.1796 22.346C19.2616 22.3176 19.3436 22.2987 19.4255 22.2798C19.4255 22.2798 19.5043 22.2608 19.5106 22.264C19.4822 22.2672 19.457 22.2703 19.4287 22.2766C19.457 22.2735 19.4854 22.2703 19.5169 22.2703C19.561 22.2672 19.6052 22.2672 19.6493 22.2672C19.6525 22.2672 19.6556 22.2672 19.6588 22.2672C19.6777 22.2672 19.6997 22.2672 19.7187 22.2672C19.8132 22.2672 19.9078 22.2672 20.0023 22.2672C20.3774 22.2672 20.7526 22.2672 21.1245 22.2672C22.4389 22.2672 23.7565 22.2672 25.071 22.2672C26.8109 22.2672 28.5541 22.2672 30.294 22.2672C32.0687 22.2672 33.8402 22.2672 35.6148 22.2672C37.0144 22.2672 38.4139 22.2672 39.8134 22.2672C40.4376 22.2672 41.0617 22.264 41.6858 22.2672C41.689 22.2672 41.6953 22.2672 41.6984 22.2672C41.7142 22.2672 41.7268 22.2672 41.7425 22.2672C41.7709 22.2672 41.8024 22.2703 41.8308 22.2703C41.8466 22.2703 41.8592 22.2735 41.8749 22.2735C41.9443 22.2798 41.9317 22.2798 41.8371 22.2672C41.8592 22.2514 42.0199 22.305 42.0483 22.3113C42.1176 22.3302 42.1838 22.3523 42.25 22.3775C42.3887 22.4248 42.1271 22.3113 42.2532 22.3806C42.2847 22.3964 42.3162 22.4122 42.3446 22.4279C42.4108 22.4657 42.4738 22.5067 42.54 22.5477C42.6409 22.6139 42.5117 22.5225 42.5117 22.5225C42.5306 22.5225 42.5936 22.5918 42.6062 22.6013C42.6567 22.6486 42.7071 22.6958 42.7512 22.7463C42.7638 22.762 42.83 22.8219 42.83 22.8408C42.83 22.8188 42.7575 22.7368 42.8048 22.8125C42.8489 22.8818 42.8962 22.9512 42.934 23.0237C42.9467 23.0489 42.9593 23.0741 42.9719 23.0993C43.0412 23.2254 42.9277 22.9638 42.975 23.1025C42.9971 23.1687 43.0223 23.2349 43.0412 23.3042C43.0601 23.3735 43.0633 23.446 43.0853 23.5154C43.0381 23.3641 43.079 23.465 43.0822 23.5217C43.0917 23.5595 43.0917 23.6037 43.0917 23.6478C43.0948 23.9788 43.3785 24.294 43.7221 24.2782C44.0594 24.2624 44.3557 24.0008 44.3525 23.6478C44.3367 22.1947 43.1547 21.0126 41.7016 21C41.5282 21 41.358 21 41.1846 21C40.1318 21 39.0822 21 38.0293 21C36.3808 21 34.7322 21 33.0837 21C31.2523 21 29.424 21 27.5927 21C25.9914 21 24.3933 21 22.792 21C21.8463 21 20.9007 21 19.9519 21C19.5894 21 19.2332 21.0032 18.8833 21.1135C17.7486 21.4665 17.0015 22.5193 17.0015 23.6982C16.9984 24.7605 17.0015 25.8227 17.0015 26.885C17.0015 28.6754 17.0015 30.469 17.0015 32.2594C17.0015 33.4793 17.0015 34.7023 17.0015 35.9222C17.0015 36.0104 16.9984 36.1018 17.0047 36.1901C17.0362 36.9277 17.3672 37.6558 17.9472 38.1255C18.4389 38.5227 19.0189 38.7433 19.6556 38.7496C19.7092 38.7496 19.7596 38.7496 19.8132 38.7496C20.6548 38.7496 21.4965 38.7496 22.3412 38.7496C23.8826 38.7496 25.424 38.7496 26.9654 38.7496C28.7936 38.7496 30.625 38.7496 32.4532 38.7496C34.1491 38.7496 35.8449 38.7496 37.5376 38.7496C38.6787 38.7496 39.8166 38.7496 40.9577 38.7496C41.1909 38.7496 41.4242 38.7496 41.6606 38.7496C42.6913 38.7465 43.6811 38.1696 44.1066 37.2145C44.3336 36.707 44.3557 36.1995 44.3557 35.6605C44.3557 35.0994 44.3557 34.5415 44.3557 33.9804C44.3557 32.2405 44.3557 30.5005 44.3557 28.7605C44.3557 27.2885 44.3557 25.8133 44.3557 24.3413C44.3557 24.1111 44.3557 23.8779 44.3557 23.6478C44.3557 23.3168 44.0657 23.0016 43.7252 23.0174C43.3816 23.0331 43.0917 23.2947 43.0917 23.6478Z"
    fill="white"/>
  <path
    d="M32.3082 38.1192C32.3082 39.5786 32.3082 41.038 32.3082 42.4975C32.3082 42.7086 32.3082 42.9167 32.3082 43.1279C32.5194 42.9167 32.7274 42.7086 32.9386 42.4975C31.6179 42.4975 30.2972 42.4975 28.9764 42.4975C28.7904 42.4975 28.6045 42.4975 28.4153 42.4975C28.6265 42.7086 28.8346 42.9167 29.0458 43.1279C29.0458 41.6684 29.0458 40.209 29.0458 38.7496C29.0458 38.5384 29.0458 38.3303 29.0458 38.1192C28.8346 38.3303 28.6265 38.5384 28.4153 38.7496C29.7361 38.7496 31.0568 38.7496 32.3776 38.7496C32.5635 38.7496 32.7495 38.7496 32.9386 38.7496C33.2696 38.7496 33.5848 38.4596 33.5691 38.1192C33.5533 37.7787 33.2917 37.4887 32.9386 37.4887C31.6179 37.4887 30.2972 37.4887 28.9764 37.4887C28.7904 37.4887 28.6045 37.4887 28.4153 37.4887C28.0749 37.4887 27.7849 37.7787 27.7849 38.1192C27.7849 39.5786 27.7849 41.038 27.7849 42.4975C27.7849 42.7086 27.7849 42.9167 27.7849 43.1279C27.7849 43.4683 28.0749 43.7583 28.4153 43.7583C29.7361 43.7583 31.0568 43.7583 32.3776 43.7583C32.5635 43.7583 32.7495 43.7583 32.9386 43.7583C33.2791 43.7583 33.5691 43.4683 33.5691 43.1279C33.5691 41.6684 33.5691 40.209 33.5691 38.7496C33.5691 38.5384 33.5691 38.3303 33.5691 38.1192C33.5691 37.7882 33.2791 37.473 32.9386 37.4887C32.5982 37.5045 32.3082 37.7661 32.3082 38.1192Z"
    fill="white"/>
  <path
    d="M25.0426 43.7583C25.4177 43.7583 25.7928 43.7583 26.1679 43.7583C27.0631 43.7583 27.9583 43.7583 28.8504 43.7583C29.9379 43.7583 31.0253 43.7583 32.1128 43.7583C33.049 43.7583 33.9852 43.7583 34.9214 43.7583C35.3784 43.7583 35.8386 43.7709 36.2957 43.7583C36.302 43.7583 36.3083 43.7583 36.3146 43.7583C36.6456 43.7583 36.9608 43.4683 36.945 43.1279C36.9293 42.7875 36.6676 42.4975 36.3146 42.4975C35.9395 42.4975 35.5644 42.4975 35.1893 42.4975C34.2941 42.4975 33.3989 42.4975 32.5068 42.4975C31.4194 42.4975 30.3319 42.4975 29.2444 42.4975C28.3082 42.4975 27.372 42.4975 26.4359 42.4975C25.9788 42.4975 25.5186 42.4849 25.0615 42.4975C25.0552 42.4975 25.0489 42.4975 25.0426 42.4975C24.7116 42.4975 24.3964 42.7875 24.4122 43.1279C24.4279 43.4715 24.6896 43.7583 25.0426 43.7583Z"
    fill="white"/>
</svg>
