<svg width="63" height="72" viewBox="0 0 63 72" fill="none" xmlns="http://www.w3.org/2000/svg">
  <title>[Icon] Smart Contracts</title>

  <rect x="31.4474" y="8.84497" width="44.2723" height="44.2723" transform="rotate(45 31.4474 8.84497)" fill="#9B51E0"/>
  <rect x="31.4474" y="0.666504" width="44.2723" height="44.2723" transform="rotate(45 31.4474 0.666504)"
        fill="#BB6BD9"/>
  <path
    d="M40.1517 38.7109H39.743V39.5283H40.1517C40.6783 39.527 41.2032 39.4681 41.717 39.3525L41.5372 38.5352C41.0833 38.6448 40.6186 38.7037 40.1517 38.7109Z"
    fill="white"/>
  <path
    d="M47.1934 30.7005C46.8216 29.1138 45.9263 27.6984 44.6518 26.6827C43.3772 25.6669 41.7978 25.1099 40.1681 25.1015H38.0184V23.6506L31.2546 21.3416L24.4908 23.6506V25.1056H23.9268V25.923H24.4908V31.1297L26.8857 31.947L24.4908 32.7644V38.7108H22.3901C20.9596 38.7034 19.5724 38.2196 18.4475 37.336C17.3226 36.4523 16.524 35.2191 16.178 33.8311C16.4816 33.7099 16.742 33.5005 16.9253 33.2298C17.1087 32.9592 17.2068 32.6397 17.2068 32.3128C17.2068 31.9859 17.1087 31.6665 16.9253 31.3958C16.742 31.1252 16.4816 30.9157 16.178 30.7945C16.5868 29.1906 17.5945 27.8041 18.9939 26.9202C19.4665 26.6217 19.9762 26.3867 20.5101 26.2213L20.269 25.4407C19.6665 25.6252 19.0918 25.8905 18.5607 26.2295C16.9468 27.2507 15.799 28.8653 15.3647 30.7251C14.9833 30.789 14.6369 30.986 14.3871 31.2812C14.1372 31.5764 14.0001 31.9506 14.0001 32.3373C14.0001 32.7241 14.1372 33.0983 14.3871 33.3935C14.6369 33.6887 14.9833 33.8857 15.3647 33.9496C15.7373 35.5371 16.6332 36.9531 17.9083 37.9695C19.1835 38.9859 20.7636 39.5436 22.3942 39.5528H24.4948V40.2639L31.2546 42.5484L38.0184 40.2393V39.5282H38.8889V38.7108H38.0184V32.7603L35.6234 31.943L38.0184 31.1256V25.9189H40.1517C41.5839 25.9227 42.9739 26.4044 44.1014 27.2875C45.2289 28.1707 46.0294 29.4049 46.3761 30.7945C46.0724 30.9157 45.8121 31.1252 45.6287 31.3958C45.4453 31.6665 45.3473 31.9859 45.3473 32.3128C45.3473 32.6397 45.4453 32.9592 45.6287 33.2298C45.8121 33.5005 46.0724 33.7099 46.3761 33.8311C46.1264 34.8549 45.6274 35.8011 44.9237 36.5854C44.2199 37.3697 43.3331 37.9679 42.3423 38.3267L42.6243 39.095C43.7564 38.6823 44.7674 37.9932 45.5654 37.0903C46.3634 36.1874 46.923 35.0993 47.1934 33.9251C47.5748 33.8612 47.9212 33.6641 48.1711 33.3689C48.4209 33.0737 48.558 32.6995 48.558 32.3128C48.558 31.9261 48.4209 31.5519 48.1711 31.2567C47.9212 30.9615 47.5748 30.7644 47.1934 30.7005ZM14.7844 32.3353C14.7844 32.1736 14.8323 32.0156 14.9221 31.8812C15.0119 31.7468 15.1396 31.642 15.289 31.5801C15.4383 31.5183 15.6027 31.5021 15.7612 31.5336C15.9198 31.5652 16.0654 31.643 16.1797 31.7573C16.294 31.8716 16.3719 32.0173 16.4034 32.1758C16.435 32.3344 16.4188 32.4987 16.3569 32.6481C16.2951 32.7974 16.1903 32.9251 16.0559 33.0149C15.9215 33.1047 15.7634 33.1527 15.6018 33.1527C15.4913 33.1549 15.3816 33.1348 15.2791 33.0934C15.1767 33.052 15.0837 32.9903 15.0058 32.912C14.9278 32.8337 14.8666 32.7404 14.8257 32.6378C14.7849 32.5352 14.7652 32.4253 14.768 32.3149L14.7844 32.3353ZM36.3427 23.9408L31.2546 25.6941L26.1664 23.9408L31.2546 22.2039L36.3427 23.9408ZM30.8459 32.4334L29.4155 31.943L30.8459 31.4566V32.4334ZM31.6632 31.4566L33.0937 31.943L31.6632 32.4334V31.4566ZM25.3081 30.5411V24.513L30.8459 26.4011V30.5984L28.1526 31.5179L25.3081 30.5411ZM25.3081 33.6227L30.8459 35.5026V41.5431L25.3081 39.6549V33.6227ZM31.6632 41.5431V35.5026L37.201 33.6227V39.6549L31.6632 41.5431ZM36.3427 33.0505L31.2546 34.7874L26.1664 33.0505L28.1526 32.3721L31.2546 33.4347L34.3565 32.3762L36.3427 33.0505ZM34.3565 31.5097L31.6632 30.5984V26.4011L37.201 24.513V30.5411L34.3565 31.5097ZM46.9564 33.1445C46.7947 33.1445 46.6367 33.0966 46.5023 33.0067C46.3679 32.9169 46.2631 32.7893 46.2012 32.6399C46.1394 32.4906 46.1232 32.3262 46.1547 32.1677C46.1863 32.0091 46.2641 31.8635 46.3784 31.7491C46.4927 31.6348 46.6384 31.557 46.7969 31.5254C46.9555 31.4939 47.1198 31.5101 47.2692 31.572C47.4186 31.6338 47.5462 31.7386 47.636 31.873C47.7258 32.0074 47.7738 32.1655 47.7738 32.3271C47.7706 32.5418 47.683 32.7465 47.5301 32.8972C47.3771 33.0478 47.1711 33.1323 46.9564 33.1322V33.1445Z"
    fill="white"/>
  <path
    d="M22.3901 25.9189H23.2484V25.1016H22.3901C22.104 25.1016 21.8302 25.1261 21.5728 25.1506L21.6586 25.968C21.8956 25.9394 22.1408 25.9189 22.3901 25.9189Z"
    fill="white"/>
</svg>
