<svg width="63" height="72" viewBox="0 0 63 72" fill="none" xmlns="http://www.w3.org/2000/svg">
  <title>[Icon] Audit</title>

  <rect x="31.4474" y="8.84497" width="44.2723" height="44.2723" transform="rotate(45 31.4474 8.84497)" fill="#9B51E0"/>
  <rect x="31.4474" y="0.666504" width="44.2723" height="44.2723" transform="rotate(45 31.4474 0.666504)"
        fill="#BB6BD9"/>
  <path
    d="M38.8211 45.2934H23.4042C22.63 45.2934 22.0001 44.6635 22.0001 43.8894V22.7494C22.0001 21.9753 22.63 21.3453 23.4042 21.3453H26.6281C26.7301 21.3453 26.8239 21.4005 26.8735 21.4896C26.9232 21.5787 26.9204 21.6879 26.8667 21.7742C26.7619 21.9429 26.7065 22.1343 26.7065 22.3282V23.794H35.5188V22.3282C35.5188 22.1343 35.4634 21.9429 35.3586 21.7742C35.3049 21.6879 35.3022 21.5787 35.3518 21.4896C35.4014 21.4005 35.4952 21.3453 35.5972 21.3453H38.8211C39.5953 21.3453 40.2252 21.9753 40.2252 22.7494V43.8894C40.2252 44.6635 39.5953 45.2934 38.8211 45.2934ZM23.4042 21.907C22.9397 21.907 22.5618 22.2849 22.5618 22.7494V43.8894C22.5618 44.3539 22.9397 44.7318 23.4042 44.7318H38.8211C39.2857 44.7318 39.6636 44.3539 39.6636 43.8894V22.7494C39.6636 22.2849 39.2857 21.907 38.8211 21.907H36.0237C36.0612 22.0441 36.0804 22.1856 36.0804 22.3282V24.0748C36.0804 24.23 35.9548 24.3556 35.7996 24.3556H26.4257C26.2705 24.3556 26.1449 24.23 26.1449 24.0748V22.3282C26.1449 22.1856 26.1641 22.0441 26.2017 21.907H23.4042Z"
    fill="white"/>
  <path
    d="M35.7996 24.3556H26.4257C26.2705 24.3556 26.1449 24.23 26.1449 24.0748V22.3282C26.1449 22.0296 26.2296 21.7356 26.3895 21.4781C26.4526 21.3709 26.5329 21.268 26.6317 21.1693L28.5107 19.352C28.8061 19.0629 29.2155 18.8967 29.6329 18.8967H32.5869C33.0068 18.8967 33.4069 19.058 33.7132 19.3509L35.5852 21.1663C35.6981 21.2796 35.7777 21.3794 35.8391 21.4836C35.9957 21.7356 36.0804 22.0296 36.0804 22.3282V24.0748C36.0804 24.23 35.9548 24.3556 35.7996 24.3556ZM26.7065 23.794H35.5188V22.3282C35.5188 22.1343 35.4634 21.9429 35.3586 21.7743C35.3183 21.706 35.2662 21.6418 35.1908 21.5661L33.3238 19.7554C33.1239 19.5645 32.8617 19.4584 32.5869 19.4584H29.6329C29.3611 19.4584 29.0948 19.5664 28.9023 19.7545L27.0255 21.5697C26.964 21.6311 26.9122 21.6975 26.87 21.7688C26.7619 21.9429 26.7065 22.1343 26.7065 22.3282V23.794Z"
    fill="white"/>
  <path
    d="M31.5339 21.907H30.6915C30.5362 21.907 30.4106 21.7814 30.4106 21.6262C30.4106 21.4709 30.5362 21.3453 30.6915 21.3453H31.5339C31.6891 21.3453 31.8147 21.4709 31.8147 21.6262C31.8147 21.7814 31.6891 21.907 31.5339 21.907Z"
    fill="white"/>
  <path
    d="M32.0269 28.0849H25.6507C25.4955 28.0849 25.3699 27.9593 25.3699 27.8041C25.3699 27.6489 25.4955 27.5233 25.6507 27.5233H32.0269C32.1821 27.5233 32.3077 27.6489 32.3077 27.8041C32.3077 27.9593 32.1821 28.0849 32.0269 28.0849Z"
    fill="white"/>
  <path
    d="M37.0816 31.4548H30.7054C30.5502 31.4548 30.4246 31.3292 30.4246 31.174C30.4246 31.0188 30.5502 30.8932 30.7054 30.8932H37.0816C37.2368 30.8932 37.3624 31.0188 37.3624 31.174C37.3624 31.3292 37.2368 31.4548 37.0816 31.4548Z"
    fill="white"/>
  <path
    d="M32.0269 34.8246H25.6507C25.4955 34.8246 25.3699 34.699 25.3699 34.5438C25.3699 34.3885 25.4955 34.2629 25.6507 34.2629H32.0269C32.1821 34.2629 32.3077 34.3885 32.3077 34.5438C32.3077 34.699 32.1821 34.8246 32.0269 34.8246Z"
    fill="white"/>
  <path
    d="M32.0269 41.5642H25.6507C25.4955 41.5642 25.3699 41.4386 25.3699 41.2834C25.3699 41.1282 25.4955 41.0026 25.6507 41.0026H32.0269C32.1821 41.0026 32.3077 41.1282 32.3077 41.2834C32.3077 41.4386 32.1821 41.5642 32.0269 41.5642Z"
    fill="white"/>
  <path
    d="M37.0816 38.1944H30.7054C30.5502 38.1944 30.4246 38.0688 30.4246 37.9136C30.4246 37.7584 30.5502 37.6328 30.7054 37.6328H37.0816C37.2368 37.6328 37.3624 37.7584 37.3624 37.9136C37.3624 38.0688 37.2368 38.1944 37.0816 38.1944Z"
    fill="white"/>
</svg>
