<svg width="63" height="72" viewBox="0 0 63 72" fill="none" xmlns="http://www.w3.org/2000/svg">
  <title>[Icon] Finalizations</title>
  <rect x="31.4474" y="8.84497" width="44.2723" height="44.2723" transform="rotate(45 31.4474 8.84497)" fill="#9B51E0"/>
  <rect x="31.4474" y="0.666504" width="44.2723" height="44.2723" transform="rotate(45 31.4474 0.666504)"
        fill="#BB6BD9"/>
  <path
    d="M37.5292 28.5996C37.4781 28.5996 37.0174 28.6068 36.5443 28.8451C36.4917 28.8712 36.4448 28.9026 36.3964 28.9324V27.4505C36.3964 25.9675 35.1872 25.4289 34.3744 25.4289C34.3233 25.4289 33.8622 25.4357 33.3895 25.674C33.3354 25.7012 33.287 25.7334 33.237 25.7644C33.1803 24.3623 32.0135 23.8475 31.2203 23.8475C31.1692 23.8475 30.7086 23.8543 30.2354 24.0926C29.6004 24.4126 29.2426 25.0072 29.2123 25.7712C28.8397 25.5314 28.4086 25.4285 28.0534 25.4285C28.0023 25.4285 27.5417 25.4353 27.0685 25.6736C26.4051 26.008 26.0397 26.6404 26.0397 27.4543L26.0393 32.3414C25.2205 32.8271 24.4636 33.7189 24.4636 35.3601L24.4633 36.9429C24.4667 38.1207 25.146 40.2906 27.6264 40.5195V50.0406H28.4993V40.5407V39.6681H28.0629C28.0621 39.6681 28.0613 39.6681 28.0606 39.6681C28.0197 39.6681 27.9812 39.6654 27.9414 39.6643C27.9006 39.6628 27.8582 39.6628 27.8189 39.6601C27.783 39.6579 27.7493 39.6533 27.7145 39.6503C27.6733 39.6465 27.6309 39.6435 27.5908 39.6386C27.5606 39.6344 27.5326 39.6287 27.5031 39.6238C27.4611 39.617 27.418 39.6113 27.3771 39.603C27.3537 39.5977 27.3317 39.5921 27.3087 39.5864C27.2644 39.5765 27.2198 39.5667 27.1774 39.555C27.1574 39.5489 27.1388 39.5425 27.1196 39.5365C27.0761 39.5232 27.0326 39.5104 26.9913 39.4952C26.9739 39.4892 26.9581 39.482 26.9407 39.4752C26.8994 39.4589 26.8574 39.4427 26.8181 39.4249C26.8068 39.42 26.7965 39.4143 26.7856 39.409C26.7421 39.3886 26.6986 39.3678 26.6577 39.3451C26.649 39.3402 26.6407 39.3349 26.632 39.3299C26.59 39.3065 26.5488 39.2823 26.5095 39.2566C26.5012 39.2513 26.4936 39.2456 26.4853 39.2399C26.4467 39.2142 26.4085 39.1877 26.3722 39.1605C26.3718 39.1597 26.371 39.1594 26.3707 39.159C25.4092 38.4256 25.3415 37.1385 25.337 36.96C25.3366 36.952 25.3366 36.946 25.3366 36.9422L25.337 35.3604C25.337 35.2674 25.3411 35.1781 25.3472 35.0892C25.3487 35.0673 25.3502 35.0457 25.3525 35.0238C25.3597 34.9383 25.3691 34.8544 25.3824 34.773C25.3827 34.7715 25.3827 34.7696 25.3831 34.7678C25.3971 34.6842 25.4145 34.6032 25.4345 34.5238C25.4391 34.5068 25.4432 34.4898 25.4482 34.4724C25.4693 34.3952 25.4924 34.3196 25.5193 34.2466C25.5193 34.2462 25.5193 34.2458 25.5196 34.2454C25.5476 34.1705 25.5798 34.0979 25.6142 34.0279C25.6203 34.0155 25.6267 34.003 25.6331 33.9909C25.7042 33.8517 25.7886 33.7223 25.8858 33.6032C25.8926 33.5952 25.8998 33.5862 25.907 33.5782C26.104 33.3441 26.3506 33.1489 26.649 32.9954C27.3367 32.6421 28.0496 32.6338 28.0553 32.6338H31.2074C31.3996 32.6361 32.3592 32.703 32.3592 33.7787C32.3592 34.1255 32.2688 34.3842 32.0834 34.5692C31.7559 34.8963 31.223 34.9009 31.2101 34.9009H27.6022V35.0461V35.7735H28.0409H31.2037C31.296 35.7754 32.1091 35.7697 32.692 35.1952C32.8531 35.0363 32.9764 34.8517 33.0653 34.6441C33.4693 34.9652 33.9757 35.0998 34.3823 35.0998C34.4334 35.0998 34.8944 35.093 35.3676 34.8547C35.4724 34.8014 35.5673 34.7386 35.6573 34.6717C35.9989 35.5537 36.8918 35.8949 37.5371 35.8949C37.5882 35.8949 38.0488 35.8881 38.522 35.6498C38.5761 35.6225 38.6245 35.5904 38.6741 35.5598V38.5198C38.6718 38.7119 38.6045 39.6677 37.5326 39.6677H37.0961V50.0406H37.9694V40.5025C38.5685 40.3924 39.0338 40.0493 39.3034 39.5085C39.5398 39.0349 39.547 38.5742 39.547 38.5232V33.9349C39.5474 33.9126 39.5512 33.8922 39.5512 33.8698V30.6212C39.5512 29.1382 38.3424 28.5996 37.5292 28.5996ZM29.2028 31.762H28.0553C28.0417 31.762 27.5383 31.768 26.9127 31.9598L26.913 27.4547C26.913 26.3715 27.8658 26.3041 28.0515 26.3015C28.2437 26.3038 29.2032 26.3711 29.2032 27.4505L29.2028 31.762ZM32.3697 27.3042C32.3667 27.3541 32.361 27.4029 32.361 27.4547L32.3607 32.0993C31.99 31.8637 31.5626 31.762 31.2101 31.762H30.0796V25.8737C30.0796 24.7905 31.0323 24.7231 31.2207 24.7209C31.3383 24.7209 32.3697 24.753 32.3697 25.8699V27.3042ZM35.5238 30.4828C35.5215 30.5305 35.5159 30.5766 35.5159 30.6254V33.2234C35.4323 34.158 34.5703 34.2254 34.3827 34.2284C34.189 34.225 33.2824 34.1546 33.2385 33.1535C33.2389 33.127 33.2431 33.102 33.2431 33.0752V27.3011C33.3297 26.3665 34.1966 26.3041 34.3725 26.3015C34.5654 26.3038 35.5246 26.3711 35.5246 27.4505L35.5238 30.4828ZM38.6782 31.762H38.6741V33.9372C38.6343 34.9485 37.7296 35.0193 37.5367 35.0227C37.3385 35.0193 36.3877 34.9485 36.3877 33.8736V33.2197C36.3907 33.1712 36.396 33.1247 36.396 33.0752L36.3964 30.4802C36.4784 29.538 37.3499 29.4748 37.5288 29.4726C38.6457 29.4726 38.6782 30.504 38.6782 30.6216V31.762Z"
    fill="white"/>
  <path d="M45.7302 19.8696L45.1133 19.2526L41.9546 22.4104L42.5715 23.0275L45.7302 19.8696Z" fill="white"/>
  <path d="M49.0043 31.7581H44.9769V32.6306H49.0043V31.7581Z" fill="white"/>
  <path d="M31.6463 16H30.7733V20.0349H31.6463V16Z" fill="white"/>
  <path d="M18.268 19.8631L21.4263 23.0214L22.0433 22.4044L18.885 19.2461L18.268 19.8631Z" fill="white"/>
  <path d="M41.9571 42.0056L45.1154 45.1638L45.7321 44.5471L42.5738 41.3888L41.9571 42.0056Z" fill="white"/>
  <path d="M18.2676 44.5531L18.8845 45.1702L22.0432 42.0123L21.4263 41.3953L18.2676 44.5531Z" fill="white"/>
  <path d="M19.0278 31.7581H15V32.6306H19.0278V31.7581Z" fill="white"/>
</svg>
