<svg width="63" height="72" viewBox="0 0 63 72" fill="none" xmlns="http://www.w3.org/2000/svg">
  <title>[Icon] Training</title>

  <rect x="31.4474" y="8.84497" width="44.2723" height="44.2723" transform="rotate(45 31.4474 8.84497)" fill="#9B51E0"/>
  <rect x="31.4474" y="0.666504" width="44.2723" height="44.2723" transform="rotate(45 31.4474 0.666504)"
        fill="#BB6BD9"/>
  <path
    d="M21.3297 28.0777C21.3297 26.399 22.7249 25 24.505 25C26.2851 25 27.6803 26.3523 27.6803 28.0777C27.6803 29.8031 26.2851 31.1554 24.505 31.1554C22.7249 31.1554 21.3297 29.7565 21.3297 28.0777ZM34.2233 31.9482C34.6082 31.8549 34.8488 31.4352 34.7044 31.0622C34.6082 30.6891 34.1752 30.456 33.7903 30.5959L26.2851 32.6943H21.0891C20.8486 32.6943 20.608 32.7876 20.4637 33.0207L16.1337 39.4093C15.8932 39.7358 15.9894 40.1554 16.3262 40.3886C16.4705 40.4819 16.5667 40.4819 16.7111 40.4819C16.9516 40.4819 17.1922 40.3886 17.3365 40.1554L20.3675 35.7254V41.8342C20.3675 42.2073 20.7043 42.5337 21.0891 42.5337H26.4294C26.8143 42.5337 27.1511 42.2073 27.1511 41.8342V33.9067L34.2233 31.9482ZM44.1822 25.513H31.048C30.6632 25.513 30.3264 25.8394 30.3264 26.2124V30.1295L33.4536 29.2435C33.646 29.1969 33.8385 29.1503 34.0309 29.1503C34.9931 29.1503 35.8591 29.7565 36.0997 30.6891C36.4364 31.8083 35.7629 32.9741 34.6082 33.3005L30.2783 34.513V36.5181C30.2783 36.8912 30.615 37.2176 30.9999 37.2176H36.8694V38.5699L34.0309 41.8342C33.7903 42.114 33.8385 42.5803 34.1271 42.8135C34.2715 42.9067 34.4158 43 34.6082 43C34.8007 43 35.0412 42.9067 35.1856 42.7668L36.9175 40.7617V42.1606C36.9175 42.5337 37.2543 42.8601 37.6392 42.8601C38.0241 42.8601 38.3609 42.5337 38.3609 42.1606V40.7617L40.0928 42.7668C40.2372 42.9534 40.4296 43 40.6702 43C40.8145 43 41.0069 42.9534 41.1513 42.8135C41.4399 42.5803 41.488 42.114 41.2475 41.8342L38.409 38.5699V37.2176H44.2785C44.6633 37.2176 45.0001 36.8912 45.0001 36.5181V26.2124C44.9039 25.8394 44.5671 25.513 44.1822 25.513Z"
    fill="white"/>
</svg>
