<svg width="63" height="72" viewBox="0 0 63 72" fill="none" xmlns="http://www.w3.org/2000/svg">
  <title>[Icon] Audit</title>

  <rect x="31.4474" y="8.84497" width="44.2723" height="44.2723" transform="rotate(45 31.4474 8.84497)" fill="#9B51E0"/>
  <rect x="31.4474" y="0.666504" width="44.2723" height="44.2723" transform="rotate(45 31.4474 0.666504)"
        fill="#BB6BD9"/>
  <path
    d="M37.821 45.3968H22.4041C21.6299 45.3968 21 44.7669 21 43.9928V22.8528C21 22.0786 21.6299 21.4487 22.4041 21.4487H25.628C25.73 21.4487 25.8238 21.5039 25.8734 21.593C25.9231 21.6821 25.9203 21.7912 25.8666 21.8776C25.7618 22.0463 25.7064 22.2377 25.7064 22.4316V23.8974H34.5187V22.4316C34.5187 22.2377 34.4633 22.0463 34.3585 21.8776C34.3048 21.7912 34.302 21.6821 34.3517 21.593C34.4013 21.5039 34.4951 21.4487 34.5971 21.4487H37.821C38.5952 21.4487 39.2251 22.0786 39.2251 22.8528V43.9928C39.2251 44.7669 38.5952 45.3968 37.821 45.3968ZM22.4041 22.0104C21.9395 22.0104 21.5616 22.3883 21.5616 22.8528V43.9928C21.5616 44.4573 21.9395 44.8352 22.4041 44.8352H37.821C38.2856 44.8352 38.6635 44.4573 38.6635 43.9928V22.8528C38.6635 22.3883 38.2856 22.0104 37.821 22.0104H35.0235C35.0611 22.1475 35.0803 22.289 35.0803 22.4316V24.1782C35.0803 24.3334 34.9547 24.459 34.7995 24.459H25.4256C25.2704 24.459 25.1448 24.3334 25.1448 24.1782V22.4316C25.1448 22.289 25.164 22.1475 25.2016 22.0104H22.4041Z"
    fill="white"/>
  <path
    d="M34.7995 24.4589H25.4256C25.2704 24.4589 25.1448 24.3333 25.1448 24.1781V22.4315C25.1448 22.1329 25.2295 21.8389 25.3894 21.5814C25.4525 21.4741 25.5328 21.3713 25.6315 21.2726L27.5106 19.4552C27.806 19.1662 28.2154 19 28.6328 19H31.5868C32.0067 19 32.4068 19.1613 32.7131 19.4541L34.585 21.2696C34.698 21.3828 34.7775 21.4826 34.839 21.5869C34.9956 21.8389 35.0803 22.1329 35.0803 22.4315V24.1781C35.0803 24.3333 34.9547 24.4589 34.7995 24.4589ZM25.7064 23.8973H34.5187V22.4315C34.5187 22.2376 34.4633 22.0462 34.3585 21.8775C34.3182 21.8093 34.2661 21.7451 34.1907 21.6694L32.3237 19.8586C32.1238 19.6678 31.8616 19.5616 31.5868 19.5616H28.6328C28.361 19.5616 28.0947 19.6697 27.9022 19.8578L26.0253 21.673C25.9639 21.7344 25.9121 21.8008 25.8699 21.8721C25.7618 22.0462 25.7064 22.2376 25.7064 22.4315V23.8973Z"
    fill="white"/>
  <path
    d="M30.5338 22.0104H29.6913C29.5361 22.0104 29.4105 21.8848 29.4105 21.7295C29.4105 21.5743 29.5361 21.4487 29.6913 21.4487H30.5338C30.689 21.4487 30.8146 21.5743 30.8146 21.7295C30.8146 21.8848 30.689 22.0104 30.5338 22.0104Z"
    fill="white"/>
  <path
    d="M31.0268 28.1881H24.6506C24.4954 28.1881 24.3698 28.0625 24.3698 27.9073C24.3698 27.7521 24.4954 27.6265 24.6506 27.6265H31.0268C31.182 27.6265 31.3076 27.7521 31.3076 27.9073C31.3076 28.0625 31.182 28.1881 31.0268 28.1881Z"
    fill="white"/>
  <path
    d="M36.0815 31.558H29.7053C29.55 31.558 29.4244 31.4324 29.4244 31.2772C29.4244 31.1219 29.55 30.9963 29.7053 30.9963H36.0815C36.2367 30.9963 36.3623 31.1219 36.3623 31.2772C36.3623 31.4324 36.2367 31.558 36.0815 31.558Z"
    fill="white"/>
  <path
    d="M31.0268 34.9278H24.6506C24.4954 34.9278 24.3698 34.8022 24.3698 34.647C24.3698 34.4918 24.4954 34.3662 24.6506 34.3662H31.0268C31.182 34.3662 31.3076 34.4918 31.3076 34.647C31.3076 34.8022 31.182 34.9278 31.0268 34.9278Z"
    fill="white"/>
  <path
    d="M31.0268 41.6673H24.6506C24.4954 41.6673 24.3698 41.5417 24.3698 41.3865C24.3698 41.2313 24.4954 41.1057 24.6506 41.1057H31.0268C31.182 41.1057 31.3076 41.2313 31.3076 41.3865C31.3076 41.5417 31.182 41.6673 31.0268 41.6673Z"
    fill="white"/>
  <path
    d="M36.0815 38.2975H29.7053C29.55 38.2975 29.4244 38.1719 29.4244 38.0167C29.4244 37.8614 29.55 37.7358 29.7053 37.7358H36.0815C36.2367 37.7358 36.3623 37.8614 36.3623 38.0167C36.3623 38.1719 36.2367 38.2975 36.0815 38.2975Z"
    fill="white"/>
</svg>
