<svg width="155" height="173" viewBox="0 0 155 173" fill="none" xmlns="http://www.w3.org/2000/svg">
  <title>[Icon] Release</title>
  <rect x="77.4475" y="17.9143" width="109.527" height="109.527" transform="rotate(45 77.4475 17.9143)" fill="#BB6BD9"
        fill-opacity="0.5"/>
  <rect x="77.4473" y="0.666504" width="107.513" height="107.513" transform="rotate(45 77.4473 0.666504)"
        fill="#BB6BD9"/>
  <path
    d="M42.6314 67.9069H48.1114C48.8314 67.9069 49.5114 67.9802 50.1514 68.1269C50.8047 68.2602 51.3714 68.4936 51.8514 68.8269C52.3447 69.1469 52.7314 69.5869 53.0114 70.1469C53.3047 70.6936 53.4514 71.3802 53.4514 72.2069C53.4514 73.2069 53.1914 74.0602 52.6714 74.7669C52.1514 75.4602 51.3914 75.9002 50.3914 76.0869L53.9914 82.0669H50.2514L47.2914 76.4069H45.7514V82.0669H42.6314V67.9069ZM45.7514 73.7669H47.5914C47.8714 73.7669 48.1647 73.7602 48.4714 73.7469C48.7914 73.7202 49.0781 73.6602 49.3314 73.5669C49.5847 73.4602 49.7914 73.3002 49.9514 73.0869C50.1247 72.8736 50.2114 72.5736 50.2114 72.1869C50.2114 71.8269 50.1381 71.5402 49.9914 71.3269C49.8447 71.1136 49.6581 70.9536 49.4314 70.8469C49.2047 70.7269 48.9447 70.6469 48.6514 70.6069C48.3581 70.5669 48.0714 70.5469 47.7914 70.5469H45.7514V73.7669ZM64.4202 80.3869C63.9402 81.0002 63.3335 81.4736 62.6002 81.8069C61.8668 82.1402 61.1068 82.3069 60.3202 82.3069C59.5735 82.3069 58.8668 82.1869 58.2002 81.9469C57.5468 81.7069 56.9735 81.3669 56.4802 80.9269C56.0002 80.4736 55.6202 79.9336 55.3402 79.3069C55.0602 78.6802 54.9202 77.9802 54.9202 77.2069C54.9202 76.4336 55.0602 75.7336 55.3402 75.1069C55.6202 74.4802 56.0002 73.9469 56.4802 73.5069C56.9735 73.0536 57.5468 72.7069 58.2002 72.4669C58.8668 72.2269 59.5735 72.1069 60.3202 72.1069C61.0135 72.1069 61.6402 72.2269 62.2002 72.4669C62.7735 72.7069 63.2535 73.0536 63.6402 73.5069C64.0402 73.9469 64.3468 74.4802 64.5602 75.1069C64.7735 75.7336 64.8802 76.4336 64.8802 77.2069V78.1469H57.9202C58.0402 78.7202 58.3002 79.1802 58.7002 79.5269C59.1002 79.8602 59.5935 80.0269 60.1802 80.0269C60.6735 80.0269 61.0868 79.9202 61.4202 79.7069C61.7668 79.4802 62.0668 79.1936 62.3202 78.8469L64.4202 80.3869ZM61.8802 76.1069C61.8935 75.6002 61.7268 75.1669 61.3802 74.8069C61.0335 74.4469 60.5868 74.2669 60.0402 74.2669C59.7068 74.2669 59.4135 74.3202 59.1602 74.4269C58.9068 74.5336 58.6868 74.6736 58.5002 74.8469C58.3268 75.0069 58.1868 75.2002 58.0802 75.4269C57.9868 75.6402 57.9335 75.8669 57.9202 76.1069H61.8802ZM66.7445 66.9469H69.7445V82.0669H66.7445V66.9469ZM81.0998 80.3869C80.6198 81.0002 80.0132 81.4736 79.2798 81.8069C78.5465 82.1402 77.7865 82.3069 76.9998 82.3069C76.2532 82.3069 75.5465 82.1869 74.8798 81.9469C74.2265 81.7069 73.6532 81.3669 73.1598 80.9269C72.6798 80.4736 72.2998 79.9336 72.0198 79.3069C71.7398 78.6802 71.5998 77.9802 71.5998 77.2069C71.5998 76.4336 71.7398 75.7336 72.0198 75.1069C72.2998 74.4802 72.6798 73.9469 73.1598 73.5069C73.6532 73.0536 74.2265 72.7069 74.8798 72.4669C75.5465 72.2269 76.2532 72.1069 76.9998 72.1069C77.6932 72.1069 78.3198 72.2269 78.8798 72.4669C79.4532 72.7069 79.9332 73.0536 80.3198 73.5069C80.7198 73.9469 81.0265 74.4802 81.2398 75.1069C81.4532 75.7336 81.5598 76.4336 81.5598 77.2069V78.1469H74.5998C74.7198 78.7202 74.9798 79.1802 75.3798 79.5269C75.7798 79.8602 76.2732 80.0269 76.8598 80.0269C77.3532 80.0269 77.7665 79.9202 78.0998 79.7069C78.4465 79.4802 78.7465 79.1936 78.9998 78.8469L81.0998 80.3869ZM78.5598 76.1069C78.5732 75.6002 78.4065 75.1669 78.0598 74.8069C77.7132 74.4469 77.2665 74.2669 76.7198 74.2669C76.3865 74.2669 76.0932 74.3202 75.8398 74.4269C75.5865 74.5336 75.3665 74.6736 75.1798 74.8469C75.0065 75.0069 74.8665 75.2002 74.7598 75.4269C74.6665 75.6402 74.6132 75.8669 74.5998 76.1069H78.5598ZM89.4842 80.8469H89.4442C89.1109 81.3669 88.6642 81.7402 88.1042 81.9669C87.5576 82.1936 86.9776 82.3069 86.3642 82.3069C85.9109 82.3069 85.4709 82.2402 85.0442 82.1069C84.6309 81.9869 84.2642 81.8002 83.9442 81.5469C83.6242 81.2936 83.3709 80.9802 83.1842 80.6069C82.9976 80.2336 82.9042 79.8002 82.9042 79.3069C82.9042 78.7469 83.0042 78.2736 83.2042 77.8869C83.4176 77.5002 83.6976 77.1802 84.0442 76.9269C84.4042 76.6736 84.8109 76.4802 85.2642 76.3469C85.7176 76.2002 86.1842 76.0936 86.6642 76.0269C87.1576 75.9602 87.6442 75.9202 88.1242 75.9069C88.6176 75.8936 89.0709 75.8869 89.4842 75.8869C89.4842 75.3536 89.2909 74.9336 88.9042 74.6269C88.5309 74.3069 88.0842 74.1469 87.5642 74.1469C87.0709 74.1469 86.6176 74.2536 86.2042 74.4669C85.8042 74.6669 85.4442 74.9469 85.1242 75.3069L83.5242 73.6669C84.0842 73.1469 84.7376 72.7602 85.4842 72.5069C86.2309 72.2402 87.0042 72.1069 87.8042 72.1069C88.6842 72.1069 89.4042 72.2202 89.9642 72.4469C90.5376 72.6602 90.9909 72.9802 91.3242 73.4069C91.6709 73.8336 91.9109 74.3602 92.0442 74.9869C92.1776 75.6002 92.2442 76.3136 92.2442 77.1269V82.0669H89.4842V80.8469ZM88.7442 77.8069C88.5176 77.8069 88.2309 77.8202 87.8842 77.8469C87.5509 77.8602 87.2242 77.9136 86.9042 78.0069C86.5976 78.1002 86.3309 78.2402 86.1042 78.4269C85.8909 78.6136 85.7842 78.8736 85.7842 79.2069C85.7842 79.5669 85.9376 79.8336 86.2442 80.0069C86.5509 80.1802 86.8709 80.2669 87.2042 80.2669C87.4976 80.2669 87.7776 80.2269 88.0442 80.1469C88.3242 80.0669 88.5709 79.9536 88.7842 79.8069C88.9976 79.6602 89.1642 79.4736 89.2842 79.2469C89.4176 79.0202 89.4842 78.7536 89.4842 78.4469V77.8069H88.7442ZM99.6264 75.2069C99.1864 74.6602 98.6064 74.3869 97.8864 74.3869C97.6331 74.3869 97.3864 74.4469 97.1464 74.5669C96.9064 74.6869 96.7864 74.8936 96.7864 75.1869C96.7864 75.4269 96.9064 75.6069 97.1464 75.7269C97.3997 75.8336 97.7131 75.9336 98.0864 76.0269C98.4731 76.1069 98.8797 76.2002 99.3064 76.3069C99.7464 76.4002 100.153 76.5536 100.526 76.7669C100.913 76.9802 101.226 77.2736 101.466 77.6469C101.72 78.0069 101.846 78.4936 101.846 79.1069C101.846 79.7336 101.706 80.2536 101.426 80.6669C101.16 81.0669 100.813 81.3936 100.386 81.6469C99.9597 81.8869 99.4797 82.0536 98.9464 82.1469C98.4131 82.2536 97.8864 82.3069 97.3664 82.3069C96.6864 82.3069 95.9997 82.2136 95.3064 82.0269C94.6131 81.8269 94.0264 81.4802 93.5464 80.9869L95.3664 78.9669C95.6464 79.3136 95.9531 79.5802 96.2864 79.7669C96.6331 79.9402 97.0331 80.0269 97.4864 80.0269C97.8331 80.0269 98.1464 79.9802 98.4264 79.8869C98.7064 79.7802 98.8464 79.5936 98.8464 79.3269C98.8464 79.0736 98.7197 78.8869 98.4664 78.7669C98.2264 78.6336 97.9131 78.5269 97.5264 78.4469C97.1531 78.3536 96.7464 78.2602 96.3064 78.1669C95.8797 78.0602 95.4731 77.9069 95.0864 77.7069C94.7131 77.5069 94.3997 77.2269 94.1464 76.8669C93.9064 76.4936 93.7864 76.0002 93.7864 75.3869C93.7864 74.8136 93.8997 74.3202 94.1264 73.9069C94.3664 73.4936 94.6731 73.1536 95.0464 72.8869C95.4331 72.6202 95.8731 72.4269 96.3664 72.3069C96.8597 72.1736 97.3597 72.1069 97.8664 72.1069C98.5064 72.1069 99.1531 72.2002 99.8064 72.3869C100.46 72.5736 101.013 72.9069 101.466 73.3869L99.6264 75.2069ZM112.584 80.3869C112.104 81.0002 111.498 81.4736 110.764 81.8069C110.031 82.1402 109.271 82.3069 108.484 82.3069C107.738 82.3069 107.031 82.1869 106.364 81.9469C105.711 81.7069 105.138 81.3669 104.644 80.9269C104.164 80.4736 103.784 79.9336 103.504 79.3069C103.224 78.6802 103.084 77.9802 103.084 77.2069C103.084 76.4336 103.224 75.7336 103.504 75.1069C103.784 74.4802 104.164 73.9469 104.644 73.5069C105.138 73.0536 105.711 72.7069 106.364 72.4669C107.031 72.2269 107.738 72.1069 108.484 72.1069C109.178 72.1069 109.804 72.2269 110.364 72.4669C110.938 72.7069 111.418 73.0536 111.804 73.5069C112.204 73.9469 112.511 74.4802 112.724 75.1069C112.938 75.7336 113.044 76.4336 113.044 77.2069V78.1469H106.084C106.204 78.7202 106.464 79.1802 106.864 79.5269C107.264 79.8602 107.758 80.0269 108.344 80.0269C108.838 80.0269 109.251 79.9202 109.584 79.7069C109.931 79.4802 110.231 79.1936 110.484 78.8469L112.584 80.3869ZM110.044 76.1069C110.058 75.6002 109.891 75.1669 109.544 74.8069C109.198 74.4469 108.751 74.2669 108.204 74.2669C107.871 74.2669 107.578 74.3202 107.324 74.4269C107.071 74.5336 106.851 74.6736 106.664 74.8469C106.491 75.0069 106.351 75.2002 106.244 75.4269C106.151 75.6402 106.098 75.8669 106.084 76.1069H110.044Z"
    fill="white"/>
</svg>
