<svg width="155" height="2164" viewBox="0 0 155 2164" fill="none" xmlns="http://www.w3.org/2000/svg">
<line x1="77" y1="125.667" x2="76.9999" y2="2027.67" stroke="#E3E3E3" stroke-width="2"/>
<rect x="77.7455" y="18.3333" width="99.2436" height="99.2436" transform="rotate(45 77.7455 18.3333)" fill="#9B51E0"/>
<rect x="77.7455" width="99.2436" height="99.2436" transform="rotate(45 77.7455 0)" fill="#BB6BD9"/>
<path d="M52.7862 52.4579C51.8793 52.4579 51.141 53.1955 51.141 54.1031C51.141 55.0107 51.8786 55.7484 52.7862 55.7484C53.6939 55.7484 54.4315 55.0107 54.4315 54.1031C54.4315 53.1955 53.6931 52.4579 52.7862 52.4579ZM52.7862 54.6898C52.4626 54.6898 52.1988 54.4261 52.1988 54.1024C52.1988 53.7787 52.4626 53.515 52.7862 53.515C53.1099 53.515 53.3737 53.7787 53.3737 54.1024C53.3737 54.4261 53.1099 54.6898 52.7862 54.6898Z" fill="white"/>
<path d="M58.6846 52.4579C57.7777 52.4579 57.0393 53.1955 57.0393 54.1031C57.0393 55.0107 57.777 55.7484 58.6846 55.7484C59.5922 55.7484 60.3298 55.0107 60.3298 54.1031C60.3298 53.1955 59.5915 52.4579 58.6846 52.4579ZM58.6846 54.6898C58.3609 54.6898 58.0971 54.4261 58.0971 54.1024C58.0971 53.7787 58.3609 53.515 58.6846 53.515C59.0083 53.515 59.272 53.7787 59.272 54.1024C59.272 54.4261 59.0083 54.6898 58.6846 54.6898Z" fill="white"/>
<path d="M64.5837 52.4579C63.6768 52.4579 62.9385 53.1955 62.9385 54.1031C62.9385 55.0107 63.6761 55.7484 64.5837 55.7484C65.4913 55.7484 66.229 55.0107 66.229 54.1031C66.229 53.1955 65.4906 52.4579 64.5837 52.4579ZM64.5837 54.6898C64.26 54.6898 63.9963 54.4261 63.9963 54.1024C63.9963 53.7787 64.26 53.515 64.5837 53.515C64.9074 53.515 65.1712 53.7787 65.1712 54.1024C65.1712 54.4261 64.9074 54.6898 64.5837 54.6898Z" fill="white"/>
<path d="M101.33 53.5735H91.6052V54.6313H101.33V53.5735Z" fill="white"/>
<path d="M67.8044 80.4081L65.205 83.0075L68.559 86.3615L71.1584 83.7614C72.0766 84.327 73.0723 84.7381 74.128 84.9878V88.6676H78.8713V84.9878C79.9277 84.7381 80.9227 84.327 81.8409 83.7614L84.4403 86.3615L87.7943 83.0075L85.1949 80.4081C85.7598 79.49 86.1709 78.4942 86.4212 77.4385H90.1003V72.6953H86.4227C86.1723 71.6396 85.7612 70.6438 85.1963 69.7256L87.7957 67.1262L84.4417 63.7722L81.8423 66.3716C80.9241 65.8068 79.9284 65.3956 78.8727 65.1453V61.4662H74.1294V65.1453C73.073 65.3956 72.0773 65.8068 71.1598 66.3716L68.5604 63.7722L65.2064 67.1262L67.8058 69.7256C67.2409 70.6438 66.8298 71.6396 66.5794 72.6953H62.8997V77.4385H66.5794C66.8284 78.4935 67.2395 79.49 67.8044 80.4081ZM63.9568 73.7524H67.4426L67.5251 73.3236C67.76 72.1043 68.2296 70.9689 68.9193 69.9485L69.1633 69.5867L66.7014 67.1255L68.5597 65.2673L71.0216 67.7292L71.3833 67.4845C72.4031 66.7955 73.5385 66.3258 74.7585 66.0903L75.1865 66.007V62.5226H77.8142V66.0077L78.2429 66.0903C79.4622 66.3258 80.5983 66.7955 81.6181 67.4845L81.9798 67.7292L84.4417 65.2673L86.3 67.1255L83.8381 69.5867L84.0821 69.9485C84.7718 70.9682 85.2407 72.1043 85.4763 73.3236L85.5588 73.7524H89.0439V76.38H85.5588L85.4763 76.8087C85.2407 78.0281 84.7718 79.1641 84.0821 80.1839L83.8374 80.5457L86.2992 83.0075L84.441 84.8658L81.9791 82.4032L81.6174 82.6479C80.5976 83.3383 79.4622 83.8073 78.2429 84.0421L77.8142 84.1246V87.6112H75.1865V84.1253L74.7578 84.0428C73.5385 83.808 72.4031 83.339 71.3833 82.6486L71.0216 82.4039L68.5597 84.8665L66.7014 83.0083L69.1633 80.5464L68.9186 80.1846C68.2289 79.1649 67.76 78.0295 67.5251 76.8095L67.4426 76.3807H63.9568V73.7524Z" fill="white"/>
<path d="M76.5004 79.454C78.9199 79.454 80.8882 77.4858 80.8882 75.0669C80.8882 72.6473 78.9199 70.6791 76.5004 70.6791C74.0808 70.6791 72.1125 72.6473 72.1125 75.0669C72.1125 77.4858 74.0808 79.454 76.5004 79.454ZM76.5004 71.7369C78.3367 71.7369 79.8304 73.2305 79.8304 75.0669C79.8304 76.9026 78.3367 78.3962 76.5004 78.3962C74.664 78.3962 73.1704 76.9026 73.1704 75.0669C73.1704 73.2305 74.664 71.7369 76.5004 71.7369Z" fill="white"/>
<path d="M103.284 48.1532H49.7172C47.6671 48.1532 46 49.8211 46 51.8704V65.3921V70.6784V71.2073V78.9244V79.4533V84.2113V84.7395V88.2184C46 90.2677 47.6678 91.9355 49.7172 91.9355H103.283C105.333 91.9355 107 90.2677 107 88.2184V84.7395V79.4533V78.9244V71.208V70.6791V65.9203V65.3921V51.8704C107.001 49.8211 105.333 48.1532 103.284 48.1532ZM47.0578 71.7785C48.189 71.959 49.1572 72.7094 49.6057 73.7919C49.9464 74.6134 49.9457 75.5182 49.6057 76.3398C49.2651 77.1614 48.6255 77.8017 47.8039 78.1416C47.5627 78.2417 47.3131 78.3123 47.0578 78.3532V71.7785ZM47.0578 79.418C47.4527 79.3708 47.8378 79.2728 48.2087 79.1197C49.2912 78.6712 50.1339 77.8278 50.5832 76.7453C51.0317 75.6621 51.0317 74.4696 50.5832 73.3871C49.9703 71.9075 48.6192 70.9061 47.0578 70.7178V65.9471C47.4972 65.9718 47.933 66.0169 48.3561 66.1037L48.7835 66.1911L50.1149 62.9746L52.5429 63.9803L51.2101 67.1967L51.5747 67.4372C52.6022 68.1156 53.4703 68.9851 54.1543 70.0218L54.3948 70.3864L57.6141 69.0528L58.6197 71.4809L55.3998 72.8144L55.4879 73.2425C55.7375 74.4583 55.739 75.6868 55.4914 76.8941L55.404 77.3214L58.6204 78.6536L57.6155 81.0809L54.3991 79.7488L54.1586 80.1127C53.4802 81.1395 52.6106 82.0076 51.5726 82.6923L51.208 82.9328L52.5429 86.1521L50.1149 87.1584L48.7814 83.9377L48.354 84.0252C47.928 84.1126 47.4929 84.1578 47.0571 84.1838V79.418H47.0578ZM105.943 78.3539C104.812 78.1733 103.843 77.423 103.396 76.3412C102.693 74.6452 103.501 72.6931 105.197 71.9908C105.439 71.8913 105.688 71.8208 105.943 71.7799V78.3539ZM105.943 70.7143C105.549 70.7616 105.164 70.8596 104.793 71.0126C102.558 71.9386 101.492 74.5105 102.418 76.7453C103.03 78.2248 104.381 79.2262 105.943 79.4138V84.1853C105.506 84.1606 105.07 84.1154 104.644 84.0287L104.217 83.9413L102.885 87.1577L100.458 86.1521L101.79 82.9342L101.425 82.6937C100.397 82.016 99.5297 81.1465 98.8456 80.1084L98.6052 79.7438L95.3859 81.0788L94.3796 78.6508L97.5988 77.3172L97.5114 76.8899C97.2632 75.6727 97.2617 74.4442 97.5086 73.2376L97.596 72.8102L94.3788 71.4774L95.3845 69.0493L98.6016 70.3822L98.8421 70.0176C99.5212 68.9887 100.391 68.1213 101.425 67.4393L101.79 67.1988L100.456 63.9782L102.884 62.9732L104.219 66.1939L104.646 66.1058C105.072 66.0183 105.506 65.9725 105.941 65.9464V70.7143H105.943ZM105.943 64.878C105.583 64.897 105.223 64.9358 104.867 64.993L103.458 61.5931L99.0763 63.4083L100.484 66.8082C99.6052 67.4421 98.8428 68.2031 98.2103 69.0775L94.814 67.6706L92.9987 72.0528L96.395 73.4604C96.2244 74.5246 96.2258 75.6021 96.3979 76.6734L92.998 78.0817L94.814 82.4638L98.2117 81.0548C98.8471 81.9356 99.608 82.698 100.482 83.3298L99.0756 86.7261L103.457 88.5413L104.864 85.1443C105.219 85.2008 105.579 85.2381 105.942 85.2565V88.2198C105.942 89.6859 104.749 90.8791 103.283 90.8791H49.7172C48.2503 90.8791 47.0578 89.6859 47.0578 88.2198V85.2558C47.4189 85.2367 47.7785 85.1979 48.1354 85.1408L49.5437 88.5413L53.9259 86.7254L52.5168 83.3263C53.397 82.6909 54.16 81.93 54.7926 81.0569L58.1889 82.4638L60.0034 78.0824L56.6078 76.6755C56.7791 75.6099 56.7777 74.5323 56.605 73.4618L60.0041 72.0542L58.1889 67.672L54.7897 69.0796C54.1543 68.2002 53.3934 67.4379 52.5197 66.8053L53.9266 63.4098L49.5444 61.5945L48.1368 64.9887C47.7828 64.9323 47.4224 64.8949 47.0578 64.8766V59.2547H105.943V64.878ZM105.943 58.1968H47.0578V51.8704C47.0578 50.4043 48.251 49.211 49.7172 49.211H103.283C104.75 49.211 105.942 50.4043 105.942 51.8704V58.1968H105.943Z" fill="white"/>
<rect x="77.4474" y="261.056" width="44.2723" height="44.2723" transform="rotate(45 77.4474 261.056)" fill="#9B51E0"/>
<rect x="77.4474" y="252.877" width="44.2723" height="44.2723" transform="rotate(45 77.4474 252.877)" fill="#BB6BD9"/>
<path d="M72.3588 281.909C72.3589 281.224 72.1378 280.557 71.7283 280.007C71.3188 279.458 70.7428 279.055 70.086 278.859V276.909C70.086 276.668 69.9903 276.437 69.8198 276.266C69.6493 276.096 69.4181 276 69.1769 276C68.9358 276 68.7046 276.096 68.5341 276.266C68.3636 276.437 68.2679 276.668 68.2679 276.909V278.859C67.6124 279.056 67.0377 279.458 66.6292 280.007C66.2206 280.556 66 281.222 66 281.907C66 282.591 66.2206 283.257 66.6292 283.806C67.0377 284.355 67.6124 284.758 68.2679 284.955V295.091C68.2679 295.332 68.3636 295.563 68.5341 295.734C68.7046 295.904 68.9358 296 69.1769 296C69.4181 296 69.6493 295.904 69.8198 295.734C69.9903 295.563 70.086 295.332 70.086 295.091V284.959C70.7428 284.763 71.3188 284.361 71.7283 283.811C72.1378 283.262 72.3589 282.594 72.3588 281.909ZM69.1769 283.273C68.9072 283.273 68.6436 283.193 68.4194 283.043C68.1951 282.893 68.0203 282.68 67.9171 282.431C67.8139 282.182 67.7869 281.908 67.8395 281.643C67.8921 281.379 68.022 281.136 68.2127 280.945C68.4034 280.754 68.6464 280.624 68.9109 280.572C69.1754 280.519 69.4496 280.546 69.6988 280.649C69.948 280.752 70.1609 280.927 70.3108 281.151C70.4606 281.376 70.5406 281.639 70.5406 281.909C70.5406 282.271 70.3969 282.618 70.1412 282.873C69.8855 283.129 69.5386 283.273 69.1769 283.273Z" fill="white"/>
<path d="M79.6315 290.091C79.6316 289.406 79.4105 288.738 79.001 288.189C78.5915 287.639 78.0155 287.237 77.3587 287.041V276.909C77.3587 276.668 77.263 276.437 77.0925 276.266C76.922 276.096 76.6908 276 76.4497 276C76.2085 276 75.9773 276.096 75.8068 276.266C75.6363 276.437 75.5406 276.668 75.5406 276.909V287.041C74.8851 287.237 74.3104 287.64 73.9019 288.189C73.4933 288.738 73.2727 289.404 73.2727 290.089C73.2727 290.773 73.4933 291.439 73.9019 291.988C74.3104 292.537 74.8851 292.94 75.5406 293.136V295.091C75.5406 295.332 75.6363 295.563 75.8068 295.734C75.9773 295.904 76.2085 296 76.4497 296C76.6908 296 76.922 295.904 77.0925 295.734C77.263 295.563 77.3587 295.332 77.3587 295.091V293.141C78.0155 292.945 78.5915 292.542 79.001 291.993C79.4105 291.443 79.6316 290.776 79.6315 290.091ZM76.4497 291.455C76.18 291.455 75.9163 291.375 75.6921 291.225C75.4678 291.075 75.293 290.862 75.1898 290.613C75.0866 290.364 75.0596 290.089 75.1122 289.825C75.1648 289.56 75.2947 289.317 75.4854 289.127C75.6761 288.936 75.9191 288.806 76.1836 288.753C76.4481 288.701 76.7223 288.728 76.9715 288.831C77.2207 288.934 77.4336 289.109 77.5835 289.333C77.7333 289.558 77.8133 289.821 77.8133 290.091C77.8133 290.453 77.6696 290.799 77.4139 291.055C77.1582 291.311 76.8113 291.455 76.4497 291.455Z" fill="white"/>
<path d="M86.9042 281.909C86.9044 281.224 86.6832 280.557 86.2737 280.007C85.8642 279.458 85.2882 279.055 84.6314 278.859V276.909C84.6314 276.668 84.5357 276.437 84.3652 276.266C84.1947 276.096 83.9635 276 83.7224 276C83.4813 276 83.25 276.096 83.0795 276.266C82.909 276.437 82.8133 276.668 82.8133 276.909V278.859C82.1578 279.056 81.5831 279.458 81.1746 280.007C80.766 280.556 80.5454 281.222 80.5454 281.907C80.5454 282.591 80.766 283.257 81.1746 283.806C81.5831 284.355 82.1578 284.758 82.8133 284.955V295.091C82.8133 295.332 82.909 295.563 83.0795 295.734C83.25 295.904 83.4813 296 83.7224 296C83.9635 296 84.1947 295.904 84.3652 295.734C84.5357 295.563 84.6314 295.332 84.6314 295.091V284.959C85.2882 284.763 85.8642 284.361 86.2737 283.811C86.6832 283.262 86.9044 282.594 86.9042 281.909ZM83.7224 283.273C83.4527 283.273 83.189 283.193 82.9648 283.043C82.7405 282.893 82.5657 282.68 82.4625 282.431C82.3593 282.182 82.3323 281.908 82.3849 281.643C82.4375 281.379 82.5674 281.136 82.7581 280.945C82.9488 280.754 83.1918 280.624 83.4563 280.572C83.7208 280.519 83.995 280.546 84.2442 280.649C84.4934 280.752 84.7063 280.927 84.8562 281.151C85.006 281.376 85.086 281.639 85.086 281.909C85.086 282.271 84.9423 282.618 84.6866 282.873C84.4309 283.129 84.084 283.273 83.7224 283.273Z" fill="white"/>
<rect x="77.4474" y="454.845" width="44.2723" height="44.2723" transform="rotate(45 77.4474 454.845)" fill="#9B51E0"/>
<rect x="77.4474" y="446.667" width="44.2723" height="44.2723" transform="rotate(45 77.4474 446.667)" fill="#BB6BD9"/>
<path d="M66.3089 484.51L69.5254 486.184C69.49 486.314 69.4551 486.444 69.4205 486.574C68.9616 488.285 68.5255 489.913 67.2701 489.992C66.9739 490.011 66.7489 490.266 66.7674 490.562C66.786 490.859 67.0413 491.084 67.3376 491.065C69.3645 490.937 69.8984 488.946 70.4597 486.851L70.5022 486.693L72.1874 487.57L72.1343 487.767C71.6754 489.479 71.2392 491.106 69.9839 491.186C69.6877 491.205 69.4626 491.46 69.4812 491.756C69.4997 492.052 69.7551 492.277 70.0513 492.258C72.0673 492.131 72.6062 490.16 73.1642 488.079L77.6077 490.392C77.6865 490.437 77.7775 490.463 77.8749 490.463C77.9718 490.463 78.0633 490.437 78.1421 490.392L89.4404 484.51C89.6233 484.424 89.7497 484.238 89.7497 484.022V471.103C89.7497 470.888 89.6237 470.702 89.4413 470.616L78.1231 464.724C77.9609 464.64 77.7754 464.646 77.6246 464.725L66.3089 470.616C66.1265 470.702 66.0001 470.888 66.0001 471.103V484.022C66.0001 484.238 66.1265 484.424 66.3089 484.51ZM77.3364 489.037L73.4587 487.018C73.8561 485.68 74.3744 484.469 75.4342 484.094C75.714 483.995 75.8611 483.688 75.762 483.408C75.6634 483.128 75.3562 482.982 75.0764 483.08C73.6104 483.599 72.9564 484.987 72.487 486.512L70.8023 485.635C71.1929 484.374 71.7108 483.258 72.7204 482.9C73.0002 482.802 73.1473 482.494 73.0487 482.215C72.9497 481.935 72.6429 481.788 72.3627 481.886C70.9573 482.384 70.2978 483.68 69.8322 485.131L67.0772 483.696V471.99L77.3364 477.331V489.037ZM88.6726 483.696L78.4134 489.037V477.331L88.6726 471.99V483.696ZM69.0177 477.692C68.7202 477.692 68.4791 477.933 68.4791 478.231C68.4791 478.528 68.7202 478.769 69.0177 478.769H69.5398V479.291C69.5398 479.589 69.7808 479.83 70.0783 479.83C70.3758 479.83 70.6168 479.589 70.6168 479.291V478.769H71.1389C71.4364 478.769 71.6775 478.528 71.6775 478.231C71.6775 477.933 71.4364 477.692 71.1389 477.692H70.6168V477.17C70.6168 476.873 70.3758 476.632 70.0783 476.632C69.7808 476.632 69.5398 476.873 69.5398 477.17V477.692H69.0177ZM87.9917 464.061C87.6942 464.061 87.4531 464.302 87.4531 464.6C87.4531 464.897 87.6942 465.138 87.9917 465.138H88.5138V465.66C88.5138 465.958 88.7552 466.199 89.0523 466.199C89.3498 466.199 89.5908 465.958 89.5908 465.66V465.138H90.113C90.4105 465.138 90.6515 464.897 90.6515 464.6C90.6515 464.302 90.4105 464.061 90.113 464.061H89.5908V463.539C89.5908 463.241 89.3498 463 89.0523 463C88.7552 463 88.5138 463.241 88.5138 463.539V464.061H87.9917ZM86.9841 475.203C86.9841 474.906 86.7431 474.665 86.4456 474.665C86.1481 474.665 85.907 474.906 85.907 475.203V482.888C85.907 483.185 86.1481 483.427 86.4456 483.427C86.7431 483.427 86.9841 483.185 86.9841 482.888V475.203ZM84.5325 476.258C84.5325 475.96 84.291 475.719 83.9939 475.719C83.6964 475.719 83.4554 475.96 83.4554 476.258V483.943C83.4554 484.24 83.6964 484.481 83.9939 484.481C84.291 484.481 84.5325 484.24 84.5325 483.943V476.258ZM81.6628 477.79C81.6628 477.493 81.4217 477.251 81.1242 477.251C80.8267 477.251 80.5857 477.493 80.5857 477.79V485.475C80.5857 485.772 80.8267 486.013 81.1242 486.013C81.4217 486.013 81.6628 485.772 81.6628 485.475V477.79ZM81.7281 467.814V469.35L77.3692 467.038C77.3309 467.01 77.2887 466.988 77.2441 466.972L76.4497 466.55L77.8749 465.808L81.7281 467.814ZM82.8052 469.922V468.375L88.0456 471.103L86.524 471.895L82.8052 469.922ZM76.518 467.803V469.261L73.9041 467.875L75.2926 467.152L76.518 467.803ZM77.5951 469.832V468.374L85.3668 472.498L83.9817 473.219L77.5951 469.832ZM78.9975 471.792V473.585L71.0408 469.366L72.7466 468.478L78.9975 471.792ZM80.0746 474.156V472.363L82.8241 473.821L81.1179 474.71C81.1108 474.705 81.1036 474.701 81.0964 474.697L80.0746 474.156ZM71.3707 470.757V473.012L67.7042 471.103L69.8832 469.969L71.3707 470.757ZM72.4478 473.572V471.328L75.2193 472.798V475.015L72.4478 473.572ZM76.2964 475.576V473.369L79.9608 475.312L77.8749 476.398L76.2964 475.576Z" fill="white"/>
<rect x="77.4475" y="648.845" width="44.2723" height="44.2723" transform="rotate(45 77.4475 648.845)" fill="#9B51E0"/>
<rect x="77.4475" y="640.666" width="44.2723" height="44.2723" transform="rotate(45 77.4475 640.666)" fill="#BB6BD9"/>
<path d="M73.5738 672.395C72.7385 671.56 71.9032 670.724 71.0647 669.886C70.9449 669.766 70.8251 669.646 70.7054 669.527C70.7054 669.823 70.7054 670.122 70.7054 670.419C71.5407 669.583 72.376 668.748 73.2144 667.909C73.3342 667.79 73.454 667.67 73.5738 667.55C73.807 667.317 73.826 666.888 73.5738 666.658C73.3216 666.428 72.9308 666.409 72.6817 666.658C71.8464 667.493 71.0111 668.329 70.1726 669.167C70.0529 669.287 69.9331 669.407 69.8133 669.527C69.5737 669.766 69.5706 670.176 69.8133 670.419C70.6486 671.254 71.4839 672.089 72.3224 672.928C72.4422 673.047 72.562 673.167 72.6817 673.287C72.915 673.52 73.3437 673.539 73.5738 673.287C73.8039 673.035 73.8228 672.644 73.5738 672.395Z" fill="white"/>
<path d="M80.6755 673.287C81.5108 672.452 82.3461 671.616 83.1846 670.778C83.3043 670.658 83.4241 670.538 83.5439 670.419C83.7835 670.179 83.7866 669.769 83.5439 669.526C82.7086 668.691 81.8733 667.856 81.0348 667.017C80.915 666.898 80.7953 666.778 80.6755 666.658C80.4422 666.425 80.0135 666.406 79.7834 666.658C79.5533 666.91 79.5344 667.301 79.7834 667.55C80.6187 668.385 81.454 669.221 82.2925 670.059C82.4123 670.179 82.5321 670.299 82.6519 670.419C82.6519 670.122 82.6519 669.823 82.6519 669.526C81.8165 670.362 80.9812 671.197 80.1428 672.036C80.023 672.155 79.9032 672.275 79.7834 672.395C79.5502 672.628 79.5313 673.057 79.7834 673.287C80.0356 673.517 80.4265 673.536 80.6755 673.287Z" fill="white"/>
<path d="M75.8874 674.425C76.2057 673.454 76.521 672.483 76.8393 671.512C77.3405 669.977 77.8417 668.445 78.3429 666.91C78.4564 666.56 78.573 666.207 78.6865 665.857C78.7873 665.542 78.5667 665.155 78.2452 665.082C77.8984 665.003 77.5801 665.186 77.4697 665.523C77.1514 666.494 76.8362 667.465 76.5178 668.436C76.0166 669.971 75.5154 671.503 75.0142 673.038C74.9008 673.388 74.7841 673.741 74.6707 674.091C74.5698 674.406 74.7904 674.794 75.112 674.866C75.4587 674.945 75.7771 674.762 75.8874 674.425Z" fill="white"/>
<path d="M89.0917 663.648C89.0917 664.511 89.0917 665.372 89.0917 666.236C89.0917 667.985 89.0917 669.731 89.0917 671.481C89.0917 672.858 89.0917 674.233 89.0917 675.61C89.0917 675.749 89.0917 675.887 89.0917 676.026C89.0917 676.051 89.0917 676.077 89.0917 676.102C89.0917 676.133 89.1043 676.31 89.079 676.326C89.079 676.326 89.1106 676.162 89.0822 676.288C89.0727 676.329 89.0664 676.373 89.057 676.414C89.0381 676.496 89.0097 676.575 88.9813 676.657C88.934 676.795 89.0475 676.534 88.9782 676.66C88.9656 676.685 88.953 676.71 88.9403 676.735C88.9088 676.795 88.871 676.855 88.8332 676.915C88.8269 676.928 88.8174 676.937 88.8111 676.95C88.7701 677.003 88.7796 676.994 88.8363 676.921C88.8363 676.94 88.7701 677 88.7575 677.016C88.7008 677.076 88.6441 677.136 88.581 677.189C88.581 677.189 88.5274 677.243 88.518 677.243C88.54 677.227 88.5589 677.211 88.581 677.196C88.5589 677.211 88.5369 677.227 88.5117 677.243C88.4549 677.281 88.395 677.319 88.332 677.35C88.3194 677.356 88.228 677.41 88.2185 677.407C88.2217 677.41 88.3446 677.36 88.2532 677.391C88.1712 677.419 88.0924 677.445 88.0105 677.467C87.9695 677.476 87.9254 677.482 87.8844 677.492C87.7394 677.523 88.0294 677.486 87.8812 677.492C87.8213 677.495 87.7646 677.498 87.7047 677.498C87.7016 677.498 87.6984 677.498 87.6953 677.498C87.6763 677.498 87.6543 677.498 87.6354 677.498C86.9072 677.498 86.1791 677.498 85.4509 677.498C83.9915 677.498 82.5321 677.498 81.0726 677.498C79.2885 677.498 77.5044 677.498 75.7203 677.498C74.0024 677.498 72.2814 677.498 70.5635 677.498C69.3184 677.498 68.0733 677.498 66.8282 677.498C66.5067 677.498 66.182 677.498 65.8605 677.498C65.7975 677.498 65.7313 677.498 65.6682 677.498C65.6651 677.498 65.6588 677.498 65.6556 677.498C65.6556 677.498 65.6556 677.498 65.6525 677.498C65.6146 677.498 65.602 677.498 65.5642 677.495C65.5421 677.495 65.3656 677.492 65.4728 677.492C65.5768 677.489 65.4507 677.486 65.4287 677.482C65.3877 677.473 65.3436 677.464 65.3026 677.454C65.2332 677.435 65.167 677.413 65.1008 677.388C64.9716 677.344 65.1891 677.441 65.1166 677.394C65.0882 677.375 65.0536 677.363 65.022 677.347C64.9495 677.309 64.8802 677.262 64.8108 677.218C64.6911 677.142 64.9149 677.312 64.8077 677.215C64.7856 677.196 64.7667 677.18 64.7446 677.161C64.6848 677.104 64.6249 677.047 64.5713 676.984C64.5618 676.975 64.5177 676.931 64.5177 676.921C64.5335 676.943 64.5492 676.962 64.565 676.984C64.5492 676.962 64.5335 676.94 64.5177 676.915C64.4704 676.846 64.4294 676.773 64.3916 676.701C64.3822 676.682 64.3128 676.584 64.3695 676.663C64.4263 676.739 64.3632 676.647 64.3538 676.622C64.3286 676.556 64.3097 676.486 64.2939 676.42C64.2844 676.379 64.2781 676.335 64.2687 676.294C64.2372 676.149 64.275 676.439 64.2687 676.291C64.2655 676.231 64.2624 676.174 64.2624 676.114C64.2624 676.045 64.2624 675.979 64.2624 675.91C64.2624 675.452 64.2624 674.995 64.2624 674.538C64.2624 672.89 64.2624 671.238 64.2624 669.59C64.2624 668.007 64.2624 666.428 64.2624 664.846C64.2624 664.474 64.2624 664.102 64.2624 663.73C64.2624 663.708 64.2624 663.686 64.2624 663.664C64.2624 663.648 64.2624 663.635 64.2624 663.616C64.2624 663.588 64.2655 663.556 64.2655 663.528C64.2655 663.512 64.2687 663.5 64.2687 663.484C64.275 663.415 64.275 663.427 64.2624 663.522C64.2435 663.496 64.297 663.348 64.3065 663.311C64.3286 663.229 64.3664 663.15 64.3853 663.071C64.3475 663.225 64.3664 663.115 64.3916 663.068C64.4074 663.036 64.4231 663.005 64.442 662.976C64.4578 662.948 64.5366 662.787 64.565 662.784C64.5555 662.784 64.4799 662.885 64.5429 662.812C64.5713 662.781 64.5965 662.749 64.6249 662.721C64.6816 662.661 64.7446 662.608 64.8045 662.551C64.9117 662.456 64.6879 662.626 64.8077 662.548C64.8298 662.532 64.8518 662.516 64.877 662.5C64.9369 662.463 64.9968 662.428 65.0567 662.396C65.0693 662.39 65.0819 662.384 65.0945 662.377C65.1576 662.349 65.145 662.352 65.0599 662.39C65.0725 662.371 65.1576 662.352 65.1796 662.346C65.2616 662.318 65.3436 662.299 65.4255 662.28C65.4255 662.28 65.5043 662.261 65.5106 662.264C65.4822 662.267 65.457 662.27 65.4287 662.277C65.457 662.273 65.4854 662.27 65.5169 662.27C65.561 662.267 65.6052 662.267 65.6493 662.267C65.6525 662.267 65.6556 662.267 65.6588 662.267C65.6777 662.267 65.6997 662.267 65.7187 662.267C65.8132 662.267 65.9078 662.267 66.0023 662.267C66.3774 662.267 66.7526 662.267 67.1245 662.267C68.4389 662.267 69.7565 662.267 71.071 662.267C72.8109 662.267 74.5541 662.267 76.294 662.267C78.0687 662.267 79.8402 662.267 81.6148 662.267C83.0144 662.267 84.4139 662.267 85.8134 662.267C86.4376 662.267 87.0617 662.264 87.6858 662.267C87.689 662.267 87.6953 662.267 87.6984 662.267C87.7142 662.267 87.7268 662.267 87.7425 662.267C87.7709 662.267 87.8024 662.27 87.8308 662.27C87.8466 662.27 87.8592 662.273 87.8749 662.273C87.9443 662.28 87.9317 662.28 87.8371 662.267C87.8592 662.251 88.0199 662.305 88.0483 662.311C88.1176 662.33 88.1838 662.352 88.25 662.377C88.3887 662.425 88.1271 662.311 88.2532 662.381C88.2847 662.396 88.3162 662.412 88.3446 662.428C88.4108 662.466 88.4738 662.507 88.54 662.548C88.6409 662.614 88.5117 662.522 88.5117 662.522C88.5306 662.522 88.5936 662.592 88.6062 662.601C88.6567 662.649 88.7071 662.696 88.7512 662.746C88.7638 662.762 88.83 662.822 88.83 662.841C88.83 662.819 88.7575 662.737 88.8048 662.812C88.8489 662.882 88.8962 662.951 88.934 663.024C88.9467 663.049 88.9593 663.074 88.9719 663.099C89.0412 663.225 88.9277 662.964 88.975 663.102C88.9971 663.169 89.0223 663.235 89.0412 663.304C89.0601 663.374 89.0633 663.446 89.0853 663.515C89.0381 663.364 89.079 663.465 89.0822 663.522C89.0917 663.56 89.0917 663.604 89.0917 663.648C89.0948 663.979 89.3785 664.294 89.7221 664.278C90.0594 664.262 90.3557 664.001 90.3525 663.648C90.3367 662.195 89.1547 661.013 87.7016 661C87.5282 661 87.358 661 87.1846 661C86.1318 661 85.0822 661 84.0293 661C82.3808 661 80.7322 661 79.0837 661C77.2523 661 75.424 661 73.5927 661C71.9914 661 70.3933 661 68.792 661C67.8463 661 66.9007 661 65.9519 661C65.5894 661 65.2332 661.003 64.8833 661.113C63.7486 661.467 63.0015 662.519 63.0015 663.698C62.9984 664.76 63.0015 665.823 63.0015 666.885C63.0015 668.675 63.0015 670.469 63.0015 672.259C63.0015 673.479 63.0015 674.702 63.0015 675.922C63.0015 676.01 62.9984 676.102 63.0047 676.19C63.0362 676.928 63.3672 677.656 63.9472 678.125C64.4389 678.523 65.0189 678.743 65.6556 678.75C65.7092 678.75 65.7596 678.75 65.8132 678.75C66.6548 678.75 67.4965 678.75 68.3412 678.75C69.8826 678.75 71.424 678.75 72.9654 678.75C74.7936 678.75 76.625 678.75 78.4532 678.75C80.1491 678.75 81.8449 678.75 83.5376 678.75C84.6787 678.75 85.8166 678.75 86.9577 678.75C87.1909 678.75 87.4242 678.75 87.6606 678.75C88.6913 678.746 89.6811 678.17 90.1066 677.215C90.3336 676.707 90.3557 676.2 90.3557 675.661C90.3557 675.099 90.3557 674.542 90.3557 673.98C90.3557 672.24 90.3557 670.501 90.3557 668.761C90.3557 667.288 90.3557 665.813 90.3557 664.341C90.3557 664.111 90.3557 663.878 90.3557 663.648C90.3557 663.317 90.0657 663.002 89.7252 663.017C89.3816 663.033 89.0917 663.295 89.0917 663.648Z" fill="white"/>
<path d="M78.3082 678.119C78.3082 679.579 78.3082 681.038 78.3082 682.497C78.3082 682.709 78.3082 682.917 78.3082 683.128C78.5194 682.917 78.7274 682.709 78.9386 682.497C77.6179 682.497 76.2972 682.497 74.9764 682.497C74.7904 682.497 74.6045 682.497 74.4153 682.497C74.6265 682.709 74.8346 682.917 75.0458 683.128C75.0458 681.668 75.0458 680.209 75.0458 678.75C75.0458 678.538 75.0458 678.33 75.0458 678.119C74.8346 678.33 74.6265 678.538 74.4153 678.75C75.7361 678.75 77.0568 678.75 78.3776 678.75C78.5635 678.75 78.7495 678.75 78.9386 678.75C79.2696 678.75 79.5848 678.46 79.5691 678.119C79.5533 677.779 79.2917 677.489 78.9386 677.489C77.6179 677.489 76.2972 677.489 74.9764 677.489C74.7904 677.489 74.6045 677.489 74.4153 677.489C74.0749 677.489 73.7849 677.779 73.7849 678.119C73.7849 679.579 73.7849 681.038 73.7849 682.497C73.7849 682.709 73.7849 682.917 73.7849 683.128C73.7849 683.468 74.0749 683.758 74.4153 683.758C75.7361 683.758 77.0568 683.758 78.3776 683.758C78.5635 683.758 78.7495 683.758 78.9386 683.758C79.2791 683.758 79.5691 683.468 79.5691 683.128C79.5691 681.668 79.5691 680.209 79.5691 678.75C79.5691 678.538 79.5691 678.33 79.5691 678.119C79.5691 677.788 79.2791 677.473 78.9386 677.489C78.5982 677.504 78.3082 677.766 78.3082 678.119Z" fill="white"/>
<path d="M71.0426 683.758C71.4177 683.758 71.7928 683.758 72.1679 683.758C73.0631 683.758 73.9583 683.758 74.8504 683.758C75.9379 683.758 77.0253 683.758 78.1128 683.758C79.049 683.758 79.9852 683.758 80.9214 683.758C81.3784 683.758 81.8386 683.771 82.2957 683.758C82.302 683.758 82.3083 683.758 82.3146 683.758C82.6456 683.758 82.9608 683.468 82.945 683.128C82.9293 682.787 82.6676 682.497 82.3146 682.497C81.9395 682.497 81.5644 682.497 81.1893 682.497C80.2941 682.497 79.3989 682.497 78.5068 682.497C77.4194 682.497 76.3319 682.497 75.2444 682.497C74.3082 682.497 73.372 682.497 72.4359 682.497C71.9788 682.497 71.5186 682.485 71.0615 682.497C71.0552 682.497 71.0489 682.497 71.0426 682.497C70.7116 682.497 70.3964 682.787 70.4122 683.128C70.4279 683.471 70.6896 683.758 71.0426 683.758Z" fill="white"/>
<rect x="77.4474" y="842.845" width="44.2723" height="44.2723" transform="rotate(45 77.4474 842.845)" fill="#9B51E0"/>
<rect x="77.4474" y="834.667" width="44.2723" height="44.2723" transform="rotate(45 77.4474 834.667)" fill="#BB6BD9"/>
<path d="M86.1517 872.711H85.743V873.528H86.1517C86.6783 873.527 87.2032 873.468 87.717 873.353L87.5372 872.535C87.0833 872.645 86.6186 872.704 86.1517 872.711Z" fill="white"/>
<path d="M93.1934 864.701C92.8216 863.114 91.9263 861.698 90.6518 860.683C89.3772 859.667 87.7978 859.11 86.1681 859.101H84.0184V857.651L77.2546 855.342L70.4908 857.651V859.106H69.9268V859.923H70.4908V865.13L72.8857 865.947L70.4908 866.764V872.711H68.3901C66.9596 872.703 65.5724 872.22 64.4475 871.336C63.3226 870.452 62.524 869.219 62.178 867.831C62.4816 867.71 62.742 867.5 62.9253 867.23C63.1087 866.959 63.2068 866.64 63.2068 866.313C63.2068 865.986 63.1087 865.666 62.9253 865.396C62.742 865.125 62.4816 864.916 62.178 864.795C62.5868 863.191 63.5945 861.804 64.9939 860.92C65.4665 860.622 65.9762 860.387 66.5101 860.221L66.269 859.441C65.6665 859.625 65.0918 859.891 64.5607 860.229C62.9468 861.251 61.799 862.865 61.3647 864.725C60.9833 864.789 60.6369 864.986 60.3871 865.281C60.1372 865.576 60.0001 865.951 60.0001 866.337C60.0001 866.724 60.1372 867.098 60.3871 867.393C60.6369 867.689 60.9833 867.886 61.3647 867.95C61.7373 869.537 62.6332 870.953 63.9083 871.969C65.1835 872.986 66.7636 873.544 68.3942 873.553H70.4948V874.264L77.2546 876.548L84.0184 874.239V873.528H84.8889V872.711H84.0184V866.76L81.6234 865.943L84.0184 865.126V859.919H86.1517C87.5839 859.923 88.9739 860.404 90.1014 861.288C91.2289 862.171 92.0294 863.405 92.3761 864.795C92.0724 864.916 91.8121 865.125 91.6287 865.396C91.4453 865.666 91.3473 865.986 91.3473 866.313C91.3473 866.64 91.4453 866.959 91.6287 867.23C91.8121 867.5 92.0724 867.71 92.3761 867.831C92.1264 868.855 91.6274 869.801 90.9237 870.585C90.2199 871.37 89.3331 871.968 88.3423 872.327L88.6243 873.095C89.7564 872.682 90.7674 871.993 91.5654 871.09C92.3634 870.187 92.923 869.099 93.1934 867.925C93.5748 867.861 93.9212 867.664 94.1711 867.369C94.4209 867.074 94.558 866.7 94.558 866.313C94.558 865.926 94.4209 865.552 94.1711 865.257C93.9212 864.962 93.5748 864.764 93.1934 864.701ZM60.7844 866.335C60.7844 866.174 60.8323 866.016 60.9221 865.881C61.0119 865.747 61.1396 865.642 61.289 865.58C61.4383 865.518 61.6027 865.502 61.7612 865.534C61.9198 865.565 62.0654 865.643 62.1797 865.757C62.294 865.872 62.3719 866.017 62.4034 866.176C62.435 866.334 62.4188 866.499 62.3569 866.648C62.2951 866.797 62.1903 866.925 62.0559 867.015C61.9215 867.105 61.7634 867.153 61.6018 867.153C61.4913 867.155 61.3816 867.135 61.2791 867.093C61.1767 867.052 61.0837 866.99 61.0058 866.912C60.9278 866.834 60.8666 866.74 60.8257 866.638C60.7849 866.535 60.7652 866.425 60.768 866.315L60.7844 866.335ZM82.3427 857.941L77.2546 859.694L72.1664 857.941L77.2546 856.204L82.3427 857.941ZM76.8459 866.433L75.4155 865.943L76.8459 865.457V866.433ZM77.6632 865.457L79.0937 865.943L77.6632 866.433V865.457ZM71.3081 864.541V858.513L76.8459 860.401V864.598L74.1526 865.518L71.3081 864.541ZM71.3081 867.623L76.8459 869.503V875.543L71.3081 873.655V867.623ZM77.6632 875.543V869.503L83.201 867.623V873.655L77.6632 875.543ZM82.3427 867.051L77.2546 868.787L72.1664 867.051L74.1526 866.372L77.2546 867.435L80.3565 866.376L82.3427 867.051ZM80.3565 865.51L77.6632 864.598V860.401L83.201 858.513V864.541L80.3565 865.51ZM92.9564 867.144C92.7947 867.144 92.6367 867.097 92.5023 867.007C92.3679 866.917 92.2631 866.789 92.2012 866.64C92.1394 866.491 92.1232 866.326 92.1547 866.168C92.1863 866.009 92.2641 865.863 92.3784 865.749C92.4927 865.635 92.6384 865.557 92.7969 865.525C92.9555 865.494 93.1198 865.51 93.2692 865.572C93.4186 865.634 93.5462 865.739 93.636 865.873C93.7258 866.007 93.7738 866.165 93.7738 866.327C93.7706 866.542 93.683 866.747 93.5301 866.897C93.3771 867.048 93.1711 867.132 92.9564 867.132V867.144Z" fill="white"/>
<path d="M68.3901 859.919H69.2484V859.102H68.3901C68.104 859.102 67.8302 859.126 67.5728 859.151L67.6586 859.968C67.8956 859.939 68.1408 859.919 68.3901 859.919Z" fill="white"/>
<rect x="77.4474" y="1036.84" width="44.2723" height="44.2723" transform="rotate(45 77.4474 1036.84)" fill="#9B51E0"/>
<rect x="77.4474" y="1028.67" width="44.2723" height="44.2723" transform="rotate(45 77.4474 1028.67)" fill="#BB6BD9"/>
<path d="M82.9952 1051.33H70.9998V1052.66H82.9952V1051.33Z" fill="white"/>
<path d="M76.9975 1076.04C74.7926 1076.04 72.999 1074.24 72.999 1072.04V1051.33H80.996V1072.04C80.996 1074.24 79.2024 1076.04 76.9975 1076.04ZM74.3318 1052.66V1072.04C74.3318 1073.51 75.5277 1074.7 76.9975 1074.7C78.4673 1074.7 79.6632 1073.51 79.6632 1072.04V1052.66H74.3318Z" fill="white"/>
<path d="M79.5837 1066.1C79.4477 1066.1 79.3026 1066.09 79.1526 1066.07C78.1377 1065.92 77.3847 1065.26 77.032 1064.2C76.5231 1062.68 73.7578 1062.49 73.7299 1062.48L73.8021 1061.15C73.9524 1061.16 77.496 1061.38 78.2965 1063.78C78.7133 1065.03 79.8001 1064.79 80.1233 1064.69L80.5404 1065.96C80.4877 1065.97 80.0992 1066.1 79.5837 1066.1Z" fill="white"/>
<path d="M76.9975 1048.66C76.6294 1048.66 76.3311 1048.37 76.3311 1048V1044.67C76.3311 1044.3 76.6294 1044 76.9975 1044C77.3655 1044 77.6639 1044.3 77.6639 1044.67V1048C77.6639 1048.37 77.3655 1048.66 76.9975 1048.66Z" fill="white"/>
<path d="M80.3292 1050C80.2036 1050 80.0767 1049.96 79.9641 1049.89C79.6563 1049.69 79.5707 1049.27 79.7728 1048.97L81.7721 1045.92C81.9748 1045.61 82.3887 1045.53 82.6949 1045.73C83.0027 1045.93 83.0883 1046.35 82.8862 1046.65L80.887 1049.7C80.7588 1049.89 80.5463 1050 80.3292 1050Z" fill="white"/>
<path d="M73.6663 1050C73.4493 1050 73.2368 1049.89 73.1086 1049.7L71.1094 1046.65C70.9073 1046.35 70.9929 1045.93 71.3007 1045.73C71.6085 1045.53 72.0211 1045.61 72.2235 1045.92L74.2228 1048.97C74.4248 1049.27 74.3393 1049.69 74.0314 1049.89C73.9188 1049.96 73.7919 1050 73.6663 1050Z" fill="white"/>
<rect x="77.4474" y="1230.84" width="44.2723" height="44.2723" transform="rotate(45 77.4474 1230.84)" fill="#9B51E0"/>
<rect x="77.4474" y="1222.67" width="44.2723" height="44.2723" transform="rotate(45 77.4474 1222.67)" fill="#BB6BD9"/>
<path d="M84.8211 1267.29H69.4042C68.63 1267.29 68.0001 1266.66 68.0001 1265.89V1244.75C68.0001 1243.98 68.63 1243.35 69.4042 1243.35H72.6281C72.7301 1243.35 72.8239 1243.4 72.8735 1243.49C72.9232 1243.58 72.9204 1243.69 72.8667 1243.77C72.7619 1243.94 72.7065 1244.13 72.7065 1244.33V1245.79H81.5188V1244.33C81.5188 1244.13 81.4634 1243.94 81.3586 1243.77C81.3049 1243.69 81.3022 1243.58 81.3518 1243.49C81.4014 1243.4 81.4952 1243.35 81.5972 1243.35H84.8211C85.5953 1243.35 86.2252 1243.98 86.2252 1244.75V1265.89C86.2252 1266.66 85.5953 1267.29 84.8211 1267.29ZM69.4042 1243.91C68.9397 1243.91 68.5618 1244.28 68.5618 1244.75V1265.89C68.5618 1266.35 68.9397 1266.73 69.4042 1266.73H84.8211C85.2857 1266.73 85.6636 1266.35 85.6636 1265.89V1244.75C85.6636 1244.28 85.2857 1243.91 84.8211 1243.91H82.0237C82.0612 1244.04 82.0804 1244.19 82.0804 1244.33V1246.07C82.0804 1246.23 81.9548 1246.36 81.7996 1246.36H72.4257C72.2705 1246.36 72.1449 1246.23 72.1449 1246.07V1244.33C72.1449 1244.19 72.1641 1244.04 72.2017 1243.91H69.4042Z" fill="white"/>
<path d="M81.7996 1246.36H72.4257C72.2705 1246.36 72.1449 1246.23 72.1449 1246.07V1244.33C72.1449 1244.03 72.2296 1243.74 72.3895 1243.48C72.4526 1243.37 72.5329 1243.27 72.6317 1243.17L74.5107 1241.35C74.8061 1241.06 75.2155 1240.9 75.6329 1240.9H78.5869C79.0068 1240.9 79.4069 1241.06 79.7132 1241.35L81.5852 1243.17C81.6981 1243.28 81.7777 1243.38 81.8391 1243.48C81.9957 1243.74 82.0804 1244.03 82.0804 1244.33V1246.07C82.0804 1246.23 81.9548 1246.36 81.7996 1246.36ZM72.7065 1245.79H81.5188V1244.33C81.5188 1244.13 81.4634 1243.94 81.3586 1243.77C81.3183 1243.71 81.2662 1243.64 81.1908 1243.57L79.3238 1241.76C79.1239 1241.56 78.8617 1241.46 78.5869 1241.46H75.6329C75.3611 1241.46 75.0948 1241.57 74.9023 1241.75L73.0255 1243.57C72.964 1243.63 72.9122 1243.7 72.87 1243.77C72.7619 1243.94 72.7065 1244.13 72.7065 1244.33V1245.79Z" fill="white"/>
<path d="M77.5339 1243.91H76.6915C76.5362 1243.91 76.4106 1243.78 76.4106 1243.63C76.4106 1243.47 76.5362 1243.35 76.6915 1243.35H77.5339C77.6891 1243.35 77.8147 1243.47 77.8147 1243.63C77.8147 1243.78 77.6891 1243.91 77.5339 1243.91Z" fill="white"/>
<path d="M78.0269 1250.08H71.6507C71.4955 1250.08 71.3699 1249.96 71.3699 1249.8C71.3699 1249.65 71.4955 1249.52 71.6507 1249.52H78.0269C78.1821 1249.52 78.3077 1249.65 78.3077 1249.8C78.3077 1249.96 78.1821 1250.08 78.0269 1250.08Z" fill="white"/>
<path d="M83.0816 1253.45H76.7054C76.5502 1253.45 76.4246 1253.33 76.4246 1253.17C76.4246 1253.02 76.5502 1252.89 76.7054 1252.89H83.0816C83.2368 1252.89 83.3624 1253.02 83.3624 1253.17C83.3624 1253.33 83.2368 1253.45 83.0816 1253.45Z" fill="white"/>
<path d="M78.0269 1256.82H71.6507C71.4955 1256.82 71.3699 1256.7 71.3699 1256.54C71.3699 1256.39 71.4955 1256.26 71.6507 1256.26H78.0269C78.1821 1256.26 78.3077 1256.39 78.3077 1256.54C78.3077 1256.7 78.1821 1256.82 78.0269 1256.82Z" fill="white"/>
<path d="M78.0269 1263.56H71.6507C71.4955 1263.56 71.3699 1263.44 71.3699 1263.28C71.3699 1263.13 71.4955 1263 71.6507 1263H78.0269C78.1821 1263 78.3077 1263.13 78.3077 1263.28C78.3077 1263.44 78.1821 1263.56 78.0269 1263.56Z" fill="white"/>
<path d="M83.0816 1260.19H76.7054C76.5502 1260.19 76.4246 1260.07 76.4246 1259.91C76.4246 1259.76 76.5502 1259.63 76.7054 1259.63H83.0816C83.2368 1259.63 83.3624 1259.76 83.3624 1259.91C83.3624 1260.07 83.2368 1260.19 83.0816 1260.19Z" fill="white"/>
<rect x="77.4474" y="1424.84" width="44.2723" height="44.2723" transform="rotate(45 77.4474 1424.84)" fill="#9B51E0"/>
<rect x="77.4474" y="1416.67" width="44.2723" height="44.2723" transform="rotate(45 77.4474 1416.67)" fill="#BB6BD9"/>
<path d="M83.5292 1444.6C83.4781 1444.6 83.0174 1444.61 82.5443 1444.85C82.4917 1444.87 82.4448 1444.9 82.3964 1444.93V1443.45C82.3964 1441.97 81.1872 1441.43 80.3744 1441.43C80.3233 1441.43 79.8622 1441.44 79.3895 1441.67C79.3354 1441.7 79.287 1441.73 79.237 1441.76C79.1803 1440.36 78.0135 1439.85 77.2203 1439.85C77.1692 1439.85 76.7086 1439.85 76.2354 1440.09C75.6004 1440.41 75.2426 1441.01 75.2123 1441.77C74.8397 1441.53 74.4086 1441.43 74.0534 1441.43C74.0023 1441.43 73.5417 1441.44 73.0685 1441.67C72.4051 1442.01 72.0397 1442.64 72.0397 1443.45L72.0393 1448.34C71.2205 1448.83 70.4636 1449.72 70.4636 1451.36L70.4633 1452.94C70.4667 1454.12 71.146 1456.29 73.6264 1456.52V1466.04H74.4993V1456.54V1455.67H74.0629C74.0621 1455.67 74.0613 1455.67 74.0606 1455.67C74.0197 1455.67 73.9812 1455.67 73.9414 1455.66C73.9006 1455.66 73.8582 1455.66 73.8189 1455.66C73.783 1455.66 73.7493 1455.65 73.7145 1455.65C73.6733 1455.65 73.6309 1455.64 73.5908 1455.64C73.5606 1455.63 73.5326 1455.63 73.5031 1455.62C73.4611 1455.62 73.418 1455.61 73.3771 1455.6C73.3537 1455.6 73.3317 1455.59 73.3087 1455.59C73.2644 1455.58 73.2198 1455.57 73.1774 1455.55C73.1574 1455.55 73.1388 1455.54 73.1196 1455.54C73.0761 1455.52 73.0326 1455.51 72.9913 1455.5C72.9739 1455.49 72.9581 1455.48 72.9407 1455.48C72.8994 1455.46 72.8574 1455.44 72.8181 1455.42C72.8068 1455.42 72.7965 1455.41 72.7856 1455.41C72.7421 1455.39 72.6986 1455.37 72.6577 1455.35C72.649 1455.34 72.6407 1455.33 72.632 1455.33C72.59 1455.31 72.5488 1455.28 72.5095 1455.26C72.5012 1455.25 72.4936 1455.25 72.4853 1455.24C72.4467 1455.21 72.4085 1455.19 72.3722 1455.16C72.3718 1455.16 72.371 1455.16 72.3707 1455.16C71.4092 1454.43 71.3415 1453.14 71.337 1452.96C71.3366 1452.95 71.3366 1452.95 71.3366 1452.94L71.337 1451.36C71.337 1451.27 71.3411 1451.18 71.3472 1451.09C71.3487 1451.07 71.3502 1451.05 71.3525 1451.02C71.3597 1450.94 71.3691 1450.85 71.3824 1450.77C71.3827 1450.77 71.3827 1450.77 71.3831 1450.77C71.3971 1450.68 71.4145 1450.6 71.4345 1450.52C71.4391 1450.51 71.4432 1450.49 71.4482 1450.47C71.4693 1450.4 71.4924 1450.32 71.5193 1450.25C71.5193 1450.25 71.5193 1450.25 71.5196 1450.25C71.5476 1450.17 71.5798 1450.1 71.6142 1450.03C71.6203 1450.02 71.6267 1450 71.6331 1449.99C71.7042 1449.85 71.7886 1449.72 71.8858 1449.6C71.8926 1449.6 71.8998 1449.59 71.907 1449.58C72.104 1449.34 72.3506 1449.15 72.649 1449C73.3367 1448.64 74.0496 1448.63 74.0553 1448.63H77.2074C77.3996 1448.64 78.3592 1448.7 78.3592 1449.78C78.3592 1450.13 78.2688 1450.38 78.0834 1450.57C77.7559 1450.9 77.223 1450.9 77.2101 1450.9H73.6022V1451.05V1451.77H74.0409H77.2037C77.296 1451.78 78.1091 1451.77 78.692 1451.2C78.8531 1451.04 78.9764 1450.85 79.0653 1450.64C79.4693 1450.97 79.9757 1451.1 80.3823 1451.1C80.4334 1451.1 80.8944 1451.09 81.3676 1450.85C81.4724 1450.8 81.5673 1450.74 81.6573 1450.67C81.9989 1451.55 82.8918 1451.89 83.5371 1451.89C83.5882 1451.89 84.0488 1451.89 84.522 1451.65C84.5761 1451.62 84.6245 1451.59 84.6741 1451.56V1454.52C84.6718 1454.71 84.6045 1455.67 83.5326 1455.67H83.0961V1466.04H83.9694V1456.5C84.5685 1456.39 85.0338 1456.05 85.3034 1455.51C85.5398 1455.03 85.547 1454.57 85.547 1454.52V1449.93C85.5474 1449.91 85.5512 1449.89 85.5512 1449.87V1446.62C85.5512 1445.14 84.3424 1444.6 83.5292 1444.6ZM75.2028 1447.76H74.0553C74.0417 1447.76 73.5383 1447.77 72.9127 1447.96L72.913 1443.45C72.913 1442.37 73.8658 1442.3 74.0515 1442.3C74.2437 1442.3 75.2032 1442.37 75.2032 1443.45L75.2028 1447.76ZM78.3697 1443.3C78.3667 1443.35 78.361 1443.4 78.361 1443.45L78.3607 1448.1C77.99 1447.86 77.5626 1447.76 77.2101 1447.76H76.0796V1441.87C76.0796 1440.79 77.0323 1440.72 77.2207 1440.72C77.3383 1440.72 78.3697 1440.75 78.3697 1441.87V1443.3ZM81.5238 1446.48C81.5215 1446.53 81.5159 1446.58 81.5159 1446.63V1449.22C81.4323 1450.16 80.5703 1450.23 80.3827 1450.23C80.189 1450.22 79.2824 1450.15 79.2385 1449.15C79.2389 1449.13 79.2431 1449.1 79.2431 1449.08V1443.3C79.3297 1442.37 80.1966 1442.3 80.3725 1442.3C80.5654 1442.3 81.5246 1442.37 81.5246 1443.45L81.5238 1446.48ZM84.6782 1447.76H84.6741V1449.94C84.6343 1450.95 83.7296 1451.02 83.5367 1451.02C83.3385 1451.02 82.3877 1450.95 82.3877 1449.87V1449.22C82.3907 1449.17 82.396 1449.12 82.396 1449.08L82.3964 1446.48C82.4784 1445.54 83.3499 1445.47 83.5288 1445.47C84.6457 1445.47 84.6782 1446.5 84.6782 1446.62V1447.76Z" fill="white"/>
<path d="M91.7302 1435.87L91.1133 1435.25L87.9546 1438.41L88.5715 1439.03L91.7302 1435.87Z" fill="white"/>
<path d="M95.0043 1447.76H90.9769V1448.63H95.0043V1447.76Z" fill="white"/>
<path d="M77.6463 1432H76.7733V1436.03H77.6463V1432Z" fill="white"/>
<path d="M64.268 1435.86L67.4263 1439.02L68.0433 1438.4L64.885 1435.25L64.268 1435.86Z" fill="white"/>
<path d="M87.9571 1458.01L91.1154 1461.16L91.7321 1460.55L88.5738 1457.39L87.9571 1458.01Z" fill="white"/>
<path d="M64.2676 1460.55L64.8845 1461.17L68.0432 1458.01L67.4263 1457.4L64.2676 1460.55Z" fill="white"/>
<path d="M65.0278 1447.76H61V1448.63H65.0278V1447.76Z" fill="white"/>
<rect x="77.4474" y="1618.84" width="44.2723" height="44.2723" transform="rotate(45 77.4474 1618.84)" fill="#9B51E0"/>
<rect x="77.4474" y="1610.67" width="44.2723" height="44.2723" transform="rotate(45 77.4474 1610.67)" fill="#BB6BD9"/>
<path d="M67.3297 1638.08C67.3297 1636.4 68.7249 1635 70.505 1635C72.2851 1635 73.6803 1636.35 73.6803 1638.08C73.6803 1639.8 72.2851 1641.16 70.505 1641.16C68.7249 1641.16 67.3297 1639.76 67.3297 1638.08ZM80.2233 1641.95C80.6082 1641.85 80.8488 1641.44 80.7044 1641.06C80.6082 1640.69 80.1752 1640.46 79.7903 1640.6L72.2851 1642.69H67.0891C66.8486 1642.69 66.608 1642.79 66.4637 1643.02L62.1337 1649.41C61.8932 1649.74 61.9894 1650.16 62.3262 1650.39C62.4705 1650.48 62.5667 1650.48 62.7111 1650.48C62.9516 1650.48 63.1922 1650.39 63.3365 1650.16L66.3675 1645.73V1651.83C66.3675 1652.21 66.7043 1652.53 67.0891 1652.53H72.4294C72.8143 1652.53 73.1511 1652.21 73.1511 1651.83V1643.91L80.2233 1641.95ZM90.1822 1635.51H77.048C76.6632 1635.51 76.3264 1635.84 76.3264 1636.21V1640.13L79.4536 1639.24C79.646 1639.2 79.8385 1639.15 80.0309 1639.15C80.9931 1639.15 81.8591 1639.76 82.0997 1640.69C82.4364 1641.81 81.7629 1642.97 80.6082 1643.3L76.2783 1644.51V1646.52C76.2783 1646.89 76.615 1647.22 76.9999 1647.22H82.8694V1648.57L80.0309 1651.83C79.7903 1652.11 79.8385 1652.58 80.1271 1652.81C80.2715 1652.91 80.4158 1653 80.6082 1653C80.8007 1653 81.0412 1652.91 81.1856 1652.77L82.9175 1650.76V1652.16C82.9175 1652.53 83.2543 1652.86 83.6392 1652.86C84.0241 1652.86 84.3609 1652.53 84.3609 1652.16V1650.76L86.0928 1652.77C86.2372 1652.95 86.4296 1653 86.6702 1653C86.8145 1653 87.0069 1652.95 87.1513 1652.81C87.4399 1652.58 87.488 1652.11 87.2475 1651.83L84.409 1648.57V1647.22H90.2785C90.6633 1647.22 91.0001 1646.89 91.0001 1646.52V1636.21C90.9039 1635.84 90.5671 1635.51 90.1822 1635.51Z" fill="white"/>
<rect x="77.4474" y="1812.84" width="44.2723" height="44.2723" transform="rotate(45 77.4474 1812.84)" fill="#9B51E0"/>
<rect x="77.4474" y="1804.67" width="44.2723" height="44.2723" transform="rotate(45 77.4474 1804.67)" fill="#BB6BD9"/>
<path d="M83.821 1849.4H68.4041C67.6299 1849.4 67 1848.77 67 1847.99V1826.85C67 1826.08 67.6299 1825.45 68.4041 1825.45H71.628C71.73 1825.45 71.8238 1825.5 71.8734 1825.59C71.9231 1825.68 71.9203 1825.79 71.8666 1825.88C71.7618 1826.05 71.7064 1826.24 71.7064 1826.43V1827.9H80.5187V1826.43C80.5187 1826.24 80.4633 1826.05 80.3585 1825.88C80.3048 1825.79 80.302 1825.68 80.3517 1825.59C80.4013 1825.5 80.4951 1825.45 80.5971 1825.45H83.821C84.5952 1825.45 85.2251 1826.08 85.2251 1826.85V1847.99C85.2251 1848.77 84.5952 1849.4 83.821 1849.4ZM68.4041 1826.01C67.9395 1826.01 67.5616 1826.39 67.5616 1826.85V1847.99C67.5616 1848.46 67.9395 1848.84 68.4041 1848.84H83.821C84.2856 1848.84 84.6635 1848.46 84.6635 1847.99V1826.85C84.6635 1826.39 84.2856 1826.01 83.821 1826.01H81.0235C81.0611 1826.15 81.0803 1826.29 81.0803 1826.43V1828.18C81.0803 1828.33 80.9547 1828.46 80.7995 1828.46H71.4256C71.2704 1828.46 71.1448 1828.33 71.1448 1828.18V1826.43C71.1448 1826.29 71.164 1826.15 71.2016 1826.01H68.4041Z" fill="white"/>
<path d="M80.7995 1828.46H71.4256C71.2704 1828.46 71.1448 1828.33 71.1448 1828.18V1826.43C71.1448 1826.13 71.2295 1825.84 71.3894 1825.58C71.4525 1825.47 71.5328 1825.37 71.6315 1825.27L73.5106 1823.46C73.806 1823.17 74.2154 1823 74.6328 1823H77.5868C78.0067 1823 78.4068 1823.16 78.7131 1823.45L80.585 1825.27C80.698 1825.38 80.7775 1825.48 80.839 1825.59C80.9956 1825.84 81.0803 1826.13 81.0803 1826.43V1828.18C81.0803 1828.33 80.9547 1828.46 80.7995 1828.46ZM71.7064 1827.9H80.5187V1826.43C80.5187 1826.24 80.4633 1826.05 80.3585 1825.88C80.3182 1825.81 80.2661 1825.75 80.1907 1825.67L78.3237 1823.86C78.1238 1823.67 77.8616 1823.56 77.5868 1823.56H74.6328C74.361 1823.56 74.0947 1823.67 73.9022 1823.86L72.0253 1825.67C71.9639 1825.73 71.9121 1825.8 71.8699 1825.87C71.7618 1826.05 71.7064 1826.24 71.7064 1826.43V1827.9Z" fill="white"/>
<path d="M76.5338 1826.01H75.6913C75.5361 1826.01 75.4105 1825.88 75.4105 1825.73C75.4105 1825.57 75.5361 1825.45 75.6913 1825.45H76.5338C76.689 1825.45 76.8146 1825.57 76.8146 1825.73C76.8146 1825.88 76.689 1826.01 76.5338 1826.01Z" fill="white"/>
<path d="M77.0268 1832.19H70.6506C70.4954 1832.19 70.3698 1832.06 70.3698 1831.91C70.3698 1831.75 70.4954 1831.63 70.6506 1831.63H77.0268C77.182 1831.63 77.3076 1831.75 77.3076 1831.91C77.3076 1832.06 77.182 1832.19 77.0268 1832.19Z" fill="white"/>
<path d="M82.0815 1835.56H75.7053C75.55 1835.56 75.4244 1835.43 75.4244 1835.28C75.4244 1835.12 75.55 1835 75.7053 1835H82.0815C82.2367 1835 82.3623 1835.12 82.3623 1835.28C82.3623 1835.43 82.2367 1835.56 82.0815 1835.56Z" fill="white"/>
<path d="M77.0268 1838.93H70.6506C70.4954 1838.93 70.3698 1838.8 70.3698 1838.65C70.3698 1838.49 70.4954 1838.37 70.6506 1838.37H77.0268C77.182 1838.37 77.3076 1838.49 77.3076 1838.65C77.3076 1838.8 77.182 1838.93 77.0268 1838.93Z" fill="white"/>
<path d="M77.0268 1845.67H70.6506C70.4954 1845.67 70.3698 1845.54 70.3698 1845.39C70.3698 1845.23 70.4954 1845.11 70.6506 1845.11H77.0268C77.182 1845.11 77.3076 1845.23 77.3076 1845.39C77.3076 1845.54 77.182 1845.67 77.0268 1845.67Z" fill="white"/>
<path d="M82.0815 1842.3H75.7053C75.55 1842.3 75.4244 1842.17 75.4244 1842.02C75.4244 1841.86 75.55 1841.74 75.7053 1841.74H82.0815C82.2367 1841.74 82.3623 1841.86 82.3623 1842.02C82.3623 1842.17 82.2367 1842.3 82.0815 1842.3Z" fill="white"/>
<rect x="77.4475" y="2008.91" width="109.527" height="109.527" transform="rotate(45 77.4475 2008.91)" fill="#BB6BD9" fill-opacity="0.5"/>
<rect x="77.4473" y="1991.67" width="107.513" height="107.513" transform="rotate(45 77.4473 1991.67)" fill="#BB6BD9"/>
<path d="M42.6314 2058.91H48.1114C48.8314 2058.91 49.5114 2058.98 50.1514 2059.13C50.8047 2059.26 51.3714 2059.49 51.8514 2059.83C52.3447 2060.15 52.7314 2060.59 53.0114 2061.15C53.3047 2061.69 53.4514 2062.38 53.4514 2063.21C53.4514 2064.21 53.1914 2065.06 52.6714 2065.77C52.1514 2066.46 51.3914 2066.9 50.3914 2067.09L53.9914 2073.07H50.2514L47.2914 2067.41H45.7514V2073.07H42.6314V2058.91ZM45.7514 2064.77H47.5914C47.8714 2064.77 48.1647 2064.76 48.4714 2064.75C48.7914 2064.72 49.0781 2064.66 49.3314 2064.57C49.5847 2064.46 49.7914 2064.3 49.9514 2064.09C50.1247 2063.87 50.2114 2063.57 50.2114 2063.19C50.2114 2062.83 50.1381 2062.54 49.9914 2062.33C49.8447 2062.11 49.6581 2061.95 49.4314 2061.85C49.2047 2061.73 48.9447 2061.65 48.6514 2061.61C48.3581 2061.57 48.0714 2061.55 47.7914 2061.55H45.7514V2064.77ZM64.4202 2071.39C63.9402 2072 63.3335 2072.47 62.6002 2072.81C61.8668 2073.14 61.1068 2073.31 60.3202 2073.31C59.5735 2073.31 58.8668 2073.19 58.2002 2072.95C57.5468 2072.71 56.9735 2072.37 56.4802 2071.93C56.0002 2071.47 55.6202 2070.93 55.3402 2070.31C55.0602 2069.68 54.9202 2068.98 54.9202 2068.21C54.9202 2067.43 55.0602 2066.73 55.3402 2066.11C55.6202 2065.48 56.0002 2064.95 56.4802 2064.51C56.9735 2064.05 57.5468 2063.71 58.2002 2063.47C58.8668 2063.23 59.5735 2063.11 60.3202 2063.11C61.0135 2063.11 61.6402 2063.23 62.2002 2063.47C62.7735 2063.71 63.2535 2064.05 63.6402 2064.51C64.0402 2064.95 64.3468 2065.48 64.5602 2066.11C64.7735 2066.73 64.8802 2067.43 64.8802 2068.21V2069.15H57.9202C58.0402 2069.72 58.3002 2070.18 58.7002 2070.53C59.1002 2070.86 59.5935 2071.03 60.1802 2071.03C60.6735 2071.03 61.0868 2070.92 61.4202 2070.71C61.7668 2070.48 62.0668 2070.19 62.3202 2069.85L64.4202 2071.39ZM61.8802 2067.11C61.8935 2066.6 61.7268 2066.17 61.3802 2065.81C61.0335 2065.45 60.5868 2065.27 60.0402 2065.27C59.7068 2065.27 59.4135 2065.32 59.1602 2065.43C58.9068 2065.53 58.6868 2065.67 58.5002 2065.85C58.3268 2066.01 58.1868 2066.2 58.0802 2066.43C57.9868 2066.64 57.9335 2066.87 57.9202 2067.11H61.8802ZM66.7445 2057.95H69.7445V2073.07H66.7445V2057.95ZM81.0998 2071.39C80.6198 2072 80.0132 2072.47 79.2798 2072.81C78.5465 2073.14 77.7865 2073.31 76.9998 2073.31C76.2532 2073.31 75.5465 2073.19 74.8798 2072.95C74.2265 2072.71 73.6532 2072.37 73.1598 2071.93C72.6798 2071.47 72.2998 2070.93 72.0198 2070.31C71.7398 2069.68 71.5998 2068.98 71.5998 2068.21C71.5998 2067.43 71.7398 2066.73 72.0198 2066.11C72.2998 2065.48 72.6798 2064.95 73.1598 2064.51C73.6532 2064.05 74.2265 2063.71 74.8798 2063.47C75.5465 2063.23 76.2532 2063.11 76.9998 2063.11C77.6932 2063.11 78.3198 2063.23 78.8798 2063.47C79.4532 2063.71 79.9332 2064.05 80.3198 2064.51C80.7198 2064.95 81.0265 2065.48 81.2398 2066.11C81.4532 2066.73 81.5598 2067.43 81.5598 2068.21V2069.15H74.5998C74.7198 2069.72 74.9798 2070.18 75.3798 2070.53C75.7798 2070.86 76.2732 2071.03 76.8598 2071.03C77.3532 2071.03 77.7665 2070.92 78.0998 2070.71C78.4465 2070.48 78.7465 2070.19 78.9998 2069.85L81.0998 2071.39ZM78.5598 2067.11C78.5732 2066.6 78.4065 2066.17 78.0598 2065.81C77.7132 2065.45 77.2665 2065.27 76.7198 2065.27C76.3865 2065.27 76.0932 2065.32 75.8398 2065.43C75.5865 2065.53 75.3665 2065.67 75.1798 2065.85C75.0065 2066.01 74.8665 2066.2 74.7598 2066.43C74.6665 2066.64 74.6132 2066.87 74.5998 2067.11H78.5598ZM89.4842 2071.85H89.4442C89.1109 2072.37 88.6642 2072.74 88.1042 2072.97C87.5576 2073.19 86.9776 2073.31 86.3642 2073.31C85.9109 2073.31 85.4709 2073.24 85.0442 2073.11C84.6309 2072.99 84.2642 2072.8 83.9442 2072.55C83.6242 2072.29 83.3709 2071.98 83.1842 2071.61C82.9976 2071.23 82.9042 2070.8 82.9042 2070.31C82.9042 2069.75 83.0042 2069.27 83.2042 2068.89C83.4176 2068.5 83.6976 2068.18 84.0442 2067.93C84.4042 2067.67 84.8109 2067.48 85.2642 2067.35C85.7176 2067.2 86.1842 2067.09 86.6642 2067.03C87.1576 2066.96 87.6442 2066.92 88.1242 2066.91C88.6176 2066.89 89.0709 2066.89 89.4842 2066.89C89.4842 2066.35 89.2909 2065.93 88.9042 2065.63C88.5309 2065.31 88.0842 2065.15 87.5642 2065.15C87.0709 2065.15 86.6176 2065.25 86.2042 2065.47C85.8042 2065.67 85.4442 2065.95 85.1242 2066.31L83.5242 2064.67C84.0842 2064.15 84.7376 2063.76 85.4842 2063.51C86.2309 2063.24 87.0042 2063.11 87.8042 2063.11C88.6842 2063.11 89.4042 2063.22 89.9642 2063.45C90.5376 2063.66 90.9909 2063.98 91.3242 2064.41C91.6709 2064.83 91.9109 2065.36 92.0442 2065.99C92.1776 2066.6 92.2442 2067.31 92.2442 2068.13V2073.07H89.4842V2071.85ZM88.7442 2068.81C88.5176 2068.81 88.2309 2068.82 87.8842 2068.85C87.5509 2068.86 87.2242 2068.91 86.9042 2069.01C86.5976 2069.1 86.3309 2069.24 86.1042 2069.43C85.8909 2069.61 85.7842 2069.87 85.7842 2070.21C85.7842 2070.57 85.9376 2070.83 86.2442 2071.01C86.5509 2071.18 86.8709 2071.27 87.2042 2071.27C87.4976 2071.27 87.7776 2071.23 88.0442 2071.15C88.3242 2071.07 88.5709 2070.95 88.7842 2070.81C88.9976 2070.66 89.1642 2070.47 89.2842 2070.25C89.4176 2070.02 89.4842 2069.75 89.4842 2069.45V2068.81H88.7442ZM99.6264 2066.21C99.1864 2065.66 98.6064 2065.39 97.8864 2065.39C97.6331 2065.39 97.3864 2065.45 97.1464 2065.57C96.9064 2065.69 96.7864 2065.89 96.7864 2066.19C96.7864 2066.43 96.9064 2066.61 97.1464 2066.73C97.3997 2066.83 97.7131 2066.93 98.0864 2067.03C98.4731 2067.11 98.8797 2067.2 99.3064 2067.31C99.7464 2067.4 100.153 2067.55 100.526 2067.77C100.913 2067.98 101.226 2068.27 101.466 2068.65C101.72 2069.01 101.846 2069.49 101.846 2070.11C101.846 2070.73 101.706 2071.25 101.426 2071.67C101.16 2072.07 100.813 2072.39 100.386 2072.65C99.9597 2072.89 99.4797 2073.05 98.9464 2073.15C98.4131 2073.25 97.8864 2073.31 97.3664 2073.31C96.6864 2073.31 95.9997 2073.21 95.3064 2073.03C94.6131 2072.83 94.0264 2072.48 93.5464 2071.99L95.3664 2069.97C95.6464 2070.31 95.9531 2070.58 96.2864 2070.77C96.6331 2070.94 97.0331 2071.03 97.4864 2071.03C97.8331 2071.03 98.1464 2070.98 98.4264 2070.89C98.7064 2070.78 98.8464 2070.59 98.8464 2070.33C98.8464 2070.07 98.7197 2069.89 98.4664 2069.77C98.2264 2069.63 97.9131 2069.53 97.5264 2069.45C97.1531 2069.35 96.7464 2069.26 96.3064 2069.17C95.8797 2069.06 95.4731 2068.91 95.0864 2068.71C94.7131 2068.51 94.3997 2068.23 94.1464 2067.87C93.9064 2067.49 93.7864 2067 93.7864 2066.39C93.7864 2065.81 93.8997 2065.32 94.1264 2064.91C94.3664 2064.49 94.6731 2064.15 95.0464 2063.89C95.4331 2063.62 95.8731 2063.43 96.3664 2063.31C96.8597 2063.17 97.3597 2063.11 97.8664 2063.11C98.5064 2063.11 99.1531 2063.2 99.8064 2063.39C100.46 2063.57 101.013 2063.91 101.466 2064.39L99.6264 2066.21ZM112.584 2071.39C112.104 2072 111.498 2072.47 110.764 2072.81C110.031 2073.14 109.271 2073.31 108.484 2073.31C107.738 2073.31 107.031 2073.19 106.364 2072.95C105.711 2072.71 105.138 2072.37 104.644 2071.93C104.164 2071.47 103.784 2070.93 103.504 2070.31C103.224 2069.68 103.084 2068.98 103.084 2068.21C103.084 2067.43 103.224 2066.73 103.504 2066.11C103.784 2065.48 104.164 2064.95 104.644 2064.51C105.138 2064.05 105.711 2063.71 106.364 2063.47C107.031 2063.23 107.738 2063.11 108.484 2063.11C109.178 2063.11 109.804 2063.23 110.364 2063.47C110.938 2063.71 111.418 2064.05 111.804 2064.51C112.204 2064.95 112.511 2065.48 112.724 2066.11C112.938 2066.73 113.044 2067.43 113.044 2068.21V2069.15H106.084C106.204 2069.72 106.464 2070.18 106.864 2070.53C107.264 2070.86 107.758 2071.03 108.344 2071.03C108.838 2071.03 109.251 2070.92 109.584 2070.71C109.931 2070.48 110.231 2070.19 110.484 2069.85L112.584 2071.39ZM110.044 2067.11C110.058 2066.6 109.891 2066.17 109.544 2065.81C109.198 2065.45 108.751 2065.27 108.204 2065.27C107.871 2065.27 107.578 2065.32 107.324 2065.43C107.071 2065.53 106.851 2065.67 106.664 2065.85C106.491 2066.01 106.351 2066.2 106.244 2066.43C106.151 2066.64 106.098 2066.87 106.084 2067.11H110.044Z" fill="white"/>
</svg>
