<svg width="157" height="185" viewBox="0 0 157 185" fill="none" xmlns="http://www.w3.org/2000/svg">
  <title>API Retrying Long Pending Operations Icon</title>
  <path
    d="M77.4784 10.6163C75.7949 10.6163 74.1976 10.7033 72.5573 10.8774L66.2979 0L51.2323 4.96009L52.5273 17.4473C49.6782 19.1442 47.045 21.0586 44.5844 23.2776L33.188 18.187L23.8637 31.1093L32.1951 40.4639C30.9001 43.466 29.8641 46.5987 29.1734 49.9054L17 52.5595V68.5275L29.1734 71.1381C29.8641 74.4013 30.9001 77.5775 32.2383 80.5797L23.9069 89.9342L33.2312 102.857L44.6275 97.7659C47.0881 99.9849 49.7214 101.899 52.5705 103.596L51.3186 116.083L66.3842 121L72.6004 110.123C74.2408 110.297 75.8812 110.34 77.5216 110.34C79.2051 110.34 80.8024 110.253 82.4427 110.079L88.7021 120.957L103.768 115.996L102.473 103.509C105.322 101.812 107.955 99.8544 110.416 97.6789L121.812 102.77L131.136 89.8472L122.805 80.4926C124.1 77.4905 125.136 74.3578 125.827 71.0511L138 68.397V52.429L125.783 49.8184C125.093 46.5552 124.057 43.379 122.762 40.3769L131.093 31.0223L121.769 18.1L110.372 23.1906C107.912 21.0151 105.279 19.0572 102.43 17.3603L103.681 4.87307L88.6589 0L82.3996 10.8774C80.8024 10.7033 79.162 10.6163 77.4784 10.6163ZM121.38 60.4783C121.38 84.8871 101.782 104.684 77.5648 104.684C53.3475 104.684 33.706 84.9306 33.706 60.5218C33.706 36.1129 53.3043 16.3161 77.5216 16.3161C101.696 16.2726 121.337 36.0694 121.38 60.4783Z"
    fill="#89C512"/>
  <path
    d="M32.2842 140.045H33.0166C33.7344 140.045 34.2642 139.926 34.606 139.687C34.9478 139.447 35.1187 139.071 35.1187 138.559C35.1187 138.051 34.9429 137.689 34.5913 137.475C34.2446 137.26 33.7051 137.152 32.9727 137.152H32.2842V140.045ZM32.2842 141.891V146H30.0137V135.292H33.1338C34.5889 135.292 35.6655 135.558 36.3638 136.09C37.062 136.618 37.4111 137.421 37.4111 138.5C37.4111 139.13 37.2378 139.691 36.8911 140.185C36.5444 140.673 36.0537 141.056 35.4189 141.334C37.0303 143.742 38.0801 145.297 38.5684 146H36.0488L33.4927 141.891H32.2842ZM43.1313 139.247C42.6577 139.247 42.2866 139.398 42.0181 139.701C41.7495 139.999 41.5957 140.424 41.5566 140.976H44.6914C44.6816 140.424 44.5376 139.999 44.2593 139.701C43.981 139.398 43.605 139.247 43.1313 139.247ZM43.4463 146.146C42.1279 146.146 41.0977 145.783 40.3555 145.055C39.6133 144.328 39.2422 143.297 39.2422 141.964C39.2422 140.592 39.584 139.533 40.2676 138.786C40.9561 138.034 41.9058 137.658 43.1167 137.658C44.2739 137.658 45.1748 137.987 45.8193 138.646C46.4639 139.306 46.7861 140.216 46.7861 141.378V142.462H41.5054C41.5298 143.097 41.7178 143.593 42.0693 143.949C42.4209 144.306 42.9141 144.484 43.5488 144.484C44.042 144.484 44.5083 144.433 44.9478 144.33C45.3872 144.228 45.8462 144.064 46.3247 143.839V145.568C45.9341 145.763 45.5166 145.907 45.0723 146C44.6279 146.098 44.0859 146.146 43.4463 146.146ZM52.0522 144.367C52.4429 144.367 52.9116 144.281 53.4585 144.11V145.773C52.9019 146.022 52.2183 146.146 51.4077 146.146C50.5142 146.146 49.8623 145.922 49.4521 145.473C49.0469 145.019 48.8442 144.34 48.8442 143.437V139.489H47.7749V138.544L49.0054 137.797L49.6499 136.068H51.0781V137.812H53.3706V139.489H51.0781V143.437C51.0781 143.754 51.166 143.988 51.3418 144.14C51.5225 144.291 51.7593 144.367 52.0522 144.367ZM59.6914 137.658C59.9941 137.658 60.2456 137.68 60.4458 137.724L60.2773 139.818C60.0967 139.77 59.877 139.745 59.6182 139.745C58.9053 139.745 58.3486 139.928 57.9482 140.294C57.5527 140.661 57.355 141.173 57.355 141.833V146H55.1211V137.812H56.813L57.1426 139.188H57.2524C57.5063 138.729 57.8481 138.361 58.2778 138.083C58.7124 137.799 59.1836 137.658 59.6914 137.658ZM60.7607 137.812H63.207L64.7524 142.418C64.8843 142.819 64.9746 143.292 65.0234 143.839H65.0674C65.1211 143.336 65.2261 142.863 65.3823 142.418L66.8984 137.812H69.2935L65.8291 147.047C65.5117 147.902 65.0576 148.542 64.4668 148.966C63.8809 149.391 63.1948 149.604 62.4087 149.604C62.0229 149.604 61.6445 149.562 61.2734 149.479V147.707C61.542 147.77 61.835 147.802 62.1523 147.802C62.5479 147.802 62.8921 147.68 63.1851 147.436C63.4829 147.196 63.7148 146.833 63.8809 146.344L64.0127 145.941L60.7607 137.812ZM70.3774 135.695C70.3774 134.967 70.7827 134.604 71.5933 134.604C72.4038 134.604 72.8091 134.967 72.8091 135.695C72.8091 136.042 72.7065 136.312 72.5015 136.508C72.3013 136.698 71.9985 136.793 71.5933 136.793C70.7827 136.793 70.3774 136.427 70.3774 135.695ZM72.7065 146H70.4727V137.812H72.7065V146ZM82.6162 146H80.3823V141.217C80.3823 140.626 80.2773 140.185 80.0674 139.892C79.8574 139.594 79.5229 139.445 79.064 139.445C78.439 139.445 77.9873 139.655 77.709 140.075C77.4307 140.49 77.2915 141.181 77.2915 142.147V146H75.0576V137.812H76.7642L77.0645 138.859H77.189C77.438 138.463 77.7798 138.166 78.2144 137.965C78.6538 137.76 79.1519 137.658 79.7085 137.658C80.6606 137.658 81.3833 137.917 81.8765 138.434C82.3696 138.947 82.6162 139.689 82.6162 140.661V146ZM92.0425 137.812V138.947L90.7607 139.276C90.9951 139.643 91.1123 140.053 91.1123 140.507C91.1123 141.386 90.8047 142.072 90.1895 142.565C89.5791 143.053 88.7295 143.297 87.6406 143.297L87.2378 143.275L86.9082 143.239C86.6787 143.415 86.564 143.61 86.564 143.825C86.564 144.147 86.9741 144.308 87.7944 144.308H89.186C90.0845 144.308 90.7681 144.501 91.2368 144.887C91.7104 145.272 91.9473 145.839 91.9473 146.586C91.9473 147.543 91.5469 148.285 90.7461 148.812C89.9502 149.34 88.8052 149.604 87.311 149.604C86.1685 149.604 85.2944 149.403 84.689 149.003C84.0884 148.607 83.7881 148.051 83.7881 147.333C83.7881 146.84 83.9419 146.427 84.2495 146.095C84.5571 145.763 85.0088 145.526 85.6045 145.385C85.375 145.287 85.1748 145.128 85.0039 144.909C84.833 144.684 84.7476 144.447 84.7476 144.198C84.7476 143.886 84.8379 143.627 85.0186 143.422C85.1992 143.212 85.4604 143.007 85.8022 142.807C85.3726 142.621 85.0308 142.323 84.7769 141.913C84.5278 141.503 84.4033 141.02 84.4033 140.463C84.4033 139.569 84.6938 138.878 85.2749 138.39C85.856 137.902 86.686 137.658 87.7651 137.658C87.9946 137.658 88.2656 137.68 88.5781 137.724C88.8955 137.763 89.0981 137.792 89.186 137.812H92.0425ZM85.7217 147.157C85.7217 147.465 85.8682 147.707 86.1611 147.882C86.459 148.058 86.874 148.146 87.4062 148.146C88.207 148.146 88.8345 148.036 89.2886 147.816C89.7427 147.597 89.9697 147.296 89.9697 146.916C89.9697 146.608 89.8354 146.396 89.5669 146.278C89.2983 146.161 88.8833 146.103 88.3218 146.103H87.1646C86.7544 146.103 86.4102 146.198 86.1318 146.388C85.8584 146.583 85.7217 146.84 85.7217 147.157ZM86.5347 140.492C86.5347 140.937 86.6348 141.288 86.835 141.547C87.04 141.806 87.3501 141.935 87.7651 141.935C88.1851 141.935 88.4927 141.806 88.688 141.547C88.8833 141.288 88.981 140.937 88.981 140.492C88.981 139.506 88.5757 139.013 87.7651 139.013C86.9448 139.013 86.5347 139.506 86.5347 140.492ZM99.5278 146H97.2939V134.604H99.5278V146ZM103.659 141.891C103.659 142.702 103.791 143.314 104.054 143.729C104.323 144.145 104.757 144.352 105.358 144.352C105.954 144.352 106.381 144.147 106.64 143.737C106.903 143.322 107.035 142.707 107.035 141.891C107.035 141.081 106.903 140.473 106.64 140.067C106.376 139.662 105.944 139.459 105.343 139.459C104.748 139.459 104.318 139.662 104.054 140.067C103.791 140.468 103.659 141.076 103.659 141.891ZM109.32 141.891C109.32 143.224 108.969 144.267 108.266 145.019C107.562 145.771 106.583 146.146 105.329 146.146C104.542 146.146 103.849 145.976 103.249 145.634C102.648 145.287 102.187 144.792 101.864 144.147C101.542 143.502 101.381 142.75 101.381 141.891C101.381 140.553 101.73 139.513 102.428 138.771C103.126 138.029 104.108 137.658 105.373 137.658C106.159 137.658 106.852 137.829 107.453 138.17C108.053 138.512 108.515 139.003 108.837 139.643C109.159 140.282 109.32 141.032 109.32 141.891ZM118.725 146H116.491V141.217C116.491 140.626 116.386 140.185 116.176 139.892C115.966 139.594 115.631 139.445 115.172 139.445C114.547 139.445 114.096 139.655 113.817 140.075C113.539 140.49 113.4 141.181 113.4 142.147V146H111.166V137.812H112.873L113.173 138.859H113.297C113.546 138.463 113.888 138.166 114.323 137.965C114.762 137.76 115.26 137.658 115.817 137.658C116.769 137.658 117.492 137.917 117.985 138.434C118.478 138.947 118.725 139.689 118.725 140.661V146ZM128.151 137.812V138.947L126.869 139.276C127.104 139.643 127.221 140.053 127.221 140.507C127.221 141.386 126.913 142.072 126.298 142.565C125.688 143.053 124.838 143.297 123.749 143.297L123.346 143.275L123.017 143.239C122.787 143.415 122.672 143.61 122.672 143.825C122.672 144.147 123.083 144.308 123.903 144.308H125.294C126.193 144.308 126.876 144.501 127.345 144.887C127.819 145.272 128.056 145.839 128.056 146.586C128.056 147.543 127.655 148.285 126.854 148.812C126.059 149.34 124.914 149.604 123.419 149.604C122.277 149.604 121.403 149.403 120.797 149.003C120.197 148.607 119.896 148.051 119.896 147.333C119.896 146.84 120.05 146.427 120.358 146.095C120.666 145.763 121.117 145.526 121.713 145.385C121.483 145.287 121.283 145.128 121.112 144.909C120.941 144.684 120.856 144.447 120.856 144.198C120.856 143.886 120.946 143.627 121.127 143.422C121.308 143.212 121.569 143.007 121.911 142.807C121.481 142.621 121.139 142.323 120.885 141.913C120.636 141.503 120.512 141.02 120.512 140.463C120.512 139.569 120.802 138.878 121.383 138.39C121.964 137.902 122.794 137.658 123.874 137.658C124.103 137.658 124.374 137.68 124.687 137.724C125.004 137.763 125.207 137.792 125.294 137.812H128.151ZM121.83 147.157C121.83 147.465 121.977 147.707 122.27 147.882C122.567 148.058 122.982 148.146 123.515 148.146C124.315 148.146 124.943 148.036 125.397 147.816C125.851 147.597 126.078 147.296 126.078 146.916C126.078 146.608 125.944 146.396 125.675 146.278C125.407 146.161 124.992 146.103 124.43 146.103H123.273C122.863 146.103 122.519 146.198 122.24 146.388C121.967 146.583 121.83 146.84 121.83 147.157ZM122.643 140.492C122.643 140.937 122.743 141.288 122.943 141.547C123.148 141.806 123.458 141.935 123.874 141.935C124.293 141.935 124.601 141.806 124.796 141.547C124.992 141.288 125.089 140.937 125.089 140.492C125.089 139.506 124.684 139.013 123.874 139.013C123.053 139.013 122.643 139.506 122.643 140.492ZM11.293 166.146C10.3311 166.146 9.57666 165.797 9.02979 165.099H8.9126C8.99072 165.783 9.02979 166.178 9.02979 166.286V169.604H6.7959V157.812H8.6123L8.92725 158.874H9.02979C9.55225 158.063 10.3262 157.658 11.3516 157.658C12.3184 157.658 13.0752 158.031 13.6221 158.778C14.1689 159.525 14.4424 160.563 14.4424 161.891C14.4424 162.765 14.313 163.524 14.0542 164.169C13.8003 164.813 13.4365 165.304 12.9629 165.641C12.4893 165.978 11.9326 166.146 11.293 166.146ZM10.6338 159.445C10.082 159.445 9.6792 159.616 9.42529 159.958C9.17139 160.294 9.03955 160.854 9.02979 161.635V161.876C9.02979 162.755 9.15918 163.385 9.41797 163.766C9.68164 164.147 10.0967 164.337 10.6631 164.337C11.6641 164.337 12.1646 163.512 12.1646 161.862C12.1646 161.056 12.04 160.453 11.791 160.053C11.5469 159.647 11.1611 159.445 10.6338 159.445ZM19.6792 159.247C19.2056 159.247 18.8345 159.398 18.5659 159.701C18.2974 159.999 18.1436 160.424 18.1045 160.976H21.2393C21.2295 160.424 21.0854 159.999 20.8071 159.701C20.5288 159.398 20.1528 159.247 19.6792 159.247ZM19.9941 166.146C18.6758 166.146 17.6455 165.783 16.9033 165.055C16.1611 164.328 15.79 163.297 15.79 161.964C15.79 160.592 16.1318 159.533 16.8154 158.786C17.5039 158.034 18.4536 157.658 19.6646 157.658C20.8218 157.658 21.7227 157.987 22.3672 158.646C23.0117 159.306 23.334 160.216 23.334 161.378V162.462H18.0532C18.0776 163.097 18.2656 163.593 18.6172 163.949C18.9688 164.306 19.4619 164.484 20.0967 164.484C20.5898 164.484 21.0562 164.433 21.4956 164.33C21.9351 164.228 22.394 164.064 22.8726 163.839V165.568C22.4819 165.763 22.0645 165.907 21.6201 166C21.1758 166.098 20.6338 166.146 19.9941 166.146ZM32.709 166H30.4751V161.217C30.4751 160.626 30.3701 160.185 30.1602 159.892C29.9502 159.594 29.6157 159.445 29.1567 159.445C28.5317 159.445 28.0801 159.655 27.8018 160.075C27.5234 160.49 27.3843 161.181 27.3843 162.147V166H25.1504V157.812H26.8569L27.1572 158.859H27.2817C27.5308 158.463 27.8726 158.166 28.3071 157.965C28.7466 157.76 29.2446 157.658 29.8013 157.658C30.7534 157.658 31.4761 157.917 31.9692 158.434C32.4624 158.947 32.709 159.689 32.709 160.661V166ZM37.6016 166.146C36.6396 166.146 35.8828 165.773 35.3311 165.026C34.7842 164.279 34.5107 163.244 34.5107 161.92C34.5107 160.578 34.7891 159.533 35.3457 158.786C35.9072 158.034 36.6787 157.658 37.6602 157.658C38.6904 157.658 39.4766 158.058 40.0186 158.859H40.0918C39.9795 158.249 39.9233 157.704 39.9233 157.226V154.604H42.1646V166H40.4507L40.0186 164.938H39.9233C39.4155 165.744 38.6416 166.146 37.6016 166.146ZM38.3853 164.367C38.9565 164.367 39.374 164.201 39.6377 163.869C39.9062 163.537 40.0527 162.973 40.0771 162.177V161.935C40.0771 161.056 39.9404 160.426 39.667 160.045C39.3984 159.665 38.959 159.474 38.3486 159.474C37.8506 159.474 37.4624 159.687 37.1841 160.111C36.9106 160.531 36.7739 161.144 36.7739 161.95C36.7739 162.755 36.9131 163.361 37.1914 163.766C37.4697 164.167 37.8677 164.367 38.3853 164.367ZM44.4058 155.695C44.4058 154.967 44.811 154.604 45.6216 154.604C46.4321 154.604 46.8374 154.967 46.8374 155.695C46.8374 156.042 46.7349 156.312 46.5298 156.508C46.3296 156.698 46.0269 156.793 45.6216 156.793C44.811 156.793 44.4058 156.427 44.4058 155.695ZM46.7349 166H44.501V157.812H46.7349V166ZM56.6445 166H54.4106V161.217C54.4106 160.626 54.3057 160.185 54.0957 159.892C53.8857 159.594 53.5513 159.445 53.0923 159.445C52.4673 159.445 52.0156 159.655 51.7373 160.075C51.459 160.49 51.3198 161.181 51.3198 162.147V166H49.0859V157.812H50.7925L51.0928 158.859H51.2173C51.4663 158.463 51.8081 158.166 52.2427 157.965C52.6821 157.76 53.1802 157.658 53.7368 157.658C54.689 157.658 55.4116 157.917 55.9048 158.434C56.3979 158.947 56.6445 159.689 56.6445 160.661V166ZM66.0708 157.812V158.947L64.7891 159.276C65.0234 159.643 65.1406 160.053 65.1406 160.507C65.1406 161.386 64.833 162.072 64.2178 162.565C63.6074 163.053 62.7578 163.297 61.6689 163.297L61.2661 163.275L60.9365 163.239C60.707 163.415 60.5923 163.61 60.5923 163.825C60.5923 164.147 61.0024 164.308 61.8228 164.308H63.2144C64.1128 164.308 64.7964 164.501 65.2651 164.887C65.7388 165.272 65.9756 165.839 65.9756 166.586C65.9756 167.543 65.5752 168.285 64.7744 168.812C63.9785 169.34 62.8335 169.604 61.3394 169.604C60.1968 169.604 59.3228 169.403 58.7173 169.003C58.1167 168.607 57.8164 168.051 57.8164 167.333C57.8164 166.84 57.9702 166.427 58.2778 166.095C58.5854 165.763 59.0371 165.526 59.6328 165.385C59.4033 165.287 59.2031 165.128 59.0322 164.909C58.8613 164.684 58.7759 164.447 58.7759 164.198C58.7759 163.886 58.8662 163.627 59.0469 163.422C59.2275 163.212 59.4888 163.007 59.8306 162.807C59.4009 162.621 59.0591 162.323 58.8052 161.913C58.5562 161.503 58.4316 161.02 58.4316 160.463C58.4316 159.569 58.7222 158.878 59.3032 158.39C59.8843 157.902 60.7144 157.658 61.7935 157.658C62.0229 157.658 62.2939 157.68 62.6064 157.724C62.9238 157.763 63.1265 157.792 63.2144 157.812H66.0708ZM59.75 167.157C59.75 167.465 59.8965 167.707 60.1895 167.882C60.4873 168.058 60.9023 168.146 61.4346 168.146C62.2354 168.146 62.8628 168.036 63.3169 167.816C63.771 167.597 63.998 167.296 63.998 166.916C63.998 166.608 63.8638 166.396 63.5952 166.278C63.3267 166.161 62.9116 166.103 62.3501 166.103H61.1929C60.7827 166.103 60.4385 166.198 60.1602 166.388C59.8867 166.583 59.75 166.84 59.75 167.157ZM60.563 160.492C60.563 160.937 60.6631 161.288 60.8633 161.547C61.0684 161.806 61.3784 161.935 61.7935 161.935C62.2134 161.935 62.521 161.806 62.7163 161.547C62.9116 161.288 63.0093 160.937 63.0093 160.492C63.0093 159.506 62.604 159.013 61.7935 159.013C60.9731 159.013 60.563 159.506 60.563 160.492ZM73.1021 161.891C73.1021 162.702 73.2339 163.314 73.4976 163.729C73.7661 164.145 74.2007 164.352 74.8013 164.352C75.397 164.352 75.8242 164.147 76.083 163.737C76.3467 163.322 76.4785 162.707 76.4785 161.891C76.4785 161.081 76.3467 160.473 76.083 160.067C75.8193 159.662 75.3872 159.459 74.7866 159.459C74.1909 159.459 73.7612 159.662 73.4976 160.067C73.2339 160.468 73.1021 161.076 73.1021 161.891ZM78.7637 161.891C78.7637 163.224 78.4121 164.267 77.709 165.019C77.0059 165.771 76.0269 166.146 74.772 166.146C73.9858 166.146 73.2925 165.976 72.6919 165.634C72.0913 165.287 71.6299 164.792 71.3076 164.147C70.9854 163.502 70.8242 162.75 70.8242 161.891C70.8242 160.553 71.1733 159.513 71.8716 158.771C72.5698 158.029 73.5513 157.658 74.8159 157.658C75.6021 157.658 76.2954 157.829 76.896 158.17C77.4966 158.512 77.958 159.003 78.2803 159.643C78.6025 160.282 78.7637 161.032 78.7637 161.891ZM85.1064 166.146C84.1445 166.146 83.3901 165.797 82.8433 165.099H82.7261C82.8042 165.783 82.8433 166.178 82.8433 166.286V169.604H80.6094V157.812H82.4258L82.7407 158.874H82.8433C83.3657 158.063 84.1396 157.658 85.165 157.658C86.1318 157.658 86.8887 158.031 87.4355 158.778C87.9824 159.525 88.2559 160.563 88.2559 161.891C88.2559 162.765 88.1265 163.524 87.8677 164.169C87.6138 164.813 87.25 165.304 86.7764 165.641C86.3027 165.978 85.7461 166.146 85.1064 166.146ZM84.4473 159.445C83.8955 159.445 83.4927 159.616 83.2388 159.958C82.9849 160.294 82.853 160.854 82.8433 161.635V161.876C82.8433 162.755 82.9727 163.385 83.2314 163.766C83.4951 164.147 83.9102 164.337 84.4766 164.337C85.4775 164.337 85.978 163.512 85.978 161.862C85.978 161.056 85.8535 160.453 85.6045 160.053C85.3604 159.647 84.9746 159.445 84.4473 159.445ZM93.4927 159.247C93.019 159.247 92.6479 159.398 92.3794 159.701C92.1108 159.999 91.957 160.424 91.918 160.976H95.0527C95.043 160.424 94.8989 159.999 94.6206 159.701C94.3423 159.398 93.9663 159.247 93.4927 159.247ZM93.8076 166.146C92.4893 166.146 91.459 165.783 90.7168 165.055C89.9746 164.328 89.6035 163.297 89.6035 161.964C89.6035 160.592 89.9453 159.533 90.6289 158.786C91.3174 158.034 92.2671 157.658 93.478 157.658C94.6353 157.658 95.5361 157.987 96.1807 158.646C96.8252 159.306 97.1475 160.216 97.1475 161.378V162.462H91.8667C91.8911 163.097 92.0791 163.593 92.4307 163.949C92.7822 164.306 93.2754 164.484 93.9102 164.484C94.4033 164.484 94.8696 164.433 95.3091 164.33C95.7485 164.228 96.2075 164.064 96.686 163.839V165.568C96.2954 165.763 95.8779 165.907 95.4336 166C94.9893 166.098 94.4473 166.146 93.8076 166.146ZM103.534 157.658C103.837 157.658 104.088 157.68 104.289 157.724L104.12 159.818C103.939 159.77 103.72 159.745 103.461 159.745C102.748 159.745 102.191 159.928 101.791 160.294C101.396 160.661 101.198 161.173 101.198 161.833V166H98.9639V157.812H100.656L100.985 159.188H101.095C101.349 158.729 101.691 158.361 102.121 158.083C102.555 157.799 103.026 157.658 103.534 157.658ZM110.976 166L110.543 164.887H110.485C110.109 165.36 109.721 165.69 109.32 165.875C108.925 166.056 108.407 166.146 107.768 166.146C106.981 166.146 106.361 165.922 105.907 165.473C105.458 165.023 105.233 164.384 105.233 163.554C105.233 162.685 105.536 162.045 106.142 161.635C106.752 161.22 107.67 160.99 108.896 160.946L110.316 160.902V160.543C110.316 159.713 109.892 159.298 109.042 159.298C108.388 159.298 107.619 159.496 106.735 159.892L105.995 158.383C106.938 157.89 107.982 157.643 109.13 157.643C110.229 157.643 111.071 157.882 111.657 158.361C112.243 158.839 112.536 159.567 112.536 160.543V166H110.976ZM110.316 162.206L109.452 162.235C108.803 162.255 108.319 162.372 108.002 162.587C107.685 162.802 107.526 163.129 107.526 163.568C107.526 164.198 107.887 164.513 108.61 164.513C109.127 164.513 109.54 164.364 109.848 164.066C110.16 163.769 110.316 163.373 110.316 162.88V162.206ZM118.292 164.367C118.683 164.367 119.152 164.281 119.699 164.11V165.773C119.142 166.022 118.458 166.146 117.648 166.146C116.754 166.146 116.103 165.922 115.692 165.473C115.287 165.019 115.084 164.34 115.084 163.437V159.489H114.015V158.544L115.246 157.797L115.89 156.068H117.318V157.812H119.611V159.489H117.318V163.437C117.318 163.754 117.406 163.988 117.582 164.14C117.763 164.291 118 164.367 118.292 164.367ZM121.266 155.695C121.266 154.967 121.671 154.604 122.482 154.604C123.292 154.604 123.698 154.967 123.698 155.695C123.698 156.042 123.595 156.312 123.39 156.508C123.19 156.698 122.887 156.793 122.482 156.793C121.671 156.793 121.266 156.427 121.266 155.695ZM123.595 166H121.361V157.812H123.595V166ZM127.726 161.891C127.726 162.702 127.858 163.314 128.122 163.729C128.39 164.145 128.825 164.352 129.425 164.352C130.021 164.352 130.448 164.147 130.707 163.737C130.971 163.322 131.103 162.707 131.103 161.891C131.103 161.081 130.971 160.473 130.707 160.067C130.443 159.662 130.011 159.459 129.411 159.459C128.815 159.459 128.385 159.662 128.122 160.067C127.858 160.468 127.726 161.076 127.726 161.891ZM133.388 161.891C133.388 163.224 133.036 164.267 132.333 165.019C131.63 165.771 130.651 166.146 129.396 166.146C128.61 166.146 127.917 165.976 127.316 165.634C126.715 165.287 126.254 164.792 125.932 164.147C125.609 163.502 125.448 162.75 125.448 161.891C125.448 160.553 125.797 159.513 126.496 158.771C127.194 158.029 128.175 157.658 129.44 157.658C130.226 157.658 130.919 157.829 131.52 158.17C132.121 158.512 132.582 159.003 132.904 159.643C133.227 160.282 133.388 161.032 133.388 161.891ZM142.792 166H140.558V161.217C140.558 160.626 140.453 160.185 140.243 159.892C140.033 159.594 139.699 159.445 139.24 159.445C138.615 159.445 138.163 159.655 137.885 160.075C137.606 160.49 137.467 161.181 137.467 162.147V166H135.233V157.812H136.94L137.24 158.859H137.365C137.614 158.463 137.956 158.166 138.39 157.965C138.83 157.76 139.328 157.658 139.884 157.658C140.836 157.658 141.559 157.917 142.052 158.434C142.545 158.947 142.792 159.689 142.792 160.661V166ZM150.805 163.568C150.805 164.408 150.512 165.048 149.926 165.487C149.345 165.927 148.473 166.146 147.311 166.146C146.715 166.146 146.208 166.105 145.788 166.022C145.368 165.944 144.975 165.827 144.608 165.67V163.825C145.023 164.02 145.49 164.184 146.007 164.315C146.53 164.447 146.989 164.513 147.384 164.513C148.195 164.513 148.6 164.279 148.6 163.81C148.6 163.634 148.546 163.493 148.439 163.385C148.332 163.273 148.146 163.148 147.882 163.012C147.619 162.87 147.267 162.707 146.828 162.521C146.198 162.257 145.734 162.013 145.436 161.789C145.143 161.564 144.928 161.308 144.792 161.02C144.66 160.727 144.594 160.368 144.594 159.943C144.594 159.215 144.875 158.654 145.436 158.258C146.002 157.858 146.803 157.658 147.838 157.658C148.825 157.658 149.784 157.873 150.717 158.302L150.043 159.914C149.633 159.738 149.25 159.594 148.893 159.481C148.537 159.369 148.173 159.313 147.802 159.313C147.143 159.313 146.813 159.491 146.813 159.848C146.813 160.048 146.918 160.221 147.128 160.368C147.343 160.514 147.809 160.731 148.527 161.02C149.167 161.278 149.635 161.52 149.933 161.745C150.231 161.969 150.451 162.228 150.592 162.521C150.734 162.814 150.805 163.163 150.805 163.568Z"
    fill="white"/>
  <path
    d="M73.0322 65.8433L72.2559 63.2944H68.3521L67.5757 65.8433H65.1294L68.9087 55.0913H71.6846L75.4785 65.8433H73.0322ZM71.7139 61.3901C70.9961 59.0806 70.5908 57.7744 70.498 57.4717C70.4102 57.1689 70.3467 56.9297 70.3076 56.7539C70.1465 57.3789 69.6851 58.9243 68.9233 61.3901H71.7139ZM79.104 60.1743H79.8511C80.5493 60.1743 81.0718 60.0376 81.4185 59.7642C81.7651 59.4858 81.9385 59.083 81.9385 58.5557C81.9385 58.0234 81.792 57.6304 81.499 57.3765C81.2109 57.1226 80.7568 56.9956 80.1367 56.9956H79.104V60.1743ZM84.231 58.4751C84.231 59.6274 83.8696 60.5088 83.147 61.1191C82.4292 61.7295 81.4062 62.0347 80.0781 62.0347H79.104V65.8433H76.8335V55.1353H80.2539C81.5527 55.1353 82.5391 55.416 83.2129 55.9775C83.8916 56.5342 84.231 57.3667 84.231 58.4751ZM86.2524 65.8433V55.1353H88.5229V65.8433H86.2524Z"
    fill="white"/>
</svg>
