<svg width="185" height="165" viewBox="0 0 185 165" fill="none" xmlns="http://www.w3.org/2000/svg">
  <title>API Batching Icons</title>
  <path
    d="M91.4784 10.6163C89.7949 10.6163 88.1976 10.7033 86.5573 10.8774L80.2979 0L65.2323 4.96009L66.5273 17.4473C63.6782 19.1442 61.045 21.0586 58.5844 23.2776L47.188 18.187L37.8637 31.1093L46.1951 40.4639C44.9001 43.466 43.8641 46.5987 43.1734 49.9054L31 52.5595V68.5275L43.1734 71.1381C43.8641 74.4013 44.9001 77.5775 46.2383 80.5797L37.9069 89.9342L47.2312 102.857L58.6275 97.7659C61.0881 99.9849 63.7214 101.899 66.5705 103.596L65.3186 116.083L80.3842 121L86.6004 110.123C88.2408 110.297 89.8812 110.34 91.5216 110.34C93.2051 110.34 94.8024 110.253 96.4427 110.079L102.702 120.957L117.768 115.996L116.473 103.509C119.322 101.812 121.955 99.8544 124.416 97.6789L135.812 102.77L145.136 89.8472L136.805 80.4926C138.1 77.4905 139.136 74.3578 139.827 71.0511L152 68.397V52.429L139.783 49.8184C139.093 46.5552 138.057 43.379 136.762 40.3769L145.093 31.0223L135.769 18.1L124.372 23.1906C121.912 21.0151 119.279 19.0572 116.43 17.3603L117.681 4.87307L102.659 0L96.3996 10.8774C94.8024 10.7033 93.162 10.6163 91.4784 10.6163ZM135.38 60.4783C135.38 84.8871 115.782 104.684 91.5648 104.684C67.3475 104.684 47.706 84.9306 47.706 60.5218C47.706 36.1129 67.3043 16.3161 91.5216 16.3161C115.696 16.2726 135.337 36.0694 135.38 60.4783Z"
    fill="#FF3F92"/>
  <path
    d="M60.7642 142.292H64.0967C65.6152 142.292 66.7163 142.509 67.3999 142.944C68.0884 143.374 68.4326 144.06 68.4326 145.002C68.4326 145.642 68.2812 146.167 67.9785 146.577C67.6807 146.987 67.2827 147.233 66.7847 147.316V147.39C67.4634 147.541 67.9517 147.824 68.2495 148.239C68.5522 148.654 68.7036 149.206 68.7036 149.895C68.7036 150.871 68.3496 151.633 67.6416 152.18C66.9385 152.727 65.9814 153 64.7705 153H60.7642V142.292ZM63.0347 146.533H64.353C64.9683 146.533 65.4126 146.438 65.686 146.247C65.9644 146.057 66.1035 145.742 66.1035 145.302C66.1035 144.892 65.9521 144.599 65.6494 144.423C65.3516 144.243 64.8779 144.152 64.2285 144.152H63.0347V146.533ZM63.0347 148.334V151.125H64.5142C65.1392 151.125 65.6006 151.005 65.8984 150.766C66.1963 150.527 66.3452 150.161 66.3452 149.667C66.3452 148.779 65.7104 148.334 64.4409 148.334H63.0347ZM75.8667 153L75.4346 151.887H75.376C75 152.36 74.6118 152.69 74.2114 152.875C73.8159 153.056 73.2983 153.146 72.6587 153.146C71.8726 153.146 71.2524 152.922 70.7983 152.473C70.3491 152.023 70.1245 151.384 70.1245 150.554C70.1245 149.685 70.4272 149.045 71.0327 148.635C71.6431 148.22 72.561 147.99 73.7866 147.946L75.2075 147.902V147.543C75.2075 146.713 74.7827 146.298 73.9331 146.298C73.2788 146.298 72.5098 146.496 71.626 146.892L70.8862 145.383C71.8286 144.89 72.8735 144.643 74.021 144.643C75.1196 144.643 75.9619 144.882 76.5479 145.361C77.1338 145.839 77.4268 146.567 77.4268 147.543V153H75.8667ZM75.2075 149.206L74.3433 149.235C73.6938 149.255 73.2104 149.372 72.8931 149.587C72.5757 149.802 72.417 150.129 72.417 150.568C72.417 151.198 72.7783 151.513 73.501 151.513C74.0186 151.513 74.4312 151.364 74.7388 151.066C75.0513 150.769 75.2075 150.373 75.2075 149.88V149.206ZM83.1836 151.367C83.5742 151.367 84.043 151.281 84.5898 151.11V152.773C84.0332 153.022 83.3496 153.146 82.5391 153.146C81.6455 153.146 80.9937 152.922 80.5835 152.473C80.1782 152.019 79.9756 151.34 79.9756 150.437V146.489H78.9062V145.544L80.1367 144.797L80.7812 143.068H82.2095V144.812H84.502V146.489H82.2095V150.437C82.2095 150.754 82.2974 150.988 82.4731 151.14C82.6538 151.291 82.8906 151.367 83.1836 151.367ZM89.5776 153.146C87.0288 153.146 85.7544 151.748 85.7544 148.95C85.7544 147.558 86.1011 146.496 86.7944 145.764C87.4878 145.026 88.4814 144.658 89.7754 144.658C90.7227 144.658 91.5723 144.843 92.3242 145.214L91.665 146.943C91.3135 146.801 90.9863 146.687 90.6836 146.599C90.3809 146.506 90.0781 146.459 89.7754 146.459C88.6133 146.459 88.0322 147.285 88.0322 148.935C88.0322 150.537 88.6133 151.337 89.7754 151.337C90.2051 151.337 90.603 151.281 90.9692 151.169C91.3354 151.052 91.7017 150.871 92.0679 150.627V152.539C91.7065 152.768 91.3403 152.927 90.9692 153.015C90.603 153.103 90.1392 153.146 89.5776 153.146ZM101.531 153H99.2969V148.217C99.2969 147.036 98.8574 146.445 97.9785 146.445C97.3535 146.445 96.9019 146.657 96.6235 147.082C96.3452 147.507 96.2061 148.195 96.2061 149.147V153H93.9722V141.604H96.2061V143.925C96.2061 144.106 96.189 144.531 96.1548 145.2L96.1035 145.859H96.2207C96.7188 145.058 97.5098 144.658 98.5938 144.658C99.5557 144.658 100.286 144.917 100.784 145.434C101.282 145.952 101.531 146.694 101.531 147.661V153ZM103.735 142.695C103.735 141.967 104.141 141.604 104.951 141.604C105.762 141.604 106.167 141.967 106.167 142.695C106.167 143.042 106.064 143.312 105.859 143.508C105.659 143.698 105.356 143.793 104.951 143.793C104.141 143.793 103.735 143.427 103.735 142.695ZM106.064 153H103.831V144.812H106.064V153ZM115.974 153H113.74V148.217C113.74 147.626 113.635 147.185 113.425 146.892C113.215 146.594 112.881 146.445 112.422 146.445C111.797 146.445 111.345 146.655 111.067 147.075C110.789 147.49 110.649 148.181 110.649 149.147V153H108.416V144.812H110.122L110.422 145.859H110.547C110.796 145.463 111.138 145.166 111.572 144.965C112.012 144.76 112.51 144.658 113.066 144.658C114.019 144.658 114.741 144.917 115.234 145.434C115.728 145.947 115.974 146.689 115.974 147.661V153ZM125.4 144.812V145.947L124.119 146.276C124.353 146.643 124.47 147.053 124.47 147.507C124.47 148.386 124.163 149.072 123.547 149.565C122.937 150.053 122.087 150.297 120.999 150.297L120.596 150.275L120.266 150.239C120.037 150.415 119.922 150.61 119.922 150.825C119.922 151.147 120.332 151.308 121.152 151.308H122.544C123.442 151.308 124.126 151.501 124.595 151.887C125.068 152.272 125.305 152.839 125.305 153.586C125.305 154.543 124.905 155.285 124.104 155.812C123.308 156.34 122.163 156.604 120.669 156.604C119.526 156.604 118.652 156.403 118.047 156.003C117.446 155.607 117.146 155.051 117.146 154.333C117.146 153.84 117.3 153.427 117.607 153.095C117.915 152.763 118.367 152.526 118.962 152.385C118.733 152.287 118.533 152.128 118.362 151.909C118.191 151.684 118.105 151.447 118.105 151.198C118.105 150.886 118.196 150.627 118.376 150.422C118.557 150.212 118.818 150.007 119.16 149.807C118.73 149.621 118.389 149.323 118.135 148.913C117.886 148.503 117.761 148.02 117.761 147.463C117.761 146.569 118.052 145.878 118.633 145.39C119.214 144.902 120.044 144.658 121.123 144.658C121.353 144.658 121.624 144.68 121.936 144.724C122.253 144.763 122.456 144.792 122.544 144.812H125.4ZM119.08 154.157C119.08 154.465 119.226 154.707 119.519 154.882C119.817 155.058 120.232 155.146 120.764 155.146C121.565 155.146 122.192 155.036 122.646 154.816C123.101 154.597 123.328 154.296 123.328 153.916C123.328 153.608 123.193 153.396 122.925 153.278C122.656 153.161 122.241 153.103 121.68 153.103H120.522C120.112 153.103 119.768 153.198 119.49 153.388C119.216 153.583 119.08 153.84 119.08 154.157ZM119.893 147.492C119.893 147.937 119.993 148.288 120.193 148.547C120.398 148.806 120.708 148.935 121.123 148.935C121.543 148.935 121.851 148.806 122.046 148.547C122.241 148.288 122.339 147.937 122.339 147.492C122.339 146.506 121.934 146.013 121.123 146.013C120.303 146.013 119.893 146.506 119.893 147.492Z"
    fill="white"/>
  <path
    d="M87.0322 65.8433L86.2559 63.2944H82.3521L81.5757 65.8433H79.1294L82.9087 55.0913H85.6846L89.4785 65.8433H87.0322ZM85.7139 61.3901C84.9961 59.0806 84.5908 57.7744 84.498 57.4717C84.4102 57.1689 84.3467 56.9297 84.3076 56.7539C84.1465 57.3789 83.6851 58.9243 82.9233 61.3901H85.7139ZM93.104 60.1743H93.8511C94.5493 60.1743 95.0718 60.0376 95.4185 59.7642C95.7651 59.4858 95.9385 59.083 95.9385 58.5557C95.9385 58.0234 95.792 57.6304 95.499 57.3765C95.2109 57.1226 94.7568 56.9956 94.1367 56.9956H93.104V60.1743ZM98.231 58.4751C98.231 59.6274 97.8696 60.5088 97.147 61.1191C96.4292 61.7295 95.4062 62.0347 94.0781 62.0347H93.104V65.8433H90.8335V55.1353H94.2539C95.5527 55.1353 96.5391 55.416 97.2129 55.9775C97.8916 56.5342 98.231 57.3667 98.231 58.4751ZM100.252 65.8433V55.1353H102.523V65.8433H100.252Z"
    fill="white"/>
</svg>
