<svg width="162" height="171" viewBox="0 0 162 171" fill="none" xmlns="http://www.w3.org/2000/svg">
  <title>API Tracking Operation State On Blockchain Icon</title>
  <path
    d="M83.4784 10.6163C81.7949 10.6163 80.1976 10.7033 78.5573 10.8774L72.2979 0L57.2323 4.96009L58.5273 17.4473C55.6782 19.1442 53.045 21.0586 50.5844 23.2776L39.188 18.187L29.8637 31.1093L38.1951 40.4639C36.9001 43.466 35.8641 46.5987 35.1734 49.9054L23 52.5595V68.5275L35.1734 71.1381C35.8641 74.4013 36.9001 77.5775 38.2383 80.5797L29.9069 89.9342L39.2312 102.857L50.6275 97.7659C53.0881 99.9849 55.7214 101.899 58.5705 103.596L57.3186 116.083L72.3842 121L78.6004 110.123C80.2408 110.297 81.8812 110.34 83.5216 110.34C85.2051 110.34 86.8024 110.253 88.4427 110.079L94.7021 120.957L109.768 115.996L108.473 103.509C111.322 101.812 113.955 99.8544 116.416 97.6789L127.812 102.77L137.136 89.8472L128.805 80.4926C130.1 77.4905 131.136 74.3578 131.827 71.0511L144 68.397V52.429L131.783 49.8184C131.093 46.5552 130.057 43.379 128.762 40.3769L137.093 31.0223L127.769 18.1L116.372 23.1906C113.912 21.0151 111.279 19.0572 108.43 17.3603L109.681 4.87307L94.6589 0L88.3996 10.8774C86.8024 10.7033 85.162 10.6163 83.4784 10.6163ZM127.38 60.4783C127.38 84.8871 107.782 104.684 83.5648 104.684C59.3475 104.684 39.706 84.9306 39.706 60.5218C39.706 36.1129 59.3043 16.3161 83.5216 16.3161C107.696 16.2726 127.337 36.0694 127.38 60.4783Z"
    fill="#00ACFF"/>
  <path
    d="M15.3896 150H13.1191V141.182H10.2114V139.292H18.2974V141.182H15.3896V150ZM24.3398 141.658C24.6426 141.658 24.894 141.68 25.0942 141.724L24.9258 143.818C24.7451 143.77 24.5254 143.745 24.2666 143.745C23.5537 143.745 22.9971 143.928 22.5967 144.294C22.2012 144.661 22.0034 145.173 22.0034 145.833V150H19.7695V141.812H21.4614L21.791 143.188H21.9009C22.1548 142.729 22.4966 142.361 22.9263 142.083C23.3608 141.799 23.832 141.658 24.3398 141.658ZM31.7812 150L31.3491 148.887H31.2905C30.9146 149.36 30.5264 149.69 30.126 149.875C29.7305 150.056 29.2129 150.146 28.5732 150.146C27.7871 150.146 27.167 149.922 26.7129 149.473C26.2637 149.023 26.0391 148.384 26.0391 147.554C26.0391 146.685 26.3418 146.045 26.9473 145.635C27.5576 145.22 28.4756 144.99 29.7012 144.946L31.1221 144.902V144.543C31.1221 143.713 30.6973 143.298 29.8477 143.298C29.1934 143.298 28.4243 143.496 27.5405 143.892L26.8008 142.383C27.7432 141.89 28.7881 141.643 29.9355 141.643C31.0342 141.643 31.8765 141.882 32.4624 142.361C33.0483 142.839 33.3413 143.567 33.3413 144.543V150H31.7812ZM31.1221 146.206L30.2578 146.235C29.6084 146.255 29.125 146.372 28.8076 146.587C28.4902 146.802 28.3315 147.129 28.3315 147.568C28.3315 148.198 28.6929 148.513 29.4155 148.513C29.9331 148.513 30.3457 148.364 30.6533 148.066C30.9658 147.769 31.1221 147.373 31.1221 146.88V146.206ZM38.9736 150.146C36.4248 150.146 35.1504 148.748 35.1504 145.95C35.1504 144.558 35.4971 143.496 36.1904 142.764C36.8838 142.026 37.8774 141.658 39.1714 141.658C40.1187 141.658 40.9683 141.843 41.7202 142.214L41.061 143.943C40.7095 143.801 40.3823 143.687 40.0796 143.599C39.7769 143.506 39.4741 143.459 39.1714 143.459C38.0093 143.459 37.4282 144.285 37.4282 145.935C37.4282 147.537 38.0093 148.337 39.1714 148.337C39.6011 148.337 39.999 148.281 40.3652 148.169C40.7314 148.052 41.0977 147.871 41.4639 147.627V149.539C41.1025 149.768 40.7363 149.927 40.3652 150.015C39.999 150.103 39.5352 150.146 38.9736 150.146ZM45.5142 145.547L46.4883 144.302L48.7808 141.812H51.3003L48.0483 145.364L51.498 150H48.9199L46.5615 146.682L45.6021 147.451V150H43.3682V138.604H45.6021V143.687L45.4849 145.547H45.5142ZM52.5747 139.695C52.5747 138.967 52.98 138.604 53.7905 138.604C54.6011 138.604 55.0063 138.967 55.0063 139.695C55.0063 140.042 54.9038 140.312 54.6987 140.508C54.4985 140.698 54.1958 140.793 53.7905 140.793C52.98 140.793 52.5747 140.427 52.5747 139.695ZM54.9038 150H52.6699V141.812H54.9038V150ZM64.8135 150H62.5796V145.217C62.5796 144.626 62.4746 144.185 62.2646 143.892C62.0547 143.594 61.7202 143.445 61.2612 143.445C60.6362 143.445 60.1846 143.655 59.9062 144.075C59.6279 144.49 59.4888 145.181 59.4888 146.147V150H57.2549V141.812H58.9614L59.2617 142.859H59.3862C59.6353 142.463 59.9771 142.166 60.4116 141.965C60.8511 141.76 61.3491 141.658 61.9058 141.658C62.8579 141.658 63.5806 141.917 64.0737 142.434C64.5669 142.947 64.8135 143.689 64.8135 144.661V150ZM74.2397 141.812V142.947L72.958 143.276C73.1924 143.643 73.3096 144.053 73.3096 144.507C73.3096 145.386 73.002 146.072 72.3867 146.565C71.7764 147.053 70.9268 147.297 69.8379 147.297L69.4351 147.275L69.1055 147.239C68.876 147.415 68.7612 147.61 68.7612 147.825C68.7612 148.147 69.1714 148.308 69.9917 148.308H71.3833C72.2817 148.308 72.9653 148.501 73.4341 148.887C73.9077 149.272 74.1445 149.839 74.1445 150.586C74.1445 151.543 73.7441 152.285 72.9434 152.812C72.1475 153.34 71.0024 153.604 69.5083 153.604C68.3657 153.604 67.4917 153.403 66.8862 153.003C66.2856 152.607 65.9854 152.051 65.9854 151.333C65.9854 150.84 66.1392 150.427 66.4468 150.095C66.7544 149.763 67.2061 149.526 67.8018 149.385C67.5723 149.287 67.3721 149.128 67.2012 148.909C67.0303 148.684 66.9448 148.447 66.9448 148.198C66.9448 147.886 67.0352 147.627 67.2158 147.422C67.3965 147.212 67.6577 147.007 67.9995 146.807C67.5698 146.621 67.228 146.323 66.9741 145.913C66.7251 145.503 66.6006 145.02 66.6006 144.463C66.6006 143.569 66.8911 142.878 67.4722 142.39C68.0532 141.902 68.8833 141.658 69.9624 141.658C70.1919 141.658 70.4629 141.68 70.7754 141.724C71.0928 141.763 71.2954 141.792 71.3833 141.812H74.2397ZM67.9189 151.157C67.9189 151.465 68.0654 151.707 68.3584 151.882C68.6562 152.058 69.0713 152.146 69.6035 152.146C70.4043 152.146 71.0317 152.036 71.4858 151.816C71.9399 151.597 72.167 151.296 72.167 150.916C72.167 150.608 72.0327 150.396 71.7642 150.278C71.4956 150.161 71.0806 150.103 70.519 150.103H69.3618C68.9517 150.103 68.6074 150.198 68.3291 150.388C68.0557 150.583 67.9189 150.84 67.9189 151.157ZM68.7319 144.492C68.7319 144.937 68.832 145.288 69.0322 145.547C69.2373 145.806 69.5474 145.935 69.9624 145.935C70.3823 145.935 70.6899 145.806 70.8853 145.547C71.0806 145.288 71.1782 144.937 71.1782 144.492C71.1782 143.506 70.7729 143.013 69.9624 143.013C69.1421 143.013 68.7319 143.506 68.7319 144.492ZM81.271 145.891C81.271 146.702 81.4028 147.314 81.6665 147.729C81.9351 148.145 82.3696 148.352 82.9702 148.352C83.5659 148.352 83.9932 148.147 84.252 147.737C84.5156 147.322 84.6475 146.707 84.6475 145.891C84.6475 145.081 84.5156 144.473 84.252 144.067C83.9883 143.662 83.5562 143.459 82.9556 143.459C82.3599 143.459 81.9302 143.662 81.6665 144.067C81.4028 144.468 81.271 145.076 81.271 145.891ZM86.9326 145.891C86.9326 147.224 86.5811 148.267 85.8779 149.019C85.1748 149.771 84.1958 150.146 82.9409 150.146C82.1548 150.146 81.4614 149.976 80.8608 149.634C80.2603 149.287 79.7988 148.792 79.4766 148.147C79.1543 147.502 78.9932 146.75 78.9932 145.891C78.9932 144.553 79.3423 143.513 80.0405 142.771C80.7388 142.029 81.7202 141.658 82.9849 141.658C83.771 141.658 84.4644 141.829 85.0649 142.17C85.6655 142.512 86.127 143.003 86.4492 143.643C86.7715 144.282 86.9326 145.032 86.9326 145.891ZM93.2754 150.146C92.3135 150.146 91.5591 149.797 91.0122 149.099H90.895C90.9731 149.783 91.0122 150.178 91.0122 150.286V153.604H88.7783V141.812H90.5947L90.9097 142.874H91.0122C91.5347 142.063 92.3086 141.658 93.334 141.658C94.3008 141.658 95.0576 142.031 95.6045 142.778C96.1514 143.525 96.4248 144.563 96.4248 145.891C96.4248 146.765 96.2954 147.524 96.0366 148.169C95.7827 148.813 95.4189 149.304 94.9453 149.641C94.4717 149.978 93.915 150.146 93.2754 150.146ZM92.6162 143.445C92.0645 143.445 91.6616 143.616 91.4077 143.958C91.1538 144.294 91.022 144.854 91.0122 145.635V145.876C91.0122 146.755 91.1416 147.385 91.4004 147.766C91.6641 148.147 92.0791 148.337 92.6455 148.337C93.6465 148.337 94.147 147.512 94.147 145.862C94.147 145.056 94.0225 144.453 93.7734 144.053C93.5293 143.647 93.1436 143.445 92.6162 143.445ZM101.662 143.247C101.188 143.247 100.817 143.398 100.548 143.701C100.28 143.999 100.126 144.424 100.087 144.976H103.222C103.212 144.424 103.068 143.999 102.79 143.701C102.511 143.398 102.135 143.247 101.662 143.247ZM101.977 150.146C100.658 150.146 99.6279 149.783 98.8857 149.055C98.1436 148.328 97.7725 147.297 97.7725 145.964C97.7725 144.592 98.1143 143.533 98.7979 142.786C99.4863 142.034 100.436 141.658 101.647 141.658C102.804 141.658 103.705 141.987 104.35 142.646C104.994 143.306 105.316 144.216 105.316 145.378V146.462H100.036C100.06 147.097 100.248 147.593 100.6 147.949C100.951 148.306 101.444 148.484 102.079 148.484C102.572 148.484 103.039 148.433 103.478 148.33C103.917 148.228 104.376 148.064 104.855 147.839V149.568C104.464 149.763 104.047 149.907 103.603 150C103.158 150.098 102.616 150.146 101.977 150.146ZM111.703 141.658C112.006 141.658 112.257 141.68 112.458 141.724L112.289 143.818C112.108 143.77 111.889 143.745 111.63 143.745C110.917 143.745 110.36 143.928 109.96 144.294C109.564 144.661 109.367 145.173 109.367 145.833V150H107.133V141.812H108.825L109.154 143.188H109.264C109.518 142.729 109.86 142.361 110.29 142.083C110.724 141.799 111.195 141.658 111.703 141.658ZM119.145 150L118.712 148.887H118.654C118.278 149.36 117.89 149.69 117.489 149.875C117.094 150.056 116.576 150.146 115.937 150.146C115.15 150.146 114.53 149.922 114.076 149.473C113.627 149.023 113.402 148.384 113.402 147.554C113.402 146.685 113.705 146.045 114.311 145.635C114.921 145.22 115.839 144.99 117.064 144.946L118.485 144.902V144.543C118.485 143.713 118.061 143.298 117.211 143.298C116.557 143.298 115.788 143.496 114.904 143.892L114.164 142.383C115.106 141.89 116.151 141.643 117.299 141.643C118.397 141.643 119.24 141.882 119.826 142.361C120.412 142.839 120.705 143.567 120.705 144.543V150H119.145ZM118.485 146.206L117.621 146.235C116.972 146.255 116.488 146.372 116.171 146.587C115.854 146.802 115.695 147.129 115.695 147.568C115.695 148.198 116.056 148.513 116.779 148.513C117.296 148.513 117.709 148.364 118.017 148.066C118.329 147.769 118.485 147.373 118.485 146.88V146.206ZM126.461 148.367C126.852 148.367 127.321 148.281 127.868 148.11V149.773C127.311 150.022 126.627 150.146 125.817 150.146C124.923 150.146 124.271 149.922 123.861 149.473C123.456 149.019 123.253 148.34 123.253 147.437V143.489H122.184V142.544L123.415 141.797L124.059 140.068H125.487V141.812H127.78V143.489H125.487V147.437C125.487 147.754 125.575 147.988 125.751 148.14C125.932 148.291 126.168 148.367 126.461 148.367ZM129.435 139.695C129.435 138.967 129.84 138.604 130.651 138.604C131.461 138.604 131.867 138.967 131.867 139.695C131.867 140.042 131.764 140.312 131.559 140.508C131.359 140.698 131.056 140.793 130.651 140.793C129.84 140.793 129.435 140.427 129.435 139.695ZM131.764 150H129.53V141.812H131.764V150ZM135.895 145.891C135.895 146.702 136.027 147.314 136.291 147.729C136.559 148.145 136.994 148.352 137.594 148.352C138.19 148.352 138.617 148.147 138.876 147.737C139.14 147.322 139.271 146.707 139.271 145.891C139.271 145.081 139.14 144.473 138.876 144.067C138.612 143.662 138.18 143.459 137.58 143.459C136.984 143.459 136.554 143.662 136.291 144.067C136.027 144.468 135.895 145.076 135.895 145.891ZM141.557 145.891C141.557 147.224 141.205 148.267 140.502 149.019C139.799 149.771 138.82 150.146 137.565 150.146C136.779 150.146 136.085 149.976 135.485 149.634C134.884 149.287 134.423 148.792 134.101 148.147C133.778 147.502 133.617 146.75 133.617 145.891C133.617 144.553 133.966 143.513 134.665 142.771C135.363 142.029 136.344 141.658 137.609 141.658C138.395 141.658 139.088 141.829 139.689 142.17C140.29 142.512 140.751 143.003 141.073 143.643C141.396 144.282 141.557 145.032 141.557 145.891ZM150.961 150H148.727V145.217C148.727 144.626 148.622 144.185 148.412 143.892C148.202 143.594 147.868 143.445 147.409 143.445C146.784 143.445 146.332 143.655 146.054 144.075C145.775 144.49 145.636 145.181 145.636 146.147V150H143.402V141.812H145.109L145.409 142.859H145.534C145.783 142.463 146.125 142.166 146.559 141.965C146.999 141.76 147.497 141.658 148.053 141.658C149.005 141.658 149.728 141.917 150.221 142.434C150.714 142.947 150.961 143.689 150.961 144.661V150ZM14.4668 167.568C14.4668 168.408 14.1738 169.048 13.5879 169.487C13.0068 169.927 12.1353 170.146 10.9731 170.146C10.3774 170.146 9.86963 170.105 9.44971 170.022C9.02979 169.944 8.63672 169.827 8.27051 169.67V167.825C8.68555 168.02 9.15186 168.184 9.66943 168.315C10.1919 168.447 10.6509 168.513 11.0464 168.513C11.8569 168.513 12.2622 168.279 12.2622 167.81C12.2622 167.634 12.2085 167.493 12.1011 167.385C11.9937 167.273 11.8081 167.148 11.5444 167.012C11.2808 166.87 10.9292 166.707 10.4897 166.521C9.85986 166.257 9.396 166.013 9.09814 165.789C8.80518 165.564 8.59033 165.308 8.45361 165.02C8.32178 164.727 8.25586 164.368 8.25586 163.943C8.25586 163.215 8.53662 162.654 9.09814 162.258C9.66455 161.858 10.4653 161.658 11.5005 161.658C12.4868 161.658 13.4463 161.873 14.3789 162.302L13.7051 163.914C13.2949 163.738 12.9116 163.594 12.5552 163.481C12.1987 163.369 11.835 163.313 11.4639 163.313C10.8047 163.313 10.4751 163.491 10.4751 163.848C10.4751 164.048 10.5801 164.221 10.79 164.368C11.0049 164.514 11.4712 164.731 12.189 165.02C12.8286 165.278 13.2974 165.52 13.5952 165.745C13.8931 165.969 14.1128 166.228 14.2544 166.521C14.396 166.814 14.4668 167.163 14.4668 167.568ZM19.6597 168.367C20.0503 168.367 20.519 168.281 21.0659 168.11V169.773C20.5093 170.022 19.8257 170.146 19.0151 170.146C18.1216 170.146 17.4697 169.922 17.0596 169.473C16.6543 169.019 16.4517 168.34 16.4517 167.437V163.489H15.3823V162.544L16.6128 161.797L17.2573 160.068H18.6855V161.812H20.978V163.489H18.6855V167.437C18.6855 167.754 18.7734 167.988 18.9492 168.14C19.1299 168.291 19.3667 168.367 19.6597 168.367ZM27.9287 170L27.4966 168.887H27.438C27.062 169.36 26.6738 169.69 26.2734 169.875C25.8779 170.056 25.3604 170.146 24.7207 170.146C23.9346 170.146 23.3145 169.922 22.8604 169.473C22.4111 169.023 22.1865 168.384 22.1865 167.554C22.1865 166.685 22.4893 166.045 23.0947 165.635C23.7051 165.22 24.623 164.99 25.8486 164.946L27.2695 164.902V164.543C27.2695 163.713 26.8447 163.298 25.9951 163.298C25.3408 163.298 24.5718 163.496 23.688 163.892L22.9482 162.383C23.8906 161.89 24.9355 161.643 26.083 161.643C27.1816 161.643 28.0239 161.882 28.6099 162.361C29.1958 162.839 29.4888 163.567 29.4888 164.543V170H27.9287ZM27.2695 166.206L26.4053 166.235C25.7559 166.255 25.2725 166.372 24.9551 166.587C24.6377 166.802 24.479 167.129 24.479 167.568C24.479 168.198 24.8403 168.513 25.563 168.513C26.0806 168.513 26.4932 168.364 26.8008 168.066C27.1133 167.769 27.2695 167.373 27.2695 166.88V166.206ZM35.2456 168.367C35.6362 168.367 36.105 168.281 36.6519 168.11V169.773C36.0952 170.022 35.4116 170.146 34.6011 170.146C33.7075 170.146 33.0557 169.922 32.6455 169.473C32.2402 169.019 32.0376 168.34 32.0376 167.437V163.489H30.9683V162.544L32.1987 161.797L32.8433 160.068H34.2715V161.812H36.564V163.489H34.2715V167.437C34.2715 167.754 34.3594 167.988 34.5352 168.14C34.7158 168.291 34.9526 168.367 35.2456 168.367ZM41.7056 163.247C41.2319 163.247 40.8608 163.398 40.5923 163.701C40.3237 163.999 40.1699 164.424 40.1309 164.976H43.2656C43.2559 164.424 43.1118 163.999 42.8335 163.701C42.5552 163.398 42.1792 163.247 41.7056 163.247ZM42.0205 170.146C40.7021 170.146 39.6719 169.783 38.9297 169.055C38.1875 168.328 37.8164 167.297 37.8164 165.964C37.8164 164.592 38.1582 163.533 38.8418 162.786C39.5303 162.034 40.48 161.658 41.6909 161.658C42.8481 161.658 43.749 161.987 44.3936 162.646C45.0381 163.306 45.3604 164.216 45.3604 165.378V166.462H40.0796C40.104 167.097 40.292 167.593 40.6436 167.949C40.9951 168.306 41.4883 168.484 42.123 168.484C42.6162 168.484 43.0825 168.433 43.522 168.33C43.9614 168.228 44.4204 168.064 44.8989 167.839V169.568C44.5083 169.763 44.0908 169.907 43.6465 170C43.2021 170.098 42.6602 170.146 42.0205 170.146ZM52.853 165.891C52.853 166.702 52.9849 167.314 53.2485 167.729C53.5171 168.145 53.9517 168.352 54.5522 168.352C55.1479 168.352 55.5752 168.147 55.834 167.737C56.0977 167.322 56.2295 166.707 56.2295 165.891C56.2295 165.081 56.0977 164.473 55.834 164.067C55.5703 163.662 55.1382 163.459 54.5376 163.459C53.9419 163.459 53.5122 163.662 53.2485 164.067C52.9849 164.468 52.853 165.076 52.853 165.891ZM58.5146 165.891C58.5146 167.224 58.1631 168.267 57.46 169.019C56.7568 169.771 55.7778 170.146 54.5229 170.146C53.7368 170.146 53.0435 169.976 52.4429 169.634C51.8423 169.287 51.3809 168.792 51.0586 168.147C50.7363 167.502 50.5752 166.75 50.5752 165.891C50.5752 164.553 50.9243 163.513 51.6226 162.771C52.3208 162.029 53.3022 161.658 54.5669 161.658C55.353 161.658 56.0464 161.829 56.647 162.17C57.2476 162.512 57.709 163.003 58.0312 163.643C58.3535 164.282 58.5146 165.032 58.5146 165.891ZM67.9189 170H65.6851V165.217C65.6851 164.626 65.5801 164.185 65.3701 163.892C65.1602 163.594 64.8257 163.445 64.3667 163.445C63.7417 163.445 63.29 163.655 63.0117 164.075C62.7334 164.49 62.5942 165.181 62.5942 166.147V170H60.3604V161.812H62.0669L62.3672 162.859H62.4917C62.7407 162.463 63.0825 162.166 63.5171 161.965C63.9565 161.76 64.4546 161.658 65.0112 161.658C65.9634 161.658 66.686 161.917 67.1792 162.434C67.6724 162.947 67.9189 163.689 67.9189 164.661V170ZM78.6709 161.658C79.6377 161.658 80.3945 162.036 80.9414 162.793C81.4883 163.545 81.7617 164.578 81.7617 165.891C81.7617 167.244 81.4785 168.291 80.9121 169.033C80.3506 169.775 79.584 170.146 78.6123 170.146C77.6504 170.146 76.896 169.797 76.3491 169.099H76.1953L75.8218 170H74.1152V158.604H76.3491V161.255C76.3491 161.592 76.3198 162.131 76.2612 162.874H76.3491C76.8716 162.063 77.6455 161.658 78.6709 161.658ZM77.9531 163.445C77.4014 163.445 76.9985 163.616 76.7446 163.958C76.4907 164.294 76.3589 164.854 76.3491 165.635V165.876C76.3491 166.755 76.4785 167.385 76.7373 167.766C77.001 168.147 77.416 168.337 77.9824 168.337C78.4414 168.337 78.8052 168.127 79.0737 167.708C79.3472 167.283 79.4839 166.667 79.4839 165.862C79.4839 165.056 79.3472 164.453 79.0737 164.053C78.8003 163.647 78.4268 163.445 77.9531 163.445ZM85.8413 170H83.6074V158.604H85.8413V170ZM89.9722 165.891C89.9722 166.702 90.104 167.314 90.3677 167.729C90.6362 168.145 91.0708 168.352 91.6714 168.352C92.2671 168.352 92.6943 168.147 92.9531 167.737C93.2168 167.322 93.3486 166.707 93.3486 165.891C93.3486 165.081 93.2168 164.473 92.9531 164.067C92.6895 163.662 92.2573 163.459 91.6567 163.459C91.061 163.459 90.6313 163.662 90.3677 164.067C90.104 164.468 89.9722 165.076 89.9722 165.891ZM95.6338 165.891C95.6338 167.224 95.2822 168.267 94.5791 169.019C93.876 169.771 92.897 170.146 91.6421 170.146C90.856 170.146 90.1626 169.976 89.562 169.634C88.9614 169.287 88.5 168.792 88.1777 168.147C87.8555 167.502 87.6943 166.75 87.6943 165.891C87.6943 164.553 88.0435 163.513 88.7417 162.771C89.4399 162.029 90.4214 161.658 91.686 161.658C92.4722 161.658 93.1655 161.829 93.7661 162.17C94.3667 162.512 94.8281 163.003 95.1504 163.643C95.4727 164.282 95.6338 165.032 95.6338 165.891ZM100.805 170.146C98.2559 170.146 96.9814 168.748 96.9814 165.95C96.9814 164.558 97.3281 163.496 98.0215 162.764C98.7148 162.026 99.7085 161.658 101.002 161.658C101.95 161.658 102.799 161.843 103.551 162.214L102.892 163.943C102.541 163.801 102.213 163.687 101.911 163.599C101.608 163.506 101.305 163.459 101.002 163.459C99.8403 163.459 99.2593 164.285 99.2593 165.935C99.2593 167.537 99.8403 168.337 101.002 168.337C101.432 168.337 101.83 168.281 102.196 168.169C102.562 168.052 102.929 167.871 103.295 167.627V169.539C102.934 169.768 102.567 169.927 102.196 170.015C101.83 170.103 101.366 170.146 100.805 170.146ZM107.345 165.547L108.319 164.302L110.612 161.812H113.131L109.879 165.364L113.329 170H110.751L108.393 166.682L107.433 167.451V170H105.199V158.604H107.433V163.687L107.316 165.547H107.345ZM117.826 170.146C115.277 170.146 114.003 168.748 114.003 165.95C114.003 164.558 114.35 163.496 115.043 162.764C115.736 162.026 116.73 161.658 118.024 161.658C118.971 161.658 119.821 161.843 120.573 162.214L119.914 163.943C119.562 163.801 119.235 163.687 118.932 163.599C118.629 163.506 118.327 163.459 118.024 163.459C116.862 163.459 116.281 164.285 116.281 165.935C116.281 167.537 116.862 168.337 118.024 168.337C118.454 168.337 118.852 168.281 119.218 168.169C119.584 168.052 119.95 167.871 120.316 167.627V169.539C119.955 169.768 119.589 169.927 119.218 170.015C118.852 170.103 118.388 170.146 117.826 170.146ZM129.779 170H127.545V165.217C127.545 164.036 127.106 163.445 126.227 163.445C125.602 163.445 125.15 163.657 124.872 164.082C124.594 164.507 124.455 165.195 124.455 166.147V170H122.221V158.604H124.455V160.925C124.455 161.106 124.438 161.531 124.403 162.2L124.352 162.859H124.469C124.967 162.058 125.758 161.658 126.842 161.658C127.804 161.658 128.534 161.917 129.032 162.434C129.53 162.952 129.779 163.694 129.779 164.661V170ZM137.279 170L136.847 168.887H136.789C136.413 169.36 136.024 169.69 135.624 169.875C135.229 170.056 134.711 170.146 134.071 170.146C133.285 170.146 132.665 169.922 132.211 169.473C131.762 169.023 131.537 168.384 131.537 167.554C131.537 166.685 131.84 166.045 132.445 165.635C133.056 165.22 133.974 164.99 135.199 164.946L136.62 164.902V164.543C136.62 163.713 136.195 163.298 135.346 163.298C134.691 163.298 133.922 163.496 133.039 163.892L132.299 162.383C133.241 161.89 134.286 161.643 135.434 161.643C136.532 161.643 137.375 161.882 137.96 162.361C138.546 162.839 138.839 163.567 138.839 164.543V170H137.279ZM136.62 166.206L135.756 166.235C135.106 166.255 134.623 166.372 134.306 166.587C133.988 166.802 133.83 167.129 133.83 167.568C133.83 168.198 134.191 168.513 134.914 168.513C135.431 168.513 135.844 168.364 136.151 168.066C136.464 167.769 136.62 167.373 136.62 166.88V166.206ZM141.051 159.695C141.051 158.967 141.457 158.604 142.267 158.604C143.078 158.604 143.483 158.967 143.483 159.695C143.483 160.042 143.38 160.312 143.175 160.508C142.975 160.698 142.672 160.793 142.267 160.793C141.457 160.793 141.051 160.427 141.051 159.695ZM143.38 170H141.146V161.812H143.38V170ZM153.29 170H151.056V165.217C151.056 164.626 150.951 164.185 150.741 163.892C150.531 163.594 150.197 163.445 149.738 163.445C149.113 163.445 148.661 163.655 148.383 164.075C148.104 164.49 147.965 165.181 147.965 166.147V170H145.731V161.812H147.438L147.738 162.859H147.863C148.112 162.463 148.454 162.166 148.888 161.965C149.328 161.76 149.826 161.658 150.382 161.658C151.334 161.658 152.057 161.917 152.55 162.434C153.043 162.947 153.29 163.689 153.29 164.661V170Z"
    fill="white"/>
  <path
    d="M79.0322 65.8433L78.2559 63.2944H74.3521L73.5757 65.8433H71.1294L74.9087 55.0913H77.6846L81.4785 65.8433H79.0322ZM77.7139 61.3901C76.9961 59.0806 76.5908 57.7744 76.498 57.4717C76.4102 57.1689 76.3467 56.9297 76.3076 56.7539C76.1465 57.3789 75.6851 58.9243 74.9233 61.3901H77.7139ZM85.104 60.1743H85.8511C86.5493 60.1743 87.0718 60.0376 87.4185 59.7642C87.7651 59.4858 87.9385 59.083 87.9385 58.5557C87.9385 58.0234 87.792 57.6304 87.499 57.3765C87.2109 57.1226 86.7568 56.9956 86.1367 56.9956H85.104V60.1743ZM90.231 58.4751C90.231 59.6274 89.8696 60.5088 89.147 61.1191C88.4292 61.7295 87.4062 62.0347 86.0781 62.0347H85.104V65.8433H82.8335V55.1353H86.2539C87.5527 55.1353 88.5391 55.416 89.2129 55.9775C89.8916 56.5342 90.231 57.3667 90.231 58.4751ZM92.2524 65.8433V55.1353H94.5229V65.8433H92.2524Z"
    fill="white"/>
</svg>
