<svg width="185" height="166" viewBox="0 0 185 166" fill="none" xmlns="http://www.w3.org/2000/svg">
  <title>API Gas optimization Icon</title>
  <path
    d="M91.4784 10.6163C89.7949 10.6163 88.1976 10.7033 86.5573 10.8774L80.2979 0L65.2323 4.96009L66.5273 17.4473C63.6782 19.1442 61.045 21.0586 58.5844 23.2776L47.188 18.187L37.8637 31.1093L46.1951 40.4639C44.9001 43.466 43.8641 46.5987 43.1734 49.9054L31 52.5595V68.5275L43.1734 71.1381C43.8641 74.4013 44.9001 77.5775 46.2383 80.5797L37.9069 89.9342L47.2312 102.857L58.6275 97.7659C61.0881 99.9849 63.7214 101.899 66.5705 103.596L65.3186 116.083L80.3842 121L86.6004 110.123C88.2408 110.297 89.8812 110.34 91.5216 110.34C93.2051 110.34 94.8024 110.253 96.4427 110.079L102.702 120.957L117.768 115.996L116.473 103.509C119.322 101.812 121.955 99.8544 124.416 97.6789L135.812 102.77L145.136 89.8472L136.805 80.4926C138.1 77.4905 139.136 74.3578 139.827 71.0511L152 68.397V52.429L139.783 49.8184C139.093 46.5552 138.057 43.379 136.762 40.3769L145.093 31.0223L135.769 18.1L124.372 23.1906C121.912 21.0151 119.279 19.0572 116.43 17.3603L117.681 4.87307L102.659 0L96.3996 10.8774C94.8024 10.7033 93.162 10.6163 91.4784 10.6163ZM135.38 60.4783C135.38 84.8871 115.782 104.684 91.5648 104.684C67.3475 104.684 47.706 84.9306 47.706 60.5218C47.706 36.1129 67.3043 16.3161 91.5216 16.3161C115.696 16.2726 135.337 36.0694 135.38 60.4783Z"
    fill="#FF3F92"/>
  <path
    d="M34.3457 137.987H38.5938V143.539C37.9053 143.763 37.2559 143.919 36.6455 144.007C36.04 144.1 35.4199 144.146 34.7852 144.146C33.1689 144.146 31.9336 143.673 31.0791 142.726C30.2295 141.773 29.8047 140.409 29.8047 138.631C29.8047 136.903 30.2979 135.555 31.2842 134.588C32.2754 133.622 33.6475 133.138 35.4004 133.138C36.499 133.138 37.5586 133.358 38.5791 133.797L37.8247 135.614C37.0435 135.223 36.2305 135.028 35.3857 135.028C34.4043 135.028 33.6182 135.357 33.0273 136.017C32.4365 136.676 32.1411 137.562 32.1411 138.675C32.1411 139.837 32.3779 140.726 32.8516 141.341C33.3301 141.952 34.0234 142.257 34.9316 142.257C35.4053 142.257 35.8862 142.208 36.3745 142.11V139.876H34.3457V137.987ZM46.1743 144L45.7422 142.887H45.6836C45.3076 143.36 44.9194 143.69 44.519 143.875C44.1235 144.056 43.606 144.146 42.9663 144.146C42.1802 144.146 41.5601 143.922 41.106 143.473C40.6567 143.023 40.4321 142.384 40.4321 141.554C40.4321 140.685 40.7349 140.045 41.3403 139.635C41.9507 139.22 42.8687 138.99 44.0942 138.946L45.5151 138.902V138.543C45.5151 137.713 45.0903 137.298 44.2407 137.298C43.5864 137.298 42.8174 137.496 41.9336 137.892L41.1938 136.383C42.1362 135.89 43.1812 135.643 44.3286 135.643C45.4272 135.643 46.2695 135.882 46.8555 136.361C47.4414 136.839 47.7344 137.567 47.7344 138.543V144H46.1743ZM45.5151 140.206L44.6509 140.235C44.0015 140.255 43.5181 140.372 43.2007 140.587C42.8833 140.802 42.7246 141.129 42.7246 141.568C42.7246 142.198 43.0859 142.513 43.8086 142.513C44.3262 142.513 44.7388 142.364 45.0464 142.066C45.3589 141.769 45.5151 141.373 45.5151 140.88V140.206ZM55.7544 141.568C55.7544 142.408 55.4614 143.048 54.8755 143.487C54.2944 143.927 53.4229 144.146 52.2607 144.146C51.665 144.146 51.1572 144.105 50.7373 144.022C50.3174 143.944 49.9243 143.827 49.5581 143.67V141.825C49.9731 142.02 50.4395 142.184 50.957 142.315C51.4795 142.447 51.9385 142.513 52.334 142.513C53.1445 142.513 53.5498 142.279 53.5498 141.81C53.5498 141.634 53.4961 141.493 53.3887 141.385C53.2812 141.273 53.0957 141.148 52.832 141.012C52.5684 140.87 52.2168 140.707 51.7773 140.521C51.1475 140.257 50.6836 140.013 50.3857 139.789C50.0928 139.564 49.8779 139.308 49.7412 139.02C49.6094 138.727 49.5435 138.368 49.5435 137.943C49.5435 137.215 49.8242 136.654 50.3857 136.258C50.9521 135.858 51.7529 135.658 52.7881 135.658C53.7744 135.658 54.7339 135.873 55.6665 136.302L54.9927 137.914C54.5825 137.738 54.1992 137.594 53.8428 137.481C53.4863 137.369 53.1226 137.313 52.7515 137.313C52.0923 137.313 51.7627 137.491 51.7627 137.848C51.7627 138.048 51.8677 138.221 52.0776 138.368C52.2925 138.514 52.7588 138.731 53.4766 139.02C54.1162 139.278 54.585 139.52 54.8828 139.745C55.1807 139.969 55.4004 140.228 55.542 140.521C55.6836 140.814 55.7544 141.163 55.7544 141.568ZM63.1738 139.891C63.1738 140.702 63.3057 141.314 63.5693 141.729C63.8379 142.145 64.2725 142.352 64.873 142.352C65.4688 142.352 65.896 142.147 66.1548 141.737C66.4185 141.322 66.5503 140.707 66.5503 139.891C66.5503 139.081 66.4185 138.473 66.1548 138.067C65.8911 137.662 65.459 137.459 64.8584 137.459C64.2627 137.459 63.833 137.662 63.5693 138.067C63.3057 138.468 63.1738 139.076 63.1738 139.891ZM68.8354 139.891C68.8354 141.224 68.4839 142.267 67.7808 143.019C67.0776 143.771 66.0986 144.146 64.8438 144.146C64.0576 144.146 63.3643 143.976 62.7637 143.634C62.1631 143.287 61.7017 142.792 61.3794 142.147C61.0571 141.502 60.896 140.75 60.896 139.891C60.896 138.553 61.2451 137.513 61.9434 136.771C62.6416 136.029 63.623 135.658 64.8877 135.658C65.6738 135.658 66.3672 135.829 66.9678 136.17C67.5684 136.512 68.0298 137.003 68.3521 137.643C68.6743 138.282 68.8354 139.032 68.8354 139.891ZM75.1782 144.146C74.2163 144.146 73.4619 143.797 72.915 143.099H72.7979C72.876 143.783 72.915 144.178 72.915 144.286V147.604H70.6812V135.812H72.4976L72.8125 136.874H72.915C73.4375 136.063 74.2114 135.658 75.2368 135.658C76.2036 135.658 76.9604 136.031 77.5073 136.778C78.0542 137.525 78.3276 138.563 78.3276 139.891C78.3276 140.765 78.1982 141.524 77.9395 142.169C77.6855 142.813 77.3218 143.304 76.8481 143.641C76.3745 143.978 75.8179 144.146 75.1782 144.146ZM74.519 137.445C73.9673 137.445 73.5645 137.616 73.3105 137.958C73.0566 138.294 72.9248 138.854 72.915 139.635V139.876C72.915 140.755 73.0444 141.385 73.3032 141.766C73.5669 142.147 73.9819 142.337 74.5483 142.337C75.5493 142.337 76.0498 141.512 76.0498 139.862C76.0498 139.056 75.9253 138.453 75.6763 138.053C75.4321 137.647 75.0464 137.445 74.519 137.445ZM83.623 142.367C84.0137 142.367 84.4824 142.281 85.0293 142.11V143.773C84.4727 144.022 83.7891 144.146 82.9785 144.146C82.085 144.146 81.4331 143.922 81.0229 143.473C80.6177 143.019 80.415 142.34 80.415 141.437V137.489H79.3457V136.544L80.5762 135.797L81.2207 134.068H82.6489V135.812H84.9414V137.489H82.6489V141.437C82.6489 141.754 82.7368 141.988 82.9126 142.14C83.0933 142.291 83.3301 142.367 83.623 142.367ZM86.5967 133.695C86.5967 132.967 87.002 132.604 87.8125 132.604C88.623 132.604 89.0283 132.967 89.0283 133.695C89.0283 134.042 88.9258 134.312 88.7207 134.508C88.5205 134.698 88.2178 134.793 87.8125 134.793C87.002 134.793 86.5967 134.427 86.5967 133.695ZM88.9258 144H86.6919V135.812H88.9258V144ZM98.6084 144H96.3745V139.217C96.3745 138.626 96.2744 138.185 96.0742 137.892C95.8789 137.594 95.5688 137.445 95.144 137.445C94.5728 137.445 94.1577 137.655 93.8989 138.075C93.6401 138.495 93.5107 139.186 93.5107 140.147V144H91.2769V135.812H92.9834L93.2837 136.859H93.4082C93.6279 136.483 93.9453 136.19 94.3604 135.98C94.7754 135.765 95.2515 135.658 95.7886 135.658C97.0142 135.658 97.8442 136.058 98.2788 136.859H98.4766C98.6963 136.478 99.0186 136.183 99.4434 135.973C99.873 135.763 100.356 135.658 100.894 135.658C101.821 135.658 102.522 135.897 102.996 136.375C103.474 136.849 103.713 137.611 103.713 138.661V144H101.472V139.217C101.472 138.626 101.372 138.185 101.172 137.892C100.977 137.594 100.667 137.445 100.242 137.445C99.6948 137.445 99.2847 137.64 99.0112 138.031C98.7427 138.421 98.6084 139.042 98.6084 139.891V144ZM105.918 133.695C105.918 132.967 106.323 132.604 107.134 132.604C107.944 132.604 108.35 132.967 108.35 133.695C108.35 134.042 108.247 134.312 108.042 134.508C107.842 134.698 107.539 134.793 107.134 134.793C106.323 134.793 105.918 134.427 105.918 133.695ZM108.247 144H106.013V135.812H108.247V144ZM116.296 144H109.829V142.682L113.623 137.518H110.056V135.812H116.165V137.262L112.473 142.293H116.296V144ZM123.123 144L122.69 142.887H122.632C122.256 143.36 121.868 143.69 121.467 143.875C121.072 144.056 120.554 144.146 119.915 144.146C119.128 144.146 118.508 143.922 118.054 143.473C117.605 143.023 117.38 142.384 117.38 141.554C117.38 140.685 117.683 140.045 118.289 139.635C118.899 139.22 119.817 138.99 121.042 138.946L122.463 138.902V138.543C122.463 137.713 122.039 137.298 121.189 137.298C120.535 137.298 119.766 137.496 118.882 137.892L118.142 136.383C119.084 135.89 120.129 135.643 121.277 135.643C122.375 135.643 123.218 135.882 123.804 136.361C124.39 136.839 124.683 137.567 124.683 138.543V144H123.123ZM122.463 140.206L121.599 140.235C120.95 140.255 120.466 140.372 120.149 140.587C119.832 140.802 119.673 141.129 119.673 141.568C119.673 142.198 120.034 142.513 120.757 142.513C121.274 142.513 121.687 142.364 121.995 142.066C122.307 141.769 122.463 141.373 122.463 140.88V140.206ZM130.439 142.367C130.83 142.367 131.299 142.281 131.846 142.11V143.773C131.289 144.022 130.605 144.146 129.795 144.146C128.901 144.146 128.25 143.922 127.839 143.473C127.434 143.019 127.231 142.34 127.231 141.437V137.489H126.162V136.544L127.393 135.797L128.037 134.068H129.465V135.812H131.758V137.489H129.465V141.437C129.465 141.754 129.553 141.988 129.729 142.14C129.91 142.291 130.146 142.367 130.439 142.367ZM133.413 133.695C133.413 132.967 133.818 132.604 134.629 132.604C135.439 132.604 135.845 132.967 135.845 133.695C135.845 134.042 135.742 134.312 135.537 134.508C135.337 134.698 135.034 134.793 134.629 134.793C133.818 134.793 133.413 134.427 133.413 133.695ZM135.742 144H133.508V135.812H135.742V144ZM139.873 139.891C139.873 140.702 140.005 141.314 140.269 141.729C140.537 142.145 140.972 142.352 141.572 142.352C142.168 142.352 142.595 142.147 142.854 141.737C143.118 141.322 143.25 140.707 143.25 139.891C143.25 139.081 143.118 138.473 142.854 138.067C142.59 137.662 142.158 137.459 141.558 137.459C140.962 137.459 140.532 137.662 140.269 138.067C140.005 138.468 139.873 139.076 139.873 139.891ZM145.535 139.891C145.535 141.224 145.183 142.267 144.48 143.019C143.777 143.771 142.798 144.146 141.543 144.146C140.757 144.146 140.063 143.976 139.463 143.634C138.862 143.287 138.401 142.792 138.079 142.147C137.756 141.502 137.595 140.75 137.595 139.891C137.595 138.553 137.944 137.513 138.643 136.771C139.341 136.029 140.322 135.658 141.587 135.658C142.373 135.658 143.066 135.829 143.667 136.17C144.268 136.512 144.729 137.003 145.051 137.643C145.374 138.282 145.535 139.032 145.535 139.891ZM154.939 144H152.705V139.217C152.705 138.626 152.6 138.185 152.39 137.892C152.18 137.594 151.846 137.445 151.387 137.445C150.762 137.445 150.31 137.655 150.032 138.075C149.753 138.49 149.614 139.181 149.614 140.147V144H147.38V135.812H149.087L149.387 136.859H149.512C149.761 136.463 150.103 136.166 150.537 135.965C150.977 135.76 151.475 135.658 152.031 135.658C152.983 135.658 153.706 135.917 154.199 136.434C154.692 136.947 154.939 137.689 154.939 138.661V144Z"
    fill="white"/>
  <path
    d="M87.0322 65.8433L86.2559 63.2944H82.3521L81.5757 65.8433H79.1294L82.9087 55.0913H85.6846L89.4785 65.8433H87.0322ZM85.7139 61.3901C84.9961 59.0806 84.5908 57.7744 84.498 57.4717C84.4102 57.1689 84.3467 56.9297 84.3076 56.7539C84.1465 57.3789 83.6851 58.9243 82.9233 61.3901H85.7139ZM93.104 60.1743H93.8511C94.5493 60.1743 95.0718 60.0376 95.4185 59.7642C95.7651 59.4858 95.9385 59.083 95.9385 58.5557C95.9385 58.0234 95.792 57.6304 95.499 57.3765C95.2109 57.1226 94.7568 56.9956 94.1367 56.9956H93.104V60.1743ZM98.231 58.4751C98.231 59.6274 97.8696 60.5088 97.147 61.1191C96.4292 61.7295 95.4062 62.0347 94.0781 62.0347H93.104V65.8433H90.8335V55.1353H94.2539C95.5527 55.1353 96.5391 55.416 97.2129 55.9775C97.8916 56.5342 98.231 57.3667 98.231 58.4751ZM100.252 65.8433V55.1353H102.523V65.8433H100.252Z"
    fill="white"/>
</svg>
