<svg width="155" height="189" viewBox="0 0 155 189" fill="none" xmlns="http://www.w3.org/2000/svg">
  <title>API Errors Troubleshooting Icon</title>
  <path
    d="M76.4777 10.9673C74.7385 10.9673 73.0885 11.0572 71.3939 11.237L64.9276 0L49.3639 5.12406L50.7018 18.0241C47.7585 19.7771 45.0382 21.7548 42.4963 24.0471L30.7232 18.7882L21.0906 32.1377L29.6975 41.8015C28.3596 44.9029 27.2893 48.1392 26.5758 51.5552L14 54.297V70.7929L26.5758 73.4898C27.2893 76.8609 28.3596 80.142 29.7421 83.2434L21.1352 92.9072L30.7677 106.257L42.5408 100.998C45.0828 103.29 47.8031 105.268 50.7463 107.021L49.4531 119.921L65.0168 125L71.4385 113.763C73.1331 113.943 74.8277 113.988 76.5223 113.988C78.2615 113.988 79.9115 113.898 81.6061 113.718L88.0724 124.955L103.636 119.831L102.298 106.931C105.242 105.178 107.962 103.155 110.504 100.908L122.277 106.167L131.909 92.8174L123.303 83.1536C124.64 80.0522 125.711 76.8159 126.424 73.3999L139 70.658V54.1622L126.38 51.4653C125.666 48.0942 124.596 44.813 123.258 41.7116L131.865 32.0478L122.232 18.6983L110.459 23.9572C107.917 21.7098 105.197 19.6872 102.254 17.9342L103.547 5.03416L88.0278 0L81.5615 11.237C79.9115 11.0572 78.2169 10.9673 76.4777 10.9673ZM121.831 62.4775C121.831 87.6933 101.585 108.145 76.5669 108.145C51.5491 108.145 31.2583 87.7382 31.2583 62.5225C31.2583 37.3067 51.5045 16.8554 76.5223 16.8554C101.496 16.8105 121.786 37.2618 121.831 62.4775Z"
    fill="#00ACFF"/>
  <path
    d="M62.2217 151H56.0547V140.292H62.2217V142.152H58.3252V144.503H61.9507V146.364H58.3252V149.125H62.2217V151ZM68.8574 142.658C69.1602 142.658 69.4116 142.68 69.6118 142.724L69.4434 144.818C69.2627 144.77 69.043 144.745 68.7842 144.745C68.0713 144.745 67.5146 144.928 67.1143 145.294C66.7188 145.661 66.521 146.173 66.521 146.833V151H64.2871V142.812H65.979L66.3086 144.188H66.4185C66.6724 143.729 67.0142 143.361 67.4438 143.083C67.8784 142.799 68.3496 142.658 68.8574 142.658ZM75.6689 142.658C75.9717 142.658 76.2231 142.68 76.4233 142.724L76.2549 144.818C76.0742 144.77 75.8545 144.745 75.5957 144.745C74.8828 144.745 74.3262 144.928 73.9258 145.294C73.5303 145.661 73.3325 146.173 73.3325 146.833V151H71.0986V142.812H72.7905L73.1201 144.188H73.23C73.4839 143.729 73.8257 143.361 74.2554 143.083C74.6899 142.799 75.1611 142.658 75.6689 142.658ZM79.6899 146.891C79.6899 147.702 79.8218 148.314 80.0854 148.729C80.354 149.145 80.7886 149.352 81.3892 149.352C81.9849 149.352 82.4121 149.147 82.6709 148.737C82.9346 148.322 83.0664 147.707 83.0664 146.891C83.0664 146.081 82.9346 145.473 82.6709 145.067C82.4072 144.662 81.9751 144.459 81.3745 144.459C80.7788 144.459 80.3491 144.662 80.0854 145.067C79.8218 145.468 79.6899 146.076 79.6899 146.891ZM85.3516 146.891C85.3516 148.224 85 149.267 84.2969 150.019C83.5938 150.771 82.6147 151.146 81.3599 151.146C80.5737 151.146 79.8804 150.976 79.2798 150.634C78.6792 150.287 78.2178 149.792 77.8955 149.147C77.5732 148.502 77.4121 147.75 77.4121 146.891C77.4121 145.553 77.7612 144.513 78.4595 143.771C79.1577 143.029 80.1392 142.658 81.4038 142.658C82.1899 142.658 82.8833 142.829 83.4839 143.17C84.0845 143.512 84.5459 144.003 84.8682 144.643C85.1904 145.282 85.3516 146.032 85.3516 146.891ZM91.7676 142.658C92.0703 142.658 92.3218 142.68 92.522 142.724L92.3535 144.818C92.1729 144.77 91.9531 144.745 91.6943 144.745C90.9814 144.745 90.4248 144.928 90.0244 145.294C89.6289 145.661 89.4312 146.173 89.4312 146.833V151H87.1973V142.812H88.8892L89.2188 144.188H89.3286C89.5825 143.729 89.9243 143.361 90.354 143.083C90.7886 142.799 91.2598 142.658 91.7676 142.658ZM99.7217 148.568C99.7217 149.408 99.4287 150.048 98.8428 150.487C98.2617 150.927 97.3901 151.146 96.228 151.146C95.6323 151.146 95.1245 151.105 94.7046 151.022C94.2847 150.944 93.8916 150.827 93.5254 150.67V148.825C93.9404 149.02 94.4067 149.184 94.9243 149.315C95.4468 149.447 95.9058 149.513 96.3013 149.513C97.1118 149.513 97.5171 149.279 97.5171 148.81C97.5171 148.634 97.4634 148.493 97.356 148.385C97.2485 148.273 97.063 148.148 96.7993 148.012C96.5356 147.87 96.1841 147.707 95.7446 147.521C95.1147 147.257 94.6509 147.013 94.353 146.789C94.0601 146.564 93.8452 146.308 93.7085 146.02C93.5767 145.727 93.5107 145.368 93.5107 144.943C93.5107 144.215 93.7915 143.654 94.353 143.258C94.9194 142.858 95.7202 142.658 96.7554 142.658C97.7417 142.658 98.7012 142.873 99.6338 143.302L98.96 144.914C98.5498 144.738 98.1665 144.594 97.8101 144.481C97.4536 144.369 97.0898 144.313 96.7188 144.313C96.0596 144.313 95.73 144.491 95.73 144.848C95.73 145.048 95.835 145.221 96.0449 145.368C96.2598 145.514 96.7261 145.731 97.4438 146.02C98.0835 146.278 98.5522 146.52 98.8501 146.745C99.1479 146.969 99.3677 147.228 99.5093 147.521C99.6509 147.814 99.7217 148.163 99.7217 148.568ZM21.748 169.367C22.1387 169.367 22.6074 169.281 23.1543 169.11V170.773C22.5977 171.022 21.9141 171.146 21.1035 171.146C20.21 171.146 19.5581 170.922 19.1479 170.473C18.7427 170.019 18.54 169.34 18.54 168.437V164.489H17.4707V163.544L18.7012 162.797L19.3457 161.068H20.7739V162.812H23.0664V164.489H20.7739V168.437C20.7739 168.754 20.8618 168.988 21.0376 169.14C21.2183 169.291 21.4551 169.367 21.748 169.367ZM29.3872 162.658C29.6899 162.658 29.9414 162.68 30.1416 162.724L29.9731 164.818C29.7925 164.77 29.5728 164.745 29.314 164.745C28.6011 164.745 28.0444 164.928 27.644 165.294C27.2485 165.661 27.0508 166.173 27.0508 166.833V171H24.8169V162.812H26.5088L26.8384 164.188H26.9482C27.2021 163.729 27.5439 163.361 27.9736 163.083C28.4082 162.799 28.8794 162.658 29.3872 162.658ZM33.4082 166.891C33.4082 167.702 33.54 168.314 33.8037 168.729C34.0723 169.145 34.5068 169.352 35.1074 169.352C35.7031 169.352 36.1304 169.147 36.3892 168.737C36.6528 168.322 36.7847 167.707 36.7847 166.891C36.7847 166.081 36.6528 165.473 36.3892 165.067C36.1255 164.662 35.6934 164.459 35.0928 164.459C34.4971 164.459 34.0674 164.662 33.8037 165.067C33.54 165.468 33.4082 166.076 33.4082 166.891ZM39.0698 166.891C39.0698 168.224 38.7183 169.267 38.0151 170.019C37.312 170.771 36.333 171.146 35.0781 171.146C34.292 171.146 33.5986 170.976 32.998 170.634C32.3975 170.287 31.936 169.792 31.6138 169.147C31.2915 168.502 31.1304 167.75 31.1304 166.891C31.1304 165.553 31.4795 164.513 32.1777 163.771C32.876 163.029 33.8574 162.658 35.1221 162.658C35.9082 162.658 36.6016 162.829 37.2021 163.17C37.8027 163.512 38.2642 164.003 38.5864 164.643C38.9087 165.282 39.0698 166.032 39.0698 166.891ZM46.7163 171L46.416 169.953H46.2988C46.0596 170.333 45.7202 170.629 45.2808 170.839C44.8413 171.044 44.3408 171.146 43.7793 171.146C42.8174 171.146 42.0923 170.89 41.604 170.377C41.1157 169.86 40.8716 169.118 40.8716 168.151V162.812H43.1055V167.594C43.1055 168.185 43.2104 168.629 43.4204 168.927C43.6304 169.22 43.9648 169.367 44.4238 169.367C45.0488 169.367 45.5005 169.159 45.7788 168.744C46.0571 168.324 46.1963 167.631 46.1963 166.664V162.812H48.4302V171H46.7163ZM55.3296 162.658C56.2964 162.658 57.0532 163.036 57.6001 163.793C58.147 164.545 58.4204 165.578 58.4204 166.891C58.4204 168.244 58.1372 169.291 57.5708 170.033C57.0093 170.775 56.2427 171.146 55.271 171.146C54.3091 171.146 53.5547 170.797 53.0078 170.099H52.854L52.4805 171H50.7739V159.604H53.0078V162.255C53.0078 162.592 52.9785 163.131 52.9199 163.874H53.0078C53.5303 163.063 54.3042 162.658 55.3296 162.658ZM54.6118 164.445C54.0601 164.445 53.6572 164.616 53.4033 164.958C53.1494 165.294 53.0176 165.854 53.0078 166.635V166.876C53.0078 167.755 53.1372 168.385 53.396 168.766C53.6597 169.147 54.0747 169.337 54.6411 169.337C55.1001 169.337 55.4639 169.127 55.7324 168.708C56.0059 168.283 56.1426 167.667 56.1426 166.862C56.1426 166.056 56.0059 165.453 55.7324 165.053C55.459 164.647 55.0854 164.445 54.6118 164.445ZM62.5 171H60.2661V159.604H62.5V171ZM68.2422 164.247C67.7686 164.247 67.3975 164.398 67.1289 164.701C66.8604 164.999 66.7065 165.424 66.6675 165.976H69.8022C69.7925 165.424 69.6484 164.999 69.3701 164.701C69.0918 164.398 68.7158 164.247 68.2422 164.247ZM68.5571 171.146C67.2388 171.146 66.2085 170.783 65.4663 170.055C64.7241 169.328 64.353 168.297 64.353 166.964C64.353 165.592 64.6948 164.533 65.3784 163.786C66.0669 163.034 67.0166 162.658 68.2275 162.658C69.3848 162.658 70.2856 162.987 70.9302 163.646C71.5747 164.306 71.897 165.216 71.897 166.378V167.462H66.6162C66.6406 168.097 66.8286 168.593 67.1802 168.949C67.5317 169.306 68.0249 169.484 68.6597 169.484C69.1528 169.484 69.6191 169.433 70.0586 169.33C70.498 169.228 70.957 169.064 71.4355 168.839V170.568C71.0449 170.763 70.6274 170.907 70.1831 171C69.7388 171.098 69.1968 171.146 68.5571 171.146ZM79.4263 168.568C79.4263 169.408 79.1333 170.048 78.5474 170.487C77.9663 170.927 77.0947 171.146 75.9326 171.146C75.3369 171.146 74.8291 171.105 74.4092 171.022C73.9893 170.944 73.5962 170.827 73.23 170.67V168.825C73.645 169.02 74.1113 169.184 74.6289 169.315C75.1514 169.447 75.6104 169.513 76.0059 169.513C76.8164 169.513 77.2217 169.279 77.2217 168.81C77.2217 168.634 77.168 168.493 77.0605 168.385C76.9531 168.273 76.7676 168.148 76.5039 168.012C76.2402 167.87 75.8887 167.707 75.4492 167.521C74.8193 167.257 74.3555 167.013 74.0576 166.789C73.7646 166.564 73.5498 166.308 73.4131 166.02C73.2812 165.727 73.2153 165.368 73.2153 164.943C73.2153 164.215 73.4961 163.654 74.0576 163.258C74.624 162.858 75.4248 162.658 76.46 162.658C77.4463 162.658 78.4058 162.873 79.3384 163.302L78.6646 164.914C78.2544 164.738 77.8711 164.594 77.5146 164.481C77.1582 164.369 76.7944 164.313 76.4233 164.313C75.7642 164.313 75.4346 164.491 75.4346 164.848C75.4346 165.048 75.5396 165.221 75.7495 165.368C75.9644 165.514 76.4307 165.731 77.1484 166.02C77.7881 166.278 78.2568 166.52 78.5547 166.745C78.8525 166.969 79.0723 167.228 79.2139 167.521C79.3555 167.814 79.4263 168.163 79.4263 168.568ZM88.728 171H86.4941V166.217C86.4941 165.036 86.0547 164.445 85.1758 164.445C84.5508 164.445 84.0991 164.657 83.8208 165.082C83.5425 165.507 83.4033 166.195 83.4033 167.147V171H81.1694V159.604H83.4033V161.925C83.4033 162.106 83.3862 162.531 83.3521 163.2L83.3008 163.859H83.418C83.916 163.058 84.707 162.658 85.791 162.658C86.7529 162.658 87.4829 162.917 87.981 163.434C88.479 163.952 88.728 164.694 88.728 165.661V171ZM92.8076 166.891C92.8076 167.702 92.9395 168.314 93.2031 168.729C93.4717 169.145 93.9062 169.352 94.5068 169.352C95.1025 169.352 95.5298 169.147 95.7886 168.737C96.0522 168.322 96.1841 167.707 96.1841 166.891C96.1841 166.081 96.0522 165.473 95.7886 165.067C95.5249 164.662 95.0928 164.459 94.4922 164.459C93.8965 164.459 93.4668 164.662 93.2031 165.067C92.9395 165.468 92.8076 166.076 92.8076 166.891ZM98.4692 166.891C98.4692 168.224 98.1177 169.267 97.4146 170.019C96.7114 170.771 95.7324 171.146 94.4775 171.146C93.6914 171.146 92.998 170.976 92.3975 170.634C91.7969 170.287 91.3354 169.792 91.0132 169.147C90.6909 168.502 90.5298 167.75 90.5298 166.891C90.5298 165.553 90.8789 164.513 91.5771 163.771C92.2754 163.029 93.2568 162.658 94.5215 162.658C95.3076 162.658 96.001 162.829 96.6016 163.17C97.2021 163.512 97.6636 164.003 97.9858 164.643C98.3081 165.282 98.4692 166.032 98.4692 166.891ZM102.095 166.891C102.095 167.702 102.227 168.314 102.49 168.729C102.759 169.145 103.193 169.352 103.794 169.352C104.39 169.352 104.817 169.147 105.076 168.737C105.339 168.322 105.471 167.707 105.471 166.891C105.471 166.081 105.339 165.473 105.076 165.067C104.812 164.662 104.38 164.459 103.779 164.459C103.184 164.459 102.754 164.662 102.49 165.067C102.227 165.468 102.095 166.076 102.095 166.891ZM107.756 166.891C107.756 168.224 107.405 169.267 106.702 170.019C105.999 170.771 105.02 171.146 103.765 171.146C102.979 171.146 102.285 170.976 101.685 170.634C101.084 170.287 100.623 169.792 100.3 169.147C99.978 168.502 99.8169 167.75 99.8169 166.891C99.8169 165.553 100.166 164.513 100.864 163.771C101.562 163.029 102.544 162.658 103.809 162.658C104.595 162.658 105.288 162.829 105.889 163.17C106.489 163.512 106.951 164.003 107.273 164.643C107.595 165.282 107.756 166.032 107.756 166.891ZM113.052 169.367C113.442 169.367 113.911 169.281 114.458 169.11V170.773C113.901 171.022 113.218 171.146 112.407 171.146C111.514 171.146 110.862 170.922 110.452 170.473C110.046 170.019 109.844 169.34 109.844 168.437V164.489H108.774V163.544L110.005 162.797L110.649 161.068H112.078V162.812H114.37V164.489H112.078V168.437C112.078 168.754 112.166 168.988 112.341 169.14C112.522 169.291 112.759 169.367 113.052 169.367ZM116.025 160.695C116.025 159.967 116.431 159.604 117.241 159.604C118.052 159.604 118.457 159.967 118.457 160.695C118.457 161.042 118.354 161.312 118.149 161.508C117.949 161.698 117.646 161.793 117.241 161.793C116.431 161.793 116.025 161.427 116.025 160.695ZM118.354 171H116.121V162.812H118.354V171ZM128.264 171H126.03V166.217C126.03 165.626 125.925 165.185 125.715 164.892C125.505 164.594 125.171 164.445 124.712 164.445C124.087 164.445 123.635 164.655 123.357 165.075C123.079 165.49 122.939 166.181 122.939 167.147V171H120.706V162.812H122.412L122.712 163.859H122.837C123.086 163.463 123.428 163.166 123.862 162.965C124.302 162.76 124.8 162.658 125.356 162.658C126.309 162.658 127.031 162.917 127.524 163.434C128.018 163.947 128.264 164.689 128.264 165.661V171ZM137.69 162.812V163.947L136.409 164.276C136.643 164.643 136.76 165.053 136.76 165.507C136.76 166.386 136.453 167.072 135.837 167.565C135.227 168.053 134.377 168.297 133.289 168.297L132.886 168.275L132.556 168.239C132.327 168.415 132.212 168.61 132.212 168.825C132.212 169.147 132.622 169.308 133.442 169.308H134.834C135.732 169.308 136.416 169.501 136.885 169.887C137.358 170.272 137.595 170.839 137.595 171.586C137.595 172.543 137.195 173.285 136.394 173.812C135.598 174.34 134.453 174.604 132.959 174.604C131.816 174.604 130.942 174.403 130.337 174.003C129.736 173.607 129.436 173.051 129.436 172.333C129.436 171.84 129.59 171.427 129.897 171.095C130.205 170.763 130.657 170.526 131.252 170.385C131.023 170.287 130.823 170.128 130.652 169.909C130.481 169.684 130.396 169.447 130.396 169.198C130.396 168.886 130.486 168.627 130.667 168.422C130.847 168.212 131.108 168.007 131.45 167.807C131.021 167.621 130.679 167.323 130.425 166.913C130.176 166.503 130.051 166.02 130.051 165.463C130.051 164.569 130.342 163.878 130.923 163.39C131.504 162.902 132.334 162.658 133.413 162.658C133.643 162.658 133.914 162.68 134.226 162.724C134.543 162.763 134.746 162.792 134.834 162.812H137.69ZM131.37 172.157C131.37 172.465 131.516 172.707 131.809 172.882C132.107 173.058 132.522 173.146 133.054 173.146C133.855 173.146 134.482 173.036 134.937 172.816C135.391 172.597 135.618 172.296 135.618 171.916C135.618 171.608 135.483 171.396 135.215 171.278C134.946 171.161 134.531 171.103 133.97 171.103H132.812C132.402 171.103 132.058 171.198 131.78 171.388C131.506 171.583 131.37 171.84 131.37 172.157ZM132.183 165.492C132.183 165.937 132.283 166.288 132.483 166.547C132.688 166.806 132.998 166.935 133.413 166.935C133.833 166.935 134.141 166.806 134.336 166.547C134.531 166.288 134.629 165.937 134.629 165.492C134.629 164.506 134.224 164.013 133.413 164.013C132.593 164.013 132.183 164.506 132.183 165.492Z"
    fill="white"/>
  <path
    d="M72.0322 67.8433L71.2559 65.2944H67.3521L66.5757 67.8433H64.1294L67.9087 57.0913H70.6846L74.4785 67.8433H72.0322ZM70.7139 63.3901C69.9961 61.0806 69.5908 59.7744 69.498 59.4717C69.4102 59.1689 69.3467 58.9297 69.3076 58.7539C69.1465 59.3789 68.6851 60.9243 67.9233 63.3901H70.7139ZM78.104 62.1743H78.8511C79.5493 62.1743 80.0718 62.0376 80.4185 61.7642C80.7651 61.4858 80.9385 61.083 80.9385 60.5557C80.9385 60.0234 80.792 59.6304 80.499 59.3765C80.2109 59.1226 79.7568 58.9956 79.1367 58.9956H78.104V62.1743ZM83.231 60.4751C83.231 61.6274 82.8696 62.5088 82.147 63.1191C81.4292 63.7295 80.4062 64.0347 79.0781 64.0347H78.104V67.8433H75.8335V57.1353H79.2539C80.5527 57.1353 81.5391 57.416 82.2129 57.9775C82.8916 58.5342 83.231 59.3667 83.231 60.4751ZM85.2524 67.8433V57.1353H87.5229V67.8433H85.2524Z"
    fill="white"/>
</svg>
