<svg width="185" height="167" viewBox="0 0 185 167" fill="none" xmlns="http://www.w3.org/2000/svg">
  <title>API Validating Icon</title>
  <path
    d="M91.4784 10.6163C89.7949 10.6163 88.1976 10.7033 86.5573 10.8774L80.2979 0L65.2323 4.96009L66.5273 17.4473C63.6782 19.1442 61.045 21.0586 58.5844 23.2776L47.188 18.187L37.8637 31.1093L46.1951 40.4639C44.9001 43.466 43.8641 46.5987 43.1734 49.9054L31 52.5595V68.5275L43.1734 71.1381C43.8641 74.4013 44.9001 77.5775 46.2383 80.5797L37.9069 89.9342L47.2312 102.857L58.6275 97.7659C61.0881 99.9849 63.7214 101.899 66.5705 103.596L65.3186 116.083L80.3842 121L86.6004 110.123C88.2408 110.297 89.8812 110.34 91.5216 110.34C93.2051 110.34 94.8024 110.253 96.4427 110.079L102.702 120.957L117.768 115.996L116.473 103.509C119.322 101.812 121.955 99.8544 124.416 97.6789L135.812 102.77L145.136 89.8472L136.805 80.4926C138.1 77.4905 139.136 74.3578 139.827 71.0511L152 68.397V52.429L139.783 49.8184C139.093 46.5552 138.057 43.379 136.762 40.3768L145.093 31.0223L135.769 18.1L124.372 23.1906C121.912 21.0151 119.279 19.0572 116.43 17.3603L117.681 4.87307L102.659 0L96.3996 10.8774C94.8024 10.7033 93.162 10.6163 91.4784 10.6163ZM135.38 60.4783C135.38 84.8871 115.782 104.684 91.5648 104.684C67.3475 104.684 47.706 84.9306 47.706 60.5218C47.706 36.1129 67.3043 16.3161 91.5216 16.3161C115.696 16.2726 135.337 36.0694 135.38 60.4783Z"
    fill="#89C512"/>
  <path
    d="M61.958 134.292H64.2505L60.6104 145H58.1348L54.502 134.292H56.7944L58.8086 140.664C58.9209 141.04 59.0356 141.479 59.1528 141.982C59.2749 142.48 59.3506 142.827 59.3799 143.022C59.4336 142.573 59.6167 141.787 59.9292 140.664L61.958 134.292ZM70.6299 145L70.1978 143.887H70.1392C69.7632 144.36 69.375 144.69 68.9746 144.875C68.5791 145.056 68.0615 145.146 67.4219 145.146C66.6357 145.146 66.0156 144.922 65.5615 144.473C65.1123 144.023 64.8877 143.384 64.8877 142.554C64.8877 141.685 65.1904 141.045 65.7959 140.635C66.4062 140.22 67.3242 139.99 68.5498 139.946L69.9707 139.902V139.543C69.9707 138.713 69.5459 138.298 68.6963 138.298C68.042 138.298 67.2729 138.496 66.3892 138.892L65.6494 137.383C66.5918 136.89 67.6367 136.643 68.7842 136.643C69.8828 136.643 70.7251 136.882 71.311 137.361C71.897 137.839 72.1899 138.567 72.1899 139.543V145H70.6299ZM69.9707 141.206L69.1064 141.235C68.457 141.255 67.9736 141.372 67.6562 141.587C67.3389 141.802 67.1802 142.129 67.1802 142.568C67.1802 143.198 67.5415 143.513 68.2642 143.513C68.7817 143.513 69.1943 143.364 69.502 143.066C69.8145 142.769 69.9707 142.373 69.9707 141.88V141.206ZM76.731 145H74.4971V133.604H76.731V145ZM78.9868 134.695C78.9868 133.967 79.3921 133.604 80.2026 133.604C81.0132 133.604 81.4185 133.967 81.4185 134.695C81.4185 135.042 81.3159 135.312 81.1108 135.508C80.9106 135.698 80.6079 135.793 80.2026 135.793C79.3921 135.793 78.9868 135.427 78.9868 134.695ZM81.3159 145H79.082V136.812H81.3159V145ZM86.2598 145.146C85.2979 145.146 84.541 144.773 83.9893 144.026C83.4424 143.279 83.1689 142.244 83.1689 140.92C83.1689 139.578 83.4473 138.533 84.0039 137.786C84.5654 137.034 85.3369 136.658 86.3184 136.658C87.3486 136.658 88.1348 137.058 88.6768 137.859H88.75C88.6377 137.249 88.5815 136.704 88.5815 136.226V133.604H90.8228V145H89.1089L88.6768 143.938H88.5815C88.0737 144.744 87.2998 145.146 86.2598 145.146ZM87.0435 143.367C87.6147 143.367 88.0322 143.201 88.2959 142.869C88.5645 142.537 88.7109 141.973 88.7354 141.177V140.935C88.7354 140.056 88.5986 139.426 88.3252 139.045C88.0566 138.665 87.6172 138.474 87.0068 138.474C86.5088 138.474 86.1206 138.687 85.8423 139.111C85.5688 139.531 85.4321 140.144 85.4321 140.95C85.4321 141.755 85.5713 142.361 85.8496 142.766C86.1279 143.167 86.5259 143.367 87.0435 143.367ZM98.3594 145L97.9272 143.887H97.8687C97.4927 144.36 97.1045 144.69 96.7041 144.875C96.3086 145.056 95.791 145.146 95.1514 145.146C94.3652 145.146 93.7451 144.922 93.291 144.473C92.8418 144.023 92.6172 143.384 92.6172 142.554C92.6172 141.685 92.9199 141.045 93.5254 140.635C94.1357 140.22 95.0537 139.99 96.2793 139.946L97.7002 139.902V139.543C97.7002 138.713 97.2754 138.298 96.4258 138.298C95.7715 138.298 95.0024 138.496 94.1187 138.892L93.3789 137.383C94.3213 136.89 95.3662 136.643 96.5137 136.643C97.6123 136.643 98.4546 136.882 99.0405 137.361C99.6265 137.839 99.9194 138.567 99.9194 139.543V145H98.3594ZM97.7002 141.206L96.8359 141.235C96.1865 141.255 95.7031 141.372 95.3857 141.587C95.0684 141.802 94.9097 142.129 94.9097 142.568C94.9097 143.198 95.271 143.513 95.9937 143.513C96.5112 143.513 96.9238 143.364 97.2314 143.066C97.5439 142.769 97.7002 142.373 97.7002 141.88V141.206ZM105.676 143.367C106.067 143.367 106.536 143.281 107.083 143.11V144.773C106.526 145.022 105.842 145.146 105.032 145.146C104.138 145.146 103.486 144.922 103.076 144.473C102.671 144.019 102.468 143.34 102.468 142.437V138.489H101.399V137.544L102.629 136.797L103.274 135.068H104.702V136.812H106.995V138.489H104.702V142.437C104.702 142.754 104.79 142.988 104.966 143.14C105.146 143.291 105.383 143.367 105.676 143.367ZM108.65 134.695C108.65 133.967 109.055 133.604 109.866 133.604C110.676 133.604 111.082 133.967 111.082 134.695C111.082 135.042 110.979 135.312 110.774 135.508C110.574 135.698 110.271 135.793 109.866 135.793C109.055 135.793 108.65 135.427 108.65 134.695ZM110.979 145H108.745V136.812H110.979V145ZM120.889 145H118.655V140.217C118.655 139.626 118.55 139.185 118.34 138.892C118.13 138.594 117.795 138.445 117.336 138.445C116.711 138.445 116.26 138.655 115.981 139.075C115.703 139.49 115.564 140.181 115.564 141.147V145H113.33V136.812H115.037L115.337 137.859H115.461C115.71 137.463 116.052 137.166 116.487 136.965C116.926 136.76 117.424 136.658 117.981 136.658C118.933 136.658 119.656 136.917 120.149 137.434C120.642 137.947 120.889 138.689 120.889 139.661V145ZM130.315 136.812V137.947L129.033 138.276C129.268 138.643 129.385 139.053 129.385 139.507C129.385 140.386 129.077 141.072 128.462 141.565C127.852 142.053 127.002 142.297 125.913 142.297L125.51 142.275L125.181 142.239C124.951 142.415 124.836 142.61 124.836 142.825C124.836 143.147 125.247 143.308 126.067 143.308H127.458C128.357 143.308 129.041 143.501 129.509 143.887C129.983 144.272 130.22 144.839 130.22 145.586C130.22 146.543 129.819 147.285 129.019 147.812C128.223 148.34 127.078 148.604 125.583 148.604C124.441 148.604 123.567 148.403 122.961 148.003C122.361 147.607 122.061 147.051 122.061 146.333C122.061 145.84 122.214 145.427 122.522 145.095C122.83 144.763 123.281 144.526 123.877 144.385C123.647 144.287 123.447 144.128 123.276 143.909C123.105 143.684 123.02 143.447 123.02 143.198C123.02 142.886 123.11 142.627 123.291 142.422C123.472 142.212 123.733 142.007 124.075 141.807C123.645 141.621 123.303 141.323 123.049 140.913C122.8 140.503 122.676 140.02 122.676 139.463C122.676 138.569 122.966 137.878 123.547 137.39C124.128 136.902 124.958 136.658 126.038 136.658C126.267 136.658 126.538 136.68 126.851 136.724C127.168 136.763 127.371 136.792 127.458 136.812H130.315ZM123.994 146.157C123.994 146.465 124.141 146.707 124.434 146.882C124.731 147.058 125.146 147.146 125.679 147.146C126.479 147.146 127.107 147.036 127.561 146.816C128.015 146.597 128.242 146.296 128.242 145.916C128.242 145.608 128.108 145.396 127.839 145.278C127.571 145.161 127.156 145.103 126.594 145.103H125.437C125.027 145.103 124.683 145.198 124.404 145.388C124.131 145.583 123.994 145.84 123.994 146.157ZM124.807 139.492C124.807 139.937 124.907 140.288 125.107 140.547C125.312 140.806 125.623 140.935 126.038 140.935C126.458 140.935 126.765 140.806 126.96 140.547C127.156 140.288 127.253 139.937 127.253 139.492C127.253 138.506 126.848 138.013 126.038 138.013C125.217 138.013 124.807 138.506 124.807 139.492Z"
    fill="white"/>
  <path
    d="M87.0322 65.8433L86.2559 63.2944H82.3521L81.5757 65.8433H79.1294L82.9087 55.0913H85.6846L89.4785 65.8433H87.0322ZM85.7139 61.3901C84.9961 59.0806 84.5908 57.7744 84.498 57.4717C84.4102 57.1689 84.3467 56.9297 84.3076 56.7539C84.1465 57.3789 83.6851 58.9243 82.9233 61.3901H85.7139ZM93.104 60.1743H93.8511C94.5493 60.1743 95.0718 60.0376 95.4185 59.7642C95.7651 59.4858 95.9385 59.083 95.9385 58.5557C95.9385 58.0234 95.792 57.6304 95.499 57.3765C95.2109 57.1226 94.7568 56.9956 94.1367 56.9956H93.104V60.1743ZM98.231 58.4751C98.231 59.6274 97.8696 60.5088 97.147 61.1191C96.4292 61.7295 95.4062 62.0347 94.0781 62.0347H93.104V65.8433H90.8335V55.1353H94.2539C95.5527 55.1353 96.5391 55.416 97.2129 55.9775C97.8916 56.5342 98.231 57.3667 98.231 58.4751ZM100.252 65.8433V55.1353H102.523V65.8433H100.252Z"
    fill="white"/>
</svg>
