<svg width="620" height="434" viewBox="0 0 620 434" fill="none" xmlns="http://www.w3.org/2000/svg">
  <title>Applications Icons</title>
  <path
    d="M219.541 191.575C222.588 191.575 225.479 191.424 228.448 191.122L239.777 210L267.045 201.392L264.701 179.72C269.858 176.775 274.624 173.452 279.077 169.601L299.704 178.436L316.58 156.009L301.501 139.773C303.845 134.563 305.72 129.126 306.97 123.387L329.003 118.781V91.0679L306.97 86.5372C305.72 80.8738 303.845 75.3614 301.423 70.151L316.502 53.9158L299.626 31.4886L278.999 40.3236C274.545 36.4725 269.779 33.1499 264.623 30.2049L266.889 8.53288L239.621 -1.52588e-05L228.37 18.8781C225.401 18.576 222.432 18.5005 219.463 18.5005C216.415 18.5005 213.525 18.6515 210.556 18.9536L199.226 0.0754852L171.958 8.68391L174.302 30.356C169.146 33.3009 164.38 36.699 159.926 40.4746L139.299 31.6397L122.423 54.0668L137.502 70.302C135.158 75.5124 133.283 80.9493 132.033 86.6882L110 91.2945V119.008L132.111 123.538C133.361 129.202 135.237 134.714 137.581 139.924L122.501 156.16L139.378 178.587L160.004 169.752C164.458 173.528 169.224 176.926 174.381 179.871L172.115 201.543L199.305 210L210.634 191.122C213.525 191.424 216.494 191.575 219.541 191.575ZM140.081 105.038C140.081 62.6753 175.553 28.3171 219.384 28.3171C263.216 28.3171 298.766 62.5998 298.766 104.962C298.766 147.325 263.295 181.683 219.463 181.683C175.709 181.758 140.159 147.4 140.081 105.038Z"
    fill="#00ACFF"/>
  <path
    d="M192.935 70.84H202.315V73.12H195.455V76.6H201.955V78.88H195.455V82.72H202.675V85H192.935V70.84ZM204.942 75.4H207.342V76.92H207.382C207.649 76.36 208.029 75.9267 208.522 75.62C209.015 75.3133 209.582 75.16 210.222 75.16C210.369 75.16 210.509 75.1733 210.642 75.2C210.789 75.2267 210.935 75.26 211.082 75.3V77.62C210.882 77.5667 210.682 77.5267 210.482 77.5C210.295 77.46 210.109 77.44 209.922 77.44C209.362 77.44 208.909 77.5467 208.562 77.76C208.229 77.96 207.969 78.1933 207.782 78.46C207.609 78.7267 207.489 78.9933 207.422 79.26C207.369 79.5267 207.342 79.7267 207.342 79.86V85H204.942V75.4ZM212.715 75.4H215.115V76.92H215.155C215.422 76.36 215.802 75.9267 216.295 75.62C216.789 75.3133 217.355 75.16 217.995 75.16C218.142 75.16 218.282 75.1733 218.415 75.2C218.562 75.2267 218.709 75.26 218.855 75.3V77.62C218.655 77.5667 218.455 77.5267 218.255 77.5C218.069 77.46 217.882 77.44 217.695 77.44C217.135 77.44 216.682 77.5467 216.335 77.76C216.002 77.96 215.742 78.1933 215.555 78.46C215.382 78.7267 215.262 78.9933 215.195 79.26C215.142 79.5267 215.115 79.7267 215.115 79.86V85H212.715V75.4ZM219.657 80.2C219.657 79.44 219.791 78.7533 220.057 78.14C220.337 77.5133 220.711 76.98 221.177 76.54C221.644 76.1 222.197 75.76 222.837 75.52C223.477 75.28 224.157 75.16 224.877 75.16C225.597 75.16 226.277 75.28 226.917 75.52C227.557 75.76 228.111 76.1 228.577 76.54C229.044 76.98 229.411 77.5133 229.677 78.14C229.957 78.7533 230.097 79.44 230.097 80.2C230.097 80.96 229.957 81.6533 229.677 82.28C229.411 82.8933 229.044 83.42 228.577 83.86C228.111 84.3 227.557 84.64 226.917 84.88C226.277 85.12 225.597 85.24 224.877 85.24C224.157 85.24 223.477 85.12 222.837 84.88C222.197 84.64 221.644 84.3 221.177 83.86C220.711 83.42 220.337 82.8933 220.057 82.28C219.791 81.6533 219.657 80.96 219.657 80.2ZM222.057 80.2C222.057 80.5733 222.117 80.9333 222.237 81.28C222.371 81.6267 222.557 81.9333 222.797 82.2C223.051 82.4667 223.351 82.68 223.697 82.84C224.044 83 224.437 83.08 224.877 83.08C225.317 83.08 225.711 83 226.057 82.84C226.404 82.68 226.697 82.4667 226.937 82.2C227.191 81.9333 227.377 81.6267 227.497 81.28C227.631 80.9333 227.697 80.5733 227.697 80.2C227.697 79.8267 227.631 79.4667 227.497 79.12C227.377 78.7733 227.191 78.4667 226.937 78.2C226.697 77.9333 226.404 77.72 226.057 77.56C225.711 77.4 225.317 77.32 224.877 77.32C224.437 77.32 224.044 77.4 223.697 77.56C223.351 77.72 223.051 77.9333 222.797 78.2C222.557 78.4667 222.371 78.7733 222.237 79.12C222.117 79.4667 222.057 79.8267 222.057 80.2ZM232.344 75.4H234.744V76.92H234.784C235.051 76.36 235.431 75.9267 235.924 75.62C236.418 75.3133 236.984 75.16 237.624 75.16C237.771 75.16 237.911 75.1733 238.044 75.2C238.191 75.2267 238.338 75.26 238.484 75.3V77.62C238.284 77.5667 238.084 77.5267 237.884 77.5C237.698 77.46 237.511 77.44 237.324 77.44C236.764 77.44 236.311 77.5467 235.964 77.76C235.631 77.96 235.371 78.1933 235.184 78.46C235.011 78.7267 234.891 78.9933 234.824 79.26C234.771 79.5267 234.744 79.7267 234.744 79.86V85H232.344V75.4ZM245.238 78.06C244.771 77.4067 244.144 77.08 243.358 77.08C243.038 77.08 242.724 77.16 242.418 77.32C242.111 77.48 241.958 77.74 241.958 78.1C241.958 78.3933 242.084 78.6067 242.338 78.74C242.591 78.8733 242.911 78.9867 243.298 79.08C243.684 79.1733 244.098 79.2733 244.538 79.38C244.991 79.4733 245.411 79.6267 245.798 79.84C246.184 80.04 246.504 80.32 246.758 80.68C247.011 81.04 247.138 81.5333 247.138 82.16C247.138 82.7333 247.011 83.22 246.758 83.62C246.518 84.0067 246.198 84.32 245.798 84.56C245.411 84.8 244.971 84.9733 244.478 85.08C243.984 85.1867 243.491 85.24 242.998 85.24C242.251 85.24 241.564 85.1333 240.938 84.92C240.311 84.7067 239.751 84.32 239.258 83.76L240.858 82.26C241.164 82.6067 241.491 82.8933 241.838 83.12C242.198 83.3333 242.631 83.44 243.138 83.44C243.311 83.44 243.491 83.42 243.678 83.38C243.864 83.34 244.038 83.2733 244.198 83.18C244.358 83.0867 244.484 82.9733 244.578 82.84C244.684 82.6933 244.738 82.5267 244.738 82.34C244.738 82.0067 244.611 81.76 244.358 81.6C244.104 81.44 243.784 81.3133 243.398 81.22C243.011 81.1133 242.591 81.02 242.138 80.94C241.698 80.8467 241.284 80.7067 240.898 80.52C240.511 80.32 240.191 80.0467 239.938 79.7C239.684 79.3533 239.558 78.8733 239.558 78.26C239.558 77.7267 239.664 77.2667 239.878 76.88C240.104 76.48 240.398 76.1533 240.758 75.9C241.118 75.6467 241.531 75.46 241.998 75.34C242.464 75.22 242.938 75.16 243.418 75.16C244.058 75.16 244.691 75.2733 245.318 75.5C245.944 75.7133 246.451 76.0867 246.838 76.62L245.238 78.06ZM144.73 110.44V108.4H146.71V105.62H149.11V108.4H151.75V110.44H149.11V114.64C149.11 115.12 149.197 115.5 149.37 115.78C149.557 116.06 149.917 116.2 150.45 116.2C150.664 116.2 150.897 116.18 151.15 116.14C151.404 116.087 151.604 116.007 151.75 115.9V117.92C151.497 118.04 151.184 118.12 150.81 118.16C150.45 118.213 150.13 118.24 149.85 118.24C149.21 118.24 148.684 118.167 148.27 118.02C147.87 117.887 147.55 117.68 147.31 117.4C147.084 117.107 146.924 116.747 146.83 116.32C146.75 115.893 146.71 115.4 146.71 114.84V110.44H144.73ZM153.624 108.4H156.024V109.92H156.064C156.33 109.36 156.71 108.927 157.204 108.62C157.697 108.313 158.264 108.16 158.904 108.16C159.05 108.16 159.19 108.173 159.324 108.2C159.47 108.227 159.617 108.26 159.764 108.3V110.62C159.564 110.567 159.364 110.527 159.164 110.5C158.977 110.46 158.79 110.44 158.604 110.44C158.044 110.44 157.59 110.547 157.244 110.76C156.91 110.96 156.65 111.193 156.464 111.46C156.29 111.727 156.17 111.993 156.104 112.26C156.05 112.527 156.024 112.727 156.024 112.86V118H153.624V108.4ZM160.566 113.2C160.566 112.44 160.699 111.753 160.966 111.14C161.246 110.513 161.619 109.98 162.086 109.54C162.552 109.1 163.106 108.76 163.746 108.52C164.386 108.28 165.066 108.16 165.786 108.16C166.506 108.16 167.186 108.28 167.826 108.52C168.466 108.76 169.019 109.1 169.486 109.54C169.952 109.98 170.319 110.513 170.586 111.14C170.866 111.753 171.006 112.44 171.006 113.2C171.006 113.96 170.866 114.653 170.586 115.28C170.319 115.893 169.952 116.42 169.486 116.86C169.019 117.3 168.466 117.64 167.826 117.88C167.186 118.12 166.506 118.24 165.786 118.24C165.066 118.24 164.386 118.12 163.746 117.88C163.106 117.64 162.552 117.3 162.086 116.86C161.619 116.42 161.246 115.893 160.966 115.28C160.699 114.653 160.566 113.96 160.566 113.2ZM162.966 113.2C162.966 113.573 163.026 113.933 163.146 114.28C163.279 114.627 163.466 114.933 163.706 115.2C163.959 115.467 164.259 115.68 164.606 115.84C164.952 116 165.346 116.08 165.786 116.08C166.226 116.08 166.619 116 166.966 115.84C167.312 115.68 167.606 115.467 167.846 115.2C168.099 114.933 168.286 114.627 168.406 114.28C168.539 113.933 168.606 113.573 168.606 113.2C168.606 112.827 168.539 112.467 168.406 112.12C168.286 111.773 168.099 111.467 167.846 111.2C167.606 110.933 167.312 110.72 166.966 110.56C166.619 110.4 166.226 110.32 165.786 110.32C165.346 110.32 164.952 110.4 164.606 110.56C164.259 110.72 163.959 110.933 163.706 111.2C163.466 111.467 163.279 111.773 163.146 112.12C163.026 112.467 162.966 112.827 162.966 113.2ZM182.013 118H179.733V116.46H179.693C179.466 116.94 179.119 117.36 178.653 117.72C178.186 118.067 177.553 118.24 176.753 118.24C176.113 118.24 175.566 118.14 175.113 117.94C174.673 117.727 174.313 117.447 174.033 117.1C173.753 116.74 173.553 116.333 173.433 115.88C173.313 115.427 173.253 114.953 173.253 114.46V108.4H175.653V113.26C175.653 113.527 175.666 113.827 175.693 114.16C175.719 114.48 175.786 114.787 175.893 115.08C176.013 115.36 176.186 115.6 176.413 115.8C176.653 115.987 176.986 116.08 177.413 116.08C177.813 116.08 178.146 116.013 178.413 115.88C178.693 115.747 178.919 115.567 179.093 115.34C179.279 115.113 179.413 114.853 179.493 114.56C179.573 114.267 179.613 113.96 179.613 113.64V108.4H182.013V118ZM184.737 102.88H187.137V109.62H187.197C187.317 109.46 187.47 109.3 187.657 109.14C187.844 108.967 188.07 108.807 188.337 108.66C188.604 108.513 188.91 108.393 189.257 108.3C189.604 108.207 190.004 108.16 190.457 108.16C191.137 108.16 191.764 108.293 192.337 108.56C192.91 108.813 193.397 109.167 193.797 109.62C194.21 110.073 194.53 110.607 194.757 111.22C194.984 111.833 195.097 112.493 195.097 113.2C195.097 113.907 194.99 114.567 194.777 115.18C194.564 115.793 194.25 116.327 193.837 116.78C193.424 117.233 192.924 117.593 192.337 117.86C191.75 118.113 191.09 118.24 190.357 118.24C189.677 118.24 189.044 118.107 188.457 117.84C187.87 117.573 187.404 117.147 187.057 116.56H187.017V118H184.737V102.88ZM192.697 113.2C192.697 112.827 192.63 112.467 192.497 112.12C192.377 111.773 192.19 111.467 191.937 111.2C191.697 110.933 191.404 110.72 191.057 110.56C190.71 110.4 190.317 110.32 189.877 110.32C189.437 110.32 189.044 110.4 188.697 110.56C188.35 110.72 188.05 110.933 187.797 111.2C187.557 111.467 187.37 111.773 187.237 112.12C187.117 112.467 187.057 112.827 187.057 113.2C187.057 113.573 187.117 113.933 187.237 114.28C187.37 114.627 187.557 114.933 187.797 115.2C188.05 115.467 188.35 115.68 188.697 115.84C189.044 116 189.437 116.08 189.877 116.08C190.317 116.08 190.71 116 191.057 115.84C191.404 115.68 191.697 115.467 191.937 115.2C192.19 114.933 192.377 114.627 192.497 114.28C192.63 113.933 192.697 113.573 192.697 113.2ZM197.375 102.88H199.775V118H197.375V102.88ZM204.45 114.04C204.53 114.76 204.81 115.32 205.29 115.72C205.77 116.12 206.35 116.32 207.03 116.32C207.63 116.32 208.13 116.2 208.53 115.96C208.943 115.707 209.303 115.393 209.61 115.02L211.33 116.32C210.77 117.013 210.143 117.507 209.45 117.8C208.757 118.093 208.03 118.24 207.27 118.24C206.55 118.24 205.87 118.12 205.23 117.88C204.59 117.64 204.037 117.3 203.57 116.86C203.103 116.42 202.73 115.893 202.45 115.28C202.183 114.653 202.05 113.96 202.05 113.2C202.05 112.44 202.183 111.753 202.45 111.14C202.73 110.513 203.103 109.98 203.57 109.54C204.037 109.1 204.59 108.76 205.23 108.52C205.87 108.28 206.55 108.16 207.27 108.16C207.937 108.16 208.543 108.28 209.09 108.52C209.65 108.747 210.123 109.08 210.51 109.52C210.91 109.96 211.217 110.507 211.43 111.16C211.657 111.8 211.77 112.54 211.77 113.38V114.04H204.45ZM209.37 112.24C209.357 111.533 209.137 110.98 208.71 110.58C208.283 110.167 207.69 109.96 206.93 109.96C206.21 109.96 205.637 110.167 205.21 110.58C204.797 110.993 204.543 111.547 204.45 112.24H209.37ZM219.134 111.06C218.668 110.407 218.041 110.08 217.254 110.08C216.934 110.08 216.621 110.16 216.314 110.32C216.008 110.48 215.854 110.74 215.854 111.1C215.854 111.393 215.981 111.607 216.234 111.74C216.488 111.873 216.808 111.987 217.194 112.08C217.581 112.173 217.994 112.273 218.434 112.38C218.888 112.473 219.308 112.627 219.694 112.84C220.081 113.04 220.401 113.32 220.654 113.68C220.908 114.04 221.034 114.533 221.034 115.16C221.034 115.733 220.908 116.22 220.654 116.62C220.414 117.007 220.094 117.32 219.694 117.56C219.308 117.8 218.868 117.973 218.374 118.08C217.881 118.187 217.388 118.24 216.894 118.24C216.148 118.24 215.461 118.133 214.834 117.92C214.208 117.707 213.648 117.32 213.154 116.76L214.754 115.26C215.061 115.607 215.388 115.893 215.734 116.12C216.094 116.333 216.528 116.44 217.034 116.44C217.208 116.44 217.388 116.42 217.574 116.38C217.761 116.34 217.934 116.273 218.094 116.18C218.254 116.087 218.381 115.973 218.474 115.84C218.581 115.693 218.634 115.527 218.634 115.34C218.634 115.007 218.508 114.76 218.254 114.6C218.001 114.44 217.681 114.313 217.294 114.22C216.908 114.113 216.488 114.02 216.034 113.94C215.594 113.847 215.181 113.707 214.794 113.52C214.408 113.32 214.088 113.047 213.834 112.7C213.581 112.353 213.454 111.873 213.454 111.26C213.454 110.727 213.561 110.267 213.774 109.88C214.001 109.48 214.294 109.153 214.654 108.9C215.014 108.647 215.428 108.46 215.894 108.34C216.361 108.22 216.834 108.16 217.314 108.16C217.954 108.16 218.588 108.273 219.214 108.5C219.841 108.713 220.348 109.087 220.734 109.62L219.134 111.06ZM225.301 109.74H225.341C225.528 109.34 225.854 108.98 226.321 108.66C226.801 108.327 227.414 108.16 228.161 108.16C228.801 108.16 229.341 108.267 229.781 108.48C230.234 108.693 230.601 108.973 230.881 109.32C231.161 109.667 231.361 110.067 231.481 110.52C231.601 110.973 231.661 111.447 231.661 111.94V118H229.261V113.14C229.261 112.873 229.248 112.58 229.221 112.26C229.194 111.927 229.121 111.62 229.001 111.34C228.894 111.047 228.721 110.807 228.481 110.62C228.241 110.42 227.914 110.32 227.501 110.32C227.101 110.32 226.761 110.387 226.481 110.52C226.214 110.653 225.988 110.833 225.801 111.06C225.628 111.287 225.501 111.547 225.421 111.84C225.341 112.133 225.301 112.44 225.301 112.76V118H222.901V102.88H225.301V109.74ZM233.905 113.2C233.905 112.44 234.039 111.753 234.305 111.14C234.585 110.513 234.959 109.98 235.425 109.54C235.892 109.1 236.445 108.76 237.085 108.52C237.725 108.28 238.405 108.16 239.125 108.16C239.845 108.16 240.525 108.28 241.165 108.52C241.805 108.76 242.359 109.1 242.825 109.54C243.292 109.98 243.659 110.513 243.925 111.14C244.205 111.753 244.345 112.44 244.345 113.2C244.345 113.96 244.205 114.653 243.925 115.28C243.659 115.893 243.292 116.42 242.825 116.86C242.359 117.3 241.805 117.64 241.165 117.88C240.525 118.12 239.845 118.24 239.125 118.24C238.405 118.24 237.725 118.12 237.085 117.88C236.445 117.64 235.892 117.3 235.425 116.86C234.959 116.42 234.585 115.893 234.305 115.28C234.039 114.653 233.905 113.96 233.905 113.2ZM236.305 113.2C236.305 113.573 236.365 113.933 236.485 114.28C236.619 114.627 236.805 114.933 237.045 115.2C237.299 115.467 237.599 115.68 237.945 115.84C238.292 116 238.685 116.08 239.125 116.08C239.565 116.08 239.959 116 240.305 115.84C240.652 115.68 240.945 115.467 241.185 115.2C241.439 114.933 241.625 114.627 241.745 114.28C241.879 113.933 241.945 113.573 241.945 113.2C241.945 112.827 241.879 112.467 241.745 112.12C241.625 111.773 241.439 111.467 241.185 111.2C240.945 110.933 240.652 110.72 240.305 110.56C239.959 110.4 239.565 110.32 239.125 110.32C238.685 110.32 238.292 110.4 237.945 110.56C237.599 110.72 237.299 110.933 237.045 111.2C236.805 111.467 236.619 111.773 236.485 112.12C236.365 112.467 236.305 112.827 236.305 113.2ZM246.112 113.2C246.112 112.44 246.246 111.753 246.512 111.14C246.792 110.513 247.166 109.98 247.632 109.54C248.099 109.1 248.652 108.76 249.292 108.52C249.932 108.28 250.612 108.16 251.332 108.16C252.052 108.16 252.732 108.28 253.372 108.52C254.012 108.76 254.566 109.1 255.032 109.54C255.499 109.98 255.866 110.513 256.132 111.14C256.412 111.753 256.552 112.44 256.552 113.2C256.552 113.96 256.412 114.653 256.132 115.28C255.866 115.893 255.499 116.42 255.032 116.86C254.566 117.3 254.012 117.64 253.372 117.88C252.732 118.12 252.052 118.24 251.332 118.24C250.612 118.24 249.932 118.12 249.292 117.88C248.652 117.64 248.099 117.3 247.632 116.86C247.166 116.42 246.792 115.893 246.512 115.28C246.246 114.653 246.112 113.96 246.112 113.2ZM248.512 113.2C248.512 113.573 248.572 113.933 248.692 114.28C248.826 114.627 249.012 114.933 249.252 115.2C249.506 115.467 249.806 115.68 250.152 115.84C250.499 116 250.892 116.08 251.332 116.08C251.772 116.08 252.166 116 252.512 115.84C252.859 115.68 253.152 115.467 253.392 115.2C253.646 114.933 253.832 114.627 253.952 114.28C254.086 113.933 254.152 113.573 254.152 113.2C254.152 112.827 254.086 112.467 253.952 112.12C253.832 111.773 253.646 111.467 253.392 111.2C253.152 110.933 252.859 110.72 252.512 110.56C252.166 110.4 251.772 110.32 251.332 110.32C250.892 110.32 250.499 110.4 250.152 110.56C249.806 110.72 249.506 110.933 249.252 111.2C249.012 111.467 248.826 111.773 248.692 112.12C248.572 112.467 248.512 112.827 248.512 113.2ZM257.679 110.44V108.4H259.659V105.62H262.059V108.4H264.699V110.44H262.059V114.64C262.059 115.12 262.146 115.5 262.319 115.78C262.506 116.06 262.866 116.2 263.399 116.2C263.613 116.2 263.846 116.18 264.099 116.14C264.353 116.087 264.553 116.007 264.699 115.9V117.92C264.446 118.04 264.133 118.12 263.759 118.16C263.399 118.213 263.079 118.24 262.799 118.24C262.159 118.24 261.633 118.167 261.219 118.02C260.819 117.887 260.499 117.68 260.259 117.4C260.033 117.107 259.873 116.747 259.779 116.32C259.699 115.893 259.659 115.4 259.659 114.84V110.44H257.679ZM266.632 108.4H269.032V118H266.632V108.4ZM266.292 105.14C266.292 104.753 266.432 104.42 266.712 104.14C267.006 103.847 267.372 103.7 267.812 103.7C268.252 103.7 268.619 103.84 268.912 104.12C269.219 104.387 269.372 104.727 269.372 105.14C269.372 105.553 269.219 105.9 268.912 106.18C268.619 106.447 268.252 106.58 267.812 106.58C267.372 106.58 267.006 106.44 266.712 106.16C266.432 105.867 266.292 105.527 266.292 105.14ZM271.788 108.4H274.068V109.94H274.108C274.334 109.46 274.681 109.047 275.148 108.7C275.614 108.34 276.248 108.16 277.048 108.16C277.688 108.16 278.228 108.267 278.668 108.48C279.121 108.693 279.488 108.973 279.768 109.32C280.048 109.667 280.248 110.067 280.368 110.52C280.488 110.973 280.548 111.447 280.548 111.94V118H278.148V113.14C278.148 112.873 278.134 112.58 278.108 112.26C278.081 111.927 278.008 111.62 277.888 111.34C277.781 111.047 277.608 110.807 277.368 110.62C277.128 110.42 276.801 110.32 276.388 110.32C275.988 110.32 275.648 110.387 275.368 110.52C275.101 110.653 274.874 110.833 274.688 111.06C274.514 111.287 274.388 111.547 274.308 111.84C274.228 112.133 274.188 112.44 274.188 112.76V118H271.788V108.4ZM293.152 108.4V117.14C293.152 118.007 293.045 118.787 292.832 119.48C292.619 120.187 292.285 120.78 291.832 121.26C291.392 121.753 290.832 122.133 290.152 122.4C289.472 122.667 288.665 122.8 287.732 122.8C286.839 122.8 285.992 122.687 285.192 122.46C284.392 122.233 283.652 121.82 282.972 121.22L284.412 119.26C284.892 119.7 285.392 120.04 285.912 120.28C286.432 120.52 287.032 120.64 287.712 120.64C288.285 120.64 288.765 120.56 289.152 120.4C289.552 120.24 289.865 120.02 290.092 119.74C290.332 119.46 290.499 119.12 290.592 118.72C290.699 118.333 290.752 117.9 290.752 117.42V116.72H290.712C290.365 117.187 289.905 117.54 289.332 117.78C288.759 118.007 288.172 118.12 287.572 118.12C286.852 118.12 286.199 117.993 285.612 117.74C285.025 117.473 284.519 117.12 284.092 116.68C283.679 116.24 283.359 115.72 283.132 115.12C282.905 114.52 282.792 113.88 282.792 113.2C282.792 112.493 282.899 111.833 283.112 111.22C283.325 110.607 283.639 110.073 284.052 109.62C284.465 109.167 284.959 108.813 285.532 108.56C286.119 108.293 286.785 108.16 287.532 108.16C288.212 108.16 288.845 108.293 289.432 108.56C290.019 108.827 290.485 109.253 290.832 109.84H290.872V108.4H293.152ZM288.032 110.32C287.605 110.32 287.219 110.393 286.872 110.54C286.525 110.673 286.225 110.867 285.972 111.12C285.732 111.36 285.539 111.66 285.392 112.02C285.259 112.367 285.192 112.753 285.192 113.18C285.192 113.567 285.259 113.927 285.392 114.26C285.539 114.593 285.739 114.887 285.992 115.14C286.245 115.393 286.545 115.593 286.892 115.74C287.239 115.887 287.612 115.96 288.012 115.96C288.452 115.96 288.845 115.887 289.192 115.74C289.552 115.593 289.852 115.4 290.092 115.16C290.345 114.907 290.539 114.607 290.672 114.26C290.805 113.913 290.872 113.54 290.872 113.14C290.872 112.3 290.619 111.62 290.112 111.1C289.605 110.58 288.912 110.32 288.032 110.32Z"
    fill="white"/>
  <path
    d="M476.053 408.7C480.06 408.7 483.862 408.493 487.766 408.078L502.664 434L538.523 422.179L535.44 392.421C542.222 388.377 548.489 383.815 554.346 378.527L581.47 390.658L603.663 359.863L583.834 337.569C586.916 330.415 589.382 322.949 591.026 315.069L620 308.744V270.69L591.026 264.469C589.382 256.692 586.916 249.123 583.731 241.968L603.561 219.675L581.368 188.88L554.243 201.011C548.386 195.723 542.119 191.161 535.338 187.117L538.317 157.358L502.459 145.642L487.664 171.564C483.759 171.149 479.855 171.045 475.951 171.045C471.943 171.045 468.142 171.253 464.238 171.667L449.339 145.745L413.481 157.566L416.564 187.324C409.782 191.368 403.515 196.034 397.658 201.219L370.533 189.087L348.34 219.883L368.17 242.176C365.088 249.33 362.622 256.796 360.978 264.676L332.004 271.001V309.055L361.081 315.276C362.725 323.053 365.191 330.622 368.273 337.777L348.443 360.07L370.636 390.865L397.761 378.734C403.618 383.918 409.885 388.584 416.666 392.628L413.687 422.387L449.442 434L464.34 408.078C468.142 408.493 472.046 408.7 476.053 408.7ZM371.561 289.873C371.561 231.703 418.207 184.525 475.848 184.525C533.488 184.525 580.237 231.6 580.237 289.769C580.237 347.938 533.591 395.117 475.951 395.117C418.413 395.22 371.664 348.042 371.561 289.873Z"
    fill="#89C512"/>
  <path
    d="M417.74 256.84H422.66C423.34 256.84 423.993 256.907 424.62 257.04C425.26 257.16 425.827 257.373 426.32 257.68C426.813 257.987 427.207 258.4 427.5 258.92C427.793 259.44 427.94 260.1 427.94 260.9C427.94 261.927 427.653 262.787 427.08 263.48C426.52 264.173 425.713 264.593 424.66 264.74L428.42 271H425.38L422.1 265H420.26V271H417.74V256.84ZM422.22 262.84C422.58 262.84 422.94 262.827 423.3 262.8C423.66 262.76 423.987 262.68 424.28 262.56C424.587 262.427 424.833 262.233 425.02 261.98C425.207 261.713 425.3 261.347 425.3 260.88C425.3 260.467 425.213 260.133 425.04 259.88C424.867 259.627 424.64 259.44 424.36 259.32C424.08 259.187 423.767 259.1 423.42 259.06C423.087 259.02 422.76 259 422.44 259H420.26V262.84H422.22ZM432.038 267.04C432.118 267.76 432.398 268.32 432.878 268.72C433.358 269.12 433.938 269.32 434.618 269.32C435.218 269.32 435.718 269.2 436.118 268.96C436.531 268.707 436.891 268.393 437.198 268.02L438.918 269.32C438.358 270.013 437.731 270.507 437.038 270.8C436.344 271.093 435.618 271.24 434.858 271.24C434.138 271.24 433.458 271.12 432.818 270.88C432.178 270.64 431.624 270.3 431.158 269.86C430.691 269.42 430.318 268.893 430.038 268.28C429.771 267.653 429.638 266.96 429.638 266.2C429.638 265.44 429.771 264.753 430.038 264.14C430.318 263.513 430.691 262.98 431.158 262.54C431.624 262.1 432.178 261.76 432.818 261.52C433.458 261.28 434.138 261.16 434.858 261.16C435.524 261.16 436.131 261.28 436.678 261.52C437.238 261.747 437.711 262.08 438.098 262.52C438.498 262.96 438.804 263.507 439.018 264.16C439.244 264.8 439.358 265.54 439.358 266.38V267.04H432.038ZM436.958 265.24C436.944 264.533 436.724 263.98 436.298 263.58C435.871 263.167 435.278 262.96 434.518 262.96C433.798 262.96 433.224 263.167 432.798 263.58C432.384 263.993 432.131 264.547 432.038 265.24H436.958ZM440.482 263.44V261.4H442.462V258.62H444.862V261.4H447.502V263.44H444.862V267.64C444.862 268.12 444.949 268.5 445.122 268.78C445.309 269.06 445.669 269.2 446.202 269.2C446.416 269.2 446.649 269.18 446.902 269.14C447.156 269.087 447.356 269.007 447.502 268.9V270.92C447.249 271.04 446.936 271.12 446.562 271.16C446.202 271.213 445.882 271.24 445.602 271.24C444.962 271.24 444.436 271.167 444.022 271.02C443.622 270.887 443.302 270.68 443.062 270.4C442.836 270.107 442.676 269.747 442.582 269.32C442.502 268.893 442.462 268.4 442.462 267.84V263.44H440.482ZM449.376 261.4H451.776V262.92H451.816C452.082 262.36 452.462 261.927 452.956 261.62C453.449 261.313 454.016 261.16 454.656 261.16C454.802 261.16 454.942 261.173 455.076 261.2C455.222 261.227 455.369 261.26 455.516 261.3V263.62C455.316 263.567 455.116 263.527 454.916 263.5C454.729 263.46 454.542 263.44 454.356 263.44C453.796 263.44 453.342 263.547 452.996 263.76C452.662 263.96 452.402 264.193 452.216 264.46C452.042 264.727 451.922 264.993 451.856 265.26C451.802 265.527 451.776 265.727 451.776 265.86V271H449.376V261.4ZM455.849 261.4H458.489L461.169 268.06H461.209L463.609 261.4H466.109L461.569 273.06C461.396 273.513 461.202 273.907 460.989 274.24C460.789 274.587 460.549 274.873 460.269 275.1C459.989 275.34 459.656 275.513 459.269 275.62C458.896 275.74 458.442 275.8 457.909 275.8C457.282 275.8 456.669 275.72 456.069 275.56L456.369 273.4C456.556 273.467 456.749 273.52 456.949 273.56C457.162 273.613 457.376 273.64 457.589 273.64C457.882 273.64 458.129 273.613 458.329 273.56C458.529 273.507 458.696 273.42 458.829 273.3C458.976 273.193 459.096 273.047 459.189 272.86C459.282 272.687 459.382 272.473 459.489 272.22L459.949 271.08L455.849 261.4ZM467.56 261.4H469.96V271H467.56V261.4ZM467.22 258.14C467.22 257.753 467.36 257.42 467.64 257.14C467.933 256.847 468.3 256.7 468.74 256.7C469.18 256.7 469.547 256.84 469.84 257.12C470.147 257.387 470.3 257.727 470.3 258.14C470.3 258.553 470.147 258.9 469.84 259.18C469.547 259.447 469.18 259.58 468.74 259.58C468.3 259.58 467.933 259.44 467.64 259.16C467.36 258.867 467.22 258.527 467.22 258.14ZM472.715 261.4H474.995V262.94H475.035C475.262 262.46 475.609 262.047 476.075 261.7C476.542 261.34 477.175 261.16 477.975 261.16C478.615 261.16 479.155 261.267 479.595 261.48C480.049 261.693 480.415 261.973 480.695 262.32C480.975 262.667 481.175 263.067 481.295 263.52C481.415 263.973 481.475 264.447 481.475 264.94V271H479.075V266.14C479.075 265.873 479.062 265.58 479.035 265.26C479.009 264.927 478.935 264.62 478.815 264.34C478.709 264.047 478.535 263.807 478.295 263.62C478.055 263.42 477.729 263.32 477.315 263.32C476.915 263.32 476.575 263.387 476.295 263.52C476.029 263.653 475.802 263.833 475.615 264.06C475.442 264.287 475.315 264.547 475.235 264.84C475.155 265.133 475.115 265.44 475.115 265.76V271H472.715V261.4ZM494.08 261.4V270.14C494.08 271.007 493.973 271.787 493.76 272.48C493.547 273.187 493.213 273.78 492.76 274.26C492.32 274.753 491.76 275.133 491.08 275.4C490.4 275.667 489.593 275.8 488.66 275.8C487.767 275.8 486.92 275.687 486.12 275.46C485.32 275.233 484.58 274.82 483.9 274.22L485.34 272.26C485.82 272.7 486.32 273.04 486.84 273.28C487.36 273.52 487.96 273.64 488.64 273.64C489.213 273.64 489.693 273.56 490.08 273.4C490.48 273.24 490.793 273.02 491.02 272.74C491.26 272.46 491.427 272.12 491.52 271.72C491.627 271.333 491.68 270.9 491.68 270.42V269.72H491.64C491.293 270.187 490.833 270.54 490.26 270.78C489.687 271.007 489.1 271.12 488.5 271.12C487.78 271.12 487.127 270.993 486.54 270.74C485.953 270.473 485.447 270.12 485.02 269.68C484.607 269.24 484.287 268.72 484.06 268.12C483.833 267.52 483.72 266.88 483.72 266.2C483.72 265.493 483.827 264.833 484.04 264.22C484.253 263.607 484.567 263.073 484.98 262.62C485.393 262.167 485.887 261.813 486.46 261.56C487.047 261.293 487.713 261.16 488.46 261.16C489.14 261.16 489.773 261.293 490.36 261.56C490.947 261.827 491.413 262.253 491.76 262.84H491.8V261.4H494.08ZM488.96 263.32C488.533 263.32 488.147 263.393 487.8 263.54C487.453 263.673 487.153 263.867 486.9 264.12C486.66 264.36 486.467 264.66 486.32 265.02C486.187 265.367 486.12 265.753 486.12 266.18C486.12 266.567 486.187 266.927 486.32 267.26C486.467 267.593 486.667 267.887 486.92 268.14C487.173 268.393 487.473 268.593 487.82 268.74C488.167 268.887 488.54 268.96 488.94 268.96C489.38 268.96 489.773 268.887 490.12 268.74C490.48 268.593 490.78 268.4 491.02 268.16C491.273 267.907 491.467 267.607 491.6 267.26C491.733 266.913 491.8 266.54 491.8 266.14C491.8 265.3 491.547 264.62 491.04 264.1C490.533 263.58 489.84 263.32 488.96 263.32ZM502.755 255.88H505.155V271H502.755V255.88ZM507.431 266.2C507.431 265.44 507.564 264.753 507.831 264.14C508.111 263.513 508.484 262.98 508.951 262.54C509.417 262.1 509.971 261.76 510.611 261.52C511.251 261.28 511.931 261.16 512.651 261.16C513.371 261.16 514.051 261.28 514.691 261.52C515.331 261.76 515.884 262.1 516.351 262.54C516.817 262.98 517.184 263.513 517.451 264.14C517.731 264.753 517.871 265.44 517.871 266.2C517.871 266.96 517.731 267.653 517.451 268.28C517.184 268.893 516.817 269.42 516.351 269.86C515.884 270.3 515.331 270.64 514.691 270.88C514.051 271.12 513.371 271.24 512.651 271.24C511.931 271.24 511.251 271.12 510.611 270.88C509.971 270.64 509.417 270.3 508.951 269.86C508.484 269.42 508.111 268.893 507.831 268.28C507.564 267.653 507.431 266.96 507.431 266.2ZM509.831 266.2C509.831 266.573 509.891 266.933 510.011 267.28C510.144 267.627 510.331 267.933 510.571 268.2C510.824 268.467 511.124 268.68 511.471 268.84C511.817 269 512.211 269.08 512.651 269.08C513.091 269.08 513.484 269 513.831 268.84C514.177 268.68 514.471 268.467 514.711 268.2C514.964 267.933 515.151 267.627 515.271 267.28C515.404 266.933 515.471 266.573 515.471 266.2C515.471 265.827 515.404 265.467 515.271 265.12C515.151 264.773 514.964 264.467 514.711 264.2C514.471 263.933 514.177 263.72 513.831 263.56C513.484 263.4 513.091 263.32 512.651 263.32C512.211 263.32 511.817 263.4 511.471 263.56C511.124 263.72 510.824 263.933 510.571 264.2C510.331 264.467 510.144 264.773 510.011 265.12C509.891 265.467 509.831 265.827 509.831 266.2ZM520.118 261.4H522.398V262.94H522.438C522.664 262.46 523.011 262.047 523.478 261.7C523.944 261.34 524.578 261.16 525.378 261.16C526.018 261.16 526.558 261.267 526.998 261.48C527.451 261.693 527.818 261.973 528.098 262.32C528.378 262.667 528.578 263.067 528.698 263.52C528.818 263.973 528.878 264.447 528.878 264.94V271H526.478V266.14C526.478 265.873 526.464 265.58 526.438 265.26C526.411 264.927 526.338 264.62 526.218 264.34C526.111 264.047 525.938 263.807 525.698 263.62C525.458 263.42 525.131 263.32 524.718 263.32C524.318 263.32 523.978 263.387 523.698 263.52C523.431 263.653 523.204 263.833 523.018 264.06C522.844 264.287 522.718 264.547 522.638 264.84C522.558 265.133 522.518 265.44 522.518 265.76V271H520.118V261.4ZM541.482 261.4V270.14C541.482 271.007 541.376 271.787 541.162 272.48C540.949 273.187 540.616 273.78 540.162 274.26C539.722 274.753 539.162 275.133 538.482 275.4C537.802 275.667 536.996 275.8 536.062 275.8C535.169 275.8 534.322 275.687 533.522 275.46C532.722 275.233 531.982 274.82 531.302 274.22L532.742 272.26C533.222 272.7 533.722 273.04 534.242 273.28C534.762 273.52 535.362 273.64 536.042 273.64C536.616 273.64 537.096 273.56 537.482 273.4C537.882 273.24 538.196 273.02 538.422 272.74C538.662 272.46 538.829 272.12 538.922 271.72C539.029 271.333 539.082 270.9 539.082 270.42V269.72H539.042C538.696 270.187 538.236 270.54 537.662 270.78C537.089 271.007 536.502 271.12 535.902 271.12C535.182 271.12 534.529 270.993 533.942 270.74C533.356 270.473 532.849 270.12 532.422 269.68C532.009 269.24 531.689 268.72 531.462 268.12C531.236 267.52 531.122 266.88 531.122 266.2C531.122 265.493 531.229 264.833 531.442 264.22C531.656 263.607 531.969 263.073 532.382 262.62C532.796 262.167 533.289 261.813 533.862 261.56C534.449 261.293 535.116 261.16 535.862 261.16C536.542 261.16 537.176 261.293 537.762 261.56C538.349 261.827 538.816 262.253 539.162 262.84H539.202V261.4H541.482ZM536.362 263.32C535.936 263.32 535.549 263.393 535.202 263.54C534.856 263.673 534.556 263.867 534.302 264.12C534.062 264.36 533.869 264.66 533.722 265.02C533.589 265.367 533.522 265.753 533.522 266.18C533.522 266.567 533.589 266.927 533.722 267.26C533.869 267.593 534.069 267.887 534.322 268.14C534.576 268.393 534.876 268.593 535.222 268.74C535.569 268.887 535.942 268.96 536.342 268.96C536.782 268.96 537.176 268.887 537.522 268.74C537.882 268.593 538.182 268.4 538.422 268.16C538.676 267.907 538.869 267.607 539.002 267.26C539.136 266.913 539.202 266.54 539.202 266.14C539.202 265.3 538.949 264.62 538.442 264.1C537.936 263.58 537.242 263.32 536.362 263.32ZM388.985 294.4H391.265V295.84H391.305C391.652 295.253 392.118 294.827 392.705 294.56C393.292 294.293 393.925 294.16 394.605 294.16C395.338 294.16 395.998 294.293 396.585 294.56C397.172 294.813 397.672 295.167 398.085 295.62C398.498 296.073 398.812 296.607 399.025 297.22C399.238 297.833 399.345 298.493 399.345 299.2C399.345 299.907 399.232 300.567 399.005 301.18C398.778 301.793 398.458 302.327 398.045 302.78C397.645 303.233 397.158 303.593 396.585 303.86C396.012 304.113 395.385 304.24 394.705 304.24C394.252 304.24 393.852 304.193 393.505 304.1C393.158 304.007 392.852 303.887 392.585 303.74C392.318 303.593 392.092 303.44 391.905 303.28C391.718 303.107 391.565 302.94 391.445 302.78H391.385V308.56H388.985V294.4ZM396.945 299.2C396.945 298.827 396.878 298.467 396.745 298.12C396.625 297.773 396.438 297.467 396.185 297.2C395.945 296.933 395.652 296.72 395.305 296.56C394.958 296.4 394.565 296.32 394.125 296.32C393.685 296.32 393.292 296.4 392.945 296.56C392.598 296.72 392.298 296.933 392.045 297.2C391.805 297.467 391.618 297.773 391.485 298.12C391.365 298.467 391.305 298.827 391.305 299.2C391.305 299.573 391.365 299.933 391.485 300.28C391.618 300.627 391.805 300.933 392.045 301.2C392.298 301.467 392.598 301.68 392.945 301.84C393.292 302 393.685 302.08 394.125 302.08C394.565 302.08 394.958 302 395.305 301.84C395.652 301.68 395.945 301.467 396.185 301.2C396.438 300.933 396.625 300.627 396.745 300.28C396.878 299.933 396.945 299.573 396.945 299.2ZM403.503 300.04C403.583 300.76 403.863 301.32 404.343 301.72C404.823 302.12 405.403 302.32 406.083 302.32C406.683 302.32 407.183 302.2 407.583 301.96C407.996 301.707 408.356 301.393 408.663 301.02L410.383 302.32C409.823 303.013 409.196 303.507 408.503 303.8C407.809 304.093 407.083 304.24 406.323 304.24C405.603 304.24 404.923 304.12 404.283 303.88C403.643 303.64 403.089 303.3 402.623 302.86C402.156 302.42 401.783 301.893 401.503 301.28C401.236 300.653 401.103 299.96 401.103 299.2C401.103 298.44 401.236 297.753 401.503 297.14C401.783 296.513 402.156 295.98 402.623 295.54C403.089 295.1 403.643 294.76 404.283 294.52C404.923 294.28 405.603 294.16 406.323 294.16C406.989 294.16 407.596 294.28 408.143 294.52C408.703 294.747 409.176 295.08 409.563 295.52C409.963 295.96 410.269 296.507 410.483 297.16C410.709 297.8 410.823 298.54 410.823 299.38V300.04H403.503ZM408.423 298.24C408.409 297.533 408.189 296.98 407.763 296.58C407.336 296.167 406.743 295.96 405.983 295.96C405.263 295.96 404.689 296.167 404.263 296.58C403.849 296.993 403.596 297.547 403.503 298.24H408.423ZM413.067 294.4H415.347V295.94H415.387C415.614 295.46 415.96 295.047 416.427 294.7C416.894 294.34 417.527 294.16 418.327 294.16C418.967 294.16 419.507 294.267 419.947 294.48C420.4 294.693 420.767 294.973 421.047 295.32C421.327 295.667 421.527 296.067 421.647 296.52C421.767 296.973 421.827 297.447 421.827 297.94V304H419.427V299.14C419.427 298.873 419.414 298.58 419.387 298.26C419.36 297.927 419.287 297.62 419.167 297.34C419.06 297.047 418.887 296.807 418.647 296.62C418.407 296.42 418.08 296.32 417.667 296.32C417.267 296.32 416.927 296.387 416.647 296.52C416.38 296.653 416.154 296.833 415.967 297.06C415.794 297.287 415.667 297.547 415.587 297.84C415.507 298.133 415.467 298.44 415.467 298.76V304H413.067V294.4ZM432.151 302.56H432.111C431.765 303.147 431.298 303.573 430.711 303.84C430.125 304.107 429.491 304.24 428.811 304.24C428.065 304.24 427.398 304.113 426.811 303.86C426.238 303.593 425.745 303.233 425.331 302.78C424.918 302.327 424.605 301.793 424.391 301.18C424.178 300.567 424.071 299.907 424.071 299.2C424.071 298.493 424.185 297.833 424.411 297.22C424.638 296.607 424.951 296.073 425.351 295.62C425.765 295.167 426.258 294.813 426.831 294.56C427.405 294.293 428.031 294.16 428.711 294.16C429.165 294.16 429.565 294.207 429.911 294.3C430.258 294.393 430.565 294.513 430.831 294.66C431.098 294.807 431.325 294.967 431.511 295.14C431.698 295.3 431.851 295.46 431.971 295.62H432.031V288.88H434.431V304H432.151V302.56ZM426.471 299.2C426.471 299.573 426.531 299.933 426.651 300.28C426.785 300.627 426.971 300.933 427.211 301.2C427.465 301.467 427.765 301.68 428.111 301.84C428.458 302 428.851 302.08 429.291 302.08C429.731 302.08 430.125 302 430.471 301.84C430.818 301.68 431.111 301.467 431.351 301.2C431.605 300.933 431.791 300.627 431.911 300.28C432.045 299.933 432.111 299.573 432.111 299.2C432.111 298.827 432.045 298.467 431.911 298.12C431.791 297.773 431.605 297.467 431.351 297.2C431.111 296.933 430.818 296.72 430.471 296.56C430.125 296.4 429.731 296.32 429.291 296.32C428.851 296.32 428.458 296.4 428.111 296.56C427.765 296.72 427.465 296.933 427.211 297.2C426.971 297.467 426.785 297.773 426.651 298.12C426.531 298.467 426.471 298.827 426.471 299.2ZM437.209 294.4H439.609V304H437.209V294.4ZM436.869 291.14C436.869 290.753 437.009 290.42 437.289 290.14C437.582 289.847 437.949 289.7 438.389 289.7C438.829 289.7 439.195 289.84 439.489 290.12C439.795 290.387 439.949 290.727 439.949 291.14C439.949 291.553 439.795 291.9 439.489 292.18C439.195 292.447 438.829 292.58 438.389 292.58C437.949 292.58 437.582 292.44 437.289 292.16C437.009 291.867 436.869 291.527 436.869 291.14ZM442.364 294.4H444.644V295.94H444.684C444.911 295.46 445.257 295.047 445.724 294.7C446.191 294.34 446.824 294.16 447.624 294.16C448.264 294.16 448.804 294.267 449.244 294.48C449.697 294.693 450.064 294.973 450.344 295.32C450.624 295.667 450.824 296.067 450.944 296.52C451.064 296.973 451.124 297.447 451.124 297.94V304H448.724V299.14C448.724 298.873 448.711 298.58 448.684 298.26C448.657 297.927 448.584 297.62 448.464 297.34C448.357 297.047 448.184 296.807 447.944 296.62C447.704 296.42 447.377 296.32 446.964 296.32C446.564 296.32 446.224 296.387 445.944 296.52C445.677 296.653 445.451 296.833 445.264 297.06C445.091 297.287 444.964 297.547 444.884 297.84C444.804 298.133 444.764 298.44 444.764 298.76V304H442.364V294.4ZM463.728 294.4V303.14C463.728 304.007 463.622 304.787 463.408 305.48C463.195 306.187 462.862 306.78 462.408 307.26C461.968 307.753 461.408 308.133 460.728 308.4C460.048 308.667 459.242 308.8 458.308 308.8C457.415 308.8 456.568 308.687 455.768 308.46C454.968 308.233 454.228 307.82 453.548 307.22L454.988 305.26C455.468 305.7 455.968 306.04 456.488 306.28C457.008 306.52 457.608 306.64 458.288 306.64C458.862 306.64 459.342 306.56 459.728 306.4C460.128 306.24 460.442 306.02 460.668 305.74C460.908 305.46 461.075 305.12 461.168 304.72C461.275 304.333 461.328 303.9 461.328 303.42V302.72H461.288C460.942 303.187 460.482 303.54 459.908 303.78C459.335 304.007 458.748 304.12 458.148 304.12C457.428 304.12 456.775 303.993 456.188 303.74C455.602 303.473 455.095 303.12 454.668 302.68C454.255 302.24 453.935 301.72 453.708 301.12C453.482 300.52 453.368 299.88 453.368 299.2C453.368 298.493 453.475 297.833 453.688 297.22C453.902 296.607 454.215 296.073 454.628 295.62C455.042 295.167 455.535 294.813 456.108 294.56C456.695 294.293 457.362 294.16 458.108 294.16C458.788 294.16 459.422 294.293 460.008 294.56C460.595 294.827 461.062 295.253 461.408 295.84H461.448V294.4H463.728ZM458.608 296.32C458.182 296.32 457.795 296.393 457.448 296.54C457.102 296.673 456.802 296.867 456.548 297.12C456.308 297.36 456.115 297.66 455.968 298.02C455.835 298.367 455.768 298.753 455.768 299.18C455.768 299.567 455.835 299.927 455.968 300.26C456.115 300.593 456.315 300.887 456.568 301.14C456.822 301.393 457.122 301.593 457.468 301.74C457.815 301.887 458.188 301.96 458.588 301.96C459.028 301.96 459.422 301.887 459.768 301.74C460.128 301.593 460.428 301.4 460.668 301.16C460.922 300.907 461.115 300.607 461.248 300.26C461.382 299.913 461.448 299.54 461.448 299.14C461.448 298.3 461.195 297.62 460.688 297.1C460.182 296.58 459.488 296.32 458.608 296.32ZM471.884 299.2C471.884 298.44 472.017 297.753 472.284 297.14C472.564 296.513 472.937 295.98 473.404 295.54C473.871 295.1 474.424 294.76 475.064 294.52C475.704 294.28 476.384 294.16 477.104 294.16C477.824 294.16 478.504 294.28 479.144 294.52C479.784 294.76 480.337 295.1 480.804 295.54C481.271 295.98 481.637 296.513 481.904 297.14C482.184 297.753 482.324 298.44 482.324 299.2C482.324 299.96 482.184 300.653 481.904 301.28C481.637 301.893 481.271 302.42 480.804 302.86C480.337 303.3 479.784 303.64 479.144 303.88C478.504 304.12 477.824 304.24 477.104 304.24C476.384 304.24 475.704 304.12 475.064 303.88C474.424 303.64 473.871 303.3 473.404 302.86C472.937 302.42 472.564 301.893 472.284 301.28C472.017 300.653 471.884 299.96 471.884 299.2ZM474.284 299.2C474.284 299.573 474.344 299.933 474.464 300.28C474.597 300.627 474.784 300.933 475.024 301.2C475.277 301.467 475.577 301.68 475.924 301.84C476.271 302 476.664 302.08 477.104 302.08C477.544 302.08 477.937 302 478.284 301.84C478.631 301.68 478.924 301.467 479.164 301.2C479.417 300.933 479.604 300.627 479.724 300.28C479.857 299.933 479.924 299.573 479.924 299.2C479.924 298.827 479.857 298.467 479.724 298.12C479.604 297.773 479.417 297.467 479.164 297.2C478.924 296.933 478.631 296.72 478.284 296.56C477.937 296.4 477.544 296.32 477.104 296.32C476.664 296.32 476.271 296.4 475.924 296.56C475.577 296.72 475.277 296.933 475.024 297.2C474.784 297.467 474.597 297.773 474.464 298.12C474.344 298.467 474.284 298.827 474.284 299.2ZM484.571 294.4H486.851V295.84H486.891C487.238 295.253 487.704 294.827 488.291 294.56C488.878 294.293 489.511 294.16 490.191 294.16C490.924 294.16 491.584 294.293 492.171 294.56C492.758 294.813 493.258 295.167 493.671 295.62C494.084 296.073 494.398 296.607 494.611 297.22C494.824 297.833 494.931 298.493 494.931 299.2C494.931 299.907 494.818 300.567 494.591 301.18C494.364 301.793 494.044 302.327 493.631 302.78C493.231 303.233 492.744 303.593 492.171 303.86C491.598 304.113 490.971 304.24 490.291 304.24C489.838 304.24 489.438 304.193 489.091 304.1C488.744 304.007 488.438 303.887 488.171 303.74C487.904 303.593 487.678 303.44 487.491 303.28C487.304 303.107 487.151 302.94 487.031 302.78H486.971V308.56H484.571V294.4ZM492.531 299.2C492.531 298.827 492.464 298.467 492.331 298.12C492.211 297.773 492.024 297.467 491.771 297.2C491.531 296.933 491.238 296.72 490.891 296.56C490.544 296.4 490.151 296.32 489.711 296.32C489.271 296.32 488.878 296.4 488.531 296.56C488.184 296.72 487.884 296.933 487.631 297.2C487.391 297.467 487.204 297.773 487.071 298.12C486.951 298.467 486.891 298.827 486.891 299.2C486.891 299.573 486.951 299.933 487.071 300.28C487.204 300.627 487.391 300.933 487.631 301.2C487.884 301.467 488.184 301.68 488.531 301.84C488.878 302 489.271 302.08 489.711 302.08C490.151 302.08 490.544 302 490.891 301.84C491.238 301.68 491.531 301.467 491.771 301.2C492.024 300.933 492.211 300.627 492.331 300.28C492.464 299.933 492.531 299.573 492.531 299.2ZM499.089 300.04C499.169 300.76 499.449 301.32 499.929 301.72C500.409 302.12 500.989 302.32 501.669 302.32C502.269 302.32 502.769 302.2 503.169 301.96C503.582 301.707 503.942 301.393 504.249 301.02L505.969 302.32C505.409 303.013 504.782 303.507 504.089 303.8C503.395 304.093 502.669 304.24 501.909 304.24C501.189 304.24 500.509 304.12 499.869 303.88C499.229 303.64 498.675 303.3 498.209 302.86C497.742 302.42 497.369 301.893 497.089 301.28C496.822 300.653 496.689 299.96 496.689 299.2C496.689 298.44 496.822 297.753 497.089 297.14C497.369 296.513 497.742 295.98 498.209 295.54C498.675 295.1 499.229 294.76 499.869 294.52C500.509 294.28 501.189 294.16 501.909 294.16C502.575 294.16 503.182 294.28 503.729 294.52C504.289 294.747 504.762 295.08 505.149 295.52C505.549 295.96 505.855 296.507 506.069 297.16C506.295 297.8 506.409 298.54 506.409 299.38V300.04H499.089ZM504.009 298.24C503.995 297.533 503.775 296.98 503.349 296.58C502.922 296.167 502.329 295.96 501.569 295.96C500.849 295.96 500.275 296.167 499.849 296.58C499.435 296.993 499.182 297.547 499.089 298.24H504.009ZM508.653 294.4H511.053V295.92H511.093C511.36 295.36 511.74 294.927 512.233 294.62C512.726 294.313 513.293 294.16 513.933 294.16C514.08 294.16 514.22 294.173 514.353 294.2C514.5 294.227 514.646 294.26 514.793 294.3V296.62C514.593 296.567 514.393 296.527 514.193 296.5C514.006 296.46 513.82 296.44 513.633 296.44C513.073 296.44 512.62 296.547 512.273 296.76C511.94 296.96 511.68 297.193 511.493 297.46C511.32 297.727 511.2 297.993 511.133 298.26C511.08 298.527 511.053 298.727 511.053 298.86V304H508.653V294.4ZM522.426 302.68H522.366C522.02 303.227 521.58 303.627 521.046 303.88C520.513 304.12 519.926 304.24 519.286 304.24C518.846 304.24 518.413 304.18 517.986 304.06C517.573 303.94 517.2 303.76 516.866 303.52C516.546 303.28 516.286 302.98 516.086 302.62C515.886 302.26 515.786 301.84 515.786 301.36C515.786 300.84 515.88 300.4 516.066 300.04C516.253 299.667 516.5 299.36 516.806 299.12C517.126 298.867 517.493 298.667 517.906 298.52C518.32 298.373 518.746 298.267 519.186 298.2C519.64 298.12 520.093 298.073 520.546 298.06C521 298.033 521.426 298.02 521.826 298.02H522.426V297.76C522.426 297.16 522.22 296.713 521.806 296.42C521.393 296.113 520.866 295.96 520.226 295.96C519.72 295.96 519.246 296.053 518.806 296.24C518.366 296.413 517.986 296.653 517.666 296.96L516.406 295.7C516.94 295.153 517.56 294.76 518.266 294.52C518.986 294.28 519.726 294.16 520.486 294.16C521.166 294.16 521.74 294.24 522.206 294.4C522.673 294.547 523.06 294.74 523.366 294.98C523.673 295.22 523.906 295.5 524.066 295.82C524.24 296.127 524.36 296.44 524.426 296.76C524.506 297.08 524.553 297.393 524.566 297.7C524.58 297.993 524.586 298.253 524.586 298.48V304H522.426V302.68ZM522.286 299.7H521.786C521.453 299.7 521.08 299.713 520.666 299.74C520.253 299.767 519.86 299.833 519.486 299.94C519.126 300.033 518.82 300.18 518.566 300.38C518.313 300.567 518.186 300.833 518.186 301.18C518.186 301.407 518.233 301.6 518.326 301.76C518.433 301.907 518.566 302.033 518.726 302.14C518.886 302.247 519.066 302.327 519.266 302.38C519.466 302.42 519.666 302.44 519.866 302.44C520.693 302.44 521.3 302.247 521.686 301.86C522.086 301.46 522.286 300.92 522.286 300.24V299.7ZM526.049 296.44V294.4H528.029V291.62H530.429V294.4H533.069V296.44H530.429V300.64C530.429 301.12 530.515 301.5 530.689 301.78C530.875 302.06 531.235 302.2 531.769 302.2C531.982 302.2 532.215 302.18 532.469 302.14C532.722 302.087 532.922 302.007 533.069 301.9V303.92C532.815 304.04 532.502 304.12 532.129 304.16C531.769 304.213 531.449 304.24 531.169 304.24C530.529 304.24 530.002 304.167 529.589 304.02C529.189 303.887 528.869 303.68 528.629 303.4C528.402 303.107 528.242 302.747 528.149 302.32C528.069 301.893 528.029 301.4 528.029 300.84V296.44H526.049ZM535.002 294.4H537.402V304H535.002V294.4ZM534.662 291.14C534.662 290.753 534.802 290.42 535.082 290.14C535.375 289.847 535.742 289.7 536.182 289.7C536.622 289.7 536.988 289.84 537.282 290.12C537.588 290.387 537.742 290.727 537.742 291.14C537.742 291.553 537.588 291.9 537.282 292.18C536.988 292.447 536.622 292.58 536.182 292.58C535.742 292.58 535.375 292.44 535.082 292.16C534.802 291.867 534.662 291.527 534.662 291.14ZM539.677 299.2C539.677 298.44 539.81 297.753 540.077 297.14C540.357 296.513 540.73 295.98 541.197 295.54C541.664 295.1 542.217 294.76 542.857 294.52C543.497 294.28 544.177 294.16 544.897 294.16C545.617 294.16 546.297 294.28 546.937 294.52C547.577 294.76 548.13 295.1 548.597 295.54C549.064 295.98 549.43 296.513 549.697 297.14C549.977 297.753 550.117 298.44 550.117 299.2C550.117 299.96 549.977 300.653 549.697 301.28C549.43 301.893 549.064 302.42 548.597 302.86C548.13 303.3 547.577 303.64 546.937 303.88C546.297 304.12 545.617 304.24 544.897 304.24C544.177 304.24 543.497 304.12 542.857 303.88C542.217 303.64 541.664 303.3 541.197 302.86C540.73 302.42 540.357 301.893 540.077 301.28C539.81 300.653 539.677 299.96 539.677 299.2ZM542.077 299.2C542.077 299.573 542.137 299.933 542.257 300.28C542.39 300.627 542.577 300.933 542.817 301.2C543.07 301.467 543.37 301.68 543.717 301.84C544.064 302 544.457 302.08 544.897 302.08C545.337 302.08 545.73 302 546.077 301.84C546.424 301.68 546.717 301.467 546.957 301.2C547.21 300.933 547.397 300.627 547.517 300.28C547.65 299.933 547.717 299.573 547.717 299.2C547.717 298.827 547.65 298.467 547.517 298.12C547.397 297.773 547.21 297.467 546.957 297.2C546.717 296.933 546.424 296.72 546.077 296.56C545.73 296.4 545.337 296.32 544.897 296.32C544.457 296.32 544.064 296.4 543.717 296.56C543.37 296.72 543.07 296.933 542.817 297.2C542.577 297.467 542.39 297.773 542.257 298.12C542.137 298.467 542.077 298.827 542.077 299.2ZM552.364 294.4H554.644V295.94H554.684C554.911 295.46 555.257 295.047 555.724 294.7C556.191 294.34 556.824 294.16 557.624 294.16C558.264 294.16 558.804 294.267 559.244 294.48C559.697 294.693 560.064 294.973 560.344 295.32C560.624 295.667 560.824 296.067 560.944 296.52C561.064 296.973 561.124 297.447 561.124 297.94V304H558.724V299.14C558.724 298.873 558.711 298.58 558.684 298.26C558.657 297.927 558.584 297.62 558.464 297.34C558.357 297.047 558.184 296.807 557.944 296.62C557.704 296.42 557.377 296.32 556.964 296.32C556.564 296.32 556.224 296.387 555.944 296.52C555.677 296.653 555.451 296.833 555.264 297.06C555.091 297.287 554.964 297.547 554.884 297.84C554.804 298.133 554.764 298.44 554.764 298.76V304H552.364V294.4ZM568.968 297.06C568.502 296.407 567.875 296.08 567.088 296.08C566.768 296.08 566.455 296.16 566.148 296.32C565.842 296.48 565.688 296.74 565.688 297.1C565.688 297.393 565.815 297.607 566.068 297.74C566.322 297.873 566.642 297.987 567.028 298.08C567.415 298.173 567.828 298.273 568.268 298.38C568.722 298.473 569.142 298.627 569.528 298.84C569.915 299.04 570.235 299.32 570.488 299.68C570.742 300.04 570.868 300.533 570.868 301.16C570.868 301.733 570.742 302.22 570.488 302.62C570.248 303.007 569.928 303.32 569.528 303.56C569.142 303.8 568.702 303.973 568.208 304.08C567.715 304.187 567.222 304.24 566.728 304.24C565.982 304.24 565.295 304.133 564.668 303.92C564.042 303.707 563.482 303.32 562.988 302.76L564.588 301.26C564.895 301.607 565.222 301.893 565.568 302.12C565.928 302.333 566.362 302.44 566.868 302.44C567.042 302.44 567.222 302.42 567.408 302.38C567.595 302.34 567.768 302.273 567.928 302.18C568.088 302.087 568.215 301.973 568.308 301.84C568.415 301.693 568.468 301.527 568.468 301.34C568.468 301.007 568.342 300.76 568.088 300.6C567.835 300.44 567.515 300.313 567.128 300.22C566.742 300.113 566.322 300.02 565.868 299.94C565.428 299.847 565.015 299.707 564.628 299.52C564.242 299.32 563.922 299.047 563.668 298.7C563.415 298.353 563.288 297.873 563.288 297.26C563.288 296.727 563.395 296.267 563.608 295.88C563.835 295.48 564.128 295.153 564.488 294.9C564.848 294.647 565.262 294.46 565.728 294.34C566.195 294.22 566.668 294.16 567.148 294.16C567.788 294.16 568.422 294.273 569.048 294.5C569.675 294.713 570.182 295.087 570.568 295.62L568.968 297.06Z"
    fill="white"/>
  <path
    d="M92.6385 375.645C95.1837 375.645 97.641 375.557 100.098 375.292L109.489 391.647L132.22 384.132L130.289 365.302C134.589 362.738 138.626 359.821 142.312 356.461L159.514 364.153L173.556 344.615L161.006 330.558C163.025 326.05 164.517 321.276 165.57 316.325L184 312.347V288.212L165.57 284.234C164.517 279.283 162.937 274.509 161.006 270L173.556 255.855L159.426 236.317L142.225 244.009C138.539 240.649 134.502 237.732 130.201 235.257L132.132 216.426L109.401 209L100.011 225.444C97.5533 225.178 95.0959 225.09 92.5508 225.09C90.0056 225.09 87.5483 225.267 85.0909 225.444L75.6125 209.088L52.8819 216.603L54.8126 235.433C50.5122 237.997 46.4751 240.915 42.7891 244.186L25.5875 236.494L11.5454 256.032L24.0955 270.089C22.077 274.597 20.585 279.371 19.5318 284.322L1.18932 288.3V312.524L19.6196 316.502C20.6727 321.453 22.2525 326.226 24.1833 330.735L11.6332 344.88L25.6753 364.329L42.8768 356.638C46.5629 359.909 50.6 362.915 54.9004 365.39L52.9696 384.221L75.788 391.647L85.1787 375.203C87.636 375.469 90.0934 375.645 92.6385 375.645ZM26.3774 300.412C26.3774 263.635 55.9535 233.754 92.463 233.665C128.972 233.665 158.636 263.458 158.724 300.323C158.724 337.189 129.148 366.982 92.5508 367.07C56.0413 367.07 26.4651 337.277 26.3774 300.412Z"
    fill="#FF3F92"/>
  <path
    d="M87.1034 287.96C85.3567 288.893 83.4034 289.36 81.2434 289.36C80.15 289.36 79.1434 289.187 78.2234 288.84C77.3167 288.48 76.53 287.98 75.8634 287.34C75.21 286.687 74.6967 285.907 74.3234 285C73.95 284.093 73.7634 283.087 73.7634 281.98C73.7634 280.847 73.95 279.82 74.3234 278.9C74.6967 277.967 75.21 277.173 75.8634 276.52C76.53 275.867 77.3167 275.367 78.2234 275.02C79.1434 274.66 80.15 274.48 81.2434 274.48C82.3234 274.48 83.3367 274.613 84.2834 274.88C85.23 275.133 86.0767 275.593 86.8234 276.26L84.9634 278.14C84.51 277.7 83.9567 277.36 83.3034 277.12C82.6634 276.88 81.9834 276.76 81.2634 276.76C80.53 276.76 79.8634 276.893 79.2634 277.16C78.6767 277.413 78.17 277.773 77.7434 278.24C77.3167 278.693 76.9834 279.227 76.7434 279.84C76.5167 280.453 76.4034 281.113 76.4034 281.82C76.4034 282.58 76.5167 283.28 76.7434 283.92C76.9834 284.56 77.3167 285.113 77.7434 285.58C78.17 286.047 78.6767 286.413 79.2634 286.68C79.8634 286.947 80.53 287.08 81.2634 287.08C81.9034 287.08 82.5034 287.02 83.0634 286.9C83.6367 286.78 84.1434 286.593 84.5834 286.34V283H81.6834V280.72H87.1034V287.96ZM95.8698 287.68H95.8098C95.4631 288.227 95.0231 288.627 94.4898 288.88C93.9564 289.12 93.3698 289.24 92.7298 289.24C92.2898 289.24 91.8564 289.18 91.4298 289.06C91.0164 288.94 90.6431 288.76 90.3098 288.52C89.9898 288.28 89.7298 287.98 89.5298 287.62C89.3298 287.26 89.2298 286.84 89.2298 286.36C89.2298 285.84 89.3231 285.4 89.5098 285.04C89.6964 284.667 89.9431 284.36 90.2498 284.12C90.5698 283.867 90.9364 283.667 91.3498 283.52C91.7631 283.373 92.1898 283.267 92.6298 283.2C93.0831 283.12 93.5364 283.073 93.9898 283.06C94.4431 283.033 94.8698 283.02 95.2698 283.02H95.8698V282.76C95.8698 282.16 95.6631 281.713 95.2498 281.42C94.8364 281.113 94.3098 280.96 93.6698 280.96C93.1631 280.96 92.6898 281.053 92.2498 281.24C91.8098 281.413 91.4298 281.653 91.1098 281.96L89.8498 280.7C90.3831 280.153 91.0031 279.76 91.7098 279.52C92.4298 279.28 93.1698 279.16 93.9298 279.16C94.6098 279.16 95.1831 279.24 95.6498 279.4C96.1164 279.547 96.5031 279.74 96.8098 279.98C97.1164 280.22 97.3498 280.5 97.5098 280.82C97.6831 281.127 97.8031 281.44 97.8698 281.76C97.9498 282.08 97.9964 282.393 98.0098 282.7C98.0231 282.993 98.0298 283.253 98.0298 283.48V289H95.8698V287.68ZM95.7298 284.7H95.2298C94.8964 284.7 94.5231 284.713 94.1098 284.74C93.6964 284.767 93.3031 284.833 92.9298 284.94C92.5698 285.033 92.2631 285.18 92.0098 285.38C91.7564 285.567 91.6298 285.833 91.6298 286.18C91.6298 286.407 91.6764 286.6 91.7698 286.76C91.8764 286.907 92.0098 287.033 92.1698 287.14C92.3298 287.247 92.5098 287.327 92.7098 287.38C92.9098 287.42 93.1098 287.44 93.3098 287.44C94.1364 287.44 94.7431 287.247 95.1298 286.86C95.5298 286.46 95.7298 285.92 95.7298 285.24V284.7ZM105.732 282.06C105.265 281.407 104.639 281.08 103.852 281.08C103.532 281.08 103.219 281.16 102.912 281.32C102.605 281.48 102.452 281.74 102.452 282.1C102.452 282.393 102.579 282.607 102.832 282.74C103.085 282.873 103.405 282.987 103.792 283.08C104.179 283.173 104.592 283.273 105.032 283.38C105.485 283.473 105.905 283.627 106.292 283.84C106.679 284.04 106.999 284.32 107.252 284.68C107.505 285.04 107.632 285.533 107.632 286.16C107.632 286.733 107.505 287.22 107.252 287.62C107.012 288.007 106.692 288.32 106.292 288.56C105.905 288.8 105.465 288.973 104.972 289.08C104.479 289.187 103.985 289.24 103.492 289.24C102.745 289.24 102.059 289.133 101.432 288.92C100.805 288.707 100.245 288.32 99.752 287.76L101.352 286.26C101.659 286.607 101.985 286.893 102.332 287.12C102.692 287.333 103.125 287.44 103.632 287.44C103.805 287.44 103.985 287.42 104.172 287.38C104.359 287.34 104.532 287.273 104.692 287.18C104.852 287.087 104.979 286.973 105.072 286.84C105.179 286.693 105.232 286.527 105.232 286.34C105.232 286.007 105.105 285.76 104.852 285.6C104.599 285.44 104.279 285.313 103.892 285.22C103.505 285.113 103.085 285.02 102.632 284.94C102.192 284.847 101.779 284.707 101.392 284.52C101.005 284.32 100.685 284.047 100.432 283.7C100.179 283.353 100.052 282.873 100.052 282.26C100.052 281.727 100.159 281.267 100.372 280.88C100.599 280.48 100.892 280.153 101.252 279.9C101.612 279.647 102.025 279.46 102.492 279.34C102.959 279.22 103.432 279.16 103.912 279.16C104.552 279.16 105.185 279.273 105.812 279.5C106.439 279.713 106.945 280.087 107.332 280.62L105.732 282.06ZM35.6495 317.2C35.6495 316.44 35.7829 315.753 36.0495 315.14C36.3295 314.513 36.7029 313.98 37.1695 313.54C37.6362 313.1 38.1895 312.76 38.8295 312.52C39.4695 312.28 40.1495 312.16 40.8695 312.16C41.5895 312.16 42.2695 312.28 42.9095 312.52C43.5495 312.76 44.1029 313.1 44.5695 313.54C45.0362 313.98 45.4029 314.513 45.6695 315.14C45.9495 315.753 46.0895 316.44 46.0895 317.2C46.0895 317.96 45.9495 318.653 45.6695 319.28C45.4029 319.893 45.0362 320.42 44.5695 320.86C44.1029 321.3 43.5495 321.64 42.9095 321.88C42.2695 322.12 41.5895 322.24 40.8695 322.24C40.1495 322.24 39.4695 322.12 38.8295 321.88C38.1895 321.64 37.6362 321.3 37.1695 320.86C36.7029 320.42 36.3295 319.893 36.0495 319.28C35.7829 318.653 35.6495 317.96 35.6495 317.2ZM38.0495 317.2C38.0495 317.573 38.1095 317.933 38.2295 318.28C38.3629 318.627 38.5495 318.933 38.7895 319.2C39.0429 319.467 39.3429 319.68 39.6895 319.84C40.0362 320 40.4295 320.08 40.8695 320.08C41.3095 320.08 41.7029 320 42.0495 319.84C42.3962 319.68 42.6895 319.467 42.9295 319.2C43.1829 318.933 43.3695 318.627 43.4895 318.28C43.6229 317.933 43.6895 317.573 43.6895 317.2C43.6895 316.827 43.6229 316.467 43.4895 316.12C43.3695 315.773 43.1829 315.467 42.9295 315.2C42.6895 314.933 42.3962 314.72 42.0495 314.56C41.7029 314.4 41.3095 314.32 40.8695 314.32C40.4295 314.32 40.0362 314.4 39.6895 314.56C39.3429 314.72 39.0429 314.933 38.7895 315.2C38.5495 315.467 38.3629 315.773 38.2295 316.12C38.1095 316.467 38.0495 316.827 38.0495 317.2ZM48.3366 312.4H50.6166V313.84H50.6566C51.0032 313.253 51.4699 312.827 52.0566 312.56C52.6432 312.293 53.2766 312.16 53.9566 312.16C54.6899 312.16 55.3499 312.293 55.9366 312.56C56.5232 312.813 57.0232 313.167 57.4366 313.62C57.8499 314.073 58.1632 314.607 58.3766 315.22C58.5899 315.833 58.6966 316.493 58.6966 317.2C58.6966 317.907 58.5832 318.567 58.3566 319.18C58.1299 319.793 57.8099 320.327 57.3966 320.78C56.9966 321.233 56.5099 321.593 55.9366 321.86C55.3632 322.113 54.7366 322.24 54.0566 322.24C53.6032 322.24 53.2032 322.193 52.8566 322.1C52.5099 322.007 52.2032 321.887 51.9366 321.74C51.6699 321.593 51.4432 321.44 51.2566 321.28C51.0699 321.107 50.9166 320.94 50.7966 320.78H50.7366V326.56H48.3366V312.4ZM56.2966 317.2C56.2966 316.827 56.2299 316.467 56.0966 316.12C55.9766 315.773 55.7899 315.467 55.5366 315.2C55.2966 314.933 55.0032 314.72 54.6566 314.56C54.3099 314.4 53.9166 314.32 53.4766 314.32C53.0366 314.32 52.6432 314.4 52.2966 314.56C51.9499 314.72 51.6499 314.933 51.3966 315.2C51.1566 315.467 50.9699 315.773 50.8366 316.12C50.7166 316.467 50.6566 316.827 50.6566 317.2C50.6566 317.573 50.7166 317.933 50.8366 318.28C50.9699 318.627 51.1566 318.933 51.3966 319.2C51.6499 319.467 51.9499 319.68 52.2966 319.84C52.6432 320 53.0366 320.08 53.4766 320.08C53.9166 320.08 54.3099 320 54.6566 319.84C55.0032 319.68 55.2966 319.467 55.5366 319.2C55.7899 318.933 55.9766 318.627 56.0966 318.28C56.2299 317.933 56.2966 317.573 56.2966 317.2ZM59.8142 314.44V312.4H61.7942V309.62H64.1942V312.4H66.8342V314.44H64.1942V318.64C64.1942 319.12 64.2809 319.5 64.4542 319.78C64.6409 320.06 65.0009 320.2 65.5342 320.2C65.7476 320.2 65.9809 320.18 66.2342 320.14C66.4876 320.087 66.6876 320.007 66.8342 319.9V321.92C66.5809 322.04 66.2676 322.12 65.8942 322.16C65.5342 322.213 65.2142 322.24 64.9342 322.24C64.2942 322.24 63.7676 322.167 63.3542 322.02C62.9542 321.887 62.6342 321.68 62.3942 321.4C62.1676 321.107 62.0076 320.747 61.9142 320.32C61.8342 319.893 61.7942 319.4 61.7942 318.84V314.44H59.8142ZM68.7672 312.4H71.1672V322H68.7672V312.4ZM68.4272 309.14C68.4272 308.753 68.5672 308.42 68.8472 308.14C69.1405 307.847 69.5072 307.7 69.9472 307.7C70.3872 307.7 70.7539 307.84 71.0472 308.12C71.3539 308.387 71.5072 308.727 71.5072 309.14C71.5072 309.553 71.3539 309.9 71.0472 310.18C70.7539 310.447 70.3872 310.58 69.9472 310.58C69.5072 310.58 69.1405 310.44 68.8472 310.16C68.5672 309.867 68.4272 309.527 68.4272 309.14ZM73.8225 312.4H76.1025V313.9H76.1425C76.3558 313.447 76.6958 313.047 77.1625 312.7C77.6425 312.34 78.2825 312.16 79.0825 312.16C80.5892 312.16 81.5892 312.753 82.0825 313.94C82.4292 313.327 82.8625 312.88 83.3825 312.6C83.9025 312.307 84.5225 312.16 85.2425 312.16C85.8825 312.16 86.4225 312.267 86.8625 312.48C87.3025 312.693 87.6558 312.987 87.9225 313.36C88.2025 313.733 88.4025 314.173 88.5225 314.68C88.6425 315.173 88.7025 315.707 88.7025 316.28V322H86.3025V316.56C86.3025 316.267 86.2758 315.987 86.2225 315.72C86.1692 315.44 86.0758 315.2 85.9425 315C85.8092 314.787 85.6292 314.62 85.4025 314.5C85.1758 314.38 84.8825 314.32 84.5225 314.32C84.1492 314.32 83.8292 314.393 83.5625 314.54C83.3092 314.673 83.0958 314.86 82.9225 315.1C82.7625 315.327 82.6425 315.593 82.5625 315.9C82.4958 316.193 82.4625 316.493 82.4625 316.8V322H80.0625V316.28C80.0625 315.68 79.9358 315.207 79.6825 314.86C79.4292 314.5 79.0092 314.32 78.4225 314.32C78.0225 314.32 77.6825 314.387 77.4025 314.52C77.1358 314.653 76.9092 314.833 76.7225 315.06C76.5492 315.287 76.4225 315.547 76.3425 315.84C76.2625 316.133 76.2225 316.44 76.2225 316.76V322H73.8225V312.4ZM91.3648 312.4H93.7648V322H91.3648V312.4ZM91.0248 309.14C91.0248 308.753 91.1648 308.42 91.4448 308.14C91.7382 307.847 92.1048 307.7 92.5448 307.7C92.9848 307.7 93.3515 307.84 93.6448 308.12C93.9515 308.387 94.1048 308.727 94.1048 309.14C94.1048 309.553 93.9515 309.9 93.6448 310.18C93.3515 310.447 92.9848 310.58 92.5448 310.58C92.1048 310.58 91.7382 310.44 91.4448 310.16C91.1648 309.867 91.0248 309.527 91.0248 309.14ZM95.8402 319.78L100.98 314.36V314.32H96.0802V312.4H103.88V314.58L98.6802 320.08H104.12V322H95.8402V319.78ZM112.169 320.68H112.109C111.762 321.227 111.322 321.627 110.789 321.88C110.255 322.12 109.669 322.24 109.029 322.24C108.589 322.24 108.155 322.18 107.729 322.06C107.315 321.94 106.942 321.76 106.609 321.52C106.289 321.28 106.029 320.98 105.829 320.62C105.629 320.26 105.529 319.84 105.529 319.36C105.529 318.84 105.622 318.4 105.809 318.04C105.995 317.667 106.242 317.36 106.549 317.12C106.869 316.867 107.235 316.667 107.649 316.52C108.062 316.373 108.489 316.267 108.929 316.2C109.382 316.12 109.835 316.073 110.289 316.06C110.742 316.033 111.169 316.02 111.569 316.02H112.169V315.76C112.169 315.16 111.962 314.713 111.549 314.42C111.135 314.113 110.609 313.96 109.969 313.96C109.462 313.96 108.989 314.053 108.549 314.24C108.109 314.413 107.729 314.653 107.409 314.96L106.149 313.7C106.682 313.153 107.302 312.76 108.009 312.52C108.729 312.28 109.469 312.16 110.229 312.16C110.909 312.16 111.482 312.24 111.949 312.4C112.415 312.547 112.802 312.74 113.109 312.98C113.415 313.22 113.649 313.5 113.809 313.82C113.982 314.127 114.102 314.44 114.169 314.76C114.249 315.08 114.295 315.393 114.309 315.7C114.322 315.993 114.329 316.253 114.329 316.48V322H112.169V320.68ZM112.029 317.7H111.529C111.195 317.7 110.822 317.713 110.409 317.74C109.995 317.767 109.602 317.833 109.229 317.94C108.869 318.033 108.562 318.18 108.309 318.38C108.055 318.567 107.929 318.833 107.929 319.18C107.929 319.407 107.975 319.6 108.069 319.76C108.175 319.907 108.309 320.033 108.469 320.14C108.629 320.247 108.809 320.327 109.009 320.38C109.209 320.42 109.409 320.44 109.609 320.44C110.435 320.44 111.042 320.247 111.429 319.86C111.829 319.46 112.029 318.92 112.029 318.24V317.7ZM115.791 314.44V312.4H117.771V309.62H120.171V312.4H122.811V314.44H120.171V318.64C120.171 319.12 120.257 319.5 120.431 319.78C120.617 320.06 120.977 320.2 121.511 320.2C121.724 320.2 121.957 320.18 122.211 320.14C122.464 320.087 122.664 320.007 122.811 319.9V321.92C122.557 322.04 122.244 322.12 121.871 322.16C121.511 322.213 121.191 322.24 120.911 322.24C120.271 322.24 119.744 322.167 119.331 322.02C118.931 321.887 118.611 321.68 118.371 321.4C118.144 321.107 117.984 320.747 117.891 320.32C117.811 319.893 117.771 319.4 117.771 318.84V314.44H115.791ZM124.744 312.4H127.144V322H124.744V312.4ZM124.404 309.14C124.404 308.753 124.544 308.42 124.824 308.14C125.117 307.847 125.484 307.7 125.924 307.7C126.364 307.7 126.73 307.84 127.024 308.12C127.33 308.387 127.484 308.727 127.484 309.14C127.484 309.553 127.33 309.9 127.024 310.18C126.73 310.447 126.364 310.58 125.924 310.58C125.484 310.58 125.117 310.44 124.824 310.16C124.544 309.867 124.404 309.527 124.404 309.14ZM129.419 317.2C129.419 316.44 129.552 315.753 129.819 315.14C130.099 314.513 130.472 313.98 130.939 313.54C131.406 313.1 131.959 312.76 132.599 312.52C133.239 312.28 133.919 312.16 134.639 312.16C135.359 312.16 136.039 312.28 136.679 312.52C137.319 312.76 137.872 313.1 138.339 313.54C138.806 313.98 139.172 314.513 139.439 315.14C139.719 315.753 139.859 316.44 139.859 317.2C139.859 317.96 139.719 318.653 139.439 319.28C139.172 319.893 138.806 320.42 138.339 320.86C137.872 321.3 137.319 321.64 136.679 321.88C136.039 322.12 135.359 322.24 134.639 322.24C133.919 322.24 133.239 322.12 132.599 321.88C131.959 321.64 131.406 321.3 130.939 320.86C130.472 320.42 130.099 319.893 129.819 319.28C129.552 318.653 129.419 317.96 129.419 317.2ZM131.819 317.2C131.819 317.573 131.879 317.933 131.999 318.28C132.132 318.627 132.319 318.933 132.559 319.2C132.812 319.467 133.112 319.68 133.459 319.84C133.806 320 134.199 320.08 134.639 320.08C135.079 320.08 135.472 320 135.819 319.84C136.166 319.68 136.459 319.467 136.699 319.2C136.952 318.933 137.139 318.627 137.259 318.28C137.392 317.933 137.459 317.573 137.459 317.2C137.459 316.827 137.392 316.467 137.259 316.12C137.139 315.773 136.952 315.467 136.699 315.2C136.459 314.933 136.166 314.72 135.819 314.56C135.472 314.4 135.079 314.32 134.639 314.32C134.199 314.32 133.806 314.4 133.459 314.56C133.112 314.72 132.812 314.933 132.559 315.2C132.319 315.467 132.132 315.773 131.999 316.12C131.879 316.467 131.819 316.827 131.819 317.2ZM142.106 312.4H144.386V313.94H144.426C144.653 313.46 144.999 313.047 145.466 312.7C145.933 312.34 146.566 312.16 147.366 312.16C148.006 312.16 148.546 312.267 148.986 312.48C149.439 312.693 149.806 312.973 150.086 313.32C150.366 313.667 150.566 314.067 150.686 314.52C150.806 314.973 150.866 315.447 150.866 315.94V322H148.466V317.14C148.466 316.873 148.453 316.58 148.426 316.26C148.399 315.927 148.326 315.62 148.206 315.34C148.099 315.047 147.926 314.807 147.686 314.62C147.446 314.42 147.119 314.32 146.706 314.32C146.306 314.32 145.966 314.387 145.686 314.52C145.419 314.653 145.193 314.833 145.006 315.06C144.833 315.287 144.706 315.547 144.626 315.84C144.546 316.133 144.506 316.44 144.506 316.76V322H142.106V312.4Z"
    fill="white"/>
</svg>
