<svg width="1145" height="204" viewBox="0 0 1145 204" fill="none" xmlns="http://www.w3.org/2000/svg">
 <title>[Icon] Applications</title>
  <circle cx="41.5" cy="135.5" r="40.5" stroke="white" stroke-width="2"/>
  <path
    d="M41.5 153C51.1493 153 59 145.15 59 135.5C59 125.85 51.1493 118 41.5 118C31.8507 118 24 125.85 24 135.5C24 145.15 31.8507 153 41.5 153ZM41.5 119.193C50.4914 119.193 57.8068 126.509 57.8068 135.5C57.8068 144.491 50.4914 151.807 41.5 151.807C32.5086 151.807 25.1932 144.491 25.1932 135.5C25.1932 126.509 32.5086 119.193 41.5 119.193Z"
    fill="white"/>
  <path
    d="M41.5003 150.149C49.5782 150.149 56.1498 143.578 56.1498 135.5C56.1498 127.422 49.5782 120.85 41.5003 120.85C33.4225 120.85 26.8508 127.422 26.8508 135.5C26.8508 143.578 33.4225 150.149 41.5003 150.149ZM40.2081 136.186L41.5003 133.123L42.7925 136.186L41.5003 135.637L40.2081 136.186ZM41.5003 122.044C48.9199 122.044 54.9566 128.08 54.9566 135.5C54.9566 140.029 52.7047 144.04 49.2644 146.48V132.841L52.204 134.089L48.6678 125.707L45.1316 134.089L48.0712 132.841V147.236C46.2898 148.238 44.2594 148.846 42.0969 148.941V137.187L45.0365 138.436L41.5003 130.053L37.9641 138.436L40.9037 137.187V148.941C38.7413 148.846 36.7113 148.238 34.9295 147.236V140.085L37.8695 141.334L34.3329 132.951L30.7967 141.334L33.7363 140.085V146.48C30.2959 144.04 28.044 140.029 28.044 135.5C28.044 128.08 34.0807 122.044 41.5003 122.044ZM48.6678 131.291L47.3751 131.84L48.6678 128.777L49.96 131.84L48.6678 131.291ZM34.3329 138.535L33.0407 139.084L34.3329 136.021L35.6251 139.084L34.3329 138.535Z"
    fill="white"/>
  <circle cx="159.5" cy="52.5" r="40.5" stroke="white" stroke-width="2"/>
  <path
    d="M168.052 29.2783H149.761C147.587 29.2783 145.838 31.0271 145.838 33.2012V71.7679C145.838 73.942 147.587 75.6907 149.761 75.6907H168.052C170.226 75.6907 171.975 73.942 171.975 71.7679V33.2012C171.927 31.0271 170.179 29.2783 168.052 29.2783ZM149.761 30.7907H168.052C169.375 30.7907 170.462 31.8778 170.462 33.2012V35.3753H147.303V33.2012C147.303 31.8778 148.39 30.7907 149.761 30.7907ZM170.462 36.8877V67.6087H147.303V36.8877H170.462ZM168.052 74.2256H149.761C148.438 74.2256 147.351 73.1385 147.351 71.8152V69.1212H170.51V71.8152C170.462 73.0913 169.375 74.2256 168.052 74.2256Z"
    fill="white"/>
  <path
    d="M158.883 73.1387C159.744 73.1387 160.443 72.4404 160.443 71.579C160.443 70.7176 159.744 70.0193 158.883 70.0193C158.022 70.0193 157.323 70.7176 157.323 71.579C157.323 72.4404 158.022 73.1387 158.883 73.1387Z"
    fill="white"/>
  <path
    d="M158.836 73.1387C159.697 73.1387 160.395 72.4404 160.395 71.579C160.395 70.7176 159.697 70.0193 158.836 70.0193C157.974 70.0193 157.276 70.7176 157.276 71.579C157.276 72.4404 157.974 73.1387 158.836 73.1387Z"
    fill="white"/>
  <path
    d="M156 32.6343C155.669 32.6343 155.385 32.9179 155.385 33.2487C155.385 33.5795 155.669 33.8631 156 33.8631H161.624C161.955 33.8631 162.238 33.5795 162.238 33.2487C162.238 32.8706 161.955 32.6343 161.624 32.6343H156Z"
    fill="white"/>
  <path
    d="M181.427 42.5595H180.718V41.8506C180.718 41.6142 180.529 41.3779 180.246 41.3779C180.009 41.3779 179.773 41.567 179.773 41.8506V42.5595H179.064C178.828 42.5595 178.592 42.7486 178.592 43.0321C178.592 43.2685 178.781 43.5048 179.064 43.5048H179.773V44.2137C179.773 44.45 179.962 44.6864 180.246 44.6864C180.482 44.6864 180.718 44.4973 180.718 44.2137V43.5048H181.427C181.664 43.5048 181.9 43.3157 181.9 43.0321C181.853 42.7486 181.664 42.5595 181.427 42.5595Z"
    fill="white"/>
  <path
    d="M142.955 60.85H142.246V60.1411C142.246 59.9048 142.057 59.6685 141.774 59.6685C141.537 59.6685 141.301 59.8575 141.301 60.1411V60.85H140.639C140.403 60.85 140.167 61.0391 140.167 61.3227C140.167 61.6062 140.356 61.7953 140.639 61.7953H141.348V62.5042C141.348 62.7406 141.537 62.9769 141.821 62.9769C142.057 62.9769 142.294 62.7878 142.294 62.5042V61.7953H143.003C143.239 61.7953 143.475 61.6062 143.475 61.3227C143.475 61.0391 143.239 60.85 142.955 60.85Z"
    fill="white"/>
  <path
    d="M142.01 37.7859H140.828V36.6043C140.828 36.2735 140.545 35.9426 140.166 35.9426C139.836 35.9426 139.505 36.2262 139.505 36.6043V37.7859H138.37C138.04 37.7859 137.709 38.0695 137.709 38.4476C137.709 38.7784 137.992 39.1093 138.37 39.1093H139.552V40.2908C139.552 40.6217 139.836 40.9525 140.214 40.9525C140.545 40.9525 140.875 40.6689 140.875 40.2908V39.1093H142.057C142.388 39.1093 142.719 38.8257 142.719 38.4476C142.671 38.0695 142.388 37.7859 142.01 37.7859Z"
    fill="white"/>
  <path
    d="M137.851 51.681C138.321 51.681 138.701 51.3001 138.701 50.8302C138.701 50.3604 138.321 49.9795 137.851 49.9795C137.381 49.9795 137 50.3604 137 50.8302C137 51.3001 137.381 51.681 137.851 51.681Z"
    fill="white"/>
  <path
    d="M177.127 69.2156C177.596 69.2156 177.977 68.8347 177.977 68.3649C177.977 67.895 177.596 67.5142 177.127 67.5142C176.657 67.5142 176.276 67.895 176.276 68.3649C176.276 68.8347 176.657 69.2156 177.127 69.2156Z"
    fill="white"/>
  <path
    d="M176.417 37.4548C176.992 37.4548 177.457 36.9893 177.457 36.415C177.457 35.8408 176.992 35.3752 176.417 35.3752C175.843 35.3752 175.378 35.8408 175.378 36.415C175.378 36.9893 175.843 37.4548 176.417 37.4548Z"
    fill="white"/>
  <path
    d="M167.154 48.1834C167.106 47.8998 166.445 45.3003 163.94 44.355C162.427 43.7879 159.828 43.6934 158.788 43.6934C157.748 43.6934 155.149 43.7879 153.636 44.355C151.037 45.3476 150.47 48.0888 150.423 48.1834C150.092 49.4595 149.95 50.9246 149.95 52.4843C149.95 54.044 150.092 55.4619 150.423 56.738C150.47 56.8325 151.037 59.621 153.636 60.6136C155.149 61.1807 157.748 61.2753 158.788 61.2753C159.828 61.2753 162.427 61.1807 163.94 60.6136C166.539 59.621 167.106 56.8798 167.154 56.7853C167.485 55.5091 167.626 54.044 167.626 52.4843C167.626 50.9246 167.485 49.5067 167.154 48.1834ZM153.826 57.4469C153.826 57.4469 154.676 53.8549 156.047 55.2256C157.418 56.5962 153.826 57.4469 153.826 57.4469ZM163.798 47.7107C163.751 51.7281 161.671 53.6659 159.97 54.5639L160.348 56.1236L159.544 56.927L157.654 55.0365C157.654 55.3674 157.512 55.6982 157.228 55.9818L155.243 53.9967C155.48 53.7604 155.858 53.6186 156.189 53.5714L154.298 51.6808L155.102 50.8774L156.661 51.2555C157.559 49.6013 159.497 47.4744 163.514 47.4271H163.751L163.798 47.7107Z"
    fill="white"/>
  <path
    d="M161.34 50.8778C161.862 50.8778 162.286 50.4546 162.286 49.9326C162.286 49.4105 161.862 48.9873 161.34 48.9873C160.818 48.9873 160.395 49.4105 160.395 49.9326C160.395 50.4546 160.818 50.8778 161.34 50.8778Z"
    fill="white"/>
  <circle cx="278.5" cy="162.5" r="40.5" stroke="white" stroke-width="2"/>
  <path
    d="M295.07 152.348C295.07 149.131 292.453 146.513 289.235 146.513H266.886C263.669 146.513 261.051 149.131 261.051 152.348V179.458L261.778 178.004C261.802 177.957 264.156 173.31 266.886 173.31H289.235C292.453 173.31 295.07 170.692 295.07 167.475V152.348ZM294.303 167.475C294.303 170.269 292.03 172.543 289.235 172.543H266.886C264.673 172.543 262.798 174.893 261.819 176.411V152.348C261.819 149.554 264.092 147.281 266.886 147.281H289.235C292.03 147.281 294.303 149.554 294.303 152.348V167.475Z"
    fill="white"/>
  <path d="M286.634 169.087H289.347V150.737H286.634V169.087ZM287.401 151.505H288.58V168.32H287.401V151.505Z"
        fill="white"/>
  <path d="M281.669 169.087H284.382V154.865H281.669V169.087ZM282.437 155.632H283.615V168.32H282.437V155.632Z"
        fill="white"/>
  <path d="M276.704 169.087H279.417V157.776H276.704V169.087ZM277.471 158.543H278.65V168.32H277.471V158.543Z"
        fill="white"/>
  <path d="M271.74 169.088H274.453V161.593H271.74V169.088ZM272.507 162.36H273.685V168.32H272.507V162.36Z" fill="white"/>
  <path d="M266.775 169.088H269.488V164.517H266.775V169.088ZM267.542 165.284H268.721V168.321H267.542V165.284Z"
        fill="white"/>
  <path
    d="M269.075 183.06C269.075 182.392 268.532 181.849 267.864 181.849C267.197 181.849 266.654 182.392 266.654 183.06C266.654 183.727 267.197 184.27 267.864 184.27C268.532 184.27 269.075 183.727 269.075 183.06ZM267.037 183.06C267.037 182.603 267.408 182.232 267.864 182.232C268.32 182.232 268.691 182.604 268.691 183.06C268.691 183.515 268.32 183.887 267.864 183.887C267.408 183.887 267.037 183.516 267.037 183.06Z"
    fill="white"/>
  <path
    d="M256.679 155.255L257.778 154.677L258.877 155.255L258.667 154.031L259.556 153.164L258.328 152.986L257.778 151.873L257.229 152.986L256 153.164L256.889 154.031L256.679 155.255ZM256.825 153.433L257.484 153.337L257.778 152.74L258.073 153.337L258.732 153.433L258.255 153.897L258.368 154.554L257.778 154.244L257.189 154.553L257.301 153.897L256.825 153.433Z"
    fill="white"/>
  <path
    d="M267.262 142.675L267.112 143.549L267.896 143.137L268.681 143.549L268.532 142.675L269.167 142.056L268.289 141.929L267.897 141.134L267.505 141.929L266.627 142.056L267.262 142.675ZM267.759 142.279L267.896 142.001L268.034 142.279L268.342 142.324L268.119 142.541L268.172 142.847L267.897 142.703L267.622 142.847L267.674 142.541L267.452 142.324L267.759 142.279Z"
    fill="white"/>
  <path
    d="M296.704 172.565L297.339 173.184L297.189 174.059L297.974 173.646L298.759 174.059L298.609 173.184L299.244 172.565L298.366 172.438L297.974 171.643L297.582 172.438L296.704 172.565ZM297.975 172.51L298.112 172.788L298.42 172.833L298.197 173.051L298.25 173.358L297.975 173.213L297.699 173.358L297.752 173.051L297.529 172.833L297.837 172.788L297.975 172.51Z"
    fill="white"/>
  <path
    d="M297.974 144.814L297.466 146.378H295.822L297.152 147.344L296.644 148.907L297.974 147.941L299.304 148.907L298.796 147.344L300.126 146.378H298.482L297.974 144.814ZM298.345 147.198L298.574 147.903L297.974 147.467L297.374 147.903L297.603 147.198L297.003 146.761H297.745L297.974 146.056L298.204 146.761H298.946L298.345 147.198Z"
    fill="white"/>
  <path
    d="M293.904 140.42C293.237 140.42 292.694 140.964 292.694 141.631C292.694 142.299 293.237 142.842 293.904 142.842C294.572 142.842 295.115 142.299 295.115 141.631C295.115 140.964 294.572 140.42 293.904 140.42ZM293.904 142.458C293.448 142.458 293.077 142.087 293.077 141.631C293.077 141.175 293.449 140.804 293.904 140.804C294.36 140.804 294.732 141.175 294.732 141.631C294.732 142.087 294.36 142.458 293.904 142.458Z"
    fill="white"/>
  <path
    d="M297.782 162.849C297.782 163.388 298.221 163.827 298.76 163.827C299.299 163.827 299.738 163.388 299.738 162.849C299.738 162.31 299.299 161.872 298.76 161.872C298.221 161.872 297.782 162.311 297.782 162.849ZM298.76 162.255C299.087 162.255 299.354 162.522 299.354 162.849C299.354 163.177 299.087 163.443 298.76 163.443C298.433 163.443 298.166 163.177 298.166 162.849C298.166 162.522 298.433 162.255 298.76 162.255Z"
    fill="white"/>
  <path
    d="M259.804 146.565C259.804 147.267 260.375 147.837 261.076 147.837C261.777 147.837 262.348 147.267 262.348 146.565C262.348 145.864 261.777 145.294 261.076 145.294C260.375 145.294 259.804 145.865 259.804 146.565ZM261.076 145.678C261.566 145.678 261.964 146.076 261.964 146.565C261.964 147.056 261.566 147.454 261.076 147.454C260.586 147.454 260.188 147.055 260.188 146.565C260.188 146.076 260.586 145.678 261.076 145.678Z"
    fill="white"/>
  <path
    d="M265.239 182.872C265.074 182.838 264.91 182.801 264.748 182.761L264.654 183.134C264.822 183.177 264.992 183.215 265.164 183.249L265.239 182.872Z"
    fill="white"/>
  <path
    d="M256.76 173.013C256.76 173.183 256.764 173.351 256.772 173.519L257.156 173.501C257.148 173.339 257.144 173.177 257.144 173.013C257.144 172.847 257.148 172.68 257.156 172.511L256.772 172.492C256.764 172.667 256.76 172.841 256.76 173.013Z"
    fill="white"/>
  <path
    d="M262.892 182.095L262.728 182.442C263.035 182.588 263.354 182.72 263.674 182.835L263.804 182.474C263.495 182.363 263.188 182.235 262.892 182.095Z"
    fill="white"/>
  <path
    d="M259.46 180.011C259.688 180.264 259.931 180.509 260.185 180.739L260.444 180.454C260.2 180.232 259.965 179.997 259.746 179.753L259.46 180.011Z"
    fill="white"/>
  <path
    d="M260.973 181.387C261.247 181.591 261.533 181.783 261.824 181.958L262.022 181.629C261.742 181.46 261.466 181.276 261.202 181.079L260.973 181.387Z"
    fill="white"/>
  <path
    d="M259.121 178.99C258.926 178.727 258.742 178.451 258.573 178.17L258.244 178.367C258.419 178.659 258.61 178.945 258.812 179.219L259.121 178.99Z"
    fill="white"/>
  <path
    d="M256.872 174.535C256.922 174.871 256.989 175.208 257.072 175.538L257.445 175.445C257.365 175.127 257.3 174.802 257.252 174.478L256.872 174.535Z"
    fill="white"/>
  <path
    d="M258.108 177.299C257.967 177.001 257.84 176.695 257.73 176.388L257.369 176.517C257.483 176.836 257.615 177.154 257.762 177.462L258.108 177.299Z"
    fill="white"/>
  <path
    d="M256.874 171.467L257.255 171.524C257.279 171.359 257.308 171.193 257.341 171.028L256.964 170.952C256.929 171.124 256.9 171.295 256.874 171.467Z"
    fill="white"/>
  <path
    d="M299.395 176.676L299.01 176.668C299.007 176.836 298.998 177.002 298.983 177.167L299.366 177.202C299.381 177.028 299.391 176.853 299.395 176.676Z"
    fill="white"/>
  <path
    d="M297.277 181.093L297.564 181.348C297.819 181.061 298.052 180.753 298.257 180.433L297.933 180.226C297.739 180.53 297.519 180.822 297.277 181.093Z"
    fill="white"/>
  <path
    d="M296.736 182.142L296.493 181.845C296.212 182.075 295.912 182.284 295.6 182.466L295.793 182.797C296.123 182.604 296.441 182.384 296.736 182.142Z"
    fill="white"/>
  <path
    d="M293.66 183.625C294.033 183.546 294.404 183.435 294.761 183.297L294.622 182.939C294.284 183.07 293.934 183.174 293.581 183.249L293.66 183.625Z"
    fill="white"/>
  <path
    d="M298.445 179.266L298.797 179.419C298.949 179.069 299.074 178.704 299.169 178.333L298.798 178.238C298.708 178.588 298.589 178.934 298.445 179.266Z"
    fill="white"/>
  <path
    d="M292.001 183.398L291.993 183.783C292.043 183.784 292.092 183.784 292.142 183.784C292.269 183.784 292.395 183.781 292.52 183.775L292.5 183.391C292.335 183.399 292.168 183.402 292.001 183.398Z"
    fill="white"/>
  <path d="M298.953 156.399H298.568V157.425H298.953V156.399Z" fill="white"/>
  <path d="M298.953 158.445H298.568V159.471H298.953V158.445Z" fill="white"/>
  <path d="M298.953 152.307H298.568V153.332H298.953V152.307Z" fill="white"/>
  <path d="M298.953 154.353H298.568V155.378H298.953V154.353Z" fill="white"/>
  <circle cx="395.5" cy="43.5" r="40.5" stroke="white" stroke-width="2"/>
  <path
    d="M395.5 61C405.149 61 413 53.1497 413 43.5C413 33.8503 405.149 26 395.5 26C385.851 26 378 33.8503 378 43.5C378 53.1497 385.851 61 395.5 61ZM395.5 27.1932C404.491 27.1932 411.807 34.5086 411.807 43.5C411.807 52.4914 404.491 59.8068 395.5 59.8068C386.509 59.8068 379.193 52.4914 379.193 43.5C379.193 34.5086 386.509 27.1932 395.5 27.1932Z"
    fill="white"/>
  <path
    d="M395.5 58.1493C403.578 58.1493 410.15 51.5777 410.15 43.4998C410.15 35.422 403.578 28.8503 395.5 28.8503C387.422 28.8503 380.851 35.422 380.851 43.4998C380.851 51.5777 387.422 58.1493 395.5 58.1493ZM394.208 44.1863L395.5 41.123L396.793 44.1859L395.5 43.6374L394.208 44.1863ZM395.5 30.0435C402.92 30.0435 408.957 36.0802 408.957 43.4998C408.957 48.0291 406.705 52.0402 403.264 54.4799V40.8406L406.204 42.0895L402.668 33.707L399.132 42.0895L402.071 40.8406V55.236C400.29 56.2378 398.259 56.846 396.097 56.9406V45.187L399.037 46.4359L395.5 38.0534L391.964 46.4359L394.904 45.187V56.941C392.741 56.8464 390.711 56.2378 388.929 55.2364V48.0852L391.869 49.3341L388.333 40.9512L384.797 49.3341L387.736 48.0852V54.4803C384.296 52.0402 382.044 48.0291 382.044 43.4998C382.044 36.0802 388.081 30.0435 395.5 30.0435ZM402.668 39.2911L401.375 39.8399L402.668 36.777L403.96 39.8399L402.668 39.2911ZM388.333 46.5349L387.041 47.0842L388.333 44.0209L389.625 47.0842L388.333 46.5349Z"
    fill="white"/>
  <circle cx="514.5" cy="162.5" r="40.5" stroke="white" stroke-width="2"/>
  <path
    d="M523.052 139.278H504.761C502.587 139.278 500.838 141.027 500.838 143.201V181.768C500.838 183.942 502.587 185.691 504.761 185.691H523.052C525.226 185.691 526.975 183.942 526.975 181.768V143.201C526.927 141.027 525.179 139.278 523.052 139.278ZM504.761 140.791H523.052C524.375 140.791 525.462 141.878 525.462 143.201V145.375H502.303V143.201C502.303 141.878 503.39 140.791 504.761 140.791ZM525.462 146.888V177.609H502.303V146.888H525.462ZM523.052 184.226H504.761C503.438 184.226 502.351 183.139 502.351 181.815V179.121H525.51V181.815C525.462 183.091 524.375 184.226 523.052 184.226Z"
    fill="white"/>
  <path
    d="M513.883 183.139C514.744 183.139 515.443 182.44 515.443 181.579C515.443 180.718 514.744 180.019 513.883 180.019C513.022 180.019 512.323 180.718 512.323 181.579C512.323 182.44 513.022 183.139 513.883 183.139Z"
    fill="white"/>
  <path
    d="M513.836 183.139C514.697 183.139 515.395 182.44 515.395 181.579C515.395 180.718 514.697 180.019 513.836 180.019C512.974 180.019 512.276 180.718 512.276 181.579C512.276 182.44 512.974 183.139 513.836 183.139Z"
    fill="white"/>
  <path
    d="M511 142.634C510.669 142.634 510.385 142.918 510.385 143.249C510.385 143.58 510.669 143.863 511 143.863H516.624C516.955 143.863 517.238 143.58 517.238 143.249C517.238 142.871 516.955 142.634 516.624 142.634H511Z"
    fill="white"/>
  <path
    d="M536.427 152.56H535.718V151.851C535.718 151.614 535.529 151.378 535.246 151.378C535.009 151.378 534.773 151.567 534.773 151.851V152.56H534.064C533.828 152.56 533.592 152.749 533.592 153.032C533.592 153.268 533.781 153.505 534.064 153.505H534.773V154.214C534.773 154.45 534.962 154.686 535.246 154.686C535.482 154.686 535.718 154.497 535.718 154.214V153.505H536.427C536.664 153.505 536.9 153.316 536.9 153.032C536.853 152.749 536.664 152.56 536.427 152.56Z"
    fill="white"/>
  <path
    d="M497.955 170.85H497.246V170.141C497.246 169.905 497.057 169.668 496.774 169.668C496.537 169.668 496.301 169.858 496.301 170.141V170.85H495.639C495.403 170.85 495.167 171.039 495.167 171.323C495.167 171.606 495.356 171.795 495.639 171.795H496.348V172.504C496.348 172.741 496.537 172.977 496.821 172.977C497.057 172.977 497.294 172.788 497.294 172.504V171.795H498.003C498.239 171.795 498.475 171.606 498.475 171.323C498.475 171.039 498.239 170.85 497.955 170.85Z"
    fill="white"/>
  <path
    d="M497.01 147.786H495.828V146.604C495.828 146.273 495.545 145.943 495.166 145.943C494.836 145.943 494.505 146.226 494.505 146.604V147.786H493.37C493.04 147.786 492.709 148.069 492.709 148.448C492.709 148.778 492.992 149.109 493.37 149.109H494.552V150.291C494.552 150.622 494.836 150.953 495.214 150.953C495.545 150.953 495.875 150.669 495.875 150.291V149.109H497.057C497.388 149.109 497.719 148.826 497.719 148.448C497.671 148.069 497.388 147.786 497.01 147.786Z"
    fill="white"/>
  <path
    d="M492.851 161.681C493.321 161.681 493.701 161.3 493.701 160.83C493.701 160.36 493.321 159.979 492.851 159.979C492.381 159.979 492 160.36 492 160.83C492 161.3 492.381 161.681 492.851 161.681Z"
    fill="white"/>
  <path
    d="M532.127 179.216C532.596 179.216 532.977 178.835 532.977 178.365C532.977 177.895 532.596 177.514 532.127 177.514C531.657 177.514 531.276 177.895 531.276 178.365C531.276 178.835 531.657 179.216 532.127 179.216Z"
    fill="white"/>
  <path
    d="M531.417 147.455C531.992 147.455 532.457 146.989 532.457 146.415C532.457 145.841 531.992 145.375 531.417 145.375C530.843 145.375 530.378 145.841 530.378 146.415C530.378 146.989 530.843 147.455 531.417 147.455Z"
    fill="white"/>
  <path
    d="M522.154 158.183C522.106 157.9 521.445 155.3 518.94 154.355C517.427 153.788 514.828 153.693 513.788 153.693C512.748 153.693 510.149 153.788 508.636 154.355C506.037 155.348 505.47 158.089 505.423 158.183C505.092 159.459 504.95 160.925 504.95 162.484C504.95 164.044 505.092 165.462 505.423 166.738C505.47 166.833 506.037 169.621 508.636 170.614C510.149 171.181 512.748 171.275 513.788 171.275C514.828 171.275 517.427 171.181 518.94 170.614C521.539 169.621 522.106 166.88 522.154 166.785C522.485 165.509 522.626 164.044 522.626 162.484C522.626 160.925 522.485 159.507 522.154 158.183ZM508.826 167.447C508.826 167.447 509.676 163.855 511.047 165.226C512.418 166.596 508.826 167.447 508.826 167.447ZM518.798 157.711C518.751 161.728 516.671 163.666 514.97 164.564L515.348 166.124L514.544 166.927L512.654 165.037C512.654 165.367 512.512 165.698 512.228 165.982L510.243 163.997C510.48 163.76 510.858 163.619 511.189 163.571L509.298 161.681L510.102 160.877L511.661 161.255C512.559 159.601 514.497 157.474 518.514 157.427H518.751L518.798 157.711Z"
    fill="white"/>
  <path
    d="M516.34 160.878C516.862 160.878 517.286 160.455 517.286 159.933C517.286 159.411 516.862 158.987 516.34 158.987C515.818 158.987 515.395 159.411 515.395 159.933C515.395 160.455 515.818 160.878 516.34 160.878Z"
    fill="white"/>
  <circle cx="633.5" cy="43.5" r="40.5" stroke="white" stroke-width="2"/>
  <path
    d="M650.07 33.3483C650.07 30.1311 647.453 27.5134 644.235 27.5134H621.886C618.669 27.5134 616.051 30.1311 616.051 33.3483V60.4577L616.778 59.0038C616.802 58.9567 619.156 54.3097 621.886 54.3097H644.235C647.453 54.3097 650.07 51.692 650.07 48.4748V33.3483ZM649.303 48.4753C649.303 51.2695 647.03 53.5429 644.235 53.5429H621.886C619.673 53.5429 617.798 55.8935 616.819 57.4108V33.3483C616.819 30.5542 619.092 28.2808 621.886 28.2808H644.235C647.03 28.2808 649.303 30.5542 649.303 33.3483V48.4753Z"
    fill="white"/>
  <path d="M641.634 50.0871H644.347V31.7373H641.634V50.0871ZM642.401 32.5047H643.58V49.3198H642.401V32.5047Z"
        fill="white"/>
  <path d="M636.669 50.0873H639.382V35.8647H636.669V50.0873ZM637.437 36.6321H638.615V49.3199H637.437V36.6321Z"
        fill="white"/>
  <path d="M631.704 50.0873H634.417V38.7761H631.704V50.0873ZM632.471 39.5435H633.65V49.32H632.471V39.5435Z"
        fill="white"/>
  <path d="M626.74 50.0877H629.453V42.5928H626.74V50.0877ZM627.507 43.3601H628.685V49.3204H627.507V43.3601Z"
        fill="white"/>
  <path d="M621.775 50.0882H624.488V45.5168H621.775V50.0882ZM622.542 46.2842H623.721V49.3208H622.542V46.2842Z"
        fill="white"/>
  <path
    d="M624.075 64.0595C624.075 63.3919 623.532 62.8486 622.864 62.8486C622.197 62.8486 621.654 63.3919 621.654 64.0595C621.654 64.7271 622.197 65.2704 622.864 65.2704C623.532 65.2704 624.075 64.7271 624.075 64.0595ZM622.037 64.0595C622.037 63.6032 622.408 63.2323 622.864 63.2323C623.32 63.2323 623.691 63.6037 623.691 64.0595C623.691 64.5153 623.32 64.8867 622.864 64.8867C622.408 64.8867 622.037 64.5158 622.037 64.0595Z"
    fill="white"/>
  <path
    d="M611.679 36.255L612.778 35.6774L613.877 36.255L613.667 35.0308L614.556 34.1642L613.328 33.9862L612.778 32.873L612.229 33.9862L611 34.1642L611.889 35.0308L611.679 36.255ZM611.825 34.4328L612.484 34.3371L612.778 33.7401L613.073 34.3371L613.732 34.4328L613.255 34.8973L613.368 35.5536L612.778 35.2441L612.189 35.5531L612.301 34.8968L611.825 34.4328Z"
    fill="white"/>
  <path
    d="M622.262 23.6754L622.112 24.5491L622.896 24.1368L623.681 24.5491L623.532 23.6754L624.167 23.0564L623.289 22.929L622.897 22.134L622.505 22.929L621.627 23.0564L622.262 23.6754ZM622.759 23.2794L622.896 23.0006L623.034 23.2794L623.342 23.3239L623.119 23.5408L623.172 23.8473L622.897 23.703L622.622 23.8473L622.674 23.5408L622.452 23.3239L622.759 23.2794Z"
    fill="white"/>
  <path
    d="M651.704 53.5654L652.339 54.1844L652.189 55.0587L652.974 54.6458L653.759 55.0587L653.609 54.1844L654.244 53.5654L653.366 53.4375L652.974 52.6431L652.582 53.4375L651.704 53.5654ZM652.975 53.5097L653.112 53.7885L653.42 53.8335L653.197 54.0509L653.25 54.3578L652.975 54.2131L652.699 54.3578L652.752 54.0509L652.529 53.8335L652.837 53.7885L652.975 53.5097Z"
    fill="white"/>
  <path
    d="M652.974 25.814L652.466 27.3778H650.822L652.152 28.3442L651.644 29.907L652.974 28.9412L654.304 29.907L653.796 28.3442L655.126 27.3778H653.482L652.974 25.814ZM653.345 28.1979L653.574 28.9028L652.974 28.4669L652.374 28.9028L652.603 28.1979L652.003 27.7615H652.745L652.974 27.056L653.204 27.7615H653.946L653.345 28.1979Z"
    fill="white"/>
  <path
    d="M648.904 21.4204C648.237 21.4204 647.694 21.9637 647.694 22.6313C647.694 23.2989 648.237 23.8422 648.904 23.8422C649.572 23.8422 650.115 23.2989 650.115 22.6313C650.115 21.9637 649.572 21.4204 648.904 21.4204ZM648.904 23.4585C648.448 23.4585 648.077 23.0871 648.077 22.6313C648.077 22.1755 648.449 21.8041 648.904 21.8041C649.36 21.8041 649.732 22.1755 649.732 22.6313C649.732 23.0871 649.36 23.4585 648.904 23.4585Z"
    fill="white"/>
  <path
    d="M652.782 43.8492C652.782 44.3884 653.221 44.8268 653.76 44.8268C654.299 44.8268 654.738 44.3884 654.738 43.8492C654.738 43.31 654.299 42.8716 653.76 42.8716C653.221 42.8716 652.782 43.3105 652.782 43.8492ZM653.76 43.2553C654.087 43.2553 654.354 43.5218 654.354 43.8492C654.354 44.1766 654.087 44.4431 653.76 44.4431C653.433 44.4431 653.166 44.1766 653.166 43.8492C653.166 43.5218 653.433 43.2553 653.76 43.2553Z"
    fill="white"/>
  <path
    d="M614.804 27.5654C614.804 28.2668 615.375 28.8372 616.076 28.8372C616.777 28.8372 617.348 28.2668 617.348 27.5654C617.348 26.8641 616.777 26.2942 616.076 26.2942C615.375 26.2942 614.804 26.8646 614.804 27.5654ZM616.076 26.6779C616.566 26.6779 616.964 27.0759 616.964 27.5654C616.964 28.0555 616.566 28.4535 616.076 28.4535C615.586 28.4535 615.188 28.055 615.188 27.5654C615.188 27.0759 615.586 26.6779 616.076 26.6779Z"
    fill="white"/>
  <path
    d="M620.239 63.8715C620.074 63.8382 619.91 63.8013 619.748 63.7607L619.654 64.1341C619.822 64.1767 619.992 64.2146 620.164 64.249L620.239 63.8715Z"
    fill="white"/>
  <path
    d="M611.76 54.0135C611.76 54.1827 611.764 54.3514 611.772 54.5191L612.156 54.5007C612.148 54.3391 612.144 54.1766 612.144 54.0135C612.144 53.8468 612.148 53.6796 612.156 53.5114L611.772 53.4924C611.764 53.6668 611.76 53.8407 611.76 54.0135Z"
    fill="white"/>
  <path
    d="M617.892 63.0952L617.728 63.4421C618.035 63.5879 618.354 63.7198 618.674 63.8349L618.804 63.4738C618.495 63.3628 618.188 63.2354 617.892 63.0952Z"
    fill="white"/>
  <path
    d="M614.46 61.0109C614.688 61.2637 614.931 61.5088 615.185 61.7386L615.444 61.454C615.2 61.2324 614.965 60.9965 614.746 60.7534L614.46 61.0109Z"
    fill="white"/>
  <path
    d="M615.973 62.3873C616.247 62.5909 616.533 62.7827 616.824 62.9577L617.022 62.6288C616.742 62.4605 616.466 62.2758 616.202 62.0793L615.973 62.3873Z"
    fill="white"/>
  <path
    d="M614.121 59.9902C613.926 59.7268 613.742 59.4505 613.573 59.1697L613.244 59.3671C613.419 59.6587 613.61 59.9452 613.812 60.2189L614.121 59.9902Z"
    fill="white"/>
  <path
    d="M611.872 55.5346C611.922 55.8707 611.989 56.2083 612.072 56.5383L612.445 56.4446C612.365 56.127 612.3 55.8016 612.252 55.4778L611.872 55.5346Z"
    fill="white"/>
  <path
    d="M613.108 58.2988C612.967 58.0011 612.84 57.6951 612.73 57.3877L612.369 57.5171C612.483 57.8358 612.615 58.154 612.762 58.4625L613.108 58.2988Z"
    fill="white"/>
  <path
    d="M611.874 52.4673L612.255 52.5237C612.279 52.3586 612.308 52.1929 612.341 52.0278L611.964 51.9524C611.929 52.1242 611.9 52.2955 611.874 52.4673Z"
    fill="white"/>
  <path
    d="M654.395 57.6764L654.01 57.6682C654.007 57.8359 653.998 58.0021 653.983 58.1672L654.366 58.2021C654.381 58.0282 654.391 57.8528 654.395 57.6764Z"
    fill="white"/>
  <path
    d="M652.277 62.0932L652.564 62.3479C652.819 62.0615 653.052 61.7535 653.257 61.4327L652.933 61.2261C652.739 61.5299 652.519 61.8215 652.277 62.0932Z"
    fill="white"/>
  <path
    d="M651.736 63.1419L651.493 62.8452C651.212 63.0749 650.912 63.2836 650.6 63.4657L650.793 63.7967C651.123 63.6044 651.441 63.3839 651.736 63.1419Z"
    fill="white"/>
  <path
    d="M648.66 64.625C649.033 64.5457 649.404 64.4352 649.761 64.2965L649.622 63.939C649.284 64.0699 648.934 64.1743 648.581 64.2495L648.66 64.625Z"
    fill="white"/>
  <path
    d="M653.445 60.2663L653.797 60.4193C653.949 60.0688 654.074 59.7036 654.169 59.3332L653.798 59.2375C653.708 59.5885 653.589 59.9343 653.445 60.2663Z"
    fill="white"/>
  <path
    d="M647.001 64.3983L646.993 64.783C647.043 64.784 647.092 64.7845 647.142 64.7845C647.269 64.7845 647.395 64.7814 647.52 64.7747L647.5 64.3906C647.335 64.3993 647.168 64.4024 647.001 64.3983Z"
    fill="white"/>
  <path d="M653.953 37.3989H653.568V38.4246H653.953V37.3989Z" fill="white"/>
  <path d="M653.953 39.4453H653.568V40.471H653.953V39.4453Z" fill="white"/>
  <path d="M653.953 33.3066H653.568V34.3323H653.953V33.3066Z" fill="white"/>
  <path d="M653.953 35.3525H653.568V36.3782H653.953V35.3525Z" fill="white"/>
  <circle cx="748.5" cy="159.5" r="40.5" stroke="white" stroke-width="2"/>
  <path
    d="M748.5 177C758.149 177 766 169.15 766 159.5C766 149.85 758.149 142 748.5 142C738.851 142 731 149.85 731 159.5C731 169.15 738.851 177 748.5 177ZM748.5 143.193C757.491 143.193 764.807 150.509 764.807 159.5C764.807 168.491 757.491 175.807 748.5 175.807C739.509 175.807 732.193 168.491 732.193 159.5C732.193 150.509 739.509 143.193 748.5 143.193Z"
    fill="white"/>
  <path
    d="M748.5 174.149C756.578 174.149 763.15 167.578 763.15 159.5C763.15 151.422 756.578 144.85 748.5 144.85C740.422 144.85 733.851 151.422 733.851 159.5C733.851 167.578 740.422 174.149 748.5 174.149ZM747.208 160.186L748.5 157.123L749.793 160.186L748.5 159.637L747.208 160.186ZM748.5 146.044C755.92 146.044 761.957 152.08 761.957 159.5C761.957 164.029 759.705 168.04 756.264 170.48V156.841L759.204 158.089L755.668 149.707L752.132 158.089L755.071 156.841V171.236C753.29 172.238 751.259 172.846 749.097 172.941V161.187L752.037 162.436L748.5 154.053L744.964 162.436L747.904 161.187V172.941C745.741 172.846 743.711 172.238 741.929 171.236V164.085L744.869 165.334L741.333 156.951L737.797 165.334L740.736 164.085V170.48C737.296 168.04 735.044 164.029 735.044 159.5C735.044 152.08 741.081 146.044 748.5 146.044ZM755.668 155.291L754.375 155.84L755.668 152.777L756.96 155.84L755.668 155.291ZM741.333 162.535L740.041 163.084L741.333 160.021L742.625 163.084L741.333 162.535Z"
    fill="white"/>
  <circle cx="1103.5" cy="41.5" r="40.5" stroke="white" stroke-width="2"/>
  <path
    d="M1103.5 59C1113.15 59 1121 51.1497 1121 41.5C1121 31.8503 1113.15 24 1103.5 24C1093.85 24 1086 31.8503 1086 41.5C1086 51.1497 1093.85 59 1103.5 59ZM1103.5 25.1932C1112.49 25.1932 1119.81 32.5086 1119.81 41.5C1119.81 50.4914 1112.49 57.8068 1103.5 57.8068C1094.51 57.8068 1087.19 50.4914 1087.19 41.5C1087.19 32.5086 1094.51 25.1932 1103.5 25.1932Z"
    fill="white"/>
  <path
    d="M1103.5 56.1493C1111.58 56.1493 1118.15 49.5777 1118.15 41.4998C1118.15 33.422 1111.58 26.8503 1103.5 26.8503C1095.42 26.8503 1088.85 33.422 1088.85 41.4998C1088.85 49.5777 1095.42 56.1493 1103.5 56.1493ZM1102.21 42.1863L1103.5 39.123L1104.79 42.1859L1103.5 41.6374L1102.21 42.1863ZM1103.5 28.0435C1110.92 28.0435 1116.96 34.0802 1116.96 41.4998C1116.96 46.0291 1114.7 50.0402 1111.26 52.4799V38.8406L1114.2 40.0895L1110.67 31.707L1107.13 40.0895L1110.07 38.8406V53.236C1108.29 54.2378 1106.26 54.846 1104.1 54.9406V43.187L1107.04 44.4359L1103.5 36.0534L1099.96 44.4359L1102.9 43.187V54.941C1100.74 54.8464 1098.71 54.2378 1096.93 53.2364V46.0852L1099.87 47.3341L1096.33 38.9512L1092.8 47.3341L1095.74 46.0852V52.4803C1092.3 50.0402 1090.04 46.0291 1090.04 41.4998C1090.04 34.0802 1096.08 28.0435 1103.5 28.0435ZM1110.67 37.2911L1109.38 37.8399L1110.67 34.777L1111.96 37.8399L1110.67 37.2911ZM1096.33 44.5349L1095.04 45.0842L1096.33 42.0209L1097.63 45.0842L1096.33 44.5349Z"
    fill="white"/>
  <circle cx="868.5" cy="50.5" r="40.5" stroke="white" stroke-width="2"/>
  <path
    d="M877.052 27.2783H858.761C856.587 27.2783 854.838 29.0271 854.838 31.2012V69.7679C854.838 71.942 856.587 73.6907 858.761 73.6907H877.052C879.226 73.6907 880.975 71.942 880.975 69.7679V31.2012C880.927 29.0271 879.179 27.2783 877.052 27.2783ZM858.761 28.7907H877.052C878.375 28.7907 879.462 29.8778 879.462 31.2012V33.3753H856.303V31.2012C856.303 29.8778 857.39 28.7907 858.761 28.7907ZM879.462 34.8877V65.6087H856.303V34.8877H879.462ZM877.052 72.2256H858.761C857.438 72.2256 856.351 71.1385 856.351 69.8152V67.1212H879.51V69.8152C879.462 71.0913 878.375 72.2256 877.052 72.2256Z"
    fill="white"/>
  <path
    d="M867.883 71.1387C868.744 71.1387 869.443 70.4404 869.443 69.579C869.443 68.7176 868.744 68.0193 867.883 68.0193C867.022 68.0193 866.323 68.7176 866.323 69.579C866.323 70.4404 867.022 71.1387 867.883 71.1387Z"
    fill="white"/>
  <path
    d="M867.836 71.1387C868.697 71.1387 869.395 70.4404 869.395 69.579C869.395 68.7176 868.697 68.0193 867.836 68.0193C866.974 68.0193 866.276 68.7176 866.276 69.579C866.276 70.4404 866.974 71.1387 867.836 71.1387Z"
    fill="white"/>
  <path
    d="M865 30.6343C864.669 30.6343 864.385 30.9179 864.385 31.2487C864.385 31.5795 864.669 31.8631 865 31.8631H870.624C870.955 31.8631 871.238 31.5795 871.238 31.2487C871.238 30.8706 870.955 30.6343 870.624 30.6343H865Z"
    fill="white"/>
  <path
    d="M890.427 40.5595H889.718V39.8506C889.718 39.6142 889.529 39.3779 889.246 39.3779C889.009 39.3779 888.773 39.567 888.773 39.8506V40.5595H888.064C887.828 40.5595 887.592 40.7486 887.592 41.0321C887.592 41.2685 887.781 41.5048 888.064 41.5048H888.773V42.2137C888.773 42.45 888.962 42.6864 889.246 42.6864C889.482 42.6864 889.718 42.4973 889.718 42.2137V41.5048H890.427C890.664 41.5048 890.9 41.3157 890.9 41.0321C890.853 40.7486 890.664 40.5595 890.427 40.5595Z"
    fill="white"/>
  <path
    d="M851.955 58.85H851.246V58.1411C851.246 57.9048 851.057 57.6685 850.774 57.6685C850.537 57.6685 850.301 57.8575 850.301 58.1411V58.85H849.639C849.403 58.85 849.167 59.0391 849.167 59.3227C849.167 59.6062 849.356 59.7953 849.639 59.7953H850.348V60.5042C850.348 60.7406 850.537 60.9769 850.821 60.9769C851.057 60.9769 851.294 60.7878 851.294 60.5042V59.7953H852.003C852.239 59.7953 852.475 59.6062 852.475 59.3227C852.475 59.0391 852.239 58.85 851.955 58.85Z"
    fill="white"/>
  <path
    d="M851.01 35.7859H849.828V34.6043C849.828 34.2735 849.545 33.9426 849.166 33.9426C848.836 33.9426 848.505 34.2262 848.505 34.6043V35.7859H847.37C847.04 35.7859 846.709 36.0695 846.709 36.4476C846.709 36.7784 846.992 37.1093 847.37 37.1093H848.552V38.2908C848.552 38.6217 848.836 38.9525 849.214 38.9525C849.545 38.9525 849.875 38.6689 849.875 38.2908V37.1093H851.057C851.388 37.1093 851.719 36.8257 851.719 36.4476C851.671 36.0695 851.388 35.7859 851.01 35.7859Z"
    fill="white"/>
  <path
    d="M846.851 49.681C847.321 49.681 847.701 49.3001 847.701 48.8302C847.701 48.3604 847.321 47.9795 846.851 47.9795C846.381 47.9795 846 48.3604 846 48.8302C846 49.3001 846.381 49.681 846.851 49.681Z"
    fill="white"/>
  <path
    d="M886.127 67.2156C886.596 67.2156 886.977 66.8347 886.977 66.3649C886.977 65.895 886.596 65.5142 886.127 65.5142C885.657 65.5142 885.276 65.895 885.276 66.3649C885.276 66.8347 885.657 67.2156 886.127 67.2156Z"
    fill="white"/>
  <path
    d="M885.417 35.4548C885.992 35.4548 886.457 34.9893 886.457 34.415C886.457 33.8408 885.992 33.3752 885.417 33.3752C884.843 33.3752 884.378 33.8408 884.378 34.415C884.378 34.9893 884.843 35.4548 885.417 35.4548Z"
    fill="white"/>
  <path
    d="M876.154 46.1834C876.106 45.8998 875.445 43.3003 872.94 42.355C871.427 41.7879 868.828 41.6934 867.788 41.6934C866.748 41.6934 864.149 41.7879 862.636 42.355C860.037 43.3476 859.47 46.0888 859.423 46.1834C859.092 47.4595 858.95 48.9246 858.95 50.4843C858.95 52.044 859.092 53.4619 859.423 54.738C859.47 54.8325 860.037 57.621 862.636 58.6136C864.149 59.1807 866.748 59.2753 867.788 59.2753C868.828 59.2753 871.427 59.1807 872.94 58.6136C875.539 57.621 876.106 54.8798 876.154 54.7853C876.485 53.5091 876.626 52.044 876.626 50.4843C876.626 48.9246 876.485 47.5067 876.154 46.1834ZM862.826 55.4469C862.826 55.4469 863.676 51.8549 865.047 53.2256C866.418 54.5962 862.826 55.4469 862.826 55.4469ZM872.798 45.7107C872.751 49.7281 870.671 51.6659 868.97 52.5639L869.348 54.1236L868.544 54.927L866.654 53.0365C866.654 53.3674 866.512 53.6982 866.228 53.9818L864.243 51.9967C864.48 51.7604 864.858 51.6186 865.189 51.5714L863.298 49.6808L864.102 48.8774L865.661 49.2555C866.559 47.6013 868.497 45.4744 872.514 45.4271H872.751L872.798 45.7107Z"
    fill="white"/>
  <path
    d="M870.34 48.8778C870.862 48.8778 871.286 48.4546 871.286 47.9326C871.286 47.4105 870.862 46.9873 870.34 46.9873C869.818 46.9873 869.395 47.4105 869.395 47.9326C869.395 48.4546 869.818 48.8778 870.34 48.8778Z"
    fill="white"/>
  <circle cx="987.5" cy="162.5" r="40.5" stroke="white" stroke-width="2"/>
  <path
    d="M1004.07 152.348C1004.07 149.131 1001.45 146.513 998.235 146.513H975.886C972.669 146.513 970.051 149.131 970.051 152.348V179.458L970.778 178.004C970.802 177.957 973.156 173.31 975.886 173.31H998.235C1001.45 173.31 1004.07 170.692 1004.07 167.475V152.348ZM1003.3 167.475C1003.3 170.269 1001.03 172.543 998.235 172.543H975.886C973.673 172.543 971.798 174.893 970.819 176.411V152.348C970.819 149.554 973.092 147.281 975.886 147.281H998.235C1001.03 147.281 1003.3 149.554 1003.3 152.348V167.475Z"
    fill="white"/>
  <path d="M995.634 169.087H998.347V150.737H995.634V169.087ZM996.401 151.505H997.58V168.32H996.401V151.505Z"
        fill="white"/>
  <path d="M990.669 169.087H993.382V154.865H990.669V169.087ZM991.437 155.632H992.615V168.32H991.437V155.632Z"
        fill="white"/>
  <path d="M985.704 169.087H988.417V157.776H985.704V169.087ZM986.471 158.543H987.65V168.32H986.471V158.543Z"
        fill="white"/>
  <path d="M980.74 169.088H983.453V161.593H980.74V169.088ZM981.507 162.36H982.685V168.32H981.507V162.36Z" fill="white"/>
  <path d="M975.775 169.088H978.488V164.517H975.775V169.088ZM976.542 165.284H977.721V168.321H976.542V165.284Z"
        fill="white"/>
  <path
    d="M978.075 183.06C978.075 182.392 977.532 181.849 976.864 181.849C976.197 181.849 975.654 182.392 975.654 183.06C975.654 183.727 976.197 184.27 976.864 184.27C977.532 184.27 978.075 183.727 978.075 183.06ZM976.037 183.06C976.037 182.603 976.408 182.232 976.864 182.232C977.32 182.232 977.691 182.604 977.691 183.06C977.691 183.515 977.32 183.887 976.864 183.887C976.408 183.887 976.037 183.516 976.037 183.06Z"
    fill="white"/>
  <path
    d="M965.679 155.255L966.778 154.677L967.877 155.255L967.667 154.031L968.556 153.164L967.328 152.986L966.778 151.873L966.229 152.986L965 153.164L965.889 154.031L965.679 155.255ZM965.825 153.433L966.484 153.337L966.778 152.74L967.073 153.337L967.732 153.433L967.255 153.897L967.368 154.554L966.778 154.244L966.189 154.553L966.301 153.897L965.825 153.433Z"
    fill="white"/>
  <path
    d="M976.262 142.675L976.112 143.549L976.896 143.137L977.681 143.549L977.532 142.675L978.167 142.056L977.289 141.929L976.897 141.134L976.505 141.929L975.627 142.056L976.262 142.675ZM976.759 142.279L976.896 142.001L977.034 142.279L977.342 142.324L977.119 142.541L977.172 142.847L976.897 142.703L976.622 142.847L976.674 142.541L976.452 142.324L976.759 142.279Z"
    fill="white"/>
  <path
    d="M1005.7 172.565L1006.34 173.184L1006.19 174.059L1006.97 173.646L1007.76 174.059L1007.61 173.184L1008.24 172.565L1007.37 172.438L1006.97 171.643L1006.58 172.438L1005.7 172.565ZM1006.97 172.51L1007.11 172.788L1007.42 172.833L1007.2 173.051L1007.25 173.358L1006.97 173.213L1006.7 173.358L1006.75 173.051L1006.53 172.833L1006.84 172.788L1006.97 172.51Z"
    fill="white"/>
  <path
    d="M1006.97 144.814L1006.47 146.378H1004.82L1006.15 147.344L1005.64 148.907L1006.97 147.941L1008.3 148.907L1007.8 147.344L1009.13 146.378H1007.48L1006.97 144.814ZM1007.35 147.198L1007.57 147.903L1006.97 147.467L1006.37 147.903L1006.6 147.198L1006 146.761H1006.75L1006.97 146.056L1007.2 146.761H1007.95L1007.35 147.198Z"
    fill="white"/>
  <path
    d="M1002.9 140.42C1002.24 140.42 1001.69 140.964 1001.69 141.631C1001.69 142.299 1002.24 142.842 1002.9 142.842C1003.57 142.842 1004.12 142.299 1004.12 141.631C1004.12 140.964 1003.57 140.42 1002.9 140.42ZM1002.9 142.458C1002.45 142.458 1002.08 142.087 1002.08 141.631C1002.08 141.175 1002.45 140.804 1002.9 140.804C1003.36 140.804 1003.73 141.175 1003.73 141.631C1003.73 142.087 1003.36 142.458 1002.9 142.458Z"
    fill="white"/>
  <path
    d="M1006.78 162.849C1006.78 163.388 1007.22 163.827 1007.76 163.827C1008.3 163.827 1008.74 163.388 1008.74 162.849C1008.74 162.31 1008.3 161.872 1007.76 161.872C1007.22 161.872 1006.78 162.311 1006.78 162.849ZM1007.76 162.255C1008.09 162.255 1008.35 162.522 1008.35 162.849C1008.35 163.177 1008.09 163.443 1007.76 163.443C1007.43 163.443 1007.17 163.177 1007.17 162.849C1007.17 162.522 1007.43 162.255 1007.76 162.255Z"
    fill="white"/>
  <path
    d="M968.804 146.565C968.804 147.267 969.375 147.837 970.076 147.837C970.777 147.837 971.348 147.267 971.348 146.565C971.348 145.864 970.777 145.294 970.076 145.294C969.375 145.294 968.804 145.865 968.804 146.565ZM970.076 145.678C970.566 145.678 970.964 146.076 970.964 146.565C970.964 147.056 970.566 147.454 970.076 147.454C969.586 147.454 969.188 147.055 969.188 146.565C969.188 146.076 969.586 145.678 970.076 145.678Z"
    fill="white"/>
  <path
    d="M974.239 182.872C974.074 182.838 973.91 182.801 973.748 182.761L973.654 183.134C973.822 183.177 973.992 183.215 974.164 183.249L974.239 182.872Z"
    fill="white"/>
  <path
    d="M965.76 173.013C965.76 173.183 965.764 173.351 965.772 173.519L966.156 173.501C966.148 173.339 966.144 173.177 966.144 173.013C966.144 172.847 966.148 172.68 966.156 172.511L965.772 172.492C965.764 172.667 965.76 172.841 965.76 173.013Z"
    fill="white"/>
  <path
    d="M971.892 182.095L971.728 182.442C972.035 182.588 972.354 182.72 972.674 182.835L972.804 182.474C972.495 182.363 972.188 182.235 971.892 182.095Z"
    fill="white"/>
  <path
    d="M968.46 180.011C968.688 180.264 968.931 180.509 969.185 180.739L969.444 180.454C969.2 180.232 968.965 179.997 968.746 179.753L968.46 180.011Z"
    fill="white"/>
  <path
    d="M969.973 181.387C970.247 181.591 970.533 181.783 970.824 181.958L971.022 181.629C970.742 181.46 970.466 181.276 970.202 181.079L969.973 181.387Z"
    fill="white"/>
  <path
    d="M968.121 178.99C967.926 178.727 967.742 178.451 967.573 178.17L967.244 178.367C967.419 178.659 967.61 178.945 967.812 179.219L968.121 178.99Z"
    fill="white"/>
  <path
    d="M965.872 174.535C965.922 174.871 965.989 175.208 966.072 175.538L966.445 175.445C966.365 175.127 966.3 174.802 966.252 174.478L965.872 174.535Z"
    fill="white"/>
  <path
    d="M967.108 177.299C966.967 177.001 966.84 176.695 966.73 176.388L966.369 176.517C966.483 176.836 966.615 177.154 966.762 177.462L967.108 177.299Z"
    fill="white"/>
  <path
    d="M965.874 171.467L966.255 171.524C966.279 171.359 966.308 171.193 966.341 171.028L965.964 170.952C965.929 171.124 965.9 171.295 965.874 171.467Z"
    fill="white"/>
  <path
    d="M1008.39 176.676L1008.01 176.668C1008.01 176.836 1008 177.002 1007.98 177.167L1008.37 177.202C1008.38 177.028 1008.39 176.853 1008.39 176.676Z"
    fill="white"/>
  <path
    d="M1006.28 181.093L1006.56 181.348C1006.82 181.061 1007.05 180.753 1007.26 180.433L1006.93 180.226C1006.74 180.53 1006.52 180.822 1006.28 181.093Z"
    fill="white"/>
  <path
    d="M1005.74 182.142L1005.49 181.845C1005.21 182.075 1004.91 182.284 1004.6 182.466L1004.79 182.797C1005.12 182.604 1005.44 182.384 1005.74 182.142Z"
    fill="white"/>
  <path
    d="M1002.66 183.625C1003.03 183.546 1003.4 183.435 1003.76 183.297L1003.62 182.939C1003.28 183.07 1002.93 183.174 1002.58 183.249L1002.66 183.625Z"
    fill="white"/>
  <path
    d="M1007.45 179.266L1007.8 179.419C1007.95 179.069 1008.07 178.704 1008.17 178.333L1007.8 178.238C1007.71 178.588 1007.59 178.934 1007.45 179.266Z"
    fill="white"/>
  <path
    d="M1001 183.398L1000.99 183.783C1001.04 183.784 1001.09 183.784 1001.14 183.784C1001.27 183.784 1001.39 183.781 1001.52 183.775L1001.5 183.391C1001.34 183.399 1001.17 183.402 1001 183.398Z"
    fill="white"/>
  <path d="M1007.95 156.399H1007.57V157.425H1007.95V156.399Z" fill="white"/>
  <path d="M1007.95 158.445H1007.57V159.471H1007.95V158.445Z" fill="white"/>
  <path d="M1007.95 152.307H1007.57V153.332H1007.95V152.307Z" fill="white"/>
  <path d="M1007.95 154.353H1007.57V155.378H1007.95V154.353Z" fill="white"/>
</svg>
