<svg width="311" height="166" viewBox="0 0 311 166" fill="none" xmlns="http://www.w3.org/2000/svg">
 <title>Applications Icons</title> <circle cx="41.5" cy="124.5" r="40.5" stroke="white" stroke-width="2"/>
  <path
    d="M41.5 142C51.1493 142 59 134.15 59 124.5C59 114.85 51.1493 107 41.5 107C31.8507 107 24 114.85 24 124.5C24 134.15 31.8507 142 41.5 142ZM41.5 108.193C50.4914 108.193 57.8068 115.509 57.8068 124.5C57.8068 133.491 50.4914 140.807 41.5 140.807C32.5086 140.807 25.1932 133.491 25.1932 124.5C25.1932 115.509 32.5086 108.193 41.5 108.193Z"
    fill="white"/>
  <path
    d="M41.5003 139.149C49.5782 139.149 56.1498 132.578 56.1498 124.5C56.1498 116.422 49.5782 109.85 41.5003 109.85C33.4225 109.85 26.8508 116.422 26.8508 124.5C26.8508 132.578 33.4225 139.149 41.5003 139.149ZM40.2081 125.186L41.5003 122.123L42.7925 125.186L41.5003 124.637L40.2081 125.186ZM41.5003 111.044C48.9199 111.044 54.9566 117.08 54.9566 124.5C54.9566 129.029 52.7047 133.04 49.2644 135.48V121.841L52.204 123.089L48.6678 114.707L45.1316 123.089L48.0712 121.841V136.236C46.2898 137.238 44.2594 137.846 42.0969 137.941V126.187L45.0365 127.436L41.5003 119.053L37.9641 127.436L40.9037 126.187V137.941C38.7413 137.846 36.7113 137.238 34.9295 136.236V129.085L37.8695 130.334L34.3329 121.951L30.7967 130.334L33.7363 129.085V135.48C30.2959 133.04 28.044 129.029 28.044 124.5C28.044 117.08 34.0807 111.044 41.5003 111.044ZM48.6678 120.291L47.3751 120.84L48.6678 117.777L49.96 120.84L48.6678 120.291ZM34.3329 127.535L33.0407 128.084L34.3329 125.021L35.6251 128.084L34.3329 127.535Z"
    fill="white"/>
  <circle cx="159.5" cy="41.5" r="40.5" stroke="white" stroke-width="2"/>
  <path
    d="M168.052 18.2783H149.761C147.587 18.2783 145.838 20.0271 145.838 22.2012V60.7679C145.838 62.942 147.587 64.6907 149.761 64.6907H168.052C170.226 64.6907 171.975 62.942 171.975 60.7679V22.2012C171.927 20.0271 170.179 18.2783 168.052 18.2783ZM149.761 19.7907H168.052C169.375 19.7907 170.462 20.8778 170.462 22.2012V24.3753H147.303V22.2012C147.303 20.8778 148.39 19.7907 149.761 19.7907ZM170.462 25.8877V56.6087H147.303V25.8877H170.462ZM168.052 63.2256H149.761C148.438 63.2256 147.351 62.1385 147.351 60.8152V58.1212H170.51V60.8152C170.462 62.0913 169.375 63.2256 168.052 63.2256Z"
    fill="white"/>
  <path
    d="M158.883 62.1387C159.744 62.1387 160.443 61.4404 160.443 60.579C160.443 59.7176 159.744 59.0193 158.883 59.0193C158.022 59.0193 157.323 59.7176 157.323 60.579C157.323 61.4404 158.022 62.1387 158.883 62.1387Z"
    fill="white"/>
  <path
    d="M158.836 62.1387C159.697 62.1387 160.395 61.4404 160.395 60.579C160.395 59.7176 159.697 59.0193 158.836 59.0193C157.974 59.0193 157.276 59.7176 157.276 60.579C157.276 61.4404 157.974 62.1387 158.836 62.1387Z"
    fill="white"/>
  <path
    d="M156 21.6343C155.669 21.6343 155.385 21.9179 155.385 22.2487C155.385 22.5795 155.669 22.8631 156 22.8631H161.624C161.955 22.8631 162.238 22.5795 162.238 22.2487C162.238 21.8706 161.955 21.6343 161.624 21.6343H156Z"
    fill="white"/>
  <path
    d="M181.427 31.5595H180.718V30.8506C180.718 30.6142 180.529 30.3779 180.246 30.3779C180.009 30.3779 179.773 30.567 179.773 30.8506V31.5595H179.064C178.828 31.5595 178.592 31.7486 178.592 32.0321C178.592 32.2685 178.781 32.5048 179.064 32.5048H179.773V33.2137C179.773 33.45 179.962 33.6864 180.246 33.6864C180.482 33.6864 180.718 33.4973 180.718 33.2137V32.5048H181.427C181.664 32.5048 181.9 32.3157 181.9 32.0321C181.853 31.7486 181.664 31.5595 181.427 31.5595Z"
    fill="white"/>
  <path
    d="M142.955 49.85H142.246V49.1411C142.246 48.9048 142.057 48.6685 141.774 48.6685C141.537 48.6685 141.301 48.8575 141.301 49.1411V49.85H140.639C140.403 49.85 140.167 50.0391 140.167 50.3227C140.167 50.6062 140.356 50.7953 140.639 50.7953H141.348V51.5042C141.348 51.7406 141.537 51.9769 141.821 51.9769C142.057 51.9769 142.294 51.7878 142.294 51.5042V50.7953H143.003C143.239 50.7953 143.475 50.6062 143.475 50.3227C143.475 50.0391 143.239 49.85 142.955 49.85Z"
    fill="white"/>
  <path
    d="M142.01 26.7859H140.828V25.6043C140.828 25.2735 140.545 24.9426 140.166 24.9426C139.836 24.9426 139.505 25.2262 139.505 25.6043V26.7859H138.37C138.04 26.7859 137.709 27.0695 137.709 27.4476C137.709 27.7784 137.992 28.1093 138.37 28.1093H139.552V29.2908C139.552 29.6217 139.836 29.9525 140.214 29.9525C140.545 29.9525 140.875 29.6689 140.875 29.2908V28.1093H142.057C142.388 28.1093 142.719 27.8257 142.719 27.4476C142.671 27.0695 142.388 26.7859 142.01 26.7859Z"
    fill="white"/>
  <path
    d="M137.851 40.681C138.321 40.681 138.701 40.3001 138.701 39.8302C138.701 39.3604 138.321 38.9795 137.851 38.9795C137.381 38.9795 137 39.3604 137 39.8302C137 40.3001 137.381 40.681 137.851 40.681Z"
    fill="white"/>
  <path
    d="M177.127 58.2156C177.596 58.2156 177.977 57.8347 177.977 57.3649C177.977 56.895 177.596 56.5142 177.127 56.5142C176.657 56.5142 176.276 56.895 176.276 57.3649C176.276 57.8347 176.657 58.2156 177.127 58.2156Z"
    fill="white"/>
  <path
    d="M176.417 26.4548C176.992 26.4548 177.457 25.9893 177.457 25.415C177.457 24.8408 176.992 24.3752 176.417 24.3752C175.843 24.3752 175.378 24.8408 175.378 25.415C175.378 25.9893 175.843 26.4548 176.417 26.4548Z"
    fill="white"/>
  <path
    d="M167.154 37.1834C167.106 36.8998 166.445 34.3003 163.94 33.355C162.427 32.7879 159.828 32.6934 158.788 32.6934C157.748 32.6934 155.149 32.7879 153.636 33.355C151.037 34.3476 150.47 37.0888 150.423 37.1834C150.092 38.4595 149.95 39.9246 149.95 41.4843C149.95 43.044 150.092 44.4619 150.423 45.738C150.47 45.8325 151.037 48.621 153.636 49.6136C155.149 50.1807 157.748 50.2753 158.788 50.2753C159.828 50.2753 162.427 50.1807 163.94 49.6136C166.539 48.621 167.106 45.8798 167.154 45.7853C167.485 44.5091 167.626 43.044 167.626 41.4843C167.626 39.9246 167.485 38.5067 167.154 37.1834ZM153.826 46.4469C153.826 46.4469 154.676 42.8549 156.047 44.2256C157.418 45.5962 153.826 46.4469 153.826 46.4469ZM163.798 36.7107C163.751 40.7281 161.671 42.6659 159.97 43.5639L160.348 45.1236L159.544 45.927L157.654 44.0365C157.654 44.3674 157.512 44.6982 157.228 44.9818L155.243 42.9967C155.48 42.7604 155.858 42.6186 156.189 42.5714L154.298 40.6808L155.102 39.8774L156.661 40.2555C157.559 38.6013 159.497 36.4744 163.514 36.4271H163.751L163.798 36.7107Z"
    fill="white"/>
  <path
    d="M161.34 39.8778C161.862 39.8778 162.286 39.4546 162.286 38.9326C162.286 38.4105 161.862 37.9873 161.34 37.9873C160.818 37.9873 160.395 38.4105 160.395 38.9326C160.395 39.4546 160.818 39.8778 161.34 39.8778Z"
    fill="white"/>
  <circle cx="269.5" cy="124.5" r="40.5" stroke="white" stroke-width="2"/>
  <path
    d="M286.07 114.348C286.07 111.131 283.453 108.513 280.235 108.513H257.886C254.669 108.513 252.051 111.131 252.051 114.348V141.458L252.778 140.004C252.802 139.957 255.156 135.31 257.886 135.31H280.235C283.453 135.31 286.07 132.692 286.07 129.475V114.348ZM285.303 129.475C285.303 132.269 283.03 134.543 280.235 134.543H257.886C255.673 134.543 253.798 136.893 252.819 138.411V114.348C252.819 111.554 255.092 109.281 257.886 109.281H280.235C283.03 109.281 285.303 111.554 285.303 114.348V129.475Z"
    fill="white"/>
  <path d="M277.634 131.087H280.347V112.737H277.634V131.087ZM278.401 113.505H279.58V130.32H278.401V113.505Z"
        fill="white"/>
  <path d="M272.669 131.087H275.382V116.865H272.669V131.087ZM273.437 117.632H274.615V130.32H273.437V117.632Z"
        fill="white"/>
  <path d="M267.704 131.087H270.417V119.776H267.704V131.087ZM268.471 120.543H269.65V130.32H268.471V120.543Z"
        fill="white"/>
  <path d="M262.74 131.088H265.453V123.593H262.74V131.088ZM263.507 124.36H264.685V130.32H263.507V124.36Z" fill="white"/>
  <path d="M257.775 131.088H260.488V126.517H257.775V131.088ZM258.542 127.284H259.721V130.321H258.542V127.284Z"
        fill="white"/>
  <path
    d="M260.075 145.06C260.075 144.392 259.532 143.849 258.864 143.849C258.197 143.849 257.654 144.392 257.654 145.06C257.654 145.727 258.197 146.27 258.864 146.27C259.532 146.27 260.075 145.727 260.075 145.06ZM258.037 145.06C258.037 144.603 258.408 144.232 258.864 144.232C259.32 144.232 259.691 144.604 259.691 145.06C259.691 145.515 259.32 145.887 258.864 145.887C258.408 145.887 258.037 145.516 258.037 145.06Z"
    fill="white"/>
  <path
    d="M247.679 117.255L248.778 116.677L249.877 117.255L249.667 116.031L250.556 115.164L249.328 114.986L248.778 113.873L248.229 114.986L247 115.164L247.889 116.031L247.679 117.255ZM247.825 115.433L248.484 115.337L248.778 114.74L249.073 115.337L249.732 115.433L249.255 115.897L249.368 116.554L248.778 116.244L248.189 116.553L248.301 115.897L247.825 115.433Z"
    fill="white"/>
  <path
    d="M258.262 104.675L258.112 105.549L258.896 105.137L259.681 105.549L259.532 104.675L260.167 104.056L259.289 103.929L258.897 103.134L258.505 103.929L257.627 104.056L258.262 104.675ZM258.759 104.279L258.896 104.001L259.034 104.279L259.342 104.324L259.119 104.541L259.172 104.847L258.897 104.703L258.622 104.847L258.674 104.541L258.452 104.324L258.759 104.279Z"
    fill="white"/>
  <path
    d="M287.704 134.565L288.339 135.184L288.189 136.059L288.974 135.646L289.759 136.059L289.609 135.184L290.244 134.565L289.366 134.438L288.974 133.643L288.582 134.438L287.704 134.565ZM288.975 134.51L289.112 134.788L289.42 134.833L289.197 135.051L289.25 135.358L288.975 135.213L288.699 135.358L288.752 135.051L288.529 134.833L288.837 134.788L288.975 134.51Z"
    fill="white"/>
  <path
    d="M288.974 106.814L288.466 108.378H286.822L288.152 109.344L287.644 110.907L288.974 109.941L290.304 110.907L289.796 109.344L291.126 108.378H289.482L288.974 106.814ZM289.345 109.198L289.574 109.903L288.974 109.467L288.374 109.903L288.603 109.198L288.003 108.761H288.745L288.974 108.056L289.204 108.761H289.946L289.345 109.198Z"
    fill="white"/>
  <path
    d="M284.904 102.42C284.237 102.42 283.694 102.964 283.694 103.631C283.694 104.299 284.237 104.842 284.904 104.842C285.572 104.842 286.115 104.299 286.115 103.631C286.115 102.964 285.572 102.42 284.904 102.42ZM284.904 104.458C284.448 104.458 284.077 104.087 284.077 103.631C284.077 103.175 284.449 102.804 284.904 102.804C285.36 102.804 285.732 103.175 285.732 103.631C285.732 104.087 285.36 104.458 284.904 104.458Z"
    fill="white"/>
  <path
    d="M288.782 124.849C288.782 125.388 289.221 125.827 289.76 125.827C290.299 125.827 290.738 125.388 290.738 124.849C290.738 124.31 290.299 123.872 289.76 123.872C289.221 123.872 288.782 124.311 288.782 124.849ZM289.76 124.255C290.087 124.255 290.354 124.522 290.354 124.849C290.354 125.177 290.087 125.443 289.76 125.443C289.433 125.443 289.166 125.177 289.166 124.849C289.166 124.522 289.433 124.255 289.76 124.255Z"
    fill="white"/>
  <path
    d="M250.804 108.565C250.804 109.267 251.375 109.837 252.076 109.837C252.777 109.837 253.348 109.267 253.348 108.565C253.348 107.864 252.777 107.294 252.076 107.294C251.375 107.294 250.804 107.865 250.804 108.565ZM252.076 107.678C252.566 107.678 252.964 108.076 252.964 108.565C252.964 109.056 252.566 109.454 252.076 109.454C251.586 109.454 251.188 109.055 251.188 108.565C251.188 108.076 251.586 107.678 252.076 107.678Z"
    fill="white"/>
  <path
    d="M256.239 144.872C256.074 144.838 255.91 144.801 255.748 144.761L255.654 145.134C255.822 145.177 255.992 145.215 256.164 145.249L256.239 144.872Z"
    fill="white"/>
  <path
    d="M247.76 135.013C247.76 135.183 247.764 135.351 247.772 135.519L248.156 135.501C248.148 135.339 248.144 135.177 248.144 135.013C248.144 134.847 248.148 134.68 248.156 134.511L247.772 134.492C247.764 134.667 247.76 134.841 247.76 135.013Z"
    fill="white"/>
  <path
    d="M253.892 144.095L253.728 144.442C254.035 144.588 254.354 144.72 254.674 144.835L254.804 144.474C254.495 144.363 254.188 144.235 253.892 144.095Z"
    fill="white"/>
  <path
    d="M250.46 142.011C250.688 142.264 250.931 142.509 251.185 142.739L251.444 142.454C251.2 142.232 250.965 141.997 250.746 141.753L250.46 142.011Z"
    fill="white"/>
  <path
    d="M251.973 143.387C252.247 143.591 252.533 143.783 252.824 143.958L253.022 143.629C252.742 143.46 252.466 143.276 252.202 143.079L251.973 143.387Z"
    fill="white"/>
  <path
    d="M250.121 140.99C249.926 140.727 249.742 140.451 249.573 140.17L249.244 140.367C249.419 140.659 249.61 140.945 249.812 141.219L250.121 140.99Z"
    fill="white"/>
  <path
    d="M247.872 136.535C247.922 136.871 247.989 137.208 248.072 137.538L248.445 137.445C248.365 137.127 248.3 136.802 248.252 136.478L247.872 136.535Z"
    fill="white"/>
  <path
    d="M249.108 139.299C248.967 139.001 248.84 138.695 248.73 138.388L248.369 138.517C248.483 138.836 248.615 139.154 248.762 139.462L249.108 139.299Z"
    fill="white"/>
  <path
    d="M247.874 133.467L248.255 133.524C248.279 133.359 248.308 133.193 248.341 133.028L247.964 132.952C247.929 133.124 247.9 133.295 247.874 133.467Z"
    fill="white"/>
  <path
    d="M290.395 138.676L290.01 138.668C290.007 138.836 289.998 139.002 289.983 139.167L290.366 139.202C290.381 139.028 290.391 138.853 290.395 138.676Z"
    fill="white"/>
  <path
    d="M288.277 143.093L288.564 143.348C288.819 143.061 289.052 142.753 289.257 142.433L288.933 142.226C288.739 142.53 288.519 142.822 288.277 143.093Z"
    fill="white"/>
  <path
    d="M287.736 144.142L287.493 143.845C287.212 144.075 286.912 144.284 286.6 144.466L286.793 144.797C287.123 144.604 287.441 144.384 287.736 144.142Z"
    fill="white"/>
  <path
    d="M284.66 145.625C285.033 145.546 285.404 145.435 285.761 145.297L285.622 144.939C285.284 145.07 284.934 145.174 284.581 145.249L284.66 145.625Z"
    fill="white"/>
  <path
    d="M289.445 141.266L289.797 141.419C289.949 141.069 290.074 140.704 290.169 140.333L289.798 140.238C289.708 140.588 289.589 140.934 289.445 141.266Z"
    fill="white"/>
  <path
    d="M283.001 145.398L282.993 145.783C283.043 145.784 283.092 145.784 283.142 145.784C283.269 145.784 283.395 145.781 283.52 145.775L283.5 145.391C283.335 145.399 283.168 145.402 283.001 145.398Z"
    fill="white"/>
  <path d="M289.953 118.399H289.568V119.425H289.953V118.399Z" fill="white"/>
  <path d="M289.953 120.445H289.568V121.471H289.953V120.445Z" fill="white"/>
  <path d="M289.953 114.307H289.568V115.332H289.953V114.307Z" fill="white"/>
  <path d="M289.953 116.353H289.568V117.378H289.953V116.353Z" fill="white"/>
</svg>
