<svg width="54" height="67" viewBox="0 0 54 67" fill="none" xmlns="http://www.w3.org/2000/svg">
  <title>Application Arrows</title>
  <path
    d="M13.0607 0.939339C12.4749 0.353554 11.5251 0.353554 10.9393 0.939339L1.3934 10.4853C0.807614 11.0711 0.807614 12.0208 1.3934 12.6066C1.97919 13.1924 2.92893 13.1924 3.51472 12.6066L12 4.12132L20.4853 12.6066C21.0711 13.1924 22.0208 13.1924 22.6066 12.6066C23.1924 12.0208 23.1924 11.0711 22.6066 10.4853L13.0607 0.939339ZM13.5 65L13.5 2L10.5 2L10.5 65L13.5 65Z"
    fill="white"/>
  <path
    d="M43.0607 66.0607C42.4749 66.6464 41.5251 66.6464 40.9393 66.0607L31.3934 56.5147C30.8076 55.9289 30.8076 54.9792 31.3934 54.3934C31.9792 53.8076 32.9289 53.8076 33.5147 54.3934L42 62.8787L50.4853 54.3934C51.0711 53.8076 52.0208 53.8076 52.6066 54.3934C53.1924 54.9792 53.1924 55.9289 52.6066 56.5147L43.0607 66.0607ZM43.5 2L43.5 65L40.5 65L40.5 2L43.5 2Z"
    fill="white"/>
</svg>
