<svg width="60" height="65" viewBox="0 0 60 65" fill="none" xmlns="http://www.w3.org/2000/svg">
<title>Application Arrows</title>
  <path d="M31.0607 0.939339C30.4749 0.353554 29.5251 0.353554 28.9393 0.939339L19.3934 10.4853C18.8076 11.0711 18.8076 12.0208 19.3934 12.6066C19.9792 13.1924 20.9289 13.1924 21.5147 12.6066L30 4.12132L38.4853 12.6066C39.0711 13.1924 40.0208 13.1924 40.6066 12.6066C41.1924 12.0208 41.1924 11.0711 40.6066 10.4853L31.0607 0.939339ZM31.5 65L31.5 2L28.5 2L28.5 65L31.5 65Z" fill="white"/>
<path d="M13.0607 31.9393C12.4749 31.3536 11.5251 31.3536 10.9393 31.9393L1.3934 41.4853C0.807612 42.0711 0.807612 43.0208 1.3934 43.6066C1.97919 44.1924 2.92893 44.1924 3.51472 43.6066L12 35.1213L20.4853 43.6066C21.0711 44.1924 22.0208 44.1924 22.6066 43.6066C23.1924 43.0208 23.1924 42.0711 22.6066 41.4853L13.0607 31.9393ZM13.5 65L13.5 33L10.5 33L10.5 65L13.5 65Z" fill="white"/>
<path d="M49.0607 31.9393C48.4749 31.3536 47.5251 31.3536 46.9393 31.9393L37.3934 41.4853C36.8076 42.0711 36.8076 43.0208 37.3934 43.6066C37.9792 44.1924 38.9289 44.1924 39.5147 43.6066L48 35.1213L56.4853 43.6066C57.0711 44.1924 58.0208 44.1924 58.6066 43.6066C59.1924 43.0208 59.1924 42.0711 58.6066 41.4853L49.0607 31.9393ZM49.5 65L49.5 33L46.5 33L46.5 65L49.5 65Z" fill="white"/>
</svg>
