<svg width="190" height="165" viewBox="0 0 190 165" fill="none" xmlns="http://www.w3.org/2000/svg">
  <title>[icon] 3rd Party Audit</title>
  <path
    d="M0 0V164.734H189.3V0H0ZM185.254 4.33511V22.2536H4.62412V4.33511H185.254ZM4.62412 160.399V26.5887H185.254V160.399H4.62412Z"
    fill="#BB6BD9"/>
  <path d="M169.648 11.271H165.313V15.6061H169.648V11.271Z" fill="#BB6BD9"/>
  <path d="M147.683 11.271H143.348V15.6061H147.683V11.271Z" fill="#BB6BD9"/>
  <path d="M158.665 11.271H154.33V15.6061H158.665V11.271Z" fill="#BB6BD9"/>
  <path d="M129.764 11.271H18.4961V15.6061H129.764V11.271Z" fill="#BB6BD9"/>
  <path
    d="M47.247 100.13C50.0295 99.8207 55.2852 95.0287 62.5506 86.2175C62.7052 86.2175 62.7052 86.3721 62.8598 86.3721V133.829C62.8598 136.457 64.8693 138.466 67.4972 138.466H116.036C116.5 138.466 116.809 138.312 117.118 138.002L136.595 118.525C136.905 118.216 137.059 117.907 137.059 117.443C137.059 117.443 137.059 117.443 137.059 117.288V53.7552C137.059 51.1273 135.05 49.1178 132.422 49.1178H95.9403C95.322 48.3449 94.7037 47.7265 94.0853 46.9536C84.1921 37.0604 68.2701 37.0604 58.3769 46.9536C49.8749 55.4556 48.7928 68.5951 54.9761 78.3338C46.0103 85.7537 41.3729 90.8549 41.0637 93.6374C40.4454 96.5745 44.4645 100.439 47.247 100.13ZM117.582 133.21V118.989H131.803L117.582 133.21ZM132.422 52.2094C133.349 52.2094 133.968 52.8278 133.968 53.7552V115.897H116.036C115.109 115.897 114.49 116.516 114.49 117.443V135.375H67.6518C66.7243 135.375 66.106 134.756 66.106 133.829V87.9179C75.3809 92.0916 86.5108 90.2366 94.0853 82.6621C102.278 74.4692 103.669 61.9481 98.1045 52.2094H132.422ZM60.541 49.1178C69.1976 40.4612 83.2646 40.4612 91.9212 49.1178C100.578 57.7744 100.578 71.8414 91.9212 80.4979C83.2646 89.1545 69.1976 89.1545 60.541 80.4979C51.8844 71.8414 51.8844 57.7744 60.541 49.1178ZM56.6765 80.8071C57.1402 81.4254 57.7586 82.0438 58.3769 82.6621C58.9952 83.2804 59.6135 83.7442 60.2319 84.3625C52.6573 93.4828 48.3291 96.8837 46.9378 97.0382C46.0103 97.1928 43.8462 95.0287 44.0008 94.1012C44.1553 92.7099 47.5561 88.3816 56.6765 80.8071Z"
    fill="#BB6BD9"/>
  <path
    d="M66.4154 57.7744H85.8928C86.8203 57.7744 87.4386 57.1561 87.4386 56.2286C87.4386 55.3011 86.8203 54.6828 85.8928 54.6828H66.4154C65.488 54.6828 64.8696 55.3011 64.8696 56.2286C64.8696 57.1561 65.6425 57.7744 66.4154 57.7744Z"
    fill="#BB6BD9"/>
  <path
    d="M90.9935 66.2765C91.921 66.2765 92.5393 65.6581 92.5393 64.7306C92.5393 63.8031 91.921 63.1848 90.9935 63.1848H61.3138C60.3863 63.1848 59.7679 63.8031 59.7679 64.7306C59.7679 65.6581 60.3863 66.2765 61.3138 66.2765H90.9935Z"
    fill="#BB6BD9"/>
  <path
    d="M85.8928 71.8412H66.4154C65.488 71.8412 64.8696 72.4595 64.8696 73.387C64.8696 74.3145 65.488 74.9328 66.4154 74.9328H85.8928C86.8203 74.9328 87.4386 74.3145 87.4386 73.387C87.4386 72.4595 86.6657 71.8412 85.8928 71.8412Z"
    fill="#BB6BD9"/>
  <path
    d="M109.698 69.5225H125.93C126.857 69.5225 127.475 68.9042 127.475 67.9767C127.475 67.0492 126.857 66.4308 125.93 66.4308H109.698C108.771 66.4308 108.153 67.0492 108.153 67.9767C108.153 68.7496 108.771 69.5225 109.698 69.5225Z"
    fill="#BB6BD9"/>
  <path
    d="M106.607 82.3529H125.93C126.857 82.3529 127.475 81.7345 127.475 80.8071C127.475 79.8796 126.857 79.2612 125.93 79.2612H106.607C105.679 79.2612 105.061 79.8796 105.061 80.8071C105.061 81.7345 105.679 82.3529 106.607 82.3529Z"
    fill="#BB6BD9"/>
  <path
    d="M125.775 92.2463H94.2403C93.3128 92.2463 92.6945 92.8647 92.6945 93.7922C92.6945 94.7197 93.3128 95.338 94.2403 95.338H125.93C126.857 95.338 127.475 94.7197 127.475 93.7922C127.321 92.8647 126.703 92.2463 125.775 92.2463Z"
    fill="#BB6BD9"/>
  <path
    d="M125.775 105.076H74.6081C73.6806 105.076 73.0623 105.695 73.0623 106.622C73.0623 107.55 73.6806 108.168 74.6081 108.168H125.775C126.702 108.168 127.321 107.55 127.321 106.622C127.321 105.849 126.702 105.076 125.775 105.076Z"
    fill="#BB6BD9"/>
  <path d="M80.946 118.061H77.8544V121.153H80.946V118.061Z" fill="#BB6BD9"/>
  <path d="M91.9215 118.061H88.8298V121.153H91.9215V118.061Z" fill="#BB6BD9"/>
  <path d="M103.051 118.061H99.9594V121.153H103.051V118.061Z" fill="#BB6BD9"/>
</svg>
