<svg width="100%" height="100%" viewBox="0 0 1020 339" fill="none" xmlns="http://www.w3.org/2000/svg">
  <title>Crypto API Icons</title>
  <path
    d="M275.478 82.6163C273.795 82.6163 272.198 82.7033 270.557 82.8774L264.298 72L249.232 76.9601L250.527 89.4473C247.678 91.1442 245.045 93.0586 242.584 95.2776L231.188 90.187L221.864 103.109L230.195 112.464C228.9 115.466 227.864 118.599 227.173 121.905L215 124.56V140.528L227.173 143.138C227.864 146.401 228.9 149.577 230.238 152.58L221.907 161.934L231.231 174.857L242.628 169.766C245.088 171.985 247.721 173.899 250.57 175.596L249.319 188.083L264.384 193L270.6 182.123C272.241 182.297 273.881 182.34 275.522 182.34C277.205 182.34 278.802 182.253 280.443 182.079L286.702 192.957L301.768 187.996L300.473 175.509C303.322 173.812 305.955 171.854 308.416 169.679L319.812 174.77L329.136 161.847L320.805 152.493C322.1 149.49 323.136 146.358 323.827 143.051L336 140.397V124.429L323.783 121.818C323.093 118.555 322.057 115.379 320.762 112.377L329.093 103.022L319.769 90.1L308.372 95.1906C305.912 93.0151 303.279 91.0572 300.43 89.3603L301.681 76.8731L286.659 72L280.4 82.8774C278.802 82.7033 277.162 82.6163 275.478 82.6163ZM319.38 132.478C319.38 156.887 299.782 176.684 275.565 176.684C251.347 176.684 231.706 156.931 231.706 132.522C231.706 108.113 251.304 88.3161 275.522 88.3161C299.696 88.2726 319.337 108.069 319.38 132.478Z"
    fill="#00ACFF"/>
  <path
    d="M189.73 221.843H187.459V213.025H184.552V211.135H192.638V213.025H189.73V221.843ZM198.68 213.501C198.983 213.501 199.234 213.523 199.435 213.567L199.266 215.662C199.085 215.613 198.866 215.588 198.607 215.588C197.894 215.588 197.337 215.771 196.937 216.138C196.542 216.504 196.344 217.017 196.344 217.676V221.843H194.11V213.655H195.802L196.131 215.032H196.241C196.495 214.573 196.837 214.204 197.267 213.926C197.701 213.643 198.172 213.501 198.68 213.501ZM206.122 221.843L205.689 220.73H205.631C205.255 221.204 204.867 221.533 204.466 221.719C204.071 221.899 203.553 221.99 202.914 221.99C202.127 221.99 201.507 221.765 201.053 221.316C200.604 220.867 200.379 220.227 200.379 219.397C200.379 218.528 200.682 217.888 201.288 217.478C201.898 217.063 202.816 216.833 204.042 216.79L205.462 216.746V216.387C205.462 215.557 205.038 215.142 204.188 215.142C203.534 215.142 202.765 215.339 201.881 215.735L201.141 214.226C202.083 213.733 203.128 213.486 204.276 213.486C205.375 213.486 206.217 213.726 206.803 214.204C207.389 214.683 207.682 215.41 207.682 216.387V221.843H206.122ZM205.462 218.049L204.598 218.079C203.949 218.098 203.465 218.215 203.148 218.43C202.831 218.645 202.672 218.972 202.672 219.412C202.672 220.042 203.033 220.356 203.756 220.356C204.273 220.356 204.686 220.208 204.994 219.91C205.306 219.612 205.462 219.216 205.462 218.723V218.049ZM213.314 221.99C210.765 221.99 209.491 220.591 209.491 217.793C209.491 216.401 209.837 215.339 210.531 214.607C211.224 213.87 212.218 213.501 213.512 213.501C214.459 213.501 215.309 213.687 216.061 214.058L215.401 215.786C215.05 215.645 214.723 215.53 214.42 215.442C214.117 215.349 213.814 215.303 213.512 215.303C212.35 215.303 211.769 216.128 211.769 217.778C211.769 219.38 212.35 220.181 213.512 220.181C213.941 220.181 214.339 220.125 214.706 220.012C215.072 219.895 215.438 219.714 215.804 219.47V221.382C215.443 221.611 215.077 221.77 214.706 221.858C214.339 221.946 213.875 221.99 213.314 221.99ZM219.854 217.39L220.829 216.145L223.121 213.655H225.641L222.389 217.207L225.838 221.843H223.26L220.902 218.525L219.942 219.294V221.843H217.708V210.447H219.942V215.53L219.825 217.39H219.854ZM226.915 211.538C226.915 210.811 227.32 210.447 228.131 210.447C228.941 210.447 229.347 210.811 229.347 211.538C229.347 211.885 229.244 212.156 229.039 212.351C228.839 212.542 228.536 212.637 228.131 212.637C227.32 212.637 226.915 212.271 226.915 211.538ZM229.244 221.843H227.01V213.655H229.244V221.843ZM239.154 221.843H236.92V217.061C236.92 216.47 236.815 216.028 236.605 215.735C236.395 215.437 236.061 215.288 235.602 215.288C234.977 215.288 234.525 215.498 234.247 215.918C233.968 216.333 233.829 217.024 233.829 217.991V221.843H231.595V213.655H233.302L233.602 214.702H233.727C233.976 214.307 234.317 214.009 234.752 213.809C235.191 213.604 235.689 213.501 236.246 213.501C237.198 213.501 237.921 213.76 238.414 214.277C238.907 214.79 239.154 215.532 239.154 216.504V221.843ZM248.58 213.655V214.79L247.298 215.12C247.533 215.486 247.65 215.896 247.65 216.35C247.65 217.229 247.342 217.915 246.727 218.408C246.117 218.896 245.267 219.141 244.178 219.141L243.775 219.119L243.446 219.082C243.216 219.258 243.102 219.453 243.102 219.668C243.102 219.99 243.512 220.151 244.332 220.151H245.724C246.622 220.151 247.306 220.344 247.774 220.73C248.248 221.116 248.485 221.682 248.485 222.429C248.485 223.386 248.084 224.128 247.284 224.656C246.488 225.183 245.343 225.447 243.849 225.447C242.706 225.447 241.832 225.247 241.227 224.846C240.626 224.451 240.326 223.894 240.326 223.176C240.326 222.683 240.479 222.271 240.787 221.938C241.095 221.606 241.546 221.37 242.142 221.228C241.913 221.13 241.712 220.972 241.542 220.752C241.371 220.527 241.285 220.291 241.285 220.042C241.285 219.729 241.375 219.47 241.556 219.265C241.737 219.055 241.998 218.85 242.34 218.65C241.91 218.464 241.568 218.167 241.314 217.756C241.065 217.346 240.941 216.863 240.941 216.306C240.941 215.413 241.231 214.722 241.812 214.233C242.394 213.745 243.224 213.501 244.303 213.501C244.532 213.501 244.803 213.523 245.116 213.567C245.433 213.606 245.636 213.635 245.724 213.655H248.58ZM242.259 223C242.259 223.308 242.406 223.55 242.699 223.726C242.997 223.901 243.412 223.989 243.944 223.989C244.745 223.989 245.372 223.879 245.826 223.66C246.28 223.44 246.507 223.14 246.507 222.759C246.507 222.451 246.373 222.239 246.104 222.122C245.836 222.004 245.421 221.946 244.859 221.946H243.702C243.292 221.946 242.948 222.041 242.669 222.231C242.396 222.427 242.259 222.683 242.259 223ZM243.072 216.335C243.072 216.78 243.172 217.131 243.373 217.39C243.578 217.649 243.888 217.778 244.303 217.778C244.723 217.778 245.03 217.649 245.226 217.39C245.421 217.131 245.519 216.78 245.519 216.335C245.519 215.349 245.113 214.856 244.303 214.856C243.482 214.856 243.072 215.349 243.072 216.335ZM255.611 217.734C255.611 218.545 255.743 219.158 256.007 219.573C256.275 219.988 256.71 220.195 257.311 220.195C257.906 220.195 258.333 219.99 258.592 219.58C258.856 219.165 258.988 218.55 258.988 217.734C258.988 216.924 258.856 216.316 258.592 215.911C258.329 215.505 257.896 215.303 257.296 215.303C256.7 215.303 256.271 215.505 256.007 215.911C255.743 216.311 255.611 216.919 255.611 217.734ZM261.273 217.734C261.273 219.067 260.921 220.11 260.218 220.862C259.515 221.614 258.536 221.99 257.281 221.99C256.495 221.99 255.802 221.819 255.201 221.477C254.601 221.13 254.139 220.635 253.817 219.99C253.495 219.346 253.333 218.594 253.333 217.734C253.333 216.396 253.683 215.356 254.381 214.614C255.079 213.872 256.061 213.501 257.325 213.501C258.111 213.501 258.805 213.672 259.405 214.014C260.006 214.355 260.467 214.846 260.79 215.486C261.112 216.125 261.273 216.875 261.273 217.734ZM267.616 221.99C266.654 221.99 265.899 221.641 265.353 220.942H265.235C265.313 221.626 265.353 222.021 265.353 222.129V225.447H263.119V213.655H264.935L265.25 214.717H265.353C265.875 213.906 266.649 213.501 267.674 213.501C268.641 213.501 269.398 213.875 269.945 214.622C270.492 215.369 270.765 216.406 270.765 217.734C270.765 218.608 270.636 219.368 270.377 220.012C270.123 220.657 269.759 221.147 269.286 221.484C268.812 221.821 268.255 221.99 267.616 221.99ZM266.957 215.288C266.405 215.288 266.002 215.459 265.748 215.801C265.494 216.138 265.362 216.697 265.353 217.478V217.72C265.353 218.599 265.482 219.229 265.741 219.609C266.004 219.99 266.419 220.181 266.986 220.181C267.987 220.181 268.487 219.355 268.487 217.705C268.487 216.899 268.363 216.296 268.114 215.896C267.87 215.491 267.484 215.288 266.957 215.288ZM276.002 215.09C275.528 215.09 275.157 215.242 274.889 215.544C274.62 215.842 274.466 216.267 274.427 216.819H277.562C277.552 216.267 277.408 215.842 277.13 215.544C276.852 215.242 276.476 215.09 276.002 215.09ZM276.317 221.99C274.999 221.99 273.968 221.626 273.226 220.898C272.484 220.171 272.113 219.141 272.113 217.808C272.113 216.436 272.455 215.376 273.138 214.629C273.827 213.877 274.776 213.501 275.987 213.501C277.145 213.501 278.045 213.831 278.69 214.49C279.334 215.149 279.657 216.06 279.657 217.222V218.306H274.376C274.4 218.94 274.588 219.436 274.94 219.792C275.292 220.149 275.785 220.327 276.419 220.327C276.913 220.327 277.379 220.276 277.818 220.173C278.258 220.071 278.717 219.907 279.195 219.683V221.411C278.805 221.606 278.387 221.75 277.943 221.843C277.499 221.941 276.957 221.99 276.317 221.99ZM286.043 213.501C286.346 213.501 286.598 213.523 286.798 213.567L286.629 215.662C286.449 215.613 286.229 215.588 285.97 215.588C285.257 215.588 284.701 215.771 284.3 216.138C283.905 216.504 283.707 217.017 283.707 217.676V221.843H281.473V213.655H283.165L283.495 215.032H283.604C283.858 214.573 284.2 214.204 284.63 213.926C285.064 213.643 285.536 213.501 286.043 213.501ZM293.485 221.843L293.053 220.73H292.994C292.618 221.204 292.23 221.533 291.83 221.719C291.434 221.899 290.917 221.99 290.277 221.99C289.491 221.99 288.871 221.765 288.417 221.316C287.967 220.867 287.743 220.227 287.743 219.397C287.743 218.528 288.045 217.888 288.651 217.478C289.261 217.063 290.179 216.833 291.405 216.79L292.826 216.746V216.387C292.826 215.557 292.401 215.142 291.551 215.142C290.897 215.142 290.128 215.339 289.244 215.735L288.504 214.226C289.447 213.733 290.492 213.486 291.639 213.486C292.738 213.486 293.58 213.726 294.166 214.204C294.752 214.683 295.045 215.41 295.045 216.387V221.843H293.485ZM292.826 218.049L291.961 218.079C291.312 218.098 290.829 218.215 290.511 218.43C290.194 218.645 290.035 218.972 290.035 219.412C290.035 220.042 290.396 220.356 291.119 220.356C291.637 220.356 292.049 220.208 292.357 219.91C292.669 219.612 292.826 219.216 292.826 218.723V218.049ZM300.802 220.21C301.192 220.21 301.661 220.125 302.208 219.954V221.616C301.651 221.865 300.968 221.99 300.157 221.99C299.264 221.99 298.612 221.765 298.202 221.316C297.796 220.862 297.594 220.183 297.594 219.28V215.332H296.524V214.387L297.755 213.64L298.399 211.912H299.828V213.655H302.12V215.332H299.828V219.28C299.828 219.597 299.916 219.832 300.091 219.983C300.272 220.134 300.509 220.21 300.802 220.21ZM303.775 211.538C303.775 210.811 304.181 210.447 304.991 210.447C305.802 210.447 306.207 210.811 306.207 211.538C306.207 211.885 306.104 212.156 305.899 212.351C305.699 212.542 305.396 212.637 304.991 212.637C304.181 212.637 303.775 212.271 303.775 211.538ZM306.104 221.843H303.871V213.655H306.104V221.843ZM310.235 217.734C310.235 218.545 310.367 219.158 310.631 219.573C310.899 219.988 311.334 220.195 311.935 220.195C312.53 220.195 312.958 219.99 313.216 219.58C313.48 219.165 313.612 218.55 313.612 217.734C313.612 216.924 313.48 216.316 313.216 215.911C312.953 215.505 312.521 215.303 311.92 215.303C311.324 215.303 310.895 215.505 310.631 215.911C310.367 216.311 310.235 216.919 310.235 217.734ZM315.897 217.734C315.897 219.067 315.545 220.11 314.842 220.862C314.139 221.614 313.16 221.99 311.905 221.99C311.119 221.99 310.426 221.819 309.825 221.477C309.225 221.13 308.763 220.635 308.441 219.99C308.119 219.346 307.958 218.594 307.958 217.734C307.958 216.396 308.307 215.356 309.005 214.614C309.703 213.872 310.685 213.501 311.949 213.501C312.735 213.501 313.429 213.672 314.029 214.014C314.63 214.355 315.091 214.846 315.414 215.486C315.736 216.125 315.897 216.875 315.897 217.734ZM325.301 221.843H323.067V217.061C323.067 216.47 322.962 216.028 322.752 215.735C322.542 215.437 322.208 215.288 321.749 215.288C321.124 215.288 320.672 215.498 320.394 215.918C320.116 216.333 319.977 217.024 319.977 217.991V221.843H317.743V213.655H319.449L319.75 214.702H319.874C320.123 214.307 320.465 214.009 320.899 213.809C321.339 213.604 321.837 213.501 322.394 213.501C323.346 213.501 324.068 213.76 324.562 214.277C325.055 214.79 325.301 215.532 325.301 216.504V221.843ZM337.21 219.412C337.21 220.251 336.917 220.891 336.332 221.331C335.75 221.77 334.879 221.99 333.717 221.99C333.121 221.99 332.613 221.948 332.193 221.865C331.773 221.787 331.38 221.67 331.014 221.514V219.668C331.429 219.863 331.896 220.027 332.413 220.159C332.936 220.291 333.395 220.356 333.79 220.356C334.601 220.356 335.006 220.122 335.006 219.653C335.006 219.478 334.952 219.336 334.845 219.229C334.737 219.116 334.552 218.992 334.288 218.855C334.024 218.713 333.673 218.55 333.233 218.364C332.604 218.101 332.14 217.856 331.842 217.632C331.549 217.407 331.334 217.151 331.197 216.863C331.065 216.57 331 216.211 331 215.786C331 215.059 331.28 214.497 331.842 214.102C332.408 213.701 333.209 213.501 334.244 213.501C335.23 213.501 336.19 213.716 337.123 214.146L336.449 215.757C336.039 215.581 335.655 215.437 335.299 215.325C334.942 215.212 334.579 215.156 334.208 215.156C333.548 215.156 333.219 215.334 333.219 215.691C333.219 215.891 333.324 216.064 333.534 216.211C333.749 216.357 334.215 216.575 334.933 216.863C335.572 217.122 336.041 217.363 336.339 217.588C336.637 217.812 336.856 218.071 336.998 218.364C337.14 218.657 337.21 219.006 337.21 219.412ZM342.403 220.21C342.794 220.21 343.263 220.125 343.81 219.954V221.616C343.253 221.865 342.569 221.99 341.759 221.99C340.865 221.99 340.213 221.765 339.803 221.316C339.398 220.862 339.195 220.183 339.195 219.28V215.332H338.126V214.387L339.356 213.64L340.001 211.912H341.429V213.655H343.722V215.332H341.429V219.28C341.429 219.597 341.517 219.832 341.693 219.983C341.874 220.134 342.11 220.21 342.403 220.21ZM350.672 221.843L350.24 220.73H350.182C349.806 221.204 349.417 221.533 349.017 221.719C348.622 221.899 348.104 221.99 347.464 221.99C346.678 221.99 346.058 221.765 345.604 221.316C345.155 220.867 344.93 220.227 344.93 219.397C344.93 218.528 345.233 217.888 345.838 217.478C346.449 217.063 347.367 216.833 348.592 216.79L350.013 216.746V216.387C350.013 215.557 349.588 215.142 348.739 215.142C348.084 215.142 347.315 215.339 346.432 215.735L345.692 214.226C346.634 213.733 347.679 213.486 348.827 213.486C349.925 213.486 350.768 213.726 351.354 214.204C351.939 214.683 352.232 215.41 352.232 216.387V221.843H350.672ZM350.013 218.049L349.149 218.079C348.5 218.098 348.016 218.215 347.699 218.43C347.381 218.645 347.223 218.972 347.223 219.412C347.223 220.042 347.584 220.356 348.307 220.356C348.824 220.356 349.237 220.208 349.544 219.91C349.857 219.612 350.013 219.216 350.013 218.723V218.049ZM357.989 220.21C358.38 220.21 358.849 220.125 359.396 219.954V221.616C358.839 221.865 358.155 221.99 357.345 221.99C356.451 221.99 355.799 221.765 355.389 221.316C354.984 220.862 354.781 220.183 354.781 219.28V215.332H353.712V214.387L354.942 213.64L355.587 211.912H357.015V213.655H359.308V215.332H357.015V219.28C357.015 219.597 357.103 219.832 357.279 219.983C357.459 220.134 357.696 220.21 357.989 220.21ZM364.449 215.09C363.976 215.09 363.604 215.242 363.336 215.544C363.067 215.842 362.914 216.267 362.875 216.819H366.009C366 216.267 365.855 215.842 365.577 215.544C365.299 215.242 364.923 215.09 364.449 215.09ZM364.764 221.99C363.446 221.99 362.416 221.626 361.673 220.898C360.931 220.171 360.56 219.141 360.56 217.808C360.56 216.436 360.902 215.376 361.585 214.629C362.274 213.877 363.224 213.501 364.435 213.501C365.592 213.501 366.493 213.831 367.137 214.49C367.782 215.149 368.104 216.06 368.104 217.222V218.306H362.823C362.848 218.94 363.036 219.436 363.387 219.792C363.739 220.149 364.232 220.327 364.867 220.327C365.36 220.327 365.826 220.276 366.266 220.173C366.705 220.071 367.164 219.907 367.643 219.683V221.411C367.252 221.606 366.834 221.75 366.39 221.843C365.946 221.941 365.404 221.99 364.764 221.99ZM227.193 237.734C227.193 238.545 227.325 239.158 227.589 239.573C227.857 239.988 228.292 240.195 228.893 240.195C229.488 240.195 229.916 239.99 230.174 239.58C230.438 239.165 230.57 238.55 230.57 237.734C230.57 236.924 230.438 236.316 230.174 235.911C229.911 235.505 229.479 235.303 228.878 235.303C228.282 235.303 227.853 235.505 227.589 235.911C227.325 236.311 227.193 236.919 227.193 237.734ZM232.855 237.734C232.855 239.067 232.503 240.11 231.8 240.862C231.097 241.614 230.118 241.99 228.863 241.99C228.077 241.99 227.384 241.819 226.783 241.477C226.183 241.13 225.721 240.635 225.399 239.99C225.077 239.346 224.916 238.594 224.916 237.734C224.916 236.396 225.265 235.356 225.963 234.614C226.661 233.872 227.643 233.501 228.907 233.501C229.693 233.501 230.387 233.672 230.987 234.014C231.588 234.355 232.049 234.846 232.372 235.486C232.694 236.125 232.855 236.875 232.855 237.734ZM242.259 241.843H240.025V237.061C240.025 236.47 239.92 236.028 239.71 235.735C239.5 235.437 239.166 235.288 238.707 235.288C238.082 235.288 237.63 235.498 237.352 235.918C237.074 236.333 236.935 237.024 236.935 237.991V241.843H234.701V233.655H236.407L236.708 234.702H236.832C237.081 234.307 237.423 234.009 237.857 233.809C238.297 233.604 238.795 233.501 239.352 233.501C240.304 233.501 241.026 233.76 241.52 234.277C242.013 234.79 242.259 235.532 242.259 236.504V241.843ZM253.011 233.501C253.978 233.501 254.735 233.879 255.282 234.636C255.829 235.388 256.102 236.421 256.102 237.734C256.102 239.087 255.819 240.134 255.252 240.876C254.691 241.619 253.924 241.99 252.953 241.99C251.991 241.99 251.236 241.641 250.689 240.942H250.536L250.162 241.843H248.456V230.447H250.689V233.098C250.689 233.435 250.66 233.975 250.602 234.717H250.689C251.212 233.906 251.986 233.501 253.011 233.501ZM252.293 235.288C251.742 235.288 251.339 235.459 251.085 235.801C250.831 236.138 250.699 236.697 250.689 237.478V237.72C250.689 238.599 250.819 239.229 251.078 239.609C251.341 239.99 251.756 240.181 252.323 240.181C252.782 240.181 253.146 239.971 253.414 239.551C253.688 239.126 253.824 238.511 253.824 237.705C253.824 236.899 253.688 236.296 253.414 235.896C253.141 235.491 252.767 235.288 252.293 235.288ZM260.182 241.843H257.948V230.447H260.182V241.843ZM264.312 237.734C264.312 238.545 264.444 239.158 264.708 239.573C264.977 239.988 265.411 240.195 266.012 240.195C266.607 240.195 267.035 239.99 267.293 239.58C267.557 239.165 267.689 238.55 267.689 237.734C267.689 236.924 267.557 236.316 267.293 235.911C267.03 235.505 266.598 235.303 265.997 235.303C265.401 235.303 264.972 235.505 264.708 235.911C264.444 236.311 264.312 236.919 264.312 237.734ZM269.974 237.734C269.974 239.067 269.623 240.11 268.919 240.862C268.216 241.614 267.237 241.99 265.982 241.99C265.196 241.99 264.503 241.819 263.902 241.477C263.302 241.13 262.84 240.635 262.518 239.99C262.196 239.346 262.035 238.594 262.035 237.734C262.035 236.396 262.384 235.356 263.082 234.614C263.78 233.872 264.762 233.501 266.026 233.501C266.812 233.501 267.506 233.672 268.106 234.014C268.707 234.355 269.168 234.846 269.491 235.486C269.813 236.125 269.974 236.875 269.974 237.734ZM275.145 241.99C272.596 241.99 271.322 240.591 271.322 237.793C271.322 236.401 271.668 235.339 272.362 234.607C273.055 233.87 274.049 233.501 275.343 233.501C276.29 233.501 277.14 233.687 277.892 234.058L277.232 235.786C276.881 235.645 276.554 235.53 276.251 235.442C275.948 235.349 275.646 235.303 275.343 235.303C274.181 235.303 273.6 236.128 273.6 237.778C273.6 239.38 274.181 240.181 275.343 240.181C275.772 240.181 276.17 240.125 276.537 240.012C276.903 239.895 277.269 239.714 277.635 239.47V241.382C277.274 241.611 276.908 241.77 276.537 241.858C276.17 241.946 275.707 241.99 275.145 241.99ZM281.686 237.39L282.66 236.145L284.952 233.655H287.472L284.22 237.207L287.669 241.843H285.091L282.733 238.525L281.773 239.294V241.843H279.54V230.447H281.773V235.53L281.656 237.39H281.686ZM292.167 241.99C289.618 241.99 288.343 240.591 288.343 237.793C288.343 236.401 288.69 235.339 289.383 234.607C290.077 233.87 291.07 233.501 292.364 233.501C293.312 233.501 294.161 233.687 294.913 234.058L294.254 235.786C293.902 235.645 293.575 235.53 293.272 235.442C292.97 235.349 292.667 235.303 292.364 235.303C291.202 235.303 290.621 236.128 290.621 237.778C290.621 239.38 291.202 240.181 292.364 240.181C292.794 240.181 293.192 240.125 293.558 240.012C293.924 239.895 294.291 239.714 294.657 239.47V241.382C294.295 241.611 293.929 241.77 293.558 241.858C293.192 241.946 292.728 241.99 292.167 241.99ZM304.12 241.843H301.886V237.061C301.886 235.879 301.446 235.288 300.567 235.288C299.942 235.288 299.491 235.5 299.212 235.925C298.934 236.35 298.795 237.039 298.795 237.991V241.843H296.561V230.447H298.795V232.769C298.795 232.949 298.778 233.374 298.744 234.043L298.692 234.702H298.81C299.308 233.901 300.099 233.501 301.183 233.501C302.145 233.501 302.875 233.76 303.373 234.277C303.871 234.795 304.12 235.537 304.12 236.504V241.843ZM311.62 241.843L311.188 240.73H311.129C310.753 241.204 310.365 241.533 309.964 241.719C309.569 241.899 309.051 241.99 308.412 241.99C307.625 241.99 307.005 241.765 306.551 241.316C306.102 240.867 305.877 240.227 305.877 239.397C305.877 238.528 306.18 237.888 306.786 237.478C307.396 237.063 308.314 236.833 309.54 236.79L310.96 236.746V236.387C310.96 235.557 310.536 235.142 309.686 235.142C309.032 235.142 308.263 235.339 307.379 235.735L306.639 234.226C307.582 233.733 308.626 233.486 309.774 233.486C310.873 233.486 311.715 233.726 312.301 234.204C312.887 234.683 313.18 235.41 313.18 236.387V241.843H311.62ZM310.96 238.049L310.096 238.079C309.447 238.098 308.963 238.215 308.646 238.43C308.329 238.645 308.17 238.972 308.17 239.412C308.17 240.042 308.531 240.356 309.254 240.356C309.771 240.356 310.184 240.208 310.492 239.91C310.804 239.612 310.96 239.216 310.96 238.723V238.049ZM315.392 231.538C315.392 230.811 315.797 230.447 316.607 230.447C317.418 230.447 317.823 230.811 317.823 231.538C317.823 231.885 317.721 232.156 317.516 232.351C317.315 232.542 317.013 232.637 316.607 232.637C315.797 232.637 315.392 232.271 315.392 231.538ZM317.721 241.843H315.487V233.655H317.721V241.843ZM327.63 241.843H325.396V237.061C325.396 236.47 325.292 236.028 325.082 235.735C324.872 235.437 324.537 235.288 324.078 235.288C323.453 235.288 323.001 235.498 322.723 235.918C322.445 236.333 322.306 237.024 322.306 237.991V241.843H320.072V233.655H321.778L322.079 234.702H322.203C322.452 234.307 322.794 234.009 323.229 233.809C323.668 233.604 324.166 233.501 324.723 233.501C325.675 233.501 326.397 233.76 326.891 234.277C327.384 234.79 327.63 235.532 327.63 236.504V241.843Z"
    fill="white"/>
  <path
    d="M271.032 137.843L270.256 135.294H266.352L265.576 137.843H263.129L266.909 127.091H269.685L273.479 137.843H271.032ZM269.714 133.39C268.996 131.081 268.591 129.774 268.498 129.472C268.41 129.169 268.347 128.93 268.308 128.754C268.146 129.379 267.685 130.924 266.923 133.39H269.714ZM277.104 132.174H277.851C278.549 132.174 279.072 132.038 279.418 131.764C279.765 131.486 279.938 131.083 279.938 130.556C279.938 130.023 279.792 129.63 279.499 129.376C279.211 129.123 278.757 128.996 278.137 128.996H277.104V132.174ZM282.231 130.475C282.231 131.627 281.87 132.509 281.147 133.119C280.429 133.729 279.406 134.035 278.078 134.035H277.104V137.843H274.833V127.135H278.254C279.553 127.135 280.539 127.416 281.213 127.978C281.892 128.534 282.231 129.367 282.231 130.475ZM284.252 137.843V127.135H286.523V137.843H284.252Z"
    fill="white"/>
  <path
    d="M91.4784 172.616C89.7949 172.616 88.1976 172.703 86.5573 172.877L80.2979 162L65.2323 166.96L66.5273 179.447C63.6782 181.144 61.045 183.059 58.5844 185.278L47.188 180.187L37.8637 193.109L46.1951 202.464C44.9001 205.466 43.8641 208.599 43.1734 211.905L31 214.56V230.528L43.1734 233.138C43.8641 236.401 44.9001 239.577 46.2383 242.58L37.9069 251.934L47.2312 264.857L58.6275 259.766C61.0881 261.985 63.7214 263.899 66.5705 265.596L65.3186 278.083L80.3842 283L86.6004 272.123C88.2408 272.297 89.8812 272.34 91.5216 272.34C93.2051 272.34 94.8024 272.253 96.4427 272.079L102.702 282.957L117.768 277.996L116.473 265.509C119.322 263.812 121.955 261.854 124.416 259.679L135.812 264.77L145.136 251.847L136.805 242.493C138.1 239.49 139.136 236.358 139.827 233.051L152 230.397V214.429L139.783 211.818C139.093 208.555 138.057 205.379 136.762 202.377L145.093 193.022L135.769 180.1L124.372 185.191C121.912 183.015 119.279 181.057 116.43 179.36L117.681 166.873L102.659 162L96.3996 172.877C94.8024 172.703 93.162 172.616 91.4784 172.616ZM135.38 222.478C135.38 246.887 115.782 266.684 91.5648 266.684C67.3475 266.684 47.706 246.931 47.706 222.522C47.706 198.113 67.3043 178.316 91.5216 178.316C115.696 178.273 135.337 198.069 135.38 222.478Z"
    fill="#FF3F92"/>
  <path
    d="M60.7642 304.292H64.0967C65.6152 304.292 66.7163 304.509 67.3999 304.944C68.0884 305.374 68.4326 306.06 68.4326 307.002C68.4326 307.642 68.2812 308.167 67.9785 308.577C67.6807 308.987 67.2827 309.233 66.7847 309.316V309.39C67.4634 309.541 67.9517 309.824 68.2495 310.239C68.5522 310.654 68.7036 311.206 68.7036 311.895C68.7036 312.871 68.3496 313.633 67.6416 314.18C66.9385 314.727 65.9814 315 64.7705 315H60.7642V304.292ZM63.0347 308.533H64.353C64.9683 308.533 65.4126 308.438 65.686 308.247C65.9644 308.057 66.1035 307.742 66.1035 307.302C66.1035 306.892 65.9521 306.599 65.6494 306.423C65.3516 306.243 64.8779 306.152 64.2285 306.152H63.0347V308.533ZM63.0347 310.334V313.125H64.5142C65.1392 313.125 65.6006 313.005 65.8984 312.766C66.1963 312.527 66.3452 312.161 66.3452 311.667C66.3452 310.779 65.7104 310.334 64.4409 310.334H63.0347ZM75.8667 315L75.4346 313.887H75.376C75 314.36 74.6118 314.69 74.2114 314.875C73.8159 315.056 73.2983 315.146 72.6587 315.146C71.8726 315.146 71.2524 314.922 70.7983 314.473C70.3491 314.023 70.1245 313.384 70.1245 312.554C70.1245 311.685 70.4272 311.045 71.0327 310.635C71.6431 310.22 72.561 309.99 73.7866 309.946L75.2075 309.902V309.543C75.2075 308.713 74.7827 308.298 73.9331 308.298C73.2788 308.298 72.5098 308.496 71.626 308.892L70.8862 307.383C71.8286 306.89 72.8735 306.643 74.021 306.643C75.1196 306.643 75.9619 306.882 76.5479 307.361C77.1338 307.839 77.4268 308.567 77.4268 309.543V315H75.8667ZM75.2075 311.206L74.3433 311.235C73.6938 311.255 73.2104 311.372 72.8931 311.587C72.5757 311.802 72.417 312.129 72.417 312.568C72.417 313.198 72.7783 313.513 73.501 313.513C74.0186 313.513 74.4312 313.364 74.7388 313.066C75.0513 312.769 75.2075 312.373 75.2075 311.88V311.206ZM83.1836 313.367C83.5742 313.367 84.043 313.281 84.5898 313.11V314.773C84.0332 315.022 83.3496 315.146 82.5391 315.146C81.6455 315.146 80.9937 314.922 80.5835 314.473C80.1782 314.019 79.9756 313.34 79.9756 312.437V308.489H78.9062V307.544L80.1367 306.797L80.7812 305.068H82.2095V306.812H84.502V308.489H82.2095V312.437C82.2095 312.754 82.2974 312.988 82.4731 313.14C82.6538 313.291 82.8906 313.367 83.1836 313.367ZM89.5776 315.146C87.0288 315.146 85.7544 313.748 85.7544 310.95C85.7544 309.558 86.1011 308.496 86.7944 307.764C87.4878 307.026 88.4814 306.658 89.7754 306.658C90.7227 306.658 91.5723 306.843 92.3242 307.214L91.665 308.943C91.3135 308.801 90.9863 308.687 90.6836 308.599C90.3809 308.506 90.0781 308.459 89.7754 308.459C88.6133 308.459 88.0322 309.285 88.0322 310.935C88.0322 312.537 88.6133 313.337 89.7754 313.337C90.2051 313.337 90.603 313.281 90.9692 313.169C91.3354 313.052 91.7017 312.871 92.0679 312.627V314.539C91.7065 314.768 91.3403 314.927 90.9692 315.015C90.603 315.103 90.1392 315.146 89.5776 315.146ZM101.531 315H99.2969V310.217C99.2969 309.036 98.8574 308.445 97.9785 308.445C97.3535 308.445 96.9019 308.657 96.6235 309.082C96.3452 309.507 96.2061 310.195 96.2061 311.147V315H93.9722V303.604H96.2061V305.925C96.2061 306.106 96.189 306.531 96.1548 307.2L96.1035 307.859H96.2207C96.7188 307.058 97.5098 306.658 98.5938 306.658C99.5557 306.658 100.286 306.917 100.784 307.434C101.282 307.952 101.531 308.694 101.531 309.661V315ZM103.735 304.695C103.735 303.967 104.141 303.604 104.951 303.604C105.762 303.604 106.167 303.967 106.167 304.695C106.167 305.042 106.064 305.312 105.859 305.508C105.659 305.698 105.356 305.793 104.951 305.793C104.141 305.793 103.735 305.427 103.735 304.695ZM106.064 315H103.831V306.812H106.064V315ZM115.974 315H113.74V310.217C113.74 309.626 113.635 309.185 113.425 308.892C113.215 308.594 112.881 308.445 112.422 308.445C111.797 308.445 111.345 308.655 111.067 309.075C110.789 309.49 110.649 310.181 110.649 311.147V315H108.416V306.812H110.122L110.422 307.859H110.547C110.796 307.463 111.138 307.166 111.572 306.965C112.012 306.76 112.51 306.658 113.066 306.658C114.019 306.658 114.741 306.917 115.234 307.434C115.728 307.947 115.974 308.689 115.974 309.661V315ZM125.4 306.812V307.947L124.119 308.276C124.353 308.643 124.47 309.053 124.47 309.507C124.47 310.386 124.163 311.072 123.547 311.565C122.937 312.053 122.087 312.297 120.999 312.297L120.596 312.275L120.266 312.239C120.037 312.415 119.922 312.61 119.922 312.825C119.922 313.147 120.332 313.308 121.152 313.308H122.544C123.442 313.308 124.126 313.501 124.595 313.887C125.068 314.272 125.305 314.839 125.305 315.586C125.305 316.543 124.905 317.285 124.104 317.812C123.308 318.34 122.163 318.604 120.669 318.604C119.526 318.604 118.652 318.403 118.047 318.003C117.446 317.607 117.146 317.051 117.146 316.333C117.146 315.84 117.3 315.427 117.607 315.095C117.915 314.763 118.367 314.526 118.962 314.385C118.733 314.287 118.533 314.128 118.362 313.909C118.191 313.684 118.105 313.447 118.105 313.198C118.105 312.886 118.196 312.627 118.376 312.422C118.557 312.212 118.818 312.007 119.16 311.807C118.73 311.621 118.389 311.323 118.135 310.913C117.886 310.503 117.761 310.02 117.761 309.463C117.761 308.569 118.052 307.878 118.633 307.39C119.214 306.902 120.044 306.658 121.123 306.658C121.353 306.658 121.624 306.68 121.936 306.724C122.253 306.763 122.456 306.792 122.544 306.812H125.4ZM119.08 316.157C119.08 316.465 119.226 316.707 119.519 316.882C119.817 317.058 120.232 317.146 120.764 317.146C121.565 317.146 122.192 317.036 122.646 316.816C123.101 316.597 123.328 316.296 123.328 315.916C123.328 315.608 123.193 315.396 122.925 315.278C122.656 315.161 122.241 315.103 121.68 315.103H120.522C120.112 315.103 119.768 315.198 119.49 315.388C119.216 315.583 119.08 315.84 119.08 316.157ZM119.893 309.492C119.893 309.937 119.993 310.288 120.193 310.547C120.398 310.806 120.708 310.935 121.123 310.935C121.543 310.935 121.851 310.806 122.046 310.547C122.241 310.288 122.339 309.937 122.339 309.492C122.339 308.506 121.934 308.013 121.123 308.013C120.303 308.013 119.893 308.506 119.893 309.492Z"
    fill="white"/>
  <path
    d="M87.0322 227.843L86.2559 225.294H82.3521L81.5757 227.843H79.1294L82.9087 217.091H85.6846L89.4785 227.843H87.0322ZM85.7139 223.39C84.9961 221.081 84.5908 219.774 84.498 219.472C84.4102 219.169 84.3467 218.93 84.3076 218.754C84.1465 219.379 83.6851 220.924 82.9233 223.39H85.7139ZM93.104 222.174H93.8511C94.5493 222.174 95.0718 222.038 95.4185 221.764C95.7651 221.486 95.9385 221.083 95.9385 220.556C95.9385 220.023 95.792 219.63 95.499 219.376C95.2109 219.123 94.7568 218.996 94.1367 218.996H93.104V222.174ZM98.231 220.475C98.231 221.627 97.8696 222.509 97.147 223.119C96.4292 223.729 95.4062 224.035 94.0781 224.035H93.104V227.843H90.8335V217.135H94.2539C95.5527 217.135 96.5391 217.416 97.2129 217.978C97.8916 218.534 98.231 219.367 98.231 220.475ZM100.252 227.843V217.135H102.523V227.843H100.252Z"
    fill="white"/>
  <path
    d="M508.478 10.6163C506.795 10.6163 505.198 10.7033 503.557 10.8774L497.298 0L482.232 4.96009L483.527 17.4473C480.678 19.1442 478.045 21.0586 475.584 23.2776L464.188 18.187L454.864 31.1093L463.195 40.4639C461.9 43.466 460.864 46.5987 460.173 49.9054L448 52.5595V68.5275L460.173 71.1381C460.864 74.4013 461.9 77.5775 463.238 80.5797L454.907 89.9342L464.231 102.857L475.628 97.7659C478.088 99.9849 480.721 101.899 483.57 103.596L482.319 116.083L497.384 121L503.6 110.123C505.241 110.297 506.881 110.34 508.522 110.34C510.205 110.34 511.802 110.253 513.443 110.079L519.702 120.957L534.768 115.996L533.473 103.509C536.322 101.812 538.955 99.8544 541.416 97.6789L552.812 102.77L562.136 89.8472L553.805 80.4926C555.1 77.4905 556.136 74.3578 556.827 71.0511L569 68.397V52.429L556.783 49.8184C556.093 46.5552 555.057 43.379 553.762 40.3768L562.093 31.0223L552.769 18.1L541.372 23.1906C538.912 21.0151 536.279 19.0572 533.43 17.3603L534.681 4.87307L519.659 0L513.4 10.8774C511.802 10.7033 510.162 10.6163 508.478 10.6163ZM552.38 60.4783C552.38 84.8871 532.782 104.684 508.565 104.684C484.347 104.684 464.706 84.9306 464.706 60.5218C464.706 36.1129 484.304 16.3161 508.522 16.3161C532.696 16.2726 552.337 36.0694 552.38 60.4783Z"
    fill="#89C512"/>
  <path
    d="M478.958 134.292H481.25L477.61 145H475.135L471.502 134.292H473.794L475.809 140.664C475.921 141.04 476.036 141.479 476.153 141.982C476.275 142.48 476.351 142.827 476.38 143.022C476.434 142.573 476.617 141.787 476.929 140.664L478.958 134.292ZM487.63 145L487.198 143.887H487.139C486.763 144.36 486.375 144.69 485.975 144.875C485.579 145.056 485.062 145.146 484.422 145.146C483.636 145.146 483.016 144.922 482.562 144.473C482.112 144.023 481.888 143.384 481.888 142.554C481.888 141.685 482.19 141.045 482.796 140.635C483.406 140.22 484.324 139.99 485.55 139.946L486.971 139.902V139.543C486.971 138.713 486.546 138.298 485.696 138.298C485.042 138.298 484.273 138.496 483.389 138.892L482.649 137.383C483.592 136.89 484.637 136.643 485.784 136.643C486.883 136.643 487.725 136.882 488.311 137.361C488.897 137.839 489.19 138.567 489.19 139.543V145H487.63ZM486.971 141.206L486.106 141.235C485.457 141.255 484.974 141.372 484.656 141.587C484.339 141.802 484.18 142.129 484.18 142.568C484.18 143.198 484.542 143.513 485.264 143.513C485.782 143.513 486.194 143.364 486.502 143.066C486.814 142.769 486.971 142.373 486.971 141.88V141.206ZM493.731 145H491.497V133.604H493.731V145ZM495.987 134.695C495.987 133.967 496.392 133.604 497.203 133.604C498.013 133.604 498.418 133.967 498.418 134.695C498.418 135.042 498.316 135.312 498.111 135.508C497.911 135.698 497.608 135.793 497.203 135.793C496.392 135.793 495.987 135.427 495.987 134.695ZM498.316 145H496.082V136.812H498.316V145ZM503.26 145.146C502.298 145.146 501.541 144.773 500.989 144.026C500.442 143.279 500.169 142.244 500.169 140.92C500.169 139.578 500.447 138.533 501.004 137.786C501.565 137.034 502.337 136.658 503.318 136.658C504.349 136.658 505.135 137.058 505.677 137.859H505.75C505.638 137.249 505.582 136.704 505.582 136.226V133.604H507.823V145H506.109L505.677 143.938H505.582C505.074 144.744 504.3 145.146 503.26 145.146ZM504.043 143.367C504.615 143.367 505.032 143.201 505.296 142.869C505.564 142.537 505.711 141.973 505.735 141.177V140.935C505.735 140.056 505.599 139.426 505.325 139.045C505.057 138.665 504.617 138.474 504.007 138.474C503.509 138.474 503.121 138.687 502.842 139.111C502.569 139.531 502.432 140.144 502.432 140.95C502.432 141.755 502.571 142.361 502.85 142.766C503.128 143.167 503.526 143.367 504.043 143.367ZM515.359 145L514.927 143.887H514.869C514.493 144.36 514.104 144.69 513.704 144.875C513.309 145.056 512.791 145.146 512.151 145.146C511.365 145.146 510.745 144.922 510.291 144.473C509.842 144.023 509.617 143.384 509.617 142.554C509.617 141.685 509.92 141.045 510.525 140.635C511.136 140.22 512.054 139.99 513.279 139.946L514.7 139.902V139.543C514.7 138.713 514.275 138.298 513.426 138.298C512.771 138.298 512.002 138.496 511.119 138.892L510.379 137.383C511.321 136.89 512.366 136.643 513.514 136.643C514.612 136.643 515.455 136.882 516.041 137.361C516.626 137.839 516.919 138.567 516.919 139.543V145H515.359ZM514.7 141.206L513.836 141.235C513.187 141.255 512.703 141.372 512.386 141.587C512.068 141.802 511.91 142.129 511.91 142.568C511.91 143.198 512.271 143.513 512.994 143.513C513.511 143.513 513.924 143.364 514.231 143.066C514.544 142.769 514.7 142.373 514.7 141.88V141.206ZM522.676 143.367C523.067 143.367 523.536 143.281 524.083 143.11V144.773C523.526 145.022 522.842 145.146 522.032 145.146C521.138 145.146 520.486 144.922 520.076 144.473C519.671 144.019 519.468 143.34 519.468 142.437V138.489H518.399V137.544L519.629 136.797L520.274 135.068H521.702V136.812H523.995V138.489H521.702V142.437C521.702 142.754 521.79 142.988 521.966 143.14C522.146 143.291 522.383 143.367 522.676 143.367ZM525.65 134.695C525.65 133.967 526.055 133.604 526.866 133.604C527.676 133.604 528.082 133.967 528.082 134.695C528.082 135.042 527.979 135.312 527.774 135.508C527.574 135.698 527.271 135.793 526.866 135.793C526.055 135.793 525.65 135.427 525.65 134.695ZM527.979 145H525.745V136.812H527.979V145ZM537.889 145H535.655V140.217C535.655 139.626 535.55 139.185 535.34 138.892C535.13 138.594 534.795 138.445 534.336 138.445C533.711 138.445 533.26 138.655 532.981 139.075C532.703 139.49 532.564 140.181 532.564 141.147V145H530.33V136.812H532.037L532.337 137.859H532.461C532.71 137.463 533.052 137.166 533.487 136.965C533.926 136.76 534.424 136.658 534.981 136.658C535.933 136.658 536.656 136.917 537.149 137.434C537.642 137.947 537.889 138.689 537.889 139.661V145ZM547.315 136.812V137.947L546.033 138.276C546.268 138.643 546.385 139.053 546.385 139.507C546.385 140.386 546.077 141.072 545.462 141.565C544.852 142.053 544.002 142.297 542.913 142.297L542.51 142.275L542.181 142.239C541.951 142.415 541.836 142.61 541.836 142.825C541.836 143.147 542.247 143.308 543.067 143.308H544.458C545.357 143.308 546.041 143.501 546.509 143.887C546.983 144.272 547.22 144.839 547.22 145.586C547.22 146.543 546.819 147.285 546.019 147.812C545.223 148.34 544.078 148.604 542.583 148.604C541.441 148.604 540.567 148.403 539.961 148.003C539.361 147.607 539.061 147.051 539.061 146.333C539.061 145.84 539.214 145.427 539.522 145.095C539.83 144.763 540.281 144.526 540.877 144.385C540.647 144.287 540.447 144.128 540.276 143.909C540.105 143.684 540.02 143.447 540.02 143.198C540.02 142.886 540.11 142.627 540.291 142.422C540.472 142.212 540.733 142.007 541.075 141.807C540.645 141.621 540.303 141.323 540.049 140.913C539.8 140.503 539.676 140.02 539.676 139.463C539.676 138.569 539.966 137.878 540.547 137.39C541.128 136.902 541.958 136.658 543.038 136.658C543.267 136.658 543.538 136.68 543.851 136.724C544.168 136.763 544.371 136.792 544.458 136.812H547.315ZM540.994 146.157C540.994 146.465 541.141 146.707 541.434 146.882C541.731 147.058 542.146 147.146 542.679 147.146C543.479 147.146 544.107 147.036 544.561 146.816C545.015 146.597 545.242 146.296 545.242 145.916C545.242 145.608 545.108 145.396 544.839 145.278C544.571 145.161 544.156 145.103 543.594 145.103H542.437C542.027 145.103 541.683 145.198 541.404 145.388C541.131 145.583 540.994 145.84 540.994 146.157ZM541.807 139.492C541.807 139.937 541.907 140.288 542.107 140.547C542.312 140.806 542.623 140.935 543.038 140.935C543.458 140.935 543.765 140.806 543.96 140.547C544.156 140.288 544.253 139.937 544.253 139.492C544.253 138.506 543.848 138.013 543.038 138.013C542.217 138.013 541.807 138.506 541.807 139.492Z"
    fill="white"/>
  <path
    d="M504.032 65.8433L503.256 63.2944H499.352L498.576 65.8433H496.129L499.909 55.0913H502.685L506.479 65.8433H504.032ZM502.714 61.3901C501.996 59.0806 501.591 57.7744 501.498 57.4717C501.41 57.1689 501.347 56.9297 501.308 56.7539C501.146 57.3789 500.685 58.9243 499.923 61.3901H502.714ZM510.104 60.1743H510.851C511.549 60.1743 512.072 60.0376 512.418 59.7642C512.765 59.4858 512.938 59.083 512.938 58.5557C512.938 58.0234 512.792 57.6304 512.499 57.3765C512.211 57.1226 511.757 56.9956 511.137 56.9956H510.104V60.1743ZM515.231 58.4751C515.231 59.6274 514.87 60.5088 514.147 61.1191C513.429 61.7295 512.406 62.0347 511.078 62.0347H510.104V65.8433H507.833V55.1353H511.254C512.553 55.1353 513.539 55.416 514.213 55.9775C514.892 56.5342 515.231 57.3667 515.231 58.4751ZM517.252 65.8433V55.1353H519.523V65.8433H517.252Z"
    fill="white"/>
  <path
    d="M511.478 183.616C509.795 183.616 508.198 183.703 506.557 183.877L500.298 173L485.232 177.96L486.527 190.447C483.678 192.144 481.045 194.059 478.584 196.278L467.188 191.187L457.864 204.109L466.195 213.464C464.9 216.466 463.864 219.599 463.173 222.905L451 225.56V241.528L463.173 244.138C463.864 247.401 464.9 250.577 466.238 253.58L457.907 262.934L467.231 275.857L478.628 270.766C481.088 272.985 483.721 274.899 486.57 276.596L485.319 289.083L500.384 294L506.6 283.123C508.241 283.297 509.881 283.34 511.522 283.34C513.205 283.34 514.802 283.253 516.443 283.079L522.702 293.957L537.768 288.996L536.473 276.509C539.322 274.812 541.955 272.854 544.416 270.679L555.812 275.77L565.136 262.847L556.805 253.493C558.1 250.49 559.136 247.358 559.827 244.051L572 241.397V225.429L559.783 222.818C559.093 219.555 558.057 216.379 556.762 213.377L565.093 204.022L555.769 191.1L544.372 196.191C541.912 194.015 539.279 192.057 536.43 190.36L537.681 177.873L522.659 173L516.4 183.877C514.802 183.703 513.162 183.616 511.478 183.616ZM555.38 233.478C555.38 257.887 535.782 277.684 511.565 277.684C487.347 277.684 467.706 257.931 467.706 233.522C467.706 209.113 487.304 189.316 511.522 189.316C535.696 189.273 555.337 209.069 555.38 233.478Z"
    fill="#FF3F92"/>
  <path
    d="M454.346 310.987H458.594V316.539C457.905 316.763 457.256 316.919 456.646 317.007C456.04 317.1 455.42 317.146 454.785 317.146C453.169 317.146 451.934 316.673 451.079 315.726C450.229 314.773 449.805 313.409 449.805 311.631C449.805 309.903 450.298 308.555 451.284 307.588C452.275 306.622 453.647 306.138 455.4 306.138C456.499 306.138 457.559 306.358 458.579 306.797L457.825 308.614C457.043 308.223 456.23 308.028 455.386 308.028C454.404 308.028 453.618 308.357 453.027 309.017C452.437 309.676 452.141 310.562 452.141 311.675C452.141 312.837 452.378 313.726 452.852 314.341C453.33 314.952 454.023 315.257 454.932 315.257C455.405 315.257 455.886 315.208 456.375 315.11V312.876H454.346V310.987ZM466.174 317L465.742 315.887H465.684C465.308 316.36 464.919 316.69 464.519 316.875C464.124 317.056 463.606 317.146 462.966 317.146C462.18 317.146 461.56 316.922 461.106 316.473C460.657 316.023 460.432 315.384 460.432 314.554C460.432 313.685 460.735 313.045 461.34 312.635C461.951 312.22 462.869 311.99 464.094 311.946L465.515 311.902V311.543C465.515 310.713 465.09 310.298 464.241 310.298C463.586 310.298 462.817 310.496 461.934 310.892L461.194 309.383C462.136 308.89 463.181 308.643 464.329 308.643C465.427 308.643 466.27 308.882 466.855 309.361C467.441 309.839 467.734 310.567 467.734 311.543V317H466.174ZM465.515 313.206L464.651 313.235C464.001 313.255 463.518 313.372 463.201 313.587C462.883 313.802 462.725 314.129 462.725 314.568C462.725 315.198 463.086 315.513 463.809 315.513C464.326 315.513 464.739 315.364 465.046 315.066C465.359 314.769 465.515 314.373 465.515 313.88V313.206ZM475.754 314.568C475.754 315.408 475.461 316.048 474.875 316.487C474.294 316.927 473.423 317.146 472.261 317.146C471.665 317.146 471.157 317.105 470.737 317.022C470.317 316.944 469.924 316.827 469.558 316.67V314.825C469.973 315.02 470.439 315.184 470.957 315.315C471.479 315.447 471.938 315.513 472.334 315.513C473.145 315.513 473.55 315.279 473.55 314.81C473.55 314.634 473.496 314.493 473.389 314.385C473.281 314.273 473.096 314.148 472.832 314.012C472.568 313.87 472.217 313.707 471.777 313.521C471.147 313.257 470.684 313.013 470.386 312.789C470.093 312.564 469.878 312.308 469.741 312.02C469.609 311.727 469.543 311.368 469.543 310.943C469.543 310.215 469.824 309.654 470.386 309.258C470.952 308.858 471.753 308.658 472.788 308.658C473.774 308.658 474.734 308.873 475.667 309.302L474.993 310.914C474.583 310.738 474.199 310.594 473.843 310.481C473.486 310.369 473.123 310.313 472.751 310.313C472.092 310.313 471.763 310.491 471.763 310.848C471.763 311.048 471.868 311.221 472.078 311.368C472.292 311.514 472.759 311.731 473.477 312.02C474.116 312.278 474.585 312.52 474.883 312.745C475.181 312.969 475.4 313.228 475.542 313.521C475.684 313.814 475.754 314.163 475.754 314.568ZM483.174 312.891C483.174 313.702 483.306 314.314 483.569 314.729C483.838 315.145 484.272 315.352 484.873 315.352C485.469 315.352 485.896 315.147 486.155 314.737C486.418 314.322 486.55 313.707 486.55 312.891C486.55 312.081 486.418 311.473 486.155 311.067C485.891 310.662 485.459 310.459 484.858 310.459C484.263 310.459 483.833 310.662 483.569 311.067C483.306 311.468 483.174 312.076 483.174 312.891ZM488.835 312.891C488.835 314.224 488.484 315.267 487.781 316.019C487.078 316.771 486.099 317.146 484.844 317.146C484.058 317.146 483.364 316.976 482.764 316.634C482.163 316.287 481.702 315.792 481.379 315.147C481.057 314.502 480.896 313.75 480.896 312.891C480.896 311.553 481.245 310.513 481.943 309.771C482.642 309.029 483.623 308.658 484.888 308.658C485.674 308.658 486.367 308.829 486.968 309.17C487.568 309.512 488.03 310.003 488.352 310.643C488.674 311.282 488.835 312.032 488.835 312.891ZM495.178 317.146C494.216 317.146 493.462 316.797 492.915 316.099H492.798C492.876 316.783 492.915 317.178 492.915 317.286V320.604H490.681V308.812H492.498L492.812 309.874H492.915C493.438 309.063 494.211 308.658 495.237 308.658C496.204 308.658 496.96 309.031 497.507 309.778C498.054 310.525 498.328 311.563 498.328 312.891C498.328 313.765 498.198 314.524 497.939 315.169C497.686 315.813 497.322 316.304 496.848 316.641C496.375 316.978 495.818 317.146 495.178 317.146ZM494.519 310.445C493.967 310.445 493.564 310.616 493.311 310.958C493.057 311.294 492.925 311.854 492.915 312.635V312.876C492.915 313.755 493.044 314.385 493.303 314.766C493.567 315.147 493.982 315.337 494.548 315.337C495.549 315.337 496.05 314.512 496.05 312.862C496.05 312.056 495.925 311.453 495.676 311.053C495.432 310.647 495.046 310.445 494.519 310.445ZM503.623 315.367C504.014 315.367 504.482 315.281 505.029 315.11V316.773C504.473 317.022 503.789 317.146 502.979 317.146C502.085 317.146 501.433 316.922 501.023 316.473C500.618 316.019 500.415 315.34 500.415 314.437V310.489H499.346V309.544L500.576 308.797L501.221 307.068H502.649V308.812H504.941V310.489H502.649V314.437C502.649 314.754 502.737 314.988 502.913 315.14C503.093 315.291 503.33 315.367 503.623 315.367ZM506.597 306.695C506.597 305.967 507.002 305.604 507.812 305.604C508.623 305.604 509.028 305.967 509.028 306.695C509.028 307.042 508.926 307.312 508.721 307.508C508.521 307.698 508.218 307.793 507.812 307.793C507.002 307.793 506.597 307.427 506.597 306.695ZM508.926 317H506.692V308.812H508.926V317ZM518.608 317H516.375V312.217C516.375 311.626 516.274 311.185 516.074 310.892C515.879 310.594 515.569 310.445 515.144 310.445C514.573 310.445 514.158 310.655 513.899 311.075C513.64 311.495 513.511 312.186 513.511 313.147V317H511.277V308.812H512.983L513.284 309.859H513.408C513.628 309.483 513.945 309.19 514.36 308.98C514.775 308.765 515.251 308.658 515.789 308.658C517.014 308.658 517.844 309.058 518.279 309.859H518.477C518.696 309.478 519.019 309.183 519.443 308.973C519.873 308.763 520.356 308.658 520.894 308.658C521.821 308.658 522.522 308.897 522.996 309.375C523.474 309.849 523.713 310.611 523.713 311.661V317H521.472V312.217C521.472 311.626 521.372 311.185 521.172 310.892C520.977 310.594 520.667 310.445 520.242 310.445C519.695 310.445 519.285 310.64 519.011 311.031C518.743 311.421 518.608 312.042 518.608 312.891V317ZM525.918 306.695C525.918 305.967 526.323 305.604 527.134 305.604C527.944 305.604 528.35 305.967 528.35 306.695C528.35 307.042 528.247 307.312 528.042 307.508C527.842 307.698 527.539 307.793 527.134 307.793C526.323 307.793 525.918 307.427 525.918 306.695ZM528.247 317H526.013V308.812H528.247V317ZM536.296 317H529.829V315.682L533.623 310.518H530.056V308.812H536.165V310.262L532.473 315.293H536.296V317ZM543.123 317L542.69 315.887H542.632C542.256 316.36 541.868 316.69 541.467 316.875C541.072 317.056 540.554 317.146 539.915 317.146C539.128 317.146 538.508 316.922 538.054 316.473C537.605 316.023 537.38 315.384 537.38 314.554C537.38 313.685 537.683 313.045 538.289 312.635C538.899 312.22 539.817 311.99 541.042 311.946L542.463 311.902V311.543C542.463 310.713 542.039 310.298 541.189 310.298C540.535 310.298 539.766 310.496 538.882 310.892L538.142 309.383C539.084 308.89 540.129 308.643 541.277 308.643C542.375 308.643 543.218 308.882 543.804 309.361C544.39 309.839 544.683 310.567 544.683 311.543V317H543.123ZM542.463 313.206L541.599 313.235C540.95 313.255 540.466 313.372 540.149 313.587C539.832 313.802 539.673 314.129 539.673 314.568C539.673 315.198 540.034 315.513 540.757 315.513C541.274 315.513 541.687 315.364 541.995 315.066C542.307 314.769 542.463 314.373 542.463 313.88V313.206ZM550.439 315.367C550.83 315.367 551.299 315.281 551.846 315.11V316.773C551.289 317.022 550.605 317.146 549.795 317.146C548.901 317.146 548.25 316.922 547.839 316.473C547.434 316.019 547.231 315.34 547.231 314.437V310.489H546.162V309.544L547.393 308.797L548.037 307.068H549.465V308.812H551.758V310.489H549.465V314.437C549.465 314.754 549.553 314.988 549.729 315.14C549.91 315.291 550.146 315.367 550.439 315.367ZM553.413 306.695C553.413 305.967 553.818 305.604 554.629 305.604C555.439 305.604 555.845 305.967 555.845 306.695C555.845 307.042 555.742 307.312 555.537 307.508C555.337 307.698 555.034 307.793 554.629 307.793C553.818 307.793 553.413 307.427 553.413 306.695ZM555.742 317H553.508V308.812H555.742V317ZM559.873 312.891C559.873 313.702 560.005 314.314 560.269 314.729C560.537 315.145 560.972 315.352 561.572 315.352C562.168 315.352 562.595 315.147 562.854 314.737C563.118 314.322 563.25 313.707 563.25 312.891C563.25 312.081 563.118 311.473 562.854 311.067C562.59 310.662 562.158 310.459 561.558 310.459C560.962 310.459 560.532 310.662 560.269 311.067C560.005 311.468 559.873 312.076 559.873 312.891ZM565.535 312.891C565.535 314.224 565.183 315.267 564.48 316.019C563.777 316.771 562.798 317.146 561.543 317.146C560.757 317.146 560.063 316.976 559.463 316.634C558.862 316.287 558.401 315.792 558.079 315.147C557.756 314.502 557.595 313.75 557.595 312.891C557.595 311.553 557.944 310.513 558.643 309.771C559.341 309.029 560.322 308.658 561.587 308.658C562.373 308.658 563.066 308.829 563.667 309.17C564.268 309.512 564.729 310.003 565.051 310.643C565.374 311.282 565.535 312.032 565.535 312.891ZM574.939 317H572.705V312.217C572.705 311.626 572.6 311.185 572.39 310.892C572.18 310.594 571.846 310.445 571.387 310.445C570.762 310.445 570.31 310.655 570.032 311.075C569.753 311.49 569.614 312.181 569.614 313.147V317H567.38V308.812H569.087L569.387 309.859H569.512C569.761 309.463 570.103 309.166 570.537 308.965C570.977 308.76 571.475 308.658 572.031 308.658C572.983 308.658 573.706 308.917 574.199 309.434C574.692 309.947 574.939 310.689 574.939 311.661V317Z"
    fill="white"/>
  <path
    d="M507.032 238.843L506.256 236.294H502.352L501.576 238.843H499.129L502.909 228.091H505.685L509.479 238.843H507.032ZM505.714 234.39C504.996 232.081 504.591 230.774 504.498 230.472C504.41 230.169 504.347 229.93 504.308 229.754C504.146 230.379 503.685 231.924 502.923 234.39H505.714ZM513.104 233.174H513.851C514.549 233.174 515.072 233.038 515.418 232.764C515.765 232.486 515.938 232.083 515.938 231.556C515.938 231.023 515.792 230.63 515.499 230.376C515.211 230.123 514.757 229.996 514.137 229.996H513.104V233.174ZM518.231 231.475C518.231 232.627 517.87 233.509 517.147 234.119C516.429 234.729 515.406 235.035 514.078 235.035H513.104V238.843H510.833V228.135H514.254C515.553 228.135 516.539 228.416 517.213 228.978C517.892 229.534 518.231 230.367 518.231 231.475ZM520.252 238.843V228.135H522.523V238.843H520.252Z"
    fill="white"/>
  <path
    d="M742.478 80.9673C740.738 80.9673 739.088 81.0572 737.394 81.237L730.928 70L715.364 75.1241L716.702 88.0241C713.758 89.7771 711.038 91.7548 708.496 94.0471L696.723 88.7882L687.091 102.138L695.697 111.802C694.36 114.903 693.289 118.139 692.576 121.555L680 124.297V140.793L692.576 143.49C693.289 146.861 694.36 150.142 695.742 153.243L687.135 162.907L696.768 176.257L708.541 170.998C711.083 173.29 713.803 175.268 716.746 177.021L715.453 189.921L731.017 195L737.438 183.763C739.133 183.943 740.828 183.988 742.522 183.988C744.262 183.988 745.912 183.898 747.606 183.718L754.072 194.955L769.636 189.831L768.298 176.931C771.242 175.178 773.962 173.155 776.504 170.908L788.277 176.167L797.909 162.817L789.303 153.154C790.64 150.052 791.711 146.816 792.424 143.4L805 140.658V124.162L792.38 121.465C791.666 118.094 790.596 114.813 789.258 111.712L797.865 102.048L788.232 88.6983L776.459 93.9572C773.917 91.7098 771.197 89.6872 768.254 87.9342L769.547 75.0342L754.028 70L747.562 81.237C745.912 81.0572 744.217 80.9673 742.478 80.9673ZM787.831 132.478C787.831 157.693 767.585 178.145 742.567 178.145C717.549 178.145 697.258 157.738 697.258 132.522C697.258 107.307 717.504 86.8554 742.522 86.8554C767.496 86.8105 787.786 107.262 787.831 132.478Z"
    fill="#00ACFF"/>
  <path
    d="M665.9 221H659.733V210.292H665.9V212.152H662.003V214.503H665.629V216.364H662.003V219.125H665.9V221ZM672.536 212.658C672.838 212.658 673.09 212.68 673.29 212.724L673.122 214.818C672.941 214.77 672.721 214.745 672.462 214.745C671.75 214.745 671.193 214.928 670.792 215.294C670.397 215.661 670.199 216.173 670.199 216.833V221H667.965V212.812H669.657L669.987 214.188H670.097C670.351 213.729 670.692 213.361 671.122 213.083C671.557 212.799 672.028 212.658 672.536 212.658ZM679.347 212.658C679.65 212.658 679.901 212.68 680.102 212.724L679.933 214.818C679.752 214.77 679.533 214.745 679.274 214.745C678.561 214.745 678.004 214.928 677.604 215.294C677.208 215.661 677.011 216.173 677.011 216.833V221H674.777V212.812H676.469L676.798 214.188H676.908C677.162 213.729 677.504 213.361 677.934 213.083C678.368 212.799 678.839 212.658 679.347 212.658ZM683.368 216.891C683.368 217.702 683.5 218.314 683.764 218.729C684.032 219.145 684.467 219.352 685.067 219.352C685.663 219.352 686.09 219.147 686.349 218.737C686.613 218.322 686.745 217.707 686.745 216.891C686.745 216.081 686.613 215.473 686.349 215.067C686.085 214.662 685.653 214.459 685.053 214.459C684.457 214.459 684.027 214.662 683.764 215.067C683.5 215.468 683.368 216.076 683.368 216.891ZM689.03 216.891C689.03 218.224 688.678 219.267 687.975 220.019C687.272 220.771 686.293 221.146 685.038 221.146C684.252 221.146 683.559 220.976 682.958 220.634C682.357 220.287 681.896 219.792 681.574 219.147C681.251 218.502 681.09 217.75 681.09 216.891C681.09 215.553 681.439 214.513 682.138 213.771C682.836 213.029 683.817 212.658 685.082 212.658C685.868 212.658 686.562 212.829 687.162 213.17C687.763 213.512 688.224 214.003 688.546 214.643C688.869 215.282 689.03 216.032 689.03 216.891ZM695.446 212.658C695.749 212.658 696 212.68 696.2 212.724L696.032 214.818C695.851 214.77 695.631 214.745 695.373 214.745C694.66 214.745 694.103 214.928 693.703 215.294C693.307 215.661 693.109 216.173 693.109 216.833V221H690.875V212.812H692.567L692.897 214.188H693.007C693.261 213.729 693.603 213.361 694.032 213.083C694.467 212.799 694.938 212.658 695.446 212.658ZM703.4 218.568C703.4 219.408 703.107 220.048 702.521 220.487C701.94 220.927 701.068 221.146 699.906 221.146C699.311 221.146 698.803 221.105 698.383 221.022C697.963 220.944 697.57 220.827 697.204 220.67V218.825C697.619 219.02 698.085 219.184 698.603 219.315C699.125 219.447 699.584 219.513 699.979 219.513C700.79 219.513 701.195 219.279 701.195 218.81C701.195 218.634 701.142 218.493 701.034 218.385C700.927 218.273 700.741 218.148 700.478 218.012C700.214 217.87 699.862 217.707 699.423 217.521C698.793 217.257 698.329 217.013 698.031 216.789C697.738 216.564 697.523 216.308 697.387 216.02C697.255 215.727 697.189 215.368 697.189 214.943C697.189 214.215 697.47 213.654 698.031 213.258C698.598 212.858 699.398 212.658 700.434 212.658C701.42 212.658 702.379 212.873 703.312 213.302L702.638 214.914C702.228 214.738 701.845 214.594 701.488 214.481C701.132 214.369 700.768 214.313 700.397 214.313C699.738 214.313 699.408 214.491 699.408 214.848C699.408 215.048 699.513 215.221 699.723 215.368C699.938 215.514 700.404 215.731 701.122 216.02C701.762 216.278 702.23 216.52 702.528 216.745C702.826 216.969 703.046 217.228 703.188 217.521C703.329 217.814 703.4 218.163 703.4 218.568ZM712.489 219.367C712.88 219.367 713.349 219.281 713.896 219.11V220.773C713.339 221.022 712.655 221.146 711.845 221.146C710.951 221.146 710.299 220.922 709.889 220.473C709.484 220.019 709.281 219.34 709.281 218.437V214.489H708.212V213.544L709.442 212.797L710.087 211.068H711.515V212.812H713.808V214.489H711.515V218.437C711.515 218.754 711.603 218.988 711.779 219.14C711.959 219.291 712.196 219.367 712.489 219.367ZM720.128 212.658C720.431 212.658 720.683 212.68 720.883 212.724L720.714 214.818C720.534 214.77 720.314 214.745 720.055 214.745C719.342 214.745 718.786 214.928 718.385 215.294C717.99 215.661 717.792 216.173 717.792 216.833V221H715.558V212.812H717.25L717.58 214.188H717.689C717.943 213.729 718.285 213.361 718.715 213.083C719.149 212.799 719.621 212.658 720.128 212.658ZM724.149 216.891C724.149 217.702 724.281 218.314 724.545 218.729C724.813 219.145 725.248 219.352 725.849 219.352C726.444 219.352 726.872 219.147 727.13 218.737C727.394 218.322 727.526 217.707 727.526 216.891C727.526 216.081 727.394 215.473 727.13 215.067C726.867 214.662 726.435 214.459 725.834 214.459C725.238 214.459 724.809 214.662 724.545 215.067C724.281 215.468 724.149 216.076 724.149 216.891ZM729.811 216.891C729.811 218.224 729.459 219.267 728.756 220.019C728.053 220.771 727.074 221.146 725.819 221.146C725.033 221.146 724.34 220.976 723.739 220.634C723.139 220.287 722.677 219.792 722.355 219.147C722.033 218.502 721.872 217.75 721.872 216.891C721.872 215.553 722.221 214.513 722.919 213.771C723.617 213.029 724.599 212.658 725.863 212.658C726.649 212.658 727.343 212.829 727.943 213.17C728.544 213.512 729.005 214.003 729.328 214.643C729.65 215.282 729.811 216.032 729.811 216.891ZM737.458 221L737.157 219.953H737.04C736.801 220.333 736.461 220.629 736.022 220.839C735.583 221.044 735.082 221.146 734.521 221.146C733.559 221.146 732.833 220.89 732.345 220.377C731.857 219.86 731.613 219.118 731.613 218.151V212.812H733.847V217.594C733.847 218.185 733.952 218.629 734.162 218.927C734.372 219.22 734.706 219.367 735.165 219.367C735.79 219.367 736.242 219.159 736.52 218.744C736.798 218.324 736.938 217.631 736.938 216.664V212.812H739.171V221H737.458ZM746.071 212.658C747.038 212.658 747.794 213.036 748.341 213.793C748.888 214.545 749.162 215.578 749.162 216.891C749.162 218.244 748.878 219.291 748.312 220.033C747.75 220.775 746.984 221.146 746.012 221.146C745.05 221.146 744.296 220.797 743.749 220.099H743.595L743.222 221H741.515V209.604H743.749V212.255C743.749 212.592 743.72 213.131 743.661 213.874H743.749C744.271 213.063 745.045 212.658 746.071 212.658ZM745.353 214.445C744.801 214.445 744.398 214.616 744.145 214.958C743.891 215.294 743.759 215.854 743.749 216.635V216.876C743.749 217.755 743.878 218.385 744.137 218.766C744.401 219.147 744.816 219.337 745.382 219.337C745.841 219.337 746.205 219.127 746.474 218.708C746.747 218.283 746.884 217.667 746.884 216.862C746.884 216.056 746.747 215.453 746.474 215.053C746.2 214.647 745.827 214.445 745.353 214.445ZM753.241 221H751.007V209.604H753.241V221ZM758.983 214.247C758.51 214.247 758.139 214.398 757.87 214.701C757.602 214.999 757.448 215.424 757.409 215.976H760.543C760.534 215.424 760.39 214.999 760.111 214.701C759.833 214.398 759.457 214.247 758.983 214.247ZM759.298 221.146C757.98 221.146 756.95 220.783 756.208 220.055C755.465 219.328 755.094 218.297 755.094 216.964C755.094 215.592 755.436 214.533 756.12 213.786C756.808 213.034 757.758 212.658 758.969 212.658C760.126 212.658 761.027 212.987 761.671 213.646C762.316 214.306 762.638 215.216 762.638 216.378V217.462H757.357C757.382 218.097 757.57 218.593 757.921 218.949C758.273 219.306 758.766 219.484 759.401 219.484C759.894 219.484 760.36 219.433 760.8 219.33C761.239 219.228 761.698 219.064 762.177 218.839V220.568C761.786 220.763 761.369 220.907 760.924 221C760.48 221.098 759.938 221.146 759.298 221.146ZM770.167 218.568C770.167 219.408 769.875 220.048 769.289 220.487C768.708 220.927 767.836 221.146 766.674 221.146C766.078 221.146 765.57 221.105 765.15 221.022C764.73 220.944 764.337 220.827 763.971 220.67V218.825C764.386 219.02 764.853 219.184 765.37 219.315C765.893 219.447 766.352 219.513 766.747 219.513C767.558 219.513 767.963 219.279 767.963 218.81C767.963 218.634 767.909 218.493 767.802 218.385C767.694 218.273 767.509 218.148 767.245 218.012C766.981 217.87 766.63 217.707 766.19 217.521C765.561 217.257 765.097 217.013 764.799 216.789C764.506 216.564 764.291 216.308 764.154 216.02C764.022 215.727 763.957 215.368 763.957 214.943C763.957 214.215 764.237 213.654 764.799 213.258C765.365 212.858 766.166 212.658 767.201 212.658C768.188 212.658 769.147 212.873 770.08 213.302L769.406 214.914C768.996 214.738 768.612 214.594 768.256 214.481C767.899 214.369 767.536 214.313 767.165 214.313C766.505 214.313 766.176 214.491 766.176 214.848C766.176 215.048 766.281 215.221 766.491 215.368C766.706 215.514 767.172 215.731 767.89 216.02C768.529 216.278 768.998 216.52 769.296 216.745C769.594 216.969 769.813 217.228 769.955 217.521C770.097 217.814 770.167 218.163 770.167 218.568ZM779.469 221H777.235V216.217C777.235 215.036 776.796 214.445 775.917 214.445C775.292 214.445 774.84 214.657 774.562 215.082C774.284 215.507 774.145 216.195 774.145 217.147V221H771.911V209.604H774.145V211.925C774.145 212.106 774.127 212.531 774.093 213.2L774.042 213.859H774.159C774.657 213.058 775.448 212.658 776.532 212.658C777.494 212.658 778.224 212.917 778.722 213.434C779.22 213.952 779.469 214.694 779.469 215.661V221ZM783.549 216.891C783.549 217.702 783.681 218.314 783.944 218.729C784.213 219.145 784.647 219.352 785.248 219.352C785.844 219.352 786.271 219.147 786.53 218.737C786.793 218.322 786.925 217.707 786.925 216.891C786.925 216.081 786.793 215.473 786.53 215.067C786.266 214.662 785.834 214.459 785.233 214.459C784.638 214.459 784.208 214.662 783.944 215.067C783.681 215.468 783.549 216.076 783.549 216.891ZM789.21 216.891C789.21 218.224 788.859 219.267 788.156 220.019C787.453 220.771 786.474 221.146 785.219 221.146C784.433 221.146 783.739 220.976 783.139 220.634C782.538 220.287 782.077 219.792 781.754 219.147C781.432 218.502 781.271 217.75 781.271 216.891C781.271 215.553 781.62 214.513 782.318 213.771C783.017 213.029 783.998 212.658 785.263 212.658C786.049 212.658 786.742 212.829 787.343 213.17C787.943 213.512 788.405 214.003 788.727 214.643C789.049 215.282 789.21 216.032 789.21 216.891ZM792.836 216.891C792.836 217.702 792.968 218.314 793.231 218.729C793.5 219.145 793.935 219.352 794.535 219.352C795.131 219.352 795.558 219.147 795.817 218.737C796.081 218.322 796.212 217.707 796.212 216.891C796.212 216.081 796.081 215.473 795.817 215.067C795.553 214.662 795.121 214.459 794.521 214.459C793.925 214.459 793.495 214.662 793.231 215.067C792.968 215.468 792.836 216.076 792.836 216.891ZM798.498 216.891C798.498 218.224 798.146 219.267 797.443 220.019C796.74 220.771 795.761 221.146 794.506 221.146C793.72 221.146 793.026 220.976 792.426 220.634C791.825 220.287 791.364 219.792 791.042 219.147C790.719 218.502 790.558 217.75 790.558 216.891C790.558 215.553 790.907 214.513 791.605 213.771C792.304 213.029 793.285 212.658 794.55 212.658C795.336 212.658 796.029 212.829 796.63 213.17C797.23 213.512 797.692 214.003 798.014 214.643C798.336 215.282 798.498 216.032 798.498 216.891ZM803.793 219.367C804.184 219.367 804.652 219.281 805.199 219.11V220.773C804.643 221.022 803.959 221.146 803.148 221.146C802.255 221.146 801.603 220.922 801.193 220.473C800.788 220.019 800.585 219.34 800.585 218.437V214.489H799.516V213.544L800.746 212.797L801.391 211.068H802.819V212.812H805.111V214.489H802.819V218.437C802.819 218.754 802.907 218.988 803.083 219.14C803.263 219.291 803.5 219.367 803.793 219.367ZM806.767 210.695C806.767 209.967 807.172 209.604 807.982 209.604C808.793 209.604 809.198 209.967 809.198 210.695C809.198 211.042 809.096 211.312 808.891 211.508C808.69 211.698 808.388 211.793 807.982 211.793C807.172 211.793 806.767 211.427 806.767 210.695ZM809.096 221H806.862V212.812H809.096V221ZM819.005 221H816.771V216.217C816.771 215.626 816.667 215.185 816.457 214.892C816.247 214.594 815.912 214.445 815.453 214.445C814.828 214.445 814.376 214.655 814.098 215.075C813.82 215.49 813.681 216.181 813.681 217.147V221H811.447V212.812H813.153L813.454 213.859H813.578C813.827 213.463 814.169 213.166 814.604 212.965C815.043 212.76 815.541 212.658 816.098 212.658C817.05 212.658 817.772 212.917 818.266 213.434C818.759 213.947 819.005 214.689 819.005 215.661V221ZM828.432 212.812V213.947L827.15 214.276C827.384 214.643 827.501 215.053 827.501 215.507C827.501 216.386 827.194 217.072 826.579 217.565C825.968 218.053 825.119 218.297 824.03 218.297L823.627 218.275L823.297 218.239C823.068 218.415 822.953 218.61 822.953 218.825C822.953 219.147 823.363 219.308 824.184 219.308H825.575C826.474 219.308 827.157 219.501 827.626 219.887C828.1 220.272 828.336 220.839 828.336 221.586C828.336 222.543 827.936 223.285 827.135 223.812C826.339 224.34 825.194 224.604 823.7 224.604C822.558 224.604 821.684 224.403 821.078 224.003C820.478 223.607 820.177 223.051 820.177 222.333C820.177 221.84 820.331 221.427 820.639 221.095C820.946 220.763 821.398 220.526 821.994 220.385C821.764 220.287 821.564 220.128 821.393 219.909C821.222 219.684 821.137 219.447 821.137 219.198C821.137 218.886 821.227 218.627 821.408 218.422C821.588 218.212 821.85 218.007 822.191 217.807C821.762 217.621 821.42 217.323 821.166 216.913C820.917 216.503 820.792 216.02 820.792 215.463C820.792 214.569 821.083 213.878 821.664 213.39C822.245 212.902 823.075 212.658 824.154 212.658C824.384 212.658 824.655 212.68 824.967 212.724C825.285 212.763 825.487 212.792 825.575 212.812H828.432ZM822.111 222.157C822.111 222.465 822.257 222.707 822.55 222.882C822.848 223.058 823.263 223.146 823.795 223.146C824.596 223.146 825.224 223.036 825.678 222.816C826.132 222.597 826.359 222.296 826.359 221.916C826.359 221.608 826.225 221.396 825.956 221.278C825.688 221.161 825.272 221.103 824.711 221.103H823.554C823.144 221.103 822.799 221.198 822.521 221.388C822.248 221.583 822.111 221.84 822.111 222.157ZM822.924 215.492C822.924 215.937 823.024 216.288 823.224 216.547C823.429 216.806 823.739 216.935 824.154 216.935C824.574 216.935 824.882 216.806 825.077 216.547C825.272 216.288 825.37 215.937 825.37 215.492C825.37 214.506 824.965 214.013 824.154 214.013C823.334 214.013 822.924 214.506 822.924 215.492Z"
    fill="white"/>
  <path
    d="M738.032 137.843L737.256 135.294H733.352L732.576 137.843H730.129L733.909 127.091H736.685L740.479 137.843H738.032ZM736.714 133.39C735.996 131.081 735.591 129.774 735.498 129.472C735.41 129.169 735.347 128.93 735.308 128.754C735.146 129.379 734.685 130.924 733.923 133.39H736.714ZM744.104 132.174H744.851C745.549 132.174 746.072 132.038 746.418 131.764C746.765 131.486 746.938 131.083 746.938 130.556C746.938 130.023 746.792 129.63 746.499 129.376C746.211 129.123 745.757 128.996 745.137 128.996H744.104V132.174ZM749.231 130.475C749.231 131.627 748.87 132.509 748.147 133.119C747.429 133.729 746.406 134.035 745.078 134.035H744.104V137.843H741.833V127.135H745.254C746.553 127.135 747.539 127.416 748.213 127.978C748.892 128.534 749.231 129.367 749.231 130.475ZM751.252 137.843V127.135H753.523V137.843H751.252Z"
    fill="white"/>
  <path
    d="M926.478 172.616C924.795 172.616 923.198 172.703 921.557 172.877L915.298 162L900.232 166.96L901.527 179.447C898.678 181.144 896.045 183.059 893.584 185.278L882.188 180.187L872.864 193.109L881.195 202.464C879.9 205.466 878.864 208.599 878.173 211.905L866 214.56V230.528L878.173 233.138C878.864 236.401 879.9 239.577 881.238 242.58L872.907 251.934L882.231 264.857L893.628 259.766C896.088 261.985 898.721 263.899 901.57 265.596L900.319 278.083L915.384 283L921.6 272.123C923.241 272.297 924.881 272.34 926.522 272.34C928.205 272.34 929.802 272.253 931.443 272.079L937.702 282.957L952.768 277.996L951.473 265.509C954.322 263.812 956.955 261.854 959.416 259.679L970.812 264.77L980.136 251.847L971.805 242.493C973.1 239.49 974.136 236.358 974.827 233.051L987 230.397V214.429L974.783 211.818C974.093 208.555 973.057 205.379 971.762 202.377L980.093 193.022L970.769 180.1L959.372 185.191C956.912 183.015 954.279 181.057 951.43 179.36L952.681 166.873L937.659 162L931.4 172.877C929.802 172.703 928.162 172.616 926.478 172.616ZM970.38 222.478C970.38 246.887 950.782 266.684 926.565 266.684C902.347 266.684 882.706 246.931 882.706 222.522C882.706 198.113 902.304 178.316 926.522 178.316C950.696 178.273 970.337 198.069 970.38 222.478Z"
    fill="#89C512"/>
  <path
    d="M849.021 302.045H849.753C850.471 302.045 851.001 301.926 851.343 301.687C851.685 301.447 851.855 301.071 851.855 300.559C851.855 300.051 851.68 299.689 851.328 299.475C850.981 299.26 850.442 299.152 849.709 299.152H849.021V302.045ZM849.021 303.891V308H846.75V297.292H849.871C851.326 297.292 852.402 297.558 853.101 298.09C853.799 298.618 854.148 299.421 854.148 300.5C854.148 301.13 853.975 301.691 853.628 302.185C853.281 302.673 852.791 303.056 852.156 303.334C853.767 305.742 854.817 307.297 855.305 308H852.786L850.229 303.891H849.021ZM859.868 301.247C859.395 301.247 859.023 301.398 858.755 301.701C858.486 301.999 858.333 302.424 858.293 302.976H861.428C861.418 302.424 861.274 301.999 860.996 301.701C860.718 301.398 860.342 301.247 859.868 301.247ZM860.183 308.146C858.865 308.146 857.834 307.783 857.092 307.055C856.35 306.328 855.979 305.297 855.979 303.964C855.979 302.592 856.321 301.533 857.004 300.786C857.693 300.034 858.643 299.658 859.854 299.658C861.011 299.658 861.912 299.987 862.556 300.646C863.201 301.306 863.523 302.216 863.523 303.378V304.462H858.242C858.267 305.097 858.455 305.593 858.806 305.949C859.158 306.306 859.651 306.484 860.286 306.484C860.779 306.484 861.245 306.433 861.685 306.33C862.124 306.228 862.583 306.064 863.062 305.839V307.568C862.671 307.763 862.253 307.907 861.809 308C861.365 308.098 860.823 308.146 860.183 308.146ZM868.789 306.367C869.18 306.367 869.648 306.281 870.195 306.11V307.773C869.639 308.022 868.955 308.146 868.145 308.146C867.251 308.146 866.599 307.922 866.189 307.473C865.784 307.019 865.581 306.34 865.581 305.437V301.489H864.512V300.544L865.742 299.797L866.387 298.068H867.815V299.812H870.107V301.489H867.815V305.437C867.815 305.754 867.903 305.988 868.079 306.14C868.259 306.291 868.496 306.367 868.789 306.367ZM876.428 299.658C876.731 299.658 876.982 299.68 877.183 299.724L877.014 301.818C876.833 301.77 876.614 301.745 876.355 301.745C875.642 301.745 875.085 301.928 874.685 302.294C874.29 302.661 874.092 303.173 874.092 303.833V308H871.858V299.812H873.55L873.879 301.188H873.989C874.243 300.729 874.585 300.361 875.015 300.083C875.449 299.799 875.92 299.658 876.428 299.658ZM877.498 299.812H879.944L881.489 304.418C881.621 304.819 881.711 305.292 881.76 305.839H881.804C881.858 305.336 881.963 304.863 882.119 304.418L883.635 299.812H886.03L882.566 309.047C882.249 309.902 881.794 310.542 881.204 310.966C880.618 311.391 879.932 311.604 879.146 311.604C878.76 311.604 878.381 311.562 878.01 311.479V309.707C878.279 309.77 878.572 309.802 878.889 309.802C879.285 309.802 879.629 309.68 879.922 309.436C880.22 309.196 880.452 308.833 880.618 308.344L880.75 307.941L877.498 299.812ZM887.114 297.695C887.114 296.967 887.52 296.604 888.33 296.604C889.141 296.604 889.546 296.967 889.546 297.695C889.546 298.042 889.443 298.312 889.238 298.508C889.038 298.698 888.735 298.793 888.33 298.793C887.52 298.793 887.114 298.427 887.114 297.695ZM889.443 308H887.209V299.812H889.443V308ZM899.353 308H897.119V303.217C897.119 302.626 897.014 302.185 896.804 301.892C896.594 301.594 896.26 301.445 895.801 301.445C895.176 301.445 894.724 301.655 894.446 302.075C894.167 302.49 894.028 303.181 894.028 304.147V308H891.794V299.812H893.501L893.801 300.859H893.926C894.175 300.463 894.517 300.166 894.951 299.965C895.391 299.76 895.889 299.658 896.445 299.658C897.397 299.658 898.12 299.917 898.613 300.434C899.106 300.947 899.353 301.689 899.353 302.661V308ZM908.779 299.812V300.947L907.498 301.276C907.732 301.643 907.849 302.053 907.849 302.507C907.849 303.386 907.542 304.072 906.926 304.565C906.316 305.053 905.466 305.297 904.377 305.297L903.975 305.275L903.645 305.239C903.416 305.415 903.301 305.61 903.301 305.825C903.301 306.147 903.711 306.308 904.531 306.308H905.923C906.821 306.308 907.505 306.501 907.974 306.887C908.447 307.272 908.684 307.839 908.684 308.586C908.684 309.543 908.284 310.285 907.483 310.812C906.687 311.34 905.542 311.604 904.048 311.604C902.905 311.604 902.031 311.403 901.426 311.003C900.825 310.607 900.525 310.051 900.525 309.333C900.525 308.84 900.679 308.427 900.986 308.095C901.294 307.763 901.746 307.526 902.341 307.385C902.112 307.287 901.912 307.128 901.741 306.909C901.57 306.684 901.484 306.447 901.484 306.198C901.484 305.886 901.575 305.627 901.755 305.422C901.936 305.212 902.197 305.007 902.539 304.807C902.109 304.621 901.768 304.323 901.514 303.913C901.265 303.503 901.14 303.02 901.14 302.463C901.14 301.569 901.431 300.878 902.012 300.39C902.593 299.902 903.423 299.658 904.502 299.658C904.731 299.658 905.002 299.68 905.315 299.724C905.632 299.763 905.835 299.792 905.923 299.812H908.779ZM902.458 309.157C902.458 309.465 902.605 309.707 902.898 309.882C903.196 310.058 903.611 310.146 904.143 310.146C904.944 310.146 905.571 310.036 906.025 309.816C906.479 309.597 906.707 309.296 906.707 308.916C906.707 308.608 906.572 308.396 906.304 308.278C906.035 308.161 905.62 308.103 905.059 308.103H903.901C903.491 308.103 903.147 308.198 902.869 308.388C902.595 308.583 902.458 308.84 902.458 309.157ZM903.271 302.492C903.271 302.937 903.372 303.288 903.572 303.547C903.777 303.806 904.087 303.935 904.502 303.935C904.922 303.935 905.229 303.806 905.425 303.547C905.62 303.288 905.718 302.937 905.718 302.492C905.718 301.506 905.312 301.013 904.502 301.013C903.682 301.013 903.271 301.506 903.271 302.492ZM916.265 308H914.031V296.604H916.265V308ZM920.396 303.891C920.396 304.702 920.527 305.314 920.791 305.729C921.06 306.145 921.494 306.352 922.095 306.352C922.69 306.352 923.118 306.147 923.376 305.737C923.64 305.322 923.772 304.707 923.772 303.891C923.772 303.081 923.64 302.473 923.376 302.067C923.113 301.662 922.681 301.459 922.08 301.459C921.484 301.459 921.055 301.662 920.791 302.067C920.527 302.468 920.396 303.076 920.396 303.891ZM926.057 303.891C926.057 305.224 925.706 306.267 925.002 307.019C924.299 307.771 923.32 308.146 922.065 308.146C921.279 308.146 920.586 307.976 919.985 307.634C919.385 307.287 918.923 306.792 918.601 306.147C918.279 305.502 918.118 304.75 918.118 303.891C918.118 302.553 918.467 301.513 919.165 300.771C919.863 300.029 920.845 299.658 922.109 299.658C922.896 299.658 923.589 299.829 924.189 300.17C924.79 300.512 925.251 301.003 925.574 301.643C925.896 302.282 926.057 303.032 926.057 303.891ZM935.461 308H933.228V303.217C933.228 302.626 933.123 302.185 932.913 301.892C932.703 301.594 932.368 301.445 931.909 301.445C931.284 301.445 930.833 301.655 930.554 302.075C930.276 302.49 930.137 303.181 930.137 304.147V308H927.903V299.812H929.609L929.91 300.859H930.034C930.283 300.463 930.625 300.166 931.06 299.965C931.499 299.76 931.997 299.658 932.554 299.658C933.506 299.658 934.229 299.917 934.722 300.434C935.215 300.947 935.461 301.689 935.461 302.661V308ZM944.888 299.812V300.947L943.606 301.276C943.84 301.643 943.958 302.053 943.958 302.507C943.958 303.386 943.65 304.072 943.035 304.565C942.424 305.053 941.575 305.297 940.486 305.297L940.083 305.275L939.753 305.239C939.524 305.415 939.409 305.61 939.409 305.825C939.409 306.147 939.819 306.308 940.64 306.308H942.031C942.93 306.308 943.613 306.501 944.082 306.887C944.556 307.272 944.792 307.839 944.792 308.586C944.792 309.543 944.392 310.285 943.591 310.812C942.795 311.34 941.65 311.604 940.156 311.604C939.014 311.604 938.14 311.403 937.534 311.003C936.934 310.607 936.633 310.051 936.633 309.333C936.633 308.84 936.787 308.427 937.095 308.095C937.402 307.763 937.854 307.526 938.45 307.385C938.22 307.287 938.02 307.128 937.849 306.909C937.678 306.684 937.593 306.447 937.593 306.198C937.593 305.886 937.683 305.627 937.864 305.422C938.044 305.212 938.306 305.007 938.647 304.807C938.218 304.621 937.876 304.323 937.622 303.913C937.373 303.503 937.249 303.02 937.249 302.463C937.249 301.569 937.539 300.878 938.12 300.39C938.701 299.902 939.531 299.658 940.61 299.658C940.84 299.658 941.111 299.68 941.423 299.724C941.741 299.763 941.943 299.792 942.031 299.812H944.888ZM938.567 309.157C938.567 309.465 938.713 309.707 939.006 309.882C939.304 310.058 939.719 310.146 940.251 310.146C941.052 310.146 941.68 310.036 942.134 309.816C942.588 309.597 942.815 309.296 942.815 308.916C942.815 308.608 942.681 308.396 942.412 308.278C942.144 308.161 941.729 308.103 941.167 308.103H940.01C939.6 308.103 939.255 308.198 938.977 308.388C938.704 308.583 938.567 308.84 938.567 309.157ZM939.38 302.492C939.38 302.937 939.48 303.288 939.68 303.547C939.885 303.806 940.195 303.935 940.61 303.935C941.03 303.935 941.338 303.806 941.533 303.547C941.729 303.288 941.826 302.937 941.826 302.492C941.826 301.506 941.421 301.013 940.61 301.013C939.79 301.013 939.38 301.506 939.38 302.492ZM954.636 308.146C953.674 308.146 952.92 307.797 952.373 307.099H952.256C952.334 307.783 952.373 308.178 952.373 308.286V311.604H950.139V299.812H951.956L952.271 300.874H952.373C952.896 300.063 953.669 299.658 954.695 299.658C955.662 299.658 956.418 300.031 956.965 300.778C957.512 301.525 957.786 302.563 957.786 303.891C957.786 304.765 957.656 305.524 957.397 306.169C957.144 306.813 956.78 307.304 956.306 307.641C955.833 307.978 955.276 308.146 954.636 308.146ZM953.977 301.445C953.425 301.445 953.022 301.616 952.769 301.958C952.515 302.294 952.383 302.854 952.373 303.635V303.876C952.373 304.755 952.502 305.385 952.761 305.766C953.025 306.147 953.44 306.337 954.006 306.337C955.007 306.337 955.508 305.512 955.508 303.862C955.508 303.056 955.383 302.453 955.134 302.053C954.89 301.647 954.504 301.445 953.977 301.445ZM963.022 301.247C962.549 301.247 962.178 301.398 961.909 301.701C961.641 301.999 961.487 302.424 961.448 302.976H964.583C964.573 302.424 964.429 301.999 964.15 301.701C963.872 301.398 963.496 301.247 963.022 301.247ZM963.337 308.146C962.019 308.146 960.989 307.783 960.247 307.055C959.504 306.328 959.133 305.297 959.133 303.964C959.133 302.592 959.475 301.533 960.159 300.786C960.847 300.034 961.797 299.658 963.008 299.658C964.165 299.658 965.066 299.987 965.71 300.646C966.355 301.306 966.677 302.216 966.677 303.378V304.462H961.396C961.421 305.097 961.609 305.593 961.96 305.949C962.312 306.306 962.805 306.484 963.44 306.484C963.933 306.484 964.399 306.433 964.839 306.33C965.278 306.228 965.737 306.064 966.216 305.839V307.568C965.825 307.763 965.408 307.907 964.963 308C964.519 308.098 963.977 308.146 963.337 308.146ZM976.052 308H973.818V303.217C973.818 302.626 973.713 302.185 973.503 301.892C973.293 301.594 972.959 301.445 972.5 301.445C971.875 301.445 971.423 301.655 971.145 302.075C970.867 302.49 970.728 303.181 970.728 304.147V308H968.494V299.812H970.2L970.5 300.859H970.625C970.874 300.463 971.216 300.166 971.65 299.965C972.09 299.76 972.588 299.658 973.145 299.658C974.097 299.658 974.819 299.917 975.312 300.434C975.806 300.947 976.052 301.689 976.052 302.661V308ZM980.945 308.146C979.983 308.146 979.226 307.773 978.674 307.026C978.127 306.279 977.854 305.244 977.854 303.92C977.854 302.578 978.132 301.533 978.689 300.786C979.25 300.034 980.022 299.658 981.003 299.658C982.034 299.658 982.82 300.058 983.362 300.859H983.435C983.323 300.249 983.267 299.704 983.267 299.226V296.604H985.508V308H983.794L983.362 306.938H983.267C982.759 307.744 981.985 308.146 980.945 308.146ZM981.729 306.367C982.3 306.367 982.717 306.201 982.981 305.869C983.25 305.537 983.396 304.973 983.42 304.177V303.935C983.42 303.056 983.284 302.426 983.01 302.045C982.742 301.665 982.302 301.474 981.692 301.474C981.194 301.474 980.806 301.687 980.527 302.111C980.254 302.531 980.117 303.144 980.117 303.95C980.117 304.755 980.256 305.361 980.535 305.766C980.813 306.167 981.211 306.367 981.729 306.367ZM987.749 297.695C987.749 296.967 988.154 296.604 988.965 296.604C989.775 296.604 990.181 296.967 990.181 297.695C990.181 298.042 990.078 298.312 989.873 298.508C989.673 298.698 989.37 298.793 988.965 298.793C988.154 298.793 987.749 298.427 987.749 297.695ZM990.078 308H987.844V299.812H990.078V308ZM999.988 308H997.754V303.217C997.754 302.626 997.649 302.185 997.439 301.892C997.229 301.594 996.895 301.445 996.436 301.445C995.811 301.445 995.359 301.655 995.081 302.075C994.802 302.49 994.663 303.181 994.663 304.147V308H992.429V299.812H994.136L994.436 300.859H994.561C994.81 300.463 995.151 300.166 995.586 299.965C996.025 299.76 996.523 299.658 997.08 299.658C998.032 299.658 998.755 299.917 999.248 300.434C999.741 300.947 999.988 301.689 999.988 302.661V308ZM1009.41 299.812V300.947L1008.13 301.276C1008.37 301.643 1008.48 302.053 1008.48 302.507C1008.48 303.386 1008.18 304.072 1007.56 304.565C1006.95 305.053 1006.1 305.297 1005.01 305.297L1004.61 305.275L1004.28 305.239C1004.05 305.415 1003.94 305.61 1003.94 305.825C1003.94 306.147 1004.35 306.308 1005.17 306.308H1006.56C1007.46 306.308 1008.14 306.501 1008.61 306.887C1009.08 307.272 1009.32 307.839 1009.32 308.586C1009.32 309.543 1008.92 310.285 1008.12 310.812C1007.32 311.34 1006.18 311.604 1004.68 311.604C1003.54 311.604 1002.67 311.403 1002.06 311.003C1001.46 310.607 1001.16 310.051 1001.16 309.333C1001.16 308.84 1001.31 308.427 1001.62 308.095C1001.93 307.763 1002.38 307.526 1002.98 307.385C1002.75 307.287 1002.55 307.128 1002.38 306.909C1002.2 306.684 1002.12 306.447 1002.12 306.198C1002.12 305.886 1002.21 305.627 1002.39 305.422C1002.57 305.212 1002.83 305.007 1003.17 304.807C1002.74 304.621 1002.4 304.323 1002.15 303.913C1001.9 303.503 1001.77 303.02 1001.77 302.463C1001.77 301.569 1002.07 300.878 1002.65 300.39C1003.23 299.902 1004.06 299.658 1005.14 299.658C1005.37 299.658 1005.64 299.68 1005.95 299.724C1006.27 299.763 1006.47 299.792 1006.56 299.812H1009.41ZM1003.09 309.157C1003.09 309.465 1003.24 309.707 1003.53 309.882C1003.83 310.058 1004.25 310.146 1004.78 310.146C1005.58 310.146 1006.21 310.036 1006.66 309.816C1007.11 309.597 1007.34 309.296 1007.34 308.916C1007.34 308.608 1007.21 308.396 1006.94 308.278C1006.67 308.161 1006.25 308.103 1005.69 308.103H1004.54C1004.13 308.103 1003.78 308.198 1003.5 308.388C1003.23 308.583 1003.09 308.84 1003.09 309.157ZM1003.91 302.492C1003.91 302.937 1004.01 303.288 1004.21 303.547C1004.41 303.806 1004.72 303.935 1005.14 303.935C1005.56 303.935 1005.86 303.806 1006.06 303.547C1006.25 303.288 1006.35 302.937 1006.35 302.492C1006.35 301.506 1005.95 301.013 1005.14 301.013C1004.32 301.013 1003.91 301.506 1003.91 302.492ZM889.839 323.891C889.839 324.702 889.971 325.314 890.234 325.729C890.503 326.145 890.938 326.352 891.538 326.352C892.134 326.352 892.561 326.147 892.82 325.737C893.083 325.322 893.215 324.707 893.215 323.891C893.215 323.081 893.083 322.473 892.82 322.067C892.556 321.662 892.124 321.459 891.523 321.459C890.928 321.459 890.498 321.662 890.234 322.067C889.971 322.468 889.839 323.076 889.839 323.891ZM895.5 323.891C895.5 325.224 895.149 326.267 894.446 327.019C893.743 327.771 892.764 328.146 891.509 328.146C890.723 328.146 890.029 327.976 889.429 327.634C888.828 327.287 888.367 326.792 888.044 326.147C887.722 325.502 887.561 324.75 887.561 323.891C887.561 322.553 887.91 321.513 888.608 320.771C889.307 320.029 890.288 319.658 891.553 319.658C892.339 319.658 893.032 319.829 893.633 320.17C894.233 320.512 894.695 321.003 895.017 321.643C895.339 322.282 895.5 323.032 895.5 323.891ZM901.843 328.146C900.881 328.146 900.127 327.797 899.58 327.099H899.463C899.541 327.783 899.58 328.178 899.58 328.286V331.604H897.346V319.812H899.163L899.478 320.874H899.58C900.103 320.063 900.876 319.658 901.902 319.658C902.869 319.658 903.625 320.031 904.172 320.778C904.719 321.525 904.993 322.563 904.993 323.891C904.993 324.765 904.863 325.524 904.604 326.169C904.351 326.813 903.987 327.304 903.513 327.641C903.04 327.978 902.483 328.146 901.843 328.146ZM901.184 321.445C900.632 321.445 900.229 321.616 899.976 321.958C899.722 322.294 899.59 322.854 899.58 323.635V323.876C899.58 324.755 899.709 325.385 899.968 325.766C900.232 326.147 900.647 326.337 901.213 326.337C902.214 326.337 902.715 325.512 902.715 323.862C902.715 323.056 902.59 322.453 902.341 322.053C902.097 321.647 901.711 321.445 901.184 321.445ZM910.229 321.247C909.756 321.247 909.385 321.398 909.116 321.701C908.848 321.999 908.694 322.424 908.655 322.976H911.79C911.78 322.424 911.636 321.999 911.357 321.701C911.079 321.398 910.703 321.247 910.229 321.247ZM910.544 328.146C909.226 328.146 908.196 327.783 907.454 327.055C906.711 326.328 906.34 325.297 906.34 323.964C906.34 322.592 906.682 321.533 907.366 320.786C908.054 320.034 909.004 319.658 910.215 319.658C911.372 319.658 912.273 319.987 912.917 320.646C913.562 321.306 913.884 322.216 913.884 323.378V324.462H908.604C908.628 325.097 908.816 325.593 909.167 325.949C909.519 326.306 910.012 326.484 910.647 326.484C911.14 326.484 911.606 326.433 912.046 326.33C912.485 326.228 912.944 326.064 913.423 325.839V327.568C913.032 327.763 912.615 327.907 912.17 328C911.726 328.098 911.184 328.146 910.544 328.146ZM920.271 319.658C920.574 319.658 920.825 319.68 921.025 319.724L920.857 321.818C920.676 321.77 920.457 321.745 920.198 321.745C919.485 321.745 918.928 321.928 918.528 322.294C918.132 322.661 917.935 323.173 917.935 323.833V328H915.701V319.812H917.393L917.722 321.188H917.832C918.086 320.729 918.428 320.361 918.857 320.083C919.292 319.799 919.763 319.658 920.271 319.658ZM927.712 328L927.28 326.887H927.222C926.846 327.36 926.458 327.69 926.057 327.875C925.662 328.056 925.144 328.146 924.504 328.146C923.718 328.146 923.098 327.922 922.644 327.473C922.195 327.023 921.97 326.384 921.97 325.554C921.97 324.685 922.273 324.045 922.878 323.635C923.489 323.22 924.407 322.99 925.632 322.946L927.053 322.902V322.543C927.053 321.713 926.628 321.298 925.779 321.298C925.125 321.298 924.355 321.496 923.472 321.892L922.732 320.383C923.674 319.89 924.719 319.643 925.867 319.643C926.965 319.643 927.808 319.882 928.394 320.361C928.979 320.839 929.272 321.567 929.272 322.543V328H927.712ZM927.053 324.206L926.189 324.235C925.54 324.255 925.056 324.372 924.739 324.587C924.421 324.802 924.263 325.129 924.263 325.568C924.263 326.198 924.624 326.513 925.347 326.513C925.864 326.513 926.277 326.364 926.584 326.066C926.897 325.769 927.053 325.373 927.053 324.88V324.206ZM935.029 326.367C935.42 326.367 935.889 326.281 936.436 326.11V327.773C935.879 328.022 935.195 328.146 934.385 328.146C933.491 328.146 932.839 327.922 932.429 327.473C932.024 327.019 931.821 326.34 931.821 325.437V321.489H930.752V320.544L931.982 319.797L932.627 318.068H934.055V319.812H936.348V321.489H934.055V325.437C934.055 325.754 934.143 325.988 934.319 326.14C934.5 326.291 934.736 326.367 935.029 326.367ZM938.003 317.695C938.003 316.967 938.408 316.604 939.219 316.604C940.029 316.604 940.435 316.967 940.435 317.695C940.435 318.042 940.332 318.312 940.127 318.508C939.927 318.698 939.624 318.793 939.219 318.793C938.408 318.793 938.003 318.427 938.003 317.695ZM940.332 328H938.098V319.812H940.332V328ZM944.463 323.891C944.463 324.702 944.595 325.314 944.858 325.729C945.127 326.145 945.562 326.352 946.162 326.352C946.758 326.352 947.185 326.147 947.444 325.737C947.708 325.322 947.839 324.707 947.839 323.891C947.839 323.081 947.708 322.473 947.444 322.067C947.18 321.662 946.748 321.459 946.147 321.459C945.552 321.459 945.122 321.662 944.858 322.067C944.595 322.468 944.463 323.076 944.463 323.891ZM950.125 323.891C950.125 325.224 949.773 326.267 949.07 327.019C948.367 327.771 947.388 328.146 946.133 328.146C945.347 328.146 944.653 327.976 944.053 327.634C943.452 327.287 942.991 326.792 942.668 326.147C942.346 325.502 942.185 324.75 942.185 323.891C942.185 322.553 942.534 321.513 943.232 320.771C943.931 320.029 944.912 319.658 946.177 319.658C946.963 319.658 947.656 319.829 948.257 320.17C948.857 320.512 949.319 321.003 949.641 321.643C949.963 322.282 950.125 323.032 950.125 323.891ZM959.529 328H957.295V323.217C957.295 322.626 957.19 322.185 956.98 321.892C956.77 321.594 956.436 321.445 955.977 321.445C955.352 321.445 954.9 321.655 954.622 322.075C954.343 322.49 954.204 323.181 954.204 324.147V328H951.97V319.812H953.677L953.977 320.859H954.102C954.351 320.463 954.692 320.166 955.127 319.965C955.566 319.76 956.064 319.658 956.621 319.658C957.573 319.658 958.296 319.917 958.789 320.434C959.282 320.947 959.529 321.689 959.529 322.661V328ZM967.542 325.568C967.542 326.408 967.249 327.048 966.663 327.487C966.082 327.927 965.21 328.146 964.048 328.146C963.452 328.146 962.944 328.105 962.524 328.022C962.104 327.944 961.711 327.827 961.345 327.67V325.825C961.76 326.02 962.227 326.184 962.744 326.315C963.267 326.447 963.726 326.513 964.121 326.513C964.932 326.513 965.337 326.279 965.337 325.81C965.337 325.634 965.283 325.493 965.176 325.385C965.068 325.273 964.883 325.148 964.619 325.012C964.355 324.87 964.004 324.707 963.564 324.521C962.935 324.257 962.471 324.013 962.173 323.789C961.88 323.564 961.665 323.308 961.528 323.02C961.396 322.727 961.331 322.368 961.331 321.943C961.331 321.215 961.611 320.654 962.173 320.258C962.739 319.858 963.54 319.658 964.575 319.658C965.562 319.658 966.521 319.873 967.454 320.302L966.78 321.914C966.37 321.738 965.986 321.594 965.63 321.481C965.273 321.369 964.91 321.313 964.539 321.313C963.879 321.313 963.55 321.491 963.55 321.848C963.55 322.048 963.655 322.221 963.865 322.368C964.08 322.514 964.546 322.731 965.264 323.02C965.903 323.278 966.372 323.52 966.67 323.745C966.968 323.969 967.188 324.228 967.329 324.521C967.471 324.814 967.542 325.163 967.542 325.568Z"
    fill="white"/>
  <path
    d="M922.032 227.843L921.256 225.294H917.352L916.576 227.843H914.129L917.909 217.091H920.685L924.479 227.843H922.032ZM920.714 223.39C919.996 221.081 919.591 219.774 919.498 219.472C919.41 219.169 919.347 218.93 919.308 218.754C919.146 219.379 918.685 220.924 917.923 223.39H920.714ZM928.104 222.174H928.851C929.549 222.174 930.072 222.038 930.418 221.764C930.765 221.486 930.938 221.083 930.938 220.556C930.938 220.023 930.792 219.63 930.499 219.376C930.211 219.123 929.757 218.996 929.137 218.996H928.104V222.174ZM933.231 220.475C933.231 221.627 932.87 222.509 932.147 223.119C931.429 223.729 930.406 224.035 929.078 224.035H928.104V227.843H925.833V217.135H929.254C930.553 217.135 931.539 217.416 932.213 217.978C932.892 218.534 933.231 219.367 933.231 220.475ZM935.252 227.843V217.135H937.523V227.843H935.252Z"
    fill="white"/>
</svg>
