<svg width="118" height="119" viewBox="0 0 118 119" fill="none" xmlns="http://www.w3.org/2000/svg">
<title>[Icon] 1. Contracts design skeleton</title>
  <path d="M28.5516 69.6612L16.9675 63.0571C16.1341 62.5824 15.1114 62.5891 14.2833 63.0773L2.7972 69.854C1.97045 70.3422 1.4658 71.2363 1.47251 72.1992L1.57183 85.5826C1.57988 86.5469 2.09795 87.4329 2.93142 87.9089L14.3987 94.4469V114.113C14.3987 114.859 14.9986 115.462 15.7408 115.462C16.483 115.462 17.083 114.859 17.083 114.113V94.5413C17.1205 94.5211 17.1621 94.5143 17.1997 94.4928L28.6844 87.7161C29.5112 87.2279 30.0158 86.3351 30.0091 85.3709L29.9112 71.9875C29.9031 71.0219 29.385 70.1359 28.5516 69.6612ZM15.6657 68.5162L23.2259 72.8276L15.6415 77.2281L8.20872 72.9166L15.6657 68.5162ZM6.86389 75.2497L14.2994 79.5639V88.1881L6.92832 83.9845L6.86389 75.2497ZM16.9836 88.3621V79.5625L24.5641 75.1647L24.6271 83.8524L16.9836 88.3621ZM117.903 19.681C117.897 18.7167 117.377 17.8307 116.544 17.3547L104.96 10.7506C104.126 10.2759 103.104 10.2827 102.275 10.7708L91.1464 17.3385L81.0468 11.5813C81.0951 11.2375 81.13 10.8882 81.13 10.5294C81.13 9.48698 80.9125 8.49577 80.5247 7.59491L88.0863 3.20929C88.7292 2.83708 88.9493 2.01174 88.5775 1.36711C88.2057 0.721137 87.3817 0.499968 86.7441 0.873528L79.0241 5.35085C77.6833 3.97124 75.8151 3.11219 73.7495 3.11219C69.6802 3.11219 66.3677 6.44051 66.3677 10.5294C66.3677 11.224 66.4698 11.8929 66.6483 12.5308L57.9861 17.5556L57.9673 15.0526C57.9606 14.0884 57.4412 13.2024 56.6077 12.7263L40.4698 3.52486C39.6363 3.04881 38.6136 3.0569 37.7855 3.54509L21.7872 12.9866C20.9604 13.4748 20.4558 14.3689 20.4625 15.3318L20.4799 17.65L2.004 7.11751C1.36111 6.75204 0.541065 6.97725 0.17466 7.62593C-0.190402 8.27325 0.0350772 9.09724 0.680647 9.46406L20.5027 20.7653L20.6007 33.9747C20.6074 34.939 21.1268 35.825 21.9603 36.301L38.0969 45.5025C38.5089 45.7371 38.9639 45.8545 39.4216 45.8545C39.8927 45.8545 40.3611 45.7304 40.7812 45.4836L56.7795 36.0421C57.6063 35.5539 58.1109 34.6598 58.1042 33.6969L58.0075 20.6601L67.8387 14.9569C69.1862 16.768 71.3296 17.948 73.7482 17.948C76.4969 17.948 78.8953 16.4282 80.165 14.1828L89.5116 19.5124C89.4942 19.6405 89.462 19.766 89.4633 19.8981L89.5627 33.2815C89.5707 34.2458 90.0888 35.1318 90.9222 35.6079L102.506 42.2119C102.918 42.4466 103.373 42.5639 103.831 42.5639C104.302 42.5639 104.77 42.4398 105.191 42.193L116.675 35.4164C117.502 34.9282 118.007 34.0354 118 33.0712L117.903 19.681ZM39.1692 8.98396L51.3022 15.9022L39.1478 22.954L27.2202 16.0357L39.1692 8.98396ZM25.8539 18.3594L37.8029 25.2911V39.1317L25.9572 32.3766L25.8539 18.3594ZM40.4872 39.3974V25.2911L52.6215 18.2515L52.7235 32.1757L40.4872 39.3974ZM73.7482 15.2468C72.3242 15.2468 71.0612 14.5928 70.1982 13.584L71.2384 12.9798C71.8813 12.6076 72.1014 11.7823 71.7296 11.1377C71.3592 10.4917 70.5351 10.2692 69.8962 10.6441L69.1071 11.1012C69.0842 10.9111 69.0493 10.7236 69.0493 10.5281C69.0493 7.92531 71.1565 5.80802 73.7468 5.80802C76.1801 5.80802 78.1652 7.68527 78.3987 10.0709L78.1732 9.94281C77.5303 9.57734 76.7103 9.80255 76.3439 10.4512C75.9788 11.0986 76.2043 11.9225 76.8499 12.2894L77.8176 12.8409C77.0096 14.2691 75.4983 15.2468 73.7482 15.2468ZM103.658 16.2111L111.217 20.5212L103.634 24.9203L96.2022 20.6088L103.658 16.2111ZM94.8574 22.9432L102.293 27.2574V35.8816L94.9218 31.6781L94.8574 22.9432ZM104.977 36.0569V27.2574L112.558 22.8596L112.621 31.5472L104.977 36.0569ZM102.587 82.5523C102.022 81.785 101.284 81.2307 100.378 80.9866C100.258 80.6751 91.1786 71.0421 89.1184 69.6086C86.2382 67.6005 60.814 61.9094 59.5819 61.873C57.4573 61.7624 55.5031 62.817 54.3341 64.5689C53.0322 66.5176 52.8685 69.0624 53.8939 71.3766C54.1341 71.9187 54.471 72.4015 54.8723 72.8438L50.4902 72.0616C50.1265 71.9969 49.7561 72.0333 49.4125 72.1655L39.4981 76.0117C38.8283 76.2706 38.3479 76.8694 38.2351 77.5814C38.1224 78.2921 38.3948 79.0123 38.9505 79.4668L47.4677 86.443C47.6972 86.6305 50.9465 87.5165 50.9465 87.5165C52.1343 93.9425 54.2012 101.727 54.2442 101.826C55.8386 105.528 61.4233 113.302 64.6095 117.604C65.137 118.316 65.945 118.692 66.765 118.692C67.322 118.692 67.883 118.518 68.3635 118.158C69.554 117.269 69.7996 115.579 68.9151 114.384C63.8056 107.482 60.163 101.988 59.2088 99.7766C58.6746 98.2284 56.2534 87.3736 55.5689 82.8113C56.8144 82.7479 57.876 83.027 58.7538 83.6447C61.1133 85.3021 61.9373 89.2279 62.0541 90.5899C62.1158 91.3505 62.4943 92.0505 63.0969 92.5157C64.368 93.4962 68.0548 96.6478 69.8291 99.4448C72.0866 102.998 77.1519 103.218 79.9663 103.039C80.8132 102.983 81.585 102.529 82.0466 101.813C84.4155 98.138 84.39 94.4982 84.3001 93.4705C84.3001 93.4705 97.496 95.7739 97.7752 95.7739C99.0221 95.7739 100.278 95.136 101.324 93.9493C101.673 93.5528 101.983 93.0848 102.271 92.5886C103.104 93.9317 103.754 95.0147 103.862 95.2089C104.328 96.1637 105.282 96.7179 106.274 96.7179C106.671 96.7179 107.074 96.6303 107.453 96.4415C108.785 95.7861 109.334 94.1691 108.68 92.8313C108.545 92.5535 107.871 91.4274 107.047 90.0923C108.558 90.8637 109.856 91.7443 110.12 92.6128C110.813 94.8866 111.191 103.493 110.628 113.966C110.547 115.455 111.682 116.726 113.163 116.805C113.213 116.808 113.261 116.809 113.31 116.809C114.726 116.809 115.912 115.695 115.988 114.258C116.447 105.74 116.15 93.6688 114.992 89.8657C113.697 85.6082 102.863 82.5699 102.587 82.5523ZM76.9626 75.8539C74.889 74.0994 71.174 73.1823 67.2428 72.2086C64.5263 71.537 59.4665 70.2855 58.7994 69.1811C58.4827 68.465 58.6384 67.1649 59.3027 67.2566C59.3041 67.2566 59.3054 67.2566 59.3067 67.2566C61.8944 67.552 83.8492 72.8587 86.061 74.04C86.8663 74.601 89.1573 76.7871 91.7423 79.4196L77.7156 76.9166C77.5558 76.5201 77.3116 76.1492 76.9626 75.8539ZM44.1835 78.5308L48.9145 76.6954C48.6367 77.282 48.3911 77.9172 48.2166 78.6144C47.9603 79.638 47.8717 80.6535 47.924 81.5948L44.1835 78.5308ZM61.8608 79.2442C59.194 77.3562 55.9178 76.9152 52.1263 77.9469C51.3733 78.1492 50.6848 78.7358 50.3453 79.4411C50.0607 80.0332 50.0768 81.3979 50.2755 83.174L49.6661 83.0217C49.6661 83.0217 48.7454 81.3534 49.5172 78.9449C49.8675 77.8484 50.2365 76.9098 50.7278 76.2126L95.7016 84.2367C95.1688 85.112 94.7259 86.1463 94.4494 87.3344C94.1461 88.6399 94.087 89.9426 94.2534 91.1051L66.5999 86.2758C65.8658 83.9427 64.4888 81.104 61.8608 79.2442ZM78.6134 92.5643C79.0792 93.6283 79.6778 96.5453 78.2672 97.6808C76.3466 97.6296 74.7696 97.1926 74.3575 96.544C73.0288 94.4496 71.0746 92.4119 69.4278 90.8731L78.5839 92.4712C78.596 92.5022 78.6 92.5333 78.6134 92.5643ZM99.5884 88.5387C99.1093 90.6061 98.0826 91.6459 97.747 91.7133L97.1229 91.6041C97.0854 91.5056 97.0478 91.4112 97.0156 91.2926C96.7646 90.3715 96.782 89.1523 97.0625 87.9467C97.4169 86.4174 98.0597 85.3466 98.6409 84.76L99.371 84.8908C99.6462 85.2118 100.047 86.5657 99.5884 88.5387ZM39.0914 75.7972C38.3492 75.7972 37.7493 75.1944 37.7493 74.4487V68.5C37.7493 67.7542 38.3492 67.1514 39.0914 67.1514C39.8336 67.1514 40.4335 67.7542 40.4335 68.5V74.4487C40.4335 75.1944 39.8336 75.7972 39.0914 75.7972ZM37.7493 58.2305C37.7493 57.4847 38.3492 56.8819 39.0914 56.8819C39.8336 56.8819 40.4335 57.4847 40.4335 58.2305V64.1805C40.4335 64.9262 39.8336 65.5291 39.0914 65.5291C38.3492 65.5291 37.7493 64.9262 37.7493 64.1805V58.2305ZM37.7493 53.9109V47.9623C37.7493 47.2165 38.3492 46.6137 39.0914 46.6137C39.8336 46.6137 40.4335 47.2165 40.4335 47.9623V53.9109C40.4335 54.6567 39.8336 55.2595 39.0914 55.2595C38.3492 55.2595 37.7493 54.6567 37.7493 53.9109Z" fill="white"/>
</svg>
