<svg width="307" height="59" viewBox="0 0 307 59" fill="none" xmlns="http://www.w3.org/2000/svg">
  <title>[logo] XIXOIO</title>
  <path opacity="0.9" fill-rule="evenodd" clip-rule="evenodd"
        d="M49.7786 51.1082C51.4518 53.2078 51.1001 56.2311 48.8982 57.9095C47.9305 58.6643 46.8753 59 45.7306 59C44.965 58.9914 44.2096 58.8229 43.5129 58.5051C42.8161 58.1873 42.1934 57.7274 41.6847 57.1547L25.4036 37.4223L9.12648 57.1568C8.61758 57.729 7.99482 58.1886 7.2981 58.506C6.60138 58.8234 5.84607 58.9917 5.08058 59C3.93229 58.9991 2.81703 58.6154 1.91096 57.9095C-0.288867 56.2311 -0.638562 53.2078 1.11805 51.1082L18.8915 29.5285L1.11805 7.94669C-0.638562 5.76165 -0.288867 2.74248 1.91096 1.062C4.19821 -0.616448 7.3658 -0.280759 9.12648 1.90021L25.4036 21.6347L41.6827 1.90021C43.4434 -0.280759 46.6984 -0.616448 48.8982 1.062C51.1001 2.74248 51.4518 5.76165 49.7786 7.94669L31.9197 29.5285L49.7806 51.1082H49.7786ZM71.1039 59C67.7655 59 65.0594 56.815 65.0594 54.1254V4.87666C65.0594 2.18707 67.7655 0 71.1039 0C74.4423 0 77.2581 2.18707 77.2581 4.87666V54.1254C77.2581 56.815 74.4423 59 71.1039 59ZM141.269 51.1082C142.94 53.2078 142.59 56.2311 140.39 57.9095C139.421 58.6643 138.363 59 137.221 59C136.455 58.9914 135.7 58.8229 135.003 58.5051C134.306 58.1873 133.683 57.7274 133.175 57.1547L116.896 37.4223L100.619 57.1568C100.109 57.7292 99.4854 58.1888 98.788 58.5062C98.0906 58.8236 97.3347 58.9918 96.5686 59C95.5114 59 94.3688 58.6643 93.401 57.9095C91.2012 56.2311 90.8495 53.2078 92.6081 51.1082L110.384 29.5285L92.6081 7.94669C90.8474 5.76165 91.1992 2.74248 93.399 1.062C95.6883 -0.616448 98.8559 -0.280759 100.617 1.90021L116.894 21.6347L133.173 1.90021C134.929 -0.280759 138.186 -0.616448 140.388 1.062C142.588 2.74248 142.938 5.76165 141.267 7.94669L123.406 29.5285L141.267 51.1082H141.269ZM177.897 9.75128C166.979 9.75128 158.162 18.6582 158.162 29.502C158.159 32.0965 158.667 34.666 159.658 37.0635C160.649 39.461 162.103 41.6393 163.936 43.4738C165.77 45.3082 167.947 46.7628 170.343 47.7541C172.739 48.7454 175.307 49.254 177.899 49.2508C188.732 49.2508 197.635 40.4252 197.635 29.502C197.635 18.6582 188.73 9.75128 177.899 9.75128H177.897ZM177.897 59C161.606 59 148.417 45.8064 148.417 29.5C148.417 13.2831 161.606 0 177.897 0C194.107 0 207.377 13.2811 207.377 29.5C207.377 45.8064 194.105 59 177.897 59ZM225.62 59C222.286 59 219.576 56.815 219.576 54.1254V4.87666C219.576 2.18707 222.286 0 225.62 0C228.961 0 231.775 2.18707 231.775 4.87666V54.1254C231.775 56.815 228.961 59 225.62 59ZM277.52 9.75128C266.602 9.75128 257.784 18.6582 257.784 29.502C257.781 32.0965 258.29 34.666 259.281 37.0635C260.272 39.461 261.725 41.6393 263.559 43.4738C265.392 45.3082 267.569 46.7628 269.965 47.7541C272.361 48.7454 274.929 49.254 277.522 49.2508C288.354 49.2508 297.257 40.4252 297.257 29.502C297.257 18.6582 288.352 9.75128 277.522 9.75128H277.52ZM277.522 59C261.228 59 248.04 45.8064 248.04 29.5C248.04 13.2831 261.228 0 277.52 0C293.728 0 307 13.2811 307 29.5C307 45.8064 293.728 59 277.52 59"
        fill="white"/>
</svg>
