<?xml version="1.0" encoding="UTF-8"?>
<svg width="60px" height="67px" viewBox="0 0 60 67" version="1.1" xmlns="http://www.w3.org/2000/svg" xmlns:xlink="http://www.w3.org/1999/xlink">
    <!-- Generator: Sketch 51.2 (57519) - http://www.bohemiancoding.com/sketch -->
    <title>Combined Shape</title>
    <desc>Created with Sketch.</desc>
    <defs>
        <linearGradient x1="0%" y1="0%" x2="100%" y2="100%" id="linearGradient-1">
            <stop stop-color="#EE72E9" offset="0%"></stop>
            <stop stop-color="#8363F9" offset="100%"></stop>
        </linearGradient>
    </defs>
    <g id="Page-1" stroke="none" stroke-width="1" fill="none" fill-rule="evenodd">
        <g id="Blockchain---doplnene-texty-2" transform="translate(-690.000000, -3350.000000)" fill="url(#linearGradient-1)" fill-rule="nonzero">
            <g id="content-2" transform="translate(0.000000, 2552.000000)">
                <g id="box-1-copy-2" transform="translate(570.000000, 798.000000)">
                    <path d="M129.713322,13.2546374 C134.165261,8.70151771 140.033727,5.76728499 146.306914,4.95784148 C146.812816,6.5767285 148.229342,7.8920742 150.05059,7.8920742 C152.175379,7.8920742 153.996627,6.17200675 153.996627,3.9460371 C153.996627,1.72006745 152.27656,0 150.05059,0 C148.026981,0 146.408094,1.51770658 146.205734,3.44013491 C139.527825,4.24957841 133.254637,7.38617201 128.600337,12.1416526 L129.713322,13.2546374 Z M150.05059,1.51770658 C151.365936,1.51770658 152.478921,2.6306914 152.478921,3.9460371 C152.478921,5.2613828 151.365936,6.37436762 150.05059,6.37436762 C148.735245,6.37436762 147.62226,5.2613828 147.62226,3.9460371 C147.62226,2.52951096 148.735245,1.51770658 150.05059,1.51770658 Z M121.315346,41.5851602 C120.505902,38.8532884 120.10118,35.9190556 120,33.1871838 C120,29.1399663 120.809444,25.1939292 122.32715,21.5514334 C120.809444,20.3372681 120.303541,18.2124789 121.315346,16.4924115 C122.023609,15.2782462 123.338954,14.5699831 124.755481,14.5699831 C125.463744,14.5699831 126.172007,14.772344 126.779089,15.0758853 C127.689713,15.682968 128.296796,16.4924115 128.600337,17.5042159 C128.903879,18.5160202 128.701518,19.5278246 128.195616,20.4384486 C127.487352,21.6526138 126.172007,22.3608769 124.755481,22.3608769 C124.451939,22.3608769 124.047218,22.3608769 123.743676,22.2596965 C122.32715,25.6998314 121.618887,29.4435076 121.618887,33.1871838 C121.618887,35.9190556 121.922428,38.549747 122.731872,41.1804384 L121.315346,41.5851602 Z M122.731872,17.2006745 C122.023609,18.3136594 122.428331,19.8313659 123.642496,20.4384486 C124.755481,21.1467116 126.273187,20.7419899 126.98145,19.6290051 C127.284992,19.1231029 127.386172,18.4148398 127.183811,17.8077572 C126.98145,17.0994941 126.576728,16.5935919 126.070826,16.2900506 C125.666105,16.0876897 125.261383,15.9865093 124.856661,15.9865093 C123.946037,15.9865093 123.136594,16.4924115 122.731872,17.2006745 Z M127.386172,50.2866779 C131.129848,55.143339 136.391231,58.7858347 142.259696,60.4047218 L141.854975,61.8212479 C135.581788,60.1011804 130.118044,56.2563238 126.172007,51.0961214 C125.666105,51.2984823 125.160202,51.3996627 124.6543,51.3996627 C123.237774,51.3996627 121.922428,50.5902192 121.214165,49.376054 C120.708263,48.3642496 120.505902,47.3524452 120.809444,46.3406408 C121.011804,45.3288364 121.720067,44.5193929 122.630691,44.0134907 C123.237774,43.7099494 123.844857,43.5075885 124.55312,43.5075885 C125.969646,43.5075885 127.284992,44.317032 127.993255,45.5311973 C128.903879,47.1500843 128.600337,49.0725126 127.386172,50.2866779 Z M122.529511,48.6677909 C123.237774,49.7807757 124.755481,50.2866779 125.868465,49.6795953 C126.98145,48.9713322 127.386172,47.4536256 126.779089,46.3406408 C126.374368,45.6323777 125.564924,45.1264755 124.6543,45.1264755 C124.249578,45.1264755 123.844857,45.227656 123.440135,45.4300169 C122.934233,45.7335582 122.529511,46.2394604 122.32715,46.846543 C122.124789,47.4536256 122.22597,48.0607083 122.529511,48.6677909 Z M170.185497,53.1197302 L171.197302,54.1315346 C166.441821,58.8870152 160.370995,61.9224283 153.794266,62.7318718 C153.591906,64.6543002 151.973019,66.1720067 149.94941,66.1720067 C148.937605,66.1720067 147.925801,65.6661046 147.217538,64.9578415 C146.509275,64.148398 146.104553,63.1365936 146.104553,62.1247892 C146.104553,60 147.925801,58.2799325 150.05059,58.2799325 C151.871838,58.2799325 153.389545,59.5952782 153.794266,61.2141653 C159.966273,60.4047218 165.733558,57.5716695 170.185497,53.1197302 Z M150.05059,64.7554806 C151.365936,64.7554806 152.478921,63.6424958 152.478921,62.3271501 C152.478921,61.0118044 151.365936,59.8988196 150.05059,59.8988196 C148.735245,59.8988196 147.62226,61.0118044 147.62226,62.3271501 C147.62226,62.9342327 147.925801,63.5413153 148.330523,64.0472175 C148.735245,64.4519393 149.342327,64.7554806 150.05059,64.7554806 L150.05059,65.5649241 L150.05059,64.7554806 Z M172.816189,16.0876897 C168.971332,10.8263069 163.305228,7.08263069 156.93086,5.56492411 L157.335582,4.04721754 C164.013491,5.66610455 169.983137,9.71332209 174.131535,15.2782462 C174.536256,15.0758853 175.042159,14.9747049 175.548061,14.9747049 C176.964587,14.9747049 178.279933,15.7841484 178.988196,16.9983137 C179.494098,18.010118 179.595278,19.0219224 179.291737,20.0337268 C179.089376,21.0455312 178.381113,21.8549747 177.470489,22.3608769 C176.863406,22.6644182 176.256324,22.8667791 175.548061,22.8667791 C174.131535,22.8667791 172.816189,22.0573356 172.107926,20.8431703 C171.602024,19.8313659 171.500843,18.8195616 171.804384,17.8077572 C172.006745,17.0994941 172.310287,16.5935919 172.816189,16.0876897 Z M177.67285,17.7065767 C177.268128,16.9983137 176.458685,16.4924115 175.649241,16.4924115 C175.244519,16.4924115 174.839798,16.5935919 174.435076,16.7959528 C173.929174,17.0994941 173.524452,17.6053963 173.322091,18.2124789 C173.11973,18.8195616 173.220911,19.4266442 173.524452,20.0337268 C174.131535,21.1467116 175.649241,21.5514334 176.762226,20.9443508 C177.268128,20.6408094 177.67285,20.1349073 177.875211,19.5278246 C178.077572,18.920742 177.976391,18.3136594 177.67285,17.7065767 Z M177.571669,44.9241147 C178.279933,45.5311973 178.785835,46.2394604 178.785835,47.0489039 C179.089376,48.0607083 178.887015,49.0725126 178.381113,49.9831366 C177.67285,51.1973019 176.458685,51.9055649 175.042159,51.9055649 C174.333895,51.9055649 173.625632,51.8043845 173.01855,51.3996627 C172.107926,50.8937605 171.500843,49.9831366 171.197302,48.9713322 C170.893761,47.9595278 171.096121,46.9477234 171.602024,46.0370995 C172.310287,44.8229342 173.524452,44.1146712 174.940978,44.1146712 C175.3457,44.1146712 175.750422,44.1146712 176.053963,44.2158516 C177.571669,40.6745363 178.381113,36.93086 178.381113,33.0860034 C178.381113,30.6576728 178.077572,28.2293423 177.470489,25.9021922 L178.988196,25.4974705 C179.696459,27.925801 180,30.5564924 180,33.0860034 C180,37.2344013 179.190556,41.1804384 177.571669,44.9241147 Z M177.166948,49.2748735 C177.571669,48.6677909 177.67285,48.0607083 177.470489,47.3524452 C177.268128,46.6441821 176.863406,46.1382799 176.357504,45.8347386 C175.952782,45.6323777 175.548061,45.5311973 175.143339,45.5311973 C174.232715,45.5311973 173.423272,46.0370995 173.01855,46.7453626 C172.310287,47.9595278 172.715008,49.376054 173.827993,50.084317 C174.940978,50.7925801 176.559865,50.3878583 177.166948,49.2748735 Z M150.05059,19.0219224 C151.264755,19.0219224 152.478921,19.3254637 153.490725,19.9325464 C154.401349,19.3254637 155.514334,18.920742 156.728499,18.920742 C160.067454,18.920742 162.698145,21.5514334 162.698145,24.8903879 C162.698145,28.2293423 159.966273,30.8600337 156.728499,30.8600337 C156.121417,30.8600337 155.413153,30.7588533 154.806071,30.5564924 C153.591906,31.7706577 151.871838,32.4789207 150.05059,32.4789207 C148.229342,32.4789207 146.509275,31.7706577 145.29511,30.5564924 C144.688027,30.7588533 144.080944,30.8600337 143.372681,30.8600337 C140.033727,30.8600337 137.403035,28.2293423 137.403035,24.8903879 C137.403035,21.5514334 140.134907,18.920742 143.372681,18.920742 C144.485666,18.920742 145.598651,19.3254637 146.610455,19.9325464 C147.62226,19.3254637 148.836425,19.0219224 150.05059,19.0219224 Z M138.920742,24.8903879 C138.920742,27.3187184 140.84317,29.3423272 143.372681,29.2411467 C143.777403,29.2411467 144.080944,29.2411467 144.384486,29.1399663 C143.777403,28.1281619 143.372681,27.0151771 143.372681,25.6998314 C143.372681,23.8785835 144.182125,22.158516 145.39629,20.9443508 C144.789207,20.6408094 144.080944,20.4384486 143.372681,20.4384486 C140.944351,20.4384486 138.920742,22.4620573 138.920742,24.8903879 Z M150.05059,30.9612142 C152.883642,30.9612142 155.311973,28.6340641 155.311973,25.6998314 C155.311973,22.7655987 152.883642,20.4384486 150.05059,20.4384486 C147.116358,20.4384486 144.789207,22.8667791 144.789207,25.6998314 C144.789207,28.6340641 147.217538,30.9612142 150.05059,30.9612142 Z M156.728499,20.4384486 C156.020236,20.4384486 155.413153,20.6408094 154.70489,21.0455312 C155.919056,22.2596965 156.728499,23.8785835 156.728499,25.8010118 C156.728499,27.0151771 156.323777,28.2293423 155.716695,29.2411467 C156.121417,29.3423272 156.424958,29.3423272 156.728499,29.3423272 C159.15683,29.3423272 161.180438,27.3187184 161.180438,24.8903879 C161.180438,22.4620573 159.15683,20.4384486 156.728499,20.4384486 Z M169.376054,42.9005059 L169.578415,43.8111298 L164.418212,43.8111298 C164.519393,44.6205734 164.519393,45.5311973 164.620573,46.5430017 L164.620573,47.3524452 L135.682968,47.3524452 L135.682968,46.5430017 C135.784148,45.5311973 135.784148,44.6205734 135.885329,43.8111298 L130.725126,43.8111298 L130.725126,43.0016863 C130.927487,40.7757167 131.129848,38.7521079 131.332209,37.1332209 L131.332209,37.0320405 C131.43339,36.222597 131.63575,35.311973 132.141653,34.5025295 L132.242833,34.3001686 C132.647555,33.5919056 133.254637,32.8836425 134.064081,32.4789207 C134.266442,32.2765599 134.569983,32.1753794 134.873524,32.074199 L139.123103,30.5564924 L140.84317,33.8954469 L145.092749,32.3777403 L149.342327,40.2698145 L150.758853,40.2698145 L155.008432,32.3777403 L159.25801,33.8954469 L160.978078,30.5564924 L165.328836,32.074199 C165.632378,32.1753794 165.935919,32.3777403 166.13828,32.4789207 C166.846543,32.8836425 167.554806,33.5919056 167.959528,34.3001686 L167.959528,34.4013491 C168.36425,35.311973 168.667791,36.1214165 168.768971,36.93086 L168.768971,37.0320405 C169.072513,38.6509275 169.274874,40.6745363 169.376054,42.9005059 Z M132.242833,42.1922428 L132.242833,42.0910624 L135.986509,42.0910624 C136.08769,40.8768971 136.290051,40.0674536 136.290051,39.8650927 C136.290051,38.7521079 136.694772,37.6391231 137.301855,36.5261383 C137.807757,35.6155143 138.617201,34.9072513 139.527825,34.4013491 L138.41484,32.2765599 L135.379427,33.3895447 C135.177066,33.4907251 134.974705,33.5919056 134.772344,33.693086 C134.165261,34.0978078 133.76054,34.5025295 133.456998,35.0084317 C133.052277,35.8178752 132.849916,36.4249578 132.748735,37.0320405 C132.748735,37.0320405 132.748735,37.1332209 132.748735,37.2344013 C132.546374,38.6509275 132.344013,40.2698145 132.242833,42.1922428 Z M137.200675,45.7335582 L162.799325,45.7335582 C162.596965,43.5075885 162.394604,41.4839798 162.192243,39.8650927 C162.192243,39.7639123 162.192243,39.6627319 162.192243,39.6627319 C162.091062,38.9544688 161.787521,38.2462057 161.382799,37.4367622 L161.382799,37.3355818 C160.978078,36.6273187 160.472175,36.222597 159.865093,35.8178752 C159.662732,35.7166948 159.460371,35.6155143 159.15683,35.5143339 L155.615514,34.3001686 L151.568297,41.8887015 L148.431703,41.8887015 L144.384486,34.3001686 L140.84317,35.6155143 C139.932546,35.9190556 139.123103,36.6273187 138.617201,37.4367622 C138.111298,38.3473862 137.807757,39.2580101 137.807757,40.0674536 L137.807757,40.2698145 C137.807757,40.2698145 137.403035,42.0910624 137.200675,45.7335582 Z M164.114671,42.1922428 L164.114671,42.2934233 L167.858347,42.2934233 C167.757167,40.3709949 167.554806,38.7521079 167.352445,37.3355818 C167.352445,37.2344013 167.352445,37.1332209 167.352445,37.1332209 C167.251265,36.5261383 167.048904,35.9190556 166.644182,35.2107926 L166.644182,35.1096121 C166.23946,34.6037099 165.834739,34.1989882 165.328836,33.8954469 C165.126476,33.7942664 164.924115,33.693086 164.721754,33.5919056 L161.787521,32.4789207 L160.674536,34.6037099 C161.58516,35.1096121 162.293423,35.8178752 162.799325,36.6273187 L162.799325,36.7284992 C163.406408,37.6391231 163.709949,38.6509275 163.81113,39.5615514 L163.81113,39.6627319 C163.91231,40.4721754 164.013491,41.2816189 164.114671,42.1922428 Z" id="Combined-Shape"></path>
                </g>
            </g>
        </g>
    </g>
</svg>