<?xml version="1.0" encoding="UTF-8"?>
<svg width="149px" height="21px" viewBox="0 0 149 21" version="1.1" xmlns="http://www.w3.org/2000/svg" xmlns:xlink="http://www.w3.org/1999/xlink">
    <!-- Generator: Sketch 51.2 (57519) - http://www.bohemiancoding.com/sketch -->
    <title>Group</title>
    <desc>Created with Sketch.</desc>
    <defs></defs>
    <g id="Page-1" stroke="none" stroke-width="1" fill="none" fill-rule="evenodd">
        <g id="Blockchain---doplnene-texty-2" transform="translate(-313.000000, -47.000000)" fill="#FFFFFF" fill-rule="nonzero">
            <g id="Group-8" transform="translate(268.000000, 32.000000)">
                <g id="Group" transform="translate(45.000000, 15.000000)">
                    <polygon id="Shape" points="8.82578719 4.42559091 8.82578719 20.3626818 4.40381198 20.3626818 4.40381198 4.42559091 0.240431818 4.42559091 0.240431818 0.567318182 12.9894752 0.567318182 12.9894752 4.42559091"></polygon>
                    <path d="M30.6601364,3.00077273 C32.4690702,4.81122727 33.6462934,7.42286364 33.6462934,10.4796364 C33.6462934,13.1211818 32.7273574,15.8219091 30.6601364,17.8993182 C28.8798326,19.6798636 26.4675103,20.8078182 23.2516963,20.8078182 C19.6624587,20.8078182 17.221814,19.3238182 15.7859959,17.8993182 C13.948124,16.1187727 12.7998388,13.4476364 12.7998388,10.5391364 C12.7998388,7.68981818 14.0343223,4.81122727 15.7573657,3.03068182 C17.0497252,1.69527273 19.4328017,0.122181818 23.2520041,0.122181818 C26.2381612,0.122181818 28.7360661,1.07195455 30.6601364,3.00077273 Z M19.0307479,6.02795455 C18.1980103,6.85904545 17.3366426,8.31313636 17.3366426,10.5092273 C17.3366426,12.3196818 17.911093,13.7737727 19.0883161,14.9609091 C20.3227996,16.1776364 21.7010496,16.5935 23.194436,16.5935 C25.1471364,16.5935 26.5253864,15.8515 27.4440145,14.9017273 C28.1905537,14.1597273 29.1094897,12.7648182 29.1094897,10.4796364 C29.1094897,8.43213636 28.3053822,6.91822727 27.4440145,6.02795455 C26.4964483,5.0785 24.9747397,4.33618182 23.2230661,4.33618182 C21.5575909,4.3365 20.0645124,4.95981818 19.0307479,6.02795455 Z" id="Shape"></path>
                    <path d="M42.5989153,0.567318182 C44.2643905,0.567318182 46.1022624,0.804681818 47.6239711,2.19990909 C49.2608161,3.68359091 49.4901653,5.64263636 49.4901653,7.00763636 C49.4901653,9.50027273 48.5715372,10.8955 47.8536281,11.6670909 C46.3316116,13.2694545 44.3216508,13.4180455 42.972031,13.4180455 L40.2727913,13.4180455 L40.2727913,20.3626818 L35.8508161,20.3626818 L35.8508161,0.567318182 L42.5989153,0.567318182 Z M40.273407,9.67845455 L41.8526839,9.67845455 C42.4557645,9.67845455 43.5181591,9.64886364 44.2360682,8.93645455 C44.6381219,8.52090909 44.9539773,7.83840909 44.9539773,6.97772727 C44.9539773,6.14663636 44.6670599,5.46413636 44.2360682,5.04859091 C43.5757273,4.39568182 42.6281612,4.30659091 41.7667934,4.30659091 L40.2737149,4.30659091 L40.2737149,9.67845455 L40.273407,9.67845455 Z" id="Shape"></path>
                    <polygon id="Shape" points="49.4987851 20.3626818 52.5711405 0.567318182 56.2465764 0.567318182 61.0130372 12.4087727 65.7798058 0.567318182 69.4552417 0.567318182 72.527905 20.3626818 68.1059298 20.3626818 66.5839132 8.55081818 61.7885145 20.3626818 60.2381756 20.3626818 55.4427769 8.55081818 53.9207603 20.3626818"></polygon>
                    <path d="M91.3031364,3.00077273 C93.1120702,4.81122727 94.2892934,7.42286364 94.2892934,10.4796364 C94.2892934,13.1211818 93.3706653,15.8219091 91.3031364,17.8993182 C89.5228326,19.6798636 87.1105103,20.8078182 83.8946963,20.8078182 C80.3054587,20.8078182 77.864814,19.3238182 76.4289959,17.8993182 C74.591124,16.1187727 73.4428388,13.4476364 73.4428388,10.5391364 C73.4428388,7.68981818 74.6773223,4.81122727 76.4003657,3.03068182 C77.6927252,1.69527273 80.0758017,0.122181818 83.8950041,0.122181818 C86.8811612,0.122181818 89.3790661,1.07195455 91.3031364,3.00077273 Z M79.6737479,6.02795455 C78.8410103,6.85904545 77.9796426,8.31313636 77.9796426,10.5092273 C77.9796426,12.3196818 78.554093,13.7737727 79.7313161,14.9609091 C80.9657996,16.1776364 82.3443574,16.5935 83.837436,16.5935 C85.7901364,16.5935 87.1683864,15.8515 88.0870145,14.9017273 C88.8335537,14.1597273 89.7524897,12.7648182 89.7524897,10.4796364 C89.7524897,8.43213636 88.9483822,6.91822727 88.0870145,6.02795455 C87.1394483,5.0785 85.6177397,4.33618182 83.8660661,4.33618182 C82.2005909,4.3365 80.7075124,4.95981818 79.6737479,6.02795455 Z" id="Shape"></path>
                    <polygon id="Shape" points="96.494124 20.3626818 96.494124 0.567318182 100.341649 0.567318182 110.736246 13.3289545 110.736246 0.567318182 115.158221 0.567318182 115.158221 20.3626818 111.310696 20.3626818 100.916099 7.54186364 100.916099 20.3626818"></polygon>
                    <polygon id="Shape" points="122.816021 8.81777273 129.362785 0.567318182 134.760957 0.567318182 127.008031 9.94540909 135.364037 20.3623636 129.678333 20.3623636 122.815713 11.5776818 122.815713 20.3623636 118.393738 20.3623636 118.393738 0.567 122.815713 0.567 122.815713 8.81777273"></polygon>
                    <path d="M146.07726,5.40495455 C144.64175,4.06954545 143.406959,3.98045455 142.861446,3.98045455 C142.258674,3.98045455 141.511826,4.06954545 140.994944,4.66295455 C140.708027,4.9595 140.507,5.40495455 140.507,5.90927273 C140.507,6.38431818 140.650459,6.74036364 140.937684,7.00763636 C141.397306,7.45277273 142.057339,7.63063636 143.34939,8.13527273 L144.785209,8.69909091 C145.617946,9.02554545 146.651711,9.47068182 147.39825,10.2126818 C148.518213,11.3107273 148.80513,12.7352273 148.80513,13.8927727 C148.80513,15.9405909 148.115851,17.7214545 147.111025,18.7895909 C145.416612,20.6296364 142.947337,20.8078182 141.683915,20.8078182 C140.305665,20.8078182 139.099504,20.6000455 137.893651,19.9767273 C136.917455,19.4724091 135.797492,18.5522273 135.079583,17.8102273 L137.376769,14.5456818 C137.864713,15.0503182 138.64019,15.7328182 139.157072,16.0592727 C139.903612,16.534 140.679089,16.7713636 141.569087,16.7713636 C142.143537,16.7713636 142.947337,16.6526818 143.579048,16.0888636 C143.952471,15.7624091 144.268326,15.2281818 144.268326,14.4865 C144.268326,13.8332727 144.009731,13.4180455 143.607986,13.0616818 C143.091103,12.6165455 141.91388,12.1714091 141.368368,11.9636364 L139.789091,11.3998182 C138.899093,11.0733636 137.865329,10.6578182 137.118789,9.82672727 C136.113655,8.72868182 135.970196,7.33409091 135.970196,6.384 C135.970196,4.63304545 136.487079,3.14904545 137.635364,1.93231818 C138.984983,0.507818182 140.59289,0.121863636 142.373502,0.121863636 C143.694184,0.121863636 145.819281,0.359227273 148.058899,2.08059091 L146.07726,5.40495455 Z" id="Shape"></path>
                </g>
            </g>
        </g>
    </g>
</svg>