<?xml version="1.0" encoding="UTF-8"?>
<svg width="104px" height="99px" viewBox="0 0 104 99" version="1.1" xmlns="http://www.w3.org/2000/svg" xmlns:xlink="http://www.w3.org/1999/xlink">
    <!-- Generator: Sketch 51.2 (57519) - http://www.bohemiancoding.com/sketch -->
    <title>Group 15</title>
    <desc>Created with Sketch.</desc>
    <defs>
        <linearGradient x1="31.4296206%" y1="-39.2040706%" x2="50%" y2="100%" id="linearGradient-1">
            <stop stop-color="#529CFB" offset="0%"></stop>
            <stop stop-color="#8380E5" offset="100%"></stop>
        </linearGradient>
        <linearGradient x1="0%" y1="0%" x2="100%" y2="100%" id="linearGradient-2">
            <stop stop-color="#EE72E9" offset="0%"></stop>
            <stop stop-color="#8363F9" offset="100%"></stop>
        </linearGradient>
    </defs>
    <g id="Page-1" stroke="none" stroke-width="1" fill="none" fill-rule="evenodd">
        <g id="Blockchain---doplnene-texty-2" transform="translate(-469.000000, -630.000000)">
            <g id="Group-4" transform="translate(271.000000, 630.000000)">
                <g id="Group-15" transform="translate(198.000000, 0.000000)">
                    <g id="Group-14" fill-rule="nonzero">
                        <ellipse id="Oval" fill="url(#linearGradient-1)" cx="56.5" cy="46" rx="47.5" ry="46"></ellipse>
                        <ellipse id="Oval-Copy" fill="url(#linearGradient-2)" style="mix-blend-mode: multiply;" cx="47.5" cy="53" rx="47.5" ry="46"></ellipse>
                    </g>
                    <g id="Group-11" transform="translate(35.000000, 29.000000)" fill="#FFFFFF">
                        <path d="M25.8055953,41.8842324 L9.51016166,41.8842324 L9.51016166,41.7449067 C9.51016166,37.024457 9.50989779,35.6765825 9.51187685,30.9560008 C9.51200878,30.8625893 9.48707265,30.7908154 9.43113127,30.7167986 C6.79951155,27.2347116 4.16960701,23.7513052 1.53930666,20.2682946 C1.21289399,19.8359364 0.924743105,19.3851069 0.797159816,18.8475947 C0.611919964,18.0679777 0.6652226,17.3110539 1.00443318,16.5821007 C2.11230999,14.2015575 3.22335329,11.8224657 4.33175785,9.44218633 C4.39231703,9.31209624 4.43334951,9.1726386 4.49483225,9.04281238 C5.04303138,7.88559105 5.94825263,7.20321177 7.21643315,7.01163893 C7.36750126,6.98894573 7.52265943,6.98643892 7.67583854,6.98643892 C11.0861517,6.98498761 14.4964649,6.98538342 17.9067781,6.98538342 L18.0292158,6.98538342 C17.9949121,7.15874892 17.9731425,7.32274688 17.9296032,7.48067573 C17.5744282,8.76917459 16.8103798,9.75434979 15.6890454,10.4673385 C14.9487457,10.9379586 14.1320543,11.205923 13.271164,11.3501304 C12.6723009,11.4504027 12.0678965,11.46452 11.4629644,11.468742 C11.394489,11.4692697 11.3576785,11.4873451 11.3270691,11.5512027 C10.4306876,13.4226002 9.53232711,15.2929422 8.63449436,17.1635481 C8.84902427,17.2817638 9.09284425,17.3140884 9.33679616,17.3440382 C10.1049346,17.4385052 10.8476092,17.6373346 11.5743194,17.8972509 C12.6292894,18.2745914 13.6069442,18.792313 14.4713968,19.5125583 C15.3785971,20.2684266 16.0458036,21.1950216 16.4748635,22.2960377 C16.6949347,22.8604651 16.8925767,23.4305658 16.96976,24.0339147 C17.0051191,24.3097955 17.0288678,24.5893704 17.0299233,24.8672302 C17.0355966,26.3969103 17.0325621,27.9264584 17.0325621,29.4561385 L17.0325621,29.5839857 L18.274751,29.5839857 C18.2825353,27.8718364 18.2870211,26.22935 18.2785771,24.5869955 C18.274619,23.8344257 18.1458483,23.0974244 17.934221,22.375332 C18.8899742,22.6744337 19.8214509,22.5492252 20.7326094,22.1148879 C20.7678366,22.2717613 20.7965989,22.4303498 20.8394785,22.5852441 C21.1888483,23.8465639 22.3527984,24.7434731 23.6531716,24.7189328 C24.7642149,24.6979547 25.6289314,24.2018708 26.1977128,23.2434789 C26.4266238,22.8576945 26.5953715,22.4357592 26.7850972,22.0271497 C27.1487162,21.2438384 27.5077174,20.4581523 27.8685657,19.6733897 C27.5331813,19.3993561 27.1590073,19.2267823 26.7767852,19.0505141 C26.7575224,19.090623 26.7411621,19.1233435 26.7258574,19.1564597 C26.2103787,20.2697459 25.6952958,21.3831641 25.1798171,22.4963184 C24.8698966,23.1656359 24.0954251,23.5656696 23.35816,23.4378224 C22.614166,23.3087878 22.0517177,22.692641 21.9806035,21.9384879 C21.9499941,21.6140542 22.0097616,21.3102028 22.145657,21.0169064 C23.1726563,18.7990418 24.2017665,16.5821007 25.2226967,14.3614655 C25.3661125,14.0495659 25.5092644,13.7437354 25.739099,13.484083 C26.9791769,12.0834375 29.2606352,12.487957 29.931404,14.2338822 C30.0468491,14.534699 30.1107067,14.854251 30.1108387,15.1801359 C30.1120261,18.546514 30.1113664,21.912892 30.1116303,25.2794021 C30.1116303,25.6981708 30.0027821,26.0852746 29.8141119,26.4595805 C29.374629,27.3315535 28.9483398,28.2101235 28.5178287,29.0864504 C27.6288357,30.8954416 26.7403705,32.7045647 25.8538844,34.5148753 C25.8249901,34.5737193 25.8082341,34.6452293 25.8082341,34.7108021 C25.8057273,38.180355 25.8057273,41.6497761 25.8055953,45.1191971 L25.8055953,41.8842324 Z M19.2209123,21.2651067 C17.5840992,21.2635235 16.4453491,20.0359796 16.552746,18.5842744 C16.5766266,18.2622156 16.6597471,17.9534826 16.7935314,17.6620332 C18.4445937,14.0641054 20.0965796,10.4668371 21.7526556,6.87141605 C22.1414745,6.02728174 22.8011606,5.51774021 23.7220824,5.37630352 C24.9671739,5.18525843 26.1808644,6.02108069 26.4807577,7.25113136 C26.6258886,7.84630015 26.5527954,8.41996316 26.3027744,8.96578743 C24.796711,12.2548503 23.2835231,15.5404828 21.7711268,18.8266431 C21.5893173,19.2216631 21.4233403,19.6268423 21.2063036,20.0019398 C20.728427,20.8278668 19.9841691,21.226581 19.2209123,21.2651067 Z M10.4510719,16.2773917 C10.6464709,15.8699696 10.8368563,15.4723108 11.0279014,15.074784 C11.392312,14.3160131 11.7579101,13.557638 12.1203416,12.7976796 C12.1485762,12.7388356 12.1814285,12.7158785 12.2462097,12.7132398 C13.0063,12.6830262 13.7554395,12.5785319 14.4874272,12.3667726 C15.9752832,11.9362615 17.2152291,11.138701 18.1391855,9.88173517 C18.6689134,9.16122603 19.0470455,8.36947079 19.2105157,7.48430401 C19.2787272,7.11527561 19.3019482,6.74558753 19.2074811,6.37523976 C19.142568,6.12112868 18.9971732,5.92322286 18.8026977,5.75737778 C18.7763103,5.73494845 18.7282851,5.73046259 18.6902872,5.73033065 C17.6276649,5.72887934 16.5650425,5.72927515 15.5024202,5.72927515 L15.3803783,5.72927515 C15.4396181,5.59997668 15.4927888,5.48400387 15.5459595,5.36803105 C15.723547,4.98132307 15.9002109,4.59408734 16.0791178,4.20790711 C16.5192603,3.25769527 17.4846449,2.67941445 18.5290599,2.73865426 C19.6624006,2.80290769 20.6386041,3.68372054 20.8208094,4.80333976 C20.907888,5.33834518 20.8402042,5.85078933 20.6139318,6.34317902 C18.7802684,10.3326966 16.9470008,14.322478 15.1134693,18.3121275 C15.1005394,18.3403621 15.0864222,18.3682008 15.0658399,18.4109485 C14.3837245,17.8841232 13.6490981,17.4541398 12.8693492,17.100548 C12.0923709,16.7478799 11.2870261,16.4778044 10.4510719,16.2773917 Z M8.49004949,5.72415599 C8.5039029,5.68998425 8.51432594,5.66135387 8.52699191,5.63377899 C9.14010416,4.29712305 9.7475431,2.95769643 10.3688355,1.62473473 C10.7563351,0.793398329 11.4115353,0.290585596 12.3205827,0.147697591 C13.5606606,-0.0471736782 14.7779134,0.777433925 15.0816328,2.00445004 C15.2278193,2.5942094 15.171746,3.16708079 14.9206694,3.71936998 C14.6268452,4.36612622 14.3281394,5.01050758 14.0339194,5.65699994 C14.0096429,5.71017064 13.9825958,5.73009316 13.9230921,5.73009316 C12.1367942,5.72850991 10.3503642,5.72877379 8.56393433,5.72864185 C8.5425605,5.72864185 8.52105474,5.72613505 8.49004949,5.72415599 Z" id="Combined-Shape"></path>
                    </g>
                </g>
            </g>
        </g>
    </g>
</svg>