<?xml version="1.0" encoding="UTF-8"?>
<svg width="63px" height="63px" viewBox="0 0 63 63" version="1.1" xmlns="http://www.w3.org/2000/svg" xmlns:xlink="http://www.w3.org/1999/xlink">
    <!-- Generator: Sketch 51.2 (57519) - http://www.bohemiancoding.com/sketch -->
    <title>ikonka</title>
    <desc>Created with Sketch.</desc>
    <defs>
        <linearGradient x1="0%" y1="0%" x2="101.999998%" y2="100.999999%" id="linearGradient-1">
            <stop stop-color="#3023AE" offset="0%"></stop>
            <stop stop-color="#C86DD7" offset="100%"></stop>
        </linearGradient>
    </defs>
    <g id="Page-1" stroke="none" stroke-width="1" fill="none" fill-rule="evenodd" stroke-linecap="round" stroke-linejoin="round">
        <g id="Blockchain---doplnene-texty-2" transform="translate(-689.000000, -2744.000000)">
            <g id="content-2" transform="translate(0.000000, 2552.000000)">
                <g id="box-2" transform="translate(570.000000, 129.000000)">
                    <g id="ikonka" transform="translate(120.000000, 64.000000)">
                        <path d="M61,54.9753086 C61,58.3024444 58.3024444,61 54.9753086,61 L6.02469136,61 C2.69755556,61 0,58.3024444 0,54.9753086 L0,6.02469136 C0,2.69755556 2.69755556,0 6.02469136,0 L54.9753086,0 C58.3024444,0 61,2.69755556 61,6.02469136 L61,54.9753086 Z" id="Shape" stroke="url(#linearGradient-1)" stroke-width="2"></path>
                        <path d="M1,10 L61,10" id="Shape" stroke="url(#linearGradient-1)" stroke-width="2"></path>
                        <path d="M5,5 L14,5" id="Shape" stroke="url(#linearGradient-1)" stroke-width="2"></path>
                        <circle id="Oval" stroke="url(#linearGradient-1)" cx="40" cy="5" r="2"></circle>
                        <circle id="Oval" stroke="url(#linearGradient-1)" cx="48" cy="5" r="2"></circle>
                        <circle id="Oval" stroke="url(#linearGradient-1)" cx="55" cy="5" r="2"></circle>
                        <polyline id="Shape" stroke="#FFFFFF" stroke-width="2" points="21 41 14 34 21 27"></polyline>
                        <polyline id="Shape" stroke="#FFFFFF" stroke-width="2" points="41 41 48 34 41 27"></polyline>
                        <path d="M33,27 L28,41" id="Shape" stroke="#FFFFFF" stroke-width="2"></path>
                    </g>
                </g>
            </g>
        </g>
    </g>
</svg>