<svg width="156" height="39" viewBox="0 0 156 39" fill="none" xmlns="http://www.w3.org/2000/svg">
  <title>[logo image] Zonky.cz</title>
  <path
    d="M87.9813 6.12613H81.277L74.8465 13.5903V0.503296H69.0733V25.7208H74.8465V20.2354L76.4733 18.4931L82.1314 25.7208H88.6441L80.1924 14.9918L87.9813 6.12613Z"
    fill="black"/>
  <path
    d="M104.611 6.12616L99.807 19.7353L94.4775 6.12616H88.6112L96.9369 26.6553L96.6301 27.5127C96.5222 28.0145 96.2311 28.4576 95.814 28.7549C95.3234 29.0644 94.7495 29.2142 94.1708 29.1836C93.3707 29.2007 92.5728 29.095 91.8045 28.8703V33.8885C92.644 34.0769 93.5024 34.1672 94.3625 34.1579C96.5535 34.1579 98.3172 33.5753 99.5934 32.4485C100.616 31.4365 101.387 30.1977 101.845 28.8318L110.521 6.12616H104.611Z"
    fill="black"/>
  <path
    d="M111.162 19.2296C110.705 19.2296 110.253 19.3198 109.831 19.4952C109.409 19.6706 109.025 19.9277 108.702 20.2518C108.379 20.5759 108.123 20.9607 107.948 21.3841C107.773 21.8076 107.684 22.2614 107.684 22.7198V22.7693C107.683 23.2235 107.771 23.6734 107.944 24.0931C108.117 24.5129 108.371 24.8943 108.691 25.2155C109.011 25.5367 109.391 25.7913 109.81 25.9648C110.228 26.1383 110.676 26.2272 111.129 26.2265C111.601 26.2265 112.067 26.1273 112.498 25.9352C113.242 25.627 113.856 25.0692 114.235 24.357C114.615 23.6449 114.736 22.8227 114.578 22.0309C114.42 21.2391 113.993 20.5268 113.37 20.0159C112.747 19.5049 111.966 19.227 111.162 19.2296Z"
    fill="black"/>
  <path
    d="M57.9104 5.69745C55.6701 5.69745 53.6544 6.55489 52.5644 8.02793C52.3946 6.96162 52.0879 6.0712 51.562 5.66997C51.2239 5.37299 50.795 5.20046 50.346 5.18079C49.2232 5.18079 47.5635 6.31305 43.5048 9.83625C41.7246 11.3862 40.0704 12.1722 38.5751 12.1722C37.9321 12.1715 37.2997 12.0085 36.7359 11.6983C36.1722 11.388 35.6952 10.9405 35.3489 10.3969C35.1243 9.99015 34.1055 7.89601 35.935 6.51092C36.2246 6.26735 36.5871 6.12804 36.9647 6.11517C39.0516 6.11517 40.5032 10.919 40.5196 10.9685C40.5219 10.9799 40.5272 10.9905 40.5349 10.9992C40.5426 11.0078 40.5524 11.0143 40.5634 11.018C40.5729 11.0251 40.5844 11.029 40.5963 11.029C40.6081 11.029 40.6197 11.0251 40.6291 11.018L42.475 9.91869C42.489 9.91068 42.4998 9.89818 42.5058 9.88321C42.5117 9.86825 42.5125 9.8517 42.5079 9.83625C42.1421 8.65363 41.6766 7.5044 41.1166 6.40099C40.2512 4.43877 38.9804 3.42743 37.4029 3.42743C36.0695 3.51554 34.8067 4.06082 33.8262 4.97192C32.6997 6.26269 32.0736 7.91712 32.0625 9.63288C32.0911 10.3004 32.2589 10.9545 32.5552 11.5528C32.8515 12.1512 33.2695 12.6805 33.7824 13.1066C34.9156 14.096 36.378 14.6218 37.8795 14.5796C40.4603 14.4919 42.9338 13.5223 44.8906 11.8314C45.7669 11.04 46.5064 10.3584 47.0815 9.80327C47.682 9.21214 48.3206 8.6613 48.9931 8.15434C49.4313 7.90151 49.7764 7.89601 50.0229 8.15434C50.3734 8.51711 50.5323 9.36356 50.4939 10.6772C50.3994 14.4696 49.9036 18.2411 49.015 21.9284C48.7357 22.9287 48.4673 23.0276 48.3413 23.0276C48.3179 23.0335 48.2935 23.0335 48.2701 23.0276C48.2422 23.02 48.2164 23.0062 48.1946 22.9872C48.1728 22.9681 48.1555 22.9444 48.1441 22.9177C48.0899 22.543 48.1471 22.1606 48.3085 21.8184C50.0065 16.3605 49.6504 15.6734 49.6066 15.613C49.6075 15.595 49.6039 15.5771 49.5963 15.5608C49.5887 15.5445 49.5772 15.5303 49.5628 15.5195C49.5388 15.5248 49.5175 15.5385 49.5025 15.558L49.4642 15.613C47.8418 17.9679 46.5996 20.5648 45.7834 23.308C45.4438 24.4072 45.2356 25.9517 45.7834 26.8531C45.8782 27.0293 46.0085 27.1838 46.1659 27.3068C46.3234 27.4298 46.5046 27.5186 46.6981 27.5677C46.8859 27.6172 47.0791 27.643 47.2732 27.6446C51.0307 27.6446 52.4439 17.6302 52.7506 14.0135C52.9916 11.782 54.3939 11.1224 54.7389 10.996L55.0347 10.919L55.4017 10.8476H55.451H55.4784C55.6872 10.8196 55.8976 10.805 56.1083 10.8036C58.3924 10.8036 59.6741 12.2052 59.6741 14.4972V25.6989H65.4473V13.8266C65.387 8.73147 62.6757 5.69745 57.9104 5.69745Z"
    fill="black"/>
  <path
    d="M22.6085 20.7026C21.1977 19.7174 19.5123 19.2056 17.7938 19.2406C16.9915 19.2524 16.1913 19.3259 15.4002 19.4604L15.0661 19.5099C14.2554 19.6198 12.3548 20.12 10.5144 20.6092C8.904 21.0159 7.38675 21.4062 6.83901 21.4831C6.58143 21.5218 6.32163 21.5439 6.06122 21.5491C5.96099 21.5592 5.85979 21.546 5.76544 21.5106C5.76736 21.5015 5.76736 21.4922 5.76544 21.4831C5.76276 21.4686 5.76276 21.4537 5.76544 21.4391C5.78437 21.3006 5.8434 21.1706 5.93524 21.0654C6.53775 19.8122 12.782 14.4092 14.4252 13.0296C15.077 12.48 19.1139 9.18214 19.1577 9.12167C21.1734 7.47275 20.9214 5.82383 20.9105 5.78535C20.8064 4.77951 19.3165 4.68607 19.2673 4.68607C17.8815 4.58164 16.5285 4.52667 15.2742 4.52667C3.85383 4.52667 1.17538 8.9238 1.15347 8.95678C1.03363 9.11075 0.946529 9.28773 0.89754 9.47681C0.848551 9.66588 0.838714 9.86303 0.868638 10.0561C0.930182 10.3161 1.08401 10.5447 1.30135 10.6991C1.50331 10.8046 1.72574 10.8646 1.95317 10.875C2.20582 10.8555 2.44391 10.7487 2.62689 10.5727C3.03221 10.2155 3.45398 9.86919 3.45945 9.86369C6.65826 7.13747 12.2616 6.72524 15.318 6.72524C16.0082 6.72524 16.6764 6.72524 17.3063 6.7857C17.6021 6.77165 17.8974 6.82228 18.1718 6.9341C18.1694 6.94496 18.1694 6.95622 18.1718 6.96708C18.106 7.08251 17.6788 7.59917 14.8853 9.64933C11.1169 12.4525 4.5385 19.0207 4.19342 19.4275C3.77166 19.9166 2.48995 21.626 3.4978 23.0771C3.82096 23.5388 4.55493 23.7751 5.68876 23.7751C7.02744 23.7385 8.35773 23.5504 9.6544 23.2145C9.7037 23.2145 14.365 21.7909 16.775 21.6315H17.0051C17.7829 21.6315 20.4504 21.7744 21.9347 23.6102C22.9152 24.8304 23.1726 26.5618 22.6961 28.7549C21.1241 35.9772 14.5731 36.1805 13.8337 36.186H13.7241C13.3845 36.186 10.3884 36.1256 9.78586 34.0699C9.145 31.8713 10.3336 28.9417 11.4729 26.8476C12.2426 25.4225 13.1177 24.0574 14.0911 22.7638C14.1009 22.7512 14.1062 22.7357 14.1062 22.7198C14.1062 22.7039 14.1009 22.6884 14.0911 22.6758C14.0816 22.662 14.0681 22.6515 14.0524 22.6456C14.0368 22.6397 14.0197 22.6387 14.0035 22.6429L10.843 23.5498C10.8266 23.5557 10.813 23.5674 10.8047 23.5827C9.17712 25.9856 7.96943 28.6492 7.23339 31.4591C7.23339 31.4921 6.45012 34.5756 8.055 36.7247C9.0245 38.0218 10.6458 38.7144 12.8751 38.7803H13.2531C19.9738 38.7803 23.6601 33.4158 24.6406 30.5797C25.1859 28.9041 25.3433 27.1258 25.1007 25.3801C24.9145 23.896 24.29 21.8843 22.6085 20.7026Z"
    fill="black"/>
  <path
    d="M26.7384 6.12068C19.1467 11.1719 14.0528 18.9823 14.0035 19.0592C13.9937 19.0718 13.9884 19.0873 13.9884 19.1032C13.9884 19.1191 13.9937 19.1346 14.0035 19.1472C14.0103 19.157 14.0192 19.1651 14.0297 19.1708C14.0402 19.1765 14.0518 19.1797 14.0637 19.1802C14.9932 18.9268 15.9455 18.7666 16.9065 18.702C16.928 18.6978 16.9474 18.6861 16.9613 18.669C19.6076 15.4055 22.4794 12.3327 25.5553 9.4735C25.5603 9.45927 25.5603 9.44375 25.5553 9.42952C25.911 8.33014 26.3354 7.25437 26.8261 6.20862C26.8363 6.19521 26.8418 6.17879 26.8418 6.16191C26.8418 6.14502 26.8363 6.1286 26.8261 6.11519C26.8124 6.10769 26.797 6.10423 26.7815 6.1052C26.7659 6.10618 26.751 6.11154 26.7384 6.12068Z"
    fill="black"/>
  <path
    d="M43.3733 13.7277C43.3617 13.7209 43.3484 13.7173 43.335 13.7173C43.3215 13.7173 43.3083 13.7209 43.2966 13.7277C42.6665 14.1794 41.9723 14.5333 41.2371 14.7775C41.2212 14.7831 41.2075 14.7935 41.1977 14.8073C41.1879 14.821 41.1825 14.8375 41.1824 14.8544C41.4069 18.3501 40.7442 20.9499 39.2105 22.5934C38.5883 23.2294 37.8363 23.7227 37.0062 24.0396C36.1761 24.3565 35.2875 24.4894 34.4013 24.4292C30.0194 24.3522 27.4122 21.5381 27.1985 16.7012C26.9794 11.716 30.485 4.98836 30.485 4.9224C30.7205 4.47719 30.8574 4.41124 30.9232 4.41124C30.9393 4.4065 30.9564 4.4065 30.9725 4.41124C31.013 4.43447 31.0481 4.46609 31.0755 4.50399C31.1029 4.5419 31.1219 4.58523 31.1313 4.63109C31.1455 4.79434 31.1029 4.95749 31.0108 5.09279C30.8958 5.30165 30.1563 6.80218 30.1289 6.86813C30.1212 6.88046 30.117 6.89476 30.117 6.90936C30.117 6.92395 30.1212 6.93825 30.1289 6.95058C30.1417 6.95689 30.1558 6.96016 30.17 6.96016C30.1843 6.96016 30.1983 6.95689 30.2111 6.95058C31.3833 6.66477 32.4459 5.88977 32.7362 5.11478C32.8595 4.81594 32.9202 4.49484 32.9145 4.17146C32.9089 3.84808 32.837 3.52932 32.7033 3.235C32.5842 3.02138 32.4192 2.83704 32.2202 2.69539C32.0213 2.55373 31.7934 2.45831 31.5531 2.41604C31.3737 2.37323 31.1897 2.35292 31.0053 2.35558C29.521 2.35558 28.7322 3.88358 28.7267 3.89457C22.8659 13.5573 24.5694 19.5978 25.5717 21.7469L25.621 21.8514C26.5741 23.9015 28.1735 27.3478 34.3466 27.4522H34.5437C35.6162 27.4924 36.6848 27.3018 37.6777 26.8932C38.6707 26.4845 39.5649 25.8674 40.3005 25.0832C42.1738 23.0551 42.9077 20.087 43.1926 17.9379C43.3808 16.5522 43.4395 15.1518 43.3678 13.7551C43.3716 13.7465 43.3735 13.7371 43.3733 13.7277Z"
    fill="black"/>
  <path
    d="M131.236 12.6449L134.797 9.11068C133.804 8.03016 132.609 7.15669 131.28 6.54028C129.95 5.92386 128.513 5.57661 127.05 5.51841C125.586 5.46021 124.126 5.6922 122.752 6.20109C121.379 6.70998 120.118 7.48579 119.044 8.48409C118.058 9.44559 117.274 10.5957 116.739 11.8665C116.204 13.1372 115.928 14.5027 115.928 15.8823C115.928 17.2618 116.204 18.6273 116.739 19.8981C117.274 21.1688 118.058 22.3189 119.044 23.2804C121.111 25.2422 123.867 26.305 126.712 26.2375C128.236 26.2558 129.746 25.9464 131.14 25.3302C132.535 24.7139 133.781 23.8051 134.797 22.6648L131.236 19.1252C130.663 19.7581 129.963 20.2636 129.183 20.6091C128.403 20.9546 127.559 21.1325 126.707 21.1313C126.025 21.1413 125.349 21.0127 124.719 20.7534C124.089 20.4941 123.518 20.1094 123.04 19.6225C122.562 19.1356 122.187 18.5566 121.938 17.9204C121.689 17.2842 121.571 16.604 121.591 15.9207C121.571 15.2277 121.69 14.5376 121.941 13.8917C122.192 13.2459 122.57 12.6573 123.053 12.1612C123.527 11.674 124.096 11.2902 124.725 11.0339C125.354 10.7776 126.028 10.6543 126.707 10.6717C127.557 10.666 128.399 10.8386 129.179 11.1784C129.959 11.5181 130.66 12.0176 131.236 12.6449Z"
    fill="black"/>
  <path
    d="M145.001 20.6202L154.975 10.1385V6.13715H137.481V11.1114H147.154L136.429 22.1537V25.7264H155.37V20.7521H144.875L145.001 20.6202Z"
    fill="black"/>
</svg>
