<svg width="152" height="142" viewBox="0 0 152 142" fill="none" xmlns="http://www.w3.org/2000/svg">
<path fill-rule="evenodd" clip-rule="evenodd" d="M125.291 32.8491L121.083 36.8179C120.501 37.3715 120.492 38.2759 121.066 38.8353C121.354 39.1202 121.736 39.2626 122.123 39.2626C122.497 39.2626 122.875 39.1297 123.166 38.8572L127.374 34.8894C127.957 34.3349 127.966 33.4304 127.392 32.8711C127.104 32.5861 126.72 32.4446 126.334 32.4446C125.958 32.4446 125.581 32.5795 125.291 32.8491Z" fill="#FE664B"/>
<path fill-rule="evenodd" clip-rule="evenodd" d="M122.972 18.5189L110.075 30.9273C109.496 31.4837 109.496 32.3882 110.075 32.9447C110.367 33.2219 110.747 33.3606 111.127 33.3606C111.508 33.3606 111.888 33.2219 112.176 32.9447L125.074 20.5373C125.652 19.9808 125.652 19.0763 125.074 18.5189C124.783 18.2417 124.403 18.103 124.022 18.103C123.642 18.103 123.262 18.2417 122.972 18.5189Z" fill="#FE664B"/>
<path fill-rule="evenodd" clip-rule="evenodd" d="M63.5062 1.68351C63.5062 1.24699 63.86 0.893127 64.2965 0.893127C64.733 0.893127 65.0869 1.24699 65.0869 1.68351V4.29558L66.8623 2.27257C67.1451 1.95036 67.6454 1.90663 67.9798 2.1749C68.3142 2.44317 68.3561 2.92185 68.0733 3.24406L66.2978 5.26714L69.0562 4.8021C69.4684 4.73262 69.8639 5.00949 69.9397 5.4205C70.0155 5.83152 69.7429 6.22103 69.3307 6.29051L66.5724 6.75554L68.985 8.08732C69.3546 8.29136 69.4773 8.74978 69.2591 9.11122C69.0408 9.47266 68.5642 9.60025 68.1946 9.3962L65.782 8.06441L66.7193 10.5268C66.8739 10.9327 66.6666 11.3774 66.2564 11.5202C65.8462 11.6629 65.3884 11.4496 65.2339 11.0437L64.2965 8.58131L63.3592 11.0437C63.2046 11.4496 62.7469 11.6629 62.3367 11.5202C61.9265 11.3774 61.7192 10.9327 61.8737 10.5268L62.8111 8.06435L60.3985 9.39616C60.0288 9.60021 59.5522 9.47262 59.334 9.11118C59.1157 8.74974 59.2384 8.29133 59.6081 8.08728L62.0207 6.75549L59.2623 6.29046C58.8502 6.22098 58.5775 5.83147 58.6533 5.42045C58.7291 5.00944 59.1247 4.73257 59.5368 4.80205L62.2952 5.26708L60.5197 3.24408C60.237 2.92187 60.2788 2.44319 60.6132 2.17492C60.9476 1.90665 61.4479 1.95038 61.7307 2.27259L63.5062 4.29565V1.68351ZM63.8985 5.31983C63.8534 5.44382 63.774 5.55795 63.6615 5.64825C63.5512 5.73673 63.4229 5.79127 63.2902 5.81308C63.3352 5.93474 63.349 6.07006 63.3236 6.2078C63.2983 6.34459 63.2377 6.46653 63.1528 6.56578C63.2683 6.63063 63.3687 6.72459 63.4409 6.84413C63.5144 6.96581 63.5492 7.09849 63.549 7.22876C63.6823 7.20404 63.8231 7.21233 63.9586 7.2595C64.096 7.30732 64.2107 7.38902 64.2965 7.4918C64.3824 7.38902 64.4971 7.30732 64.6345 7.25951C64.77 7.21234 64.9108 7.20405 65.0441 7.22876C65.0439 7.09851 65.0787 6.96584 65.1522 6.84416C65.2243 6.72463 65.3248 6.63067 65.4403 6.56583C65.3554 6.46658 65.2947 6.34464 65.2695 6.20784C65.2441 6.07009 65.2578 5.93475 65.3028 5.81306C65.1702 5.79126 65.0419 5.73672 64.9316 5.64823C64.819 5.55794 64.7396 5.44382 64.6946 5.31985C64.5777 5.38812 64.4417 5.42724 64.2965 5.42724C64.1514 5.42724 64.0154 5.38811 63.8985 5.31983Z" fill="#FE664B"/>
<path fill-rule="evenodd" clip-rule="evenodd" d="M34.8657 95.382C34.8657 94.9455 35.2196 94.5916 35.6561 94.5916C36.0926 94.5916 36.4465 94.9455 36.4465 95.382V97.9932L38.2212 95.971C38.504 95.6488 39.0043 95.6051 39.3387 95.8734C39.673 96.1416 39.7149 96.6203 39.4321 96.9425L37.6566 98.9656L40.4151 98.5006C40.8272 98.4311 41.2227 98.708 41.2985 99.119C41.3743 99.53 41.1017 99.9195 40.6896 99.989L37.9312 100.454L40.3438 101.786C40.7134 101.99 40.8362 102.448 40.6179 102.81C40.3997 103.171 39.9231 103.299 39.5534 103.095L37.1408 101.763L38.0782 104.225C38.2327 104.631 38.0254 105.076 37.6152 105.219C37.205 105.361 36.7473 105.148 36.5927 104.742L35.6554 102.28L34.718 104.742C34.5635 105.148 34.1057 105.361 33.6955 105.219C33.2853 105.076 33.078 104.631 33.2326 104.225L34.17 101.763L31.7573 103.095C31.3876 103.299 30.9111 103.171 30.6928 102.81C30.4745 102.448 30.5973 101.99 30.9669 101.786L33.3795 100.454L30.6211 99.9889C30.209 99.9195 29.9364 99.5299 30.0122 99.1189C30.088 98.7079 30.4835 98.431 30.8956 98.5005L33.654 98.9656L31.8786 96.9426C31.5958 96.6203 31.6376 96.1417 31.972 95.8734C32.3064 95.6051 32.8067 95.6489 33.0895 95.9711L34.8657 97.995V95.382ZM35.2574 99.0179C35.2124 99.1421 35.133 99.2563 35.0203 99.3467C34.91 99.4352 34.7817 99.4897 34.6491 99.5115C34.6941 99.6332 34.7078 99.7685 34.6824 99.9063C34.6572 100.043 34.5965 100.165 34.5116 100.264C34.6271 100.329 34.7275 100.423 34.7997 100.543C34.8732 100.664 34.908 100.797 34.9078 100.927C35.0411 100.903 35.1819 100.911 35.3174 100.958C35.4548 101.006 35.5695 101.087 35.6554 101.19C35.7413 101.087 35.8559 101.006 35.9933 100.958C36.1288 100.911 36.2696 100.903 36.4029 100.927C36.4027 100.797 36.4375 100.664 36.511 100.543C36.5832 100.423 36.6836 100.329 36.7991 100.264C36.7142 100.165 36.6535 100.043 36.6283 99.9063C36.6029 99.7686 36.6167 99.6332 36.6617 99.5115C36.529 99.4897 36.4007 99.4352 36.2904 99.3467C36.178 99.2565 36.0986 99.1425 36.0535 99.0187C35.9368 99.0867 35.801 99.1257 35.6561 99.1257C35.5107 99.1257 35.3745 99.0865 35.2574 99.0179Z" fill="#FE664B"/>
<path fill-rule="evenodd" clip-rule="evenodd" d="M19.1409 58.2595C21.0739 58.2595 22.6409 59.7577 22.6409 61.6059C22.6409 63.454 21.0739 64.9523 19.1409 64.9523C17.2079 64.9523 15.6409 63.454 15.6409 61.6059C15.6409 59.7577 17.2079 58.2595 19.1409 58.2595ZM19.1409 59.2156C17.7602 59.2156 16.6409 60.2858 16.6409 61.6059C16.6409 62.926 17.7602 63.9962 19.1409 63.9962C20.5216 63.9962 21.6409 62.926 21.6409 61.6059C21.6409 60.2858 20.5216 59.2156 19.1409 59.2156Z" fill="#FE664B"/>
<path fill-rule="evenodd" clip-rule="evenodd" d="M1.00666 141.597C0.748581 141.597 0.488466 141.502 0.292871 141.311C-0.0982944 140.932 -0.0982944 140.312 0.296911 139.935L2.59353 137.729C2.98673 137.353 3.62589 137.35 4.01909 137.733C4.41025 138.113 4.41026 138.732 4.01505 139.109L1.71843 141.315C1.52082 141.502 1.26475 141.597 1.00666 141.597Z" fill="#FE664B"/>
<path fill-rule="evenodd" clip-rule="evenodd" d="M6.43477 136.587C6.17668 136.587 5.91657 136.492 5.72097 136.301C5.32981 135.921 5.32981 135.304 5.72501 134.925L9.59237 131.206C9.98557 130.831 10.6247 130.827 11.0179 131.21C11.4091 131.59 11.4091 132.207 11.0139 132.587L7.14653 136.305C6.94892 136.492 6.69285 136.587 6.43477 136.587Z" fill="#FE664B"/>
<path fill-rule="evenodd" clip-rule="evenodd" d="M141.287 131.698C141.287 131.27 140.941 130.924 140.513 130.924C140.085 130.924 139.738 131.27 139.738 131.698V133.885H137.381C136.972 133.885 136.641 134.217 136.641 134.626C136.641 135.035 136.972 135.366 137.381 135.366H139.738V137.553C139.738 137.981 140.085 138.328 140.513 138.328C140.941 138.328 141.287 137.981 141.287 137.553V135.366H143.644C144.053 135.366 144.385 135.035 144.385 134.626C144.385 134.217 144.053 133.885 143.644 133.885H141.287V131.698Z" fill="#FE664B"/>
<path fill-rule="evenodd" clip-rule="evenodd" d="M145.016 93.6355C148.537 93.6355 151.391 96.3644 151.391 99.7307C151.391 103.097 148.537 105.826 145.016 105.826C141.495 105.826 138.641 103.097 138.641 99.7307C138.641 96.3644 141.495 93.6355 145.016 93.6355ZM145.016 95.377C142.501 95.377 140.462 97.3262 140.462 99.7307C140.462 102.135 142.501 104.084 145.016 104.084C147.531 104.084 149.569 102.135 149.569 99.7307C149.569 97.3262 147.531 95.377 145.016 95.377Z" fill="#FE664B"/>
<path fill-rule="evenodd" clip-rule="evenodd" d="M62.2909 133.24L58.0829 137.209C57.5009 137.763 57.4919 138.667 58.0659 139.226C58.3539 139.511 58.7359 139.654 59.1229 139.654C59.4969 139.654 59.8749 139.521 60.1659 139.248L64.3739 135.281C64.9569 134.726 64.9659 133.822 64.3919 133.262C64.1039 132.977 63.7199 132.836 63.3339 132.836C62.9579 132.836 62.5809 132.971 62.2909 133.24Z" fill="#FE664B"/>
<path fill-rule="evenodd" clip-rule="evenodd" d="M59.9721 118.91L47.0751 131.319C46.4961 131.875 46.4961 132.779 47.0751 133.336C47.3671 133.613 47.7471 133.752 48.1271 133.752C48.5081 133.752 48.8881 133.613 49.1761 133.336L62.0741 120.929C62.6521 120.372 62.6521 119.468 62.0741 118.91C61.7831 118.633 61.4031 118.494 61.0221 118.494C60.6421 118.494 60.2621 118.633 59.9721 118.91Z" fill="#FE664B"/>
<path d="M126.218 75.1848C121.731 70.8496 115.336 68.4629 108.211 68.4629C104.037 68.4629 100.024 69.4514 96.4281 71.3385V49.9395C96.4281 45.0375 92.2565 41.0496 87.1294 41.0496H45.2987C40.1709 41.0496 36 45.0382 36 49.9395V75.4233C36 80.3253 40.1717 84.3139 45.2987 84.3139H61.8877L75.162 94.28C75.5039 94.5368 75.9169 94.6663 76.3321 94.6663C76.6895 94.6663 77.0484 94.5701 77.3629 94.3748C78.0423 93.9538 78.3665 93.1663 78.1696 92.4148L76.0457 84.3139H84.9329C84.0367 86.7776 83.5838 89.356 83.5838 92.0108V117.821C83.5838 127.822 88.2831 133.792 96.1543 133.792C107.559 133.792 111.344 126.136 113.604 121.563L113.66 121.449C116.194 116.325 119.482 114.129 122.664 112.003C127.822 108.557 132.694 105.301 132.84 92.0285C132.913 85.2641 130.624 79.4394 126.218 75.1848ZM73.6175 80.6911C73.0344 80.6911 72.483 80.948 72.1241 81.3881C71.7652 81.8275 71.6379 82.4013 71.78 82.9426L73.1484 88.1616L63.7127 81.0775C63.3782 80.827 62.9667 80.6911 62.5419 80.6911H45.298C42.2601 80.6911 39.7891 78.3279 39.7891 75.4233V49.9395C39.7891 47.0356 42.2601 44.6724 45.298 44.6724H87.1294C90.1673 44.6724 92.6391 47.0356 92.6391 49.9395V75.4233C92.6391 78.3279 90.1673 80.6911 87.1294 80.6911H73.6175ZM129.051 91.9903C128.926 103.4 125.204 105.886 120.492 109.035C117.243 111.205 113.198 113.906 110.235 119.899L110.179 120.014C108.06 124.299 105.159 130.169 96.1536 130.169C88.5133 130.169 87.3729 122.433 87.3729 117.821V92.0108C87.3729 89.2612 87.9479 86.6092 89.0802 84.115C93.2193 83.2667 96.343 79.7777 96.4237 75.5896C99.9019 73.2949 103.958 72.0857 108.211 72.0857C114.317 72.0857 119.755 74.0909 123.525 77.7335C127.203 81.2855 129.114 86.2158 129.051 91.9903Z" fill="black"/>
<path d="M126.218 75.1848C121.731 70.8496 115.336 68.4629 108.211 68.4629C104.037 68.4629 100.024 69.4514 96.4281 71.3385V49.9395C96.4281 45.0375 92.2565 41.0496 87.1294 41.0496H45.2987C40.1709 41.0496 36 45.0382 36 49.9395V75.4233C36 80.3253 40.1717 84.3139 45.2987 84.3139H61.8877L75.162 94.28C75.5039 94.5368 75.9169 94.6663 76.3321 94.6663C76.6895 94.6663 77.0484 94.5701 77.3629 94.3748C78.0423 93.9538 78.3665 93.1663 78.1696 92.4148L76.0457 84.3139H84.9329C84.0367 86.7776 83.5838 89.356 83.5838 92.0108V117.821C83.5838 127.822 88.2831 133.792 96.1543 133.792C107.559 133.792 111.344 126.136 113.604 121.563L113.66 121.449C116.194 116.325 119.482 114.129 122.664 112.003C127.822 108.557 132.694 105.301 132.84 92.0285C132.913 85.2641 130.624 79.4394 126.218 75.1848ZM73.6175 80.6911C73.0344 80.6911 72.483 80.948 72.1241 81.3881C71.7652 81.8275 71.6379 82.4013 71.78 82.9426L73.1484 88.1616L63.7127 81.0775C63.3782 80.827 62.9667 80.6911 62.5419 80.6911H45.298C42.2601 80.6911 39.7891 78.3279 39.7891 75.4233V49.9395C39.7891 47.0356 42.2601 44.6724 45.298 44.6724H87.1294C90.1673 44.6724 92.6391 47.0356 92.6391 49.9395V75.4233C92.6391 78.3279 90.1673 80.6911 87.1294 80.6911H73.6175ZM129.051 91.9903C128.926 103.4 125.204 105.886 120.492 109.035C117.243 111.205 113.198 113.906 110.235 119.899L110.179 120.014C108.06 124.299 105.159 130.169 96.1536 130.169C88.5133 130.169 87.3729 122.433 87.3729 117.821V92.0108C87.3729 89.2612 87.9479 86.6092 89.0802 84.115C93.2193 83.2667 96.343 79.7777 96.4237 75.5896C99.9019 73.2949 103.958 72.0857 108.211 72.0857C114.317 72.0857 119.755 74.0909 123.525 77.7335C127.203 81.2855 129.114 86.2158 129.051 91.9903Z" fill="url(#paint0_linear)"/>
<path d="M116.675 88.9549C117.148 89.8478 118.286 90.2059 119.22 89.7552C120.155 89.3037 120.529 88.2141 120.057 87.3211C119.411 86.0977 118.575 84.9876 117.575 84.0217C114.79 81.3315 110.825 79.8492 106.406 79.8492C102.389 79.8492 98.4161 81.7412 95.5069 85.0392C92.6836 88.2388 91.3826 92.2996 92.0272 95.9032C92.2677 97.2434 93.6028 97.8271 95.1502 98.5028C96.9426 99.2847 98.9741 100.171 100.018 102.466C101.313 105.316 100.721 107.652 97.6701 111.726C97.061 112.539 97.2571 113.67 98.1075 114.253C98.442 114.482 98.8275 114.592 99.2087 114.592C99.7992 114.592 100.381 114.329 100.751 113.834C103.951 109.562 105.641 105.748 103.492 101.022C101.87 97.4514 98.772 96.1006 96.7236 95.207C96.4268 95.0775 95.9917 94.8879 95.6853 94.7322C95.4514 92.3059 96.4431 89.5967 98.4035 87.3749C100.591 84.8949 103.508 83.4719 106.406 83.4719C109.805 83.4719 112.815 84.5722 114.882 86.5711C115.604 87.2673 116.208 88.0697 116.675 88.9549Z" fill="black"/>
<path d="M116.675 88.9549C117.148 89.8478 118.286 90.2059 119.22 89.7552C120.155 89.3037 120.529 88.2141 120.057 87.3211C119.411 86.0977 118.575 84.9876 117.575 84.0217C114.79 81.3315 110.825 79.8492 106.406 79.8492C102.389 79.8492 98.4161 81.7412 95.5069 85.0392C92.6836 88.2388 91.3826 92.2996 92.0272 95.9032C92.2677 97.2434 93.6028 97.8271 95.1502 98.5028C96.9426 99.2847 98.9741 100.171 100.018 102.466C101.313 105.316 100.721 107.652 97.6701 111.726C97.061 112.539 97.2571 113.67 98.1075 114.253C98.442 114.482 98.8275 114.592 99.2087 114.592C99.7992 114.592 100.381 114.329 100.751 113.834C103.951 109.562 105.641 105.748 103.492 101.022C101.87 97.4514 98.772 96.1006 96.7236 95.207C96.4268 95.0775 95.9917 94.8879 95.6853 94.7322C95.4514 92.3059 96.4431 89.5967 98.4035 87.3749C100.591 84.8949 103.508 83.4719 106.406 83.4719C109.805 83.4719 112.815 84.5722 114.882 86.5711C115.604 87.2673 116.208 88.0697 116.675 88.9549Z" fill="url(#paint1_linear)"/>
<path d="M118.839 92.768C117.792 92.768 116.944 93.5796 116.944 94.5794C116.944 98.5092 116.285 101.567 113.067 103.716C112.209 104.289 112 105.419 112.599 106.239C112.967 106.743 113.555 107.013 114.153 107.013C114.528 107.013 114.907 106.907 115.237 106.686C120.08 103.451 120.733 98.7505 120.733 94.5794C120.733 93.5796 119.885 92.768 118.839 92.768Z" fill="black"/>
<path d="M118.839 92.768C117.792 92.768 116.944 93.5796 116.944 94.5794C116.944 98.5092 116.285 101.567 113.067 103.716C112.209 104.289 112 105.419 112.599 106.239C112.967 106.743 113.555 107.013 114.153 107.013C114.528 107.013 114.907 106.907 115.237 106.686C120.08 103.451 120.733 98.7505 120.733 94.5794C120.733 93.5796 119.885 92.768 118.839 92.768Z" fill="url(#paint2_linear)"/>
<path d="M49.2899 54.8161H84.5001C85.5465 54.8161 86.3946 54.0052 86.3946 53.0047C86.3946 52.0042 85.5465 51.1933 84.5001 51.1933H49.2899C48.2434 51.1933 47.3953 52.0042 47.3953 53.0047C47.3953 54.0052 48.2434 54.8161 49.2899 54.8161Z" fill="black"/>
<path d="M49.2899 54.8161H84.5001C85.5465 54.8161 86.3946 54.0052 86.3946 53.0047C86.3946 52.0042 85.5465 51.1933 84.5001 51.1933H49.2899C48.2434 51.1933 47.3953 52.0042 47.3953 53.0047C47.3953 54.0052 48.2434 54.8161 49.2899 54.8161Z" fill="url(#paint3_linear)"/>
<path d="M84.5009 61.337C84.0006 61.337 83.5136 61.5309 83.1614 61.8677C82.8091 62.2045 82.6063 62.6701 82.6063 63.1484C82.6063 63.6246 82.8091 64.0923 83.1614 64.4291C83.5136 64.7659 84.0006 64.9598 84.5009 64.9598C84.9989 64.9598 85.4881 64.7659 85.8404 64.4291C86.1926 64.0923 86.3954 63.6246 86.3954 63.1484C86.3954 62.6722 86.1926 62.2045 85.8404 61.8677C85.4881 61.5309 84.9989 61.337 84.5009 61.337Z" fill="black"/>
<path d="M84.5009 61.337C84.0006 61.337 83.5136 61.5309 83.1614 61.8677C82.8091 62.2045 82.6063 62.6701 82.6063 63.1484C82.6063 63.6246 82.8091 64.0923 83.1614 64.4291C83.5136 64.7659 84.0006 64.9598 84.5009 64.9598C84.9989 64.9598 85.4881 64.7659 85.8404 64.4291C86.1926 64.0923 86.3954 63.6246 86.3954 63.1484C86.3954 62.6722 86.1926 62.2045 85.8404 61.8677C85.4881 61.5309 84.9989 61.337 84.5009 61.337Z" fill="url(#paint4_linear)"/>
<path d="M49.2899 64.9598H76.9219C77.9684 64.9598 78.8165 64.1489 78.8165 63.1484C78.8165 62.1479 77.9684 61.337 76.9219 61.337H49.2899C48.2434 61.337 47.3953 62.1479 47.3953 63.1484C47.3953 64.1489 48.2434 64.9598 49.2899 64.9598Z" fill="black"/>
<path d="M49.2899 64.9598H76.9219C77.9684 64.9598 78.8165 64.1489 78.8165 63.1484C78.8165 62.1479 77.9684 61.337 76.9219 61.337H49.2899C48.2434 61.337 47.3953 62.1479 47.3953 63.1484C47.3953 64.1489 48.2434 64.9598 49.2899 64.9598Z" fill="url(#paint5_linear)"/>
<path d="M84.5001 71.4808H56.8399C55.7935 71.4808 54.9454 72.2916 54.9454 73.2922C54.9454 74.2927 55.7935 75.1035 56.8399 75.1035H84.5001C85.5466 75.1035 86.3947 74.2927 86.3947 73.2922C86.3947 72.2916 85.5466 71.4808 84.5001 71.4808Z" fill="black"/>
<path d="M84.5001 71.4808H56.8399C55.7935 71.4808 54.9454 72.2916 54.9454 73.2922C54.9454 74.2927 55.7935 75.1035 56.8399 75.1035H84.5001C85.5466 75.1035 86.3947 74.2927 86.3947 73.2922C86.3947 72.2916 85.5466 71.4808 84.5001 71.4808Z" fill="url(#paint6_linear)"/>
<path d="M49.4208 71.4808H49.2617C48.2153 71.4808 47.3672 72.2916 47.3672 73.2922C47.3672 74.2927 48.2153 75.1035 49.2617 75.1035H49.4208C50.4665 75.1035 51.3154 74.2927 51.3154 73.2922C51.3154 72.2916 50.4665 71.4808 49.4208 71.4808Z" fill="black"/>
<path d="M49.4208 71.4808H49.2617C48.2153 71.4808 47.3672 72.2916 47.3672 73.2922C47.3672 74.2927 48.2153 75.1035 49.2617 75.1035H49.4208C50.4665 75.1035 51.3154 74.2927 51.3154 73.2922C51.3154 72.2916 50.4665 71.4808 49.4208 71.4808Z" fill="url(#paint7_linear)"/>
<defs>
<linearGradient id="paint0_linear" x1="30.1895" y1="101.79" x2="143.495" y2="101.79" gradientUnits="userSpaceOnUse">
<stop stop-color="#8363F9"/>
<stop offset="1" stop-color="#485BBD"/>
</linearGradient>
<linearGradient id="paint1_linear" x1="90.1613" y1="102.603" x2="123.385" y2="102.603" gradientUnits="userSpaceOnUse">
<stop stop-color="#8363F9"/>
<stop offset="1" stop-color="#485BBD"/>
</linearGradient>
<linearGradient id="paint2_linear" x1="111.749" y1="102.097" x2="121.665" y2="102.097" gradientUnits="userSpaceOnUse">
<stop stop-color="#8363F9"/>
<stop offset="1" stop-color="#485BBD"/>
</linearGradient>
<linearGradient id="paint3_linear" x1="45.0554" y1="53.566" x2="90.6846" y2="53.566" gradientUnits="userSpaceOnUse">
<stop stop-color="#8363F9"/>
<stop offset="1" stop-color="#485BBD"/>
</linearGradient>
<linearGradient id="paint4_linear" x1="82.379" y1="63.7097" x2="86.8122" y2="63.7097" gradientUnits="userSpaceOnUse">
<stop stop-color="#8363F9"/>
<stop offset="1" stop-color="#485BBD"/>
</linearGradient>
<linearGradient id="paint5_linear" x1="45.5101" y1="63.7097" x2="82.2728" y2="63.7097" gradientUnits="userSpaceOnUse">
<stop stop-color="#8363F9"/>
<stop offset="1" stop-color="#485BBD"/>
</linearGradient>
<linearGradient id="paint6_linear" x1="53.0584" y1="73.8534" x2="89.8541" y2="73.8534" gradientUnits="userSpaceOnUse">
<stop stop-color="#8363F9"/>
<stop offset="1" stop-color="#485BBD"/>
</linearGradient>
<linearGradient id="paint7_linear" x1="47.1303" y1="73.8534" x2="51.7497" y2="73.8534" gradientUnits="userSpaceOnUse">
<stop stop-color="#8363F9"/>
<stop offset="1" stop-color="#485BBD"/>
</linearGradient>
</defs>
</svg>
