<?xml version="1.0" encoding="UTF-8"?>
<svg width="104px" height="27px" viewBox="0 0 104 27" version="1.1" xmlns="http://www.w3.org/2000/svg" xmlns:xlink="http://www.w3.org/1999/xlink">
  <g id="pricefx">
      <path stroke="none" d="M66.363,23.021 C66.69,22.292 66.958,21.467 67.169,20.546 L69.773,9.443 L73.955,9.44 L74.586,7.281 L70.255,7.285 L70.509,6.508 C70.636,5.956 70.788,5.453 70.958,5.002 C71.126,4.55 71.353,4.16 71.636,3.839 C71.917,3.514 72.263,3.27 72.686,3.091 C73.098,2.919 73.61,2.826 74.221,2.826 C74.81,2.826 75.304,2.888 75.703,3.01 C76.099,3.127 76.404,3.245 76.622,3.354 L77.297,1.142 C77.196,1.098 77.06,1.051 76.889,1 L71.833,1 C71.827,1.001 71.822,1.003 71.816,1.005 C71.126,1.261 70.528,1.637 70.02,2.137 C69.517,2.637 69.095,3.247 68.758,3.977 C68.423,4.704 68.145,5.531 67.937,6.452 L64.603,20.492 C64.471,21.042 64.318,21.547 64.148,21.997 C63.98,22.449 63.763,22.84 63.501,23.159 C63.238,23.485 62.91,23.733 62.513,23.906 C62.111,24.081 61.625,24.173 61.052,24.173 C60.555,24.173 60.135,24.13 59.787,24.044 C59.447,23.962 59.191,23.884 59.027,23.812 L58.353,26 L63.444,26 C64.108,25.739 64.678,25.363 65.155,24.863 C65.633,24.365 66.034,23.75 66.363,23.021 Z" id="Shape"></path>
      <path stroke="none" d="M4.989,20.438 L4.989,6.31 L9.462,6.31 C10.808,6.31 11.877,6.672 12.676,7.4 C13.482,8.127 13.884,9.103 13.884,10.33 C13.884,11.148 13.679,11.877 13.266,12.512 C12.854,13.143 12.291,13.603 11.582,13.89 C10.868,14.176 9.843,14.318 8.512,14.318 L7.016,14.318 L7.016,20.439 L4.989,20.439 L4.989,20.438 Z M9.104,8.105 L7.016,8.105 L7.016,12.516 L9.228,12.516 C10.048,12.516 10.683,12.326 11.125,11.936 C11.567,11.551 11.788,10.999 11.788,10.278 C11.788,8.829 10.899,8.105 9.104,8.105 Z M15.699,20.438 L15.699,6.329 L19.233,6.329 C20.656,6.329 21.787,6.683 22.627,7.392 C23.464,8.096 23.886,9.054 23.886,10.258 C23.886,11.079 23.681,11.789 23.271,12.389 C22.862,12.991 22.27,13.435 21.504,13.733 C21.953,14.031 22.396,14.432 22.826,14.945 C23.251,15.457 23.859,16.349 24.641,17.623 C25.133,18.423 25.525,19.026 25.822,19.431 L26.57,20.441 L24.171,20.441 L23.556,19.513 C23.534,19.476 23.493,19.419 23.434,19.339 L23.038,18.782 L22.413,17.752 L21.741,16.649 C21.325,16.072 20.936,15.61 20.593,15.267 C20.25,14.924 19.935,14.674 19.655,14.526 C19.373,14.376 18.903,14.298 18.245,14.298 L17.718,14.298 L17.718,20.44 L15.699,20.44 L15.699,20.438 Z M18.325,8.047 L17.716,8.047 L17.716,12.5 L18.486,12.5 C19.509,12.5 20.211,12.413 20.588,12.239 C20.972,12.064 21.263,11.799 21.48,11.447 C21.69,11.091 21.8,10.689 21.8,10.239 C21.8,9.796 21.681,9.391 21.445,9.031 C21.212,8.672 20.877,8.418 20.45,8.268 C20.021,8.12 19.312,8.047 18.325,8.047 Z M28.144,20.438 L30.167,20.438 L30.167,6.329 L28.144,6.329 L28.144,20.438 Z M45.447,17.165 C43.823,18.218 42.153,18.743 40.443,18.743 C38.807,18.743 37.462,18.243 36.415,17.249 C35.365,16.251 34.84,14.978 34.84,13.428 C34.84,11.893 35.371,10.615 36.44,9.597 C37.505,8.576 38.847,8.067 40.461,8.067 C42.033,8.067 43.65,8.538 45.302,9.481 L45.302,7.31 C43.489,6.533 41.843,6.149 40.363,6.149 C38.217,6.149 36.413,6.848 34.945,8.247 C33.48,9.651 32.753,11.374 32.753,13.428 C32.753,14.724 33.071,15.923 33.71,17.034 C34.351,18.146 35.217,19.016 36.314,19.649 C37.414,20.282 38.748,20.598 40.325,20.598 C42.264,20.598 43.972,20.196 45.45,19.388 L45.45,17.165 L45.447,17.165 Z M47.932,20.417 L56.117,20.417 L56.117,18.62 L49.953,18.62 L49.953,14.239 L55.725,14.239 L55.725,12.429 L49.953,12.429 L49.953,8.126 L55.93,8.126 L55.93,6.329 L47.933,6.329 L47.933,20.417 L47.932,20.417 Z" id="Shape"></path>
      <path stroke="none" d="M91.102,20.193 C90.906,19.799 90.661,19.358 90.374,18.875 C90.086,18.392 89.77,17.892 89.431,17.384 C89.091,16.87 88.744,16.364 88.38,15.864 C88.025,15.36 87.677,14.885 87.336,14.435 C86.994,14.885 86.643,15.364 86.287,15.875 C85.927,16.386 85.583,16.896 85.253,17.408 C84.919,17.918 84.609,18.416 84.323,18.899 C84.039,19.386 83.791,19.816 83.599,20.192 L81.018,20.192 C81.644,18.972 82.392,17.731 83.261,16.466 C84.127,15.204 84.996,13.996 85.858,12.848 L81.229,6.202 L84.052,6.202 L87.386,11.097 L90.754,6.202 L93.416,6.202 L88.893,12.687 C89.755,13.852 90.639,15.084 91.544,16.385 C92.447,17.684 93.215,18.952 93.842,20.192 L91.102,20.192 L91.102,20.193 Z M77.131,13.498 C77.131,11.896 77.363,10.412 77.826,9.043 C78.289,7.681 78.972,6.412 79.874,5.247 L78.637,4.402 C77.655,5.593 76.869,6.964 76.273,8.509 C75.68,10.058 75.382,11.721 75.382,13.498 C75.382,15.278 75.68,16.941 76.273,18.487 C76.87,20.038 77.655,21.406 78.637,22.598 L79.874,21.748 C78.973,20.586 78.289,19.319 77.826,17.955 C77.363,16.589 77.131,15.104 77.131,13.498 Z M97.359,13.501 C97.359,15.105 97.124,16.589 96.661,17.956 C96.199,19.317 95.515,20.585 94.612,21.748 L95.853,22.596 C96.83,21.407 97.616,20.038 98.212,18.488 C98.806,16.944 99.103,15.279 99.103,13.502 C99.103,11.722 98.806,10.059 98.212,8.51 C97.615,6.962 96.829,5.594 95.853,4.403 L94.612,5.248 C95.514,6.413 96.199,7.678 96.661,9.046 C97.124,10.408 97.359,11.898 97.359,13.501 Z" id="Shape"></path>
    <rect id="Rectangle-2" stroke-width="1" stroke="currentColor" x="0.5" y="0.5" width="103" height="26" rx="4" fill="none"></rect>
  </g>
</svg>
