<?xml version="1.0" encoding="utf-8"?>
<svg version="1.1" xmlns="http://www.w3.org/2000/svg" x="0px" y="0px"
	 viewBox="0 0 1661.6 394.7" width="100%" height="100%" xml:space="preserve">
  <title>[image logo] Go Real Europe</title>
<g>
	<g>
		<path d="M0,346.1c0,0,148.2-217.8,380.2-65.8C380.2,280.3,194,163,0,346.1"/>
		<path d="M115.8,394.7c0,0,276.1-249.5,564-3.9C679.8,390.8,438.5,198.4,115.8,394.7"/>
		<path d="M434.4,176.9h-28.6v-30.2l0-14.7c0.1-9.5,6.4-17.1,14.3-17.1c7.9,0,14.2,7.7,14.3,17.1l0,4V176.9z
			 M405.4,44.5c0.1-9.5,6.4-17.1,14.3-17.1c7.9,0,14.2,7.7,14.3,17.1l0,6.1v21.2h-28.6V42L405.4,44.5z M248.5,151.2h-28.6v-44.8h0
			c0-9.5,6.4-17.1,14.3-17.1c7.9,0,14.2,7.7,14.3,17.1h0V151.2z M465.5,50.7V14.6v-5V0h-13v9.6h-13V0h-13v9.6h-13V0h-13v9.6h-13V0
			h-13v9.6v5v36.1h11v63.9h-12.5v9.6h-13v-9.6h-13v9.6h-13v-9.6h-0.4h-12.6h-0.4v9.6h-13v-9.6h-13v9.6h-13v-9.6h-12.9v-24h11V54.5
			v-5v-9.6h-13v9.6h-13v-9.6h-13v9.6h-13v-9.6h-13v9.6h-13v-9.6h-13v9.6v5v36.1h11v122.3c21.3-1.3,44.5,0.4,69.1,6.1v-13.2h0.2
			c2.1-21,27.4-37.5,58.3-37.5s56.2,16.6,58.3,37.5h0.2v65.1c10.3-0.6,35.4-1.3,69.1,2.4V50.7H465.5z"/>
	</g>
	<g>
		<path d="M696.2,145.9v37.3c-10.2,7.2-26.4,12.4-39.8,12.4c-29.1,0-51.1-21-51.1-48.9c0-27.7,22.5-48.6,52.7-48.6
			c14.2,0,29.2,5.5,39.1,14.2l-13.7,16.5c-7-6.4-16.7-10.4-25.6-10.4c-15.7,0-27.7,12.3-27.7,28.3c0,16.3,12.2,28.6,28,28.6
			c4.9,0,11.2-1.8,16.9-4.6v-24.7H696.2z"/>
		<path d="M787.4,157.6c0,22.7-16.1,37.7-40.2,37.7c-24.2,0-40.3-15-40.3-37.7c0-22.7,16.1-37.6,40.3-37.6
			C771.3,120.1,787.4,134.9,787.4,157.6z M730.7,157.9c0,11.5,6.7,19.1,16.5,19.1c9.7,0,16.4-7.7,16.4-19.1
			c0-11.3-6.7-19.1-16.4-19.1C737.4,138.8,730.7,146.6,730.7,157.9z"/>
		<path d="M875.4,167.6h-0.7h-18.4v26.9h-24.3V98.9h42.8c25.3,0,39.8,12,39.8,33.3c0,14.6-6.1,25.1-17.4,30.7
			l20.1,31.6h-27.6L875.4,167.6z M874.7,148.5c10.5,0,16.7-5.3,16.7-15.4c0-10-6.1-15-16.7-15h-18.4v30.5H874.7z"/>
		<path d="M1000.1,164.1h-51.8c2.3,8.7,8.6,13.7,17.4,13.7c6.4,0,12.7-2.6,17.6-7.5l12.4,12.2
			c-7.5,8.2-18.6,13-32.1,13c-24,0-39.1-15-39.1-37.4c0-22.8,15.6-37.9,38.4-37.9C988.9,120.1,1001.7,137.1,1000.1,164.1z
			 M977.4,151.3c0-9-5.7-14.9-14.2-14.9c-8.2,0-13.8,6-15.3,14.9H977.4z"/>
		<path d="M1078.1,146.4v48.1H1055V186c-4.8,6.3-12.6,9.6-22.5,9.6c-15.7,0-25.3-9.6-25.3-23.1
			c0-13.9,10-22.1,28.3-22.3h19.4v-1.1c0-7.2-4.8-11.6-14.3-11.6c-6.1,0-14.2,2.2-22,6.1l-6.7-15.6c11.5-5.3,21.9-8.3,34.2-8.3
			C1066.2,119.8,1078,129.8,1078.1,146.4z M1054.9,169.5V163H1040c-7.1,0-10.7,2.5-10.7,7.9c0,5.3,3.8,8.7,10.4,8.7
			C1047.1,179.6,1053.4,175.5,1054.9,169.5z"/>
		<path d="M1095.6,194.5V93.1h23.6v101.4H1095.6z"/>
		<path d="M1194.9,118v19h45.6v19.1h-45.6v19.3h52.1v19.1h-76.4V98.9h74.9V118H1194.9z"/>
		<path d="M1334.3,194.5h-23.6v-12.2c-5.1,8.7-13.3,13.1-23.9,13.1c-16,0-26.4-10.9-26.4-28.1v-46.5h23.6v39.8
			c0,8.7,4.8,14.1,12.3,14.1c9-0.1,14.3-7.5,14.3-17.5v-36.3h23.6V194.5z"/>
		<path d="M1376.7,133.3c5.1-8.6,13.4-13.4,23.9-13.5v21.3c-13.7-1.2-22.7,5.2-23.9,15.6v37.8h-23.6v-73.6h23.6
			V133.3z"/>
		<path d="M1485.8,157.6c0,22.7-16.1,37.7-40.2,37.7c-24.2,0-40.3-15-40.3-37.7c0-22.7,16.1-37.6,40.3-37.6
			C1469.6,120.1,1485.8,134.9,1485.8,157.6z M1429.1,157.9c0,11.5,6.7,19.1,16.5,19.1c9.7,0,16.4-7.7,16.4-19.1
			c0-11.3-6.7-19.1-16.4-19.1C1435.8,138.8,1429.1,146.6,1429.1,157.9z"/>
		<path d="M1579.4,158c0,22.4-13.4,37.3-34,37.3c-9.6,0-17.4-3.8-22.5-10.7V221h-23.6V120.9h23.6v9.7
			c5.2-6.7,12.7-10.5,22-10.5C1565.6,120.1,1579.4,135.2,1579.4,158z M1555.6,157.4c0-11.2-6.7-19.1-16.5-19.1
			c-9.6,0-16.3,7.9-16.3,19.1c0,11.5,6.7,19.3,16.3,19.3C1548.9,176.6,1555.6,168.7,1555.6,157.4z"/>
		<path d="M1661.5,164.1h-51.8c2.3,8.7,8.6,13.7,17.4,13.7c6.4,0,12.7-2.6,17.6-7.5l12.4,12.2
			c-7.5,8.2-18.6,13-32.1,13c-24,0-39.1-15-39.1-37.4c0-22.8,15.6-37.9,38.4-37.9C1650.3,120.1,1663.1,137.1,1661.5,164.1z
			 M1638.8,151.3c0-9-5.7-14.9-14.2-14.9c-8.2,0-13.8,6-15.3,14.9H1638.8z"/>
	</g>
</g>
</svg>
