<svg viewBox="0 0 156 60" fill="none" xmlns="http://www.w3.org/2000/svg">
  <path
    d="M56.527 39.152c0 1.316-.455 2.405-1.36 3.271-.906.867-2.022 1.3-3.348 1.3-1.919 0-3.449-.733-4.592-2.196l1.26-1.426c1.02 1.143 2.099 1.713 3.241 1.713.752 0 1.42-.243 2.005-.733.585-.487.88-1.103.88-1.843 0-.75-.348-1.409-1.043-1.979-.345-.286-1.02-.683-2.029-1.196-1.153-.59-1.995-1.172-2.526-1.752-.725-.78-1.086-1.71-1.086-2.795 0-1.206.408-2.193 1.223-2.959.815-.763 1.828-1.146 3.04-1.15 1.431 0 2.871.7 4.322 2.096l-1.287 1.326c-1.066-1.026-2.109-1.539-3.128-1.539a2.45 2.45 0 00-1.64.61c-.478.406-.716.913-.716 1.519 0 1.02.99 2.042 2.971 3.065 1.217.63 2.102 1.23 2.657 1.8.768.795 1.152 1.752 1.156 2.868zM72.46 43.323H70.44v-7.396c0-1.786-.073-2.975-.214-3.578-.494-2.06-1.798-3.092-3.91-3.092-1.21 0-2.288.396-3.244 1.19a5.541 5.541 0 00-1.888 2.971c-.19.743-.288 2.146-.284 4.218v5.687h-2.018V21.81H60.9v8.772c1.607-2.12 3.552-3.179 5.83-3.179 1.134 0 2.156.29 3.065.863a5.158 5.158 0 012.015 2.376c.434 1.01.648 2.572.648 4.69v7.99zM89.003 35.65c0-1.706-.585-3.181-1.747-4.418-1.166-1.236-2.6-1.855-4.304-1.859-1.704 0-3.138.62-4.304 1.86-1.166 1.239-1.748 2.711-1.748 4.417 0 1.103.26 2.13.785 3.089.542.986 1.28 1.745 2.213 2.275.932.53 1.948.796 3.054.796 2.359 0 4.106-1.01 5.236-3.031a6.265 6.265 0 00.815-3.129zm2.045-.047c0 2.283-.778 4.208-2.332 5.77-1.554 1.567-3.479 2.346-5.764 2.35-2.29 0-4.214-.78-5.774-2.34-1.56-1.558-2.34-3.484-2.34-5.776 0-2.15.716-4.011 2.146-5.59 1.574-1.74 3.562-2.61 5.964-2.61 2.393 0 4.378.867 5.952 2.596 1.433 1.576 2.148 3.445 2.148 5.6zM107.809 35.59c0-1.1-.277-2.142-.828-3.132a5.961 5.961 0 00-2.249-2.298 6.11 6.11 0 00-3.091-.82c-1.771 0-3.238.61-4.404 1.823-1.166 1.216-1.748 2.708-1.748 4.484 0 2.469 1.023 4.271 3.068 5.407.979.55 2.018.826 3.111.826a5.904 5.904 0 003.084-.853c.922-.556 1.661-1.332 2.219-2.318a6.21 6.21 0 00.838-3.119zm2.032-.07c0 2.266-.762 4.191-2.285 5.777-1.544 1.616-3.442 2.426-5.688 2.426-2.47 0-4.544-1.023-6.232-3.069V49h-2.001V27.804h2.001v2.852c1.58-2.169 3.64-3.252 6.175-3.252 2.239 0 4.137.797 5.698 2.383 1.554 1.589 2.332 3.498 2.332 5.733z"
    fill="#A7C721"/>
  <path
    d="M119.368 29.53h-3.178v13.793h-2.032V29.53h-2.733v-1.726h2.733v-5.763h2.032v5.763h3.178v1.726zM134.295 33.981c-.498-1.956-1.561-3.312-3.192-4.068a6.25 6.25 0 00-2.646-.58c-1.527 0-2.84.487-3.936 1.46-.802.71-1.407 1.772-1.815 3.188h11.589zm2.188 1.74h-13.977c.036 1.735.581 3.184 1.63 4.34 1.103 1.216 2.513 1.823 4.231 1.823 1.657 0 3.061-.5 4.213-1.506.525-.453 1.09-1.186 1.701-2.202l1.688.882c-1.05 2.046-2.506 3.425-4.364 4.138-.909.354-1.932.527-3.075.53-2.335 0-4.27-.77-5.801-2.312-1.53-1.54-2.295-3.475-2.295-5.807 0-1.97.605-3.721 1.818-5.264 1.533-1.96 3.588-2.939 6.165-2.939 2.653 0 4.768 1.003 6.352 3.009 1.123 1.426 1.694 3.198 1.714 5.307zM146 29.53h-3.174v13.793h-2.032V29.53h-2.734v-1.726h2.734v-5.763h2.032v5.763H146v1.726z"
    fill="#6C963D"/>
  <path d="M25.537 27.574H9v16.488h16.537V27.575z" fill="#A7C721"/>
  <path d="M43.164 27.574H26.627v16.488h16.537V27.575z" fill="#14B1EF"/>
  <path d="M34.242 10H17.705v16.488h16.537V10z" fill="#F7A12B"/>
</svg>

