<?xml version="1.0" encoding="UTF-8"?>
<svg width="142px" height="59px" viewBox="0 0 142 59" version="1.1" xmlns="http://www.w3.org/2000/svg" xmlns:xlink="http://www.w3.org/1999/xlink">
    <title>[image logo] Česká spořitelna</title>
    <g stroke="none" stroke-width="1">
      <path d="M125.472,0 C126.748,0 127.866,0.476 128.794,1.424 C129.726,2.367 130.199,3.518 130.199,4.82 C130.199,6.152 129.735,7.288 128.805,8.232 C127.874,9.179 126.747,9.653 125.471,9.653 C124.17,9.653 123.048,9.179 122.137,8.232 C121.21,7.289 120.745,6.152 120.745,4.82 C120.745,3.519 121.21,2.379 122.123,1.437 C123.049,0.486 124.171,0 125.472,0 Z M141.164,19.117 L141.164,16.185 C141.164,13.415 138.916,11.161 136.143,11.161 L114.798,11.161 C112.025,11.161 109.777,13.415 109.777,16.185 L109.777,27.225 L133.589,27.225 L133.589,28.9 L109.777,28.9 L109.777,31.829 C109.777,34.601 112.024,36.85 114.798,36.85 L136.143,36.85 C138.916,36.85 141.164,34.601 141.164,31.829 L141.164,20.79 L117.355,20.79 L117.355,19.117 L141.164,19.117 Z"></path>
      <path d="M10.959,10.962 C16.296,10.962 18.062,11.925 18.062,14.132 L18.062,16.58 L10.959,16.58 C7.466,16.58 6.623,18.106 6.623,24.006 C6.623,29.906 7.466,31.432 10.959,31.432 L18.062,31.432 L18.062,33.88 C18.062,36.087 16.296,37.05 10.959,37.05 C3.854,37.05 0,33.156 0,24.006 C0,14.856 3.854,10.962 10.959,10.962 Z M9.995,9.798 C9.513,9.798 9.232,9.676 8.791,9.116 L5.581,4.941 C5.42,4.742 5.42,4.5 5.42,4.34 L7.907,4.34 C8.43,4.34 8.63,4.461 9.193,4.942 L10.838,6.467 L12.484,4.942 C13.045,4.461 13.246,4.34 13.768,4.34 L16.255,4.34 C16.255,4.501 16.255,4.742 16.096,4.942 L12.884,9.117 C12.443,9.678 12.162,9.799 11.68,9.799 L9.995,9.799 L9.995,9.798 Z M20.073,13.45 C20.073,11.925 20.755,11.162 22.28,11.162 L36.328,11.162 L36.328,14.333 C36.328,15.858 35.565,16.579 34.04,16.579 L26.494,16.579 L26.494,21.195 L34.922,21.195 L34.922,26.413 L26.494,26.413 L26.494,31.431 L36.528,31.431 L36.528,34.6 C36.528,36.126 35.765,36.848 34.24,36.848 L22.28,36.848 C20.755,36.848 20.073,36.086 20.073,34.561 L20.073,13.45 Z M47.167,10.962 C52.504,10.962 55.274,11.565 55.274,14.052 L55.274,16.58 L47.971,16.58 C46.003,16.58 45.443,17.102 45.443,18.146 C45.443,21.236 56.599,20.594 56.599,29.263 C56.599,33.397 54.231,37.05 47.007,37.05 C42.272,37.05 38.54,36.286 38.54,33.96 L38.54,31.432 L47.168,31.432 C48.934,31.432 49.777,30.869 49.777,29.625 C49.777,26.253 38.659,26.896 38.659,17.986 C38.658,14.052 41.267,10.962 47.167,10.962 Z M65.833,22.923 L72.256,12.327 C72.858,11.283 73.218,11.162 74.061,11.162 L80.082,11.162 C80.082,11.564 80.002,11.884 79.761,12.285 L72.375,23.563 L80.121,35.725 C80.321,36.045 80.482,36.446 80.482,36.848 L74.663,36.848 C73.459,36.848 73.099,36.768 72.417,35.684 L65.833,25.13 L65.833,36.849 L59.412,36.849 L59.412,13.45 C59.412,11.925 60.094,11.162 61.619,11.162 L65.834,11.162 L65.834,22.923 L65.833,22.923 Z M95.017,11.082 C96.101,11.082 96.622,11.203 96.864,12.126 L102.843,35.846 C102.924,36.208 102.963,36.568 102.963,36.849 L97.706,36.849 C96.622,36.849 96.301,36.769 96.101,35.886 L94.856,30.749 L88.876,30.749 L87.712,35.886 C87.512,36.769 87.191,36.849 86.107,36.849 L80.889,36.849 C80.889,36.568 80.928,36.247 81.009,35.846 L86.988,12.126 C87.229,11.203 87.753,11.082 88.835,11.082 L95.017,11.082 Z M89.838,25.933 L93.812,25.933 L91.887,17.705 L91.726,17.705 L89.838,25.933 Z M93.972,9.197 C93.451,9.758 93.209,9.799 92.688,9.799 L90.2,9.799 C90.2,9.638 90.2,9.397 90.359,9.197 L93.572,5.022 C94.012,4.46 94.293,4.34 94.775,4.34 L97.223,4.34 C97.503,4.34 97.664,4.461 97.664,4.62 C97.664,4.822 97.583,4.941 97.262,5.343 L93.972,9.197 Z M3.577,45.21 C5.345,45.21 6.549,45.25 6.549,46.134 L6.549,46.655 L3.519,46.655 C2.615,46.655 2.033,47.057 2.033,47.699 C2.033,49.787 7.092,49.185 7.092,52.558 C7.092,54.204 6.008,55.448 3.175,55.448 C1.53,55.448 0.004,55.448 0.004,54.586 L0.004,54.023 L3.378,54.023 C4.581,54.023 5.144,53.602 5.144,52.698 C5.144,50.791 0.104,51.172 0.104,47.8 C0.104,46.194 1.409,45.21 3.577,45.21 Z M10.302,58.36 L8.495,58.36 L8.495,45.311 L9.398,45.311 C10.039,45.311 10.302,45.652 10.302,46.154 L10.302,46.475 C10.863,45.812 11.766,45.21 12.911,45.21 C15.281,45.21 16.384,47.157 16.384,50.33 C16.384,53.501 15.28,55.449 12.911,55.449 C11.766,55.449 10.863,54.847 10.302,54.185 L10.302,58.36 Z M12.309,46.655 C11.525,46.655 10.824,47.017 10.302,47.499 L10.302,53.12 C10.823,53.602 11.525,53.964 12.309,53.964 C13.875,53.964 14.516,52.679 14.516,50.33 C14.516,47.981 13.875,46.655 12.309,46.655 Z M17.666,50.33 C17.666,47.519 18.589,45.21 21.741,45.21 C24.914,45.21 25.818,47.519 25.818,50.33 C25.818,53.141 24.915,55.449 21.741,55.449 C18.589,55.448 17.666,53.14 17.666,50.33 Z M23.95,50.33 C23.95,47.86 23.468,46.556 21.741,46.556 C20.035,46.556 19.534,47.86 19.534,50.33 C19.534,52.799 20.035,54.104 21.741,54.104 C23.468,54.104 23.95,52.798 23.95,50.33 Z M29.489,44.447 C29.248,44.447 29.128,44.387 28.887,44.106 L27.28,42.199 C27.2,42.098 27.2,41.978 27.2,41.897 L28.004,41.897 C28.265,41.897 28.386,41.937 28.647,42.199 L29.731,43.202 L30.835,42.199 C31.096,41.937 31.217,41.897 31.478,41.897 L32.282,41.897 C32.282,41.977 32.282,42.098 32.202,42.199 L30.595,44.106 C30.354,44.387 30.234,44.447 29.993,44.447 L29.489,44.447 Z M27.521,55.348 L27.521,45.311 L28.424,45.311 C29.026,45.311 29.289,45.792 29.328,46.556 C30.11,45.512 31.155,45.21 31.917,45.21 C32.258,45.21 32.621,45.29 32.621,45.712 L32.621,46.996 L32.12,46.996 C30.654,46.996 29.911,47.357 29.329,47.84 L29.329,55.348 L27.521,55.348 Z M35.27,44.187 L33.463,44.187 L33.463,43.042 C33.463,42.44 33.684,42.098 34.286,42.098 L35.27,42.098 L35.27,44.187 Z M33.462,45.311 L34.426,45.311 C35.047,45.311 35.269,45.652 35.269,46.254 L35.269,55.348 L33.462,55.348 L33.462,45.311 Z M39.725,45.311 L41.895,45.311 L41.895,46.655 L39.725,46.655 L39.725,52.779 C39.725,53.642 39.827,53.964 40.468,53.964 L41.895,53.964 L41.895,54.426 C41.895,55.209 41.172,55.389 40.168,55.389 C38.12,55.389 37.92,54.264 37.92,52.779 L37.92,46.655 L36.654,46.655 L36.654,45.652 L37.92,45.311 L38.561,43.705 C38.763,43.284 38.902,43.103 39.265,43.103 L39.725,43.103 L39.725,45.311 Z M49.823,54.023 L49.823,54.484 C49.823,55.267 48.759,55.447 46.55,55.447 C43.418,55.447 42.455,53.139 42.455,50.328 C42.455,47.517 43.478,45.208 46.53,45.208 C49,45.208 50.284,46.734 50.284,48.942 C50.284,49.404 50.284,49.826 50.184,50.789 L44.341,50.789 C44.341,53.118 45.125,54.021 46.752,54.021 L49.823,54.021 L49.823,54.023 Z M48.437,49.546 C48.457,49.366 48.457,48.964 48.457,48.723 C48.457,47.76 48.075,46.556 46.55,46.556 C45.164,46.556 44.421,47.439 44.341,49.547 L48.437,49.547 L48.437,49.546 Z M53.735,55.348 L51.928,55.348 L51.928,43.042 C51.928,42.44 52.147,42.098 52.751,42.098 L53.735,42.098 L53.735,55.348 Z M55.942,55.348 L55.942,45.311 L56.845,45.311 C57.486,45.311 57.749,45.652 57.749,46.134 L57.749,46.475 C58.57,45.552 59.615,45.21 60.558,45.21 C62.507,45.21 63.471,46.415 63.471,48.282 L63.471,55.348 L61.684,55.348 L61.684,48.362 C61.684,47.178 61.001,46.676 59.857,46.676 C59.095,46.676 58.311,47.037 57.75,47.519 L57.75,55.348 L55.942,55.348 Z M71.799,55.348 C71.156,55.348 70.915,55.007 70.915,54.505 L70.915,54.184 C70.094,55.107 68.988,55.448 68.106,55.448 C66.298,55.448 65.173,54.344 65.173,52.658 C65.173,50.128 67.823,49.487 70.914,49.345 L70.914,48.401 C70.914,47.036 69.991,46.654 68.768,46.654 L65.877,46.654 L65.877,46.133 C65.877,45.249 66.92,45.209 69.028,45.209 C71.338,45.209 72.702,46.213 72.702,48.32 L72.702,55.347 L71.799,55.347 L71.799,55.348 Z M70.915,50.49 C68.165,50.55 67.061,51.153 67.061,52.437 C67.061,53.541 67.843,53.942 68.869,53.942 C69.631,53.942 70.393,53.601 70.915,53.119 L70.915,50.49 Z"></path>
    </g>
</svg>
