<?xml version="1.0" encoding="UTF-8"?>
<svg viewBox="0 0 373 292" version="1.1" xmlns="http://www.w3.org/2000/svg" xmlns:xlink="http://www.w3.org/1999/xlink">
  <title>[logo image] Adler a.s.</title>
  <path
    d="M27.5091139,233.301209 L52.0523718,233.301209 L39.9151457,214.148204 L27.5091139,233.301209 Z M57.6493258,242.17155 L55.1551288,238.274218 L24.2065013,238.274218 L18.5425957,247.144559 C16.4531062,250.304854 21.2386468,252.388478 23.5999398,252.993048 L23.5999398,254 L0,254 L0,252.993048 C2.56114857,252.388478 6.60722369,250.639509 9.84488322,245.666501 L34.8578016,207.62941 C34.9947026,206.284815 29.4656995,204.942212 29.330797,205.076672 L29.330797,204 L45.984758,204 L73.2920178,246.137607 C76.2588731,250.707237 80.5737539,252.321747 83,252.993048 L83,254 L55.289032,254 L55.289032,252.993048 C57.5144233,252.388478 63.380183,249.967212 60.2124729,245.869684 C59.1992054,244.526085 58.4577414,243.381686 57.6493258,242.17155 Z"></path>
  <path
    d="M106.913155,247.816856 C106.778417,248.759069 107.653715,249.161451 108.461144,249.161451 L121.055645,249.161451 C139.844098,249.161451 147.79064,239.214438 147.79064,228.999502 C147.79064,218.919026 139.844098,208.906277 121.055645,208.906277 L106.913155,208.906277 L106.913155,247.816856 Z M89,254 L89,252.993048 C92.3674496,252.117567 94.2537803,250.639509 94.2537803,246.876636 L94.2537803,211.394275 C94.2537803,207.427223 92.3674496,206.015896 89,205.076672 L89,204 L125.972082,204 C150.079188,204 162,216.501743 162,228.999502 C162,241.501245 150.079188,254 125.972082,254 L89,254 Z"></path>
  <path
    d="M224.971992,254 L173,254 L173,252.993048 C176.16569,252.185295 178.252871,250.706241 178.252871,247.41547 L178.252871,211.394275 C178.252871,207.427223 176.500916,206.083624 173,205.076672 L173,204 L196.294212,204 L196.294212,205.076672 C192.859143,206.015896 190.974495,207.561682 190.974495,211.394275 L190.974495,247.144559 C190.974495,248.759069 191.513251,249.228183 192.455076,249.228183 L216.959494,249.228183 C220.864477,249.228183 224.566927,246.541981 226.922488,242.374734 L228,242.374734 L224.971992,254 Z"></path>
  <path
    d="M255.242266,209.4939 L255.242266,226.721389 L276.300286,226.721389 C278.378556,226.721389 279.31681,224.550364 279.986706,221.498867 L280.994533,221.498867 L279.58616,236.55533 L278.782085,236.55533 C278.378556,234.314952 277.774258,231.671528 276.300286,231.671528 L255.242266,231.671528 L255.242266,248.898011 C255.242266,249.712146 255.577215,250.184545 255.913157,250.184545 L283.073798,250.184545 C287.768046,250.184545 290.78457,246.117893 291.925581,243.269427 L293,243.269427 L289.846316,255 L237,255 L237,253.984845 C240.421046,253.101358 242.29954,251.608778 242.29954,247.811494 L242.29954,212.004651 C242.29954,208.002326 240.421046,206.578093 237,205.629274 L237,204.542756 L288.571127,204.542756 C289.376196,204.611103 290.316437,204.611103 290.919742,204 L291.590632,204 L289.979501,215.734593 L288.974655,215.734593 C288.773885,213.700262 288.103988,209.4939 285.754379,209.4939 L255.242266,209.4939 Z"></path>
  <path
    d="M310.314042,211.394275 C310.314042,207.428219 308.497838,206.016892 305,205.076672 L305,204 L343.606799,204 C359.278787,204 367.014102,210.04968 367.014102,217.709886 C367.014102,224.900978 359.345574,231.420769 344.414222,231.420769 L363.650835,247.482202 C367.550391,250.773969 371.048228,252.321747 373,252.994044 L373,254 L355.309454,254 L324.50376,227.993546 L324.50376,226.648951 L341.926162,226.648951 C349.256769,226.648951 352.754607,222.213781 352.754607,217.709886 C352.754607,213.206988 349.256769,208.906277 341.926162,208.906277 L325.581321,208.906277 C323.967471,208.906277 322.957694,208.973009 322.957694,211.056632 L322.957694,246.876636 C322.957694,250.639509 324.707111,252.118563 328.272733,252.994044 L328.272733,254 L305,254 L305,252.994044 C308.497838,252.118563 310.314042,250.639509 310.314042,246.876636 L310.314042,211.394275 Z"></path>
  <path
    d="M102.16443,290.696608 C97.1580785,290.696608 91.7670887,288.112225 91.7670887,282.438394 C91.7670887,276.866392 97.1580785,274.330886 102.16443,274.330886 C105.066883,274.330886 108.812308,275.292138 110.022757,277.979367 L110.563875,274.252479 L110.55176,274.252479 C110.503302,274.266735 110.453834,274.284045 110.354898,274.342087 L110.255963,274.401147 L110.14895,274.365507 C107.605897,273.484699 104.542927,273 101.519329,273 C91.5439785,273 87,277.91827 87,282.489308 C87,287.069511 91.5439785,292 101.519329,292 C104.969966,292 107.651327,291.171124 110.595171,289.923737 L111,286.610269 C108.754764,290.398253 103.689858,290.696608 102.16443,290.696608"></path>
  <path
    d="M133.409575,289.753594 L120.073427,289.753594 L120.547671,289.330193 L136.739166,274.776896 L136.739166,273.350025 L118.134953,273.350025 C117.800018,273.350025 117.263529,273.350025 116.912786,273 L116.435577,276.839365 C116.931558,275.791274 117.83361,274.766981 118.815691,274.766981 L131.61535,274.766981 L115,289.792266 L115,291 L136.109804,291 L137,287.498761 C136.057439,288.937531 134.767099,289.753594 133.409575,289.753594"
    id="Fill-13"></path>
  <path
    d="M158.745388,289.736331 L148.655179,289.736331 C148.406852,289.736331 148.158524,289.493047 148.158524,289.021558 L148.158524,282.498129 L156.230691,282.498129 C156.807419,282.498129 157.087168,283.116392 157.265558,283.845239 L157.649706,279.810947 C157.401378,280.566937 157.002027,281.18721 156.230691,281.18721 L148.158524,281.18721 L148.158524,274.417481 L159.743766,274.417481 C160.444152,274.417481 160.919522,275.117174 161.129333,276.449204 L161.610785,273 C161.347253,273.131695 161.028988,273.127674 160.766471,273.105557 L142,273.105557 C143.121022,273.467467 143.846746,274.071656 143.846746,275.578609 L143.846746,288.626473 C143.846746,290.125384 143.049057,290.690366 142.09629,291 L161.072572,291 L162,287.610109 C161.393878,288.686791 160.276911,289.736331 158.745388,289.736331"></path>
  <path
    d="M181.16443,290.696608 C176.158078,290.696608 170.767089,288.112225 170.767089,282.438394 C170.767089,276.866392 176.158078,274.330886 181.16443,274.330886 C184.066883,274.330886 187.813318,275.292138 189.022757,277.979367 L189.562865,274.252479 L189.55176,274.252479 C189.503302,274.266735 189.454844,274.284045 189.354898,274.342087 L189.255963,274.401147 L189.14895,274.365507 C186.605897,273.484699 183.542927,273 180.519329,273 C170.543978,273 166,277.91827 166,282.489308 C166,287.069511 170.543978,292 180.519329,292 C183.969966,292 186.651327,291.171124 189.595171,289.923737 L190,286.610269 C187.754764,290.398253 182.689858,290.696608 181.16443,290.696608"></path>
  <path
    d="M216.063505,275.48764 L216.063505,281.204157 L200.940478,281.204157 L200.940478,275.48764 C200.940478,273.90809 201.817709,273.317528 202.760658,273 L195,273 C196.135123,273.386292 196.82715,273.98191 196.82715,275.48764 L196.82715,288.811685 C196.82715,290.164719 195.930004,290.719888 195.099572,291 L202.650133,291 C201.783855,290.715843 200.940478,290.169775 200.940478,288.811685 L200.940478,282.522809 L216.063505,282.522809 L216.063505,288.811685 C216.063505,289.876517 215.482999,290.595506 214.292115,291 L221.889475,291 C221.053068,290.724944 220.152936,290.171798 220.152936,288.811685 L220.152936,275.48764 C220.152936,273.978876 220.851932,273.381236 222,273 L214.193539,273 C215.355547,273.386292 216.063505,273.983933 216.063505,275.48764"></path>
  <path
    d="M241.811447,284.775081 L245.34781,279.13788 L248.827805,284.775081 L241.811447,284.775081 Z M251.337674,288.89215 C251.537435,289.209395 251.579958,289.54901 251.451399,289.869306 C251.239771,290.404149 250.587086,290.787486 249.967036,291 L258,291 C256.7955,290.645133 256.173472,289.646624 255.738349,288.950108 L255.617702,288.759965 L247.547159,276 L242.096254,276 C242.716305,276.205396 243.40459,276.603986 243.680498,277.072736 L243.761589,277.206955 L243.67852,277.33914 L236.364498,288.820973 C235.89773,289.561212 235.225267,290.628864 234,291 L240.515967,291 C239.895917,290.782402 239.274877,290.406182 239.07215,289.879474 C238.955458,289.573414 238.996003,289.256169 239.188842,288.960277 L240.981746,286.049146 L249.613993,286.049146 L251.337674,288.89215 Z"></path>
  <path
    d="M262.948087,289 C262.489965,289 261,289.106195 261,290.453294 C261,291.593904 262.063955,292 262.973776,292 C263.907145,292 265,291.60472 265,290.499508 C265,289.316618 263.709125,289 262.948087,289"></path>
  <path
    d="M277.653777,282.150197 C274.815378,281.608715 272.575436,281.179656 272.575436,279.727454 C272.575436,278.249468 274.457309,277.29543 277.371144,277.29543 C280.127068,277.29543 283.098234,277.622381 284.36958,280.005931 L284.36958,276.837491 L284.243853,276.837491 C283.994412,276.851931 283.76207,276.889061 283.528722,276.927222 C283.390925,276.948882 283.255141,276.968478 283.110304,276.988075 L283.041909,276.995294 L282.980554,276.966415 C281.683058,276.362019 279.612092,276 277.445574,276 C273.015981,276 268.543138,277.32534 268.543138,280.285438 C268.543138,283.166119 272.495977,283.933475 275.984131,284.613163 C279.049844,285.207246 281.943563,285.772449 281.943563,287.739315 C281.943563,289.703088 278.996536,290.728292 276.084712,290.728292 C273.108516,290.728292 269.333706,290.14143 268,287.38761 L268,290.317798 C269.676688,291.142912 272.645843,292 276.133996,292 C281.045373,292 286,290.555018 286,287.332947 C286,283.745762 281.371256,282.860826 277.653777,282.150197"></path>
  <path
    d="M290.948087,289 C290.489965,289 289,289.106195 289,290.453294 C289,291.593904 290.063955,292 290.973776,292 C291.907145,292 293,291.60472 293,290.499508 C293,289.316618 291.709125,289 290.948087,289"></path>
  <path
    d="M89.4925426,1.53949197 C102.205353,0.0857907642 113.19082,5.30507938 125.034464,7.62799366 C137.461549,11.6853239 149.023463,18.9347814 158.272594,30.2475845 C162.890167,33.7264418 168.957349,38.0755148 169.533797,44.1640165 C170.693685,50.2555259 174.739805,54.893334 176.763864,60.4033629 C178.494205,65.6216489 181.097709,72.8741141 187.746334,73.4555946 C193.812518,75.1950233 198.722809,79.8298238 205.372434,80.4143119 C212.596507,77.5099172 220.972476,80.4143119 228.775994,80.9917822 C240.046187,77.221182 250.447215,70.2624647 261.14196,64.173963 C275.87883,57.7937186 289.752528,67.0723425 302.176615,73.1638518 C305.643291,75.7724936 310.555581,78.0903951 311.995201,82.4454834 L311.129031,83.3086812 C319.802715,92.5933204 329.630292,102.163687 334.542582,113.184747 L334.542582,114.632433 C333.381695,114.918161 332.808244,113.75921 331.650355,113.473483 C333.092971,117.53382 335.693478,121.882893 334.827309,126.808434 C333.675413,125.358743 332.808244,123.330579 331.068912,121.882893 C332.808244,128.551873 335.402757,135.512595 334.827309,143.053796 L334.253858,143.053796 C332.52052,139.861668 331.360632,136.671546 328.180682,134.350637 C329.918016,140.147396 335.402757,144.788212 334.542582,151.460199 C329.630292,146.820386 327.025789,140.445154 322.114498,135.512595 C322.402222,137.540759 324.13556,139.569926 324.13556,141.889832 C320.378163,141.314367 316.916482,137.540759 315.183144,134.061902 C310.26486,121.012678 296.397156,117.53382 285.706407,112.604269 C283.393625,111.731046 281.078844,109.990615 278.478338,111.150568 C276.166554,112.019781 274.145492,110.860831 271.83271,110.860831 L266.344971,112.889997 C253.91489,114.343698 240.622635,114.343698 229.643162,119.850719 C227.621101,121.882893 228.202543,125.072013 227.039658,127.67865 C220.390034,132.902951 219.239138,141.019617 212.011068,145.949168 C208.838111,147.977331 208.256668,152.037669 205.080713,153.784116 C204.795986,151.460199 205.080713,149.72077 204.795986,147.399861 C203.922824,149.136282 202.764934,150.589983 203.058652,152.61915 C203.341381,153.19662 204.214544,152.61915 204.214544,153.489365 C201.898764,153.784116 200.17142,151.748934 199.011533,150.006498 C197.280193,145.079954 199.877702,137.255032 194.099243,134.061902 L190.053122,134.932117 C191.498736,135.800328 192.941353,137.540759 193.521796,139.283196 C193.812518,141.889832 193.231075,144.210741 191.498736,146.241913 C190.919292,145.949168 190.631568,146.530648 190.631568,146.820386 L190.631568,147.111126 C190.631568,146.820386 190.346841,146.820386 190.346841,146.820386 C188.606509,147.977331 186.583449,148.267069 185.139833,150.006498 C186.30072,150.589983 188.034058,150.298241 188.89723,151.168456 C187.455613,152.61915 184.561388,152.61915 182.540326,152.61915 C175.894698,155.516527 168.380902,156.97123 160.576385,157.255955 C160.002935,158.132186 160.576385,158.417914 160.292657,159.576864 C161.736273,159.576864 163.757335,159.871615 164.623505,158.132186 C164.915225,158.710659 164.338778,159.576864 164.048057,160.157342 C162.890167,161.903789 160.866108,162.189516 158.848043,161.903789 C155.669091,161.320303 153.642034,156.678485 149.598911,157.837436 C138.037996,159.001399 127.058523,156.97123 117.233943,153.489365 C116.652501,153.19662 116.079051,152.9139 115.791327,152.037669 C115.500605,147.399861 118.67656,144.210741 120.991341,140.730881 C129.082583,130.87178 135.725213,120.720935 139.771334,109.413145 C138.91016,108.829659 138.037996,109.990615 137.461549,109.413145 C137.750272,110.28336 136.597377,109.699875 136.307655,110.28336 C134.282597,109.699875 131.392368,109.699875 130.815921,106.801495 C130.525199,105.93128 131.392368,103.611373 129.65903,103.611373 C128.50114,103.901111 127.058523,103.0329 126.767802,101.871944 C125.903631,100.421251 127.34325,97.2311285 124.743743,97.516856 C121.858509,95.7864503 125.034464,91.1426268 120.991341,90.5611464 C118.964284,87.3720267 118.100113,83.6034316 115.211882,80.4143119 C115.500605,74.9032805 114.633437,69.3922491 111.742209,64.7574486 C110.876039,63.5904774 111.451488,62.7272797 111.165762,61.2735785 C108.271537,59.2414044 104.518136,57.2132406 103.360246,53.7343832 L105.384305,52.86116 C99.0264012,51.9949546 96.717615,43.8752814 90.6474352,42.7163306 C84.2925285,34.3039121 72.4428903,37.2063018 66.0819893,28.7958884 C66.0819893,27.3431897 68.3947717,27.9276779 69.2609412,27.3431897 C66.3767067,25.603761 62.9030374,24.734548 60.8819752,21.8321583 C61.4614196,20.9639478 63.1967557,21.5434232 62.9030374,20.0997475 C60.0148067,18.3533009 56.5481306,17.1953527 54.2363472,14.5857084 C53.3691787,13.1350149 55.1035158,13.42375 55.9696853,13.1350149 C60.3095241,12.5545369 63.7702059,14.8744435 67.8153273,15.1631787 C63.4824818,12.5545369 57.7040223,11.6853239 55.1035158,6.46603524 C54.5270685,5.59581962 55.6819611,5.01534169 56.5481306,5.01534169 C64.6433687,5.59581962 71.5767208,9.36441469 79.0925144,10.5253706 C72.7346106,8.78694441 66.3767067,5.88856497 61.4614196,0.377533559 C65.2188169,0.377533559 68.6884901,1.53949197 72.4428903,1.82822711 C77.3591764,-1.94638327 83.7130841,1.24674663 89.4925426,1.53949197"></path>
</svg>
