<svg viewBox="0 0 166 51" fill="none">
  <path d="M165.26 50.49H.29v-50h164.97v50zm-159.97-5h154.97v-40H5.29v40z" fill="#231F20"/>
  <path d="M8.24 12.59h10.3c2.04 0 3.56.08 4.56.25 1 .17 1.9.52 2.69 1.06s1.45 1.26 1.98 2.15c.53.9.79 1.9.79 3.01 0 1.21-.33 2.31-.98 3.32-.65 1.01-1.53 1.76-2.64 2.27 1.57.46 2.78 1.24 3.62 2.34.84 1.1 1.27 2.4 1.27 3.88 0 1.17-.27 2.31-.82 3.42-.54 1.11-1.29 1.99-2.23 2.65-.94.66-2.11 1.07-3.49 1.22-.87.09-2.96.15-6.27.18H8.25V12.59h-.01zm5.2 4.29v5.96h3.41c2.03 0 3.29-.03 3.78-.09.89-.11 1.59-.41 2.1-.92s.76-1.18.76-2.01c0-.8-.22-1.44-.66-1.94-.44-.5-1.09-.8-1.96-.91-.52-.06-2-.09-4.45-.09h-2.98zm0 10.25v6.89h4.82c1.87 0 3.06-.05 3.57-.16.77-.14 1.4-.48 1.89-1.03.49-.54.73-1.27.73-2.19 0-.77-.19-1.43-.56-1.97-.37-.54-.92-.93-1.63-1.18-.71-.25-2.25-.37-4.61-.37h-4.21v.01zM36.87 38.36V27.52L27.43 12.6h6.1l6.06 10.19 5.94-10.19h5.99l-9.47 14.96v10.81h-5.18v-.01zM52.26 38.36v-4.69l13.53-16.71h-12V12.6h18.86v4.04L58.54 34.02H73.2v4.34H52.26z" fill="#231F20"/>
  <path d="M75.67 38.36V12.6h5.2v11.44L91.38 12.6h6.99l-9.7 10.03L98.9 38.36h-6.73l-7.08-12.09-4.22 4.31v7.79h-5.2v-.01zM101.47 38.36V12.6h5.2v25.76h-5.2zM111.65 12.59h9.51c2.14 0 3.78.16 4.9.49 1.51.45 2.81 1.24 3.88 2.37 1.08 1.14 1.9 2.53 2.46 4.17.56 1.65.84 3.68.84 6.09 0 2.12-.26 3.95-.79 5.48-.64 1.87-1.56 3.39-2.76 4.55-.9.88-2.12 1.56-3.65 2.06-1.15.36-2.68.55-4.6.55h-9.79V12.59zm5.2 4.36v17.06h3.88c1.45 0 2.5-.08 3.15-.25.84-.21 1.54-.57 2.1-1.07.56-.5 1.01-1.33 1.36-2.49.35-1.15.53-2.73.53-4.72 0-1.99-.18-3.52-.53-4.59-.35-1.07-.84-1.9-1.48-2.5-.64-.6-1.44-1-2.41-1.21-.73-.16-2.15-.25-4.27-.25h-2.33v.02zM136.37 29.97l5.06-.49c.31 1.7.92 2.95 1.85 3.74.93.8 2.19 1.2 3.77 1.2 1.68 0 2.94-.35 3.79-1.06.85-.71 1.27-1.54 1.27-2.49 0-.61-.18-1.13-.54-1.56-.36-.43-.98-.8-1.87-1.12-.61-.21-2-.59-4.16-1.12-2.79-.69-4.75-1.54-5.87-2.55-1.58-1.42-2.37-3.15-2.37-5.18 0-1.31.37-2.54 1.12-3.68.74-1.14 1.82-2.01 3.22-2.61 1.4-.6 3.09-.9 5.07-.9 3.23 0 5.67.71 7.3 2.13s2.49 3.31 2.57 5.68l-5.2.23c-.22-1.32-.7-2.28-1.43-2.86-.73-.58-1.83-.87-3.3-.87-1.51 0-2.7.31-3.55.93-.55.4-.83.93-.83 1.6 0 .61.26 1.13.77 1.56.66.55 2.25 1.12 4.78 1.72 2.53.6 4.4 1.22 5.62 1.85 1.21.64 2.16 1.51 2.85 2.62s1.03 2.47 1.03 4.1c0 1.48-.41 2.86-1.23 4.15-.82 1.29-1.98 2.25-3.48 2.87-1.5.63-3.37.94-5.61.94-3.26 0-5.76-.75-7.5-2.26-1.74-1.49-2.79-3.68-3.13-6.57z" fill="#29ABE3"/>
</svg>
