<?xml version="1.0" encoding="UTF-8"?>
<svg width="102px" height="25px" viewBox="0 0 102 25" version="1.1" xmlns="http://www.w3.org/2000/svg" xmlns:xlink="http://www.w3.org/1999/xlink">
    <g id="Page-1" stroke="none" stroke-width="1">
        <g id="pricefx">
            <g id="Group">
                <path d="M8.104,7.105 L6.016,7.105 L6.016,11.516 L8.228,11.516 C9.048,11.516 9.683,11.326 10.125,10.936 C10.567,10.551 10.788,9.999 10.788,9.278 C10.788,7.829 9.899,7.105 8.104,7.105 Z" id="Shape"></path>
                <path d="M20.443,8.03 C20.21,7.671 19.875,7.417 19.448,7.267 C19.02,7.12 18.311,7.047 17.325,7.047 L16.716,7.047 L16.716,11.5 L17.486,11.5 C18.509,11.5 19.211,11.413 19.588,11.239 C19.972,11.064 20.263,10.799 20.48,10.447 C20.69,10.091 20.8,9.689 20.8,9.239 C20.799,8.795 20.68,8.391 20.443,8.03 Z" id="Shape"></path>
                <path d="M4.067,0 C1.821,0 0,1.137 0,2.533 L0,22.464 C0,23.863 1.821,25 4.067,25 L57.352,25 L58.027,22.812 C58.191,22.884 58.447,22.962 58.787,23.044 C59.135,23.13 59.555,23.173 60.052,23.173 C60.625,23.173 61.111,23.081 61.513,22.906 C61.91,22.733 62.239,22.485 62.501,22.159 C62.764,21.84 62.98,21.449 63.148,20.997 C63.318,20.547 63.471,20.042 63.603,19.492 L66.937,5.452 C67.145,4.531 67.423,3.704 67.758,2.977 C68.095,2.247 68.517,1.637 69.02,1.137 C69.528,0.637 70.125,0.261 70.816,0.005 C70.822,0.002 70.831,0.002 70.837,0 L4.067,0 Z M12.266,11.511 C11.854,12.142 11.291,12.602 10.582,12.889 C9.868,13.175 8.843,13.317 7.512,13.317 L6.016,13.317 L6.016,19.438 L3.989,19.438 L3.989,5.31 L8.462,5.31 C9.808,5.31 10.877,5.672 11.676,6.4 C12.482,7.127 12.884,8.103 12.884,9.33 C12.884,10.147 12.679,10.876 12.266,11.511 Z M23.171,19.438 L22.556,18.51 C22.534,18.473 22.493,18.416 22.434,18.336 L22.038,17.779 L21.413,16.749 L20.741,15.646 C20.325,15.069 19.936,14.607 19.593,14.264 C19.25,13.921 18.935,13.671 18.655,13.523 C18.373,13.373 17.903,13.295 17.245,13.295 L16.718,13.295 L16.718,19.437 L14.701,19.437 L14.701,5.329 L18.235,5.329 C19.658,5.329 20.789,5.683 21.629,6.392 C22.466,7.096 22.888,8.054 22.888,9.258 C22.888,10.079 22.683,10.789 22.273,11.389 C21.864,11.991 21.272,12.435 20.506,12.733 C20.955,13.031 21.398,13.432 21.828,13.945 C22.253,14.457 22.861,15.349 23.643,16.623 C24.135,17.423 24.527,18.026 24.824,18.431 L25.572,19.441 L23.171,19.441 L23.171,19.438 Z M29.167,19.438 L27.144,19.438 L27.144,5.329 L29.167,5.329 L29.167,19.438 Z M44.447,18.389 C42.969,19.197 41.261,19.599 39.322,19.599 C37.745,19.599 36.411,19.283 35.311,18.65 C34.214,18.017 33.348,17.147 32.707,16.035 C32.068,14.924 31.75,13.724 31.75,12.429 C31.75,10.375 32.478,8.652 33.942,7.248 C35.41,5.849 37.213,5.15 39.36,5.15 C40.84,5.15 42.486,5.534 44.299,6.311 L44.299,8.481 C42.648,7.538 41.03,7.067 39.458,7.067 C37.845,7.067 36.503,7.577 35.437,8.597 C34.369,9.615 33.837,10.893 33.837,12.428 C33.837,13.978 34.362,15.251 35.412,16.249 C36.459,17.243 37.805,17.743 39.44,17.743 C41.15,17.743 42.82,17.218 44.444,16.165 L44.444,18.389 L44.447,18.389 Z M55.116,19.417 L46.931,19.417 L46.931,5.329 L54.928,5.329 L54.928,7.127 L48.951,7.127 L48.951,11.429 L54.723,11.429 L54.723,13.239 L48.951,13.239 L48.951,17.62 L55.115,17.62 L55.115,19.417 L55.116,19.417 Z" id="Shape"></path>
            </g>
            <path d="M97.934,0 L75.889,0 C76.059,0.052 76.198,0.099 76.297,0.143 L75.622,2.355 C75.404,2.246 75.099,2.128 74.703,2.011 C74.304,1.889 73.809,1.827 73.221,1.827 C72.61,1.827 72.098,1.92 71.686,2.092 C71.263,2.271 70.917,2.514 70.636,2.84 C70.353,3.161 70.126,3.551 69.958,4.003 C69.788,4.455 69.636,4.957 69.509,5.509 L69.255,6.286 L73.586,6.282 L72.955,8.44 L68.773,8.443 L66.169,19.546 C65.958,20.467 65.69,21.291 65.363,22.021 C65.034,22.75 64.633,23.365 64.154,23.863 C63.677,24.363 63.107,24.739 62.443,25 L97.933,25 C100.176,25 101.999,23.863 101.999,22.464 L101.999,2.533 C102,1.137 100.177,0 97.934,0 Z M76.826,16.956 C77.289,18.32 77.972,19.587 78.874,20.749 L77.637,21.599 C76.655,20.407 75.869,19.038 75.273,17.488 C74.68,15.942 74.382,14.279 74.382,12.499 C74.382,10.722 74.68,9.059 75.273,7.51 C75.87,5.965 76.655,4.594 77.637,3.403 L78.874,4.248 C77.973,5.413 77.289,6.682 76.826,8.044 C76.363,9.412 76.131,10.897 76.131,12.499 C76.131,14.104 76.363,15.589 76.826,16.956 Z M90.102,19.193 C89.906,18.799 89.661,18.358 89.374,17.875 C89.086,17.392 88.77,16.892 88.431,16.384 C88.091,15.87 87.744,15.364 87.38,14.864 C87.025,14.36 86.677,13.885 86.336,13.435 C85.994,13.885 85.643,14.364 85.287,14.875 C84.927,15.386 84.583,15.896 84.253,16.408 C83.919,16.918 83.609,17.416 83.323,17.899 C83.039,18.386 82.791,18.816 82.599,19.192 L80.018,19.192 C80.644,17.972 81.392,16.731 82.261,15.466 C83.127,14.204 83.996,12.996 84.858,11.848 L80.229,5.202 L83.052,5.202 L86.386,10.097 L89.754,5.202 L92.416,5.202 L87.893,11.687 C88.755,12.852 89.639,14.084 90.544,15.385 C91.447,16.684 92.215,17.952 92.842,19.192 L90.102,19.192 L90.102,19.193 Z M97.213,17.487 C96.616,19.038 95.83,20.406 94.854,21.595 L93.613,20.747 C94.515,19.584 95.2,18.316 95.662,16.955 C96.125,15.588 96.36,14.103 96.36,12.5 C96.36,10.897 96.125,9.407 95.662,8.044 C95.2,6.676 94.516,5.411 93.613,4.246 L94.854,3.401 C95.831,4.592 96.617,5.96 97.213,7.508 C97.807,9.057 98.104,10.72 98.104,12.5 C98.104,14.278 97.807,15.943 97.213,17.487 Z" id="Shape" fill="#CFCFCF"></path>
            <path d="M65.363,22.021 C65.69,21.292 65.958,20.467 66.169,19.546 L68.773,8.443 L72.955,8.44 L73.586,6.281 L69.255,6.285 L69.509,5.508 C69.636,4.956 69.788,4.453 69.958,4.002 C70.126,3.55 70.353,3.16 70.636,2.839 C70.917,2.514 71.263,2.27 71.686,2.091 C72.098,1.919 72.61,1.826 73.221,1.826 C73.81,1.826 74.304,1.888 74.703,2.01 C75.099,2.127 75.404,2.245 75.622,2.354 L76.297,0.142 C76.196,0.098 76.06,0.051 75.889,0 L70.833,0 C70.827,0.001 70.822,0.003 70.816,0.005 C70.126,0.261 69.528,0.637 69.02,1.137 C68.517,1.637 68.095,2.247 67.758,2.977 C67.423,3.704 67.145,4.531 66.937,5.452 L63.603,19.492 C63.471,20.042 63.318,20.547 63.148,20.997 C62.98,21.449 62.763,21.84 62.501,22.159 C62.238,22.485 61.91,22.733 61.513,22.906 C61.111,23.081 60.625,23.173 60.052,23.173 C59.555,23.173 59.135,23.13 58.787,23.044 C58.447,22.962 58.191,22.884 58.027,22.812 L57.353,25 L62.444,25 C63.108,24.739 63.678,24.363 64.155,23.863 C64.633,23.365 65.034,22.75 65.363,22.021 Z" id="Shape" fill="#FFFFFF"></path>
            <path d="M3.989,19.438 L3.989,5.31 L8.462,5.31 C9.808,5.31 10.877,5.672 11.676,6.4 C12.482,7.127 12.884,8.103 12.884,9.33 C12.884,10.148 12.679,10.877 12.266,11.512 C11.854,12.143 11.291,12.603 10.582,12.89 C9.868,13.176 8.843,13.318 7.512,13.318 L6.016,13.318 L6.016,19.439 L3.989,19.439 L3.989,19.438 Z M8.104,7.105 L6.016,7.105 L6.016,11.516 L8.228,11.516 C9.048,11.516 9.683,11.326 10.125,10.936 C10.567,10.551 10.788,9.999 10.788,9.278 C10.788,7.829 9.899,7.105 8.104,7.105 Z M14.699,19.438 L14.699,5.329 L18.233,5.329 C19.656,5.329 20.787,5.683 21.627,6.392 C22.464,7.096 22.886,8.054 22.886,9.258 C22.886,10.079 22.681,10.789 22.271,11.389 C21.862,11.991 21.27,12.435 20.504,12.733 C20.953,13.031 21.396,13.432 21.826,13.945 C22.251,14.457 22.859,15.349 23.641,16.623 C24.133,17.423 24.525,18.026 24.822,18.431 L25.57,19.441 L23.171,19.441 L22.556,18.513 C22.534,18.476 22.493,18.419 22.434,18.339 L22.038,17.782 L21.413,16.752 L20.741,15.649 C20.325,15.072 19.936,14.61 19.593,14.267 C19.25,13.924 18.935,13.674 18.655,13.526 C18.373,13.376 17.903,13.298 17.245,13.298 L16.718,13.298 L16.718,19.44 L14.699,19.44 L14.699,19.438 Z M17.325,7.047 L16.716,7.047 L16.716,11.5 L17.486,11.5 C18.509,11.5 19.211,11.413 19.588,11.239 C19.972,11.064 20.263,10.799 20.48,10.447 C20.69,10.091 20.8,9.689 20.8,9.239 C20.8,8.796 20.681,8.391 20.445,8.031 C20.212,7.672 19.877,7.418 19.45,7.268 C19.021,7.12 18.312,7.047 17.325,7.047 Z M27.144,19.438 L29.167,19.438 L29.167,5.329 L27.144,5.329 L27.144,19.438 Z M44.447,16.165 C42.823,17.218 41.153,17.743 39.443,17.743 C37.807,17.743 36.462,17.243 35.415,16.249 C34.365,15.251 33.84,13.978 33.84,12.428 C33.84,10.893 34.371,9.615 35.44,8.597 C36.505,7.576 37.847,7.067 39.461,7.067 C41.033,7.067 42.65,7.538 44.302,8.481 L44.302,6.31 C42.489,5.533 40.843,5.149 39.363,5.149 C37.217,5.149 35.413,5.848 33.945,7.247 C32.48,8.651 31.753,10.374 31.753,12.428 C31.753,13.724 32.071,14.923 32.71,16.034 C33.351,17.146 34.217,18.016 35.314,18.649 C36.414,19.282 37.748,19.598 39.325,19.598 C41.264,19.598 42.972,19.196 44.45,18.388 L44.45,16.165 L44.447,16.165 Z M46.932,19.417 L55.117,19.417 L55.117,17.62 L48.953,17.62 L48.953,13.239 L54.725,13.239 L54.725,11.429 L48.953,11.429 L48.953,7.126 L54.93,7.126 L54.93,5.329 L46.933,5.329 L46.933,19.417 L46.932,19.417 Z" id="Shape" fill="#FFFFFF"></path>
            <path d="M90.102,19.193 C89.906,18.799 89.661,18.358 89.374,17.875 C89.086,17.392 88.77,16.892 88.431,16.384 C88.091,15.87 87.744,15.364 87.38,14.864 C87.025,14.36 86.677,13.885 86.336,13.435 C85.994,13.885 85.643,14.364 85.287,14.875 C84.927,15.386 84.583,15.896 84.253,16.408 C83.919,16.918 83.609,17.416 83.323,17.899 C83.039,18.386 82.791,18.816 82.599,19.192 L80.018,19.192 C80.644,17.972 81.392,16.731 82.261,15.466 C83.127,14.204 83.996,12.996 84.858,11.848 L80.229,5.202 L83.052,5.202 L86.386,10.097 L89.754,5.202 L92.416,5.202 L87.893,11.687 C88.755,12.852 89.639,14.084 90.544,15.385 C91.447,16.684 92.215,17.952 92.842,19.192 L90.102,19.192 L90.102,19.193 Z M76.131,12.498 C76.131,10.896 76.363,9.412 76.826,8.043 C77.289,6.681 77.972,5.412 78.874,4.247 L77.637,3.402 C76.655,4.593 75.869,5.964 75.273,7.509 C74.68,9.058 74.382,10.721 74.382,12.498 C74.382,14.278 74.68,15.941 75.273,17.487 C75.87,19.038 76.655,20.406 77.637,21.598 L78.874,20.748 C77.973,19.586 77.289,18.319 76.826,16.955 C76.363,15.589 76.131,14.104 76.131,12.498 Z M96.359,12.501 C96.359,14.105 96.124,15.589 95.661,16.956 C95.199,18.317 94.515,19.585 93.612,20.748 L94.853,21.596 C95.83,20.407 96.616,19.038 97.212,17.488 C97.806,15.944 98.103,14.279 98.103,12.502 C98.103,10.722 97.806,9.059 97.212,7.51 C96.615,5.962 95.829,4.594 94.853,3.403 L93.612,4.248 C94.514,5.413 95.199,6.678 95.661,8.046 C96.124,9.408 96.359,10.898 96.359,12.501 Z" id="Shape" fill="#FFFFFF"></path>
        </g>
    </g>
</svg>
