<svg width="711" height="218" viewBox="0 0 711 218" fill="none" xmlns="http://www.w3.org/2000/svg">
  <title>[logo] Profi Option</title>
  <path fill-rule="evenodd" clip-rule="evenodd"
        d="M226.898 65.3343C226.898 65.3343 205.21 146.625 119.83 193.708C99.9663 181.667 86.713 162.893 76.9283 145.772C56.3441 172.293 39.1581 184.722 0 211.538C29.8799 199.116 51.6187 187.797 72.4202 174.108C75.0426 174.194 99.2392 202.939 117.59 211.424C147.492 195.841 152.354 193.379 187.021 165.179C194.392 171.406 212.681 192.401 212.681 192.401C212.681 192.401 245.018 143.634 226.898 65.3343Z"
        fill="var(--color-1)"/>
  <path fill-rule="evenodd" clip-rule="evenodd"
        d="M221.101 0C221.101 0 198.842 207.433 1.81915 218C83.8328 181.993 116.635 150.083 139.954 97.8452C126.765 80.1082 111.46 72.1367 111.46 72.1367C111.46 72.1367 166.039 18.0033 221.101 0Z"
        fill="var(--color-1)"/>
  <path fill-rule="evenodd" clip-rule="evenodd"
        d="M328.759 123.659C319.342 123.659 311.162 121.567 304.218 117.381C297.274 113.196 291.923 107.179 288.166 99.3311C284.409 91.4832 282.53 82.2799 282.53 71.721C282.53 61.0669 284.385 51.8399 288.095 44.0396C291.804 36.2393 297.131 30.2464 304.075 26.0609C311.019 21.8754 319.247 19.7826 328.759 19.7826C338.271 19.7826 346.499 21.8754 353.443 26.0609C360.387 30.2464 365.714 36.2393 369.423 44.0396C373.133 51.8399 374.988 61.0194 374.988 71.5783C374.988 82.2324 373.109 91.4594 369.352 99.2597C365.595 107.06 360.244 113.077 353.3 117.31C346.356 121.543 338.176 123.659 328.759 123.659ZM328.759 113.671C339.508 113.671 347.878 110.009 353.871 102.684C359.864 95.3596 362.86 84.991 362.86 71.5783C362.86 58.1656 359.887 47.8446 353.942 40.6151C347.997 33.3855 339.603 29.7708 328.759 29.7708C317.915 29.7708 309.497 33.4093 303.504 40.6864C297.512 47.9635 294.515 58.2607 294.515 71.5783C294.515 84.991 297.512 95.3596 303.504 102.684C309.497 110.009 317.915 113.671 328.759 113.671ZM430.777 49.0336C437.055 49.0336 442.619 50.6032 447.471 53.7423C452.322 56.8815 456.079 61.281 458.742 66.9409C461.406 72.6009 462.738 79.1407 462.738 86.5605C462.738 93.9803 461.406 100.473 458.742 106.037C456.079 111.602 452.346 115.907 447.542 118.951C442.738 121.995 437.15 123.517 430.777 123.517C425.165 123.517 420.266 122.28 416.08 119.807C411.895 117.334 408.709 113.814 406.521 109.248V153.338H394.963V70.8649C394.963 63.4451 394.583 56.7388 393.822 50.7459H404.809L405.95 64.5866C407.948 59.6401 411.11 55.8113 415.438 53.1002C419.766 50.3892 424.879 49.0336 430.777 49.0336ZM428.637 113.957C435.676 113.957 441.121 111.578 444.974 106.822C448.826 102.066 450.752 95.3121 450.752 86.5605C450.752 77.809 448.802 70.9838 444.902 66.0848C441.002 61.1858 435.58 58.7364 428.637 58.7364C421.502 58.7364 416.033 61.1145 412.228 65.8708C408.423 70.6271 406.521 77.4285 406.521 86.2751C406.521 95.1218 408.423 101.947 412.228 106.751C416.033 111.555 421.502 113.957 428.637 113.957ZM495.84 59.8779V99.117C495.84 104.444 496.934 108.178 499.122 110.318C501.309 112.458 504.401 113.529 508.396 113.529C511.059 113.529 513.628 113.1 516.101 112.244V122.09C513.152 123.041 509.823 123.517 506.113 123.517C499.264 123.517 493.914 121.59 490.061 117.738C486.209 113.885 484.283 108.202 484.283 100.687V59.8779H470.3V50.7459H484.283V32.3392L495.84 28.2012V50.7459H516.386V59.8779H495.84ZM530.369 122.518V50.7459H541.926V122.518H530.369ZM529.227 20.3534H543.353V33.4807H529.227V20.3534ZM594.005 123.517C587.252 123.517 581.307 121.995 576.17 118.951C571.033 115.907 567.062 111.578 564.256 105.966C561.45 100.354 560.047 93.7901 560.047 86.2751C560.047 78.7602 561.45 72.1966 564.256 66.5842C567.062 60.9718 571.033 56.6437 576.17 53.5996C581.307 50.5556 587.252 49.0336 594.005 49.0336C600.759 49.0336 606.704 50.5556 611.84 53.5996C616.977 56.6437 620.948 60.9718 623.754 66.5842C626.561 72.1966 627.964 78.7602 627.964 86.2751C627.964 93.7901 626.561 100.354 623.754 105.966C620.948 111.578 616.977 115.907 611.84 118.951C606.704 121.995 600.759 123.517 594.005 123.517ZM594.005 113.957C601.139 113.957 606.609 111.602 610.414 106.894C614.219 102.185 616.121 95.3121 616.121 86.2751C616.121 77.5236 614.171 70.746 610.271 65.9421C606.371 61.1383 600.949 58.7364 594.005 58.7364C586.966 58.7364 581.497 61.1383 577.597 65.9421C573.697 70.746 571.747 77.5236 571.747 86.2751C571.747 95.3121 573.673 102.185 577.525 106.894C581.378 111.602 586.871 113.957 594.005 113.957ZM681.755 49.0336C698.972 49.0336 707.58 58.4985 707.58 77.4285V122.518H696.023V77.9992C696.023 71.3405 694.691 66.4653 692.028 63.3738C689.364 60.2822 685.179 58.7364 679.472 58.7364C672.813 58.7364 667.487 60.7816 663.491 64.872C659.496 68.9624 657.499 74.4796 657.499 81.4238V122.518H645.942V70.8649C645.942 63.4451 645.561 56.7388 644.8 50.7459H655.787L656.928 63.5878C659.116 58.9266 662.398 55.3357 666.773 52.8149C671.149 50.294 676.143 49.0336 681.755 49.0336Z"
        fill="var(--color-1)"/>
  <path fill-rule="evenodd" clip-rule="evenodd"
        d="M507.411 183.296V155.856H500.443V152.807H518.3V155.856H511.331V183.296H507.411ZM528.189 183.296V152.807H542.997V155.856H532.109V165.874H541.691V168.923H532.109V180.247H542.997V183.296H528.189ZM554.193 153.243C556.139 152.662 558.461 152.372 561.162 152.372C563.543 152.372 565.423 152.699 566.802 153.352C568.181 154.005 569.183 155.087 569.807 156.597C570.431 158.107 570.744 160.183 570.744 162.825C570.744 165.671 570.388 167.841 569.676 169.337C568.965 170.832 567.869 171.856 566.388 172.407L571.615 183.296H567.259L562.468 173.278H558.113V183.296H554.193V153.243ZM561.162 170.23C563.165 170.23 564.61 169.685 565.495 168.596C566.381 167.507 566.824 165.584 566.824 162.825C566.824 160.88 566.628 159.355 566.236 158.252C565.844 157.148 565.241 156.364 564.428 155.9C563.615 155.435 562.526 155.203 561.162 155.203H558.113V170.23H561.162ZM581.939 183.296L583.682 152.807H588.473L595.572 173.714H595.746L602.845 152.807H607.636L609.378 183.296H605.458L604.152 160.647H603.934L597.619 179.376H593.699L587.384 160.647H587.166L585.859 183.296H581.939ZM621.228 183.296V152.807H625.147V183.296H621.228ZM637.65 183.296V152.807H642.005L650.934 174.367H651.152V152.807H655.071V183.296H650.716L641.787 161.736H641.57V183.296H637.65ZM665.396 183.296L672.8 152.807H678.462L685.866 183.296H681.947L679.987 175.456H671.276L669.316 183.296H665.396ZM671.929 172.407H679.333L675.718 157.163H675.544L671.929 172.407ZM696.191 183.296V152.807H700.111V180.247H711V183.296H696.191Z"
        fill="var(--color-1)"/>
</svg>
