<svg viewBox="0 0 1057 561" fill="none" xmlns="http://www.w3.org/2000/svg">
<path d="M90.9008 485.8V523.1C80.7008 530.3 64.5008 535.5 51.1008 535.5C22.0008 535.5 0.000732422 514.5 0.000732422 486.6C0.000732422 458.9 22.5007 438 52.7007 438C66.9007 438 81.9007 443.5 91.8007 452.2L78.1008 468.7C71.1008 462.3 61.4007 458.3 52.5007 458.3C36.8007 458.3 24.8007 470.6 24.8007 486.6C24.8007 502.9 37.0007 515.2 52.8007 515.2C57.7007 515.2 64.0007 513.4 69.7007 510.6V485.9H90.9008V485.8Z" fill="white"/>
<path d="M182.101 497.5C182.101 520.2 166.001 535.2 141.901 535.2C117.701 535.2 101.601 520.2 101.601 497.5C101.601 474.8 117.701 459.9 141.901 459.9C166.001 460 182.101 474.8 182.101 497.5ZM125.401 497.8C125.401 509.3 132.101 516.9 141.901 516.9C151.601 516.9 158.301 509.2 158.301 497.8C158.301 486.5 151.601 478.7 141.901 478.7C132.101 478.7 125.401 486.5 125.401 497.8Z" fill="white"/>
<path d="M270.1 507.5H269.4H251V534.4H226.7V438.8H269.5C294.8 438.8 309.3 450.8 309.3 472.1C309.3 486.7 303.2 497.2 291.9 502.8L312 534.4H284.4L270.1 507.5ZM269.4 488.4C279.9 488.4 286.1 483.1 286.1 473C286.1 463 280 458 269.4 458H251V488.5H269.4V488.4Z" fill="white"/>
<path d="M394.8 504H343C345.3 512.7 351.6 517.7 360.4 517.7C366.8 517.7 373.1 515.1 378 510.2L390.4 522.4C382.9 530.6 371.8 535.4 358.3 535.4C334.3 535.4 319.2 520.4 319.2 498C319.2 475.2 334.8 460.1 357.6 460.1C383.6 460 396.4 477 394.8 504ZM372.1 491.2C372.1 482.2 366.4 476.3 357.9 476.3C349.7 476.3 344.1 482.3 342.6 491.2H372.1Z" fill="white"/>
<path d="M472.801 486.3V534.4H449.701V525.9C444.901 532.2 437.101 535.5 427.201 535.5C411.501 535.5 401.901 525.9 401.901 512.4C401.901 498.5 411.901 490.3 430.201 490.1H449.601V489C449.601 481.8 444.801 477.4 435.301 477.4C429.201 477.4 421.101 479.6 413.301 483.5L406.601 467.9C418.101 462.6 428.501 459.6 440.801 459.6C460.901 459.7 472.701 469.7 472.801 486.3ZM449.601 509.4V502.9H434.701C427.601 502.9 424.001 505.4 424.001 510.8C424.001 516.1 427.801 519.5 434.401 519.5C441.801 519.5 448.101 515.4 449.601 509.4Z" fill="white"/>
<path d="M490.302 534.4V433H513.902V534.4H490.302Z" fill="white"/>
<path d="M589.601 457.9V476.9H635.201V496H589.601V515.3H641.701V534.4H565.301V438.8H640.201V457.9H589.601Z" fill="white"/>
<path d="M729.001 534.4H705.401V522.2C700.301 530.9 692.101 535.3 681.501 535.3C665.501 535.3 655.101 524.4 655.101 507.2V460.7H678.701V500.5C678.701 509.2 683.501 514.6 691.001 514.6C700.001 514.5 705.301 507.1 705.301 497.1V460.8H728.901V534.4H729.001Z" fill="white"/>
<path d="M771.402 473.2C776.502 464.6 784.802 459.8 795.302 459.7V481C781.602 479.8 772.602 486.2 771.402 496.6V534.4H747.802V460.8H771.402V473.2Z" fill="white"/>
<path d="M880.501 497.5C880.501 520.2 864.401 535.2 840.301 535.2C816.101 535.2 800.001 520.2 800.001 497.5C800.001 474.8 816.101 459.9 840.301 459.9C864.301 460 880.501 474.8 880.501 497.5ZM823.801 497.8C823.801 509.3 830.501 516.9 840.301 516.9C850.001 516.9 856.701 509.2 856.701 497.8C856.701 486.5 850.001 478.7 840.301 478.7C830.501 478.7 823.801 486.5 823.801 497.8Z" fill="white"/>
<path d="M974.101 497.9C974.101 520.3 960.701 535.2 940.101 535.2C930.501 535.2 922.701 531.4 917.601 524.5V560.9H894.001V460.8H917.601V470.5C922.801 463.8 930.301 460 939.601 460C960.301 460 974.101 475.1 974.101 497.9ZM950.301 497.3C950.301 486.1 943.601 478.2 933.801 478.2C924.201 478.2 917.501 486.1 917.501 497.3C917.501 508.8 924.201 516.6 933.801 516.6C943.601 516.5 950.301 508.6 950.301 497.3Z" fill="white"/>
<path d="M1056.2 504H1004.4C1006.7 512.7 1013 517.7 1021.8 517.7C1028.2 517.7 1034.5 515.1 1039.4 510.2L1051.8 522.4C1044.3 530.6 1033.2 535.4 1019.7 535.4C995.7 535.4 980.6 520.4 980.6 498C980.6 475.2 996.2 460.1 1019 460.1C1045 460 1057.8 477 1056.2 504ZM1033.5 491.2C1033.5 482.2 1027.8 476.3 1019.3 476.3C1011.1 476.3 1005.5 482.3 1004 491.2H1033.5Z" fill="white"/>
<path d="M225 346.1C225 346.1 373.2 128.3 605.2 280.3C605.2 280.3 419 163 225 346.1Z" fill="white"/>
<path d="M340.8 394.7C340.8 394.7 616.9 145.2 904.8 390.8C904.8 390.8 663.5 198.4 340.8 394.7Z" fill="white"/>
<path d="M659.4 176.9H630.8V146.7V132C630.9 122.5 637.2 114.9 645.1 114.9C653 114.9 659.3 122.6 659.4 132V136V176.9ZM630.4 44.5C630.5 35 636.8 27.4 644.7 27.4C652.6 27.4 658.9 35.1 659 44.5V50.6V71.8H630.4V42V44.5ZM473.5 151.2H444.9V106.4C444.9 96.9 451.3 89.3 459.2 89.3C467.1 89.3 473.4 97 473.5 106.4V151.2V151.2ZM690.5 50.7V14.6V9.6V0H677.5V9.6H664.5V0H651.5V9.6H638.5V0H625.5V9.6H612.5V0H599.5V9.6V14.6V50.7H610.5V114.6H598V124.2H585V114.6H572V124.2H559V114.6H558.6H546H545.6V124.2H532.6V114.6H519.6V124.2H506.6V114.6H493.7V90.6H504.7V54.5V49.5V39.9H491.7V49.5H478.7V39.9H465.7V49.5H452.7V39.9H439.7V49.5H426.7V39.9H413.7V49.5V54.5V90.6H424.7V212.9C446 211.6 469.2 213.3 493.8 219V205.8H494C496.1 184.8 521.4 168.3 552.3 168.3C583.2 168.3 608.5 184.9 610.6 205.8H610.8V270.9C621.1 270.3 646.2 269.6 679.9 273.3V50.7H690.5Z" fill="white"/>
</svg>
