<svg width="2%0" height="289" viewBox="0 0 229 269" fill="none" xmlns="http://www.w3.org/2000/svg">
  <title>[logo] TopMonks Caffé Upcoming Poster</title>

  <path d="M47.6442 135.057V142.973H44.6899V135.057H42.2549V132.828H50.0792V135.057H47.6442Z" fill="#233341"/>
  <path
    d="M61.6814 141.699C60.5176 142.686 58.8704 143.212 57.1873 143.212C55.4864 143.212 53.8571 142.702 52.6933 141.699C51.4758 140.664 50.9028 139.246 50.9028 137.908C50.9028 136.555 51.4758 135.121 52.6933 134.102C53.8571 133.114 55.5043 132.589 57.1873 132.589C58.8883 132.589 60.5176 133.099 61.6814 134.102C62.8989 135.121 63.4719 136.555 63.4719 137.908C63.4719 139.246 62.881 140.664 61.6814 141.699ZM54.8597 135.965C54.251 136.491 53.9466 137.239 53.9466 137.956C53.9466 138.848 54.43 139.485 54.8597 139.835C55.4148 140.313 56.1847 140.648 57.1694 140.648C58.1721 140.648 58.9241 140.329 59.4612 139.851C59.9984 139.374 60.3923 138.673 60.3923 137.908C60.3923 137.112 59.9984 136.411 59.4612 135.965C58.8346 135.44 57.9572 135.153 57.1694 135.153C56.3458 135.153 55.4864 135.408 54.8597 135.965Z"
    fill="#233341"/>
  <path
    d="M68.3061 139.612V142.973H65.3518V132.828H70.0786C71.0634 132.828 72.1018 133.003 72.9613 133.735C73.8565 134.5 74.0176 135.344 74.0176 136.204C74.0176 137.016 73.8923 137.956 73.015 138.736C72.1377 139.517 71.0634 139.612 70.1681 139.612H68.3061ZM68.3061 137.478H69.2908C69.5952 137.478 70.1861 137.446 70.5441 137.16C70.9022 136.889 70.9201 136.475 70.9201 136.236C70.9201 135.965 70.8843 135.599 70.58 135.328C70.2398 135.01 69.6847 134.962 69.3087 134.962H68.3061V137.478Z"
    fill="#233341"/>
  <path
    d="M74.4474 142.973L76.3811 132.828H79.2995L81.6092 138.243L84.0622 132.828H87.0164L88.7353 142.973H85.781L84.9395 137.128L82.1822 142.973H81.0005L78.3685 137.128L77.4016 142.973H74.4474Z"
    fill="#233341"/>
  <path
    d="M100.892 141.699C99.7287 142.686 98.0814 143.212 96.3984 143.212C94.6975 143.212 93.0682 142.702 91.9044 141.699C90.6868 140.664 90.1139 139.246 90.1139 137.908C90.1139 136.555 90.6868 135.121 91.9044 134.102C93.0682 133.114 94.7154 132.589 96.3984 132.589C98.0993 132.589 99.7287 133.099 100.892 134.102C102.11 135.121 102.683 136.555 102.683 137.908C102.701 139.246 102.11 140.664 100.892 141.699ZM94.0887 135.965C93.48 136.491 93.1756 137.239 93.1756 137.956C93.1756 138.848 93.659 139.485 94.0887 139.835C94.6438 140.313 95.4137 140.648 96.3984 140.648C97.4011 140.648 98.1531 140.329 98.6902 139.851C99.2273 139.374 99.6212 138.673 99.6212 137.908C99.6212 137.112 99.2273 136.411 98.6902 135.965C98.0635 135.44 97.1862 135.153 96.3984 135.153C95.5748 135.153 94.6975 135.408 94.0887 135.965Z"
    fill="#233341"/>
  <path
    d="M104.581 142.973V132.828H107.535L112.996 139.039V132.828H115.95V142.973H112.996L107.535 136.762V142.973H104.581Z"
    fill="#233341"/>
  <path
    d="M121.304 137.016L124.938 132.828H128.591L124.061 137.637L129.003 142.973H125.171L121.304 138.577V142.973H118.349V132.828H121.304V137.016Z"
    fill="#233341"/>
  <path
    d="M130.22 139.931C130.847 140.457 131.814 140.966 132.834 140.966C133.425 140.966 133.801 140.791 133.98 140.616C134.159 140.457 134.267 140.234 134.267 139.979C134.267 139.788 134.177 139.549 133.944 139.374C133.658 139.151 133.21 139.039 132.476 138.848L131.706 138.641C131.223 138.498 130.525 138.275 130.059 137.813C129.486 137.255 129.415 136.539 129.415 136.013C129.415 134.771 129.97 134.006 130.453 133.56C131.026 133.051 131.993 132.605 133.371 132.605C134.499 132.605 135.824 132.923 136.899 133.433L135.717 135.487C134.822 134.866 134.159 134.803 133.765 134.803C133.479 134.803 133.085 134.866 132.799 135.105C132.619 135.264 132.512 135.424 132.512 135.647C132.512 135.822 132.548 135.965 132.673 136.109C132.763 136.204 132.96 136.379 133.658 136.57L134.571 136.809C135.287 137 136.039 137.239 136.648 137.813C137.221 138.354 137.382 138.928 137.382 139.628C137.382 140.552 137.131 141.46 136.308 142.193C135.341 143.053 134.159 143.228 132.942 143.228C132.226 143.228 131.545 143.164 130.704 142.893C130.507 142.83 129.791 142.591 128.967 142.081L130.22 139.931Z"
    fill="#233341"/>
  <path
    d="M117.615 149.63C117.257 149.264 116.613 148.834 115.718 148.834C114.375 148.834 113.426 149.758 113.426 150.952C113.426 152.354 114.625 153.039 115.682 153.039C116.559 153.039 117.239 152.577 117.669 152.163V152.816C117.311 153.102 116.631 153.5 115.664 153.5C114.017 153.5 112.853 152.417 112.853 150.968C112.853 149.519 113.945 148.388 115.7 148.388C116.094 148.388 116.846 148.452 117.598 149.009V149.63H117.615Z"
    fill="#233341"/>
  <path
    d="M123.631 148.484H124.168V153.357H123.631V152.481C123.076 153.23 122.199 153.485 121.501 153.485C120.068 153.485 118.833 152.513 118.833 150.92C118.833 149.407 119.907 148.372 121.501 148.372C122.36 148.372 123.112 148.675 123.631 149.328V148.484ZM119.388 150.888C119.388 151.987 120.158 153.039 121.536 153.039C122.915 153.039 123.667 152.003 123.667 150.888C123.667 149.439 122.468 148.834 121.536 148.834C120.426 148.818 119.388 149.551 119.388 150.888Z"
    fill="#233341"/>
  <path
    d="M126.639 148.93V153.357H126.102V148.93H125.476V148.468H126.102V146.142C126.102 144.773 126.89 144.486 127.535 144.486C127.767 144.486 127.911 144.534 128 144.566V145.012C127.857 144.964 127.749 144.948 127.588 144.948C127.123 144.948 126.639 145.123 126.639 146.254V148.484H128.018V148.946H126.639V148.93Z"
    fill="#233341"/>
  <path
    d="M129.934 148.93V153.357H129.397V148.93H128.77V148.468H129.397V146.142C129.397 144.773 130.184 144.486 130.829 144.486C131.062 144.486 131.205 144.534 131.295 144.566V145.012C131.151 144.964 131.044 144.948 130.883 144.948C130.417 144.948 129.934 145.123 129.934 146.254V148.484H131.312V148.946H129.934V148.93Z"
    fill="#233341"/>
  <path
    d="M132.476 150.984C132.476 152.226 133.497 153.039 134.661 153.039C135.556 153.039 136.218 152.577 136.576 151.924L137.042 152.163C136.72 152.72 135.986 153.485 134.643 153.485C132.942 153.485 131.939 152.354 131.939 150.936C131.939 149.232 133.264 148.372 134.607 148.372C136.093 148.372 137.203 149.423 137.203 150.984H132.476ZM136.612 150.522C136.469 149.551 135.663 148.818 134.589 148.818C133.479 148.818 132.673 149.567 132.53 150.522H136.612ZM134.106 145.935L135.341 147.576L134.929 147.767L133.515 146.238L134.106 145.935Z"
    fill="#233341"/>
  <path d="M142.664 131.283H141.769V154.743H142.664V131.283Z" fill="#233341"/>
  <path
    d="M156.701 153.516C156.522 153.516 156.343 153.437 156.254 153.294C156.146 153.15 156.146 152.975 156.218 152.832L157.31 150.809C157.238 150.777 157.185 150.761 157.149 150.729C156.361 150.363 155.179 149.551 153.64 148.324C153.478 148.197 153.425 148.022 153.478 147.847C153.532 147.671 153.693 147.544 153.89 147.512C158.742 146.732 165.421 144.741 169.593 139.772C172.063 136.825 172.493 134.213 172.511 134.182C172.529 134.102 172.547 134.038 172.601 133.975C172.744 133.783 173.102 133.338 178.509 133.768C178.778 133.783 178.992 133.99 178.992 134.245C179.046 138.307 178.276 143.961 174.337 147.942C172.601 149.694 170.864 150.506 170.004 150.841L170.9 152.688C170.971 152.832 170.953 153.007 170.864 153.134C170.774 153.262 170.595 153.357 170.416 153.357L156.701 153.516ZM158.098 150.013C158.205 150.013 158.331 150.044 158.42 150.108C158.635 150.252 158.689 150.49 158.581 150.697L157.579 152.561L169.61 152.418L168.823 150.761C168.769 150.634 168.769 150.49 168.823 150.363C168.894 150.236 169.02 150.14 169.163 150.108C169.181 150.108 171.419 149.503 173.603 147.273C175.591 145.251 177.936 141.428 177.936 134.691C175.036 134.468 173.925 134.548 173.532 134.612C173.353 135.424 172.654 137.765 170.47 140.345C168.142 143.116 163.63 146.668 155.179 148.261C157.113 149.742 157.811 149.981 157.972 150.013C158.008 150.013 158.044 150.013 158.098 150.013ZM157.758 150.108L157.74 150.124C157.74 150.124 157.74 150.124 157.758 150.108Z"
    fill="#233341"/>
  <path
    d="M165.439 130.598C165.439 130.598 169.127 129.913 169.091 125.581C169.055 121.424 164.884 121.169 164.257 118.557C163.684 116.184 163.827 115.085 164.114 114.353C162.287 115.611 159.745 118.78 164.884 123.224C168.25 125.852 165.439 130.598 165.439 130.598Z"
    fill="#233341"/>
  <path
    d="M161.607 130.598C161.607 130.598 164.221 129.961 163.97 126.855C163.738 123.877 161.5 123.75 160.479 122.061C159.709 120.787 159.655 119.465 159.781 118.43C158.527 119.402 156.934 122.348 160.837 125.342C163.38 127.078 161.607 130.598 161.607 130.598Z"
    fill="#233341"/>
  <path
    d="M150.703 134.898C151.759 134.898 152.923 134.914 154.409 134.914C156.701 134.93 159.548 134.946 163.577 134.946H177.829C177.327 142.272 175.841 145.553 169.789 149.089L168.017 150.124L168.84 151.764H158.671L159.512 150.172L157.543 149.137C154.374 147.464 152.404 145.649 151.187 143.244C150.112 141.141 149.557 138.45 149.45 134.882C149.826 134.898 150.255 134.898 150.703 134.898ZM150.703 132.668C149.557 132.668 148.572 132.684 147.552 132.7C147.212 132.716 146.925 132.955 146.925 133.274C146.836 142.4 149.145 147.337 156.254 151.08L155.126 153.198C154.929 153.58 155.233 154.026 155.716 154.026H171.669C172.135 154.026 172.457 153.596 172.26 153.214L171.132 150.968C178.634 146.572 179.977 142.208 180.407 133.337C180.425 133.003 180.12 132.732 179.762 132.732H163.559C156.97 132.732 153.425 132.668 150.703 132.668Z"
    fill="#233341"/>
  <path
    d="M180.854 134.962C179.995 134.962 179.189 135.121 178.455 135.408C178.437 136.443 178.348 137.399 178.222 138.306C178.849 137.622 179.798 137.192 180.854 137.192C182.717 137.192 184.238 138.545 184.238 140.202C184.238 141.858 182.717 143.212 180.854 143.212C179.35 143.212 178.079 142.336 177.632 141.126C177.345 142.129 177.005 143.021 176.611 143.833C177.685 144.82 179.189 145.442 180.854 145.442C184.113 145.442 186.745 143.1 186.745 140.202C186.745 137.303 184.113 134.962 180.854 134.962Z"
    fill="#233341"/>
  <rect width="229" height="269" fill="#233341"/>
  <path
    d="M35.571 208.646C36.039 208.646 36.45 208.586 36.804 208.466C37.164 208.346 37.461 208.178 37.695 207.962C37.935 207.74 38.115 207.473 38.235 207.161C38.355 206.849 38.415 206.501 38.415 206.117C38.415 205.739 38.355 205.4 38.235 205.1C38.121 204.8 37.947 204.545 37.713 204.335C37.479 204.125 37.182 203.966 36.822 203.858C36.468 203.744 36.051 203.687 35.571 203.687H33.645V208.646H35.571ZM35.571 202.04C36.417 202.04 37.149 202.139 37.767 202.337C38.391 202.535 38.904 202.814 39.306 203.174C39.714 203.528 40.017 203.957 40.215 204.461C40.413 204.959 40.512 205.511 40.512 206.117C40.512 206.735 40.407 207.302 40.197 207.818C39.987 208.328 39.675 208.769 39.261 209.141C38.847 209.507 38.331 209.795 37.713 210.005C37.101 210.209 36.387 210.311 35.571 210.311H33.645V215H31.539V202.04H35.571ZM44.0836 201.68V215H42.1486V201.68H44.0836ZM51.377 210.986C50.687 211.01 50.105 211.067 49.631 211.157C49.157 211.241 48.773 211.352 48.479 211.49C48.185 211.622 47.972 211.781 47.84 211.967C47.714 212.153 47.651 212.357 47.651 212.579C47.651 212.795 47.684 212.981 47.75 213.137C47.822 213.287 47.918 213.413 48.038 213.515C48.164 213.611 48.308 213.683 48.47 213.731C48.638 213.773 48.821 213.794 49.019 213.794C49.523 213.794 49.955 213.701 50.315 213.515C50.681 213.323 51.035 213.047 51.377 212.687V210.986ZM46.247 207.098C47.285 206.132 48.521 205.649 49.955 205.649C50.483 205.649 50.951 205.736 51.359 205.91C51.773 206.078 52.118 206.318 52.394 206.63C52.676 206.942 52.889 207.314 53.033 207.746C53.183 208.172 53.258 208.646 53.258 209.168V215H52.394C52.208 215 52.067 214.973 51.971 214.919C51.875 214.859 51.794 214.742 51.728 214.568L51.539 213.821C51.305 214.031 51.074 214.22 50.846 214.388C50.618 214.55 50.381 214.688 50.135 214.802C49.895 214.916 49.634 215 49.352 215.054C49.076 215.114 48.77 215.144 48.434 215.144C48.062 215.144 47.714 215.093 47.39 214.991C47.072 214.889 46.796 214.736 46.562 214.532C46.328 214.322 46.142 214.064 46.004 213.758C45.872 213.452 45.806 213.092 45.806 212.678C45.806 212.324 45.899 211.979 46.085 211.643C46.277 211.307 46.589 211.007 47.021 210.743C47.459 210.473 48.032 210.251 48.74 210.077C49.454 209.903 50.333 209.804 51.377 209.78V209.168C51.377 208.508 51.236 208.016 50.954 207.692C50.672 207.368 50.258 207.206 49.712 207.206C49.34 207.206 49.028 207.254 48.776 207.35C48.524 207.44 48.305 207.539 48.119 207.647C47.933 207.755 47.768 207.857 47.624 207.953C47.48 208.043 47.327 208.088 47.165 208.088C47.033 208.088 46.919 208.055 46.823 207.989C46.733 207.917 46.658 207.83 46.598 207.728L46.247 207.098ZM57.4597 201.68V209.402H57.8737C58.0057 209.402 58.1137 209.384 58.1977 209.348C58.2817 209.312 58.3687 209.237 58.4587 209.123L61.0327 206.18C61.1227 206.06 61.2217 205.97 61.3297 205.91C61.4377 205.85 61.5757 205.82 61.7437 205.82H63.4987L60.4027 209.312C60.2227 209.546 60.0247 209.732 59.8087 209.87C59.9287 209.954 60.0337 210.05 60.1237 210.158C60.2137 210.26 60.3007 210.377 60.3847 210.509L63.6877 215H61.9597C61.8037 215 61.6687 214.976 61.5547 214.928C61.4467 214.874 61.3507 214.778 61.2667 214.64L58.6117 211.04C58.5217 210.902 58.4317 210.815 58.3417 210.779C58.2517 210.737 58.1167 210.716 57.9367 210.716H57.4597V215H55.5247V201.68H57.4597ZM69.834 210.986C69.144 211.01 68.562 211.067 68.088 211.157C67.614 211.241 67.23 211.352 66.936 211.49C66.642 211.622 66.429 211.781 66.297 211.967C66.171 212.153 66.108 212.357 66.108 212.579C66.108 212.795 66.141 212.981 66.207 213.137C66.279 213.287 66.375 213.413 66.495 213.515C66.621 213.611 66.765 213.683 66.927 213.731C67.095 213.773 67.278 213.794 67.476 213.794C67.98 213.794 68.412 213.701 68.772 213.515C69.138 213.323 69.492 213.047 69.834 212.687V210.986ZM64.704 207.098C65.742 206.132 66.978 205.649 68.412 205.649C68.94 205.649 69.408 205.736 69.816 205.91C70.23 206.078 70.575 206.318 70.851 206.63C71.133 206.942 71.346 207.314 71.49 207.746C71.64 208.172 71.715 208.646 71.715 209.168V215H70.851C70.665 215 70.524 214.973 70.428 214.919C70.332 214.859 70.251 214.742 70.185 214.568L69.996 213.821C69.762 214.031 69.531 214.22 69.303 214.388C69.075 214.55 68.838 214.688 68.592 214.802C68.352 214.916 68.091 215 67.809 215.054C67.533 215.114 67.227 215.144 66.891 215.144C66.519 215.144 66.171 215.093 65.847 214.991C65.529 214.889 65.253 214.736 65.019 214.532C64.785 214.322 64.599 214.064 64.461 213.758C64.329 213.452 64.263 213.092 64.263 212.678C64.263 212.324 64.356 211.979 64.542 211.643C64.734 211.307 65.046 211.007 65.478 210.743C65.916 210.473 66.489 210.251 67.197 210.077C67.911 209.903 68.79 209.804 69.834 209.78V209.168C69.834 208.508 69.693 208.016 69.411 207.692C69.129 207.368 68.715 207.206 68.169 207.206C67.797 207.206 67.485 207.254 67.233 207.35C66.981 207.44 66.762 207.539 66.576 207.647C66.39 207.755 66.225 207.857 66.081 207.953C65.937 208.043 65.784 208.088 65.622 208.088C65.49 208.088 65.376 208.055 65.28 207.989C65.19 207.917 65.115 207.83 65.055 207.728L64.704 207.098ZM71.085 201.896L68.916 204.227C68.82 204.335 68.724 204.41 68.628 204.452C68.538 204.494 68.418 204.515 68.268 204.515H67.116L68.421 202.337C68.505 202.187 68.601 202.076 68.709 202.004C68.823 201.932 68.988 201.896 69.204 201.896H71.085ZM76.8017 215.144C76.0397 215.144 75.4517 214.931 75.0377 214.505C74.6297 214.073 74.4257 213.467 74.4257 212.687V207.341H73.4177C73.3097 207.341 73.2167 207.308 73.1387 207.242C73.0607 207.17 73.0217 207.065 73.0217 206.927V206.144L74.5067 205.928L74.9297 203.273C74.9597 203.171 75.0107 203.09 75.0827 203.03C75.1547 202.964 75.2507 202.931 75.3707 202.931H76.3607V205.946H78.9077V207.341H76.3607V212.552C76.3607 212.882 76.4417 213.134 76.6037 213.308C76.7657 213.482 76.9817 213.569 77.2517 213.569C77.4017 213.569 77.5307 213.551 77.6387 213.515C77.7467 213.473 77.8397 213.431 77.9177 213.389C77.9957 213.341 78.0617 213.299 78.1157 213.263C78.1757 213.221 78.2327 213.2 78.2867 213.2C78.3947 213.2 78.4817 213.26 78.5477 213.38L79.1237 214.325C78.8237 214.589 78.4697 214.793 78.0617 214.937C77.6537 215.075 77.2337 215.144 76.8017 215.144ZM90.3963 207.485C90.3483 207.569 90.2943 207.629 90.2343 207.665C90.1743 207.701 90.0993 207.719 90.0093 207.719C89.9073 207.719 89.7963 207.689 89.6763 207.629C89.5563 207.563 89.4153 207.491 89.2533 207.413C89.0913 207.335 88.8993 207.266 88.6773 207.206C88.4613 207.14 88.2063 207.107 87.9123 207.107C87.6723 207.107 87.4533 207.137 87.2553 207.197C87.0633 207.251 86.8983 207.332 86.7603 207.44C86.6283 207.542 86.5263 207.665 86.4543 207.809C86.3823 207.947 86.3463 208.097 86.3463 208.259C86.3463 208.475 86.4123 208.655 86.5443 208.799C86.6763 208.943 86.8503 209.069 87.0663 209.177C87.2823 209.279 87.5283 209.372 87.8043 209.456C88.0803 209.54 88.3623 209.63 88.6503 209.726C88.9383 209.822 89.2203 209.933 89.4963 210.059C89.7723 210.185 90.0183 210.341 90.2343 210.527C90.4503 210.707 90.6243 210.929 90.7563 211.193C90.8883 211.451 90.9543 211.766 90.9543 212.138C90.9543 212.57 90.8763 212.969 90.7203 213.335C90.5643 213.701 90.3363 214.019 90.0363 214.289C89.7363 214.559 89.3613 214.769 88.9113 214.919C88.4673 215.069 87.9573 215.144 87.3813 215.144C87.0633 215.144 86.7543 215.114 86.4543 215.054C86.1603 215 85.8783 214.925 85.6083 214.829C85.3443 214.727 85.0953 214.607 84.8613 214.469C84.6333 214.331 84.4293 214.181 84.2493 214.019L84.6993 213.281C84.7533 213.191 84.8193 213.122 84.8973 213.074C84.9813 213.02 85.0833 212.993 85.2033 212.993C85.3293 212.993 85.4523 213.035 85.5723 213.119C85.6983 213.197 85.8423 213.284 86.0043 213.38C86.1723 213.476 86.3733 213.566 86.6073 213.65C86.8413 213.728 87.1323 213.767 87.4803 213.767C87.7683 213.767 88.0173 213.734 88.2273 213.668C88.4373 213.596 88.6113 213.5 88.7493 213.38C88.8873 213.26 88.9893 213.125 89.0553 212.975C89.1213 212.819 89.1543 212.654 89.1543 212.48C89.1543 212.246 89.0883 212.054 88.9563 211.904C88.8243 211.754 88.6473 211.625 88.4253 211.517C88.2093 211.409 87.9603 211.313 87.6783 211.229C87.4023 211.145 87.1203 211.055 86.8323 210.959C86.5443 210.863 86.2593 210.752 85.9773 210.626C85.7013 210.5 85.4523 210.341 85.2303 210.149C85.0143 209.951 84.8403 209.714 84.7083 209.438C84.5763 209.156 84.5103 208.814 84.5103 208.412C84.5103 208.046 84.5823 207.698 84.7263 207.368C84.8763 207.038 85.0923 206.747 85.3743 206.495C85.6623 206.243 86.0133 206.045 86.4273 205.901C86.8473 205.751 87.3303 205.676 87.8763 205.676C88.4943 205.676 89.0553 205.775 89.5593 205.973C90.0633 206.171 90.4863 206.441 90.8283 206.783L90.3963 207.485ZM98.7938 209.375C98.7938 209.051 98.7458 208.751 98.6498 208.475C98.5598 208.193 98.4248 207.95 98.2448 207.746C98.0648 207.536 97.8398 207.374 97.5698 207.26C97.3058 207.14 96.9998 207.08 96.6518 207.08C95.9498 207.08 95.3978 207.281 94.9958 207.683C94.5938 208.085 94.3388 208.649 94.2308 209.375H98.7938ZM94.1768 210.563C94.2008 211.085 94.2818 211.538 94.4198 211.922C94.5578 212.3 94.7408 212.615 94.9688 212.867C95.2028 213.119 95.4788 213.308 95.7968 213.434C96.1208 213.554 96.4808 213.614 96.8768 213.614C97.2548 213.614 97.5818 213.572 97.8578 213.488C98.1338 213.398 98.3738 213.302 98.5778 213.2C98.7818 213.092 98.9558 212.996 99.0998 212.912C99.2438 212.822 99.3758 212.777 99.4958 212.777C99.6518 212.777 99.7718 212.837 99.8558 212.957L100.405 213.668C100.177 213.938 99.9188 214.166 99.6308 214.352C99.3428 214.538 99.0368 214.691 98.7128 214.811C98.3888 214.925 98.0558 215.006 97.7138 215.054C97.3718 215.108 97.0388 215.135 96.7148 215.135C96.0788 215.135 95.4878 215.03 94.9418 214.82C94.4018 214.604 93.9308 214.289 93.5288 213.875C93.1328 213.461 92.8208 212.948 92.5928 212.336C92.3708 211.724 92.2598 211.019 92.2598 210.221C92.2598 209.585 92.3588 208.991 92.5568 208.439C92.7608 207.887 93.0488 207.407 93.4208 206.999C93.7988 206.591 94.2548 206.27 94.7888 206.036C95.3288 205.796 95.9378 205.676 96.6158 205.676C97.1798 205.676 97.7018 205.769 98.1818 205.955C98.6618 206.135 99.0758 206.402 99.4238 206.756C99.7718 207.11 100.042 207.545 100.234 208.061C100.432 208.571 100.531 209.153 100.531 209.807C100.531 210.107 100.498 210.308 100.432 210.41C100.366 210.512 100.246 210.563 100.072 210.563H94.1768ZM108.753 212.696C109.023 213.044 109.317 213.29 109.635 213.434C109.959 213.572 110.316 213.641 110.706 213.641C111.462 213.641 112.05 213.365 112.47 212.813C112.896 212.261 113.109 211.439 113.109 210.347C113.109 209.783 113.061 209.303 112.965 208.907C112.869 208.505 112.731 208.178 112.551 207.926C112.371 207.674 112.152 207.491 111.894 207.377C111.636 207.263 111.345 207.206 111.021 207.206C110.529 207.206 110.103 207.314 109.743 207.53C109.389 207.74 109.059 208.043 108.753 208.439V212.696ZM108.654 207.152C109.038 206.702 109.473 206.339 109.959 206.063C110.451 205.787 111.021 205.649 111.669 205.649C112.185 205.649 112.653 205.754 113.073 205.964C113.493 206.168 113.853 206.468 114.153 206.864C114.453 207.26 114.684 207.752 114.846 208.34C115.014 208.922 115.098 209.591 115.098 210.347C115.098 211.025 115.005 211.658 114.819 212.246C114.639 212.828 114.378 213.335 114.036 213.767C113.694 214.193 113.28 214.529 112.794 214.775C112.308 215.015 111.759 215.135 111.147 215.135C110.607 215.135 110.148 215.048 109.77 214.874C109.398 214.7 109.059 214.46 108.753 214.154V218.051H106.818V205.82H107.988C108.252 205.82 108.42 205.943 108.492 206.189L108.654 207.152ZM118.796 207.521C119.084 206.939 119.432 206.483 119.84 206.153C120.248 205.817 120.737 205.649 121.307 205.649C121.505 205.649 121.691 205.673 121.865 205.721C122.039 205.763 122.195 205.829 122.333 205.919L122.198 207.377C122.174 207.479 122.135 207.551 122.081 207.593C122.033 207.629 121.967 207.647 121.883 207.647C121.793 207.647 121.664 207.632 121.496 207.602C121.328 207.566 121.151 207.548 120.965 207.548C120.695 207.548 120.455 207.587 120.245 207.665C120.041 207.743 119.855 207.857 119.687 208.007C119.525 208.157 119.381 208.34 119.255 208.556C119.129 208.772 119.012 209.018 118.904 209.294V215H116.969V205.82H118.094C118.298 205.82 118.439 205.859 118.517 205.937C118.595 206.009 118.649 206.138 118.679 206.324L118.796 207.521ZM122.531 202.04L120.488 204.479H118.688L116.645 202.04H117.986C118.07 202.04 118.148 202.055 118.22 202.085C118.292 202.115 118.349 202.148 118.391 202.184L119.435 203.282C119.489 203.342 119.549 203.411 119.615 203.489C119.645 203.447 119.672 203.411 119.696 203.381C119.726 203.345 119.756 203.312 119.786 203.282L120.83 202.184C120.878 202.154 120.938 202.124 121.01 202.094C121.082 202.058 121.157 202.04 121.235 202.04H122.531ZM125.621 205.82V215H123.686V205.82H125.621ZM125.945 203.048C125.945 203.222 125.909 203.387 125.837 203.543C125.771 203.699 125.678 203.837 125.558 203.957C125.438 204.071 125.297 204.164 125.135 204.236C124.979 204.302 124.811 204.335 124.631 204.335C124.457 204.335 124.292 204.302 124.136 204.236C123.986 204.164 123.854 204.071 123.74 203.957C123.626 203.837 123.533 203.699 123.461 203.543C123.395 203.387 123.362 203.222 123.362 203.048C123.362 202.868 123.395 202.7 123.461 202.544C123.533 202.388 123.626 202.253 123.74 202.139C123.854 202.019 123.986 201.926 124.136 201.86C124.292 201.788 124.457 201.752 124.631 201.752C124.811 201.752 124.979 201.788 125.135 201.86C125.297 201.926 125.438 202.019 125.558 202.139C125.678 202.253 125.771 202.388 125.837 202.544C125.909 202.7 125.945 202.868 125.945 203.048ZM129.987 212.696C130.257 213.044 130.551 213.29 130.869 213.434C131.193 213.572 131.55 213.641 131.94 213.641C132.696 213.641 133.284 213.365 133.704 212.813C134.13 212.261 134.343 211.439 134.343 210.347C134.343 209.783 134.295 209.303 134.199 208.907C134.103 208.505 133.965 208.178 133.785 207.926C133.605 207.674 133.386 207.491 133.128 207.377C132.87 207.263 132.579 207.206 132.255 207.206C131.763 207.206 131.337 207.314 130.977 207.53C130.623 207.74 130.293 208.043 129.987 208.439V212.696ZM129.888 207.152C130.272 206.702 130.707 206.339 131.193 206.063C131.685 205.787 132.255 205.649 132.903 205.649C133.419 205.649 133.887 205.754 134.307 205.964C134.727 206.168 135.087 206.468 135.387 206.864C135.687 207.26 135.918 207.752 136.08 208.34C136.248 208.922 136.332 209.591 136.332 210.347C136.332 211.025 136.239 211.658 136.053 212.246C135.873 212.828 135.612 213.335 135.27 213.767C134.928 214.193 134.514 214.529 134.028 214.775C133.542 215.015 132.993 215.135 132.381 215.135C131.841 215.135 131.382 215.048 131.004 214.874C130.632 214.7 130.293 214.46 129.987 214.154V218.051H128.052V205.82H129.222C129.486 205.82 129.654 205.943 129.726 206.189L129.888 207.152ZM140.039 207.521C140.327 206.939 140.675 206.483 141.083 206.153C141.491 205.817 141.98 205.649 142.55 205.649C142.748 205.649 142.934 205.673 143.108 205.721C143.282 205.763 143.438 205.829 143.576 205.919L143.441 207.377C143.417 207.479 143.378 207.551 143.324 207.593C143.276 207.629 143.21 207.647 143.126 207.647C143.036 207.647 142.907 207.632 142.739 207.602C142.571 207.566 142.394 207.548 142.208 207.548C141.938 207.548 141.698 207.587 141.488 207.665C141.284 207.743 141.098 207.857 140.93 208.007C140.768 208.157 140.624 208.34 140.498 208.556C140.372 208.772 140.255 209.018 140.147 209.294V215H138.212V205.82H139.337C139.541 205.82 139.682 205.859 139.76 205.937C139.838 206.009 139.892 206.138 139.922 206.324L140.039 207.521ZM149.621 210.986C148.931 211.01 148.349 211.067 147.875 211.157C147.401 211.241 147.017 211.352 146.723 211.49C146.429 211.622 146.216 211.781 146.084 211.967C145.958 212.153 145.895 212.357 145.895 212.579C145.895 212.795 145.928 212.981 145.994 213.137C146.066 213.287 146.162 213.413 146.282 213.515C146.408 213.611 146.552 213.683 146.714 213.731C146.882 213.773 147.065 213.794 147.263 213.794C147.767 213.794 148.199 213.701 148.559 213.515C148.925 213.323 149.279 213.047 149.621 212.687V210.986ZM144.491 207.098C145.529 206.132 146.765 205.649 148.199 205.649C148.727 205.649 149.195 205.736 149.603 205.91C150.017 206.078 150.362 206.318 150.638 206.63C150.92 206.942 151.133 207.314 151.277 207.746C151.427 208.172 151.502 208.646 151.502 209.168V215H150.638C150.452 215 150.311 214.973 150.215 214.919C150.119 214.859 150.038 214.742 149.972 214.568L149.783 213.821C149.549 214.031 149.318 214.22 149.09 214.388C148.862 214.55 148.625 214.688 148.379 214.802C148.139 214.916 147.878 215 147.596 215.054C147.32 215.114 147.014 215.144 146.678 215.144C146.306 215.144 145.958 215.093 145.634 214.991C145.316 214.889 145.04 214.736 144.806 214.532C144.572 214.322 144.386 214.064 144.248 213.758C144.116 213.452 144.05 213.092 144.05 212.678C144.05 212.324 144.143 211.979 144.329 211.643C144.521 211.307 144.833 211.007 145.265 210.743C145.703 210.473 146.276 210.251 146.984 210.077C147.698 209.903 148.577 209.804 149.621 209.78V209.168C149.621 208.508 149.48 208.016 149.198 207.692C148.916 207.368 148.502 207.206 147.956 207.206C147.584 207.206 147.272 207.254 147.02 207.35C146.768 207.44 146.549 207.539 146.363 207.647C146.177 207.755 146.012 207.857 145.868 207.953C145.724 208.043 145.571 208.088 145.409 208.088C145.277 208.088 145.163 208.055 145.067 207.989C144.977 207.917 144.902 207.83 144.842 207.728L144.491 207.098ZM161.64 205.82L157.95 215H156.204L152.514 205.82H154.107C154.257 205.82 154.38 205.859 154.476 205.937C154.578 206.009 154.644 206.096 154.674 206.198L156.708 211.544C156.792 211.796 156.867 212.045 156.933 212.291C156.999 212.537 157.056 212.786 157.104 213.038C157.152 212.786 157.209 212.54 157.275 212.3C157.347 212.054 157.425 211.802 157.509 211.544L159.579 206.198C159.615 206.09 159.681 206 159.777 205.928C159.873 205.856 159.99 205.82 160.128 205.82H161.64ZM170.702 205.82V215H169.532C169.274 215 169.109 214.877 169.037 214.631L168.893 213.776C168.701 213.98 168.497 214.166 168.281 214.334C168.071 214.502 167.846 214.646 167.606 214.766C167.366 214.886 167.108 214.979 166.832 215.045C166.562 215.111 166.271 215.144 165.959 215.144C165.455 215.144 165.011 215.06 164.627 214.892C164.243 214.724 163.919 214.487 163.655 214.181C163.397 213.875 163.202 213.509 163.07 213.083C162.938 212.651 162.872 212.177 162.872 211.661V205.82H164.807V211.661C164.807 212.279 164.948 212.759 165.23 213.101C165.518 213.443 165.953 213.614 166.535 213.614C166.961 213.614 167.357 213.518 167.723 213.326C168.095 213.128 168.443 212.858 168.767 212.516V205.82H170.702ZM175.068 205.82V215.477C175.068 215.861 175.017 216.221 174.915 216.557C174.813 216.899 174.651 217.196 174.429 217.448C174.207 217.7 173.919 217.898 173.565 218.042C173.217 218.186 172.794 218.258 172.296 218.258C172.086 218.258 171.897 218.243 171.729 218.213C171.561 218.183 171.39 218.141 171.216 218.087L171.288 217.034C171.306 216.914 171.357 216.845 171.441 216.827C171.519 216.809 171.672 216.8 171.9 216.8C172.356 216.8 172.674 216.698 172.854 216.494C173.04 216.296 173.133 215.957 173.133 215.477V205.82H175.068ZM175.383 203.048C175.383 203.222 175.347 203.387 175.275 203.543C175.209 203.699 175.116 203.837 174.996 203.957C174.876 204.071 174.738 204.164 174.582 204.236C174.426 204.302 174.258 204.335 174.078 204.335C173.904 204.335 173.739 204.302 173.583 204.236C173.433 204.164 173.298 204.071 173.178 203.957C173.064 203.837 172.974 203.699 172.908 203.543C172.842 203.387 172.809 203.222 172.809 203.048C172.809 202.868 172.842 202.7 172.908 202.544C172.974 202.388 173.064 202.253 173.178 202.139C173.298 202.019 173.433 201.926 173.583 201.86C173.739 201.788 173.904 201.752 174.078 201.752C174.258 201.752 174.426 201.788 174.582 201.86C174.738 201.926 174.876 202.019 174.996 202.139C175.116 202.253 175.209 202.388 175.275 202.544C175.347 202.7 175.383 202.868 175.383 203.048ZM183.52 209.375C183.52 209.051 183.472 208.751 183.376 208.475C183.286 208.193 183.151 207.95 182.971 207.746C182.791 207.536 182.566 207.374 182.296 207.26C182.032 207.14 181.726 207.08 181.378 207.08C180.676 207.08 180.124 207.281 179.722 207.683C179.32 208.085 179.065 208.649 178.957 209.375H183.52ZM178.903 210.563C178.927 211.085 179.008 211.538 179.146 211.922C179.284 212.3 179.467 212.615 179.695 212.867C179.929 213.119 180.205 213.308 180.523 213.434C180.847 213.554 181.207 213.614 181.603 213.614C181.981 213.614 182.308 213.572 182.584 213.488C182.86 213.398 183.1 213.302 183.304 213.2C183.508 213.092 183.682 212.996 183.826 212.912C183.97 212.822 184.102 212.777 184.222 212.777C184.378 212.777 184.498 212.837 184.582 212.957L185.131 213.668C184.903 213.938 184.645 214.166 184.357 214.352C184.069 214.538 183.763 214.691 183.439 214.811C183.115 214.925 182.782 215.006 182.44 215.054C182.098 215.108 181.765 215.135 181.441 215.135C180.805 215.135 180.214 215.03 179.668 214.82C179.128 214.604 178.657 214.289 178.255 213.875C177.859 213.461 177.547 212.948 177.319 212.336C177.097 211.724 176.986 211.019 176.986 210.221C176.986 209.585 177.085 208.991 177.283 208.439C177.487 207.887 177.775 207.407 178.147 206.999C178.525 206.591 178.981 206.27 179.515 206.036C180.055 205.796 180.664 205.676 181.342 205.676C181.906 205.676 182.428 205.769 182.908 205.955C183.388 206.135 183.802 206.402 184.15 206.756C184.498 207.11 184.768 207.545 184.96 208.061C185.158 208.571 185.257 209.153 185.257 209.807C185.257 210.107 185.224 210.308 185.158 210.41C185.092 210.512 184.972 210.563 184.798 210.563H178.903ZM186.765 213.884C186.765 213.71 186.795 213.548 186.855 213.398C186.921 213.242 187.008 213.107 187.116 212.993C187.23 212.879 187.362 212.789 187.512 212.723C187.668 212.657 187.833 212.624 188.007 212.624C188.181 212.624 188.343 212.657 188.493 212.723C188.649 212.789 188.784 212.879 188.898 212.993C189.012 213.107 189.102 213.242 189.168 213.398C189.234 213.548 189.267 213.71 189.267 213.884C189.267 214.064 189.234 214.229 189.168 214.379C189.102 214.529 189.012 214.661 188.898 214.775C188.784 214.889 188.649 214.976 188.493 215.036C188.343 215.102 188.181 215.135 188.007 215.135C187.833 215.135 187.668 215.102 187.512 215.036C187.362 214.976 187.23 214.889 187.116 214.775C187.008 214.661 186.921 214.529 186.855 214.379C186.795 214.229 186.765 214.064 186.765 213.884ZM191.019 213.884C191.019 213.71 191.049 213.548 191.109 213.398C191.175 213.242 191.262 213.107 191.37 212.993C191.484 212.879 191.616 212.789 191.766 212.723C191.922 212.657 192.087 212.624 192.261 212.624C192.435 212.624 192.597 212.657 192.747 212.723C192.903 212.789 193.038 212.879 193.152 212.993C193.266 213.107 193.356 213.242 193.422 213.398C193.488 213.548 193.521 213.71 193.521 213.884C193.521 214.064 193.488 214.229 193.422 214.379C193.356 214.529 193.266 214.661 193.152 214.775C193.038 214.889 192.903 214.976 192.747 215.036C192.597 215.102 192.435 215.135 192.261 215.135C192.087 215.135 191.922 215.102 191.766 215.036C191.616 214.976 191.484 214.889 191.37 214.775C191.262 214.661 191.175 214.529 191.109 214.379C191.049 214.229 191.019 214.064 191.019 213.884ZM195.273 213.884C195.273 213.71 195.303 213.548 195.363 213.398C195.429 213.242 195.516 213.107 195.624 212.993C195.738 212.879 195.87 212.789 196.02 212.723C196.176 212.657 196.341 212.624 196.515 212.624C196.689 212.624 196.851 212.657 197.001 212.723C197.157 212.789 197.292 212.879 197.406 212.993C197.52 213.107 197.61 213.242 197.676 213.398C197.742 213.548 197.775 213.71 197.775 213.884C197.775 214.064 197.742 214.229 197.676 214.379C197.61 214.529 197.52 214.661 197.406 214.775C197.292 214.889 197.157 214.976 197.001 215.036C196.851 215.102 196.689 215.135 196.515 215.135C196.341 215.135 196.176 215.102 196.02 215.036C195.87 214.976 195.738 214.889 195.624 214.775C195.516 214.661 195.429 214.529 195.363 214.379C195.303 214.229 195.273 214.064 195.273 213.884Z"
    fill="#F06B4F"/>
  <path
    d="M166.5 176V52H85.0714V71.9286C85.0714 75.5971 87.9498 78.5714 91.5 78.5714H138.643C139.826 78.5714 140.786 79.5629 140.786 80.7857V176H166.5ZM149.357 129.5C149.357 130.723 148.398 131.714 147.214 131.714C146.031 131.714 145.071 130.723 145.071 129.5V125.071C145.071 123.849 146.031 122.857 147.214 122.857C148.398 122.857 149.357 123.849 149.357 125.071V129.5ZM149.357 116.214C149.357 117.437 148.398 118.429 147.214 118.429C146.031 118.429 145.071 117.437 145.071 116.214V111.786C145.071 110.563 146.031 109.571 147.214 109.571C148.398 109.571 149.357 110.563 149.357 111.786V116.214ZM149.357 102.929C149.357 104.151 148.398 105.143 147.214 105.143C146.031 105.143 145.071 104.151 145.071 102.929V98.5C145.071 97.2772 146.031 96.2857 147.214 96.2857C148.398 96.2857 149.357 97.2772 149.357 98.5V102.929ZM151.5 54.2143C157.417 54.2143 162.214 59.1716 162.214 65.2857C162.214 71.3999 157.417 76.3571 151.5 76.3571C145.583 76.3571 140.786 71.3999 140.786 65.2857C140.793 59.1737 145.585 54.2219 151.5 54.2143Z"
    fill="#F06B4F"/>
  <path d="M110.786 100.714H115.071V105.143H110.786V100.714Z" fill="#F06B4F"/>
  <path d="M136.5 149.428H93.6429C90.0928 149.428 87.2144 152.403 87.2144 156.071V176H136.5V149.428Z" fill="#F06B4F"/>
  <path
    d="M153.643 65.2856C153.643 66.5084 152.683 67.4999 151.5 67.4999H145.466C146.509 70.5499 149.528 72.3804 152.613 71.8333C155.7 71.2862 157.955 68.5205 157.955 65.2856C157.955 62.0506 155.7 59.2849 152.613 58.7379C149.528 58.1908 146.509 60.0212 145.466 63.0713H151.5C152.683 63.0713 153.643 64.0627 153.643 65.2856Z"
    fill="#F06B4F"/>
  <path d="M104.357 83V89.6429H95.7857L61.5 87.4286V96.2857L95.7857 94.0714H104.357V96.2857H121.5V83H104.357Z"
        fill="#F06B4F"/>
  <path
    d="M102.214 120.643V122.857H97.9286C96.7452 122.857 95.7858 123.849 95.7858 125.071C95.7858 126.294 96.7452 127.286 97.9286 127.286H102.214V133.929C102.214 138.82 106.052 142.786 110.786 142.786H115.071C119.805 142.786 123.643 138.82 123.643 133.929V120.643H102.214Z"
    fill="#F06B4F"/>
</svg>
