<svg xmlns="http://www.w3.org/2000/svg" width="30.412" height="48.659" viewBox="0 0 30.412 48.659"><defs><style>.a{fill:#1538e5;}</style></defs><g transform="translate(-297.293 -654.072)"><path class="a" d="M25.85,0H4.562A4.563,4.563,0,0,0,0,4.562V44.1a4.563,4.563,0,0,0,4.562,4.562H25.85A4.563,4.563,0,0,0,30.412,44.1V4.562A4.563,4.563,0,0,0,25.85,0ZM15.206,45.618a3.041,3.041,0,1,1,3.041-3.041A3.038,3.038,0,0,1,15.206,45.618ZM25.85,35.354a1.144,1.144,0,0,1-1.14,1.14H5.7a1.144,1.144,0,0,1-1.14-1.14V5.7A1.144,1.144,0,0,1,5.7,4.562H24.71A1.144,1.144,0,0,1,25.85,5.7Z" transform="translate(297.293 654.072)"/><path class="a" d="M14.252,9.036H5.974l.185.9h7.579a.678.678,0,0,1,.661.828l-.156.685a1.582,1.582,0,1,1-1.8.294H6.528A1.581,1.581,0,1,1,4.634,11.5l-1.984-9.7H.678A.678.678,0,0,1,0,1.129V.678A.678.678,0,0,1,.678,0h2.9a.678.678,0,0,1,.664.542L4.5,1.807H15.586a.678.678,0,0,1,.661.828L14.912,8.508A.678.678,0,0,1,14.252,9.036Z" transform="translate(303.553 667.774)"/></g></svg>