<svg xmlns="http://www.w3.org/2000/svg" width="45.993" height="40.286" viewBox="0 0 45.993 40.286"><defs><style>.a{fill:#1538e5;}</style></defs><path class="a" d="M759.667,3078.567l.434-1.91a1.816,1.816,0,0,0,.047-.422,1.888,1.888,0,0,0-1.888-1.887H737.144l-.515-2.517H759.69a1.889,1.889,0,0,0,1.841-1.474l4.447-18.667-33.472,0-.721-3.525a1.887,1.887,0,0,0-1.846-1.51h-8.066a1.888,1.888,0,0,0-1.888,1.888v1.259a1.888,1.888,0,0,0,1.886,1.888h5.5l5.526,27.019a4.405,4.405,0,1,0,5.274.674h16.5a4.407,4.407,0,1,0,5-.818Zm-15.673-17.583v-5.651h5.9v5.651h5.4l-8.35,8.35-8.35-8.35Z" transform="translate(-719.985 -3046.657)"/></svg>