<svg xmlns="http://www.w3.org/2000/svg" width="34.179" height="34.171" viewBox="0 0 34.179 34.171"><defs><style>.a{fill:#fff;}</style></defs><path class="a" d="M17.018,40.149a8.761,8.761,0,1,0,8.761,8.761A8.747,8.747,0,0,0,17.018,40.149Zm0,14.457a5.7,5.7,0,1,1,5.7-5.7,5.706,5.706,0,0,1-5.7,5.7ZM28.181,39.791a2.043,2.043,0,1,1-2.043-2.043A2.039,2.039,0,0,1,28.181,39.791Zm5.8,2.074c-.13-2.737-.755-5.162-2.76-7.16s-4.422-2.623-7.16-2.76c-2.821-.16-11.277-.16-14.1,0A10.165,10.165,0,0,0,2.805,34.7C.8,36.7.182,39.12.045,41.857c-.16,2.821-.16,11.277,0,14.1.13,2.737.755,5.162,2.76,7.16a10.192,10.192,0,0,0,7.16,2.76c2.821.16,11.277.16,14.1,0,2.737-.13,5.162-.755,7.16-2.76s2.623-4.422,2.76-7.16C34.144,53.135,34.144,44.686,33.984,41.865ZM30.339,58.983a5.767,5.767,0,0,1-3.248,3.248c-2.249.892-7.587.686-10.073.686s-7.831.2-10.073-.686A5.767,5.767,0,0,1,3.7,58.983c-.892-2.249-.686-7.587-.686-10.072s-.2-7.831.686-10.072A5.767,5.767,0,0,1,6.946,35.59c2.249-.892,7.587-.686,10.073-.686s7.831-.2,10.073.686a5.767,5.767,0,0,1,3.248,3.248c.892,2.249.686,7.587.686,10.072S31.231,56.741,30.339,58.983Z" transform="translate(0.075 -31.825)"/></svg>