<svg width="64" height="64" viewBox="0 0 64 64" fill="none" xmlns="http://www.w3.org/2000/svg">
  <title>Ikona pro sekci o Sběru dat</title>
  <path
    d="M56.4326 25.2043L56.4224 25.1623C56.2565 24.4922 55.5789 24.0835 54.9089 24.2493C54.2389 24.4152 53.83 25.0927 53.9959 25.7629L54.0034 25.7933C54.142 26.3653 54.6534 26.7489 55.217 26.7489C55.3145 26.7489 55.4136 26.7374 55.5125 26.7134C56.1833 26.5506 56.5954 25.875 56.4326 25.2043Z"
    fill="#F0BE59"/>
  <path
    d="M23.3363 40.7814C20.2288 38.9064 18.3735 35.6232 18.3735 31.9989C18.3735 30.8787 18.5529 29.7779 18.9065 28.7274C19.1268 28.0733 18.7749 27.3643 18.1208 27.1442C17.4666 26.9242 16.7578 27.2759 16.5375 27.93C16.0973 29.238 15.874 30.607 15.874 31.999C15.874 36.5069 18.181 40.5903 22.045 42.9219C22.2471 43.0438 22.4696 43.1018 22.6895 43.1018C23.113 43.1018 23.526 42.8863 23.7608 42.4973C24.1174 41.9063 23.9274 41.1382 23.3363 40.7814Z"
    fill="#F0BE59"/>
  <path
    d="M37.3607 22.7159C34.9874 20.4812 31.8841 19.2505 28.6227 19.2505C27.0954 19.2505 25.6009 19.5182 24.1809 20.046C23.5339 20.2866 23.2044 21.006 23.4449 21.6531C23.6854 22.3002 24.4047 22.6297 25.052 22.3891C26.1925 21.9651 27.3937 21.7501 28.6229 21.7501C31.2447 21.7501 33.7394 22.7394 35.6471 24.5357C35.8885 24.7631 36.1964 24.8757 36.5036 24.8757C36.8361 24.8757 37.1679 24.7439 37.4139 24.4826C37.887 23.9801 37.8631 23.189 37.3607 22.7159Z"
    fill="#F0BE59"/>
  <path
    d="M62.7501 32.3757H53.3469V29.7899C53.3469 28.5331 52.3242 27.5104 51.0674 27.5104H49.3895C48.5303 23.5167 46.5514 19.8792 43.647 16.9747C38.7186 12.0463 31.677 9.84845 24.8104 11.0943C24.1313 11.2176 23.6805 11.8681 23.8037 12.5473C23.927 13.2266 24.5776 13.6768 25.2568 13.5539C31.3166 12.4542 37.5309 14.3937 41.8794 18.7424C44.3143 21.1773 46.0125 24.1951 46.8261 27.5106H40.0029C38.746 27.5106 37.7234 28.5332 37.7234 29.7901V32.3758H28.3201C27.6299 32.3758 27.0702 32.9356 27.0702 33.6257V41.2931C27.0702 42.4663 27.5271 43.5342 28.2712 44.3304V50.7447C23.3953 50.6614 18.8416 48.7326 15.3655 45.2563C10.9036 40.7944 8.99212 34.4341 10.2522 28.2421C10.3899 27.5657 9.95312 26.9057 9.27675 26.7681C8.60012 26.6303 7.94038 27.0672 7.80275 27.7436C6.375 34.7597 8.54125 41.9672 13.5977 47.0238C17.4885 50.9146 22.7876 53.1481 28.2711 53.2424V57.7716C28.2711 57.8888 28.279 58.0041 28.2929 58.1176C14.0402 57.9403 2.49962 46.2932 2.49962 31.9993C2.49962 27.5297 3.6365 23.1607 5.79588 19.2889L10.013 23.5261C10.2476 23.7618 10.5665 23.8943 10.8989 23.8943H18.7601L26.4667 31.6009C26.7109 31.8451 27.0308 31.9671 27.3505 31.9671C27.6704 31.9671 27.9904 31.8451 28.2342 31.6009C28.7224 31.1128 28.7224 30.3214 28.2342 29.8332L20.5275 22.1266V14.2653C20.5275 13.9333 20.3954 13.6149 20.1602 13.3804L15.9314 9.16195C19.7981 7.00982 24.1599 5.87682 28.6219 5.87682C38.7614 5.87682 48.0694 11.8234 52.3355 21.0267C52.547 21.4829 52.9985 21.7512 53.4702 21.7512C53.6462 21.7512 53.825 21.7138 53.9951 21.6349C54.6214 21.3446 54.8937 20.6016 54.6035 19.9753C52.3386 15.0893 48.7509 10.9489 44.2277 8.00195C39.5844 4.97632 34.1879 3.3772 28.622 3.3772C23.4942 3.3772 18.486 4.74332 14.0972 7.33232L10.5001 3.74357C10.1423 3.3867 9.605 3.2802 9.13838 3.47395C8.67163 3.66757 8.36763 4.12307 8.36763 4.62832V11.7117H1.26237C0.75725 11.7117 0.302 12.0156 0.10825 12.4818C-0.0855 12.9482 0.02025 13.4852 0.3765 13.8432L3.96813 17.4518C1.37063 21.8464 0 26.8626 0 31.9992C0 39.6444 2.97725 46.8322 8.38325 52.2382C13.7893 57.6443 20.977 60.6214 28.6222 60.6214L59.9476 60.6228C61.5199 60.6228 62.799 59.3438 62.799 57.7714V44.3309C63.574 43.5034 64 42.4301 64 41.2907V33.6254C64 32.9353 63.4404 32.3757 62.7501 32.3757ZM10.8673 7.6407L18.028 14.7837V19.6217L10.8673 12.4448V7.6407ZM9.09888 14.2116L16.2604 21.3941H11.4184L4.26975 14.2116H9.09888ZM40.223 30.0102H50.8469V32.3757H40.223V30.0102ZM60.2991 52.1227H52.0969C51.4066 52.1227 50.847 52.6824 50.847 53.3726C50.847 54.0627 51.4066 54.6224 52.0969 54.6224H60.2991V57.7713C60.2991 57.9653 60.1415 58.1231 59.9476 58.1231H32.6546C32.6456 58.1229 32.637 58.1217 32.628 58.1217H31.109C30.9214 58.1146 30.7708 57.9608 30.7708 57.7714V45.6807C31.0154 45.7224 31.2664 45.7454 31.5226 45.7454H41.8306C42.0522 47.5932 43.6285 49.0304 45.535 49.0304C47.4444 49.0304 49.0226 47.5887 49.2404 45.7368L59.5444 45.7433C59.5454 45.7433 59.5462 45.7433 59.5472 45.7433C59.8019 45.7433 60.053 45.7208 60.299 45.6792V52.1227H60.2991ZM44.3029 45.2984V43.1013H46.7674V45.2984C46.7674 45.9779 46.2145 46.5307 45.5351 46.5307C44.8558 46.5307 44.3029 45.9779 44.3029 45.2984ZM61.5003 41.2907C61.5003 41.8127 61.297 42.3032 60.9277 42.6721C60.5589 43.0407 60.0687 43.2437 59.5472 43.2437C59.5469 43.2437 59.5465 43.2437 59.546 43.2437L49.267 43.2372V42.0917C49.267 41.2701 48.5986 40.6016 47.7769 40.6016H43.293C42.4714 40.6016 41.8029 41.2699 41.8029 42.0917V43.2457H31.5226C30.4457 43.2457 29.5697 42.3696 29.5697 41.2928V34.8754H61.5001V41.2907H61.5003Z"
    fill="#7462E0"/>
  <path
    d="M46.8571 52.4891C46.6246 52.2566 46.3021 52.1228 45.9735 52.1228C45.6435 52.1228 45.3224 52.2564 45.0886 52.4891C44.8561 52.7216 44.7236 53.0441 44.7236 53.3727C44.7236 53.7014 44.8561 54.0238 45.0886 54.2562C45.3224 54.4887 45.6436 54.6226 45.9735 54.6226C46.3023 54.6226 46.6235 54.4888 46.8571 54.2562C47.0896 54.0238 47.2234 53.7013 47.2234 53.3727C47.2234 53.0441 47.0896 52.7216 46.8571 52.4891Z"
    fill="#F0BE59"/>
</svg>
