<svg width="64" height="64" viewBox="0 0 64 64" fill="none" xmlns="http://www.w3.org/2000/svg">
  <title>Ikona pro sekci o Interpretaci</title>
  <g clip-path="url(#clip0)">
    <path
      d="M22.715 45.8518C22.6246 45.8261 22.5321 45.8116 22.439 45.8066C23.8082 44.3675 24.6515 42.4233 24.6515 40.2848V33.7085C24.6515 33.6483 24.6457 33.5897 24.6376 33.532C24.6459 33.4132 24.6515 33.2937 24.6515 33.173V29.0122C24.6515 28.3218 24.0919 27.7622 23.4015 27.7622H15.0174C11.4867 27.7622 8.6145 30.6346 8.6145 34.1651V40.2848C8.6145 42.4233 9.45762 44.3675 10.827 45.8066C10.734 45.8116 10.6415 45.8261 10.5513 45.8518C4.64413 46.3867 0 51.3656 0 57.4096V62.7501C0 63.4405 0.559625 64.0001 1.25 64.0001H32.0159C32.7063 64.0001 33.2659 63.4405 33.2659 62.7501V57.4096C33.2659 51.3657 28.622 46.3868 22.715 45.8518ZM11.1145 35.7502V34.165C11.1145 32.013 12.8654 30.2621 15.0174 30.2621H22.1515V33.1728C22.1515 34.6382 20.9594 35.8303 19.494 35.8303H11.1145V35.7502ZM11.1145 38.3303H19.494C20.4655 38.3303 21.3749 38.0601 22.1515 37.5911V40.2847C22.1515 43.3276 19.6759 45.8032 16.633 45.8032C13.5901 45.8032 11.1145 43.3276 11.1145 40.2847V38.3303ZM19.3536 48.3033L16.633 51.0241L13.9124 48.3033H19.3536ZM30.766 61.5001H2.5V59.0001H7.6875C8.37787 59.0001 8.9375 58.4404 8.9375 57.7501C8.9375 57.0597 8.37787 56.5001 7.6875 56.5001H2.54562C2.9655 52.2856 6.27138 48.9105 10.4525 48.379L15.7491 53.6756C15.9835 53.9099 16.3015 54.0417 16.633 54.0417C16.9645 54.0417 17.2825 53.9099 17.5169 53.6756L22.8135 48.379C27.2915 48.9481 30.766 52.7795 30.766 57.4096V61.5001Z"
      fill="#7462E0"/>
    <path
      d="M53.4498 18.0898C53.3594 18.064 53.2668 18.0495 53.1735 18.0445C54.5428 16.6054 55.3859 14.6612 55.3859 12.5227V5.94625C55.3859 5.88612 55.3801 5.8275 55.372 5.76975C55.3803 5.651 55.3859 5.5315 55.3859 5.41075V1.25C55.3859 0.559625 54.8263 0 54.1359 0H45.7518C42.2211 0 39.3489 2.87238 39.3489 6.40287V12.5226C39.3489 14.6611 40.192 16.6052 41.5613 18.0444C41.4681 18.0494 41.3754 18.0639 41.285 18.0896C35.3781 18.6247 30.7344 23.6036 30.7344 29.6474V34.9878C30.7344 35.6781 31.294 36.2378 31.9844 36.2378H42.0419C42.7323 36.2378 43.2919 35.6781 43.2919 34.9878C43.2919 34.2974 42.7323 33.7378 42.0419 33.7378H33.2344V29.6475C33.2344 25.0174 36.7088 21.186 41.1868 20.6169L46.4834 25.9135C46.7275 26.1576 47.0474 26.2796 47.3673 26.2796C47.6871 26.2796 48.0071 26.1576 48.2511 25.9135L53.5478 20.6169C58.026 21.1861 61.5004 25.0174 61.5004 29.6475V33.7379H52.292C51.6016 33.7379 51.042 34.2975 51.042 34.9879C51.042 35.6783 51.6016 36.2379 52.292 36.2379H62.7504C63.4408 36.2379 64.0004 35.6783 64.0004 34.9879V29.6475C64.0004 23.6037 59.3565 18.6249 53.4498 18.0898ZM47.3675 23.2619L44.6469 20.5413H50.0881L47.3675 23.2619ZM52.886 12.5226C52.886 15.5655 50.4104 18.0411 47.3675 18.0411C44.3246 18.0411 41.849 15.5656 41.849 12.5227V10.5682H50.2285C51.2 10.5682 52.1094 10.2979 52.886 9.829V12.5226ZM52.886 5.41075C52.886 6.87612 51.6939 8.06825 50.2285 8.06825H41.849V7.98812V6.40287C41.849 4.25087 43.5999 2.5 45.7519 2.5H52.886V5.41075Z"
      fill="#7462E0"/>
    <path
      d="M48.2519 34.1037C48.0194 33.8712 47.6969 33.7374 47.3682 33.7374C47.0382 33.7374 46.7169 33.8712 46.4844 34.1037C46.2507 34.3362 46.1182 34.6587 46.1182 34.9874C46.1182 35.3174 46.2507 35.6387 46.4844 35.8712C46.7169 36.1049 47.0382 36.2374 47.3682 36.2374C47.6969 36.2374 48.0194 36.1049 48.2519 35.8712C48.4844 35.6387 48.6182 35.3174 48.6182 34.9874C48.6182 34.6587 48.4844 34.3362 48.2519 34.1037Z"
      fill="#7462E0"/>
    <path
      d="M33.4256 17.4911L28.198 12.2635V6.25C28.198 2.80375 25.3942 0 21.948 0H6.25C2.80375 0 0 2.80375 0 6.25V17.25C0 20.6962 2.80375 23.5 6.25 23.5H21.9479C24.5321 23.5 26.7856 21.9491 27.7311 19.625H32.5416C33.0471 19.625 33.503 19.3204 33.6965 18.8534C33.89 18.3864 33.783 17.8486 33.4256 17.4911ZM26.8193 17.125C26.2369 17.125 25.7316 17.5271 25.601 18.0947C25.2075 19.8052 23.7054 21 21.9479 21H6.25C4.18225 21 2.5 19.3177 2.5 17.25V6.25C2.5 4.18225 4.18225 2.5 6.25 2.5H21.9479C24.0156 2.5 25.6979 4.18225 25.6979 6.25V12.7812C25.6979 13.1127 25.8296 13.4307 26.064 13.6651L29.5239 17.125H26.8193Z"
      fill="#F0BE59"/>
    <path
      d="M57.7507 40.5H42.0528C39.4686 40.5 37.2151 42.0509 36.2696 44.375H31.4591C30.9536 44.375 30.4977 44.6796 30.3042 45.1466C30.1107 45.6136 30.2177 46.1514 30.5751 46.5089L35.8027 51.7365V57.75C35.8027 61.1962 38.6064 64 42.0527 64H57.7507C61.197 64 64.0007 61.1962 64.0007 57.75V46.75C64.0007 43.3038 61.197 40.5 57.7507 40.5ZM61.5007 57.75C61.5007 59.8177 59.8185 61.5 57.7507 61.5H42.0528C39.9851 61.5 38.3028 59.8177 38.3028 57.75V51.2188C38.3028 50.8873 38.1711 50.5692 37.9367 50.3349L34.4768 46.875H37.1814C37.7638 46.875 38.2691 46.4729 38.3997 45.9053C38.7932 44.1948 40.2953 43 42.0528 43H57.7507C59.8185 43 61.5007 44.6823 61.5007 46.75V57.75Z"
      fill="#F0BE59"/>
    <path
      d="M55.5196 48.924C55.0316 48.4358 54.2401 48.4358 53.752 48.924L50.4291 52.2468L48.884 50.7017C48.3958 50.2136 47.6043 50.2136 47.1161 50.7017C46.628 51.1898 46.628 51.9813 47.1161 52.4696L49.5451 54.8986C49.7892 55.1427 50.1091 55.2647 50.429 55.2647C50.7488 55.2647 51.0688 55.1427 51.3128 54.8986L55.5196 50.6918C56.0077 50.2037 56.0077 49.4122 55.5196 48.924Z"
      fill="#F0BE59"/>
    <path
      d="M19.7814 8.28345C19.6337 6.14008 17.9059 4.41233 15.7625 4.26458C14.5472 4.18095 13.3887 4.59095 12.5011 5.41945C11.626 6.23633 11.124 7.39133 11.124 8.58808C11.1241 9.27858 11.6838 9.8382 12.3741 9.8382C13.0645 9.8382 13.6242 9.27858 13.6242 8.5882C13.6242 8.07433 13.8312 7.59808 14.2072 7.24708C14.5825 6.89658 15.0744 6.72258 15.5908 6.75883C16.4957 6.8212 17.225 7.55058 17.2874 8.45545C17.3505 9.37033 16.7508 10.1788 15.8614 10.3778C14.8879 10.5956 14.208 11.442 14.208 12.436V13.1028C14.208 13.7932 14.7677 14.3528 15.458 14.3528C16.1484 14.3528 16.708 13.7932 16.708 13.1028V12.7391C18.6448 12.1613 19.9229 10.3355 19.7814 8.28345Z"
      fill="#F0BE59"/>
    <path
      d="M16.3427 17.0025C16.1102 16.77 15.7877 16.6362 15.459 16.6362C15.129 16.6362 14.8077 16.77 14.5752 17.0025C14.3415 17.235 14.209 17.5575 14.209 17.8862C14.209 18.215 14.3415 18.5375 14.5752 18.77C14.8077 19.0025 15.129 19.1362 15.459 19.1362C15.7877 19.1362 16.1102 19.0025 16.3427 18.77C16.5752 18.5375 16.709 18.215 16.709 17.8862C16.709 17.5575 16.5752 17.235 16.3427 17.0025Z"
      fill="#F0BE59"/>
    <path
      d="M13.5712 56.8662C13.3387 56.6337 13.0163 56.5 12.6875 56.5C12.3587 56.5 12.0363 56.6337 11.8038 56.8662C11.5713 57.0987 11.4375 57.4212 11.4375 57.75C11.4375 58.0788 11.5713 58.4013 11.8038 58.6338C12.0363 58.8663 12.3587 59 12.6875 59C13.0163 59 13.3387 58.8663 13.5712 58.6338C13.8037 58.4013 13.9375 58.0788 13.9375 57.75C13.9375 57.4212 13.8037 57.0987 13.5712 56.8662Z"
      fill="#7462E0"/>
  </g>
  <defs>
    <clipPath id="clip0">
      <rect width="64" height="64" fill="white"/>
    </clipPath>
  </defs>
</svg>
