<svg width="64" height="64" viewBox="0 0 64 64" fill="none" xmlns="http://www.w3.org/2000/svg">
  <title>Ikona pro sekci o Workshopu</title>
  <path
    d="M7.84273 61.8662C7.61023 61.6336 7.28773 61.5 6.95898 61.5C6.62898 61.5 6.30773 61.6336 6.07523 61.8662C5.84148 62.0987 5.70898 62.4212 5.70898 62.75C5.70898 63.0788 5.84148 63.4013 6.07523 63.6336C6.30773 63.8661 6.62911 64 6.95898 64C7.28773 64 7.61023 63.8663 7.84273 63.6336C8.07511 63.4013 8.20898 63.0788 8.20898 62.75C8.20898 62.4212 8.07523 62.0987 7.84273 61.8662Z"
    fill="#F0BE59"/>
  <path
    d="M46.6336 53.0325C46.4013 52.7999 46.0788 52.6663 45.75 52.6663C45.4212 52.6663 45.0987 52.7999 44.8662 53.0325C44.6337 53.2651 44.5 53.5875 44.5 53.9163C44.5 54.2463 44.6336 54.5675 44.8662 54.7999C45.0987 55.0324 45.4212 55.1663 45.75 55.1663C46.0788 55.1663 46.4013 55.0325 46.6336 54.7999C46.8661 54.5675 47 54.2461 47 53.9163C47 53.5875 46.8663 53.265 46.6336 53.0325Z"
    fill="#F0BE59"/>
  <path
    d="M59.9684 20.2025C60.9142 19.2525 61.5 17.9434 61.5 16.5V15.5C61.5 12.6051 59.1449 10.25 56.25 10.25C53.3551 10.25 51 12.6051 51 15.5V16.5C51 17.9436 51.5859 19.2528 52.532 20.2029C50.4804 21.3296 48.9904 23.3571 48.6007 25.75H42.875C40.8073 25.75 39.125 27.4323 39.125 29.5C39.125 29.9382 39.2013 30.3587 39.34 30.75H24.66C24.7987 30.3587 24.875 29.9382 24.875 29.5C24.875 27.4323 23.1927 25.75 21.125 25.75H15.3993C15.0096 23.3571 13.5196 21.3295 11.468 20.2029C12.4141 19.2528 13 17.9436 13 16.5V15.5C13 12.6051 10.6449 10.25 7.75 10.25C4.85512 10.25 2.5 12.6051 2.5 15.5V16.5C2.5 17.9434 3.08575 19.2525 4.03162 20.2025C1.63112 21.5209 0 24.0732 0 27V39.5V41.0209C0 44.9381 3.18688 48.125 7.10413 48.125H17V60.0625C17 60.5698 17.0975 61.0544 17.2729 61.5H12.3334C11.6431 61.5 11.0834 62.0597 11.0834 62.75C11.0834 63.4403 11.6431 64 12.3334 64H57.0416C57.7319 64 58.2916 63.4403 58.2916 62.75C58.2916 62.0597 57.7319 61.5 57.0416 61.5H46.7271C46.9025 61.0544 47 60.5698 47 60.0625V58.625C47 57.9347 46.4403 57.375 45.75 57.375C45.0597 57.375 44.5 57.9347 44.5 58.625V60.0625C44.5 60.8551 43.8551 61.5 43.0625 61.5C42.2699 61.5 41.625 60.8551 41.625 60.0625V44.2812C41.625 42.3341 43.2091 40.75 45.1562 40.75H49.75H50.75H61.5V41.0209C61.5 43.5596 59.4346 45.625 56.8959 45.625H45.75C45.0597 45.625 44.5 46.1847 44.5 46.875V48.875C44.5 49.5653 45.0597 50.125 45.75 50.125C46.4403 50.125 47 49.5653 47 48.875V48.125H56.8959C60.8131 48.125 64 44.9381 64 41.0209V39.5V27C64 24.0732 62.3689 21.5209 59.9684 20.2025ZM53.5 15.5C53.5 13.9836 54.7336 12.75 56.25 12.75C57.7664 12.75 59 13.9836 59 15.5V16.5C59 18.0164 57.7664 19.25 56.25 19.25C54.7336 19.25 53.5 18.0164 53.5 16.5V15.5ZM5 15.5C5 13.9836 6.23362 12.75 7.75 12.75C9.26637 12.75 10.5 13.9836 10.5 15.5V16.5C10.5 18.0164 9.26637 19.25 7.75 19.25C6.23362 19.25 5 18.0164 5 16.5V15.5ZM2.5 27C2.5 24.1051 4.85512 21.75 7.75 21.75C10.6449 21.75 13 24.1051 13 27C13 27.6903 13.5597 28.25 14.25 28.25H21.125C21.8143 28.25 22.375 28.8107 22.375 29.5C22.375 30.1893 21.8143 30.75 21.125 30.75H13.8456C11.8581 30.75 10.0405 29.6616 9.10188 27.9096C8.776 27.3011 8.01825 27.072 7.40975 27.3981C6.80125 27.724 6.57225 28.4816 6.89825 29.0903C8.14962 31.4261 10.4681 32.9565 13.0699 33.212C13.0246 33.3413 13 33.4804 13 33.625V38.25H2.5V27ZM17.9228 38.25H15.5V33.625C15.5 33.4944 15.48 33.3684 15.4427 33.25H17.9228C17.4959 33.986 17.25 34.8396 17.25 35.75C17.25 36.6604 17.4958 37.514 17.9228 38.25ZM22.375 60.0625C22.375 60.8551 21.7301 61.5 20.9375 61.5C20.1449 61.5 19.5 60.8551 19.5 60.0625V46.875C19.5 46.1847 18.9403 45.625 18.25 45.625H7.10413C4.56538 45.625 2.5 43.5596 2.5 41.0209V40.75H13.25H14.25H18.8438C20.7909 40.75 22.375 42.3341 22.375 44.2812V60.0625ZM28.25 61.5H24.6021C24.7776 61.0544 24.875 60.5698 24.875 60.0625V44.2812C24.875 42.9632 24.4489 41.7435 23.7286 40.75H28.25V61.5ZM33.25 61.5H30.75V40.75H33.25V61.5ZM39.3979 61.5H35.75V40.75H40.2714C39.5513 41.7435 39.125 42.9632 39.125 44.2812V60.0625C39.125 60.5698 39.2225 61.0544 39.3979 61.5ZM41.75 38.25H22.25C20.8715 38.25 19.75 37.1285 19.75 35.75C19.75 34.3715 20.8715 33.25 22.25 33.25H41.75C43.1285 33.25 44.25 34.3715 44.25 35.75C44.25 37.1285 43.1285 38.25 41.75 38.25ZM48.5 33.625V38.25H46.0773C46.5041 37.514 46.75 36.6604 46.75 35.75C46.75 34.8396 46.5042 33.986 46.0773 33.25H48.5573C48.52 33.3684 48.5 33.4944 48.5 33.625ZM61.5 38.25H51V33.625C51 33.4804 50.9754 33.3413 50.9301 33.212C53.5319 32.9565 55.8504 31.4261 57.1017 29.0903C57.4277 28.4816 57.1987 27.724 56.5902 27.3981C55.9815 27.0721 55.2241 27.3014 54.8981 27.9096C53.9595 29.6616 52.1419 30.75 50.1544 30.75H42.875C42.1857 30.75 41.625 30.1893 41.625 29.5C41.625 28.8107 42.1857 28.25 42.875 28.25H49.75C50.4403 28.25 51 27.6903 51 27C51 24.1051 53.3551 21.75 56.25 21.75C59.1449 21.75 61.5 24.1051 61.5 27V38.25Z"
    fill="#7462E0"/>
  <path
    d="M41 0H23C20.9323 0 19.25 1.68225 19.25 3.75V16C19.25 18.0677 20.9323 19.75 23 19.75H27.3571L31.116 23.5089C31.3602 23.7529 31.68 23.875 32 23.875C32.32 23.875 32.6398 23.7529 32.8839 23.5089L36.6429 19.75H41C43.0677 19.75 44.75 18.0677 44.75 16V3.75C44.75 1.68225 43.0677 0 41 0ZM42.25 16C42.25 16.6893 41.6893 17.25 41 17.25H36.125C35.7935 17.25 35.4756 17.3818 35.2411 17.6161L32 20.8571L28.7589 17.616C28.5244 17.3818 28.2065 17.25 27.875 17.25H23C22.3108 17.25 21.75 16.6893 21.75 16V3.75C21.75 3.06075 22.3108 2.5 23 2.5H41C41.6893 2.5 42.25 3.06075 42.25 3.75V16Z"
    fill="#F0BE59"/>
  <path
    d="M27.0086 8.51249C26.7763 8.27874 26.4538 8.14624 26.125 8.14624C25.7962 8.14624 25.4737 8.27874 25.2412 8.51249C25.0087 8.74499 24.875 9.06749 24.875 9.39624C24.875 9.72499 25.0086 10.0475 25.2412 10.28C25.4737 10.5125 25.7962 10.6462 26.125 10.6462C26.4538 10.6462 26.7763 10.5125 27.0086 10.28C27.2411 10.0475 27.375 9.72499 27.375 9.39624C27.375 9.06749 27.2413 8.74499 27.0086 8.51249Z"
    fill="#F0BE59"/>
  <path
    d="M32.8836 8.51249C32.6513 8.28012 32.3288 8.14624 32 8.14624C31.6712 8.14624 31.3487 8.27999 31.1162 8.51249C30.8837 8.74499 30.75 9.06749 30.75 9.39624C30.75 9.72499 30.8836 10.0475 31.1162 10.28C31.3487 10.5125 31.6712 10.6462 32 10.6462C32.3288 10.6462 32.6513 10.5125 32.8836 10.28C33.1161 10.0475 33.25 9.72499 33.25 9.39624C33.25 9.06749 33.1163 8.74499 32.8836 8.51249Z"
    fill="#F0BE59"/>
  <path
    d="M38.7586 8.51249C38.5263 8.27874 38.2038 8.14624 37.875 8.14624C37.5462 8.14624 37.2237 8.27874 36.9912 8.51249C36.7587 8.74499 36.625 9.06749 36.625 9.39624C36.625 9.72499 36.7586 10.0475 36.9912 10.28C37.2237 10.5125 37.5462 10.6462 37.875 10.6462C38.2038 10.6462 38.5263 10.5125 38.7586 10.28C38.9911 10.0475 39.125 9.72499 39.125 9.39624C39.125 9.06749 38.9913 8.74499 38.7586 8.51249Z"
    fill="#F0BE59"/>
</svg>
