<svg width="64" height="64" viewBox="0 0 64 64" fill="none" xmlns="http://www.w3.org/2000/svg">
  <title>Ikona pro sekci o Interpretace</title>
  <path
    d="M45.3672 0H8.61719C6.54944 0 4.86719 1.68225 4.86719 3.75V16.5C4.86719 17.1904 5.42694 17.75 6.11719 17.75C6.80744 17.75 7.36719 17.1904 7.36719 16.5V3.75C7.36719 3.06075 7.92794 2.5 8.61719 2.5H45.3672C46.0564 2.5 46.6172 3.06075 46.6172 3.75V50.25C46.6172 50.9393 46.0564 51.5 45.3672 51.5H8.61719C7.92794 51.5 7.36719 50.9393 7.36719 50.25V27.0416C7.36719 26.3512 6.80744 25.7916 6.11719 25.7916C5.42694 25.7916 4.86719 26.3512 4.86719 27.0416V50.25C4.86719 52.3177 6.54944 54 8.61719 54H45.3672C47.4349 54 49.1172 52.3177 49.1172 50.25V3.75C49.1172 1.68225 47.4349 0 45.3672 0Z"
    fill="#7462E0"/>
  <path
    d="M7.00081 21.2125C6.76844 20.98 6.44594 20.8475 6.11719 20.8475C5.78844 20.8475 5.46594 20.98 5.23344 21.2125C5.00081 21.4463 4.86719 21.7688 4.86719 22.0963C4.86719 22.4263 5.00094 22.7475 5.23344 22.9813C5.46594 23.2138 5.78844 23.3475 6.11719 23.3475C6.44581 23.3475 6.76831 23.2138 7.00081 22.9813C7.23344 22.7488 7.36719 22.4263 7.36719 22.0963C7.36719 21.7675 7.23331 21.4463 7.00081 21.2125Z"
    fill="#F0BE59"/>
  <path
    d="M12.0083 56.8737C11.7758 56.6412 11.4546 56.5074 11.1245 56.5074C10.7958 56.5074 10.4733 56.6412 10.2409 56.8737C10.0083 57.1062 9.87451 57.4287 9.87451 57.7574C9.87451 58.0874 10.0084 58.4087 10.2409 58.6412C10.4733 58.8749 10.7958 59.0074 11.1245 59.0074C11.4546 59.0074 11.7758 58.8749 12.0083 58.6412C12.2409 58.4087 12.3745 58.0874 12.3745 57.7574C12.3745 57.4287 12.2408 57.1062 12.0083 56.8737Z"
    fill="#F0BE59"/>
  <path
    d="M52.875 5.00781C52.1847 5.00781 51.625 5.56744 51.625 6.25781V55.2578C51.625 55.9471 51.0643 56.5078 50.375 56.5078H16.125C15.4348 56.5078 14.875 57.0674 14.875 57.7578C14.875 58.4482 15.4348 59.0078 16.125 59.0078H50.375C52.4427 59.0078 54.125 57.3256 54.125 55.2578V6.25781C54.125 5.56744 53.5653 5.00781 52.875 5.00781Z"
    fill="#7462E0"/>
  <path
    d="M57.8828 10C57.1926 10 56.6328 10.5596 56.6328 11.25V60.25C56.6328 60.9393 56.0721 61.5 55.3828 61.5H16.1328C15.4426 61.5 14.8828 62.0596 14.8828 62.75C14.8828 63.4404 15.4426 64 16.1328 64H55.3828C57.4506 64 59.1328 62.3177 59.1328 60.25V11.25C59.1328 10.5596 58.5731 10 57.8828 10Z"
    fill="#7462E0"/>
  <path
    d="M25.1172 9.25H13.1172C12.4269 9.25 11.8672 9.80963 11.8672 10.5V22.5C11.8672 23.1904 12.4269 23.75 13.1172 23.75H25.1172C25.8074 23.75 26.3672 23.1904 26.3672 22.5V10.5C26.3672 9.80963 25.8074 9.25 25.1172 9.25ZM23.8672 21.25H14.3672V11.75H23.8672V21.25Z"
    fill="#F0BE59"/>
  <path
    d="M21.0954 29.4253C20.6072 28.9373 19.8159 28.9371 19.3275 29.4253L16.0047 32.7481L14.4597 31.203C13.9715 30.7149 13.1803 30.715 12.6918 31.203C12.2037 31.6911 12.2037 32.4826 12.6918 32.9708L15.1208 35.3998C15.3553 35.6341 15.6732 35.7659 16.0047 35.7659C16.3363 35.7659 16.654 35.6341 16.8887 35.3998L21.0954 31.193C21.5835 30.7049 21.5835 29.9134 21.0954 29.4253Z"
    fill="#F0BE59"/>
  <path
    d="M41.5756 31.125H26.9922C26.3019 31.125 25.7422 31.6846 25.7422 32.375C25.7422 33.0654 26.3019 33.625 26.9922 33.625H41.5756C42.2658 33.625 42.8256 33.0654 42.8256 32.375C42.8256 31.6846 42.2658 31.125 41.5756 31.125Z"
    fill="#F0BE59"/>
  <path
    d="M40.8672 9.25H32.1172C31.4269 9.25 30.8672 9.80963 30.8672 10.5C30.8672 11.1904 31.4269 11.75 32.1172 11.75H40.8672C41.5575 11.75 42.1172 11.1904 42.1172 10.5C42.1172 9.80963 41.5575 9.25 40.8672 9.25Z"
    fill="#F0BE59"/>
  <path
    d="M40.8672 15.25H32.1172C31.4269 15.25 30.8672 15.8096 30.8672 16.5C30.8672 17.1904 31.4269 17.75 32.1172 17.75H40.8672C41.5575 17.75 42.1172 17.1904 42.1172 16.5C42.1172 15.8096 41.5575 15.25 40.8672 15.25Z"
    fill="#F0BE59"/>
  <path
    d="M40.8672 21.25H32.1172C31.4269 21.25 30.8672 21.8096 30.8672 22.5C30.8672 23.1904 31.4269 23.75 32.1172 23.75H40.8672C41.5575 23.75 42.1172 23.1904 42.1172 22.5C42.1172 21.8096 41.5575 21.25 40.8672 21.25Z"
    fill="#F0BE59"/>
  <path
    d="M21.0954 38.9713C20.6072 38.4833 19.8159 38.4831 19.3275 38.9713L16.0047 42.2941L14.4597 40.749C13.9715 40.2609 13.1803 40.261 12.6918 40.749C12.2037 41.2371 12.2037 42.0286 12.6918 42.5168L15.1208 44.9458C15.3553 45.1801 15.6732 45.3119 16.0047 45.3119C16.3363 45.3119 16.654 45.1801 16.8887 44.9458L21.0954 40.739C21.5835 40.2509 21.5835 39.4594 21.0954 38.9713Z"
    fill="#F0BE59"/>
  <path
    d="M41.5756 40.625H26.9922C26.3019 40.625 25.7422 41.1846 25.7422 41.875C25.7422 42.5654 26.3019 43.125 26.9922 43.125H41.5756C42.2658 43.125 42.8256 42.5654 42.8256 41.875C42.8256 41.1846 42.2658 40.625 41.5756 40.625Z"
    fill="#F0BE59"/>
</svg>
