<svg width="42" height="42" viewBox="0 0 42 42" fill="none" xmlns="http://www.w3.org/2000/svg">
  <title>Ikona pro sekci Cashflow</title>
  <circle cx="21" cy="21" r="21" fill="#7462E0"/>
<path d="M30.2099 24.89C29.5737 26.3945 28.5787 27.7202 27.3118 28.7513C26.0449 29.7824 24.5447 30.4874 22.9424 30.8048C21.34 31.1222 19.6843 31.0422 18.1201 30.5718C16.5558 30.1015 15.1305 29.2551 13.9689 28.1067C12.8073 26.9583 11.9447 25.5428 11.4565 23.984C10.9684 22.4252 10.8695 20.7705 11.1685 19.1647C11.4675 17.5588 12.1554 16.0506 13.172 14.772C14.1885 13.4934 15.5028 12.4833 16.9999 11.83" stroke="white" stroke-width="2" stroke-linecap="round" stroke-linejoin="round"/>
<path d="M31 21C31 19.6868 30.7413 18.3864 30.2388 17.1732C29.7362 15.9599 28.9997 14.8575 28.0711 13.9289C27.1425 13.0003 26.0401 12.2638 24.8268 11.7612C23.6136 11.2587 22.3132 11 21 11V21H31Z" stroke="white" stroke-width="2" stroke-linecap="round" stroke-linejoin="round"/>
</svg>
