<svg width="42" height="42" viewBox="0 0 42 42" fill="none" xmlns="http://www.w3.org/2000/svg">
<title>Ikona pro sekci Prodej externích portálech</title>
  <circle cx="21" cy="21" r="21" fill="#7462E0"/>
<path d="M16 12.6666L13.5 16V27.6666C13.5 28.1087 13.6756 28.5326 13.9882 28.8451C14.3007 29.1577 14.7246 29.3333 15.1667 29.3333H26.8333C27.2754 29.3333 27.6993 29.1577 28.0118 28.8451C28.3244 28.5326 28.5 28.1087 28.5 27.6666V16L26 12.6666H16Z" stroke="white" stroke-width="2" stroke-linecap="round" stroke-linejoin="round"/>
<path d="M13.5 16H28.5" stroke="white" stroke-width="2" stroke-linecap="round" stroke-linejoin="round"/>
<path d="M24.3332 19.3334C24.3332 20.2174 23.982 21.0653 23.3569 21.6904C22.7317 22.3155 21.8839 22.6667 20.9998 22.6667C20.1158 22.6667 19.2679 22.3155 18.6428 21.6904C18.0177 21.0653 17.6665 20.2174 17.6665 19.3334" stroke="white" stroke-width="2" stroke-linecap="round" stroke-linejoin="round"/>
</svg>
