<svg width="16" height="16" viewBox="0 0 16 16" fill="none" xmlns="http://www.w3.org/2000/svg">
<title>Check Icon for List</title>
  <path d="M13.5275 7.92392C13.1627 7.8575 12.8267 8.10342 12.7663 8.4631C12.5283 9.85282 11.7641 11.0649 10.6145 11.8767C9.46859 12.6885 8.07206 13.0027 6.69031 12.7618C5.3074 12.527 4.09918 11.7658 3.2885 10.619C2.47566 9.47122 2.15949 8.07752 2.39745 6.69278C2.88598 3.8353 5.61577 1.9054 8.47342 2.39311C8.83525 2.45555 9.17318 2.21277 9.23462 1.85393C9.29606 1.49425 9.05411 1.15417 8.69543 1.09273C5.12923 0.489118 1.70948 2.89559 1.0969 6.46994C0.798666 8.20156 1.19404 9.94498 2.21113 11.3812C3.2269 12.8164 4.73866 13.7689 6.46614 14.0623C6.84491 14.1278 7.22451 14.1605 7.60113 14.1605C8.94518 14.1605 10.2545 13.7472 11.3756 12.9552C12.8136 11.9393 13.7693 10.4227 14.0665 8.68528C14.1281 8.32644 13.8872 7.98536 13.5275 7.92392Z" fill="#7462E0"/>
<path d="M15.1015 2.19688C14.8695 1.91542 14.4522 1.87872 14.1728 2.1107L7.63483 7.52942L5.86452 5.66611C5.61377 5.40142 5.19448 5.39162 4.93178 5.64137C4.66709 5.89311 4.65613 6.31041 4.90704 6.57394L7.10246 8.88443C7.23232 9.02126 7.40667 9.09051 7.5812 9.09051C7.72998 9.09051 7.8796 9.04003 8.00248 8.9379L15.0152 3.12563C15.2958 2.89382 15.3343 2.47751 15.1015 2.19688Z" fill="#7462E0"/>
</svg>
