<svg width="42" height="42" viewBox="0 0 42 42" fill="none" xmlns="http://www.w3.org/2000/svg">
<title>Ikona pro sekci Propojení systémů</title>
  <circle cx="21" cy="21" r="21" fill="#7462E0"/>
<path d="M26.5 29.25C28.0188 29.25 29.25 28.0188 29.25 26.5C29.25 24.9812 28.0188 23.75 26.5 23.75C24.9812 23.75 23.75 24.9812 23.75 26.5C23.75 28.0188 24.9812 29.25 26.5 29.25Z" stroke="white" stroke-width="2" stroke-linecap="round" stroke-linejoin="round"/>
<path d="M15.5 18.25C17.0188 18.25 18.25 17.0188 18.25 15.5C18.25 13.9812 17.0188 12.75 15.5 12.75C13.9812 12.75 12.75 13.9812 12.75 15.5C12.75 17.0188 13.9812 18.25 15.5 18.25Z" stroke="white" stroke-width="2" stroke-linecap="round" stroke-linejoin="round"/>
<path d="M21.9165 15.5H24.6665C25.1527 15.5 25.619 15.6932 25.9629 16.037C26.3067 16.3808 26.4998 16.8471 26.4998 17.3333V23.75" stroke="white" stroke-width="2" stroke-linecap="round" stroke-linejoin="round"/>
<path d="M15.5 18.25V29.25" stroke="white" stroke-width="2" stroke-linecap="round" stroke-linejoin="round"/>
</svg>
