<svg width="100" height="100" viewBox="0 0 100 100" fill="none" xmlns="http://www.w3.org/2000/svg">
 <title>Ikona Zisku</title>
  <path
    d="M76.4861 39.7421C73.4515 38.5999 70.236 38.0135 66.9936 38.0115C52.0768 38.0197 39.991 50.119 39.9993 65.0358C40.0011 68.2798 40.5873 71.4971 41.7299 74.5334L44.5358 73.4746C39.871 61.084 46.1343 47.2578 58.5249 42.593C70.9155 37.9282 84.7417 44.1915 89.4065 56.5821C94.0712 68.9727 87.808 82.7989 75.4174 87.4637C69.9731 89.5134 63.9693 89.5134 58.5249 87.4637L57.4661 90.2696C71.4188 95.5219 86.9877 88.4686 92.2397 74.5159C97.4922 60.563 90.439 44.9944 76.4861 39.7421Z"
    fill="#7462E0"/>
  <path
    d="M73.7299 53.3122C67.2727 49.5881 59.019 51.8039 55.2949 58.2612C52.888 62.4345 52.888 67.5743 55.2949 71.7473L57.8908 70.2476C54.996 65.2242 56.7216 58.8052 61.7452 55.9106C66.7688 53.016 73.1876 54.7414 76.0822 59.765C78.977 64.7884 77.2514 71.2074 72.228 74.102C70.6357 75.0196 68.8303 75.5031 66.9924 75.504C65.15 75.5046 63.3397 75.0204 61.7435 74.1003L60.2438 76.6963C66.7011 80.4204 74.9548 78.2046 78.6789 71.7473C82.403 65.29 80.1872 57.0363 73.7299 53.3122Z"
    fill="#7462E0"/>
  <path
    d="M75.0157 45.6571C64.3195 41.2115 52.045 46.2785 47.5993 56.9747C45.4533 62.1381 45.458 67.9445 47.6123 73.1044L50.3807 71.9466C46.5625 62.7818 50.8966 52.2572 60.0614 48.439C69.2261 44.6208 79.7507 48.9551 83.5689 58.1197C87.3871 67.2843 83.0529 77.8091 73.8883 81.6273C69.4672 83.4693 64.4939 83.4708 60.0717 81.6316L58.9169 84.391C69.613 88.8366 81.8876 83.7696 86.3332 73.0734C90.7787 62.3775 85.7118 50.1027 75.0157 45.6571Z"
    fill="#7462E0"/>
  <path
    d="M66.9925 59.0075C63.6795 59.0075 60.9938 61.6933 60.9938 65.0063C60.999 66.0738 61.2928 67.1201 61.8441 68.0341L52.9959 76.8823L46.2968 75.5341C45.718 75.4184 45.125 75.6533 44.7822 76.1339L37.2837 86.6317C36.8029 87.306 36.9596 88.2426 37.6339 88.7234C37.7561 88.8106 37.8909 88.879 38.0336 88.9263L39.1733 89.3057C35.2728 91.0783 31.0388 91.9971 26.7544 92.0006H8.50472C7.67652 92.0006 7.00504 91.3291 7.00504 90.5009C7.00504 89.6727 7.67652 89.0013 8.50472 89.0013H29.5003C31.9851 89.0013 33.9994 86.987 33.9994 84.5022C33.9994 82.0174 31.9851 80.0031 29.5003 80.0031H8.50472C7.67652 80.0031 7.00504 79.3316 7.00504 78.5034C7.00504 77.6752 7.67652 77.0038 8.50472 77.0038H19.0025C23.484 76.9989 27.2787 73.6971 27.9032 69.2594C29.7452 68.6586 30.9938 66.9439 31 65.0063V63.5066C33.4848 63.5066 35.4991 61.4923 35.4991 59.0075V48.1183C46.8857 43.1487 52.0879 29.8894 47.1183 18.5028C42.1487 7.11628 28.8894 1.91425 17.5028 6.88365C6.11628 11.853 0.914245 25.1125 5.88365 36.4991C8.15305 41.6987 12.3032 45.8489 17.5028 48.1183V59.0075C17.5028 61.4923 19.5171 63.5066 22.0019 63.5066V65.0063C22.0068 66.8617 23.1503 68.524 24.8813 69.1919C24.314 71.989 21.8566 74.0008 19.0025 74.0044H8.50472C6.01993 74.0044 4.00566 76.0186 4.00566 78.5034C4.00566 80.9882 6.01993 83.0025 8.50472 83.0025H29.5003C30.3285 83.0025 31 83.674 31 84.5022C31 85.3304 30.3285 86.0019 29.5003 86.0019H8.50472C6.01993 86.0019 4.00566 88.0161 4.00566 90.5009C4.00566 92.9857 6.01993 95 8.50472 95H26.7544C32.118 94.9961 37.4003 93.6878 42.1457 91.1878L43.074 93.9742C43.2782 94.5868 43.8514 95.0002 44.4972 95C44.8099 95.0007 45.1149 94.9025 45.3685 94.7196L55.8663 87.2211C56.3464 86.8786 56.5811 86.2864 56.4662 85.7079L55.124 78.9968L63.9721 70.1487C64.8836 70.7008 65.927 70.9966 66.9925 71.005C70.3055 71.005 72.9913 68.3193 72.9913 65.0063C72.9913 61.6933 70.3057 59.0075 66.9925 59.0075ZM28.0007 65.0063C28.0007 65.8345 27.3292 66.5059 26.501 66.5059C25.6728 66.5059 25.0013 65.8345 25.0013 65.0063V63.5066H28.0007V65.0063ZM32.4997 56.0081H20.5022V54.5085H32.4997V56.0081ZM32.4997 51.5091H20.5022V49.1726C22.4546 49.722 24.4726 50.0036 26.501 50.0094C28.5293 50.0036 30.5473 49.722 32.4997 49.1726V51.5091ZM25.5022 36.5122H27.4953L26.6209 47.01C26.5805 47.01 26.5415 47.01 26.501 47.01C26.4605 47.01 26.4215 47.01 26.381 47.01L25.5022 36.5122ZM7.00504 27.5141C6.99248 16.7469 15.7109 8.00804 26.4781 7.99529C37.2455 7.98273 45.9843 16.701 45.9969 27.4683C46.0081 37.0287 39.0852 45.1868 29.6503 46.7311L30.5021 36.5122H33.9994C37.3124 36.5115 39.9976 33.8251 39.9968 30.5121C39.9961 27.1992 37.3098 24.514 33.9968 24.5147C30.7327 24.5155 28.0683 27.1257 28.0007 30.389L27.7457 33.5128H25.2517L25.0013 30.5135C25.0013 27.2005 22.3155 24.5147 19.0025 24.5147C15.6895 24.5147 13.0038 27.2005 13.0038 30.5135C13.0038 33.8265 15.6895 36.5122 19.0025 36.5122H22.4968L23.3486 46.7311C13.9351 45.183 7.02172 37.0542 7.00504 27.5141ZM30.7511 33.5128L31 30.5135C31 28.8569 32.3428 27.5141 33.9994 27.5141C35.656 27.5141 36.9988 28.8569 36.9988 30.5135C36.9988 32.1701 35.656 33.5128 33.9994 33.5128H30.7511ZM22.2464 33.5128H19.0025C17.3459 33.5128 16.0032 32.1701 16.0032 30.5135C16.0032 28.8569 17.3459 27.5141 19.0025 27.5141C20.6805 27.5349 22.0238 28.9122 22.0028 30.5899C22.0027 30.6059 22.0023 30.622 22.0019 30.6379L22.2464 33.5128ZM22.0019 60.5072C21.1737 60.5072 20.5022 59.8357 20.5022 59.0075H32.4997C32.4997 59.8357 31.8282 60.5072 31 60.5072H22.0019ZM42.5926 87.2856L40.898 86.7202L46.6538 78.6639L50.454 79.4242L42.5926 87.2856ZM45.2785 91.1008L44.7132 89.4077L52.5745 81.5478L53.3334 85.345L45.2785 91.1008ZM66.9925 68.0056C66.7333 68.0021 66.4755 67.9642 66.2262 67.8932L68.0528 66.0665L65.9322 63.946L64.1056 65.7726C64.0346 65.5233 63.9967 65.2655 63.9931 65.0063C63.9931 63.3497 65.3359 62.0069 66.9925 62.0069C68.6491 62.0069 69.9919 63.3497 69.9919 65.0063C69.9919 66.6629 68.6491 68.0056 66.9925 68.0056Z"
    fill="#7462E0"/>
  <path
    d="M59.4011 28.2985C59.4641 27.4917 59.4956 26.7448 59.4956 26.0145C59.5093 19.2711 57.4438 12.6875 53.5808 7.1604L51.1213 8.87604C55.4571 15.0214 57.2732 22.5946 56.1963 30.0381C56.1294 30.5341 56.3146 31.0309 56.6897 31.3623C57.0659 31.694 57.5833 31.8156 58.0679 31.6863C66.9065 29.3541 76.3078 30.5932 84.2404 35.1356L85.7401 32.5381C77.7685 27.968 68.4043 26.4608 59.4011 28.2985Z"
    fill="#7462E0"/>
  <path
    d="M91.791 36.887L89.8069 39.1365C90.8884 40.0905 91.9093 41.1114 92.8633 42.1929L95.1128 40.2058C94.0748 39.0323 92.9656 37.924 91.791 36.887Z"
    fill="#7462E0"/>
  <path fill-rule="evenodd" clip-rule="evenodd"
        d="M93.0271 10.2754L90.2878 12.9776C89.9089 13.3545 89.903 13.9703 90.2767 14.3511C90.4642 14.5451 90.7129 14.6421 90.9648 14.6421C91.2082 14.6421 91.4543 14.5516 91.6438 14.3661L94.3831 11.6645C94.7626 11.287 94.7684 10.6712 94.3948 10.2903C94.2073 10.0963 93.9573 10 93.706 10C93.4613 10 93.2159 10.0918 93.0271 10.2754Z"
        fill="#F0BE59"/>
  <path fill-rule="evenodd" clip-rule="evenodd"
        d="M89.6783 4.28317L81.2827 12.7315C80.9058 13.1104 80.9058 13.7262 81.2827 14.1051C81.4728 14.2939 81.7201 14.3883 81.9675 14.3883C82.2155 14.3883 82.4629 14.2939 82.6504 14.1051L91.0467 5.65739C91.4229 5.27852 91.4229 4.66269 91.0467 4.28317C90.8572 4.09439 90.6099 4 90.3618 4C90.1145 4 89.8671 4.09439 89.6783 4.28317Z"
        fill="#F0BE59"/>
  <path fill-rule="evenodd" clip-rule="evenodd"
        d="M64.1667 8.51452C64.1667 8.23036 64.3971 8 64.6812 8C64.9654 8 65.1957 8.23036 65.1957 8.51452V10.317L66.3545 8.93611C66.5371 8.71843 66.8616 8.69004 67.0793 8.87269C67.297 9.05534 67.3254 9.37988 67.1427 9.59756L65.9844 10.978L67.7589 10.6651C68.0388 10.6158 68.3056 10.8026 68.355 11.0825C68.4043 11.3623 68.2175 11.6292 67.9376 11.6785L66.1629 11.9914L67.7237 12.8925C67.9698 13.0346 68.0541 13.3493 67.912 13.5954C67.7699 13.8415 67.4553 13.9258 67.2092 13.7837L65.6484 12.8826L66.2648 14.5761C66.362 14.8431 66.2243 15.1384 65.9573 15.2356C65.6902 15.3328 65.395 15.1951 65.2978 14.9281L64.6814 13.2344L64.0649 14.9281C63.9677 15.1951 63.6725 15.3328 63.4055 15.2356C63.1384 15.1384 63.0008 14.8431 63.0979 14.5761L63.7143 12.8827L62.1538 13.7837C61.9077 13.9257 61.593 13.8414 61.4509 13.5953C61.3088 13.3492 61.3931 13.0346 61.6392 12.8925L63.1999 11.9915L61.4253 11.6785C61.1454 11.6292 60.9586 11.3623 61.0079 11.0825C61.0572 10.8027 61.3241 10.6158 61.6039 10.6651L63.3787 10.9781L62.2203 9.59755C62.0376 9.37987 62.066 9.05534 62.2837 8.87269C62.5014 8.69003 62.8259 8.71842 63.0086 8.9361L64.1667 10.3163V8.51452ZM64.4218 11.017C64.3921 11.1001 64.3405 11.1767 64.268 11.2375C64.1955 11.2984 64.1111 11.3358 64.024 11.3506C64.0548 11.4335 64.0646 11.5253 64.0481 11.6186C64.0317 11.7118 63.9911 11.7948 63.9339 11.8621C64.0106 11.9058 64.0771 11.9698 64.1244 12.0518C64.1718 12.1338 64.194 12.2235 64.1934 12.3118C64.2803 12.296 64.3724 12.3023 64.4613 12.3346C64.5503 12.367 64.625 12.4215 64.6814 12.4895C64.7377 12.4215 64.8124 12.3671 64.9014 12.3346C64.9904 12.3022 65.0826 12.2959 65.1695 12.3118C65.169 12.2235 65.1912 12.1339 65.2385 12.0518C65.2859 11.9698 65.3524 11.9058 65.4291 11.8621C65.3719 11.7948 65.3312 11.7118 65.3148 11.6185C65.2983 11.5253 65.3081 11.4334 65.3388 11.3506C65.2518 11.3358 65.1675 11.2984 65.095 11.2375C65.0224 11.1766 64.9709 11.0999 64.9412 11.0167C64.8649 11.0614 64.776 11.0871 64.6812 11.0871C64.5866 11.0871 64.4979 11.0616 64.4218 11.017Z"
        fill="#F0BE59"/>
  <path fill-rule="evenodd" clip-rule="evenodd"
        d="M8.27841 3C9.53675 3 10.5568 4.02008 10.5568 5.27842C10.5568 6.53675 9.53675 7.55684 8.27841 7.55684C7.02008 7.55684 6 6.53675 6 5.27842C6 4.02008 7.02008 3 8.27841 3ZM8.27829 3.65098C7.37948 3.65098 6.65085 4.37961 6.65085 5.27842C6.65085 6.17723 7.37948 6.90586 8.27829 6.90586C9.1771 6.90586 9.90573 6.17723 9.90573 5.27842C9.90573 4.37961 9.1771 3.65098 8.27829 3.65098Z"
        fill="#F0BE59"/>
  <path fill-rule="evenodd" clip-rule="evenodd"
        d="M11 49C13.7614 49 16 51.2386 16 54C16 56.7614 13.7614 59 11 59C8.23858 59 6 56.7614 6 54C6 51.2386 8.23858 49 11 49ZM10.9998 50.4284C9.02734 50.4284 7.42836 52.0273 7.42836 53.9998C7.42836 55.9722 9.02734 57.5712 10.9998 57.5712C12.9722 57.5712 14.5712 55.9722 14.5712 53.9998C14.5712 52.0273 12.9722 50.4284 10.9998 50.4284Z"
        fill="#F0BE59"/>
  <path fill-rule="evenodd" clip-rule="evenodd"
        d="M85.0246 92.5041C85.0246 92.2257 84.7989 92 84.5205 92C84.2421 92 84.0164 92.2257 84.0164 92.5041V94.0164H82.5041C82.2257 94.0164 82 94.2421 82 94.5206C82 94.799 82.2257 95.0247 82.5041 95.0247H84.0164V96.537C84.0164 96.8154 84.2421 97.0411 84.5205 97.0411C84.7989 97.0411 85.0246 96.8154 85.0246 96.537V95.0247H86.537C86.8154 95.0247 87.0411 94.799 87.0411 94.5206C87.0411 94.2421 86.8154 94.0164 86.537 94.0164H85.0246V92.5041Z"
        fill="#F0BE59"/>
  <path fill-rule="evenodd" clip-rule="evenodd"
        d="M86.15 18C88.4419 18 90.2999 19.858 90.2999 22.15C90.2999 24.4419 88.4419 26.2999 86.15 26.2999C83.858 26.2999 82 24.4419 82 22.15C82 19.858 83.858 18 86.15 18ZM86.1498 19.1857C84.5127 19.1857 83.1856 20.5128 83.1856 22.1499C83.1856 23.7871 84.5127 25.1142 86.1498 25.1142C87.787 25.1142 89.1141 23.7871 89.1141 22.1499C89.1141 20.5128 87.787 19.1857 86.1498 19.1857Z"
        fill="#F0BE59"/>
</svg>
