<?xml version="1.0" encoding="UTF-8"?>
<svg width="607px" height="682px" viewBox="0 0 607 682" version="1.1" xmlns="http://www.w3.org/2000/svg" xmlns:xlink="http://www.w3.org/1999/xlink">
    <!-- Generator: Sketch 49.1 (51147) - http://www.bohemiancoding.com/sketch -->
    <title>Combined Shape</title>
    <desc>Created with Sketch.</desc>
    <defs></defs>
    <g id="Page-1" stroke="none" stroke-width="1" fill="none" fill-rule="evenodd">
        <g id="safari-pinned-tab" fill="#000000" fill-rule="nonzero">
            <g id="Group" transform="translate(303.800000, 341.000000) scale(-1, 1) rotate(-180.000000) translate(-303.800000, -341.000000) translate(0.300000, 0.000000)">
                <path d="M292.2,680.4 C276.2,678.2 282.3,680.5 223.7,653.7 C200.3,642.9 178.1,632.7 174.2,631 C170.4,629.2 164.5,626.5 161.2,625 C157.9,623.4 152.7,621.1 149.7,619.7 C146.7,618.3 135.2,613.1 124.2,608 C113.2,602.9 101.3,597.4 97.7,595.8 C94.1,594.1 87.9,591.3 83.9,589.4 C79.9,587.5 76.5,586 76.3,586 C76.1,586 70.2,583.3 63.3,580 C56.3,576.7 50.4,574 50.2,574 C50,574 46.5,572 42.4,569.5 C20.2,556.1 4.9,533.4 0.9,508 C-0.3,500.7 -0.2,175.1 0.9,171.2 C1.3,170 2.3,166.3 3.1,163 C7.6,145.3 20.7,126.6 36.2,115.5 C39.7,113 42.9,111 43.2,111 C43.6,111 45.1,110.2 46.5,109.2 C48,108.2 52.6,105.9 56.7,104 C60.8,102.2 68.5,98.7 73.7,96.2 C78.9,93.8 85,91 87.2,90 C89.4,89 94.8,86.6 99.2,84.5 C103.6,82.5 112.4,78.4 118.7,75.5 C197,39.5 201.5,37.5 211.1,33 C234.4,22.2 267,7.4 271.2,5.7 C280.7,2 291.7,1.13686838e-13 302.8,1.13686838e-13 C308.7,1.13686838e-13 314.1,0.2 314.8,0.4 C315.6,0.7 317.9,1.1 320,1.5 C327.3,2.5 336.8,6.3 363.2,18.5 C367.6,20.6 373.5,23.3 376.2,24.5 C379,25.7 384.2,28.2 388,29.9 C401.4,36.1 408.4,39.3 419.7,44.5 C426,47.4 434.2,51.2 438,52.9 C441.7,54.6 447.5,57.3 451,58.9 C462.2,64 467.8,66.6 499.7,81.3 C517,89.2 533.5,96.8 536.2,98 C565.2,111.1 577.6,119.5 588.5,133.5 C596.9,144.3 603.6,161.4 605.5,176.5 C606.3,183.3 606.2,495.9 605.4,504 C604.4,514.1 601.1,525.7 597.5,532.4 C591.2,544.1 587.8,548.9 579.7,557.1 C571.2,565.7 561.9,571.2 536.2,583 C499.6,599.8 444.5,625.1 437.7,628.3 C433,630.4 427,633.3 424.2,634.5 C414.9,638.7 408.2,641.8 400.7,645.3 C396.6,647.2 391,649.8 388.2,651 C385.5,652.2 380.1,654.7 376.2,656.5 C372.4,658.2 367.6,660.4 365.7,661.3 C363.8,662.1 356.8,665.4 350.2,668.5 C325.8,679.9 311.1,683 292.2,680.4 Z M442.825407,432.48353 C441.206428,434.081777 441.206428,435.680023 439.619507,435.680023 C438.016557,437.27827 438.016557,438.876516 436.413607,438.876516 C434.810657,440.474763 434.810657,442.07301 433.191677,442.07301 C431.604756,443.671257 431.604756,443.671257 430.001807,445.269503 C431.604756,445.269503 431.604756,445.269503 431.604756,446.86775 C431.604756,446.86775 430.001807,446.86775 428.398856,448.465997 C413.972307,462.850217 396.339856,474.037944 378.707406,483.627424 C369.073676,486.823918 357.869055,491.618657 348.251355,493.216905 C338.633655,496.413398 327.413004,496.413398 316.192355,496.413398 C316.192355,496.413398 314.589404,496.413398 314.589404,494.815151 C311.383504,493.216905 306.574655,493.216905 300.162854,493.216905 L295.354004,493.216905 C277.721554,491.618657 260.089104,486.823918 244.059603,478.832684 C242.456653,477.234437 240.837674,475.63619 239.250753,475.63619 C237.647803,474.037944 236.044853,472.439697 234.441903,472.439697 C228.030103,467.644957 221.618303,462.850217 216.793423,458.055477 C212.000603,453.260737 205.588802,446.86775 202.382902,440.474763 C203.985852,440.474763 203.985852,442.07301 203.985852,440.474763 C203.985852,440.474763 203.985852,438.876516 202.382902,437.27827 C200.763923,435.680023 200.763923,434.081777 199.177002,432.48353 C197.574052,430.885283 195.971102,429.287036 195.971102,427.68879 L197.574052,432.48353 L200.763923,435.680023 L202.382902,437.27827 L203.985852,438.876516 L207.191752,442.07301 L208.778673,443.671257 C213.603552,448.465997 216.793423,451.66249 223.221253,458.055477 C245.662553,477.234437 272.896674,486.823918 301.765804,490.020411 C330.618905,493.216905 359.472005,488.422164 385.103177,475.63619 C386.722156,475.63619 388.325106,474.037944 388.325106,474.037944 L386.722156,474.037944 C378.707406,477.234437 370.692656,480.430931 361.058926,482.029177 C351.457255,485.225671 345.029426,485.225671 335.427755,485.225671 C319.398255,486.823918 301.765804,483.627424 282.530404,480.430931 C271.309753,477.234437 261.692053,472.439697 252.074353,467.644957 C242.456653,462.850217 232.822923,456.45723 226.427153,448.465997 C218.412403,440.474763 212.000603,434.081777 205.588802,424.492296 C203.985852,421.295803 202.382902,419.697556 202.382902,418.09931 C200.763923,416.501062 200.763923,414.902816 199.177002,414.902816 L197.574052,411.706323 L195.971102,410.108076 L194.368152,408.509829 L192.749173,405.313336 L191.162252,403.715089 L189.559302,402.116843 L187.956352,398.920349 C187.956352,397.322102 186.353402,395.723856 186.353402,395.723856 C186.353402,394.125609 184.734422,392.527362 184.734422,392.527362 L183.147502,389.330869 L183.147502,386.134376 C183.147502,384.536128 181.544552,382.937882 181.544552,382.937882 C179.941601,378.143141 178.338652,373.348402 178.338652,366.955415 L178.338652,334.990481 C181.544552,314.213274 191.162252,293.436066 203.985852,277.453599 C213.603552,266.265873 224.808173,256.676393 237.647803,248.685159 C250.471403,240.693925 263.295004,235.899185 277.721554,234.300939 C292.148104,231.104445 306.574655,231.104445 320.985175,232.702692 C335.427755,235.899185 348.251355,239.095678 361.058926,247.086912 C370.692656,251.881652 378.707406,258.274639 386.722156,261.471132 C388.325106,263.069379 389.928056,264.667626 391.531006,264.667626 C393.117926,266.265873 394.736906,266.265873 394.736906,267.864119 C397.942806,269.462366 399.545756,271.060612 401.132677,269.462366 C402.751656,269.462366 404.354607,267.864119 402.751656,266.265873 C402.751656,264.667626 401.132677,263.069379 401.132677,261.471132 C399.545756,259.872886 397.942806,258.274639 397.942806,255.078145 L401.132677,258.274639 L402.751656,259.872886 C404.354607,259.872886 404.354607,261.471132 405.957556,263.069379 C407.560507,264.667626 409.147427,266.265873 409.147427,266.265873 C415.575256,272.65886 420.384107,279.051846 423.590007,280.650093 L426.795907,283.846586 L430.001807,287.04308 C431.604756,288.641327 433.191677,290.239573 436.413607,293.436066 C438.016557,295.034314 439.619507,296.63256 439.619507,296.63256 C441.206428,298.230807 442.825407,299.829053 442.825407,299.829053 C446.031307,304.623794 450.840157,309.418533 452.443107,314.213274 L454.046057,311.016781 L455.649007,312.615027 C458.854907,319.008014 460.457857,322.204507 462.060807,323.802754 L463.663758,320.606261 C465.250678,319.008014 466.869658,315.81152 466.869658,309.418533 C468.472607,309.418533 468.472607,307.820287 468.472607,306.22204 C470.075558,309.418533 471.678507,309.418533 471.678507,309.418533 C473.265428,309.418533 474.884408,309.418533 474.884408,306.22204 C476.487358,309.418533 476.487358,309.418533 476.487358,304.623794 C476.487358,303.025547 476.487358,301.4273 474.884408,301.4273 C476.487358,303.025547 476.487358,303.025547 478.090308,304.623794 C479.693258,307.820287 479.693258,309.418533 479.693258,309.418533 C481.280178,312.615027 481.280178,315.81152 481.280178,317.409767 C481.280178,319.008014 481.280178,319.008014 482.899158,320.606261 C482.899158,322.204507 482.899158,323.802754 484.502108,323.802754 C486.105058,326.999247 486.105058,328.597494 486.105058,330.195741 C486.105058,331.793987 487.708008,333.392234 487.708008,333.392234 C490.913908,339.785221 490.913908,339.785221 492.516858,338.186974 L492.516858,336.588727 L492.516858,346.178208 C494.119808,346.178208 494.119808,346.178208 494.119808,347.776454 L495.722758,344.579961 L495.722758,336.588727 L492.516858,328.597494 L492.516858,326.999247 L490.913908,325.401001 L492.516858,326.999247 L490.913908,323.802754 L492.516858,326.999247 C490.913908,322.204507 490.913908,320.606261 490.913908,319.008014 C490.913908,317.409767 490.913908,315.81152 489.294929,315.81152 C489.294929,314.213274 487.708008,312.615027 487.708008,311.016781 L487.708008,307.820287 C486.105058,303.025547 484.502108,299.829053 484.502108,298.230807 C484.502108,296.63256 482.899158,295.034314 482.899158,295.034314 C482.899158,293.436066 482.899158,293.436066 481.280178,291.83782 C481.280178,290.239573 479.693258,290.239573 479.693258,288.641327 C479.693258,287.04308 479.693258,285.444833 478.090308,283.846586 C476.487358,282.24834 476.487358,280.650093 474.884408,279.051846 L474.884408,277.453599 C474.884408,275.855353 473.265428,274.257106 473.265428,274.257106 L473.265428,272.65886 C473.265428,271.060612 471.678507,269.462366 470.075558,266.265873 C470.075558,264.667626 468.472607,263.069379 466.869658,261.471132 C466.869658,259.872886 465.250678,258.274639 465.250678,258.274639 C465.250678,256.676393 463.663758,255.078145 463.663758,255.078145 C462.060807,251.881652 460.457857,250.283406 458.854907,247.086912 C458.854907,248.685159 460.457857,248.685159 460.457857,248.685159 C462.060807,250.283406 462.060807,248.685159 462.060807,248.685159 C468.472607,256.676393 473.265428,267.864119 478.090308,277.453599 C482.899158,287.04308 486.105058,298.230807 489.294929,309.418533 C489.294929,312.615027 490.913908,312.615027 490.913908,314.213274 C490.913908,315.81152 492.516858,317.409767 492.516858,317.409767 C494.119808,317.409767 494.119808,314.213274 492.516858,311.016781 C490.913908,299.829053 489.294929,287.04308 482.899158,274.257106 C478.090308,261.471132 473.265428,248.685159 465.250678,237.497432 C457.235928,226.309705 449.221177,216.720225 439.619507,205.532498 C430.001807,197.541265 418.781156,189.550031 407.560507,183.157044 C396.339856,175.165811 385.103177,170.37107 372.295606,165.576331 L373.898556,165.576331 C370.692656,163.978083 367.486756,162.379837 364.280855,162.379837 L362.677905,162.379837 C365.883805,162.379837 367.486756,163.978083 370.692656,163.978083 C372.295606,163.978083 372.295606,163.978083 373.898556,165.576331 C375.501506,165.576331 375.501506,165.576331 377.088426,167.174577 C391.531006,173.567564 404.354607,179.960551 417.162177,187.951784 C430.001807,195.943018 441.206428,205.532498 450.840157,215.121978 C462.060807,226.309705 471.678507,237.497432 479.693258,250.283406 C482.899158,253.479899 482.899158,256.676393 482.899158,255.078145 L479.693258,247.086912 C473.265428,235.899185 465.250678,224.711458 457.235928,215.121978 C449.221177,205.532498 438.016557,194.344771 428.398856,187.951784 C418.781156,179.960551 407.560507,173.567564 396.339856,167.174577 C385.103177,162.379837 373.898556,159.183344 364.280855,155.98685 C359.472005,154.388603 354.663155,152.790357 349.854305,152.790357 C346.648405,152.790357 346.648405,151.19211 343.442505,151.19211 C340.236605,151.19211 340.236605,151.19211 337.014675,149.593864 L343.442505,149.593864 C341.839555,149.593864 340.236605,149.593864 338.633655,147.995616 L325.810055,147.995616 C327.413004,147.995616 327.413004,146.39737 328.999925,146.39737 C311.383504,143.200877 293.751054,143.200877 276.118604,146.39737 C258.486153,149.593864 242.456653,152.790357 226.427153,160.78159 C224.808173,160.78159 223.221253,162.379837 223.221253,162.379837 C216.793423,165.576331 210.397652,167.174577 202.382902,170.37107 C199.177002,171.969317 195.971102,173.567564 192.749173,175.165811 C191.162252,176.764057 189.559302,178.362304 187.956352,178.362304 C186.353402,179.960551 184.734422,181.558798 183.147502,181.558798 C186.353402,179.960551 187.956352,178.362304 189.559302,176.764057 L197.574052,173.567564 C187.956352,178.362304 176.719672,184.755291 167.118001,194.344771 C165.515052,195.943018 163.912101,197.541265 162.309152,197.541265 C160.706201,199.139511 159.103252,200.737758 157.500301,202.336004 C154.294401,205.532498 151.088501,208.728991 149.485551,211.925485 C144.676701,218.318472 138.264901,226.309705 135.059001,232.702692 C127.044251,247.086912 120.632451,258.274639 120.632451,267.864119 C114.22065,282.24834 109.4118,298.230807 106.2059,312.615027 C103,328.597494 103,344.579961 103,360.562428 C103,368.553661 104.60295,376.544895 106.2059,384.536128 C107.80885,392.527362 109.4118,398.920349 112.6177,408.509829 C115.823601,416.501062 117.42655,422.894049 120.632451,430.885283 L123.838351,435.680023 L125.441301,438.876516 L127.044251,438.876516 L130.250151,443.671257 L131.853101,448.465997 C133.456051,451.66249 135.059001,453.260737 136.661951,453.260737 L136.661951,451.66249 C136.661951,450.064243 135.059001,448.465997 133.456051,448.465997 C120.632451,429.287036 112.6177,406.911582 107.80885,384.536128 C104.60295,373.348402 104.60295,362.160674 104.60295,350.972948 C104.60295,339.785221 104.60295,328.597494 107.80885,317.409767 C106.2059,326.999247 106.2059,336.588727 106.2059,346.178208 C106.2059,355.767688 107.80885,365.357168 109.4118,374.946648 C111.01475,384.536128 112.6177,394.125609 117.42655,402.116843 L119.029501,405.313336 C119.029501,406.911582 120.632451,408.509829 120.632451,408.509829 C122.235401,411.706323 122.235401,413.304569 123.838351,414.902816 C127.044251,419.697556 127.044251,422.894049 130.250151,427.68879 L130.250151,432.48353 C130.250151,434.081777 131.853101,435.680023 131.853101,435.680023 L133.456051,438.876516 L135.059001,440.474763 L136.661951,442.07301 C138.264901,445.269503 139.867851,445.269503 139.867851,448.465997 C141.470801,451.66249 143.073751,451.66249 144.676701,454.858984 C159.103252,475.63619 178.338652,491.618657 199.177002,504.404631 C220.015352,517.190605 244.059603,525.181839 269.706804,529.976578 C290.545154,533.173072 312.970425,533.173072 333.824805,531.574826 C338.633655,529.976578 343.442505,529.976578 348.251355,528.378332 C351.457255,526.780085 353.044176,526.780085 356.266105,525.181839 C359.472005,523.583592 361.058926,523.583592 364.280855,521.985345 C373.898556,518.788852 385.103177,513.994111 394.736906,509.199372 C409.147427,501.208138 420.384107,494.815151 433.191677,483.627424 C444.428357,474.037944 454.046057,462.850217 465.250678,451.66249 C473.265428,438.876516 481.280178,426.090543 487.708008,413.304569 C490.913908,405.313336 492.516858,398.920349 495.722758,392.527362 C495.722758,390.929115 497.309678,389.330869 497.309678,387.732622 C497.309678,386.134376 498.928658,384.536128 498.928658,382.937882 C498.928658,379.741389 500.531608,379.741389 500.531608,376.544895 L500.531608,371.750155 C500.531608,368.553661 500.531608,368.553661 502.134558,365.357168 L502.134558,360.562428 C502.134558,357.365935 502.134558,355.767688 500.531608,354.169441 C500.531608,354.169441 498.928658,355.767688 498.928658,357.365935 C498.928658,358.964181 498.928658,360.562428 497.309678,360.562428 L497.309678,365.357168 C492.516858,397.322102 479.693258,426.090543 460.457857,451.66249 C458.854907,453.260737 457.235928,454.858984 457.235928,456.45723 L454.046057,461.25197 L449.221177,464.448464 L446.031307,467.644957 L442.825407,470.841451 C438.016557,475.63619 431.604756,482.029177 425.176927,486.823918 C412.369356,496.413398 399.545756,504.404631 385.103177,512.395865 C383.516256,512.395865 383.516256,513.994111 381.913306,513.994111 L378.707406,515.592358 L373.898556,518.788852 L369.073676,521.985345 C367.486756,523.583592 365.883805,523.583592 364.280855,525.181839 L357.869055,526.780085 C354.663155,526.780085 354.663155,528.378332 351.457255,528.378332 C348.251355,529.976578 343.442505,529.976578 340.236605,531.574826 C337.014675,531.574826 337.014675,533.173072 333.824805,533.173072 C330.618905,533.173072 330.618905,534.771319 327.413004,534.771319 L320.985175,536.369565 L277.721554,536.369565 L271.309753,534.771319 C268.103853,534.771319 268.103853,534.771319 264.881924,533.173072 L258.486153,531.574826 C255.280253,531.574826 255.280253,529.976578 252.074353,529.976578 C248.852424,528.378332 244.059603,526.780085 240.837674,526.780085 C237.647803,526.780085 237.647803,525.181839 234.441903,525.181839 C231.236003,523.583592 231.236003,523.583592 228.030103,521.985345 C224.808173,520.387098 220.015352,518.788852 216.793423,517.190605 C208.778673,513.994111 202.382902,509.199372 195.971102,506.002878 C183.147502,498.011644 173.529801,491.618657 163.912101,480.430931 C163.912101,480.430931 163.912101,478.832684 162.309152,477.234437 C168.720952,480.430931 175.132752,485.225671 181.544552,490.020411 C184.734422,491.618657 187.956352,494.815151 191.162252,496.413398 C192.749173,498.011644 194.368152,499.609891 195.971102,499.609891 C197.574052,501.208138 199.177002,502.806385 200.763923,502.806385 C220.015352,513.994111 239.250753,523.583592 261.692053,526.780085 C282.530404,531.574826 306.574655,531.574826 328.999925,526.780085 C337.014675,525.181839 343.442505,523.583592 351.457255,520.387098 C359.472005,517.190605 365.883805,515.592358 372.295606,512.395865 L391.531006,501.208138 C393.117926,499.609891 394.736906,498.011644 396.339856,498.011644 C397.942806,496.413398 399.545756,494.815151 401.132677,494.815151 C404.354607,491.618657 407.560507,491.618657 410.766407,488.422164 C412.369356,486.823918 413.972307,485.225671 415.575256,485.225671 L420.384107,482.029177 C423.590007,478.832684 426.795907,475.63619 430.001807,474.037944 C436.413607,467.644957 442.825407,459.653724 447.634257,453.260737 C458.854907,438.876516 468.472607,421.295803 473.265428,403.715089 C473.265428,402.116843 474.884408,400.518595 474.884408,400.518595 L473.265428,402.116843 C465.250678,426.090543 450.840157,448.465997 431.604756,467.644957 C434.810657,464.448464 434.810657,461.25197 434.810657,461.25197 C433.191677,461.25197 431.604756,462.850217 426.795907,466.04671 C430.001807,462.850217 430.001807,462.850217 433.191677,459.653724 C434.810657,456.45723 436.413607,454.858984 438.016557,453.260737 C441.206428,450.064243 441.206428,448.465997 441.206428,448.465997 C441.206428,448.465997 438.016557,450.064243 436.413607,453.260737 C421.987056,472.439697 404.354607,486.823918 385.103177,499.609891 C372.295606,506.002878 359.472005,512.395865 346.648405,515.592358 C332.221855,518.788852 319.398255,521.985345 304.955674,521.985345 C308.177604,520.387098 311.383504,518.788852 312.970425,518.788852 C316.192355,518.788852 322.604155,517.190605 325.810055,517.190605 C335.427755,515.592358 345.029426,513.994111 354.663155,510.797618 C364.280855,507.601124 373.898556,504.404631 381.913306,499.609891 C391.531006,494.815151 399.545756,490.020411 407.560507,483.627424 C415.575256,477.234437 421.987056,470.841451 428.398856,462.850217 C442.825407,448.465997 452.443107,430.885283 460.457857,413.304569 C468.472607,394.125609 471.678507,374.946648 471.678507,354.169441 L471.678507,350.972948 L471.678507,354.169441 C471.678507,378.143141 465.250678,402.116843 455.649007,424.492296 C455.649007,422.894049 455.649007,422.894049 455.649007,424.492296 C455.649007,426.090543 454.046057,427.68879 454.046057,427.68879 C454.046057,429.287036 454.046057,429.287036 454.046057,427.68879 C444.428357,448.465997 428.398856,464.448464 412.369356,478.832684 C394.736906,493.216905 375.501506,504.404631 354.663155,510.797618 C373.898556,504.404631 391.531006,494.815151 407.560507,482.029177 C423.590007,469.243204 436.413607,453.260737 446.031307,435.680023 C447.634257,434.081777 449.221177,432.48353 449.221177,430.885283 C450.840157,429.287036 452.443107,427.68879 452.443107,424.492296 C452.443107,422.894049 454.046057,421.295803 454.046057,421.295803 C454.046057,421.295803 452.443107,421.295803 452.443107,422.894049 C452.443107,424.492296 450.840157,426.090543 450.840157,426.090543 C452.443107,422.894049 454.046057,419.697556 454.046057,418.09931 L454.046057,414.902816 C452.443107,414.902816 452.443107,416.501062 450.840157,418.09931 C449.221177,419.697556 449.221177,421.295803 447.634257,421.295803 C447.634257,422.894049 446.031307,422.894049 446.031307,424.492296 C446.031307,426.090543 444.428357,426.090543 444.428357,427.68879 C434.810657,446.86775 421.987056,462.850217 405.957556,475.63619 L401.132677,478.832684 C399.545756,480.430931 397.942806,482.029177 396.339856,482.029177 C421.987056,461.25197 439.619507,435.680023 450.840157,406.911582 C452.443107,403.715089 452.443107,402.116843 452.443107,402.116843 C452.443107,402.116843 450.840157,403.715089 449.221177,405.313336 C449.221177,406.911582 447.634257,408.509829 446.031307,410.108076 C444.428357,411.706323 444.428357,413.304569 442.825407,414.902816 L439.619507,419.697556 L438.016557,422.894049 L436.413607,426.090543 L433.191677,430.885283 L430.001807,434.081777 L428.398856,437.27827 L426.795907,440.474763 L423.590007,443.671257 L420.384107,446.86775 L418.781156,450.064243 L428.398856,448.465997 L425.176927,451.66249 L421.987056,454.858984 L420.384107,456.45723 L418.781156,458.055477 L415.575256,461.25197 L412.369356,464.448464 L409.147427,466.04671 C407.560507,466.04671 407.560507,467.644957 405.957556,467.644957 L402.751656,470.841451 L399.545756,474.037944 L396.339856,475.63619 C394.736906,475.63619 394.736906,477.234437 393.117926,477.234437 L389.928056,480.430931 C383.516256,483.627424 378.707406,488.422164 372.295606,490.020411 C359.472005,496.413398 346.648405,499.609891 333.824805,502.806385 C316.192355,504.404631 296.940925,504.404631 280.911425,499.609891 C284.133354,499.609891 285.736304,499.609891 287.339254,501.208138 L322.604155,501.208138 C324.207104,501.208138 325.810055,501.208138 327.413004,499.609891 C341.839555,498.011644 353.044176,494.815151 365.883805,490.020411 C372.295606,486.823918 378.707406,485.225671 383.516256,482.029177 C386.722156,480.430931 389.928056,478.832684 391.531006,477.234437 C393.117926,475.63619 394.736906,474.037944 394.736906,474.037944 C396.339856,472.439697 397.942806,470.841451 397.942806,470.841451 L401.132677,467.644957 L404.354607,464.448464 C407.560507,461.25197 409.147427,459.653724 412.369356,456.45723 L415.575256,453.260737 L417.162177,450.064243 C417.162177,448.465997 418.781156,448.465997 418.781156,446.86775 L421.987056,443.671257 L425.176927,440.474763 C426.795907,438.876516 426.795907,437.27827 426.795907,437.27827 C426.795907,437.27827 425.176927,437.27827 425.176927,438.876516 L421.987056,442.07301 L418.781156,445.269503 C415.575256,448.465997 413.972307,450.064243 412.369356,453.260737 C407.560507,458.055477 402.751656,462.850217 397.942806,466.04671 C388.325106,474.037944 375.501506,480.430931 364.280855,486.823918 C343.442505,494.815151 320.985175,499.609891 301.765804,499.609891 C322.604155,499.609891 343.442505,494.815151 362.677905,486.823918 C381.913306,478.832684 399.545756,466.04671 413.972307,451.66249 C415.575256,450.064243 417.162177,448.465997 417.162177,448.465997 L418.781156,448.465997 C421.987056,445.269503 426.795907,440.474763 430.001807,435.680023 C442.825407,434.081777 442.825407,432.48353 442.825407,432.48353 C444.428357,430.885283 442.825407,430.885283 442.825407,432.48353 Z M489.294929,311.016781 L490.913908,314.213274 C490.913908,312.615027 489.294929,312.615027 489.294929,311.016781 Z" id="Combined-Shape"></path>
            </g>
        </g>
    </g>
</svg>