<svg width="42" height="42" viewBox="0 0 42 42" fill="none" xmlns="http://www.w3.org/2000/svg">
<path fill-rule="evenodd" clip-rule="evenodd" d="M21 42C32.598 42 42 32.598 42 21C42 9.40202 32.598 0 21 0C9.40202 0 0 9.40202 0 21C0 32.598 9.40202 42 21 42ZM17.0674 23.4766V36H22.0523V23.4766H25.9553L26.5758 18.5H22.0523V15.0711C22.0523 13.6328 22.4394 12.6484 24.4439 12.6484H27V8.19687C26.5598 8.13672 25.0432 8 23.2773 8C19.5917 8 17.0674 10.3188 17.0674 14.5789V18.5H13V23.4766H17.0674Z" fill="#C42C7F"/>
</svg>
