<svg width="81" height="97" viewBox="0 0 81 97" fill="none" xmlns="http://www.w3.org/2000/svg">
<path d="M2.81154 31.9844C2.88869 32.0019 2.96584 32.0107 3.04201 32.0107C3.49513 32.0107 3.90578 31.7002 4.01418 31.2402C4.23927 30.2871 4.50392 29.333 4.80177 28.4043C4.97072 27.8779 4.68068 27.3154 4.1548 27.1465C3.62941 26.9814 3.06593 27.2685 2.89748 27.793C2.58351 28.7715 2.3047 29.7773 2.06789 30.7812C1.94093 31.3184 2.27394 31.8574 2.81154 31.9844Z" fill="#C42C7F"/>
<path d="M2.33107 45.2022C1.78566 45.2891 1.41408 45.8018 1.50148 46.3467C1.66359 47.3633 1.86769 48.3867 2.10841 49.3867C2.21876 49.8457 2.62794 50.1533 3.0796 50.1533C3.15724 50.1533 3.23585 50.1445 3.31447 50.126C3.85158 49.9961 4.18214 49.4561 4.05275 48.9199C3.82423 47.9688 3.63039 46.998 3.47609 46.0322C3.38917 45.4863 2.87306 45.1113 2.33107 45.2022Z" fill="#C42C7F"/>
<path d="M8.11622 19.002C7.64405 18.7158 7.02931 18.8672 6.74317 19.3398C6.20948 20.2217 5.7046 21.1348 5.2422 22.0547C4.99415 22.5479 5.19337 23.1494 5.68653 23.3975C5.83058 23.4697 5.9839 23.5039 6.13478 23.5039C6.50099 23.5039 6.85353 23.3027 7.02931 22.9531C7.46827 22.0801 7.94776 21.2119 8.45411 20.375C8.74024 19.9023 8.58888 19.2881 8.11622 19.002Z" fill="#C42C7F"/>
<path d="M80.7232 35.2695C80.6587 34.7207 80.1489 34.3301 79.6128 34.3936C79.0645 34.458 78.6724 34.9551 78.7368 35.5039C78.8511 36.4707 78.9287 37.459 78.9688 38.4404C78.9902 38.9785 79.4336 39.4004 79.9673 39.4004C79.9805 39.4004 79.9941 39.4004 80.0083 39.3994C80.5601 39.377 80.9893 38.9121 80.9668 38.3604C80.9253 37.3271 80.8433 36.2871 80.7232 35.2695Z" fill="#C42C7F"/>
<path d="M2 41.168C2.55225 41.168 3 40.7207 3 40.168V40C3 39.0215 3.0376 38.0312 3.1123 37.0557C3.1543 36.5049 2.74219 36.0244 2.19141 35.9824C1.64014 35.9346 1.16016 36.3525 1.11816 36.9033C1.03955 37.9297 1 38.9717 1 40V40.168C1 40.7207 1.44775 41.168 2 41.168Z" fill="#C42C7F"/>
<path d="M25.6743 76.874C26.0625 76.874 26.4321 76.6465 26.5942 76.2666C26.8115 75.7588 26.5757 75.1719 26.0679 74.9541C25.166 74.5693 24.27 74.1445 23.4058 73.6914C22.916 73.4336 22.312 73.624 22.0561 74.1133C21.7998 74.6025 21.9888 75.207 22.478 75.4629C23.3887 75.9404 24.332 76.3877 25.2817 76.7939C25.4101 76.8486 25.5434 76.874 25.6743 76.874Z" fill="#C42C7F"/>
<path d="M5.31787 58.0947C5.49462 58.4414 5.8457 58.6416 6.21045 58.6416C6.36279 58.6416 6.51757 58.6064 6.66259 58.5332C7.15478 58.2832 7.35107 57.6807 7.10107 57.1885C6.65869 56.3184 6.24462 55.4189 5.8706 54.5156C5.65918 54.0059 5.0747 53.7627 4.56396 53.9746C4.05371 54.1855 3.81152 54.7705 4.02295 55.2812C4.4165 56.2314 4.85205 57.1777 5.31787 58.0947Z" fill="#C42C7F"/>
<path d="M61.4639 73.2217C61.1855 72.7441 60.5747 72.583 60.0962 72.8603C59.2461 73.3555 58.3716 73.8203 57.4976 74.2422C57 74.4814 56.791 75.0791 57.0308 75.5771C57.2031 75.9346 57.5605 76.1426 57.9321 76.1426C58.0781 76.1426 58.2261 76.1113 58.3657 76.043C59.2866 75.5996 60.2075 75.1103 61.103 74.5889C61.5801 74.3105 61.7417 73.6982 61.4639 73.2217Z" fill="#C42C7F"/>
<path d="M68.4043 10.8623C68.0029 10.4844 67.3696 10.5029 66.9907 10.9053C66.6123 11.3076 66.6318 11.9404 67.0342 12.3193C67.7485 12.9912 68.4433 13.6973 69.0991 14.418C69.2969 14.6348 69.5674 14.7451 69.8393 14.7451C70.0796 14.7451 70.3203 14.6592 70.5122 14.4844C70.9204 14.1133 70.9502 13.4805 70.5786 13.0723C69.8877 12.3135 69.1562 11.5693 68.4043 10.8623Z" fill="#C42C7F"/>
<path d="M8.76954 61.9883C8.3213 62.3115 8.22022 62.9365 8.54346 63.3838C9.14503 64.2178 9.78712 65.0391 10.4526 65.8242C10.6504 66.0586 10.9321 66.1787 11.2163 66.1787C11.4443 66.1787 11.6738 66.1006 11.8618 65.9424C12.2832 65.585 12.3359 64.9541 11.979 64.5332C11.3472 63.7861 10.7368 63.0059 10.1655 62.2139C9.84278 61.7656 9.21778 61.665 8.76954 61.9883Z" fill="#C42C7F"/>
<path d="M13.8467 11.9883C13.4522 11.6006 12.8193 11.6094 12.4326 12.002C11.7124 12.7363 11.0117 13.5088 10.3486 14.2988C9.99366 14.7217 10.0488 15.3525 10.4717 15.707C10.6592 15.8643 10.8872 15.9414 11.1143 15.9414C11.3994 15.9414 11.6831 15.8203 11.8809 15.584C12.5103 14.834 13.1768 14.0996 13.8604 13.4023C14.2471 13.0078 14.2407 12.375 13.8467 11.9883Z" fill="#C42C7F"/>
<path d="M77.2876 25.6445C76.7686 25.835 76.5024 26.4092 76.6924 26.9277C77.0293 27.8477 77.3335 28.791 77.5967 29.7295C77.7202 30.1709 78.1221 30.46 78.5591 30.46C78.6484 30.46 78.7393 30.4482 78.8291 30.4229C79.3608 30.2744 79.6714 29.7217 79.5225 29.1904C79.2456 28.2012 78.9253 27.209 78.5703 26.2402C78.3799 25.7217 77.8057 25.457 77.2876 25.6445Z" fill="#C42C7F"/>
<path d="M79.2954 48.4238C79.7656 48.4238 80.1846 48.0908 80.2764 47.6123C80.4712 46.5986 80.6284 45.5684 80.7441 44.5488C80.8062 44 80.4121 43.5049 79.8633 43.4434C79.3159 43.3779 78.8193 43.7744 78.7568 44.3242C78.647 45.292 78.4976 46.2715 78.3125 47.2354C78.208 47.7773 78.5635 48.3018 79.106 48.4062C79.1694 48.418 79.2329 48.4238 79.2954 48.4238Z" fill="#C42C7F"/>
<path d="M16.1167 68.7207C15.6992 68.3584 15.0674 68.4053 14.7061 68.8213C14.3447 69.2393 14.3896 69.8711 14.8071 70.2324C15.584 70.9053 16.3975 71.5576 17.2256 72.1709C17.4048 72.3037 17.6133 72.3672 17.8198 72.3672C18.126 72.3672 18.4282 72.2275 18.6245 71.9619C18.9531 71.5186 18.8599 70.8926 18.416 70.5635C17.6289 69.9805 16.855 69.3603 16.1167 68.7207Z" fill="#C42C7F"/>
<path d="M41.001 80C41.8218 79.999 42.6475 79.9736 43.4556 79.9248C44.0068 79.8916 44.4263 79.418 44.3931 78.8662C44.3599 78.3145 43.8897 77.8896 43.3345 77.9287C42.5659 77.9746 41.7803 77.999 41 78L40.3862 77.9951C39.8364 78.0029 39.3799 78.4287 39.3721 78.9814C39.3643 79.5332 39.8057 79.9873 40.3579 79.9951L41.001 80Z" fill="#C42C7F"/>
<path d="M34.5274 77.4512C33.5567 77.2842 32.5874 77.0781 31.6465 76.8398C31.1074 76.7051 30.5669 77.0293 30.4317 77.5645C30.2959 78.0996 30.6201 78.6436 31.1553 78.7793C32.146 79.0303 33.1665 79.2461 34.1885 79.4219C34.2456 79.4316 34.3027 79.4365 34.3589 79.4365C34.8369 79.4365 35.2598 79.0928 35.3433 78.6064C35.437 78.0615 35.0718 77.5449 34.5274 77.4512Z" fill="#C42C7F"/>
<path d="M21.0303 6.48047C20.7354 6.01367 20.1157 5.87402 19.6509 6.16894C18.7972 6.70856 17.9529 7.28949 17.1395 7.89453H8.95264C8.40039 7.89453 7.95264 8.3418 7.95264 8.89453C7.95264 9.44726 8.40039 9.89453 8.95264 9.89453H16.6665V17.6084C16.6665 18.1611 17.1143 18.6084 17.6665 18.6084C18.2188 18.6084 18.6665 18.1611 18.6665 17.6084V9.26044C19.3373 8.7727 20.0232 8.29968 20.7192 7.86035C21.186 7.56543 21.3257 6.94726 21.0303 6.48047Z" fill="#C42C7F"/>
<path d="M51.8516 3.57226C52.792 3.85254 53.73 4.17187 54.6401 4.52246C54.7583 4.56738 54.8794 4.58887 54.999 4.58887C55.4004 4.58887 55.7798 4.3457 55.9326 3.94824C56.1309 3.43262 55.8735 2.85351 55.3579 2.65527C54.3999 2.28711 53.4121 1.95117 52.4229 1.65625C51.8945 1.49805 51.3364 1.79883 51.1787 2.3291C51.021 2.8584 51.3223 3.41504 51.8516 3.57226Z" fill="#C42C7F"/>
<path d="M49.5918 79.0742C50.6001 78.8535 51.6099 78.5908 52.5923 78.2939C53.1211 78.1348 53.4204 77.5762 53.2603 77.0479C53.1011 76.5186 52.542 76.2207 52.0142 76.3799C51.0806 76.6621 50.1216 76.9111 49.1641 77.1211C48.6245 77.2393 48.2827 77.7725 48.4009 78.3115C48.5034 78.7793 48.9175 79.0977 49.377 79.0977C49.4478 79.0977 49.52 79.0898 49.5918 79.0742Z" fill="#C42C7F"/>
<path d="M34.187 2.59375C34.2446 2.59375 34.3027 2.58887 34.3618 2.57812C35.3252 2.4082 36.3066 2.27441 37.2788 2.18066C37.8286 2.12793 38.231 1.63867 38.1777 1.08887C38.125 0.540038 37.6416 0.138671 37.0864 0.190429C36.0625 0.289061 35.0288 0.429686 34.0142 0.609374C33.4702 0.705077 33.1074 1.22363 33.2031 1.76758C33.2886 2.25293 33.7104 2.59375 34.187 2.59375Z" fill="#C42C7F"/>
<path d="M76.1416 56.9629C76.2754 57.0234 76.415 57.0518 76.5532 57.0518C76.9336 57.0518 77.2974 56.833 77.4649 56.4639C77.8901 55.5244 78.2827 54.5566 78.6323 53.5889C78.8198 53.0693 78.5508 52.4961 78.0313 52.3086C77.5122 52.1172 76.939 52.3887 76.7515 52.9092C76.4194 53.8291 76.0464 54.7471 75.6426 55.6396C75.415 56.1426 75.6382 56.7354 76.1416 56.9629Z" fill="#C42C7F"/>
<path d="M25.5229 5.19141C25.6553 5.19141 25.79 5.16504 25.9194 5.10938C26.8203 4.71973 27.7432 4.36231 28.6626 4.04785C29.1851 3.86914 29.4639 3.30078 29.2851 2.77734C29.106 2.25488 28.5366 1.97949 28.0151 2.15527C27.0464 2.48731 26.0742 2.86328 25.1255 3.27344C24.6186 3.49316 24.3852 4.08203 24.6045 4.58887C24.7681 4.96582 25.1362 5.19141 25.5229 5.19141Z" fill="#C42C7F"/>
<path d="M74.1909 60.5117C73.7285 60.209 73.1099 60.3389 72.8067 60.8008C72.273 61.6152 71.6983 62.4228 71.0977 63.2002C70.7603 63.6377 70.8408 64.2656 71.2778 64.6035C71.46 64.7432 71.6748 64.8115 71.8887 64.8115C72.1875 64.8115 72.4839 64.6777 72.6807 64.4228C73.313 63.6035 73.918 62.7539 74.4795 61.8965C74.7822 61.4346 74.6528 60.8144 74.1909 60.5117Z" fill="#C42C7F"/>
<path d="M75.605 21.9678C76.0879 21.7002 76.2622 21.0908 75.9937 20.6084C75.4956 19.7109 74.9546 18.8203 74.3853 17.959C74.0811 17.498 73.4614 17.3721 72.9995 17.6768C72.5391 17.9814 72.4126 18.6016 72.7173 19.0625C73.2578 19.8799 73.772 20.7275 74.2456 21.5791C74.4282 21.9082 74.769 22.0938 75.1206 22.0938C75.2847 22.0938 75.4512 22.0537 75.605 21.9678Z" fill="#C42C7F"/>
<path d="M43.1665 2.05957C44.146 2.11426 45.1323 2.20801 46.0972 2.33887C46.1426 2.34473 46.1875 2.34766 46.2324 2.34766C46.7251 2.34766 47.1543 1.9834 47.2222 1.48145C47.2959 0.933595 46.9121 0.430666 46.3647 0.356447C45.3481 0.219728 44.3096 0.121096 43.2778 0.0634783C42.7373 0.0371111 42.2549 0.454103 42.2236 1.00586C42.1929 1.55762 42.6147 2.0293 43.1665 2.05957Z" fill="#C42C7F"/>
<path d="M63.0117 8.80078C63.3311 8.80078 63.645 8.64844 63.8384 8.36426C64.1499 7.9082 64.0327 7.28613 63.5767 6.97461C62.7183 6.38867 61.8355 5.83301 60.9531 5.32422C60.4732 5.04785 59.8623 5.21289 59.5869 5.69043C59.311 6.16895 59.4751 6.78027 59.9531 7.05664C60.7925 7.54102 61.6318 8.06934 62.4487 8.62695C62.6216 8.74414 62.8174 8.80078 63.0117 8.80078Z" fill="#C42C7F"/>
<path d="M64.2095 61.666C63.6572 61.666 63.2095 62.1133 63.2095 62.666V71.3799C63.2095 71.9326 63.6572 72.3799 64.2095 72.3799H72.9233C73.4756 72.3799 73.9233 71.9326 73.9233 71.3799C73.9233 70.8271 73.4756 70.3799 72.9233 70.3799H67.0115C67.5287 69.9365 68.0387 69.4851 68.5273 69.0215C68.9282 68.6416 68.9448 68.0088 68.5649 67.6074C68.1851 67.207 67.5522 67.1904 67.1514 67.5703C66.5312 68.158 65.874 68.7245 65.2095 69.2749V62.666C65.2095 62.1133 64.7617 61.666 64.2095 61.666Z" fill="#C42C7F"/>
<path d="M41 19.5771C29.7471 19.5771 20.5923 28.7324 20.5923 39.9854C20.5923 51.2383 29.7471 60.3926 41 60.3926C52.2529 60.3926 61.4077 51.2383 61.4077 39.9854C61.4077 28.7324 52.2529 19.5771 41 19.5771ZM29.7413 54.5158C29.8206 49.6001 33.0043 45.3568 37.7227 43.9248C38.1084 43.8076 38.3857 43.4707 38.4268 43.0693C38.4678 42.6689 38.2642 42.2822 37.9106 42.0898C35.6597 40.8633 34.2612 38.5117 34.2612 35.9531C34.2612 32.1025 37.3931 28.9707 41.2432 28.9707C45.0933 28.9707 48.2251 32.1025 48.2251 35.9531C48.2251 38.5889 46.7603 40.9727 44.4019 42.1729C44.042 42.3564 43.8276 42.7373 43.8584 43.1396C43.8887 43.542 44.1582 43.8867 44.541 44.0137C49.1021 45.5242 52.18 49.7299 52.2587 54.5157C49.1423 56.9359 45.2421 58.3926 41 58.3926C36.7579 58.3926 32.8577 56.9359 29.7413 54.5158ZM54.1372 52.8552C53.5358 48.5496 50.8583 44.8162 46.9761 42.8633C49.0161 41.1787 50.2251 38.6709 50.2251 35.9531C50.2251 31 46.1958 26.9707 41.2432 26.9707C36.2905 26.9707 32.2612 31 32.2612 35.9531C32.2612 38.5723 33.3999 41.0225 35.3232 42.709C31.2675 44.612 28.4742 48.4102 27.8625 52.8548C24.6077 49.5329 22.5923 44.9921 22.5923 39.9854C22.5923 29.835 30.8501 21.5771 41 21.5771C51.1499 21.5771 59.4077 29.835 59.4077 39.9854C59.4077 44.9922 57.3923 49.5333 54.1372 52.8552Z" fill="#C42C7F"/>
</svg>
