<?xml version="1.0" encoding="UTF-8"?>
<svg width="195px" height="32px" viewBox="0 0 195 32" version="1.1" xmlns="http://www.w3.org/2000/svg" xmlns:xlink="http://www.w3.org/1999/xlink">
    <!-- Generator: Sketch 52.2 (67145) - http://www.bohemiancoding.com/sketch -->
    <title>logo-xduediligence</title>
    <desc>Created with Sketch.</desc>
    <g id="Page-1" stroke="none" stroke-width="1" fill="none" fill-rule="evenodd">
        <g id="logo-xduediligence">
            <polygon id="Path" fill="#000000" points="6.63414634 13.2682927 11.0829268 7.10243902 12.8780488 7.10243902 12.8780488 7.1804878 7.49268293 14.3609756 13.2682927 22.0878049 13.2682927 22.1658537 11.5512195 22.1658537 6.63414634 15.3756098 1.71707317 22.1658537 0 22.1658537 0 22.0878049 5.77560976 14.3609756 0.468292683 7.10243902 2.26341463 7.10243902"></polygon>
            <path d="M41.3656976,7.10243902 L41.3656976,14.9853659 C41.3656976,17.2487805 42.614478,19.0439024 44.9559415,19.0439024 C47.2193561,19.0439024 48.7803317,17.1707317 48.7803317,14.8292683 L48.7803317,7.10243902 L52.4486244,7.10243902 L52.4486244,22.1658537 L49.1705756,22.1658537 L48.9364293,20.1365854 C47.3754537,21.6195122 45.9705756,22.4 43.8632585,22.4 C40.2730146,22.4 37.6974049,19.6682927 37.6974049,14.9853659 L37.6974049,7.10243902 L41.3656976,7.10243902 Z" id="Path" fill="#000000"></path>
            <path d="M58.9266732,16 C59.1608195,17.8731707 60.7998439,19.2 63.3754537,19.2 C64.7022829,19.2 66.4974049,18.7317073 67.4339902,17.795122 L69.8535024,20.1365854 C68.2925268,21.7756098 65.7169171,22.5560976 63.4535024,22.5560976 C58.3022829,22.5560976 55.2583805,19.3560976 55.2583805,14.5170732 C55.2583805,9.9902439 58.3022829,6.63414634 63.2193561,6.63414634 C68.214478,6.63414634 71.3364293,9.75609756 70.7900878,15.9219512 L58.9266732,16 Z M66.9656976,12.8780488 C66.7315512,10.9268293 65.2486244,9.91219512 63.0632585,9.91219512 C61.112039,9.91219512 59.4730146,10.9268293 58.9266732,12.8780488 L66.9656976,12.8780488 Z" id="Shape" fill="#000000" fill-rule="nonzero"></path>
            <path d="M91.8634146,11.2390244 C91.9414634,16.702439 88.5073171,22.1658537 81.0926829,22.1658537 C78.6731707,22.1658537 76.3318634,22.1658537 73.9123512,22.1658537 L73.9123512,0.780487805 C76.3318634,0.780487805 78.6731707,0.780487805 81.0926829,0.780487805 C88.2731707,0.780487805 91.7853659,6.0097561 91.8634146,11.2390244 Z M75.6294244,2.4195122 L75.6294244,20.604878 L81.1707317,20.604878 C87.4926829,20.604878 90.3804878,15.8439024 90.302439,11.2390244 C90.2243902,6.7902439 87.3365854,2.4195122 81.1707317,2.4195122 L75.6294244,2.4195122 Z" id="Shape" fill="#000000" fill-rule="nonzero"></path>
            <path d="M97.3268293,2.18537366 C97.3268293,3.82439805 94.9073171,3.82439805 94.9073171,2.18537366 C94.9073171,0.546349268 97.3268293,0.546349268 97.3268293,2.18537366 Z M95.297561,7.02439024 L95.297561,22.1658537 L96.7804878,22.1658537 L96.7804878,7.02439024 L95.297561,7.02439024 Z" id="Shape" fill="#000000" fill-rule="nonzero"></path>
            <polygon id="Path" fill="#000000" points="102.478049 0.780487805 102.478049 22.1658537 100.995122 22.1658537 100.995122 0.780487805"></polygon>
            <path d="M108.643902,2.18537366 C108.643902,3.82439805 106.22439,3.82439805 106.22439,2.18537366 C106.22439,0.546349268 108.643902,0.546349268 108.643902,2.18537366 Z M106.692683,7.02439024 L106.692683,22.1658537 L108.17561,22.1658537 L108.17561,7.02439024 L106.692683,7.02439024 Z" id="Shape" fill="#000000" fill-rule="nonzero"></path>
            <path d="M124.409756,6.47804878 L125.42439,7.33658537 L124.019512,9.05365854 C125.034146,10.2243902 125.892683,11.7853659 125.892683,14.1268293 C125.892683,16.702439 124.331707,19.4341463 121.834146,20.5268293 C124.487805,21.4634146 125.892683,23.3365854 125.892683,25.9121951 C125.892683,29.9707317 122.770732,31.9219512 118.790244,31.9219512 C114.809756,31.9219512 111.687805,29.7365854 111.687805,25.9121951 L113.170732,25.9121951 C113.170732,29.0341463 115.746341,30.4390244 118.790244,30.4390244 C121.756098,30.4390244 124.487805,29.1121951 124.487805,25.9121951 C124.487805,22.6341463 121.6,21.3853659 118.790244,21.3853659 C114.497561,21.3853659 111.765854,18.1073171 111.765854,14.0487805 C111.765854,9.36585366 114.887805,6.71219512 118.790244,6.71219512 C120.273171,6.71219512 121.834146,7.25853659 123.004878,8.03902439 L124.409756,6.47804878 Z M113.170732,14.204878 C113.170732,17.3268293 115.278049,19.9804878 118.712195,19.9804878 C121.756098,19.9804878 124.331707,17.2487805 124.331707,14.204878 C124.331707,10.3804878 121.834146,8.35121951 118.712195,8.35121951 C115.668293,8.35121951 113.170732,10.2243902 113.170732,14.204878 Z" id="Shape" fill="#000000" fill-rule="nonzero"></path>
            <path d="M128,14.6731707 C128,10.1463415 131.356098,6.86829268 135.570732,6.86829268 C139.785366,6.86829268 143.531707,9.44390244 142.985366,15.3756098 L129.560976,15.3756098 C129.873171,18.9658537 132.526829,20.995122 135.64878,20.995122 C137.6,20.995122 139.941463,20.2146341 141.034146,18.7317073 L142.04878,19.5902439 C140.643902,21.4634146 137.990244,22.4780488 135.570732,22.4780488 C131.356098,22.4 128,19.4341463 128,14.6731707 Z M141.658537,14.0487805 C141.580488,10.3804878 139.239024,8.27317073 135.570732,8.27317073 C132.526829,8.27317073 129.795122,10.3804878 129.482927,14.0487805 L141.658537,14.0487805 Z" id="Shape" fill="#000000" fill-rule="nonzero"></path>
            <path d="M148.292683,7.10243902 L148.292683,9.83414634 C149.463415,7.80487805 151.492683,6.86829268 153.6,6.86829268 C157.658537,6.86829268 160.390244,9.28780488 160.390244,13.502439 L160.390244,22.2439024 L158.907317,22.2439024 L158.907317,13.502439 C158.907317,10.0682927 156.8,8.27317073 153.6,8.27317073 C150.556098,8.35121951 148.370732,10.6926829 148.370732,13.8146341 L148.370732,22.2439024 L146.887805,22.2439024 L146.887805,7.10243902 L148.292683,7.10243902 Z" id="Path" fill="#000000"></path>
            <path d="M176.546341,20.0585366 C175.063415,21.5414634 173.034146,22.3219512 171.082927,22.3219512 C166.868293,22.3219512 163.356098,19.3560976 163.356098,14.595122 C163.356098,9.83414634 166.712195,6.86829268 171.082927,6.86829268 C173.034146,6.86829268 174.985366,7.64878049 176.546341,9.13170732 L175.531707,10.0682927 C174.360976,8.89756098 172.643902,8.27317073 171.082927,8.27317073 C167.726829,8.27317073 164.839024,10.5365854 164.839024,14.595122 C164.839024,18.6536585 167.64878,20.9170732 171.082927,20.9170732 C172.643902,20.9170732 174.282927,20.2926829 175.531707,19.0439024 L176.546341,20.0585366 Z" id="Path" fill="#000000"></path>
            <path d="M179.278049,14.6731707 C179.278049,10.1463415 182.634146,6.86829268 186.84878,6.86829268 C191.063415,6.86829268 194.809756,9.44390244 194.263415,15.3756098 L180.839024,15.3756098 C181.15122,18.9658537 183.804878,20.995122 186.926829,20.995122 C188.878049,20.995122 191.219512,20.2146341 192.312195,18.7317073 L193.326829,19.5902439 C191.921951,21.4634146 189.268293,22.4780488 186.84878,22.4780488 C182.712195,22.4 179.278049,19.4341463 179.278049,14.6731707 Z M192.936585,14.0487805 C192.858537,10.3804878 190.517073,8.27317073 186.84878,8.27317073 C183.804878,8.27317073 181.073171,10.3804878 180.760976,14.0487805 L192.936585,14.0487805 Z" id="Shape" fill="#000000" fill-rule="nonzero"></path>
            <path d="M33.404722,6.16585366 C31.8437463,3.04390244 28.7998439,0.780487805 24.0388683,0.780487805 C28.7998439,0.780487805 31.8437463,3.04390244 33.404722,6.16585366 Z" id="Path" fill="#000000"></path>
            <path d="M34.5756098,11.3170732 C34.5756098,13.4243902 34.1073171,15.4536585 33.1707317,17.2487805 C33.1707317,17.2487805 33.1707317,17.2487805 33.2487805,17.2487805 C34.1853659,15.4536585 34.6536585,13.4243902 34.5756098,11.3170732 C34.5756098,9.52195122 34.1853659,7.72682927 33.404878,6.16584585 C34.1853659,7.72682927 34.5756098,9.52195122 34.5756098,11.3170732 Z" id="Path" fill="#FFFF00"></path>
            <path d="M19.3560976,10.5365854 C16.702439,7.25853659 15.4536585,3.66829268 14.8292683,1.56097561 L14.8292683,22.1658537 C14.9073171,22.1658537 14.9853659,22.1658537 15.0634146,22.1658537 C15.6878049,18.9658537 17.2487805,16.3121951 19.3560976,14.1268293 L19.3560976,10.5365854 Z" id="Path" fill="#00C1D2"></path>
            <path d="M20.9170732,4.44878049 L24.8195122,4.44878049 C27.3170732,4.44878049 28.9560976,5.54146341 29.8146341,7.10243902 C31.3756098,6.32195122 32.8585366,5.77560976 34.1073171,5.38536585 C32.5463415,2.34146341 29.502439,0 24.7414634,0 C22.1658537,0 19.0439024,0 16.3902439,0 L16.3902439,0.780487805 C16.9365854,2.88780488 18.2634146,6.55609756 20.9170732,9.75609756 L20.9170732,4.44878049 Z" id="Path" fill="#000000"></path>
            <path d="M24.8193561,18.4195122 L20.9169171,18.4195122 L20.9169171,14.8292683 C18.8876488,17.0146341 17.2486244,19.6682927 16.6242341,22.8682927 C19.1998439,22.8682927 22.2437463,22.8682927 24.7413073,22.8682927 C29.2681366,22.8682927 32.312039,20.8390244 33.8730146,17.9512195 C32.0778927,17.795122 30.3608195,17.4829268 28.8778927,16.9365854 C28.0193561,17.8731707 26.614478,18.4195122 24.8193561,18.4195122 Z" id="Path" fill="#FF55BA"></path>
            <path d="M34.1854439,5.38535805 C32.9366634,5.77560195 31.4537366,6.4 29.892761,7.10243902 C30.5171512,8.11707317 30.8293463,9.28780488 30.8293463,10.5365854 C30.9073951,12.4097561 30.3610537,14.204878 28.9561756,15.4536585 C30.4391024,16 32.0781268,16.3121951 33.9512976,16.4682927 C34.9659317,14.6731707 35.4342244,12.5658537 35.3561756,10.5365854 C35.3561756,8.74146341 34.9659317,6.94634146 34.1854439,5.38535805 Z" id="Path" fill="#000000"></path>
        </g>
    </g>
</svg>