<svg width="249" height="43" viewBox="0 0 249 43" fill="none" xmlns="http://www.w3.org/2000/svg">
<path d="M8.5 19L14.2 11.1H16.5V11.2L9.6 20.4L17 30.3V30.4H14.8L8.5 21.7L2.2 30.4H0V30.3L7.4 20.4L0.6 11.1H2.9L8.5 19Z" fill="black"/>
<path d="M52.9998 11.1V21.2C52.9998 24.1 54.5998 26.4 57.5998 26.4C60.4998 26.4 62.4998 24 62.4998 21V11.1H67.1998V30.4H62.9998L62.6998 27.8C60.6998 29.7 58.8998 30.7 56.1998 30.7C51.5998 30.7 48.2998 27.2 48.2998 21.2V11.1H52.9998Z" fill="black"/>
<path d="M75.4998 22.5C75.7998 24.9 77.8998 26.6 81.1998 26.6C82.8998 26.6 85.1998 26 86.3998 24.8L89.4998 27.8C87.4998 29.9 84.1998 30.9 81.2998 30.9C74.6998 30.9 70.7998 26.8 70.7998 20.6C70.7998 14.8 74.6998 10.5 80.9998 10.5C87.3998 10.5 91.3998 14.5 90.6998 22.4L75.4998 22.5ZM85.7998 18.5C85.4998 16 83.5998 14.7 80.7998 14.7C78.2998 14.7 76.1998 16 75.4998 18.5H85.7998Z" fill="black"/>
<path d="M117.7 16.4C117.8 23.4 113.4 30.4 103.9 30.4C100.8 30.4 97.8002 30.4 94.7002 30.4V3C97.8002 3 100.8 3 103.9 3C113.1 3 117.6 9.7 117.7 16.4ZM96.9002 5.1V28.4H104C112.1 28.4 115.8 22.3 115.7 16.4C115.6 10.7 111.9 5.1 104 5.1H96.9002Z" fill="black"/>
<path d="M124.7 4.80001C124.7 6.90001 121.6 6.90001 121.6 4.80001C121.6 2.70001 124.7 2.70001 124.7 4.80001ZM122.1 11V30.4H124V11H122.1Z" fill="black"/>
<path d="M131.3 3V30.4H129.4V3H131.3Z" fill="black"/>
<path d="M139.2 4.80001C139.2 6.90001 136.1 6.90001 136.1 4.80001C136.1 2.70001 139.2 2.70001 139.2 4.80001ZM136.7 11V30.4H138.6V11H136.7Z" fill="black"/>
<path d="M159.4 10.3L160.7 11.4L158.9 13.6C160.2 15.1 161.3 17.1 161.3 20.1C161.3 23.4 159.3 26.9 156.1 28.3C159.5 29.5 161.3 31.9 161.3 35.2C161.3 40.4 157.3 42.9 152.2 42.9C147.1 42.9 143.1 40.1 143.1 35.2H145C145 39.2 148.3 41 152.2 41C156 41 159.5 39.3 159.5 35.2C159.5 31 155.8 29.4 152.2 29.4C146.7 29.4 143.2 25.2 143.2 20C143.2 14 147.2 10.6 152.2 10.6C154.1 10.6 156.1 11.3 157.6 12.3L159.4 10.3ZM145 20.2C145 24.2 147.7 27.6 152.1 27.6C156 27.6 159.3 24.1 159.3 20.2C159.3 15.3 156.1 12.7 152.1 12.7C148.2 12.7 145 15.1 145 20.2Z" fill="black"/>
<path d="M164 20.8C164 15 168.3 10.8 173.7 10.8C179.1 10.8 183.9 14.1 183.2 21.7H166C166.4 26.3 169.8 28.9 173.8 28.9C176.3 28.9 179.3 27.9 180.7 26L182 27.1C180.2 29.5 176.8 30.8 173.7 30.8C168.3 30.7 164 26.9 164 20.8ZM181.5 20C181.4 15.3 178.4 12.6 173.7 12.6C169.8 12.6 166.3 15.3 165.9 20H181.5Z" fill="black"/>
<path d="M190 11.1V14.6C191.5 12 194.1 10.8 196.8 10.8C202 10.8 205.5 13.9 205.5 19.3V30.5H203.6V19.3C203.6 14.9 200.9 12.6 196.8 12.6C192.9 12.7 190.1 15.7 190.1 19.7V30.5H188.2V11.1H190Z" fill="black"/>
<path d="M226.2 27.7C224.3 29.6 221.7 30.6 219.2 30.6C213.8 30.6 209.3 26.8 209.3 20.7C209.3 14.6 213.6 10.8 219.2 10.8C221.7 10.8 224.2 11.8 226.2 13.7L224.9 14.9C223.4 13.4 221.2 12.6 219.2 12.6C214.9 12.6 211.2 15.5 211.2 20.7C211.2 25.9 214.8 28.8 219.2 28.8C221.2 28.8 223.3 28 224.9 26.4L226.2 27.7Z" fill="black"/>
<path d="M229.7 20.8C229.7 15 234 10.8 239.4 10.8C244.8 10.8 249.6 14.1 248.9 21.7H231.7C232.1 26.3 235.5 28.9 239.5 28.9C242 28.9 245 27.9 246.4 26L247.7 27.1C245.9 29.5 242.5 30.8 239.4 30.8C234.1 30.7 229.7 26.9 229.7 20.8ZM247.2 20C247.1 15.3 244.1 12.6 239.4 12.6C235.5 12.6 232 15.3 231.6 20H247.2Z" fill="black"/>
<path d="M42.7998 9.9C40.7998 5.9 36.8998 3 30.7998 3C36.8998 3 40.7998 5.9 42.7998 9.9Z" fill="black"/>
<path d="M44.3 16.5C44.3 19.2 43.7 21.8 42.5 24.1C42.5 24.1 42.5 24.1 42.6 24.1C43.8 21.8 44.4 19.2 44.3 16.5C44.3 14.2 43.8 11.9 42.8 9.89999C43.8 11.9 44.3 14.2 44.3 16.5Z" fill="#FFFF00"/>
<path d="M24.8 15.5C21.4 11.3 19.8 6.7 19 4V30.4C19.1 30.4 19.2 30.4 19.3 30.4C20.1 26.3 22.1 22.9 24.8 20.1V15.5Z" fill="#00C1D2"/>
<path d="M26.8 7.7H31.8C35 7.7 37.1 9.1 38.2 11.1C40.2 10.1 42.1 9.4 43.7 8.9C41.7 5 37.8 2 31.7 2C28.4 2 24.4 2 21 2V3C21.7 5.7 23.4 10.4 26.8 14.5V7.7Z" fill="black"/>
<path d="M31.7998 25.6H26.7998V21C24.1998 23.8 22.0998 27.2 21.2998 31.3C24.5998 31.3 28.4998 31.3 31.6998 31.3C37.4998 31.3 41.3998 28.7 43.3998 25C41.0998 24.8 38.8998 24.4 36.9998 23.7C35.8998 24.9 34.0998 25.6 31.7998 25.6Z" fill="#FF55BA"/>
<path d="M43.8001 8.89999C42.2001 9.39999 40.3001 10.2 38.3001 11.1C39.1001 12.4 39.5001 13.9 39.5001 15.5C39.6001 17.9 38.9001 20.2 37.1001 21.8C39.0001 22.5 41.1001 22.9 43.5001 23.1C44.8001 20.8 45.4001 18.1 45.3001 15.5C45.3001 13.2 44.8001 10.9 43.8001 8.89999Z" fill="black"/>
</svg>
