<svg width="81" height="95" viewBox="0 0 81 95" fill="none" xmlns="http://www.w3.org/2000/svg">
<path d="M59.3917 52.1168C59.175 50.7961 58.5357 49.5813 57.5699 48.6549C57.5336 48.6186 57.4902 48.5888 57.4528 48.5534L57.4537 48.5523L57.4455 48.547C57.2895 48.3954 57.1251 48.2528 56.9531 48.1197V48.0938C56.9518 46.8801 56.5151 45.7073 55.7224 44.7883C54.9298 43.8693 53.8337 43.2652 52.6334 43.0857C52.2621 42.2009 51.6931 41.4129 50.9699 40.7822C50.2468 40.1514 49.3887 39.6947 48.4617 39.4471C47.5346 39.1995 46.5631 39.1676 45.6218 39.3537C44.6805 39.5399 43.7943 39.9392 43.0313 40.521C42.2682 39.9392 41.382 39.5399 40.4407 39.3537C39.4994 39.1676 38.5279 39.1995 37.6008 39.4471C36.6738 39.6947 35.8158 40.1514 35.0926 40.7822C34.3695 41.4129 33.8004 42.2009 33.4291 43.0857C32.2288 43.2652 31.1328 43.8693 30.3401 44.7883C29.5474 45.7073 29.1107 46.8801 29.1094 48.0938V48.1209C28.1166 48.8605 27.3643 49.8767 26.9467 51.042C26.5291 52.2074 26.4648 53.4702 26.7619 54.6719C27.059 55.8737 27.7043 56.961 28.6168 57.7976C29.5293 58.6341 30.6685 59.1826 31.8915 59.3744C32.8281 60.5565 34.1247 61.4008 35.5847 61.7791C37.0446 62.1574 38.5881 62.0491 39.9809 61.4706C41.95 62.1948 44.1125 62.1948 46.0816 61.4706C46.9178 61.8277 47.8173 62.013 48.7266 62.0156C49.7749 62.0169 50.8098 61.7798 51.7531 61.3222C52.6963 60.8647 53.5231 60.1986 54.171 59.3744C55.6498 59.1355 56.9957 58.3793 57.9688 57.2404C58.942 56.1016 59.4791 54.6542 59.4844 53.1562C59.485 52.8364 59.4577 52.5172 59.4028 52.2021C59.4003 52.1737 59.3966 52.1452 59.3917 52.1168ZM53.3942 56.9173C53.1978 56.9296 53.0069 56.9875 52.8368 57.0864C52.6667 57.1853 52.5219 57.3225 52.4141 57.4871C51.8187 58.4033 50.9018 59.0634 49.8441 59.3374C48.7864 59.6114 47.6644 59.4796 46.699 58.9677C46.5199 58.8751 46.3211 58.8268 46.1194 58.8268C45.9444 58.8271 45.7713 58.8633 45.6108 58.9332C44.799 59.295 43.9201 59.4819 43.0313 59.4819C42.1425 59.4819 41.2637 59.295 40.4519 58.9332C40.2794 58.8574 40.0921 58.8212 39.9038 58.8272C39.7155 58.8332 39.5309 58.8812 39.3636 58.9678C38.3982 59.4793 37.2763 59.6109 36.2186 59.3369C35.161 59.0629 34.2442 58.403 33.6485 57.4871C33.5407 57.3225 33.3959 57.1853 33.2258 57.0864C33.0557 56.9875 32.8648 56.9296 32.6684 56.9173C31.7085 56.8595 30.8066 56.4386 30.1456 55.7402C29.4846 55.0417 29.1142 54.1179 29.1094 53.1562C29.1202 52.3191 29.4134 51.5101 29.9413 50.8603C30.5366 51.7738 31.4111 52.4704 32.4346 52.8463C33.4581 53.2221 34.5756 53.2572 35.6206 52.9461C36.6656 52.635 37.582 51.9944 38.2333 51.12C38.8845 50.2456 39.2357 49.1841 39.2344 48.0938H36.7031C36.7028 48.5923 36.5553 49.0796 36.279 49.4946C36.0028 49.9095 35.6102 50.2337 35.1505 50.4265C34.6907 50.6192 34.1843 50.6719 33.6947 50.5779C33.2052 50.4839 32.7543 50.2475 32.3985 49.8982C32.0428 49.549 31.7981 49.1025 31.6952 48.6147C31.5922 48.127 31.6356 47.6197 31.8199 47.1565C32.0041 46.6933 32.3211 46.2948 32.7309 46.011C33.1407 45.7272 33.6253 45.5707 34.1237 45.5612C34.1688 45.5662 34.3035 45.5748 34.3492 45.5748C34.6307 45.5748 34.9041 45.4809 35.1262 45.3081C35.3484 45.1354 35.5066 44.8934 35.5759 44.6207C35.7364 43.9629 36.0723 43.3611 36.5478 42.8792C37.0234 42.3973 37.6208 42.0534 38.2763 41.8843C38.9319 41.7151 39.621 41.727 40.2704 41.9186C40.9197 42.1102 41.5049 42.4745 41.9636 42.9724C41.8385 43.403 41.7719 43.8485 41.7656 44.2969C41.7671 45.6391 42.3009 46.9259 43.25 47.875C44.1991 48.8241 45.4859 49.3579 46.8281 49.3594V46.8281C46.2032 46.8284 45.6003 46.5974 45.1356 46.1796C44.6708 45.7618 44.3771 45.1868 44.3111 44.5654C44.245 43.944 44.4113 43.3201 44.7778 42.814C45.1443 42.3078 45.6852 41.9552 46.2962 41.8241C46.4718 41.7916 46.6496 41.7721 46.8281 41.7656C47.6687 41.7667 48.4848 42.048 49.1475 42.5651C49.8101 43.0823 50.2813 43.8056 50.4866 44.6207C50.5559 44.8935 50.7141 45.1354 50.9363 45.3082C51.1584 45.481 51.4318 45.5748 51.7133 45.5749C51.7726 45.5761 51.832 45.572 51.8906 45.5625C52.4576 45.564 53.0077 45.7558 53.4526 46.1073C53.8976 46.4588 54.2116 46.9495 54.3443 47.5007C53.0048 47.5057 51.7218 48.041 50.7758 48.9894C49.8298 49.9378 49.2979 51.2222 49.2964 52.5617H51.8276C51.8284 51.8907 52.0953 51.2473 52.5698 50.7727C53.0444 50.2982 53.6878 50.0313 54.3589 50.0305C54.8985 50.0297 55.4239 50.2036 55.8564 50.5264C56.3896 51.0483 56.748 51.7227 56.8821 52.4567C56.8857 52.4994 56.8915 52.5419 56.8994 52.584C56.9354 52.7726 56.9534 52.9642 56.9531 53.1562C56.9483 54.1179 56.5779 55.0416 55.9169 55.7401C55.256 56.4386 54.3541 56.8594 53.3942 56.9173L53.3942 56.9173Z" fill="#C42C7F"/>
<path d="M40.5 56.9531H43.0312C43.032 56.282 43.2989 55.6386 43.7735 55.1641C44.248 54.6896 44.8914 54.4226 45.5625 54.4219V51.8906C44.2203 51.8921 42.9334 52.4259 41.9844 53.375C41.0353 54.3241 40.5014 55.6109 40.5 56.9531V56.9531Z" fill="#C42C7F"/>
<path d="M67.4761 57.1089C67.7287 57.0253 67.9484 56.8642 68.1042 56.6485C68.26 56.4328 68.3438 56.1735 68.3438 55.9075V47.8737C68.3438 47.6077 68.26 47.3484 68.1042 47.1328C67.9484 46.9171 67.7287 46.756 67.4761 46.6724L62.8548 45.1422C62.5621 44.2856 62.2142 43.4488 61.8135 42.637L63.767 38.5237C63.8635 38.3203 63.9041 38.0949 63.8844 37.8707C63.8647 37.6465 63.7856 37.4316 63.6551 37.2482C62.0106 34.9333 59.9888 32.9111 57.6743 31.2661C57.4906 31.1361 57.2756 31.0572 57.0513 31.0377C56.8271 31.0181 56.6016 31.0586 56.3982 31.1549L52.2843 33.1077C51.4729 32.7072 50.6365 32.3596 49.7802 32.067L48.2495 27.4458C48.1659 27.1932 48.0048 26.9734 47.7891 26.8177C47.5735 26.6619 47.3142 26.5781 47.0481 26.5781H39.0144C38.7483 26.5781 38.489 26.6619 38.2734 26.8177C38.0577 26.9734 37.8966 27.1932 37.813 27.4458L36.2625 32.1276L33.835 33.1349L29.6643 31.1549C29.4607 31.0588 29.2352 31.0186 29.011 31.0384C28.7868 31.0581 28.5718 31.1372 28.3882 31.2674C26.0737 32.912 24.0519 34.9337 22.4073 37.2482C22.2769 37.4316 22.1977 37.6465 22.1781 37.8707C22.1584 38.095 22.1989 38.3204 22.2955 38.5237L24.2755 42.6938L23.2676 45.1225L18.5864 46.6725C18.3338 46.7561 18.1141 46.9171 17.9583 47.1328C17.8025 47.3484 17.7187 47.6077 17.7188 47.8737V55.9075C17.7187 56.1735 17.8025 56.4328 17.9583 56.6485C18.1141 56.8642 18.3338 57.0253 18.5864 57.1089L23.2676 58.6588L24.2755 61.0874L22.2949 65.2575C22.1984 65.4611 22.1579 65.6867 22.1775 65.9111C22.1972 66.1355 22.2763 66.3506 22.4068 66.5343C24.0522 68.8482 26.0741 70.8699 28.3882 72.5151C28.5721 72.645 28.7872 72.7237 29.0115 72.7432C29.2358 72.7628 29.4613 72.7224 29.6649 72.6264L33.8345 70.6451L36.2625 71.6537L37.8131 76.3355C37.8967 76.588 38.0578 76.8078 38.2734 76.9636C38.4891 77.1193 38.7483 77.2032 39.0144 77.2031H47.0481C47.3142 77.2032 47.5735 77.1193 47.7891 76.9636C48.0048 76.8078 48.1659 76.588 48.2495 76.3355L49.7802 71.7142C50.6364 71.4211 51.4728 71.073 52.2843 70.6723L56.3976 72.6264C56.601 72.723 56.8266 72.7637 57.051 72.7441C57.2755 72.7245 57.4906 72.6455 57.6743 72.5151C59.9888 70.8701 62.0106 68.8479 63.6551 66.5331C63.7856 66.3497 63.8647 66.1347 63.8844 65.9105C63.9041 65.6863 63.8635 65.4609 63.767 65.2575L61.8135 61.143C62.2146 60.3319 62.5622 59.4954 62.8542 58.6389L67.4761 57.1089ZM61.4495 56.4377C61.2574 56.5012 61.0833 56.6098 60.9418 56.7546C60.8004 56.8993 60.6958 57.0759 60.6369 57.2695C60.2921 58.3965 59.8392 59.4876 59.2848 60.5275C59.1921 60.7019 59.1414 60.8956 59.1369 61.093C59.1324 61.2904 59.1742 61.4862 59.2588 61.6646L61.156 65.6605C59.908 67.3024 58.4427 68.7672 56.8005 70.0148L52.8058 68.1176C52.6272 68.0323 52.4311 67.9902 52.2333 67.9947C52.0354 67.9993 51.8414 68.0502 51.6669 68.1436C50.6279 68.699 49.5374 69.1522 48.4108 69.4969C48.2172 69.5558 48.0407 69.6603 47.8959 69.8016C47.7512 69.9429 47.6425 70.1169 47.5789 70.3089L46.1341 74.6719H39.9284L38.4835 70.3089C38.4264 70.1366 38.3329 69.9785 38.2093 69.8454C38.0857 69.7124 37.935 69.6074 37.7673 69.5377L34.285 68.0916C34.1213 68.0239 33.9452 67.9912 33.7681 67.9957C33.591 68.0002 33.4167 68.0417 33.2567 68.1176L29.262 70.0147C27.6194 68.7669 26.1539 67.3017 24.9059 65.6592L26.8037 61.6646C26.8797 61.5046 26.9214 61.3303 26.9258 61.1532C26.9303 60.976 26.8975 60.7999 26.8296 60.6363L25.3842 57.1533C25.3144 56.9857 25.2095 56.835 25.0764 56.7116C24.9434 56.5881 24.7853 56.4947 24.613 56.4376L20.25 54.9929V48.7884L24.613 47.3435C24.7853 47.2865 24.9434 47.1931 25.0764 47.0696C25.2095 46.9461 25.3144 46.7955 25.3842 46.6279L26.8296 43.1449C26.8975 42.9812 26.9303 42.8051 26.9258 42.628C26.9213 42.4509 26.8797 42.2766 26.8037 42.1166L24.9065 38.1207C26.1552 36.479 27.6203 35.0139 29.262 33.7652L33.2579 35.6624C33.4178 35.7386 33.5919 35.7803 33.769 35.7847C33.946 35.7892 34.1221 35.7564 34.2856 35.6883L37.7673 34.2435C37.935 34.1738 38.0857 34.0688 38.2093 33.9358C38.3329 33.8027 38.4264 33.6446 38.4836 33.4723L39.9284 29.1094H46.1341L47.579 33.4723C47.6425 33.6644 47.7512 33.8384 47.896 33.9797C48.0407 34.121 48.2173 34.2255 48.4108 34.2843C49.5373 34.6299 50.6281 35.0827 51.6682 35.6365C51.8426 35.7289 52.0362 35.7794 52.2336 35.7839C52.431 35.7884 52.6267 35.7468 52.8052 35.6624L56.8005 33.7653C58.4425 35.0136 59.9077 36.4788 61.156 38.1208L59.2588 42.1167C59.1741 42.2953 59.1324 42.4913 59.137 42.689C59.1417 42.8866 59.1925 43.0805 59.2854 43.255C59.8402 44.2943 60.2928 45.385 60.6369 46.5117C60.6958 46.7053 60.8004 46.8819 60.9418 47.0267C61.0833 47.1714 61.2574 47.2801 61.4495 47.3435L65.8125 48.7884V54.9929L61.4495 56.4377Z" fill="#C42C7F"/>
<path d="M42.6938 18.9844C34.7301 18.9934 27.0952 22.1609 21.464 27.7921C15.8328 33.4233 12.6652 41.0583 12.6563 49.022V57.8195L4.02553 70.1495C3.89271 70.3391 3.81448 70.5616 3.79935 70.7926C3.78422 71.0237 3.83277 71.2544 3.93972 71.4598C4.04666 71.6651 4.2079 71.8372 4.40588 71.9572C4.60385 72.0773 4.83097 72.1407 5.0625 72.1406H12.6563V78.4688H15.1875V70.875C15.1875 70.7088 15.1548 70.5442 15.0913 70.3906C15.0277 70.237 14.9344 70.0975 14.8169 69.98C14.6994 69.8624 14.5598 69.7692 14.4063 69.7056C14.2527 69.642 14.0881 69.6093 13.9219 69.6094H7.49302L14.9589 58.9443C15.1077 58.7316 15.1876 58.4783 15.1875 58.2188V49.022C15.1958 41.7294 18.0965 34.7379 23.2531 29.5812C28.4098 24.4246 35.4013 21.524 42.6938 21.5156H43.3687C50.6612 21.524 57.6528 24.4246 62.8094 29.5812C67.966 34.7379 70.8667 41.7294 70.875 49.022V78.4688H73.4063V49.022C73.3973 41.0583 70.2297 33.4233 64.5985 27.7921C58.9673 22.1609 51.3324 18.9934 43.3687 18.9844H42.6938Z" fill="#C42C7F"/>
<path d="M15.1875 13.9219V26.5781H17.7187V15.1875H21.5156C21.7587 15.1875 21.9967 15.1175 22.2011 14.9858C22.4054 14.8542 22.5675 14.6664 22.668 14.445C22.7685 14.2236 22.803 13.978 22.7675 13.7375C22.7321 13.497 22.628 13.2718 22.4679 13.0888L13.6086 2.96384C13.4866 2.83337 13.3391 2.72934 13.1753 2.65822C13.0115 2.58711 12.8348 2.55041 12.6562 2.55041C12.4777 2.55041 12.301 2.58711 12.1372 2.65822C11.9733 2.72934 11.8259 2.83337 11.7039 2.96384L2.84456 13.0888C2.68445 13.2718 2.58044 13.497 2.54495 13.7375C2.50947 13.978 2.54402 14.2236 2.64448 14.445C2.74494 14.6664 2.90705 14.8542 3.11142 14.9858C3.31578 15.1175 3.55376 15.1875 3.79687 15.1875H7.59374V37.9688H10.125V13.9219C10.125 13.7557 10.0923 13.5911 10.0287 13.4375C9.96515 13.2839 9.87193 13.1444 9.7544 13.0268C9.63686 12.9093 9.49733 12.8161 9.34375 12.7525C9.19018 12.6889 9.02558 12.6562 8.85937 12.6563H6.58581L12.6562 5.71879L18.7267 12.6563H16.4531C16.2869 12.6562 16.1223 12.6889 15.9687 12.7525C15.8152 12.8161 15.6756 12.9093 15.5581 13.0268C15.4406 13.1444 15.3473 13.2839 15.2837 13.4375C15.2202 13.5911 15.1875 13.7557 15.1875 13.9219V13.9219Z" fill="#C42C7F"/>
<path d="M39.5477 2.96384L30.6883 13.0888C30.5282 13.2718 30.4242 13.497 30.3887 13.7375C30.3532 13.978 30.3878 14.2236 30.4882 14.445C30.5887 14.6664 30.7508 14.8542 30.9552 14.9858C31.1595 15.1175 31.3975 15.1875 31.6406 15.1875H35.4375V16.4531H37.9687V13.9219C37.9688 13.7557 37.9361 13.5911 37.8725 13.4375C37.8089 13.2839 37.7157 13.1444 37.5981 13.0268C37.4806 12.9093 37.3411 12.8161 37.1875 12.7525C37.0339 12.6889 36.8693 12.6562 36.7031 12.6563H34.4296L40.5 5.71879L46.5704 12.6563H44.2969C44.1307 12.6562 43.9661 12.6889 43.8125 12.7525C43.6589 12.8161 43.5194 12.9093 43.4018 13.0268C43.2843 13.1444 43.1911 13.2839 43.1275 13.4375C43.0639 13.5911 43.0312 13.7557 43.0312 13.9219V16.4531H45.5625V15.1875H49.3594C49.6025 15.1875 49.8405 15.1175 50.0448 14.9858C50.2492 14.8542 50.4113 14.6664 50.5118 14.445C50.6122 14.2236 50.6468 13.978 50.6113 13.7375C50.5758 13.497 50.4718 13.2718 50.3117 13.0888L41.4523 2.96384C41.3304 2.83337 41.1829 2.72934 41.0191 2.65822C40.8553 2.58711 40.6786 2.55041 40.5 2.55041C40.3214 2.55041 40.1447 2.58711 39.9809 2.65822C39.8171 2.72934 39.6696 2.83337 39.5477 2.96384Z" fill="#C42C7F"/>
<path d="M58.3318 14.4447C58.4323 14.6662 58.5944 14.854 58.7988 14.9858C59.0032 15.1175 59.2412 15.1875 59.4844 15.1875H63.2812V22.7812H65.8125V13.9219C65.8125 13.7557 65.7798 13.5911 65.7162 13.4375C65.6527 13.2839 65.5594 13.1444 65.4419 13.0268C65.3244 12.9093 65.1848 12.8161 65.0313 12.7525C64.8777 12.6889 64.7131 12.6562 64.5469 12.6563H62.2733L68.3437 5.71879L74.4142 12.6563H72.1406C71.9744 12.6562 71.8098 12.6889 71.6562 12.7525C71.5027 12.8161 71.3631 12.9093 71.2456 13.0268C71.1281 13.1444 71.0348 13.2839 70.9712 13.4375C70.9077 13.5911 70.875 13.7557 70.875 13.9219V32.9062H73.4062V15.1875H77.2031C77.4462 15.1875 77.6842 15.1175 77.8886 14.9858C78.0929 14.8542 78.255 14.6664 78.3555 14.445C78.456 14.2236 78.4905 13.978 78.455 13.7375C78.4195 13.497 78.3155 13.2718 78.1554 13.0888L69.2961 2.96384C69.1741 2.83337 69.0267 2.72934 68.8628 2.65822C68.699 2.58711 68.5223 2.55041 68.3437 2.55041C68.1652 2.55041 67.9885 2.58711 67.8247 2.65822C67.6608 2.72934 67.5134 2.83337 67.3914 2.96384L58.5321 13.0888C58.3719 13.2717 58.2679 13.4968 58.2324 13.7373C58.1969 13.9778 58.2314 14.2233 58.3318 14.4447V14.4447Z" fill="#C42C7F"/>
<path d="M78.4688 75.9375H75.9375V78.4688H78.4688V75.9375Z" fill="#C42C7F"/>
<path d="M10.125 40.5H7.59375V43.0312H10.125V40.5Z" fill="#C42C7F"/>
</svg>
