<svg width="81" height="97" viewBox="0 0 81 97" fill="none" xmlns="http://www.w3.org/2000/svg">
<path d="M65.6094 1.36426C58.4268 1.36426 52.583 7.20801 52.583 14.3906C52.583 21.5732 58.4268 27.417 65.6094 27.417C72.792 27.417 78.6357 21.5732 78.6357 14.3906C78.6357 7.20801 72.792 1.36426 65.6094 1.36426ZM59.0317 23.2193C59.1536 20.4174 60.9839 18.0162 63.689 17.1953C64.0747 17.0781 64.3525 16.7412 64.3931 16.3398C64.4341 15.9385 64.2305 15.5527 63.8765 15.3604C62.6045 14.668 61.814 13.3389 61.814 11.8916C61.814 9.71582 63.5845 7.94531 65.7603 7.94531C67.936 7.94531 69.7061 9.71582 69.7061 11.8916C69.7061 13.3818 68.8779 14.7285 67.5449 15.4072C67.1851 15.5908 66.9707 15.9717 67.0015 16.374C67.0317 16.7764 67.3013 17.1211 67.6841 17.248C70.2977 18.1134 72.0666 20.4922 72.1873 23.2192C70.3484 24.5929 68.0761 25.417 65.6094 25.417C63.1427 25.417 60.8705 24.593 59.0317 23.2193ZM73.9722 21.5573C73.4387 19.2668 71.9992 17.2866 69.9648 16.0957C71.0659 15 71.7061 13.501 71.7061 11.8916C71.7061 8.61328 69.0386 5.94531 65.7603 5.94531C62.4814 5.94531 59.814 8.61328 59.814 11.8916C59.814 13.4365 60.4121 14.8926 61.4429 15.9814C59.3026 17.1563 57.7927 19.1826 57.2459 21.5566C55.5903 19.6273 54.583 17.1264 54.583 14.3906C54.583 8.31055 59.5293 3.36426 65.6094 3.36426C71.6895 3.36426 76.6357 8.31055 76.6357 14.3906C76.6357 17.1268 75.6281 19.6279 73.9722 21.5573Z" fill="#C42C7F"/>
<path d="M14.3906 27.417C21.5732 27.417 27.417 21.5732 27.417 14.3906C27.417 7.20801 21.5732 1.36426 14.3906 1.36426C7.20801 1.36426 1.36426 7.20801 1.36426 14.3906C1.36426 21.5732 7.20801 27.417 14.3906 27.417ZM7.81293 23.2193C7.93481 20.4174 9.76514 18.0162 12.4702 17.1953C12.856 17.0781 13.1338 16.7412 13.1743 16.3398C13.2153 15.9385 13.0117 15.5527 12.6577 15.3604C11.3857 14.668 10.5952 13.3389 10.5952 11.8916C10.5952 9.71582 12.3652 7.94531 14.541 7.94531C16.7168 7.94531 18.4873 9.71582 18.4873 11.8916C18.4873 13.3818 17.6592 14.7285 16.3262 15.4072C15.9663 15.5908 15.752 15.9717 15.7827 16.374C15.813 16.7764 16.0825 17.1211 16.4653 17.248C19.0789 18.1134 20.8478 20.4922 20.9686 23.2192C19.1297 24.5929 16.8574 25.417 14.3906 25.417C11.924 25.417 9.65179 24.593 7.81293 23.2193ZM14.3906 3.36426C20.4707 3.36426 25.417 8.31055 25.417 14.3906C25.417 17.1268 24.4093 19.6279 22.7534 21.5573C22.22 19.2668 20.7805 17.2866 18.7461 16.0957C19.8472 15 20.4873 13.501 20.4873 11.8916C20.4873 8.61328 17.8198 5.94531 14.541 5.94531C11.2627 5.94531 8.59521 8.61328 8.59521 11.8916C8.59521 13.4365 9.19336 14.8926 10.2241 15.9814C8.08386 17.1563 6.57391 19.1826 6.02716 21.5566C4.37158 19.6273 3.36426 17.1264 3.36426 14.3906C3.36426 8.31055 8.31055 3.36426 14.3906 3.36426Z" fill="#C42C7F"/>
<path d="M65.6094 52.6885C58.4268 52.6885 52.583 58.5322 52.583 65.7148C52.583 72.8975 58.4268 78.7412 65.6094 78.7412C72.792 78.7412 78.6357 72.8975 78.6357 65.7148C78.6357 58.5322 72.792 52.6885 65.6094 52.6885ZM59.0317 74.5435C59.1536 71.7416 60.9839 69.3404 63.689 68.5195C64.0747 68.4023 64.3525 68.0654 64.3931 67.6641C64.4341 67.2627 64.2305 66.877 63.8765 66.6846C62.6045 65.9922 61.814 64.6631 61.814 63.2158C61.814 61.04 63.5845 59.2695 65.7603 59.2695C67.936 59.2695 69.7061 61.04 69.7061 63.2158C69.7061 64.7061 68.8779 66.0527 67.5449 66.7314C67.1851 66.915 66.9707 67.2959 67.0015 67.6982C67.0317 68.1006 67.3013 68.4453 67.6841 68.5723C70.2977 69.4376 72.0666 71.8164 72.1873 74.5434C70.3484 75.9171 68.0761 76.7412 65.6094 76.7412C63.1427 76.7412 60.8705 75.9172 59.0317 74.5435ZM73.9722 72.8815C73.4387 70.591 71.9992 68.6108 69.9648 67.4199C71.0659 66.3242 71.7061 64.8252 71.7061 63.2158C71.7061 59.9375 69.0386 57.2695 65.7603 57.2695C62.4814 57.2695 59.814 59.9375 59.814 63.2158C59.814 64.7607 60.4121 66.2168 61.4429 67.3057C59.3026 68.4805 57.7927 70.5068 57.2459 72.8808C55.5903 70.9515 54.583 68.4506 54.583 65.7148C54.583 59.6348 59.5293 54.6885 65.6094 54.6885C71.6895 54.6885 76.6357 59.6348 76.6357 65.7148C76.6357 68.451 75.6281 70.9521 73.9722 72.8815Z" fill="#C42C7F"/>
<path d="M14.3906 52.6885C7.20801 52.6885 1.36426 58.5322 1.36426 65.7148C1.36426 72.8975 7.20801 78.7412 14.3906 78.7412C21.5732 78.7412 27.417 72.8975 27.417 65.7148C27.417 58.5322 21.5732 52.6885 14.3906 52.6885ZM7.81293 74.5435C7.93481 71.7416 9.76514 69.3404 12.4702 68.5195C12.856 68.4023 13.1338 68.0654 13.1743 67.6641C13.2153 67.2627 13.0117 66.877 12.6577 66.6846C11.3857 65.9922 10.5952 64.6631 10.5952 63.2158C10.5952 61.04 12.3652 59.2695 14.541 59.2695C16.7168 59.2695 18.4873 61.04 18.4873 63.2158C18.4873 64.7061 17.6592 66.0527 16.3262 66.7314C15.9663 66.915 15.752 67.2959 15.7827 67.6982C15.813 68.1006 16.0825 68.4453 16.4653 68.5723C19.0789 69.4376 20.8478 71.8164 20.9686 74.5434C19.1297 75.9171 16.8574 76.7412 14.3906 76.7412C11.924 76.7412 9.65179 75.9172 7.81293 74.5435ZM22.7534 72.8815C22.22 70.591 20.7805 68.6108 18.7461 67.4199C19.8472 66.3242 20.4873 64.8252 20.4873 63.2158C20.4873 59.9375 17.8198 57.2695 14.541 57.2695C11.2627 57.2695 8.59521 59.9375 8.59521 63.2158C8.59521 64.7607 9.19336 66.2168 10.2241 67.3057C8.08386 68.4805 6.57391 70.5068 6.02716 72.8808C4.37158 70.9515 3.36426 68.4506 3.36426 65.7148C3.36426 59.6348 8.31055 54.6885 14.3906 54.6885C20.4707 54.6885 25.417 59.6348 25.417 65.7148C25.417 68.451 24.4093 70.9521 22.7534 72.8815Z" fill="#C42C7F"/>
<path d="M28.7207 4.625C32.2515 2.88281 36.0464 2 40 2C43.9536 2 47.7485 2.88281 51.2793 4.625C51.4214 4.69531 51.5723 4.72852 51.7207 4.72852C52.0898 4.72852 52.4443 4.52441 52.6187 4.1709C52.8628 3.67578 52.6592 3.07617 52.1641 2.83203C48.3555 0.953125 44.2632 0 40 0C35.7368 0 31.6445 0.953125 27.8359 2.83203C27.3408 3.07617 27.1372 3.67578 27.3813 4.1709C27.626 4.66699 28.2256 4.87012 28.7207 4.625Z" fill="#C42C7F"/>
<path d="M3.72949 52.7217C3.87793 52.7217 4.02881 52.6885 4.1709 52.6182C4.66602 52.374 4.86963 51.7744 4.62549 51.2793C2.8833 47.748 2 43.9531 2 40C2 36.0469 2.8833 32.252 4.62549 28.7207C4.86963 28.2256 4.66602 27.626 4.1709 27.3818C3.67578 27.1387 3.07617 27.3408 2.83154 27.8359C0.952637 31.6445 0 35.7373 0 40C0 44.2627 0.952637 48.3555 2.83154 52.1641C3.00586 52.5176 3.36035 52.7217 3.72949 52.7217Z" fill="#C42C7F"/>
<path d="M52.6187 75.8291C52.3745 75.333 51.7739 75.1289 51.2793 75.375C47.7485 77.1172 43.9536 78 40 78C36.0464 78 32.2515 77.1172 28.7207 75.375C28.2266 75.1299 27.6265 75.334 27.3813 75.8291C27.1372 76.3242 27.3408 76.9238 27.8359 77.168C31.6445 79.0469 35.7368 80 40 80C44.2632 80 48.3555 79.0469 52.1641 77.168C52.6592 76.9238 52.8628 76.3242 52.6187 75.8291Z" fill="#C42C7F"/>
<path d="M75.8291 27.3818C75.334 27.626 75.1304 28.2256 75.3745 28.7207C77.1167 32.252 78 36.0469 78 40C78 43.9531 77.1167 47.748 75.3745 51.2793C75.1304 51.7744 75.334 52.374 75.8291 52.6182C75.9712 52.6885 76.1221 52.7217 76.2705 52.7217C76.6396 52.7217 76.9941 52.5176 77.1685 52.1641C79.0474 48.3555 80 44.2627 80 40C80 35.7373 79.0474 31.6445 77.1685 27.8359C76.9238 27.3408 76.3247 27.1377 75.8291 27.3818Z" fill="#C42C7F"/>
</svg>
