<svg width="42" height="42" viewBox="0 0 42 42" fill="none" xmlns="http://www.w3.org/2000/svg">
<path fill-rule="evenodd" clip-rule="evenodd" d="M21 42C32.598 42 42 32.598 42 21C42 9.40202 32.598 0 21 0C9.40202 0 0 9.40202 0 21C0 32.598 9.40202 42 21 42ZM30.7526 17.0766C30.7526 16.8797 30.7526 16.6828 30.7386 16.4859C31.6181 15.839 32.3859 15.0375 33 14.1375C32.1904 14.489 31.3109 14.7422 30.4036 14.8406C31.3388 14.2782 32.0507 13.3922 32.3858 12.3375C31.5203 12.8578 30.5431 13.2375 29.5241 13.4344C28.7005 12.5484 27.5279 12 26.2297 12C23.731 12 21.7208 14.039 21.7208 16.5422C21.7208 16.8938 21.7627 17.2453 21.8325 17.5828C18.0914 17.3859 14.7551 15.5859 12.5355 12.8297C12.1446 13.5047 11.9213 14.2781 11.9213 15.1218C11.9213 16.6969 12.717 18.089 13.9314 18.9047C13.1916 18.8766 12.4936 18.6656 11.8934 18.3281V18.3844C11.8934 20.5922 13.4429 22.4203 15.5089 22.8422C15.132 22.9406 14.7272 22.9969 14.3224 22.9969C14.0292 22.9969 13.75 22.9687 13.4708 22.9266C14.0431 24.7266 15.7043 26.0344 17.6866 26.0766C16.1371 27.3 14.1967 28.0172 12.0888 28.0172C11.7119 28.0172 11.363 28.0031 11 27.961C12.9962 29.2547 15.3693 30 17.9239 30C26.2158 30 30.7526 23.0812 30.7526 17.0766Z" fill="#C42C7F"/>
</svg>
