<svg width="53" height="36" viewBox="0 0 53 36" fill="none" xmlns="http://www.w3.org/2000/svg">
  <title>[Flag] EU</title>
  <path d="M53 0H0V36H53V0Z" fill="#003399"/>
  <path
    d="M26.5001 4L26.0617 5.38H24.6353L25.7869 6.23333L25.3485 7.62L26.5001 6.76667L27.6517 7.62L27.2133 6.23333L28.3649 5.38H26.9385L26.5001 4Z"
    fill="#FFCC00"/>
  <path
    d="M26.9385 29.38L26.5001 28L26.0617 29.38H24.6353L25.7869 30.2333L25.3485 31.62L26.5001 30.7667L27.6517 31.62L27.2133 30.2333L28.3649 29.38H26.9385Z"
    fill="#FFCC00"/>
  <path
    d="M14.7222 18.7667L15.8738 19.62L15.4355 18.2333L16.5871 17.38H15.1606L14.7222 16L14.2838 17.38H12.8574L14.009 18.2333L13.5706 19.62L14.7222 18.7667Z"
    fill="#FFCC00"/>
  <path
    d="M20.6109 5.60669L20.1725 6.98669H18.7461L19.8977 7.84669L19.4593 9.22669L20.6109 8.37336L21.7625 9.22669L21.3241 7.84669L22.4757 6.98669H21.0493L20.6109 5.60669Z"
    fill="#FFCC00"/>
  <path
    d="M16.2994 10L15.861 11.38H14.4346L15.5862 12.2333L15.1478 13.62L16.2994 12.7667L17.451 13.62L17.0126 12.2333L18.1642 11.38H16.7443L16.2994 10Z"
    fill="#FFCC00"/>
  <path
    d="M16.7443 23.38L16.2994 22L15.861 23.38H14.4346L15.5862 24.2333L15.1478 25.62L16.2994 24.7667L17.451 25.62L17.0126 24.2333L18.1642 23.38H16.7443Z"
    fill="#FFCC00"/>
  <path
    d="M21.0493 27.7733L20.6109 26.3933L20.1725 27.7733H18.7461L19.8977 28.6266L19.4593 30.0133L20.6109 29.1533L21.7625 30.0133L21.3241 28.6266L22.4757 27.7733H21.0493Z"
    fill="#FFCC00"/>
  <path
    d="M40.1427 17.38H38.7163L38.2779 16L37.8395 17.38H36.4131L37.5647 18.2333L37.1263 19.62L38.2779 18.7667L39.4295 19.62L38.9911 18.2333L40.1427 17.38Z"
    fill="#FFCC00"/>
  <path
    d="M32.3887 5.60669L31.9504 6.98669H30.5239L31.6755 7.84669L31.2371 9.22669L32.3887 8.37336L33.5404 9.22669L33.102 7.84669L34.2536 6.98669H32.8271L32.3887 5.60669Z"
    fill="#FFCC00"/>
  <path
    d="M35.9875 12.2333L35.5491 13.62L36.7008 12.7667L37.8524 13.62L37.414 12.2333L38.5656 11.38H37.1391L36.7008 10L36.2558 11.38H34.8359L35.9875 12.2333Z"
    fill="#FFCC00"/>
  <path
    d="M37.1391 23.38L36.7008 22L36.2558 23.38H34.8359L35.9875 24.2333L35.5491 25.62L36.7008 24.7667L37.8524 25.62L37.414 24.2333L38.5656 23.38H37.1391Z"
    fill="#FFCC00"/>
  <path
    d="M32.8271 27.7733L32.3887 26.3933L31.9504 27.7733H30.5239L31.6755 28.6266L31.2371 30.0133L32.3887 29.1533L33.5404 30.0133L33.102 28.6266L34.2536 27.7733H32.8271Z"
    fill="#FFCC00"/>
</svg>
