<svg width="104" height="104" viewBox="0 0 104 104" fill="none" xmlns="http://www.w3.org/2000/svg">
  <title>Ikona ruky - pro Hands-on text</title>
  <path
    d="M83.065 21.3213C78.6117 18.7576 75.9782 24.3405 75.8469 27.6664C75.8123 28.557 77.1826 28.735 77.3925 27.8757C81.0468 23.651 83.0617 23.5098 83.437 27.4515C83.9842 29.6438 83.7254 32.2564 83.6221 34.502C83.4842 37.4998 82.6688 40.4361 82.4979 43.4064C81.8183 55.208 81.0985 69.4771 70.6876 77.1068C70.3502 77.354 70.1683 77.6677 70.0519 77.9936C66.8804 77.8969 63.6596 78.1375 60.5448 78.1963C57.17 78.2595 53.8063 78.2414 50.4437 78.165C50.3294 77.9386 50.1338 77.7518 49.8344 77.6732C41.1762 75.4172 45.1542 63.5936 38.3212 58.3574C35.2218 55.9821 30.2268 55.8168 26.5576 55.1459C17.0796 53.4135 21.2752 48.8355 26.935 47.7624C40.313 45.2251 57.5904 47.1965 70.5315 51.2866C72.3172 51.8508 73.4249 49.1778 71.7985 48.2827C69.4354 46.9827 66.564 46.1893 63.52 45.6641C65.9184 37.0163 65.2601 25.8411 64.9585 16.6104C65.359 16.4933 65.6958 16.1851 65.6585 15.7043C65.3277 11.3967 67.8134 6.81042 71.0167 12.1879C73.1474 15.7648 72.6535 20.59 72.587 24.5592C72.4612 32.1224 71.4804 39.608 71.8233 47.1838C71.92 49.3206 75.254 49.3278 75.1502 47.1838C74.7447 38.8542 75.7568 30.5652 75.8672 22.2406C75.9342 17.1933 75.3117 12.3148 71.9969 8.33788C70.5711 6.62745 67.7859 5.62911 65.7623 6.81482C65.2354 7.12361 64.8486 7.53184 64.5184 7.97745C63.9579 3.76538 62.4513 -0.435146 58.1887 0.0357302C52.9613 0.6132 51.5558 9.64337 50.8833 14.9411C50.5668 12.2923 47.8124 1.97858 42.8888 5.34889C38.5295 8.33294 39.1828 16.7609 39.1031 21.2768C38.9729 28.7867 39.5899 36.3608 40.2685 43.8426C33.0246 43.2828 24.1065 43.0448 19.1999 47.0272C12.1719 52.7316 22.7878 58.0069 27.5658 58.8464C32.3185 59.681 37.8471 59.8316 39.7888 65.3865C40.6339 67.8035 40.4762 70.7628 40.9185 73.3057C41.2833 75.4079 42.2828 76.8809 43.647 77.8936C43.0998 77.8644 42.5536 77.8617 42.0064 77.8282C41.6866 77.8089 41.4443 77.8892 41.2355 78.0056C41.0619 78.0364 40.8949 78.1144 40.7751 78.3111C36.8059 84.8347 38.246 94.6506 38.2657 101.958C38.2685 102.955 39.1064 103.826 40.1185 103.81C42.9591 103.766 45.7981 103.668 48.6366 103.554C48.8113 103.673 48.9855 103.794 49.1651 103.896C49.6256 104.157 50.1157 103.894 50.2816 103.488C59.064 103.111 67.8409 102.558 76.6348 102.491C77.3738 102.486 78.2276 101.954 78.3633 101.175C79.6095 93.9979 79.782 86.6199 78.2864 79.4666C77.9919 78.0584 76.5595 77.9661 75.6711 78.6441C75.3205 78.5644 74.9656 78.5122 74.6112 78.4496C85.8237 68.1134 85.4095 50.6954 86.8331 36.4185C87.3029 31.713 87.8732 24.0895 83.065 21.3213ZM56.6541 4.96483C59.8673 -1.49998 61.4882 9.24063 61.6382 11.0379C61.9931 15.2917 61.8283 19.6027 61.6871 23.862C61.4695 30.4004 59.3085 38.774 60.7195 45.2553C57.4783 44.8701 54.147 44.7102 51.064 44.5773C51.1041 44.4141 51.1322 44.2415 51.1058 44.0349C51.0607 43.686 51.0487 43.3355 51.0124 42.9861C51.6476 30.7306 51.1574 16.0236 56.6541 4.96483ZM42.7542 11.5346C43.463 7.73184 45.702 7.3769 47.1437 11.3939C48.4553 15.0483 48.2767 19.345 48.2838 23.1741C48.2981 30.0713 47.1377 37.169 48.0179 44.0355C48.0377 44.1882 48.1003 44.308 48.1525 44.4371C47.5245 44.4047 46.8822 44.3751 46.2943 44.3344C45.1366 44.2542 43.8256 44.1377 42.4317 44.0185C42.9608 33.2015 40.7438 22.3246 42.7542 11.5346ZM41.9756 100.074C41.9855 98.6369 42.0251 97.183 42.0696 95.7248C42.5547 96.5594 43.0773 97.3792 43.6701 98.1775C44.1014 98.7594 44.5657 99.3819 45.0558 100.003C44.0295 100.026 43.0036 100.064 41.9756 100.074ZM47.8619 99.939C47.1009 99.1907 46.3141 98.4621 45.636 97.6929C44.2042 96.0698 43.0333 94.2792 42.1751 92.3215C42.1921 91.7935 42.2075 91.2655 42.2234 90.7374C43.7536 92.4248 45.2652 94.1297 46.808 95.8061C48.0234 97.127 49.3558 98.6297 50.8591 99.8121C49.8602 99.8511 48.8619 99.9066 47.8619 99.939ZM54.0695 99.6759C52.1964 97.8605 49.9349 96.399 48.0432 94.5709C46.0696 92.6622 44.2069 90.6435 42.2778 88.6897C42.3174 86.9573 42.3174 85.238 42.2883 83.5287C45.0635 87.3633 48.1811 90.9363 51.4179 94.3858C52.5844 95.6292 54.5975 98.311 56.6832 99.5561C55.8124 99.5967 54.9409 99.6363 54.0695 99.6759ZM59.7761 99.416C59.8101 99.1627 59.7134 98.9138 59.3926 98.7775C56.7948 97.6726 54.175 94.4133 52.1877 92.4847C48.9915 89.3831 45.8267 86.1468 43.0306 82.6759C42.8179 82.4122 42.48 82.4826 42.2641 82.6793C42.247 82.0463 42.2459 81.4084 42.2119 80.7809C43.691 80.9732 45.2097 81.138 46.7459 81.2875C50.0657 84.6551 53.3212 88.0798 56.5398 91.5479C58.581 93.7479 60.9986 97.1435 63.7057 99.2583C62.3964 99.3121 61.086 99.3566 59.7761 99.416ZM68.2672 99.0753C67.8107 99.0896 67.3552 99.1132 66.8991 99.1303C64.9859 95.7918 60.6437 92.7446 58.0014 90.0875C55.142 87.2133 52.3074 84.2957 49.3514 81.5139C51.0596 81.6501 52.7992 81.7375 54.5393 81.8177C56.3146 85.0221 58.5343 87.8935 61.0486 90.6067C63.5843 93.3435 66.6238 96.7951 69.8964 99.1413C69.2843 99.1 68.7178 99.061 68.2672 99.0753ZM73.0826 99.0808C70.8909 95.9737 67.2194 93.6177 64.4403 91.0891C61.3926 88.316 58.5838 85.3144 56.3201 81.9007C57.9558 81.9567 59.5942 81.9842 61.2299 81.9869C63.3634 85.338 65.714 88.5611 68.215 91.6462C70.0073 93.8572 72.0139 96.8094 74.5007 98.4726C74.104 98.7742 73.6266 98.9759 73.0826 99.0808ZM75.4925 96.0006C73.8788 94.2089 72.043 92.5726 70.4332 90.7984C67.8453 87.9473 65.3151 85.0325 62.9882 81.9622C64.2898 81.9485 65.5689 81.8858 66.8563 81.8375C66.5024 82.0501 66.3129 82.5446 66.6832 82.9474C68.4194 84.8369 70.0832 86.7908 71.7474 88.7435C72.9397 90.143 74.1831 92.0298 75.6875 93.2819C75.6331 94.1885 75.5793 95.0951 75.4925 96.0006ZM73.6469 87.7836C71.6892 85.8078 69.7304 83.8309 67.6969 81.9325C67.6376 81.8771 67.5738 81.8485 67.5112 81.8155C68.8409 81.7589 70.1606 81.6875 71.4639 81.5946C72.7496 83.6408 74.1864 85.6259 75.6721 87.5221C75.7046 88.2737 75.7584 89.0215 75.7667 89.7781C75.0397 89.0919 74.2892 88.432 73.6469 87.7836ZM75.1068 81.2622C75.2266 82.0435 75.2864 82.8194 75.3711 83.5974C74.7711 82.8606 74.1529 82.1348 73.5452 81.4051C74.065 81.3556 74.5963 81.3216 75.1068 81.2622Z"
    fill="black"/>
  <path
    d="M58.4128 59.9634C56.5469 56.1541 53.1458 52.8299 49.187 51.2981C48.1722 50.9058 47.4903 52.5623 48.4502 53.0459C52.948 55.3096 59.1408 62.4859 56.715 67.9864C56.1826 69.1914 57.5447 70.4117 58.5924 69.4348C61.3045 66.904 59.8089 62.8128 58.4128 59.9634Z"
    fill="black"/>
</svg>
