<svg width="64" height="64" viewBox="0 0 64 64" fill="none" xmlns="http://www.w3.org/2000/svg">
  <title>Ikona pro HookaMonka text</title>
  <rect width="64" height="64" fill="black"/>
  <path
    d="M60.5646 18.4869C58.6132 16.8349 56.3046 16.0864 53.8785 15.7653C53.9935 10.565 55.0232 5.1733 49.9586 2.09092C43.7819 -1.66809 33.6727 0.645794 27.0332 1.36345C22.6677 1.83464 16.2684 0.766746 12.1059 2.93864C12.0515 2.89587 11.9961 2.85415 11.9418 2.81138C11.5779 2.52285 11.059 3.00666 11.4191 3.33411C11.4222 3.33691 11.4254 3.33937 11.4282 3.34217C11.3451 3.39651 11.256 3.44244 11.1754 3.49994C8.11862 5.682 8.40855 10.7862 8.49655 14.1943C8.40119 14.4348 8.42398 14.6851 8.54072 14.9183C8.54528 14.9488 8.54633 14.9842 8.55229 15.0133C6.61389 15.0147 4.67303 15.0504 2.72551 15.1738C2.04817 15.217 1.66673 15.6633 1.5882 16.3112C0.990092 21.2478 1.16994 26.1473 1.22639 31.1067C1.2348 31.8296 1.92862 32.366 2.6312 32.1764C3.21984 32.0179 3.80813 31.858 4.39676 31.6989C4.31683 38.1588 -0.704304 49.0923 4.15977 54.2014C4.8655 54.9425 5.71708 55.5105 6.65666 55.9638C5.84435 59.4515 7.03705 63.5208 11.0615 63.9734C14.4723 64.3576 17.641 60.5656 17.7023 57.2505C21.0375 56.9984 24.2706 56.4613 26.677 56.2106C31.3367 55.7254 35.778 55.2525 40.471 55.5266C42.3158 55.6346 44.2454 55.933 46.1954 56.2264C45.5938 59.5447 46.6105 63.4548 50.6815 63.3455C51.7718 63.316 52.7223 62.9584 53.4964 62.3869C53.6499 62.3505 53.7523 62.2548 53.8077 62.131C55.2812 60.8493 56.0038 58.7443 55.6469 56.7481C55.8828 56.7172 56.1237 56.7078 56.3568 56.666C62.773 55.5203 59.0055 36.7996 58.8741 33.0532C58.8639 32.7636 58.7577 32.5441 58.6185 32.3587C59.449 32.3934 60.2827 32.4158 61.1273 32.4228C61.8853 32.4298 62.3901 31.817 62.4434 31.1071C62.7116 27.5605 63.823 21.2453 60.5646 18.4869ZM41.5248 3.00035C42.3371 3.01332 43.1884 3.0596 44.0368 3.15916C44.054 3.17319 44.062 3.19107 44.0813 3.20404C46.3412 4.73261 48.6768 6.41438 51.1131 7.66949C51.2319 8.04672 51.3294 8.44324 51.3802 8.88288C51.3999 9.05362 51.396 9.22891 51.409 9.40105C51.3904 9.37861 51.3914 9.34951 51.3669 9.32988C49.9922 8.23674 48.1429 7.55695 46.6403 6.61983C44.7902 5.46639 42.9808 4.24599 41.189 3.00315C41.3004 3.00385 41.4123 2.99824 41.5248 3.00035ZM39.9591 3.01262C41.793 4.46967 43.6466 5.90673 45.5664 7.24878C47.0329 8.27391 49.1217 10.1439 51.0047 10.2021C51.1916 10.2078 51.3462 10.0819 51.4374 9.92378C51.4724 10.7399 51.4714 11.5635 51.43 12.3919C47.2741 8.269 41.6314 5.44115 36.151 3.1497C37.417 3.06941 38.6865 3.0284 39.9591 3.01262ZM44.5704 12.6212C45.4609 13.3105 46.4075 13.9215 47.34 14.5603C47.8035 14.8779 48.2495 15.2205 48.6975 15.5591C48.0181 15.5721 47.34 15.591 46.6729 15.6093C45.6754 15.6366 44.684 15.6703 43.6939 15.7057C43.919 13.5787 44.0575 11.4383 44.1129 9.30148C44.1146 9.24784 44.0894 9.20121 44.0834 9.14933C46.5382 10.6712 48.9489 12.2832 51.3392 14.0148C51.3087 14.534 51.2796 15.0515 51.2645 15.5626C51.0934 15.5574 50.922 15.5633 50.7506 15.5605C49.9744 14.8667 48.8297 14.2949 48.131 13.8521C47.0967 13.1969 46.0285 12.4915 44.8512 12.1374C44.5907 12.0589 44.3344 12.4386 44.5704 12.6212ZM33.6485 3.33726C36.6022 4.8164 39.4581 6.3646 42.2432 8.02464C40.3311 8.03691 38.4172 8.06075 36.5033 8.10457C36.7242 7.94435 36.8206 7.64074 36.558 7.39603C35.711 6.6058 34.6859 6.04276 33.7221 5.40889C32.8628 4.84374 32.0561 4.21514 31.2747 3.55358C32.0659 3.47715 32.8569 3.40458 33.6485 3.33726ZM41.4775 10.5825C41.372 12.3204 41.2096 14.0597 41.237 15.7954C36.7305 15.9613 32.2609 16.1064 27.692 15.867C24.9336 15.7225 22.1849 15.5416 19.4388 15.381C19.5738 10.1369 25.4002 11.0141 29.6809 10.7754C33.6078 10.5562 37.5453 10.5664 41.4775 10.5825ZM29.9123 3.68189C31.6119 5.37629 33.7011 7.12643 35.8674 8.1235C34.777 8.15155 33.6864 8.17329 32.5971 8.22097C31.7346 7.19374 30.3989 6.54796 29.2966 5.80576C28.4331 5.22448 27.5949 4.6099 26.7598 3.99041C27.8129 3.89225 28.8626 3.78602 29.9123 3.68189ZM25.3402 4.12118C25.3592 4.11943 25.3778 4.11767 25.3967 4.11592C26.3394 4.94121 27.326 5.7125 28.3308 6.46171C29.1389 7.06437 29.9866 7.76941 30.8936 8.30546C29.8688 8.36331 28.8444 8.42466 27.8221 8.5095C26.9021 7.81709 25.8567 7.24423 24.9213 6.61457C23.7707 5.83977 22.6638 5.00186 21.5872 4.12714C23.0151 4.16536 24.3407 4.20743 25.3402 4.12118ZM20.4243 4.1012C21.3747 5.07689 22.3872 5.97054 23.4723 6.80319C24.2534 7.40269 25.057 8.07477 25.8882 8.69672C25.3676 8.75106 24.8449 8.78331 24.3253 8.84747C23.2202 7.71086 21.6258 6.94237 20.3401 6.02207C19.4924 5.4152 18.6784 4.77503 17.8787 4.11767C18.7155 4.08156 19.5769 4.08542 20.4243 4.1012ZM16.5261 4.22005C17.5211 5.17014 18.5812 6.05398 19.6554 6.90941C20.5466 7.61901 21.5248 8.46252 22.5678 9.08061C21.7996 9.19385 21.0322 9.31095 20.2669 9.45013C20.3282 9.30849 20.3153 9.13706 20.1701 8.98841C19.1828 7.97801 17.8909 7.25474 16.7417 6.43892C15.9245 5.8587 15.1181 5.26375 14.3195 4.65828C14.9723 4.43636 15.7299 4.30769 16.5261 4.22005ZM13.0623 5.27322C13.172 5.19538 13.2972 5.12983 13.4185 5.06146C14.1561 5.67289 14.9046 6.27064 15.6633 6.85928C16.8711 7.7964 18.1076 8.90707 19.4798 9.59843C19.1194 9.6689 18.7572 9.72534 18.3975 9.80212C18.1511 9.85506 17.9365 10.0272 17.7886 10.2446C16.0114 8.82188 13.9303 7.58956 11.865 6.64682C12.1609 6.11112 12.5455 5.63958 13.0623 5.27322ZM11.5484 7.3196C12.4982 7.83041 13.4153 8.38855 14.3041 9.01014C15.4042 9.77934 16.4437 10.7101 17.6094 11.3875C17.6297 11.9786 17.6441 12.5679 17.6659 13.1467C16.8139 12.4463 15.8235 11.8738 14.9369 11.2392C13.6478 10.3164 12.4165 9.31901 11.2655 8.22868C11.3409 7.91455 11.4359 7.61094 11.5484 7.3196ZM11.0667 9.30604C12.0897 10.2891 13.1664 11.2083 14.289 12.0788C15.367 12.915 16.4812 13.8609 17.744 14.3976C17.77 14.6949 17.7977 14.9919 17.8411 15.2902C17.2266 15.2566 16.6123 15.232 15.9977 15.2029C16.0279 15.0771 15.9992 14.9425 15.8743 14.8411C14.9635 14.1038 13.8448 13.6239 12.8863 12.9353C12.1795 12.428 11.5446 11.8313 10.9384 11.2069C10.9493 10.5692 10.9875 9.92869 11.0667 9.30604ZM10.9268 14.9172C11.0471 14.6778 11.0692 14.4194 10.9633 14.1726C10.9629 13.6295 10.9475 13.0426 10.9391 12.4357C11.9506 13.5015 13.1327 14.5151 14.3833 15.1265C13.2274 15.0813 12.0712 15.0462 10.9139 15.0248C10.9205 14.9926 10.9216 14.9519 10.9268 14.9172ZM11.594 61.8828C9.77515 62.0606 8.86607 60.8836 8.44291 59.4175C9.98725 59.9809 11.3984 60.8125 12.8835 61.5045C12.5139 61.69 12.1017 61.8337 11.594 61.8828ZM13.5787 61.0389C11.9744 60.0899 10.1026 59.2846 8.29461 58.8046C8.14771 58.0523 8.10564 57.2659 8.11791 56.5696C10.0816 57.8293 12.1066 59.3147 14.2704 60.1986C14.0723 60.5088 13.8493 60.7974 13.5787 61.0389ZM14.7798 59.2106C13.8581 58.7661 12.9224 58.3461 12.0256 57.8486C11.601 57.6133 11.1845 57.3634 10.7659 57.1183C12.2601 57.335 13.835 57.4114 15.4389 57.3676C15.2356 57.9892 15.0305 58.6195 14.7798 59.2106ZM47.7246 58.6272C48.4672 59.4069 49.3496 60.3441 50.3278 61.0999C48.7866 61.1357 48.0552 60.0212 47.7246 58.6272ZM52.1207 60.5341C51.7056 60.3262 51.2912 60.1169 50.9132 59.8564C49.9596 59.2004 49.1266 58.365 48.2954 57.5653C48.0475 57.3269 47.7478 57.3763 47.5458 57.5443C47.5055 57.1646 47.4824 56.7817 47.474 56.4101C48.0128 56.4883 48.552 56.5588 49.0909 56.6229C49.5351 57.0222 49.9929 57.4051 50.4659 57.7795C51.2453 58.3951 52.0253 59.1072 52.8597 59.6765C52.6757 60.0075 52.4373 60.3023 52.1207 60.5341ZM53.2762 58.3475C52.6876 57.9103 52.0432 57.525 51.4549 57.1236C51.3045 57.0208 51.159 56.9118 51.0097 56.8077C51.7652 56.8641 52.5186 56.903 53.2632 56.9016C53.3285 57.3879 53.3348 57.8787 53.2762 58.3475ZM56.1756 53.0062C55.6883 54.9418 52.208 54.0279 51.0047 53.9388C42.6264 53.3162 35.0137 52.7643 26.6767 53.6937C21.9006 54.2266 7.79082 57.1975 5.40891 51.2354C3.02316 45.2638 6.80321 37.7125 5.84575 31.3051C6.69032 31.0766 7.53524 30.8483 8.37945 30.6194C7.73542 33.3372 7.52367 36.152 9.36285 37.8576C11.9625 40.2679 18.6692 40.2823 21.4228 38.176C23.4278 36.6422 23.8008 33.897 23.4025 31.2143C23.737 31.3654 24.1531 31.5754 24.4943 31.6035C26.1529 31.7402 27.8256 31.7774 29.4874 31.8738C31.4223 31.986 33.3572 32.1045 35.2914 32.2388C36.2762 32.3071 37.5046 32.6107 38.5501 32.487C38.5501 32.5375 38.5494 32.5893 38.5494 32.6395C38.5476 34.6561 38.8425 36.7473 40.757 37.7668C43.7023 39.335 51.2565 39.8862 53.3292 36.5794C54.0994 35.3506 54.2179 33.5468 54.2218 31.9404C55.0449 32.0757 55.8625 32.1634 56.6804 32.2335C56.496 32.4323 56.3674 32.6959 56.374 33.0525C56.4501 37.4096 57.0405 41.7331 57.112 46.0919C57.1502 48.4486 56.7474 50.7334 56.1756 53.0062ZM21.0322 31.4468C21.1118 31.9509 21.1651 32.4565 21.1693 32.9445C19.6225 32.014 17.994 31.1891 16.4861 30.1896C14.7146 29.0154 12.9539 27.8287 11.1281 26.7412C11.1519 26.7426 11.1754 26.7454 11.2017 26.7415C11.8005 26.6528 12.549 26.4547 13.3526 26.2553C15.6328 28.315 18.3179 30.1955 21.0322 31.4468ZM14.5891 25.9702C16.4633 25.5811 18.3909 25.4556 19.3462 26.8141C19.788 27.4424 20.2479 28.4394 20.5964 29.5659C18.5911 28.3402 16.5215 27.2983 14.5891 25.9702ZM21.0371 34.356C20.947 34.7784 20.8131 35.1721 20.6147 35.5133C20.5982 35.4919 20.5992 35.4666 20.5775 35.447C19.1776 34.1582 16.7487 33.5563 15.0624 32.6013C13.5054 31.7188 12.0796 30.6762 10.6025 29.69C10.7028 28.9884 10.8178 28.289 10.93 27.5892C14.1582 29.8074 17.3773 32.9231 21.0371 34.356ZM13.9654 33.313C15.5339 34.3121 18.008 36.1994 19.9973 36.2313C19.7796 36.4136 19.5397 36.5745 19.2488 36.686C18.7821 36.8641 18.1563 37.0183 17.4573 37.1309C17.5389 36.9941 17.5407 36.8129 17.4015 36.6758C16.3946 35.6857 14.9102 35.2191 13.6365 34.6487C12.4684 34.1256 11.3072 33.5924 10.1583 33.0325C10.2239 32.243 10.3603 31.465 10.4402 30.8515C11.5007 31.8131 12.8435 32.5981 13.9654 33.313ZM12.6139 35.2054C13.9545 35.8624 15.3271 36.7992 16.7676 37.2238C14.4254 37.4808 11.5495 37.2175 10.5426 35.678C10.2442 35.2219 10.1359 34.6052 10.1229 33.9423C10.9468 34.3752 11.777 34.796 12.6139 35.2054ZM49.2739 28.6021C50.1223 29.3212 50.9693 30.123 51.8851 30.795C51.8704 31.1477 51.8486 31.4973 51.8227 31.8349C49.127 29.8758 46.3693 27.9163 43.3528 26.5161C43.811 26.4057 44.2587 26.2795 44.6689 26.2044C45.2043 26.1063 45.7603 26.0067 46.3237 25.9152C47.2657 26.8562 48.2572 27.7407 49.2739 28.6021ZM47.5981 25.7332C48.6204 25.6189 49.6476 25.5839 50.6251 25.7304C51.5036 25.8622 51.8304 27.3393 51.8942 29.0761C51.3971 28.7069 50.887 28.3532 50.4024 27.9889C49.4418 27.2674 48.5072 26.5157 47.5981 25.7332ZM51.6695 33.354C51.6043 33.8743 51.5369 34.3153 51.4801 34.6063C49.9523 33.8104 48.3725 33.1075 46.8937 32.1988C44.739 30.8746 42.747 29.2945 40.8233 27.6594C40.7658 27.6103 40.7048 27.5784 40.6434 27.5598C40.6866 27.1636 40.7269 26.7889 40.757 26.46C40.8342 26.5126 40.9183 26.5585 41.0123 26.5929C41.2244 26.6704 41.4491 26.7033 41.678 26.7187C41.7131 26.7626 41.7587 26.8001 41.8193 26.8267C45.4826 28.4577 48.4016 31.1267 51.6695 33.354ZM50.7478 35.7895C50.1258 36.2383 49.1712 36.462 48.1047 36.5363C46.9807 35.4982 45.4195 34.8724 44.1118 34.0937C42.6905 33.2474 41.3874 32.2454 40.3686 30.9451C40.3903 30.1741 40.4552 29.3916 40.5288 28.6536C43.4152 31.2662 46.9618 34.4306 50.7478 35.7895ZM45.9331 36.5135C44.2612 36.382 42.6765 36.0321 41.9525 35.7212C40.878 35.2598 40.479 33.8977 40.3854 32.2906C41.0747 33.0889 41.8838 33.7715 42.7621 34.4086C43.7286 35.1097 44.8158 35.8814 45.9331 36.5135ZM59.9185 29.7818C58.1073 29.7629 56.3197 29.6879 54.5089 29.4533C54.3932 29.4383 54.2968 29.4653 54.1958 29.4828C54.1643 27.7032 54.0005 25.3115 52.8026 24.17C51.3718 22.8065 48.8581 23.2041 47.0855 23.3895C45.3063 23.5754 41.8754 23.5568 40.5824 24.9665C40.5505 25.0012 40.5306 25.0391 40.5043 25.0752C40.1498 24.8655 39.5931 24.9893 39.4192 25.4664C38.8726 26.967 38.6703 28.6845 38.5943 30.3586C36.4392 29.6097 32.9599 30.0739 30.9658 30.0202C29.1508 29.9715 27.3354 29.9375 25.5197 29.9098C24.9062 29.9003 24.2972 29.8961 23.6848 29.9326C23.5098 29.9431 23.3514 30.0837 23.2164 30.2043C22.8311 28.4443 22.1534 26.7825 21.4329 25.594C20.3465 23.8022 18.8172 23.3913 16.8192 23.3997C14.9719 23.4074 11.8675 23.5287 10.3322 24.6818C10.0518 24.8925 9.89926 25.1516 9.83966 25.4149C9.83405 25.4328 9.82107 25.4443 9.81687 25.4636C9.56585 26.542 9.11113 27.8995 8.70866 29.3411C8.66203 29.3345 8.61856 29.3219 8.56527 29.3282C5.32547 29.7026 3.46209 30.9461 3.39408 27.015C3.36919 25.587 2.47028 17.4614 4.7137 17.3436C12.3418 16.9433 20.0916 17.9793 27.692 18.5062C34.0738 18.9486 40.3027 18.5609 46.6732 18.2766C49.6851 18.1423 52.6781 18.2022 55.6434 18.7898C60.8857 19.8283 60.288 25.5997 59.9185 29.7818Z"
    fill="black"/>
  <path
    d="M10.7053 44.1826C10.6022 43.5985 9.6539 43.6108 9.54136 44.1826C9.30541 45.3795 9.35835 46.6013 9.28858 47.8165C9.20584 49.2605 8.99128 50.6902 8.87033 52.1298C8.82511 52.6693 9.67528 52.7675 9.80185 52.256C10.4091 49.8008 11.1488 46.7005 10.7053 44.1826Z"
    fill="black"/>
  <path
    d="M18.2869 44.5217C18.1245 43.7602 16.9171 43.7609 16.7544 44.5217C16.5157 45.6386 16.6419 46.784 16.6538 47.9199C16.6703 49.4572 16.5672 50.9851 16.4967 52.5193C16.4638 53.2334 17.5881 53.387 17.7431 52.6879C18.2904 50.2219 18.8183 47.0126 18.2869 44.5217Z"
    fill="black"/>
  <path
    d="M24.8239 35.5371C23.1067 40.3953 24.2777 46.2743 23.7837 51.3519C23.7024 52.1859 25.1079 52.3763 25.2478 51.5496C26.1201 46.3924 26.1158 40.9846 26.6025 35.7773C26.7031 34.7017 25.1444 34.6305 24.8239 35.5371Z"
    fill="black"/>
  <path
    d="M35.8298 34.6095C35.7555 33.9136 34.7363 33.4294 34.3608 34.2116C31.9646 39.2029 34.9628 45.7936 33.6747 51.1895C33.4868 51.9766 34.5565 52.2203 34.8506 51.5142C35.9199 48.9486 36.0342 46.4548 35.9606 43.7006C35.8814 40.728 36.1415 37.5323 35.8298 34.6095Z"
    fill="black"/>
  <path
    d="M45.5513 42.0072C45.4707 41.2695 44.536 40.9102 44.1051 41.6156C43.3689 42.8198 43.398 44.2134 43.343 45.6014C43.2676 47.5079 43.2925 49.4442 43.3191 51.3518C43.3293 52.1031 44.4747 52.2924 44.65 51.532C44.9893 50.0613 45.0538 48.5432 45.1334 47.0392C45.2214 45.3753 45.7312 43.6497 45.5513 42.0072Z"
    fill="black"/>
  <path
    d="M52.9389 41.5595C52.6349 40.9818 51.7115 40.9825 51.4072 41.5595C50.7221 42.8599 51.1393 44.7997 51.1141 46.2423C51.0888 47.6706 50.6681 49.1712 50.7354 50.5728C50.7642 51.1741 51.4194 51.4093 51.8605 51.0387C52.8484 50.2089 52.8572 48.3837 52.9999 47.2044C53.1941 45.5917 53.7158 43.0366 52.9389 41.5595Z"
    fill="black"/>
</svg>
