<svg width="64" height="64" viewBox="0 0 64 64" fill="none" xmlns="http://www.w3.org/2000/svg">
<path d="M63.8632 32.2662C63.8107 31.5632 63.3294 31.0304 62.6034 31.0061C59.9304 30.9177 57.2567 30.9475 54.5824 31.0489C54.5618 30.9445 54.5539 30.842 54.5043 30.7344C52.3572 26.0719 48.3699 23.598 43.5793 22.9268C45.6956 19.6364 50.5068 13.6628 44.8785 12.3729C40.3023 11.3238 34.9687 15.5557 33.0244 19.6597C31.7133 18.1622 31.5796 16.345 32.641 14.2031C33.2122 13.5966 33.0474 12.3506 32.1083 12.1855C26.3162 11.1679 20.6246 13.6419 20.2224 19.3223C18.781 18.3359 17.7285 17.0707 16.6065 15.5169C16.1783 14.9239 15.3694 14.7272 14.8061 15.285C11.8573 18.2057 11.5216 21.9864 12.7265 25.6502C10.9508 25.5148 9.33682 24.8084 7.88692 23.5202C7.30038 23.0457 6.10812 23.0796 5.96491 24.0273C5.52741 26.9264 5.54831 30.4045 7.64607 32.4738C5.82959 32.2049 4.01413 31.8691 2.20073 31.4354C1.61111 31.2946 0.88171 31.6132 0.752206 32.258C0.102973 35.4877 -0.211537 38.4242 0.156419 41.7242C0.166012 41.8091 0.197189 41.877 0.223912 41.9482C0.0132109 42.2398 0.0944079 42.7667 0.512726 42.8945C2.55224 43.5167 4.62808 43.9062 6.72515 44.1557C5.95566 47.2644 6.05536 50.7981 5.83164 53.9326C5.73503 55.2855 4.37763 60.1228 5.95155 61.0077C8.76638 62.5902 8.69204 56.5042 8.72904 55.3489C8.84621 51.6871 8.49093 48.0028 8.47311 44.3317C15.5044 44.9066 22.7477 44.0573 29.7549 44.5144C37.6362 45.0283 48.2562 47.4717 56.502 45.364C55.776 48.098 55.9168 51.0992 56.0813 53.8736C56.1906 55.71 55.9223 59.9528 57.7617 61.0053C58.1643 61.2359 58.8176 61.2229 59.1304 60.8285C60.4546 59.159 59.2157 55.845 59.0129 53.8736C58.7008 50.8293 58.5182 47.7568 58.6128 44.6956C59.0996 44.5109 59.5796 44.3156 60.0431 44.0892C60.2021 44.0111 60.3045 43.8963 60.3823 43.7692C60.9613 44.3616 62.1138 44.5027 62.5157 43.6061C64.1064 40.0622 64.1496 36.0876 63.8632 32.2662ZM50.8226 29.6922C50.2018 29.2153 49.5255 28.7908 48.9294 28.3509C48.0798 27.7236 47.277 27.0566 46.5017 26.3583C48.1801 27.0788 49.6002 28.1879 50.8226 29.6922ZM46.2564 29.4706C46.9598 30.0763 47.6625 30.6813 48.435 31.1637C48.6187 31.2785 48.8544 31.2651 49.039 31.1637C49.5177 30.9006 49.4087 30.5714 49.1295 30.2726C49.5136 30.6378 49.9099 30.988 50.3211 31.2888C48.9205 31.3741 47.5203 31.457 46.1201 31.5694C46.2996 30.8454 46.3311 30.1465 46.2564 29.4706ZM44.8374 25.7944C45.6185 26.8363 46.5336 27.7641 47.4853 28.6586C47.9784 29.1221 48.4984 29.6665 49.0428 30.1894C48.754 29.9153 48.3532 29.6748 48.1723 29.5518C47.4288 29.0451 46.6809 28.5452 45.9203 28.0655C45.6089 27.2251 45.1221 26.4296 44.4739 25.6927C44.5993 25.7214 44.7151 25.7626 44.8374 25.7944ZM43.0346 14.6601C44.6606 14.4881 44.8555 15.3237 44.5256 16.367C44.3409 16.2141 44.159 16.0637 43.9976 15.9137C43.5797 15.5255 43.186 15.1168 42.8037 14.6971C42.8808 14.6868 42.9565 14.6683 43.0346 14.6601ZM41.818 14.8975C42.2164 15.4299 42.6231 15.9562 43.0473 16.4687C43.3296 16.8099 43.6314 17.2317 43.9661 17.6079C43.7338 18.0272 43.4765 18.4332 43.2429 18.7772C42.7629 18.5141 42.3117 18.1968 41.8889 17.8508C41.1081 17.2125 40.464 16.4571 39.9148 15.6187C40.526 15.3165 41.1612 15.0733 41.818 14.8975ZM39.292 15.9404C39.7617 16.9271 40.3551 17.833 41.1068 18.6326C41.4487 18.9968 41.942 19.4984 42.4772 19.8468C42.2795 20.125 42.0952 20.4049 41.9088 20.6845C41.7724 20.5577 41.6118 20.4405 41.4658 20.3323C40.9584 19.9547 40.4983 19.5148 40.044 19.0763C39.2992 18.3582 38.6106 17.5877 37.9188 16.8202C38.3618 16.4978 38.8216 16.2083 39.292 15.9404ZM37.2049 17.368C38.0672 18.4863 38.958 19.5895 39.9121 20.6255C40.2016 20.9397 40.7213 21.4677 41.265 21.7335C41.0636 22.0857 40.8563 22.4338 40.6857 22.8059C40.4729 22.6914 40.2403 22.5917 40.0193 22.4831C40.1365 22.3447 40.1862 22.1409 40.0868 21.9836C39.4818 21.025 38.3337 20.3261 37.4587 19.6159C36.9678 19.2178 36.4641 18.8296 35.9472 18.4603C36.3514 18.0807 36.7728 17.7172 37.2049 17.368ZM35.3613 19.0352C35.9393 19.5213 36.5104 20.014 37.0668 20.5306C37.4796 20.914 37.8846 21.3484 38.319 21.7383C36.9585 21.2086 35.5062 20.7708 33.9899 20.4618C34.4243 19.9855 34.8861 19.5073 35.3613 19.0352ZM29.6703 14.3336C29.5281 14.6471 29.4284 14.9626 29.3544 15.2799C29.1955 15.1569 29.0375 15.0363 28.8882 14.9167C28.6624 14.7355 28.4246 14.5724 28.1913 14.4031C28.6799 14.3507 29.1735 14.3209 29.6703 14.3336ZM26.9141 14.6296C27.3249 14.9691 27.723 15.3234 28.1036 15.7016C28.4996 16.0949 28.8642 16.5694 29.2784 16.9689C29.3335 17.4575 29.4326 17.947 29.6172 18.438C28.9351 18.0992 28.2293 17.8278 27.5791 17.3746C26.6849 16.7517 25.8523 16.0428 25.0082 15.3525C25.5834 15.026 26.2337 14.7968 26.9141 14.6296ZM24.2795 15.8411C25.2679 16.7507 26.2306 17.6952 27.2971 18.5123C28.082 19.114 29.116 19.9667 30.1479 19.559C30.2223 19.6916 30.2908 19.8238 30.373 19.9564C29.1376 19.8632 27.9042 19.8632 26.6941 19.9386C26.7794 19.7502 26.7455 19.508 26.5235 19.3678C25.8719 18.956 25.1723 18.6487 24.5364 18.2061C24.0499 17.8672 23.6035 17.4753 23.1547 17.0878C23.4531 16.6023 23.8372 16.1905 24.2795 15.8411ZM22.8463 17.6884C23.634 18.597 24.5926 19.5823 25.69 20.0277C24.5854 20.1428 23.5028 20.3165 22.4777 20.5889C22.3568 19.4535 22.5031 18.4928 22.8463 17.6884ZM30.0338 22.3807C33.4115 22.406 36.7896 23.3496 39.698 25.0438C42.6009 26.7345 42.9959 28.9954 43.778 31.7653C41.3908 31.9709 39.0039 32.1909 36.6183 32.4016C37.4341 23.08 23.1752 25.6406 21.4482 33.3067C19.3998 33.3348 17.353 33.3023 15.308 33.2063C15.3759 33.108 15.4304 33.0001 15.4468 32.8761C16.4674 25.0845 22.7717 22.3259 30.0338 22.3807ZM24.8245 31.3008C25.1462 30.9321 25.5053 30.6008 25.889 30.298C26.3635 30.8934 26.873 31.4611 27.4102 31.9997C27.7428 32.333 28.0868 32.6873 28.4609 32.997C28.0954 33.0182 27.7295 33.0522 27.3639 33.072C26.9038 32.6297 26.1717 32.38 25.6564 32.0072C25.3631 31.7951 25.0914 31.5498 24.8245 31.3008ZM25.5478 33.1587C24.8913 33.1875 24.2339 33.2331 23.5775 33.2529C23.781 32.7815 24.0393 32.3536 24.3223 31.9473C24.5138 32.1665 24.7002 32.3899 24.9133 32.5917C25.0952 32.7647 25.3124 32.9658 25.5478 33.1587ZM28.0981 31.3117C27.5407 30.8687 27.0069 30.3901 26.5016 29.8848C26.8288 29.6706 27.1751 29.4829 27.5301 29.3085C28.0854 30.0112 28.6487 30.7057 29.2623 31.3597C29.6638 31.7876 30.1229 32.4074 30.6502 32.8469C30.4419 32.86 30.2332 32.8764 30.0249 32.8898C30.014 32.8737 30.0074 32.8552 29.9941 32.8401C29.4579 32.2392 28.7264 31.8109 28.0981 31.3117ZM30.2846 30.7941C29.6203 30.2192 29.0094 29.5809 28.4181 28.9275C28.8059 28.784 29.2047 28.6603 29.6182 28.5675C30.4761 29.2489 31.2473 30.0204 32.0007 30.816C32.5756 31.4234 33.157 32.1984 33.9008 32.6242C33.3547 32.6643 32.8089 32.7003 32.2631 32.7363C32.0271 31.8722 30.9386 31.36 30.2846 30.7941ZM31.0952 28.4332C32.7767 28.4924 33.8747 29.4319 34.2259 30.9588C33.7141 30.5011 33.1179 30.089 32.6568 29.6881C32.1508 29.2489 31.63 28.832 31.0952 28.4332ZM15.1477 25.5813C14.8387 24.8221 14.6184 24.0557 14.4841 23.2934C14.9764 23.6754 15.4742 24.0502 15.9864 24.4048C15.6787 24.7735 15.3958 25.1637 15.1477 25.5813ZM15.5688 17.92C16.7394 19.4127 17.9783 20.6841 19.6173 21.6393C19.3867 21.7517 19.1839 21.8945 18.9647 22.0196C18.3579 21.5009 17.67 21.0504 17.0824 20.5248C16.4167 19.929 15.7569 19.3291 15.0854 18.7422C15.2275 18.464 15.3786 18.1876 15.5688 17.92ZM14.6838 19.7214C15.22 20.2521 15.7503 20.789 16.2841 21.3224C16.7542 21.7924 17.2393 22.329 17.7697 22.7911C17.4312 23.0443 17.0916 23.2972 16.7871 23.5832C16.6456 23.5072 16.5037 23.4332 16.3636 23.352C15.677 22.9525 15.0144 22.5116 14.358 22.0634C14.334 21.2659 14.4426 20.482 14.6838 19.7214ZM14.1638 27.9278C13.988 28.5901 13.8835 29.3041 13.8369 30.0571C13.2291 29.7227 12.6022 29.4089 12.0437 29.0276C11.1965 28.4486 10.3944 27.8055 9.59822 27.1546C10.9847 27.6986 12.4624 27.947 14.1638 27.9278ZM7.97051 26.4868C9.02333 27.4763 10.0559 28.4866 11.1482 29.4332C11.9149 30.0979 12.8372 30.9438 13.8259 31.4238C13.8496 31.9548 13.8955 32.5006 13.9849 33.0741C13.989 33.1012 14.0024 33.1162 14.0086 33.1412C13.5392 33.1121 13.0705 33.0559 12.6015 33.0165C12.9242 32.9761 13.212 32.6708 12.9783 32.3306C12.3432 31.4066 11.2256 30.7773 10.3746 30.0547C9.46803 29.2852 8.64818 28.4092 7.95441 27.442C7.94653 27.1258 7.95304 26.8068 7.97051 26.4868ZM12.3819 32.997C11.6843 32.9364 10.9865 32.8884 10.2896 32.8117C10.2814 32.6517 10.2108 32.4886 10.0467 32.3454C9.06856 31.4926 8.50772 30.46 8.21342 29.3441C8.57247 29.7734 8.95721 30.1832 9.37005 30.5813C10.219 31.4001 11.2383 32.503 12.3264 32.9826C12.3438 32.9901 12.3634 32.9912 12.3819 32.997ZM60.1528 42.4961C59.9931 42.3583 59.7889 42.2713 59.5522 42.2771C54.8349 42.394 50.2683 43.1614 45.5027 43.0346C40.2458 42.8945 34.9978 42.3392 29.7546 41.9657C20.4361 41.3021 11.0632 42.6012 1.76563 41.8328C1.77077 41.7948 1.78721 41.766 1.78824 41.7245C1.8177 40.5442 1.69334 33.7377 3.63967 34.2362C5.81862 34.794 8.05342 35.0711 10.2783 35.363C16.0385 36.1181 21.9241 35.8934 27.7058 35.5758C38.9593 34.9588 50.1073 33.2659 61.395 33.5113C61.4869 36.5584 61.271 39.6405 60.1528 42.4961Z" fill="black"/>
<path d="M4.00079 23.5586C2.90411 22.0638 2.56596 20.3525 2.40391 18.5363C2.34498 17.8758 1.42132 17.8689 1.37233 18.5363C1.21884 20.6317 1.49738 22.9405 3.55404 24.005C3.81853 24.1424 4.20875 23.8419 4.00079 23.5586Z" fill="black"/>
<path d="M8.26031 17.1587C6.84809 16.3471 5.37866 15.5635 3.86092 14.9691C3.27369 14.7392 2.95815 15.6362 3.44842 15.9473C4.8185 16.8175 6.26395 17.7155 7.84781 18.1369C8.43367 18.2931 8.79135 17.464 8.26031 17.1587Z" fill="black"/>
<path d="M9.65579 14.31C8.8743 13.0958 8.66155 11.7185 8.83696 10.2988C8.91268 9.68755 7.90644 9.5673 7.77249 10.1549C7.37061 11.9193 7.7396 13.51 8.84553 14.9349C9.20732 15.4005 9.96893 14.7965 9.65579 14.31Z" fill="black"/>
<path d="M22.5143 7.06355C21.5804 6.06075 20.5022 4.92981 19.2736 4.29393C18.7436 4.0195 18.1722 4.57076 18.461 5.10659C19.1311 6.35059 20.5108 7.11939 21.5359 8.04203C22.1978 8.63782 23.1249 7.7193 22.5143 7.06355Z" fill="black"/>
<path d="M24.9886 2.88893C23.8919 3.84959 23.4849 5.06687 23.9748 6.46778C24.1529 6.97723 25.0417 6.93509 24.9749 6.33245C24.8635 5.32245 25.1301 4.4632 25.7735 3.67383C26.2216 3.12327 25.5343 2.41065 24.9886 2.88893Z" fill="black"/>
<path d="M38.2617 8.36537C38.0085 7.49379 37.7029 6.64652 37.3301 5.81947C37.1317 5.37957 36.4736 5.70059 36.5784 6.13638C36.784 6.99187 37.1972 7.75588 37.5189 8.57025C37.6967 9.02078 38.4035 8.8529 38.2617 8.36537Z" fill="black"/>
<path d="M43.8812 4.70873C42.4056 5.23257 40.9447 6.13123 40.5196 7.74147C40.3753 8.28861 41.1993 8.51233 41.3631 7.9741C41.7458 6.71639 43.0901 5.99692 44.2033 5.47274C44.6312 5.27094 44.3263 4.55079 43.8812 4.70873Z" fill="black"/>
<path d="M50.7897 15.3778C50.6324 14.9739 49.9863 14.9992 49.9952 15.4854C50.0233 17.1241 50.5358 18.7209 50.618 20.3672C50.6431 20.8698 51.3889 20.8742 51.4016 20.3672C51.4406 18.7436 51.3831 16.9017 50.7897 15.3778Z" fill="black"/>
<path d="M58.9176 20.1928C56.9545 19.2726 54.3178 19.4651 53.1749 21.553C52.8227 22.1974 53.7416 22.9868 54.2308 22.368C55.2617 21.0644 56.9442 20.961 58.4897 21.2073C59.0612 21.2984 59.533 20.4816 58.9176 20.1928Z" fill="black"/>
</svg>
