<svg width="104" height="104" viewBox="0 0 104 104" fill="none" xmlns="http://www.w3.org/2000/svg">
  <title>Ikona Domečku se srdíčkem - pro text o Monkslab přehlídce</title>
  <path
    d="M102.384 54.2668C86.2848 35.3239 71.1898 14.1273 50.0216 0.461753C48.4139 -0.576248 46.6576 0.278544 45.6296 1.6128C30.72 20.9801 11.7147 37.3086 1.09856 59.7019C0.0911823 61.8263 1.2762 64.4976 3.84892 64.4948C8.34451 64.4898 12.839 64.4687 17.334 64.4274C16.8484 77.1541 16.634 89.8044 18.4812 102.456C18.8337 104.87 22.8325 104.281 22.7089 101.884C22.0061 88.2881 22.6343 74.872 23.6589 61.3095C23.7876 59.6044 22.1498 58.2301 20.5566 58.2072C16.7248 58.1532 12.893 58.1566 9.0612 58.1499C19.444 39.2281 35.626 24.3408 49.0476 7.54455C66.9325 19.8302 80.421 37.8354 94.2185 54.4768C89.5931 55.1272 85.0864 54.9969 80.2244 54.9178C78.4742 54.8889 77.0141 56.3985 77.0141 58.1276C77.0141 66.3381 76.8654 74.5652 77.0491 82.7734C77.1193 85.888 77.3532 89.0042 77.4774 92.1171C77.5358 93.614 77.547 95.112 77.5119 96.6094C77.3499 97.2681 77.312 97.7348 77.3749 98.0478C76.8476 99.0412 76.847 100.42 77.6127 101.313C77.7603 101.485 77.9062 101.656 78.0532 101.828C78.7944 102.694 80.4282 102.918 81.3632 102.255C85.1833 99.5485 83.9565 93.6268 83.7967 89.6112C83.4219 80.1985 83.4275 70.7963 83.4325 61.3792C89.3904 61.4337 95.1028 61.2583 100.967 59.6317C103.436 58.9462 103.913 56.0661 102.384 54.2668Z"
    fill="black"/>
  <path
    d="M70.2379 42.9513C61.6905 33.7975 52.4204 43.8707 48.3012 52.9243C43.163 46.7586 35.1486 42.5905 29.7759 51.4692C21.2386 65.578 35.8792 84.8935 47.2387 91.939C49.401 93.2804 51.1385 90.8302 50.3288 88.9703C51.403 90.6437 54.3287 91.3186 55.8696 89.139C62.6584 79.5409 81.6041 55.1217 70.2379 42.9513ZM66.9925 50.366C66.6767 50.199 66.3699 50.0325 66.0965 49.8615C64.275 48.7183 62.562 47.4453 60.8725 46.1372C64.2354 44.6553 66.3237 47.1089 66.9925 50.366ZM44.3168 56.9738C42.3973 55.4062 40.485 53.8281 38.5588 52.2661C40.8826 52.4587 42.8339 54.6455 44.3168 56.9738ZM50.1261 88.5822C49.9757 88.3616 49.8064 88.1456 49.5636 87.9624C46.8149 85.8852 44.3246 83.4556 42.1389 80.7894C42.6652 81.241 43.1624 81.721 43.7009 82.1609C45.5859 83.7012 47.8362 85.6753 50.3176 86.2845C49.8526 87.1076 49.8343 87.9044 50.1261 88.5822ZM52.0968 83.7229C47.0071 82.1615 42.3505 78.2111 38.007 74.6716C36.4282 71.7865 35.2093 68.7126 34.4731 65.49C37.3771 69.1324 40.4588 72.5945 43.8234 75.8321C46.3327 78.2472 49.2824 81.1135 52.4532 83.2295C52.3352 83.3927 52.2127 83.562 52.0968 83.7229ZM54.4585 80.4552C51.5672 78.2517 48.3391 76.3116 45.6193 74.0357C41.6578 70.7217 38.0487 67.0041 34.6852 63.0916C34.4987 62.8738 34.2531 62.822 34.0142 62.8582C33.9786 62.6054 33.9151 62.3598 33.8861 62.1053C33.8433 61.7356 33.8099 61.3062 33.7926 60.8401C37.2441 64.5505 40.935 68.0287 44.7345 71.3866C47.8011 74.0975 51.3027 77.4849 55.0744 79.5965C54.8695 79.8828 54.6623 80.1729 54.4585 80.4552ZM56.9221 76.9809C53.2713 73.9042 48.7378 71.4518 45.0575 68.531C41.1065 65.3953 37.4178 61.9578 33.8611 58.386C33.9313 57.6354 34.0571 56.8747 34.2481 56.1535C37.3343 60.1936 41.1221 63.5771 45.0363 66.9211C48.2444 69.6626 52.8865 74.5992 57.3208 76.3918C57.1871 76.5861 57.0552 76.7877 56.9221 76.9809ZM59.3088 73.4164C58.1923 72.4937 56.882 71.7948 55.6474 70.9696C52.3547 68.7705 49.1799 66.3826 46.0531 63.9553C42.326 61.0623 38.0988 58.0681 34.7682 54.7269C35.1296 53.9528 35.6264 53.3185 36.2595 52.873C43.026 59.6824 51.1858 67.7525 59.9503 72.3929C59.7359 72.7332 59.5282 73.079 59.3088 73.4164ZM61.7674 69.3814C58.2496 67.0197 54.5916 64.8446 51.1618 62.3309C51.0811 62.2718 51.0042 62.2089 50.9235 62.1493C51.4954 61.784 51.9437 61.2489 52.0762 60.5127C52.1241 60.246 52.1865 59.9837 52.2388 59.7175C53.5959 60.9482 54.9936 62.1304 56.476 63.2324C58.3588 64.6324 60.6336 66.4589 62.9741 67.1918C62.5882 67.9252 62.185 68.6558 61.7674 69.3814ZM64.3607 64.3434C62.6712 63.0682 60.5774 62.1933 58.8043 61.084C56.7339 59.7888 54.8154 58.2774 52.9728 56.6781C53.2451 55.7571 53.567 54.8566 53.9378 53.9834C55.8579 55.7136 57.7546 57.4683 59.7955 59.0604C61.2707 60.2114 63.3444 61.9143 65.3653 61.882C65.0535 62.7034 64.7321 63.5242 64.3607 64.3434ZM66.2518 59.189C64.7121 58.0124 62.5492 57.3558 60.9338 56.2677C58.8895 54.89 56.9833 53.3146 55.0443 51.7899C55.3322 51.296 55.6424 50.8182 55.9787 50.3566C57.8392 51.9175 59.7098 53.47 61.519 55.0877C62.9229 56.344 64.491 58.2095 66.2775 59.0871C66.2674 59.1211 66.2613 59.1545 66.2518 59.189ZM63.1139 53.0189C61.1855 51.6156 59.3127 50.1338 57.4277 48.6704C57.7585 48.334 58.1043 48.0088 58.4691 47.6981C60.0127 49.1487 61.7924 50.4095 63.4736 51.6346C64.5785 52.4398 65.8219 53.6215 67.1451 54.4952C67.1094 54.9017 67.0771 55.3077 67.0164 55.717C65.7785 54.7118 64.2822 53.8687 63.1139 53.0189Z"
    fill="black"/>
</svg>
