<svg width="104" height="104" viewBox="0 0 104 104" fill="none" xmlns="http://www.w3.org/2000/svg">
 <title>Ikona žárovky - pro text o Školení CNC</title>
  <path
    d="M89.8514 88.3479C91.6705 84.8257 91.5779 81.1166 86.1323 79.8151C88.0934 75.0902 88.5627 68.7309 83.086 68.9395C89.2212 46.6718 77.945 18.776 52.3292 18.0665C26.3556 17.3475 17.4743 49.606 22.7679 70.4862C21.7449 70.4468 20.7219 70.4113 19.6989 70.3592C19.1619 70.3342 18.4989 70.6837 18.2654 71.1808C15.6031 76.8477 15.9975 81.1077 18.2254 84.3081C10.4088 84.9422 10.5941 91.2299 15.076 96.4531C20.0068 102.199 29.6237 103.611 38.6353 103.891C38.733 103.917 38.8256 103.962 38.9244 103.984C39.1036 104.023 39.2827 103.99 39.4403 103.912C44.1769 104.025 48.7049 103.854 52.2338 103.855C64.7111 103.857 75.2488 101.876 85.0793 94.0604C86.408 93.0041 87.7683 91.5622 88.8479 89.9978C89.6589 90.4205 90.3202 89.3315 90.0156 88.612C89.9751 88.5177 89.8997 88.4395 89.8514 88.3479ZM79.5749 82.7709C78.5869 83.765 77.307 84.5528 75.8963 85.2196C76.4355 83.3418 76.8438 81.4239 77.2383 79.5155C77.6111 77.7092 78.6235 74.7013 77.9522 72.8861C77.9217 72.8034 77.8762 72.7408 77.8363 72.6703C78.0948 72.541 78.3661 72.4295 78.6207 72.2947C79.1955 73.3266 80.9552 73.5857 81.8212 72.5238C87.3345 73.8336 81.1754 81.161 79.5749 82.7709ZM50.2277 21.8766C75.088 19.2515 84.8197 48.5247 79.3164 68.4563C74.2026 69.8094 69.3783 71.3089 64.3721 72.4345C64.3382 71.8897 64.3005 71.3455 64.2806 70.8096C64.1818 68.1284 64.1557 65.4168 63.9061 62.7395C71.6429 62.4815 75.2422 54.6316 73.1907 46.7645C70.307 35.703 55.042 31.1906 45.1372 33.069C29.8145 35.976 27.2748 62.6424 43.7625 62.5924C43.3636 66.422 43.2133 70.241 43.231 74.0788C37.3039 73.7399 31.4001 72.8711 25.5683 71.7993C24.0949 52.6156 25.6138 24.4762 50.2277 21.8766ZM75.448 73.7926C75.1362 75.266 75.2472 77.0635 75.098 78.4509C74.8256 80.9934 74.4167 83.5126 73.9646 86.0268C71.5308 86.92 68.8812 87.5258 66.5268 88.0567C66.6416 84.1528 67.3029 80.2706 67.3096 76.4039C70.1372 75.7376 72.8733 74.8866 75.448 73.7926ZM64.5324 88.5127C64.5313 88.5127 64.5302 88.5133 64.5296 88.5133C61.5039 89.2295 58.3995 89.62 55.2783 89.8192C55.3638 88.2054 55.4148 86.5893 55.4731 84.975C55.5524 82.7759 55.9507 80.3854 55.3599 78.2446C55.3405 78.1725 55.3028 78.1159 55.2711 78.0548C57.5623 77.9289 59.8263 77.6776 62.0637 77.3531C62.5791 77.6127 63.2043 77.5339 63.6426 77.1178C63.9566 77.064 64.2794 77.0352 64.5929 76.9764C64.2301 78.2795 64.3088 79.8184 64.2528 81.0384C64.138 83.5065 64.0897 86.0618 64.5324 88.5127ZM60.4876 62.4027C60.831 62.4798 61.1539 62.512 61.4856 62.563C61.2465 65.0667 61.221 67.597 61.1217 70.1062C61.0829 71.0831 60.9736 72.1078 60.9386 73.128C59.8874 73.3194 58.82 73.483 57.7415 73.6295C56.6414 66.9718 56.9748 60.8011 58.972 54.7564C62.0021 55.5236 65.7856 55.548 66.4175 51.7879C66.6927 50.1496 64.7943 49.3835 63.8123 50.6894C62.9741 51.8045 61.6182 52.0614 60.0538 51.891C60.7167 50.3238 61.4568 48.76 62.3627 47.1961C63.009 46.0804 61.3686 45.1606 60.6579 46.1992C59.4946 47.8979 58.5243 49.6348 57.7243 51.4017C54.981 50.6129 52.059 49.211 50.2316 48.9441C48.9656 48.7588 47.8112 48.821 46.7738 49.0839C46.6795 48.9025 46.5946 48.715 46.4958 48.5358C45.9039 47.4613 44.4216 48.2335 44.6229 49.3258C44.6634 49.5461 44.7167 49.7663 44.7605 49.9865C42.9165 51.1748 41.6793 53.2175 41.2688 55.897C41.104 56.9721 42.4771 57.3471 42.886 56.343C43.5844 54.626 44.4393 53.5004 45.4052 52.7848C46.5419 57.163 48.2056 61.5101 49.7273 65.6891C50.6843 68.316 51.6025 71.6185 53.3566 74.0356C50.8125 74.1987 48.2678 74.2619 45.7258 74.1848C45.9355 69.8543 46.3177 65.576 47.2248 61.2766C47.4301 60.3018 46.7582 59.0508 45.6121 59.159C33.6435 60.2835 34.0807 46.1481 40.2553 39.659C45.8395 33.7891 55.543 36.1674 61.8973 39.0904C71.1009 43.3238 75.0957 59.934 60.9231 59.2028C59.0835 59.1058 58.6957 62.0027 60.4876 62.4027ZM45.3752 79.0745C45.4756 78.9153 45.5522 78.7322 45.5594 78.497C45.5644 78.3405 45.5721 78.1858 45.5771 78.0299C48.2345 78.1741 50.9123 78.2213 53.5808 78.1297C53.5647 78.1691 53.5397 78.2007 53.5269 78.244C53.011 80.113 53.3106 82.108 53.3799 84.028C53.4504 85.9846 53.5053 87.9457 53.6146 89.9018C51.1109 90.0089 48.6039 90.0128 46.1241 89.9679C45.7757 89.9618 45.4279 89.9451 45.0801 89.9346C45.0057 88.1127 44.6573 86.2138 44.6806 84.4585C44.7028 82.792 45.2404 80.8603 45.3752 79.0745ZM51.5298 62.3872C50.3603 58.9282 49.4228 55.228 48.0259 51.7895C50.605 51.541 53.629 52.8569 56.6791 54.0091C54.4706 60.3212 54.404 66.9951 56.2015 73.8187C56.0101 73.8397 55.8237 73.8703 55.6312 73.8891C54.2947 70.0579 52.8335 66.2434 51.5298 62.3872ZM42.4172 84.4596C42.4371 85.9597 42.3955 88.04 42.8044 89.8325C40.2392 89.6794 37.6861 89.3881 35.1608 88.9415C34.9539 86.9849 34.773 85.0271 34.6954 83.061C34.6133 80.9746 35.1608 78.9391 35.203 76.9009C37.7366 77.3054 40.3263 77.6443 42.9686 77.8585C42.1381 79.7674 42.3955 82.8164 42.4172 84.4596ZM33.5681 88.6148C31.8078 88.252 30.0592 87.8326 28.3394 87.2856C27.4851 87.0143 26.6152 86.6027 25.7675 86.1023C25.9456 83.8882 26.1081 81.693 26.456 79.4961C26.6684 78.1558 27.1816 76.7351 27.4401 75.3376C29.3458 75.8031 31.2991 76.238 33.3329 76.6019C31.8605 80.0243 32.904 85.0205 33.5681 88.6148ZM23.5002 72.7041C23.5457 72.7552 23.5895 72.8084 23.6411 72.8523C23.5235 73.7088 24.0511 74.7374 24.9664 74.7202C25.0313 74.7379 25.1018 74.7529 25.1667 74.7701C24.8521 75.9379 24.7667 77.2216 24.6236 78.3516C24.3434 80.5696 24.1559 82.8042 24.2047 85.0404C19.6684 81.5582 16.7997 75.5418 23.5002 72.7041ZM19.9358 96.0231C17.1758 94.3682 15.1759 91.3575 15.8527 88.7818C17.3783 91.5417 19.31 94.4099 21.5391 96.8569C20.9915 96.6062 20.4539 96.3332 19.9358 96.0231ZM25.8557 98.2877C24.4871 96.9584 23.002 95.7147 21.7005 94.3538C19.7056 92.2673 17.927 90.0278 16.3931 87.6018C16.737 87.0798 17.228 86.5943 17.8715 86.1572C20.8872 90.2452 23.9013 94.9241 27.6454 98.6061C27.0479 98.5035 26.446 98.4225 25.8557 98.2877ZM31.3973 99.1143C26.7617 94.9446 22.6902 90.5248 18.6021 85.7256C18.6953 85.6773 18.7752 85.6241 18.874 85.5775C18.9666 85.5336 19.0332 85.4704 19.087 85.3994C20.0889 86.5183 21.3571 87.4731 22.7812 88.3169C22.7024 88.4833 22.7102 88.6891 22.8761 88.8633C25.59 91.7187 28.1264 94.7355 30.8436 97.5887C31.3202 98.0885 31.8256 98.6483 32.3515 99.218C32.0375 99.1903 31.7146 99.1453 31.3973 99.1143ZM41.2527 99.8998C39.5435 98.1007 37.5497 96.4425 35.6845 94.9197C35.046 94.3993 32.8547 92.7744 32.3315 94.3072C32.2045 94.6795 32.7487 94.877 32.9445 94.5657C33.0294 94.4304 36.3386 97.7218 36.6581 98.0624C37.1375 98.5734 37.6223 99.1254 38.1166 99.6779C37.1907 99.6074 36.2631 99.542 35.34 99.4649C34.1195 98.5906 32.9129 97.6913 31.7912 96.6422C29.333 94.3433 27.12 91.783 24.7739 89.3637C27.9849 90.8616 31.8206 91.8524 35.7267 92.5004C35.7272 92.5009 35.7272 92.502 35.7284 92.5026C37.9929 94.8159 40.2292 97.1876 42.684 99.3018C42.962 99.5409 43.2593 99.7861 43.5655 100.03C42.7933 99.988 42.0227 99.9497 41.2527 99.8998ZM48.4131 100.227C47.7407 99.9714 47.0539 99.7528 46.3943 99.4333C45.0834 98.7975 43.9128 97.8544 42.795 96.9368C41.2156 95.6409 39.7659 94.2029 38.2254 92.8676C40.4039 93.1505 42.5614 93.3308 44.6152 93.4446C46.4997 95.1566 48.3715 96.8824 50.3298 98.5123C51.0055 99.0743 51.7145 99.6818 52.459 100.247C51.1115 100.261 49.7634 100.258 48.4131 100.227ZM56.5898 100.123C54.9777 98.7281 52.874 97.6913 51.2152 96.3992C50.0491 95.4905 48.9179 94.5374 47.7945 93.5733C49.4538 93.6127 50.9961 93.6099 52.3492 93.5794C52.4385 93.5771 52.5367 93.5733 52.6266 93.5711C54.3541 95.7834 56.1654 98.0192 58.2086 100.031C57.6694 100.063 57.1285 100.098 56.5898 100.123ZM61.383 99.7883C61.3658 99.7761 61.3464 99.7678 61.3292 99.755C60.1104 98.9018 59.023 97.8316 57.9529 96.8042C56.8117 95.708 55.6933 94.5907 54.5449 93.5089C56.359 93.4357 58.3085 93.3125 60.3167 93.1128C61.991 94.8964 63.6376 96.7021 65.4722 98.3265C65.7474 98.5695 66.043 98.8274 66.3482 99.0854C64.7111 99.3966 63.0517 99.6274 61.383 99.7883ZM69.3278 98.4092C68.1301 97.7468 66.9168 97.1204 65.8123 96.1934C64.5757 95.1566 63.4212 94.0254 62.2695 92.8937C63.7557 92.7101 65.2603 92.4748 66.7559 92.1869C67.8699 93.3885 68.965 94.6057 70.2005 95.6864C70.8673 96.27 71.6856 96.9113 72.5654 97.324C71.5047 97.7401 70.4274 98.109 69.3278 98.4092ZM76.9942 95.1083C76.4205 95.4728 75.8341 95.8068 75.24 96.118C75.1684 96.0337 75.0796 95.9565 74.9692 95.8911C73.5929 95.0767 72.242 94.6323 70.981 93.5688C70.2881 92.9847 69.6374 92.3506 68.9944 91.7082C70.0523 91.4591 71.0898 91.1634 72.1139 90.8438C72.1183 90.8477 72.1233 90.8516 72.1272 90.8555C72.8717 91.4951 73.6445 92.1093 74.3989 92.7383C75.2849 93.4773 76.1271 94.3255 77.0191 95.0933C77.0108 95.0983 77.0008 95.1044 76.9942 95.1083ZM78.9353 93.8617C77.8413 92.7788 76.4055 91.9106 75.2222 91.0646C74.8511 90.7994 74.4333 90.4966 73.9979 90.212C75.5357 89.6444 77.0014 88.977 78.3661 88.2059C79.2193 88.7929 80.0892 89.3532 80.9857 89.8774C81.6054 90.2397 82.2694 90.6602 82.9607 90.8926C81.632 92.0238 80.1591 93.0562 78.9353 93.8617ZM84.4696 89.478C83.5276 88.9543 82.5252 88.5715 81.5527 88.0833C81.0157 87.8148 80.4947 87.5147 79.971 87.2173C80.8709 86.6065 81.7086 85.9364 82.473 85.203C83.3706 85.6601 84.2511 86.1478 85.0949 86.7136C85.4238 86.9344 85.7256 87.1807 86.0158 87.4387C85.6385 88.1205 85.1132 88.8067 84.4696 89.478ZM86.5117 85.2856C85.6446 84.7092 84.7093 84.241 83.7557 83.8139C84.0463 83.4599 84.3309 83.1004 84.5895 82.7199C84.6616 82.7803 84.711 82.8519 84.7981 82.9052C85.9669 83.6186 86.4823 84.4441 86.5644 85.3211C86.5472 85.3095 86.5284 85.2973 86.5117 85.2856Z"
    fill="black"/>
  <path
    d="M16.3794 62.4136C14.6341 62.1007 12.9493 61.9975 11.1746 62.0064C10.3774 62.0103 9.5874 62.0325 8.79076 61.9892C8.57162 61.9726 8.3536 61.9459 8.13724 61.9082C7.85764 61.8671 7.72838 61.8411 7.67734 61.8411C6.97778 61.0306 5.65687 61.3557 5.50542 62.5978C4.94511 67.1834 14.4732 64.3475 16.3794 63.9592C17.1372 63.8044 17.1566 62.5534 16.3794 62.4136Z"
    fill="black"/>
  <path
    d="M17.1972 54.7745C13.7061 53.2994 10.003 52.3008 6.36261 51.2007C6.39256 51.1741 6.42918 51.148 6.45636 51.1208C7.49489 50.0662 6.18619 48.5234 4.93242 49.1453C3.6276 49.7927 2.74109 50.0673 2.33888 51.5952C2.13361 52.3752 2.58852 53.2633 3.39737 53.4603C7.72955 54.5121 12.115 55.7021 16.5232 56.3761C17.4136 56.512 18.1886 55.1939 17.1972 54.7745Z"
    fill="black"/>
  <path
    d="M17.6544 41.456C15.1529 40.2072 11.1237 40.2278 10.2494 36.9591C9.96642 35.9006 8.11627 35.7408 7.94984 36.9591C7.66858 39.0189 8.79697 40.3043 10.5894 41.1703C12.4962 42.0912 15.2123 42.864 17.3443 42.6021C17.8868 42.5356 18.2641 41.7606 17.6544 41.456Z"
    fill="black"/>
  <path
    d="M20.7021 30.0902C18.103 28.4819 15.9716 27.0213 15.0146 23.9884C14.6618 22.8705 12.8826 22.7235 12.6069 23.9884C11.7559 27.8906 17.0018 31.1953 20.2882 31.6175C21.147 31.7284 21.3351 30.4824 20.7021 30.0902Z"
    fill="black"/>
  <path
    d="M26.6218 20.5031C25.4624 17.1224 23.1751 14.525 23.4064 10.777C23.493 9.37453 21.564 9.01671 20.8894 10.0952C18.6604 13.6573 22.6575 18.5392 24.6641 21.3286C25.3276 22.2512 27.0429 21.7308 26.6218 20.5031Z"
    fill="black"/>
  <path
    d="M36.1505 8.09447C36.0894 6.85901 36.283 5.2796 35.5557 4.22444C34.9988 3.4167 33.8287 3.34014 33.2873 4.22444C32.5861 5.37002 33.082 6.84625 33.249 8.09447C33.4609 9.67888 33.5885 11.281 33.8964 12.8499C34.1111 13.9439 35.9308 13.97 36.1244 12.8499C36.3951 11.2816 36.2287 9.67499 36.1505 8.09447Z"
    fill="black"/>
  <path
    d="M47.8596 3.12105C47.8197 2.2412 46.9953 1.87783 46.2474 2.19626C45.0747 2.69555 44.6808 4.25444 44.4084 5.39226C44.0617 6.84131 44.0877 8.47564 44.6225 9.87143C45.0087 10.8794 46.7162 10.8345 46.6358 9.59904C46.5559 8.37634 46.5326 7.26126 46.8521 6.06575C47.1234 5.04831 47.9084 4.1973 47.8596 3.12105Z"
    fill="black"/>
  <path
    d="M61.7491 0.0882247C60.3683 0.670727 60.0022 1.91673 59.646 3.27867C59.2144 4.9291 58.8799 6.71267 58.9997 8.42134C59.1212 10.1611 61.4762 10.11 61.6642 8.42134C61.814 7.07715 62.1397 5.74738 62.5269 4.45366C62.7782 3.61209 63.2659 2.17247 63.3663 1.70425C63.5488 0.843814 62.7477 -0.332841 61.7491 0.0882247Z"
    fill="black"/>
  <path
    d="M78.2909 5.0056C76.5612 4.59785 75.4444 6.205 74.7865 7.5786C73.9144 9.39933 73.5782 11.4703 73.8506 13.4635C74.0181 14.6829 76.0463 14.6369 76.2588 13.4635C76.5284 11.9651 76.7559 10.5122 77.4632 9.14303C78.0197 8.06568 78.9977 7.3284 79.0981 6.0652C79.1353 5.59642 78.7364 5.11045 78.2909 5.0056Z"
    fill="black"/>
  <path
    d="M86.8674 15.7425C86.793 15.3481 86.3842 14.9386 85.9892 14.8643C84.3104 14.547 83.0916 16.4354 82.1091 17.5322C81.1544 18.5968 80.2207 19.6547 79.3497 20.7892C78.6524 21.6979 80.0343 23.0798 80.943 22.3825C82.0082 21.5653 83.0051 20.6949 84.0048 19.7989C85.1337 18.7843 87.1952 17.4789 86.8674 15.7425Z"
    fill="black"/>
  <path
    d="M93.3094 21.2873C91.538 21.3201 90.1023 22.9023 88.9766 24.1294C87.6541 25.5707 86.6167 27.2411 85.6974 28.9581C84.8908 30.4648 87.0194 31.6759 87.9659 30.284C88.8485 28.9858 89.7561 27.7065 90.8201 26.5493C91.8914 25.3848 93.6733 24.5937 94.4039 23.1941C94.835 22.3664 94.3096 21.2685 93.3094 21.2873Z"
    fill="black"/>
  <path
    d="M96.5881 35.4744C93.7987 34.8708 90.328 37.2685 87.9825 38.5777C86.5784 39.361 87.8094 41.3088 89.2146 40.6853C90.4812 40.1233 91.7521 39.5891 93.0553 39.1164C94.3063 38.6631 95.8097 38.5672 96.8887 37.7727C97.6882 37.1841 97.7581 35.7273 96.5881 35.4744Z"
    fill="black"/>
  <path
    d="M97.8052 50.6417C96.0461 49.9466 93.3532 50.3976 91.4687 50.3344C89.8083 50.2784 88.1928 50.1691 86.5806 50.5019C85.6614 50.6917 85.6991 52.1024 86.5806 52.3166C88.1795 52.7049 89.8072 52.9002 91.4687 53.0727C93.305 53.2641 96.0383 54.0219 97.8052 53.3545C99.1556 52.8441 99.1239 51.1621 97.8052 50.6417Z"
    fill="black"/>
  <path
    d="M101.058 62.0199C99.2771 60.8588 96.1649 61.4252 94.1028 61.3425C91.8971 61.2549 89.6086 60.8044 87.4206 60.9925C86.3627 61.0835 86.1025 62.269 86.908 62.8848C88.4497 64.0642 90.7936 64.0592 92.6593 64.3028C94.9982 64.6068 98.9548 65.6864 101.057 64.3527C101.938 63.7946 101.919 62.5819 101.058 62.0199Z"
    fill="black"/>
</svg>
