<svg width="64" height="64" viewBox="0 0 64 64" fill="none" xmlns="http://www.w3.org/2000/svg">
  <title>Ikona pro Začátečníky v Monkslabu</title>
  <path fill-rule="evenodd" clip-rule="evenodd"
        d="M56.8906 25.4507C56.1268 24.9496 55.3039 24.5542 54.4461 24.2278C58.0021 14.2211 49.3131 1.30159 38.5153 3.74907C37.7932 2.06407 36.4399 0.900507 33.9754 0.380071C30.9541 -0.258056 25.383 -0.538445 24.2311 3.29398C24.2304 3.29609 24.2299 3.2983 24.2294 3.30054L24.2278 3.30665C14.4749 4.21516 8.68506 14.6682 9.7406 23.8377C6.50363 25.2797 3.13229 28.8054 7.27044 30.5694C6.96972 30.9901 7.17176 31.6926 7.85956 31.773C8.80775 31.8836 9.75627 31.9557 10.7055 32.003C10.6436 32.2924 10.5962 32.5776 10.5489 32.862L10.5478 32.8688C9.43654 32.3577 7.91824 32.7972 7.00706 33.5213C6.07287 34.2631 5.57578 35.4247 5.57678 36.6062C5.57944 39.5028 8.48969 40.4207 10.7811 39.5302C11.3969 41.9133 12.5908 44.0134 14.1918 45.7991C10.9672 49.6382 6.33593 57.5607 9.8953 62.356C10.178 62.7374 10.6328 62.7694 10.9438 62.5754C17.5053 63.7674 24.1926 64.011 30.8987 63.9997C33.5361 60.5721 43.328 51.584 43.328 51.584C43.328 51.584 47.0685 47.8795 48.7267 46.0112C47.9309 45.3 47.1565 44.7106 46.4612 44.2854C47.3497 42.9078 48.0882 41.4035 48.651 39.7865C51.3615 40.5357 54.3674 38.6253 54.7892 35.8514C55.2283 32.9669 52.8521 31.2262 50.1659 32.122C50.1325 32.1332 50.1069 32.1506 50.0813 32.168C50.0643 32.1796 50.0473 32.1912 50.0279 32.201C50.0327 32.0833 50.0395 31.9664 50.0464 31.8495C50.0578 31.6547 50.0692 31.46 50.0709 31.2618C51.5819 31.2985 53.0928 31.3352 54.6038 31.3445C55.0269 31.3472 55.3273 31.1672 55.5233 30.9108C55.5409 30.9087 55.5583 30.9069 55.5757 30.9052C55.6431 30.8986 55.7104 30.892 55.783 30.8618C58.6823 29.6552 59.9269 27.4428 56.8906 25.4507ZM49.7204 46.9526C48.4442 48.9261 46.3791 51.316 44.9047 52.9645C43.9018 54.0863 36.9798 60.7611 33.2564 63.9864C34.3121 63.9767 35.368 63.9627 36.4236 63.9472C38.0847 61.9681 42.0462 58.5981 44.7256 56.3188L44.7258 56.3187C45.9273 55.2965 46.8711 54.4937 47.2339 54.134C48.7402 52.6405 50.3965 50.9602 51.837 49.3402C51.1611 48.4808 50.4417 47.6747 49.7204 46.9526ZM52.5201 63.9437C48.0041 63.7764 43.443 63.8383 38.8709 63.9095C42.0874 61.1049 47.2175 56.1142 48.1731 55.0452C48.4315 54.7563 48.6984 54.4623 48.9694 54.1637C50.1447 52.8688 51.3984 51.4875 52.3823 50.0585C55.4561 54.2571 57.2966 59.4622 53.4779 62.411C53.8163 63.0808 53.2925 63.9723 52.5201 63.9437ZM7.60718 36.6056C7.58051 35.9965 7.8699 35.459 8.33566 35.0513C8.75118 34.6875 9.28345 34.6218 9.81614 34.556C9.9968 34.5337 10.1775 34.5114 10.3537 34.4775C10.256 35.7974 10.3144 37.0593 10.5134 38.2582C9.20716 38.3436 7.67586 38.1639 7.60718 36.6056ZM39.2604 7.92656C39.2298 6.88636 39.1351 5.93617 38.9414 5.08067C43.7377 4.90763 47.6171 7.02972 50.2269 11.2182C52.6638 15.1297 52.5754 19.2525 52.4314 23.6093C48.7178 22.7284 44.5293 22.951 40.852 23.1463C40.116 23.1854 39.4005 23.2234 38.7133 23.2513L38.7009 23.2514C38.6947 23.2515 38.6885 23.2515 38.6823 23.2519C40.5568 20.4983 40.0207 15.6156 39.5791 11.5936C39.4299 10.2345 39.2914 8.97373 39.2604 7.92656ZM27.8432 2.62952C29.6845 1.88904 32.4484 2.33679 34.2978 2.73254C37.3473 3.38492 37.2235 7.50523 37.1354 10.4387C37.1187 10.9952 37.1033 11.509 37.111 11.9484C37.1264 12.8206 37.175 13.6933 37.2235 14.5646L37.2235 14.5647C37.3764 17.3084 37.5285 20.0387 36.6386 22.7012C36.5632 22.9269 36.5762 23.1156 36.6236 23.2843C33.0816 23.3379 29.5629 23.2033 26.0338 23.0075C25.4452 19.6248 25.6314 16.2305 25.8179 12.8298C25.909 11.1685 26.0002 9.50562 26.0011 7.84188C26.0013 7.68781 25.9999 7.52821 25.9984 7.36464C25.9827 5.60515 25.9629 3.38541 27.8432 2.62952ZM23.756 5.81215C23.6238 7.09325 23.6224 8.39859 23.6209 9.69194C23.6202 10.3942 23.6194 11.0929 23.5977 11.7823L23.5823 12.2647C23.4653 15.8959 23.3496 19.4903 24.6225 22.9269L24.5634 22.9235C23.6693 22.8723 22.7757 22.8211 21.8783 22.7712L21.6647 22.7593H21.6647C18.4931 22.5829 14.6311 22.3681 11.4036 23.2533C12.2054 15.7134 15.352 7.11374 23.756 5.81215ZM31.6793 50.0782C20.203 51.2565 11.805 43.2249 12.0661 32.0363C15.8622 32.1244 19.6649 31.8149 23.4657 31.5056H23.4658C26.2095 31.2822 28.9523 31.059 31.6909 30.9855C36.3287 30.8607 40.9697 31.0016 45.6102 31.1424L45.6104 31.1424C46.3407 31.1645 47.0711 31.1867 47.8015 31.2078C47.318 41.5836 42.6514 48.9517 31.6793 50.0782ZM50.706 34.0747C52.0136 33.6523 53.0428 34.1124 52.7781 35.632C52.4337 37.6094 50.8051 38.1172 49.1047 38.2902C49.4851 36.9126 49.7552 35.474 49.9079 33.9837C50.1153 34.1244 50.3856 34.1788 50.706 34.0747ZM54.9552 28.8934C54.939 28.9028 54.9274 28.9151 54.9157 28.9275C54.9063 28.9375 54.8968 28.9475 54.8849 28.9561C54.8576 28.9497 54.8312 28.9421 54.8048 28.9344L54.8048 28.9344C54.7423 28.9163 54.68 28.8982 54.6055 28.8977C51.3952 28.8794 48.1864 28.7986 44.9777 28.7179C40.5496 28.6065 36.1218 28.4951 31.6909 28.5476C26.3278 28.6111 20.9486 29.1032 15.5821 29.5941L15.5821 29.5941C13.2286 29.8093 10.8775 30.0244 8.53136 30.203C8.52347 30.1899 8.51873 30.1759 8.51402 30.162C8.5064 30.1396 8.49883 30.1173 8.47802 30.099C5.52577 27.5018 10.6331 25.8865 11.7373 25.5667C14.3802 24.8015 17.5616 24.9415 20.4262 25.0676L20.4264 25.0676C20.9214 25.0894 21.407 25.1108 21.8787 25.127C23.6013 25.1861 25.3158 25.2833 27.0285 25.3805L27.0286 25.3805C30.2028 25.5605 33.3704 25.7402 36.5709 25.6761C37.8711 25.65 39.1898 25.5644 40.5146 25.4784C43.4293 25.2893 46.3735 25.0982 49.2157 25.535C50.689 25.7614 58.0622 27.1107 54.9552 28.8934Z"
        fill="black"/>
  <path
    d="M29.4569 17.2075C28.7879 16.9552 28.0807 16.9234 27.4026 17.1651C27.1057 17.2709 26.8238 17.4982 26.6196 17.7659C25.9333 18.2515 25.8392 19.2541 26.2293 19.9736C27.0369 21.4632 29.2845 21.1647 30.4365 20.1373C31.5679 19.1282 30.8709 17.741 29.4569 17.2075ZM29.607 19.4751C28.9689 20.1247 27.8163 20.4083 27.2125 19.6069C27.0891 19.443 27.0219 19.2801 26.9916 19.1209C27.1049 19.0978 27.2143 19.0434 27.3013 18.9471C27.5693 18.6504 27.5068 18.238 27.9401 18.0321C28.2262 17.8964 28.6165 17.9816 28.9039 18.0659C29.6159 18.2741 30.1285 18.9441 29.607 19.4751Z"
    fill="black"/>
  <path
    d="M35.4569 17.2075C34.7879 16.9552 34.0807 16.9234 33.4026 17.1651C33.1057 17.2709 32.8238 17.4982 32.6196 17.7659C31.9333 18.2515 31.8392 19.2541 32.2293 19.9736C33.0369 21.4632 35.2845 21.1647 36.4365 20.1373C37.5679 19.1282 36.8709 17.741 35.4569 17.2075ZM35.607 19.4751C34.9689 20.1247 33.8163 20.4083 33.2125 19.6069C33.0891 19.443 33.0219 19.2801 32.9916 19.1209C33.1049 19.0978 33.2143 19.0434 33.3013 18.9471C33.5693 18.6504 33.5068 18.238 33.9401 18.0321C34.2262 17.8964 34.6165 17.9816 34.9039 18.0659C35.6159 18.2741 36.1285 18.9441 35.607 19.4751Z"
    fill="black"/>
  <path
    d="M29.4569 12.2075C28.7879 11.9552 28.0807 11.9234 27.4026 12.1651C27.1057 12.2709 26.8238 12.4982 26.6196 12.7659C25.9333 13.2515 25.8392 14.2541 26.2293 14.9736C27.0369 16.4632 29.2845 16.1647 30.4365 15.1373C31.5679 14.1282 30.8709 12.741 29.4569 12.2075ZM29.607 14.4751C28.9689 15.1247 27.8163 15.4083 27.2125 14.6069C27.0891 14.443 27.0219 14.2801 26.9916 14.1209C27.1049 14.0978 27.2143 14.0434 27.3013 13.9471C27.5693 13.6504 27.5068 13.238 27.9401 13.0321C28.2262 12.8964 28.6165 12.9816 28.9039 13.0659C29.6159 13.2741 30.1285 13.9441 29.607 14.4751Z"
    fill="black"/>
  <path
    d="M35.4569 12.2075C34.7879 11.9552 34.0807 11.9234 33.4026 12.1651C33.1057 12.2709 32.8238 12.4982 32.6196 12.7659C31.9333 13.2515 31.8392 14.2541 32.2293 14.9736C33.0369 16.4632 35.2845 16.1647 36.4365 15.1373C37.5679 14.1282 36.8709 12.741 35.4569 12.2075ZM35.607 14.4751C34.9689 15.1247 33.8163 15.4083 33.2125 14.6069C33.0891 14.443 33.0219 14.2801 32.9916 14.1209C33.1049 14.0978 33.2143 14.0434 33.3013 13.9471C33.5693 13.6504 33.5068 13.238 33.9401 13.0321C34.2262 12.8964 34.6165 12.9816 34.9039 13.0659C35.6159 13.2741 36.1285 13.9441 35.607 14.4751Z"
    fill="black"/>
  <path
    d="M29.4569 7.20753C28.7879 6.95517 28.0807 6.92339 27.4026 7.16511C27.1057 7.27092 26.8238 7.4982 26.6196 7.76592C25.9333 8.25148 25.8392 9.25408 26.2293 9.97362C27.0369 11.4632 29.2845 11.1647 30.4365 10.1373C31.5679 9.12821 30.8709 7.74098 29.4569 7.20753ZM29.607 9.47513C28.9689 10.1247 27.8163 10.4083 27.2125 9.60693C27.0891 9.44305 27.0219 9.28008 26.9916 9.12091C27.1049 9.0978 27.2143 9.04338 27.3013 8.94715C27.5693 8.65039 27.5068 8.23795 27.9401 8.03211C28.2262 7.89635 28.6165 7.98164 28.9039 8.06586C29.6159 8.27413 30.1285 8.94411 29.607 9.47513Z"
    fill="black"/>
  <path
    d="M35.4569 7.20753C34.7879 6.95517 34.0807 6.92339 33.4026 7.16511C33.1057 7.27092 32.8238 7.4982 32.6196 7.76592C31.9333 8.25148 31.8392 9.25408 32.2293 9.97362C33.0369 11.4632 35.2845 11.1647 36.4365 10.1373C37.5679 9.12821 36.8709 7.74098 35.4569 7.20753ZM35.607 9.47513C34.9689 10.1247 33.8163 10.4083 33.2125 9.60693C33.0891 9.44305 33.0219 9.28008 32.9916 9.12091C33.1049 9.0978 33.2143 9.04338 33.3013 8.94715C33.5693 8.65039 33.5068 8.23795 33.9401 8.03211C34.2262 7.89635 34.6165 7.98164 34.9039 8.06586C35.6159 8.27413 36.1285 8.94411 35.607 9.47513Z"
    fill="black"/>
  <path
    d="M19.4722 33.2246C18.6657 33.2246 18.0172 34.0331 18.2546 34.8229C18.4703 35.5417 18.63 36.1289 19.1254 36.7193C19.3855 37.029 19.8992 37.055 20.2293 36.8617C20.6147 36.636 20.7074 36.2449 20.6481 35.8328C20.6024 35.5147 20.6077 35.1287 20.6901 34.8226C20.9031 34.0304 20.2966 33.2246 19.4722 33.2246Z"
    fill="black"/>
  <path
    d="M43.4403 34.7545C43.4297 34.6832 43.4197 34.6122 43.4086 34.5408C43.4073 34.5268 43.4043 34.5035 43.3977 34.4475C43.363 34.1458 43.3103 33.9211 43.1809 33.6447C43.0072 33.2739 42.5085 33.0295 42.1004 33.0295C41.702 33.0295 41.3039 33.3089 41.1075 33.6447C40.7811 34.2021 41.0138 34.7362 41.2439 35.266C41.4889 35.8304 41.681 36.2668 41.942 36.8143C42.2881 37.5398 43.3243 37.267 43.5373 36.6059C43.7274 36.0145 43.53 35.3513 43.4403 34.7545Z"
    fill="black"/>
  <path
    d="M37.1906 38.0075C36.5841 37.4184 35.6966 37.7378 35.4229 38.4739C34.9175 39.8365 35.4992 41.0561 34.6117 42.4097C33.8976 43.4989 32.4756 44.0117 31.2714 44.2691C27.9654 44.9769 25.9257 42.8331 25.4573 39.7738C25.3539 39.0984 24.3777 39.2104 24.204 39.7738C22.7934 44.3534 27.0656 47.333 31.2617 46.8799C33.3482 46.6549 35.3956 45.6957 36.6998 44.021C37.8604 42.5304 38.7306 39.5015 37.1906 38.0075Z"
    fill="black"/>
</svg>
