<?xml version="1.0" standalone="no"?>
<!DOCTYPE svg PUBLIC "-//W3C//DTD SVG 20010904//EN"
 "http://www.w3.org/TR/2001/REC-SVG-20010904/DTD/svg10.dtd">
<svg version="1.0" xmlns="http://www.w3.org/2000/svg"
 width="512.000000pt" height="512.000000pt" viewBox="0 0 512.000000 512.000000"
 preserveAspectRatio="xMidYMid meet">
<metadata>
Created by potrace 1.11, written by Peter Selinger 2001-2013
</metadata>
<g transform="translate(0.000000,512.000000) scale(0.100000,-0.100000)"
fill="#000000" stroke="none">
<path d="M320 2565 l0 -2235 2235 0 2235 0 0 2235 0 2235 -2235 0 -2235 0 0
-2235z m1055 -457 c13 -15 31 -51 40 -80 10 -29 114 -294 232 -588 187 -463
263 -661 263 -678 0 -2 -60 -3 -134 0 -97 2 -138 7 -151 18 -20 16 -52 87 -84
182 -12 37 -31 78 -42 92 l-20 26 -243 0 c-269 0 -270 0 -305 -68 -10 -20 -33
-77 -50 -126 -18 -50 -37 -96 -43 -103 -8 -10 -48 -13 -150 -13 l-139 0 7 23
c3 12 103 272 221 577 117 305 230 597 250 648 20 52 44 99 57 108 17 12 46
14 144 12 120 -3 124 -4 147 -30z m2278 21 c35 -9 48 -26 164 -200 69 -104
129 -189 132 -189 3 0 61 82 129 183 69 104 133 189 147 197 27 15 51 16 208
12 53 -1 97 -6 97 -10 0 -10 -101 -169 -273 -429 -70 -105 -127 -201 -127
-212 0 -11 96 -165 214 -343 117 -178 218 -333 225 -346 l12 -23 -163 3 -163
3 -125 186 c-69 102 -139 203 -156 224 l-30 37 -145 -218 c-128 -194 -148
-220 -179 -230 -22 -6 -85 -8 -168 -5 l-133 6 93 145 c52 80 154 234 226 343
74 111 132 208 132 221 0 13 -29 66 -64 117 -118 175 -336 517 -336 528 0 14
232 15 283 0z m-870 -9 c136 -10 201 -34 260 -95 137 -141 136 -409 -3 -539
-52 -48 -97 -74 -177 -100 l-52 -17 69 -66 c38 -36 92 -95 119 -132 43 -58
251 -387 251 -397 0 -2 -72 -4 -159 -4 l-159 0 -30 38 c-16 20 -90 128 -165
238 -75 111 -153 216 -172 232 -43 38 -119 62 -197 62 l-58 0 -2 -282 -3 -283
-135 0 -135 0 -3 672 -2 672 97 4 c223 7 546 6 656 -3z"/>
<path d="M1130 1568 c-47 -127 -86 -235 -88 -240 -2 -4 78 -8 178 -8 169 0
182 1 175 18 -4 9 -43 114 -86 232 -44 118 -83 218 -87 222 -4 4 -45 -97 -92
-224z"/>
<path d="M2378 1893 l-68 -4 0 -159 0 -160 220 0 c242 0 260 3 300 59 26 37
36 117 21 163 -19 58 -59 88 -132 98 -61 9 -197 10 -341 3z"/>
</g>
</svg>
