<svg width="155" height="108" viewBox="0 0 155 108" fill="none" xmlns="http://www.w3.org/2000/svg">
  <title>[Logo] Anwis</title>
  <path
    d="M21.2202 104.272V96.5152C18.9395 96.1348 15.9158 95.9654 12.833 95.9654C6.60103 95.9654 4.5073 96.4293 4.5073 100.349C4.5073 104.608 6.29595 105.239 12.833 105.239C15.8518 105.241 18.814 104.866 21.2202 104.272ZM25.2281 106.044C21.8353 107.097 16.5948 107.732 12.646 107.732C3.70278 107.732 0 106.086 0 100.565C0 94.4878 5.36841 93.5207 12.336 93.5207C15.6058 93.5207 18.012 93.7318 21.2178 94.1981C21.2178 88.9675 19.2446 87.8752 12.0285 87.8752C9.06627 87.8752 5.55048 88.1673 3.08278 88.884L1.91167 86.3141C4.31786 85.8527 8.07968 85.2562 12.2745 85.2562C21.3383 85.2562 25.2256 87.0652 25.2256 93.5182V106.044H25.2281Z"
    fill="#933C06"/>
  <path
    d="M38.6124 107.141H34.6021V86.9425C37.9973 85.8944 43.4248 85.2562 47.1866 85.2562C56.1938 85.2562 59.4586 87.3647 59.4586 95.126V107.143H55.4508V95.6733C55.4508 89.1786 53.4801 87.8752 46.4436 87.8752C43.4223 87.8752 41.0186 88.0839 38.6099 88.5895V107.141H38.6124Z"
    fill="#933C06"/>
  <path
    d="M102.022 107.141H96.346C94.5524 101.279 91.4081 92.9707 89.435 89.0091C87.3363 94.8264 84.192 101.864 81.4168 107.141H75.7408C72.9041 99.9686 69.2628 92.0454 65.6265 85.8501H70.3749C73.2756 90.9924 76.4814 98.1989 78.7621 104.524C81.4783 99.3771 85.5501 90.0204 86.8418 85.8501H91.9642C94.4885 90.8206 97.5146 98.9156 99.3648 104.524C102.819 98.3266 105.966 92.0429 108.126 85.8501H112.631C109.851 92.9707 106.217 100.352 102.022 107.141Z"
    fill="#933C06"/>
  <path d="M122.93 85.8528H118.922V107.144H122.93V85.8528Z" fill="#933C06"/>
  <path
    d="M143.65 87.7893C138.351 87.7893 135.699 88.29 135.699 91.6258C135.699 93.7318 137.859 94.662 143.471 94.9173C151.548 95.2953 155 97.0626 155 101.024C155 106.086 151.243 107.73 142.974 107.73C139.891 107.73 134.83 107.305 131.747 106.589L132.98 104.019C135.14 104.691 139.768 105.241 142.976 105.241C148.032 105.241 150.623 104.65 150.623 101.275C150.623 99.0041 148.957 97.907 142.976 97.5658C135.45 97.1878 131.319 95.8795 131.319 91.8761C131.319 86.8566 135.573 85.2562 143.653 85.2562C146.677 85.2562 150.379 85.6833 153.895 86.351L152.535 88.965C150.008 88.29 146.674 87.7893 143.65 87.7893Z"
    fill="#933C06"/>
  <path
    d="M108.92 18.9859C94.4489 18.5564 60.3883 17.8029 43.0455 17.4298C42.0564 19.2559 41.2273 21.1828 40.5532 23.1783L109.196 19.5971C109.103 19.3909 109.016 19.1872 108.92 18.9859ZM103.035 10.2404C88.6795 9.85749 65.2154 9.32731 49.3267 8.98367C47.6881 10.6331 46.2045 12.4323 44.9006 14.3665L103.946 11.286C103.646 10.935 103.343 10.584 103.035 10.2404ZM111.969 28.4654C111.947 28.3427 111.925 28.2175 111.9 28.0972C99.0054 27.6603 56.6215 26.7349 39.6355 26.3717C39.1877 28.2469 38.8875 30.1811 38.7375 32.1497L38.8728 32.2773L111.969 28.4654ZM89.8235 0.893487C81.3059 0.687305 71.7623 0.466396 62.9371 0.267578C59.8002 1.4114 56.8626 2.97003 54.1858 4.8674L93.7305 2.80803C92.4708 2.09867 91.1693 1.45558 89.8235 0.893487ZM39.2984 41.9286L112.399 38.1142C112.412 38.0062 112.414 37.8958 112.426 37.7853C99.9452 37.3435 55.1453 36.3715 38.6538 36.0205C38.7104 38.0332 38.9294 40.0091 39.2984 41.9286ZM58.3388 67.5442L96.149 65.5708C96.8945 65.07 97.6153 64.5399 98.319 63.9876C84.6421 63.6366 65.609 63.2169 51.5213 62.9051C53.6052 64.692 55.8883 66.2482 58.3388 67.5442ZM42.2114 50.787L110.429 47.2304C110.485 47.0709 110.544 46.9015 110.596 46.7419C96.4713 46.2854 56.7519 45.4239 40.0488 45.063C40.6171 47.0439 41.3356 48.9559 42.2114 50.787ZM47.6709 59.0883L105.872 56.0496C106.071 55.7673 106.263 55.485 106.458 55.1954C91.1102 54.7609 60.4006 54.0835 43.7885 53.7227C44.9227 55.6299 46.2267 57.4266 47.6709 59.0883Z"
    fill="#FAA21B"/>
</svg>
