<svg width="290" height="42" viewBox="0 0 290 42" fill="none" xmlns="http://www.w3.org/2000/svg">
  <title>[Logo] DC Bled</title>
<path d="M44.8096 13.755H49.4377C52.9348 13.755 55.8179 16.5034 55.8179 20.0346C55.8179 23.5659 52.9204 26.3107 49.4377 26.3107H44.8096V13.755ZM48.0744 23.5479H48.8065C50.7551 23.5479 52.4194 22.4807 52.4194 20.0346C52.4194 17.7849 50.9382 16.519 48.8403 16.519H48.0744V23.5479Z" fill="#3B6E8F"/>
<path d="M60.5915 13.755H57.3291V26.3107H60.5915V13.755Z" fill="#3B6E8F"/>
<path d="M65.9193 24.1307L65.0546 26.3119H61.5898L66.4202 13.755H69.9825L74.7117 26.3119H71.2325L70.4161 24.1307H65.9193ZM68.2002 17.6355H68.1688L66.8176 21.6341H69.5321L68.2002 17.6355Z" fill="#3B6E8F"/>
<path d="M88.2463 19.3024C88.2138 21.1319 88.0801 22.6963 86.965 24.2632C85.7318 25.9794 83.8844 26.7274 81.7866 26.7274C77.8402 26.7274 75.0908 24.0465 75.0908 20.0985C75.0908 16.0193 77.8558 13.3383 81.9021 13.3383C84.4829 13.3383 86.4808 14.503 87.5646 16.8527L84.4685 18.1498C84.0169 16.9539 83.0679 16.1541 81.7528 16.1541C79.6044 16.1541 78.4892 18.2004 78.4892 20.1165C78.4892 22.0652 79.6538 24.0465 81.8023 24.0465C83.2172 24.0465 84.301 23.3129 84.4336 21.8653H81.7697V19.3024H88.2463Z" fill="#3B6E8F"/>
<path d="M89.7422 13.755H93.0058L98.9839 21.4329H99.0175V13.755H102.281V26.3107H99.0175L93.0396 18.6171H93.0058V26.3107H89.7422V13.755Z" fill="#3B6E8F"/>
<path d="M117.664 19.7998C117.664 23.8633 114.751 26.7274 110.721 26.7274C106.689 26.7274 103.774 23.8633 103.774 19.7998C103.774 16.0036 107.105 13.3383 110.721 13.3383C114.335 13.3383 117.664 16.0036 117.664 19.7998ZM107.173 19.8178C107.173 21.981 108.772 23.5659 110.721 23.5659C112.669 23.5659 114.266 21.981 114.266 19.8178C114.266 18.086 112.669 16.5022 110.721 16.5022C108.772 16.5022 107.173 18.086 107.173 19.8178Z" fill="#3B6E8F"/>
<path d="M126.07 16.9852C125.471 16.4866 124.705 16.1541 123.905 16.1541C123.307 16.1541 122.506 16.5023 122.506 17.202C122.506 17.9355 123.387 18.2185 123.953 18.4003L124.787 18.652C126.535 19.1675 127.885 20.0503 127.885 22.0809C127.885 23.3311 127.585 24.6124 126.586 25.464C125.603 26.2938 124.288 26.6443 123.021 26.6443C121.439 26.6443 119.89 26.1108 118.609 25.2111L120.008 22.5831C120.825 23.2985 121.789 23.8802 122.907 23.8802C123.673 23.8802 124.488 23.4984 124.488 22.6133C124.488 21.6991 123.206 21.3824 122.506 21.1837C120.459 20.6007 119.107 20.0684 119.107 17.6343C119.107 15.0871 120.923 13.4214 123.438 13.4214C124.705 13.4214 126.252 13.8225 127.37 14.456L126.07 16.9852Z" fill="#3B6E8F"/>
<path d="M134.426 26.3107H131.163V16.5203H128.464V13.755H137.124V16.5203H134.426V26.3107Z" fill="#3B6E8F"/>
<path d="M141.567 13.755H138.305V26.3107H141.567V13.755Z" fill="#3B6E8F"/>
<path d="M152.673 17.9679C152.007 17.0683 150.924 16.5877 149.808 16.5877C147.809 16.5877 146.461 18.1197 146.461 20.0684C146.461 22.0472 147.827 23.4804 149.859 23.4804C150.924 23.4804 151.991 22.9649 152.673 22.1484V26.0626C151.591 26.3938 150.809 26.6443 149.792 26.6443C148.044 26.6443 146.378 25.9771 145.079 24.7944C143.696 23.5479 143.064 21.9159 143.064 20.0503C143.064 18.3365 143.713 16.6865 144.914 15.4532C146.146 14.1874 147.928 13.4214 149.692 13.4214C150.74 13.4214 151.706 13.6563 152.673 14.0562V17.9679ZM145.513 10.4069L146.745 8.99292L149.142 10.8573L151.541 8.99292L152.774 10.4069L149.142 13.1216L145.513 10.4069Z" fill="#3B6E8F"/>
<path d="M154.685 13.755H157.949L163.927 21.4329H163.96V13.755H167.225V26.3107H163.96L157.982 18.6171H157.949V26.3107H154.685V13.755Z" fill="#3B6E8F"/>
<path d="M172.616 13.755H169.352V26.3107H172.616V13.755Z" fill="#3B6E8F"/>
<path d="M189.432 17.9679C188.765 17.0683 187.682 16.5877 186.567 16.5877C184.569 16.5877 183.221 18.1197 183.221 20.0684C183.221 22.0472 184.585 23.4804 186.617 23.4804C187.682 23.4804 188.747 22.9637 189.432 22.1483V26.0625C188.347 26.3938 187.564 26.6468 186.549 26.6468C184.8 26.6468 183.136 25.9794 181.838 24.7968C180.456 23.5479 179.821 21.9159 179.821 20.0503C179.821 18.3365 180.471 16.6865 181.671 15.4532C182.901 14.1886 184.684 13.4214 186.449 13.4214C187.501 13.4214 188.466 13.6563 189.432 14.0562V17.9679Z" fill="#3B6E8F"/>
<path d="M194.707 16.5203V18.6183H198.386V21.3824H194.707V23.549H198.586V26.3107H191.443V13.755H198.586V16.5203H194.707Z" fill="#3B6E8F"/>
<path d="M200.599 13.755H203.863L209.841 21.4329H209.874V13.755H213.139V26.3107H209.874L203.896 18.6171H203.863V26.3107H200.599V13.755Z" fill="#3B6E8F"/>
<path d="M220.262 26.3107H216.998V16.5203H214.299V13.755H222.959V16.5203H220.262V26.3107Z" fill="#3B6E8F"/>
<path d="M227.403 16.5203V18.6183H231.082V21.3824H227.403V23.549H231.282V26.3107H224.139V13.755H231.282V16.5203H227.403Z" fill="#3B6E8F"/>
<path d="M243.734 26.3119H239.67L236.59 21.4824H236.557V26.3119H233.294V13.755H238.174C240.653 13.755 242.537 14.9377 242.537 17.6175C242.537 19.3505 241.57 20.8501 239.789 21.1656L243.734 26.3119ZM236.557 19.3843H236.875C237.939 19.3843 239.139 19.1844 239.139 17.8174C239.139 16.4528 237.939 16.2529 236.875 16.2529H236.557V19.3843Z" fill="#3B6E8F"/>
<path d="M250.325 26.3095V13.755H254.988C257.219 13.755 258.717 14.621 258.717 17.0189C258.717 18.151 258.351 19.0687 257.335 19.5842V19.6179C259.134 19.8516 259.9 21.0632 259.9 22.812C259.9 25.4459 257.653 26.3095 255.354 26.3095H250.325ZM253.59 18.6846H253.956C254.821 18.6846 255.721 18.5364 255.721 17.4694C255.721 16.3191 254.705 16.2529 253.821 16.2529H253.59V18.6846ZM253.59 23.8128H254.005C254.97 23.8128 256.603 23.8634 256.603 22.4807C256.603 20.9644 254.988 21.1138 253.923 21.1138H253.59V23.8128Z" fill="#3B6E8F"/>
<path d="M264.861 23.5479H268.773V26.3107H261.596V13.755H264.861V23.5479Z" fill="#3B6E8F"/>
<path d="M273.1 16.5203V18.6183H276.779V21.3824H273.1V23.549H276.979V26.3107H269.836V13.755H276.979V16.5203H273.1Z" fill="#3B6E8F"/>
<path d="M278.993 13.755H283.621C287.118 13.755 290 16.5034 290 20.0346C290 23.5659 287.103 26.3107 283.621 26.3107H278.993V13.755ZM282.257 23.5479H282.99C284.938 23.5479 286.601 22.4807 286.601 20.0346C286.601 17.7849 285.12 16.519 283.022 16.519H282.257V23.5479Z" fill="#3B6E8F"/>
<path d="M24.5761 20.8438C24.5761 21.4154 24.4784 21.7 24.2808 21.7C24.0589 21.3696 23.6128 21.0801 22.9605 20.8342C21.3713 21.7483 19.482 22.5067 17.2827 23.1048C14.9581 23.7366 12.9796 24.0526 11.3422 24.0526C11.3121 24.0526 11.2867 24.0501 11.2566 24.0501C10.4596 24.9231 9.77354 25.9095 9.21042 27.0189C8.34233 28.6962 7.90711 30.2697 7.90711 31.7481C7.90711 33.3832 8.6184 34.5167 10.0376 35.1485C11.0986 35.6212 12.6552 35.8552 14.7074 35.8552C16.7921 35.8552 18.8514 35.5802 20.883 35.0279C22.26 34.6541 23.649 34.1405 25.05 33.4917C25.6396 33.2144 26.2316 32.9394 26.8212 32.6621C27.0973 32.6621 27.2336 32.802 27.2336 33.0793C27.2336 33.3543 26.3775 33.8511 24.6654 34.5697C22.9508 35.2884 21.0881 35.8937 19.0793 36.3881C16.5968 37.0007 14.4288 37.3046 12.5768 37.3046C10.2932 37.3046 8.51963 36.9501 7.25966 36.2411C5.83931 35.4332 5.12914 34.1911 5.12914 32.515C5.12914 30.8992 5.91882 29.0049 7.49474 26.826C8.24109 25.7962 9.06572 24.8448 9.96047 23.9717C9.35882 23.9006 8.8536 23.7849 8.46049 23.6076C7.80093 23.3146 7.47177 22.7828 7.47177 22.016C7.47177 21.7964 7.54894 21.6891 7.70698 21.6891C7.84563 21.6891 8.06256 21.7579 8.35678 21.8965C9.14659 22.2511 9.97368 22.4259 10.8394 22.4259C10.8394 20.3592 10.8744 17.517 10.9442 13.9031C11.0143 10.2857 11.0467 7.97534 11.0467 6.96839C10.3559 7.10952 9.66749 7.29523 8.97781 7.5328C8.34962 7.7884 7.71661 8.0356 7.08718 8.27193C6.88951 8.27193 6.67357 8.16339 6.43972 7.94509C6.20094 7.72925 6.08278 7.49179 6.08278 7.23732C6.08278 7.01902 6.7074 6.75502 7.95292 6.43905C9.20202 6.12554 10.2293 5.92786 11.0467 5.84821V5.28874C11.0467 4.89325 11.1854 4.69791 11.4616 4.69791C11.7774 4.69791 12.1705 4.79434 12.6528 4.99203C13.1339 5.18984 13.4016 5.42259 13.4594 5.70115L15.8515 5.64324C19.3216 5.64324 22.1586 6.12554 24.3603 7.09026C27.1094 8.29119 28.4839 10.1337 28.4839 12.6177C28.4839 15.3537 27.2505 17.6894 24.7896 19.6199C24.6196 19.7514 24.4411 19.878 24.2626 20.0045C24.47 20.2469 24.5761 20.5255 24.5761 20.8438ZM0 42H33.6166V0H0V42Z" fill="#386D8A"/>
<path d="M24.0507 8.47941C22.6496 7.11796 20.3153 6.43909 17.0453 6.43909C16.5317 6.43909 16.1724 6.44637 15.965 6.45242C15.7601 6.46327 14.9089 6.54046 13.4114 6.67542C13.1738 9.31621 12.9411 12.0486 12.7169 14.8775C12.5119 17.4363 12.4034 19.7768 12.3853 21.9267C12.659 21.7278 12.9388 21.5336 13.2257 21.3455C15.6902 19.7105 18.0148 18.8929 20.2032 18.8929C21.4547 18.8929 22.4928 19.058 23.32 19.3897C24.9476 17.8631 25.764 15.8698 25.764 13.4137C25.764 11.2263 25.1936 9.58144 24.0507 8.47941Z" fill="#386D8A"/>
<path d="M13.11 22.3789C13.0135 22.4476 12.9255 22.5236 12.8315 22.5935C16.6355 22.5428 19.6293 21.8519 21.8129 20.5207C21.1172 20.3845 20.3129 20.3132 19.3737 20.3132C17.0672 20.3132 14.9824 20.9994 13.11 22.3789Z" fill="#386D8A"/>
</svg>
