<svg width="194" height="58" viewBox="0 0 194 58" fill="none" xmlns="http://www.w3.org/2000/svg">
  <title>[logo] DC Fontana</title>
  <path
    d="M33.7009 28.7838C33.7009 29.5714 33.5661 29.9644 33.295 29.9644C32.9925 29.5083 32.3797 29.1121 31.4864 28.7727C29.3065 30.0339 26.7175 31.0835 23.7006 31.909C20.513 32.7803 17.7986 33.2159 15.5544 33.2159C15.5121 33.2159 15.4776 33.2128 15.4353 33.2128C14.3429 34.4171 13.4042 35.7808 12.6284 37.3119C11.4405 39.6258 10.845 41.8024 10.845 43.8433C10.845 46.1004 11.8182 47.6662 13.7631 48.5375C15.2206 49.1894 17.3551 49.5145 20.1666 49.5145C23.0283 49.5145 25.8524 49.1357 28.6357 48.3717C30.5257 47.8556 32.4299 47.1485 34.3497 46.2504C35.1599 45.8684 35.9702 45.488 36.7804 45.1076C37.1597 45.1076 37.3477 45.297 37.3477 45.6806C37.3477 46.0594 36.1723 46.746 33.8231 47.7404C31.4708 48.7332 28.9178 49.5697 26.1642 50.25C22.7587 51.0945 19.7873 51.5159 17.2485 51.5159C14.1141 51.5159 11.6834 51.025 9.95323 50.048C8.00834 48.9305 7.03512 47.2164 7.03512 44.904C7.03512 42.6721 8.11648 40.0551 10.2792 37.0467C11.301 35.623 12.431 34.3113 13.6596 33.1054C12.8353 33.006 12.1395 32.845 11.6035 32.6035C10.6992 32.1963 10.2463 31.4623 10.2463 30.4001C10.2463 30.1002 10.3544 29.9518 10.5707 29.9518C10.7588 29.9518 11.0581 30.0449 11.4624 30.2375C12.5422 30.7268 13.6769 30.9714 14.8648 30.9714C14.8648 28.1145 14.9134 24.189 15.009 19.1965C15.103 14.2041 15.15 11.0141 15.15 9.62511C14.2034 9.81767 13.2584 10.0749 12.3118 10.4017C11.4483 10.7552 10.5832 11.0962 9.71972 11.4229C9.44859 11.4229 9.15239 11.273 8.82955 10.9746C8.50514 10.6732 8.34216 10.348 8.34216 9.99445C8.34216 9.69455 9.20098 9.32678 10.9076 8.89114C12.6175 8.45709 14.0279 8.18402 15.15 8.07511V7.30011C15.15 6.75556 15.3397 6.48567 15.7174 6.48567C16.1499 6.48567 16.6906 6.61982 17.3519 6.8913C18.0133 7.16437 18.3784 7.4911 18.4584 7.8715L21.7354 7.78942C26.4949 7.78942 30.3863 8.45709 33.4047 9.78925C37.1738 11.4497 39.0591 13.9926 39.0591 17.4224C39.0591 21.2043 37.3681 24.4274 33.9924 27.0933C33.762 27.2748 33.5144 27.45 33.2715 27.6252C33.5567 27.9598 33.7009 28.345 33.7009 28.7838ZM0 58H46.0958V0H0V58Z"
    fill="#386D8A"/>
  <path
    d="M32.9817 11.7078C31.0619 9.8311 27.8601 8.89038 23.3764 8.89038C22.6727 8.89038 22.1806 8.89985 21.8969 8.91247C21.6133 8.92511 20.4441 9.02769 18.3911 9.21711C18.0683 12.8632 17.7501 16.6388 17.4398 20.5437C17.1593 24.0778 17.012 27.3135 16.9854 30.2809C17.3615 30.0047 17.747 29.7363 18.1388 29.4775C21.5161 27.2188 24.7038 26.0887 27.7049 26.0887C29.4226 26.0887 30.8472 26.3191 31.9787 26.7753C34.2103 24.6665 35.3293 21.9169 35.3293 18.5234C35.3293 15.5039 34.5489 13.231 32.9817 11.7078Z"
    fill="#386D8A"/>
  <path
    d="M17.9785 30.904C17.8484 31.0003 17.7262 31.1029 17.5977 31.2024C22.8148 31.1313 26.9193 30.1748 29.9126 28.336C28.9598 28.1513 27.8565 28.0487 26.5683 28.0487C23.4057 28.0487 20.5455 29.0005 17.9785 30.904Z"
    fill="#386D8A"/>
  <path d="M65.7188 38.0146V19.6656H76.8834V23.6874H70.5614V26.8727H76.5214V30.8076H70.5614V38.0146H65.7188Z"
        fill="#386D8A"/>
  <path
    d="M88.5553 34.2668C89.9313 34.2668 91.0691 33.757 91.9702 32.7373C92.8698 31.7193 93.3196 30.4313 93.3196 28.8766C93.3196 27.3392 92.8651 26.056 91.9514 25.0284C91.0393 24.0009 89.9078 23.4879 88.5553 23.4879C87.1762 23.4879 86.0384 23.9993 85.1373 25.0237C84.2377 26.0465 83.7879 27.3313 83.7879 28.8766C83.7879 30.4486 84.2315 31.7398 85.1201 32.75C86.0055 33.7617 87.1527 34.2668 88.5553 34.2668ZM98.286 28.8766C98.286 30.1961 98.0462 31.4336 97.5636 32.5874C97.0824 33.7396 96.3835 34.7735 95.4619 35.6842C94.531 36.5871 93.4701 37.2816 92.2758 37.7709C91.0801 38.2586 89.8389 38.5033 88.5553 38.5033C87.2514 38.5033 86.004 38.2586 84.816 37.7709C83.625 37.2816 82.5765 36.5871 81.6722 35.6842C80.7351 34.7735 80.0236 33.7365 79.5377 32.5748C79.0519 31.4131 78.8105 30.1819 78.8105 28.8766C78.8105 27.5665 79.0519 26.3306 79.5377 25.1752C80.0236 24.0167 80.7351 22.9812 81.6722 22.0705C82.5765 21.1677 83.625 20.4732 84.816 19.9838C86.004 19.4946 87.2514 19.2515 88.5553 19.2515C89.8483 19.2515 91.0942 19.4946 92.2947 19.9838C93.4936 20.4732 94.5483 21.1677 95.4619 22.0705C96.3741 22.9733 97.073 24.0056 97.5589 25.1673C98.0447 26.329 98.286 27.5665 98.286 28.8766Z"
    fill="#386D8A"/>
  <path
    d="M101.397 38.0146V19.6656H106.19L113.071 29.1029C113.203 29.2955 113.422 29.6806 113.725 30.2631C114.026 30.8423 114.363 31.5337 114.726 32.3371C114.626 31.5763 114.554 30.8991 114.509 30.3057C114.463 29.7138 114.441 29.1866 114.441 28.7273V19.6656H119.205V38.0146H114.441L107.558 28.5379C107.417 28.3485 107.194 27.9602 106.892 27.3793C106.59 26.7985 106.26 26.115 105.902 25.329C106.002 26.1008 106.074 26.7795 106.121 27.373C106.166 27.9665 106.19 28.4937 106.19 28.9514V38.0146H101.397Z"
    fill="#386D8A"/>
  <path d="M125.74 38.0146V24.0015H121.659V19.6656H134.789V24.0015H130.707V38.0146H125.74Z" fill="#386D8A"/>
  <path
    d="M142.028 31.158H146.97L145.116 25.1048C145.058 24.9217 144.979 24.625 144.879 24.2146C144.78 23.8058 144.65 23.2786 144.494 22.6362C144.387 23.0876 144.279 23.5185 144.177 23.9258C144.074 24.3361 143.965 24.7292 143.859 25.1048L142.028 31.158ZM135.073 38.0146L141.358 19.6656H147.579L153.878 38.0146H148.937L148.015 34.7299H140.96L140.013 38.0146H135.073Z"
    fill="#386D8A"/>
  <path
    d="M155.62 38.0146V19.6656H160.411L167.294 29.1029C167.426 29.2955 167.645 29.6806 167.948 30.2631C168.249 30.8423 168.584 31.5337 168.949 32.3371C168.849 31.5763 168.777 30.8991 168.731 30.3057C168.686 29.7138 168.664 29.1866 168.664 28.7273V19.6656H173.428V38.0146H168.664L161.781 28.5379C161.64 28.3485 161.417 27.9602 161.115 27.3793C160.811 26.7985 160.483 26.115 160.124 25.329C160.225 26.1008 160.297 26.7795 160.344 27.373C160.389 27.9665 160.411 28.4937 160.411 28.9514V38.0146H155.62Z"
    fill="#386D8A"/>
  <path
    d="M182.15 31.158H187.093L185.238 25.1048C185.18 24.9217 185.102 24.625 185.001 24.2146C184.902 23.8058 184.772 23.2786 184.616 22.6362C184.509 23.0876 184.401 23.5185 184.299 23.9258C184.196 24.3361 184.089 24.7292 183.981 25.1048L182.15 31.158ZM175.195 38.0146L181.48 19.6656H187.701L194 38.0146H189.059L188.137 34.7299H181.082L180.135 38.0146H175.195Z"
    fill="#386D8A"/>
</svg>
