<svg width="190" height="31" viewBox="0 0 190 31" fill="none" xmlns="http://www.w3.org/2000/svg">
  <title>[logo] Wieden</title>
  <path d="M30.1743 0H22.6104V25.0142H30.1743V0Z" fill="#0088CF"/>
  <path d="M7.8251 5.07178H0.260742V30.086H7.8251V5.07178Z" fill="#0088CF"/>
  <path d="M18.9999 5.07178H11.4355V30.086H18.9999V5.07178Z" fill="#0088CF"/>
  <path
    d="M189.37 5.07178V30.086H186.018L172.351 12.8942V30.086H168.139V5.07178H171.491L185.158 22.2632V5.07178H189.37Z"
    fill="#0088CF"/>
  <path d="M144.328 12.2924V5.07178H162.121V8.9399H148.626V12.2924H144.328Z" fill="#0088CF"/>
  <path d="M110.203 26.2178V30.0859H91.8936V15.4729H108.225V19.3406H96.1916V26.2178H110.203Z" fill="#0088CF"/>
  <path d="M91.8936 12.2924V5.07178H109.687V8.9399H96.1916V12.2924H91.8936Z" fill="#0088CF"/>
  <path
    d="M139.171 17.6217C139.171 20.0286 138.569 22.1778 137.452 24.0686C136.334 25.9594 134.701 27.5072 132.724 28.5386C130.747 29.5703 128.426 30.086 125.761 30.086H115.446V15.4733H119.658V26.2178H125.676C127.566 26.2178 129.2 25.8741 130.575 25.1004C131.951 24.412 132.982 23.3811 133.756 22.0917C134.529 20.8023 134.873 19.341 134.873 17.6217C134.873 15.9024 134.529 14.4416 133.756 13.1518C132.981 11.8624 131.951 10.8311 130.575 10.1431C129.2 9.36941 127.567 9.02564 125.676 9.02564H119.658V12.2924H115.446V5.07178H125.761C128.34 5.07178 130.661 5.58744 132.724 6.61919C134.787 7.65094 136.334 9.19794 137.452 11.0891C138.569 12.9799 139.171 15.2149 139.171 17.6217Z"
    fill="#0088CF"/>
  <path
    d="M77.9682 5.07178L69.5444 30.086H65.6763L59.487 12.1205L53.2978 30.086H49.4297L41.0059 5.07178H45.3896L51.4927 23.2088L57.7677 5.07178H61.3782L67.5675 23.2949L73.7563 5.07178H77.9682Z"
    fill="#0088CF"/>
  <path d="M86.4779 5.07178H82.2656V30.086H86.4779V5.07178Z" fill="#0088CF"/>
  <path d="M148.626 26.2178V19.3406H160.66V15.4729H144.328V30.0859H162.552V26.2178H148.626Z" fill="#0088CF"/>
</svg>
