<?xml version="1.0" encoding="UTF-8"?>
<svg width="91px" height="91px" viewBox="0 0 91 91" version="1.1" xmlns="http://www.w3.org/2000/svg" xmlns:xlink="http://www.w3.org/1999/xlink">
    <!-- Generator: Sketch 51.2 (57519) - http://www.bohemiancoding.com/sketch -->
    <title>Group 10</title>
    <desc>Created with Sketch.</desc>
    <defs>
        <circle id="path-1" cx="35.5" cy="35.5" r="35.5"></circle>
        <filter x="-23.9%" y="-18.3%" width="147.9%" height="147.9%" filterUnits="objectBoundingBox" id="filter-2">
            <feOffset dx="0" dy="4" in="SourceAlpha" result="shadowOffsetOuter1"></feOffset>
            <feGaussianBlur stdDeviation="5" in="shadowOffsetOuter1" result="shadowBlurOuter1"></feGaussianBlur>
            <feColorMatrix values="0 0 0 0 0.835294118   0 0 0 0 0.91372549   0 0 0 0 1  0 0 0 1 0" type="matrix" in="shadowBlurOuter1"></feColorMatrix>
        </filter>
    </defs>
    <g id="Page-1" stroke="none" stroke-width="1" fill="none" fill-rule="evenodd">
        <g id="prodeti---desktop" transform="translate(-360.000000, -762.000000)">
            <g id="Group-4" transform="translate(250.000000, 768.000000)">
                <g id="Group-10" transform="translate(120.000000, 0.000000)">
                    <g id="Oval-6">
                        <use fill="black" fill-opacity="1" filter="url(#filter-2)" xlink:href="#path-1"></use>
                        <use fill="#FFFFFF" fill-rule="evenodd" xlink:href="#path-1"></use>
                    </g>
                    <polygon id="Fill-4" fill="#3324AE" points="29.0458819 40 26.1666667 32.5 27.9306152 32.5 29.9689352 38.0506394 31.9413448 32.5 33.6666667 32.5 30.7822399 40"></polygon>
                    <path d="M35.4889083,30 L36.6765908,30 L37.2413894,30.8051243 L37.8482195,30 L39.0303561,30 L37.9474606,31.5936699 L36.5872738,31.5936699 L35.4889083,30 Z M34.5,40 L34.5,32.0801809 L40.1868068,32.0801809 L40.1868068,33.4197438 L36.0487449,33.4197438 L36.0487449,35.175584 L39.8990076,35.175584 L39.8990076,36.5097212 L36.0487449,36.5097212 L36.0487449,38.6655614 L40.3333333,38.6655614 L40.3333333,40 L34.5,40 Z" id="Fill-6" fill="#3324AE"></path>
                    <polygon id="Fill-8" fill="#3324AE" points="41.1666667 40 41.1666667 32.5 42.659309 32.5 42.659309 35.8303836 45.674981 32.5 47.6819589 32.5 44.8984131 35.4210436 47.8333333 40 45.9020427 40 43.8694606 36.4800754 42.659309 37.7335008 42.659309 40"></polygon>
                    <path d="M23.9486749,19.7746471 C27.5338995,16.6040588 32.3006844,14.9864118 37.0298215,15.0364118 C40.1951288,15.2452353 43.3662281,16.0187647 46.1145142,17.6834706 C50.5398629,20.2572941 53.7937872,24.4922941 55.176039,29.4775882 C56.0176111,29.5814118 56.8655544,29.6208235 57.7129184,29.5952353 C56.094065,31.8981765 54.4810035,34.2275882 52.9258617,36.5805294 C51.2780485,34.2717059 49.7402825,31.8746471 48.0895733,29.5805294 L50.9392187,29.5805294 C49.7808262,25.9599412 47.0788759,22.9305294 43.8180012,21.1040588 C39.2061513,18.5564118 33.6296501,18.5908235 29.0484976,21.1952353 C21.5148924,25.3805294 18.7483617,34.9761176 22.8693428,42.6275882 C26.6845083,49.7108235 35.146565,52.7305294 42.4858499,49.6275882 C45.3754598,48.3599412 47.8269078,46.2452353 49.5259799,43.5540588 C50.7625638,44.1099412 52.0136277,44.6364118 53.2704835,45.1511176 C48.3284917,53.8658235 37.7069019,57.3861176 28.6546442,53.3099412 C23.9915355,51.1837647 20.3220378,47.3037647 18.4173511,42.4864118 C17.2184149,39.3128824 16.6797624,35.8187647 17.195247,32.4422941 C17.8022447,27.5087647 20.2125697,22.9872941 23.9486749,19.7746471" id="Fill-1" fill="#3324AE"></path>
                </g>
            </g>
        </g>
    </g>
</svg>
