<?xml version="1.0" encoding="UTF-8"?>
<svg width="316px" height="201px" viewBox="0 0 316 201" version="1.1" xmlns="http://www.w3.org/2000/svg" xmlns:xlink="http://www.w3.org/1999/xlink">
    <!-- Generator: Sketch 51.2 (57519) - http://www.bohemiancoding.com/sketch -->
    <title>Group 10</title>
    <desc>Created with Sketch.</desc>
    <defs>
        <rect id="path-1" x="0" y="36" width="300" height="151" rx="15"></rect>
        <filter x="-4.5%" y="-7.0%" width="109.0%" height="117.9%" filterUnits="objectBoundingBox" id="filter-2">
            <feOffset dx="0" dy="3" in="SourceAlpha" result="shadowOffsetOuter1"></feOffset>
            <feGaussianBlur stdDeviation="4" in="shadowOffsetOuter1" result="shadowBlurOuter1"></feGaussianBlur>
            <feColorMatrix values="0 0 0 0 0.615686275   0 0 0 0 0.780392157   0 0 0 0 0.960784314  0 0 0 1 0" type="matrix" in="shadowBlurOuter1"></feColorMatrix>
        </filter>
        <circle id="path-3" cx="155.5" cy="35.5" r="35.5"></circle>
        <filter x="-12.0%" y="-10.6%" width="129.6%" height="129.6%" filterUnits="objectBoundingBox" id="filter-4">
            <feOffset dx="2" dy="3" in="SourceAlpha" result="shadowOffsetOuter1"></feOffset>
            <feGaussianBlur stdDeviation="3" in="shadowOffsetOuter1" result="shadowBlurOuter1"></feGaussianBlur>
            <feColorMatrix values="0 0 0 0 0.615686275   0 0 0 0 0.780392157   0 0 0 0 0.960784314  0 0 0 1 0" type="matrix" in="shadowBlurOuter1"></feColorMatrix>
        </filter>
    </defs>
    <g id="Page-1" stroke="none" stroke-width="1" fill="none" fill-rule="evenodd">
        <g id="prodeti---desktop" transform="translate(-242.000000, -765.000000)">
            <g id="Group-4" transform="translate(250.000000, 768.000000)">
                <g id="Group-10">
                    <g id="Rectangle-5">
                        <use fill="black" fill-opacity="1" filter="url(#filter-2)" xlink:href="#path-1"></use>
                        <use fill="#FFFFFF" fill-rule="evenodd" xlink:href="#path-1"></use>
                    </g>
                    <g id="Oval-6">
                        <use fill="black" fill-opacity="1" filter="url(#filter-4)" xlink:href="#path-3"></use>
                        <use fill="#FFFFFF" fill-rule="evenodd" xlink:href="#path-3"></use>
                    </g>
                    <polygon id="Fill-4" fill="#3324AE" points="149.045882 40 146.166667 32.5 147.930615 32.5 149.968935 38.0506394 151.941345 32.5 153.666667 32.5 150.78224 40"></polygon>
                    <path d="M155.488908,30 L156.676591,30 L157.241389,30.8051243 L157.848219,30 L159.030356,30 L157.947461,31.5936699 L156.587274,31.5936699 L155.488908,30 Z M154.5,40 L154.5,32.0801809 L160.186807,32.0801809 L160.186807,33.4197438 L156.048745,33.4197438 L156.048745,35.175584 L159.899008,35.175584 L159.899008,36.5097212 L156.048745,36.5097212 L156.048745,38.6655614 L160.333333,38.6655614 L160.333333,40 L154.5,40 Z" id="Fill-6" fill="#3324AE"></path>
                    <polygon id="Fill-8" fill="#3324AE" points="161.166667 40 161.166667 32.5 162.659309 32.5 162.659309 35.8303836 165.674981 32.5 167.681959 32.5 164.898413 35.4210436 167.833333 40 165.902043 40 163.869461 36.4800754 162.659309 37.7335008 162.659309 40"></polygon>
                    <path d="M143.948675,19.7746471 C147.5339,16.6040588 152.300684,14.9864118 157.029822,15.0364118 C160.195129,15.2452353 163.366228,16.0187647 166.114514,17.6834706 C170.539863,20.2572941 173.793787,24.4922941 175.176039,29.4775882 C176.017611,29.5814118 176.865554,29.6208235 177.712918,29.5952353 C176.094065,31.8981765 174.481004,34.2275882 172.925862,36.5805294 C171.278048,34.2717059 169.740283,31.8746471 168.089573,29.5805294 L170.939219,29.5805294 C169.780826,25.9599412 167.078876,22.9305294 163.818001,21.1040588 C159.206151,18.5564118 153.62965,18.5908235 149.048498,21.1952353 C141.514892,25.3805294 138.748362,34.9761176 142.869343,42.6275882 C146.684508,49.7108235 155.146565,52.7305294 162.48585,49.6275882 C165.37546,48.3599412 167.826908,46.2452353 169.52598,43.5540588 C170.762564,44.1099412 172.013628,44.6364118 173.270483,45.1511176 C168.328492,53.8658235 157.706902,57.3861176 148.654644,53.3099412 C143.991535,51.1837647 140.322038,47.3037647 138.417351,42.4864118 C137.218415,39.3128824 136.679762,35.8187647 137.195247,32.4422941 C137.802245,27.5087647 140.21257,22.9872941 143.948675,19.7746471" id="Fill-1" fill="#3324AE"></path>
                </g>
            </g>
        </g>
    </g>
</svg>