<?xml version="1.0" encoding="UTF-8"?>
<svg width="316px" height="201px" viewBox="0 0 316 201" version="1.1" xmlns="http://www.w3.org/2000/svg" xmlns:xlink="http://www.w3.org/1999/xlink">
    <!-- Generator: Sketch 51.2 (57519) - http://www.bohemiancoding.com/sketch -->
    <title>Group 10</title>
    <desc>Created with Sketch.</desc>
    <defs>
        <rect id="path-1" x="0" y="36" width="300" height="151" rx="15"></rect>
        <filter x="-4.5%" y="-7.0%" width="109.0%" height="117.9%" filterUnits="objectBoundingBox" id="filter-2">
            <feOffset dx="0" dy="3" in="SourceAlpha" result="shadowOffsetOuter1"></feOffset>
            <feGaussianBlur stdDeviation="4" in="shadowOffsetOuter1" result="shadowBlurOuter1"></feGaussianBlur>
            <feColorMatrix values="0 0 0 0 0.615686275   0 0 0 0 0.780392157   0 0 0 0 0.960784314  0 0 0 1 0" type="matrix" in="shadowBlurOuter1"></feColorMatrix>
        </filter>
        <circle id="path-3" cx="150.5" cy="35.5" r="35.5"></circle>
        <filter x="-12.0%" y="-10.6%" width="129.6%" height="129.6%" filterUnits="objectBoundingBox" id="filter-4">
            <feOffset dx="2" dy="3" in="SourceAlpha" result="shadowOffsetOuter1"></feOffset>
            <feGaussianBlur stdDeviation="3" in="shadowOffsetOuter1" result="shadowBlurOuter1"></feGaussianBlur>
            <feColorMatrix values="0 0 0 0 0.615686275   0 0 0 0 0.780392157   0 0 0 0 0.960784314  0 0 0 1 0" type="matrix" in="shadowBlurOuter1"></feColorMatrix>
        </filter>
    </defs>
    <g id="Page-1" stroke="none" stroke-width="1" fill="none" fill-rule="evenodd">
        <g id="prodeti---desktop" transform="translate(-562.000000, -765.000000)">
            <g id="Group-4-Copy" transform="translate(570.000000, 768.000000)">
                <g id="Group-10">
                    <g id="Rectangle-5">
                        <use fill="black" fill-opacity="1" filter="url(#filter-2)" xlink:href="#path-1"></use>
                        <use fill="#FFFFFF" fill-rule="evenodd" xlink:href="#path-1"></use>
                    </g>
                    <g id="Oval-6">
                        <use fill="black" fill-opacity="1" filter="url(#filter-4)" xlink:href="#path-3"></use>
                        <use fill="#FFFFFF" fill-rule="evenodd" xlink:href="#path-3"></use>
                    </g>
                    <path d="M157.123621,22 C157.298267,22.0403643 157.467164,22.0943628 157.609648,22.2091768 C157.856884,22.4084868 157.997391,22.663948 157.99829,22.9836333 C158.000985,23.9947144 157.999907,25.0057954 157.999008,26.0168765 C157.998649,26.5172145 157.593297,26.9508169 157.086248,26.9962043 C156.58369,27.0412329 156.10521,26.6804657 156.017887,26.1887387 C156.006387,26.1241558 156.000997,26.057779 156.000817,25.9922991 C155.999739,24.9948522 155.999919,23.9975847 156.000278,23.0001378 C156.000278,22.513434 156.348313,22.1011799 156.829669,22.0157869 C156.84548,22.013096 156.860393,22.0053819 156.875846,22 L157.123621,22 Z" id="Fill-4" fill="#3324AE"></path>
                    <path d="M145.127629,22 C145.228193,22.0330136 145.33484,22.0541853 145.428425,22.1013732 C145.793459,22.285101 145.992438,22.5877854 145.99548,22.9963285 C146.002817,23.999475 145.999596,25.0026216 145.997091,26.0057681 C145.995838,26.5242967 145.582669,26.9638798 145.073053,26.9977905 C144.552343,27.0322394 144.08925,26.6601189 144.013202,26.1437433 C144.003718,26.0789721 144.004612,26.0122273 144.004612,25.9463795 C144.004076,24.9871913 144.014991,24.0280031 144.000139,23.0689943 C143.99155,22.5054308 144.382172,22.081278 144.844012,22.0123801 C144.851349,22.0113036 144.857611,22.0043061 144.864411,22 L145.127629,22 Z" id="Fill-6" fill="#3324AE"></path>
                    <path d="M148.032726,43.99388 C149.300556,41.4310606 150.561715,38.881201 151.830266,36.3171215 L147,36.3171215 L147,34 L154.994612,34 C154.996415,34.0318597 154.999661,34.0610195 154.999661,34.0899993 C154.999841,34.5479156 155.000742,35.005832 154.998579,35.4637483 C154.998399,35.5116279 154.987401,35.5625675 154.969191,35.6070271 C154.330769,37.1618547 153.690904,38.7163223 153.051039,40.2706098 C152.54946,41.4892001 152.04698,42.7076103 151.546303,43.9265606 C151.52629,43.9753402 151.504655,44 151.445698,44 C150.3322,43.99802 149.218702,43.99856 148.105204,43.99838 C148.086274,43.99838 148.067343,43.99604 148.032726,43.99388" id="Fill-8" fill="#3324AE"></path>
                    <path d="M161.983422,31.0352239 L139.997632,31.0352239 L139.997643,31.1202985 C139.997643,35.7426269 139.997463,40.3649552 139.998539,44.9872836 C139.998539,45.0607164 140.004815,45.1359403 140.020953,45.2075821 C140.13105,45.6958209 140.525532,46.0022687 141.041408,46.0022687 C147.669615,46.0024478 154.297822,46.0024478 160.92585,46.0017313 C161.005284,46.0017313 161.085974,45.9988657 161.163794,45.9848955 C161.626415,45.9008955 161.986829,45.4918209 161.986112,44.9437612 C161.98127,40.3434627 161.983422,35.7431642 161.983422,31.1428657 L161.983422,31.0352239 Z M137.999946,45.219403 C137.999946,39.0872239 137.999946,32.9548657 137.999946,26.8226866 C138.005326,26.7988657 138.013215,26.7752239 138.015367,26.7512239 C138.043698,26.4290149 138.117932,26.117194 138.258512,25.8265075 C138.819036,24.6673433 139.749298,24.0714627 141.035491,24.0435224 C141.658953,24.0300896 142.282953,24.041194 142.906774,24.041194 L142.99607,24.041194 L142.99607,24.1456119 C142.99607,24.7878806 142.990332,25.4301493 142.997863,26.0724179 C143.003781,26.5869851 143.186498,27.0392239 143.543863,27.4103284 C144.202829,28.0952239 145.190112,28.2392239 146.009022,27.7563582 C146.609712,27.4019104 146.95327,26.8615522 146.982498,26.1626866 C147.01047,25.4940896 146.991822,24.8235224 146.993794,24.1538507 C146.993794,24.1189254 146.993794,24.084 146.993794,24.0465672 L154.986732,24.0465672 L154.986732,24.1488358 C154.986732,24.7610149 154.984401,25.3730149 154.988346,25.985194 C154.989243,26.1270448 154.996953,26.2717612 155.024926,26.4103881 C155.215353,27.3494328 155.960208,27.9917015 156.919877,28.0316418 C157.513574,28.0563582 158.022636,27.8430448 158.433974,27.4142687 C158.810526,27.0216716 158.986429,26.5461493 158.986608,26.0041791 C158.986788,25.3839403 158.986608,24.7635224 158.986608,24.1432836 L158.986608,24.044597 C159.014401,24.0429851 159.03036,24.0413731 159.046319,24.0413731 C159.694884,24.0413731 160.34345,24.0381493 160.991836,24.0424478 C161.558636,24.0463881 162.09047,24.1880597 162.566898,24.4973731 C163.501463,25.1045373 163.980581,25.9728358 163.981477,27.0848955 C163.98596,33.0410149 163.984167,38.9969552 163.981298,44.9530746 C163.981119,45.1576119 163.964801,45.3655522 163.925712,45.5661493 C163.648139,46.992 162.424346,47.9989254 160.970139,47.9992836 C154.317367,48.0005373 147.664774,47.9998209 141.012181,47.9994627 C140.691753,47.9994627 140.375808,47.9580896 140.073132,47.8513433 C139.023808,47.4813134 138.354622,46.7591642 138.080815,45.6791642 C138.042801,45.5287164 138.026484,45.3727164 137.999946,45.219403 Z" id="Fill-1" fill="#3324AE"></path>
                </g>
            </g>
        </g>
    </g>
</svg>