<?xml version="1.0" encoding="UTF-8"?>
<svg width="91px" height="91px" viewBox="0 0 91 91" version="1.1" xmlns="http://www.w3.org/2000/svg" xmlns:xlink="http://www.w3.org/1999/xlink">
    <!-- Generator: Sketch 51.2 (57519) - http://www.bohemiancoding.com/sketch -->
    <title>Group 10</title>
    <desc>Created with Sketch.</desc>
    <defs>
        <circle id="path-1" cx="35.5" cy="35.5" r="35.5"></circle>
        <filter x="-23.9%" y="-18.3%" width="147.9%" height="147.9%" filterUnits="objectBoundingBox" id="filter-2">
            <feOffset dx="0" dy="4" in="SourceAlpha" result="shadowOffsetOuter1"></feOffset>
            <feGaussianBlur stdDeviation="5" in="shadowOffsetOuter1" result="shadowBlurOuter1"></feGaussianBlur>
            <feColorMatrix values="0 0 0 0 0.835294118   0 0 0 0 0.91372549   0 0 0 0 1  0 0 0 1 0" type="matrix" in="shadowBlurOuter1"></feColorMatrix>
        </filter>
    </defs>
    <g id="Page-1" stroke="none" stroke-width="1" fill="none" fill-rule="evenodd">
        <g id="prodeti---desktop" transform="translate(-675.000000, -762.000000)">
            <g id="Group-4-Copy" transform="translate(570.000000, 768.000000)">
                <g id="Group-10" transform="translate(115.000000, 0.000000)">
                    <g id="Oval-6">
                        <use fill="black" fill-opacity="1" filter="url(#filter-2)" xlink:href="#path-1"></use>
                        <use fill="#FFFFFF" fill-rule="evenodd" xlink:href="#path-1"></use>
                    </g>
                    <path d="M42.1236207,22 C42.298267,22.0403643 42.4671637,22.0943628 42.6096478,22.2091768 C42.8568837,22.4084868 42.9973914,22.663948 42.9982898,22.9836333 C43.0009849,23.9947144 42.9999069,25.0057954 42.9990085,26.0168765 C42.9986491,26.5172145 42.5932971,26.9508169 42.0862478,26.9962043 C41.5836904,27.0412329 41.1052098,26.6804657 41.0178866,26.1887387 C41.0063873,26.1241558 41.0009969,26.057779 41.0008173,25.9922991 C40.9997392,24.9948522 40.9999189,23.9975847 41.0002782,23.0001378 C41.0002782,22.513434 41.3483131,22.1011799 41.8296686,22.0157869 C41.8454802,22.013096 41.8603934,22.0053819 41.8758457,22 L42.1236207,22 Z" id="Fill-4" fill="#3324AE"></path>
                    <path d="M30.1276293,22 C30.2281927,22.0330136 30.3348399,22.0541853 30.4284247,22.1013732 C30.7934588,22.285101 30.9924382,22.5877854 30.9954802,22.9963285 C31.0028167,23.999475 30.9995958,25.0026216 30.9970906,26.0057681 C30.9958381,26.5242967 30.5826695,26.9638798 30.0730532,26.9977905 C29.5523427,27.0322394 29.0892503,26.6601189 29.0132015,26.1437433 C29.0037178,26.0789721 29.0046125,26.0122273 29.0046125,25.9463795 C29.0040756,24.9871913 29.0149909,24.0280031 29.000139,23.0689943 C28.99155,22.5054308 29.3821723,22.081278 29.8440121,22.0123801 C29.8513486,22.0113036 29.8576114,22.0043061 29.8644111,22 L30.1276293,22 Z" id="Fill-6" fill="#3324AE"></path>
                    <path d="M33.0327261,43.99388 C34.300556,41.4310606 35.561715,38.881201 36.8302661,36.3171215 L32,36.3171215 L32,34 L39.9946124,34 C39.9964153,34.0318597 39.9996606,34.0610195 39.9996606,34.0899993 C39.9998409,34.5479156 40.0007424,35.005832 39.9985789,35.4637483 C39.9983986,35.5116279 39.9874006,35.5625675 39.9691909,35.6070271 C39.3307686,37.1618547 38.6909039,38.7163223 38.0510392,40.2706098 C37.5494603,41.4892001 37.0469799,42.7076103 36.5463025,43.9265606 C36.5262898,43.9753402 36.5046545,44 36.4456983,44 C35.3322003,43.99802 34.2187024,43.99856 33.1052044,43.99838 C33.0862735,43.99838 33.0673426,43.99604 33.0327261,43.99388" id="Fill-8" fill="#3324AE"></path>
                    <path d="M46.9834221,31.0352239 L24.9976316,31.0352239 L24.9976428,31.1202985 C24.9976428,35.7426269 24.9974634,40.3649552 24.9985393,44.9872836 C24.9985393,45.0607164 25.0048152,45.1359403 25.0209531,45.2075821 C25.1310497,45.6958209 25.5255324,46.0022687 26.0414083,46.0022687 C32.6696152,46.0024478 39.2978221,46.0024478 45.9258497,46.0017313 C46.0052841,46.0017313 46.0859738,45.9988657 46.1637945,45.9848955 C46.6264152,45.9008955 46.986829,45.4918209 46.9861117,44.9437612 C46.9812703,40.3434627 46.9834221,35.7431642 46.9834221,31.1428657 L46.9834221,31.0352239 Z M22.9999462,45.219403 C22.9999462,39.0872239 22.9999462,32.9548657 22.9999462,26.8226866 C23.0053255,26.7988657 23.0132152,26.7752239 23.0153669,26.7512239 C23.0436979,26.4290149 23.1179324,26.117194 23.2585117,25.8265075 C23.8190359,24.6673433 24.7492979,24.0714627 26.035491,24.0435224 C26.6589531,24.0300896 27.2829531,24.041194 27.9067738,24.041194 L27.9960703,24.041194 L27.9960703,24.1456119 C27.9960703,24.7878806 27.9903324,25.4301493 27.9978634,26.0724179 C28.0037807,26.5869851 28.1864979,27.0392239 28.5438634,27.4103284 C29.202829,28.0952239 30.1901117,28.2392239 31.0090221,27.7563582 C31.6097117,27.4019104 31.9532703,26.8615522 31.9824979,26.1626866 C32.0104703,25.4940896 31.9918221,24.8235224 31.9937945,24.1538507 C31.9937945,24.1189254 31.9937945,24.084 31.9937945,24.0465672 L39.9867324,24.0465672 L39.9867324,24.1488358 C39.9867324,24.7610149 39.9844014,25.3730149 39.9883462,25.985194 C39.9892428,26.1270448 39.9969531,26.2717612 40.0249255,26.4103881 C40.2153531,27.3494328 40.9602083,27.9917015 41.9198772,28.0316418 C42.5135738,28.0563582 43.0226359,27.8430448 43.4339738,27.4142687 C43.8105255,27.0216716 43.986429,26.5461493 43.9866083,26.0041791 C43.9867876,25.3839403 43.9866083,24.7635224 43.9866083,24.1432836 L43.9866083,24.044597 C44.0144014,24.0429851 44.03036,24.0413731 44.0463186,24.0413731 C44.6948841,24.0413731 45.3434497,24.0381493 45.9918359,24.0424478 C46.5586359,24.0463881 47.0904703,24.1880597 47.5668979,24.4973731 C48.5014634,25.1045373 48.9805807,25.9728358 48.9814772,27.0848955 C48.98596,33.0410149 48.9841669,38.9969552 48.9812979,44.9530746 C48.9811186,45.1576119 48.9648014,45.3655522 48.9257117,45.5661493 C48.6481393,46.992 47.4243462,47.9989254 45.9701393,47.9992836 C39.3173669,48.0005373 32.6647738,47.9998209 26.0121807,47.9994627 C25.6917531,47.9994627 25.3758083,47.9580896 25.0731324,47.8513433 C24.0238083,47.4813134 23.3546221,46.7591642 23.0808152,45.6791642 C23.0428014,45.5287164 23.0264841,45.3727164 22.9999462,45.219403 Z" id="Fill-1" fill="#3324AE"></path>
                </g>
            </g>
        </g>
    </g>
</svg>