<?xml version="1.0" encoding="UTF-8"?>
<svg width="320px" height="207px" viewBox="0 0 320 207" version="1.1" xmlns="http://www.w3.org/2000/svg" xmlns:xlink="http://www.w3.org/1999/xlink">
    <!-- Generator: Sketch 51.2 (57519) - http://www.bohemiancoding.com/sketch -->
    <title>Group 15</title>
    <desc>Created with Sketch.</desc>
    <defs>
        <rect id="path-1" x="0" y="36" width="300" height="151" rx="15"></rect>
        <filter x="-5.7%" y="-8.6%" width="111.3%" height="122.5%" filterUnits="objectBoundingBox" id="filter-2">
            <feOffset dx="0" dy="4" in="SourceAlpha" result="shadowOffsetOuter1"></feOffset>
            <feGaussianBlur stdDeviation="5" in="shadowOffsetOuter1" result="shadowBlurOuter1"></feGaussianBlur>
            <feColorMatrix values="0 0 0 0 0.835294118   0 0 0 0 0.91372549   0 0 0 0 1  0 0 0 1 0" type="matrix" in="shadowBlurOuter1"></feColorMatrix>
        </filter>
        <circle id="path-3" cx="35.5" cy="35.5" r="35.5"></circle>
        <filter x="-23.9%" y="-18.3%" width="147.9%" height="147.9%" filterUnits="objectBoundingBox" id="filter-4">
            <feOffset dx="0" dy="4" in="SourceAlpha" result="shadowOffsetOuter1"></feOffset>
            <feGaussianBlur stdDeviation="5" in="shadowOffsetOuter1" result="shadowBlurOuter1"></feGaussianBlur>
            <feColorMatrix values="0 0 0 0 0.835294118   0 0 0 0 0.91372549   0 0 0 0 1  0 0 0 1 0" type="matrix" in="shadowBlurOuter1"></feColorMatrix>
        </filter>
    </defs>
    <g id="Page-1" stroke="none" stroke-width="1" fill="none" fill-rule="evenodd">
        <g id="prodeti---desktop" transform="translate(-880.000000, -762.000000)">
            <g id="Group-4-Copy-2" transform="translate(890.000000, 768.000000)">
                <g id="Group-15">
                    <g id="Rectangle-5">
                        <use fill="black" fill-opacity="1" filter="url(#filter-2)" xlink:href="#path-1"></use>
                        <use fill="#FFFFFF" fill-rule="evenodd" xlink:href="#path-1"></use>
                    </g>
                    <g id="Group-11" transform="translate(113.000000, 0.000000)">
                        <g id="Oval-6-Copy">
                            <use fill="black" fill-opacity="1" filter="url(#filter-4)" xlink:href="#path-3"></use>
                            <use fill="#FFFFFF" fill-rule="evenodd" xlink:href="#path-3"></use>
                        </g>
                        <path d="M35.3345461,38.2581335 C35.6725249,39.5068562 35.7013998,40.8005482 35.5210498,42.0757791 C35.4874413,42.3148257 35.2805831,42.4710344 35.0547905,42.5240507 C34.9236699,42.6158825 34.7537338,42.656118 34.553976,42.6078353 C30.9796372,41.7411138 27.4048251,40.8743923 23.8304863,40.0071974 C19.7572265,39.0197691 15.6839666,38.0323409 11.6111801,37.0449126 C11.5600573,37.0321319 11.5098811,37.0202979 11.4587583,37.0075172 C10.6597272,36.8134398 10.991079,35.5836514 11.78869,35.7767821 C13.7976284,36.2638692 15.8065668,36.7509563 17.8159785,37.2380434 C19.3061147,33.5661925 22.9864861,31.1582119 26.9930022,31.404359 C30.9256742,31.6457724 34.3106692,34.4703095 35.3345461,38.2581335 Z M18.0181031,39.1920721 C19.9986399,39.6720587 21.9796501,40.1529922 23.9606602,40.6334522 C27.330981,41.4499976 30.7013018,42.2674898 34.0716225,43.0849819 C33.031178,46.4642965 29.884283,48.9210331 26.1632027,48.9210331 C21.5943353,48.9210331 17.890296,45.2165204 17.890296,40.647653 C17.890296,40.1510987 17.9343184,39.664485 18.0181031,39.1920721 Z M22.2541987,45.1895389 C22.6059049,45.1895389 22.8908674,44.6361815 22.8908674,43.9540702 C22.8908674,43.2710122 22.6059049,42.7181281 22.2541987,42.7181281 C21.9024924,42.7181281 21.6170566,43.2710122 21.6170566,43.9540702 C21.6170566,44.6361815 21.9020191,45.1895389 22.2541987,45.1895389 Z M28.5058597,42.7176548 C28.1541534,42.7176548 27.8691909,43.2705389 27.8687176,43.9535969 C27.8687176,44.6357081 28.1536801,45.1890656 28.5058597,45.1890656 C28.8575659,45.1890656 29.1425284,44.6357081 29.1425284,43.9535969 C29.1425284,43.2705389 28.8575659,42.7176548 28.5058597,42.7176548 Z M27.4109788,46.599204 C26.3255651,47.3135037 24.7795724,47.5061611 23.7978245,46.6451199 C23.5104952,46.3932925 23.0887317,46.8117425 23.3774811,47.0654632 C24.6143699,48.1499302 26.4131366,47.9672134 27.7110888,47.1118525 C28.0301332,46.9016808 27.73239,46.3871389 27.4109788,46.599204 Z" id="Combined-Shape" fill="#5835B0" fill-rule="nonzero"></path>
                        <path d="M55.2845471,23.323474 C58.6813761,24.3426174 59.0349757,29.1344372 59.0354491,29.1349106 L54.2947521,33.4841391 C54.2947521,33.4841391 53.4952476,23.8858253 49.8063558,28.1616831 L49.7438723,28.1276012 C51.5047703,29.4624754 52.728405,31.469047 53.0308818,33.7667348 C50.6418356,33.2015434 49.306488,29.4899303 49.2903938,29.4463812 L49.126138,28.9772818 L48.8411755,29.3848445 C46.5988708,32.5999033 39.439306,33.2536129 36.2928843,33.3842602 C36.9996103,29.4198731 40.464603,26.4102524 44.6325348,26.4102524 C46.0123782,26.4102524 47.3160107,26.7420775 48.4676947,27.3276234 C48.635264,26.5726147 49.9317961,21.7178381 55.2845471,23.323474 Z M50.210605,32.236363 C51.0796933,33.4197622 52.0548142,34.1146542 53.0838981,34.2983177 C53.0962054,34.4909751 53.1037792,34.6855259 53.1037792,34.8819702 C53.1037792,39.560657 49.3112216,43.3532146 44.6325348,43.3532146 C39.9538479,43.3532146 36.1612903,39.5601837 36.1612903,34.8819702 C36.1612903,34.5496717 36.1806981,34.2216334 36.2180935,33.8992755 C37.3536833,33.8557264 39.039317,33.7449603 40.8300366,33.4661514 C44.8469667,32.84037 47.5844056,31.6886859 48.9779764,30.0409209 C49.1900416,30.5417355 49.6028112,31.4079836 50.210605,32.236363 Z M41.5353425,37.9332465 C41.8875221,37.9332465 42.172958,37.3794157 42.172958,36.6968311 C42.172958,36.0142465 41.8875221,35.460889 41.5353425,35.460889 C41.1836363,35.460889 40.8991471,36.0142465 40.8991471,36.6968311 C40.8991471,37.3794157 41.1836363,37.9332465 41.5353425,37.9332465 Z M47.1441811,39.6345011 C47.436244,39.3859873 47.0130605,38.9675374 46.7243111,39.2141578 C45.68576,40.0950801 44.2107713,40.1215882 43.1703268,39.2141578 C42.8825241,38.9637505 42.4607607,39.3822004 42.7499834,39.6345011 C43.1551793,39.9881008 43.6588339,40.2337745 44.1710091,40.3847762 C45.2521626,40.7038206 46.3077546,40.3435939 47.1441811,39.6345011 Z M47.7884236,37.9332465 C48.1401298,37.9332465 48.424619,37.3798891 48.424619,36.6968311 C48.424619,36.0142465 48.1401298,35.460889 47.7884236,35.460889 C47.436244,35.460889 47.1508081,36.0142465 47.1508081,36.6968311 C47.1508081,37.3798891 47.436244,37.9332465 47.7884236,37.9332465 Z" id="Combined-Shape" fill="#5835B0" fill-rule="nonzero"></path>
                    </g>
                </g>
            </g>
        </g>
    </g>
</svg>