<?xml version="1.0" encoding="UTF-8"?>
<svg width="316px" height="201px" viewBox="0 0 316 201" version="1.1" xmlns="http://www.w3.org/2000/svg" xmlns:xlink="http://www.w3.org/1999/xlink">
    <!-- Generator: Sketch 51.2 (57519) - http://www.bohemiancoding.com/sketch -->
    <title>Group 11</title>
    <desc>Created with Sketch.</desc>
    <defs>
        <rect id="path-1" x="0" y="36" width="300" height="151" rx="15"></rect>
        <filter x="-4.5%" y="-7.0%" width="109.0%" height="117.9%" filterUnits="objectBoundingBox" id="filter-2">
            <feOffset dx="0" dy="3" in="SourceAlpha" result="shadowOffsetOuter1"></feOffset>
            <feGaussianBlur stdDeviation="4" in="shadowOffsetOuter1" result="shadowBlurOuter1"></feGaussianBlur>
            <feColorMatrix values="0 0 0 0 0.615686275   0 0 0 0 0.780392157   0 0 0 0 0.960784314  0 0 0 1 0" type="matrix" in="shadowBlurOuter1"></feColorMatrix>
        </filter>
        <circle id="path-3" cx="148.5" cy="35.5" r="35.5"></circle>
        <filter x="-12.0%" y="-10.6%" width="129.6%" height="129.6%" filterUnits="objectBoundingBox" id="filter-4">
            <feOffset dx="2" dy="3" in="SourceAlpha" result="shadowOffsetOuter1"></feOffset>
            <feGaussianBlur stdDeviation="3" in="shadowOffsetOuter1" result="shadowBlurOuter1"></feGaussianBlur>
            <feColorMatrix values="0 0 0 0 0.709803922   0 0 0 0 0.847058824   0 0 0 0 1  0 0 0 1 0" type="matrix" in="shadowBlurOuter1"></feColorMatrix>
        </filter>
    </defs>
    <g id="Page-1" stroke="none" stroke-width="1" fill="none" fill-rule="evenodd">
        <g id="prodeti---desktop" transform="translate(-882.000000, -765.000000)">
            <g id="Group-4-Copy-2" transform="translate(890.000000, 768.000000)">
                <g id="Group-11">
                    <g id="Rectangle-5">
                        <use fill="black" fill-opacity="1" filter="url(#filter-2)" xlink:href="#path-1"></use>
                        <use fill="#FFFFFF" fill-rule="evenodd" xlink:href="#path-1"></use>
                    </g>
                    <g id="Oval-6-Copy">
                        <use fill="black" fill-opacity="1" filter="url(#filter-4)" xlink:href="#path-3"></use>
                        <use fill="#FFFFFF" fill-rule="evenodd" xlink:href="#path-3"></use>
                    </g>
                    <path d="M148.699429,38.0536734 C149.042475,39.3355881 149.071783,40.6636672 148.888729,41.9727946 C148.854617,42.2181952 148.644657,42.3785561 148.415479,42.4329815 C148.282392,42.5272543 148.109908,42.5685593 147.907155,42.5189933 C144.279221,41.6292337 140.650806,40.7394741 137.022872,39.8492286 C132.888536,38.8355539 128.7542,37.8218791 124.620344,36.8082044 C124.568455,36.7950839 124.517527,36.7829354 124.465637,36.769815 C123.654625,36.5705788 123.990945,35.3081018 124.800516,35.5063661 C126.839577,36.0064003 128.878639,36.5064345 130.91818,37.0064687 C132.43066,33.2370176 136.166217,30.7650313 140.232808,31.017721 C144.224448,31.2655514 147.660199,34.1651665 148.699429,38.0536734 Z M131.123336,39.0124367 C133.133569,39.5051818 135.144284,39.9988987 137.154998,40.4921297 C140.575855,41.3303794 143.996712,42.169601 147.417568,43.0088227 C146.361523,46.4779617 143.167442,49 139.390566,49 C134.753191,49 130.993612,45.1970189 130.993612,40.506708 C130.993612,39.9969549 131.038295,39.4974067 131.123336,39.0124367 Z M135.422949,45.1693202 C135.779929,45.1693202 136.069164,44.6012542 136.069164,43.9010119 C136.069164,43.1997978 135.779929,42.6322177 135.422949,42.6322177 C135.065969,42.6322177 134.776253,43.1997978 134.776253,43.9010119 C134.776253,44.6012542 135.065489,45.1693202 135.422949,45.1693202 Z M141.76835,42.6317318 C141.41137,42.6317318 141.122135,43.1993119 141.121654,43.900526 C141.121654,44.6007682 141.41089,45.1688343 141.76835,45.1688343 C142.12533,45.1688343 142.414565,44.6007682 142.414565,43.900526 C142.414565,43.1993119 142.12533,42.6317318 141.76835,42.6317318 Z M140.657052,46.6164551 C139.555363,47.3497414 137.986189,47.5475197 136.989721,46.6635915 C136.698083,46.4050704 136.269995,46.834643 136.563074,47.0951079 C137.81851,48.2084007 139.644248,48.0208271 140.961662,47.1427302 C141.28549,46.926972 140.983283,46.3987532 140.657052,46.6164551 Z" id="Combined-Shape" fill="#5835B0" fill-rule="nonzero"></path>
                    <path d="M168.20664,23.3304822 C171.641919,24.3717057 171.999521,29.267342 172,29.2678256 L167.205641,33.7112817 C167.205641,33.7112817 166.397086,23.905017 162.666438,28.2735128 L162.603247,28.2386925 C164.384077,29.6024873 165.621563,31.652532 165.927464,34 C163.511375,33.4225635 162.160912,29.630537 162.144635,29.5860444 L161.97852,29.1067818 L161.690332,29.5231744 C159.422645,32.8078886 152.182038,33.4757612 149,33.6092389 C149.714726,29.5589619 153.218941,26.4841367 157.434051,26.4841367 C158.829514,26.4841367 160.147903,26.8231509 161.312624,27.4213829 C161.48209,26.6500167 162.793298,21.6900596 168.20664,23.3304822 Z M163.097005,32.1439391 C163.969043,33.2995769 164.947474,33.9781673 165.980051,34.1575223 C165.992401,34.3456601 166,34.535647 166,34.7274828 C166,39.2964122 162.194569,43 157.5,43 C152.805431,43 149,39.2959499 149,34.7274828 C149,34.4029798 149.019474,34.082637 149.056996,33.7678413 C150.196441,33.7253138 151.887796,33.6171461 153.684594,33.3448779 C157.71516,32.7337766 160.461891,31.60911 161.860192,30 C162.072977,30.4890659 162.487148,31.3349927 163.097005,32.1439391 Z M154.499443,37 C154.77592,37 155,36.5519816 155,35.9998085 C155,35.4476355 154.77592,35 154.499443,35 C154.223337,35 154,35.4476355 154,35.9998085 C154,36.5519816 154.223337,37 154.499443,37 Z M160.892755,39.3644621 C161.210926,39.1823689 160.749914,38.8757586 160.435353,39.0564645 C159.303965,39.7019416 157.697126,39.7213648 156.563676,39.0564645 C156.250146,38.8729839 155.790681,39.1795942 156.105757,39.3644621 C156.547174,39.6235548 157.095851,39.8035669 157.65381,39.9142102 C158.831608,40.1479833 159.98156,39.8840348 160.892755,39.3644621 Z M160.500557,37 C160.776663,37 161,36.5523645 161,35.9998085 C161,35.4476355 160.776663,35 160.500557,35 C160.22408,35 160,35.4476355 160,35.9998085 C160,36.5523645 160.22408,37 160.500557,37 Z" id="Combined-Shape" fill="#5835B0" fill-rule="nonzero"></path>
                </g>
            </g>
        </g>
    </g>
</svg>