<?xml version="1.0" encoding="UTF-8"?>
<svg width="89px" height="100px" viewBox="0 0 89 100" version="1.1" xmlns="http://www.w3.org/2000/svg" xmlns:xlink="http://www.w3.org/1999/xlink">
    <!-- Generator: Sketch 49.1 (51147) - http://www.bohemiancoding.com/sketch -->
    <title>ikonka3</title>
    <desc>Created with Sketch.</desc>
    <defs>
        <path d="M74.1958161,77.5388443 L45.3809292,90.9200995 C42.2831428,92.3599668 38.7168572,92.3599668 35.6190708,90.9200995 L6.8041839,77.5388443 C2.65774751,75.612386 0,71.423279 0,66.8117224 L0,25.1882776 C0,20.576721 2.65774751,16.387614 6.8041839,14.4611557 L35.6190708,1.07990047 C38.7168572,-0.359966823 42.2831428,-0.359966823 45.3809292,1.07990047 L74.1958161,14.4611557 C78.3422525,16.387614 81,20.576721 81,25.1882776 L81,66.8117224 C81,71.423279 78.3422525,75.612386 74.1958161,77.5388443" id="path-1"></path>
        <filter x="-9.9%" y="-4.3%" width="119.8%" height="117.4%" filterUnits="objectBoundingBox" id="filter-2">
            <feOffset dx="0" dy="4" in="SourceAlpha" result="shadowOffsetOuter1"></feOffset>
            <feGaussianBlur stdDeviation="2" in="shadowOffsetOuter1" result="shadowBlurOuter1"></feGaussianBlur>
            <feColorMatrix values="0 0 0 0 0.835294118   0 0 0 0 0.91372549   0 0 0 0 1  0 0 0 1 0" type="matrix" in="shadowBlurOuter1"></feColorMatrix>
        </filter>
        <path d="M10,30 C10,30.9166667 10.75,31.6666667 11.6666667,31.6666667 L13.3333333,31.6666667 L13.3333333,37.5 C13.3333333,38.8833333 14.45,40 15.8333333,40 C17.2166667,40 18.3333333,38.8833333 18.3333333,37.5 L18.3333333,31.6666667 L21.6666667,31.6666667 L21.6666667,37.5 C21.6666667,38.8833333 22.7833333,40 24.1666667,40 C25.55,40 26.6666667,38.8833333 26.6666667,37.5 L26.6666667,31.6666667 L28.3333333,31.6666667 C29.25,31.6666667 30,30.9166667 30,30 L30,13.3333333 L10,13.3333333 L10,30 L10,30 Z M5.83333333,13.3333333 C4.45,13.3333333 3.33333333,14.45 3.33333333,15.8333333 L3.33333333,27.5 C3.33333333,28.8833333 4.45,30 5.83333333,30 C7.21666667,30 8.33333333,28.8833333 8.33333333,27.5 L8.33333333,15.8333333 C8.33333333,14.45 7.21666667,13.3333333 5.83333333,13.3333333 L5.83333333,13.3333333 Z M34.1666667,13.3333333 C32.7833333,13.3333333 31.6666667,14.45 31.6666667,15.8333333 L31.6666667,27.5 C31.6666667,28.8833333 32.7833333,30 34.1666667,30 C35.55,30 36.6666667,28.8833333 36.6666667,27.5 L36.6666667,15.8333333 C36.6666667,14.45 35.55,13.3333333 34.1666667,13.3333333 L34.1666667,13.3333333 Z M25.8833333,3.6 L28.05,1.43333333 C28.3833333,1.1 28.3833333,0.583333333 28.05,0.25 C27.7166667,-0.0833333333 27.2,-0.0833333333 26.8666667,0.25 L24.4,2.71666667 C23.0833333,2.05 21.5833333,1.66666667 20,1.66666667 C18.4,1.66666667 16.9,2.05 15.5666667,2.71666667 L13.0833333,0.25 C12.75,-0.0833333333 12.2333333,-0.0833333333 11.9,0.25 C11.5666667,0.583333333 11.5666667,1.1 11.9,1.43333333 L14.0833333,3.61666667 C11.6166667,5.43333333 10,8.35 10,11.6666667 L30,11.6666667 C30,8.35 28.3833333,5.41666667 25.8833333,3.6 L25.8833333,3.6 Z M16.6666667,8.33333333 L15,8.33333333 L15,6.66666667 L16.6666667,6.66666667 L16.6666667,8.33333333 L16.6666667,8.33333333 Z M25,8.33333333 L23.3333333,8.33333333 L23.3333333,6.66666667 L25,6.66666667 L25,8.33333333 L25,8.33333333 Z" id="path-3"></path>
        <rect id="path-5" x="0" y="0" width="83" height="83"></rect>
    </defs>
    <g id="Page-1" stroke="none" stroke-width="1" fill="none" fill-rule="evenodd">
        <g id="Desktop-HD" transform="translate(-995.000000, -970.000000)">
            <g id="blok-3" transform="translate(890.000000, 970.000000)">
                <g id="ikonka3" transform="translate(109.000000, 0.000000)">
                    <g id="Fill-1">
                        <use fill="black" fill-opacity="1" filter="url(#filter-2)" xlink:href="#path-1"></use>
                        <use fill="#FFFFFF" fill-rule="evenodd" xlink:href="#path-1"></use>
                    </g>
                    <g id="ic_android" transform="translate(21.000000, 26.000000)">
                        <mask id="mask-4" fill="white">
                            <use xlink:href="#path-3"></use>
                        </mask>
                        <g id="Mask"></g>
                        <g id="Colors/Blue" mask="url(#mask-4)">
                            <g transform="translate(-21.666667, -21.666667)">
                                <mask id="mask-6" fill="white">
                                    <use xlink:href="#path-5"></use>
                                </mask>
                                <use id="Black" stroke="none" fill="#3324AE" fill-rule="evenodd" xlink:href="#path-5"></use>
                            </g>
                        </g>
                    </g>
                </g>
            </g>
        </g>
    </g>
</svg>