<?xml version="1.0" encoding="UTF-8"?>
<svg width="134px" height="150px" viewBox="0 0 134 150" version="1.1" xmlns="http://www.w3.org/2000/svg" xmlns:xlink="http://www.w3.org/1999/xlink">
    <!-- Generator: Sketch 51.2 (57519) - http://www.bohemiancoding.com/sketch -->
    <title>Group 6</title>
    <desc>Created with Sketch.</desc>
    <defs>
        <path d="M104.79014,109.565758 L64.0935593,128.474054 C59.718414,130.508649 54.681586,130.508649 50.3064407,128.474054 L9.60985973,109.565758 C3.75365821,106.843589 0,100.924199 0,94.4078686 L0,35.5921314 C0,29.0758015 3.75365821,23.1564112 9.60985973,20.4342417 L50.3064407,1.52594632 C54.681586,-0.508648772 59.718414,-0.508648772 64.0935593,1.52594632 L104.79014,20.4342417 C110.646342,23.1564112 114.4,29.0758015 114.4,35.5921314 L114.4,94.4078686 C114.4,100.924199 110.646342,106.843589 104.79014,109.565758" id="path-1"></path>
        <filter x="-14.9%" y="-10.0%" width="129.7%" height="126.2%" filterUnits="objectBoundingBox" id="filter-2">
            <feOffset dx="0" dy="4" in="SourceAlpha" result="shadowOffsetOuter1"></feOffset>
            <feGaussianBlur stdDeviation="5" in="shadowOffsetOuter1" result="shadowBlurOuter1"></feGaussianBlur>
            <feColorMatrix values="0 0 0 0 0.615686275   0 0 0 0 0.780392157   0 0 0 0 0.960784314  0 0 0 1 0" type="matrix" in="shadowBlurOuter1"></feColorMatrix>
        </filter>
        <path d="M13.5416667,43.3333333 C13.5416667,53.8145833 22.01875,62.2916667 32.5,62.2916667 C42.98125,62.2916667 51.4583333,53.8145833 51.4583333,43.3333333 L51.4583333,32.5 L13.5416667,32.5 L13.5416667,43.3333333 L13.5416667,43.3333333 Z M43.6583333,11.8354167 L49.3458333,6.14791667 L47.125,3.9 L40.8958333,10.15625 C38.35,8.88333333 35.5333333,8.125 32.5,8.125 C29.4666667,8.125 26.65,8.88333333 24.13125,10.15625 L17.875,3.9 L15.6541667,6.14791667 L21.3416667,11.8354167 C16.6291667,15.275 13.5416667,20.8 13.5416667,27.0833333 L13.5416667,29.7916667 L51.4583333,29.7916667 L51.4583333,27.0833333 C51.4583333,20.8 48.3708333,15.275 43.6583333,11.8354167 L43.6583333,11.8354167 Z M24.375,24.375 C22.8854167,24.375 21.6666667,23.15625 21.6666667,21.6666667 C21.6666667,20.1770833 22.8854167,18.9583333 24.375,18.9583333 C25.8645833,18.9583333 27.0833333,20.1770833 27.0833333,21.6666667 C27.0833333,23.15625 25.8645833,24.375 24.375,24.375 L24.375,24.375 Z M40.625,24.375 C39.1354167,24.375 37.9166667,23.15625 37.9166667,21.6666667 C37.9166667,20.1770833 39.1354167,18.9583333 40.625,18.9583333 C42.1145833,18.9583333 43.3333333,20.1770833 43.3333333,21.6666667 C43.3333333,23.15625 42.1145833,24.375 40.625,24.375 L40.625,24.375 Z" id="path-3"></path>
        <rect id="path-5" x="0" y="0" width="135" height="135"></rect>
    </defs>
    <g id="Page-1" stroke="none" stroke-width="1" fill="none" fill-rule="evenodd">
        <g id="prodeti---desktop" transform="translate(-240.000000, -1473.000000)">
            <g id="co-naucime-vase-deti" transform="translate(250.000000, 1046.000000)">
                <g id="blok-1-copy-3" transform="translate(0.000000, 433.000000)">
                    <g id="Group-6">
                        <g id="Fill-1">
                            <use fill="black" fill-opacity="1" filter="url(#filter-2)" xlink:href="#path-1"></use>
                            <use fill="#FFFFFF" fill-rule="evenodd" xlink:href="#path-1"></use>
                        </g>
                        <g id="ic_adb" transform="translate(24.700000, 32.500000)">
                            <mask id="mask-4" fill="white">
                                <use xlink:href="#path-3"></use>
                            </mask>
                            <g id="Mask"></g>
                            <g id="Colors/Blue" mask="url(#mask-4)">
                                <g transform="translate(-35.208333, -35.208333)">
                                    <mask id="mask-6" fill="white">
                                        <use xlink:href="#path-5"></use>
                                    </mask>
                                    <use id="Black" stroke="none" fill="#3324AE" fill-rule="evenodd" xlink:href="#path-5"></use>
                                </g>
                            </g>
                        </g>
                    </g>
                </g>
            </g>
        </g>
    </g>
</svg>