<?xml version="1.0" encoding="UTF-8"?>
<svg width="132px" height="148px" viewBox="0 0 132 148" version="1.1" xmlns="http://www.w3.org/2000/svg" xmlns:xlink="http://www.w3.org/1999/xlink">
    <!-- Generator: Sketch 51.2 (57519) - http://www.bohemiancoding.com/sketch -->
    <title>Group 6</title>
    <desc>Created with Sketch.</desc>
    <defs>
        <path d="M102.591746,107.880131 L62.7489392,126.49753 C58.4655802,128.500823 53.5344198,128.500823 49.2510608,126.49753 L9.40825428,107.880131 C3.67491013,105.199841 0,99.3715186 0,92.9554399 L0,35.0445601 C0,28.6284814 3.67491013,22.8001587 9.40825428,20.1198687 L49.2510608,1.50247022 C53.5344198,-0.500823406 58.4655802,-0.500823406 62.7489392,1.50247022 L102.591746,20.1198687 C108.32509,22.8001587 112,28.6284814 112,35.0445601 L112,92.9554399 C112,99.3715186 108.32509,105.199841 102.591746,107.880131" id="path-1"></path>
        <filter x="-15.2%" y="-10.2%" width="130.4%" height="126.6%" filterUnits="objectBoundingBox" id="filter-2">
            <feOffset dx="0" dy="4" in="SourceAlpha" result="shadowOffsetOuter1"></feOffset>
            <feGaussianBlur stdDeviation="5" in="shadowOffsetOuter1" result="shadowBlurOuter1"></feGaussianBlur>
            <feColorMatrix values="0 0 0 0 0.615686275   0 0 0 0 0.780392157   0 0 0 0 0.960784314  0 0 0 1 0" type="matrix" in="shadowBlurOuter1"></feColorMatrix>
        </filter>
        <path d="M16,48 C16,49.4666667 17.2,50.6666667 18.6666667,50.6666667 L21.3333333,50.6666667 L21.3333333,60 C21.3333333,62.2133333 23.12,64 25.3333333,64 C27.5466667,64 29.3333333,62.2133333 29.3333333,60 L29.3333333,50.6666667 L34.6666667,50.6666667 L34.6666667,60 C34.6666667,62.2133333 36.4533333,64 38.6666667,64 C40.88,64 42.6666667,62.2133333 42.6666667,60 L42.6666667,50.6666667 L45.3333333,50.6666667 C46.8,50.6666667 48,49.4666667 48,48 L48,21.3333333 L16,21.3333333 L16,48 L16,48 Z M9.33333333,21.3333333 C7.12,21.3333333 5.33333333,23.12 5.33333333,25.3333333 L5.33333333,44 C5.33333333,46.2133333 7.12,48 9.33333333,48 C11.5466667,48 13.3333333,46.2133333 13.3333333,44 L13.3333333,25.3333333 C13.3333333,23.12 11.5466667,21.3333333 9.33333333,21.3333333 L9.33333333,21.3333333 Z M54.6666667,21.3333333 C52.4533333,21.3333333 50.6666667,23.12 50.6666667,25.3333333 L50.6666667,44 C50.6666667,46.2133333 52.4533333,48 54.6666667,48 C56.88,48 58.6666667,46.2133333 58.6666667,44 L58.6666667,25.3333333 C58.6666667,23.12 56.88,21.3333333 54.6666667,21.3333333 L54.6666667,21.3333333 Z M41.4133333,5.76 L44.88,2.29333333 C45.4133333,1.76 45.4133333,0.933333333 44.88,0.4 C44.3466667,-0.133333333 43.52,-0.133333333 42.9866667,0.4 L39.04,4.34666667 C36.9333333,3.28 34.5333333,2.66666667 32,2.66666667 C29.44,2.66666667 27.04,3.28 24.9066667,4.34666667 L20.9333333,0.4 C20.4,-0.133333333 19.5733333,-0.133333333 19.04,0.4 C18.5066667,0.933333333 18.5066667,1.76 19.04,2.29333333 L22.5333333,5.78666667 C18.5866667,8.69333333 16,13.36 16,18.6666667 L48,18.6666667 C48,13.36 45.4133333,8.66666667 41.4133333,5.76 L41.4133333,5.76 Z M26.6666667,13.3333333 L24,13.3333333 L24,10.6666667 L26.6666667,10.6666667 L26.6666667,13.3333333 L26.6666667,13.3333333 Z M40,13.3333333 L37.3333333,13.3333333 L37.3333333,10.6666667 L40,10.6666667 L40,13.3333333 L40,13.3333333 Z" id="path-3"></path>
        <rect id="path-5" x="0" y="0" width="133" height="133"></rect>
    </defs>
    <g id="Page-1" stroke="none" stroke-width="1" fill="none" fill-rule="evenodd">
        <g id="prodeti---desktop" transform="translate(-729.000000, -1474.000000)">
            <g id="co-naucime-vase-deti" transform="translate(250.000000, 1046.000000)">
                <g id="blok-1-copy-2" transform="translate(489.000000, 433.000000)">
                    <g id="Group-6" transform="translate(0.000000, 1.000000)">
                        <g id="Fill-1">
                            <use fill="black" fill-opacity="1" filter="url(#filter-2)" xlink:href="#path-1"></use>
                            <use fill="#FFFFFF" fill-rule="evenodd" xlink:href="#path-1"></use>
                        </g>
                        <g id="ic_android" transform="translate(24.000000, 32.000000)">
                            <mask id="mask-4" fill="white">
                                <use xlink:href="#path-3"></use>
                            </mask>
                            <g id="Mask"></g>
                            <g id="Colors/Blue" mask="url(#mask-4)">
                                <g transform="translate(-34.666667, -34.666667)">
                                    <mask id="mask-6" fill="white">
                                        <use xlink:href="#path-5"></use>
                                    </mask>
                                    <use id="Black" stroke="none" fill="#3324AE" fill-rule="evenodd" xlink:href="#path-5"></use>
                                </g>
                            </g>
                        </g>
                    </g>
                </g>
            </g>
        </g>
    </g>
</svg>