<?xml version="1.0" encoding="UTF-8"?>
<svg width="122px" height="18px" viewBox="0 0 122 17" version="1.1" xmlns="http://www.w3.org/2000/svg" xmlns:xlink="http://www.w3.org/1999/xlink">
    <!-- Generator: Sketch 51.2 (57519) - http://www.bohemiancoding.com/sketch -->
    <title>Group</title>
    <desc>Created with Sketch.</desc>
    <defs></defs>
    <g id="Page-1" stroke="none" stroke-width="1" fill="none" fill-rule="evenodd">
        <g id="prodeti---desktop" transform="translate(-305.000000, -25.000000)" fill="#3324AE" fill-rule="nonzero">
            <g id="header" transform="translate(250.000000, -103.000000)">
                <g id="logo">
                    <g id="Group" transform="translate(55.000000, 128.000000)">
                        <polygon id="Shape" points="7.22648347 3.58262121 7.22648347 16.4840758 3.60580579 16.4840758 3.60580579 3.58262121 0.196863636 3.58262121 0.196863636 0.459257576 10.6356777 0.459257576 10.6356777 3.58262121"></polygon>
                        <path d="M25.1042727,2.42919697 C26.5854132,3.89480303 27.549314,6.00898485 27.549314,8.48351515 C27.549314,10.6219091 26.7968967,12.8082121 25.1042727,14.4899242 C23.6465744,15.9313182 21.6713843,16.8444242 19.0383017,16.8444242 C16.0994628,16.8444242 14.1010826,15.6430909 12.9254463,14.4899242 C11.4206116,13.0485303 10.480405,10.8861818 10.480405,8.53168182 C10.480405,6.22509091 11.4911901,3.89480303 12.9020041,2.45340909 C13.9601777,1.37236364 15.9114215,0.0989090909 19.0385537,0.0989090909 C21.483595,0.0989090909 23.5288595,0.867772727 25.1042727,2.42919697 Z M15.5822231,4.87977273 C14.9003843,5.55256061 14.1951033,6.72968182 14.1951033,8.5074697 C14.1951033,9.97307576 14.6654587,11.150197 15.6293595,12.1112121 C16.6401446,13.0961818 17.7686446,13.4328333 18.9914174,13.4328333 C20.5902727,13.4328333 21.7187727,12.8321667 22.470938,12.063303 C23.0821983,11.4626364 23.8346157,10.3334242 23.8346157,8.48351515 C23.8346157,6.82601515 23.176219,5.6004697 22.470938,4.87977273 C21.6950785,4.11116667 20.4491157,3.51024242 19.0148595,3.51024242 C17.6511818,3.5105 16.4286612,4.01509091 15.5822231,4.87977273 Z" id="Shape"></path>
                        <path d="M34.8796488,0.459257576 C36.2433264,0.459257576 37.7481612,0.651409091 38.994124,1.78087879 C40.3343595,2.98195455 40.5221488,4.56784848 40.5221488,5.67284848 C40.5221488,7.69069697 39.7699835,8.82016667 39.1821653,9.44478788 C37.9359504,10.7419394 36.2902107,10.8622273 35.1851529,10.8622273 L32.9750372,10.8622273 L32.9750372,16.4840758 L29.3543595,16.4840758 L29.3543595,0.459257576 L34.8796488,0.459257576 Z M32.9755413,7.83493939 L34.2686405,7.83493939 C34.762438,7.83493939 35.6323182,7.81098485 36.2201364,7.23427273 C36.5493347,6.89787879 36.8079545,6.34537879 36.8079545,5.64863636 C36.8079545,4.97584848 36.5730289,4.42334848 36.2201364,4.08695455 C35.6794545,3.55840909 34.903595,3.48628788 34.198314,3.48628788 L32.9757934,3.48628788 L32.9757934,7.83493939 L32.9755413,7.83493939 Z" id="Shape"></path>
                        <polygon id="Shape" points="40.5292066 16.4840758 43.0448264 0.459257576 46.0542438 0.459257576 49.9569835 10.045197 53.8599752 0.459257576 56.8693926 0.459257576 59.3852645 16.4840758 55.7645868 16.4840758 54.5183719 6.92209091 50.591938 16.4840758 49.3225331 16.4840758 45.3960992 6.92209091 44.1498843 16.4840758"></polygon>
                        <path d="M74.7582727,2.42919697 C76.2394132,3.89480303 77.203314,6.00898485 77.203314,8.48351515 C77.203314,10.6219091 76.4511488,12.8082121 74.7582727,14.4899242 C73.3005744,15.9313182 71.3253843,16.8444242 68.6923017,16.8444242 C65.7534628,16.8444242 63.7550826,15.6430909 62.5794463,14.4899242 C61.0746116,13.0485303 60.134405,10.8861818 60.134405,8.53168182 C60.134405,6.22509091 61.1451901,3.89480303 62.5560041,2.45340909 C63.6141777,1.37236364 65.5654215,0.0989090909 68.6925537,0.0989090909 C71.137595,0.0989090909 73.1828595,0.867772727 74.7582727,2.42919697 Z M65.2362231,4.87977273 C64.5543843,5.55256061 63.8491033,6.72968182 63.8491033,8.5074697 C63.8491033,9.97307576 64.3194587,11.150197 65.2833595,12.1112121 C66.2941446,13.0961818 67.4228967,13.4328333 68.6454174,13.4328333 C70.2442727,13.4328333 71.3727727,12.8321667 72.124938,12.063303 C72.7361983,11.4626364 73.4886157,10.3334242 73.4886157,8.48351515 C73.4886157,6.82601515 72.830219,5.6004697 72.124938,4.87977273 C71.3490785,4.11116667 70.1031157,3.51024242 68.6688595,3.51024242 C67.3051818,3.5105 66.0826612,4.01509091 65.2362231,4.87977273 Z" id="Shape"></path>
                        <polygon id="Shape" points="79.0086116 16.4840758 79.0086116 0.459257576 82.1589339 0.459257576 90.6699463 10.7901061 90.6699463 0.459257576 94.290624 0.459257576 94.290624 16.4840758 91.1403017 16.4840758 82.6292893 6.10531818 82.6292893 16.4840758"></polygon>
                        <polygon id="Shape" points="100.560769 7.13819697 105.921207 0.459257576 110.341186 0.459257576 103.993153 8.05104545 110.834983 16.4838182 106.179574 16.4838182 100.560517 9.37240909 100.560517 16.4838182 96.9398388 16.4838182 96.9398388 0.459 100.560517 0.459 100.560517 7.13819697"></polygon>
                        <path d="M119.606884,4.37543939 C118.4315,3.29439394 117.420463,3.22227273 116.973802,3.22227273 C116.480256,3.22227273 115.868744,3.29439394 115.445525,3.77477273 C115.210599,4.01483333 115.046,4.37543939 115.046,4.78369697 C115.046,5.16825758 115.163463,5.45648485 115.39864,5.67284848 C115.774975,6.03319697 116.315405,6.17718182 117.373326,6.58569697 L118.548963,7.04212121 C119.230802,7.30639394 120.07724,7.66674242 120.6885,8.26740909 C121.605517,9.15630303 121.840442,10.3094697 121.840442,11.2465303 C121.840442,12.9042879 121.276066,14.3459394 120.453322,15.2106212 C119.06595,16.7001818 117.044128,16.8444242 116.009649,16.8444242 C114.881149,16.8444242 113.893554,16.6762273 112.906211,16.1716364 C112.106909,15.7633788 111.189893,15.0184697 110.602074,14.417803 L112.482992,11.7750758 C112.882517,12.1835909 113.517471,12.7360909 113.94069,13.0003636 C114.55195,13.3846667 115.186905,13.5768182 115.915628,13.5768182 C116.385983,13.5768182 117.044128,13.4807424 117.561368,13.0243182 C117.867124,12.7600455 118.125744,12.3275758 118.125744,11.7271667 C118.125744,11.1983636 117.914008,10.8622273 117.585062,10.5737424 C117.161843,10.2133939 116.197942,9.85304545 115.751281,9.68484848 L114.458182,9.22842424 C113.729459,8.96415152 112.883021,8.62775758 112.27176,7.9549697 C111.448764,7.06607576 111.331302,5.93712121 111.331302,5.168 C111.331302,3.75056061 111.754521,2.54922727 112.694727,1.56425758 C113.799785,0.411090909 115.116326,0.0986515152 116.574277,0.0986515152 C117.65564,0.0986515152 119.395653,0.29080303 121.229434,1.68428788 L119.606884,4.37543939 Z" id="Shape"></path>
                    </g>
                </g>
            </g>
        </g>
    </g>
</svg>
