<svg width="974" height="346" viewBox="0 0 974 346" fill="none" xmlns="http://www.w3.org/2000/svg">
<circle cx="99.4912" cy="19.5" r="19.5" fill="#FFE0D9"/>
<circle cx="916.491" cy="84.5" r="57.5" fill="#6E70FB"/>
<path opacity="0.7" d="M70.7755 264.083C72.3456 262.513 72.3456 260 70.7755 258.43C69.2053 256.86 66.6931 256.86 65.123 258.43C63.5529 260 48.8983 280.307 48.8983 280.307C48.8983 280.307 69.2053 265.653 70.7755 264.083Z" fill="#6E70FB"/>
<path opacity="0.7" d="M62.192 290.042C63.7621 288.472 63.7621 285.96 62.192 284.39C60.6218 282.82 58.1096 282.82 56.5395 284.39C54.9694 285.96 40.3148 306.267 40.3148 306.267C40.3148 306.267 60.6218 291.612 62.192 290.042Z" fill="#6E70FB"/>
<path opacity="0.7" d="M85.709 284.669C87.2792 283.099 87.2792 280.587 85.709 279.016C84.1389 277.446 81.6267 277.446 80.0566 279.016C78.4864 280.587 63.8319 300.894 63.8319 300.894C63.8319 300.894 84.1389 286.239 85.709 284.669Z" fill="#6E70FB"/>
<path d="M88.605 258.116L77.335 246.846L69.903 254.278L81.1731 265.548L88.605 258.116Z" fill="white"/>
<path d="M91.2567 255.465C107.97 272.178 111.843 296.846 102.876 317.258C109.052 314.571 114.844 310.663 119.903 305.604C141.675 283.832 141.675 248.521 119.938 226.783C98.1653 205.081 62.8897 205.046 41.1172 226.818C36.0579 231.878 32.2198 237.67 29.4633 243.846C49.9099 234.913 74.5784 238.786 91.2567 255.465Z" fill="#FF7A7E"/>
<path d="M128.696 238.193L100.015 266.874C109.017 282.296 109.994 301.138 102.911 317.293C109.087 314.606 114.879 310.698 119.938 305.639C138.221 287.356 141.152 259.512 128.696 238.193Z" fill="#FF7A7E"/>
<path d="M86.1273 260.594C90.9772 265.444 94.8851 270.887 97.8858 276.679C117.6 270.014 138.5 256.93 157.062 238.368C186.581 208.849 202.212 173.399 200.293 146.428C173.357 144.474 137.942 160.14 108.423 189.659C89.8607 208.221 76.7763 229.191 70.1119 248.835C75.904 251.836 81.3122 255.779 86.1273 260.594Z" fill="#FFDDBE"/>
<path d="M172.38 174.341C178.486 180.447 184.278 186.658 189.756 192.904C197.607 176.47 201.341 160.315 200.329 146.393C186.442 145.416 170.287 149.149 153.818 156.965C160.064 162.443 166.274 168.235 172.38 174.341Z" fill="#FF7A7E"/>
<path d="M122.31 224.411C113.971 226.539 101.236 235.018 88.9539 247.3C76.672 259.582 68.1933 272.317 66.0649 280.656C74.404 278.528 87.1395 270.049 99.4214 257.767C111.703 245.485 120.217 232.715 122.31 224.411Z" fill="#FF7A7E"/>
<path d="M155.911 190.81C150.677 185.576 142.164 185.576 136.895 190.775C131.661 196.009 131.661 204.523 136.93 209.791C142.164 215.025 150.677 215.025 155.911 209.791C161.18 204.592 161.215 196.044 155.911 190.81Z" fill="white"/>
</svg>
