<svg width="93" height="111" viewBox="0 0 93 111" fill="none" xmlns="http://www.w3.org/2000/svg">
<path d="M34.01 55.7103C34.5818 56.1788 35.2584 56.5395 36.0216 56.7423C38.9086 57.5175 41.8877 55.7949 42.6618 52.9059L47.3605 35.367L50.6429 38.2219C52.9385 40.2175 55.568 40.6059 57.8484 39.2867C60.4372 37.7907 61.3273 34.469 59.8321 31.877C59.8263 31.8646 52.0265 17.097 52.0204 17.0887C49.4036 12.5562 45.1818 9.31873 40.1302 7.96431C29.6933 5.16778 18.928 11.3831 16.1309 21.819L11.2953 39.8659C10.5216 42.7533 12.2438 45.7339 15.1287 46.5078C15.8805 46.7092 16.6374 46.7394 17.3616 46.6264L17.2553 47.0234C16.4816 49.9108 18.2032 52.8905 21.0891 53.6637C21.9016 53.8815 22.722 53.8986 23.4997 53.7483C23.4513 56.1827 25.0564 58.4363 27.5111 59.094C30.2446 59.829 33.0595 58.3235 34.01 55.7103ZM26.803 53.2937L32.6377 31.5214C32.8688 30.659 32.3564 29.7693 31.4942 29.5408C30.6308 29.3078 29.745 29.8178 29.5131 30.6833L24.6052 48.9969C24.2936 50.1597 23.0938 50.855 21.9279 50.5427C20.7655 50.2295 20.0722 49.0286 20.3847 47.8652L25.2901 29.5517C25.5226 28.6873 25.01 27.8017 24.1461 27.5702C23.2812 27.3393 22.395 27.8509 22.1645 28.7142L18.6466 41.8373C18.3342 43.0032 17.1338 43.6975 15.9689 43.3846C14.8055 43.072 14.1122 41.871 14.4246 40.7052L19.2629 22.6607C21.5973 13.9485 30.5822 8.75846 39.2965 11.0943C43.5055 12.2221 47.0246 14.9218 49.2098 18.693L57.0704 33.5636C57.6196 34.5991 57.2522 35.8954 56.2293 36.4847C54.9146 37.2477 53.6207 36.5198 52.7676 35.7807L48.2932 31.8891L48.8801 29.699C49.1111 28.8367 48.6005 27.9499 47.7372 27.7194C46.8733 27.4879 45.9877 28.0006 45.7546 28.864L44.9312 31.9434C44.9281 31.9425 44.9292 31.9445 44.9292 31.9445L39.5372 52.0679C39.2279 53.2346 38.0234 53.9287 36.861 53.6156C35.6967 53.3036 35.0024 52.1032 35.3148 50.9373L39.9888 33.4903C40.2209 32.6273 39.7087 31.7402 38.8454 31.5097C37.982 31.2792 37.0933 31.791 36.8633 32.6528L31.0289 54.4235C30.718 55.5873 29.5181 56.2826 28.3517 55.9693C27.1852 55.6559 26.4909 54.4555 26.803 53.2937ZM82.0156 69.6436C82.0143 69.6391 73.4342 55.4365 73.4342 55.4365C72.7111 54.1817 71.5388 53.2862 70.141 52.9116C68.7432 52.5371 67.2792 52.7271 66.0265 53.4516C63.7434 54.7685 62.7651 57.2332 63.3616 60.3059L64.4223 64.5566L46.6402 59.7944C43.7527 59.0207 40.7708 60.7384 39.9967 63.6274C39.7937 64.388 39.7687 65.1537 39.8856 65.8849C37.1483 65.4009 34.4364 67.085 33.7036 69.8199C33.0457 72.272 34.1927 74.7874 36.3248 75.9643C35.8109 76.5623 35.4118 77.2795 35.1947 78.0931C34.4204 80.9795 36.142 83.9592 39.0279 84.7324L39.4276 84.8412C38.9671 85.411 38.6157 86.0809 38.4112 86.8319C37.6371 89.7209 39.3606 92.6994 42.2481 93.4731L60.294 98.3093C70.7324 101.106 81.4967 94.8915 84.2932 84.4547C85.5743 79.6704 84.7669 74.409 82.0156 69.6436ZM61.1315 95.1837L43.0862 90.3485C41.9209 90.0371 41.2275 88.8361 41.539 87.6734C41.8516 86.51 43.0524 85.8141 44.2167 86.1261L57.3407 89.6435C58.2056 89.8744 59.0943 89.3626 59.3258 88.4987C59.5579 87.6358 59.0437 86.7498 58.1788 86.5189L39.8632 81.6121C38.7028 81.2978 38.0094 80.0969 38.322 78.9335C38.6344 77.7677 39.8308 77.0756 40.9952 77.3875L59.3098 82.2949C60.1731 82.5254 61.0626 82.0172 61.293 81.1538C61.5224 80.2885 61.0108 79.4024 60.1467 79.1683L38.3731 73.3383C37.2137 73.0235 36.518 71.8252 36.8295 70.6624C37.1419 69.4966 38.3453 68.8005 39.5051 69.1138L61.2778 74.9469C62.1417 75.1784 63.031 74.6676 63.2615 73.8043C63.4926 72.9419 62.9788 72.0544 62.1144 71.8219L44.67 67.141C43.5072 66.8295 42.8119 65.6296 43.1243 64.4637C43.4348 63.3016 44.6342 62.6078 45.8027 62.92L65.3204 68.1473L66.1426 71.4448C66.3596 72.3129 67.2366 72.8382 68.1049 72.6237C68.971 72.4079 69.5014 71.5306 69.2828 70.6621L66.5209 59.6043C66.3087 58.4939 66.3277 57.0158 67.6457 56.2562C68.6892 55.6524 70.0284 56.0121 70.6486 57.0817L79.2196 71.2684C81.5339 75.2861 82.2263 79.6692 81.1688 83.6192C78.8338 92.3303 69.8452 97.5186 61.1315 95.1837Z" fill="white"/>
</svg>
