<svg width="65" height="65" viewBox="0 0 65 65" fill="none" xmlns="http://www.w3.org/2000/svg">
<circle cx="32.5" cy="32.5" r="32.5" fill="#FF7A7E"/>
<path d="M51.0488 29.2517L40.7986 18.9568C40.1842 18.3397 39.3672 18 38.4986 18C37.6295 18 36.8129 18.3397 36.1989 18.9568L32.4997 22.6715L28.8014 18.9568C27.5331 17.683 25.4695 17.683 24.2012 18.9568L13.9502 29.2517C12.6823 30.5259 12.6823 32.598 13.9559 33.8767L19.3157 39.0554C19.276 40.0517 19.6682 41.0118 20.4217 41.7183C21.0341 42.293 21.806 42.6137 22.5599 42.6224C22.6144 43.4626 22.9981 44.5409 23.6138 45.1086C24.1688 45.6599 24.9637 45.9752 25.7716 45.9835C25.8138 46.8044 26.2152 47.7319 26.7973 48.2688C27.3609 48.7883 28.332 49.3211 29.2654 49.3927C29.5876 50.7489 30.1816 51.4866 31.213 51.8329C31.3942 51.8938 31.7782 52 32.2566 52C32.8408 52 33.5659 51.8411 34.2333 51.2474C34.2989 51.1803 34.3846 51.0613 34.4813 50.9098C34.6604 50.9757 34.8904 51.0317 35.1724 51.0317C35.6578 51.0317 36.2854 50.8674 37.0171 50.3108C37.8726 49.6599 38.1104 48.8431 38.0948 48.1683C39.027 48.5137 40.0509 48.3215 40.7671 47.5961C41.6665 46.6846 41.5996 45.5866 41.391 44.7945C42.283 44.892 43.2602 44.4935 43.7481 44.0094C44.331 43.4334 44.6728 42.4396 44.4912 41.5635C45.2779 41.6228 46.3585 41.4964 47.1365 40.5733C47.8256 39.7553 47.8666 38.7742 47.2771 37.6585L51.0484 33.8713C52.3171 32.5975 52.3171 30.5255 51.0488 29.2517ZM20.9808 41.1164C20.3815 40.5544 20.079 39.7866 20.1368 38.9986L22.7632 34.4802C22.9747 34.274 23.3945 34.0615 23.8835 34.0689C24.3832 34.0731 24.8321 34.2941 25.2186 34.7268C26.2135 35.8401 25.5859 37.0455 25.547 37.118L22.7316 41.7911C22.1344 41.8364 21.4908 41.5944 20.9808 41.1164ZM24.1795 44.5129C23.6589 44.0328 23.3317 42.9427 23.3809 42.3033L26.1783 37.6614C26.5574 37.5321 27.8003 37.1913 28.5853 37.971C29.4663 38.8463 29.1617 39.8615 29.1006 40.0348L25.9598 45.1522C25.301 45.1979 24.6357 44.9657 24.1795 44.5129ZM26.5993 45.6788L29.7618 40.5268C30.018 40.4041 30.9297 40.0937 31.9746 41.2115C32.7789 42.0715 32.4067 43.2527 32.3398 43.4421L29.3642 48.5697C28.7227 48.5269 27.8971 48.165 27.3515 47.6619C26.8628 47.2115 26.5312 46.3223 26.5993 45.6788ZM31.4737 51.0523C30.6919 50.7896 30.2816 50.2194 30.0324 49.0539L33.0113 43.9209C33.7246 43.5195 34.6834 44.0575 35.0376 44.4931C35.509 45.0724 35.6299 45.9242 35.6525 46.1181C35.5073 47.1901 33.9964 50.317 33.6696 50.6505C32.8059 51.4183 31.7705 51.1523 31.4737 51.0523ZM36.5227 49.6546C35.7709 50.226 35.2175 50.2491 34.8994 50.1799C35.4098 49.2145 36.0222 47.8373 36.3132 46.8744C36.5096 47.0493 36.7744 47.2836 37.1651 47.6101C37.2758 47.9007 37.5451 48.8769 36.5227 49.6546ZM46.511 40.0414C45.7731 40.9175 44.5884 40.7878 44.0375 40.6656L37.3491 33.9948C37.1884 33.8347 36.9298 33.8355 36.7691 33.9969C36.6096 34.1583 36.6104 34.4185 36.7711 34.579L43.507 41.2971C43.9178 41.9044 43.6694 42.9332 43.1733 43.4231C42.7265 43.8665 41.5988 44.221 40.9573 43.8006C40.9487 43.7949 40.9384 43.7928 40.9298 43.7883L34.2349 36.8981C34.0767 36.7351 33.8172 36.733 33.6553 36.8907C33.493 37.0496 33.4901 37.3106 33.6479 37.4729L40.4027 44.4252C40.7527 45.3239 40.9409 46.2506 40.185 47.0164C39.5357 47.6743 38.5408 47.6842 37.7652 47.0407C37.3176 46.6693 37.0364 46.4178 36.8285 46.2325C36.6789 46.0987 36.5645 45.9975 36.4518 45.9069C36.3965 45.5236 36.2161 44.6397 35.6729 43.9719C35.1892 43.3778 34.2107 42.843 33.2786 42.974C33.3536 42.3317 33.2884 41.414 32.5723 40.6483C31.6516 39.6631 30.7042 39.4906 30.0139 39.5956C30.0557 38.9986 29.9336 38.1513 29.1621 37.3856C28.3459 36.5745 27.2678 36.584 26.5406 36.717C26.6763 35.9986 26.596 35.0352 25.8294 34.1772C25.1485 33.4152 24.3996 33.2501 23.8909 33.246C23.8835 33.2456 23.8765 33.2456 23.8696 33.2456C23.0694 33.2456 22.4357 33.6235 22.1344 33.9496C22.1139 33.9718 22.0962 33.9961 22.0811 34.022L19.6379 38.2246L14.5298 33.2892C13.5817 32.3369 13.5817 30.7869 14.5298 29.8338L24.7804 19.5389C25.729 18.5863 27.2732 18.5867 28.2213 19.5389L31.9197 23.2537L26.3943 28.8025C26.3472 28.8457 25.9048 29.2558 25.4441 29.7828C25.2969 29.9516 25.142 30.3237 25.7593 30.9236C27.0317 32.1595 30.7395 33.6939 34.0845 30.5452C34.9203 29.7638 36.1829 28.5044 36.749 27.9363L46.4417 37.8335C46.4507 37.8496 46.4613 37.8669 46.472 37.8858C46.8262 38.4906 47.1508 39.2814 46.511 40.0414ZM46.7745 36.999L37.0433 27.0635C36.9663 26.9853 36.8617 26.9408 36.7523 26.9404C36.6465 26.9528 36.5379 26.9836 36.4604 27.0619C36.442 27.0804 34.6141 28.9244 33.5245 29.9442C31.6442 31.714 29.7643 31.7338 28.5185 31.4403C27.2441 31.1393 26.4197 30.4785 26.1885 30.1821C26.5874 29.7416 26.9502 29.4077 26.9543 29.404C26.9567 29.4015 26.9575 29.3982 26.96 29.3958C26.9625 29.3937 26.9657 29.3929 26.9682 29.3904L36.7785 19.5385C37.2376 19.077 37.8484 18.823 38.4986 18.823C39.1483 18.823 39.7595 19.077 40.219 19.5385L50.4692 29.8334C51.4173 30.7861 51.4173 32.3357 50.4692 33.2888L46.7745 36.999Z" fill="white"/>
</svg>
