<svg width="65" height="65" viewBox="0 0 65 65" fill="none" xmlns="http://www.w3.org/2000/svg">
<circle cx="32.5" cy="32.5" r="32.5" fill="#FF865E"/>
<path d="M22.8281 25.1887C24.7439 25.1887 26.2969 23.6175 26.2969 21.6792V20.5094C26.2969 18.5712 24.7439 17 22.8281 17C20.9124 17 19.3594 18.5712 19.3594 20.5094V21.6792C19.3594 22.61 19.7248 23.5026 20.3753 24.1608C21.0259 24.8189 21.9082 25.1887 22.8281 25.1887ZM20.5156 20.5094C20.5156 19.2173 21.551 18.1698 22.8281 18.1698C24.1053 18.1698 25.1406 19.2173 25.1406 20.5094V21.6792C25.1406 22.9714 24.1053 24.0189 22.8281 24.0189C21.551 24.0189 20.5156 22.9714 20.5156 21.6792V20.5094ZM27.4531 35.717V33.9623H28.6094V35.717C28.6094 37.7642 27.6381 38.3958 26.875 38.5772V48H25.7188V37.4717H26.2969C26.6148 37.4717 27.4531 37.4717 27.4531 35.717ZM22.25 38.0566H23.4062V48H22.25V38.0566ZM29.7656 31.6226H30.9219V32.7925H29.7656V31.6226ZM25.5511 29.5813L23.5277 31.6226H28.6094V32.7925H23.5277L25.5511 34.8338L24.7302 35.6643L21.3192 32.2075L24.7302 28.7508L25.5511 29.5813ZM32.0781 31.6226H33.2344V32.7925H32.0781V31.6226ZM24.5625 25.7736C26.5513 25.7736 28.6094 27.5225 28.6094 30.4528H27.4531C27.4531 28.2536 25.9847 26.9434 24.5625 26.9434H20.5156C19.0992 26.9434 17.0469 28.3121 17.0469 30.4528V35.1321C17.0507 35.3342 17.096 35.5334 17.1798 35.717H18.7812V30.4528H19.9375V35.717H21.0938V42.7358H19.9375V48H18.7812V42.7358H13V35.717H15.9658C15.9152 35.5262 15.89 35.3296 15.8906 35.1321V30.4528C15.9856 27.9094 18.0017 25.8697 20.5156 25.7736H24.5625ZM18.0759 36.8868H14.1562V41.566H19.9375V36.8868H18.0759ZM40.1719 25.1887C39.2519 25.1887 38.3696 24.8189 37.7191 24.1608C37.0686 23.5026 36.7031 22.61 36.7031 21.6792V20.5094C36.7031 18.5712 38.2561 17 40.1719 17C42.0876 17 43.6406 18.5712 43.6406 20.5094V21.6792C43.6406 23.6175 42.0876 25.1887 40.1719 25.1887ZM37.8594 20.5094V21.6792C37.8594 22.9714 38.8947 24.0189 40.1719 24.0189C41.449 24.0189 42.4844 22.9714 42.4844 21.6792V20.5094C42.4844 19.2173 41.449 18.1698 40.1719 18.1698C38.8947 18.1698 37.8594 19.2173 37.8594 20.5094ZM35.5469 35.717C35.5469 36.1264 35.6278 37.4717 36.7031 37.4717H37.2812V48H36.125V38.5713C35.0555 38.2964 34.3906 37.2377 34.3906 35.717V33.9623H35.5469V35.717ZM39.5938 38.0566H40.75V48H39.5938V38.0566ZM37.4489 29.5813L38.2698 28.7508L41.6808 32.2075L38.2698 35.6643L37.4489 34.8338L39.4723 32.7925H34.3906V31.6226H39.4723L37.4489 29.5813ZM47.0342 35.717H50V42.7358H44.2188V48H43.0625V42.7358H41.9062V35.717H43.0625V30.4528H44.2188V35.717H45.8202C45.904 35.5334 45.9493 35.3342 45.9531 35.1321V30.4528C45.9531 28.3121 43.9008 26.9434 42.4844 26.9434H38.4375C37.0153 26.9434 35.5469 28.2536 35.5469 30.4528H34.3906C34.3906 27.5283 36.4487 25.7736 38.4375 25.7736H42.4844C44.9983 25.8697 47.0144 27.9094 47.1094 30.4528V35.1321C47.1101 35.3296 47.0848 35.5262 47.0342 35.717ZM48.8438 41.566V36.8868H43.0625V41.566H48.8438Z" fill="white"/>
</svg>
