<svg width="73" height="73" viewBox="0 0 73 73" fill="none" xmlns="http://www.w3.org/2000/svg">
<g filter="url(#filter0_d)">
<circle cx="36.5" cy="32.5" r="32.5" fill="#56CCF2"/>
<path d="M17.8914 34.8488C17.8898 34.8663 17.8898 34.8839 17.8914 34.9014C17.861 35.2142 17.861 35.5292 17.8914 35.842C18.2921 37.4428 19.9157 39.0553 22.6404 39.0553H34.5752L24.2788 40.8606C24.1993 40.8746 24.129 40.92 24.0842 40.9861C24.0394 41.0523 24.0239 41.1335 24.0414 41.2112L24.8487 44.7721C24.8798 44.9079 25.004 45.0033 25.1455 44.9999H25.1989L54.7556 39.8324C54.8351 39.8183 54.9053 39.773 54.9501 39.7069C54.995 39.6407 55.0104 39.5594 54.993 39.4818L54.1768 35.9151C54.1615 35.8531 54.1261 35.7976 54.0759 35.7573C54.0759 35.7573 54.0759 35.7398 54.0759 35.731L50.2173 22.7143C50.1792 22.5854 50.0568 22.4986 49.9205 22.504H45.7651L46.0619 22.4426C46.5055 22.3566 46.896 22.1003 47.1472 21.7303C47.3984 21.3603 47.4895 20.9071 47.4005 20.4708L47.3738 20.3423C47.1819 19.4349 46.2816 18.8503 45.3585 19.0336L29.9509 22.0687C29.7605 22.0605 29.5705 22.0913 29.3929 22.1593C29.1214 22.2705 28.8568 22.3973 28.6004 22.539L22.1358 22.6208C21.586 21.9503 20.7555 21.5632 19.88 21.5692C19.3026 21.5751 18.7417 21.7602 18.2772 22.0979C17.556 22.5916 16.9802 23.43 17.001 23.6958C16.9997 23.7114 16.9997 23.727 17.001 23.7425C17.7638 26.7718 17.9567 32.2928 17.8914 34.8488ZM54.34 39.3036L25.3681 44.3719L24.6884 41.3835L26.3951 41.0914L26.7631 42.7126C26.7942 42.8485 26.9185 42.9439 27.0599 42.9405H27.1252C27.2849 42.9056 27.3858 42.7501 27.3508 42.5929L26.9887 40.995L28.7221 40.7029L29.0901 42.3241C29.1212 42.46 29.2455 42.5554 29.387 42.552H29.4523C29.6119 42.5171 29.7128 42.3616 29.6778 42.2043L29.3157 40.6065L31.0491 40.3144L31.4172 41.9356C31.4482 42.0715 31.5725 42.1669 31.714 42.1635H31.7793C31.9389 42.1285 32.0398 41.9731 32.0048 41.8158L31.616 40.18L33.3494 39.8879L33.7175 41.5091C33.7486 41.645 33.8728 41.7404 34.0143 41.737H34.0796C34.1643 41.7194 34.2369 41.6663 34.2786 41.5917C34.3202 41.517 34.3267 41.4282 34.2962 41.3484L33.9341 39.7506L35.6675 39.4584L36.0356 41.0797C36.0667 41.2156 36.1909 41.311 36.3324 41.3076H36.3977C36.5573 41.2726 36.6582 41.1172 36.6233 40.9599L36.2611 39.362L37.9945 39.0699L38.3626 40.6912C38.3937 40.8271 38.5179 40.9224 38.6594 40.919H38.7247C38.8844 40.8841 38.9852 40.7287 38.9503 40.5714L38.5882 38.9735L40.3215 38.6814L40.6896 40.3027C40.7207 40.4385 40.8449 40.5339 40.9864 40.5305H41.0517C41.2114 40.4956 41.3123 40.3401 41.2773 40.1829L40.9152 38.585L42.6486 38.2929L43.0166 39.9142C43.0477 40.05 43.1719 40.1454 43.3134 40.142H43.3787C43.5384 40.1071 43.6393 39.9516 43.6043 39.7944L43.2066 38.1352L44.94 37.843L45.308 39.4643C45.3391 39.6002 45.4633 39.6955 45.6048 39.6921H45.6701C45.8298 39.6572 45.9307 39.5018 45.8957 39.3445L45.5247 37.7379L47.2581 37.4458L47.6261 39.067C47.6572 39.2029 47.7814 39.2983 47.9229 39.2949H47.9882C48.1479 39.26 48.2488 39.1045 48.2138 38.9472L47.8517 37.3494L49.5851 37.0572L49.9472 38.6522C49.9783 38.7881 50.1025 38.8835 50.244 38.8801H50.3093C50.469 38.8451 50.5699 38.6897 50.5349 38.5324L50.1728 36.9346L52.1436 36.5899L52.4998 38.1527C52.5309 38.2886 52.6551 38.3839 52.7966 38.3805H52.8619C53.0216 38.3456 53.1224 38.1902 53.0875 38.0329L52.7372 36.4935L53.6811 36.3299L54.34 39.3036ZM45.495 19.6062C46.0968 19.4875 46.6835 19.868 46.8099 20.4591L46.8366 20.5877C46.8953 20.8699 46.8365 21.1635 46.6733 21.4027C46.5089 21.646 46.2524 21.8143 45.961 21.8701L31.3044 24.7591C31.4651 24.4721 31.548 24.1491 31.5448 23.8214L42.2657 21.7123C42.3717 21.692 42.4587 21.6175 42.4938 21.5169C42.5289 21.4164 42.5068 21.305 42.4359 21.2248C42.365 21.1446 42.256 21.1077 42.1499 21.1281L31.4498 23.2547C31.3444 22.9554 31.1624 22.6878 30.9215 22.4777L45.495 19.6062ZM29.5888 22.7114C29.8461 22.6174 30.133 22.6454 30.3664 22.7873C30.6727 22.9681 30.888 23.2669 30.9601 23.6111C31.0233 23.9598 30.9386 24.3188 30.7256 24.6043C30.57 24.8318 30.3152 24.9745 30.037 24.9899C29.2623 25.0191 27.3894 24.7357 26.3506 24.5663C27.244 23.9908 28.8735 22.986 29.5888 22.7114ZM27.5497 23.1408C26.5138 23.7571 25.4987 24.4232 25.4275 24.467C25.3274 24.5421 25.28 24.6671 25.3058 24.7883C25.3291 24.9023 25.4189 24.9917 25.5343 25.0162C25.6679 25.0395 28.6716 25.5712 29.9153 25.5712H30.0607C30.1417 25.5674 30.2221 25.5567 30.3011 25.5391H30.3368H30.3961L42.8088 23.0911H49.6979L53.4644 35.7573L37.9144 38.4769H22.6404C20.2392 38.4769 18.8145 37.0835 18.4702 35.7077C18.4593 35.553 18.4593 35.3978 18.4702 35.2432C18.4757 35.2337 18.4806 35.224 18.485 35.214C18.6696 34.4923 19.1545 33.8805 19.8207 33.5285L20.5627 37.2325C20.5913 37.3707 20.7162 37.4691 20.8595 37.4662C22.3169 37.4662 23.982 36.5899 24.2432 35.1614C24.2384 35.0884 24.2384 35.0153 24.2432 34.9423L22.3198 23.205L27.5497 23.1408ZM20.3727 33.3035C20.6161 33.2359 20.8678 33.2015 21.1207 33.2013C22.3495 33.2013 23.4388 33.9959 23.6555 35.0475C23.4655 36.0991 22.2278 36.7768 21.097 36.8615L20.3727 33.3035ZM18.6186 22.577C18.9833 22.3087 19.4247 22.1605 19.88 22.1534C20.5911 22.1515 21.2625 22.4755 21.6965 23.0298C21.6941 23.0511 21.6941 23.0727 21.6965 23.094L23.3973 33.4613C22.7062 32.849 21.7889 32.5448 20.8622 32.6205C19.9355 32.6963 19.0818 33.1453 18.5028 33.8615C18.5028 31.0513 18.2683 26.4271 17.6124 23.687C17.861 23.2489 18.2045 22.8699 18.6186 22.577ZM30.7286 30.9432V30.9374C30.4212 30.9744 30.1196 30.8338 29.954 30.5763C29.7884 30.3187 29.7884 29.9903 29.954 29.7328C30.1196 29.4752 30.4212 29.3346 30.7286 29.3716H31.5804C31.6131 29.3716 31.8149 29.3453 32.4501 28.7436C32.4738 28.7261 32.4768 28.7319 32.4738 28.7085C32.4708 28.6852 32.4352 28.6355 32.3521 28.5917L31.7199 28.2616C31.4964 28.177 31.3489 27.9656 31.3489 27.7299C31.3489 27.4943 31.4964 27.2829 31.7199 27.1983L31.9989 27.0522C32.4184 26.8548 32.9062 26.8548 33.3257 27.0522L33.9549 27.3852C34.2291 27.5044 34.5346 27.5351 34.8275 27.4729L35.718 27.283C35.9129 27.2496 36.059 27.0888 36.0712 26.8945V26.8185C36.0712 26.3345 36.4698 25.9422 36.9616 25.9422H37.6502C38.142 25.9422 38.5407 26.3345 38.5407 26.8185V26.8945C38.5502 27.0832 38.6881 27.2417 38.8761 27.2801L39.7665 27.467C40.0648 27.5338 40.3771 27.5041 40.6569 27.3823L41.2803 27.0522C41.6997 26.8543 42.1876 26.8543 42.607 27.0522L42.886 27.1983C43.1095 27.2829 43.257 27.4943 43.257 27.7299C43.257 27.9656 43.1095 28.177 42.886 28.2616L42.2924 28.5771C42.3105 28.7838 42.3765 28.9836 42.4853 29.1613C42.6271 29.3085 42.8254 29.3902 43.0314 29.3862H44.1386C44.446 29.3492 44.7475 29.4898 44.9131 29.7474C45.0787 30.0049 45.0787 30.3333 44.9131 30.5909C44.7475 30.8484 44.446 30.989 44.1386 30.952H43.0404C43.0047 30.952 42.8029 30.9841 42.1737 31.5859C42.1499 31.6005 42.1469 31.5947 42.1499 31.618C42.1529 31.6414 42.1885 31.6911 42.2716 31.7349L42.9009 32.065C43.1244 32.1496 43.2718 32.3609 43.2718 32.5966C43.2718 32.8323 43.1244 33.0437 42.9009 33.1283L42.6218 33.2743C42.2024 33.4722 41.7145 33.4722 41.2951 33.2743L40.6629 32.9442C40.3889 32.8244 40.0832 32.7937 39.7903 32.8566L38.8998 33.0465C38.7049 33.0799 38.5588 33.2406 38.5466 33.435V33.5109C38.5466 33.9949 38.1479 34.3873 37.6562 34.3873H36.9676C36.4758 34.3873 36.0771 33.9949 36.0771 33.5109V33.435C36.0676 33.2463 35.9297 33.0878 35.7417 33.0494L34.8513 32.8624C34.5529 32.7956 34.2407 32.8254 33.9608 32.9472L33.3316 33.2772C32.9122 33.4751 32.4242 33.4751 32.0048 33.2772L31.7258 33.1312C31.5023 33.0466 31.3548 32.8352 31.3548 32.5995C31.3548 32.3638 31.5023 32.1525 31.7258 32.0679L32.3195 31.7524C32.3014 31.5457 32.2354 31.3458 32.1265 31.1682C31.9849 31.0207 31.7866 30.939 31.5804 30.9432H30.7286ZM30.7286 29.9617V29.9559C30.5534 29.9559 30.4317 30.061 30.4317 30.1545C30.4317 30.248 30.5534 30.3532 30.7286 30.3532H31.5804C32.0015 30.3437 32.4002 30.5394 32.646 30.876C32.732 31.025 32.9992 31.5421 32.8864 31.9218C32.8478 32.0573 32.7545 32.1714 32.6282 32.2373L31.9959 32.5674L31.9692 32.5849L31.9989 32.6112L32.2779 32.7573C32.523 32.8625 32.8016 32.8625 33.0467 32.7573L33.6759 32.4272C33.9481 32.2987 34.2467 32.2337 34.5485 32.2373C34.6988 32.2354 34.8487 32.254 34.9938 32.2928L35.8426 32.4768C36.3145 32.5632 36.6587 32.9656 36.6648 33.4379V33.5139C36.6648 33.6752 36.7977 33.806 36.9616 33.806H37.6502C37.8142 33.806 37.947 33.6752 37.947 33.5139V33.4379C37.9554 32.9607 38.3064 32.5564 38.7841 32.4739L39.6389 32.2928C40.0751 32.1922 40.5332 32.2428 40.9359 32.436L41.5682 32.766C41.8133 32.8712 42.0918 32.8712 42.3369 32.766L42.6159 32.62L42.6426 32.6025L42.6159 32.5849L41.9837 32.2373C41.7583 32.1322 41.5981 31.9267 41.5533 31.6852C41.5268 31.49 41.5975 31.2943 41.7433 31.1594C42.1648 30.7563 42.6397 30.3532 43.0314 30.3532H44.1297C44.3048 30.3532 44.4265 30.248 44.4265 30.1545C44.4265 30.061 44.3048 29.9559 44.1297 29.9559H43.0314C42.6152 29.9691 42.2185 29.7815 41.9689 29.4534C41.8828 29.3045 41.6157 28.7845 41.7284 28.4077C41.767 28.2721 41.8603 28.1581 41.9867 28.0922L42.6159 27.7621L42.6426 27.7445L42.6159 27.727L42.3369 27.581C42.0918 27.4758 41.8133 27.4758 41.5682 27.581L40.9359 27.9111C40.5262 28.103 40.0616 28.1494 39.6211 28.0425L38.7692 27.8643C38.2973 27.778 37.9531 27.3756 37.947 26.9033V26.8273C37.947 26.666 37.8142 26.5352 37.6502 26.5352H36.9616C36.7977 26.5352 36.6648 26.666 36.6648 26.8273V26.9033C36.6565 27.3804 36.3054 27.7847 35.8278 27.8672L34.973 28.0483C34.5372 28.1477 34.0802 28.0993 33.6759 27.9111L33.0437 27.5664C32.7986 27.4612 32.5201 27.4612 32.2749 27.5664L31.9959 27.7124L31.9692 27.7299L31.9959 27.7475L32.6282 28.0776C32.8536 28.1827 33.0137 28.3882 33.0585 28.6297C33.0851 28.8248 33.0143 29.0206 32.8686 29.1555C32.4441 29.5586 31.9692 29.9617 31.5804 29.9617H30.7286ZM37.4306 31.5976C36.0949 31.5976 35.0561 30.9666 35.0561 30.1633C35.0561 29.36 36.1009 28.729 37.4306 28.729C38.7603 28.729 39.8051 29.36 39.8051 30.1633C39.8051 30.9666 38.7662 31.5976 37.4306 31.5976ZM37.4306 29.3103C36.3769 29.3103 35.6497 29.7602 35.6497 30.1604C35.6497 30.5606 36.3828 31.0104 37.4306 31.0104C38.4783 31.0104 39.2115 30.5606 39.2115 30.1604C39.2115 29.7602 38.4843 29.3103 37.4306 29.3103Z" fill="white"/>
</g>
<defs>
<filter id="filter0_d" x="0" y="0" width="73" height="73" filterUnits="userSpaceOnUse" color-interpolation-filters="sRGB">
<feFlood flood-opacity="0" result="BackgroundImageFix"/>
<feColorMatrix in="SourceAlpha" type="matrix" values="0 0 0 0 0 0 0 0 0 0 0 0 0 0 0 0 0 0 127 0"/>
<feOffset dy="4"/>
<feGaussianBlur stdDeviation="2"/>
<feColorMatrix type="matrix" values="0 0 0 0 0 0 0 0 0 0 0 0 0 0 0 0 0 0 0.25 0"/>
<feBlend mode="normal" in2="BackgroundImageFix" result="effect1_dropShadow"/>
<feBlend mode="normal" in="SourceGraphic" in2="effect1_dropShadow" result="shape"/>
</filter>
</defs>
</svg>
