<svg width="539" height="237" viewBox="0 0 539 237" fill="none" xmlns="http://www.w3.org/2000/svg">
<path d="M300 0L506.98 177.077H93.0199L300 0Z" fill="#FF7A7E"/>
<g style="mix-blend-mode:multiply">
<path d="M239 0L445.98 177.077H32.0199L239 0Z" fill="#6E70FB"/>
</g>
<path d="M244.111 125.627H249.678V109.61C249.678 108.989 249.697 108.337 249.735 107.653L245.783 110.959C245.618 111.098 245.447 111.193 245.27 111.244C245.105 111.295 244.941 111.32 244.776 111.32C244.523 111.32 244.288 111.269 244.073 111.168C243.87 111.054 243.718 110.927 243.617 110.788L242.135 108.755L250.514 101.63H254.371V125.627H259.311V129.142H244.111V125.627ZM272.481 101.364C273.748 101.364 274.907 101.554 275.958 101.934C277.009 102.301 277.909 102.827 278.656 103.511C279.403 104.195 279.986 105.018 280.404 105.981C280.822 106.944 281.031 108.014 281.031 109.192C281.031 110.205 280.879 111.143 280.575 112.004C280.284 112.865 279.885 113.689 279.378 114.474C278.884 115.259 278.301 116.019 277.63 116.754C276.959 117.489 276.256 118.236 275.521 118.996L269.327 125.323C269.935 125.146 270.53 125.013 271.113 124.924C271.696 124.823 272.253 124.772 272.785 124.772H279.834C280.341 124.772 280.74 124.918 281.031 125.209C281.335 125.488 281.487 125.861 281.487 126.33V129.142H262.639V127.584C262.639 127.267 262.702 126.938 262.829 126.596C262.968 126.254 263.184 125.937 263.475 125.646L271.816 117.286C272.513 116.577 273.133 115.899 273.678 115.253C274.235 114.607 274.698 113.967 275.065 113.334C275.445 112.701 275.73 112.061 275.92 111.415C276.123 110.756 276.224 110.066 276.224 109.344C276.224 108.685 276.129 108.109 275.939 107.615C275.749 107.108 275.477 106.684 275.122 106.342C274.767 106 274.343 105.747 273.849 105.582C273.368 105.405 272.823 105.316 272.215 105.316C271.088 105.316 270.157 105.601 269.422 106.171C268.7 106.741 268.193 107.507 267.902 108.47C267.763 108.951 267.554 109.3 267.275 109.515C266.996 109.718 266.642 109.819 266.211 109.819C266.021 109.819 265.812 109.8 265.584 109.762L263.114 109.325C263.304 108.008 263.671 106.855 264.216 105.867C264.761 104.866 265.438 104.037 266.249 103.378C267.072 102.707 268.01 102.206 269.061 101.877C270.125 101.535 271.265 101.364 272.481 101.364Z" fill="white"/>
</svg>
