<svg width="539" height="237" viewBox="0 0 539 237" fill="none" xmlns="http://www.w3.org/2000/svg">
<path d="M300 0L506.98 177.077H93.0199L300 0Z" fill="#FF7A7E"/>
<g style="mix-blend-mode:multiply">
<path d="M239 0L445.98 177.077H32.0199L239 0Z" fill="#6E70FB"/>
</g>
<path d="M199.734 113.507H202.261C202.553 111.962 203.015 110.568 203.648 109.327C204.282 108.073 205.054 107.009 205.966 106.135C206.878 105.261 207.911 104.59 209.063 104.121C210.216 103.64 211.47 103.399 212.825 103.399C214.586 103.399 216.093 103.741 217.347 104.425C218.601 105.096 219.653 106.008 220.501 107.161L218.848 108.947C218.722 109.086 218.589 109.213 218.449 109.327C218.31 109.428 218.114 109.479 217.86 109.479C217.683 109.479 217.518 109.428 217.366 109.327C217.227 109.226 217.069 109.099 216.891 108.947C216.714 108.795 216.518 108.63 216.302 108.453C216.087 108.276 215.827 108.111 215.523 107.959C215.232 107.807 214.884 107.68 214.478 107.579C214.073 107.478 213.592 107.427 213.034 107.427C211.54 107.427 210.279 107.94 209.253 108.966C208.227 109.992 207.512 111.506 207.106 113.507H216.644V114.951C216.644 115.242 216.524 115.515 216.283 115.768C216.055 116.009 215.739 116.129 215.333 116.129H206.783C206.771 116.344 206.764 116.56 206.764 116.775C206.764 116.978 206.764 117.187 206.764 117.402C206.764 117.554 206.764 117.706 206.764 117.858C206.764 118.01 206.771 118.156 206.783 118.295H214.839V119.72C214.839 120.011 214.719 120.284 214.478 120.537C214.238 120.778 213.921 120.898 213.528 120.898H207.011C207.366 123.077 208.044 124.704 209.044 125.781C210.058 126.845 211.312 127.377 212.806 127.377C213.718 127.377 214.447 127.257 214.991 127.016C215.549 126.763 215.998 126.484 216.34 126.18C216.695 125.876 216.986 125.604 217.214 125.363C217.455 125.11 217.715 124.983 217.993 124.983C218.133 124.983 218.253 125.008 218.354 125.059C218.456 125.097 218.563 125.179 218.677 125.306L220.71 127.168C219.824 128.536 218.696 129.587 217.328 130.322C215.96 131.044 214.371 131.405 212.559 131.405C211.065 131.405 209.722 131.158 208.531 130.664C207.353 130.157 206.327 129.448 205.453 128.536C204.579 127.624 203.864 126.522 203.306 125.23C202.762 123.938 202.375 122.494 202.147 120.898H199.734V118.295H201.938C201.926 118.156 201.919 118.01 201.919 117.858C201.919 117.706 201.919 117.554 201.919 117.402C201.919 117.187 201.919 116.978 201.919 116.775C201.919 116.56 201.926 116.344 201.938 116.129H199.734V113.507ZM241.543 127.776C242.316 127.776 242.994 127.668 243.576 127.453C244.159 127.225 244.647 126.915 245.039 126.522C245.445 126.129 245.749 125.661 245.951 125.116C246.154 124.571 246.255 123.982 246.255 123.349C246.255 121.842 245.837 120.702 245.001 119.929C244.165 119.156 243.013 118.77 241.543 118.77C240.074 118.77 238.921 119.156 238.085 119.929C237.249 120.702 236.831 121.842 236.831 123.349C236.831 123.982 236.933 124.571 237.135 125.116C237.338 125.661 237.636 126.129 238.028 126.522C238.434 126.915 238.928 127.225 239.51 127.453C240.093 127.668 240.771 127.776 241.543 127.776ZM241.543 106.895C240.847 106.895 240.245 107.003 239.738 107.218C239.232 107.433 238.807 107.725 238.465 108.092C238.136 108.447 237.889 108.858 237.724 109.327C237.572 109.796 237.496 110.29 237.496 110.809C237.496 111.354 237.56 111.886 237.686 112.405C237.826 112.912 238.054 113.368 238.37 113.773C238.687 114.166 239.105 114.482 239.624 114.723C240.144 114.964 240.783 115.084 241.543 115.084C242.303 115.084 242.943 114.964 243.462 114.723C243.982 114.482 244.4 114.166 244.716 113.773C245.033 113.368 245.255 112.912 245.381 112.405C245.521 111.886 245.59 111.354 245.59 110.809C245.59 110.29 245.508 109.796 245.343 109.327C245.179 108.858 244.932 108.447 244.602 108.092C244.273 107.725 243.855 107.433 243.348 107.218C242.842 107.003 242.24 106.895 241.543 106.895ZM246.179 116.813C247.851 117.358 249.086 118.194 249.884 119.321C250.682 120.436 251.081 121.804 251.081 123.425C251.081 124.641 250.847 125.743 250.378 126.731C249.922 127.719 249.276 128.561 248.44 129.258C247.604 129.955 246.597 130.493 245.419 130.873C244.254 131.253 242.962 131.443 241.543 131.443C240.125 131.443 238.826 131.253 237.648 130.873C236.483 130.493 235.482 129.955 234.646 129.258C233.81 128.561 233.158 127.719 232.689 126.731C232.233 125.743 232.005 124.641 232.005 123.425C232.005 121.804 232.404 120.436 233.202 119.321C234 118.194 235.235 117.358 236.907 116.813C235.577 116.256 234.577 115.464 233.905 114.438C233.247 113.412 232.917 112.177 232.917 110.733C232.917 109.694 233.126 108.725 233.544 107.826C233.975 106.927 234.57 106.148 235.33 105.489C236.09 104.818 236.996 104.298 238.047 103.931C239.111 103.551 240.277 103.361 241.543 103.361C242.81 103.361 243.969 103.551 245.02 103.931C246.084 104.298 246.996 104.818 247.756 105.489C248.516 106.148 249.105 106.927 249.523 107.826C249.954 108.725 250.169 109.694 250.169 110.733C250.169 112.177 249.834 113.412 249.162 114.438C248.504 115.464 247.509 116.256 246.179 116.813ZM254.808 135.794C254.58 135.604 254.466 135.37 254.466 135.091C254.466 134.99 254.498 134.876 254.561 134.749C254.637 134.622 254.726 134.508 254.827 134.407C254.967 134.255 255.138 134.065 255.34 133.837C255.543 133.622 255.746 133.368 255.948 133.077C256.151 132.798 256.335 132.488 256.499 132.146C256.677 131.817 256.81 131.462 256.898 131.082C256.493 131.082 256.126 131.012 255.796 130.873C255.467 130.721 255.182 130.518 254.941 130.265C254.713 130.012 254.53 129.714 254.39 129.372C254.264 129.03 254.2 128.656 254.2 128.251C254.2 127.896 254.264 127.567 254.39 127.263C254.53 126.946 254.72 126.674 254.96 126.446C255.201 126.205 255.492 126.022 255.834 125.895C256.176 125.756 256.55 125.686 256.955 125.686C257.437 125.686 257.855 125.775 258.209 125.952C258.577 126.117 258.874 126.351 259.102 126.655C259.343 126.946 259.52 127.288 259.634 127.681C259.761 128.061 259.824 128.466 259.824 128.897C259.824 129.505 259.729 130.145 259.539 130.816C259.362 131.487 259.096 132.159 258.741 132.83C258.387 133.501 257.943 134.154 257.411 134.787C256.892 135.42 256.297 136.003 255.625 136.535L254.808 135.794ZM276.983 111.911C276.983 113.444 277.376 114.615 278.161 115.426C278.959 116.224 280.086 116.623 281.543 116.623C282.303 116.623 282.981 116.503 283.576 116.262C284.171 116.021 284.672 115.692 285.077 115.274C285.482 114.856 285.786 114.362 285.989 113.792C286.204 113.222 286.312 112.608 286.312 111.949C286.312 111.202 286.198 110.537 285.97 109.954C285.742 109.359 285.419 108.858 285.001 108.453C284.583 108.048 284.083 107.737 283.5 107.522C282.93 107.307 282.303 107.199 281.619 107.199C280.91 107.199 280.27 107.319 279.7 107.56C279.13 107.788 278.642 108.111 278.237 108.529C277.832 108.947 277.521 109.447 277.306 110.03C277.091 110.6 276.983 111.227 276.983 111.911ZM283.215 120.48C283.43 120.214 283.633 119.954 283.823 119.701C284.013 119.448 284.197 119.194 284.374 118.941C283.741 119.346 283.044 119.657 282.284 119.872C281.524 120.075 280.726 120.176 279.89 120.176C278.94 120.176 278.009 120.011 277.097 119.682C276.185 119.353 275.374 118.859 274.665 118.2C273.956 117.529 273.379 116.705 272.936 115.73C272.505 114.742 272.29 113.589 272.29 112.272C272.29 111.043 272.518 109.891 272.974 108.814C273.43 107.737 274.07 106.794 274.893 105.983C275.716 105.172 276.704 104.533 277.857 104.064C279.01 103.595 280.283 103.361 281.676 103.361C283.082 103.361 284.342 103.583 285.457 104.026C286.584 104.469 287.541 105.09 288.326 105.888C289.124 106.686 289.732 107.642 290.15 108.757C290.581 109.872 290.796 111.094 290.796 112.424C290.796 113.273 290.72 114.077 290.568 114.837C290.429 115.597 290.226 116.332 289.96 117.041C289.694 117.738 289.371 118.422 288.991 119.093C288.611 119.764 288.187 120.429 287.718 121.088L281.429 130.056C281.214 130.36 280.891 130.62 280.46 130.835C280.029 131.038 279.542 131.139 278.997 131.139H274.684L283.215 120.48ZM334.847 103.665V131.139H330.344V113.393C330.344 112.684 330.382 111.917 330.458 111.094L322.155 126.693C321.762 127.44 321.161 127.814 320.35 127.814H319.628C318.817 127.814 318.216 127.44 317.823 126.693L309.425 111.037C309.463 111.455 309.495 111.867 309.52 112.272C309.545 112.677 309.558 113.051 309.558 113.393V131.139H305.055V103.665H308.912C309.14 103.665 309.336 103.671 309.501 103.684C309.666 103.697 309.811 103.728 309.938 103.779C310.077 103.83 310.198 103.912 310.299 104.026C310.413 104.14 310.521 104.292 310.622 104.482L318.849 119.739C319.064 120.144 319.261 120.562 319.438 120.993C319.628 121.424 319.812 121.867 319.989 122.323C320.166 121.854 320.35 121.405 320.54 120.974C320.73 120.531 320.933 120.106 321.148 119.701L329.261 104.482C329.362 104.292 329.47 104.14 329.584 104.026C329.698 103.912 329.818 103.83 329.945 103.779C330.084 103.728 330.236 103.697 330.401 103.684C330.566 103.671 330.762 103.665 330.99 103.665H334.847Z" fill="white"/>
</svg>
