<svg width="78" height="103" viewBox="0 0 78 103" fill="none" xmlns="http://www.w3.org/2000/svg">
<path d="M58.5878 87.0128L66.7024 80.8241C68.9003 79.243 69.9007 76.912 70.8683 74.6577C71.0153 74.3146 71.1632 73.9705 71.3155 73.628L71.3473 73.5563L73.5806 66.1919C73.7959 65.6806 73.9049 65.1411 73.9049 64.5869C73.9049 63.4737 73.4684 62.4274 72.6762 61.6405C71.6983 60.6687 70.3013 60.2394 68.943 60.4913C67.5833 60.7431 66.4373 61.6438 65.8775 62.9007L65.852 62.958L63.6715 69.5573C63.4089 69.3609 63.1213 69.1937 62.8127 69.062C61.5792 68.5354 60.1689 68.6332 59.0222 69.3202L51.4129 72.8154C47.3477 74.6821 44.8043 78.759 44.9286 83.2055L44.9252 85.9921H44.9241V100.471H28.981V85.9921H28.9795L28.9764 83.2055C29.1007 78.759 26.5572 74.6824 22.4923 72.8154L14.8829 69.3202C13.7358 68.6329 12.3257 68.5352 11.0918 69.062C10.7832 69.1937 10.4958 69.3609 10.2336 69.5573L8.07261 63.0177L8.02743 62.9007C7.46766 61.6438 6.32204 60.7431 4.96239 60.4911C3.60168 60.2394 2.20683 60.6687 1.22877 61.6403C0.436529 62.4276 0 63.4739 0 64.5867C0 65.1405 0.109238 65.68 0.324533 66.1917L2.53518 73.4813L2.5899 73.6278C2.7422 73.9698 2.88962 74.3135 3.03661 74.6562C4.00406 76.911 5.00439 79.2426 7.20294 80.8241L15.3175 87.0128V100.471H4.14278V103H15.3178H28.9812H44.9243H58.5878H70.0657V100.471H58.5878V87.0128ZM8.73822 78.8068L8.70725 78.7838C7.07292 77.6142 6.24992 75.696 5.37834 73.6647C5.23729 73.3357 5.0956 73.0057 4.95009 72.6771L2.74135 65.394L2.68684 65.248C2.59308 65.0372 2.54557 64.8145 2.54557 64.5867C2.54557 64.1494 2.71717 63.7382 3.02855 63.4286C3.41863 63.0411 3.95273 62.8765 4.49553 62.977C5.01987 63.0742 5.44728 63.3998 5.67679 63.8741L8.58041 72.6609C8.5768 72.7279 8.57404 72.7951 8.57404 72.8617C8.57404 74.2864 9.29799 75.5923 10.5115 76.3561L14.9434 79.1413L16.3039 77.0039L11.8728 74.2191C11.4011 73.9224 11.1194 73.4149 11.1194 72.8617C11.1194 72.8008 11.1236 72.7378 11.1321 72.6746L11.1372 72.6274C11.1402 72.5981 11.1463 72.569 11.1502 72.5492C11.2547 72.0215 11.5998 71.5975 12.097 71.3853C12.5934 71.173 13.1413 71.216 13.599 71.5041L13.6699 71.5486L21.4245 75.1104C24.5684 76.5546 26.5341 79.7103 26.4319 83.1502L26.4312 83.1696L26.4344 85.9915H18.159L8.73822 78.8068ZM26.4357 100.471H17.8629V88.5208H26.4357V100.471ZM56.0424 100.471H47.4697V88.5208H56.0424V100.471ZM55.7461 85.9919H47.4705L47.4739 83.1894L47.4733 83.1507C47.3713 79.7107 49.3367 76.5548 52.4809 75.1108L60.2355 71.549L60.3063 71.5045C60.7635 71.2169 61.3107 71.1733 61.8081 71.3857C62.3053 71.5979 62.6504 72.0221 62.7533 72.5401C62.759 72.5709 62.7654 72.6012 62.7681 72.6318L62.773 72.6752C62.7815 72.7384 62.7857 72.8015 62.7857 72.8624C62.7857 73.4156 62.5041 73.923 62.0329 74.2193L57.6013 77.0045L58.9618 79.1419L63.3941 76.3563C64.6069 75.5932 65.3311 74.287 65.3311 72.8624C65.3311 72.7958 65.3281 72.7285 65.3247 72.6615L68.2281 63.875C68.4576 63.4004 68.8855 63.0748 69.4096 62.9774C69.9522 62.8765 70.4861 63.0415 70.8764 63.4293C71.188 63.7388 71.3594 64.15 71.3594 64.5873C71.3594 64.8155 71.3118 65.0381 71.2183 65.2486L71.1867 65.3198L68.955 72.6777C68.8093 73.0067 68.6676 73.337 68.5264 73.6664C67.655 75.6969 66.832 77.6148 65.1981 78.7843L55.7461 85.9919ZM12.7692 63.5808L12.7699 45.684L2.69257 39.9419L26.7653 26.7234C26.7439 26.6216 26.718 26.5286 26.6853 26.4503C26.5591 26.1483 26.1765 25.7424 25.8065 25.35C25.0603 24.5584 24.1319 23.5732 24.1319 22.2242C24.1319 20.8752 25.0603 19.8902 25.8065 19.0987C26.1767 18.706 26.5591 18.3002 26.6853 17.9982C26.8249 17.6635 26.8474 17.0842 26.8694 16.5238C26.911 15.46 26.9626 14.1359 27.8876 13.2166C28.8126 12.2973 30.1455 12.2461 31.2165 12.205C31.7803 12.1835 32.3634 12.161 32.7002 12.0221C33.0042 11.8969 33.4127 11.5167 33.8077 11.1492C34.6046 10.4078 35.596 9.48537 36.9537 9.48537C38.3115 9.48537 39.3029 10.4078 40.0996 11.1492C40.4948 11.5169 40.9033 11.8969 41.207 12.0221C41.5439 12.161 42.1272 12.1833 42.691 12.205C43.7617 12.2463 45.0949 12.2977 46.0197 13.2166C46.9451 14.1356 46.9967 15.46 47.038 16.5242C47.0599 17.0844 47.0826 17.6637 47.2221 17.9984C47.3481 18.3002 47.7308 18.706 48.1007 19.0984C48.8469 19.8902 49.7753 20.8752 49.7753 22.2242C49.7753 23.5732 48.8469 24.5584 48.1007 25.35C47.7306 25.7428 47.3481 26.1485 47.2219 26.4505C47.1893 26.5286 47.1634 26.6216 47.1422 26.7232L49.6453 28.0978L71.2185 39.9419L45.553 54.5639L38.2254 50.3893V74.9631L58.5927 62.1867V50.1577H61.138V63.5808L36.9546 78.7508L12.7692 63.5808ZM35.68 74.9603V50.3899L28.3536 54.5635L15.315 47.1339L15.3146 62.1865L35.68 74.9603ZM36.9535 46.7493L38.828 45.6815L36.9522 43.7723L35.077 45.68L36.9535 46.7493ZM66.03 39.9825L59.8783 36.6049L39.512 48.207L45.553 51.6485L66.03 39.9825ZM47.7168 29.9282L46.8927 29.4757C46.7676 30.1096 46.5239 30.7307 46.0199 31.2316C45.4497 31.7979 44.7251 32.0341 44.0023 32.1422V42.7338L57.2712 35.175L47.7168 29.9282ZM26.6773 22.224C26.6773 22.5738 27.2245 23.1544 27.6642 23.621C28.1899 24.1784 28.7331 24.755 29.0362 25.4812C29.3505 26.2342 29.3834 27.0802 29.4125 27.8266C29.4369 28.4496 29.467 29.2249 29.6872 29.4437C29.9071 29.6622 30.6875 29.6923 31.3145 29.7164C32.0658 29.745 32.9172 29.7781 33.6751 30.0902C34.406 30.3914 34.9862 30.9311 35.5472 31.4533C36.017 31.8902 36.6014 32.4339 36.9535 32.4339C37.3054 32.4339 37.89 31.8902 38.3596 31.4533C38.9204 30.9311 39.5008 30.3914 40.2319 30.0902C40.9896 29.7781 41.841 29.7454 42.5921 29.7164C43.2193 29.6923 43.9997 29.6622 44.2199 29.4437C44.4398 29.2249 44.4702 28.4494 44.4944 27.8262C44.5234 27.0802 44.5565 26.2342 44.8704 25.4815C45.174 24.755 45.717 24.1786 46.2426 23.6212C46.6823 23.1546 47.2296 22.5738 47.2296 22.224C47.2296 21.8742 46.6823 21.2936 46.2426 20.827C45.717 20.2696 45.174 19.6932 44.8707 18.9669C44.5565 18.214 44.5236 17.368 44.4944 16.6218C44.4702 15.9988 44.4398 15.2233 44.2199 15.0045C43.9997 14.786 43.2193 14.7559 42.5921 14.7318C41.841 14.703 40.9896 14.6701 40.2319 14.358C39.5008 14.0568 38.9207 13.5171 38.3596 12.9949C37.89 12.558 37.3054 12.0143 36.9535 12.0143C36.6014 12.0143 36.017 12.558 35.5472 12.9949C34.9864 13.5171 34.406 14.0568 33.6749 14.358C32.9172 14.6701 32.0658 14.7028 31.3147 14.7318C30.6877 14.7559 29.9071 14.786 29.6869 15.0045C29.467 15.2231 29.4369 15.9986 29.4125 16.6216C29.3836 17.3678 29.3505 18.214 29.0362 18.9669C28.7331 19.6932 28.1899 20.2696 27.6642 20.827C27.2245 21.2936 26.6773 21.8744 26.6773 22.224ZM27.0145 29.4757L16.6373 35.1736L29.905 42.7332V34.0119H32.4504V44.1833L32.7963 44.3805L36.9527 40.1524L41.1086 44.382L41.4569 44.1839V32.3526C41.3644 32.373 41.2791 32.3964 41.2068 32.4263C40.9031 32.5515 40.4943 32.9317 40.0994 33.2992C39.3027 34.0406 38.3113 34.963 36.9535 34.963C35.5958 34.963 34.6044 34.0406 33.8075 33.2992C33.4123 32.9315 33.004 32.5515 32.7 32.4263C32.363 32.2874 31.7799 32.2651 31.2161 32.2434C30.1451 32.2019 28.8122 32.1507 27.8872 31.2316C27.3832 30.7307 27.1395 30.1094 27.0145 29.4757ZM7.88001 39.9823L28.3536 51.6487L34.3946 48.2072L14.0298 36.6056L7.88001 39.9823ZM36.9535 29.1113C33.1312 29.1113 30.0217 26.0218 30.0217 22.224C30.0217 18.4264 33.1312 15.3369 36.9537 15.3369C38.6175 15.3369 40.2266 15.9316 41.4847 17.0117L39.82 18.925C39.0246 18.242 38.0067 17.8658 36.9535 17.8658C34.5346 17.8658 32.5668 19.8207 32.5668 22.224C32.5668 24.6273 34.5348 26.5824 36.9535 26.5824C39.3722 26.5824 41.34 24.6271 41.34 22.224C41.34 21.5448 41.1875 20.8948 40.8867 20.2921L43.1674 19.1691C43.6438 20.1239 43.8854 21.1517 43.8854 22.224C43.8854 26.0218 40.7758 29.1113 36.9535 29.1113ZM35.6808 0H38.2262V7.97792H35.6808V0ZM47.1869 3.09656L48.9869 4.88491L43.3091 10.5261L41.5091 8.73774L47.1869 3.09656ZM26.7163 3.09509L32.3943 8.73642L30.5946 10.5245L24.9166 4.88314L26.7163 3.09509ZM7.42699 31.9124L8.65589 34.1273L4.75623 36.2632L3.52733 34.0483L7.42699 31.9124ZM21.5353 24.1854L22.7642 26.4002L11.4217 32.6126L10.1928 30.3978L21.5353 24.1854ZM74.2464 72.2648L75.5628 67.924L78 68.6536L76.6836 72.9944L74.2464 72.2648ZM72.9235 76.1953C73.0749 75.8421 73.227 75.4878 73.3838 75.1357L75.7117 76.1586C75.5596 76.5004 75.412 76.8444 75.265 77.187C74.2986 79.4395 73.2993 81.7684 71.1057 83.3498L63.5964 89.2317V95.573H61.0511V88.0051L69.5948 81.3145C71.2289 80.1448 72.0521 78.2266 72.9235 76.1953Z" fill="white"/>
</svg>
