<svg width="539" height="237" viewBox="0 0 539 237" fill="none" xmlns="http://www.w3.org/2000/svg">
<path d="M300 0L506.98 177.077H93.0199L300 0Z" fill="#FF7A7E"/>
<g style="mix-blend-mode:multiply">
<path d="M239 0L445.98 177.077H32.0199L239 0Z" fill="#6E70FB"/>
</g>
<path d="M206.145 131.31C204.663 131.107 203.269 130.702 201.965 130.094C200.673 129.486 199.571 128.732 198.659 127.833L200.103 125.686C200.229 125.496 200.394 125.344 200.597 125.23C200.812 125.103 201.034 125.04 201.262 125.04C201.54 125.04 201.838 125.141 202.155 125.344C202.471 125.534 202.832 125.762 203.238 126.028C203.643 126.294 204.105 126.56 204.625 126.826C205.144 127.092 205.758 127.288 206.468 127.415L207.19 118.903C206.29 118.65 205.397 118.352 204.511 118.01C203.637 117.668 202.845 117.218 202.136 116.661C201.439 116.091 200.875 115.375 200.445 114.514C200.014 113.653 199.799 112.576 199.799 111.284C199.799 110.321 199.989 109.384 200.369 108.472C200.761 107.547 201.325 106.724 202.06 106.002C202.794 105.28 203.7 104.685 204.777 104.216C205.853 103.747 207.088 103.481 208.482 103.418L208.691 101.024C208.716 100.72 208.843 100.448 209.071 100.207C209.299 99.9665 209.596 99.8462 209.964 99.8462H211.693L211.37 103.589C212.712 103.804 213.871 104.184 214.847 104.729C215.822 105.274 216.671 105.888 217.393 106.572L216.253 108.301C216.075 108.554 215.898 108.744 215.721 108.871C215.543 108.998 215.328 109.061 215.075 109.061C214.885 109.061 214.657 109.004 214.391 108.89C214.137 108.763 213.84 108.618 213.498 108.453C213.168 108.276 212.801 108.098 212.396 107.921C211.99 107.744 211.541 107.598 211.047 107.484L210.382 115.35C211.294 115.629 212.193 115.939 213.08 116.281C213.979 116.61 214.783 117.041 215.493 117.573C216.215 118.105 216.797 118.77 217.241 119.568C217.684 120.353 217.906 121.341 217.906 122.532C217.906 123.71 217.709 124.818 217.317 125.857C216.924 126.883 216.348 127.795 215.588 128.593C214.84 129.378 213.916 130.018 212.814 130.512C211.712 131.006 210.451 131.304 209.033 131.405L208.805 134.198C208.779 134.489 208.653 134.755 208.425 134.996C208.197 135.249 207.899 135.376 207.532 135.376H205.803L206.145 131.31ZM213.46 123.254C213.46 122.773 213.371 122.355 213.194 122C213.029 121.633 212.788 121.31 212.472 121.031C212.168 120.752 211.807 120.512 211.389 120.309C210.971 120.106 210.515 119.923 210.021 119.758L209.375 127.472C210.717 127.295 211.731 126.845 212.415 126.123C213.111 125.388 213.46 124.432 213.46 123.254ZM204.226 110.828C204.226 111.309 204.308 111.734 204.473 112.101C204.637 112.468 204.865 112.798 205.157 113.089C205.461 113.368 205.815 113.621 206.221 113.849C206.626 114.064 207.069 114.261 207.551 114.438L208.14 107.408C207.443 107.497 206.848 107.649 206.354 107.864C205.86 108.067 205.454 108.32 205.138 108.624C204.821 108.928 204.587 109.27 204.435 109.65C204.295 110.017 204.226 110.41 204.226 110.828ZM224.502 127.624H230.069V111.607C230.069 110.986 230.088 110.334 230.126 109.65L226.174 112.956C226.009 113.095 225.838 113.19 225.661 113.241C225.496 113.292 225.331 113.317 225.167 113.317C224.913 113.317 224.679 113.266 224.464 113.165C224.261 113.051 224.109 112.924 224.008 112.785L222.526 110.752L230.905 103.627H234.762V127.624H239.702V131.139H224.502V127.624ZM246.545 127.624H252.112V111.607C252.112 110.986 252.131 110.334 252.169 109.65L248.217 112.956C248.052 113.095 247.881 113.19 247.704 113.241C247.539 113.292 247.374 113.317 247.21 113.317C246.956 113.317 246.722 113.266 246.507 113.165C246.304 113.051 246.152 112.924 246.051 112.785L244.569 110.752L252.948 103.627H256.805V127.624H261.745V131.139H246.545V127.624ZM264.997 128.251C264.997 127.896 265.06 127.567 265.187 127.263C265.326 126.946 265.516 126.674 265.757 126.446C265.997 126.205 266.289 126.022 266.631 125.895C266.973 125.756 267.346 125.686 267.752 125.686C268.233 125.686 268.651 125.775 269.006 125.952C269.36 126.117 269.658 126.351 269.899 126.655C270.139 126.946 270.317 127.288 270.431 127.681C270.545 128.061 270.602 128.466 270.602 128.897C270.602 129.505 270.507 130.145 270.317 130.816C270.139 131.487 269.873 132.159 269.519 132.83C269.164 133.501 268.727 134.154 268.208 134.787C267.688 135.42 267.093 136.003 266.422 136.535L265.605 135.794C265.377 135.604 265.263 135.37 265.263 135.091C265.263 134.99 265.294 134.876 265.358 134.749C265.434 134.622 265.522 134.508 265.624 134.407C265.763 134.255 265.934 134.065 266.137 133.837C266.339 133.622 266.542 133.368 266.745 133.077C266.947 132.798 267.131 132.488 267.296 132.146C267.473 131.817 267.6 131.462 267.676 131.082C267.283 131.082 266.922 131.012 266.593 130.873C266.263 130.721 265.978 130.518 265.738 130.265C265.51 130.012 265.326 129.714 265.187 129.372C265.06 129.03 264.997 128.656 264.997 128.251ZM289.91 120.784H293.368V123.501C293.368 123.754 293.285 123.976 293.121 124.166C292.956 124.343 292.715 124.432 292.399 124.432H289.91V131.139H285.806V124.432H274.216C273.899 124.432 273.62 124.337 273.38 124.147C273.139 123.944 272.987 123.697 272.924 123.406L272.449 121.031L285.464 103.646H289.91V120.784ZM285.806 111.797C285.806 111.392 285.818 110.955 285.844 110.486C285.869 110.017 285.913 109.53 285.977 109.023L277.446 120.784H285.806V111.797ZM314.879 103.665V105.698C314.879 106.306 314.809 106.8 314.67 107.18C314.543 107.547 314.416 107.858 314.29 108.111L303.897 129.543C303.681 129.986 303.377 130.366 302.985 130.683C302.592 130.987 302.06 131.139 301.389 131.139H297.988L308.628 110.144C309.071 109.283 309.565 108.542 310.11 107.921H296.962C296.67 107.921 296.417 107.813 296.202 107.598C295.986 107.383 295.879 107.129 295.879 106.838V103.665H314.879ZM334.889 105.66C334.889 106.331 334.673 106.876 334.243 107.294C333.825 107.712 333.122 107.921 332.134 107.921H324.572L323.584 113.659C324.825 113.406 325.959 113.279 326.985 113.279C328.429 113.279 329.695 113.494 330.785 113.925C331.887 114.356 332.811 114.951 333.559 115.711C334.306 116.471 334.87 117.364 335.25 118.39C335.63 119.403 335.82 120.499 335.82 121.677C335.82 123.134 335.56 124.464 335.041 125.667C334.534 126.87 333.825 127.903 332.913 128.764C332.001 129.613 330.918 130.271 329.664 130.74C328.422 131.209 327.067 131.443 325.598 131.443C324.736 131.443 323.919 131.354 323.147 131.177C322.374 131 321.646 130.765 320.962 130.474C320.29 130.17 319.663 129.828 319.081 129.448C318.511 129.055 317.998 128.644 317.542 128.213L318.986 126.218C319.29 125.787 319.695 125.572 320.202 125.572C320.518 125.572 320.835 125.673 321.152 125.876C321.481 126.079 321.861 126.3 322.292 126.541C322.722 126.782 323.223 127.003 323.793 127.206C324.363 127.409 325.053 127.51 325.864 127.51C326.725 127.51 327.485 127.371 328.144 127.092C328.802 126.813 329.347 126.427 329.778 125.933C330.221 125.426 330.55 124.831 330.766 124.147C330.994 123.45 331.108 122.697 331.108 121.886C331.108 120.391 330.671 119.226 329.797 118.39C328.935 117.541 327.662 117.117 325.978 117.117C324.648 117.117 323.311 117.358 321.969 117.839L319.043 117.003L321.323 103.665H334.889V105.66ZM362.056 119.739C362.272 120.144 362.468 120.569 362.645 121.012C362.835 121.443 363.019 121.88 363.196 122.323C363.374 121.867 363.557 121.417 363.747 120.974C363.937 120.531 364.14 120.106 364.355 119.701L372.487 104.482C372.589 104.292 372.69 104.14 372.791 104.026C372.905 103.912 373.026 103.83 373.152 103.779C373.292 103.728 373.444 103.697 373.608 103.684C373.773 103.671 373.969 103.665 374.197 103.665H378.054V131.139H373.551V113.393C373.551 113.064 373.558 112.703 373.57 112.31C373.596 111.917 373.627 111.518 373.665 111.113L365.362 126.693C365.172 127.048 364.925 127.326 364.621 127.529C364.317 127.719 363.963 127.814 363.557 127.814H362.854C362.449 127.814 362.094 127.719 361.79 127.529C361.486 127.326 361.239 127.048 361.049 126.693L352.632 111.056C352.683 111.474 352.715 111.886 352.727 112.291C352.753 112.684 352.765 113.051 352.765 113.393V131.139H348.262V103.665H352.119C352.347 103.665 352.544 103.671 352.708 103.684C352.873 103.697 353.019 103.728 353.145 103.779C353.285 103.83 353.411 103.912 353.525 104.026C353.639 104.14 353.747 104.292 353.848 104.482L362.056 119.739Z" fill="white"/>
</svg>
