<svg width="201" height="61" viewBox="0 0 201 61" fill="none" xmlns="http://www.w3.org/2000/svg">
 <title>TopMonks Caffe Logo</title>
  <path d="M7.95973 30.9571V42.7158H3.87051V30.9571H0.5V27.6448H11.3302V30.9571H7.95973Z" fill="white"/>
  <path
    d="M27.3897 40.823C25.7788 42.2899 23.4987 43.0707 21.1691 43.0707C18.8147 43.0707 16.5595 42.3136 14.9486 40.823C13.2633 39.2852 12.4702 37.1795 12.4702 35.1921C12.4702 33.1811 13.2633 31.0517 14.9486 29.5375C16.5595 28.0707 18.8395 27.2899 21.1691 27.2899C23.5235 27.2899 25.7788 28.047 27.3897 29.5375C29.075 31.0517 29.868 33.1811 29.868 35.1921C29.868 37.1795 29.0502 39.2852 27.3897 40.823ZM17.9473 32.3057C17.1047 33.0864 16.6834 34.1984 16.6834 35.2631C16.6834 36.588 17.3525 37.5344 17.9473 38.0549C18.7156 38.7647 19.7813 39.2615 21.1443 39.2615C22.5322 39.2615 23.5731 38.7883 24.3166 38.0785C25.0601 37.3688 25.6053 36.3278 25.6053 35.1921C25.6053 34.0091 25.0601 32.9681 24.3166 32.3057C23.4492 31.5249 22.2348 31.0991 21.1443 31.0991C20.0043 31.0991 18.8147 31.4776 17.9473 32.3057Z"
    fill="white"/>
  <path
    d="M36.5595 37.7237V42.7158H32.4703V27.6448H39.013C40.3761 27.6448 41.8135 27.905 43.0031 28.9934C44.2423 30.129 44.4653 31.383 44.4653 32.6606C44.4653 33.8672 44.2918 35.2631 43.0775 36.4224C41.8631 37.5817 40.3761 37.7237 39.1369 37.7237H36.5595V37.7237ZM36.5595 34.5533H37.9226C38.3439 34.5533 39.1617 34.506 39.6574 34.0801C40.1531 33.6779 40.1778 33.0628 40.1778 32.7079C40.1778 32.3057 40.1283 31.7615 39.707 31.3593C39.2361 30.8861 38.4678 30.8151 37.9474 30.8151H36.5595V34.5533Z"
    fill="white"/>
  <path
    d="M45.0601 42.7158L47.7367 27.6448H51.7763L54.9733 35.689L58.3686 27.6448H62.4579L64.837 42.7158H60.7478L59.583 34.0328L55.7664 42.7158H54.1307L50.4876 34.0328L49.1493 42.7158H45.0601V42.7158Z"
    fill="white"/>
  <path
    d="M81.6648 40.823C80.0539 42.2899 77.7739 43.0707 75.4442 43.0707C73.0898 43.0707 70.8346 42.3136 69.2237 40.823C67.5384 39.2852 66.7454 37.1795 66.7454 35.1921C66.7454 33.1811 67.5384 31.0517 69.2237 29.5375C70.8346 28.0707 73.1146 27.2899 75.4442 27.2899C77.7986 27.2899 80.0539 28.047 81.6648 29.5375C83.3501 31.0517 84.1431 33.1811 84.1431 35.1921C84.1679 37.1795 83.3501 39.2852 81.6648 40.823ZM72.2472 32.3057C71.4046 33.0864 70.9833 34.1984 70.9833 35.2631C70.9833 36.588 71.6524 37.5344 72.2472 38.0549C73.0155 38.7647 74.0812 39.2615 75.4442 39.2615C76.8321 39.2615 77.873 38.7883 78.6165 38.0785C79.36 37.3688 79.9052 36.3278 79.9052 35.1921C79.9052 34.0091 79.36 32.9681 78.6165 32.3057C77.7491 31.5249 76.5347 31.0991 75.4442 31.0991C74.3042 31.0991 73.0899 31.4776 72.2472 32.3057Z"
    fill="white"/>
  <path
    d="M86.7701 42.7158V27.6448H90.8594L98.4182 36.8719V27.6448H102.507V42.7158H98.4182L90.8594 33.4886V42.7158H86.7701V42.7158Z"
    fill="white"/>
  <path
    d="M109.918 33.8672L114.949 27.6448H120.004L113.734 34.7899L120.574 42.7158H115.271L109.918 36.1858V42.7158H105.828V27.6448H109.918V33.8672Z"
    fill="white"/>
  <path
    d="M122.26 38.1968C123.127 38.9776 124.465 39.7347 125.878 39.7347C126.696 39.7347 127.216 39.4745 127.464 39.2142C127.712 38.9776 127.861 38.6464 127.861 38.2678C127.861 37.9839 127.737 37.629 127.414 37.3688C127.018 37.0375 126.398 36.8719 125.382 36.588L124.317 36.2804C123.647 36.0675 122.681 35.7363 122.037 35.0502C121.244 34.2221 121.144 33.1574 121.144 32.3767C121.144 30.5312 121.913 29.3956 122.582 28.7331C123.375 27.976 124.713 27.3136 126.621 27.3136C128.183 27.3136 130.017 27.7868 131.504 28.5439L129.868 31.5959C128.629 30.6732 127.712 30.5786 127.167 30.5786C126.77 30.5786 126.225 30.6732 125.828 31.0281C125.581 31.2647 125.432 31.5013 125.432 31.8325C125.432 32.0927 125.481 32.3057 125.655 32.5186C125.779 32.6606 126.051 32.9208 127.018 33.2047L128.282 33.5596C129.273 33.8435 130.314 34.1984 131.157 35.0502C131.95 35.8546 132.173 36.7063 132.173 37.7473C132.173 39.1196 131.826 40.4681 130.686 41.5565C129.348 42.8341 127.712 43.0943 126.027 43.0943C125.035 43.0943 124.094 42.9997 122.929 42.5975C122.656 42.5028 121.665 42.148 120.525 41.3909L122.26 38.1968Z"
    fill="white"/>
  <path
    d="M104.812 52.6054C104.317 52.0612 103.424 51.4224 102.185 51.4224C100.327 51.4224 99.013 52.7946 99.013 54.5691C99.013 56.6511 100.673 57.6685 102.136 57.6685C103.35 57.6685 104.292 56.9823 104.887 56.3672V57.3372C104.391 57.7631 103.449 58.3546 102.111 58.3546C99.8308 58.3546 98.2199 56.7457 98.2199 54.5927C98.2199 52.4397 99.7317 50.7599 102.16 50.7599C102.706 50.7599 103.747 50.8546 104.787 51.6826V52.6054H104.812Z"
    fill="white"/>
  <path
    d="M113.139 50.9019H113.883V58.1416H113.139V56.8404C112.371 57.9524 111.157 58.3309 110.19 58.3309C108.208 58.3309 106.498 56.8877 106.498 54.5218C106.498 52.2741 107.985 50.7363 110.19 50.7363C111.38 50.7363 112.421 51.1858 113.139 52.1558V50.9019ZM107.266 54.4745C107.266 56.1069 108.331 57.6685 110.24 57.6685C112.148 57.6685 113.189 56.1306 113.189 54.4745C113.189 52.3215 111.529 51.4224 110.24 51.4224C108.703 51.3987 107.266 52.4871 107.266 54.4745Z"
    fill="white"/>
  <path
    d="M117.303 51.5644V58.1416H116.559V51.5644H115.692V50.8782H116.559V47.424C116.559 45.3893 117.65 44.9634 118.542 44.9634C118.864 44.9634 119.063 45.0344 119.187 45.0817V45.7442C118.988 45.6732 118.84 45.6495 118.616 45.6495C117.972 45.6495 117.303 45.9098 117.303 47.5896V50.9019H119.211V51.588H117.303V51.5644Z"
    fill="white"/>
  <path
    d="M121.863 51.5644V58.1416H121.12V51.5644H120.252V50.8782H121.12V47.424C121.12 45.3893 122.21 44.9634 123.102 44.9634C123.424 44.9634 123.623 45.0344 123.747 45.0817V45.7442C123.548 45.6732 123.4 45.6495 123.177 45.6495C122.532 45.6495 121.863 45.9098 121.863 47.5896V50.9019H123.771V51.588H121.863V51.5644Z"
    fill="white"/>
  <path
    d="M125.382 54.6164C125.382 56.4618 126.795 57.6685 128.406 57.6685C129.645 57.6685 130.562 56.9823 131.058 56.0123L131.702 56.3672C131.256 57.1953 130.24 58.3309 128.381 58.3309C126.027 58.3309 124.639 56.6511 124.639 54.5454C124.639 52.0139 126.473 50.7363 128.331 50.7363C130.388 50.7363 131.925 52.2978 131.925 54.6164H125.382ZM131.107 53.9303C130.909 52.4871 129.794 51.3987 128.307 51.3987C126.77 51.3987 125.655 52.5107 125.457 53.9303H131.107ZM127.638 47.1164L129.348 49.5533L128.778 49.8372L126.82 47.5659L127.638 47.1164Z"
    fill="white"/>
  <path d="M139.484 25.3498H138.245V60.2H139.484V25.3498Z" fill="white"/>
  <path
    d="M158.914 58.3782C158.666 58.3782 158.418 58.2599 158.294 58.047C158.146 57.8341 158.146 57.5738 158.245 57.3609L159.757 54.3562C159.657 54.3088 159.583 54.2852 159.533 54.2379C158.443 53.6937 156.807 52.4871 154.676 50.6653C154.453 50.476 154.379 50.2158 154.453 49.9555C154.527 49.6953 154.75 49.506 155.023 49.4587C161.739 48.2994 170.983 45.342 176.758 37.9603C180.178 33.5833 180.773 29.7032 180.797 29.6558C180.822 29.5375 180.847 29.4429 180.921 29.3483C181.12 29.0644 181.615 28.4019 189.1 29.0407C189.472 29.0644 189.769 29.3719 189.769 29.7505C189.843 35.7836 188.778 44.1827 183.325 50.0975C180.921 52.7 178.517 53.9066 177.328 54.4035L178.567 57.148C178.666 57.3609 178.641 57.6211 178.517 57.8104C178.393 57.9997 178.146 58.1416 177.898 58.1416L158.914 58.3782ZM160.847 53.1732C160.996 53.1732 161.169 53.2205 161.293 53.3152C161.59 53.5281 161.665 53.883 161.516 54.1905L160.128 56.9587L176.783 56.7457L175.692 54.2852C175.618 54.0959 175.618 53.883 175.692 53.6937C175.791 53.5044 175.965 53.3625 176.163 53.3152C176.188 53.3152 179.286 52.4161 182.309 49.1038C185.06 46.0991 188.307 40.4208 188.307 30.4129C184.292 30.0817 182.755 30.2 182.21 30.2946C181.962 31.5013 180.996 34.9792 177.972 38.812C174.75 42.9287 168.505 48.2047 156.807 50.5707C159.484 52.771 160.45 53.1259 160.673 53.1732C160.723 53.1732 160.773 53.1732 160.847 53.1732ZM160.376 53.3152L160.351 53.3388C160.351 53.3388 160.351 53.3388 160.376 53.3152Z"
    fill="white"/>
  <path
    d="M171.008 24.3325C171.008 24.3325 176.113 23.3151 176.064 16.8798C176.014 10.7047 170.24 10.3262 169.372 6.44605C168.579 2.92082 168.778 1.28833 169.174 0.199997C166.646 2.06908 163.127 6.77728 170.24 13.3782C174.899 17.282 171.008 24.3325 171.008 24.3325Z"
    fill="white"/>
  <path
    d="M165.704 24.3325C165.704 24.3325 169.323 23.3861 168.976 18.7725C168.654 14.3483 165.556 14.159 164.143 11.6511C163.077 9.75835 163.003 7.79463 163.177 6.25677C161.442 7.69999 159.236 12.077 164.639 16.5249C168.158 19.1038 165.704 24.3325 165.704 24.3325Z"
    fill="white"/>
  <path
    d="M150.612 30.7205C152.074 30.7205 153.685 30.7442 155.742 30.7442C158.914 30.7678 162.854 30.7915 168.431 30.7915H188.158C187.464 41.6748 185.407 46.5486 177.03 51.8009L174.577 53.3388L175.717 55.7757H161.64L162.805 53.4098L160.079 51.8719C155.692 49.3877 152.966 46.6905 151.281 43.118C149.794 39.995 149.025 35.9965 148.877 30.6968C149.397 30.7205 149.992 30.7205 150.612 30.7205ZM150.612 27.4082C149.025 27.4082 147.662 27.4319 146.25 27.4555C145.779 27.4792 145.382 27.8341 145.382 28.3073C145.258 41.864 148.455 49.1984 158.294 54.7584L156.733 57.905C156.46 58.4729 156.882 59.1353 157.551 59.1353H179.633C180.277 59.1353 180.723 58.4965 180.45 57.9287L178.889 54.5927C189.273 48.0628 191.132 41.5801 191.727 28.4019C191.752 27.905 191.33 27.5028 190.835 27.5028H168.406C159.286 27.5028 154.379 27.4082 150.612 27.4082Z"
    fill="white"/>
  <path
    d="M192.346 30.8151C191.157 30.8151 190.042 31.0517 189.025 31.4776C189.001 33.0155 188.877 34.435 188.703 35.7836C189.571 34.7662 190.884 34.1274 192.346 34.1274C194.924 34.1274 197.03 36.1385 197.03 38.5991C197.03 41.0596 194.924 43.0707 192.346 43.0707C190.265 43.0707 188.505 41.7694 187.885 39.9713C187.489 41.4618 187.018 42.7867 186.473 43.9934C187.96 45.4603 190.042 46.383 192.346 46.383C196.857 46.383 200.5 42.905 200.5 38.5991C200.5 34.2931 196.857 30.8151 192.346 30.8151Z"
    fill="white"/>
</svg>
