<svg width="229" height="269" viewBox="0 0 1279 1689" fill="none" xmlns="http://www.w3.org/2000/svg">
  <title>[logo] TopMonks Caffé Logo</title>

  <path d="M266.1 848V897.7H249.6V848H236V834H279.7V848H266.1Z" fill="#233341"/>
  <path
    d="M344.5 889.7C338 895.9 328.8 899.2 319.4 899.2C309.9 899.2 300.8 896 294.3 889.7C287.5 883.2 284.3 874.3 284.3 865.9C284.3 857.4 287.5 848.4 294.3 842C300.8 835.8 310 832.5 319.4 832.5C328.9 832.5 338 835.7 344.5 842C351.3 848.4 354.5 857.4 354.5 865.9C354.5 874.3 351.2 883.2 344.5 889.7ZM306.4 853.7C303 857 301.3 861.7 301.3 866.2C301.3 871.8 304 875.8 306.4 878C309.5 881 313.8 883.1 319.3 883.1C324.9 883.1 329.1 881.1 332.1 878.1C335.1 875.1 337.3 870.7 337.3 865.9C337.3 860.9 335.1 856.5 332.1 853.7C328.6 850.4 323.7 848.6 319.3 848.6C314.7 848.6 309.9 850.2 306.4 853.7Z"
    fill="#233341"/>
  <path
    d="M381.5 876.6V897.7H365V834H391.4C396.9 834 402.7 835.1 407.5 839.7C412.5 844.5 413.4 849.8 413.4 855.2C413.4 860.3 412.7 866.2 407.8 871.1C402.9 876 396.9 876.6 391.9 876.6H381.5V876.6ZM381.5 863.2H387C388.7 863.2 392 863 394 861.2C396 859.5 396.1 856.9 396.1 855.4C396.1 853.7 395.9 851.4 394.2 849.7C392.3 847.7 389.2 847.4 387.1 847.4H381.5V863.2Z"
    fill="#233341"/>
  <path
    d="M415.8 897.7L426.6 834H442.9L455.8 868L469.5 834H486L495.6 897.7H479.1L474.4 861L459 897.7H452.4L437.7 861L432.3 897.7H415.8V897.7Z"
    fill="#233341"/>
  <path
    d="M563.5 889.7C557 895.9 547.8 899.2 538.4 899.2C528.9 899.2 519.8 896 513.3 889.7C506.5 883.2 503.3 874.3 503.3 865.9C503.3 857.4 506.5 848.4 513.3 842C519.8 835.8 529 832.5 538.4 832.5C547.9 832.5 557 835.7 563.5 842C570.3 848.4 573.5 857.4 573.5 865.9C573.6 874.3 570.3 883.2 563.5 889.7ZM525.5 853.7C522.1 857 520.4 861.7 520.4 866.2C520.4 871.8 523.1 875.8 525.5 878C528.6 881 532.9 883.1 538.4 883.1C544 883.1 548.2 881.1 551.2 878.1C554.2 875.1 556.4 870.7 556.4 865.9C556.4 860.9 554.2 856.5 551.2 853.7C547.7 850.4 542.8 848.6 538.4 848.6C533.8 848.6 528.9 850.2 525.5 853.7Z"
    fill="#233341"/>
  <path d="M584.1 897.7V834H600.6L631.1 873V834H647.6V897.7H631.1L600.6 858.7V897.7H584.1V897.7Z" fill="#233341"/>
  <path d="M677.5 860.3L697.8 834H718.2L692.9 864.2L720.5 897.7H699.1L677.5 870.1V897.7H661V834H677.5V860.3Z"
        fill="#233341"/>
  <path
    d="M727.3 878.6C730.8 881.9 736.2 885.1 741.9 885.1C745.2 885.1 747.3 884 748.3 882.9C749.3 881.9 749.9 880.5 749.9 878.9C749.9 877.7 749.4 876.2 748.1 875.1C746.5 873.7 744 873 739.9 871.8L735.6 870.5C732.9 869.6 729 868.2 726.4 865.3C723.2 861.8 722.8 857.3 722.8 854C722.8 846.2 725.9 841.4 728.6 838.6C731.8 835.4 737.2 832.6 744.9 832.6C751.2 832.6 758.6 834.6 764.6 837.8L758 850.7C753 846.8 749.3 846.4 747.1 846.4C745.5 846.4 743.3 846.8 741.7 848.3C740.7 849.3 740.1 850.3 740.1 851.7C740.1 852.8 740.3 853.7 741 854.6C741.5 855.2 742.6 856.3 746.5 857.5L751.6 859C755.6 860.2 759.8 861.7 763.2 865.3C766.4 868.7 767.3 872.3 767.3 876.7C767.3 882.5 765.9 888.2 761.3 892.8C755.9 898.2 749.3 899.3 742.5 899.3C738.5 899.3 734.7 898.9 730 897.2C728.9 896.8 724.9 895.3 720.3 892.1L727.3 878.6Z"
    fill="#233341"/>
  <path
    d="M656.9 939.5C654.9 937.2 651.3 934.5 646.3 934.5C638.8 934.5 633.5 940.3 633.5 947.8C633.5 956.6 640.2 960.9 646.1 960.9C651 960.9 654.8 958 657.2 955.4V959.5C655.2 961.3 651.4 963.8 646 963.8C636.8 963.8 630.3 957 630.3 947.9C630.3 938.8 636.4 931.7 646.2 931.7C648.4 931.7 652.6 932.1 656.8 935.6V939.5H656.9Z"
    fill="#233341"/>
  <path
    d="M690.5 932.3H693.5V962.9H690.5V957.4C687.4 962.1 682.5 963.7 678.6 963.7C670.6 963.7 663.7 957.6 663.7 947.6C663.7 938.1 669.7 931.6 678.6 931.6C683.4 931.6 687.6 933.5 690.5 937.6V932.3ZM666.8 947.4C666.8 954.3 671.1 960.9 678.8 960.9C686.5 960.9 690.7 954.4 690.7 947.4C690.7 938.3 684 934.5 678.8 934.5C672.6 934.4 666.8 939 666.8 947.4Z"
    fill="#233341"/>
  <path
    d="M707.3 935.1V962.9H704.3V935.1H700.8V932.2H704.3V917.6C704.3 909 708.7 907.2 712.3 907.2C713.6 907.2 714.4 907.5 714.9 907.7V910.5C714.1 910.2 713.5 910.1 712.6 910.1C710 910.1 707.3 911.2 707.3 918.3V932.3H715V935.2H707.3V935.1Z"
    fill="#233341"/>
  <path
    d="M725.7 935.1V962.9H722.7V935.1H719.2V932.2H722.7V917.6C722.7 909 727.1 907.2 730.7 907.2C732 907.2 732.8 907.5 733.3 907.7V910.5C732.5 910.2 731.9 910.1 731 910.1C728.4 910.1 725.7 911.2 725.7 918.3V932.3H733.4V935.2H725.7V935.1Z"
    fill="#233341"/>
  <path
    d="M739.9 948C739.9 955.8 745.6 960.9 752.1 960.9C757.1 960.9 760.8 958 762.8 953.9L765.4 955.4C763.6 958.9 759.5 963.7 752 963.7C742.5 963.7 736.9 956.6 736.9 947.7C736.9 937 744.3 931.6 751.8 931.6C760.1 931.6 766.3 938.2 766.3 948H739.9ZM763 945.1C762.2 939 757.7 934.4 751.7 934.4C745.5 934.4 741 939.1 740.2 945.1H763ZM749 916.3L755.9 926.6L753.6 927.8L745.7 918.2L749 916.3Z"
    fill="#233341"/>
  <path d="M796.8 824.3H791.8V971.6H796.8V824.3Z" fill="#233341"/>
  <path
    d="M875.2 963.9C874.2 963.9 873.2 963.4 872.7 962.5C872.1 961.6 872.1 960.5 872.5 959.6L878.6 946.9C878.2 946.7 877.9 946.6 877.7 946.4C873.3 944.1 866.7 939 858.1 931.3C857.2 930.5 856.9 929.4 857.2 928.3C857.5 927.2 858.4 926.4 859.5 926.2C886.6 921.3 923.9 908.8 947.2 877.6C961 859.1 963.4 842.7 963.5 842.5C963.6 842 963.7 841.6 964 841.2C964.8 840 966.8 837.2 997 839.9C998.5 840 999.7 841.3 999.7 842.9C1000 868.4 995.7 903.9 973.7 928.9C964 939.9 954.3 945 949.5 947.1L954.5 958.7C954.9 959.6 954.8 960.7 954.3 961.5C953.8 962.3 952.8 962.9 951.8 962.9L875.2 963.9ZM883 941.9C883.6 941.9 884.3 942.1 884.8 942.5C886 943.4 886.3 944.9 885.7 946.2L880.1 957.9L947.3 957L942.9 946.6C942.6 945.8 942.6 944.9 942.9 944.1C943.3 943.3 944 942.7 944.8 942.5C944.9 942.5 957.4 938.7 969.6 924.7C980.7 912 993.8 888 993.8 845.7C977.6 844.3 971.4 844.8 969.2 845.2C968.2 850.3 964.3 865 952.1 881.2C939.1 898.6 913.9 920.9 866.7 930.9C877.5 940.2 881.4 941.7 882.3 941.9C882.5 941.9 882.7 941.9 883 941.9ZM881.1 942.5L881 942.6C881 942.6 881 942.6 881.1 942.5Z"
    fill="#233341"/>
  <path
    d="M924 820C924 820 944.6 815.7 944.4 788.5C944.2 762.4 920.9 760.8 917.4 744.4C914.2 729.5 915 722.6 916.6 718C906.4 725.9 892.2 745.8 920.9 773.7C939.7 790.2 924 820 924 820Z"
    fill="#233341"/>
  <path
    d="M902.6 820C902.6 820 917.2 816 915.8 796.5C914.5 777.8 902 777 896.3 766.4C892 758.4 891.7 750.1 892.4 743.6C885.4 749.7 876.5 768.2 898.3 787C912.5 797.9 902.6 820 902.6 820Z"
    fill="#233341"/>
  <path
    d="M841.7 847C847.6 847 854.1 847.1 862.4 847.1C875.2 847.2 891.1 847.3 913.6 847.3H993.2C990.4 893.3 982.1 913.9 948.3 936.1L938.4 942.6L943 952.9H886.2L890.9 942.9L879.9 936.4C862.2 925.9 851.2 914.5 844.4 899.4C838.4 886.2 835.3 869.3 834.7 846.9C836.8 847 839.2 847 841.7 847ZM841.7 833C835.3 833 829.8 833.1 824.1 833.2C822.2 833.3 820.6 834.8 820.6 836.8C820.1 894.1 833 925.1 872.7 948.6L866.4 961.9C865.3 964.3 867 967.1 869.7 967.1H958.8C961.4 967.1 963.2 964.4 962.1 962L955.8 947.9C997.7 920.3 1005.2 892.9 1007.6 837.2C1007.7 835.1 1006 833.4 1004 833.4H913.5C876.7 833.4 856.9 833 841.7 833Z"
    fill="#233341"/>
  <path
    d="M1010.1 847.4C1005.3 847.4 1000.8 848.4 996.7 850.2C996.6 856.7 996.1 862.7 995.4 868.4C998.9 864.1 1004.2 861.4 1010.1 861.4C1020.5 861.4 1029 869.9 1029 880.3C1029 890.7 1020.5 899.2 1010.1 899.2C1001.7 899.2 994.6 893.7 992.1 886.1C990.5 892.4 988.6 898 986.4 903.1C992.4 909.3 1000.8 913.2 1010.1 913.2C1028.3 913.2 1043 898.5 1043 880.3C1043 862.1 1028.3 847.4 1010.1 847.4Z"
    fill="#233341"/>
  <rect x="5" y="5" width="1269" height="1679" stroke="#233341" stroke-width="10"/>
</svg>
