<svg width="40" height="40" viewBox="0 0 40 40" fill="none" xmlns="http://www.w3.org/2000/svg">
  <title>[icon] Communication</title>
  <path fill-rule="evenodd" clip-rule="evenodd"
        d="M15.4757 28.2856C13.5071 28.6225 11.4583 27.1447 11.4583 24.8751V23.862C6.82548 22.9381 3.33325 18.8332 3.33325 13.9092V13.695C3.33325 7.97241 7.95253 3.33334 13.6507 3.33334H21.3491C27.0473 3.33334 31.6666 7.97241 31.6666 13.695C31.6666 14.8878 31.4659 16.0336 31.0966 17.1C34.3359 18.1968 36.6666 21.2531 36.6666 24.8517C36.6666 28.9178 33.6912 32.2914 29.7916 32.9286V34.2764C29.7916 36.2654 27.4926 37.3811 25.9211 36.1549L21.9058 33.0218C18.9562 32.8351 16.4774 30.9221 15.4757 28.2856ZM29.4653 20.093C27.583 22.4979 24.6638 24.0456 21.3843 24.0566L18.4093 26.4642C18.7748 28.3174 20.414 29.7153 22.3809 29.7153H22.46C22.8584 29.7153 23.2453 29.8483 23.5589 30.0931L26.4583 32.3554V31.5104C26.4583 30.519 27.2648 29.7153 28.2597 29.7153H28.4523C31.148 29.7153 33.3333 27.5378 33.3333 24.8517C33.3333 22.5118 31.6748 20.5577 29.4653 20.093ZM20.7437 20.709C20.3972 20.709 20.0611 20.8281 19.7913 21.0465L14.9604 24.9562C14.8925 25.0111 14.7916 24.9626 14.7916 24.8751V22.069C14.7916 21.9152 14.7662 21.7674 14.7193 21.6296C14.6524 21.4326 14.5417 21.2559 14.3989 21.1113C14.1535 20.8629 13.8134 20.709 13.4374 20.709C9.69799 20.709 6.66659 17.6646 6.66659 13.9092V13.695C6.66659 9.82124 9.79348 6.68095 13.6507 6.68095H21.3491C25.2064 6.68095 28.3333 9.82124 28.3333 13.695C28.3333 17.5687 25.2064 20.709 21.3491 20.709H20.7437Z"
        fill="#8363F9"/>
</svg>
