<svg width="40" height="40" viewBox="0 0 40 40" fill="none" xmlns="http://www.w3.org/2000/svg">
  <title>[icon] Development</title>
  <path fill-rule="evenodd" clip-rule="evenodd"
        d="M24.0963 12.1456C24.3608 11.2639 23.8605 10.3348 22.9788 10.0703C22.0972 9.80577 21.168 10.3061 20.9035 11.1877L15.9035 27.8544C15.639 28.7361 16.1394 29.6652 17.021 29.9297C17.9027 30.1942 18.8318 29.6939 19.0963 28.8122L24.0963 12.1456ZM12.8451 12.1548C13.496 12.8057 13.496 13.861 12.8451 14.5118L7.35694 20L12.8451 25.4881C13.496 26.139 13.496 27.1943 12.8451 27.8452C12.1942 28.496 11.1389 28.496 10.4881 27.8452L3.82141 21.1785C3.17053 20.5276 3.17053 19.4723 3.82141 18.8215L10.4881 12.1548C11.1389 11.5039 12.1942 11.5039 12.8451 12.1548ZM27.1547 12.1548C26.5039 12.8057 26.5039 13.861 27.1547 14.5118L32.6429 20L27.1547 25.4881C26.5039 26.139 26.5039 27.1943 27.1547 27.8452C27.8056 28.496 28.8609 28.496 29.5118 27.8452L36.1784 21.1785C36.8293 20.5276 36.8293 19.4723 36.1784 18.8215L29.5118 12.1548C28.8609 11.5039 27.8056 11.5039 27.1547 12.1548Z"
        fill="#8363F9"/>
</svg>
