<svg width="40" height="40" viewBox="0 0 40 40" fill="none" xmlns="http://www.w3.org/2000/svg">
  <title>[icon] Document</title>
  <path fill-rule="evenodd" clip-rule="evenodd"
        d="M30 36.6666L10 36.6667C7.23858 36.6667 5 34.4281 5 31.6667V8.33331C5 5.57189 7.23858 3.33331 10 3.33331H20H25.0694C26.5244 3.33331 27.9073 3.96711 28.8571 5.06932L30.9948 7.54999L33.7417 10.6491C34.5524 11.5637 35 12.7435 35 13.9656L35 20V31.6666C35 34.4281 32.7614 36.6666 30 36.6666ZM28.4848 9.74357L26.6667 7.63368V11.6666H30.1894L28.4848 9.74357ZM23.3333 13.3333V6.66665L20 6.66665L10 6.66665C9.07953 6.66665 8.33333 7.41284 8.33333 8.33331L8.33334 31.6667C8.33334 32.5871 9.07953 33.3333 10 33.3333L30 33.3333C30.9205 33.3333 31.6667 32.5871 31.6667 31.6666L31.6667 20V15H25C24.0795 15 23.3333 14.2538 23.3333 13.3333ZM25.4617 21.0492C26.0411 20.334 25.931 19.2844 25.2158 18.705C24.5006 18.1255 23.4511 18.2356 22.8717 18.9508L18.7131 24.0837L17.0848 22.2325C16.4768 21.5414 15.4237 21.4739 14.7325 22.0819C14.0414 22.6898 13.974 23.743 14.5819 24.4341L17.514 27.7674C17.8382 28.136 18.3084 28.3429 18.7992 28.333C19.29 28.323 19.7514 28.0972 20.0604 27.7158L25.4617 21.0492Z"
        fill="#8363F9"/>
</svg>
