<svg width="187" height="40" viewBox="0 0 187 40" fill="none" xmlns="http://www.w3.org/2000/svg">
  <title>[logo] Apify</title>
  <g clip-path="url(#clip0)">
    <path fill-rule="evenodd" clip-rule="evenodd"
          d="M105.709 21.4527H100.677V14.6473H105.711C107.57 14.6473 109.079 16.1714 109.079 18.05C109.08 18.4963 108.993 18.9384 108.824 19.351C108.655 19.7636 108.407 20.1385 108.094 20.4545C107.781 20.7705 107.409 21.0213 107 21.1925C106.591 21.3638 106.152 21.4522 105.709 21.4527ZM106.218 11.0357H96.0936V31.5714H100.676V25.0643H106.216C110.052 25.0643 113.162 21.9241 113.162 18.05C113.162 14.1759 110.053 11.0357 106.217 11.0357H106.218ZM123.925 31.5714H128.505V24.2884H136.78V20.5875H128.505V14.8268H138.789V11.0357H123.924V31.5714H123.925ZM156.15 11.0357L151.154 19.4821H151.037L146.279 11.0357H141.077L148.703 23.7812V31.5714H153.312V23.7518L161.026 11.0357H156.15ZM115.887 31.5714H120.468V11.0357H115.887V31.5714ZM80.5976 23.7214L83.4342 15.3036H83.5521L86.3302 23.7214H80.5967H80.5976ZM80.8325 11.0357L73.2675 31.5714H77.9666L79.3849 27.3634H87.542L88.9603 31.5714H93.8074L86.2416 11.0357H80.8333H80.8325Z"
          fill="#02184B"/>
    <path fill-rule="evenodd" clip-rule="evenodd"
          d="M30.9919 7.24549C28.0045 7.63121 25.9214 10.1803 26.3389 12.9401L29.562 34.25L43.1282 5.67853L30.9919 7.24549Z"
          fill="#6CC04A"/>
    <path fill-rule="evenodd" clip-rule="evenodd"
          d="M61.7313 23.6544L60.5815 7.59371C60.3768 4.73836 57.7945 2.65175 54.9552 3.04907L50.2198 3.70889L60.6489 27.1071C61.4326 26.1368 61.8194 24.902 61.7304 23.6544"
          fill="#00A7CE"/>
    <path fill-rule="evenodd" clip-rule="evenodd"
          d="M34.2637 38.683C35.1417 38.7795 36.0297 38.6521 36.846 38.3125L55.5385 30.5768L46.6519 11.0357L34.2637 38.683Z"
          fill="#FF9012"/>
  </g>
  <defs>
    <clipPath id="clip0">
      <rect width="134.74" height="35.7143" fill="white" transform="translate(26.2857 3)"/>
    </clipPath>
  </defs>
</svg>
