<svg width="187" height="40" viewBox="0 0 187 40" fill="none" xmlns="http://www.w3.org/2000/svg">
 <title>[logo] Keboola</title>
  <g clip-path="url(#clip0)">
    <path
      d="M154.892 25.215C154.892 27.0996 153.199 28.3938 150.98 28.3938C149.372 28.3938 148.123 27.578 148.123 26.1429V26.0874C148.123 24.5402 149.399 23.6112 151.563 23.6112C152.894 23.6112 154.032 23.8653 154.892 24.2027V25.215ZM156.501 17.1692C155.474 16.1003 153.838 15.5099 151.646 15.5099C149.731 15.5099 148.317 15.8473 146.93 16.3823C146.431 16.5787 146.015 17.1126 146.015 17.7319C146.015 18.52 146.653 19.1382 147.429 19.1382C147.596 19.1382 147.762 19.1104 147.956 19.0538C148.872 18.6887 149.926 18.4634 151.202 18.4634C153.56 18.4634 154.836 19.5888 154.836 21.6988V22.0639C153.698 21.6988 152.534 21.4457 150.897 21.4457C147.318 21.4457 144.849 23.0207 144.849 26.2283V26.2838C144.849 29.2662 147.291 30.87 150.037 30.87C152.284 30.87 153.81 29.9133 154.809 28.7035V29.2662C154.809 30.0254 155.474 30.7013 156.446 30.7013C157.361 30.7013 158.082 29.9976 158.082 29.0697V21.7543C158.082 19.8141 157.582 18.238 156.501 17.1692ZM141.41 9.88368C140.467 9.88368 139.745 10.6429 139.745 11.5708V29.0131C139.745 29.9699 140.495 30.7013 141.41 30.7013C142.353 30.7013 143.102 29.9699 143.102 29.0131V11.5708C143.102 10.6429 142.353 9.88368 141.41 9.88368ZM134.448 23.2182C134.448 25.7777 132.728 27.9165 130.009 27.9165C127.401 27.9165 125.543 25.75 125.543 23.1616V23.105C125.543 20.5178 127.263 18.379 129.954 18.379C132.589 18.379 134.448 20.5444 134.448 23.1616V23.2182ZM130.009 15.3966C125.515 15.3966 122.186 18.914 122.186 23.1616V23.2182C122.186 27.437 125.488 30.8978 129.954 30.8978C134.475 30.8978 137.804 27.3815 137.804 23.1616V23.105C137.804 18.8574 134.503 15.3966 130.009 15.3966ZM117.887 23.2182C117.887 25.7777 116.167 27.9165 113.448 27.9165C110.84 27.9165 108.982 25.75 108.982 23.1616V23.105C108.982 20.5178 110.702 18.379 113.393 18.379C116.028 18.379 117.887 20.5444 117.887 23.1616V23.2182ZM113.448 15.3966C108.954 15.3966 105.625 18.914 105.625 23.1616V23.2182C105.625 27.437 108.927 30.8978 113.393 30.8978C117.914 30.8978 121.243 27.3815 121.243 23.1616V23.105C121.243 18.8574 117.942 15.3966 113.448 15.3966ZM101.215 23.1616C101.215 26.0874 99.329 27.9165 97.0267 27.9165C94.7521 27.9165 92.7542 26.003 92.7542 23.1616V23.105C92.7542 20.2636 94.7521 18.3501 97.0267 18.3501C99.3013 18.3501 101.215 20.2359 101.215 23.105V23.1616ZM97.8303 15.3966C95.445 15.3966 93.9197 16.6353 92.8372 18.1825V11.5708C92.8372 10.614 92.089 9.88368 91.1448 9.88368C90.2018 9.88368 89.4812 10.614 89.4812 11.5708V29.0131C89.4812 29.941 90.2294 30.7013 91.1448 30.7013C92.089 30.7013 92.8372 29.941 92.8372 29.0131V28.2539C93.8644 29.6314 95.3896 30.87 97.8303 30.87C101.298 30.87 104.628 28.0841 104.628 23.1616V23.105C104.628 18.1537 101.27 15.3966 97.8303 15.3966ZM76.9149 22.0928C77.2204 19.7853 78.6626 18.1825 80.7159 18.1825C82.9352 18.1825 84.2103 19.8974 84.4328 22.0928H76.9149ZM80.7436 15.3966C76.5541 15.3966 73.5865 18.8851 73.5865 23.1339V23.1894C73.5865 27.7756 76.8596 30.8978 81.1033 30.8978C83.379 30.8978 85.0426 30.1386 86.3742 28.9288C86.6244 28.6757 86.8181 28.3094 86.8181 27.8877C86.8181 27.0996 86.2358 26.5092 85.4865 26.5092C85.098 26.5092 84.8766 26.6224 84.6265 26.8188C83.6834 27.6069 82.5743 28.113 81.1597 28.113C78.9958 28.113 77.3034 26.7622 76.9426 24.3426H86.1252C86.9852 24.3426 87.7058 23.6678 87.7058 22.711C87.7058 19.2791 85.4035 15.3966 80.7436 15.3966ZM66.4572 19.5322L72.5051 13.6252C72.8925 13.2589 73.115 12.8649 73.115 12.331C73.115 11.4864 72.4764 10.7272 71.5333 10.7272C70.9234 10.7272 70.5072 10.9514 70.1187 11.3743L60.9096 20.7709V12.4432C60.9096 11.4864 60.1602 10.7272 59.2172 10.7272C58.2464 10.7272 57.4971 11.4864 57.4971 12.4432V28.9843C57.4971 29.941 58.2464 30.7013 59.2172 30.7013C60.1602 30.7013 60.9096 29.941 60.9096 28.9843V24.9053L64.0719 21.8109L70.3135 29.8855C70.6733 30.3639 71.0894 30.7013 71.7558 30.7013C72.7265 30.7013 73.4759 29.9699 73.4759 29.0131C73.4759 28.4781 73.281 28.1407 73.0043 27.7756L66.4572 19.5322ZM36.6182 19.9584C37.3488 19.9584 37.9409 20.5411 37.9409 21.2581C37.9409 21.9774 37.3488 22.559 36.6182 22.559C35.8877 22.559 35.2955 21.9774 35.2955 21.2581C35.2955 20.5411 35.8877 19.9584 36.6182 19.9584ZM40.0982 19.9584C40.8287 19.9584 41.4209 20.5411 41.4209 21.2581C41.4209 21.9774 40.8287 22.559 40.0982 22.559C39.3677 22.559 38.7755 21.9774 38.7755 21.2581C38.7755 20.5411 39.3677 19.9584 40.0982 19.9584ZM38.4833 24.4902C42.5876 24.4902 46.1993 18.9728 46.1993 11.9848C46.1993 4.99782 43.5727 4 38.4833 4C33.3939 4 30.5183 4.99782 30.5183 11.9848C30.5183 18.9728 33.9695 24.4902 38.4833 24.4902ZM47.5342 30.8678C46.9796 29.9432 46.3587 29.2218 45.7211 28.6291C45.0813 28.0353 44.4394 27.5669 43.814 27.0985C43.5184 26.8765 43.2152 26.6723 42.9063 26.487C43.2152 26.3016 43.5184 26.0963 43.814 25.8743C45.2418 24.8054 46.4837 23.3636 47.5342 21.6122C47.905 20.994 47.6947 20.197 47.066 19.833C46.4361 19.4689 45.6259 19.6743 45.254 20.2925C44.3453 21.8098 43.3115 22.984 42.2123 23.8054C41.0346 24.6811 39.8757 25.1151 38.6847 25.1839C38.5763 25.1806 38.4678 25.1772 38.3582 25.1772C38.2497 25.1772 38.1402 25.1806 38.0317 25.1839C36.8407 25.1151 35.6829 24.6811 34.5041 23.8054C33.405 22.984 32.3723 21.8098 31.4624 20.2925C31.0916 19.6743 30.2803 19.4689 29.6516 19.833C29.0218 20.197 28.8126 20.994 29.1834 21.6133C30.2338 23.3636 31.4746 24.8054 32.9025 25.8743C33.198 26.0963 33.5013 26.3016 33.8112 26.487C33.5013 26.6723 33.198 26.8765 32.9025 27.0985C32.2782 27.5669 31.6351 28.0353 30.9964 28.6291C30.3589 29.2218 29.7368 29.9432 29.1834 30.8678C28.8126 31.486 29.0218 32.2841 29.6516 32.6481C30.2803 33.0122 31.0916 32.8068 31.4624 32.1886C31.8886 31.4794 32.3258 30.9755 32.8172 30.5148C33.3076 30.0565 33.8654 29.6458 34.5052 29.1674C34.8173 28.9354 35.1273 28.7345 35.4383 28.5636C35.4007 28.6302 35.3641 28.6979 35.3276 28.7678C34.4299 30.4594 33.5057 32.8068 33.5013 35.4806C33.5013 36.1976 34.0934 36.7792 34.824 36.7792C35.5545 36.7792 36.1467 36.1976 36.1467 35.4806C36.1423 33.4162 36.8927 31.4294 37.6708 29.9732C37.9077 29.5292 38.1446 29.1352 38.3582 28.8034C38.584 29.1519 38.8342 29.5692 39.0821 30.042C39.8481 31.4916 40.5742 33.4473 40.5697 35.4806C40.5697 36.1976 41.1619 36.7792 41.8936 36.7792C42.6241 36.7792 43.2163 36.1976 43.2163 35.4806C43.2118 32.8068 42.2865 30.4594 41.3899 28.7678C41.3523 28.6979 41.3158 28.6302 41.2792 28.5636C41.5892 28.7345 41.9002 28.9354 42.2123 29.1674C42.851 29.6458 43.4089 30.0565 43.9003 30.5148C44.3918 30.9755 44.8279 31.4794 45.254 32.1875C45.5008 32.5993 45.9425 32.8279 46.3952 32.8279C46.6232 32.8279 46.8545 32.7702 47.066 32.6481C47.6947 32.2841 47.905 31.486 47.5342 30.8678Z"
      fill="#3CA0FF"/>
  </g>
  <defs>
    <clipPath id="clip0">
      <rect width="129.082" height="32.8571" fill="white" transform="translate(29 4)"/>
    </clipPath>
  </defs>
</svg>
