<svg width="261" height="70" viewBox="0 0 261 70" fill="none" xmlns="http://www.w3.org/2000/svg">
  <title>[logo] Keboola</title>
  <g clip-path="url(#clip2)">
    <path
      d="M216.248 41.701C216.248 44.3395 213.879 46.1513 210.772 46.1513C208.52 46.1513 206.772 45.0092 206.772 43V42.9223C206.772 40.7562 208.559 39.4556 211.589 39.4556C213.451 39.4556 215.044 39.8115 216.248 40.2838V41.701ZM218.501 30.4369C217.063 28.9405 214.773 28.1138 211.705 28.1138C209.024 28.1138 207.044 28.5862 205.102 29.3352C204.403 29.6102 203.82 30.3576 203.82 31.2247C203.82 32.3279 204.714 33.1934 205.801 33.1934C206.035 33.1934 206.267 33.1546 206.538 33.0754C207.821 32.5641 209.297 32.2487 211.083 32.2487C214.384 32.2487 216.171 33.8243 216.171 36.7783V37.2895C214.578 36.7783 212.948 36.424 210.656 36.424C205.646 36.424 202.189 38.6289 202.189 43.1197V43.1974C202.189 47.3727 205.607 49.618 209.452 49.618C212.597 49.618 214.734 48.2786 216.132 46.5848V47.3727C216.132 48.4355 217.063 49.3818 218.424 49.3818C219.705 49.3818 220.714 48.3967 220.714 47.0976V36.856C220.714 34.1398 220.015 31.9332 218.501 30.4369ZM197.374 20.2372C196.054 20.2372 195.043 21.3 195.043 22.5991V47.0184C195.043 48.3578 196.092 49.3818 197.374 49.3818C198.694 49.3818 199.743 48.3578 199.743 47.0184V22.5991C199.743 21.3 198.694 20.2372 197.374 20.2372ZM187.627 38.9055C187.627 42.4888 185.219 45.4831 181.413 45.4831C177.762 45.4831 175.16 42.4499 175.16 38.8263V38.747C175.16 35.1249 177.568 32.1306 181.335 32.1306C185.025 32.1306 187.627 35.1622 187.627 38.8263V38.9055ZM181.413 27.9553C175.121 27.9553 170.46 32.8796 170.46 38.8263V38.9055C170.46 44.8119 175.083 49.6569 181.335 49.6569C187.666 49.6569 192.325 44.7342 192.325 38.8263V38.747C192.325 32.8003 187.704 27.9553 181.413 27.9553ZM164.441 38.9055C164.441 42.4888 162.033 45.4831 158.228 45.4831C154.577 45.4831 151.975 42.4499 151.975 38.8263V38.747C151.975 35.1249 154.383 32.1306 158.15 32.1306C161.84 32.1306 164.441 35.1622 164.441 38.8263V38.9055ZM158.228 27.9553C151.936 27.9553 147.275 32.8796 147.275 38.8263V38.9055C147.275 44.8119 151.897 49.6569 158.15 49.6569C164.48 49.6569 169.14 44.7342 169.14 38.8263V38.747C169.14 32.8003 164.519 27.9553 158.228 27.9553ZM141.101 38.8263C141.101 42.9223 138.461 45.4831 135.237 45.4831C132.053 45.4831 129.256 42.8042 129.256 38.8263V38.747C129.256 34.7691 132.053 32.0902 135.237 32.0902C138.422 32.0902 141.101 34.7302 141.101 38.747V38.8263ZM136.362 27.9553C133.023 27.9553 130.888 29.6894 129.372 31.8556V22.5991C129.372 21.2596 128.325 20.2372 127.003 20.2372C125.682 20.2372 124.674 21.2596 124.674 22.5991V47.0184C124.674 48.3174 125.721 49.3818 127.003 49.3818C128.325 49.3818 129.372 48.3174 129.372 47.0184V45.9555C130.81 47.8839 132.946 49.618 136.362 49.618C141.217 49.618 145.879 45.7178 145.879 38.8263V38.747C145.879 31.8152 141.179 27.9553 136.362 27.9553ZM107.081 37.3299C107.509 34.0994 109.528 31.8556 112.402 31.8556C115.509 31.8556 117.294 34.2563 117.606 37.3299H107.081ZM112.441 27.9553C106.576 27.9553 102.421 32.8392 102.421 38.7874V38.8651C102.421 45.2858 107.003 49.6569 112.945 49.6569C116.131 49.6569 118.46 48.594 120.324 46.9003C120.674 46.546 120.945 46.0332 120.945 45.4427C120.945 44.3395 120.13 43.5128 119.081 43.5128C118.537 43.5128 118.227 43.6713 117.877 43.9463C116.557 45.0496 115.004 45.7582 113.024 45.7582C109.994 45.7582 107.625 43.8671 107.12 40.4796H119.975C121.179 40.4796 122.188 39.5349 122.188 38.1954C122.188 33.3908 118.965 27.9553 112.441 27.9553ZM92.4401 33.7451L100.907 25.4753C101.45 24.9625 101.761 24.4109 101.761 23.6635C101.761 22.481 100.867 21.4181 99.5466 21.4181C98.6928 21.4181 98.1101 21.732 97.5662 22.324L84.6734 35.4792V23.8204C84.6734 22.481 83.6243 21.4181 82.304 21.4181C80.945 21.4181 79.8959 22.481 79.8959 23.8204V46.978C79.8959 48.3174 80.945 49.3818 82.304 49.3818C83.6243 49.3818 84.6734 48.3174 84.6734 46.978V41.2674L89.1007 36.9352L97.8389 48.2397C98.3426 48.9095 98.9252 49.3818 99.8581 49.3818C101.217 49.3818 102.266 48.3578 102.266 47.0184C102.266 46.2694 101.993 45.797 101.606 45.2858L92.4401 33.7451ZM50.6655 34.3418C51.6883 34.3418 52.5173 35.1576 52.5173 36.1614C52.5173 37.1683 51.6883 37.9825 50.6655 37.9825C49.6428 37.9825 48.8137 37.1683 48.8137 36.1614C48.8137 35.1576 49.6428 34.3418 50.6655 34.3418ZM55.5375 34.3418C56.5602 34.3418 57.3893 35.1576 57.3893 36.1614C57.3893 37.1683 56.5602 37.9825 55.5375 37.9825C54.5148 37.9825 53.6857 37.1683 53.6857 36.1614C53.6857 35.1576 54.5148 34.3418 55.5375 34.3418ZM53.2766 40.6863C59.0226 40.6863 64.079 32.9619 64.079 23.1787C64.079 13.3969 60.4017 12 53.2766 12C46.1515 12 42.1256 13.3969 42.1256 23.1787C42.1256 32.9619 46.9573 40.6863 53.2766 40.6863ZM65.9478 49.6149C65.1715 48.3205 64.3021 47.3105 63.4096 46.4807C62.5139 45.6494 61.6151 44.9937 60.7396 44.3379C60.3258 44.0271 59.9012 43.7412 59.4689 43.4817C59.9012 43.2222 60.3258 42.9348 60.7396 42.624C62.7386 41.1276 64.4772 39.1091 65.9478 36.6571C66.467 35.7915 66.1725 34.6759 65.2923 34.1662C64.4106 33.6565 63.2763 33.944 62.7556 34.8095C61.4834 36.9337 60.036 38.5777 58.4973 39.7275C56.8485 40.9536 55.226 41.5611 53.5586 41.6575C53.4068 41.6528 53.2549 41.6481 53.1015 41.6481C52.9496 41.6481 52.7962 41.6528 52.6444 41.6575C50.977 41.5611 49.3561 40.9536 47.7057 39.7275C46.167 38.5777 44.7212 36.9337 43.4474 34.8095C42.9283 33.944 41.7924 33.6565 40.9122 34.1662C40.0305 34.6759 39.7376 35.7915 40.2567 36.6586C41.7273 39.1091 43.4644 41.1276 45.4634 42.624C45.8772 42.9348 46.3018 43.2222 46.7357 43.4817C46.3018 43.7412 45.8772 44.0271 45.4634 44.3379C44.5895 44.9937 43.6891 45.6494 42.795 46.4807C41.9024 47.3105 41.0315 48.3205 40.2567 49.6149C39.7376 50.4804 40.0305 51.5977 40.9122 52.1074C41.7924 52.617 42.9283 52.3296 43.4474 51.464C44.044 50.4711 44.6561 49.7656 45.3441 49.1208C46.0306 48.479 46.8116 47.9041 47.7073 47.2344C48.1443 46.9096 48.5782 46.6283 49.0136 46.389C48.9609 46.4823 48.9098 46.5771 48.8587 46.675C47.6019 49.0431 46.308 52.3296 46.3018 56.0729C46.3018 57.0767 47.1308 57.8909 48.1536 57.8909C49.1763 57.8909 50.0054 57.0767 50.0054 56.0729C49.9992 53.1826 51.0498 50.4012 52.1392 48.3625C52.4708 47.7409 52.8024 47.1893 53.1015 46.7247C53.4176 47.2126 53.7678 47.7969 54.115 48.4588C55.1873 50.4882 56.2038 53.2262 56.1976 56.0729C56.1976 57.0767 57.0267 57.8909 58.051 57.8909C59.0737 57.8909 59.9028 57.0767 59.9028 56.0729C59.8966 52.3296 58.6011 49.0431 57.3459 46.675C57.2932 46.5771 57.2421 46.4823 57.1909 46.389C57.6248 46.6283 58.0603 46.9096 58.4973 47.2344C59.3914 47.9041 60.1724 48.479 60.8604 49.1208C61.5485 49.7656 62.159 50.4711 62.7556 51.4625C63.1012 52.039 63.7195 52.3591 64.3533 52.3591C64.6725 52.3591 64.9964 52.2783 65.2923 52.1074C66.1725 51.5977 66.467 50.4804 65.9478 49.6149Z"
      fill="#3CA0FF"/>
  </g>
  <defs>
    <clipPath id="clip2">
      <rect width="180.714" height="46" fill="white" transform="translate(40 12)"/>
    </clipPath>
  </defs>
</svg>
