<svg width="187" height="40" viewBox="0 0 187 40" fill="none" xmlns="http://www.w3.org/2000/svg">
  <title>[logo] TopMonks</title>
  <path fill-rule="evenodd" clip-rule="evenodd"
        d="M48.1402 14.7134C47.3005 15.5174 46.432 16.9243 46.432 19.0488C46.432 20.8003 47.011 22.207 48.1982 23.3552C49.4432 24.5324 50.833 24.9347 52.3391 24.9347C54.308 24.9347 55.6978 24.2167 56.6244 23.298C57.3772 22.5804 58.304 21.2308 58.304 19.0196C58.304 17.0391 57.493 15.5746 56.6244 14.7134C55.669 13.7947 54.1342 13.077 52.3677 13.077C50.6884 13.077 49.1828 13.68 48.1402 14.7134ZM59.8676 11.785C61.6919 13.5363 62.8791 16.0629 62.8791 19.0196C62.8791 21.5753 61.9523 24.188 59.8676 26.1977C58.0723 27.9203 55.6398 29.0113 52.3969 29.0113C48.7773 29.0113 46.316 27.5758 44.8681 26.1977C43.015 24.4751 41.8567 21.8913 41.8567 19.0777C41.8567 16.3213 43.1019 13.5363 44.8392 11.8137C46.1425 10.5218 48.5455 9.00006 52.3969 9.00006C55.4083 9.00006 57.9274 9.91901 59.8676 11.785Z"
        fill="#545FEF"/>
  <path fill-rule="evenodd" clip-rule="evenodd"
        d="M69.5617 18.245H71.1542C71.7623 18.245 72.8338 18.2161 73.5574 17.5272C73.963 17.1252 74.2814 16.4649 74.2814 15.6323C74.2814 14.8284 73.9919 14.1681 73.5574 13.766C72.8915 13.1344 71.9361 13.0483 71.0673 13.0483H69.5617V18.245ZM71.907 9.4306C73.5866 9.4306 75.4397 9.6604 76.9744 11.0098C78.6249 12.4451 78.8564 14.3403 78.8564 15.6611C78.8564 18.0726 77.9301 19.4221 77.2062 20.1685C75.6715 21.7188 73.6443 21.8625 72.2836 21.8625H69.5617V28.5807H65.1024V9.4306H71.907Z"
        fill="#545FEF"/>
  <path fill-rule="evenodd" clip-rule="evenodd"
        d="M78.8648 28.5808L81.9629 9.43073H85.6694L90.4763 20.8861L95.2831 9.43073H98.9893L102.088 28.5808H97.6286L96.0939 17.154L91.2582 28.5808H89.6946L84.8589 17.154L83.3241 28.5808H78.8648Z"
        fill="#545FEF"/>
  <path fill-rule="evenodd" clip-rule="evenodd"
        d="M109.294 14.7134C108.454 15.5174 107.586 16.9243 107.586 19.0488C107.586 20.8003 108.165 22.207 109.352 23.3552C110.597 24.5324 111.987 24.9347 113.493 24.9347C115.462 24.9347 116.852 24.2167 117.778 23.298C118.531 22.5804 119.458 21.2308 119.458 19.0196C119.458 17.0391 118.647 15.5746 117.778 14.7134C116.823 13.7947 115.288 13.077 113.521 13.077C111.842 13.077 110.337 13.68 109.294 14.7134ZM121.021 11.785C122.846 13.5363 124.033 16.0629 124.033 19.0196C124.033 21.5753 123.106 24.188 121.021 26.1977C119.226 27.9203 116.794 29.0113 113.551 29.0113C109.931 29.0113 107.47 27.5758 106.022 26.1977C104.169 24.4751 103.01 21.8913 103.01 19.0777C103.01 16.3213 104.256 13.5363 105.993 11.8137C107.296 10.5218 109.699 9.00006 113.551 9.00006C116.562 9.00006 119.081 9.91901 121.021 11.785Z"
        fill="#545FEF"/>
  <path fill-rule="evenodd" clip-rule="evenodd"
        d="M126.256 28.5808V9.43073H130.136L140.619 21.7762V9.43073H145.078V28.5808H141.198L130.715 16.1776V28.5808H126.256Z"
        fill="#545FEF"/>
  <path fill-rule="evenodd" clip-rule="evenodd"
        d="M152.8 17.4123L159.402 9.43079H164.846L157.027 18.5033L165.454 28.5809H159.72L152.8 20.0825V28.5809H148.341V9.43079H152.8V17.4123Z"
        fill="#545FEF"/>
  <path fill-rule="evenodd" clip-rule="evenodd"
        d="M176.257 14.1106C174.809 12.8187 173.564 12.7326 173.014 12.7326C172.406 12.7326 171.653 12.8187 171.132 13.3928C170.842 13.6799 170.639 14.1106 170.639 14.5986C170.639 15.058 170.784 15.4025 171.074 15.661C171.537 16.0917 172.203 16.264 173.506 16.752L174.954 17.2975C175.794 17.6131 176.836 18.0439 177.589 18.7616C178.719 19.824 179.008 21.2021 179.008 22.3219C179.008 24.303 178.313 26.0256 177.299 27.0591C175.591 28.8392 173.101 29.0115 171.827 29.0115C170.437 29.0115 169.221 28.8106 168.004 28.2074C167.02 27.7194 165.89 26.8293 165.167 26.1118L167.483 22.9536C167.976 23.4416 168.757 24.1018 169.279 24.4178C170.032 24.8771 170.813 25.1067 171.711 25.1067C172.29 25.1067 173.101 24.9919 173.738 24.4464C174.114 24.1307 174.433 23.6138 174.433 22.8961C174.433 22.2644 174.172 21.8623 173.767 21.5178C173.245 21.0873 172.058 20.6566 171.508 20.4556L169.915 19.9102C169.018 19.5942 167.976 19.1924 167.222 18.3884C166.209 17.3261 166.065 15.9769 166.065 15.058C166.065 13.3642 166.585 11.9286 167.744 10.7515C169.105 9.37346 170.726 9 172.522 9C173.854 9 175.997 9.2298 178.255 10.8952L176.257 14.1106Z"
        fill="#545FEF"/>
  <path fill-rule="evenodd" clip-rule="evenodd"
        d="M29.128 9.79315V13.539H33.2846V29.0115H37.6995V13.539H41.8566V9.79315H29.128Z" fill="#545FEF"/>
  <path fill-rule="evenodd" clip-rule="evenodd"
        d="M19.323 29.259C17.4064 29.259 16.9514 28.518 15.6277 28.518H15.5937C14.2531 28.518 13.8118 29.259 11.8953 29.259C8.52522 29.2409 7.14469 25.774 8.80561 24.2972C9.65413 23.6375 10.7232 24.0362 11.368 25.0092C12.013 25.9821 12.9803 27.5721 15.0507 27.4787C14.5104 27.2595 14.0915 27.046 13.7578 26.8324C15.7016 26.1493 17.0768 25.3113 18.0437 24.5086C18.1736 24.836 18.3724 25.1532 18.5657 25.4106C18.1845 25.9464 17.7433 26.1884 16.5667 26.727C18.1959 26.5951 18.7842 26.0674 19.7459 25.012C20.5356 24.1457 21.5626 23.6375 22.4112 24.2972C24.0721 25.774 22.6931 29.2409 19.323 29.259ZM10.8307 20.3067C11.5557 19.6526 12.3905 19.4589 12.5256 19.431C13.1325 20.2847 14.1003 21.1314 15.5937 21.1337C17.1211 21.1314 18.0687 20.2847 18.6757 19.431C18.7478 19.4459 19.023 19.5083 19.374 19.663C18.0864 23.2754 14.3537 24.4415 13.0555 24.7555C13.2625 24.3045 13.3866 23.8177 13.2517 23.4619C13.1173 23.1072 12.7879 22.8089 12.4234 22.6137C12.4184 22.4155 12.4209 21.8219 12.6069 21.406C12.2201 21.8195 12.0321 22.2003 11.9572 22.4259C11.7747 22.376 11.5999 22.3564 11.4529 22.3735C11.03 22.4229 10.4428 22.8653 10.1732 23.0856C10.1059 23.0665 10.0373 23.0505 9.9676 23.0376C10.0757 21.9476 10.3566 20.9322 10.8307 20.3067ZM11.8299 17.1951C11.2114 16.976 10.8893 16.0642 11.6868 15.4267C11.9405 15.5885 12.1577 15.8836 12.1577 15.8836C11.6996 13.5336 13.048 11.0996 15.6076 11.0975C18.1671 11.0996 19.5155 13.5336 19.0573 15.8836C19.0573 15.8836 19.2746 15.5885 19.5282 15.4267C20.3258 16.0642 20.0036 16.976 19.3852 17.1951C19.2194 17.0578 19.1294 16.9745 18.9973 16.8043C18.8137 18.2183 17.804 20.3243 15.6076 20.3263C13.411 20.3243 12.4014 18.2183 12.2177 16.8043C12.0858 16.9745 11.9957 17.0578 11.8299 17.1951ZM12.2109 25.0054C12.063 24.733 11.9004 24.446 11.6736 24.1381C11.4817 23.8778 11.162 23.5681 10.7627 23.338C10.9401 23.1587 11.2475 22.9025 11.5774 22.8903C11.9681 22.8758 12.5812 23.2614 12.7087 23.7148C12.8396 24.1796 12.4212 24.7544 12.2109 25.0054ZM20.4524 23.338C20.0532 23.5681 19.7334 23.8778 19.5416 24.1381C19.3147 24.446 19.1359 24.6213 18.9363 24.9065C18.7261 24.6554 18.3756 24.1796 18.5063 23.7148C18.634 23.2614 19.2472 22.8758 19.6377 22.8903C19.9675 22.9025 20.275 23.1587 20.4524 23.338ZM20.3803 20.3068C20.8543 20.9323 21.1374 21.9477 21.2455 23.0376C21.1757 23.0505 21.1082 23.0666 21.0408 23.0856C20.7962 22.8858 20.2903 22.5028 19.8826 22.3968C20.1501 21.9318 20.2324 21.637 20.2324 21.637C20.0908 21.8952 19.9347 22.1407 19.767 22.3743C19.7652 22.3741 19.7634 22.3738 19.7617 22.3736C19.196 22.3076 18.2212 22.7814 17.9631 23.4619C17.8749 23.6944 17.8828 23.9543 17.9484 24.2166C15.9888 25.7132 13.7441 26.3387 13.2575 26.4619C12.9485 26.1933 12.741 25.9214 12.5655 25.6377C18.1591 24.2648 19.4939 20.7584 19.7494 19.8523C19.9566 19.971 20.1733 20.1201 20.3803 20.3068ZM15.6276 29.5392C16.6798 29.5392 16.5296 29.783 18.3398 30.1567C23.363 31.0802 25.166 25.9751 23.4278 23.9575C23.0488 23.5175 22.6608 23.2547 22.2822 23.1194C22.251 22.8794 21.9671 20.8476 21.1764 19.8668C20.15 18.8674 19.2472 18.6085 19.1884 18.5925C19.3468 18.2842 19.4929 18.0212 19.5717 17.8594C20.2437 17.8732 21.5141 16.1763 19.9183 14.9277C19.9183 11.0902 16.6798 10.1785 15.5937 10.1754C14.5415 10.1785 11.2829 11.0902 11.2829 14.9277C9.68715 16.1763 10.9688 17.8733 11.6408 17.8594C11.7196 18.0214 11.8669 18.2843 12.0254 18.5926C11.9667 18.6086 11.0645 18.8676 10.038 19.8671C9.24729 20.8477 8.96375 22.8797 8.93262 23.1197C8.55404 23.2551 8.1662 23.518 7.78709 23.958C6.04887 25.9757 7.85507 31.0802 12.8783 30.1567C14.6885 29.783 14.5302 29.5392 15.5937 29.5392H15.6276ZM16.0346 13.8265C16.2932 13.8497 16.5222 13.6651 16.5462 13.414C16.5701 13.1628 16.3799 12.9404 16.1213 12.9172C15.8628 12.8939 15.6338 13.0786 15.6097 13.3297C15.5858 13.5808 15.776 13.8032 16.0346 13.8265ZM16.0346 12.9132C16.2932 12.9365 16.5222 12.7518 16.5462 12.5007C16.5701 12.2496 16.3798 12.0271 16.1213 12.0039C15.8628 11.9806 15.6338 12.1653 15.6097 12.4164C15.5858 12.6675 15.776 12.8899 16.0346 12.9132ZM17.4888 16.5682C16.8507 16.8929 16.2211 16.8929 15.6077 16.5682C15.6077 17.7859 17.4888 17.7859 17.4888 16.5682ZM14.6671 16.5682C14.0538 16.8929 13.4241 16.8929 12.7861 16.5682C12.7861 17.7859 14.6671 17.7859 14.6671 16.5682ZM15.1808 12.9132C15.4394 12.8899 15.6296 12.6675 15.6056 12.4164C15.5817 12.1653 15.3526 11.9806 15.094 12.0039C14.8354 12.0271 14.6452 12.2496 14.6692 12.5007C14.6931 12.7518 14.9222 12.9365 15.1808 12.9132ZM15.094 13.8305C14.8354 13.8537 14.6452 14.0761 14.6692 14.3272C14.6931 14.5783 14.9222 14.763 15.1808 14.7398C15.4394 14.7165 15.6296 14.4941 15.6056 14.243C15.5817 13.9919 15.3526 13.8072 15.094 13.8305ZM16.0346 14.7398C16.2933 14.763 16.5223 14.5783 16.5462 14.3272C16.5701 14.0761 16.3799 13.8537 16.1213 13.8305C15.8628 13.8072 15.6338 13.9919 15.6097 14.243C15.5858 14.4941 15.776 14.7165 16.0346 14.7398ZM15.094 12.9172C14.8354 12.9404 14.6452 13.1628 14.6692 13.414C14.6931 13.6651 14.9222 13.8497 15.1808 13.8265C15.4393 13.8032 15.6296 13.5808 15.6056 13.3297C15.5817 13.0786 15.3526 12.8939 15.094 12.9172Z"
        fill="#545FEF"/>
</svg>
