<?xml version="1.0" standalone="no"?>
<!DOCTYPE svg PUBLIC "-//W3C//DTD SVG 20010904//EN"
 "http://www.w3.org/TR/2001/REC-SVG-20010904/DTD/svg10.dtd">
<svg version="1.0" xmlns="http://www.w3.org/2000/svg"
 width="256.000000pt" height="256.000000pt" viewBox="0 0 256.000000 256.000000"
 preserveAspectRatio="xMidYMid meet">
<metadata>
Created by potrace 1.11, written by Peter Selinger 2001-2013
</metadata>
<g transform="translate(0.000000,256.000000) scale(0.100000,-0.100000)"
fill="#000000" stroke="none">
<path d="M0 1280 l0 -1280 1280 0 1280 0 0 1280 0 1280 -1280 0 -1280 0 0
-1280z m1822 890 c52 -15 81 -55 75 -103 -6 -45 -28 -80 -64 -104 -21 -14 -56
-19 -153 -23 l-125 -5 -57 -340 c-32 -187 -78 -475 -102 -640 l-43 -300 116
-5 c120 -6 149 -15 175 -52 23 -33 20 -100 -5 -132 -42 -53 -58 -56 -321 -56
-167 0 -287 -5 -385 -17 -134 -16 -145 -16 -178 0 -56 27 -72 95 -35 155 32
53 111 83 233 91 l101 6 19 125 c10 69 45 289 78 490 64 394 99 620 99 650 0
16 -11 18 -124 21 -115 4 -126 6 -150 28 -32 30 -35 91 -6 138 43 72 100 81
495 82 191 1 335 -3 357 -9z"/>
</g>
</svg>
