<svg width="79" height="79" viewBox="0 0 79 79" fill="none" xmlns="http://www.w3.org/2000/svg">
<g id="Group 160" clip-path="url(#clip0)">
<g id="Group 114" clip-path="url(#clip1)">
<path id="Path 55" d="M0 0.585938V52.6168L26.016 78.6316H78.0469V26.6013L52.0308 0.585938H0Z" fill="#1538E5"/>
<g id="Group 113" clip-path="url(#clip2)">
<path id="Path 56" fill-rule="evenodd" clip-rule="evenodd" d="M3.25403 45.7117V33.5059H8.27576C10.8742 33.5059 12.391 35.1099 12.391 37.3594C12.391 39.5914 10.8742 41.213 8.27576 41.213H5.88709V45.7117L3.25403 45.7117ZM5.88708 39.0334H8.11877C9.3396 39.0334 9.86261 38.2487 9.86261 37.3594C9.86261 36.47 9.3396 35.6854 8.11877 35.6854H5.88708V39.0334Z" fill="white"/>
<path id="Path 57" fill-rule="evenodd" clip-rule="evenodd" d="M11.988 41.318C11.988 38.7024 13.9237 36.7842 16.6266 36.7842C19.3293 36.7842 21.2647 38.7024 21.2647 41.318C21.2647 43.9336 19.3293 45.8517 16.6266 45.8517C13.9237 45.8517 11.988 43.9336 11.988 41.318ZM18.8235 41.318C18.8235 39.8531 17.9342 38.859 16.6266 38.859C15.3186 38.859 14.4293 39.8531 14.4293 41.318C14.4293 42.765 15.3186 43.7591 16.6266 43.7591C17.9342 43.7591 18.8235 42.765 18.8235 41.318Z" fill="white"/>
<path id="Path 58" d="M21.3781 42.7479H23.4707C23.5576 43.5325 24.1681 44.0206 25.0747 44.0206C25.8246 44.0206 26.3476 43.6544 26.3476 43.1664C26.3476 41.3702 21.6222 43.1314 21.6222 39.4345C21.6222 37.8827 22.9649 36.7842 24.7608 36.7842C26.8709 36.7842 28.3008 37.9178 28.388 39.6439H26.2779C26.1735 38.894 25.4933 38.4929 24.8305 38.4929C24.1506 38.4929 23.6798 38.7896 23.6798 39.3476C23.6798 41.1435 28.4924 39.1034 28.4924 43.0792C28.4924 44.7532 27.1322 45.8517 25.0747 45.8517C22.9299 45.8517 21.4653 44.6485 21.3781 42.7479L21.3781 42.7479Z" fill="white"/>
<path id="Path 59" d="M30.2316 34.3252H32.6552V36.9232H35.0092V38.9458H32.6552V42.2592C32.6552 43.1135 33.1086 43.5146 33.8931 43.5146H35.0092V45.7116H33.5621C31.5392 45.7116 30.2316 44.5609 30.2316 42.5208V38.9458H28.54V36.9232H30.2316L30.2316 34.3252Z" fill="white"/>
<path id="Path 60" d="M35.3301 39.6087C35.3301 35.4935 38.1898 33.3662 41.4506 33.3662C44.5198 33.3662 46.769 35.1099 47.1004 37.743H44.3626C44.1884 36.4701 42.9853 35.6158 41.4506 35.6158C39.4803 35.6158 37.9632 36.9931 37.9632 39.6087C37.9632 42.2243 39.4803 43.5844 41.4506 43.5844C43.0199 43.5844 44.2231 42.7301 44.4323 41.4746H47.0479C46.8212 44.0902 44.572 45.8515 41.4506 45.8515C38.1376 45.8515 35.3301 43.7242 35.3301 39.6087Z" fill="white"/>
<path id="Path 61" d="M55.97 36.9229V45.7113H53.5289V44.4908C53.0406 45.3277 52.064 45.851 50.8608 45.851C48.8904 45.851 47.6 44.4036 47.6 42.3983V36.9229H50.0239V41.8578C50.0239 42.9213 50.7213 43.6887 51.7151 43.6887C52.7789 43.6887 53.5289 42.8516 53.5289 41.7355V36.9229L55.97 36.9229Z" fill="white"/>
<path id="Path 62" fill-rule="evenodd" clip-rule="evenodd" d="M74.7962 42.7303C74.4473 44.631 72.7733 45.8517 70.6113 45.8517C67.6292 45.8517 66.095 43.515 66.095 41.3005C66.095 39.0685 67.4549 36.7842 70.4368 36.7842C73.5404 36.7842 74.7786 39.0685 74.7786 41.0738C74.7786 41.4052 74.7611 41.6666 74.744 41.8584H68.4315C68.6058 43.0965 69.3906 43.8639 70.6113 43.8639C71.5875 43.8639 72.2328 43.48 72.4244 42.7303H74.7962ZM68.4664 40.3239H72.3549C72.2853 39.3476 71.605 38.5629 70.4368 38.5629C69.3383 38.5629 68.6756 39.1034 68.4664 40.3239Z" fill="white"/>
<path id="Path 63" fill-rule="evenodd" clip-rule="evenodd" d="M61.6698 36.7841C60.5714 36.7841 59.717 37.2027 59.2287 37.8476V33.7549H56.8051V45.7119H59.2287V44.7531C59.717 45.433 60.6236 45.8513 61.6351 45.8513C64.2332 45.8513 65.785 44.0554 65.785 41.3178C65.785 38.58 64.2332 36.7841 61.6698 36.7841ZM61.2513 43.759C59.9437 43.759 59.0893 42.7824 59.0893 41.3178C59.0893 39.8354 59.9437 38.8592 61.2513 38.8592C62.5242 38.8592 63.3961 39.8354 63.3961 41.3178C63.3961 42.7824 62.5242 43.759 61.2513 43.759Z" fill="white"/>
</g>
</g>
</g>
<defs>
<clipPath id="clip0">
<rect width="78.0469" height="78.0456" fill="white" transform="translate(0 0.585938)"/>
</clipPath>
<clipPath id="clip1">
<rect width="78.0469" height="78.0456" fill="white" transform="translate(0 0.585938)"/>
</clipPath>
<clipPath id="clip2">
<rect width="71.5422" height="12.4855" fill="white" transform="translate(3.25403 33.3662)"/>
</clipPath>
</defs>
</svg>
