<svg width="345" height="217" viewBox="0 0 345 217" fill="none" xmlns="http://www.w3.org/2000/svg">
<mask id="mask0" mask-type="alpha" maskUnits="userSpaceOnUse" x="0" y="0" width="345" height="217">
<path d="M315.875 0H0V187.832L29.1248 217H345V29.169L315.875 0Z" fill="#F2F2F2"/>
</mask>
<g mask="url(#mask0)">
<rect width="346" height="217" fill="#F2F2F2"/>
<g clip-path="url(#clip0)">
<path d="M183.593 92.0049C173.558 92.0049 165.264 98.6609 165.264 106.853C165.264 111.154 167.619 115.25 171.612 118.117C171.408 118.731 171.1 119.346 170.793 119.96C170.179 121.189 170.281 122.622 171.1 123.749C171.715 124.568 172.739 125.08 173.865 125.08C174.172 125.08 174.377 125.08 174.684 124.978C177.449 124.363 179.804 123.237 181.648 121.598C182.364 121.701 182.979 121.701 183.593 121.701C193.628 121.701 201.82 115.045 201.82 106.853C201.82 98.6609 193.628 92.0049 183.593 92.0049ZM175.708 117.605L175.913 116.274L174.787 115.557C171.203 113.406 169.155 110.232 169.155 106.853C169.155 100.811 175.606 95.7937 183.593 95.7937C191.58 95.7937 198.032 100.811 198.032 106.853C198.032 112.997 191.58 117.912 183.593 117.912C182.876 117.912 182.057 117.81 181.238 117.707L180.316 117.605L179.6 118.322C178.371 119.55 176.732 120.472 174.582 121.086C175.196 119.96 175.504 118.731 175.708 117.605Z" fill="#1538E5"/>
<path d="M176.118 110.232C177.589 110.232 178.781 109.04 178.781 107.57C178.781 106.099 177.589 104.907 176.118 104.907C174.648 104.907 173.456 106.099 173.456 107.57C173.456 109.04 174.648 110.232 176.118 110.232Z" fill="#1538E5"/>
<path d="M183.594 110.232C185.064 110.232 186.256 109.04 186.256 107.57C186.256 106.099 185.064 104.907 183.594 104.907C182.124 104.907 180.932 106.099 180.932 107.57C180.932 109.04 182.124 110.232 183.594 110.232Z" fill="#1538E5"/>
<path d="M191.069 110.232C192.539 110.232 193.731 109.04 193.731 107.57C193.731 106.099 192.539 104.907 191.069 104.907C189.598 104.907 188.406 106.099 188.406 107.57C188.406 109.04 189.598 110.232 191.069 110.232Z" fill="#1538E5"/>
<path d="M187.997 79H158.608C156.048 79 154 81.048 154 83.608V138.392C154 140.952 156.048 143 158.608 143H187.997C190.557 143 192.605 140.952 192.605 138.392V123.134C190.966 123.749 189.226 124.261 187.485 124.466V129.586H159.12V86.7824H187.485V89.24C189.328 89.5472 190.966 89.9568 192.605 90.6736V83.608C192.605 81.048 190.557 79 187.997 79ZM173.354 132.965C175.094 132.965 176.426 134.398 176.426 136.037C176.426 137.675 174.992 139.109 173.354 139.109C171.613 139.109 170.282 137.675 170.282 136.037C170.179 134.296 171.613 132.965 173.354 132.965ZM179.805 84.0176H166.8C166.493 84.0176 166.186 83.5056 166.186 82.8912C166.186 82.2768 166.493 81.7648 166.8 81.7648H179.907C180.214 81.7648 180.522 82.2768 180.522 82.8912C180.419 83.5056 180.214 84.0176 179.805 84.0176Z" fill="#1538E5"/>
</g>
</g>
<defs>
<clipPath id="clip0">
<rect width="47.9232" height="64" fill="white" transform="translate(154 79)"/>
</clipPath>
</defs>
</svg>
