<svg width="345" height="217" viewBox="0 0 345 217" fill="none" xmlns="http://www.w3.org/2000/svg">
<mask id="mask0" mask-type="alpha" maskUnits="userSpaceOnUse" x="0" y="0" width="345" height="217">
<path d="M315.875 0H0V187.832L29.1248 217H345V29.169L315.875 0Z" fill="#F2F2F2"/>
</mask>
<g mask="url(#mask0)">
<rect width="346" height="217" fill="#F2F2F2"/>
</g>
<g clip-path="url(#clip0)">
<path d="M169.384 122.547C177.027 120.781 181.488 119.237 178.04 112.728C167.555 92.9226 175.262 82.3333 186.336 82.3333C197.63 82.3333 205.147 93.3306 194.63 112.728C191.078 119.275 195.795 120.819 203.275 122.547C209.896 124.077 210.334 127.312 210.334 132.917V135.667H162.334C162.334 128.347 161.747 124.312 169.384 122.547ZM135.667 135.667H156.491C156.398 113.861 165.654 121.499 165.654 105.995C165.654 99.2986 161.283 95.6666 155.659 95.6666C147.352 95.6666 141.574 103.611 149.438 118.464C152.022 123.344 146.688 124.504 140.955 125.827C135.99 126.973 135.667 129.4 135.667 133.605V135.667Z" fill="#1538E5"/>
</g>
<defs>
<clipPath id="clip0">
<rect width="64" height="64" fill="white" transform="translate(141 77)"/>
</clipPath>
</defs>
</svg>
