<svg width="345" height="217" viewBox="0 0 345 217" fill="none" xmlns="http://www.w3.org/2000/svg">
<mask id="mask0" mask-type="alpha" maskUnits="userSpaceOnUse" x="0" y="0" width="345" height="217">
<path d="M315.875 0H0V187.832L29.1248 217H345V29.169L315.875 0Z" fill="#F2F2F2"/>
</mask>
<g mask="url(#mask0)">
<rect width="346" height="217" fill="#F2F2F2"/>
</g>
<path fill-rule="evenodd" clip-rule="evenodd" d="M149 125H143.667C142.195 125 141 123.805 141 122.333V117H181V93H193.445C196.424 93 197.712 94.536 198.608 95.952C200.192 98.4587 202.704 102.437 204.232 104.96C204.733 105.792 205 106.747 205 107.72V119.667C205 122.656 203.059 125 199.667 125H197C197 129.416 193.416 133 189 133C184.584 133 181 129.416 181 125H165C165 129.416 161.416 133 157 133C152.584 133 149 129.416 149 125ZM157 121.8C158.765 121.8 160.2 123.235 160.2 125C160.2 126.765 158.765 128.2 157 128.2C155.235 128.2 153.8 126.765 153.8 125C153.8 123.235 155.235 121.8 157 121.8ZM189 121.8C190.765 121.8 192.2 123.235 192.2 125C192.2 126.765 190.765 128.2 189 128.2C187.235 128.2 185.8 126.765 185.8 125C185.8 123.235 187.235 121.8 189 121.8ZM178.333 114.333H141V87.6667C141 86.1947 142.195 85 143.667 85H175.667C177.139 85 178.333 86.1947 178.333 87.6667V114.333ZM186.333 98.3333V106.333H198.907L195.101 99.6773C194.627 98.8453 193.744 98.3333 192.787 98.3333H186.333Z" fill="#1538E5"/>
</svg>
