<svg width="345" height="217" viewBox="0 0 345 217" fill="none" xmlns="http://www.w3.org/2000/svg">
<mask id="mask0" mask-type="alpha" maskUnits="userSpaceOnUse" x="0" y="0" width="345" height="217">
<path d="M315.875 0H0V187.832L29.1248 217H345V29.169L315.875 0Z" fill="#F2F2F2"/>
</mask>
<g mask="url(#mask0)">
<rect width="346" height="217" fill="#F2F2F2"/>
<path fill-rule="evenodd" clip-rule="evenodd" d="M177.168 141H146.333C143.389 141 141 138.611 141 135.667V82.3333C141 79.3893 143.389 77 146.333 77H183.667C186.611 77 189 79.3893 189 82.3333V93H183.667V85H146.333V130.333H175.667V137C175.667 138.397 176.152 140.133 177.168 141ZM201 95.6667C203.208 95.6667 205 97.4587 205 99.6667V137C205 139.203 203.211 141 201 141H182.333C180.123 141 178.333 139.2 178.333 137V99.6667C178.333 97.4613 180.128 95.6667 182.333 95.6667H201ZM165 133C166.472 133 167.667 134.195 167.667 135.667C167.667 137.139 166.472 138.333 165 138.333C163.528 138.333 162.333 137.139 162.333 135.667C162.333 134.195 163.528 133 165 133ZM191.667 138.333C190.192 138.333 189 137.139 189 135.667C189 134.195 190.192 133 191.667 133C193.139 133 194.331 134.195 194.331 135.667C194.331 137.139 193.139 138.333 191.667 138.333ZM202.333 130.333V103.603H181V130.333H202.333ZM193 101C193.733 101 194.333 100.403 194.333 99.6667C194.333 98.9307 193.733 98.3333 193 98.3333H190.333C189.597 98.3333 189 98.9307 189 99.6667C189 100.403 189.597 101 190.333 101H193Z" fill="#1538E5"/>
</g>
</svg>
