<?xml version="1.0" encoding="UTF-8"?>
<svg width="72px" height="92px" viewBox="0 0 63 63" version="1.1" xmlns="http://www.w3.org/2000/svg" xmlns:xlink="http://www.w3.org/1999/xlink">
    <!-- Generator: Sketch 50.2 (55047) - http://www.bohemiancoding.com/sketch -->
    <title>ikonka</title>
    <desc>Created with Sketch.</desc>
    <defs></defs>
    <g id="Page-1" stroke="none" stroke-width="1" fill="none" fill-rule="evenodd" stroke-linecap="round" stroke-linejoin="round">
        <g id="TopMonks-mobil" transform="translate(-129.000000, -969.000000)" stroke-width="2">
            <g id="box-2" transform="translate(15.000000, 906.000000)">
                <g id="ikonka" transform="translate(115.000000, 64.000000)">
                    <path d="M61,54.9753086 C61,58.3024444 58.3024444,61 54.9753086,61 L6.02469136,61 C2.69755556,61 0,58.3024444 0,54.9753086 L0,6.02469136 C0,2.69755556 2.69755556,0 6.02469136,0 L54.9753086,0 C58.3024444,0 61,2.69755556 61,6.02469136 L61,54.9753086 Z" id="Shape" stroke="#31A4ED"></path>
                    <path d="M1,10 L61,10" id="Shape" stroke="#31A4ED"></path>
                    <path d="M5,5 L14,5" id="Shape" stroke="#31A4ED"></path>
                    <circle id="Oval" stroke="#FF7880" cx="40" cy="5" r="2"></circle>
                    <circle id="Oval" stroke="#FF7880" cx="48" cy="5" r="2"></circle>
                    <circle id="Oval" stroke="#FF7880" cx="55" cy="5" r="2"></circle>
                    <polyline id="Shape" stroke="#FF7880" points="21 41 14 34 21 27"></polyline>
                    <polyline id="Shape" stroke="#FF7880" points="41 41 48 34 41 27"></polyline>
                    <path d="M33,27 L28,41" id="Shape" stroke="#FF7880"></path>
                </g>
            </g>
        </g>
    </g>
</svg>
