<?xml version="1.0" encoding="UTF-8"?>
<svg width="85px" height="92px" viewBox="0 0 82 82" version="1.1" xmlns="http://www.w3.org/2000/svg" xmlns:xlink="http://www.w3.org/1999/xlink">
    <!-- Generator: Sketch 50.2 (55047) - http://www.bohemiancoding.com/sketch -->
    <title>noun_1417835_cc</title>
    <desc>Created with Sketch.</desc>
    <defs></defs>
    <g id="Page-1" stroke="none" stroke-width="1" fill="none" fill-rule="evenodd">
        <g id="TopMonks-mobil" transform="translate(-119.000000, -546.000000)" fill-rule="nonzero">
            <g id="box-1" transform="translate(15.000000, 493.000000)">
                <g id="Group" transform="translate(58.000000, 26.000000)">
                    <g id="noun_1417835_cc" transform="translate(46.000000, 27.000000)">
                        <g id="Group" transform="translate(25.000000, 19.000000)" fill="#FF7880">
                            <path d="M16,43.383 C11.838,43.383 8.453,39.998 8.453,35.837 C8.453,29.666 6.616,27.539 4.67,25.288 C2.819,23.146 0.906,20.931 0.906,15.712 C0.906,7.39 7.677,0.618 16,0.618 C24.323,0.618 31.094,6.907 31.094,15.712 L28.578,15.712 C28.578,8.165 22.935,3.134 16,3.134 C9.065,3.134 3.422,8.777 3.422,15.713 C3.422,19.996 4.883,21.687 6.574,23.645 C8.634,26.028 10.969,28.731 10.969,35.838 C10.969,38.612 13.226,40.869 16,40.869 C18.774,40.869 21.031,38.353 21.031,35.838 L23.547,35.838 C23.547,39.609 20.162,43.383 16,43.383 Z" id="Shape"></path>
                            <path d="M18.516,33.32 C15.742,33.32 13.485,30.804 13.485,28.289 L16,28.289 C16,29.547 17.128,30.805 18.516,30.805 C19.904,30.805 21.032,29.677 21.032,28.289 C21.032,26.901 19.904,25.773 18.516,25.773 L16,25.773 C10.452,25.773 5.937,21.259 5.937,15.71 C5.937,10.161 10.452,5.648 16,5.648 C21.548,5.648 26.063,10.679 26.063,15.711 L23.547,15.711 C23.547,11.938 20.162,8.164 16,8.164 C11.838,8.164 8.453,11.55 8.453,15.711 C8.453,19.873 11.838,23.258 16,23.258 L18.516,23.258 C21.29,23.258 23.547,25.515 23.547,28.289 C23.547,31.064 21.29,33.32 18.516,33.32 Z" id="Shape"></path>
                        </g>
                        <rect id="Rectangle-path" fill="#30A6EE" x="17.102" y="27.164" width="2.516" height="2.516"></rect>
                        <rect id="Rectangle-path" fill="#30A6EE" x="10.813" y="23.391" width="2.516" height="2.516"></rect>
                        <rect id="Rectangle-path" fill="#30A6EE" x="4.523" y="19.617" width="2.516" height="2.516"></rect>
                        <rect id="Rectangle-path" fill="#30A6EE" x="27.164" y="17.102" width="2.516" height="2.516"></rect>
                        <rect id="Rectangle-path" fill="#30A6EE" x="23.391" y="10.813" width="2.516" height="2.516"></rect>
                        <rect id="Rectangle-path" fill="#30A6EE" x="19.617" y="4.523" width="2.516" height="2.516"></rect>
                        <rect id="Rectangle-path" fill="#30A6EE" x="39.742" y="7.039" width="2.516" height="2.516"></rect>
                        <rect id="Rectangle-path" fill="#30A6EE" x="39.742" y="13.328" width="2.516" height="2.516"></rect>
                        <rect id="Rectangle-path" fill="#30A6EE" x="39.742" y="0.75" width="2.516" height="2.516"></rect>
                        <rect id="Rectangle-path" fill="#30A6EE" x="62.383" y="27.164" width="2.516" height="2.516"></rect>
                        <rect id="Rectangle-path" fill="#30A6EE" x="68.672" y="23.391" width="2.516" height="2.516"></rect>
                        <rect id="Rectangle-path" fill="#30A6EE" x="74.961" y="19.617" width="2.516" height="2.516"></rect>
                        <rect id="Rectangle-path" fill="#30A6EE" x="52.32" y="17.102" width="2.516" height="2.516"></rect>
                        <rect id="Rectangle-path" fill="#30A6EE" x="56.094" y="10.813" width="2.516" height="2.516"></rect>
                        <rect id="Rectangle-path" fill="#30A6EE" x="59.867" y="4.523" width="2.516" height="2.516"></rect>
                        <rect id="Rectangle-path" fill="#30A6EE" x="7.039" y="39.742" width="2.516" height="2.516"></rect>
                        <rect id="Rectangle-path" fill="#30A6EE" x="13.328" y="39.742" width="2.516" height="2.516"></rect>
                        <rect id="Rectangle-path" fill="#30A6EE" x="0.75" y="39.742" width="2.516" height="2.516"></rect>
                        <rect id="Rectangle-path" fill="#30A6EE" x="17.102" y="52.32" width="2.516" height="2.516"></rect>
                        <rect id="Rectangle-path" fill="#30A6EE" x="10.813" y="56.094" width="2.516" height="2.516"></rect>
                        <rect id="Rectangle-path" fill="#30A6EE" x="4.523" y="59.867" width="2.516" height="2.516"></rect>
                        <rect id="Rectangle-path" fill="#30A6EE" x="27.164" y="62.383" width="2.516" height="2.516"></rect>
                        <rect id="Rectangle-path" fill="#30A6EE" x="23.391" y="68.672" width="2.516" height="2.516"></rect>
                        <rect id="Rectangle-path" fill="#30A6EE" x="19.617" y="74.961" width="2.516" height="2.516"></rect>
                        <rect id="Rectangle-path" fill="#30A6EE" x="39.742" y="72.445" width="2.516" height="2.516"></rect>
                        <rect id="Rectangle-path" fill="#30A6EE" x="39.742" y="66.156" width="2.516" height="2.516"></rect>
                        <rect id="Rectangle-path" fill="#30A6EE" x="39.742" y="78.734" width="2.516" height="2.516"></rect>
                        <rect id="Rectangle-path" fill="#30A6EE" x="72.445" y="39.742" width="2.516" height="2.516"></rect>
                        <rect id="Rectangle-path" fill="#30A6EE" x="66.156" y="39.742" width="2.516" height="2.516"></rect>
                        <rect id="Rectangle-path" fill="#30A6EE" x="78.734" y="39.742" width="2.516" height="2.516"></rect>
                        <rect id="Rectangle-path" fill="#30A6EE" x="62.383" y="52.32" width="2.516" height="2.516"></rect>
                        <rect id="Rectangle-path" fill="#30A6EE" x="68.672" y="56.094" width="2.516" height="2.516"></rect>
                        <rect id="Rectangle-path" fill="#30A6EE" x="74.961" y="59.867" width="2.516" height="2.516"></rect>
                        <rect id="Rectangle-path" fill="#30A6EE" x="52.32" y="62.383" width="2.516" height="2.516"></rect>
                        <rect id="Rectangle-path" fill="#30A6EE" x="56.094" y="68.672" width="2.516" height="2.516"></rect>
                        <rect id="Rectangle-path" fill="#30A6EE" x="59.867" y="74.961" width="2.516" height="2.516"></rect>
                    </g>
                </g>
            </g>
        </g>
    </g>
</svg>
