<?xml version="1.0" encoding="UTF-8"?>
<svg width="61px" height="82px" viewBox="0 0 41 61" version="1.1" xmlns="http://www.w3.org/2000/svg" xmlns:xlink="http://www.w3.org/1999/xlink">
    <!-- Generator: Sketch 50.2 (55047) - http://www.bohemiancoding.com/sketch -->
    <title>Group</title>
    <desc>Created with Sketch.</desc>
    <defs></defs>
    <g id="Page-1" stroke="none" stroke-width="1" fill="none" fill-rule="evenodd">
        <g id="TopMonks-mobil" transform="translate(-143.000000, -1384.000000)" fill-rule="nonzero">
            <g id="box-3" transform="translate(15.000000, 1320.000000)">
                <g id="Group" transform="translate(128.000000, 64.000000)">
                    <g id="Shape">
                        <path d="M31.5892857,50.6517857 C27.7767857,50.6517857 24.7267857,48.0375 22.0035714,45.5321429 C17.9732143,41.9375 14.1607143,38.6696429 8.16964286,42.3732143 L7.29821429,40.9571429 C14.3785714,36.6 18.9535714,40.7392857 23.0928571,44.3339286 C27.1232143,47.9285714 30.7178571,50.9785714 36.2732143,47.4928571 L37.1446429,48.9089286 C35.075,50.2160714 33.2232143,50.6517857 31.5892857,50.6517857 Z" fill="#FF7880"></path>
                        <path d="M37.1446429,60.4553571 L4.24821429,60.4553571 C2.94107143,60.4553571 1.74285714,59.8017857 1.08928571,58.7125 C0.435714286,57.6232143 0.326785714,56.3160714 0.871428571,55.1178571 L15.1410714,23.8553571 L15.1410714,8.60535714 C13.2892857,8.27857143 11.8732143,6.53571429 11.8732143,4.575 C11.8732143,2.2875 13.725,0.544642857 15.9035714,0.544642857 L25.5982143,0.544642857 C27.8857143,0.544642857 29.6285714,2.39642857 29.6285714,4.575 C29.6285714,6.53571429 28.2125,8.16964286 26.3607143,8.60535714 L26.3607143,23.8553571 L40.6303571,55.1178571 C41.175,56.3160714 41.0660714,57.6232143 40.4125,58.7125 C39.65,59.8017857 38.4517857,60.4553571 37.1446429,60.4553571 Z M15.7946429,2.17857143 C14.4875,2.17857143 13.3982143,3.26785714 13.3982143,4.575 C13.3982143,5.88214286 14.4875,6.97142857 15.7946429,6.97142857 C16.2303571,6.97142857 16.6660714,7.29821429 16.6660714,7.84285714 L16.6660714,23.9642857 C16.6660714,24.0732143 16.6660714,24.1821429 16.5571429,24.2910714 L2.2875,55.7714286 C1.96071429,56.425 2.06964286,57.1875 2.39642857,57.8410714 C2.83214286,58.4946429 3.48571429,58.8214286 4.24821429,58.8214286 L37.1446429,58.8214286 C37.9071429,58.8214286 38.5607143,58.4946429 38.9964286,57.8410714 C39.4321429,57.1875 39.4321429,56.425 39.1053571,55.7714286 L24.8357143,24.4 C24.8357143,24.2910714 24.7267857,24.1821429 24.7267857,24.0732143 L24.7267857,7.84285714 C24.7267857,7.40714286 25.0535714,6.97142857 25.5982143,6.97142857 C26.9053571,6.97142857 27.9946429,5.88214286 27.9946429,4.575 C27.9946429,3.26785714 26.9053571,2.17857143 25.5982143,2.17857143 L15.7946429,2.17857143 Z" fill="#30A6EE"></path>
                    </g>
                    <path d="M25.0535714,41.5017857 C22.9839286,41.5017857 21.35,39.8678571 21.35,37.7982143 C21.35,35.7285714 22.9839286,34.0946429 25.0535714,34.0946429 C27.1232143,34.0946429 28.7571429,35.7285714 28.7571429,37.7982143 C28.7571429,39.8678571 27.1232143,41.5017857 25.0535714,41.5017857 Z M25.0535714,35.7285714 C23.9642857,35.7285714 22.9839286,36.6 22.9839286,37.7982143 C22.9839286,38.8875 23.8553571,39.8678571 25.0535714,39.8678571 C26.1428571,39.8678571 27.1232143,38.9964286 27.1232143,37.7982143 C27.1232143,36.7089286 26.2517857,35.7285714 25.0535714,35.7285714 Z" id="Shape" fill="#FF7880"></path>
                    <path d="M20.6964286,30.7178571 C19.3892857,30.7178571 18.3,29.6285714 18.3,28.3214286 C18.3,27.0142857 19.3892857,25.925 20.6964286,25.925 C22.0035714,25.925 23.0928571,27.0142857 23.0928571,28.3214286 C23.0928571,29.6285714 22.0035714,30.7178571 20.6964286,30.7178571 Z M20.6964286,27.5589286 C20.2607143,27.5589286 19.9339286,27.8857143 19.9339286,28.3214286 C19.9339286,28.7571429 20.2607143,29.0839286 20.6964286,29.0839286 C21.1321429,29.0839286 21.4589286,28.7571429 21.4589286,28.3214286 C21.4589286,27.8857143 21.1321429,27.5589286 20.6964286,27.5589286 Z" id="Shape" fill="#FF7880"></path>
                </g>
            </g>
        </g>
    </g>
</svg>
