<svg width="48" height="48" viewBox="0 0 48 48" fill="none" xmlns="http://www.w3.org/2000/svg">
<path d="M0 0V32.0002L16.0004 48H48.0005V16.0001L32.0001 0H0Z" fill="#1538E5"/>
<path d="M24.0793 38.256C28.5593 38.256 32.4633 35.696 32.4633 31.344C32.4633 28.912 31.0553 26.992 28.8793 26.192C30.4792 25.296 31.5353 23.504 31.5353 21.424C31.5353 18.096 28.2393 15.344 23.8553 15.344C19.7913 15.344 16.0473 17.968 16.0153 22.448H20.5593C20.5913 20.368 21.9353 19.472 23.7593 19.472C25.6153 19.472 26.8953 20.432 26.8953 21.936C26.8953 23.44 25.7433 24.496 23.9833 24.496H21.9353V28.432H24.0793C26.2873 28.432 27.6953 29.488 27.6953 31.216C27.6953 33.008 26.2873 34.096 24.0793 34.096C21.9993 34.096 20.2713 33.04 20.2713 30.928H15.6313C15.6313 35.536 19.4073 38.256 24.0793 38.256ZM35.507 33.392V38H40.339V33.392H35.507Z" fill="white"/>
</svg>
