<svg width="48" height="48" viewBox="0 0 48 48" fill="none" xmlns="http://www.w3.org/2000/svg">
<path d="M0 0V32.0002L16.0004 48H48.0005V16.0001L32.0001 0H0Z" fill="#1538E5"/>
<path d="M16.658 23.568H21.49C21.426 21.008 22.578 19.248 24.786 19.248C26.802 19.248 27.986 20.496 27.986 22.384C27.986 23.888 27.058 25.04 25.426 25.808L21.778 27.632C19.698 28.656 16.722 30.96 16.722 34.448L16.754 38H32.754V33.84H21.522C21.522 32.784 22.834 31.952 23.922 31.376L27.474 29.584C31.058 27.792 32.818 25.424 32.818 22.384C32.818 18.128 29.554 15.344 24.786 15.344C19.794 15.344 16.594 18.448 16.658 23.568ZM35.2883 33.392V38H40.1203V33.392H35.2883Z" fill="white"/>
</svg>
