<svg width="48" height="48" viewBox="0 0 48 48" fill="none" xmlns="http://www.w3.org/2000/svg">
<path d="M24 21.998C26.874 22.874 29.124 25.126 29.998 28C30.878 25.126 33.128 22.876 36 22C33.128 21.122 30.878 18.874 29.998 16C29.124 18.872 26.874 21.122 24 21.998ZM40.002 22C41.918 22.586 43.416 24.084 44.002 26.002C44.584 24.084 46.086 22.584 48 22C46.086 21.416 44.586 19.916 44 18C43.414 19.916 41.916 21.416 40.002 22ZM38.002 4C37.128 6.874 34.876 9.124 32.006 10.002C34.882 10.882 37.128 13.13 38.008 16.006C38.882 13.13 41.134 10.88 44 10.002C41.134 9.128 38.882 6.874 38.002 4ZM24 48C10.766 48 0 37.234 0 24C0 10.766 10.766 0 24 0C27.788 0 31.26 0.994 34.74 2.358C28.844 3.366 16 8.89 16 24C16 38.908 27.834 44.416 34.74 45.642C31.74 47.334 27.788 48 24 48Z" fill="#1538E5"/>
</svg>
