<svg width="40" height="64" viewBox="0 0 40 64" fill="none" xmlns="http://www.w3.org/2000/svg">
<path fill-rule="evenodd" clip-rule="evenodd" d="M33.7655 0H5.95862C2.66897 0 0 2.6875 0 6V58C0 61.3125 2.66897 64 5.95862 64H33.7655C37.0552 64 39.7241 61.3125 39.7241 58V6C39.7241 2.6875 37.0552 0 33.7655 0ZM19.8621 60C17.6648 60 15.8897 58.2125 15.8897 56C15.8897 53.7875 17.6648 52 19.8621 52C22.0593 52 23.8345 53.7875 23.8345 56C23.8345 58.2125 22.0593 60 19.8621 60ZM33.7655 46.5C33.7655 47.325 33.0952 48 32.2759 48H7.44829C6.62898 48 5.95864 47.325 5.95864 46.5V7.49999C5.95864 6.67499 6.62898 5.99999 7.44829 5.99999H32.2759C33.0952 5.99999 33.7655 6.67499 33.7655 7.49999V46.5Z" fill="#1538E5"/>
</svg>
