<svg width="48" height="48" viewBox="0 0 48 48" fill="none" xmlns="http://www.w3.org/2000/svg">
<path fill-rule="evenodd" clip-rule="evenodd" d="M10 36H8C6.896 36 6 35.104 6 34V30H30V12H39.334C41.568 12 42.534 13.152 43.206 14.214C44.394 16.094 46.278 19.078 47.424 20.97C47.8 21.594 48 22.31 48 23.04V32C48 34.242 46.544 36 44 36H42C42 39.312 39.312 42 36 42C32.688 42 30 39.312 30 36H22C22 39.312 19.312 42 16 42C12.688 42 10 39.312 10 36ZM16 33.6C17.324 33.6 18.4 34.676 18.4 36C18.4 37.324 17.324 38.4 16 38.4C14.676 38.4 13.6 37.324 13.6 36C13.6 34.676 14.676 33.6 16 33.6ZM36 33.6C37.324 33.6 38.4 34.676 38.4 36C38.4 37.324 37.324 38.4 36 38.4C34.676 38.4 33.6 37.324 33.6 36C33.6 34.676 34.676 33.6 36 33.6ZM16 16H0V12H16V10H6V8C6 6.896 6.896 6 8 6H26C27.104 6 28 6.896 28 8V28H6V22H2V18H16V16ZM34 16V22H43.43L40.576 17.008C40.22 16.384 39.558 16 38.84 16H34Z" fill="#1538E5"/>
</svg>
