<?xml version="1.0" standalone="no"?>
<!DOCTYPE svg PUBLIC "-//W3C//DTD SVG 20010904//EN"
 "http://www.w3.org/TR/2001/REC-SVG-20010904/DTD/svg10.dtd">
<svg version="1.0" xmlns="http://www.w3.org/2000/svg"
 width="256.000000pt" height="256.000000pt" viewBox="0 0 256.000000 256.000000"
 preserveAspectRatio="xMidYMid meet">
<metadata>
Created by potrace 1.11, written by Peter Selinger 2001-2013
</metadata>
<g transform="translate(0.000000,256.000000) scale(0.100000,-0.100000)"
fill="#000000" stroke="none">
<path d="M1115 2394 c-16 -14 -55 -49 -85 -77 -31 -29 -104 -97 -164 -152 -60
-55 -123 -113 -140 -129 -17 -15 -71 -65 -120 -110 -49 -44 -103 -94 -120
-111 -88 -84 -73 -78 -215 -80 -122 -1 -132 -3 -170 -28 -64 -42 -76 -74 -76
-204 0 -109 1 -112 31 -150 16 -21 44 -45 61 -53 19 -9 33 -25 36 -40 2 -14
12 -59 21 -100 10 -41 19 -84 22 -95 6 -32 74 -336 88 -400 8 -33 22 -96 32
-140 23 -105 54 -165 106 -208 86 -69 71 -67 648 -67 286 0 520 3 520 8 0 4
-13 29 -28 57 l-27 50 -490 0 c-440 1 -493 3 -522 18 -54 29 -75 69 -104 202
-7 33 -13 62 -14 65 -1 3 -5 23 -9 45 -5 22 -14 65 -22 95 -7 30 -16 71 -19
90 -3 19 -15 71 -25 115 -26 108 -60 263 -60 274 0 10 2028 12 2034 2 2 -3
-10 -64 -27 -134 l-31 -129 24 -18 c13 -10 36 -25 51 -34 l28 -16 12 57 c15
70 12 56 42 183 17 71 31 108 43 115 36 21 73 66 85 103 6 22 10 80 8 133 -4
86 -7 99 -32 132 -46 61 -75 70 -220 72 l-128 2 -37 35 c-65 62 -107 101 -207
193 -54 50 -111 101 -125 115 -15 14 -51 47 -81 74 -30 27 -83 77 -120 110
-36 34 -88 82 -117 109 -55 51 -88 59 -115 29 -37 -40 -27 -55 117 -187 49
-44 105 -96 125 -115 20 -19 84 -78 141 -130 57 -52 118 -108 135 -125 18 -16
51 -47 73 -67 23 -21 39 -39 35 -39 -30 -5 -1403 -3 -1403 2 0 3 41 44 92 90
144 132 209 192 238 219 23 22 108 100 257 237 56 52 69 87 43 113 -27 27 -59
25 -95 -6z"/>
<path d="M1952 929 c-314 -59 -434 -448 -208 -675 100 -100 224 -137 363 -108
73 15 113 34 172 82 147 119 188 326 99 495 -82 153 -257 237 -426 206z"/>
</g>
</svg>
