<?xml version="1.0" standalone="no"?>
<!DOCTYPE svg PUBLIC "-//W3C//DTD SVG 20010904//EN"
 "http://www.w3.org/TR/2001/REC-SVG-20010904/DTD/svg10.dtd">
<svg version="1.0" xmlns="http://www.w3.org/2000/svg"
 width="512.000000pt" height="512.000000pt" viewBox="0 0 512.000000 512.000000"
 preserveAspectRatio="xMidYMid meet">
<metadata>
Created by potrace 1.11, written by Peter Selinger 2001-2013
</metadata>
<g transform="translate(0.000000,512.000000) scale(0.100000,-0.100000)"
fill="#000000" stroke="none">
<path d="M2282 4297 c-31 -30 -292 -270 -578 -534 l-522 -481 -198 -4 c-194
-3 -200 -4 -250 -30 -58 -30 -98 -73 -125 -133 -15 -33 -19 -66 -19 -195 0
-142 2 -159 24 -205 25 -54 81 -110 132 -131 18 -8 35 -22 38 -31 3 -10 70
-311 150 -669 107 -481 151 -665 171 -704 38 -74 117 -150 200 -191 l70 -34
837 -3 838 -2 -40 79 c-22 43 -40 84 -40 90 0 8 -219 11 -767 11 -751 0 -769
1 -813 21 -56 25 -96 62 -122 112 -13 27 -298 1261 -298 1294 0 2 720 3 1601
3 1519 0 1600 -1 1595 -17 -8 -29 -96 -406 -96 -415 0 -4 19 -17 43 -29 23
-12 57 -33 75 -46 19 -14 37 -21 41 -17 4 5 33 122 65 259 32 138 60 257 62
266 2 9 15 21 28 27 44 20 99 77 122 127 22 46 24 63 24 205 0 129 -4 162 -19
195 -27 60 -67 103 -125 133 -50 26 -56 27 -250 30 l-198 4 -522 481 c-286
264 -547 504 -578 534 -49 46 -62 53 -98 53 -68 0 -109 -60 -84 -124 3 -8 231
-224 507 -478 l501 -463 -552 -3 c-304 -1 -800 -1 -1104 0 l-552 3 501 463
c276 254 504 470 507 478 25 64 -16 124 -84 124 -36 0 -49 -7 -98 -53z"/>
<path d="M3570 2001 c-88 -24 -129 -43 -197 -89 -165 -112 -260 -284 -270
-487 -9 -190 47 -336 182 -470 128 -128 265 -185 444 -185 173 0 310 58 436
185 127 126 185 263 185 436 0 179 -57 316 -185 444 -89 90 -181 143 -295 169
-87 21 -219 19 -300 -3z m54 -345 c51 -21 76 -60 76 -118 0 -89 -46 -138 -129
-138 -80 0 -134 84 -111 171 16 60 54 91 118 98 7 0 27 -5 46 -13z m159 -258
l-198 -263 -52 -3 c-29 -2 -53 0 -53 3 0 3 88 122 195 265 l195 260 55 0 55 0
-197 -262z m168 -34 c26 -23 49 -74 49 -109 0 -44 -36 -101 -76 -120 -52 -25
-101 -15 -141 30 -28 30 -33 42 -33 85 0 96 47 143 133 137 28 -3 56 -12 68
-23z"/>
<path d="M3549 1563 c-20 -54 15 -113 49 -80 14 15 19 77 7 96 -12 21 -45 12
-56 -16z"/>
<path d="M3844 1296 c-3 -8 -4 -31 -2 -52 2 -31 7 -40 25 -42 29 -4 47 30 38
74 -5 28 -10 34 -31 34 -13 0 -27 -6 -30 -14z"/>
</g>
</svg>
