<svg width="995" height="886" viewBox="0 0 995 886" fill="none" xmlns="http://www.w3.org/2000/svg">
<mask id="mask0" mask-type="alpha" maskUnits="userSpaceOnUse" x="0" y="-151" width="938" height="1037">
<path d="M926.5 466.501C977.5 585.001 868.248 829.539 337.502 876.501C224.5 886.5 130.368 901.717 63.501 833C20.3431 788.649 -36.5002 767.999 34.5001 698C64.6905 668.236 123.801 681.338 158.534 628.934C215.335 543.234 -25.8219 127.56 158.534 -8.49809C510.158 -268.003 377.741 -113.131 876 -8.49809C918.208 0.365311 874.418 7.40199 909.5 49.5003C929.431 73.4167 875.5 348.001 926.5 466.501Z" fill="url(#paint0_linear)"/>
</mask>
<g mask="url(#mask0)">
<path d="M1582.56 695.698C1582.56 695.698 393.595 1068.5 101.001 863.999C-191.593 659.499 36.4186 668.568 51.9072 661.817C90.7714 644.877 123.802 681.336 158.535 628.932C215.336 543.232 -25.8213 127.558 158.535 -8.50056C510.158 -268.006 988.242 -53.133 1486.5 51.4994C1528.71 60.3628 1487.69 610.751 1522.77 652.849C1542.7 676.766 1582.56 695.698 1582.56 695.698Z" fill="url(#paint1_linear)"/>
<rect opacity="0.6" x="1" y="485" width="994" height="396" fill="#45447D"/>
<rect opacity="0.4" x="11.0005" y="485.001" width="984" height="97" fill="#CACCD4"/>
<path fill-rule="evenodd" clip-rule="evenodd" d="M212.319 683.406L212.319 683.406C214.075 677.524 214.728 675.336 213.527 669.862C211.652 661.31 203.125 650.003 203.125 650.003C203.125 650.003 204.242 642.332 181.345 644.864C167.252 646.422 163.891 649.442 161.807 651.313C160.506 652.483 159.703 653.203 157.095 652.84C150.311 651.894 141.247 678.945 150.508 682.375C150.743 682.462 150.954 682.537 151.142 682.602C151.182 683.473 151.257 684.374 151.366 685.3C150.943 686.424 150.553 688.171 150.508 690.942C150.435 695.479 153.251 699.705 155.745 702.001C158.688 709.729 162.722 717.296 166.911 722.654L165.123 735.271C163.66 734.948 162.066 734.584 160.304 734.182C159.18 733.926 157.987 733.654 156.716 733.367C155.504 733.093 154.324 732.791 153.175 732.498C134.362 727.686 124.004 725.038 118 882.222C150.607 887.253 209.678 884.318 242 882.222C235.62 740.634 227.328 727.122 200.334 733.367C196.297 734.301 192.983 735.054 190.149 735.635L187.686 724.181C191.142 720.831 194.788 716.286 197.972 711.018C198.43 710.928 198.868 710.81 199.272 710.658C204.97 708.521 208.442 698.082 208.442 698.082C209.994 691.193 211.331 686.715 212.319 683.406Z" fill="#59578A"/>
<path fill-rule="evenodd" clip-rule="evenodd" d="M358.61 705.881C360.788 696.212 363.797 691.309 365.999 687.721C368.155 684.209 369.537 681.956 368.609 677.725C366.733 669.172 358.611 667.088 358.611 667.088C358.611 667.088 354.41 650.131 331.513 652.663C308.616 655.195 300.676 667.088 300.676 667.088C300.676 667.088 291.415 686.744 300.676 690.174C300.911 690.261 301.121 690.336 301.309 690.401C301.349 691.273 301.425 692.175 301.533 693.102C301.11 694.225 300.721 695.972 300.676 698.742C300.602 703.277 303.418 707.503 305.911 709.799C308.855 717.527 312.889 725.095 317.078 730.453L315.258 743.302C313.796 742.986 312.205 742.631 310.445 742.239C309.322 741.989 308.13 741.723 306.86 741.443C305.649 741.175 304.47 740.881 303.323 740.594C284.526 735.896 274.178 733.31 268.179 886.785C300.756 891.697 359.774 888.831 392.065 886.785C385.691 748.538 377.407 735.345 350.438 741.443C346.451 742.344 343.17 743.073 340.36 743.637L337.853 731.981C341.309 728.631 344.955 724.086 348.139 718.817C348.598 718.727 349.035 718.609 349.44 718.457C355.138 716.32 358.61 705.881 358.61 705.881Z" fill="#59578A"/>
<path fill-rule="evenodd" clip-rule="evenodd" d="M787.369 700.919C788.921 694.03 790.258 689.552 791.245 686.243C793.001 680.361 793.654 678.173 792.454 672.699C790.578 664.147 782.052 652.84 782.052 652.84C782.052 652.84 783.168 645.169 760.272 647.701C746.179 649.259 742.817 652.279 740.734 654.151C739.433 655.32 738.63 656.041 736.022 655.677C729.238 654.731 720.174 681.782 729.435 685.212C729.669 685.298 729.879 685.373 730.066 685.438C730.107 686.311 730.182 687.213 730.291 688.141C729.869 689.265 729.48 691.011 729.435 693.779C729.361 698.314 732.175 702.539 734.668 704.835C737.612 712.564 741.646 720.132 745.836 725.491L744.016 738.339C742.554 738.024 740.962 737.669 739.202 737.277C738.079 737.026 736.888 736.761 735.618 736.48C734.407 736.213 733.228 735.918 732.08 735.632C713.284 730.934 702.936 728.348 696.937 881.822C729.514 886.734 788.531 883.869 820.823 881.822C814.449 743.576 806.165 730.383 779.196 736.481C775.209 737.382 771.928 738.11 769.118 738.675L766.611 727.019C770.066 723.669 773.712 719.124 776.897 713.855C777.356 713.765 777.794 713.647 778.199 713.495C783.897 711.358 787.369 700.919 787.369 700.919Z" fill="#59578A"/>
<path fill-rule="evenodd" clip-rule="evenodd" d="M931.548 692.718C933.726 683.049 936.735 678.146 938.936 674.559C941.092 671.046 942.474 668.793 941.546 664.562C939.671 656.009 931.548 653.925 931.548 653.925C931.548 653.925 927.347 636.968 904.45 639.5C881.553 642.032 873.614 653.925 873.614 653.925C873.614 653.925 864.353 673.581 873.614 677.011C873.848 677.098 874.058 677.173 874.246 677.238C874.286 678.11 874.362 679.012 874.471 679.939C874.048 681.062 873.658 682.809 873.614 685.579C873.54 690.115 876.355 694.34 878.848 696.636C881.792 704.364 885.826 711.932 890.015 717.29L888.195 730.139C886.734 729.823 885.142 729.468 883.382 729.076C882.259 728.826 881.068 728.56 879.798 728.28C878.586 728.012 877.408 727.718 876.26 727.431C857.464 722.733 847.116 720.147 841.117 873.622C873.694 878.534 932.711 875.668 965.002 873.622C958.629 735.375 950.344 722.182 923.375 728.28C919.389 729.181 916.107 729.91 913.297 730.474L910.791 718.818C914.246 715.468 917.892 710.923 921.077 705.655C921.535 705.564 921.973 705.446 922.378 705.295C928.075 703.157 931.548 692.718 931.548 692.718Z" fill="#59578A"/>
<path fill-rule="evenodd" clip-rule="evenodd" d="M499.008 707.951C500.56 701.061 501.896 696.584 502.884 693.275C504.64 687.393 505.293 685.205 504.093 679.731C502.217 671.178 493.69 659.872 493.69 659.872C493.69 659.872 494.807 652.201 471.91 654.733C457.818 656.291 454.456 659.311 452.373 661.182C451.071 662.351 450.269 663.072 447.66 662.709C440.877 661.763 431.813 688.814 441.073 692.243C441.308 692.33 441.518 692.405 441.705 692.47C441.745 693.343 441.821 694.245 441.93 695.173C441.507 696.297 441.118 698.043 441.073 700.811C441 705.346 443.814 709.571 446.307 711.867C449.251 719.596 453.285 727.164 457.474 732.523L455.654 745.371C454.193 745.055 452.601 744.701 450.841 744.308C449.718 744.058 448.527 743.793 447.257 743.512C446.045 743.245 444.867 742.95 443.719 742.663C424.923 737.966 414.575 735.38 408.576 888.854C441.153 893.766 500.17 890.901 532.461 888.854C526.088 750.608 517.803 737.415 490.834 743.512C486.848 744.414 483.566 745.142 480.756 745.707L478.25 734.05C481.705 730.7 485.351 726.155 488.535 720.887C488.994 720.797 489.433 720.679 489.838 720.527C495.535 718.389 499.008 707.951 499.008 707.951Z" fill="#59578A"/>
<path fill-rule="evenodd" clip-rule="evenodd" d="M646.971 700.184C649.15 690.515 652.158 685.613 654.36 682.025C656.516 678.512 657.898 676.259 656.97 672.028C655.095 663.475 646.972 661.391 646.972 661.391C646.972 661.391 642.771 644.434 619.874 646.966C596.977 649.498 589.037 661.391 589.037 661.391C589.037 661.391 579.776 681.048 589.037 684.477C589.272 684.564 589.482 684.639 589.67 684.704C589.71 685.576 589.786 686.478 589.894 687.405C589.472 688.529 589.082 690.275 589.037 693.045C588.964 697.581 591.779 701.806 594.272 704.102C597.216 711.831 601.25 719.398 605.439 724.757L603.619 737.605C602.158 737.289 600.566 736.934 598.806 736.542C597.683 736.292 596.491 736.026 595.222 735.746C594.01 735.479 592.831 735.184 591.684 734.897C572.888 730.2 562.54 727.613 556.541 881.088C589.118 886 648.135 883.135 680.426 881.088C674.053 742.841 665.768 729.648 638.799 735.746C634.812 736.647 631.531 737.376 628.721 737.941L626.214 726.284C629.67 722.934 633.316 718.389 636.5 713.121C636.959 713.031 637.397 712.913 637.801 712.761C643.499 710.623 646.971 700.184 646.971 700.184Z" fill="#59578A"/>
<path fill-rule="evenodd" clip-rule="evenodd" d="M290.623 698.817C292.264 691.532 293.678 686.798 294.722 683.299C296.579 677.079 297.27 674.765 296 668.977C294.017 659.933 285 647.977 285 647.977C285 647.977 286.181 639.866 261.97 642.543C247.068 644.191 243.513 647.384 241.31 649.363C239.934 650.6 239.085 651.362 236.327 650.977C229.154 649.977 219.569 678.581 229.362 682.208C229.611 682.3 229.833 682.379 230.031 682.448C230.074 683.37 230.154 684.323 230.269 685.303C229.822 686.491 229.41 688.338 229.362 691.268C229.284 696.065 232.262 700.533 234.899 702.961C238.011 711.133 242.277 719.134 246.706 724.8L244.781 738.386C243.236 738.053 241.553 737.678 239.693 737.263C238.506 736.998 237.246 736.718 235.903 736.421C234.622 736.138 233.375 735.827 232.162 735.524C212.286 730.556 201.344 727.821 195 890.109C229.448 895.303 291.855 892.274 326 890.109C319.261 743.924 310.501 729.973 281.983 736.421C277.767 737.374 274.297 738.145 271.325 738.742L268.674 726.416C272.328 722.874 276.184 718.067 279.551 712.496C280.036 712.401 280.499 712.276 280.927 712.116C286.952 709.856 290.623 698.817 290.623 698.817Z" fill="#45447D"/>
<path fill-rule="evenodd" clip-rule="evenodd" d="M434.623 715.524C436.926 705.3 440.108 700.115 442.436 696.321C444.716 692.607 446.177 690.225 445.196 685.751C443.213 676.707 434.624 674.503 434.624 674.503C434.624 674.503 430.181 656.573 405.97 659.25C381.758 661.927 373.362 674.503 373.362 674.503C373.362 674.503 363.569 695.288 373.362 698.915C373.611 699.007 373.833 699.086 374.031 699.155C374.074 700.076 374.154 701.03 374.269 702.009C373.822 703.198 373.41 705.045 373.362 707.974C373.284 712.771 376.262 717.24 378.899 719.667C382.011 727.839 386.277 735.841 390.706 741.507L388.781 755.093C387.236 754.759 385.553 754.384 383.693 753.97C382.506 753.705 381.246 753.424 379.903 753.128C378.622 752.845 377.375 752.533 376.162 752.23C356.286 747.263 345.344 744.528 339 906.816C373.448 912.01 435.855 908.98 470 906.816C463.261 760.631 454.501 746.68 425.983 753.128C421.767 754.081 418.297 754.852 415.325 755.449L412.674 743.123C416.328 739.581 420.184 734.774 423.551 729.203C424.036 729.108 424.499 728.983 424.927 728.822C430.952 726.562 434.623 715.524 434.623 715.524Z" fill="#45447D"/>
<path fill-rule="evenodd" clip-rule="evenodd" d="M862.623 701.817C864.264 694.532 865.678 689.798 866.722 686.299C868.579 680.079 869.27 677.765 868 671.977C866.017 662.933 857 650.977 857 650.977C857 650.977 858.181 642.866 833.97 645.543C819.068 647.191 815.513 650.384 813.31 652.363C811.934 653.6 811.085 654.362 808.327 653.977C801.154 652.977 791.569 681.581 801.362 685.208C801.611 685.3 801.833 685.379 802.031 685.448C802.074 686.37 802.154 687.323 802.269 688.303C801.822 689.491 801.41 691.338 801.362 694.268C801.284 699.065 804.262 703.533 806.899 705.961C810.011 714.133 814.277 722.134 818.706 727.8L816.781 741.386C815.236 741.053 813.553 740.678 811.693 740.263C810.506 739.998 809.246 739.718 807.903 739.421C806.622 739.138 805.375 738.827 804.162 738.524C784.286 733.556 773.344 730.821 767 893.109C801.448 898.303 863.855 895.274 898 893.109C891.261 746.924 882.501 732.973 853.983 739.421C849.767 740.374 846.297 741.145 843.325 741.742L840.674 729.416C844.328 725.874 848.184 721.067 851.551 715.496C852.036 715.401 852.499 715.276 852.927 715.116C858.952 712.856 862.623 701.817 862.623 701.817Z" fill="#45447D"/>
<path fill-rule="evenodd" clip-rule="evenodd" d="M1006.62 718.524C1008.93 708.3 1012.11 703.115 1014.44 699.321C1016.72 695.607 1018.18 693.225 1017.2 688.751C1015.21 679.707 1006.62 677.503 1006.62 677.503C1006.62 677.503 1002.18 659.573 977.97 662.25C953.758 664.927 945.362 677.503 945.362 677.503C945.362 677.503 935.569 698.288 945.362 701.915C945.611 702.007 945.833 702.086 946.031 702.155C946.074 703.076 946.154 704.03 946.269 705.009C945.822 706.198 945.41 708.045 945.362 710.974C945.284 715.771 948.262 720.24 950.899 722.667C954.011 730.839 958.277 738.841 962.706 744.507L960.781 758.093C959.236 757.759 957.553 757.384 955.693 756.97C954.506 756.705 953.246 756.424 951.903 756.128C950.622 755.845 949.375 755.533 948.162 755.23C928.286 750.263 917.344 747.528 911 909.816C945.448 915.01 1007.85 911.98 1042 909.816C1035.26 763.631 1026.5 749.68 997.983 756.128C993.767 757.081 990.297 757.852 987.325 758.449L984.674 746.123C988.328 742.581 992.184 737.774 995.551 732.203C996.036 732.108 996.499 731.983 996.927 731.822C1002.95 729.562 1006.62 718.524 1006.62 718.524Z" fill="#45447D"/>
<path fill-rule="evenodd" clip-rule="evenodd" d="M574.623 700.793C576.264 693.509 577.678 688.774 578.722 685.275C580.579 679.055 581.27 676.742 580 670.954C578.017 661.91 569 649.954 569 649.954C569 649.954 570.181 641.842 545.97 644.519C531.068 646.167 527.513 649.361 525.31 651.339C523.934 652.576 523.085 653.338 520.327 652.954C513.154 651.954 503.569 680.558 513.362 684.184C513.611 684.276 513.833 684.356 514.031 684.425C514.074 685.346 514.154 686.299 514.269 687.279C513.822 688.467 513.41 690.314 513.362 693.244C513.284 698.041 516.262 702.51 518.899 704.937C522.011 713.109 526.277 721.11 530.706 726.776L528.781 740.363C527.236 740.029 525.553 739.654 523.693 739.239C522.506 738.975 521.246 738.694 519.903 738.397C518.622 738.114 517.375 737.803 516.162 737.5C496.286 732.532 485.344 729.798 479 892.086C513.448 897.28 575.855 894.25 610 892.086C603.261 745.9 594.501 731.95 565.983 738.397C561.767 739.351 558.297 740.121 555.325 740.718L552.674 728.392C556.328 724.85 560.184 720.044 563.551 714.473C564.036 714.377 564.499 714.252 564.927 714.092C570.952 711.832 574.623 700.793 574.623 700.793Z" fill="#45447D"/>
<path fill-rule="evenodd" clip-rule="evenodd" d="M722.623 709.5C724.926 699.276 728.108 694.092 730.436 690.298C732.716 686.583 734.177 684.201 733.196 679.727C731.213 670.683 722.624 668.479 722.624 668.479C722.624 668.479 718.181 650.549 693.97 653.226C669.758 655.903 661.362 668.479 661.362 668.479C661.362 668.479 651.569 689.264 661.362 692.891C661.611 692.983 661.833 693.062 662.031 693.131C662.074 694.053 662.154 695.006 662.269 695.986C661.822 697.174 661.41 699.021 661.362 701.95C661.284 706.747 664.262 711.216 666.899 713.643C670.011 721.815 674.277 729.817 678.706 735.483L676.781 749.069C675.236 748.735 673.553 748.361 671.693 747.946C670.506 747.681 669.246 747.401 667.903 747.104C666.622 746.821 665.375 746.51 664.162 746.206C644.286 741.239 633.344 738.504 627 900.792C661.448 905.986 723.855 902.956 758 900.792C751.261 754.607 742.501 740.656 713.983 747.104C709.767 748.057 706.297 748.828 703.325 749.425L700.674 737.099C704.328 733.557 708.184 728.75 711.551 723.179C712.036 723.084 712.499 722.959 712.927 722.799C718.952 720.538 722.623 709.5 722.623 709.5Z" fill="#45447D"/>
</g>
<path d="M357.045 -218.05C356.485 -223.921 361.102 -229 367 -229H1227C1232.52 -229 1237 -224.523 1237 -219V243C1237 248.523 1232.52 253 1227 253H411.091C405.936 253 401.626 249.082 401.136 243.95L357.045 -218.05Z" fill="#DCDEEA"/>
<path d="M371.431 -230.739C370.672 -236.714 375.328 -242 381.352 -242H1241C1246.52 -242 1251 -237.523 1251 -232V229.877C1251 235.448 1246.45 239.945 1240.88 239.877L438.701 230.106C433.712 230.045 429.532 226.317 428.903 221.368L371.431 -230.739Z" fill="white"/>
<ellipse opacity="0.29" rx="99.0188" ry="8.66985" transform="matrix(-1 3.84189e-09 3.84189e-09 1 528.73 506.54)" fill="#9596A4"/>
<path d="M499.128 467.754C475.399 465.199 456.235 506.541 471.293 506.541L599.059 506.541C621.418 506.541 623.5 405.186 613.205 381.056C602.91 356.925 563.654 344.879 552.246 401.005C540.839 457.131 528.788 470.948 499.128 467.754Z" fill="url(#paint2_linear)"/>
<path fill-rule="evenodd" clip-rule="evenodd" d="M567.336 372.642L560.098 387.727L574.854 392.4L577.124 368.562C581.588 363.35 585.43 354.534 582.026 346.193C576.808 333.407 559.378 341.472 557.997 349.244C556.769 356.153 559.618 369.714 567.336 372.642Z" fill="#FFD0AA"/>
<path fill-rule="evenodd" clip-rule="evenodd" d="M580.141 364.58C581.523 362.893 586.712 351.729 586.274 347.806C585.836 343.883 580.14 341.096 580.14 341.096C580.14 341.096 577.962 335.287 567.581 335.345C557.2 335.403 553.683 343.013 557.841 349.336C560.327 349.597 568.865 348.229 572.854 350.202C574.752 351.142 573.812 356.912 573.812 356.912L576.688 357.391C576.688 357.391 576.556 351.602 579.084 353.078C581.612 354.554 580.142 359.308 580.142 359.308L577.166 368.894C577.166 368.894 578.76 366.268 580.141 364.58Z" fill="#191847"/>
<path fill-rule="evenodd" clip-rule="evenodd" d="M556.047 506.282C556.047 506.282 556.917 505.611 557.964 492.545C559.16 477.63 558.119 489.192 557.965 484.397C557.596 472.963 548.936 475.127 547.919 481.043C545.609 494.473 547.92 505.52 547.92 505.52L556.047 506.282Z" fill="#FFD0AA"/>
<path fill-rule="evenodd" clip-rule="evenodd" d="M545.453 423.112L519.942 422.966C514.571 420.85 506.524 421.38 505.033 421.814C503.542 422.248 499.982 422.447 503.09 424.405C506.197 426.363 511.751 426.047 511.409 427.351C511.067 428.655 508.395 428.532 508.207 430.494C508.081 431.802 512.348 431.46 521.009 429.467L542.381 434.831L545.453 423.112Z" fill="#FFD0AA"/>
<path fill-rule="evenodd" clip-rule="evenodd" d="M555.816 419.568C555.816 419.568 538.064 424.328 525.143 421.598L524.441 432.267C534.313 436.724 549.657 435.208 558.43 431.657C565.344 428.859 555.816 419.568 555.816 419.568Z" fill="#02A556"/>
<path fill-rule="evenodd" clip-rule="evenodd" d="M553.894 382.731C553.894 392.665 554.069 404.781 550.376 417.46L560.105 425.021C565.292 415.512 570.904 392.552 568.023 383.537C565.752 376.432 556.268 373.227 553.894 382.731Z" fill="#02A556"/>
<path fill-rule="evenodd" clip-rule="evenodd" d="M565.667 451.807C563.177 430.956 533.628 451.379 535.472 437.908C551.287 417.3 547.523 420.628 561.364 376.582C561.364 376.582 566.57 375.824 573.049 378.415C579.528 381.006 586.164 409.188 577.821 423.515C570.203 436.598 583.118 434.594 565.667 451.807Z" fill="#F9F9F9"/>
<path fill-rule="evenodd" clip-rule="evenodd" d="M507.05 506.556C507.05 506.556 507.902 505.898 508.929 493.094C510.101 478.478 509.08 489.809 508.929 485.11C508.568 473.905 500.082 476.026 499.085 481.822C496.821 494.983 499.085 505.809 499.085 505.809L507.05 506.556Z" fill="#FFD0AA"/>
<path d="M497.171 424.75C500.53 422.126 546.748 433.119 556.854 436.712C556.854 436.712 570.794 456.079 563.332 456.793C555.869 457.507 549.247 462.622 512.159 445.781C512.159 458.434 512.096 483.8 510.698 496.454C508.676 496.454 504.26 497.578 497.17 496.454C492.972 485.675 492.973 428.031 497.171 424.75Z" fill="#02A556"/>
<path d="M547.784 426.348C551.491 424.031 571.577 433.755 581.961 437.429C581.961 437.429 571.961 454.074 574.772 458.996C577.583 463.918 566.571 465.214 559.446 458.088C558.806 466.398 560.06 479.125 560.093 495.715C561.25 495.627 561.46 495.754 560.093 496.379C560.093 496.157 560.093 495.935 560.093 495.715C557.512 495.91 550.224 497.173 545.195 496.379C545.195 483.998 537.422 432.826 547.784 426.348Z" fill="#06BA63"/>
<path fill-rule="evenodd" clip-rule="evenodd" d="M507.216 500.688C508.28 500.283 509.513 500.739 509.892 501.812C510.264 502.863 510.632 504.099 510.632 504.866C510.632 506.411 510.088 509.377 510.088 509.377C508.195 509.377 476.053 509.377 476.053 509.377C476.053 509.377 474.726 505.224 477.585 504.892C480.443 504.561 482.334 504.294 482.334 504.294L497.809 497.761C498.314 497.548 498.896 497.781 499.115 498.284L499.973 500.256C499.973 500.256 502.62 501.425 504.274 501.425C505.072 501.425 506.23 501.063 507.216 500.688Z" fill="#57331F"/>
<path fill-rule="evenodd" clip-rule="evenodd" d="M558.896 499.819C558.889 500.125 558.882 500.433 558.95 500.73C559.196 501.803 559.787 504.522 559.79 505.899C559.794 507.637 559.463 510.973 559.463 510.973C558.284 510.975 536.359 511.021 536.359 511.021C536.359 511.021 535.522 506.352 537.301 505.975C539.079 505.599 542.173 505.296 542.173 505.296L544.758 499.375C544.917 499.011 545.277 498.775 545.674 498.775L556.854 498.775C556.854 498.775 556.452 498.779 558.149 498.775C558.801 498.774 558.906 499.376 558.896 499.819Z" fill="#57331F"/>
<path fill-rule="evenodd" clip-rule="evenodd" d="M588.871 448.618L587.848 458.789C587.848 458.789 579.26 463.615 579.978 466.403C579.709 468.006 585.41 463.771 585.6 466.617C585.789 469.464 582.721 477.384 584.024 478.244C585.953 479.516 590.042 476.78 591.796 474.401C595.074 469.956 595.754 466.837 595.772 459.586C595.785 453.899 597 446.5 597 446.5L588.871 448.618Z" fill="#FFD0AA"/>
<path fill-rule="evenodd" clip-rule="evenodd" d="M577.545 460.306C570.843 466.058 566.878 467.432 565.554 458.363C563.263 431.569 573.975 429.214 571.384 378.042L577.545 379.014C579.186 379.534 590.556 404.162 585.561 419.971C581.001 434.407 585.562 447.999 577.545 460.306Z" fill="#02A556"/>
<path fill-rule="evenodd" clip-rule="evenodd" d="M575.271 396.179C579.11 400.713 584.168 408.52 586.34 418.612C588.513 428.705 587.829 455.164 587.829 455.164C587.829 455.164 593.484 452.456 595.82 458.451C607.009 403.952 589.473 383.556 580.453 379.985C571.432 376.414 571.432 391.645 575.271 396.179Z" fill="#06BA63"/>
<ellipse opacity="0.29" rx="120.968" ry="10.5917" transform="matrix(-1 1.07215e-07 -9.95313e-08 1 640.612 556.208)" fill="#9596A4"/>
<path d="M622.772 508.824C593.784 505.702 570.371 556.208 588.767 556.208L744.855 556.208C772.171 556.208 774.713 432.386 762.136 402.907C749.559 373.428 701.602 358.711 687.666 427.278C673.729 495.846 659.007 512.726 622.772 508.824Z" fill="url(#paint3_linear)"/>
<path fill-rule="evenodd" clip-rule="evenodd" d="M706.456 391.278C700.664 392.67 695.436 392.573 693.376 391.284C688.21 388.053 694.209 367.31 701.13 360.576C708.052 353.841 731.547 357.39 727.585 373.821C726.21 379.524 722.291 383.761 717.544 386.728L714.591 417.618L696.564 411.91L706.456 391.278Z" fill="#FFD0AA"/>
<path fill-rule="evenodd" clip-rule="evenodd" d="M707.848 362.53C704.355 361.534 704.165 361.479 701.508 359.758C702.813 356.292 707.74 353.467 717.406 356.528C728.161 359.933 731.946 368.029 729.65 375.28C727.552 381.906 720.732 388.624 717.382 387.924C716.599 387.474 716.202 386.233 715.93 384.611C717.473 384.384 718.894 383.147 719.522 381.164C720.126 379.258 719.03 376.876 716.956 376.22C716.199 375.98 715.417 376.003 714.699 376.222C714.031 373.595 712.843 371.415 710.396 370.837L713.325 366.806C713.325 366.806 714.001 365.91 714.262 365.251C714.376 364.965 714.5 364.5 714.5 364.5C711.398 363.542 709.327 362.952 707.848 362.53Z" fill="#191847"/>
<path fill-rule="evenodd" clip-rule="evenodd" d="M681.224 555.892C681.224 555.892 682.287 555.073 683.567 539.11C685.028 520.889 683.756 535.014 683.567 529.156C683.117 515.187 672.537 517.831 671.294 525.058C668.472 541.465 671.295 554.962 671.295 554.962L681.224 555.892Z" fill="#FFD0AA"/>
<path fill-rule="evenodd" clip-rule="evenodd" d="M657.761 430.705L627.336 423.943C621.469 420.029 616.002 417.253 610.933 415.614C609.481 415.449 607.121 415.778 610.326 418.919C613.531 422.06 616.76 425.507 616.015 426.976C615.27 428.445 612.111 427.608 611.379 429.902C610.892 431.431 616.076 432.125 626.931 431.982L651.067 443.905L657.761 430.705Z" fill="#FFD0AA"/>
<path fill-rule="evenodd" clip-rule="evenodd" d="M671.046 429.148C671.046 429.148 648.621 430.247 633.897 423.651L630.304 436.209C640.941 444.081 659.654 446.232 671.047 444.258C680.025 442.702 671.046 429.148 671.046 429.148Z" fill="#EABB00"/>
<path fill-rule="evenodd" clip-rule="evenodd" d="M698.79 398.588C695.025 407.396 682.131 419.757 668.93 429.035L672.442 443.672C684.647 438.56 707.522 420.939 711.654 410.14C714.91 401.629 707.369 394.995 698.79 398.588Z" fill="#EABB00"/>
<path fill-rule="evenodd" clip-rule="evenodd" d="M704.061 489.342C701.019 463.869 664.92 488.819 667.172 472.362C686.494 447.185 681.895 451.252 698.803 397.442C698.803 397.442 699.973 396.246 707.571 396.832C715.17 397.417 729.102 437.276 718.909 454.779C709.602 470.762 725.38 468.314 704.061 489.342Z" fill="#F9F9F9"/>
<path fill-rule="evenodd" clip-rule="evenodd" d="M557.039 549.649C562.691 544.211 581.511 524.725 588.962 514.588C597.467 503.016 604.513 492.668 606.806 488.676C612.276 479.156 597.801 484.36 593.983 488.676C585.317 498.474 553.403 541.199 551.285 544.529C549.166 547.859 553.487 553.067 557.039 549.649Z" fill="#FFD0AA"/>
<path fill-rule="evenodd" clip-rule="evenodd" d="M558.689 546.421C559.79 546.816 560.431 548.014 559.976 549.092C559.503 550.211 558.886 551.499 558.325 552.131C557.216 553.382 554.67 555.411 554.67 555.411C553.217 554.122 528.543 532.239 528.543 532.239C528.543 532.239 530.505 527.975 532.937 529.653C535.369 531.332 537.012 532.403 537.012 532.403L553.576 537.651C554.112 537.821 554.403 538.4 554.219 538.932L553.451 541.144C553.451 541.144 554.643 543.892 555.913 545.018C556.523 545.559 557.666 546.053 558.689 546.421Z" fill="#E4E4E4"/>
<path fill-rule="evenodd" clip-rule="evenodd" d="M586.538 487.989C582.536 493.117 556.081 529.227 555.974 532.841L566.717 541.292C566.717 541.292 609.508 494.959 610.598 494.44C611.688 493.921 681.825 499.482 694.691 499.881C713.244 500.457 696.16 489.6 697.454 467.986L660.702 466.844C653.194 467.411 613.917 474.058 599.338 476.309C593.096 477.273 590.54 482.861 586.538 487.989Z" fill="#CDA401"/>
<path d="M667.759 454.212C671.975 450.933 711.281 467.288 723.967 471.777C723.967 471.777 724.551 497.233 715.184 498.125C705.818 499.017 702.887 513.348 686.493 487.585C686.493 503.394 686.493 527.985 684.738 543.794C682.2 543.794 676.657 545.199 667.758 543.794C662.488 530.327 662.488 458.31 667.759 454.212Z" fill="#EFC000"/>
<path fill-rule="evenodd" clip-rule="evenodd" d="M681.928 550.437C683.293 549.804 685.062 550.32 685.34 551.8C685.584 553.101 685.8 554.507 685.802 555.424C685.807 557.548 685.402 561.623 685.402 561.623C683.962 561.626 657.177 561.682 657.177 561.682C657.177 561.682 656.155 555.978 658.328 555.518C660.5 555.058 664.279 554.688 664.279 554.688L667.495 547.322C667.654 546.957 668.014 546.722 668.412 546.722L677.711 546.722C677.711 546.722 678.882 550.713 680.956 550.708C681.235 550.707 681.572 550.601 681.928 550.437Z" fill="#E4E4E4"/>
<path fill-rule="evenodd" clip-rule="evenodd" d="M734.857 482.818L731.266 496.039C731.266 496.039 722.523 500.745 723.288 504.178C722.896 506.125 730.026 501.181 730.144 504.664C730.261 508.147 726.199 517.696 727.756 518.798C730.06 520.427 735.163 517.25 737.399 514.416C741.579 509.12 742.534 505.338 742.845 496.485C743.088 489.541 746.716 480.665 746.716 480.665L734.857 482.818Z" fill="#FFD0AA"/>
<path fill-rule="evenodd" clip-rule="evenodd" d="M695.862 503.98C697.277 520.529 709.914 516.275 718.101 509.249C728.303 493.366 728.315 481.016 728.325 469.639C728.331 462.968 728.337 456.631 730.396 450.113C730.671 449.242 730.906 448.35 731.103 447.44C731.195 447.782 731.278 448.12 731.35 448.453C734.004 460.782 732.5 492 732.5 492C732.5 492 740.077 489.798 742.931 497.123C743.238 496.191 743.543 495.271 743.843 494.363C754.593 461.894 760.493 444.072 721.732 401.425C721.229 400.621 720.836 400.151 720.604 400.077L707.572 396.832C715.398 435.102 708.314 454.357 702.208 470.954C698.286 481.614 694.767 491.178 695.862 503.98Z" fill="#FFCC00"/>
<ellipse opacity="0.29" cx="327.502" cy="511.611" rx="102.853" ry="9.00557" fill="#9596A4"/>
<path d="M342.67 459.613C367.317 456.959 387.224 511.612 371.583 511.612L238.869 511.612C215.644 511.612 213.482 394.622 224.175 369.558C234.869 344.493 275.645 331.98 287.494 390.279C299.343 448.578 311.861 462.931 342.67 459.613Z" fill="url(#paint4_linear)"/>
<path d="M309.129 373.877C307.93 377.077 305.629 374.377 290.629 367.877L292.629 364.377C308.629 370.877 310.329 370.677 309.129 373.877Z" fill="#35373C"/>
<circle cx="288.629" cy="364.377" r="4" fill="#C4C4C4"/>
<path fill-rule="evenodd" clip-rule="evenodd" d="M268.921 371.229C273.575 372.37 277.78 372.311 279.442 371.282C283.61 368.703 278.862 351.995 273.319 346.552C267.777 341.109 248.864 343.876 251.99 357.108C253.074 361.7 256.211 365.123 260.019 367.527L262.279 392.386L276.801 387.862L268.921 371.229Z" fill="#FFD0AA"/>
<path fill-rule="evenodd" clip-rule="evenodd" d="M264.584 354.753C265.257 352.491 266.019 350.689 267.329 349.372C273.745 347.484 274.136 346.106 272.934 342.249C271.673 341.832 267.648 341.723 263.464 342.643C261.2 342.696 258.773 343.575 256.71 345.306C254.041 347.049 252.431 348.198 251.5 352C249.931 360.198 255.46 367.555 260.271 368.724C260.951 367.11 261.507 365.578 261.978 364.13C261.097 363.681 260.392 362.892 260.075 361.874C259.45 359.869 260.569 357.737 262.574 357.112C262.722 357.066 262.87 357.03 263.018 357.002C263.889 359.481 266.903 367.847 268.796 370.489C271.028 373.604 278.003 372.366 280.343 371.637C282.365 371.007 281.699 369.115 281.223 367.759C281.154 367.563 281.089 367.379 281.037 367.211C280.928 366.861 280.472 367.004 279.958 367.165C279.289 367.375 278.521 367.616 278.282 366.849C278.022 366.012 278.978 365.011 279.833 364.115C280.367 363.555 280.861 363.037 280.997 362.626C281.425 361.328 281.234 359.816 280.09 360.173C279.464 360.368 278.718 360.996 277.821 361.751C276.466 362.892 274.766 364.323 272.614 364.993C269.057 366.102 264.634 354.879 264.584 354.753Z" fill="#191847"/>
<path fill-rule="evenodd" clip-rule="evenodd" d="M292.972 511.343C292.972 511.343 292.068 510.646 290.98 497.074C289.738 481.581 290.819 493.592 290.98 488.611C291.362 476.734 300.358 478.981 301.415 485.126C303.814 499.076 301.414 510.552 301.414 510.552L292.972 511.343Z" fill="#FFD0AA"/>
<path fill-rule="evenodd" clip-rule="evenodd" d="M305.797 394.707L302.92 375.739C303.293 369.945 303.543 369.514 302.623 365.226C302.27 362.913 299.729 359.86 298.811 363.438C297.894 367.016 300.165 371.303 298.811 371.377C297.129 370.877 296.631 369.877 295.131 369.877C295.129 371.377 295.843 370.968 297.025 378.762L297.722 395.932L305.797 394.707Z" fill="#FFD0AA"/>
<path fill-rule="evenodd" clip-rule="evenodd" d="M294.37 412.175C294.37 412.175 298.431 393.522 294.96 380.25L305.995 378.995C308.13 388.877 308.13 404.377 307.042 414.29C304.481 421.602 294.37 412.175 294.37 412.175Z" fill="#E87613"/>
<path fill-rule="evenodd" clip-rule="evenodd" d="M278.036 377.596C281.238 385.085 292.201 395.595 303.425 403.483L300.439 415.928C290.061 411.581 270.612 396.599 267.099 387.417C264.33 380.181 270.741 374.54 278.036 377.596Z" fill="#E87613"/>
<path fill-rule="evenodd" clip-rule="evenodd" d="M273.554 455.656C276.141 433.998 306.834 455.211 304.919 441.22C287.18 426.269 275 377 275 377C275 377 275.219 376.642 270.569 377C265.919 377.358 240.339 377 257.319 441.22C265.232 454.809 255.427 437.777 273.554 455.656Z" fill="#F29421"/>
<path fill-rule="evenodd" clip-rule="evenodd" d="M370.907 429.62C375.4 432.847 367.98 467.093 366.809 474.704C366.809 474.704 359.197 465.336 353.342 461.823C353.342 459.481 355.526 447.348 354.513 447.185C353.5 447.023 296.411 461.347 286.009 464.751C250.879 470.606 254.977 461.238 273.905 443.457L303.618 433.734C309.88 432.4 343.515 428.427 355.95 426.776C361.273 426.069 366.415 426.394 370.907 429.62Z" fill="#2F3676"/>
<path d="M304.42 424.889C300.836 422.101 267.415 436.007 256.629 439.824C256.629 439.824 250.294 462.994 260.833 465.922C281.326 471.614 283.082 461.823 288.491 453.265C288.491 466.706 288.491 487.615 289.984 501.056C292.141 501.056 296.855 502.251 304.421 501.056C308.902 489.606 308.901 428.374 304.42 424.889Z" fill="#5C63AB"/>
<path fill-rule="evenodd" clip-rule="evenodd" d="M292.838 506.879C291.386 506.481 289.645 506.869 289.384 508.351C289.215 509.309 289.081 510.279 289.079 510.945C289.075 512.751 289.419 516.215 289.419 516.215C290.643 516.218 313.418 516.265 313.418 516.265C313.418 516.265 314.287 511.415 312.439 511.024C310.592 510.633 307.379 510.319 307.379 510.319L304.684 504.145C304.525 503.781 304.165 503.546 303.767 503.546L295.959 503.546C295.959 503.546 294.963 506.939 293.2 506.935C293.089 506.935 292.967 506.915 292.838 506.879Z" fill="#3C3C3B"/>
<path fill-rule="evenodd" clip-rule="evenodd" d="M252.09 438.429L262.656 443.332C262.656 443.332 270.505 440.222 272.319 442.599C273.799 443.41 266.68 445.341 268.881 447.325C271.083 449.308 279.518 451.894 279.382 453.51C279.181 455.901 274.32 457.481 271.252 457.384C265.518 457.203 262.536 455.753 256.606 451.108C251.956 447.465 244.196 444.964 244.196 444.964L252.09 438.429Z" fill="#FFD0AA"/>
<path fill-rule="evenodd" clip-rule="evenodd" d="M264.346 392.733C264.037 400.723 246.108 415.624 243.851 426.107C247.364 436.646 258.489 440.745 258.489 440.745C258.489 440.745 253.304 442.714 250.878 448.942C223.358 437.232 220.337 422.357 254.977 384.536C254.977 384.536 264.654 384.743 264.346 392.733Z" fill="#FF9B21"/>
<defs>
<linearGradient id="paint0_linear" x1="827.192" y1="695.702" x2="344.878" y2="67.8948" gradientUnits="userSpaceOnUse">
<stop stop-color="#EEF1FF"/>
<stop offset="1" stop-color="#EDEFFD" stop-opacity="0.5"/>
</linearGradient>
<linearGradient id="paint1_linear" x1="827.201" y1="695.699" x2="344.887" y2="67.8935" gradientUnits="userSpaceOnUse">
<stop stop-color="#EEF1FF"/>
<stop offset="1" stop-color="#EDEFFD" stop-opacity="0.5"/>
</linearGradient>
<linearGradient id="paint2_linear" x1="550.181" y1="267.418" x2="663.889" y2="501.739" gradientUnits="userSpaceOnUse">
<stop stop-color="#EE72E9"/>
<stop offset="1" stop-color="#8363F9"/>
</linearGradient>
<linearGradient id="paint3_linear" x1="685.142" y1="264.079" x2="824.056" y2="550.342" gradientUnits="userSpaceOnUse">
<stop stop-color="#EE72E9"/>
<stop offset="1" stop-color="#8363F9"/>
</linearGradient>
<linearGradient id="paint4_linear" x1="289.64" y1="244.008" x2="156.617" y2="498.442" gradientUnits="userSpaceOnUse">
<stop stop-color="#EE72E9"/>
<stop offset="1" stop-color="#8363F9"/>
</linearGradient>
</defs>
</svg>
