<svg width="58" height="55" viewBox="0 0 58 55" fill="none" xmlns="http://www.w3.org/2000/svg">
<g opacity="0.1" clip-path="url(#clip0)" filter="url(#filter0_d)">
<path d="M36.692 3.84644H48.2307C49.8335 3.84644 51.1955 4.40739 52.3176 5.52899C53.439 6.6508 54 8.01288 54 9.61577V21.154C54 22.7568 53.4394 24.1187 52.3176 25.2403C51.1956 26.3618 49.8331 26.9229 48.2307 26.9229H41.4999C40.6989 26.9229 40.0177 27.2035 39.4567 27.7643C38.8958 28.3247 38.6154 29.0061 38.6154 29.8078V30.7688C38.6154 32.8923 39.3667 34.7046 40.869 36.2073C42.3714 37.7093 44.1841 38.4605 46.3079 38.4605H48.2307C48.7519 38.4605 49.2024 38.6513 49.5832 39.0317C49.9636 39.4121 50.154 39.8629 50.154 40.3838V44.2304C50.154 44.7504 49.9636 45.2021 49.5832 45.5826C49.2021 45.9628 48.752 46.1537 48.2307 46.1537H46.3077C44.2242 46.1537 42.236 45.7475 40.3429 44.9365C38.4498 44.1254 36.8123 43.0283 35.43 41.646C34.0481 40.2636 32.9512 38.6264 32.14 36.7332C31.3289 34.8402 30.9231 32.8521 30.9231 30.7689V9.61535C30.9231 8.01246 31.4841 6.65048 32.6057 5.52889C33.7273 4.40729 35.0897 3.84644 36.692 3.84644Z" fill="url(#paint0_linear)"/>
<path d="M5.6833 5.52899C6.80479 4.40739 8.16698 3.84644 9.76976 3.84644H21.308C22.9107 3.84644 24.2728 4.40739 25.3944 5.52899C26.5159 6.6509 27.0767 8.01288 27.0767 9.61577V21.154C27.0767 22.7568 26.5159 24.1187 25.3944 25.2403C24.2728 26.3618 22.9106 26.9229 21.308 26.9229H14.5772C13.7762 26.9229 13.0944 27.2035 12.5336 27.7643C11.9733 28.325 11.6923 29.0061 11.6923 29.8078V30.7688C11.6923 32.8923 12.4436 34.7046 13.9462 36.2073C15.4485 37.7093 17.2608 38.4605 19.3847 38.4605H21.308C21.8287 38.4605 22.2797 38.6513 22.6601 39.0317C23.0407 39.4121 23.2313 39.8629 23.2313 40.3838V44.2304C23.2313 44.7504 23.0407 45.2021 22.6601 45.5826C22.2798 45.9628 21.8288 46.1537 21.308 46.1537H19.3847C17.3015 46.1537 15.3134 45.7475 13.4201 44.9365C11.5273 44.1254 9.89005 43.0283 8.50766 41.646C7.12537 40.2636 6.02787 38.626 5.21717 36.7332C4.40615 34.8406 4.00023 32.8521 4.00023 30.7689V9.61535C4.00054 8.01246 4.56097 6.65048 5.6833 5.52899Z" fill="url(#paint1_linear)"/>
</g>
<defs>
<filter id="filter0_d" x="0" y="0" width="58" height="58" filterUnits="userSpaceOnUse" color-interpolation-filters="sRGB">
<feFlood flood-opacity="0" result="BackgroundImageFix"/>
<feColorMatrix in="SourceAlpha" type="matrix" values="0 0 0 0 0 0 0 0 0 0 0 0 0 0 0 0 0 0 127 0"/>
<feOffset dy="4"/>
<feGaussianBlur stdDeviation="2"/>
<feColorMatrix type="matrix" values="0 0 0 0 0 0 0 0 0 0 0 0 0 0 0 0 0 0 0.25 0"/>
<feBlend mode="normal" in2="BackgroundImageFix" result="effect1_dropShadow"/>
<feBlend mode="normal" in="SourceGraphic" in2="effect1_dropShadow" result="shape"/>
</filter>
<linearGradient id="paint0_linear" x1="43.611" y1="-23.2904" x2="85.555" y2="21.5428" gradientUnits="userSpaceOnUse">
<stop stop-color="#EE72E9"/>
<stop offset="1" stop-color="#8363F9"/>
</linearGradient>
<linearGradient id="paint1_linear" x1="16.6879" y1="-23.2904" x2="58.6319" y2="21.542" gradientUnits="userSpaceOnUse">
<stop stop-color="#EE72E9"/>
<stop offset="1" stop-color="#8363F9"/>
</linearGradient>
<clipPath id="clip0">
<rect width="50" height="50" fill="white" transform="matrix(-1 0 0 1 54 0)"/>
</clipPath>
</defs>
</svg>
