<svg width="40" height="40" viewBox="0 0 40 40" fill="none" xmlns="http://www.w3.org/2000/svg">
<circle cx="20" cy="20.0006" r="20" fill="url(#paint0_linear)"/>
<g clip-path="url(#clip0)">
<path d="M20.3595 27.058L27.0572 20.3603C27.144 20.2735 27.2061 20.1371 27.2061 20.0006C27.2061 19.8642 27.144 19.7278 27.0572 19.6409L20.3595 12.9433C20.1611 12.7448 19.8386 12.7448 19.6402 12.9433C19.5409 13.0425 19.4913 13.1665 19.4913 13.303C19.4913 13.4394 19.5409 13.5634 19.6402 13.6627L25.4696 19.4921L13.3022 19.4921C13.0169 19.4921 12.7937 19.7154 12.7937 20.0006C12.7937 20.2859 13.0169 20.5092 13.3022 20.5092L25.4696 20.5092L19.6402 26.3386C19.4417 26.5371 19.4417 26.8595 19.6402 27.058C19.8386 27.2564 20.1611 27.244 20.3595 27.058Z" fill="#F6F6F6"/>
</g>
<defs>
<linearGradient id="paint0_linear" x1="18.0076" y1="-25.6563" x2="-14.1753" y2="37.4095" gradientUnits="userSpaceOnUse">
<stop stop-color="#EE72E9"/>
<stop offset="1" stop-color="#8363F9"/>
</linearGradient>
<clipPath id="clip0">
<rect width="16" height="16" fill="white" transform="translate(28 12.0006) rotate(90)"/>
</clipPath>
</defs>
</svg>
